<svg xmlns="http://www.w3.org/2000/svg" fill="#fff" viewBox="0 0 32 32"><path d="m12.037 20.443-3.879 6.469h6.046c-.587-2.782.189-4.872 2.198-5.077l-.849-1.393h-3.517zm6.065-8.342H16.91v5.751l1.091 1.711h-1.462l-.908-1.388v-6.074h-3.743v6.074L5.855 28.179h8.349v1.262H5.561c-1.205 0-1.561-.603-.993-1.569l6.042-10.02v-5.751H9.417c-.892 0-.892-1.262 0-1.262h8.684c.892 0 .892 1.262 0 1.262zm-.312 15.075v1.368h-1.03c-.87 0-1.379-.632-1.591-1.518-.287-1.192-.276-1.903 0-3.044.238-.995 1-1.518 1.871-1.518h4.118v-.515h-2.994V20.77c0-.864.23-1.162 1.498-1.385a9.2 9.2 0 0 1 2.991 0c.813.135 1.498.745 1.498 1.557v2.851a1.51 1.51 0 0 1-1.498 1.522H19.66c-1.015 0-1.871.872-1.871 1.86zm2.667-6.51a.687.687 0 0 0-1.028-.602.7.7 0 0 0 0 1.203c.455.267 1.028-.068 1.028-.602zm4.408 3.423V22.72h1.03c.87 0 1.379.632 1.591 1.518.287 1.191.275 1.903 0 3.043-.239.996-1.001 1.518-1.871 1.518h-4.118v.466h2.994v1.227c0 .864-.23 1.162-1.498 1.385a9.2 9.2 0 0 1-2.991 0c-.813-.135-1.498-.745-1.498-1.556V27.47c0-.837.665-1.522 1.498-1.522h2.991c1.015 0 1.871-.872 1.871-1.86zm-2.667 6.509c0 .534.572.868 1.028.602a.7.7 0 0 0 0-1.204c-.455-.267-1.028.069-1.028.602"/><path d="m13.684 0-1.863 1.961.054 1.372 1.18.844.744 4.244.252-.627.275-5.489.436.024-.212 4.22.66-1.651.191-2.518.021-.418zm3.241 1.179-1.086 1.184-.091 1.192.247-.611.709-.32.222-1.445zm1.406 1.193-1.998.895-2.393 5.967.341 1.942h.182l3.442-6.834.39.196-3.344 6.639h.569l3.419-6.804-.606-2.001zm-7.933.441L9.137 5.124l1.612 6.053h2.183L11.74 4.769l.427-.079 1.208 6.487h.464l-1.182-6.748L10.4 2.813zm8.355 6.072-1.534-.121-1.161 2.313 1.628-.856 1.068-1.336zM8.588 8.232l.99 2.955h.723l-.656-2.458z"/></svg>
