<svg class="main-svg" xmlns="http://www.w3.org/2000/svg" xmlns:xlink="http://www.w3.org/1999/xlink" width="700" height="500" style="" viewBox="0 0 700 500"><rect x="0" y="0" width="700" height="500" style="fill: rgb(0, 0, 0); fill-opacity: 0;"/><defs id="defs-dbe42d"><g class="clips"/><g class="gradients"/><g class="patterns"/></defs><g class="bglayer"/><g class="layer-below"><g class="imagelayer"/><g class="shapelayer"/></g><g class="cartesianlayer"/><g class="polarlayer"/><g class="smithlayer"/><g class="ternarylayer"/><g class="geolayer"/><g class="funnelarealayer"/><g class="pielayer"/><g class="iciclelayer"/><g class="treemaplayer"><g class="trace treemap" style="opacity: 1;"><g class="slice cursor-pointer"><path class="surface" d="M0,108a8,8 0 0 1 8,-8L692,100a8,8 0 0 1 8,8L700,492a8,8 0 0 1 -8,8L8,500a8,8 0 0 1 -8,-8Z" style="pointer-events: none; fill: rgb(0, 0, 0); fill-opacity: 0; stroke-width: 0; stroke: rgb(0, 0, 0); stroke-opacity: 0; opacity: 100;"/><g class="slicetext"><text data-notex="1" class="slicetext" text-anchor="start" x="0" y="0" style="font-family: 'Open Sans', verdana, arial, sans-serif; font-size: 12px; fill: rgb(242, 245, 250); fill-opacity: 1; white-space: pre;" transform="translate(6,115)"> </text></g></g><g class="slice cursor-pointer"><path class="surface" d="M6,130a6,6 0 0 1 6,-6L509.9902473834443,124a6,6 0 0 1 6,6L515.9902473834443,488a6,6 0 0 1 -6,6L12,494a6,6 0 0 1 -6,-6Z" style="pointer-events: none; stroke-width: 1; fill: rgb(102, 194, 165); fill-opacity: 1; stroke: rgb(0, 0, 0); stroke-opacity: 0; opacity: 1;"/><g class="slicetext"><text data-notex="1" class="slicetext" text-anchor="start" x="0" y="0" style="font-family: 'Open Sans', verdana, arial, sans-serif; font-size: 12px; fill: rgb(68, 68, 68); fill-opacity: 1; white-space: pre;" transform="translate(12,139)">ternary (N=6,242, 74.2%)</text></g></g><g class="slice cursor-pointer"><path class="surface" d="M518.9902473834443,130a6,6 0 0 1 6,-6L688,124a6,6 0 0 1 6,6L694,309.93813481071095a6,6 0 0 1 -6,6L524.9902473834443,315.93813481071095a6,6 0 0 1 -6,-6Z" style="pointer-events: none; stroke-width: 1; fill: rgb(252, 141, 98); fill-opacity: 1; stroke: rgb(0, 0, 0); stroke-opacity: 0; opacity: 1;"/><g class="slicetext"><text data-notex="1" class="slicetext" text-anchor="start" x="0" y="0" style="font-family: 'Open Sans', verdana, arial, sans-serif; font-size: 12px; fill: rgb(68, 68, 68); fill-opacity: 1; white-space: pre;" transform="translate(524.9902473834443,139)">binary (N=1,132, 13.5%)</text></g></g><g class="slice cursor-pointer"><path class="surface" d="M518.9902473834443,324.93813481071095a6,6 0 0 1 6,-6L688,318.93813481071095a6,6 0 0 1 6,6L694,405.51292705447827a6,6 0 0 1 -6,6L524.9902473834443,411.51292705447827a6,6 0 0 1 -6,-6Z" style="pointer-events: none; stroke-width: 1; fill: rgb(141, 160, 203); fill-opacity: 1; stroke: rgb(0, 0, 0); stroke-opacity: 0; opacity: 1;"/><g class="slicetext"><text data-notex="1" class="slicetext" text-anchor="start" x="0" y="0" style="font-family: 'Open Sans', verdana, arial, sans-serif; font-size: 12px; fill: rgb(68, 68, 68); fill-opacity: 1; white-space: pre;" transform="translate(524.9902473834443,333.8486561701929)scale(0.9925434466234959)">quaternary (N=555, 6.6%)</text></g></g><g class="slice cursor-pointer"><path class="surface" d="M518.9902473834443,420.51292705447827a6,6 0 0 1 6,-6L625.5665168275964,414.51292705447827a6,6 0 0 1 6,6L631.5665168275964,488a6,6 0 0 1 -6,6L524.9902473834443,494a6,6 0 0 1 -6,-6Z" style="pointer-events: none; stroke-width: 1; fill: rgb(231, 138, 195); fill-opacity: 1; stroke: rgb(0, 0, 0); stroke-opacity: 0; opacity: 1;"/><g class="slicetext"><text data-notex="1" class="slicetext" text-anchor="start" x="0" y="0" style="font-family: 'Open Sans', verdana, arial, sans-serif; font-size: 12px; fill: rgb(68, 68, 68); fill-opacity: 1; white-space: pre;" transform="translate(524.9902473834443,425.9344899560383)scale(0.7017969084633379)">quinary (N=311, 3.7%)</text></g></g><g class="slice cursor-pointer"><path class="surface" d="M634.5665168275964,420.51292705447827a6,6 0 0 1 6,-6L688,414.51292705447827a6,6 0 0 1 6,6L694,456.0853586817922a6,6 0 0 1 -6,6L640.5665168275964,462.0853586817922a6,6 0 0 1 -6,-6Z" style="pointer-events: none; stroke-width: 1; fill: rgb(166, 216, 84); fill-opacity: 1; stroke: rgb(0, 0, 0); stroke-opacity: 0; opacity: 1;"/><g class="slicetext"><text data-notex="1" class="slicetext" text-anchor="start" x="0" y="0" style="font-family: 'Open Sans', verdana, arial, sans-serif; font-size: 12px; fill: rgb(68, 68, 68); fill-opacity: 1; white-space: pre;" transform="translate(640.5665168275964,421.62686438665287)scale(0.34282811101454896)">senary (N=103, 1.2%)</text></g></g><g class="slice cursor-pointer"><path class="surface" d="M634.5665168275964,471.0853586817922a6,6 0 0 1 6,-6L674.55278823979,465.0853586817922a6,6 0 0 1 6,6L680.55278823979,488a6,6 0 0 1 -6,6L640.5665168275964,494a6,6 0 0 1 -6,-6Z" style="pointer-events: none; stroke-width: 1; fill: rgb(255, 217, 47); fill-opacity: 1; stroke: rgb(0, 0, 0); stroke-opacity: 0; opacity: 1;"/><g class="slicetext"><text data-notex="1" class="slicetext" text-anchor="start" x="0" y="0" style="font-family: 'Open Sans', verdana, arial, sans-serif; font-size: 12px; fill: rgb(68, 68, 68); fill-opacity: 1; white-space: pre;" transform="translate(640.5665168275964,470.8028450372908)scale(0.22645719629155522)">septenary (N=51, 0.6%)</text></g></g><g class="slice cursor-pointer"><path class="surface" d="M683.55278823979,470.3089645618972a5.223605880105026,5.223605880105026 0 0 1 5.223605880105026,-5.223605880105026L688.776394119895,465.0853586817922a5.223605880105026,5.223605880105026 0 0 1 5.223605880105026,5.223605880105026L694,477.3783079348207a5.223605880105026,5.223605880105026 0 0 1 -5.223605880105026,5.223605880105026L688.776394119895,482.60191381492575a5.223605880105026,5.223605880105026 0 0 1 -5.223605880105026,-5.223605880105026Z" style="pointer-events: none; stroke-width: 1; fill: rgb(229, 196, 148); fill-opacity: 1; stroke: rgb(0, 0, 0); stroke-opacity: 0; opacity: 1;"/><g class="slicetext"><text data-notex="1" class="slicetext" text-anchor="start" x="0" y="0" style="font-family: 'Open Sans', verdana, arial, sans-serif; font-size: 12px; fill: rgb(68, 68, 68); fill-opacity: 1; white-space: pre;" transform="translate(689.55278823979,465.5403891416698)scale(0.03791920498980061)">unary (N=9, 0.1%)</text></g></g><g class="slice cursor-pointer"><path class="surface" d="M683.55278823979,489.8009569074629a4.199043092537124,4.199043092537124 0 0 1 4.199043092537124,-4.199043092537124L689.8009569074629,485.60191381492575a4.199043092537124,4.199043092537124 0 0 1 4.199043092537124,4.199043092537124L694,489.8009569074629a4.199043092537124,4.199043092537124 0 0 1 -4.199043092537124,4.199043092537124L687.7518313323271,494a4.199043092537124,4.199043092537124 0 0 1 -4.199043092537124,-4.199043092537124Z" style="pointer-events: none; stroke-width: 1; fill: rgb(179, 179, 179); fill-opacity: 1; stroke: rgb(0, 0, 0); stroke-opacity: 0; opacity: 1;"/><g class="slicetext"><text data-notex="1" class="slicetext" text-anchor="start" x="0" y="0" style="font-family: 'Open Sans', verdana, arial, sans-serif; font-size: 12px; fill: rgb(68, 68, 68); fill-opacity: 1; white-space: pre;" transform="translate(689.55278823979,485.9965364182581)scale(0.032885216944360876)">octonary (N=5, 0.1%)</text></g></g><g class="slice cursor-pointer"><path class="surface" d="M12,154a6,6 0 0 1 6,-6L422.60541706514687,148a6,6 0 0 1 6,6L428.60541706514687,482a6,6 0 0 1 -6,6L18,488a6,6 0 0 1 -6,-6Z" style="pointer-events: none; stroke-width: 1; fill: rgb(255, 255, 255); fill-opacity: 0.1; stroke: rgb(0, 0, 0); stroke-opacity: 0; opacity: 1;"/><g class="slicetext"><text data-notex="1" class="slicetext" text-anchor="start" x="0" y="0" style="font-family: 'Open Sans', verdana, arial, sans-serif; font-size: 12px; fill: rgb(68, 68, 68); fill-opacity: 1; white-space: pre;" transform="translate(15,163)"><tspan class="line" dy="0em" x="0" y="0">Other (330 more not shown)</tspan><tspan class="line" dy="1.3em" x="0" y="0">N=5228</tspan><tspan class="line" dy="2.6em" x="0" y="0">62%</tspan></text></g></g><g class="slice cursor-pointer"><path class="surface" d="M431.60541706514687,154a6,6 0 0 1 6,-6L503.9902473834443,148a6,6 0 0 1 6,6L509.9902473834443,250.62721893491124a6,6 0 0 1 -6,6L437.60541706514687,256.62721893491124a6,6 0 0 1 -6,-6Z" style="pointer-events: none; stroke-width: 1; fill: rgb(102, 194, 165); fill-opacity: 1; stroke: rgb(0, 0, 0); stroke-opacity: 0; opacity: 1;"/><g class="slicetext"><text data-notex="1" class="slicetext" text-anchor="start" x="0" y="0" style="font-family: 'Open Sans', verdana, arial, sans-serif; font-size: 12px; fill: rgb(68, 68, 68); fill-opacity: 1; white-space: pre;" transform="translate(434.60541706514687,163)"><tspan class="line" dy="0em" x="0" y="0">Al-La-Ni</tspan><tspan class="line" dy="1.3em" x="0" y="0">N=330</tspan><tspan class="line" dy="2.6em" x="0" y="0">4%</tspan></text></g></g><g class="slice cursor-pointer"><path class="surface" d="M431.60541706514687,265.62721893491124a6,6 0 0 1 6,-6L503.9902473834443,259.62721893491124a6,6 0 0 1 6,6L509.9902473834443,318.2800788954635a6,6 0 0 1 -6,6L437.60541706514687,324.2800788954635a6,6 0 0 1 -6,-6Z" style="pointer-events: none; stroke-width: 1; fill: rgb(102, 194, 165); fill-opacity: 1; stroke: rgb(0, 0, 0); stroke-opacity: 0; opacity: 1;"/><g class="slicetext"><text data-notex="1" class="slicetext" text-anchor="start" x="0" y="0" style="font-family: 'Open Sans', verdana, arial, sans-serif; font-size: 12px; fill: rgb(68, 68, 68); fill-opacity: 1; white-space: pre;" transform="translate(434.60541706514687,274.62721893491124)"><tspan class="line" dy="0em" x="0" y="0">Al-Ni-Zr</tspan><tspan class="line" dy="1.3em" x="0" y="0">N=200</tspan><tspan class="line" dy="2.6em" x="0" y="0">2%</tspan></text></g></g><g class="slice cursor-pointer"><path class="surface" d="M431.60541706514687,333.2800788954635a6,6 0 0 1 6,-6L503.9902473834443,327.2800788954635a6,6 0 0 1 6,6L509.9902473834443,377.8145956607495a6,6 0 0 1 -6,6L437.60541706514687,383.8145956607495a6,6 0 0 1 -6,-6Z" style="pointer-events: none; stroke-width: 1; fill: rgb(102, 194, 165); fill-opacity: 1; stroke: rgb(0, 0, 0); stroke-opacity: 0; opacity: 1;"/><g class="slicetext"><text data-notex="1" class="slicetext" text-anchor="start" x="0" y="0" style="font-family: 'Open Sans', verdana, arial, sans-serif; font-size: 12px; fill: rgb(68, 68, 68); fill-opacity: 1; white-space: pre;" transform="translate(434.60541706514687,342.2800788954635)"><tspan class="line" dy="0em" x="0" y="0">B-Fe-Si</tspan><tspan class="line" dy="1.3em" x="0" y="0">N=176</tspan><tspan class="line" dy="2.6em" x="0" y="0">2%</tspan></text></g></g><g class="slice cursor-pointer"><path class="surface" d="M431.60541706514687,392.8145956607495a6,6 0 0 1 6,-6L503.9902473834443,386.8145956607495a6,6 0 0 1 6,6L509.9902473834443,431.59861932938855a6,6 0 0 1 -6,6L437.60541706514687,437.59861932938855a6,6 0 0 1 -6,-6Z" style="pointer-events: none; stroke-width: 1; fill: rgb(102, 194, 165); fill-opacity: 1; stroke: rgb(0, 0, 0); stroke-opacity: 0; opacity: 1;"/><g class="slicetext"><text data-notex="1" class="slicetext" text-anchor="start" x="0" y="0" style="font-family: 'Open Sans', verdana, arial, sans-serif; font-size: 12px; fill: rgb(68, 68, 68); fill-opacity: 1; white-space: pre;" transform="translate(434.60541706514687,401.5732726445152)scale(0.9798897486471454)"><tspan class="line" dy="0em" x="0" y="0">B-Co-Mn</tspan><tspan class="line" dy="1.3em" x="0" y="0">N=159</tspan><tspan class="line" dy="2.6em" x="0" y="0">2%</tspan></text></g></g><g class="slice cursor-pointer"><path class="surface" d="M431.60541706514687,446.59861932938855a6,6 0 0 1 6,-6L503.9902473834443,440.59861932938855a6,6 0 0 1 6,6L509.9902473834443,482a6,6 0 0 1 -6,6L437.60541706514687,488a6,6 0 0 1 -6,-6Z" style="pointer-events: none; stroke-width: 1; fill: rgb(102, 194, 165); fill-opacity: 1; stroke: rgb(0, 0, 0); stroke-opacity: 0; opacity: 1;"/><g class="slicetext"><text data-notex="1" class="slicetext" text-anchor="start" x="0" y="0" style="font-family: 'Open Sans', verdana, arial, sans-serif; font-size: 12px; fill: rgb(68, 68, 68); fill-opacity: 1; white-space: pre;" transform="translate(434.60541706514687,454.46913569008245)scale(0.9058763633911564)"><tspan class="line" dy="0em" x="0" y="0">B-Fe-Ni</tspan><tspan class="line" dy="1.3em" x="0" y="0">N=149</tspan><tspan class="line" dy="2.6em" x="0" y="0">2%</tspan></text></g></g><g class="slice cursor-pointer"><path class="surface" d="M524.9902473834443,154a6,6 0 0 1 6,-6L636.391313547925,148a6,6 0 0 1 6,6L642.391313547925,303.93813481071095a6,6 0 0 1 -6,6L530.9902473834443,309.93813481071095a6,6 0 0 1 -6,-6Z" style="pointer-events: none; stroke-width: 1; fill: rgb(255, 255, 255); fill-opacity: 0.1; stroke: rgb(0, 0, 0); stroke-opacity: 0; opacity: 1;"/><g class="slicetext"><text data-notex="1" class="slicetext" text-anchor="start" x="0" y="0" style="font-family: 'Open Sans', verdana, arial, sans-serif; font-size: 12px; fill: rgb(68, 68, 68); fill-opacity: 1; white-space: pre;" transform="translate(527.9902473834443,159.03116669617208)scale(0.6692638913476738)"><tspan class="line" dy="0em" x="0" y="0">Other (73 more not shown)</tspan><tspan class="line" dy="1.3em" x="0" y="0">N=821</tspan><tspan class="line" dy="2.6em" x="0" y="0">10%</tspan></text></g></g><g class="slice cursor-pointer"><path class="surface" d="M645.391313547925,154a6,6 0 0 1 6,-6L682,148a6,6 0 0 1 6,6L688,190.44372693453045a6,6 0 0 1 -6,6L651.391313547925,196.44372693453045a6,6 0 0 1 -6,-6Z" style="pointer-events: none; stroke-width: 1; fill: rgb(252, 141, 98); fill-opacity: 1; stroke: rgb(0, 0, 0); stroke-opacity: 0; opacity: 1;"/><g class="slicetext"><text data-notex="1" class="slicetext" text-anchor="start" x="0" y="0" style="font-family: 'Open Sans', verdana, arial, sans-serif; font-size: 12px; fill: rgb(68, 68, 68); fill-opacity: 1; white-space: pre;" transform="translate(648.391313547925,162.1441990720408)scale(0.9286832560034012)"><tspan class="line" dy="0em" x="0" y="0">B-Fe</tspan><tspan class="line" dy="1.3em" x="0" y="0">N=97</tspan><tspan class="line" dy="2.6em" x="0" y="0">1%</tspan></text></g></g><g class="slice cursor-pointer"><path class="surface" d="M645.391313547925,205.44372693453045a6,6 0 0 1 6,-6L682,199.44372693453045a6,6 0 0 1 6,6L688,229.15910906051727a6,6 0 0 1 -6,6L651.391313547925,235.15910906051727a6,6 0 0 1 -6,-6Z" style="pointer-events: none; stroke-width: 1; fill: rgb(252, 141, 98); fill-opacity: 1; stroke: rgb(0, 0, 0); stroke-opacity: 0; opacity: 1;"/><g class="slicetext"><text data-notex="1" class="slicetext" text-anchor="start" x="0" y="0" style="font-family: 'Open Sans', verdana, arial, sans-serif; font-size: 12px; fill: rgb(68, 68, 68); fill-opacity: 1; white-space: pre;" transform="translate(648.391313547925,210.24591957478955)scale(0.6501827200215919)"><tspan class="line" dy="0em" x="0" y="0">Al-Ce</tspan><tspan class="line" dy="1.3em" x="0" y="0">N=73</tspan><tspan class="line" dy="2.6em" x="0" y="0">1%</tspan></text></g></g><g class="slice cursor-pointer"><path class="surface" d="M645.391313547925,244.15910906051727a6,6 0 0 1 6,-6L682,238.15910906051727a6,6 0 0 1 6,6L688,256.20684177867247a6,6 0 0 1 -6,6L651.391313547925,262.20684177867247a6,6 0 0 1 -6,-6Z" style="pointer-events: none; stroke-width: 1; fill: rgb(252, 141, 98); fill-opacity: 1; stroke: rgb(0, 0, 0); stroke-opacity: 0; opacity: 1;"/><g class="slicetext"><text data-notex="1" class="slicetext" text-anchor="start" x="0" y="0" style="font-family: 'Open Sans', verdana, arial, sans-serif; font-size: 12px; fill: rgb(68, 68, 68); fill-opacity: 1; white-space: pre;" transform="translate(648.391313547925,245.89779580497648)scale(0.39489056203826706)"><tspan class="line" dy="0em" x="0" y="0">Al-Ni</tspan><tspan class="line" dy="1.3em" x="0" y="0">N=51</tspan><tspan class="line" dy="2.6em" x="0" y="0">1%</tspan></text></g></g><g class="slice cursor-pointer"><path class="surface" d="M645.391313547925,271.20684177867247a6,6 0 0 1 6,-6L682,265.20684177867247a6,6 0 0 1 6,6L688,282.19387909611567a6,6 0 0 1 -6,6L651.391313547925,288.19387909611567a6,6 0 0 1 -6,-6Z" style="pointer-events: none; stroke-width: 1; fill: rgb(252, 141, 98); fill-opacity: 1; stroke: rgb(0, 0, 0); stroke-opacity: 0; opacity: 1;"/><g class="slicetext"><text data-notex="1" class="slicetext" text-anchor="start" x="0" y="0" style="font-family: 'Open Sans', verdana, arial, sans-serif; font-size: 12px; fill: rgb(68, 68, 68); fill-opacity: 1; white-space: pre;" transform="translate(648.391313547925,272.6670279871499)scale(0.37168218403978276)"><tspan class="line" dy="0em" x="0" y="0">B-Co</tspan><tspan class="line" dy="1.3em" x="0" y="0">N=49</tspan><tspan class="line" dy="2.6em" x="0" y="0">1%</tspan></text></g></g><g class="slice cursor-pointer"><path class="surface" d="M645.391313547925,297.19387909611567a6,6 0 0 1 6,-6L682,291.19387909611567a6,6 0 0 1 6,6L688,303.93813481071095a6,6 0 0 1 -6,6L651.391313547925,309.93813481071095a6,6 0 0 1 -6,-6Z" style="pointer-events: none; stroke-width: 1; fill: rgb(252, 141, 98); fill-opacity: 1; stroke: rgb(0, 0, 0); stroke-opacity: 0; opacity: 1;"/><g class="slicetext"><text data-notex="1" class="slicetext" text-anchor="start" x="0" y="0" style="font-family: 'Open Sans', verdana, arial, sans-serif; font-size: 12px; fill: rgb(68, 68, 68); fill-opacity: 1; white-space: pre;" transform="translate(648.391313547925,297.54006316066585)scale(0.27884867204584673)"><tspan class="line" dy="0em" x="0" y="0">Pd-Si</tspan><tspan class="line" dy="1.3em" x="0" y="0">N=41</tspan><tspan class="line" dy="2.6em" x="0" y="0">0.488%</tspan></text></g></g><g class="slice cursor-pointer"><path class="surface" d="M524.9902473834443,348.93813481071095a6,6 0 0 1 6,-6L635.0386825931545,342.93813481071095a6,6 0 0 1 6,6L641.0386825931545,399.51292705447827a6,6 0 0 1 -6,6L530.9902473834443,405.51292705447827a6,6 0 0 1 -6,-6Z" style="pointer-events: none; stroke-width: 1; fill: rgb(255, 255, 255); fill-opacity: 0.1; stroke: rgb(0, 0, 0); stroke-opacity: 0; opacity: 1;"/><g class="slicetext"><text data-notex="1" class="slicetext" text-anchor="start" x="0" y="0" style="font-family: 'Open Sans', verdana, arial, sans-serif; font-size: 12px; fill: rgb(68, 68, 68); fill-opacity: 1; white-space: pre;" transform="translate(527.9902473834443,353.87178713785426)scale(0.6611376939286072)"><tspan class="line" dy="0em" x="0" y="0">Other (93 more not shown)</tspan><tspan class="line" dy="1.3em" x="0" y="0">N=398</tspan><tspan class="line" dy="2.6em" x="0" y="0">5%</tspan></text></g></g><g class="slice cursor-pointer"><path class="surface" d="M644.0386825931545,348.93813481071095a6,6 0 0 1 6,-6L662.4767556847945,342.93813481071095a6,6 0 0 1 6,6L668.4767556847945,371.111106210044a6,6 0 0 1 -6,6L650.0386825931545,377.111106210044a6,6 0 0 1 -6,-6Z" style="pointer-events: none; stroke-width: 1; fill: rgb(141, 160, 203); fill-opacity: 1; stroke: rgb(0, 0, 0); stroke-opacity: 0; opacity: 1;"/><g class="slicetext"><text data-notex="1" class="slicetext" text-anchor="start" x="0" y="0" style="font-family: 'Open Sans', verdana, arial, sans-serif; font-size: 12px; fill: rgb(68, 68, 68); fill-opacity: 1; white-space: pre;" transform="translate(647.0386825931545,349.1224028868026)scale(0.2653556730076371)"><tspan class="line" dy="0em" x="0" y="0">Al-Cu-Ni-Zr</tspan><tspan class="line" dy="1.3em" x="0" y="0">N=52</tspan><tspan class="line" dy="2.6em" x="0" y="0">1%</tspan></text></g></g><g class="slice cursor-pointer"><path class="surface" d="M671.4767556847945,348.93813481071095a6,6 0 0 1 6,-6L682,342.93813481071095a6,6 0 0 1 6,6L688,371.111106210044a6,6 0 0 1 -6,6L677.4767556847945,377.111106210044a6,6 0 0 1 -6,-6Z" style="pointer-events: none; stroke-width: 1; fill: rgb(141, 160, 203); fill-opacity: 1; stroke: rgb(0, 0, 0); stroke-opacity: 0; opacity: 1;"/><g class="slicetext"><text data-notex="1" class="slicetext" text-anchor="start" x="0" y="0" style="font-family: 'Open Sans', verdana, arial, sans-serif; font-size: 12px; fill: rgb(68, 68, 68); fill-opacity: 1; white-space: pre;" transform="translate(674.4767556847945,347.8357285261554)scale(0.15813280962036894)"><tspan class="line" dy="0em" x="0" y="0">Cu-Ni-P-Pd</tspan><tspan class="line" dy="1.3em" x="0" y="0">N=37</tspan><tspan class="line" dy="2.6em" x="0" y="0">0.44%</tspan></text></g></g><g class="slice cursor-pointer"><path class="surface" d="M644.0386825931545,386.111106210044a6,6 0 0 1 6,-6L657.1381260787289,380.111106210044a6,6 0 0 1 6,6L663.1381260787289,399.51292705447827a6,6 0 0 1 -6,6L650.0386825931545,405.51292705447827a6,6 0 0 1 -6,-6Z" style="pointer-events: none; stroke-width: 1; fill: rgb(141, 160, 203); fill-opacity: 1; stroke: rgb(0, 0, 0); stroke-opacity: 0; opacity: 1;"/><g class="slicetext"><text data-notex="1" class="slicetext" text-anchor="start" x="0" y="0" style="font-family: 'Open Sans', verdana, arial, sans-serif; font-size: 12px; fill: rgb(68, 68, 68); fill-opacity: 1; white-space: pre;" transform="translate(647.0386825931545,385.3572264594124)scale(0.18717668744736804)"><tspan class="line" dy="0em" x="0" y="0">Al-Cu-La-Ni</tspan><tspan class="line" dy="1.3em" x="0" y="0">N=32</tspan><tspan class="line" dy="2.6em" x="0" y="0">0.381%</tspan></text></g></g><g class="slice cursor-pointer"><path class="surface" d="M666.1381260787289,386.111106210044a6,6 0 0 1 6,-6L682,380.111106210044a6,6 0 0 1 6,6L688,386.889895568063a6,6 0 0 1 -6,6L672.1381260787289,392.889895568063a6,6 0 0 1 -6,-6Z" style="pointer-events: none; stroke-width: 1; fill: rgb(141, 160, 203); fill-opacity: 1; stroke: rgb(0, 0, 0); stroke-opacity: 0; opacity: 1;"/><g class="slicetext"><text data-notex="1" class="slicetext" text-anchor="start" x="0" y="0" style="font-family: 'Open Sans', verdana, arial, sans-serif; font-size: 12px; fill: rgb(68, 68, 68); fill-opacity: 1; white-space: pre;" transform="translate(669.1381260787289,384.8909729543034)scale(0.14832222868827954)"><tspan class="line" dy="0em" x="0" y="0">Ag-Al-Cu-Zr</tspan><tspan class="line" dy="1.3em" x="0" y="0">N=20</tspan><tspan class="line" dy="2.6em" x="0" y="0">0.238%</tspan></text></g></g><g class="slice cursor-pointer"><path class="surface" d="M666.1381260787289,400.70141131127065a4.811515743207622,4.811515743207622 0 0 1 4.811515743207622,-4.811515743207622L683.1884842567924,395.889895568063a4.811515743207622,4.811515743207622 0 0 1 4.811515743207622,4.811515743207622L688,400.70141131127065a4.811515743207622,4.811515743207622 0 0 1 -4.811515743207622,4.811515743207622L670.9496418219364,405.51292705447827a4.811515743207622,4.811515743207622 0 0 1 -4.811515743207622,-4.811515743207622Z" style="pointer-events: none; stroke-width: 1; fill: rgb(141, 160, 203); fill-opacity: 1; stroke: rgb(0, 0, 0); stroke-opacity: 0; opacity: 1;"/><g class="slicetext"><text data-notex="1" class="slicetext" text-anchor="start" x="0" y="0" style="font-family: 'Open Sans', verdana, arial, sans-serif; font-size: 12px; fill: rgb(68, 68, 68); fill-opacity: 1; white-space: pre;" transform="translate(669.1381260787289,399.84117357885515)scale(0.07927316756600875)"><tspan class="line" dy="0em" x="0" y="0">B-Co-Fe-Y</tspan><tspan class="line" dy="1.3em" x="0" y="0">N=16</tspan><tspan class="line" dy="2.6em" x="0" y="0">0.19%</tspan></text></g></g><g class="slice cursor-pointer"><path class="surface" d="M524.9902473834443,444.51292705447827a6,6 0 0 1 6,-6L578.6022687837677,438.51292705447827a6,6 0 0 1 6,6L584.6022687837677,482a6,6 0 0 1 -6,6L530.9902473834443,488a6,6 0 0 1 -6,-6Z" style="pointer-events: none; stroke-width: 1; fill: rgb(255, 255, 255); fill-opacity: 0.1; stroke: rgb(0, 0, 0); stroke-opacity: 0; opacity: 1;"/><g class="slicetext"><text data-notex="1" class="slicetext" text-anchor="start" x="0" y="0" style="font-family: 'Open Sans', verdana, arial, sans-serif; font-size: 12px; fill: rgb(68, 68, 68); fill-opacity: 1; white-space: pre;" transform="translate(527.9902473834443,445.3779446490947)scale(0.3220847995513658)"><tspan class="line" dy="0em" x="0" y="0">Other (71 more not shown)</tspan><tspan class="line" dy="1.3em" x="0" y="0">N=188</tspan><tspan class="line" dy="2.6em" x="0" y="0">2%</tspan></text></g></g><g class="slice cursor-pointer"><path class="surface" d="M587.6022687837677,444.51292705447827a6,6 0 0 1 6,-6L619.5665168275964,438.51292705447827a6,6 0 0 1 6,6L625.5665168275964,451.2758597392068a6,6 0 0 1 -6,6L593.6022687837677,457.2758597392068a6,6 0 0 1 -6,-6Z" style="pointer-events: none; stroke-width: 1; fill: rgb(231, 138, 195); fill-opacity: 1; stroke: rgb(0, 0, 0); stroke-opacity: 0; opacity: 1;"/><g class="slicetext"><text data-notex="1" class="slicetext" text-anchor="start" x="0" y="0" style="font-family: 'Open Sans', verdana, arial, sans-serif; font-size: 12px; fill: rgb(68, 68, 68); fill-opacity: 1; white-space: pre;" transform="translate(590.6022687837677,444.8640150209301)scale(0.2792573305376498)"><tspan class="line" dy="0em" x="0" y="0">Be-Cu-Ni-Ti-Zr</tspan><tspan class="line" dy="1.3em" x="0" y="0">N=51</tspan><tspan class="line" dy="2.6em" x="0" y="0">1%</tspan></text></g></g><g class="slice cursor-pointer"><path class="surface" d="M587.6022687837677,466.2758597392068a6,6 0 0 1 6,-6L596.239653358194,460.2758597392068a6,6 0 0 1 6,6L602.239653358194,482a6,6 0 0 1 -6,6L593.6022687837677,488a6,6 0 0 1 -6,-6Z" style="pointer-events: none; stroke-width: 1; fill: rgb(231, 138, 195); fill-opacity: 1; stroke: rgb(0, 0, 0); stroke-opacity: 0; opacity: 1;"/><g class="slicetext"><text data-notex="1" class="slicetext" text-anchor="start" x="0" y="0" style="font-family: 'Open Sans', verdana, arial, sans-serif; font-size: 12px; fill: rgb(68, 68, 68); fill-opacity: 1; white-space: pre;" transform="translate(590.6022687837677,464.48635451168116)scale(0.10087456437286164)"><tspan class="line" dy="0em" x="0" y="0">Al-Cu-Ni-Ti-Zr</tspan><tspan class="line" dy="1.3em" x="0" y="0">N=31</tspan><tspan class="line" dy="2.6em" x="0" y="0">0.369%</tspan></text></g></g><g class="slice cursor-pointer"><path class="surface" d="M605.239653358194,464.7708139364347a4.4949541972279405,4.4949541972279405 0 0 1 4.4949541972279405,-4.4949541972279405L621.0715626303685,460.2758597392068a4.4949541972279405,4.4949541972279405 0 0 1 4.4949541972279405,4.4949541972279405L625.5665168275964,464.7708139364347a4.4949541972279405,4.4949541972279405 0 0 1 -4.4949541972279405,4.4949541972279405L609.7346075554219,469.2657681336627a4.4949541972279405,4.4949541972279405 0 0 1 -4.4949541972279405,-4.4949541972279405Z" style="pointer-events: none; stroke-width: 1; fill: rgb(231, 138, 195); fill-opacity: 1; stroke: rgb(0, 0, 0); stroke-opacity: 0; opacity: 1;"/><g class="slicetext"><text data-notex="1" class="slicetext" text-anchor="start" x="0" y="0" style="font-family: 'Open Sans', verdana, arial, sans-serif; font-size: 12px; fill: rgb(68, 68, 68); fill-opacity: 1; white-space: pre;" transform="translate(608.239653358194,464.060902353546)scale(0.06542021786159877)"><tspan class="line" dy="0em" x="0" y="0">Al-Cu-Nb-Ni-Zr</tspan><tspan class="line" dy="1.3em" x="0" y="0">N=16</tspan><tspan class="line" dy="2.6em" x="0" y="0">0.19%</tspan></text></g></g><g class="slice cursor-pointer"><path class="surface" d="M605.239653358194,476.8307526357073a4.564984502044638,4.564984502044638 0 0 1 4.564984502044638,-4.564984502044638L609.8046378602387,472.2657681336627a4.564984502044638,4.564984502044638 0 0 1 4.564984502044638,4.564984502044638L614.3696223622833,483.43501549795536a4.564984502044638,4.564984502044638 0 0 1 -4.564984502044638,4.564984502044638L609.8046378602387,488a4.564984502044638,4.564984502044638 0 0 1 -4.564984502044638,-4.564984502044638Z" style="pointer-events: none; stroke-width: 1; fill: rgb(231, 138, 195); fill-opacity: 1; stroke: rgb(0, 0, 0); stroke-opacity: 0; opacity: 1;"/><g class="slicetext"><text data-notex="1" class="slicetext" text-anchor="start" x="0" y="0" style="font-family: 'Open Sans', verdana, arial, sans-serif; font-size: 12px; fill: rgb(68, 68, 68); fill-opacity: 1; white-space: pre;" transform="translate(608.239653358194,475.6780865204792)scale(0.03435986556804694)"><tspan class="line" dy="0em" x="0" y="0">Al-Co-Cu-La-Ni</tspan><tspan class="line" dy="1.3em" x="0" y="0">N=13</tspan><tspan class="line" dy="2.6em" x="0" y="0">0.155%</tspan></text></g></g><g class="slice cursor-pointer"><path class="surface" d="M617.3696223622833,476.36421536631923a4.098447232656554,4.098447232656554 0 0 1 4.098447232656554,-4.098447232656554L621.4680695949398,472.2657681336627a4.098447232656554,4.098447232656554 0 0 1 4.098447232656554,4.098447232656554L625.5665168275964,483.90155276734345a4.098447232656554,4.098447232656554 0 0 1 -4.098447232656554,4.098447232656554L621.4680695949398,488a4.098447232656554,4.098447232656554 0 0 1 -4.098447232656554,-4.098447232656554Z" style="pointer-events: none; stroke-width: 1; fill: rgb(231, 138, 195); fill-opacity: 1; stroke: rgb(0, 0, 0); stroke-opacity: 0; opacity: 1;"/><g class="slicetext"><text data-notex="1" class="slicetext" text-anchor="start" x="0" y="0" style="font-family: 'Open Sans', verdana, arial, sans-serif; font-size: 12px; fill: rgb(68, 68, 68); fill-opacity: 1; white-space: pre;" transform="translate(620.3696223622833,475.5664122800206)scale(0.02505367886315732)"><tspan class="line" dy="0em" x="0" y="0">B-Co-Fe-Nb-Si</tspan><tspan class="line" dy="1.3em" x="0" y="0">N=12</tspan><tspan class="line" dy="2.6em" x="0" y="0">0.143%</tspan></text></g></g><g class="slice cursor-pointer"><path class="surface" d="M640.5665168275964,444.51292705447827a6,6 0 0 1 6,-6L665.8416995661231,438.51292705447827a6,6 0 0 1 6,6L671.8416995661231,450.0853586817922a6,6 0 0 1 -6,6L646.5665168275964,456.0853586817922a6,6 0 0 1 -6,-6Z" style="pointer-events: none; stroke-width: 1; fill: rgb(255, 255, 255); fill-opacity: 0.1; stroke: rgb(0, 0, 0); stroke-opacity: 0; opacity: 1;"/><g class="slicetext"><text data-notex="1" class="slicetext" text-anchor="start" x="0" y="0" style="font-family: 'Open Sans', verdana, arial, sans-serif; font-size: 12px; fill: rgb(68, 68, 68); fill-opacity: 1; white-space: pre;" transform="translate(643.5665168275964,443.3350748385005)scale(0.15184564866851688)"><tspan class="line" dy="0em" x="0" y="0">Other (30 more not shown)</tspan><tspan class="line" dy="1.3em" x="0" y="0">N=70</tspan><tspan class="line" dy="2.6em" x="0" y="0">1%</tspan></text></g></g><g class="slice cursor-pointer"><path class="surface" d="M674.8416995661231,442.3990271991039a3.8861001446256296,3.8861001446256296 0 0 1 3.8861001446256296,-3.8861001446256296L678.7277997107487,438.51292705447827a3.8861001446256296,3.8861001446256296 0 0 1 3.8861001446256296,3.8861001446256296L682.6138998553744,442.84815325202385a3.8861001446256296,3.8861001446256296 0 0 1 -3.8861001446256296,3.8861001446256296L678.7277997107487,446.7342533966495a3.8861001446256296,3.8861001446256296 0 0 1 -3.8861001446256296,-3.8861001446256296Z" style="pointer-events: none; stroke-width: 1; fill: rgb(166, 216, 84); fill-opacity: 1; stroke: rgb(0, 0, 0); stroke-opacity: 0; opacity: 1;"/><g class="slicetext"><text data-notex="1" class="slicetext" text-anchor="start" x="0" y="0" style="font-family: 'Open Sans', verdana, arial, sans-serif; font-size: 12px; fill: rgb(68, 68, 68); fill-opacity: 1; white-space: pre;" transform="translate(677.8416995661231,441.72241602202405)scale(0.017457413962148775)"><tspan class="line" dy="0em" x="0" y="0">B-C-Cr-Er-Fe-Mo</tspan><tspan class="line" dy="1.3em" x="0" y="0">N=12</tspan><tspan class="line" dy="2.6em" x="0" y="0">0.143%</tspan></text></g></g><g class="slice cursor-pointer"><path class="surface" d="M685.6138998553744,439.7059771267911a1.1930500723128148,1.1930500723128148 0 0 1 1.1930500723128148,-1.1930500723128148L686.8069499276871,438.51292705447827a1.1930500723128148,1.1930500723128148 0 0 1 1.1930500723128148,1.1930500723128148L688,445.54120332433666a1.1930500723128148,1.1930500723128148 0 0 1 -1.1930500723128148,1.1930500723128148L686.8069499276871,446.7342533966495a1.1930500723128148,1.1930500723128148 0 0 1 -1.1930500723128148,-1.1930500723128148Z" style="pointer-events: none; stroke-width: 1; fill: rgb(166, 216, 84); fill-opacity: 1; stroke: rgb(0, 0, 0); stroke-opacity: 0; opacity: 1;"/><g class="slicetext"><text data-notex="1" class="slicetext" text-anchor="start" x="0" y="0" style="font-family: 'Open Sans', verdana, arial, sans-serif; font-size: 12px; fill: rgb(68, 68, 68); fill-opacity: 1; white-space: pre;" transform="translate(688.6138998553744,438.78194128100097)scale(0.022417852210223178)"><tspan class="line" dy="0em" x="0" y="0">Al-Be-Cu-Ni-Ti-Zr</tspan><tspan class="line" dy="1.3em" x="0" y="0">N=6</tspan><tspan class="line" dy="2.6em" x="0" y="0">0.0714%</tspan></text></g></g><g class="slice cursor-pointer"><path class="surface" d="M674.8416995661231,451.46591348342486a1.7316600867753777,1.7316600867753777 0 0 1 1.7316600867753777,-1.7316600867753777L676.5733596528985,449.7342533966495a1.7316600867753777,1.7316600867753777 0 0 1 1.7316600867753777,1.7316600867753777L678.3050197396739,454.3536985950168a1.7316600867753777,1.7316600867753777 0 0 1 -1.7316600867753777,1.7316600867753777L676.5733596528985,456.0853586817922a1.7316600867753777,1.7316600867753777 0 0 1 -1.7316600867753777,-1.7316600867753777Z" style="pointer-events: none; stroke-width: 1; fill: rgb(166, 216, 84); fill-opacity: 1; stroke: rgb(0, 0, 0); stroke-opacity: 0; opacity: 1;"/><g class="slicetext"><text data-notex="1" class="slicetext" text-anchor="start" x="0" y="0" style="font-family: 'Open Sans', verdana, arial, sans-serif; font-size: 12px; fill: rgb(68, 68, 68); fill-opacity: 1; white-space: pre;" transform="translate(677.8416995661231,450.17623244172876)scale(0.03683158708993824)"><tspan class="line" dy="0em" x="0" y="0">B-C-Fe-Mo-P-Si</tspan><tspan class="line" dy="1.3em" x="0" y="0">N=6</tspan><tspan class="line" dy="2.6em" x="0" y="0">0.0714%</tspan></text></g></g><g class="slice cursor-pointer"><path class="surface" d="M681.3050197396739,450.9273034689623a1.1930500723128148,1.1930500723128148 0 0 1 1.1930500723128148,-1.1930500723128148L682.4980698119866,449.7342533966495a1.1930500723128148,1.1930500723128148 0 0 1 1.1930500723128148,1.1930500723128148L683.6911198842995,454.89230860947936a1.1930500723128148,1.1930500723128148 0 0 1 -1.1930500723128148,1.1930500723128148L682.4980698119866,456.0853586817922a1.1930500723128148,1.1930500723128148 0 0 1 -1.1930500723128148,-1.1930500723128148Z" style="pointer-events: none; stroke-width: 1; fill: rgb(166, 216, 84); fill-opacity: 1; stroke: rgb(0, 0, 0); stroke-opacity: 0; opacity: 1;"/><g class="slicetext"><text data-notex="1" class="slicetext" text-anchor="start" x="0" y="0" style="font-family: 'Open Sans', verdana, arial, sans-serif; font-size: 12px; fill: rgb(68, 68, 68); fill-opacity: 1; white-space: pre;" transform="translate(684.3050197396739,450.01343147572817)scale(0.023264839923223687)"><tspan class="line" dy="0em" x="0" y="0">Al-Cu-Ni-Si-Ti-Zr</tspan><tspan class="line" dy="1.3em" x="0" y="0">N=5</tspan><tspan class="line" dy="2.6em" x="0" y="0">0.0595%</tspan></text></g></g><g class="slice cursor-pointer"><path class="surface" d="M686.6911198842995,450.38869345449973a0.6544400578502518,0.6544400578502518 0 0 1 0.6544400578502518,-0.6544400578502518L687.3455599421497,449.7342533966495a0.6544400578502518,0.6544400578502518 0 0 1 0.6544400578502518,0.6544400578502518L688,455.4309186239419a0.6544400578502518,0.6544400578502518 0 0 1 -0.6544400578502518,0.6544400578502518L687.3455599421497,456.0853586817922a0.6544400578502518,0.6544400578502518 0 0 1 -0.6544400578502518,-0.6544400578502518Z" style="pointer-events: none; stroke-width: 1; fill: rgb(166, 216, 84); fill-opacity: 1; stroke: rgb(0, 0, 0); stroke-opacity: 0; opacity: 1;"/><g class="slicetext"><text data-notex="1" class="slicetext" text-anchor="start" x="0" y="0" style="font-family: 'Open Sans', verdana, arial, sans-serif; font-size: 12px; fill: rgb(68, 68, 68); fill-opacity: 1; white-space: pre;" transform="translate(689.6911198842995,449.8742171851287)scale(0.011663649039937654)"><tspan class="line" dy="0em" x="0" y="0">Ag-Al-Co-Cu-La-Ni</tspan><tspan class="line" dy="1.3em" x="0" y="0">N=4</tspan><tspan class="line" dy="2.6em" x="0" y="0">0.0476%</tspan></text></g></g><g class="slice cursor-pointer"><path class="surface" d="" style="pointer-events: none; stroke-width: 1; fill: rgb(255, 255, 255); fill-opacity: 0.1; stroke: rgb(0, 0, 0); stroke-opacity: 0; opacity: 1;"/><g class="slicetext"><text data-notex="1" class="slicetext" text-anchor="start" x="0" y="0" style="font-family: 'Open Sans', verdana, arial, sans-serif; font-size: 12px; fill: rgb(68, 68, 68); fill-opacity: 1; white-space: pre;" transform="translate(643.5665168275964,488.5426793408961)scale(0)"> </text></g></g><g class="slice cursor-pointer"><path class="surface" d="" style="pointer-events: none; stroke-width: 1; fill: rgb(255, 217, 47); fill-opacity: 1; stroke: rgb(0, 0, 0); stroke-opacity: 0; opacity: 1;"/><g class="slicetext"><text data-notex="1" class="slicetext" text-anchor="start" x="0" y="0" style="font-family: 'Open Sans', verdana, arial, sans-serif; font-size: 12px; fill: rgb(68, 68, 68); fill-opacity: 1; white-space: pre;" transform="translate(664.597926061981,488.5426793408961)scale(0)"> </text></g></g><g class="slice cursor-pointer"><path class="surface" d="" style="pointer-events: none; stroke-width: 1; fill: rgb(255, 217, 47); fill-opacity: 1; stroke: rgb(0, 0, 0); stroke-opacity: 0; opacity: 1;"/><g class="slicetext"><text data-notex="1" class="slicetext" text-anchor="start" x="0" y="0" style="font-family: 'Open Sans', verdana, arial, sans-serif; font-size: 12px; fill: rgb(68, 68, 68); fill-opacity: 1; white-space: pre;" transform="translate(669.624915134721,488.5426793408961)scale(0)"> </text></g></g><g class="slice cursor-pointer"><path class="surface" d="" style="pointer-events: none; stroke-width: 1; fill: rgb(255, 217, 47); fill-opacity: 1; stroke: rgb(0, 0, 0); stroke-opacity: 0; opacity: 1;"/><g class="slicetext"><text data-notex="1" class="slicetext" text-anchor="start" x="0" y="0" style="font-family: 'Open Sans', verdana, arial, sans-serif; font-size: 12px; fill: rgb(68, 68, 68); fill-opacity: 1; white-space: pre;" transform="translate(672.5257991670499,488.5426793408961)scale(0)"> </text></g></g><g class="slice cursor-pointer"><path class="surface" d="" style="pointer-events: none; stroke-width: 1; fill: rgb(255, 217, 47); fill-opacity: 1; stroke: rgb(0, 0, 0); stroke-opacity: 0; opacity: 1;"/><g class="slicetext"><text data-notex="1" class="slicetext" text-anchor="start" x="0" y="0" style="font-family: 'Open Sans', verdana, arial, sans-serif; font-size: 12px; fill: rgb(68, 68, 68); fill-opacity: 1; white-space: pre;" transform="translate(675.4266831993789,488.5426793408961)scale(0)"> </text></g></g><g class="slice cursor-pointer"><path class="surface" d="" style="pointer-events: none; stroke-width: 1; fill: rgb(255, 217, 47); fill-opacity: 1; stroke: rgb(0, 0, 0); stroke-opacity: 0; opacity: 1;"/><g class="slicetext"><text data-notex="1" class="slicetext" text-anchor="start" x="0" y="0" style="font-family: 'Open Sans', verdana, arial, sans-serif; font-size: 12px; fill: rgb(68, 68, 68); fill-opacity: 1; white-space: pre;" transform="translate(677.9649567276666,488.5426793408961)scale(0)"> </text></g></g><g class="slice cursor-pointer"><path class="surface" d="" style="pointer-events: none; stroke-width: 1; fill: rgb(229, 196, 148); fill-opacity: 1; stroke: rgb(0, 0, 0); stroke-opacity: 0; opacity: 1;"/><g class="slicetext"><text data-notex="1" class="slicetext" text-anchor="start" x="0" y="0" style="font-family: 'Open Sans', verdana, arial, sans-serif; font-size: 12px; fill: rgb(68, 68, 68); fill-opacity: 1; white-space: pre;" transform="translate(691.776394119895,482.84363624835896)scale(0)"> </text></g></g><g class="slice cursor-pointer"><path class="surface" d="" style="pointer-events: none; stroke-width: 1; fill: rgb(229, 196, 148); fill-opacity: 1; stroke: rgb(0, 0, 0); stroke-opacity: 0; opacity: 1;"/><g class="slicetext"><text data-notex="1" class="slicetext" text-anchor="start" x="0" y="0" style="font-family: 'Open Sans', verdana, arial, sans-serif; font-size: 12px; fill: rgb(68, 68, 68); fill-opacity: 1; white-space: pre;" transform="translate(691.776394119895,482.84363624835896)scale(0)"> </text></g></g><g class="slice cursor-pointer"><path class="surface" d="" style="pointer-events: none; stroke-width: 1; fill: rgb(229, 196, 148); fill-opacity: 1; stroke: rgb(0, 0, 0); stroke-opacity: 0; opacity: 1;"/><g class="slicetext"><text data-notex="1" class="slicetext" text-anchor="start" x="0" y="0" style="font-family: 'Open Sans', verdana, arial, sans-serif; font-size: 12px; fill: rgb(68, 68, 68); fill-opacity: 1; white-space: pre;" transform="translate(691.776394119895,482.84363624835896)scale(0)"> </text></g></g><g class="slice cursor-pointer"><path class="surface" d="" style="pointer-events: none; stroke-width: 1; fill: rgb(229, 196, 148); fill-opacity: 1; stroke: rgb(0, 0, 0); stroke-opacity: 0; opacity: 1;"/><g class="slicetext"><text data-notex="1" class="slicetext" text-anchor="start" x="0" y="0" style="font-family: 'Open Sans', verdana, arial, sans-serif; font-size: 12px; fill: rgb(68, 68, 68); fill-opacity: 1; white-space: pre;" transform="translate(691.776394119895,482.84363624835896)scale(0)"> </text></g></g><g class="slice cursor-pointer"><path class="surface" d="" style="pointer-events: none; stroke-width: 1; fill: rgb(229, 196, 148); fill-opacity: 1; stroke: rgb(0, 0, 0); stroke-opacity: 0; opacity: 1;"/><g class="slicetext"><text data-notex="1" class="slicetext" text-anchor="start" x="0" y="0" style="font-family: 'Open Sans', verdana, arial, sans-serif; font-size: 12px; fill: rgb(68, 68, 68); fill-opacity: 1; white-space: pre;" transform="translate(691.776394119895,482.84363624835896)scale(0)"> </text></g></g><g class="slice cursor-pointer"><path class="surface" d="" style="pointer-events: none; stroke-width: 1; fill: rgb(179, 179, 179); fill-opacity: 1; stroke: rgb(0, 0, 0); stroke-opacity: 0; opacity: 1;"/><g class="slicetext"><text data-notex="1" class="slicetext" text-anchor="start" x="0" y="0" style="font-family: 'Open Sans', verdana, arial, sans-serif; font-size: 12px; fill: rgb(68, 68, 68); fill-opacity: 1; white-space: pre;" transform="translate(691.776394119895,498.8009569074629)scale(0)"> </text></g></g><g class="slice cursor-pointer"><path class="surface" d="" style="pointer-events: none; stroke-width: 1; fill: rgb(179, 179, 179); fill-opacity: 1; stroke: rgb(0, 0, 0); stroke-opacity: 0; opacity: 1;"/><g class="slicetext"><text data-notex="1" class="slicetext" text-anchor="start" x="0" y="0" style="font-family: 'Open Sans', verdana, arial, sans-serif; font-size: 12px; fill: rgb(68, 68, 68); fill-opacity: 1; white-space: pre;" transform="translate(691.776394119895,498.8009569074629)scale(0)"> </text></g></g><g class="slice cursor-pointer"><path class="surface" d="" style="pointer-events: none; stroke-width: 1; fill: rgb(179, 179, 179); fill-opacity: 1; stroke: rgb(0, 0, 0); stroke-opacity: 0; opacity: 1;"/><g class="slicetext"><text data-notex="1" class="slicetext" text-anchor="start" x="0" y="0" style="font-family: 'Open Sans', verdana, arial, sans-serif; font-size: 12px; fill: rgb(68, 68, 68); fill-opacity: 1; white-space: pre;" transform="translate(691.776394119895,498.8009569074629)scale(0)"> </text></g></g><g class="slice cursor-pointer"><path class="surface" d="" style="pointer-events: none; stroke-width: 1; fill: rgb(179, 179, 179); fill-opacity: 1; stroke: rgb(0, 0, 0); stroke-opacity: 0; opacity: 1;"/><g class="slicetext"><text data-notex="1" class="slicetext" text-anchor="start" x="0" y="0" style="font-family: 'Open Sans', verdana, arial, sans-serif; font-size: 12px; fill: rgb(68, 68, 68); fill-opacity: 1; white-space: pre;" transform="translate(691.776394119895,498.8009569074629)scale(0)"> </text></g></g></g></g><g class="sunburstlayer"/><g class="glimages"/><defs id="topdefs-dbe42d"><g class="clips"/></defs><g class="layer-above"><g class="imagelayer"/><g class="shapelayer"/></g><g class="infolayer"><g class="g-gtitle"><text class="gtitle" x="350" y="75" text-anchor="middle" dy="0.7em" style="opacity: 1; font-family: 'Open Sans', verdana, arial, sans-serif; font-size: 18px; fill: rgb(242, 245, 250); fill-opacity: 1; white-space: pre;">Ward Metallic Glass Dataset - Top 5 systems per arity with rounded corners</text></g></g></svg>