<svg class="main-svg" xmlns="http://www.w3.org/2000/svg" xmlns:xlink="http://www.w3.org/1999/xlink" width="700" height="500" style="" viewBox="0 0 700 500"><rect x="0" y="0" width="700" height="500" style="fill: rgb(0, 0, 0); fill-opacity: 0;"/><defs id="defs-03ffbb"><g class="clips"/><g class="gradients"/><g class="patterns"/></defs><g class="bglayer"/><g class="layer-below"><g class="imagelayer"/><g class="shapelayer"/></g><g class="cartesianlayer"/><g class="polarlayer"/><g class="smithlayer"/><g class="ternarylayer"/><g class="geolayer"/><g class="funnelarealayer"/><g class="pielayer"/><g class="iciclelayer"/><g class="treemaplayer"><g class="trace treemap" style="opacity: 1;"><g class="slice cursor-pointer"><path class="surface" d="M80,63a3,3 0 0 1 3,-3L617,60a3,3 0 0 1 3,3L620,417a3,3 0 0 1 -3,3L83,420a3,3 0 0 1 -3,-3Z" style="pointer-events: none; fill: rgb(0, 0, 0); fill-opacity: 0; stroke-width: 0; stroke: rgb(0, 0, 0); stroke-opacity: 0; opacity: 100;"/><g class="slicetext"><text data-notex="1" class="slicetext" text-anchor="start" x="0" y="0" style="font-family: 'Open Sans', verdana, arial, sans-serif; font-size: 10px; fill: rgb(42, 63, 95); fill-opacity: 1; white-space: pre;" transform="translate(85,73)"> </text></g></g><g class="slice cursor-pointer"><path class="surface" d="M85,83a3,3 0 0 1 3,-3L357.47752808988764,80a3,3 0 0 1 3,3L360.47752808988764,255.7204301075269a3,3 0 0 1 -3,3L88,258.7204301075269a3,3 0 0 1 -3,-3Z" style="pointer-events: none; stroke-width: 1; fill: rgb(81, 90, 203); fill-opacity: 1; stroke: rgb(0, 0, 0); stroke-opacity: 0; opacity: 1;"/><g class="slicetext"><text data-notex="1" class="slicetext" text-anchor="start" x="0" y="0" style="font-family: 'Open Sans', verdana, arial, sans-serif; font-size: 10px; fill: rgb(255, 255, 255); fill-opacity: 1; white-space: pre;" transform="translate(90,93)">CN 3 (N=50, 28.1%)</text></g></g><g class="slice cursor-pointer"><path class="surface" d="M85,264.7204301075269a3,3 0 0 1 3,-3L357.47752808988764,261.7204301075269a3,3 0 0 1 3,3L360.47752808988764,412a3,3 0 0 1 -3,3L88,415a3,3 0 0 1 -3,-3Z" style="pointer-events: none; stroke-width: 1; fill: rgb(194, 69, 48); fill-opacity: 1; stroke: rgb(0, 0, 0); stroke-opacity: 0; opacity: 1;"/><g class="slicetext"><text data-notex="1" class="slicetext" text-anchor="start" x="0" y="0" style="font-family: 'Open Sans', verdana, arial, sans-serif; font-size: 10px; fill: rgb(68, 68, 68); fill-opacity: 1; white-space: pre;" transform="translate(90,274.7204301075269)">CN 6 (N=43, 24.2%)</text></g></g><g class="slice cursor-pointer"><path class="surface" d="M363.47752808988764,83a3,3 0 0 1 3,-3L502.91894060995185,80a3,3 0 0 1 3,3L505.91894060995185,241.01176470588234a3,3 0 0 1 -3,3L366.47752808988764,244.01176470588234a3,3 0 0 1 -3,-3Z" style="pointer-events: none; stroke-width: 1; fill: rgb(0, 166, 122); fill-opacity: 1; stroke: rgb(0, 0, 0); stroke-opacity: 0; opacity: 1;"/><g class="slicetext"><text data-notex="1" class="slicetext" text-anchor="start" x="0" y="0" style="font-family: 'Open Sans', verdana, arial, sans-serif; font-size: 10px; fill: rgb(68, 68, 68); fill-opacity: 1; white-space: pre;" transform="translate(368.47752808988764,93)">CN 4 (N=24, 13.5%)</text></g></g><g class="slice cursor-pointer"><path class="surface" d="M508.91894060995185,83a3,3 0 0 1 3,-3L612,80a3,3 0 0 1 3,3L615,241.01176470588234a3,3 0 0 1 -3,3L511.91894060995185,244.01176470588234a3,3 0 0 1 -3,-3Z" style="pointer-events: none; stroke-width: 1; fill: rgb(139, 81, 203); fill-opacity: 1; stroke: rgb(0, 0, 0); stroke-opacity: 0; opacity: 1;"/><g class="slicetext"><text data-notex="1" class="slicetext" text-anchor="start" x="0" y="0" style="font-family: 'Open Sans', verdana, arial, sans-serif; font-size: 10px; fill: rgb(68, 68, 68); fill-opacity: 1; white-space: pre;" transform="translate(513.9189406099518,92.06959852649422)scale(0.9069598526494221)">CN 7 (N=18, 10.1%)</text></g></g><g class="slice cursor-pointer"><path class="surface" d="M363.47752808988764,250.01176470588234a3,3 0 0 1 3,-3L464.0218186569114,247.01176470588234a3,3 0 0 1 3,3L467.0218186569114,412a3,3 0 0 1 -3,3L366.47752808988764,415a3,3 0 0 1 -3,-3Z" style="pointer-events: none; stroke-width: 1; fill: rgb(207, 131, 73); fill-opacity: 1; stroke: rgb(0, 0, 0); stroke-opacity: 0; opacity: 1;"/><g class="slicetext"><text data-notex="1" class="slicetext" text-anchor="start" x="0" y="0" style="font-family: 'Open Sans', verdana, arial, sans-serif; font-size: 10px; fill: rgb(68, 68, 68); fill-opacity: 1; white-space: pre;" transform="translate(368.47752808988764,258.84190422843324)scale(0.8830139522550917)">CN 9 (N=18, 10.1%)</text></g></g><g class="slice cursor-pointer"><path class="surface" d="M470.0218186569114,250.01176470588234a3,3 0 0 1 3,-3L612,247.01176470588234a3,3 0 0 1 3,3L615,336.76517647058824a3,3 0 0 1 -3,3L473.0218186569114,339.76517647058824a3,3 0 0 1 -3,-3Z" style="pointer-events: none; stroke-width: 1; fill: rgb(20, 172, 198); fill-opacity: 1; stroke: rgb(0, 0, 0); stroke-opacity: 0; opacity: 1;"/><g class="slicetext"><text data-notex="1" class="slicetext" text-anchor="start" x="0" y="0" style="font-family: 'Open Sans', verdana, arial, sans-serif; font-size: 10px; fill: rgb(68, 68, 68); fill-opacity: 1; white-space: pre;" transform="translate(475.0218186569114,258.689417750541)scale(0.8677653044658633)">Other CNs (3 more not shown)</text></g></g><g class="slice cursor-pointer"><path class="surface" d="M470.0218186569114,345.76517647058824a3,3 0 0 1 3,-3L612,342.76517647058824a3,3 0 0 1 3,3L615,412a3,3 0 0 1 -3,3L473.0218186569114,415a3,3 0 0 1 -3,-3Z" style="pointer-events: none; stroke-width: 1; fill: rgb(207, 83, 119); fill-opacity: 1; stroke: rgb(0, 0, 0); stroke-opacity: 0; opacity: 1;"/><g class="slicetext"><text data-notex="1" class="slicetext" text-anchor="start" x="0" y="0" style="font-family: 'Open Sans', verdana, arial, sans-serif; font-size: 10px; fill: rgb(68, 68, 68); fill-opacity: 1; white-space: pre;" transform="translate(475.0218186569114,355.76517647058824)">CN 2 (N=11, 6.2%)</text></g></g><g class="slice cursor-pointer"><path class="surface" d="M90,103a3,3 0 0 1 3,-3L330.99932584269663,100a3,3 0 0 1 3,3L333.99932584269663,250.72043010752688a3,3 0 0 1 -3,3L93,253.72043010752688a3,3 0 0 1 -3,-3Z" style="pointer-events: none; stroke-width: 1; fill: rgb(99, 110, 250); fill-opacity: 1; stroke: rgb(0, 0, 0); stroke-opacity: 0; opacity: 1;"/><g class="slicetext"><text data-notex="1" class="slicetext" text-anchor="start" x="0" y="0" style="font-family: 'Open Sans', verdana, arial, sans-serif; font-size: 10px; fill: rgb(255, 255, 255); fill-opacity: 1; white-space: pre;" transform="translate(93,113)"><tspan class="line" dy="0em" x="0" y="0">CN:3</tspan><tspan class="line" dy="1.3em" x="0" y="0">46</tspan></text></g></g><g class="slice cursor-pointer"><path class="surface" d="M336.99932584269663,103a3,3 0 0 1 3,-3L352.47752808988764,100a3,3 0 0 1 3,3L355.47752808988764,250.72043010752688a3,3 0 0 1 -3,3L339.99932584269663,253.72043010752688a3,3 0 0 1 -3,-3Z" style="pointer-events: none; stroke-width: 1; fill: rgb(99, 110, 250); fill-opacity: 1; stroke: rgb(0, 0, 0); stroke-opacity: 0; opacity: 1;"/><g class="slicetext"><text data-notex="1" class="slicetext" text-anchor="start" x="0" y="0" style="font-family: 'Open Sans', verdana, arial, sans-serif; font-size: 10px; fill: rgb(255, 255, 255); fill-opacity: 1; white-space: pre;" transform="translate(339.99932584269663,105.16717759517022)scale(0.21671775951702155)"><tspan class="line" dy="0em" x="0" y="0">T-shaped:3</tspan><tspan class="line" dy="1.3em" x="0" y="0">4</tspan></text></g></g><g class="slice cursor-pointer"><path class="surface" d="M90,284.7204301075269a3,3 0 0 1 3,-3L321.25921087013324,281.7204301075269a3,3 0 0 1 3,3L324.25921087013324,407a3,3 0 0 1 -3,3L93,410a3,3 0 0 1 -3,-3Z" style="pointer-events: none; stroke-width: 1; fill: rgb(239, 85, 59); fill-opacity: 1; stroke: rgb(0, 0, 0); stroke-opacity: 0; opacity: 1;"/><g class="slicetext"><text data-notex="1" class="slicetext" text-anchor="start" x="0" y="0" style="font-family: 'Open Sans', verdana, arial, sans-serif; font-size: 10px; fill: rgb(68, 68, 68); fill-opacity: 1; white-space: pre;" transform="translate(93,294.7204301075269)"><tspan class="line" dy="0em" x="0" y="0">octahedral:6</tspan><tspan class="line" dy="1.3em" x="0" y="0">38</tspan></text></g></g><g class="slice cursor-pointer"><path class="surface" d="M327.25921087013324,284.7204301075269a3,3 0 0 1 3,-3L352.47752808988764,281.7204301075269a3,3 0 0 1 3,3L355.47752808988764,407a3,3 0 0 1 -3,3L330.25921087013324,410a3,3 0 0 1 -3,-3Z" style="pointer-events: none; stroke-width: 1; fill: rgb(239, 85, 59); fill-opacity: 1; stroke: rgb(0, 0, 0); stroke-opacity: 0; opacity: 1;"/><g class="slicetext"><text data-notex="1" class="slicetext" text-anchor="start" x="0" y="0" style="font-family: 'Open Sans', verdana, arial, sans-serif; font-size: 10px; fill: rgb(68, 68, 68); fill-opacity: 1; white-space: pre;" transform="translate(330.25921087013324,293.4764171892035)scale(0.8755987081676609)"><tspan class="line" dy="0em" x="0" y="0">CN:6</tspan><tspan class="line" dy="1.3em" x="0" y="0">5</tspan></text></g></g><g class="slice cursor-pointer"><path class="surface" d="M368.47752808988764,103a3,3 0 0 1 3,-3L497.91894060995185,100a3,3 0 0 1 3,3L500.91894060995185,165.00588235294117a3,3 0 0 1 -3,3L371.47752808988764,168.00588235294117a3,3 0 0 1 -3,-3Z" style="pointer-events: none; stroke-width: 1; fill: rgb(0, 204, 150); fill-opacity: 1; stroke: rgb(0, 0, 0); stroke-opacity: 0; opacity: 1;"/><g class="slicetext"><text data-notex="1" class="slicetext" text-anchor="start" x="0" y="0" style="font-family: 'Open Sans', verdana, arial, sans-serif; font-size: 10px; fill: rgb(68, 68, 68); fill-opacity: 1; white-space: pre;" transform="translate(371.47752808988764,113)"><tspan class="line" dy="0em" x="0" y="0">rectangular</tspan><tspan class="line" dy="1.3em" x="0" y="0">see-saw-like:4</tspan><tspan class="line" dy="2.6em" x="0" y="0">12</tspan></text></g></g><g class="slice cursor-pointer"><path class="surface" d="M368.47752808988764,174.00588235294117a3,3 0 0 1 3,-3L407.6246655965757,171.00588235294117a3,3 0 0 1 3,3L410.6246655965757,236.01176470588234a3,3 0 0 1 -3,3L371.47752808988764,239.01176470588234a3,3 0 0 1 -3,-3Z" style="pointer-events: none; stroke-width: 1; fill: rgb(0, 204, 150); fill-opacity: 1; stroke: rgb(0, 0, 0); stroke-opacity: 0; opacity: 1;"/><g class="slicetext"><text data-notex="1" class="slicetext" text-anchor="start" x="0" y="0" style="font-family: 'Open Sans', verdana, arial, sans-serif; font-size: 10px; fill: rgb(68, 68, 68); fill-opacity: 1; white-space: pre;" transform="translate(371.47752808988764,184.00588235294117)"><tspan class="line" dy="0em" x="0" y="0">CN:4</tspan><tspan class="line" dy="1.3em" x="0" y="0">4</tspan></text></g></g><g class="slice cursor-pointer"><path class="surface" d="M413.6246655965757,174.00588235294117a3,3 0 0 1 3,-3L452.7718031032638,171.00588235294117a3,3 0 0 1 3,3L455.7718031032638,236.01176470588234a3,3 0 0 1 -3,3L416.6246655965757,239.01176470588234a3,3 0 0 1 -3,-3Z" style="pointer-events: none; stroke-width: 1; fill: rgb(0, 204, 150); fill-opacity: 1; stroke: rgb(0, 0, 0); stroke-opacity: 0; opacity: 1;"/><g class="slicetext"><text data-notex="1" class="slicetext" text-anchor="start" x="0" y="0" style="font-family: 'Open Sans', verdana, arial, sans-serif; font-size: 10px; fill: rgb(68, 68, 68); fill-opacity: 1; white-space: pre;" transform="translate(416.6246655965757,179.4377133001777)scale(0.5431830947236526)"><tspan class="line" dy="0em" x="0" y="0">tetrahedral:4</tspan><tspan class="line" dy="1.3em" x="0" y="0">4</tspan></text></g></g><g class="slice cursor-pointer"><path class="surface" d="M458.7718031032638,174.00588235294117a3,3 0 0 1 3,-3L497.91894060995185,171.00588235294117a3,3 0 0 1 3,3L500.91894060995185,236.01176470588234a3,3 0 0 1 -3,3L461.7718031032638,239.01176470588234a3,3 0 0 1 -3,-3Z" style="pointer-events: none; stroke-width: 1; fill: rgb(0, 204, 150); fill-opacity: 1; stroke: rgb(0, 0, 0); stroke-opacity: 0; opacity: 1;"/><g class="slicetext"><text data-notex="1" class="slicetext" text-anchor="start" x="0" y="0" style="font-family: 'Open Sans', verdana, arial, sans-serif; font-size: 10px; fill: rgb(68, 68, 68); fill-opacity: 1; white-space: pre;" transform="translate(461.7718031032638,179.95296924350168)scale(0.5947086890560505)"><tspan class="line" dy="0em" x="0" y="0">trigonal</tspan><tspan class="line" dy="1.3em" x="0" y="0">pyramidal:4</tspan><tspan class="line" dy="2.6em" x="0" y="0">4</tspan></text></g></g><g class="slice cursor-pointer"><path class="surface" d="M513.9189406099518,103a3,3 0 0 1 3,-3L607,100a3,3 0 0 1 3,3L610,236.01176470588234a3,3 0 0 1 -3,3L516.9189406099518,239.01176470588234a3,3 0 0 1 -3,-3Z" style="pointer-events: none; stroke-width: 1; fill: rgb(171, 99, 250); fill-opacity: 1; stroke: rgb(0, 0, 0); stroke-opacity: 0; opacity: 1;"/><g class="slicetext"><text data-notex="1" class="slicetext" text-anchor="start" x="0" y="0" style="font-family: 'Open Sans', verdana, arial, sans-serif; font-size: 10px; fill: rgb(68, 68, 68); fill-opacity: 1; white-space: pre;" transform="translate(516.9189406099518,113)"><tspan class="line" dy="0em" x="0" y="0">CN:7</tspan><tspan class="line" dy="1.3em" x="0" y="0">18</tspan></text></g></g><g class="slice cursor-pointer"><path class="surface" d="M368.47752808988764,270.01176470588234a3,3 0 0 1 3,-3L459.0218186569114,267.01176470588234a3,3 0 0 1 3,3L462.0218186569114,407a3,3 0 0 1 -3,3L371.47752808988764,410a3,3 0 0 1 -3,-3Z" style="pointer-events: none; stroke-width: 1; fill: rgb(255, 161, 90); fill-opacity: 1; stroke: rgb(0, 0, 0); stroke-opacity: 0; opacity: 1;"/><g class="slicetext"><text data-notex="1" class="slicetext" text-anchor="start" x="0" y="0" style="font-family: 'Open Sans', verdana, arial, sans-serif; font-size: 10px; fill: rgb(68, 68, 68); fill-opacity: 1; white-space: pre;" transform="translate(371.47752808988764,280.01176470588234)"><tspan class="line" dy="0em" x="0" y="0">CN:9</tspan><tspan class="line" dy="1.3em" x="0" y="0">18</tspan></text></g></g><g class="slice cursor-pointer"><path class="surface" d="M475.0218186569114,270.01176470588234a3,3 0 0 1 3,-3L607,267.01176470588234a3,3 0 0 1 3,3L610,331.76517647058824a3,3 0 0 1 -3,3L478.0218186569114,334.76517647058824a3,3 0 0 1 -3,-3Z" style="pointer-events: none; stroke-width: 1; fill: rgb(25, 211, 243); fill-opacity: 1; stroke: rgb(0, 0, 0); stroke-opacity: 0; opacity: 1;"/><g class="slicetext"><text data-notex="1" class="slicetext" text-anchor="start" x="0" y="0" style="font-family: 'Open Sans', verdana, arial, sans-serif; font-size: 10px; fill: rgb(68, 68, 68); fill-opacity: 1; white-space: pre;" transform="translate(478.0218186569114,280.01176470588234)"><tspan class="line" dy="0em" x="0" y="0">Other CNs (3</tspan><tspan class="line" dy="1.3em" x="0" y="0">more not shown)</tspan><tspan class="line" dy="2.6em" x="0" y="0">14</tspan></text></g></g><g class="slice cursor-pointer"><path class="surface" d="M475.0218186569114,365.76517647058824a3,3 0 0 1 3,-3L519.1957027816709,362.76517647058824a3,3 0 0 1 3,3L522.1957027816709,407a3,3 0 0 1 -3,3L478.0218186569114,410a3,3 0 0 1 -3,-3Z" style="pointer-events: none; stroke-width: 1; fill: rgb(255, 102, 146); fill-opacity: 1; stroke: rgb(0, 0, 0); stroke-opacity: 0; opacity: 1;"/><g class="slicetext"><text data-notex="1" class="slicetext" text-anchor="start" x="0" y="0" style="font-family: 'Open Sans', verdana, arial, sans-serif; font-size: 10px; fill: rgb(68, 68, 68); fill-opacity: 1; white-space: pre;" transform="translate(478.0218186569114,372.9926273317638)scale(0.7227450861175551)"><tspan class="line" dy="0em" x="0" y="0">L-shaped:2</tspan><tspan class="line" dy="1.3em" x="0" y="0">4</tspan></text></g></g><g class="slice cursor-pointer"><path class="surface" d="M525.1957027816709,365.76517647058824a3,3 0 0 1 3,-3L556.8261158752405,362.76517647058824a3,3 0 0 1 3,3L559.8261158752405,407a3,3 0 0 1 -3,3L528.1957027816709,410a3,3 0 0 1 -3,-3Z" style="pointer-events: none; stroke-width: 1; fill: rgb(255, 102, 146); fill-opacity: 1; stroke: rgb(0, 0, 0); stroke-opacity: 0; opacity: 1;"/><g class="slicetext"><text data-notex="1" class="slicetext" text-anchor="start" x="0" y="0" style="font-family: 'Open Sans', verdana, arial, sans-serif; font-size: 10px; fill: rgb(68, 68, 68); fill-opacity: 1; white-space: pre;" transform="translate(528.1957027816709,373.11514212637826)scale(0.7349965655790041)"><tspan class="line" dy="0em" x="0" y="0">linear:2</tspan><tspan class="line" dy="1.3em" x="0" y="0">3</tspan></text></g></g><g class="slice cursor-pointer"><path class="surface" d="M562.8261158752405,365.76517647058824a3,3 0 0 1 3,-3L607,362.76517647058824a3,3 0 0 1 3,3L610,381.8825882352941a3,3 0 0 1 -3,3L565.8261158752405,384.8825882352941a3,3 0 0 1 -3,-3Z" style="pointer-events: none; stroke-width: 1; fill: rgb(255, 102, 146); fill-opacity: 1; stroke: rgb(0, 0, 0); stroke-opacity: 0; opacity: 1;"/><g class="slicetext"><text data-notex="1" class="slicetext" text-anchor="start" x="0" y="0" style="font-family: 'Open Sans', verdana, arial, sans-serif; font-size: 10px; fill: rgb(68, 68, 68); fill-opacity: 1; white-space: pre;" transform="translate(565.8261158752405,372.2121411764706)scale(0.6446964705882351)"><tspan class="line" dy="0em" x="0" y="0">CN:2</tspan><tspan class="line" dy="1.3em" x="0" y="0">2</tspan></text></g></g><g class="slice cursor-pointer"><path class="surface" d="M562.8261158752405,390.8825882352941a3,3 0 0 1 3,-3L607,387.8825882352941a3,3 0 0 1 3,3L610,407a3,3 0 0 1 -3,3L565.8261158752405,410a3,3 0 0 1 -3,-3Z" style="pointer-events: none; stroke-width: 1; fill: rgb(255, 102, 146); fill-opacity: 1; stroke: rgb(0, 0, 0); stroke-opacity: 0; opacity: 1;"/><g class="slicetext"><text data-notex="1" class="slicetext" text-anchor="start" x="0" y="0" style="font-family: 'Open Sans', verdana, arial, sans-serif; font-size: 10px; fill: rgb(68, 68, 68); fill-opacity: 1; white-space: pre;" transform="translate(565.8261158752405,397.3295529411765)scale(0.6446964705882351)"><tspan class="line" dy="0em" x="0" y="0">water-like:2</tspan><tspan class="line" dy="1.3em" x="0" y="0">2</tspan></text></g></g></g></g><g class="sunburstlayer"/><g class="glimages"/><defs id="topdefs-03ffbb"><g class="clips"/></defs><g class="layer-above"><g class="imagelayer"/><g class="shapelayer"/></g><g class="infolayer"><g class="g-gtitle"><text class="gtitle" x="350" y="25" text-anchor="middle" dy="0.7em" style="opacity: 1; font-family: 'Open Sans', verdana, arial, sans-serif; font-size: 16px; fill: rgb(42, 63, 95); fill-opacity: 1; white-space: pre;"><tspan style="font-weight:bold">Chem Env Treemap: Large Dataset (9 structures)</tspan></text></g></g></svg>