<svg class="main-svg" xmlns="http://www.w3.org/2000/svg" xmlns:xlink="http://www.w3.org/1999/xlink" width="1000" height="800" style="" viewBox="0 0 1000 800"><rect x="0" y="0" width="1000" height="800" style="fill: rgb(0, 0, 0); fill-opacity: 0;"/><defs id="defs-64fa25"><g class="clips"/><g class="gradients"/><g class="patterns"/></defs><g class="bglayer"/><g class="layer-below"><g class="imagelayer"/><g class="shapelayer"/></g><g class="cartesianlayer"/><g class="polarlayer"/><g class="smithlayer"/><g class="ternarylayer"/><g class="geolayer"/><g class="funnelarealayer"/><g class="pielayer"/><g class="iciclelayer"/><g class="treemaplayer"><g class="trace treemap" style="opacity: 1;"><g class="slice cursor-pointer"><path class="surface" d="M80,63a3,3 0 0 1 3,-3L917,60a3,3 0 0 1 3,3L920,717a3,3 0 0 1 -3,3L83,720a3,3 0 0 1 -3,-3Z" style="pointer-events: none; fill: rgb(0, 0, 0); fill-opacity: 0; stroke-width: 0; stroke: rgb(0, 0, 0); stroke-opacity: 0; opacity: 100;"/><g class="slicetext"><text data-notex="1" class="slicetext" text-anchor="start" x="0" y="0" style="font-family: 'Open Sans', verdana, arial, sans-serif; font-size: 10px; fill: rgb(42, 63, 95); fill-opacity: 1; white-space: pre;" transform="translate(85,73)"> </text></g></g><g class="slice cursor-pointer"><path class="surface" d="M85,83a3,3 0 0 1 3,-3L514.2191011235955,80a3,3 0 0 1 3,3L517.2191011235955,417.01075268817203a3,3 0 0 1 -3,3L88,420.01075268817203a3,3 0 0 1 -3,-3Z" style="pointer-events: none; stroke-width: 1; fill: rgb(81, 90, 203); fill-opacity: 1; stroke: rgb(0, 0, 0); stroke-opacity: 0; opacity: 1;"/><g class="slicetext"><text data-notex="1" class="slicetext" text-anchor="start" x="0" y="0" style="font-family: 'Open Sans', verdana, arial, sans-serif; font-size: 10px; fill: rgb(255, 255, 255); fill-opacity: 1; white-space: pre;" transform="translate(90,93)">CN 3 (N=50, 28.1%)</text></g></g><g class="slice cursor-pointer"><path class="surface" d="M85,426.01075268817203a3,3 0 0 1 3,-3L514.2191011235955,423.01075268817203a3,3 0 0 1 3,3L517.2191011235955,712a3,3 0 0 1 -3,3L88,715a3,3 0 0 1 -3,-3Z" style="pointer-events: none; stroke-width: 1; fill: rgb(194, 69, 48); fill-opacity: 1; stroke: rgb(0, 0, 0); stroke-opacity: 0; opacity: 1;"/><g class="slicetext"><text data-notex="1" class="slicetext" text-anchor="start" x="0" y="0" style="font-family: 'Open Sans', verdana, arial, sans-serif; font-size: 10px; fill: rgb(68, 68, 68); fill-opacity: 1; white-space: pre;" transform="translate(90,436.01075268817203)">CN 6 (N=43, 24.2%)</text></g></g><g class="slice cursor-pointer"><path class="surface" d="M520.2191011235955,83a3,3 0 0 1 3,-3L741.5224719101124,80a3,3 0 0 1 3,3L744.5224719101124,389.2470588235294a3,3 0 0 1 -3,3L523.2191011235955,392.2470588235294a3,3 0 0 1 -3,-3Z" style="pointer-events: none; stroke-width: 1; fill: rgb(0, 166, 122); fill-opacity: 1; stroke: rgb(0, 0, 0); stroke-opacity: 0; opacity: 1;"/><g class="slicetext"><text data-notex="1" class="slicetext" text-anchor="start" x="0" y="0" style="font-family: 'Open Sans', verdana, arial, sans-serif; font-size: 10px; fill: rgb(68, 68, 68); fill-opacity: 1; white-space: pre;" transform="translate(525.2191011235955,93)">CN 4 (N=24, 13.5%)</text></g></g><g class="slice cursor-pointer"><path class="surface" d="M747.5224719101124,83a3,3 0 0 1 3,-3L912,80a3,3 0 0 1 3,3L915,389.2470588235294a3,3 0 0 1 -3,3L750.5224719101124,392.2470588235294a3,3 0 0 1 -3,-3Z" style="pointer-events: none; stroke-width: 1; fill: rgb(139, 81, 203); fill-opacity: 1; stroke: rgb(0, 0, 0); stroke-opacity: 0; opacity: 1;"/><g class="slicetext"><text data-notex="1" class="slicetext" text-anchor="start" x="0" y="0" style="font-family: 'Open Sans', verdana, arial, sans-serif; font-size: 10px; fill: rgb(68, 68, 68); fill-opacity: 1; white-space: pre;" transform="translate(752.5224719101124,93)">CN 7 (N=18, 10.1%)</text></g></g><g class="slice cursor-pointer"><path class="surface" d="M520.2191011235955,398.2470588235294a3,3 0 0 1 3,-3L680.7320355369741,395.2470588235294a3,3 0 0 1 3,3L683.7320355369741,712a3,3 0 0 1 -3,3L523.2191011235955,715a3,3 0 0 1 -3,-3Z" style="pointer-events: none; stroke-width: 1; fill: rgb(207, 131, 73); fill-opacity: 1; stroke: rgb(0, 0, 0); stroke-opacity: 0; opacity: 1;"/><g class="slicetext"><text data-notex="1" class="slicetext" text-anchor="start" x="0" y="0" style="font-family: 'Open Sans', verdana, arial, sans-serif; font-size: 10px; fill: rgb(68, 68, 68); fill-opacity: 1; white-space: pre;" transform="translate(525.2191011235955,408.2470588235294)">CN 9 (N=18, 10.1%)</text></g></g><g class="slice cursor-pointer"><path class="surface" d="M686.7320355369741,398.2470588235294a3,3 0 0 1 3,-3L912,395.2470588235294a3,3 0 0 1 3,3L915,569.9887058823529a3,3 0 0 1 -3,3L689.7320355369741,572.9887058823529a3,3 0 0 1 -3,-3Z" style="pointer-events: none; stroke-width: 1; fill: rgb(20, 172, 198); fill-opacity: 1; stroke: rgb(0, 0, 0); stroke-opacity: 0; opacity: 1;"/><g class="slicetext"><text data-notex="1" class="slicetext" text-anchor="start" x="0" y="0" style="font-family: 'Open Sans', verdana, arial, sans-serif; font-size: 10px; fill: rgb(68, 68, 68); fill-opacity: 1; white-space: pre;" transform="translate(691.7320355369741,408.2470588235294)">Other CNs (3 more not shown)</text></g></g><g class="slice cursor-pointer"><path class="surface" d="M686.7320355369741,578.9887058823529a3,3 0 0 1 3,-3L912,575.9887058823529a3,3 0 0 1 3,3L915,712a3,3 0 0 1 -3,3L689.7320355369741,715a3,3 0 0 1 -3,-3Z" style="pointer-events: none; stroke-width: 1; fill: rgb(207, 83, 119); fill-opacity: 1; stroke: rgb(0, 0, 0); stroke-opacity: 0; opacity: 1;"/><g class="slicetext"><text data-notex="1" class="slicetext" text-anchor="start" x="0" y="0" style="font-family: 'Open Sans', verdana, arial, sans-serif; font-size: 10px; fill: rgb(68, 68, 68); fill-opacity: 1; white-space: pre;" transform="translate(691.7320355369741,588.9887058823529)">CN 2 (N=11, 6.2%)</text></g></g><g class="slice cursor-pointer"><path class="surface" d="M90,103a3,3 0 0 1 3,-3L475.2015730337079,100a3,3 0 0 1 3,3L478.2015730337079,412.01075268817203a3,3 0 0 1 -3,3L93,415.01075268817203a3,3 0 0 1 -3,-3Z" style="pointer-events: none; stroke-width: 1; fill: rgb(99, 110, 250); fill-opacity: 1; stroke: rgb(0, 0, 0); stroke-opacity: 0; opacity: 1;"/><g class="slicetext"><text data-notex="1" class="slicetext" text-anchor="start" x="0" y="0" style="font-family: 'Open Sans', verdana, arial, sans-serif; font-size: 10px; fill: rgb(255, 255, 255); fill-opacity: 1; white-space: pre;" transform="translate(93,113)"><tspan class="line" dy="0em" x="0" y="0">CN:3</tspan><tspan class="line" dy="1.3em" x="0" y="0">46</tspan></text></g></g><g class="slice cursor-pointer"><path class="surface" d="M481.2015730337079,103a3,3 0 0 1 3,-3L509.21910112359546,100a3,3 0 0 1 3,3L512.2191011235955,412.01075268817203a3,3 0 0 1 -3,3L484.2015730337079,415.01075268817203a3,3 0 0 1 -3,-3Z" style="pointer-events: none; stroke-width: 1; fill: rgb(99, 110, 250); fill-opacity: 1; stroke: rgb(0, 0, 0); stroke-opacity: 0; opacity: 1;"/><g class="slicetext"><text data-notex="1" class="slicetext" text-anchor="start" x="0" y="0" style="font-family: 'Open Sans', verdana, arial, sans-serif; font-size: 10px; fill: rgb(255, 255, 255); fill-opacity: 1; white-space: pre;" transform="translate(484.2015730337079,107.34497095726678)scale(0.43449709572667755)"><tspan class="line" dy="0em" x="0" y="0">T-shaped:3</tspan><tspan class="line" dy="1.3em" x="0" y="0">4</tspan></text></g></g><g class="slice cursor-pointer"><path class="surface" d="M90,446.01075268817203a3,3 0 0 1 3,-3L459.77501959759604,443.01075268817203a3,3 0 0 1 3,3L462.77501959759604,707a3,3 0 0 1 -3,3L93,710a3,3 0 0 1 -3,-3Z" style="pointer-events: none; stroke-width: 1; fill: rgb(239, 85, 59); fill-opacity: 1; stroke: rgb(0, 0, 0); stroke-opacity: 0; opacity: 1;"/><g class="slicetext"><text data-notex="1" class="slicetext" text-anchor="start" x="0" y="0" style="font-family: 'Open Sans', verdana, arial, sans-serif; font-size: 10px; fill: rgb(68, 68, 68); fill-opacity: 1; white-space: pre;" transform="translate(93,456.01075268817203)"><tspan class="line" dy="0em" x="0" y="0">octahedral:6</tspan><tspan class="line" dy="1.3em" x="0" y="0">38</tspan></text></g></g><g class="slice cursor-pointer"><path class="surface" d="M465.77501959759604,446.01075268817203a3,3 0 0 1 3,-3L509.21910112359546,443.01075268817203a3,3 0 0 1 3,3L512.2191011235955,707a3,3 0 0 1 -3,3L468.77501959759604,710a3,3 0 0 1 -3,-3Z" style="pointer-events: none; stroke-width: 1; fill: rgb(239, 85, 59); fill-opacity: 1; stroke: rgb(0, 0, 0); stroke-opacity: 0; opacity: 1;"/><g class="slicetext"><text data-notex="1" class="slicetext" text-anchor="start" x="0" y="0" style="font-family: 'Open Sans', verdana, arial, sans-serif; font-size: 10px; fill: rgb(68, 68, 68); fill-opacity: 1; white-space: pre;" transform="translate(468.77501959759604,456.01075268817203)"><tspan class="line" dy="0em" x="0" y="0">CN:6</tspan><tspan class="line" dy="1.3em" x="0" y="0">5</tspan></text></g></g><g class="slice cursor-pointer"><path class="surface" d="M525.2191011235955,103a3,3 0 0 1 3,-3L736.5224719101124,100a3,3 0 0 1 3,3L739.5224719101124,239.1235294117647a3,3 0 0 1 -3,3L528.2191011235955,242.1235294117647a3,3 0 0 1 -3,-3Z" style="pointer-events: none; stroke-width: 1; fill: rgb(0, 204, 150); fill-opacity: 1; stroke: rgb(0, 0, 0); stroke-opacity: 0; opacity: 1;"/><g class="slicetext"><text data-notex="1" class="slicetext" text-anchor="start" x="0" y="0" style="font-family: 'Open Sans', verdana, arial, sans-serif; font-size: 10px; fill: rgb(68, 68, 68); fill-opacity: 1; white-space: pre;" transform="translate(528.2191011235955,113)"><tspan class="line" dy="0em" x="0" y="0">rectangular</tspan><tspan class="line" dy="1.3em" x="0" y="0">see-saw-like:4</tspan><tspan class="line" dy="2.6em" x="0" y="0">12</tspan></text></g></g><g class="slice cursor-pointer"><path class="surface" d="M525.2191011235955,248.1235294117647a3,3 0 0 1 3,-3L664.0880149812734,245.1235294117647a3,3 0 0 1 3,3L667.0880149812734,311.68529411764706a3,3 0 0 1 -3,3L528.2191011235955,314.68529411764706a3,3 0 0 1 -3,-3Z" style="pointer-events: none; stroke-width: 1; fill: rgb(0, 204, 150); fill-opacity: 1; stroke: rgb(0, 0, 0); stroke-opacity: 0; opacity: 1;"/><g class="slicetext"><text data-notex="1" class="slicetext" text-anchor="start" x="0" y="0" style="font-family: 'Open Sans', verdana, arial, sans-serif; font-size: 10px; fill: rgb(68, 68, 68); fill-opacity: 1; white-space: pre;" transform="translate(528.2191011235955,258.1235294117647)"><tspan class="line" dy="0em" x="0" y="0">CN:4</tspan><tspan class="line" dy="1.3em" x="0" y="0">4</tspan></text></g></g><g class="slice cursor-pointer"><path class="surface" d="M525.2191011235955,320.68529411764706a3,3 0 0 1 3,-3L664.0880149812734,317.68529411764706a3,3 0 0 1 3,3L667.0880149812734,384.2470588235294a3,3 0 0 1 -3,3L528.2191011235955,387.2470588235294a3,3 0 0 1 -3,-3Z" style="pointer-events: none; stroke-width: 1; fill: rgb(0, 204, 150); fill-opacity: 1; stroke: rgb(0, 0, 0); stroke-opacity: 0; opacity: 1;"/><g class="slicetext"><text data-notex="1" class="slicetext" text-anchor="start" x="0" y="0" style="font-family: 'Open Sans', verdana, arial, sans-serif; font-size: 10px; fill: rgb(68, 68, 68); fill-opacity: 1; white-space: pre;" transform="translate(528.2191011235955,330.68529411764706)"><tspan class="line" dy="0em" x="0" y="0">tetrahedral:4</tspan><tspan class="line" dy="1.3em" x="0" y="0">4</tspan></text></g></g><g class="slice cursor-pointer"><path class="surface" d="M670.0880149812734,248.1235294117647a3,3 0 0 1 3,-3L736.5224719101124,245.1235294117647a3,3 0 0 1 3,3L739.5224719101124,384.2470588235294a3,3 0 0 1 -3,3L673.0880149812734,387.2470588235294a3,3 0 0 1 -3,-3Z" style="pointer-events: none; stroke-width: 1; fill: rgb(0, 204, 150); fill-opacity: 1; stroke: rgb(0, 0, 0); stroke-opacity: 0; opacity: 1;"/><g class="slicetext"><text data-notex="1" class="slicetext" text-anchor="start" x="0" y="0" style="font-family: 'Open Sans', verdana, arial, sans-serif; font-size: 10px; fill: rgb(68, 68, 68); fill-opacity: 1; white-space: pre;" transform="translate(673.0880149812734,258.1235294117647)"><tspan class="line" dy="0em" x="0" y="0">trigonal</tspan><tspan class="line" dy="1.3em" x="0" y="0">pyramidal:4</tspan><tspan class="line" dy="2.6em" x="0" y="0">4</tspan></text></g></g><g class="slice cursor-pointer"><path class="surface" d="M752.5224719101124,103a3,3 0 0 1 3,-3L907,100a3,3 0 0 1 3,3L910,384.2470588235294a3,3 0 0 1 -3,3L755.5224719101124,387.2470588235294a3,3 0 0 1 -3,-3Z" style="pointer-events: none; stroke-width: 1; fill: rgb(171, 99, 250); fill-opacity: 1; stroke: rgb(0, 0, 0); stroke-opacity: 0; opacity: 1;"/><g class="slicetext"><text data-notex="1" class="slicetext" text-anchor="start" x="0" y="0" style="font-family: 'Open Sans', verdana, arial, sans-serif; font-size: 10px; fill: rgb(68, 68, 68); fill-opacity: 1; white-space: pre;" transform="translate(755.5224719101124,113)"><tspan class="line" dy="0em" x="0" y="0">CN:7</tspan><tspan class="line" dy="1.3em" x="0" y="0">18</tspan></text></g></g><g class="slice cursor-pointer"><path class="surface" d="M525.2191011235955,418.2470588235294a3,3 0 0 1 3,-3L675.7320355369741,415.2470588235294a3,3 0 0 1 3,3L678.7320355369741,707a3,3 0 0 1 -3,3L528.2191011235955,710a3,3 0 0 1 -3,-3Z" style="pointer-events: none; stroke-width: 1; fill: rgb(255, 161, 90); fill-opacity: 1; stroke: rgb(0, 0, 0); stroke-opacity: 0; opacity: 1;"/><g class="slicetext"><text data-notex="1" class="slicetext" text-anchor="start" x="0" y="0" style="font-family: 'Open Sans', verdana, arial, sans-serif; font-size: 10px; fill: rgb(68, 68, 68); fill-opacity: 1; white-space: pre;" transform="translate(528.2191011235955,428.2470588235294)"><tspan class="line" dy="0em" x="0" y="0">CN:9</tspan><tspan class="line" dy="1.3em" x="0" y="0">18</tspan></text></g></g><g class="slice cursor-pointer"><path class="surface" d="M691.7320355369741,418.2470588235294a3,3 0 0 1 3,-3L907,415.2470588235294a3,3 0 0 1 3,3L910,564.9887058823529a3,3 0 0 1 -3,3L694.7320355369741,567.9887058823529a3,3 0 0 1 -3,-3Z" style="pointer-events: none; stroke-width: 1; fill: rgb(25, 211, 243); fill-opacity: 1; stroke: rgb(0, 0, 0); stroke-opacity: 0; opacity: 1;"/><g class="slicetext"><text data-notex="1" class="slicetext" text-anchor="start" x="0" y="0" style="font-family: 'Open Sans', verdana, arial, sans-serif; font-size: 10px; fill: rgb(68, 68, 68); fill-opacity: 1; white-space: pre;" transform="translate(694.7320355369741,428.2470588235294)"><tspan class="line" dy="0em" x="0" y="0">Other CNs (3</tspan><tspan class="line" dy="1.3em" x="0" y="0">more not shown)</tspan><tspan class="line" dy="2.6em" x="0" y="0">14</tspan></text></g></g><g class="slice cursor-pointer"><path class="surface" d="M691.7320355369741,598.9887058823529a3,3 0 0 1 3,-3L766.193113523529,595.9887058823529a3,3 0 0 1 3,3L769.193113523529,707a3,3 0 0 1 -3,3L694.7320355369741,710a3,3 0 0 1 -3,-3Z" style="pointer-events: none; stroke-width: 1; fill: rgb(255, 102, 146); fill-opacity: 1; stroke: rgb(0, 0, 0); stroke-opacity: 0; opacity: 1;"/><g class="slicetext"><text data-notex="1" class="slicetext" text-anchor="start" x="0" y="0" style="font-family: 'Open Sans', verdana, arial, sans-serif; font-size: 10px; fill: rgb(68, 68, 68); fill-opacity: 1; white-space: pre;" transform="translate(694.7320355369741,608.9887058823529)"><tspan class="line" dy="0em" x="0" y="0">L-shaped:2</tspan><tspan class="line" dy="1.3em" x="0" y="0">4</tspan></text></g></g><g class="slice cursor-pointer"><path class="surface" d="M772.193113523529,598.9887058823529a3,3 0 0 1 3,-3L826.5389220134451,595.9887058823529a3,3 0 0 1 3,3L829.5389220134451,707a3,3 0 0 1 -3,3L775.193113523529,710a3,3 0 0 1 -3,-3Z" style="pointer-events: none; stroke-width: 1; fill: rgb(255, 102, 146); fill-opacity: 1; stroke: rgb(0, 0, 0); stroke-opacity: 0; opacity: 1;"/><g class="slicetext"><text data-notex="1" class="slicetext" text-anchor="start" x="0" y="0" style="font-family: 'Open Sans', verdana, arial, sans-serif; font-size: 10px; fill: rgb(68, 68, 68); fill-opacity: 1; white-space: pre;" transform="translate(775.193113523529,608.9887058823529)"><tspan class="line" dy="0em" x="0" y="0">linear:2</tspan><tspan class="line" dy="1.3em" x="0" y="0">3</tspan></text></g></g><g class="slice cursor-pointer"><path class="surface" d="M832.5389220134451,598.9887058823529a3,3 0 0 1 3,-3L907,595.9887058823529a3,3 0 0 1 3,3L910,648.4943529411764a3,3 0 0 1 -3,3L835.5389220134451,651.4943529411764a3,3 0 0 1 -3,-3Z" style="pointer-events: none; stroke-width: 1; fill: rgb(255, 102, 146); fill-opacity: 1; stroke: rgb(0, 0, 0); stroke-opacity: 0; opacity: 1;"/><g class="slicetext"><text data-notex="1" class="slicetext" text-anchor="start" x="0" y="0" style="font-family: 'Open Sans', verdana, arial, sans-serif; font-size: 10px; fill: rgb(68, 68, 68); fill-opacity: 1; white-space: pre;" transform="translate(835.5389220134451,608.9887058823529)"><tspan class="line" dy="0em" x="0" y="0">CN:2</tspan><tspan class="line" dy="1.3em" x="0" y="0">2</tspan></text></g></g><g class="slice cursor-pointer"><path class="surface" d="M832.5389220134451,657.4943529411764a3,3 0 0 1 3,-3L907,654.4943529411764a3,3 0 0 1 3,3L910,707a3,3 0 0 1 -3,3L835.5389220134451,710a3,3 0 0 1 -3,-3Z" style="pointer-events: none; stroke-width: 1; fill: rgb(255, 102, 146); fill-opacity: 1; stroke: rgb(0, 0, 0); stroke-opacity: 0; opacity: 1;"/><g class="slicetext"><text data-notex="1" class="slicetext" text-anchor="start" x="0" y="0" style="font-family: 'Open Sans', verdana, arial, sans-serif; font-size: 10px; fill: rgb(68, 68, 68); fill-opacity: 1; white-space: pre;" transform="translate(835.5389220134451,667.4943529411764)"><tspan class="line" dy="0em" x="0" y="0">water-like:2</tspan><tspan class="line" dy="1.3em" x="0" y="0">2</tspan></text></g></g></g></g><g class="sunburstlayer"/><g class="glimages"/><defs id="topdefs-64fa25"><g class="clips"/></defs><g class="layer-above"><g class="imagelayer"/><g class="shapelayer"/></g><g class="infolayer"><g class="g-gtitle"><text class="gtitle" x="500" y="40" text-anchor="middle" dy="0.7em" style="opacity: 1; font-family: 'Open Sans', verdana, arial, sans-serif; font-size: 16px; fill: rgb(42, 63, 95); fill-opacity: 1; white-space: pre;"><tspan style="font-weight:bold">Chem Env Treemap: Large Dataset (9 structures)</tspan></text></g></g></svg>