<svg class="main-svg" xmlns="http://www.w3.org/2000/svg" xmlns:xlink="http://www.w3.org/1999/xlink" width="700" height="500" style="" viewBox="0 0 700 500"><rect x="0" y="0" width="700" height="500" style="fill: rgb(0, 0, 0); fill-opacity: 0;"/><defs id="defs-63baa4"><g class="clips"/><g class="gradients"/><g class="patterns"/></defs><g class="bglayer"/><g class="layer-below"><g class="imagelayer"/><g class="shapelayer"/></g><g class="cartesianlayer"/><g class="polarlayer"/><g class="smithlayer"/><g class="ternarylayer"/><g class="geolayer"/><g class="funnelarealayer"/><g class="pielayer"/><g class="iciclelayer"/><g class="treemaplayer"/><g class="sunburstlayer"><g class="trace sunburst" stroke-linejoin="round" style="opacity: 1;"><g class="slice cursor-pointer"><path class="surface" d="M350,240L440,240A90,90 0,1,0 270.6773240586816,282.5195611631704L350,240A0,0 0,1,1 350,240Z" style="pointer-events: none; stroke-width: 1; fill: rgb(99, 110, 250); fill-opacity: 1; stroke: rgb(255, 255, 255); stroke-opacity: 1;"/><g class="slicetext"><text data-notex="1" class="slicetext" text-anchor="middle" x="0" y="0" style="font-family: 'Open Sans', verdana, arial, sans-serif; font-size: 12px; fill: rgb(255, 255, 255); fill-opacity: 1; white-space: pre;" transform="translate(343.20434962065804,212.93815656807644)rotate(-14.096385542168719)">3: 48</text></g></g><g class="slice cursor-pointer"><path class="surface" d="M350,240L270.6773240586816,282.5195611631704A90,90 0,0,0 430.8748644405214,279.4874195374589L350,240A0,0 0,0,1 350,240Z" style="pointer-events: none; stroke-width: 1; fill: rgb(239, 85, 59); fill-opacity: 1; stroke: rgb(255, 255, 255); stroke-opacity: 1;"/><g class="slicetext"><text data-notex="1" class="slicetext" text-anchor="middle" x="0" y="0" style="font-family: 'Open Sans', verdana, arial, sans-serif; font-size: 12px; fill: rgb(68, 68, 68); fill-opacity: 1; white-space: pre;" transform="translate(350.90107943282277,292.35684910059354)">6: 29</text></g></g><g class="slice cursor-pointer"><path class="surface" d="M350,240L430.8748644405214,279.4874195374589A90,90 0,0,0 438.97045270327,253.57418674452367L350,240A0,0 0,0,1 350,240Z" style="pointer-events: none; stroke-width: 1; fill: rgb(0, 204, 150); fill-opacity: 1; stroke: rgb(255, 255, 255); stroke-opacity: 1;"/><g class="slicetext"><text data-notex="1" class="slicetext" text-anchor="middle" x="0" y="0" style="font-family: 'Open Sans', verdana, arial, sans-serif; font-size: 12px; fill: rgb(68, 68, 68); fill-opacity: 1; white-space: pre;" transform="translate(419.35371053065444,266.64329319849406)rotate(17.34939759036149)">2: 4</text></g></g><g class="slice cursor-pointer"><path class="surface" d="M350,240L438.97045270327,253.57418674452367A90,90 0,0,0 440,240.00000000000003L350,240A0,0 0,0,1 350,240Z" style="pointer-events: none; stroke-width: 1; fill: rgb(171, 99, 250); fill-opacity: 1; stroke: rgb(255, 255, 255); stroke-opacity: 1;"/><g class="slicetext"><text data-notex="1" class="slicetext" text-anchor="middle" x="0" y="0" style="font-family: 'Open Sans', verdana, arial, sans-serif; font-size: 12px; fill: rgb(68, 68, 68); fill-opacity: 1; white-space: pre;" transform="translate(430.06324898241013,249.38648761587723)scale(0.695688848081587)rotate(4.337349397590344)">4: 2</text></g></g><g class="slice"><path class="surface" d="M440,240L530,240A180,180 0,1,0 191.3546481173632,325.0391223263408L270.6773240586816,282.5195611631704A90,90 0,1,1 440,240Z" style="pointer-events: none; stroke-width: 1; fill: rgb(99, 110, 250); fill-opacity: 1; stroke: rgb(255, 255, 255); stroke-opacity: 1; opacity: 0.7;"/><g class="slicetext"><text data-notex="1" class="slicetext" text-anchor="middle" x="0" y="0" style="font-family: 'Open Sans', verdana, arial, sans-serif; font-size: 12px; fill: rgb(255, 255, 255); fill-opacity: 1; white-space: pre;" transform="translate(321.8913964824504,128.06507324239334)rotate(-14.096385542168719)">TY:3: 48</text></g></g><g class="slice"><path class="surface" d="M270.6773240586816,282.5195611631704L191.3546481173632,325.0391223263408A180,180 0,0,0 497.98808210506576,342.46720233745197L423.9940410525329,291.23360116872595A90,90 0,0,1 270.6773240586816,282.5195611631704Z" style="pointer-events: none; stroke-width: 1; fill: rgb(239, 85, 59); fill-opacity: 1; stroke: rgb(255, 255, 255); stroke-opacity: 1; opacity: 0.7;"/><g class="slicetext"><text data-notex="1" class="slicetext" text-anchor="middle" x="0" y="0" style="font-family: 'Open Sans', verdana, arial, sans-serif; font-size: 12px; fill: rgb(68, 68, 68); fill-opacity: 1; white-space: pre;" transform="translate(342.339388132435,379.53247299190843)">O:6: 27</text></g></g><g class="slice"><path class="surface" d="M423.9940410525329,291.23360116872595L497.98808210506576,342.46720233745197A180,180 0,0,0 511.74972888104276,318.9748390749178L430.8748644405214,279.4874195374589A90,90 0,0,1 423.9940410525329,291.23360116872595Z" style="pointer-events: none; stroke-width: 1; fill: rgb(239, 85, 59); fill-opacity: 1; stroke: rgb(255, 255, 255); stroke-opacity: 1; opacity: 0.7;"/><g class="slicetext"><text data-notex="1" class="slicetext" text-anchor="middle" x="0" y="0" style="font-family: 'Open Sans', verdana, arial, sans-serif; font-size: 12px; fill: rgb(68, 68, 68); fill-opacity: 1; white-space: pre;" transform="translate(480.7176804761705,322.0784047991307)rotate(30.36144578313258)">T:6: 2</text></g></g><g class="slice"><path class="surface" d="M430.8748644405214,279.4874195374589L511.74972888104276,318.9748390749178A180,180 0,0,0 527.94090540654,267.14837348904734L438.97045270327,253.57418674452367A90,90 0,0,1 430.8748644405214,279.4874195374589Z" style="pointer-events: none; stroke-width: 1; fill: rgb(0, 204, 150); fill-opacity: 1; stroke: rgb(255, 255, 255); stroke-opacity: 1; opacity: 0.7;"/><g class="slicetext"><text data-notex="1" class="slicetext" text-anchor="middle" x="0" y="0" style="font-family: 'Open Sans', verdana, arial, sans-serif; font-size: 12px; fill: rgb(68, 68, 68); fill-opacity: 1; white-space: pre;" transform="translate(499.2936252064444,291.39102428215693)">A:2: 4</text></g></g><g class="slice"><path class="surface" d="M438.97045270327,253.57418674452367L527.94090540654,267.14837348904734A180,180 0,0,0 530,240.00000000000006L440,240.00000000000003A90,90 0,0,1 438.97045270327,253.57418674452367Z" style="pointer-events: none; stroke-width: 1; fill: rgb(171, 99, 250); fill-opacity: 1; stroke: rgb(255, 255, 255); stroke-opacity: 1; opacity: 0.7;"/><g class="slicetext"><text data-notex="1" class="slicetext" text-anchor="middle" x="0" y="0" style="font-family: 'Open Sans', verdana, arial, sans-serif; font-size: 12px; fill: rgb(68, 68, 68); fill-opacity: 1; white-space: pre;" transform="translate(499.7860863019663,256.1243131607478)rotate(4.337349397590344)">SY:4: 2</text></g></g></g></g><g class="glimages"/><defs id="topdefs-63baa4"><g class="clips"/></defs><g class="layer-above"><g class="imagelayer"/><g class="shapelayer"/></g><g class="infolayer"><g class="g-gtitle"><text class="gtitle" x="350" y="20" text-anchor="middle" dy="0.7em" style="opacity: 1; font-family: 'Open Sans', verdana, arial, sans-serif; font-size: 18px; fill: rgb(42, 63, 95); fill-opacity: 1; white-space: pre;"><tspan class="line" dy="0em" x="350" y="20"><tspan style="font-weight:bold">Chem Env Sunburst of Ag13 Bi14 I56</tspan></tspan><tspan class="line" dy="1.3em" x="350" y="20">ID: mp-686119, space group: 2</tspan></text></g></g></svg>
