<svg class="main-svg" xmlns="http://www.w3.org/2000/svg" xmlns:xlink="http://www.w3.org/1999/xlink" width="600" height="600" style="" viewBox="0 0 600 600"><rect x="0" y="0" width="600" height="600" style="fill: rgb(0, 0, 0); fill-opacity: 0;"/><defs id="defs-6001d5"><g class="clips"/><g class="gradients"/><g class="patterns"/></defs><g class="bglayer"/><g class="layer-below"><g class="imagelayer"/><g class="shapelayer"/></g><g class="cartesianlayer"/><g class="polarlayer"/><g class="smithlayer"/><g class="ternarylayer"/><g class="geolayer"/><g class="funnelarealayer"/><g class="pielayer"/><g class="iciclelayer"/><g class="treemaplayer"/><g class="sunburstlayer"><g class="trace sunburst" stroke-linejoin="round" style="opacity: 1;"><g class="slice cursor-pointer"><path class="surface" d="M300,290L410,290A110,110 0,1,0 275.5226972648054,397.2420703400006L300,290A0,0 0,1,1 300,290Z" style="pointer-events: none; stroke-width: 1; fill: rgb(99, 110, 250); fill-opacity: 1; stroke: rgb(255, 255, 255); stroke-opacity: 1;"/><g class="slicetext"><text data-notex="1" class="slicetext" text-anchor="middle" x="0" y="0" style="font-family: 'Open Sans', verdana, arial, sans-serif; font-size: 12px; fill: rgb(255, 255, 255); fill-opacity: 1; white-space: pre;" transform="translate(286.80957045834845,273.45972451803453)rotate(-38.571428571428555)">3: 1975 (71.4%)</text></g></g><g class="slice cursor-pointer"><path class="surface" d="M300,290L275.5226972648054,397.2420703400006A110,110 0,0,0 373.35634998776686,371.96856663668245L300,290A0,0 0,0,1 300,290Z" style="pointer-events: none; stroke-width: 1; fill: rgb(239, 85, 59); fill-opacity: 1; stroke: rgb(255, 255, 255); stroke-opacity: 1;"/><g class="slicetext"><text data-notex="1" class="slicetext" text-anchor="middle" x="0" y="0" style="font-family: 'Open Sans', verdana, arial, sans-serif; font-size: 12px; fill: rgb(68, 68, 68); fill-opacity: 1; white-space: pre;" transform="translate(311.1255899782873,351.06633714456655)scale(0.9477827743705464)rotate(75.5153707052441)">4: 420 (15.2%)</text></g></g><g class="slice cursor-pointer"><path class="surface" d="M300,290L373.35634998776686,371.96856663668245A110,110 0,0,0 409.94433892411155,293.4989053345416L300,290A0,0 0,0,1 300,290Z" style="pointer-events: none; stroke-width: 1; fill: rgb(0, 204, 150); fill-opacity: 1; stroke: rgb(255, 255, 255); stroke-opacity: 1;"/><g class="slicetext"><text data-notex="1" class="slicetext" text-anchor="middle" x="0" y="0" style="font-family: 'Open Sans', verdana, arial, sans-serif; font-size: 12px; fill: rgb(68, 68, 68); fill-opacity: 1; white-space: pre;" transform="translate(355.3859296850133,320.6638172717113)scale(0.9233145915164734)rotate(24.99819168173599)">2: 356 (12.9%)</text></g></g><g class="slice cursor-pointer"><path class="surface" d="M300,290L409.94433892411155,293.4989053345416A110,110 0,0,0 409.99971599108807,290.2499637573102L300,290A0,0 0,0,1 300,290Z" style="pointer-events: none; stroke-width: 1; fill: rgb(171, 99, 250); fill-opacity: 1; stroke: rgb(255, 255, 255); stroke-opacity: 1;"/><g class="slicetext"><text data-notex="1" class="slicetext" text-anchor="middle" x="0" y="0" style="font-family: 'Open Sans', verdana, arial, sans-serif; font-size: 12px; fill: rgb(68, 68, 68); fill-opacity: 1; white-space: pre;" transform="translate(402.23562575794125,292.60774021327455)scale(0.18211458258202876)rotate(0.9764918625677979)">1: 13 (0.5%)</text></g></g><g class="slice cursor-pointer"><path class="surface" d="M300,290L409.99971599108807,290.2499637573102A110,110 0,0,0 410,289.99999999999994L300,290A0,0 0,0,1 300,290Z" style="pointer-events: none; stroke-width: 1; fill: rgb(255, 161, 90); fill-opacity: 1; stroke: rgb(255, 255, 255); stroke-opacity: 1;"/><g class="slicetext"><text data-notex="1" class="slicetext" text-anchor="middle" x="0" y="0" style="font-family: 'Open Sans', verdana, arial, sans-serif; font-size: 12px; fill: rgb(68, 68, 68); fill-opacity: 1; white-space: pre;" transform="translate(409.38109365827626,290.20082632406206)scale(0.016115249739490713)rotate(0.06509945750445922)">6: 1 (0.0%)</text></g></g><g class="slice"><path class="surface" d="M410,290L520,290A220,220 0,0,0 159.53573201030338,120.67844372874822L229.7678660051517,205.3392218643741A110,110 0,0,1 410,290Z" style="pointer-events: none; stroke-width: 1; fill: rgb(99, 110, 250); fill-opacity: 1; stroke: rgb(255, 255, 255); stroke-opacity: 1; opacity: 0.7;"/><g class="slicetext"><text data-notex="1" class="slicetext" text-anchor="middle" x="0" y="0" style="font-family: 'Open Sans', verdana, arial, sans-serif; font-size: 12px; fill: rgb(255, 255, 255); fill-opacity: 1; white-space: pre;" transform="translate(355.309869888275,172.25225304483314)rotate(25.160940325497222)">TY:3: 996 (50.4%)</text></g></g><g class="slice"><path class="surface" d="M229.7678660051517,205.3392218643741L159.53573201030338,120.67844372874822A220,220 0,0,0 207.59701873050875,489.6539232084109L253.79850936525438,389.82696160420545A110,110 0,0,1 229.7678660051517,205.3392218643741Z" style="pointer-events: none; stroke-width: 1; fill: rgb(99, 110, 250); fill-opacity: 1; stroke: rgb(255, 255, 255); stroke-opacity: 1; opacity: 0.7;"/><g class="slicetext"><text data-notex="1" class="slicetext" text-anchor="middle" x="0" y="0" style="font-family: 'Open Sans', verdana, arial, sans-serif; font-size: 12px; fill: rgb(255, 255, 255); fill-opacity: 1; white-space: pre;" transform="translate(161.49722966569146,308.0408231082653)rotate(82.5786618444846)">TL:3: 887 (44.9%)</text></g></g><g class="slice"><path class="surface" d="M253.79850936525438,389.82696160420545L207.59701873050875,489.6539232084109A220,220 0,0,0 251.04539452961097,504.48414068000125L275.5226972648055,397.2420703400006A110,110 0,0,1 253.79850936525438,389.82696160420545Z" style="pointer-events: none; stroke-width: 1; fill: rgb(99, 110, 250); fill-opacity: 1; stroke: rgb(255, 255, 255); stroke-opacity: 1; opacity: 0.7;"/><g class="slicetext"><text data-notex="1" class="slicetext" text-anchor="middle" x="0" y="0" style="font-family: 'Open Sans', verdana, arial, sans-serif; font-size: 12px; fill: rgb(255, 255, 255); fill-opacity: 1; white-space: pre;" transform="translate(251.21801827319388,447.6220143027672)rotate(-71.15370705244129)">TS:3: 92 (4.7%)</text></g></g><g class="slice"><path class="surface" d="M275.5226972648054,397.2420703400006L251.0453945296108,504.4841406800012A220,220 0,0,0 438.3371381763971,461.06383662587604L369.1685690881985,375.53191831293805A110,110 0,0,1 275.5226972648054,397.2420703400006Z" style="pointer-events: none; stroke-width: 1; fill: rgb(239, 85, 59); fill-opacity: 1; stroke: rgb(255, 255, 255); stroke-opacity: 1; opacity: 0.7;"/><g class="slicetext"><text data-notex="1" class="slicetext" text-anchor="middle" x="0" y="0" style="font-family: 'Open Sans', verdana, arial, sans-serif; font-size: 12px; fill: rgb(68, 68, 68); fill-opacity: 1; white-space: pre;" transform="translate(337.26405766910307,455.4870212677645)">T:4: 398 (94.8%)</text></g></g><g class="slice"><path class="surface" d="M369.1685690881985,375.53191831293805L438.3371381763971,461.06383662587604A220,220 0,0,0 442.94983544734066,457.2284202687397L371.47491772367033,373.61421013436984A110,110 0,0,1 369.1685690881985,375.53191831293805Z" style="pointer-events: none; stroke-width: 1; fill: rgb(239, 85, 59); fill-opacity: 1; stroke: rgb(255, 255, 255); stroke-opacity: 1; opacity: 0.7;"/><g class="slicetext"><text data-notex="1" class="slicetext" text-anchor="middle" x="0" y="0" style="font-family: 'Open Sans', verdana, arial, sans-serif; font-size: 12px; fill: rgb(68, 68, 68); fill-opacity: 1; white-space: pre;" transform="translate(428.08644078317684,446.552627657746)scale(0.33762167591305975)rotate(50.2567811934901)">SS:4: 12 (2.9%)</text></g></g><g class="slice"><path class="surface" d="M371.47491772367033,373.61421013436984L442.94983544734066,457.2284202687397A220,220 0,0,0 446.7126999755337,453.9371332733649L373.35634998776686,371.96856663668245A110,110 0,0,1 371.47491772367033,373.61421013436984Z" style="pointer-events: none; stroke-width: 1; fill: rgb(239, 85, 59); fill-opacity: 1; stroke: rgb(255, 255, 255); stroke-opacity: 1; opacity: 0.7;"/><g class="slicetext"><text data-notex="1" class="slicetext" text-anchor="middle" x="0" y="0" style="font-family: 'Open Sans', verdana, arial, sans-serif; font-size: 12px; fill: rgb(68, 68, 68); fill-opacity: 1; white-space: pre;" transform="translate(434.5004141536884,445.88103605102367)scale(0.2923595512771323)rotate(48.82459312839063)">S:4: 10 (2.4%)</text></g></g><g class="slice"><path class="surface" d="M373.35634998776686,371.96856663668245L446.7126999755337,453.9371332733649A220,220 0,0,0 504.89858719031963,370.1034891088459L402.4492935951598,330.05174455442295A110,110 0,0,1 373.35634998776686,371.96856663668245Z" style="pointer-events: none; stroke-width: 1; fill: rgb(0, 204, 150); fill-opacity: 1; stroke: rgb(255, 255, 255); stroke-opacity: 1; opacity: 0.7;"/><g class="slicetext"><text data-notex="1" class="slicetext" text-anchor="middle" x="0" y="0" style="font-family: 'Open Sans', verdana, arial, sans-serif; font-size: 12px; fill: rgb(68, 68, 68); fill-opacity: 1; white-space: pre;" transform="translate(432.80948609220934,387.9201461443019)scale(0.9930674776182584)rotate(34.76311030741408)">L:2: 206 (57.9%)</text></g></g><g class="slice"><path class="surface" d="M402.4492935951598,330.05174455442295L504.89858719031963,370.1034891088459A220,220 0,0,0 519.8886778482231,296.99781066908315L409.94433892411155,293.4989053345416A110,110 0,0,1 402.4492935951598,330.05174455442295Z" style="pointer-events: none; stroke-width: 1; fill: rgb(0, 204, 150); fill-opacity: 1; stroke: rgb(255, 255, 255); stroke-opacity: 1; opacity: 0.7;"/><g class="slicetext"><text data-notex="1" class="slicetext" text-anchor="middle" x="0" y="0" style="font-family: 'Open Sans', verdana, arial, sans-serif; font-size: 12px; fill: rgb(68, 68, 68); fill-opacity: 1; white-space: pre;" transform="translate(460.64320812926036,327.68855772402196)scale(0.9794473006265769)rotate(11.587703435804713)">A:2: 150 (42.1%)</text></g></g><g class="slice"><path class="surface" d="M409.94433892411155,293.4989053345416L519.8886778482231,296.99781066908315A220,220 0,0,0 519.9994319821761,290.49992751462037L409.99971599108807,290.2499637573102A110,110 0,0,1 409.94433892411155,293.4989053345416Z" style="pointer-events: none; stroke-width: 1; fill: rgb(171, 99, 250); fill-opacity: 1; stroke: rgb(255, 255, 255); stroke-opacity: 1; opacity: 0.7;"/><g class="slicetext"><text data-notex="1" class="slicetext" text-anchor="middle" x="0" y="0" style="font-family: 'Open Sans', verdana, arial, sans-serif; font-size: 12px; fill: rgb(68, 68, 68); fill-opacity: 1; white-space: pre;" transform="translate(499.91887424572315,295.1020357146274)scale(0.35668267354082456)rotate(0.9764918625677979)">S:1: 13 (100.0%)</text></g></g><g class="slice"><path class="surface" d="M409.99971599108807,290.2499637573102L519.9994319821761,290.49992751462037A220,220 0,0,0 520,289.9999999999999L410,289.99999999999994A110,110 0,0,1 409.99971599108807,290.2499637573102Z" style="pointer-events: none; stroke-width: 1; fill: rgb(255, 161, 90); fill-opacity: 1; stroke: rgb(255, 255, 255); stroke-opacity: 1; opacity: 0.7;"/><g class="slicetext"><text data-notex="1" class="slicetext" text-anchor="middle" x="0" y="0" style="font-family: 'Open Sans', verdana, arial, sans-serif; font-size: 12px; fill: rgb(68, 68, 68); fill-opacity: 1; white-space: pre;" transform="translate(518.2563180089423,290.4047614793984)scale(0.03300599375011081)rotate(0.06509945750445922)">O:6: 1 (100.0%)</text></g></g></g></g><g class="glimages"/><defs id="topdefs-6001d5"><g class="clips"/></defs><g class="layer-above"><g class="imagelayer"/><g class="shapelayer"/></g><g class="infolayer"><g class="g-gtitle"><text class="gtitle" x="300" y="24" text-anchor="middle" dy="0.7em" style="opacity: 1; font-family: 'Open Sans', verdana, arial, sans-serif; font-size: 16px; fill: rgb(42, 63, 95); fill-opacity: 1; white-space: pre;"><tspan class="line" dy="0em" x="300" y="24"><tspan style="font-weight:bold">CN-CE Sunburst: Elemental Carbon</tspan></tspan><tspan class="line" dy="1.3em" x="300" y="24">​<tspan style="font-size:70%" dy="0.3em">Inner ring: Coordination Numbers, Outer ring: Coordination Environments</tspan><tspan dy="-0.21em">​</tspan></tspan></text></g></g></svg>