<svg xmlns="http://www.w3.org/2000/svg" width="700" height="500" class="main-svg"><path d="M0 0h700v500H0z" style="fill:#fff;fill-opacity:1"/><defs><clipPath id="a" class="plotclip"><path d="M0 0h175.78v382H0z"/></clipPath><clipPath id="b" class="plotclip"><path d="M0 0h175.78v382H0z"/></clipPath><clipPath id="c" class="plotclip"><path d="M0 0h175.78v382H0z"/></clipPath></defs><g class="cartesianlayer"><g class="subplot xy"><g class="gridlayer"><g class="x"><path d="M0 60v382" class="xgrid crisp" style="stroke:#d3d3d3;stroke-opacity:1;stroke-width:1px" transform="translate(66.79)"/><path d="M0 60v382" class="xgrid crisp" style="stroke:#d3d3d3;stroke-opacity:1;stroke-width:1px" transform="translate(84.37)"/><path d="M0 60v382" class="xgrid crisp" style="stroke:#d3d3d3;stroke-opacity:1;stroke-width:1px" transform="translate(101.94)"/><path d="M0 60v382" class="xgrid crisp" style="stroke:#d3d3d3;stroke-opacity:1;stroke-width:1px" transform="translate(119.52)"/><path d="M0 60v382" class="xgrid crisp" style="stroke:#d3d3d3;stroke-opacity:1;stroke-width:1px" transform="translate(137.1)"/><path d="M0 60v382" class="xgrid crisp" style="stroke:#d3d3d3;stroke-opacity:1;stroke-width:1px" transform="translate(154.68)"/><path d="M0 60v382" class="xgrid crisp" style="stroke:#d3d3d3;stroke-opacity:1;stroke-width:1px" transform="translate(172.26)"/><path d="M0 60v382" class="xgrid crisp" style="stroke:#d3d3d3;stroke-opacity:1;stroke-width:1px" transform="translate(189.83)"/><path d="M0 60v382" class="xgrid crisp" style="stroke:#d3d3d3;stroke-opacity:1;stroke-width:1px" transform="translate(207.41)"/><path d="M0 60v382" class="xgrid crisp" style="stroke:#d3d3d3;stroke-opacity:1;stroke-width:1px" transform="translate(224.99)"/></g><g class="y"><path d="M58 0h175.78" class="ygrid crisp" style="stroke:#d3d3d3;stroke-opacity:1;stroke-width:1px" transform="translate(0 379.99)"/><path d="M58 0h175.78" class="ygrid crisp" style="stroke:#d3d3d3;stroke-opacity:1;stroke-width:1px" transform="translate(0 317.97)"/><path d="M58 0h175.78" class="ygrid crisp" style="stroke:#d3d3d3;stroke-opacity:1;stroke-width:1px" transform="translate(0 255.96)"/><path d="M58 0h175.78" class="ygrid crisp" style="stroke:#d3d3d3;stroke-opacity:1;stroke-width:1px" transform="translate(0 193.95)"/><path d="M58 0h175.78" class="ygrid crisp" style="stroke:#d3d3d3;stroke-opacity:1;stroke-width:1px" transform="translate(0 131.94)"/><path d="M58 0h175.78" class="ygrid crisp" style="stroke:#d3d3d3;stroke-opacity:1;stroke-width:1px" transform="translate(0 69.92)"/></g></g><g class="zerolinelayer"><path d="M58 0h175.78" class="yzl zl crisp" style="stroke:#ebf0f8;stroke-opacity:1;stroke-width:2px" transform="translate(0 442)"/></g><g class="overplot"><g class="xy" clip-path="url(#a)" transform="translate(58 60)"><g class="barlayer mlayer" shape-rendering="crispEdges"><g class="trace bars" style="opacity:1"><g class="points"><path d="M1.76 382h14.06Zm17.58 0H33.4Zm17.57 0h14.07Zm17.58 0h14.06Zm17.58 0h14.06Zm17.58 0h14.06Zm17.58 0h14.06Zm17.57 0h14.07Z" class="point" style="vector-effect:none;opacity:1;stroke-width:.5px;fill:#94e0e0;fill-opacity:1;stroke:#fff;stroke-opacity:1"/><g class="point"><path d="M142.38 382V158.75h14.06V382Z" style="vector-effect:none;opacity:1;stroke-width:.5px;fill:#94e0e0;fill-opacity:1;stroke:#fff;stroke-opacity:1"/><text class="bartext bartext-inside" data-notex="1" style="font-family:&quot;Open Sans&quot;,verdana,arial,sans-serif;font-size:12px;fill:#444;fill-opacity:1;white-space:pre" text-anchor="middle" transform="rotate(90 -9.614 156.383)scale(.55586)">18</text></g><path d="M159.96 382h14.06Zm17.58 0h14.06Z" class="point" style="vector-effect:none;opacity:1;stroke-width:.5px;fill:#94e0e0;fill-opacity:1;stroke:#fff;stroke-opacity:1"/></g></g><g class="trace bars" style="opacity:1"><g class="points"><path d="M1.76 382h14.06Zm17.58 0H33.4Zm17.57 0h14.07Zm17.58 0h14.06Zm17.58 0h14.06Z" class="point" style="vector-effect:none;opacity:1;stroke-width:.5px;fill:#006985;fill-opacity:1;stroke:#fff;stroke-opacity:1"/><g class="point"><path d="M89.65 382v-74.42h14.06V382Z" style="vector-effect:none;opacity:1;stroke-width:.5px;fill:#006985;fill-opacity:1;stroke:#fff;stroke-opacity:1"/><text class="bartext bartext-inside" data-notex="1" style="font-family:&quot;Open Sans&quot;,verdana,arial,sans-serif;font-size:12px;fill:#fff;fill-opacity:1;white-space:pre" text-anchor="middle" transform="translate(96.68 322.58)">6</text></g><g class="point"><path d="M107.23 382V158.75h14.06V382Z" style="vector-effect:none;opacity:1;stroke-width:.5px;fill:#006985;fill-opacity:1;stroke:#fff;stroke-opacity:1"/><text class="bartext bartext-inside" data-notex="1" style="font-family:&quot;Open Sans&quot;,verdana,arial,sans-serif;font-size:12px;fill:#fff;fill-opacity:1;white-space:pre" text-anchor="middle" transform="rotate(90 -27.189 138.808)scale(.55586)">18</text></g><path d="M124.8 382h14.07Zm17.58-223.25h14.06ZM159.96 382h14.06Zm17.58 0h14.06Z" class="point" style="vector-effect:none;opacity:1;stroke-width:.5px;fill:#006985;fill-opacity:1;stroke:#fff;stroke-opacity:1"/></g></g></g></g></g><path d="M57 442.5h177.78M57 59.5h177.78" class="xlines-above crisp" style="fill:none;stroke-width:1px;stroke:#000;stroke-opacity:1"/><path d="M57.5 60v382M234.28 60v382" class="ylines-above crisp" style="fill:none;stroke-width:1px;stroke:#000;stroke-opacity:1"/><g class="xaxislayer-above"><path d="M0 443v5" class="xtick ticks crisp" style="stroke:#444;stroke-opacity:1;stroke-width:1px" transform="translate(66.79)"/><path d="M0 443v5" class="xtick ticks crisp" style="stroke:#444;stroke-opacity:1;stroke-width:1px" transform="translate(84.37)"/><path d="M0 443v5" class="xtick ticks crisp" style="stroke:#444;stroke-opacity:1;stroke-width:1px" transform="translate(101.94)"/><path d="M0 443v5" class="xtick ticks crisp" style="stroke:#444;stroke-opacity:1;stroke-width:1px" transform="translate(119.52)"/><path d="M0 443v5" class="xtick ticks crisp" style="stroke:#444;stroke-opacity:1;stroke-width:1px" transform="translate(137.1)"/><path d="M0 443v5" class="xtick ticks crisp" style="stroke:#444;stroke-opacity:1;stroke-width:1px" transform="translate(154.68)"/><path d="M0 443v5" class="xtick ticks crisp" style="stroke:#444;stroke-opacity:1;stroke-width:1px" transform="translate(172.26)"/><path d="M0 443v5" class="xtick ticks crisp" style="stroke:#444;stroke-opacity:1;stroke-width:1px" transform="translate(189.83)"/><path d="M0 443v5" class="xtick ticks crisp" style="stroke:#444;stroke-opacity:1;stroke-width:1px" transform="translate(207.41)"/><path d="M0 443v5" class="xtick ticks crisp" style="stroke:#444;stroke-opacity:1;stroke-width:1px" transform="translate(224.99)"/><text y="462.4" class="xtick" style="font-family:&quot;Open Sans&quot;,verdana,arial,sans-serif;font-size:12px;fill:#000;fill-opacity:1;white-space:pre;opacity:1" text-anchor="middle" transform="translate(66.79)">1</text><text y="462.4" class="xtick" style="font-family:&quot;Open Sans&quot;,verdana,arial,sans-serif;font-size:12px;fill:#000;fill-opacity:1;white-space:pre;opacity:1" text-anchor="middle" transform="translate(84.37)">2</text><text y="462.4" class="xtick" style="font-family:&quot;Open Sans&quot;,verdana,arial,sans-serif;font-size:12px;fill:#000;fill-opacity:1;white-space:pre;opacity:1" text-anchor="middle" transform="translate(101.94)">3</text><text y="462.4" class="xtick" style="font-family:&quot;Open Sans&quot;,verdana,arial,sans-serif;font-size:12px;fill:#000;fill-opacity:1;white-space:pre;opacity:1" text-anchor="middle" transform="translate(119.52)">4</text><text y="462.4" class="xtick" style="font-family:&quot;Open Sans&quot;,verdana,arial,sans-serif;font-size:12px;fill:#000;fill-opacity:1;white-space:pre;opacity:1" text-anchor="middle" transform="translate(137.1)">5</text><text y="462.4" class="xtick" style="font-family:&quot;Open Sans&quot;,verdana,arial,sans-serif;font-size:12px;fill:#000;fill-opacity:1;white-space:pre;opacity:1" text-anchor="middle" transform="translate(154.68)">6</text><text y="462.4" class="xtick" style="font-family:&quot;Open Sans&quot;,verdana,arial,sans-serif;font-size:12px;fill:#000;fill-opacity:1;white-space:pre;opacity:1" text-anchor="middle" transform="translate(172.26)">7</text><text y="462.4" class="xtick" style="font-family:&quot;Open Sans&quot;,verdana,arial,sans-serif;font-size:12px;fill:#000;fill-opacity:1;white-space:pre;opacity:1" text-anchor="middle" transform="translate(189.83)">8</text><text y="462.4" class="xtick" style="font-family:&quot;Open Sans&quot;,verdana,arial,sans-serif;font-size:12px;fill:#000;fill-opacity:1;white-space:pre;opacity:1" text-anchor="middle" transform="translate(207.41)">9</text><text y="462.4" class="xtick" style="font-family:&quot;Open Sans&quot;,verdana,arial,sans-serif;font-size:12px;fill:#000;fill-opacity:1;white-space:pre;opacity:1" text-anchor="middle" transform="translate(224.99)">10</text></g><g class="yaxislayer-above"><path d="M57 0h-5" class="ytick ticks crisp" style="stroke:#444;stroke-opacity:1;stroke-width:1px" transform="translate(0 442)"/><path d="M57 0h-5" class="ytick ticks crisp" style="stroke:#444;stroke-opacity:1;stroke-width:1px" transform="translate(0 379.99)"/><path d="M57 0h-5" class="ytick ticks crisp" style="stroke:#444;stroke-opacity:1;stroke-width:1px" transform="translate(0 317.97)"/><path d="M57 0h-5" class="ytick ticks crisp" style="stroke:#444;stroke-opacity:1;stroke-width:1px" transform="translate(0 255.96)"/><path d="M57 0h-5" class="ytick ticks crisp" style="stroke:#444;stroke-opacity:1;stroke-width:1px" transform="translate(0 193.95)"/><path d="M57 0h-5" class="ytick ticks crisp" style="stroke:#444;stroke-opacity:1;stroke-width:1px" transform="translate(0 131.94)"/><path d="M57 0h-5" class="ytick ticks crisp" style="stroke:#444;stroke-opacity:1;stroke-width:1px" transform="translate(0 69.92)"/><text x="49.6" y="4.2" class="ytick" style="font-family:&quot;Open Sans&quot;,verdana,arial,sans-serif;font-size:12px;fill:#000;fill-opacity:1;white-space:pre;opacity:1" text-anchor="end" transform="translate(0 442)">0</text><text x="49.6" y="4.2" class="ytick" style="font-family:&quot;Open Sans&quot;,verdana,arial,sans-serif;font-size:12px;fill:#000;fill-opacity:1;white-space:pre;opacity:1" text-anchor="end" transform="translate(0 379.99)">5</text><text x="49.6" y="4.2" class="ytick" style="font-family:&quot;Open Sans&quot;,verdana,arial,sans-serif;font-size:12px;fill:#000;fill-opacity:1;white-space:pre;opacity:1" text-anchor="end" transform="translate(0 317.97)">10</text><text x="49.6" y="4.2" class="ytick" style="font-family:&quot;Open Sans&quot;,verdana,arial,sans-serif;font-size:12px;fill:#000;fill-opacity:1;white-space:pre;opacity:1" text-anchor="end" transform="translate(0 255.96)">15</text><text x="49.6" y="4.2" class="ytick" style="font-family:&quot;Open Sans&quot;,verdana,arial,sans-serif;font-size:12px;fill:#000;fill-opacity:1;white-space:pre;opacity:1" text-anchor="end" transform="translate(0 193.95)">20</text><text x="49.6" y="4.2" class="ytick" style="font-family:&quot;Open Sans&quot;,verdana,arial,sans-serif;font-size:12px;fill:#000;fill-opacity:1;white-space:pre;opacity:1" text-anchor="end" transform="translate(0 131.94)">25</text><text x="49.6" y="4.2" class="ytick" style="font-family:&quot;Open Sans&quot;,verdana,arial,sans-serif;font-size:12px;fill:#000;fill-opacity:1;white-space:pre;opacity:1" text-anchor="end" transform="translate(0 69.92)">30</text></g></g><g class="subplot x2y2"><g class="gridlayer"><g class="x2"><path d="M0 60v382" class="x2grid crisp" style="stroke:#d3d3d3;stroke-opacity:1;stroke-width:1px" transform="translate(259.4)"/><path d="M0 60v382" class="x2grid crisp" style="stroke:#d3d3d3;stroke-opacity:1;stroke-width:1px" transform="translate(276.98)"/><path d="M0 60v382" class="x2grid crisp" style="stroke:#d3d3d3;stroke-opacity:1;stroke-width:1px" transform="translate(294.55)"/><path d="M0 60v382" class="x2grid crisp" style="stroke:#d3d3d3;stroke-opacity:1;stroke-width:1px" transform="translate(312.13)"/><path d="M0 60v382" class="x2grid crisp" style="stroke:#d3d3d3;stroke-opacity:1;stroke-width:1px" transform="translate(329.71)"/><path d="M0 60v382" class="x2grid crisp" style="stroke:#d3d3d3;stroke-opacity:1;stroke-width:1px" transform="translate(347.29)"/><path d="M0 60v382" class="x2grid crisp" style="stroke:#d3d3d3;stroke-opacity:1;stroke-width:1px" transform="translate(364.87)"/><path d="M0 60v382" class="x2grid crisp" style="stroke:#d3d3d3;stroke-opacity:1;stroke-width:1px" transform="translate(382.44)"/><path d="M0 60v382" class="x2grid crisp" style="stroke:#d3d3d3;stroke-opacity:1;stroke-width:1px" transform="translate(400.02)"/><path d="M0 60v382" class="x2grid crisp" style="stroke:#d3d3d3;stroke-opacity:1;stroke-width:1px" transform="translate(417.6)"/></g><g class="y2"><path d="M250.61 0h175.78" class="y2grid crisp" style="stroke:#d3d3d3;stroke-opacity:1;stroke-width:1px" transform="translate(0 379.99)"/><path d="M250.61 0h175.78" class="y2grid crisp" style="stroke:#d3d3d3;stroke-opacity:1;stroke-width:1px" transform="translate(0 317.97)"/><path d="M250.61 0h175.78" class="y2grid crisp" style="stroke:#d3d3d3;stroke-opacity:1;stroke-width:1px" transform="translate(0 255.96)"/><path d="M250.61 0h175.78" class="y2grid crisp" style="stroke:#d3d3d3;stroke-opacity:1;stroke-width:1px" transform="translate(0 193.95)"/><path d="M250.61 0h175.78" class="y2grid crisp" style="stroke:#d3d3d3;stroke-opacity:1;stroke-width:1px" transform="translate(0 131.94)"/><path d="M250.61 0h175.78" class="y2grid crisp" style="stroke:#d3d3d3;stroke-opacity:1;stroke-width:1px" transform="translate(0 69.92)"/></g></g><g class="zerolinelayer"><path d="M250.61 0h175.78" class="y2zl zl crisp" style="stroke:#ebf0f8;stroke-opacity:1;stroke-width:2px" transform="translate(0 442)"/></g><g class="overplot"><g class="x2y2" clip-path="url(#b)" transform="translate(250.61 60)"><g class="barlayer mlayer" shape-rendering="crispEdges"><g class="trace bars" style="opacity:1"><g class="points"><path d="M1.76 382h14.06Zm17.58 0H33.4Zm17.57 0h14.07Zm17.58 0h14.06Zm17.58 0h14.06Z" class="point" style="vector-effect:none;opacity:1;stroke-width:.5px;fill:#0101ff;fill-opacity:1;stroke:#fff;stroke-opacity:1"/><g class="point"><path d="M89.65 382v-49.61h14.06V382Z" style="vector-effect:none;opacity:1;stroke-width:.5px;fill:#0101ff;fill-opacity:1;stroke:#fff;stroke-opacity:1"/><text class="bartext bartext-inside" data-notex="1" style="font-family:&quot;Open Sans&quot;,verdana,arial,sans-serif;font-size:12px;fill:#fff;fill-opacity:1;white-space:pre" text-anchor="middle" transform="translate(96.68 347.39)">4</text></g><path d="M107.23 382h14.06Zm17.57 0h14.07Zm17.58 0h14.06Zm17.58 0h14.06Zm17.58 0h14.06Z" class="point" style="vector-effect:none;opacity:1;stroke-width:.5px;fill:#0101ff;fill-opacity:1;stroke:#fff;stroke-opacity:1"/></g></g><g class="trace bars" style="opacity:1"><g class="points"><path d="M1.76 382h14.06Zm17.58 0H33.4Zm17.57 0h14.07Zm17.58 0h14.06Zm17.58 0h14.06Z" class="point" style="vector-effect:none;opacity:1;stroke-width:.5px;fill:#e06633;fill-opacity:1;stroke:#fff;stroke-opacity:1"/><g class="point"><path d="M89.65 332.39v-49.61h14.06v49.61Z" style="vector-effect:none;opacity:1;stroke-width:.5px;fill:#e06633;fill-opacity:1;stroke:#fff;stroke-opacity:1"/><text class="bartext bartext-inside" data-notex="1" style="font-family:&quot;Open Sans&quot;,verdana,arial,sans-serif;font-size:12px;fill:#444;fill-opacity:1;white-space:pre" text-anchor="middle" transform="translate(96.68 297.78)">4</text></g><path d="M107.23 382h14.06Zm17.57 0h14.07Zm17.58 0h14.06Zm17.58 0h14.06Zm17.58 0h14.06Z" class="point" style="vector-effect:none;opacity:1;stroke-width:.5px;fill:#e06633;fill-opacity:1;stroke:#fff;stroke-opacity:1"/></g></g><g class="trace bars" style="opacity:1"><g class="points"><path d="M1.76 382h14.06Zm17.58 0H33.4Zm17.57 0h14.07Z" class="point" style="vector-effect:none;opacity:1;stroke-width:.5px;fill:#ff0100;fill-opacity:1;stroke:#fff;stroke-opacity:1"/><g class="point"><path d="M54.49 382v-49.61h14.06V382Z" style="vector-effect:none;opacity:1;stroke-width:.5px;fill:#ff0100;fill-opacity:1;stroke:#fff;stroke-opacity:1"/><text class="bartext bartext-inside" data-notex="1" style="font-family:&quot;Open Sans&quot;,verdana,arial,sans-serif;font-size:12px;fill:#fff;fill-opacity:1;white-space:pre" text-anchor="middle" transform="translate(61.52 347.39)">4</text></g><path d="M72.07 382h14.06Zm17.58-99.22h14.06ZM107.23 382h14.06Zm17.57 0h14.07Zm17.58 0h14.06Zm17.58 0h14.06Zm17.58 0h14.06Z" class="point" style="vector-effect:none;opacity:1;stroke-width:.5px;fill:#ff0100;fill-opacity:1;stroke:#fff;stroke-opacity:1"/></g></g><g class="trace bars" style="opacity:1"><g class="points"><path d="M1.76 382h14.06Zm17.58 0H33.4Zm17.57 0h14.07Z" class="point" style="vector-effect:none;opacity:1;stroke-width:.5px;fill:red;fill-opacity:1;stroke:#fff;stroke-opacity:1"/><g class="point"><path d="M54.49 332.39V133.95h14.06v198.44Z" style="vector-effect:none;opacity:1;stroke-width:.5px;fill:red;fill-opacity:1;stroke:#fff;stroke-opacity:1"/><text class="bartext bartext-inside" data-notex="1" style="font-family:&quot;Open Sans&quot;,verdana,arial,sans-serif;font-size:12px;fill:#fff;fill-opacity:1;white-space:pre" text-anchor="middle" transform="rotate(90 -41.159 100.038)scale(.55586)">16</text></g><path d="M72.07 382h14.06Zm17.58-99.22h14.06ZM107.23 382h14.06Zm17.57 0h14.07Zm17.58 0h14.06Zm17.58 0h14.06Zm17.58 0h14.06Z" class="point" style="vector-effect:none;opacity:1;stroke-width:.5px;fill:red;fill-opacity:1;stroke:#fff;stroke-opacity:1"/></g></g></g></g></g><path d="M249.61 442.5h177.78m-177.78-383h177.78" class="xlines-above crisp" style="fill:none;stroke-width:1px;stroke:#000;stroke-opacity:1"/><path d="M250.11 60v382M426.89 60v382" class="ylines-above crisp" style="fill:none;stroke-width:1px;stroke:#000;stroke-opacity:1"/><g class="xaxislayer-above"><path d="M0 443v5" class="x2tick ticks crisp" style="stroke:#444;stroke-opacity:1;stroke-width:1px" transform="translate(259.4)"/><path d="M0 443v5" class="x2tick ticks crisp" style="stroke:#444;stroke-opacity:1;stroke-width:1px" transform="translate(276.98)"/><path d="M0 443v5" class="x2tick ticks crisp" style="stroke:#444;stroke-opacity:1;stroke-width:1px" transform="translate(294.55)"/><path d="M0 443v5" class="x2tick ticks crisp" style="stroke:#444;stroke-opacity:1;stroke-width:1px" transform="translate(312.13)"/><path d="M0 443v5" class="x2tick ticks crisp" style="stroke:#444;stroke-opacity:1;stroke-width:1px" transform="translate(329.71)"/><path d="M0 443v5" class="x2tick ticks crisp" style="stroke:#444;stroke-opacity:1;stroke-width:1px" transform="translate(347.29)"/><path d="M0 443v5" class="x2tick ticks crisp" style="stroke:#444;stroke-opacity:1;stroke-width:1px" transform="translate(364.87)"/><path d="M0 443v5" class="x2tick ticks crisp" style="stroke:#444;stroke-opacity:1;stroke-width:1px" transform="translate(382.44)"/><path d="M0 443v5" class="x2tick ticks crisp" style="stroke:#444;stroke-opacity:1;stroke-width:1px" transform="translate(400.02)"/><path d="M0 443v5" class="x2tick ticks crisp" style="stroke:#444;stroke-opacity:1;stroke-width:1px" transform="translate(417.6)"/><text y="462.4" class="x2tick" style="font-family:&quot;Open Sans&quot;,verdana,arial,sans-serif;font-size:12px;fill:#000;fill-opacity:1;white-space:pre;opacity:1" text-anchor="middle" transform="translate(259.4)">1</text><text y="462.4" class="x2tick" style="font-family:&quot;Open Sans&quot;,verdana,arial,sans-serif;font-size:12px;fill:#000;fill-opacity:1;white-space:pre;opacity:1" text-anchor="middle" transform="translate(276.98)">2</text><text y="462.4" class="x2tick" style="font-family:&quot;Open Sans&quot;,verdana,arial,sans-serif;font-size:12px;fill:#000;fill-opacity:1;white-space:pre;opacity:1" text-anchor="middle" transform="translate(294.55)">3</text><text y="462.4" class="x2tick" style="font-family:&quot;Open Sans&quot;,verdana,arial,sans-serif;font-size:12px;fill:#000;fill-opacity:1;white-space:pre;opacity:1" text-anchor="middle" transform="translate(312.13)">4</text><text y="462.4" class="x2tick" style="font-family:&quot;Open Sans&quot;,verdana,arial,sans-serif;font-size:12px;fill:#000;fill-opacity:1;white-space:pre;opacity:1" text-anchor="middle" transform="translate(329.71)">5</text><text y="462.4" class="x2tick" style="font-family:&quot;Open Sans&quot;,verdana,arial,sans-serif;font-size:12px;fill:#000;fill-opacity:1;white-space:pre;opacity:1" text-anchor="middle" transform="translate(347.29)">6</text><text y="462.4" class="x2tick" style="font-family:&quot;Open Sans&quot;,verdana,arial,sans-serif;font-size:12px;fill:#000;fill-opacity:1;white-space:pre;opacity:1" text-anchor="middle" transform="translate(364.87)">7</text><text y="462.4" class="x2tick" style="font-family:&quot;Open Sans&quot;,verdana,arial,sans-serif;font-size:12px;fill:#000;fill-opacity:1;white-space:pre;opacity:1" text-anchor="middle" transform="translate(382.44)">8</text><text y="462.4" class="x2tick" style="font-family:&quot;Open Sans&quot;,verdana,arial,sans-serif;font-size:12px;fill:#000;fill-opacity:1;white-space:pre;opacity:1" text-anchor="middle" transform="translate(400.02)">9</text><text y="462.4" class="x2tick" style="font-family:&quot;Open Sans&quot;,verdana,arial,sans-serif;font-size:12px;fill:#000;fill-opacity:1;white-space:pre;opacity:1" text-anchor="middle" transform="translate(417.6)">10</text></g><g class="yaxislayer-above"><path d="M249.61 0h-5" class="y2tick ticks crisp" style="stroke:#444;stroke-opacity:1;stroke-width:1px" transform="translate(0 442)"/><path d="M249.61 0h-5" class="y2tick ticks crisp" style="stroke:#444;stroke-opacity:1;stroke-width:1px" transform="translate(0 379.99)"/><path d="M249.61 0h-5" class="y2tick ticks crisp" style="stroke:#444;stroke-opacity:1;stroke-width:1px" transform="translate(0 317.97)"/><path d="M249.61 0h-5" class="y2tick ticks crisp" style="stroke:#444;stroke-opacity:1;stroke-width:1px" transform="translate(0 255.96)"/><path d="M249.61 0h-5" class="y2tick ticks crisp" style="stroke:#444;stroke-opacity:1;stroke-width:1px" transform="translate(0 193.95)"/><path d="M249.61 0h-5" class="y2tick ticks crisp" style="stroke:#444;stroke-opacity:1;stroke-width:1px" transform="translate(0 131.94)"/><path d="M249.61 0h-5" class="y2tick ticks crisp" style="stroke:#444;stroke-opacity:1;stroke-width:1px" transform="translate(0 69.92)"/></g></g><g class="subplot x3y3"><g class="gridlayer"><g class="x3"><path d="M0 60v382" class="x3grid crisp" style="stroke:#d3d3d3;stroke-opacity:1;stroke-width:1px" transform="translate(452.01)"/><path d="M0 60v382" class="x3grid crisp" style="stroke:#d3d3d3;stroke-opacity:1;stroke-width:1px" transform="translate(469.59)"/><path d="M0 60v382" class="x3grid crisp" style="stroke:#d3d3d3;stroke-opacity:1;stroke-width:1px" transform="translate(487.16)"/><path d="M0 60v382" class="x3grid crisp" style="stroke:#d3d3d3;stroke-opacity:1;stroke-width:1px" transform="translate(504.74)"/><path d="M0 60v382" class="x3grid crisp" style="stroke:#d3d3d3;stroke-opacity:1;stroke-width:1px" transform="translate(522.32)"/><path d="M0 60v382" class="x3grid crisp" style="stroke:#d3d3d3;stroke-opacity:1;stroke-width:1px" transform="translate(539.9)"/><path d="M0 60v382" class="x3grid crisp" style="stroke:#d3d3d3;stroke-opacity:1;stroke-width:1px" transform="translate(557.48)"/><path d="M0 60v382" class="x3grid crisp" style="stroke:#d3d3d3;stroke-opacity:1;stroke-width:1px" transform="translate(575.05)"/><path d="M0 60v382" class="x3grid crisp" style="stroke:#d3d3d3;stroke-opacity:1;stroke-width:1px" transform="translate(592.63)"/><path d="M0 60v382" class="x3grid crisp" style="stroke:#d3d3d3;stroke-opacity:1;stroke-width:1px" transform="translate(610.21)"/></g><g class="y3"><path d="M443.22 0H619" class="y3grid crisp" style="stroke:#d3d3d3;stroke-opacity:1;stroke-width:1px" transform="translate(0 379.99)"/><path d="M443.22 0H619" class="y3grid crisp" style="stroke:#d3d3d3;stroke-opacity:1;stroke-width:1px" transform="translate(0 317.97)"/><path d="M443.22 0H619" class="y3grid crisp" style="stroke:#d3d3d3;stroke-opacity:1;stroke-width:1px" transform="translate(0 255.96)"/><path d="M443.22 0H619" class="y3grid crisp" style="stroke:#d3d3d3;stroke-opacity:1;stroke-width:1px" transform="translate(0 193.95)"/><path d="M443.22 0H619" class="y3grid crisp" style="stroke:#d3d3d3;stroke-opacity:1;stroke-width:1px" transform="translate(0 131.94)"/><path d="M443.22 0H619" class="y3grid crisp" style="stroke:#d3d3d3;stroke-opacity:1;stroke-width:1px" transform="translate(0 69.92)"/></g></g><g class="zerolinelayer"><path d="M443.22 0H619" class="y3zl zl crisp" style="stroke:#ebf0f8;stroke-opacity:1;stroke-width:2px" transform="translate(0 442)"/></g><g class="overplot"><g class="x3y3" clip-path="url(#c)" transform="translate(443.22 60)"><g class="barlayer mlayer" shape-rendering="crispEdges"><g class="trace bars" style="opacity:1"><g class="points"><path d="M1.76 382h14.06Zm17.58 0H33.4Zm17.57 0h14.07Zm17.58 0h14.06Zm17.58 0h14.06Zm17.58 0h14.06Zm17.58 0h14.06Z" class="point" style="vector-effect:none;opacity:1;stroke-width:.5px;fill:#94e0e0;fill-opacity:1;stroke:#fff;stroke-opacity:1"/><g class="point"><path d="M124.8 382v-99.22h14.07V382Z" style="vector-effect:none;opacity:1;stroke-width:.5px;fill:#94e0e0;fill-opacity:1;stroke:#fff;stroke-opacity:1"/><text class="bartext bartext-inside" data-notex="1" style="font-family:&quot;Open Sans&quot;,verdana,arial,sans-serif;font-size:12px;fill:#444;fill-opacity:1;white-space:pre" text-anchor="middle" transform="translate(131.835 297.78)">8</text></g><path d="M142.38 382h14.06Zm17.58 0h14.06Zm17.58 0h14.06Z" class="point" style="vector-effect:none;opacity:1;stroke-width:.5px;fill:#94e0e0;fill-opacity:1;stroke:#fff;stroke-opacity:1"/></g></g><g class="trace bars" style="opacity:1"><g class="points"><g class="point"><path d="M1.76 382v-12.4h14.06V382Z" style="vector-effect:none;opacity:1;stroke-width:.5px;fill:#9e4fb5;fill-opacity:1;stroke:#fff;stroke-opacity:1"/><text class="bartext bartext-outside" data-notex="1" style="font-family:&quot;Open Sans&quot;,verdana,arial,sans-serif;font-size:12px;fill:#000;fill-opacity:1;white-space:pre" text-anchor="middle" transform="translate(8.79 364.1)">1</text></g><g class="point"><path d="M19.34 382v-12.4H33.4V382Z" style="vector-effect:none;opacity:1;stroke-width:.5px;fill:#9e4fb5;fill-opacity:1;stroke:#fff;stroke-opacity:1"/><text class="bartext bartext-outside" data-notex="1" style="font-family:&quot;Open Sans&quot;,verdana,arial,sans-serif;font-size:12px;fill:#000;fill-opacity:1;white-space:pre" text-anchor="middle" transform="translate(26.37 364.1)">1</text></g><path d="M36.91 382h14.07Zm17.58 0h14.06Z" class="point" style="vector-effect:none;opacity:1;stroke-width:.5px;fill:#9e4fb5;fill-opacity:1;stroke:#fff;stroke-opacity:1"/><g class="point"><path d="M72.07 382v-12.4h14.06V382Z" style="vector-effect:none;opacity:1;stroke-width:.5px;fill:#9e4fb5;fill-opacity:1;stroke:#fff;stroke-opacity:1"/><text class="bartext bartext-outside" data-notex="1" style="font-family:&quot;Open Sans&quot;,verdana,arial,sans-serif;font-size:12px;fill:#000;fill-opacity:1;white-space:pre" text-anchor="middle" transform="translate(79.1 364.1)">1</text></g><g class="point"><path d="M89.65 382v-24.81h14.06V382Z" style="vector-effect:none;opacity:1;stroke-width:.5px;fill:#9e4fb5;fill-opacity:1;stroke:#fff;stroke-opacity:1"/><text class="bartext bartext-inside" data-notex="1" style="font-family:&quot;Open Sans&quot;,verdana,arial,sans-serif;font-size:12px;fill:#fff;fill-opacity:1;white-space:pre" text-anchor="middle" transform="translate(96.68 372.19)">2</text></g><g class="point"><path d="M107.23 382v-24.81h14.06V382Z" style="vector-effect:none;opacity:1;stroke-width:.5px;fill:#9e4fb5;fill-opacity:1;stroke:#fff;stroke-opacity:1"/><text class="bartext bartext-inside" data-notex="1" style="font-family:&quot;Open Sans&quot;,verdana,arial,sans-serif;font-size:12px;fill:#fff;fill-opacity:1;white-space:pre" text-anchor="middle" transform="translate(114.26 372.19)">2</text></g><g class="point"><path d="M124.8 282.78v-37.21h14.07v37.21Z" style="vector-effect:none;opacity:1;stroke-width:.5px;fill:#9e4fb5;fill-opacity:1;stroke:#fff;stroke-opacity:1"/><text class="bartext bartext-inside" data-notex="1" style="font-family:&quot;Open Sans&quot;,verdana,arial,sans-serif;font-size:12px;fill:#fff;fill-opacity:1;white-space:pre" text-anchor="middle" transform="translate(131.835 260.57)">3</text></g><path d="M142.38 382h14.06Z" class="point" style="vector-effect:none;opacity:1;stroke-width:.5px;fill:#9e4fb5;fill-opacity:1;stroke:#fff;stroke-opacity:1"/><g class="point"><path d="M159.96 382v-24.81h14.06V382Z" style="vector-effect:none;opacity:1;stroke-width:.5px;fill:#9e4fb5;fill-opacity:1;stroke:#fff;stroke-opacity:1"/><text class="bartext bartext-inside" data-notex="1" style="font-family:&quot;Open Sans&quot;,verdana,arial,sans-serif;font-size:12px;fill:#fff;fill-opacity:1;white-space:pre" text-anchor="middle" transform="translate(166.99 372.19)">2</text></g><path d="M177.54 382h14.06Z" class="point" style="vector-effect:none;opacity:1;stroke-width:.5px;fill:#9e4fb5;fill-opacity:1;stroke:#fff;stroke-opacity:1"/></g></g><g class="trace bars" style="opacity:1"><g class="points"><path d="M1.76 369.6h14.06Zm17.58 0H33.4ZM36.91 382h14.07Z" class="point" style="vector-effect:none;opacity:1;stroke-width:.5px;fill:red;fill-opacity:1;stroke:#fff;stroke-opacity:1"/><g class="point"><path d="M54.49 382V34.73h14.06V382Z" style="vector-effect:none;opacity:1;stroke-width:.5px;fill:red;fill-opacity:1;stroke:#fff;stroke-opacity:1"/><text class="bartext bartext-inside" data-notex="1" style="font-family:&quot;Open Sans&quot;,verdana,arial,sans-serif;font-size:12px;fill:#fff;fill-opacity:1;white-space:pre" text-anchor="middle" transform="rotate(90 8.451 50.428)scale(.55586)">28</text></g><path d="M72.07 369.6h14.06Zm17.58-12.41h14.06Zm17.58 0h14.06Zm17.57-111.62h14.07ZM142.38 382h14.06Zm17.58-24.81h14.06ZM177.54 382h14.06Z" class="point" style="vector-effect:none;opacity:1;stroke-width:.5px;fill:red;fill-opacity:1;stroke:#fff;stroke-opacity:1"/></g></g></g></g></g><path d="M442.22 442.5H620m-177.78-383H620" class="xlines-above crisp" style="fill:none;stroke-width:1px;stroke:#000;stroke-opacity:1"/><path d="M442.72 60v382M619.5 60v382" class="ylines-above crisp" style="fill:none;stroke-width:1px;stroke:#000;stroke-opacity:1"/><g class="xaxislayer-above"><path d="M0 443v5" class="x3tick ticks crisp" style="stroke:#444;stroke-opacity:1;stroke-width:1px" transform="translate(452.01)"/><path d="M0 443v5" class="x3tick ticks crisp" style="stroke:#444;stroke-opacity:1;stroke-width:1px" transform="translate(469.59)"/><path d="M0 443v5" class="x3tick ticks crisp" style="stroke:#444;stroke-opacity:1;stroke-width:1px" transform="translate(487.16)"/><path d="M0 443v5" class="x3tick ticks crisp" style="stroke:#444;stroke-opacity:1;stroke-width:1px" transform="translate(504.74)"/><path d="M0 443v5" class="x3tick ticks crisp" style="stroke:#444;stroke-opacity:1;stroke-width:1px" transform="translate(522.32)"/><path d="M0 443v5" class="x3tick ticks crisp" style="stroke:#444;stroke-opacity:1;stroke-width:1px" transform="translate(539.9)"/><path d="M0 443v5" class="x3tick ticks crisp" style="stroke:#444;stroke-opacity:1;stroke-width:1px" transform="translate(557.48)"/><path d="M0 443v5" class="x3tick ticks crisp" style="stroke:#444;stroke-opacity:1;stroke-width:1px" transform="translate(575.05)"/><path d="M0 443v5" class="x3tick ticks crisp" style="stroke:#444;stroke-opacity:1;stroke-width:1px" transform="translate(592.63)"/><path d="M0 443v5" class="x3tick ticks crisp" style="stroke:#444;stroke-opacity:1;stroke-width:1px" transform="translate(610.21)"/><text y="462.4" class="x3tick" style="font-family:&quot;Open Sans&quot;,verdana,arial,sans-serif;font-size:12px;fill:#000;fill-opacity:1;white-space:pre;opacity:1" text-anchor="middle" transform="translate(452.01)">1</text><text y="462.4" class="x3tick" style="font-family:&quot;Open Sans&quot;,verdana,arial,sans-serif;font-size:12px;fill:#000;fill-opacity:1;white-space:pre;opacity:1" text-anchor="middle" transform="translate(469.59)">2</text><text y="462.4" class="x3tick" style="font-family:&quot;Open Sans&quot;,verdana,arial,sans-serif;font-size:12px;fill:#000;fill-opacity:1;white-space:pre;opacity:1" text-anchor="middle" transform="translate(487.16)">3</text><text y="462.4" class="x3tick" style="font-family:&quot;Open Sans&quot;,verdana,arial,sans-serif;font-size:12px;fill:#000;fill-opacity:1;white-space:pre;opacity:1" text-anchor="middle" transform="translate(504.74)">4</text><text y="462.4" class="x3tick" style="font-family:&quot;Open Sans&quot;,verdana,arial,sans-serif;font-size:12px;fill:#000;fill-opacity:1;white-space:pre;opacity:1" text-anchor="middle" transform="translate(522.32)">5</text><text y="462.4" class="x3tick" style="font-family:&quot;Open Sans&quot;,verdana,arial,sans-serif;font-size:12px;fill:#000;fill-opacity:1;white-space:pre;opacity:1" text-anchor="middle" transform="translate(539.9)">6</text><text y="462.4" class="x3tick" style="font-family:&quot;Open Sans&quot;,verdana,arial,sans-serif;font-size:12px;fill:#000;fill-opacity:1;white-space:pre;opacity:1" text-anchor="middle" transform="translate(557.48)">7</text><text y="462.4" class="x3tick" style="font-family:&quot;Open Sans&quot;,verdana,arial,sans-serif;font-size:12px;fill:#000;fill-opacity:1;white-space:pre;opacity:1" text-anchor="middle" transform="translate(575.05)">8</text><text y="462.4" class="x3tick" style="font-family:&quot;Open Sans&quot;,verdana,arial,sans-serif;font-size:12px;fill:#000;fill-opacity:1;white-space:pre;opacity:1" text-anchor="middle" transform="translate(592.63)">9</text><text y="462.4" class="x3tick" style="font-family:&quot;Open Sans&quot;,verdana,arial,sans-serif;font-size:12px;fill:#000;fill-opacity:1;white-space:pre;opacity:1" text-anchor="middle" transform="translate(610.21)">10</text></g><g class="yaxislayer-above"><path d="M442.22 0h-5" class="y3tick ticks crisp" style="stroke:#444;stroke-opacity:1;stroke-width:1px" transform="translate(0 442)"/><path d="M442.22 0h-5" class="y3tick ticks crisp" style="stroke:#444;stroke-opacity:1;stroke-width:1px" transform="translate(0 379.99)"/><path d="M442.22 0h-5" class="y3tick ticks crisp" style="stroke:#444;stroke-opacity:1;stroke-width:1px" transform="translate(0 317.97)"/><path d="M442.22 0h-5" class="y3tick ticks crisp" style="stroke:#444;stroke-opacity:1;stroke-width:1px" transform="translate(0 255.96)"/><path d="M442.22 0h-5" class="y3tick ticks crisp" style="stroke:#444;stroke-opacity:1;stroke-width:1px" transform="translate(0 193.95)"/><path d="M442.22 0h-5" class="y3tick ticks crisp" style="stroke:#444;stroke-opacity:1;stroke-width:1px" transform="translate(0 131.94)"/><path d="M442.22 0h-5" class="y3tick ticks crisp" style="stroke:#444;stroke-opacity:1;stroke-width:1px" transform="translate(0 69.92)"/></g></g></g><defs><clipPath id="d"><path d="M0 0h60v181H0z"/></clipPath></defs><g class="infolayer"><g class="legend" pointer-events="all"><path d="M0 0h60v181H0z" class="bg" shape-rendering="crispEdges" style="stroke:#444;stroke-opacity:1;fill:#fff;fill-opacity:1;stroke-width:0" transform="translate(630.22 60)"/><g class="scrollbox" clip-path="url(#d)" transform="translate(630.22 60)"><g class="groups"><g class="traces" style="opacity:1"><text x="40" y="4.68" class="legendtext" style="font-family:&quot;Open Sans&quot;,verdana,arial,sans-serif;font-size:12px;fill:#000;fill-opacity:1;white-space:pre" transform="translate(0 14.5)">O</text><g class="layers" style="opacity:1"><g class="legendsymbols"><g class="legendpoints"><path d="M6 6H-6V-6H6Z" class="legendundefined" style="stroke-width:.5px;fill:red;fill-opacity:1;stroke:#fff;stroke-opacity:1" transform="translate(20 14.5)"/></g></g></g><path fill="none" d="M0-9.5h54.719v19H0z" class="legendtoggle" style="fill:#000;fill-opacity:0" transform="translate(0 14.5)"/></g><g class="traces" style="opacity:1"><text x="40" y="4.68" class="legendtext" style="font-family:&quot;Open Sans&quot;,verdana,arial,sans-serif;font-size:12px;fill:#000;fill-opacity:1;white-space:pre" transform="translate(0 33.5)">Bi</text><g class="layers" style="opacity:1"><g class="legendsymbols"><g class="legendpoints"><path d="M6 6H-6V-6H6Z" class="legendundefined" style="stroke-width:.5px;fill:#9e4fb5;fill-opacity:1;stroke:#fff;stroke-opacity:1" transform="translate(20 33.5)"/></g></g></g><path fill="none" d="M0-9.5h54.719v19H0z" class="legendtoggle" style="fill:#000;fill-opacity:0" transform="translate(0 33.5)"/></g><g class="traces" style="opacity:1"><text x="40" y="4.68" class="legendtext" style="font-family:&quot;Open Sans&quot;,verdana,arial,sans-serif;font-size:12px;fill:#000;fill-opacity:1;white-space:pre" transform="translate(0 52.5)">Zr</text><g class="layers" style="opacity:1"><g class="legendsymbols"><g class="legendpoints"><path d="M6 6H-6V-6H6Z" class="legendundefined" style="stroke-width:.5px;fill:#94e0e0;fill-opacity:1;stroke:#fff;stroke-opacity:1" transform="translate(20 52.5)"/></g></g></g><path fill="none" d="M0-9.5h54.719v19H0z" class="legendtoggle" style="fill:#000;fill-opacity:0" transform="translate(0 52.5)"/></g><g class="traces" style="opacity:1"><text x="40" y="4.68" class="legendtext" style="font-family:&quot;Open Sans&quot;,verdana,arial,sans-serif;font-size:12px;fill:#000;fill-opacity:1;white-space:pre" transform="translate(0 71.5)">O</text><g class="layers" style="opacity:1"><g class="legendsymbols"><g class="legendpoints"><path d="M6 6H-6V-6H6Z" class="legendundefined" style="stroke-width:.5px;fill:red;fill-opacity:1;stroke:#fff;stroke-opacity:1" transform="translate(20 71.5)"/></g></g></g><path fill="none" d="M0-9.5h54.719v19H0z" class="legendtoggle" style="fill:#000;fill-opacity:0" transform="translate(0 71.5)"/></g><g class="traces" style="opacity:1"><text x="40" y="4.68" class="legendtext" style="font-family:&quot;Open Sans&quot;,verdana,arial,sans-serif;font-size:12px;fill:#000;fill-opacity:1;white-space:pre" transform="translate(0 90.5)">P</text><g class="layers" style="opacity:1"><g class="legendsymbols"><g class="legendpoints"><path d="M6 6H-6V-6H6Z" class="legendundefined" style="stroke-width:.5px;fill:#ff0100;fill-opacity:1;stroke:#fff;stroke-opacity:1" transform="translate(20 90.5)"/></g></g></g><path fill="none" d="M0-9.5h54.719v19H0z" class="legendtoggle" style="fill:#000;fill-opacity:0" transform="translate(0 90.5)"/></g><g class="traces" style="opacity:1"><text x="40" y="4.68" class="legendtext" style="font-family:&quot;Open Sans&quot;,verdana,arial,sans-serif;font-size:12px;fill:#000;fill-opacity:1;white-space:pre" transform="translate(0 109.5)">Fe</text><g class="layers" style="opacity:1"><g class="legendsymbols"><g class="legendpoints"><path d="M6 6H-6V-6H6Z" class="legendundefined" style="stroke-width:.5px;fill:#e06633;fill-opacity:1;stroke:#fff;stroke-opacity:1" transform="translate(20 109.5)"/></g></g></g><path fill="none" d="M0-9.5h54.719v19H0z" class="legendtoggle" style="fill:#000;fill-opacity:0" transform="translate(0 109.5)"/></g><g class="traces" style="opacity:1"><text x="40" y="4.68" class="legendtext" style="font-family:&quot;Open Sans&quot;,verdana,arial,sans-serif;font-size:12px;fill:#000;fill-opacity:1;white-space:pre" transform="translate(0 128.5)">Li</text><g class="layers" style="opacity:1"><g class="legendsymbols"><g class="legendpoints"><path d="M6 6H-6V-6H6Z" class="legendundefined" style="stroke-width:.5px;fill:#0101ff;fill-opacity:1;stroke:#fff;stroke-opacity:1" transform="translate(20 128.5)"/></g></g></g><path fill="none" d="M0-9.5h54.719v19H0z" class="legendtoggle" style="fill:#000;fill-opacity:0" transform="translate(0 128.5)"/></g><g class="traces" style="opacity:1"><text x="40" y="4.68" class="legendtext" style="font-family:&quot;Open Sans&quot;,verdana,arial,sans-serif;font-size:12px;fill:#000;fill-opacity:1;white-space:pre" transform="translate(0 147.5)">Pd</text><g class="layers" style="opacity:1"><g class="legendsymbols"><g class="legendpoints"><path d="M6 6H-6V-6H6Z" class="legendundefined" style="stroke-width:.5px;fill:#006985;fill-opacity:1;stroke:#fff;stroke-opacity:1" transform="translate(20 147.5)"/></g></g></g><path fill="none" d="M0-9.5h54.719v19H0z" class="legendtoggle" style="fill:#000;fill-opacity:0" transform="translate(0 147.5)"/></g><g class="traces" style="opacity:1"><text x="40" y="4.68" class="legendtext" style="font-family:&quot;Open Sans&quot;,verdana,arial,sans-serif;font-size:12px;fill:#000;fill-opacity:1;white-space:pre" transform="translate(0 166.5)">Zr</text><g class="layers" style="opacity:1"><g class="legendsymbols"><g class="legendpoints"><path d="M6 6H-6V-6H6Z" class="legendundefined" style="stroke-width:.5px;fill:#94e0e0;fill-opacity:1;stroke:#fff;stroke-opacity:1" transform="translate(20 166.5)"/></g></g></g><path fill="none" d="M0-9.5h54.719v19H0z" class="legendtoggle" style="fill:#000;fill-opacity:0" transform="translate(0 166.5)"/></g></g></g></g><g class="g-gtitle"><text x="350" y="10" class="gtitle" dy=".7em" style="opacity:1;font-family:&quot;Open Sans&quot;,verdana,arial,sans-serif;font-size:17px;fill:#000;fill-opacity:1;white-space:pre" text-anchor="middle">Coordination Histogram by Structure and Element</text></g><g class="g-xtitle"><text x="145.89" y="489.206" class="xtitle" style="opacity:1;font-family:&quot;Open Sans&quot;,verdana,arial,sans-serif;font-size:14px;fill:#000;fill-opacity:1;white-space:pre" text-anchor="middle">Coordination Number</text></g><g class="g-x2title"><text x="338.5" y="489.206" class="x2title" style="opacity:1;font-family:&quot;Open Sans&quot;,verdana,arial,sans-serif;font-size:14px;fill:#000;fill-opacity:1;white-space:pre" text-anchor="middle">Coordination Number</text></g><g class="g-x3title"><text x="531.11" y="489.206" class="x3title" style="opacity:1;font-family:&quot;Open Sans&quot;,verdana,arial,sans-serif;font-size:14px;fill:#000;fill-opacity:1;white-space:pre" text-anchor="middle">Coordination Number</text></g><g class="g-ytitle"><text x="14.928" y="251" class="ytitle" style="opacity:1;font-family:&quot;Open Sans&quot;,verdana,arial,sans-serif;font-size:14px;fill:#000;fill-opacity:1;white-space:pre" text-anchor="middle" transform="rotate(-90 14.928 251)">Count</text></g><g class="g-y3title"><text x="417.82" y="251" class="y3title" style="opacity:1;font-family:&quot;Open Sans&quot;,verdana,arial,sans-serif;font-size:14px;fill:#000;fill-opacity:1;white-space:pre" text-anchor="middle" transform="rotate(-90 417.82 251)">Count</text></g><g class="annotation" data-index="0" style="opacity:1"><g class="annotation-text-g"><g class="cursor-pointer"><path fill="none" d="M.5.5h137v23H.5z" class="bg" style="stroke-width:1px;stroke:#000;stroke-opacity:0;fill:#000;fill-opacity:0" transform="translate(77 36)"/><text x="69.203" y="18" class="annotation-text" style="font-family:&quot;Open Sans&quot;,verdana,arial,sans-serif;font-size:16px;fill:#000;fill-opacity:1;white-space:pre" text-anchor="middle" transform="translate(77 36)">Zr18 Pd24 (148)</text></g></g></g><g class="annotation" data-index="1" style="opacity:1"><g class="annotation-text-g"><g class="cursor-pointer"><path fill="none" d="M.5.5h166v23H.5z" class="bg" style="stroke-width:1px;stroke:#000;stroke-opacity:0;fill:#000;fill-opacity:0" transform="translate(255 36)"/><text x="83.25" y="18" class="annotation-text" style="font-family:&quot;Open Sans&quot;,verdana,arial,sans-serif;font-size:16px;fill:#000;fill-opacity:1;white-space:pre" text-anchor="middle" transform="translate(255 36)">Li4 Fe4 P4 O16 (62)</text></g></g></g><g class="annotation" data-index="2" style="opacity:1"><g class="annotation-text-g"><g class="cursor-pointer"><path fill="none" d="M.5.5h141v23H.5z" class="bg" style="stroke-width:1px;stroke:#000;stroke-opacity:0;fill:#000;fill-opacity:0" transform="translate(460 36)"/><text x="71.094" y="18" class="annotation-text" style="font-family:&quot;Open Sans&quot;,verdana,arial,sans-serif;font-size:16px;fill:#000;fill-opacity:1;white-space:pre" text-anchor="middle" transform="translate(460 36)">Zr8 Bi12 O28 (1)</text></g></g></g></g></svg>
