<svg xmlns="http://www.w3.org/2000/svg" width="700" height="500" class="main-svg"><path d="M0 0h700v500H0z" style="fill:#fff;fill-opacity:1"/><defs><clipPath id="a" class="plotclip"><path d="M0 0h181.422v392H0z"/></clipPath><clipPath id="b" class="plotclip"><path d="M0 0h181.422v392H0z"/></clipPath><clipPath id="c" class="plotclip"><path d="M0 0h181.422v392H0z"/></clipPath></defs><g class="cartesianlayer"><g class="subplot xy"><g class="gridlayer"><g class="x"><path d="M0 50v392" class="xgrid crisp" style="stroke:#d3d3d3;stroke-opacity:1;stroke-width:1px" transform="translate(94.28)"/><path d="M0 50v392" class="xgrid crisp" style="stroke:#d3d3d3;stroke-opacity:1;stroke-width:1px" transform="translate(166.85)"/></g><g class="y"><path d="M58 0h181.422" class="ygrid crisp" style="stroke:#d3d3d3;stroke-opacity:1;stroke-width:1px" transform="translate(0 360.51)"/><path d="M58 0h181.422" class="ygrid crisp" style="stroke:#d3d3d3;stroke-opacity:1;stroke-width:1px" transform="translate(0 298.61)"/><path d="M58 0h181.422" class="ygrid crisp" style="stroke:#d3d3d3;stroke-opacity:1;stroke-width:1px" transform="translate(0 236.72)"/><path d="M58 0h181.422" class="ygrid crisp" style="stroke:#d3d3d3;stroke-opacity:1;stroke-width:1px" transform="translate(0 174.82)"/><path d="M58 0h181.422" class="ygrid crisp" style="stroke:#d3d3d3;stroke-opacity:1;stroke-width:1px" transform="translate(0 112.93)"/><path d="M58 0h181.422" class="ygrid crisp" style="stroke:#d3d3d3;stroke-opacity:1;stroke-width:1px" transform="translate(0 51.03)"/></g></g><g class="zerolinelayer"><path d="M58 0h181.422" class="yzl zl crisp" style="stroke:#ebf0f8;stroke-opacity:1;stroke-width:2px" transform="translate(0 422.4)"/></g><g class="overplot"><g class="xy" clip-path="url(#a)" transform="translate(58 50)"><g class="scatterlayer mlayer"><g class="trace scatter tracedaecca" style="stroke-miterlimit:2;opacity:1"><g class="lines"><path d="M0 372.4h60.47l1.84-4.64 1.83-4.64 1.83-7.74 1.83-9.29 1.84-13.92 1.83-13.93h1.83l1.83-4.64h7.33l1.84-9.28h5.49l1.84-9.29h10.99l1.84-9.28h14.66l1.83-9.29h3.66l1.84-18.57 1.83-9.28h5.5l1.83-4.64h1.83l1.83-9.29h1.84l1.83-4.64 1.83-9.28 1.83-13.93h1.84l1.83-9.28h1.83l1.83-9.29 1.84-9.28h1.83l1.83-37.14h1.83l3.67-23.21 1.83-26.3 1.83-18.57h1.84l1.83-9.29 1.83-4.64 1.83-13.92 1.84-4.65 1.83-9.28 1.83-4.64" class="js-line" style="vector-effect:none;fill:none;stroke:#006985;stroke-opacity:1;stroke-width:2px;opacity:1"/></g></g><g class="trace scatter tracef5a6ee" style="stroke-miterlimit:2;opacity:1"><g class="lines"><path d="M0 372.4h60.47l1.84-6.19 7.33-24.76 1.83-18.57h1.83l1.83-6.19h5.5l1.83-6.18h7.33l1.84-12.38h1.83l1.83-12.38h11l1.83-12.38h11l1.83-12.38h12.83l1.83-6.19h1.83l1.83-18.57h1.84l1.83-6.19 1.83-12.38 1.83-18.57h5.5l1.83-12.37 1.84-18.57h5.49l1.84-6.19 1.83-12.38 1.83-37.14 1.83-24.76h1.84l1.83-12.37 1.83-6.19 3.67-30.95 1.83-12.38 1.83-6.19" class="js-line" style="vector-effect:none;fill:none;stroke:#94e0e0;stroke-opacity:1;stroke-width:2px;opacity:1"/></g></g></g></g></g><path d="M57 442.5h183.422M57 49.5h183.422" class="xlines-above crisp" style="fill:none;stroke-width:1px;stroke:#000;stroke-opacity:1"/><path d="M57.5 50v392M239.922 50v392" class="ylines-above crisp" style="fill:none;stroke-width:1px;stroke:#000;stroke-opacity:1"/><g class="xaxislayer-above"><path d="M0 443v5" class="xtick ticks crisp" style="stroke:#444;stroke-opacity:1;stroke-width:1px" transform="translate(94.28)"/><path d="M0 443v5" class="xtick ticks crisp" style="stroke:#444;stroke-opacity:1;stroke-width:1px" transform="translate(166.85)"/><path d="M0 443v5" class="xtick ticks crisp" style="stroke:#444;stroke-opacity:1;stroke-width:1px" transform="translate(239.42)"/><text y="462.4" class="xtick" style="font-family:&quot;Open Sans&quot;,verdana,arial,sans-serif;font-size:12px;fill:#000;fill-opacity:1;white-space:pre;opacity:1" text-anchor="middle" transform="translate(94.28)">2</text><text y="462.4" class="xtick" style="font-family:&quot;Open Sans&quot;,verdana,arial,sans-serif;font-size:12px;fill:#000;fill-opacity:1;white-space:pre;opacity:1" text-anchor="middle" transform="translate(166.85)">4</text><text y="462.4" class="xtick" style="font-family:&quot;Open Sans&quot;,verdana,arial,sans-serif;font-size:12px;fill:#000;fill-opacity:1;white-space:pre;opacity:1" text-anchor="middle" transform="translate(239.42)">6</text></g><g class="yaxislayer-above"><path d="M57 0h-5" class="ytick ticks crisp" style="stroke:#444;stroke-opacity:1;stroke-width:1px" transform="translate(0 422.4)"/><path d="M57 0h-5" class="ytick ticks crisp" style="stroke:#444;stroke-opacity:1;stroke-width:1px" transform="translate(0 360.51)"/><path d="M57 0h-5" class="ytick ticks crisp" style="stroke:#444;stroke-opacity:1;stroke-width:1px" transform="translate(0 298.61)"/><path d="M57 0h-5" class="ytick ticks crisp" style="stroke:#444;stroke-opacity:1;stroke-width:1px" transform="translate(0 236.72)"/><path d="M57 0h-5" class="ytick ticks crisp" style="stroke:#444;stroke-opacity:1;stroke-width:1px" transform="translate(0 174.82)"/><path d="M57 0h-5" class="ytick ticks crisp" style="stroke:#444;stroke-opacity:1;stroke-width:1px" transform="translate(0 112.93)"/><path d="M57 0h-5" class="ytick ticks crisp" style="stroke:#444;stroke-opacity:1;stroke-width:1px" transform="translate(0 51.03)"/><text x="49.6" y="4.2" class="ytick" style="font-family:&quot;Open Sans&quot;,verdana,arial,sans-serif;font-size:12px;fill:#000;fill-opacity:1;white-space:pre;opacity:1" text-anchor="end" transform="translate(0 422.4)">0</text><text x="49.6" y="4.2" class="ytick" style="font-family:&quot;Open Sans&quot;,verdana,arial,sans-serif;font-size:12px;fill:#000;fill-opacity:1;white-space:pre;opacity:1" text-anchor="end" transform="translate(0 360.51)">10</text><text x="49.6" y="4.2" class="ytick" style="font-family:&quot;Open Sans&quot;,verdana,arial,sans-serif;font-size:12px;fill:#000;fill-opacity:1;white-space:pre;opacity:1" text-anchor="end" transform="translate(0 298.61)">20</text><text x="49.6" y="4.2" class="ytick" style="font-family:&quot;Open Sans&quot;,verdana,arial,sans-serif;font-size:12px;fill:#000;fill-opacity:1;white-space:pre;opacity:1" text-anchor="end" transform="translate(0 236.72)">30</text><text x="49.6" y="4.2" class="ytick" style="font-family:&quot;Open Sans&quot;,verdana,arial,sans-serif;font-size:12px;fill:#000;fill-opacity:1;white-space:pre;opacity:1" text-anchor="end" transform="translate(0 174.82)">40</text><text x="49.6" y="4.2" class="ytick" style="font-family:&quot;Open Sans&quot;,verdana,arial,sans-serif;font-size:12px;fill:#000;fill-opacity:1;white-space:pre;opacity:1" text-anchor="end" transform="translate(0 112.93)">50</text><text x="49.6" y="4.2" class="ytick" style="font-family:&quot;Open Sans&quot;,verdana,arial,sans-serif;font-size:12px;fill:#000;fill-opacity:1;white-space:pre;opacity:1" text-anchor="end" transform="translate(0 51.03)">60</text></g></g><g class="subplot x2y2"><g class="gridlayer"><g class="x2"><path d="M0 50v392" class="x2grid crisp" style="stroke:#d3d3d3;stroke-opacity:1;stroke-width:1px" transform="translate(317.569)"/><path d="M0 50v392" class="x2grid crisp" style="stroke:#d3d3d3;stroke-opacity:1;stroke-width:1px" transform="translate(390.139)"/></g><g class="y2"><path d="M281.289 0H462.71" class="y2grid crisp" style="stroke:#d3d3d3;stroke-opacity:1;stroke-width:1px" transform="translate(0 346.53)"/><path d="M281.289 0H462.71" class="y2grid crisp" style="stroke:#d3d3d3;stroke-opacity:1;stroke-width:1px" transform="translate(0 270.66)"/><path d="M281.289 0H462.71" class="y2grid crisp" style="stroke:#d3d3d3;stroke-opacity:1;stroke-width:1px" transform="translate(0 194.79)"/><path d="M281.289 0H462.71" class="y2grid crisp" style="stroke:#d3d3d3;stroke-opacity:1;stroke-width:1px" transform="translate(0 118.92)"/></g></g><g class="zerolinelayer"><path d="M281.289 0H462.71" class="y2zl zl crisp" style="stroke:#ebf0f8;stroke-opacity:1;stroke-width:2px" transform="translate(0 422.4)"/></g><g class="overplot"><g class="x2y2" clip-path="url(#b)" transform="translate(281.289 50)"><g class="scatterlayer mlayer"><g class="trace scatter trace6992ed" style="stroke-miterlimit:2;opacity:1"><g class="lines"><path d="M0 372.4h36.65l1.83-7.59 1.84-3.79h1.83l1.83-3.79 1.83-7.59h20.16l1.83-3.79h11l1.83-3.8 1.83-18.97h1.84l1.83-3.79h1.83l3.67-15.17h1.83l1.83-7.59 1.84-11.38h5.49l1.84-15.18h1.83l1.83-3.79h1.83l1.84-7.59 1.83-11.38h1.83l5.5-22.76h9.16l1.83-3.79 1.84-15.18h5.49l1.84-3.79h5.49l1.84-15.17 1.83-7.59 1.83-15.18 1.83-3.79h1.84l5.49-22.76 1.84-15.17 3.66-30.35 1.83-7.59 5.5-22.76 1.83-15.18 1.84-15.17h1.83l1.83-7.59" class="js-line" style="vector-effect:none;fill:none;stroke:#e06633;stroke-opacity:1;stroke-width:2px;opacity:1"/></g></g><g class="trace scatter tracedd6bec" style="stroke-miterlimit:2;opacity:1"><g class="lines"><path d="M0 372.4h38.48l1.84-7.59 3.66-15.17h14.66l1.83-7.59h11l1.83-7.59h7.33l1.83-15.17h5.5l1.83-15.17h1.84l1.83-7.59h1.83l1.84-15.18h1.83l1.83-7.58h3.67l1.83-15.18h16.49l1.83-7.58 1.84-7.59h1.83l5.5-22.76 1.83-15.18h1.83l1.83-7.58h3.67l1.83-15.18 1.83-15.17h9.17l1.83-15.18h3.66l1.84-7.58 1.83-15.18 1.83-22.76 1.83-22.76h1.84l1.83-15.17 1.83-7.59h1.83l1.84-7.59h1.83l1.83-15.17" class="js-line" style="vector-effect:none;fill:none;stroke:#0101ff;stroke-opacity:1;stroke-width:2px;opacity:1"/></g></g><g class="trace scatter traceb2b867" style="stroke-miterlimit:2;opacity:1"><g class="lines"><path d="M0 372.4h18.33l1.83-3.79h16.49l1.83-1.9 5.5-7.59 1.83-1.89h5.5l1.83-1.9 1.84-3.79 1.83-1.9 1.83-3.79h9.16l1.84-5.7 1.83-7.58h1.83l1.83-7.59h1.84l1.83-.95 1.83-3.79 1.83-3.79 1.84-1.9 1.83-.95h1.83l1.83-7.59 1.84-3.79 1.83-3.79 1.83-1.9 1.84-4.74 1.83-1.9 1.83-1.9h1.83l1.84-.94 1.83-3.8 1.83-2.84h1.83l1.84-1.9 1.83-4.74 3.66-13.28 1.84-3.79 1.83-6.64 1.83-1.9h1.83l1.84-7.59h1.83l1.83-3.79 1.83-2.84 1.84-11.39 1.83-3.79h1.83l1.83-5.69 1.84-14.22h1.83l1.83-13.28 1.83-3.8 1.84-7.58 3.66-22.76 1.83-4.75 1.84-20.86h1.83l5.5-25.61 1.83-5.69 1.83-1.89 1.83-5.69 1.84-15.18 1.83-7.59 1.83-5.69 1.83-9.48 1.84-5.69h1.83l1.83-17.07" class="js-line" style="vector-effect:none;fill:none;stroke:red;stroke-opacity:1;stroke-width:2px;opacity:1"/></g></g><g class="trace scatter traceb32e46" style="stroke-miterlimit:2;opacity:1"><g class="lines"><path d="M0 372.4h18.33l1.83-15.17h38.48l1.83-7.59h5.5l1.83-3.79h9.17l1.83-3.8 1.83-3.79 1.83-18.97 1.84-7.59h3.66l1.83-7.58 1.84-7.59h3.66l1.84-15.18h5.49l1.84-3.79h10.99l1.83-7.59h1.84l1.83-11.38h1.83l1.83-7.58 1.84-15.18h1.83l1.83-7.58h1.83l1.84-15.18h5.49l1.84-7.59h1.83l1.83-22.76h5.5l1.83-22.76 1.83-7.59 1.84-15.17 1.83-7.59 1.83-15.17 1.83-3.79 1.84-15.18h3.66l1.83-7.59 1.84-7.58h1.83l3.66-15.18 1.84-15.17h1.83l1.83-30.35" class="js-line" style="vector-effect:none;fill:none;stroke:#ff0100;stroke-opacity:1;stroke-width:2px;opacity:1"/></g></g></g></g></g><path d="M280.289 442.5H463.71m-183.42-393h183.42" class="xlines-above crisp" style="fill:none;stroke-width:1px;stroke:#000;stroke-opacity:1"/><path d="M280.789 50v392M463.21 50v392" class="ylines-above crisp" style="fill:none;stroke-width:1px;stroke:#000;stroke-opacity:1"/><g class="xaxislayer-above"><path d="M0 443v5" class="x2tick ticks crisp" style="stroke:#444;stroke-opacity:1;stroke-width:1px" transform="translate(317.569)"/><path d="M0 443v5" class="x2tick ticks crisp" style="stroke:#444;stroke-opacity:1;stroke-width:1px" transform="translate(390.139)"/><path d="M0 443v5" class="x2tick ticks crisp" style="stroke:#444;stroke-opacity:1;stroke-width:1px" transform="translate(462.709)"/><text y="462.4" class="x2tick" style="font-family:&quot;Open Sans&quot;,verdana,arial,sans-serif;font-size:12px;fill:#000;fill-opacity:1;white-space:pre;opacity:1" text-anchor="middle" transform="translate(317.569)">2</text><text y="462.4" class="x2tick" style="font-family:&quot;Open Sans&quot;,verdana,arial,sans-serif;font-size:12px;fill:#000;fill-opacity:1;white-space:pre;opacity:1" text-anchor="middle" transform="translate(390.139)">4</text><text y="462.4" class="x2tick" style="font-family:&quot;Open Sans&quot;,verdana,arial,sans-serif;font-size:12px;fill:#000;fill-opacity:1;white-space:pre;opacity:1" text-anchor="middle" transform="translate(462.709)">6</text></g><g class="yaxislayer-above"><path d="M280.289 0h-5" class="y2tick ticks crisp" style="stroke:#444;stroke-opacity:1;stroke-width:1px" transform="translate(0 422.4)"/><path d="M280.289 0h-5" class="y2tick ticks crisp" style="stroke:#444;stroke-opacity:1;stroke-width:1px" transform="translate(0 346.53)"/><path d="M280.289 0h-5" class="y2tick ticks crisp" style="stroke:#444;stroke-opacity:1;stroke-width:1px" transform="translate(0 270.66)"/><path d="M280.289 0h-5" class="y2tick ticks crisp" style="stroke:#444;stroke-opacity:1;stroke-width:1px" transform="translate(0 194.79)"/><path d="M280.289 0h-5" class="y2tick ticks crisp" style="stroke:#444;stroke-opacity:1;stroke-width:1px" transform="translate(0 118.92)"/><text x="272.889" y="4.2" class="y2tick" style="font-family:&quot;Open Sans&quot;,verdana,arial,sans-serif;font-size:12px;fill:#000;fill-opacity:1;white-space:pre;opacity:1" text-anchor="end" transform="translate(0 422.4)">0</text><text x="272.889" y="4.2" class="y2tick" style="font-family:&quot;Open Sans&quot;,verdana,arial,sans-serif;font-size:12px;fill:#000;fill-opacity:1;white-space:pre;opacity:1" text-anchor="end" transform="translate(0 346.53)">20</text><text x="272.889" y="4.2" class="y2tick" style="font-family:&quot;Open Sans&quot;,verdana,arial,sans-serif;font-size:12px;fill:#000;fill-opacity:1;white-space:pre;opacity:1" text-anchor="end" transform="translate(0 270.66)">40</text><text x="272.889" y="4.2" class="y2tick" style="font-family:&quot;Open Sans&quot;,verdana,arial,sans-serif;font-size:12px;fill:#000;fill-opacity:1;white-space:pre;opacity:1" text-anchor="end" transform="translate(0 194.79)">60</text><text x="272.889" y="4.2" class="y2tick" style="font-family:&quot;Open Sans&quot;,verdana,arial,sans-serif;font-size:12px;fill:#000;fill-opacity:1;white-space:pre;opacity:1" text-anchor="end" transform="translate(0 118.92)">80</text></g></g><g class="subplot x3y3"><g class="gridlayer"><g class="x3"><path d="M0 50v392" class="x3grid crisp" style="stroke:#d3d3d3;stroke-opacity:1;stroke-width:1px" transform="translate(540.858)"/><path d="M0 50v392" class="x3grid crisp" style="stroke:#d3d3d3;stroke-opacity:1;stroke-width:1px" transform="translate(613.428)"/></g><g class="y3"><path d="M504.578 0H686" class="y3grid crisp" style="stroke:#d3d3d3;stroke-opacity:1;stroke-width:1px" transform="translate(0 380.4)"/><path d="M504.578 0H686" class="y3grid crisp" style="stroke:#d3d3d3;stroke-opacity:1;stroke-width:1px" transform="translate(0 338.4)"/><path d="M504.578 0H686" class="y3grid crisp" style="stroke:#d3d3d3;stroke-opacity:1;stroke-width:1px" transform="translate(0 296.4)"/><path d="M504.578 0H686" class="y3grid crisp" style="stroke:#d3d3d3;stroke-opacity:1;stroke-width:1px" transform="translate(0 254.4)"/><path d="M504.578 0H686" class="y3grid crisp" style="stroke:#d3d3d3;stroke-opacity:1;stroke-width:1px" transform="translate(0 212.4)"/><path d="M504.578 0H686" class="y3grid crisp" style="stroke:#d3d3d3;stroke-opacity:1;stroke-width:1px" transform="translate(0 170.4)"/><path d="M504.578 0H686" class="y3grid crisp" style="stroke:#d3d3d3;stroke-opacity:1;stroke-width:1px" transform="translate(0 128.4)"/><path d="M504.578 0H686" class="y3grid crisp" style="stroke:#d3d3d3;stroke-opacity:1;stroke-width:1px" transform="translate(0 86.4)"/></g></g><g class="zerolinelayer"><path d="M504.578 0H686" class="y3zl zl crisp" style="stroke:#ebf0f8;stroke-opacity:1;stroke-width:2px" transform="translate(0 422.4)"/></g><g class="overplot"><g class="x3y3" clip-path="url(#c)" transform="translate(504.578 50)"><g class="scatterlayer mlayer"><g class="trace scatter trace29efc3" style="stroke-miterlimit:2;opacity:1"><g class="lines"><path d="M0 372.4h47.65l1.83-28h10.99l1.84-8.4h38.48l1.83-50.4h21.99l1.84-84h3.66l1.83-11.2h25.66l1.83-25.2h14.66l1.83-84h3.67l1.83-33.6" class="js-line" style="vector-effect:none;fill:none;stroke:#9e4fb5;stroke-opacity:1;stroke-width:2px;opacity:1"/></g></g><g class="trace scatter traceeea0b5" style="stroke-miterlimit:2;opacity:1"><g class="lines"><path d="M0 372.4h47.65l1.83-16.8h10.99l1.84-25.2h38.48l1.83-50.4h21.99l1.84-50.4h3.66l1.83-33.6h25.66l1.83-25.2h14.66l1.83-50.4h3.67l1.83-100.8" class="js-line" style="vector-effect:none;fill:none;stroke:red;stroke-opacity:1;stroke-width:2px;opacity:1"/></g></g><g class="trace scatter trace424d20" style="stroke-miterlimit:2;opacity:1"><g class="lines"><path d="M0 372.4h47.65l1.83-33.6h51.31l1.83-50.4h21.99l1.84-100.8h31.15l1.83-25.2h14.66l1.83-100.8h5.5" class="js-line" style="vector-effect:none;fill:none;stroke:#94e0e0;stroke-opacity:1;stroke-width:2px;opacity:1"/></g></g></g></g></g><path d="M503.578 442.5H687m-183.422-393H687" class="xlines-above crisp" style="fill:none;stroke-width:1px;stroke:#000;stroke-opacity:1"/><path d="M504.078 50v392M686.5 50v392" class="ylines-above crisp" style="fill:none;stroke-width:1px;stroke:#000;stroke-opacity:1"/><g class="xaxislayer-above"><path d="M0 443v5" class="x3tick ticks crisp" style="stroke:#444;stroke-opacity:1;stroke-width:1px" transform="translate(540.858)"/><path d="M0 443v5" class="x3tick ticks crisp" style="stroke:#444;stroke-opacity:1;stroke-width:1px" transform="translate(613.428)"/><path d="M0 443v5" class="x3tick ticks crisp" style="stroke:#444;stroke-opacity:1;stroke-width:1px" transform="translate(685.998)"/><text y="462.4" class="x3tick" style="font-family:&quot;Open Sans&quot;,verdana,arial,sans-serif;font-size:12px;fill:#000;fill-opacity:1;white-space:pre;opacity:1" text-anchor="middle" transform="translate(540.858)">2</text><text y="462.4" class="x3tick" style="font-family:&quot;Open Sans&quot;,verdana,arial,sans-serif;font-size:12px;fill:#000;fill-opacity:1;white-space:pre;opacity:1" text-anchor="middle" transform="translate(613.428)">4</text><text y="462.4" class="x3tick" style="font-family:&quot;Open Sans&quot;,verdana,arial,sans-serif;font-size:12px;fill:#000;fill-opacity:1;white-space:pre;opacity:1" text-anchor="middle" transform="translate(685.998)">6</text></g><g class="yaxislayer-above"><path d="M503.578 0h-5" class="y3tick ticks crisp" style="stroke:#444;stroke-opacity:1;stroke-width:1px" transform="translate(0 422.4)"/><path d="M503.578 0h-5" class="y3tick ticks crisp" style="stroke:#444;stroke-opacity:1;stroke-width:1px" transform="translate(0 380.4)"/><path d="M503.578 0h-5" class="y3tick ticks crisp" style="stroke:#444;stroke-opacity:1;stroke-width:1px" transform="translate(0 338.4)"/><path d="M503.578 0h-5" class="y3tick ticks crisp" style="stroke:#444;stroke-opacity:1;stroke-width:1px" transform="translate(0 296.4)"/><path d="M503.578 0h-5" class="y3tick ticks crisp" style="stroke:#444;stroke-opacity:1;stroke-width:1px" transform="translate(0 254.4)"/><path d="M503.578 0h-5" class="y3tick ticks crisp" style="stroke:#444;stroke-opacity:1;stroke-width:1px" transform="translate(0 212.4)"/><path d="M503.578 0h-5" class="y3tick ticks crisp" style="stroke:#444;stroke-opacity:1;stroke-width:1px" transform="translate(0 170.4)"/><path d="M503.578 0h-5" class="y3tick ticks crisp" style="stroke:#444;stroke-opacity:1;stroke-width:1px" transform="translate(0 128.4)"/><path d="M503.578 0h-5" class="y3tick ticks crisp" style="stroke:#444;stroke-opacity:1;stroke-width:1px" transform="translate(0 86.4)"/><text x="496.178" y="4.2" class="y3tick" style="font-family:&quot;Open Sans&quot;,verdana,arial,sans-serif;font-size:12px;fill:#000;fill-opacity:1;white-space:pre;opacity:1" text-anchor="end" transform="translate(0 422.4)">0</text><text x="496.178" y="4.2" class="y3tick" style="font-family:&quot;Open Sans&quot;,verdana,arial,sans-serif;font-size:12px;fill:#000;fill-opacity:1;white-space:pre;opacity:1" text-anchor="end" transform="translate(0 380.4)">10</text><text x="496.178" y="4.2" class="y3tick" style="font-family:&quot;Open Sans&quot;,verdana,arial,sans-serif;font-size:12px;fill:#000;fill-opacity:1;white-space:pre;opacity:1" text-anchor="end" transform="translate(0 338.4)">20</text><text x="496.178" y="4.2" class="y3tick" style="font-family:&quot;Open Sans&quot;,verdana,arial,sans-serif;font-size:12px;fill:#000;fill-opacity:1;white-space:pre;opacity:1" text-anchor="end" transform="translate(0 296.4)">30</text><text x="496.178" y="4.2" class="y3tick" style="font-family:&quot;Open Sans&quot;,verdana,arial,sans-serif;font-size:12px;fill:#000;fill-opacity:1;white-space:pre;opacity:1" text-anchor="end" transform="translate(0 254.4)">40</text><text x="496.178" y="4.2" class="y3tick" style="font-family:&quot;Open Sans&quot;,verdana,arial,sans-serif;font-size:12px;fill:#000;fill-opacity:1;white-space:pre;opacity:1" text-anchor="end" transform="translate(0 212.4)">50</text><text x="496.178" y="4.2" class="y3tick" style="font-family:&quot;Open Sans&quot;,verdana,arial,sans-serif;font-size:12px;fill:#000;fill-opacity:1;white-space:pre;opacity:1" text-anchor="end" transform="translate(0 170.4)">60</text><text x="496.178" y="4.2" class="y3tick" style="font-family:&quot;Open Sans&quot;,verdana,arial,sans-serif;font-size:12px;fill:#000;fill-opacity:1;white-space:pre;opacity:1" text-anchor="end" transform="translate(0 128.4)">70</text><text x="496.178" y="4.2" class="y3tick" style="font-family:&quot;Open Sans&quot;,verdana,arial,sans-serif;font-size:12px;fill:#000;fill-opacity:1;white-space:pre;opacity:1" text-anchor="end" transform="translate(0 86.4)">80</text></g></g></g><defs><clipPath id="d"><path d="M0 0h148v261H0z"/></clipPath></defs><g class="infolayer"><g class="legend" pointer-events="all"><path fill="none" d="M0 0h148v261H0z" class="bg" shape-rendering="crispEdges" style="stroke:#444;stroke-opacity:1;fill:#000;fill-opacity:0;stroke-width:0" transform="translate(58 50)"/><g class="scrollbox" clip-path="url(#d)" transform="translate(58 50)"><g class="groups"><g class="traces" style="opacity:1"><text x="5" y="5.07" class="legendtext" style="font-family:&quot;Open Sans&quot;,verdana,arial,sans-serif;font-size:13px;fill:#000;fill-opacity:1;white-space:pre" transform="translate(0 14.95)">Zr18 Pd24 (148)</text><path fill="none" d="M0-9.95h142.031v19.9H0z" class="legendtoggle" style="fill:#000;fill-opacity:0" transform="translate(0 14.95)"/></g><g class="traces" style="opacity:1"><text x="40" y="4.68" class="legendtext" style="font-family:&quot;Open Sans&quot;,verdana,arial,sans-serif;font-size:12px;fill:#000;fill-opacity:1;white-space:pre" transform="translate(0 34.4)">Pd</text><g class="layers" style="opacity:1"><g class="legendlines"><path d="M5 0h30" class="js-line" style="fill:none;stroke:#006985;stroke-opacity:1;stroke-width:2px" transform="translate(0 34.4)"/></g></g><path fill="none" d="M0-9.5h142.031v19H0z" class="legendtoggle" style="fill:#000;fill-opacity:0" transform="translate(0 34.4)"/></g><g class="traces" style="opacity:1"><text x="40" y="4.68" class="legendtext" style="font-family:&quot;Open Sans&quot;,verdana,arial,sans-serif;font-size:12px;fill:#000;fill-opacity:1;white-space:pre" transform="translate(0 53.4)">Zr</text><g class="layers" style="opacity:1"><g class="legendlines"><path d="M5 0h30" class="js-line" style="fill:none;stroke:#94e0e0;stroke-opacity:1;stroke-width:2px" transform="translate(0 53.4)"/></g></g><path fill="none" d="M0-9.5h142.031v19H0z" class="legendtoggle" style="fill:#000;fill-opacity:0" transform="translate(0 53.4)"/></g></g><g class="groups"><g class="traces" style="opacity:1"><text x="5" y="5.07" class="legendtext" style="font-family:&quot;Open Sans&quot;,verdana,arial,sans-serif;font-size:13px;fill:#000;fill-opacity:1;white-space:pre" transform="translate(0 82.85)">Li4 Fe4 P4 O16 (62)</text><path fill="none" d="M0-9.95h142.031v19.9H0z" class="legendtoggle" style="fill:#000;fill-opacity:0" transform="translate(0 82.85)"/></g><g class="traces" style="opacity:1"><text x="40" y="4.68" class="legendtext" style="font-family:&quot;Open Sans&quot;,verdana,arial,sans-serif;font-size:12px;fill:#000;fill-opacity:1;white-space:pre" transform="translate(0 102.3)">Fe</text><g class="layers" style="opacity:1"><g class="legendlines"><path d="M5 0h30" class="js-line" style="fill:none;stroke:#e06633;stroke-opacity:1;stroke-width:2px" transform="translate(0 102.3)"/></g></g><path fill="none" d="M0-9.5h142.031v19H0z" class="legendtoggle" style="fill:#000;fill-opacity:0" transform="translate(0 102.3)"/></g><g class="traces" style="opacity:1"><text x="40" y="4.68" class="legendtext" style="font-family:&quot;Open Sans&quot;,verdana,arial,sans-serif;font-size:12px;fill:#000;fill-opacity:1;white-space:pre" transform="translate(0 121.3)">Li</text><g class="layers" style="opacity:1"><g class="legendlines"><path d="M5 0h30" class="js-line" style="fill:none;stroke:#0101ff;stroke-opacity:1;stroke-width:2px" transform="translate(0 121.3)"/></g></g><path fill="none" d="M0-9.5h142.031v19H0z" class="legendtoggle" style="fill:#000;fill-opacity:0" transform="translate(0 121.3)"/></g><g class="traces" style="opacity:1"><text x="40" y="4.68" class="legendtext" style="font-family:&quot;Open Sans&quot;,verdana,arial,sans-serif;font-size:12px;fill:#000;fill-opacity:1;white-space:pre" transform="translate(0 140.3)">O</text><g class="layers" style="opacity:1"><g class="legendlines"><path d="M5 0h30" class="js-line" style="fill:none;stroke:red;stroke-opacity:1;stroke-width:2px" transform="translate(0 140.3)"/></g></g><path fill="none" d="M0-9.5h142.031v19H0z" class="legendtoggle" style="fill:#000;fill-opacity:0" transform="translate(0 140.3)"/></g><g class="traces" style="opacity:1"><text x="40" y="4.68" class="legendtext" style="font-family:&quot;Open Sans&quot;,verdana,arial,sans-serif;font-size:12px;fill:#000;fill-opacity:1;white-space:pre" transform="translate(0 159.3)">P</text><g class="layers" style="opacity:1"><g class="legendlines"><path d="M5 0h30" class="js-line" style="fill:none;stroke:#ff0100;stroke-opacity:1;stroke-width:2px" transform="translate(0 159.3)"/></g></g><path fill="none" d="M0-9.5h142.031v19H0z" class="legendtoggle" style="fill:#000;fill-opacity:0" transform="translate(0 159.3)"/></g></g><g class="groups"><g class="traces" style="opacity:1"><text x="5" y="5.07" class="legendtext" style="font-family:&quot;Open Sans&quot;,verdana,arial,sans-serif;font-size:13px;fill:#000;fill-opacity:1;white-space:pre" transform="translate(0 188.75)">Zr8 Bi12 O28 (1)</text><path fill="none" d="M0-9.95h142.031v19.9H0z" class="legendtoggle" style="fill:#000;fill-opacity:0" transform="translate(0 188.75)"/></g><g class="traces" style="opacity:1"><text x="40" y="4.68" class="legendtext" style="font-family:&quot;Open Sans&quot;,verdana,arial,sans-serif;font-size:12px;fill:#000;fill-opacity:1;white-space:pre" transform="translate(0 208.2)">Bi</text><g class="layers" style="opacity:1"><g class="legendlines"><path d="M5 0h30" class="js-line" style="fill:none;stroke:#9e4fb5;stroke-opacity:1;stroke-width:2px" transform="translate(0 208.2)"/></g></g><path fill="none" d="M0-9.5h142.031v19H0z" class="legendtoggle" style="fill:#000;fill-opacity:0" transform="translate(0 208.2)"/></g><g class="traces" style="opacity:1"><text x="40" y="4.68" class="legendtext" style="font-family:&quot;Open Sans&quot;,verdana,arial,sans-serif;font-size:12px;fill:#000;fill-opacity:1;white-space:pre" transform="translate(0 227.2)">O</text><g class="layers" style="opacity:1"><g class="legendlines"><path d="M5 0h30" class="js-line" style="fill:none;stroke:red;stroke-opacity:1;stroke-width:2px" transform="translate(0 227.2)"/></g></g><path fill="none" d="M0-9.5h142.031v19H0z" class="legendtoggle" style="fill:#000;fill-opacity:0" transform="translate(0 227.2)"/></g><g class="traces" style="opacity:1"><text x="40" y="4.68" class="legendtext" style="font-family:&quot;Open Sans&quot;,verdana,arial,sans-serif;font-size:12px;fill:#000;fill-opacity:1;white-space:pre" transform="translate(0 246.2)">Zr</text><g class="layers" style="opacity:1"><g class="legendlines"><path d="M5 0h30" class="js-line" style="fill:none;stroke:#94e0e0;stroke-opacity:1;stroke-width:2px" transform="translate(0 246.2)"/></g></g><path fill="none" d="M0-9.5h142.031v19H0z" class="legendtoggle" style="fill:#000;fill-opacity:0" transform="translate(0 246.2)"/></g></g></g></g><g class="g-gtitle"><text x="350" y="10" class="gtitle" dy=".7em" style="opacity:1;font-family:&quot;Open Sans&quot;,verdana,arial,sans-serif;font-size:17px;fill:#000;fill-opacity:1;white-space:pre" text-anchor="middle">Coordination vs Cutoff: Multiple Structures</text></g><g class="g-xtitle"><text x="148.711" y="489.206" class="xtitle" style="opacity:1;font-family:&quot;Open Sans&quot;,verdana,arial,sans-serif;font-size:14px;fill:#000;fill-opacity:1;white-space:pre" text-anchor="middle">Cutoff Distance (Å)</text></g><g class="g-x2title"><text x="372" y="489.206" class="x2title" style="opacity:1;font-family:&quot;Open Sans&quot;,verdana,arial,sans-serif;font-size:14px;fill:#000;fill-opacity:1;white-space:pre" text-anchor="middle">Cutoff Distance (Å)</text></g><g class="g-x3title"><text x="595.289" y="489.206" class="x3title" style="opacity:1;font-family:&quot;Open Sans&quot;,verdana,arial,sans-serif;font-size:14px;fill:#000;fill-opacity:1;white-space:pre" text-anchor="middle">Cutoff Distance (Å)</text></g><g class="g-ytitle"><text x="14.928" y="246" class="ytitle" style="opacity:1;font-family:&quot;Open Sans&quot;,verdana,arial,sans-serif;font-size:14px;fill:#000;fill-opacity:1;white-space:pre" text-anchor="middle" transform="rotate(-90 14.928 246)">Coordination Number</text></g><g class="g-y2title"><text x="238.225" y="246" class="y2title" style="opacity:1;font-family:&quot;Open Sans&quot;,verdana,arial,sans-serif;font-size:14px;fill:#000;fill-opacity:1;white-space:pre" text-anchor="middle" transform="rotate(-90 238.225 246)">Coordination Number</text></g><g class="g-y3title"><text x="461.506" y="246" class="y3title" style="opacity:1;font-family:&quot;Open Sans&quot;,verdana,arial,sans-serif;font-size:14px;fill:#000;fill-opacity:1;white-space:pre" text-anchor="middle" transform="rotate(-90 461.506 246)">Coordination Number</text></g><g class="annotation" data-index="0" style="opacity:1"><g class="annotation-text-g"><g class="cursor-pointer"><path fill="none" d="M.5.5h137v23H.5z" class="bg" style="stroke-width:1px;stroke:#000;stroke-opacity:0;fill:#000;fill-opacity:0" transform="translate(80 26)"/><text x="69.203" y="18" class="annotation-text" style="font-family:&quot;Open Sans&quot;,verdana,arial,sans-serif;font-size:16px;fill:#000;fill-opacity:1;white-space:pre" text-anchor="middle" transform="translate(80 26)">Zr18 Pd24 (148)</text></g></g></g><g class="annotation" data-index="1" style="opacity:1"><g class="annotation-text-g"><g class="cursor-pointer"><path fill="none" d="M.5.5h166v23H.5z" class="bg" style="stroke-width:1px;stroke:#000;stroke-opacity:0;fill:#000;fill-opacity:0" transform="translate(289 26)"/><text x="83.25" y="18" class="annotation-text" style="font-family:&quot;Open Sans&quot;,verdana,arial,sans-serif;font-size:16px;fill:#000;fill-opacity:1;white-space:pre" text-anchor="middle" transform="translate(289 26)">Li4 Fe4 P4 O16 (62)</text></g></g></g><g class="annotation" data-index="2" style="opacity:1"><g class="annotation-text-g"><g class="cursor-pointer"><path fill="none" d="M.5.5h141v23H.5z" class="bg" style="stroke-width:1px;stroke:#000;stroke-opacity:0;fill:#000;fill-opacity:0" transform="translate(524 26)"/><text x="71.094" y="18" class="annotation-text" style="font-family:&quot;Open Sans&quot;,verdana,arial,sans-serif;font-size:16px;fill:#000;fill-opacity:1;white-space:pre" text-anchor="middle" transform="translate(524 26)">Zr8 Bi12 O28 (1)</text></g></g></g></g></svg>
