<svg xmlns="http://www.w3.org/2000/svg" width="700" height="500" class="main-svg"><path d="M0 0h700v500H0z" style="fill:#fff;fill-opacity:1"/><defs><clipPath id="a" class="plotclip"><path d="M0 0h561v392H0z"/></clipPath></defs><g class="cartesianlayer"><g class="subplot xy"><g class="gridlayer"><g class="x"><path d="M0 50v392" class="xgrid crisp" style="stroke:#d3d3d3;stroke-opacity:1;stroke-width:1px" transform="translate(128.13)"/><path d="M0 50v392" class="xgrid crisp" style="stroke:#d3d3d3;stroke-opacity:1;stroke-width:1px" transform="translate(198.25)"/><path d="M0 50v392" class="xgrid crisp" style="stroke:#d3d3d3;stroke-opacity:1;stroke-width:1px" transform="translate(268.38)"/><path d="M0 50v392" class="xgrid crisp" style="stroke:#d3d3d3;stroke-opacity:1;stroke-width:1px" transform="translate(338.5)"/><path d="M0 50v392" class="xgrid crisp" style="stroke:#d3d3d3;stroke-opacity:1;stroke-width:1px" transform="translate(408.63)"/><path d="M0 50v392" class="xgrid crisp" style="stroke:#d3d3d3;stroke-opacity:1;stroke-width:1px" transform="translate(478.75)"/><path d="M0 50v392" class="xgrid crisp" style="stroke:#d3d3d3;stroke-opacity:1;stroke-width:1px" transform="translate(548.88)"/></g><g class="y"><path d="M58 0h561" class="ygrid crisp" style="stroke:#d3d3d3;stroke-opacity:1;stroke-width:1px" transform="translate(0 354.55)"/><path d="M58 0h561" class="ygrid crisp" style="stroke:#d3d3d3;stroke-opacity:1;stroke-width:1px" transform="translate(0 286.71)"/><path d="M58 0h561" class="ygrid crisp" style="stroke:#d3d3d3;stroke-opacity:1;stroke-width:1px" transform="translate(0 218.86)"/><path d="M58 0h561" class="ygrid crisp" style="stroke:#d3d3d3;stroke-opacity:1;stroke-width:1px" transform="translate(0 151.02)"/><path d="M58 0h561" class="ygrid crisp" style="stroke:#d3d3d3;stroke-opacity:1;stroke-width:1px" transform="translate(0 83.17)"/></g></g><g class="zerolinelayer"><path d="M58 0h561" class="yzl zl crisp" style="stroke:#ebf0f8;stroke-opacity:1;stroke-width:2px" transform="translate(0 422.4)"/></g><g class="overplot"><g class="xy" clip-path="url(#a)" transform="translate(58 50)"><g class="scatterlayer mlayer"><g class="trace scatter trace91ec91" style="stroke-miterlimit:2;opacity:1"><g class="lines"><path d="M0 372.4h228.98l11.45-10.18 11.45-27.14 11.45-20.35 11.45-61.06h11.44l11.45-10.18h22.9l11.45-20.35h11.45l11.45-20.36h45.79l11.45-20.35h45.8l11.45-20.35h11.45l11.45-61.06h22.89l11.45-10.18 11.45-10.18 11.45-20.35L561 29.78" class="js-line" style="vector-effect:none;fill:none;stroke:#006985;stroke-opacity:1;stroke-width:2px;opacity:1"/></g></g><g class="trace scatter trace556d40" style="stroke-miterlimit:2;opacity:1"><g class="lines"><path d="M0 372.4h228.98l11.45-13.57 11.45-27.14 11.45-13.57 11.45-54.27h11.44l11.45-13.57h11.45l11.45-13.57h22.9l11.45-27.14h11.45l11.45-27.14h34.34l11.45-27.14h34.35l11.45-27.14h45.79l11.45-13.57 11.45-13.56 11.45-40.71L561 19.6" class="js-line" style="vector-effect:none;fill:none;stroke:#94e0e0;stroke-opacity:1;stroke-width:2px;opacity:1"/></g></g></g></g></g><path d="M57 442.5h563M57 49.5h563" class="xlines-above crisp" style="fill:none;stroke-width:1px;stroke:#000;stroke-opacity:1"/><path d="M57.5 50v392m562-392v392" class="ylines-above crisp" style="fill:none;stroke-width:1px;stroke:#000;stroke-opacity:1"/><g class="xaxislayer-above"><path d="M0 443v5" class="xtick ticks crisp" style="stroke:#444;stroke-opacity:1;stroke-width:1px" transform="translate(58)"/><path d="M0 443v5" class="xtick ticks crisp" style="stroke:#444;stroke-opacity:1;stroke-width:1px" transform="translate(128.13)"/><path d="M0 443v5" class="xtick ticks crisp" style="stroke:#444;stroke-opacity:1;stroke-width:1px" transform="translate(198.25)"/><path d="M0 443v5" class="xtick ticks crisp" style="stroke:#444;stroke-opacity:1;stroke-width:1px" transform="translate(268.38)"/><path d="M0 443v5" class="xtick ticks crisp" style="stroke:#444;stroke-opacity:1;stroke-width:1px" transform="translate(338.5)"/><path d="M0 443v5" class="xtick ticks crisp" style="stroke:#444;stroke-opacity:1;stroke-width:1px" transform="translate(408.63)"/><path d="M0 443v5" class="xtick ticks crisp" style="stroke:#444;stroke-opacity:1;stroke-width:1px" transform="translate(478.75)"/><path d="M0 443v5" class="xtick ticks crisp" style="stroke:#444;stroke-opacity:1;stroke-width:1px" transform="translate(548.88)"/><path d="M0 443v5" class="xtick ticks crisp" style="stroke:#444;stroke-opacity:1;stroke-width:1px" transform="translate(619)"/><text y="462.4" class="xtick" style="font-family:&quot;Open Sans&quot;,verdana,arial,sans-serif;font-size:12px;fill:#000;fill-opacity:1;white-space:pre;opacity:1" text-anchor="middle" transform="translate(58)">1</text><text y="462.4" class="xtick" style="font-family:&quot;Open Sans&quot;,verdana,arial,sans-serif;font-size:12px;fill:#000;fill-opacity:1;white-space:pre;opacity:1" text-anchor="middle" transform="translate(128.13)">1.5</text><text y="462.4" class="xtick" style="font-family:&quot;Open Sans&quot;,verdana,arial,sans-serif;font-size:12px;fill:#000;fill-opacity:1;white-space:pre;opacity:1" text-anchor="middle" transform="translate(198.25)">2</text><text y="462.4" class="xtick" style="font-family:&quot;Open Sans&quot;,verdana,arial,sans-serif;font-size:12px;fill:#000;fill-opacity:1;white-space:pre;opacity:1" text-anchor="middle" transform="translate(268.38)">2.5</text><text y="462.4" class="xtick" style="font-family:&quot;Open Sans&quot;,verdana,arial,sans-serif;font-size:12px;fill:#000;fill-opacity:1;white-space:pre;opacity:1" text-anchor="middle" transform="translate(338.5)">3</text><text y="462.4" class="xtick" style="font-family:&quot;Open Sans&quot;,verdana,arial,sans-serif;font-size:12px;fill:#000;fill-opacity:1;white-space:pre;opacity:1" text-anchor="middle" transform="translate(408.63)">3.5</text><text y="462.4" class="xtick" style="font-family:&quot;Open Sans&quot;,verdana,arial,sans-serif;font-size:12px;fill:#000;fill-opacity:1;white-space:pre;opacity:1" text-anchor="middle" transform="translate(478.75)">4</text><text y="462.4" class="xtick" style="font-family:&quot;Open Sans&quot;,verdana,arial,sans-serif;font-size:12px;fill:#000;fill-opacity:1;white-space:pre;opacity:1" text-anchor="middle" transform="translate(548.88)">4.5</text><text y="462.4" class="xtick" style="font-family:&quot;Open Sans&quot;,verdana,arial,sans-serif;font-size:12px;fill:#000;fill-opacity:1;white-space:pre;opacity:1" text-anchor="middle" transform="translate(619)">5</text></g><g class="yaxislayer-above"><path d="M57 0h-5" class="ytick ticks crisp" style="stroke:#444;stroke-opacity:1;stroke-width:1px" transform="translate(0 422.4)"/><path d="M57 0h-5" class="ytick ticks crisp" style="stroke:#444;stroke-opacity:1;stroke-width:1px" transform="translate(0 354.55)"/><path d="M57 0h-5" class="ytick ticks crisp" style="stroke:#444;stroke-opacity:1;stroke-width:1px" transform="translate(0 286.71)"/><path d="M57 0h-5" class="ytick ticks crisp" style="stroke:#444;stroke-opacity:1;stroke-width:1px" transform="translate(0 218.86)"/><path d="M57 0h-5" class="ytick ticks crisp" style="stroke:#444;stroke-opacity:1;stroke-width:1px" transform="translate(0 151.02)"/><path d="M57 0h-5" class="ytick ticks crisp" style="stroke:#444;stroke-opacity:1;stroke-width:1px" transform="translate(0 83.17)"/><text x="49.6" y="4.2" class="ytick" style="font-family:&quot;Open Sans&quot;,verdana,arial,sans-serif;font-size:12px;fill:#000;fill-opacity:1;white-space:pre;opacity:1" text-anchor="end" transform="translate(0 422.4)">0</text><text x="49.6" y="4.2" class="ytick" style="font-family:&quot;Open Sans&quot;,verdana,arial,sans-serif;font-size:12px;fill:#000;fill-opacity:1;white-space:pre;opacity:1" text-anchor="end" transform="translate(0 354.55)">5</text><text x="49.6" y="4.2" class="ytick" style="font-family:&quot;Open Sans&quot;,verdana,arial,sans-serif;font-size:12px;fill:#000;fill-opacity:1;white-space:pre;opacity:1" text-anchor="end" transform="translate(0 286.71)">10</text><text x="49.6" y="4.2" class="ytick" style="font-family:&quot;Open Sans&quot;,verdana,arial,sans-serif;font-size:12px;fill:#000;fill-opacity:1;white-space:pre;opacity:1" text-anchor="end" transform="translate(0 218.86)">15</text><text x="49.6" y="4.2" class="ytick" style="font-family:&quot;Open Sans&quot;,verdana,arial,sans-serif;font-size:12px;fill:#000;fill-opacity:1;white-space:pre;opacity:1" text-anchor="end" transform="translate(0 151.02)">20</text><text x="49.6" y="4.2" class="ytick" style="font-family:&quot;Open Sans&quot;,verdana,arial,sans-serif;font-size:12px;fill:#000;fill-opacity:1;white-space:pre;opacity:1" text-anchor="end" transform="translate(0 83.17)">25</text></g></g></g><defs><clipPath id="b"><path d="M0 0h60v48H0z"/></clipPath></defs><g class="infolayer"><g class="legend" pointer-events="all"><path d="M0 0h60v48H0z" class="bg" shape-rendering="crispEdges" style="stroke:#444;stroke-opacity:1;fill:#fff;fill-opacity:1;stroke-width:0" transform="translate(630.22 50)"/><g class="scrollbox" clip-path="url(#b)" transform="translate(630.22 50)"><g class="groups"><g class="traces" style="opacity:1"><text x="40" y="4.68" class="legendtext" style="font-family:&quot;Open Sans&quot;,verdana,arial,sans-serif;font-size:12px;fill:#000;fill-opacity:1;white-space:pre" transform="translate(0 14.5)">Pd</text><g class="layers" style="opacity:1"><g class="legendlines"><path d="M5 0h30" class="js-line" style="fill:none;stroke:#006985;stroke-opacity:1;stroke-width:2px" transform="translate(0 14.5)"/></g></g><path fill="none" d="M0-9.5h54.719v19H0z" class="legendtoggle" style="fill:#000;fill-opacity:0" transform="translate(0 14.5)"/></g><g class="traces" style="opacity:1"><text x="40" y="4.68" class="legendtext" style="font-family:&quot;Open Sans&quot;,verdana,arial,sans-serif;font-size:12px;fill:#000;fill-opacity:1;white-space:pre" transform="translate(0 33.5)">Zr</text><g class="layers" style="opacity:1"><g class="legendlines"><path d="M5 0h30" class="js-line" style="fill:none;stroke:#94e0e0;stroke-opacity:1;stroke-width:2px" transform="translate(0 33.5)"/></g></g><path fill="none" d="M0-9.5h54.719v19H0z" class="legendtoggle" style="fill:#000;fill-opacity:0" transform="translate(0 33.5)"/></g></g></g></g><g class="g-gtitle"><text x="350" y="10" class="gtitle" dy=".7em" style="opacity:1;font-family:&quot;Open Sans&quot;,verdana,arial,sans-serif;font-size:17px;fill:#000;fill-opacity:1;white-space:pre" text-anchor="middle">Coordination vs Cutoff: Zr18 Pd24 (148)</text></g><g class="g-xtitle"><text x="338.5" y="489.206" class="xtitle" style="opacity:1;font-family:&quot;Open Sans&quot;,verdana,arial,sans-serif;font-size:14px;fill:#000;fill-opacity:1;white-space:pre" text-anchor="middle">Cutoff Distance (Å)</text></g><g class="g-ytitle"><text x="14.928" y="246" class="ytitle" style="opacity:1;font-family:&quot;Open Sans&quot;,verdana,arial,sans-serif;font-size:14px;fill:#000;fill-opacity:1;white-space:pre" text-anchor="middle" transform="rotate(-90 14.928 246)">Coordination Number</text></g></g></svg>
