<svg xmlns="http://www.w3.org/2000/svg" width="1350" height="600" class="main-svg"><path d="M0 0h1350v600H0z" style="fill:#fff;fill-opacity:1"/><defs><clipPath id="a" class="plotclip"><path d="M0 0h390.3v234.488H0z"/></clipPath><clipPath id="b" class="plotclip"><path d="M0 0h390.3v234.488H0z"/></clipPath><clipPath id="c" class="plotclip"><path d="M0 0h390.3v234.488H0z"/></clipPath><clipPath id="d" class="plotclip"><path d="M0 0h390.3v234.488H0z"/></clipPath><clipPath id="e" class="plotclip"><path d="M0 0h390.3v234.488H0z"/></clipPath><clipPath id="f" class="plotclip"><path d="M0 0h390.3v234.488H0z"/></clipPath></defs><g class="cartesianlayer"><g class="subplot xy"><g class="gridlayer"><g class="x"><path d="M0 70v234.488" class="xgrid crisp" style="stroke:#d3d3d3;stroke-opacity:1;stroke-width:1px" transform="translate(167.58)"/><path d="M0 70v234.488" class="xgrid crisp" style="stroke:#d3d3d3;stroke-opacity:1;stroke-width:1px" transform="translate(299.44)"/></g><g class="y"><path d="M41 0h390.3" class="ygrid crisp" style="stroke:#d3d3d3;stroke-opacity:1;stroke-width:1px" transform="translate(0 240.78)"/><path d="M41 0h390.3" class="ygrid crisp" style="stroke:#d3d3d3;stroke-opacity:1;stroke-width:1px" transform="translate(0 188.81)"/><path d="M41 0h390.3" class="ygrid crisp" style="stroke:#d3d3d3;stroke-opacity:1;stroke-width:1px" transform="translate(0 136.83)"/><path d="M41 0h390.3" class="ygrid crisp" style="stroke:#d3d3d3;stroke-opacity:1;stroke-width:1px" transform="translate(0 84.85)"/></g></g><g class="zerolinelayer"><path d="M41 0h390.3" class="yzl zl crisp" style="stroke:#ebf0f8;stroke-opacity:1;stroke-width:2px" transform="translate(0 292.76)"/></g><g class="overplot"><g class="xy" clip-path="url(#a)" transform="translate(41 70)"><g class="scatterlayer mlayer"><g class="trace scatter trace53df0f" style="stroke-miterlimit:2;opacity:1"><g class="lines"><path d="M0 222.76h390.3" class="js-line" style="vector-effect:none;fill:none;stroke:#636efa;stroke-opacity:1;stroke-width:2px;opacity:1"/></g></g><g class="trace scatter traceba60b9" style="stroke-miterlimit:2;opacity:1"><g class="lines"><path d="M0 222.76h10.55l5.27-211.04 5.28 211.04h15.82l5.27-41.68 5.28-25.85 5.27-16.18 5.28 60.26 5.27-16.51 5.28-46.18 5.27 41.12 5.27 5.45 5.28-7.16 5.27 5.05 5.28-23.79 5.27 31.71 5.28-12.18 5.27-16.85 5.28 5.35 5.27 16.41 5.27-12.99 5.28 14.06 5.27 7.54 5.28-19.26 5.27-12.56 5.28 26.73 5.27-18.71 5.27 26.55 5.28-16.84 5.27 2.7 5.28-25.1 10.55 26.98 5.27-18.86 5.27 11.95 5.28 4.52 5.27-7.9 5.28.54 5.27-4.93 5.28 4.29 5.27.63 5.27-4.16 5.28-11.4 5.27 17.42 5.28 7.64 5.27-1.03 5.28-.92 5.27 1.69 5.27-10.44 5.28 8.89 5.27-.65 5.28-3.8 5.27-15.98 5.28 14.25 5.27-.26 5.28-3.96 5.27 17.2 5.27-20.77 5.28 10.33 5.27 7.25 5.28-9.96 5.27-1.58 5.28 10.56 5.27-32.38 5.27 14.89 5.28 4.42 5.27.19 5.28 2.8 5.27-2.41 5.28.83 5.27-4.59" class="js-line" style="vector-effect:none;fill:none;stroke:#ef553b;stroke-opacity:1;stroke-dasharray:3px,3px;stroke-width:2px;opacity:1"/></g></g></g></g></g><path d="M40 304.988h392.3M40 69.5h392.3" class="xlines-above crisp" style="fill:none;stroke-width:1px;stroke:#000;stroke-opacity:1"/><path d="M40.5 70v234.488M431.8 70v234.488" class="ylines-above crisp" style="fill:none;stroke-width:1px;stroke:#000;stroke-opacity:1"/><g class="xaxislayer-above"><path d="M0 305.488v5" class="xtick ticks crisp" style="stroke:#444;stroke-opacity:1;stroke-width:1px" transform="translate(167.58)"/><path d="M0 305.488v5" class="xtick ticks crisp" style="stroke:#444;stroke-opacity:1;stroke-width:1px" transform="translate(299.44)"/><path d="M0 305.488v5" class="xtick ticks crisp" style="stroke:#444;stroke-opacity:1;stroke-width:1px" transform="translate(431.3)"/><text y="324.887" class="xtick" style="font-family:&quot;Open Sans&quot;,verdana,arial,sans-serif;font-size:12px;fill:#000;fill-opacity:1;white-space:pre;opacity:1" text-anchor="middle" transform="translate(167.58)">5</text><text y="324.887" class="xtick" style="font-family:&quot;Open Sans&quot;,verdana,arial,sans-serif;font-size:12px;fill:#000;fill-opacity:1;white-space:pre;opacity:1" text-anchor="middle" transform="translate(299.44)">10</text><text y="324.887" class="xtick" style="font-family:&quot;Open Sans&quot;,verdana,arial,sans-serif;font-size:12px;fill:#000;fill-opacity:1;white-space:pre;opacity:1" text-anchor="middle" transform="translate(431.3)">15</text></g><g class="yaxislayer-above"><path d="M40 0h-5" class="ytick ticks crisp" style="stroke:#444;stroke-opacity:1;stroke-width:1px" transform="translate(0 292.76)"/><path d="M40 0h-5" class="ytick ticks crisp" style="stroke:#444;stroke-opacity:1;stroke-width:1px" transform="translate(0 240.78)"/><path d="M40 0h-5" class="ytick ticks crisp" style="stroke:#444;stroke-opacity:1;stroke-width:1px" transform="translate(0 188.81)"/><path d="M40 0h-5" class="ytick ticks crisp" style="stroke:#444;stroke-opacity:1;stroke-width:1px" transform="translate(0 136.83)"/><path d="M40 0h-5" class="ytick ticks crisp" style="stroke:#444;stroke-opacity:1;stroke-width:1px" transform="translate(0 84.85)"/><text x="32.6" y="4.2" class="ytick" style="font-family:&quot;Open Sans&quot;,verdana,arial,sans-serif;font-size:12px;fill:#000;fill-opacity:1;white-space:pre;opacity:1" text-anchor="end" transform="translate(0 292.76)">0</text><text x="32.6" y="4.2" class="ytick" style="font-family:&quot;Open Sans&quot;,verdana,arial,sans-serif;font-size:12px;fill:#000;fill-opacity:1;white-space:pre;opacity:1" text-anchor="end" transform="translate(0 240.78)">1</text><text x="32.6" y="4.2" class="ytick" style="font-family:&quot;Open Sans&quot;,verdana,arial,sans-serif;font-size:12px;fill:#000;fill-opacity:1;white-space:pre;opacity:1" text-anchor="end" transform="translate(0 188.81)">2</text><text x="32.6" y="4.2" class="ytick" style="font-family:&quot;Open Sans&quot;,verdana,arial,sans-serif;font-size:12px;fill:#000;fill-opacity:1;white-space:pre;opacity:1" text-anchor="end" transform="translate(0 136.83)">3</text><text x="32.6" y="4.2" class="ytick" style="font-family:&quot;Open Sans&quot;,verdana,arial,sans-serif;font-size:12px;fill:#000;fill-opacity:1;white-space:pre;opacity:1" text-anchor="end" transform="translate(0 84.85)">4</text></g></g><g class="subplot x2y2"><g class="gridlayer"><g class="x2"><path d="M0 70v234.488" class="x2grid crisp" style="stroke:#d3d3d3;stroke-opacity:1;stroke-width:1px" transform="translate(622.93)"/><path d="M0 70v234.488" class="x2grid crisp" style="stroke:#d3d3d3;stroke-opacity:1;stroke-width:1px" transform="translate(754.79)"/></g><g class="y2"><path d="M496.35 0h390.3" class="y2grid crisp" style="stroke:#d3d3d3;stroke-opacity:1;stroke-width:1px" transform="translate(0 234.98)"/><path d="M496.35 0h390.3" class="y2grid crisp" style="stroke:#d3d3d3;stroke-opacity:1;stroke-width:1px" transform="translate(0 177.19)"/><path d="M496.35 0h390.3" class="y2grid crisp" style="stroke:#d3d3d3;stroke-opacity:1;stroke-width:1px" transform="translate(0 119.41)"/></g></g><g class="zerolinelayer"><path d="M496.35 0h390.3" class="y2zl zl crisp" style="stroke:#ebf0f8;stroke-opacity:1;stroke-width:2px" transform="translate(0 292.76)"/></g><g class="overplot"><g class="x2y2" clip-path="url(#b)" transform="translate(496.35 70)"><g class="scatterlayer mlayer"><g class="trace scatter traced26423" style="stroke-miterlimit:2;opacity:1"><g class="lines"><path d="M0 222.76h84.39l5.27-117.57 5.28-93.47 5.27 211.04h15.83l5.27-132.26 5.27 132.26h10.55l5.28-97.17 5.27 97.17 5.28-42.32 5.27 42.32h10.55l5.27-65.9 5.28 65.9h10.55l5.27-158.28 5.27 158.28h10.55l5.28-43.19 5.27 43.19 5.28-78.7 5.27 22.27 5.27 38.43 5.28 18 5.27-33.06 5.28 1.33 5.27 31.73 5.28-29.29 5.27 15.21 5.27-67.28 5.28 81.36 5.27-50.37 5.28 1.79 5.27 25.13 5.28.81 5.27 22.64h5.28l5.27-51.18 5.27 21.45 5.28-8.66 5.27-17.41 5.28 19.74 5.27 36.06 5.28-16.97 5.27.5 5.27-47.53 5.28 32.91 5.27.87 5.28 15.53 5.27-42.49 5.28 50.23 5.27 6.95" class="js-line" style="vector-effect:none;fill:none;stroke:#636efa;stroke-opacity:1;stroke-width:2px;opacity:1"/></g></g><g class="trace scatter trace78d013" style="stroke-miterlimit:2;opacity:1"><g class="lines"><path d="M0 222.76h5.27l5.28-25.54 5.27-3.2 5.28 10.35 5.27-.77 5.28 14.47 5.27-38.42 5.27.53 5.28 21.89 5.27 1.69 5.28-12.93 5.27-.72 5.28 11.54 5.27-1.37 5.27.93 5.28-5.5 5.27-.62 5.28-10.54 5.27 15.8 5.28-8.87 5.27 6.58 5.28 3.41 5.27-2.26 5.27-3.3 5.28-1.38 5.27 4.26 5.28-.95 5.27-4.33 5.28-1.15 5.27 2.89 5.27-1.9 5.28 1.33 5.27-1.95 5.28-.94 5.27 5.6 5.28.18 10.54-6.85 5.28 1.15 10.55 1.31 5.27-2.5 5.28.97 5.27 1.93 5.27 2.34 5.28-2.09 5.27.79 5.28-.3 5.27-1.26h5.28l10.54 1.14 5.28-1.08 5.27 4.56 5.28-1.09 10.55-1.23 5.27-3.84 15.82 4.09 5.28-.71 5.27.58 5.28-.42 5.27.63 5.28-2.74 5.27.33 5.27 1.96 5.28.17 5.27 1.49 5.28-2.61 5.27.21 10.55.43" class="js-line" style="vector-effect:none;fill:none;stroke:#ef553b;stroke-opacity:1;stroke-dasharray:3px,3px;stroke-width:2px;opacity:1"/></g></g></g></g></g><path d="M495.35 304.988h392.3M495.35 69.5h392.3" class="xlines-above crisp" style="fill:none;stroke-width:1px;stroke:#000;stroke-opacity:1"/><path d="M495.85 70v234.488M887.15 70v234.488" class="ylines-above crisp" style="fill:none;stroke-width:1px;stroke:#000;stroke-opacity:1"/><g class="xaxislayer-above"><path d="M0 305.488v5" class="x2tick ticks crisp" style="stroke:#444;stroke-opacity:1;stroke-width:1px" transform="translate(622.93)"/><path d="M0 305.488v5" class="x2tick ticks crisp" style="stroke:#444;stroke-opacity:1;stroke-width:1px" transform="translate(754.79)"/><path d="M0 305.488v5" class="x2tick ticks crisp" style="stroke:#444;stroke-opacity:1;stroke-width:1px" transform="translate(886.65)"/><text y="324.887" class="x2tick" style="font-family:&quot;Open Sans&quot;,verdana,arial,sans-serif;font-size:12px;fill:#000;fill-opacity:1;white-space:pre;opacity:1" text-anchor="middle" transform="translate(622.93)">5</text><text y="324.887" class="x2tick" style="font-family:&quot;Open Sans&quot;,verdana,arial,sans-serif;font-size:12px;fill:#000;fill-opacity:1;white-space:pre;opacity:1" text-anchor="middle" transform="translate(754.79)">10</text><text y="324.887" class="x2tick" style="font-family:&quot;Open Sans&quot;,verdana,arial,sans-serif;font-size:12px;fill:#000;fill-opacity:1;white-space:pre;opacity:1" text-anchor="middle" transform="translate(886.65)">15</text></g><g class="yaxislayer-above"><path d="M495.35 0h-5" class="y2tick ticks crisp" style="stroke:#444;stroke-opacity:1;stroke-width:1px" transform="translate(0 292.76)"/><path d="M495.35 0h-5" class="y2tick ticks crisp" style="stroke:#444;stroke-opacity:1;stroke-width:1px" transform="translate(0 234.98)"/><path d="M495.35 0h-5" class="y2tick ticks crisp" style="stroke:#444;stroke-opacity:1;stroke-width:1px" transform="translate(0 177.19)"/><path d="M495.35 0h-5" class="y2tick ticks crisp" style="stroke:#444;stroke-opacity:1;stroke-width:1px" transform="translate(0 119.41)"/><text x="487.95" y="4.2" class="y2tick" style="font-family:&quot;Open Sans&quot;,verdana,arial,sans-serif;font-size:12px;fill:#000;fill-opacity:1;white-space:pre;opacity:1" text-anchor="end" transform="translate(0 292.76)">0</text><text x="487.95" y="4.2" class="y2tick" style="font-family:&quot;Open Sans&quot;,verdana,arial,sans-serif;font-size:12px;fill:#000;fill-opacity:1;white-space:pre;opacity:1" text-anchor="end" transform="translate(0 234.98)">2</text><text x="487.95" y="4.2" class="y2tick" style="font-family:&quot;Open Sans&quot;,verdana,arial,sans-serif;font-size:12px;fill:#000;fill-opacity:1;white-space:pre;opacity:1" text-anchor="end" transform="translate(0 177.19)">4</text><text x="487.95" y="4.2" class="y2tick" style="font-family:&quot;Open Sans&quot;,verdana,arial,sans-serif;font-size:12px;fill:#000;fill-opacity:1;white-space:pre;opacity:1" text-anchor="end" transform="translate(0 119.41)">6</text></g></g><g class="subplot x3y3"><g class="gridlayer"><g class="x3"><path d="M0 70v234.488" class="x3grid crisp" style="stroke:#d3d3d3;stroke-opacity:1;stroke-width:1px" transform="translate(1078.28)"/><path d="M0 70v234.488" class="x3grid crisp" style="stroke:#d3d3d3;stroke-opacity:1;stroke-width:1px" transform="translate(1210.14)"/></g><g class="y3"><path d="M951.7 0H1342" class="y3grid crisp" style="stroke:#d3d3d3;stroke-opacity:1;stroke-width:1px" transform="translate(0 239.84)"/><path d="M951.7 0H1342" class="y3grid crisp" style="stroke:#d3d3d3;stroke-opacity:1;stroke-width:1px" transform="translate(0 186.92)"/><path d="M951.7 0H1342" class="y3grid crisp" style="stroke:#d3d3d3;stroke-opacity:1;stroke-width:1px" transform="translate(0 133.99)"/><path d="M951.7 0H1342" class="y3grid crisp" style="stroke:#d3d3d3;stroke-opacity:1;stroke-width:1px" transform="translate(0 81.07)"/></g></g><g class="zerolinelayer"><path d="M951.7 0H1342" class="y3zl zl crisp" style="stroke:#ebf0f8;stroke-opacity:1;stroke-width:2px" transform="translate(0 292.76)"/></g><g class="overplot"><g class="x3y3" clip-path="url(#c)" transform="translate(951.7 70)"><g class="scatterlayer mlayer"><g class="trace scatter traced79d18" style="stroke-miterlimit:2;opacity:1"><g class="lines"><path d="M0 222.76h110.76l5.28-211.04 5.27 211.04h84.39l5.27-132.82 5.28 132.82h26.37l5.27-48.45 5.28 48.45h15.82l5.27-39.74 5.28 39.74h21.1l5.27-64.14 5.28 64.14h5.27l5.27-58.08 5.28 58.08h21.1l5.27-24.14 5.27 24.14h5.28l5.27-44.29 5.28 44.29h10.55l5.27-39.69" class="js-line" style="vector-effect:none;fill:none;stroke:#636efa;stroke-opacity:1;stroke-width:2px;opacity:1"/></g></g><g class="trace scatter tracec8036c" style="stroke-miterlimit:2;opacity:1"><g class="lines"><path d="M0 222.76h10.55l5.27-21.05 5.28-5.9 5.27 8.24 5.28-1.91 5.27 15.36 5.27-15.53 5.28 10.69 5.27-1.03 5.28-14.6 5.27 23.74 5.28-4.88 5.27.88 5.27-4.54 5.28-1.13 5.27 1.26 5.28 3.87 5.27-.21 5.28-1.66 5.27 1.44 5.28-.04 5.27-1.19 5.27-2.05 5.28 1.27 10.55-3.06 5.27 3.62 5.28-2.07 5.27-.39 5.27 1.66 5.28-.38 5.27 1.43 5.28-2.01 5.27-.49 5.28 2.05 5.27-1.89 5.27.98 5.28 1.31 5.27-1.41 5.28-.5 5.27-2.09 5.28 2.12 5.27-2.22 10.55 1.18 5.27.75 5.28-1.54 5.27.2 5.28 1.49 5.27-.23 5.27.51 5.28-.68 5.27 2.5 5.28-3.47 5.27-.22 5.28 1.71 10.55-1.12 5.27 1 10.55-.12 5.27.24 10.55-.25 5.28-.29 5.27.89 5.27-.78 5.28-1.08 5.27 1.13 5.28.74 5.27-.49 5.28.15 5.27-.81" class="js-line" style="vector-effect:none;fill:none;stroke:#ef553b;stroke-opacity:1;stroke-dasharray:3px,3px;stroke-width:2px;opacity:1"/></g></g></g></g></g><path d="M950.7 304.988H1343M950.7 69.5H1343" class="xlines-above crisp" style="fill:none;stroke-width:1px;stroke:#000;stroke-opacity:1"/><path d="M951.2 70v234.488M1342.5 70v234.488" class="ylines-above crisp" style="fill:none;stroke-width:1px;stroke:#000;stroke-opacity:1"/><g class="xaxislayer-above"><path d="M0 305.488v5" class="x3tick ticks crisp" style="stroke:#444;stroke-opacity:1;stroke-width:1px" transform="translate(1078.28)"/><path d="M0 305.488v5" class="x3tick ticks crisp" style="stroke:#444;stroke-opacity:1;stroke-width:1px" transform="translate(1210.14)"/><path d="M0 305.488v5" class="x3tick ticks crisp" style="stroke:#444;stroke-opacity:1;stroke-width:1px" transform="translate(1342)"/><text y="324.887" class="x3tick" style="font-family:&quot;Open Sans&quot;,verdana,arial,sans-serif;font-size:12px;fill:#000;fill-opacity:1;white-space:pre;opacity:1" text-anchor="middle" transform="translate(1078.28)">5</text><text y="324.887" class="x3tick" style="font-family:&quot;Open Sans&quot;,verdana,arial,sans-serif;font-size:12px;fill:#000;fill-opacity:1;white-space:pre;opacity:1" text-anchor="middle" transform="translate(1210.14)">10</text><text y="324.887" class="x3tick" style="font-family:&quot;Open Sans&quot;,verdana,arial,sans-serif;font-size:12px;fill:#000;fill-opacity:1;white-space:pre;opacity:1" text-anchor="middle" transform="translate(1342)">15</text></g><g class="yaxislayer-above"><path d="M950.7 0h-5" class="y3tick ticks crisp" style="stroke:#444;stroke-opacity:1;stroke-width:1px" transform="translate(0 292.76)"/><path d="M950.7 0h-5" class="y3tick ticks crisp" style="stroke:#444;stroke-opacity:1;stroke-width:1px" transform="translate(0 239.84)"/><path d="M950.7 0h-5" class="y3tick ticks crisp" style="stroke:#444;stroke-opacity:1;stroke-width:1px" transform="translate(0 186.92)"/><path d="M950.7 0h-5" class="y3tick ticks crisp" style="stroke:#444;stroke-opacity:1;stroke-width:1px" transform="translate(0 133.99)"/><path d="M950.7 0h-5" class="y3tick ticks crisp" style="stroke:#444;stroke-opacity:1;stroke-width:1px" transform="translate(0 81.07)"/><text x="943.3" y="4.2" class="y3tick" style="font-family:&quot;Open Sans&quot;,verdana,arial,sans-serif;font-size:12px;fill:#000;fill-opacity:1;white-space:pre;opacity:1" text-anchor="end" transform="translate(0 292.76)">0</text><text x="943.3" y="4.2" class="y3tick" style="font-family:&quot;Open Sans&quot;,verdana,arial,sans-serif;font-size:12px;fill:#000;fill-opacity:1;white-space:pre;opacity:1" text-anchor="end" transform="translate(0 239.84)">5</text><text x="943.3" y="4.2" class="y3tick" style="font-family:&quot;Open Sans&quot;,verdana,arial,sans-serif;font-size:12px;fill:#000;fill-opacity:1;white-space:pre;opacity:1" text-anchor="end" transform="translate(0 186.92)">10</text><text x="943.3" y="4.2" class="y3tick" style="font-family:&quot;Open Sans&quot;,verdana,arial,sans-serif;font-size:12px;fill:#000;fill-opacity:1;white-space:pre;opacity:1" text-anchor="end" transform="translate(0 133.99)">15</text><text x="943.3" y="4.2" class="y3tick" style="font-family:&quot;Open Sans&quot;,verdana,arial,sans-serif;font-size:12px;fill:#000;fill-opacity:1;white-space:pre;opacity:1" text-anchor="end" transform="translate(0 81.07)">20</text></g></g><g class="subplot x4y4"><g class="gridlayer"><g class="x4"><path d="M0 342.513V577" class="x4grid crisp" style="stroke:#d3d3d3;stroke-opacity:1;stroke-width:1px" transform="translate(167.58)"/><path d="M0 342.513V577" class="x4grid crisp" style="stroke:#d3d3d3;stroke-opacity:1;stroke-width:1px" transform="translate(299.44)"/></g><g class="y4"><path d="M41 0h390.3" class="y4grid crisp" style="stroke:#d3d3d3;stroke-opacity:1;stroke-width:1px" transform="translate(0 530.702)"/><path d="M41 0h390.3" class="y4grid crisp" style="stroke:#d3d3d3;stroke-opacity:1;stroke-width:1px" transform="translate(0 496.123)"/><path d="M41 0h390.3" class="y4grid crisp" style="stroke:#d3d3d3;stroke-opacity:1;stroke-width:1px" transform="translate(0 461.553)"/><path d="M41 0h390.3" class="y4grid crisp" style="stroke:#d3d3d3;stroke-opacity:1;stroke-width:1px" transform="translate(0 426.972)"/><path d="M41 0h390.3" class="y4grid crisp" style="stroke:#d3d3d3;stroke-opacity:1;stroke-width:1px" transform="translate(0 392.402)"/><path d="M41 0h390.3" class="y4grid crisp" style="stroke:#d3d3d3;stroke-opacity:1;stroke-width:1px" transform="translate(0 357.822)"/></g></g><g class="zerolinelayer"><path d="M41 0h390.3" class="y4zl zl crisp" style="stroke:#ebf0f8;stroke-opacity:1;stroke-width:2px" transform="translate(0 565.273)"/></g><g class="overplot"><g class="x4y4" clip-path="url(#d)" transform="translate(41 342.512)"><g class="scatterlayer mlayer"><g class="trace scatter trace977f7b" style="stroke-miterlimit:2;opacity:1"><g class="lines"><path d="M0 222.76h52.74l5.28-211.04 5.27 211.04h10.55l5.27-59.35 5.28-45.8 5.27 105.15h10.55l5.28-137.82 5.27 137.82h5.28l5.27-52.76 5.27 52.76h5.28l5.27-41.68 5.28-35.84 5.27 77.52 5.28-67.53 5.27 4.29 5.27 63.24h5.28l10.55-49.61 5.27 2.72 5.28 2.5 5.27-39.79 5.27 64.2 5.28 19.98 5.27-36.15 5.28 1.7 5.27-14.85 5.28 49.3h5.27l5.27-50.26 5.28 50.26 5.27-118.71 5.28 118.71 5.27-36.46 5.28-33.64 5.27 47.63 5.27 22.47 5.28-31.26 5.27-8.92 5.28-47.03 5.27 68.51 5.28.64 5.27-34.32 5.28 35.5 5.27-32.12 5.27 49 5.28-53.59 5.27 53.59 5.28-14.38 5.27-27.48 5.28 21.55 5.27-45.41 5.27 8.28 5.28 26.43 5.27-29.27 5.28 30.97 5.27 6.5 5.28 11.71 5.27-42.92" class="js-line" style="vector-effect:none;fill:none;stroke:#636efa;stroke-opacity:1;stroke-width:2px;opacity:1"/></g></g><g class="trace scatter trace892a6c" style="stroke-miterlimit:2;opacity:1"><g class="lines"><path d="M0 222.76h5.27l5.28-30.72 5.27-12.48 5.28 10.02 5.27 10.14 5.28 3.29 5.27-29.94 5.27 17.26 5.28-7.66 5.27 10.38 5.28-15.41 5.27 17.31 5.28-10.28 5.27 8.6 5.27-5.07 5.28.12 5.27-6.1 5.28 14.88 5.27-8.9 5.28 5.41 5.27-7.98 5.28 2.37 5.27-.28 5.27.75 5.28.55 5.27 1.5 5.28.15 5.27-1.12 5.28 2.18 5.27-.76 5.27-.21 5.28-2.02 5.27-3.53 5.28 6.74 5.27-6.1 5.28 3.79 5.27 4.49 5.27-2.46 5.28-2.95 5.27.98 5.28 1.48 5.27-2.44 5.28.67 5.27-2.01 10.55 1.31 5.27-.21 5.28-.81 5.27 3.94 10.55-1.59 5.27-.7 5.28 1.42 5.27-1 5.28-6.02 5.27 6.55 5.28-.28 5.27-1.52 10.55.53 5.27-1.29 5.28 1.03 5.27-1.14 5.28.68 5.27-.58 5.28 1.5 5.27-.13 5.27-.57 5.28-1.9 5.27 1.89 5.28-.26 15.82 1.18" class="js-line" style="vector-effect:none;fill:none;stroke:#ef553b;stroke-opacity:1;stroke-dasharray:3px,3px;stroke-width:2px;opacity:1"/></g></g></g></g></g><path d="M40 577.5h392.3M40 342.013h392.3" class="xlines-above crisp" style="fill:none;stroke-width:1px;stroke:#000;stroke-opacity:1"/><path d="M40.5 342.513V577m391.3-234.487V577" class="ylines-above crisp" style="fill:none;stroke-width:1px;stroke:#000;stroke-opacity:1"/><g class="xaxislayer-above"><path d="M0 578v5" class="x4tick ticks crisp" style="stroke:#444;stroke-opacity:1;stroke-width:1px" transform="translate(167.58)"/><path d="M0 578v5" class="x4tick ticks crisp" style="stroke:#444;stroke-opacity:1;stroke-width:1px" transform="translate(299.44)"/><path d="M0 578v5" class="x4tick ticks crisp" style="stroke:#444;stroke-opacity:1;stroke-width:1px" transform="translate(431.3)"/><text y="597.4" class="x4tick" style="font-family:&quot;Open Sans&quot;,verdana,arial,sans-serif;font-size:12px;fill:#000;fill-opacity:1;white-space:pre;opacity:1" text-anchor="middle" transform="translate(167.58)">5</text><text y="597.4" class="x4tick" style="font-family:&quot;Open Sans&quot;,verdana,arial,sans-serif;font-size:12px;fill:#000;fill-opacity:1;white-space:pre;opacity:1" text-anchor="middle" transform="translate(299.44)">10</text><text y="597.4" class="x4tick" style="font-family:&quot;Open Sans&quot;,verdana,arial,sans-serif;font-size:12px;fill:#000;fill-opacity:1;white-space:pre;opacity:1" text-anchor="middle" transform="translate(431.3)">15</text></g><g class="yaxislayer-above"><path d="M40 0h-5" class="y4tick ticks crisp" style="stroke:#444;stroke-opacity:1;stroke-width:1px" transform="translate(0 565.273)"/><path d="M40 0h-5" class="y4tick ticks crisp" style="stroke:#444;stroke-opacity:1;stroke-width:1px" transform="translate(0 530.702)"/><path d="M40 0h-5" class="y4tick ticks crisp" style="stroke:#444;stroke-opacity:1;stroke-width:1px" transform="translate(0 496.123)"/><path d="M40 0h-5" class="y4tick ticks crisp" style="stroke:#444;stroke-opacity:1;stroke-width:1px" transform="translate(0 461.553)"/><path d="M40 0h-5" class="y4tick ticks crisp" style="stroke:#444;stroke-opacity:1;stroke-width:1px" transform="translate(0 426.972)"/><path d="M40 0h-5" class="y4tick ticks crisp" style="stroke:#444;stroke-opacity:1;stroke-width:1px" transform="translate(0 392.402)"/><path d="M40 0h-5" class="y4tick ticks crisp" style="stroke:#444;stroke-opacity:1;stroke-width:1px" transform="translate(0 357.822)"/><text x="32.6" y="4.2" class="y4tick" style="font-family:&quot;Open Sans&quot;,verdana,arial,sans-serif;font-size:12px;fill:#000;fill-opacity:1;white-space:pre;opacity:1" text-anchor="end" transform="translate(0 565.273)">0</text><text x="32.6" y="4.2" class="y4tick" style="font-family:&quot;Open Sans&quot;,verdana,arial,sans-serif;font-size:12px;fill:#000;fill-opacity:1;white-space:pre;opacity:1" text-anchor="end" transform="translate(0 530.702)">1</text><text x="32.6" y="4.2" class="y4tick" style="font-family:&quot;Open Sans&quot;,verdana,arial,sans-serif;font-size:12px;fill:#000;fill-opacity:1;white-space:pre;opacity:1" text-anchor="end" transform="translate(0 496.123)">2</text><text x="32.6" y="4.2" class="y4tick" style="font-family:&quot;Open Sans&quot;,verdana,arial,sans-serif;font-size:12px;fill:#000;fill-opacity:1;white-space:pre;opacity:1" text-anchor="end" transform="translate(0 461.553)">3</text><text x="32.6" y="4.2" class="y4tick" style="font-family:&quot;Open Sans&quot;,verdana,arial,sans-serif;font-size:12px;fill:#000;fill-opacity:1;white-space:pre;opacity:1" text-anchor="end" transform="translate(0 426.972)">4</text><text x="32.6" y="4.2" class="y4tick" style="font-family:&quot;Open Sans&quot;,verdana,arial,sans-serif;font-size:12px;fill:#000;fill-opacity:1;white-space:pre;opacity:1" text-anchor="end" transform="translate(0 392.402)">5</text><text x="32.6" y="4.2" class="y4tick" style="font-family:&quot;Open Sans&quot;,verdana,arial,sans-serif;font-size:12px;fill:#000;fill-opacity:1;white-space:pre;opacity:1" text-anchor="end" transform="translate(0 357.822)">6</text></g></g><g class="subplot x5y5"><g class="gridlayer"><g class="x5"><path d="M0 342.513V577" class="x5grid crisp" style="stroke:#d3d3d3;stroke-opacity:1;stroke-width:1px" transform="translate(622.93)"/><path d="M0 342.513V577" class="x5grid crisp" style="stroke:#d3d3d3;stroke-opacity:1;stroke-width:1px" transform="translate(754.79)"/></g><g class="y5"><path d="M496.35 0h390.3" class="y5grid crisp" style="stroke:#d3d3d3;stroke-opacity:1;stroke-width:1px" transform="translate(0 524.293)"/><path d="M496.35 0h390.3" class="y5grid crisp" style="stroke:#d3d3d3;stroke-opacity:1;stroke-width:1px" transform="translate(0 483.322)"/><path d="M496.35 0h390.3" class="y5grid crisp" style="stroke:#d3d3d3;stroke-opacity:1;stroke-width:1px" transform="translate(0 442.342)"/><path d="M496.35 0h390.3" class="y5grid crisp" style="stroke:#d3d3d3;stroke-opacity:1;stroke-width:1px" transform="translate(0 401.363)"/><path d="M496.35 0h390.3" class="y5grid crisp" style="stroke:#d3d3d3;stroke-opacity:1;stroke-width:1px" transform="translate(0 360.382)"/></g></g><g class="zerolinelayer"><path d="M496.35 0h390.3" class="y5zl zl crisp" style="stroke:#ebf0f8;stroke-opacity:1;stroke-width:2px" transform="translate(0 565.273)"/></g><g class="overplot"><g class="x5y5" clip-path="url(#e)" transform="translate(496.35 342.512)"><g class="scatterlayer mlayer"><g class="trace scatter tracedaea16" style="stroke-miterlimit:2;opacity:1"><g class="lines"><path d="M0 222.76h31.65l5.27-211.04 5.27 44.3 5.28 166.74h42.19l5.28-74.83 5.27 74.83h10.55l5.28-25.53 5.27 25.53 5.27-108.05 5.28 108.05h15.82l5.28-30.01 5.27 30.01 5.27-26.38 5.28-23.23 5.27 49.61 5.28-66.15 5.27 24.47 5.28 41.68 5.27-9.35 5.27 9.35 5.28-16.88 5.27-15.26 5.28 9.17 5.27-6.25 5.28 29.22 5.27-40.02 5.27 14.49 5.28 25.53 5.27-23.45 5.28 23.45h5.27l5.28-31.15 5.27 1.18 5.27 5.93 5.28-40.8 5.27 64.84 5.28-8.61 5.27 8.61 5.28-48.18 5.27 28.78 5.28 19.4 5.27-29.04 5.27 14.99 5.28-13.17 5.27 14.03 5.28-25.17 5.27 32.16 5.28-17.87 5.27-2.22 5.27 26.29 5.28-11.02 5.27-26.49 5.28 16.67 5.27 5.64 5.28-4.53 5.27-40.3" class="js-line" style="vector-effect:none;fill:none;stroke:#636efa;stroke-opacity:1;stroke-width:2px;opacity:1"/></g></g><g class="trace scatter trace66b5d6" style="stroke-miterlimit:2;opacity:1"><g class="lines"><path d="M0 222.76h10.55l5.27-20.38 5.28 20.38 5.27-18.11 10.55 2.83 5.27-2.83 5.28-3.08 5.27-1.71 5.28 5.92 5.27-7.14 5.28 7.49 5.27-.03 5.27-3.08 5.28 1.69 5.27 4.47 5.28-6.29 5.27-2.95 5.28 2.49 5.27-2.24 5.28 7.16 5.27-2.7 5.27-1.71 5.28.77 5.27 4.74 10.55-7.21 5.28.15 10.54.99 5.28 1.07 5.27.27 5.28-.92 5.27.09 5.28-.97 5.27 1.42 5.27.34 5.28-1.3 5.27.31 5.28-.17 5.27-4.54 5.28 5.41 5.27-1.72 5.27 1.37 5.28.46 5.27.09 5.28 1.31 5.27-3.92 5.28 1.6 5.27 1.97 5.27-2.74 5.28 1.61 5.27-1.62 5.28-1.08 5.27 3.37 10.55-1.37 5.28.39 5.27-1.34 5.27-.26 5.28 4 5.27-4.24 5.28.07 5.27 2.89 5.28-2.82 5.27 1.22 5.27-.83 5.28.93 5.27-.18 5.28.62 5.27-1.33 5.28 1.21 5.27-.11" class="js-line" style="vector-effect:none;fill:none;stroke:#ef553b;stroke-opacity:1;stroke-dasharray:3px,3px;stroke-width:2px;opacity:1"/></g></g></g></g></g><path d="M495.35 577.5h392.3m-392.3-235.487h392.3" class="xlines-above crisp" style="fill:none;stroke-width:1px;stroke:#000;stroke-opacity:1"/><path d="M495.85 342.513V577m391.3-234.487V577" class="ylines-above crisp" style="fill:none;stroke-width:1px;stroke:#000;stroke-opacity:1"/><g class="xaxislayer-above"><path d="M0 578v5" class="x5tick ticks crisp" style="stroke:#444;stroke-opacity:1;stroke-width:1px" transform="translate(622.93)"/><path d="M0 578v5" class="x5tick ticks crisp" style="stroke:#444;stroke-opacity:1;stroke-width:1px" transform="translate(754.79)"/><path d="M0 578v5" class="x5tick ticks crisp" style="stroke:#444;stroke-opacity:1;stroke-width:1px" transform="translate(886.65)"/><text y="597.4" class="x5tick" style="font-family:&quot;Open Sans&quot;,verdana,arial,sans-serif;font-size:12px;fill:#000;fill-opacity:1;white-space:pre;opacity:1" text-anchor="middle" transform="translate(622.93)">5</text><text y="597.4" class="x5tick" style="font-family:&quot;Open Sans&quot;,verdana,arial,sans-serif;font-size:12px;fill:#000;fill-opacity:1;white-space:pre;opacity:1" text-anchor="middle" transform="translate(754.79)">10</text><text y="597.4" class="x5tick" style="font-family:&quot;Open Sans&quot;,verdana,arial,sans-serif;font-size:12px;fill:#000;fill-opacity:1;white-space:pre;opacity:1" text-anchor="middle" transform="translate(886.65)">15</text></g><g class="yaxislayer-above"><path d="M495.35 0h-5" class="y5tick ticks crisp" style="stroke:#444;stroke-opacity:1;stroke-width:1px" transform="translate(0 565.273)"/><path d="M495.35 0h-5" class="y5tick ticks crisp" style="stroke:#444;stroke-opacity:1;stroke-width:1px" transform="translate(0 524.293)"/><path d="M495.35 0h-5" class="y5tick ticks crisp" style="stroke:#444;stroke-opacity:1;stroke-width:1px" transform="translate(0 483.322)"/><path d="M495.35 0h-5" class="y5tick ticks crisp" style="stroke:#444;stroke-opacity:1;stroke-width:1px" transform="translate(0 442.342)"/><path d="M495.35 0h-5" class="y5tick ticks crisp" style="stroke:#444;stroke-opacity:1;stroke-width:1px" transform="translate(0 401.363)"/><path d="M495.35 0h-5" class="y5tick ticks crisp" style="stroke:#444;stroke-opacity:1;stroke-width:1px" transform="translate(0 360.382)"/><text x="487.95" y="4.2" class="y5tick" style="font-family:&quot;Open Sans&quot;,verdana,arial,sans-serif;font-size:12px;fill:#000;fill-opacity:1;white-space:pre;opacity:1" text-anchor="end" transform="translate(0 565.273)">0</text><text x="487.95" y="4.2" class="y5tick" style="font-family:&quot;Open Sans&quot;,verdana,arial,sans-serif;font-size:12px;fill:#000;fill-opacity:1;white-space:pre;opacity:1" text-anchor="end" transform="translate(0 524.293)">2</text><text x="487.95" y="4.2" class="y5tick" style="font-family:&quot;Open Sans&quot;,verdana,arial,sans-serif;font-size:12px;fill:#000;fill-opacity:1;white-space:pre;opacity:1" text-anchor="end" transform="translate(0 483.322)">4</text><text x="487.95" y="4.2" class="y5tick" style="font-family:&quot;Open Sans&quot;,verdana,arial,sans-serif;font-size:12px;fill:#000;fill-opacity:1;white-space:pre;opacity:1" text-anchor="end" transform="translate(0 442.342)">6</text><text x="487.95" y="4.2" class="y5tick" style="font-family:&quot;Open Sans&quot;,verdana,arial,sans-serif;font-size:12px;fill:#000;fill-opacity:1;white-space:pre;opacity:1" text-anchor="end" transform="translate(0 401.363)">8</text><text x="487.95" y="4.2" class="y5tick" style="font-family:&quot;Open Sans&quot;,verdana,arial,sans-serif;font-size:12px;fill:#000;fill-opacity:1;white-space:pre;opacity:1" text-anchor="end" transform="translate(0 360.382)">10</text></g></g><g class="subplot x6y6"><g class="gridlayer"><g class="x6"><path d="M0 342.513V577" class="x6grid crisp" style="stroke:#d3d3d3;stroke-opacity:1;stroke-width:1px" transform="translate(1078.28)"/><path d="M0 342.513V577" class="x6grid crisp" style="stroke:#d3d3d3;stroke-opacity:1;stroke-width:1px" transform="translate(1210.14)"/></g><g class="y6"><path d="M951.7 0H1342" class="y6grid crisp" style="stroke:#d3d3d3;stroke-opacity:1;stroke-width:1px" transform="translate(0 524.663)"/><path d="M951.7 0H1342" class="y6grid crisp" style="stroke:#d3d3d3;stroke-opacity:1;stroke-width:1px" transform="translate(0 484.063)"/><path d="M951.7 0H1342" class="y6grid crisp" style="stroke:#d3d3d3;stroke-opacity:1;stroke-width:1px" transform="translate(0 443.452)"/><path d="M951.7 0H1342" class="y6grid crisp" style="stroke:#d3d3d3;stroke-opacity:1;stroke-width:1px" transform="translate(0 402.842)"/><path d="M951.7 0H1342" class="y6grid crisp" style="stroke:#d3d3d3;stroke-opacity:1;stroke-width:1px" transform="translate(0 362.232)"/></g></g><g class="zerolinelayer"><path d="M951.7 0H1342" class="y6zl zl crisp" style="stroke:#ebf0f8;stroke-opacity:1;stroke-width:2px" transform="translate(0 565.273)"/></g><g class="overplot"><g class="x6y6" clip-path="url(#f)" transform="translate(951.7 342.512)"><g class="scatterlayer mlayer"><g class="trace scatter trace78d67d" style="stroke-miterlimit:2;opacity:1"><g class="lines"><path d="M0 222.76h390.3" class="js-line" style="vector-effect:none;fill:none;stroke:#636efa;stroke-opacity:1;stroke-width:2px;opacity:1"/></g></g><g class="trace scatter trace2c2662" style="stroke-miterlimit:2;opacity:1"><g class="lines"><path d="M0 222.76h15.82L21.1 11.72l5.27 211.04h5.28l5.27-41.22 5.27-23.91 5.28 38.75 5.27-17.22 5.28 25.28 5.27-12.9 5.28-36.07 5.27 20.4 5.27-4.63 5.28 5.88 5.27 21.22 5.28 2.5 5.27-24.24 5.28-13.66 5.27 38.02 5.28-3.13 5.27-20.87 5.27 7.82 5.28-4.94 5.27 13.97 5.28-21.52 5.27 22.24 10.55-7.45 5.27-5.54 5.28 7.31 5.27 1.97 5.28-39.12 5.27 34.42 5.28 17.37 5.27-19.09 5.27 1.94 5.28-4.8 5.27 3.56 5.28-16.17 5.27 18.17 5.28-6.58 5.27 5.77 5.27-10.9 5.28 10.35 5.27.38 10.55-5.56 5.28-.39 5.27-6.19 5.27 9.34 5.28-3.08 5.27-1.95 5.28 2.41 5.27.65 5.28-8.77 5.27 9.26 5.28 6.48 5.27-4.55 5.27-.12 5.28-7.41 5.27 9.17 5.28-5.1 5.27 11.57 5.28-3.79 5.27-2.41 5.27-.59 5.28 2.14 5.27-7.38 10.55 8.26 5.28-9.67 5.27 3.52" class="js-line" style="vector-effect:none;fill:none;stroke:#ef553b;stroke-opacity:1;stroke-dasharray:3px,3px;stroke-width:2px;opacity:1"/></g></g></g></g></g><path d="M950.7 577.5H1343M950.7 342.013H1343" class="xlines-above crisp" style="fill:none;stroke-width:1px;stroke:#000;stroke-opacity:1"/><path d="M951.2 342.513V577m391.3-234.487V577" class="ylines-above crisp" style="fill:none;stroke-width:1px;stroke:#000;stroke-opacity:1"/><g class="xaxislayer-above"><path d="M0 578v5" class="x6tick ticks crisp" style="stroke:#444;stroke-opacity:1;stroke-width:1px" transform="translate(1078.28)"/><path d="M0 578v5" class="x6tick ticks crisp" style="stroke:#444;stroke-opacity:1;stroke-width:1px" transform="translate(1210.14)"/><path d="M0 578v5" class="x6tick ticks crisp" style="stroke:#444;stroke-opacity:1;stroke-width:1px" transform="translate(1342)"/><text y="597.4" class="x6tick" style="font-family:&quot;Open Sans&quot;,verdana,arial,sans-serif;font-size:12px;fill:#000;fill-opacity:1;white-space:pre;opacity:1" text-anchor="middle" transform="translate(1078.28)">5</text><text y="597.4" class="x6tick" style="font-family:&quot;Open Sans&quot;,verdana,arial,sans-serif;font-size:12px;fill:#000;fill-opacity:1;white-space:pre;opacity:1" text-anchor="middle" transform="translate(1210.14)">10</text><text y="597.4" class="x6tick" style="font-family:&quot;Open Sans&quot;,verdana,arial,sans-serif;font-size:12px;fill:#000;fill-opacity:1;white-space:pre;opacity:1" text-anchor="middle" transform="translate(1342)">15</text></g><g class="yaxislayer-above"><path d="M950.7 0h-5" class="y6tick ticks crisp" style="stroke:#444;stroke-opacity:1;stroke-width:1px" transform="translate(0 565.273)"/><path d="M950.7 0h-5" class="y6tick ticks crisp" style="stroke:#444;stroke-opacity:1;stroke-width:1px" transform="translate(0 524.663)"/><path d="M950.7 0h-5" class="y6tick ticks crisp" style="stroke:#444;stroke-opacity:1;stroke-width:1px" transform="translate(0 484.063)"/><path d="M950.7 0h-5" class="y6tick ticks crisp" style="stroke:#444;stroke-opacity:1;stroke-width:1px" transform="translate(0 443.452)"/><path d="M950.7 0h-5" class="y6tick ticks crisp" style="stroke:#444;stroke-opacity:1;stroke-width:1px" transform="translate(0 402.842)"/><path d="M950.7 0h-5" class="y6tick ticks crisp" style="stroke:#444;stroke-opacity:1;stroke-width:1px" transform="translate(0 362.232)"/><text x="943.3" y="4.2" class="y6tick" style="font-family:&quot;Open Sans&quot;,verdana,arial,sans-serif;font-size:12px;fill:#000;fill-opacity:1;white-space:pre;opacity:1" text-anchor="end" transform="translate(0 565.273)">0</text><text x="943.3" y="4.2" class="y6tick" style="font-family:&quot;Open Sans&quot;,verdana,arial,sans-serif;font-size:12px;fill:#000;fill-opacity:1;white-space:pre;opacity:1" text-anchor="end" transform="translate(0 524.663)">1</text><text x="943.3" y="4.2" class="y6tick" style="font-family:&quot;Open Sans&quot;,verdana,arial,sans-serif;font-size:12px;fill:#000;fill-opacity:1;white-space:pre;opacity:1" text-anchor="end" transform="translate(0 484.063)">2</text><text x="943.3" y="4.2" class="y6tick" style="font-family:&quot;Open Sans&quot;,verdana,arial,sans-serif;font-size:12px;fill:#000;fill-opacity:1;white-space:pre;opacity:1" text-anchor="end" transform="translate(0 443.452)">3</text><text x="943.3" y="4.2" class="y6tick" style="font-family:&quot;Open Sans&quot;,verdana,arial,sans-serif;font-size:12px;fill:#000;fill-opacity:1;white-space:pre;opacity:1" text-anchor="end" transform="translate(0 402.842)">4</text><text x="943.3" y="4.2" class="y6tick" style="font-family:&quot;Open Sans&quot;,verdana,arial,sans-serif;font-size:12px;fill:#000;fill-opacity:1;white-space:pre;opacity:1" text-anchor="end" transform="translate(0 362.232)">5</text></g></g></g><defs><clipPath id="g"><path d="M0 0h220v32H0z"/></clipPath></defs><g class="infolayer"><g class="legend" pointer-events="all"><path d="M0 0h220v32H0z" class="bg" shape-rendering="crispEdges" style="stroke:#444;stroke-opacity:1;fill:#fff;fill-opacity:1;stroke-width:0" transform="translate(581.5 27.86)"/><g class="scrollbox" clip-path="url(#g)" transform="translate(581.5 27.86)"><g class="groups"><g class="traces" style="opacity:1"><text x="40" y="5.46" class="legendtext" style="font-family:&quot;Open Sans&quot;,verdana,arial,sans-serif;font-size:14px;fill:#000;fill-opacity:1;white-space:pre" transform="translate(0 15.6)">Crystal</text><g class="layers" style="opacity:1"><g class="legendlines"><path d="M5 0h30" class="js-line" style="fill:none;stroke:#636efa;stroke-opacity:1;stroke-width:2px" transform="translate(0 15.6)"/></g></g><path fill="none" d="M0-10.6h91.609v21.2H0z" class="legendtoggle" style="fill:#000;fill-opacity:0" transform="translate(0 15.6)"/></g></g><g class="groups"><g class="traces" style="opacity:1"><text x="40" y="5.46" class="legendtext" style="font-family:&quot;Open Sans&quot;,verdana,arial,sans-serif;font-size:14px;fill:#000;fill-opacity:1;white-space:pre" transform="translate(94.11 15.6)">Amorphous</text><g class="layers" style="opacity:1"><g class="legendlines"><path d="M5 0h30" class="js-line" style="fill:none;stroke:#ef553b;stroke-opacity:1;stroke-dasharray:3px,3px;stroke-width:2px" transform="translate(94.11 15.6)"/></g></g><path fill="none" d="M0-10.6h122.406v21.2H0z" class="legendtoggle" style="fill:#000;fill-opacity:0" transform="translate(94.11 15.6)"/></g></g></g></g><g class="g-gtitle"><text x="675" y="6" class="gtitle" dy=".7em" style="opacity:1;font-family:&quot;Open Sans&quot;,verdana,arial,sans-serif;font-size:17px;fill:#000;fill-opacity:1;white-space:pre" text-anchor="middle">Pairwise RDFs - LiPO4 Crystal vs Amorphous</text></g><g class="g-xtitle"><text x="236.15" y="351.691" class="xtitle" style="opacity:1;font-family:&quot;Open Sans&quot;,verdana,arial,sans-serif;font-size:14px;fill:#000;fill-opacity:1;white-space:pre" text-anchor="middle">r (Å)</text></g><g class="g-x2title"><text x="691.5" y="351.691" class="x2title" style="opacity:1;font-family:&quot;Open Sans&quot;,verdana,arial,sans-serif;font-size:14px;fill:#000;fill-opacity:1;white-space:pre" text-anchor="middle">r (Å)</text></g><g class="g-ytitle"><text x="5.569" y="187.244" class="ytitle" style="opacity:1;font-family:&quot;Open Sans&quot;,verdana,arial,sans-serif;font-size:14px;fill:#000;fill-opacity:1;white-space:pre" text-anchor="middle" transform="rotate(-90 9.789 183.024)">g(r)</text></g><g class="g-y4title"><text x="5.569" y="459.756" class="y4title" style="opacity:1;font-family:&quot;Open Sans&quot;,verdana,arial,sans-serif;font-size:14px;fill:#000;fill-opacity:1;white-space:pre" text-anchor="middle" transform="rotate(-90 9.788 455.538)">g(r)</text></g><g class="annotation" data-index="0" style="opacity:1"><g class="annotation-text-g"><g class="cursor-pointer"><path fill="none" d="M.5.5h37v23H.5z" class="bg" style="stroke-width:1px;stroke:#000;stroke-opacity:0;fill:#000;fill-opacity:0" transform="translate(217 46)"/><text x="18.938" y="18" class="annotation-text" style="font-family:&quot;Open Sans&quot;,verdana,arial,sans-serif;font-size:16px;fill:#000;fill-opacity:1;white-space:pre" text-anchor="middle" transform="translate(217 46)">Li-Li</text></g></g></g><g class="annotation" data-index="1" style="opacity:1"><g class="annotation-text-g"><g class="cursor-pointer"><path fill="none" d="M.5.5h36v23H.5z" class="bg" style="stroke-width:1px;stroke:#000;stroke-opacity:0;fill:#000;fill-opacity:0" transform="translate(673 46)"/><text x="18.578" y="18" class="annotation-text" style="font-family:&quot;Open Sans&quot;,verdana,arial,sans-serif;font-size:16px;fill:#000;fill-opacity:1;white-space:pre" text-anchor="middle" transform="translate(673 46)">Li-O</text></g></g></g><g class="annotation" data-index="2" style="opacity:1"><g class="annotation-text-g"><g class="cursor-pointer"><path fill="none" d="M.5.5h33v23H.5z" class="bg" style="stroke-width:1px;stroke:#000;stroke-opacity:0;fill:#000;fill-opacity:0" transform="translate(1130 46)"/><text x="17.109" y="18" class="annotation-text" style="font-family:&quot;Open Sans&quot;,verdana,arial,sans-serif;font-size:16px;fill:#000;fill-opacity:1;white-space:pre" text-anchor="middle" transform="translate(1130 46)">Li-P</text></g></g></g><g class="annotation" data-index="3" style="opacity:1"><g class="annotation-text-g"><g class="cursor-pointer"><path fill="none" d="M.5.5h35v23H.5z" class="bg" style="stroke-width:1px;stroke:#000;stroke-opacity:0;fill:#000;fill-opacity:0" transform="translate(218 319)"/><text x="18.234" y="18" class="annotation-text" style="font-family:&quot;Open Sans&quot;,verdana,arial,sans-serif;font-size:16px;fill:#000;fill-opacity:1;white-space:pre" text-anchor="middle" transform="translate(218 319)">O-O</text></g></g></g><g class="annotation" data-index="4" style="opacity:1"><g class="annotation-text-g"><g class="cursor-pointer"><path fill="none" d="M.5.5h33v23H.5z" class="bg" style="stroke-width:1px;stroke:#000;stroke-opacity:0;fill:#000;fill-opacity:0" transform="translate(674 319)"/><text x="16.766" y="18" class="annotation-text" style="font-family:&quot;Open Sans&quot;,verdana,arial,sans-serif;font-size:16px;fill:#000;fill-opacity:1;white-space:pre" text-anchor="middle" transform="translate(674 319)">O-P</text></g></g></g><g class="annotation" data-index="5" style="opacity:1"><g class="annotation-text-g"><g class="cursor-pointer"><path fill="none" d="M.5.5h30v23H.5z" class="bg" style="stroke-width:1px;stroke:#000;stroke-opacity:0;fill:#000;fill-opacity:0" transform="translate(1131 319)"/><text x="15.281" y="18" class="annotation-text" style="font-family:&quot;Open Sans&quot;,verdana,arial,sans-serif;font-size:16px;fill:#000;fill-opacity:1;white-space:pre" text-anchor="middle" transform="translate(1131 319)">P-P</text></g></g></g></g></svg>
