<svg class="main-svg" xmlns="http://www.w3.org/2000/svg" xmlns:xlink="http://www.w3.org/1999/xlink" width="1350" height="300" style="" viewBox="0 0 1350 300"><rect x="0" y="0" width="1350" height="300" style="fill: rgb(255, 255, 255); fill-opacity: 1;"/><defs id="defs-f9d838"><g class="clips"><clipPath id="clipf9d838xyplot" class="plotclip"><rect width="384" height="193"/></clipPath><clipPath id="clipf9d838x2y2plot" class="plotclip"><rect width="383.9999999999999" height="193"/></clipPath><clipPath id="clipf9d838x3y3plot" class="plotclip"><rect width="384.00000000000006" height="193"/></clipPath><clipPath class="axesclip" id="clipf9d838x"><rect x="52" y="0" width="384" height="300"/></clipPath><clipPath class="axesclip" id="clipf9d838y"><rect x="0" y="55" width="1350" height="193"/></clipPath><clipPath class="axesclip" id="clipf9d838xy"><rect x="52" y="55" width="384" height="193"/></clipPath><clipPath class="axesclip" id="clipf9d838y2"><rect x="0" y="55" width="1350" height="193"/></clipPath><clipPath class="axesclip" id="clipf9d838xy2"><rect x="52" y="55" width="384" height="193"/></clipPath><clipPath class="axesclip" id="clipf9d838y3"><rect x="0" y="55" width="1350" height="193"/></clipPath><clipPath class="axesclip" id="clipf9d838xy3"><rect x="52" y="55" width="384" height="193"/></clipPath><clipPath class="axesclip" id="clipf9d838x2"><rect x="500" y="0" width="383.9999999999999" height="300"/></clipPath><clipPath class="axesclip" id="clipf9d838x2y"><rect x="500" y="55" width="383.9999999999999" height="193"/></clipPath><clipPath class="axesclip" id="clipf9d838x2y2"><rect x="500" y="55" width="383.9999999999999" height="193"/></clipPath><clipPath class="axesclip" id="clipf9d838x2y3"><rect x="500" y="55" width="383.9999999999999" height="193"/></clipPath><clipPath class="axesclip" id="clipf9d838x3"><rect x="948" y="0" width="384.00000000000006" height="300"/></clipPath><clipPath class="axesclip" id="clipf9d838x3y"><rect x="948" y="55" width="384.00000000000006" height="193"/></clipPath><clipPath class="axesclip" id="clipf9d838x3y2"><rect x="948" y="55" width="384.00000000000006" height="193"/></clipPath><clipPath class="axesclip" id="clipf9d838x3y3"><rect x="948" y="55" width="384.00000000000006" height="193"/></clipPath></g><g class="gradients"/><g class="patterns"/></defs><g class="bglayer"/><g class="layer-below"><g class="imagelayer"/><g class="shapelayer"/></g><g class="cartesianlayer"><g class="subplot xy"><g class="layer-subplot"><g class="shapelayer"/><g class="imagelayer"/></g><g class="minor-gridlayer"><g class="x"/><g class="y"/></g><g class="gridlayer"><g class="x"><path class="xgrid crisp" transform="translate(125.7,0)" d="M0,55v193" style="stroke: rgb(211, 211, 211); stroke-opacity: 1; stroke-width: 1px;"/><path class="xgrid crisp" transform="translate(203.27,0)" d="M0,55v193" style="stroke: rgb(211, 211, 211); stroke-opacity: 1; stroke-width: 1px;"/><path class="xgrid crisp" transform="translate(280.85,0)" d="M0,55v193" style="stroke: rgb(211, 211, 211); stroke-opacity: 1; stroke-width: 1px;"/><path class="xgrid crisp" transform="translate(358.42,0)" d="M0,55v193" style="stroke: rgb(211, 211, 211); stroke-opacity: 1; stroke-width: 1px;"/></g><g class="y"><path class="ygrid crisp" transform="translate(0,187.8)" d="M52,0h384" style="stroke: rgb(211, 211, 211); stroke-opacity: 1; stroke-width: 1px;"/><path class="ygrid crisp" transform="translate(0,137.25)" d="M52,0h384" style="stroke: rgb(211, 211, 211); stroke-opacity: 1; stroke-width: 1px;"/><path class="ygrid crisp" transform="translate(0,86.7)" d="M52,0h384" style="stroke: rgb(211, 211, 211); stroke-opacity: 1; stroke-width: 1px;"/></g></g><g class="zerolinelayer"><path class="yzl zl crisp" transform="translate(0,238.35)" d="M52,0h384" style="stroke: rgb(235, 240, 248); stroke-opacity: 1; stroke-width: 2px;"/></g><g class="layer-between"><g class="shapelayer"/><g class="imagelayer"/></g><path class="xlines-below"/><path class="ylines-below"/><g class="overlines-below"/><g class="xaxislayer-below"/><g class="yaxislayer-below"/><g class="overaxes-below"/><g class="overplot"><g class="xy" transform="translate(52,55)" clip-path="url(#clipf9d838xyplot)"><g class="scatterlayer mlayer"><g class="trace scatter trace94215c" style="stroke-miterlimit: 2; opacity: 1;"><g class="fills"/><g class="errorbars"/><g class="lines"><path class="js-line" d="M0,183.35L93.09,183.35L96.97,9.65L100.85,183.35L104.73,183.35L143.52,183.35L147.39,131.88L155.15,183.35L159.03,183.35L178.42,183.35L182.3,166.36L190.06,136.38L193.94,123.16L197.82,183.35L201.7,183.35L213.33,183.35L217.21,159.26L221.09,160.08L224.97,183.35L236.61,183.35L240.48,163.63L244.36,154.68L248.24,164.82L252.12,183.35L256,183.35L263.76,183.35L267.64,151.4L271.52,136.76L275.39,183.35L279.27,176.01L283.15,183.35L287.03,183.35L290.91,169.8L298.67,170.48L302.55,183.35L306.42,183.35L310.3,171.42L314.18,171.71L318.06,183.35L325.82,183.35L329.7,167.47L333.58,162.67L337.45,132.81L341.33,163.58L345.21,183.35L349.09,164.44L352.97,178.73L356.85,183.35L360.73,174.49L364.61,170.34L368.48,170.61L372.36,175.03L376.24,167.05L380.12,183.35L384,183.35" style="vector-effect: none; fill: none; stroke: rgb(99, 110, 250); stroke-opacity: 1; stroke-width: 2px; opacity: 1;"/></g><g class="points"/><g class="text"/></g></g></g></g><path class="xlines-above crisp" d="M51,248.5H437M51,54.5H437" style="fill: none; stroke-width: 1px; stroke: rgb(0, 0, 0); stroke-opacity: 1;"/><path class="ylines-above crisp" d="M51.5,55V248M436.5,55V248" style="fill: none; stroke-width: 1px; stroke: rgb(0, 0, 0); stroke-opacity: 1;"/><g class="overlines-above"/><g class="xaxislayer-above"><path class="xtick ticks crisp" d="M0,249v5" transform="translate(125.7,0)" style="stroke: rgb(68, 68, 68); stroke-opacity: 1; stroke-width: 1px;"/><path class="xtick ticks crisp" d="M0,249v5" transform="translate(203.27,0)" style="stroke: rgb(68, 68, 68); stroke-opacity: 1; stroke-width: 1px;"/><path class="xtick ticks crisp" d="M0,249v5" transform="translate(280.85,0)" style="stroke: rgb(68, 68, 68); stroke-opacity: 1; stroke-width: 1px;"/><path class="xtick ticks crisp" d="M0,249v5" transform="translate(358.42,0)" style="stroke: rgb(68, 68, 68); stroke-opacity: 1; stroke-width: 1px;"/><path class="xtick ticks crisp" d="M0,249v5" transform="translate(436,0)" style="stroke: rgb(68, 68, 68); stroke-opacity: 1; stroke-width: 1px;"/><g class="xtick"><text text-anchor="middle" x="0" y="268.4" transform="translate(125.7,0)" style="font-family: 'Open Sans', verdana, arial, sans-serif; font-size: 12px; fill: rgb(0, 0, 0); fill-opacity: 1; white-space: pre; opacity: 1;">2</text></g><g class="xtick"><text text-anchor="middle" x="0" y="268.4" style="font-family: 'Open Sans', verdana, arial, sans-serif; font-size: 12px; fill: rgb(0, 0, 0); fill-opacity: 1; white-space: pre; opacity: 1;" transform="translate(203.27,0)">4</text></g><g class="xtick"><text text-anchor="middle" x="0" y="268.4" style="font-family: 'Open Sans', verdana, arial, sans-serif; font-size: 12px; fill: rgb(0, 0, 0); fill-opacity: 1; white-space: pre; opacity: 1;" transform="translate(280.85,0)">6</text></g><g class="xtick"><text text-anchor="middle" x="0" y="268.4" style="font-family: 'Open Sans', verdana, arial, sans-serif; font-size: 12px; fill: rgb(0, 0, 0); fill-opacity: 1; white-space: pre; opacity: 1;" transform="translate(358.42,0)">8</text></g><g class="xtick"><text text-anchor="middle" x="0" y="268.4" style="font-family: 'Open Sans', verdana, arial, sans-serif; font-size: 12px; fill: rgb(0, 0, 0); fill-opacity: 1; white-space: pre; opacity: 1;" transform="translate(436,0)">10</text></g></g><g class="yaxislayer-above"><path class="ytick ticks crisp" d="M51,0h-5" transform="translate(0,238.35)" style="stroke: rgb(68, 68, 68); stroke-opacity: 1; stroke-width: 1px;"/><path class="ytick ticks crisp" d="M51,0h-5" transform="translate(0,187.8)" style="stroke: rgb(68, 68, 68); stroke-opacity: 1; stroke-width: 1px;"/><path class="ytick ticks crisp" d="M51,0h-5" transform="translate(0,137.25)" style="stroke: rgb(68, 68, 68); stroke-opacity: 1; stroke-width: 1px;"/><path class="ytick ticks crisp" d="M51,0h-5" transform="translate(0,86.7)" style="stroke: rgb(68, 68, 68); stroke-opacity: 1; stroke-width: 1px;"/><g class="ytick"><text text-anchor="end" x="43.6" y="4.199999999999999" transform="translate(0,238.35)" style="font-family: 'Open Sans', verdana, arial, sans-serif; font-size: 12px; fill: rgb(0, 0, 0); fill-opacity: 1; white-space: pre; opacity: 1;">0</text></g><g class="ytick"><text text-anchor="end" x="43.6" y="4.199999999999999" style="font-family: 'Open Sans', verdana, arial, sans-serif; font-size: 12px; fill: rgb(0, 0, 0); fill-opacity: 1; white-space: pre; opacity: 1;" transform="translate(0,187.8)">5</text></g><g class="ytick"><text text-anchor="end" x="43.6" y="4.199999999999999" style="font-family: 'Open Sans', verdana, arial, sans-serif; font-size: 12px; fill: rgb(0, 0, 0); fill-opacity: 1; white-space: pre; opacity: 1;" transform="translate(0,137.25)">10</text></g><g class="ytick"><text text-anchor="end" x="43.6" y="4.199999999999999" style="font-family: 'Open Sans', verdana, arial, sans-serif; font-size: 12px; fill: rgb(0, 0, 0); fill-opacity: 1; white-space: pre; opacity: 1;" transform="translate(0,86.7)">15</text></g></g><g class="overaxes-above"/></g><g class="subplot x2y2"><g class="layer-subplot"><g class="shapelayer"/><g class="imagelayer"/></g><g class="minor-gridlayer"><g class="x2"/><g class="y2"/></g><g class="gridlayer"><g class="x2"><path class="x2grid crisp" transform="translate(573.7,0)" d="M0,55v193" style="stroke: rgb(211, 211, 211); stroke-opacity: 1; stroke-width: 1px;"/><path class="x2grid crisp" transform="translate(651.27,0)" d="M0,55v193" style="stroke: rgb(211, 211, 211); stroke-opacity: 1; stroke-width: 1px;"/><path class="x2grid crisp" transform="translate(728.85,0)" d="M0,55v193" style="stroke: rgb(211, 211, 211); stroke-opacity: 1; stroke-width: 1px;"/><path class="x2grid crisp" transform="translate(806.4200000000001,0)" d="M0,55v193" style="stroke: rgb(211, 211, 211); stroke-opacity: 1; stroke-width: 1px;"/></g><g class="y2"><path class="y2grid crisp" transform="translate(0,179.07)" d="M500,0h383.9999999999999" style="stroke: rgb(211, 211, 211); stroke-opacity: 1; stroke-width: 1px;"/><path class="y2grid crisp" transform="translate(0,119.79)" d="M500,0h383.9999999999999" style="stroke: rgb(211, 211, 211); stroke-opacity: 1; stroke-width: 1px;"/><path class="y2grid crisp" transform="translate(0,60.51)" d="M500,0h383.9999999999999" style="stroke: rgb(211, 211, 211); stroke-opacity: 1; stroke-width: 1px;"/></g></g><g class="zerolinelayer"><path class="y2zl zl crisp" transform="translate(0,238.35)" d="M500,0h383.9999999999999" style="stroke: rgb(235, 240, 248); stroke-opacity: 1; stroke-width: 2px;"/></g><g class="layer-between"><g class="shapelayer"/><g class="imagelayer"/></g><path class="xlines-below"/><path class="ylines-below"/><g class="overlines-below"/><g class="xaxislayer-below"/><g class="yaxislayer-below"/><g class="overaxes-below"/><g class="overplot"><g class="x2y2" transform="translate(500,55)" clip-path="url(#clipf9d838x2y2plot)"><g class="scatterlayer mlayer"><g class="trace scatter tracea31ce0" style="stroke-miterlimit: 2; opacity: 1;"><g class="fills"/><g class="errorbars"/><g class="lines"><path class="js-line" d="M0,183.35L54.3,183.35L58.18,9.65L62.06,183.35L65.94,183.35L131.88,183.35L135.76,149.04L139.64,183.35L143.52,183.35L147.39,154.11L151.27,183.35L155.15,183.35L159.03,158.14L162.91,183.35L166.79,183.35L178.42,183.35L182.3,164.05L186.18,183.35L190.06,183.35L193.94,166.25L197.82,166.91L201.7,183.35L205.58,183.35L209.45,168.65L213.33,169.17L217.21,169.66L221.09,183.35L224.97,183.35L228.85,171L232.73,183.35L236.61,183.35L240.48,172.15L244.36,172.49L256,173.44L259.88,183.35L271.52,183.35L275.39,174.77L279.27,183.35L283.15,175.23L287.03,175.44L290.91,183.35L294.79,175.85L298.67,176.04L302.55,183.35L306.42,169.45L310.3,183.35L314.18,183.35L321.94,170.75L325.82,158.73L329.7,183.35L333.58,177.48L337.45,183.35L341.33,177.74L352.97,178.1L356.85,167.93L360.73,183.35L364.61,173.5L368.48,183.35L372.36,173.9L376.24,183.35L380.12,178.81L384,183.35" style="vector-effect: none; fill: none; stroke: rgb(99, 110, 250); stroke-opacity: 1; stroke-width: 2px; opacity: 1;"/></g><g class="points"/><g class="text"/></g></g></g></g><path class="xlines-above crisp" d="M499,248.5H884.9999999999999M499,54.5H884.9999999999999" style="fill: none; stroke-width: 1px; stroke: rgb(0, 0, 0); stroke-opacity: 1;"/><path class="ylines-above crisp" d="M499.5,55V248M884.4999999999999,55V248" style="fill: none; stroke-width: 1px; stroke: rgb(0, 0, 0); stroke-opacity: 1;"/><g class="overlines-above"/><g class="xaxislayer-above"><path class="x2tick ticks crisp" d="M0,249v5" transform="translate(573.7,0)" style="stroke: rgb(68, 68, 68); stroke-opacity: 1; stroke-width: 1px;"/><path class="x2tick ticks crisp" d="M0,249v5" transform="translate(651.27,0)" style="stroke: rgb(68, 68, 68); stroke-opacity: 1; stroke-width: 1px;"/><path class="x2tick ticks crisp" d="M0,249v5" transform="translate(728.85,0)" style="stroke: rgb(68, 68, 68); stroke-opacity: 1; stroke-width: 1px;"/><path class="x2tick ticks crisp" d="M0,249v5" transform="translate(806.4200000000001,0)" style="stroke: rgb(68, 68, 68); stroke-opacity: 1; stroke-width: 1px;"/><path class="x2tick ticks crisp" d="M0,249v5" transform="translate(884,0)" style="stroke: rgb(68, 68, 68); stroke-opacity: 1; stroke-width: 1px;"/><g class="x2tick"><text text-anchor="middle" x="0" y="268.4" transform="translate(573.7,0)" style="font-family: 'Open Sans', verdana, arial, sans-serif; font-size: 12px; fill: rgb(0, 0, 0); fill-opacity: 1; white-space: pre; opacity: 1;">2</text></g><g class="x2tick"><text text-anchor="middle" x="0" y="268.4" style="font-family: 'Open Sans', verdana, arial, sans-serif; font-size: 12px; fill: rgb(0, 0, 0); fill-opacity: 1; white-space: pre; opacity: 1;" transform="translate(651.27,0)">4</text></g><g class="x2tick"><text text-anchor="middle" x="0" y="268.4" style="font-family: 'Open Sans', verdana, arial, sans-serif; font-size: 12px; fill: rgb(0, 0, 0); fill-opacity: 1; white-space: pre; opacity: 1;" transform="translate(728.85,0)">6</text></g><g class="x2tick"><text text-anchor="middle" x="0" y="268.4" style="font-family: 'Open Sans', verdana, arial, sans-serif; font-size: 12px; fill: rgb(0, 0, 0); fill-opacity: 1; white-space: pre; opacity: 1;" transform="translate(806.4200000000001,0)">8</text></g><g class="x2tick"><text text-anchor="middle" x="0" y="268.4" style="font-family: 'Open Sans', verdana, arial, sans-serif; font-size: 12px; fill: rgb(0, 0, 0); fill-opacity: 1; white-space: pre; opacity: 1;" transform="translate(884,0)">10</text></g></g><g class="yaxislayer-above"><path class="y2tick ticks crisp" d="M499,0h-5" transform="translate(0,238.35)" style="stroke: rgb(68, 68, 68); stroke-opacity: 1; stroke-width: 1px;"/><path class="y2tick ticks crisp" d="M499,0h-5" transform="translate(0,179.07)" style="stroke: rgb(68, 68, 68); stroke-opacity: 1; stroke-width: 1px;"/><path class="y2tick ticks crisp" d="M499,0h-5" transform="translate(0,119.79)" style="stroke: rgb(68, 68, 68); stroke-opacity: 1; stroke-width: 1px;"/><path class="y2tick ticks crisp" d="M499,0h-5" transform="translate(0,60.51)" style="stroke: rgb(68, 68, 68); stroke-opacity: 1; stroke-width: 1px;"/><g class="y2tick"><text text-anchor="end" x="491.6" y="4.199999999999999" transform="translate(0,238.35)" style="font-family: 'Open Sans', verdana, arial, sans-serif; font-size: 12px; fill: rgb(0, 0, 0); fill-opacity: 1; white-space: pre; opacity: 1;">0</text></g><g class="y2tick"><text text-anchor="end" x="491.6" y="4.199999999999999" style="font-family: 'Open Sans', verdana, arial, sans-serif; font-size: 12px; fill: rgb(0, 0, 0); fill-opacity: 1; white-space: pre; opacity: 1;" transform="translate(0,179.07)">10</text></g><g class="y2tick"><text text-anchor="end" x="491.6" y="4.199999999999999" style="font-family: 'Open Sans', verdana, arial, sans-serif; font-size: 12px; fill: rgb(0, 0, 0); fill-opacity: 1; white-space: pre; opacity: 1;" transform="translate(0,119.79)">20</text></g><g class="y2tick"><text text-anchor="end" x="491.6" y="4.199999999999999" style="font-family: 'Open Sans', verdana, arial, sans-serif; font-size: 12px; fill: rgb(0, 0, 0); fill-opacity: 1; white-space: pre; opacity: 1;" transform="translate(0,60.51)">30</text></g></g><g class="overaxes-above"/></g><g class="subplot x3y3"><g class="layer-subplot"><g class="shapelayer"/><g class="imagelayer"/></g><g class="minor-gridlayer"><g class="x3"/><g class="y3"/></g><g class="gridlayer"><g class="x3"><path class="x3grid crisp" transform="translate(1021.7,0)" d="M0,55v193" style="stroke: rgb(211, 211, 211); stroke-opacity: 1; stroke-width: 1px;"/><path class="x3grid crisp" transform="translate(1099.27,0)" d="M0,55v193" style="stroke: rgb(211, 211, 211); stroke-opacity: 1; stroke-width: 1px;"/><path class="x3grid crisp" transform="translate(1176.85,0)" d="M0,55v193" style="stroke: rgb(211, 211, 211); stroke-opacity: 1; stroke-width: 1px;"/><path class="x3grid crisp" transform="translate(1254.42,0)" d="M0,55v193" style="stroke: rgb(211, 211, 211); stroke-opacity: 1; stroke-width: 1px;"/></g><g class="y3"><path class="y3grid crisp" transform="translate(0,186.19)" d="M948,0h384.00000000000006" style="stroke: rgb(211, 211, 211); stroke-opacity: 1; stroke-width: 1px;"/><path class="y3grid crisp" transform="translate(0,134.04000000000002)" d="M948,0h384.00000000000006" style="stroke: rgb(211, 211, 211); stroke-opacity: 1; stroke-width: 1px;"/><path class="y3grid crisp" transform="translate(0,81.88)" d="M948,0h384.00000000000006" style="stroke: rgb(211, 211, 211); stroke-opacity: 1; stroke-width: 1px;"/></g></g><g class="zerolinelayer"><path class="y3zl zl crisp" transform="translate(0,238.35)" d="M948,0h384.00000000000006" style="stroke: rgb(235, 240, 248); stroke-opacity: 1; stroke-width: 2px;"/></g><g class="layer-between"><g class="shapelayer"/><g class="imagelayer"/></g><path class="xlines-below"/><path class="ylines-below"/><g class="overlines-below"/><g class="xaxislayer-below"/><g class="yaxislayer-below"/><g class="overaxes-below"/><g class="overplot"><g class="x3y3" transform="translate(948,55)" clip-path="url(#clipf9d838x3y3plot)"><g class="scatterlayer mlayer"><g class="trace scatter trace8774a6" style="stroke-miterlimit: 2; opacity: 1;"><g class="fills"/><g class="errorbars"/><g class="lines"><path class="js-line" d="M0,183.35L112.48,183.35L116.36,9.65L120.24,183.35L124.12,183.35L186.18,183.35L190.06,116.58L193.94,54.99L197.82,183.35L221.09,183.35L224.97,87.44L232.73,183.35L236.61,183.35L267.64,183.35L271.52,150.24L275.39,183.35L279.27,167.69L283.15,183.35L287.03,183.35L294.79,183.35L298.67,155.91L302.55,129.86L306.42,183.35L333.58,183.35L337.45,97.13L345.21,183.35L349.09,183.35L352.97,153.77L356.85,154.4L360.73,183.35L364.61,164.85L368.48,183.35L372.36,183.35L384,183.35" style="vector-effect: none; fill: none; stroke: rgb(99, 110, 250); stroke-opacity: 1; stroke-width: 2px; opacity: 1;"/></g><g class="points"/><g class="text"/></g></g></g></g><path class="xlines-above crisp" d="M947,248.5H1333M947,54.5H1333" style="fill: none; stroke-width: 1px; stroke: rgb(0, 0, 0); stroke-opacity: 1;"/><path class="ylines-above crisp" d="M947.5,55V248M1332.5,55V248" style="fill: none; stroke-width: 1px; stroke: rgb(0, 0, 0); stroke-opacity: 1;"/><g class="overlines-above"/><g class="xaxislayer-above"><path class="x3tick ticks crisp" d="M0,249v5" transform="translate(1021.7,0)" style="stroke: rgb(68, 68, 68); stroke-opacity: 1; stroke-width: 1px;"/><path class="x3tick ticks crisp" d="M0,249v5" transform="translate(1099.27,0)" style="stroke: rgb(68, 68, 68); stroke-opacity: 1; stroke-width: 1px;"/><path class="x3tick ticks crisp" d="M0,249v5" transform="translate(1176.85,0)" style="stroke: rgb(68, 68, 68); stroke-opacity: 1; stroke-width: 1px;"/><path class="x3tick ticks crisp" d="M0,249v5" transform="translate(1254.42,0)" style="stroke: rgb(68, 68, 68); stroke-opacity: 1; stroke-width: 1px;"/><path class="x3tick ticks crisp" d="M0,249v5" transform="translate(1332,0)" style="stroke: rgb(68, 68, 68); stroke-opacity: 1; stroke-width: 1px;"/><g class="x3tick"><text text-anchor="middle" x="0" y="268.4" transform="translate(1021.7,0)" style="font-family: 'Open Sans', verdana, arial, sans-serif; font-size: 12px; fill: rgb(0, 0, 0); fill-opacity: 1; white-space: pre; opacity: 1;">2</text></g><g class="x3tick"><text text-anchor="middle" x="0" y="268.4" style="font-family: 'Open Sans', verdana, arial, sans-serif; font-size: 12px; fill: rgb(0, 0, 0); fill-opacity: 1; white-space: pre; opacity: 1;" transform="translate(1099.27,0)">4</text></g><g class="x3tick"><text text-anchor="middle" x="0" y="268.4" style="font-family: 'Open Sans', verdana, arial, sans-serif; font-size: 12px; fill: rgb(0, 0, 0); fill-opacity: 1; white-space: pre; opacity: 1;" transform="translate(1176.85,0)">6</text></g><g class="x3tick"><text text-anchor="middle" x="0" y="268.4" style="font-family: 'Open Sans', verdana, arial, sans-serif; font-size: 12px; fill: rgb(0, 0, 0); fill-opacity: 1; white-space: pre; opacity: 1;" transform="translate(1254.42,0)">8</text></g><g class="x3tick"><text text-anchor="middle" x="0" y="268.4" style="font-family: 'Open Sans', verdana, arial, sans-serif; font-size: 12px; fill: rgb(0, 0, 0); fill-opacity: 1; white-space: pre; opacity: 1;" transform="translate(1332,0)">10</text></g></g><g class="yaxislayer-above"><path class="y3tick ticks crisp" d="M947,0h-5" transform="translate(0,238.35)" style="stroke: rgb(68, 68, 68); stroke-opacity: 1; stroke-width: 1px;"/><path class="y3tick ticks crisp" d="M947,0h-5" transform="translate(0,186.19)" style="stroke: rgb(68, 68, 68); stroke-opacity: 1; stroke-width: 1px;"/><path class="y3tick ticks crisp" d="M947,0h-5" transform="translate(0,134.04000000000002)" style="stroke: rgb(68, 68, 68); stroke-opacity: 1; stroke-width: 1px;"/><path class="y3tick ticks crisp" d="M947,0h-5" transform="translate(0,81.88)" style="stroke: rgb(68, 68, 68); stroke-opacity: 1; stroke-width: 1px;"/><g class="y3tick"><text text-anchor="end" x="939.6" y="4.199999999999999" transform="translate(0,238.35)" style="font-family: 'Open Sans', verdana, arial, sans-serif; font-size: 12px; fill: rgb(0, 0, 0); fill-opacity: 1; white-space: pre; opacity: 1;">0</text></g><g class="y3tick"><text text-anchor="end" x="939.6" y="4.199999999999999" style="font-family: 'Open Sans', verdana, arial, sans-serif; font-size: 12px; fill: rgb(0, 0, 0); fill-opacity: 1; white-space: pre; opacity: 1;" transform="translate(0,186.19)">5</text></g><g class="y3tick"><text text-anchor="end" x="939.6" y="4.199999999999999" style="font-family: 'Open Sans', verdana, arial, sans-serif; font-size: 12px; fill: rgb(0, 0, 0); fill-opacity: 1; white-space: pre; opacity: 1;" transform="translate(0,134.04000000000002)">10</text></g><g class="y3tick"><text text-anchor="end" x="939.6" y="4.199999999999999" style="font-family: 'Open Sans', verdana, arial, sans-serif; font-size: 12px; fill: rgb(0, 0, 0); fill-opacity: 1; white-space: pre; opacity: 1;" transform="translate(0,81.88)">15</text></g></g><g class="overaxes-above"/></g></g><g class="polarlayer"/><g class="smithlayer"/><g class="ternarylayer"/><g class="geolayer"/><g class="funnelarealayer"/><g class="pielayer"/><g class="iciclelayer"/><g class="treemaplayer"/><g class="sunburstlayer"/><g class="glimages"/><defs id="topdefs-f9d838"><g class="clips"/></defs><g class="layer-above"><g class="imagelayer"/><g class="shapelayer"/></g><g class="infolayer"><g class="g-gtitle"><text class="gtitle" x="675" y="3" text-anchor="middle" dy="0.7em" style="opacity: 1; font-family: 'Open Sans', verdana, arial, sans-serif; font-size: 17px; fill: rgb(0, 0, 0); fill-opacity: 1; white-space: pre;">Pairwise RDFs - Si16 O32</text></g><g class="g-xtitle"><text class="xtitle" x="244" y="289.20625" text-anchor="middle" style="opacity: 1; font-family: 'Open Sans', verdana, arial, sans-serif; font-size: 14px; fill: rgb(0, 0, 0); fill-opacity: 1; white-space: pre;">r (Å)</text></g><g class="g-x2title"><text class="x2title" x="692" y="289.20625" text-anchor="middle" style="opacity: 1; font-family: 'Open Sans', verdana, arial, sans-serif; font-size: 14px; fill: rgb(0, 0, 0); fill-opacity: 1; white-space: pre;">r (Å)</text></g><g class="g-x3title"><text class="x3title" x="1140" y="289.20625" text-anchor="middle" style="opacity: 1; font-family: 'Open Sans', verdana, arial, sans-serif; font-size: 14px; fill: rgb(0, 0, 0); fill-opacity: 1; white-space: pre;">r (Å)</text></g><g class="g-ytitle"><text class="ytitle" transform="rotate(-90,14.928125000000001,151.5)" x="14.928125000000001" y="151.5" text-anchor="middle" style="opacity: 1; font-family: 'Open Sans', verdana, arial, sans-serif; font-size: 14px; fill: rgb(0, 0, 0); fill-opacity: 1; white-space: pre;">g(r)</text></g><g class="g-y2title"/><g class="g-y3title"/><g class="annotation" data-index="0" style="opacity: 1;"><g class="annotation-text-g" transform="rotate(0,244,43)"><g class="cursor-pointer" transform="translate(226,31)"><rect class="bg" x="0.5" y="0.5" width="35" height="23" style="stroke-width: 1px; stroke: rgb(0, 0, 0); stroke-opacity: 0; fill: rgb(0, 0, 0); fill-opacity: 0;"/><text class="annotation-text" text-anchor="middle" x="18.234375" y="18" style="font-family: 'Open Sans', verdana, arial, sans-serif; font-size: 16px; fill: rgb(0, 0, 0); fill-opacity: 1; white-space: pre;">O-O</text></g></g></g><g class="annotation" data-index="1" style="opacity: 1;"><g class="annotation-text-g" transform="rotate(0,691.9999999999999,43)"><g class="cursor-pointer" transform="translate(672,31)"><rect class="bg" x="0.5" y="0.5" width="38" height="23" style="stroke-width: 1px; stroke: rgb(0, 0, 0); stroke-opacity: 0; fill: rgb(0, 0, 0); fill-opacity: 0;"/><text class="annotation-text" text-anchor="middle" x="19.59375" y="18" style="font-family: 'Open Sans', verdana, arial, sans-serif; font-size: 16px; fill: rgb(0, 0, 0); fill-opacity: 1; white-space: pre;">O-Si</text></g></g></g><g class="annotation" data-index="2" style="opacity: 1;"><g class="annotation-text-g" transform="rotate(0,1140,43)"><g class="cursor-pointer" transform="translate(1119,31)"><rect class="bg" x="0.5" y="0.5" width="41" height="23" style="stroke-width: 1px; stroke: rgb(0, 0, 0); stroke-opacity: 0; fill: rgb(0, 0, 0); fill-opacity: 0;"/><text class="annotation-text" text-anchor="middle" x="20.96875" y="18" style="font-family: 'Open Sans', verdana, arial, sans-serif; font-size: 16px; fill: rgb(0, 0, 0); fill-opacity: 1; white-space: pre;">Si-Si</text></g></g></g></g></svg>