<svg xmlns="http://www.w3.org/2000/svg" width="1350" height="600" class="main-svg"><path d="M0 0h1350v600H0z" style="fill:#fff;fill-opacity:1"/><defs><clipPath id="a" class="plotclip"><path d="M0 0h369.6v243.738H0z"/></clipPath><clipPath id="b" class="plotclip"><path d="M0 0h369.6v243.738H0z"/></clipPath><clipPath id="c" class="plotclip"><path d="M0 0h369.6v243.738H0z"/></clipPath><clipPath id="d" class="plotclip"><path d="M0 0h369.6v243.738H0z"/></clipPath><clipPath id="e" class="plotclip"><path d="M0 0h369.6v243.738H0z"/></clipPath><clipPath id="f" class="plotclip"><path d="M0 0h369.6v243.738H0z"/></clipPath></defs><g class="cartesianlayer"><g class="subplot xy"><g class="gridlayer"><g class="x"><path d="M0 50v243.738" class="xgrid crisp" style="stroke:#d3d3d3;stroke-opacity:1;stroke-width:1px" transform="translate(118.93)"/><path d="M0 50v243.738" class="xgrid crisp" style="stroke:#d3d3d3;stroke-opacity:1;stroke-width:1px" transform="translate(193.6)"/><path d="M0 50v243.738" class="xgrid crisp" style="stroke:#d3d3d3;stroke-opacity:1;stroke-width:1px" transform="translate(268.27)"/><path d="M0 50v243.738" class="xgrid crisp" style="stroke:#d3d3d3;stroke-opacity:1;stroke-width:1px" transform="translate(342.93)"/></g><g class="y"><path d="M48 0h369.6" class="ygrid crisp" style="stroke:#d3d3d3;stroke-opacity:1;stroke-width:1px" transform="translate(0 230.4)"/><path d="M48 0h369.6" class="ygrid crisp" style="stroke:#d3d3d3;stroke-opacity:1;stroke-width:1px" transform="translate(0 179.26)"/><path d="M48 0h369.6" class="ygrid crisp" style="stroke:#d3d3d3;stroke-opacity:1;stroke-width:1px" transform="translate(0 128.11)"/><path d="M48 0h369.6" class="ygrid crisp" style="stroke:#d3d3d3;stroke-opacity:1;stroke-width:1px" transform="translate(0 76.96)"/></g></g><g class="zerolinelayer"><path d="M48 0h369.6" class="yzl zl crisp" style="stroke:#ebf0f8;stroke-opacity:1;stroke-width:2px" transform="translate(0 281.55)"/></g><g class="overplot"><g class="xy" clip-path="url(#a)" transform="translate(48 50)"><g class="scatterlayer mlayer"><g class="trace scatter trace45f7a6" style="stroke-miterlimit:2;opacity:1"><g class="lines"><path d="M0 231.55h141.87l3.73-219.36 3.73 219.36h52.27l3.73-111.92 3.74 3.89 3.73 108.03h37.33l3.74-73.72 3.73 73.72 3.73-23.21 3.74 23.21h59.73l3.73-88.62 3.74 1.96 3.73 86.66h18.67l3.73-37.3 3.73-35.79 3.74 37.28 3.73 35.81" class="js-line" style="vector-effect:none;fill:none;stroke:#636efa;stroke-opacity:1;stroke-width:2px;opacity:1"/></g></g></g></g></g><path d="M47 294.238h371.6M47 49.5h371.6" class="xlines-above crisp" style="fill:none;stroke-width:1px;stroke:#000;stroke-opacity:1"/><path d="M47.5 50v243.738M418.1 50v243.738" class="ylines-above crisp" style="fill:none;stroke-width:1px;stroke:#000;stroke-opacity:1"/><g class="xaxislayer-above"><path d="M0 294.738v5" class="xtick ticks crisp" style="stroke:#444;stroke-opacity:1;stroke-width:1px" transform="translate(118.93)"/><path d="M0 294.738v5" class="xtick ticks crisp" style="stroke:#444;stroke-opacity:1;stroke-width:1px" transform="translate(193.6)"/><path d="M0 294.738v5" class="xtick ticks crisp" style="stroke:#444;stroke-opacity:1;stroke-width:1px" transform="translate(268.27)"/><path d="M0 294.738v5" class="xtick ticks crisp" style="stroke:#444;stroke-opacity:1;stroke-width:1px" transform="translate(342.93)"/><path d="M0 294.738v5" class="xtick ticks crisp" style="stroke:#444;stroke-opacity:1;stroke-width:1px" transform="translate(417.6)"/><text y="314.137" class="xtick" style="font-family:&quot;Open Sans&quot;,verdana,arial,sans-serif;font-size:12px;fill:#000;fill-opacity:1;white-space:pre;opacity:1" text-anchor="middle" transform="translate(118.93)">2</text><text y="314.137" class="xtick" style="font-family:&quot;Open Sans&quot;,verdana,arial,sans-serif;font-size:12px;fill:#000;fill-opacity:1;white-space:pre;opacity:1" text-anchor="middle" transform="translate(193.6)">4</text><text y="314.137" class="xtick" style="font-family:&quot;Open Sans&quot;,verdana,arial,sans-serif;font-size:12px;fill:#000;fill-opacity:1;white-space:pre;opacity:1" text-anchor="middle" transform="translate(268.27)">6</text><text y="314.137" class="xtick" style="font-family:&quot;Open Sans&quot;,verdana,arial,sans-serif;font-size:12px;fill:#000;fill-opacity:1;white-space:pre;opacity:1" text-anchor="middle" transform="translate(342.93)">8</text><text y="314.137" class="xtick" style="font-family:&quot;Open Sans&quot;,verdana,arial,sans-serif;font-size:12px;fill:#000;fill-opacity:1;white-space:pre;opacity:1" text-anchor="middle" transform="translate(417.6)">10</text></g><g class="yaxislayer-above"><path d="M47 0h-5" class="ytick ticks crisp" style="stroke:#444;stroke-opacity:1;stroke-width:1px" transform="translate(0 281.55)"/><path d="M47 0h-5" class="ytick ticks crisp" style="stroke:#444;stroke-opacity:1;stroke-width:1px" transform="translate(0 230.4)"/><path d="M47 0h-5" class="ytick ticks crisp" style="stroke:#444;stroke-opacity:1;stroke-width:1px" transform="translate(0 179.26)"/><path d="M47 0h-5" class="ytick ticks crisp" style="stroke:#444;stroke-opacity:1;stroke-width:1px" transform="translate(0 128.11)"/><path d="M47 0h-5" class="ytick ticks crisp" style="stroke:#444;stroke-opacity:1;stroke-width:1px" transform="translate(0 76.96)"/><text x="39.6" y="4.2" class="ytick" style="font-family:&quot;Open Sans&quot;,verdana,arial,sans-serif;font-size:12px;fill:#000;fill-opacity:1;white-space:pre;opacity:1" text-anchor="end" transform="translate(0 281.55)">0</text><text x="39.6" y="4.2" class="ytick" style="font-family:&quot;Open Sans&quot;,verdana,arial,sans-serif;font-size:12px;fill:#000;fill-opacity:1;white-space:pre;opacity:1" text-anchor="end" transform="translate(0 230.4)">5</text><text x="39.6" y="4.2" class="ytick" style="font-family:&quot;Open Sans&quot;,verdana,arial,sans-serif;font-size:12px;fill:#000;fill-opacity:1;white-space:pre;opacity:1" text-anchor="end" transform="translate(0 179.26)">10</text><text x="39.6" y="4.2" class="ytick" style="font-family:&quot;Open Sans&quot;,verdana,arial,sans-serif;font-size:12px;fill:#000;fill-opacity:1;white-space:pre;opacity:1" text-anchor="end" transform="translate(0 128.11)">15</text><text x="39.6" y="4.2" class="ytick" style="font-family:&quot;Open Sans&quot;,verdana,arial,sans-serif;font-size:12px;fill:#000;fill-opacity:1;white-space:pre;opacity:1" text-anchor="end" transform="translate(0 76.96)">20</text></g></g><g class="subplot x2y2"><g class="gridlayer"><g class="x2"><path d="M0 50v243.738" class="x2grid crisp" style="stroke:#d3d3d3;stroke-opacity:1;stroke-width:1px" transform="translate(550.13)"/><path d="M0 50v243.738" class="x2grid crisp" style="stroke:#d3d3d3;stroke-opacity:1;stroke-width:1px" transform="translate(624.8)"/><path d="M0 50v243.738" class="x2grid crisp" style="stroke:#d3d3d3;stroke-opacity:1;stroke-width:1px" transform="translate(699.47)"/><path d="M0 50v243.738" class="x2grid crisp" style="stroke:#d3d3d3;stroke-opacity:1;stroke-width:1px" transform="translate(774.13)"/></g><g class="y2"><path d="M479.2 0h369.6" class="y2grid crisp" style="stroke:#d3d3d3;stroke-opacity:1;stroke-width:1px" transform="translate(0 218.2)"/><path d="M479.2 0h369.6" class="y2grid crisp" style="stroke:#d3d3d3;stroke-opacity:1;stroke-width:1px" transform="translate(0 154.85)"/><path d="M479.2 0h369.6" class="y2grid crisp" style="stroke:#d3d3d3;stroke-opacity:1;stroke-width:1px" transform="translate(0 91.5)"/></g></g><g class="zerolinelayer"><path d="M479.2 0h369.6" class="y2zl zl crisp" style="stroke:#ebf0f8;stroke-opacity:1;stroke-width:2px" transform="translate(0 281.55)"/></g><g class="overplot"><g class="x2y2" clip-path="url(#b)" transform="translate(479.2 50)"><g class="scatterlayer mlayer"><g class="trace scatter trace1b4cb6" style="stroke-miterlimit:2;opacity:1"><g class="lines"><path d="M0 231.55h119.47l3.73-219.36 3.73 64.1 3.74 155.26 3.73-46.31 3.73 46.31h100.8l3.74-218.31 3.73 133.58 3.73 43.6 3.74 41.13h59.73l3.73-51.43 3.74-49.08 3.73 75.95 3.73 24.56 3.74-23.48 3.73 23.48h33.6" class="js-line" style="vector-effect:none;fill:none;stroke:#636efa;stroke-opacity:1;stroke-width:2px;opacity:1"/></g></g></g></g></g><path d="M478.2 294.238h371.6M478.2 49.5h371.6" class="xlines-above crisp" style="fill:none;stroke-width:1px;stroke:#000;stroke-opacity:1"/><path d="M478.7 50v243.738M849.3 50v243.738" class="ylines-above crisp" style="fill:none;stroke-width:1px;stroke:#000;stroke-opacity:1"/><g class="xaxislayer-above"><path d="M0 294.738v5" class="x2tick ticks crisp" style="stroke:#444;stroke-opacity:1;stroke-width:1px" transform="translate(550.13)"/><path d="M0 294.738v5" class="x2tick ticks crisp" style="stroke:#444;stroke-opacity:1;stroke-width:1px" transform="translate(624.8)"/><path d="M0 294.738v5" class="x2tick ticks crisp" style="stroke:#444;stroke-opacity:1;stroke-width:1px" transform="translate(699.47)"/><path d="M0 294.738v5" class="x2tick ticks crisp" style="stroke:#444;stroke-opacity:1;stroke-width:1px" transform="translate(774.13)"/><path d="M0 294.738v5" class="x2tick ticks crisp" style="stroke:#444;stroke-opacity:1;stroke-width:1px" transform="translate(848.8)"/><text y="314.137" class="x2tick" style="font-family:&quot;Open Sans&quot;,verdana,arial,sans-serif;font-size:12px;fill:#000;fill-opacity:1;white-space:pre;opacity:1" text-anchor="middle" transform="translate(550.13)">2</text><text y="314.137" class="x2tick" style="font-family:&quot;Open Sans&quot;,verdana,arial,sans-serif;font-size:12px;fill:#000;fill-opacity:1;white-space:pre;opacity:1" text-anchor="middle" transform="translate(624.8)">4</text><text y="314.137" class="x2tick" style="font-family:&quot;Open Sans&quot;,verdana,arial,sans-serif;font-size:12px;fill:#000;fill-opacity:1;white-space:pre;opacity:1" text-anchor="middle" transform="translate(699.47)">6</text><text y="314.137" class="x2tick" style="font-family:&quot;Open Sans&quot;,verdana,arial,sans-serif;font-size:12px;fill:#000;fill-opacity:1;white-space:pre;opacity:1" text-anchor="middle" transform="translate(774.13)">8</text><text y="314.137" class="x2tick" style="font-family:&quot;Open Sans&quot;,verdana,arial,sans-serif;font-size:12px;fill:#000;fill-opacity:1;white-space:pre;opacity:1" text-anchor="middle" transform="translate(848.8)">10</text></g><g class="yaxislayer-above"><path d="M478.2 0h-5" class="y2tick ticks crisp" style="stroke:#444;stroke-opacity:1;stroke-width:1px" transform="translate(0 281.55)"/><path d="M478.2 0h-5" class="y2tick ticks crisp" style="stroke:#444;stroke-opacity:1;stroke-width:1px" transform="translate(0 218.2)"/><path d="M478.2 0h-5" class="y2tick ticks crisp" style="stroke:#444;stroke-opacity:1;stroke-width:1px" transform="translate(0 154.85)"/><path d="M478.2 0h-5" class="y2tick ticks crisp" style="stroke:#444;stroke-opacity:1;stroke-width:1px" transform="translate(0 91.5)"/><text x="470.8" y="4.2" class="y2tick" style="font-family:&quot;Open Sans&quot;,verdana,arial,sans-serif;font-size:12px;fill:#000;fill-opacity:1;white-space:pre;opacity:1" text-anchor="end" transform="translate(0 281.55)">0</text><text x="470.8" y="4.2" class="y2tick" style="font-family:&quot;Open Sans&quot;,verdana,arial,sans-serif;font-size:12px;fill:#000;fill-opacity:1;white-space:pre;opacity:1" text-anchor="end" transform="translate(0 218.2)">5</text><text x="470.8" y="4.2" class="y2tick" style="font-family:&quot;Open Sans&quot;,verdana,arial,sans-serif;font-size:12px;fill:#000;fill-opacity:1;white-space:pre;opacity:1" text-anchor="end" transform="translate(0 154.85)">10</text><text x="470.8" y="4.2" class="y2tick" style="font-family:&quot;Open Sans&quot;,verdana,arial,sans-serif;font-size:12px;fill:#000;fill-opacity:1;white-space:pre;opacity:1" text-anchor="end" transform="translate(0 91.5)">15</text></g></g><g class="subplot x3y3"><g class="gridlayer"><g class="x3"><path d="M0 50v243.738" class="x3grid crisp" style="stroke:#d3d3d3;stroke-opacity:1;stroke-width:1px" transform="translate(981.33)"/><path d="M0 50v243.738" class="x3grid crisp" style="stroke:#d3d3d3;stroke-opacity:1;stroke-width:1px" transform="translate(1056)"/><path d="M0 50v243.738" class="x3grid crisp" style="stroke:#d3d3d3;stroke-opacity:1;stroke-width:1px" transform="translate(1130.67)"/><path d="M0 50v243.738" class="x3grid crisp" style="stroke:#d3d3d3;stroke-opacity:1;stroke-width:1px" transform="translate(1205.33)"/></g><g class="y3"><path d="M910.4 0H1280" class="y3grid crisp" style="stroke:#d3d3d3;stroke-opacity:1;stroke-width:1px" transform="translate(0 236.66)"/><path d="M910.4 0H1280" class="y3grid crisp" style="stroke:#d3d3d3;stroke-opacity:1;stroke-width:1px" transform="translate(0 191.77)"/><path d="M910.4 0H1280" class="y3grid crisp" style="stroke:#d3d3d3;stroke-opacity:1;stroke-width:1px" transform="translate(0 146.87)"/><path d="M910.4 0H1280" class="y3grid crisp" style="stroke:#d3d3d3;stroke-opacity:1;stroke-width:1px" transform="translate(0 101.98)"/><path d="M910.4 0H1280" class="y3grid crisp" style="stroke:#d3d3d3;stroke-opacity:1;stroke-width:1px" transform="translate(0 57.09)"/></g></g><g class="zerolinelayer"><path d="M910.4 0H1280" class="y3zl zl crisp" style="stroke:#ebf0f8;stroke-opacity:1;stroke-width:2px" transform="translate(0 281.55)"/></g><g class="overplot"><g class="x3y3" clip-path="url(#c)" transform="translate(910.4 50)"><g class="scatterlayer mlayer"><g class="trace scatter trace075f8c" style="stroke-miterlimit:2;opacity:1"><g class="lines"><path d="M0 231.55h85.87l3.73-179.7 3.73 13.56 3.74 166.14H112l3.73-219.36 3.74 219.36h41.06l3.74-55.46 3.73 55.46 3.73-50.84 3.74 50.84 3.73-140.33 3.73 95.4 3.74 44.93h3.73l3.73-79.97 3.74 79.97h11.2l3.73-33.39 3.73 1.13 3.74 32.26 3.73-30.18 3.73 30.18 3.74-28.3 3.73 28.3 3.73-53.17 3.74 53.17h3.73l3.73-48.58 3.74 48.58 3.73-22.92 3.73-21.64 3.74 1.23 3.73 43.33 3.73-41.02 3.74 1.09 3.73 20.49 3.73-37.39 3.74 38.37 3.73 18.46 3.73-35.1 3.74 17.98 3.73.42 3.73-15.91 3.74.78 3.73 16.29 3.73.35 3.74 15.19 3.73-29.01 3.73-13.53 3.74 42.54 7.46-26.54 3.74 26.54h7.46l3.74-24.37 3.73.5 3.73-11.21 3.74 12.16 3.73-22.01" class="js-line" style="vector-effect:none;fill:none;stroke:#636efa;stroke-opacity:1;stroke-width:2px;opacity:1"/></g></g></g></g></g><path d="M909.4 294.238H1281M909.4 49.5H1281" class="xlines-above crisp" style="fill:none;stroke-width:1px;stroke:#000;stroke-opacity:1"/><path d="M909.9 50v243.738M1280.5 50v243.738" class="ylines-above crisp" style="fill:none;stroke-width:1px;stroke:#000;stroke-opacity:1"/><g class="xaxislayer-above"><path d="M0 294.738v5" class="x3tick ticks crisp" style="stroke:#444;stroke-opacity:1;stroke-width:1px" transform="translate(981.33)"/><path d="M0 294.738v5" class="x3tick ticks crisp" style="stroke:#444;stroke-opacity:1;stroke-width:1px" transform="translate(1056)"/><path d="M0 294.738v5" class="x3tick ticks crisp" style="stroke:#444;stroke-opacity:1;stroke-width:1px" transform="translate(1130.67)"/><path d="M0 294.738v5" class="x3tick ticks crisp" style="stroke:#444;stroke-opacity:1;stroke-width:1px" transform="translate(1205.33)"/><path d="M0 294.738v5" class="x3tick ticks crisp" style="stroke:#444;stroke-opacity:1;stroke-width:1px" transform="translate(1280)"/><text y="314.137" class="x3tick" style="font-family:&quot;Open Sans&quot;,verdana,arial,sans-serif;font-size:12px;fill:#000;fill-opacity:1;white-space:pre;opacity:1" text-anchor="middle" transform="translate(981.33)">2</text><text y="314.137" class="x3tick" style="font-family:&quot;Open Sans&quot;,verdana,arial,sans-serif;font-size:12px;fill:#000;fill-opacity:1;white-space:pre;opacity:1" text-anchor="middle" transform="translate(1056)">4</text><text y="314.137" class="x3tick" style="font-family:&quot;Open Sans&quot;,verdana,arial,sans-serif;font-size:12px;fill:#000;fill-opacity:1;white-space:pre;opacity:1" text-anchor="middle" transform="translate(1130.67)">6</text><text y="314.137" class="x3tick" style="font-family:&quot;Open Sans&quot;,verdana,arial,sans-serif;font-size:12px;fill:#000;fill-opacity:1;white-space:pre;opacity:1" text-anchor="middle" transform="translate(1205.33)">8</text><text y="314.137" class="x3tick" style="font-family:&quot;Open Sans&quot;,verdana,arial,sans-serif;font-size:12px;fill:#000;fill-opacity:1;white-space:pre;opacity:1" text-anchor="middle" transform="translate(1280)">10</text></g><g class="yaxislayer-above"><path d="M909.4 0h-5" class="y3tick ticks crisp" style="stroke:#444;stroke-opacity:1;stroke-width:1px" transform="translate(0 281.55)"/><path d="M909.4 0h-5" class="y3tick ticks crisp" style="stroke:#444;stroke-opacity:1;stroke-width:1px" transform="translate(0 236.66)"/><path d="M909.4 0h-5" class="y3tick ticks crisp" style="stroke:#444;stroke-opacity:1;stroke-width:1px" transform="translate(0 191.77)"/><path d="M909.4 0h-5" class="y3tick ticks crisp" style="stroke:#444;stroke-opacity:1;stroke-width:1px" transform="translate(0 146.87)"/><path d="M909.4 0h-5" class="y3tick ticks crisp" style="stroke:#444;stroke-opacity:1;stroke-width:1px" transform="translate(0 101.98)"/><path d="M909.4 0h-5" class="y3tick ticks crisp" style="stroke:#444;stroke-opacity:1;stroke-width:1px" transform="translate(0 57.09)"/><text x="902" y="4.2" class="y3tick" style="font-family:&quot;Open Sans&quot;,verdana,arial,sans-serif;font-size:12px;fill:#000;fill-opacity:1;white-space:pre;opacity:1" text-anchor="end" transform="translate(0 281.55)">0</text><text x="902" y="4.2" class="y3tick" style="font-family:&quot;Open Sans&quot;,verdana,arial,sans-serif;font-size:12px;fill:#000;fill-opacity:1;white-space:pre;opacity:1" text-anchor="end" transform="translate(0 236.66)">2</text><text x="902" y="4.2" class="y3tick" style="font-family:&quot;Open Sans&quot;,verdana,arial,sans-serif;font-size:12px;fill:#000;fill-opacity:1;white-space:pre;opacity:1" text-anchor="end" transform="translate(0 191.77)">4</text><text x="902" y="4.2" class="y3tick" style="font-family:&quot;Open Sans&quot;,verdana,arial,sans-serif;font-size:12px;fill:#000;fill-opacity:1;white-space:pre;opacity:1" text-anchor="end" transform="translate(0 146.87)">6</text><text x="902" y="4.2" class="y3tick" style="font-family:&quot;Open Sans&quot;,verdana,arial,sans-serif;font-size:12px;fill:#000;fill-opacity:1;white-space:pre;opacity:1" text-anchor="end" transform="translate(0 101.98)">8</text><text x="902" y="4.2" class="y3tick" style="font-family:&quot;Open Sans&quot;,verdana,arial,sans-serif;font-size:12px;fill:#000;fill-opacity:1;white-space:pre;opacity:1" text-anchor="end" transform="translate(0 57.09)">10</text></g></g><g class="subplot x4y4"><g class="gridlayer"><g class="x4"><path d="M0 333.263V577" class="x4grid crisp" style="stroke:#d3d3d3;stroke-opacity:1;stroke-width:1px" transform="translate(118.93)"/><path d="M0 333.263V577" class="x4grid crisp" style="stroke:#d3d3d3;stroke-opacity:1;stroke-width:1px" transform="translate(193.6)"/><path d="M0 333.263V577" class="x4grid crisp" style="stroke:#d3d3d3;stroke-opacity:1;stroke-width:1px" transform="translate(268.27)"/><path d="M0 333.263V577" class="x4grid crisp" style="stroke:#d3d3d3;stroke-opacity:1;stroke-width:1px" transform="translate(342.93)"/></g><g class="y4"><path d="M48 0h369.6" class="y4grid crisp" style="stroke:#d3d3d3;stroke-opacity:1;stroke-width:1px" transform="translate(0 513.663)"/><path d="M48 0h369.6" class="y4grid crisp" style="stroke:#d3d3d3;stroke-opacity:1;stroke-width:1px" transform="translate(0 462.522)"/><path d="M48 0h369.6" class="y4grid crisp" style="stroke:#d3d3d3;stroke-opacity:1;stroke-width:1px" transform="translate(0 411.373)"/><path d="M48 0h369.6" class="y4grid crisp" style="stroke:#d3d3d3;stroke-opacity:1;stroke-width:1px" transform="translate(0 360.222)"/></g></g><g class="zerolinelayer"><path d="M48 0h369.6" class="y4zl zl crisp" style="stroke:#ebf0f8;stroke-opacity:1;stroke-width:2px" transform="translate(0 564.813)"/></g><g class="overplot"><g class="x4y4" clip-path="url(#d)" transform="translate(48 333.262)"><g class="scatterlayer mlayer"><g class="trace scatter trace0f43a9" style="stroke-miterlimit:2;opacity:1"><g class="lines"><path d="M0 231.55h141.87l3.73-219.36 3.73 219.36h52.27l3.73-111.92 3.74 3.89 3.73 108.03h37.33l3.74-73.72 3.73 73.72 3.73-23.21 3.74 23.21h59.73l3.73-88.62 3.74 1.96 3.73 86.66h18.67l3.73-37.3 3.73-35.79 3.74 37.28 3.73 35.81" class="js-line" style="vector-effect:none;fill:none;stroke:#636efa;stroke-opacity:1;stroke-width:2px;opacity:1"/></g></g></g></g></g><path d="M47 577.5h371.6M47 332.763h371.6" class="xlines-above crisp" style="fill:none;stroke-width:1px;stroke:#000;stroke-opacity:1"/><path d="M47.5 333.263V577m370.6-243.737V577" class="ylines-above crisp" style="fill:none;stroke-width:1px;stroke:#000;stroke-opacity:1"/><g class="xaxislayer-above"><path d="M0 578v5" class="x4tick ticks crisp" style="stroke:#444;stroke-opacity:1;stroke-width:1px" transform="translate(118.93)"/><path d="M0 578v5" class="x4tick ticks crisp" style="stroke:#444;stroke-opacity:1;stroke-width:1px" transform="translate(193.6)"/><path d="M0 578v5" class="x4tick ticks crisp" style="stroke:#444;stroke-opacity:1;stroke-width:1px" transform="translate(268.27)"/><path d="M0 578v5" class="x4tick ticks crisp" style="stroke:#444;stroke-opacity:1;stroke-width:1px" transform="translate(342.93)"/><path d="M0 578v5" class="x4tick ticks crisp" style="stroke:#444;stroke-opacity:1;stroke-width:1px" transform="translate(417.6)"/><text y="597.4" class="x4tick" style="font-family:&quot;Open Sans&quot;,verdana,arial,sans-serif;font-size:12px;fill:#000;fill-opacity:1;white-space:pre;opacity:1" text-anchor="middle" transform="translate(118.93)">2</text><text y="597.4" class="x4tick" style="font-family:&quot;Open Sans&quot;,verdana,arial,sans-serif;font-size:12px;fill:#000;fill-opacity:1;white-space:pre;opacity:1" text-anchor="middle" transform="translate(193.6)">4</text><text y="597.4" class="x4tick" style="font-family:&quot;Open Sans&quot;,verdana,arial,sans-serif;font-size:12px;fill:#000;fill-opacity:1;white-space:pre;opacity:1" text-anchor="middle" transform="translate(268.27)">6</text><text y="597.4" class="x4tick" style="font-family:&quot;Open Sans&quot;,verdana,arial,sans-serif;font-size:12px;fill:#000;fill-opacity:1;white-space:pre;opacity:1" text-anchor="middle" transform="translate(342.93)">8</text><text y="597.4" class="x4tick" style="font-family:&quot;Open Sans&quot;,verdana,arial,sans-serif;font-size:12px;fill:#000;fill-opacity:1;white-space:pre;opacity:1" text-anchor="middle" transform="translate(417.6)">10</text></g><g class="yaxislayer-above"><path d="M47 0h-5" class="y4tick ticks crisp" style="stroke:#444;stroke-opacity:1;stroke-width:1px" transform="translate(0 564.813)"/><path d="M47 0h-5" class="y4tick ticks crisp" style="stroke:#444;stroke-opacity:1;stroke-width:1px" transform="translate(0 513.663)"/><path d="M47 0h-5" class="y4tick ticks crisp" style="stroke:#444;stroke-opacity:1;stroke-width:1px" transform="translate(0 462.522)"/><path d="M47 0h-5" class="y4tick ticks crisp" style="stroke:#444;stroke-opacity:1;stroke-width:1px" transform="translate(0 411.373)"/><path d="M47 0h-5" class="y4tick ticks crisp" style="stroke:#444;stroke-opacity:1;stroke-width:1px" transform="translate(0 360.222)"/><text x="39.6" y="4.2" class="y4tick" style="font-family:&quot;Open Sans&quot;,verdana,arial,sans-serif;font-size:12px;fill:#000;fill-opacity:1;white-space:pre;opacity:1" text-anchor="end" transform="translate(0 564.813)">0</text><text x="39.6" y="4.2" class="y4tick" style="font-family:&quot;Open Sans&quot;,verdana,arial,sans-serif;font-size:12px;fill:#000;fill-opacity:1;white-space:pre;opacity:1" text-anchor="end" transform="translate(0 513.663)">5</text><text x="39.6" y="4.2" class="y4tick" style="font-family:&quot;Open Sans&quot;,verdana,arial,sans-serif;font-size:12px;fill:#000;fill-opacity:1;white-space:pre;opacity:1" text-anchor="end" transform="translate(0 462.522)">10</text><text x="39.6" y="4.2" class="y4tick" style="font-family:&quot;Open Sans&quot;,verdana,arial,sans-serif;font-size:12px;fill:#000;fill-opacity:1;white-space:pre;opacity:1" text-anchor="end" transform="translate(0 411.373)">15</text><text x="39.6" y="4.2" class="y4tick" style="font-family:&quot;Open Sans&quot;,verdana,arial,sans-serif;font-size:12px;fill:#000;fill-opacity:1;white-space:pre;opacity:1" text-anchor="end" transform="translate(0 360.222)">20</text></g></g><g class="subplot x5y5"><g class="gridlayer"><g class="x5"><path d="M0 333.263V577" class="x5grid crisp" style="stroke:#d3d3d3;stroke-opacity:1;stroke-width:1px" transform="translate(550.13)"/><path d="M0 333.263V577" class="x5grid crisp" style="stroke:#d3d3d3;stroke-opacity:1;stroke-width:1px" transform="translate(624.8)"/><path d="M0 333.263V577" class="x5grid crisp" style="stroke:#d3d3d3;stroke-opacity:1;stroke-width:1px" transform="translate(699.47)"/><path d="M0 333.263V577" class="x5grid crisp" style="stroke:#d3d3d3;stroke-opacity:1;stroke-width:1px" transform="translate(774.13)"/></g><g class="y5"><path d="M479.2 0h369.6" class="y5grid crisp" style="stroke:#d3d3d3;stroke-opacity:1;stroke-width:1px" transform="translate(0 529.742)"/><path d="M479.2 0h369.6" class="y5grid crisp" style="stroke:#d3d3d3;stroke-opacity:1;stroke-width:1px" transform="translate(0 494.673)"/><path d="M479.2 0h369.6" class="y5grid crisp" style="stroke:#d3d3d3;stroke-opacity:1;stroke-width:1px" transform="translate(0 459.592)"/><path d="M479.2 0h369.6" class="y5grid crisp" style="stroke:#d3d3d3;stroke-opacity:1;stroke-width:1px" transform="translate(0 424.522)"/><path d="M479.2 0h369.6" class="y5grid crisp" style="stroke:#d3d3d3;stroke-opacity:1;stroke-width:1px" transform="translate(0 389.452)"/><path d="M479.2 0h369.6" class="y5grid crisp" style="stroke:#d3d3d3;stroke-opacity:1;stroke-width:1px" transform="translate(0 354.382)"/></g></g><g class="zerolinelayer"><path d="M479.2 0h369.6" class="y5zl zl crisp" style="stroke:#ebf0f8;stroke-opacity:1;stroke-width:2px" transform="translate(0 564.813)"/></g><g class="overplot"><g class="x5y5" clip-path="url(#e)" transform="translate(479.2 333.262)"><g class="scatterlayer mlayer"><g class="trace scatter tracea9db6c" style="stroke-miterlimit:2;opacity:1"><g class="lines"><path d="M0 231.55h67.2l3.73-219.36 3.74 219.36L78.4 50.26l3.73 181.29h63.47l3.73-52.2 7.47 4.74 3.73 47.46 7.47-82.93 3.73 82.93 3.74-38.08 3.73 1.54 3.73 36.54h18.67l3.73-27.98 3.74.97 3.73 27.01 3.73-75.62 3.74 75.62H224l3.73-45.65 3.74 1.44 3.73 22.79 3.73 21.42h14.94l3.73-35.81 7.47 35.81 3.73-65.86 3.73 65.86h3.74l3.73-15.19 3.73 15.19h3.74l3.73-42.18 3.73 42.18 3.74-40.12 3.73.97 3.73 39.15 3.74-37.31 3.73 37.31 3.73-35.59 3.74.81 3.73 23.45 3.73-21.9 3.74 33.23 3.73-10.6 3.73-10.13 3.74 20.73 3.73-29.79 3.73 10.35 3.74.4 3.73-8.94 3.73 27.98 3.74-8.95 3.73 8.95" class="js-line" style="vector-effect:none;fill:none;stroke:#636efa;stroke-opacity:1;stroke-width:2px;opacity:1"/></g></g></g></g></g><path d="M478.2 577.5h371.6M478.2 332.763h371.6" class="xlines-above crisp" style="fill:none;stroke-width:1px;stroke:#000;stroke-opacity:1"/><path d="M478.7 333.263V577m370.6-243.737V577" class="ylines-above crisp" style="fill:none;stroke-width:1px;stroke:#000;stroke-opacity:1"/><g class="xaxislayer-above"><path d="M0 578v5" class="x5tick ticks crisp" style="stroke:#444;stroke-opacity:1;stroke-width:1px" transform="translate(550.13)"/><path d="M0 578v5" class="x5tick ticks crisp" style="stroke:#444;stroke-opacity:1;stroke-width:1px" transform="translate(624.8)"/><path d="M0 578v5" class="x5tick ticks crisp" style="stroke:#444;stroke-opacity:1;stroke-width:1px" transform="translate(699.47)"/><path d="M0 578v5" class="x5tick ticks crisp" style="stroke:#444;stroke-opacity:1;stroke-width:1px" transform="translate(774.13)"/><path d="M0 578v5" class="x5tick ticks crisp" style="stroke:#444;stroke-opacity:1;stroke-width:1px" transform="translate(848.8)"/><text y="597.4" class="x5tick" style="font-family:&quot;Open Sans&quot;,verdana,arial,sans-serif;font-size:12px;fill:#000;fill-opacity:1;white-space:pre;opacity:1" text-anchor="middle" transform="translate(550.13)">2</text><text y="597.4" class="x5tick" style="font-family:&quot;Open Sans&quot;,verdana,arial,sans-serif;font-size:12px;fill:#000;fill-opacity:1;white-space:pre;opacity:1" text-anchor="middle" transform="translate(624.8)">4</text><text y="597.4" class="x5tick" style="font-family:&quot;Open Sans&quot;,verdana,arial,sans-serif;font-size:12px;fill:#000;fill-opacity:1;white-space:pre;opacity:1" text-anchor="middle" transform="translate(699.47)">6</text><text y="597.4" class="x5tick" style="font-family:&quot;Open Sans&quot;,verdana,arial,sans-serif;font-size:12px;fill:#000;fill-opacity:1;white-space:pre;opacity:1" text-anchor="middle" transform="translate(774.13)">8</text><text y="597.4" class="x5tick" style="font-family:&quot;Open Sans&quot;,verdana,arial,sans-serif;font-size:12px;fill:#000;fill-opacity:1;white-space:pre;opacity:1" text-anchor="middle" transform="translate(848.8)">10</text></g><g class="yaxislayer-above"><path d="M478.2 0h-5" class="y5tick ticks crisp" style="stroke:#444;stroke-opacity:1;stroke-width:1px" transform="translate(0 564.813)"/><path d="M478.2 0h-5" class="y5tick ticks crisp" style="stroke:#444;stroke-opacity:1;stroke-width:1px" transform="translate(0 529.742)"/><path d="M478.2 0h-5" class="y5tick ticks crisp" style="stroke:#444;stroke-opacity:1;stroke-width:1px" transform="translate(0 494.673)"/><path d="M478.2 0h-5" class="y5tick ticks crisp" style="stroke:#444;stroke-opacity:1;stroke-width:1px" transform="translate(0 459.592)"/><path d="M478.2 0h-5" class="y5tick ticks crisp" style="stroke:#444;stroke-opacity:1;stroke-width:1px" transform="translate(0 424.522)"/><path d="M478.2 0h-5" class="y5tick ticks crisp" style="stroke:#444;stroke-opacity:1;stroke-width:1px" transform="translate(0 389.452)"/><path d="M478.2 0h-5" class="y5tick ticks crisp" style="stroke:#444;stroke-opacity:1;stroke-width:1px" transform="translate(0 354.382)"/><text x="470.8" y="4.2" class="y5tick" style="font-family:&quot;Open Sans&quot;,verdana,arial,sans-serif;font-size:12px;fill:#000;fill-opacity:1;white-space:pre;opacity:1" text-anchor="end" transform="translate(0 564.813)">0</text><text x="470.8" y="4.2" class="y5tick" style="font-family:&quot;Open Sans&quot;,verdana,arial,sans-serif;font-size:12px;fill:#000;fill-opacity:1;white-space:pre;opacity:1" text-anchor="end" transform="translate(0 529.742)">2</text><text x="470.8" y="4.2" class="y5tick" style="font-family:&quot;Open Sans&quot;,verdana,arial,sans-serif;font-size:12px;fill:#000;fill-opacity:1;white-space:pre;opacity:1" text-anchor="end" transform="translate(0 494.673)">4</text><text x="470.8" y="4.2" class="y5tick" style="font-family:&quot;Open Sans&quot;,verdana,arial,sans-serif;font-size:12px;fill:#000;fill-opacity:1;white-space:pre;opacity:1" text-anchor="end" transform="translate(0 459.592)">6</text><text x="470.8" y="4.2" class="y5tick" style="font-family:&quot;Open Sans&quot;,verdana,arial,sans-serif;font-size:12px;fill:#000;fill-opacity:1;white-space:pre;opacity:1" text-anchor="end" transform="translate(0 424.522)">8</text><text x="470.8" y="4.2" class="y5tick" style="font-family:&quot;Open Sans&quot;,verdana,arial,sans-serif;font-size:12px;fill:#000;fill-opacity:1;white-space:pre;opacity:1" text-anchor="end" transform="translate(0 389.452)">10</text><text x="470.8" y="4.2" class="y5tick" style="font-family:&quot;Open Sans&quot;,verdana,arial,sans-serif;font-size:12px;fill:#000;fill-opacity:1;white-space:pre;opacity:1" text-anchor="end" transform="translate(0 354.382)">12</text></g></g><g class="subplot x6y6"><g class="gridlayer"><g class="x6"><path d="M0 333.263V577" class="x6grid crisp" style="stroke:#d3d3d3;stroke-opacity:1;stroke-width:1px" transform="translate(981.33)"/><path d="M0 333.263V577" class="x6grid crisp" style="stroke:#d3d3d3;stroke-opacity:1;stroke-width:1px" transform="translate(1056)"/><path d="M0 333.263V577" class="x6grid crisp" style="stroke:#d3d3d3;stroke-opacity:1;stroke-width:1px" transform="translate(1130.67)"/><path d="M0 333.263V577" class="x6grid crisp" style="stroke:#d3d3d3;stroke-opacity:1;stroke-width:1px" transform="translate(1205.33)"/></g><g class="y6"><path d="M910.4 0H1280" class="y6grid crisp" style="stroke:#d3d3d3;stroke-opacity:1;stroke-width:1px" transform="translate(0 498.563)"/><path d="M910.4 0H1280" class="y6grid crisp" style="stroke:#d3d3d3;stroke-opacity:1;stroke-width:1px" transform="translate(0 432.313)"/><path d="M910.4 0H1280" class="y6grid crisp" style="stroke:#d3d3d3;stroke-opacity:1;stroke-width:1px" transform="translate(0 366.063)"/></g></g><g class="zerolinelayer"><path d="M910.4 0H1280" class="y6zl zl crisp" style="stroke:#ebf0f8;stroke-opacity:1;stroke-width:2px" transform="translate(0 564.813)"/></g><g class="overplot"><g class="x6y6" clip-path="url(#f)" transform="translate(910.4 333.262)"><g class="scatterlayer mlayer"><g class="trace scatter trace9b29d8" style="stroke-miterlimit:2;opacity:1"><g class="lines"><path d="M0 231.55h100.8l3.73-219.36 3.74 219.36h14.93l3.73-37.65 3.74 37.65h14.93l3.73-27.44 3.74 1.29 3.73 26.15h7.47l3.73-21.8 3.73-19.96 3.74 21.74 3.73 20.02h3.73l3.74-35.46 3.73 18.4 3.73 17.06h3.74l3.73-15.25 3.73-28.87 3.74 1.53 3.73 42.59h3.73l3.74-25.62 3.73.83 3.73 24.79 3.74-11.62 3.73 11.62h3.73l3.74-10.59 3.73-20.23 3.73 30.82 7.47-18.82 3.73 9.67 3.74 9.15 3.73-17.31 3.73.47 3.74-7.76 7.46 1.26 3.74 23.34 3.73-14.78 3.73.37 3.74 14.41 3.73-6.86 3.73 6.86 3.74-26.15 3.73 19.77 3.73-24.8 3.74 25.09 3.73-11.78 3.73 17.87 3.74-22.78 3.73 17.21 3.73 5.57 3.74-10.66 3.73.22 3.73-4.89 3.74 5.32 3.73-14.5 3.73-4.3 3.74-4.13 3.73 9.88" class="js-line" style="vector-effect:none;fill:none;stroke:#636efa;stroke-opacity:1;stroke-width:2px;opacity:1"/></g></g></g></g></g><path d="M909.4 577.5H1281M909.4 332.763H1281" class="xlines-above crisp" style="fill:none;stroke-width:1px;stroke:#000;stroke-opacity:1"/><path d="M909.9 333.263V577m370.6-243.737V577" class="ylines-above crisp" style="fill:none;stroke-width:1px;stroke:#000;stroke-opacity:1"/><g class="xaxislayer-above"><path d="M0 578v5" class="x6tick ticks crisp" style="stroke:#444;stroke-opacity:1;stroke-width:1px" transform="translate(981.33)"/><path d="M0 578v5" class="x6tick ticks crisp" style="stroke:#444;stroke-opacity:1;stroke-width:1px" transform="translate(1056)"/><path d="M0 578v5" class="x6tick ticks crisp" style="stroke:#444;stroke-opacity:1;stroke-width:1px" transform="translate(1130.67)"/><path d="M0 578v5" class="x6tick ticks crisp" style="stroke:#444;stroke-opacity:1;stroke-width:1px" transform="translate(1205.33)"/><path d="M0 578v5" class="x6tick ticks crisp" style="stroke:#444;stroke-opacity:1;stroke-width:1px" transform="translate(1280)"/><text y="597.4" class="x6tick" style="font-family:&quot;Open Sans&quot;,verdana,arial,sans-serif;font-size:12px;fill:#000;fill-opacity:1;white-space:pre;opacity:1" text-anchor="middle" transform="translate(981.33)">2</text><text y="597.4" class="x6tick" style="font-family:&quot;Open Sans&quot;,verdana,arial,sans-serif;font-size:12px;fill:#000;fill-opacity:1;white-space:pre;opacity:1" text-anchor="middle" transform="translate(1056)">4</text><text y="597.4" class="x6tick" style="font-family:&quot;Open Sans&quot;,verdana,arial,sans-serif;font-size:12px;fill:#000;fill-opacity:1;white-space:pre;opacity:1" text-anchor="middle" transform="translate(1130.67)">6</text><text y="597.4" class="x6tick" style="font-family:&quot;Open Sans&quot;,verdana,arial,sans-serif;font-size:12px;fill:#000;fill-opacity:1;white-space:pre;opacity:1" text-anchor="middle" transform="translate(1205.33)">8</text><text y="597.4" class="x6tick" style="font-family:&quot;Open Sans&quot;,verdana,arial,sans-serif;font-size:12px;fill:#000;fill-opacity:1;white-space:pre;opacity:1" text-anchor="middle" transform="translate(1280)">10</text></g><g class="yaxislayer-above"><path d="M909.4 0h-5" class="y6tick ticks crisp" style="stroke:#444;stroke-opacity:1;stroke-width:1px" transform="translate(0 564.813)"/><path d="M909.4 0h-5" class="y6tick ticks crisp" style="stroke:#444;stroke-opacity:1;stroke-width:1px" transform="translate(0 498.563)"/><path d="M909.4 0h-5" class="y6tick ticks crisp" style="stroke:#444;stroke-opacity:1;stroke-width:1px" transform="translate(0 432.313)"/><path d="M909.4 0h-5" class="y6tick ticks crisp" style="stroke:#444;stroke-opacity:1;stroke-width:1px" transform="translate(0 366.063)"/><text x="902" y="4.2" class="y6tick" style="font-family:&quot;Open Sans&quot;,verdana,arial,sans-serif;font-size:12px;fill:#000;fill-opacity:1;white-space:pre;opacity:1" text-anchor="end" transform="translate(0 564.813)">0</text><text x="902" y="4.2" class="y6tick" style="font-family:&quot;Open Sans&quot;,verdana,arial,sans-serif;font-size:12px;fill:#000;fill-opacity:1;white-space:pre;opacity:1" text-anchor="end" transform="translate(0 498.563)">5</text><text x="902" y="4.2" class="y6tick" style="font-family:&quot;Open Sans&quot;,verdana,arial,sans-serif;font-size:12px;fill:#000;fill-opacity:1;white-space:pre;opacity:1" text-anchor="end" transform="translate(0 432.313)">10</text><text x="902" y="4.2" class="y6tick" style="font-family:&quot;Open Sans&quot;,verdana,arial,sans-serif;font-size:12px;fill:#000;fill-opacity:1;white-space:pre;opacity:1" text-anchor="end" transform="translate(0 366.063)">15</text></g></g></g><defs><clipPath id="g"><path d="M0 0h45v29H0z"/></clipPath></defs><g class="infolayer"><g class="legend" pointer-events="all"><path d="M0 0h45v29H0z" class="bg" shape-rendering="crispEdges" style="stroke:#444;stroke-opacity:1;fill:#fff;fill-opacity:1;stroke-width:0" transform="translate(1304.64 50)"/><g class="scrollbox" clip-path="url(#g)" transform="translate(1304.64 50)"><g class="groups"><g class="traces" style="opacity:1"><g class="layers" style="opacity:1"><g class="legendlines"><path d="M5 0h30" class="js-line" style="fill:none;stroke:#636efa;stroke-opacity:1;stroke-width:2px" transform="translate(0 14.5)"/></g></g><path fill="none" d="M0-9.5h40v19H0z" class="legendtoggle" style="fill:#000;fill-opacity:0" transform="translate(0 14.5)"/></g></g></g></g><g class="g-gtitle"><text x="675" y="12" class="gtitle" dy=".7em" style="opacity:1;font-family:&quot;Open Sans&quot;,verdana,arial,sans-serif;font-size:17px;fill:#000;fill-opacity:1;white-space:pre" text-anchor="middle">Pairwise RDFs - Na8 Nb8 O24</text></g><g class="g-xtitle"><text x="232.8" y="340.941" class="xtitle" style="opacity:1;font-family:&quot;Open Sans&quot;,verdana,arial,sans-serif;font-size:14px;fill:#000;fill-opacity:1;white-space:pre" text-anchor="middle">r (Å)</text></g><g class="g-x2title"><text x="664" y="340.941" class="x2title" style="opacity:1;font-family:&quot;Open Sans&quot;,verdana,arial,sans-serif;font-size:14px;fill:#000;fill-opacity:1;white-space:pre" text-anchor="middle">r (Å)</text></g><g class="g-ytitle"><text x="4.928" y="171.869" class="ytitle" style="opacity:1;font-family:&quot;Open Sans&quot;,verdana,arial,sans-serif;font-size:14px;fill:#000;fill-opacity:1;white-space:pre" text-anchor="middle" transform="rotate(-90 9.469 167.328)">g(r)</text></g><g class="g-y4title"><text x="4.928" y="455.131" class="y4title" style="opacity:1;font-family:&quot;Open Sans&quot;,verdana,arial,sans-serif;font-size:14px;fill:#000;fill-opacity:1;white-space:pre" text-anchor="middle" transform="rotate(-90 9.467 450.592)">g(r)</text></g><g class="annotation" data-index="0" style="opacity:1"><g class="annotation-text-g"><g class="cursor-pointer"><path fill="none" d="M.5.5h53v23H.5z" class="bg" style="stroke-width:1px;stroke:#000;stroke-opacity:0;fill:#000;fill-opacity:0" transform="translate(206 26)"/><text x="27.219" y="18" class="annotation-text" style="font-family:&quot;Open Sans&quot;,verdana,arial,sans-serif;font-size:16px;fill:#000;fill-opacity:1;white-space:pre" text-anchor="middle" transform="translate(206 26)">Na-Na</text></g></g></g><g class="annotation" data-index="1" style="opacity:1"><g class="annotation-text-g"><g class="cursor-pointer"><path fill="none" d="M.5.5h54v23H.5z" class="bg" style="stroke-width:1px;stroke:#000;stroke-opacity:0;fill:#000;fill-opacity:0" transform="translate(636 26)"/><text x="27.391" y="18" class="annotation-text" style="font-family:&quot;Open Sans&quot;,verdana,arial,sans-serif;font-size:16px;fill:#000;fill-opacity:1;white-space:pre" text-anchor="middle" transform="translate(636 26)">Na-Nb</text></g></g></g><g class="annotation" data-index="2" style="opacity:1"><g class="annotation-text-g"><g class="cursor-pointer"><path fill="none" d="M.5.5h44v23H.5z" class="bg" style="stroke-width:1px;stroke:#000;stroke-opacity:0;fill:#000;fill-opacity:0" transform="translate(1073 26)"/><text x="22.719" y="18" class="annotation-text" style="font-family:&quot;Open Sans&quot;,verdana,arial,sans-serif;font-size:16px;fill:#000;fill-opacity:1;white-space:pre" text-anchor="middle" transform="translate(1073 26)">Na-O</text></g></g></g><g class="annotation" data-index="3" style="opacity:1"><g class="annotation-text-g"><g class="cursor-pointer"><path fill="none" d="M.5.5h54v23H.5z" class="bg" style="stroke-width:1px;stroke:#000;stroke-opacity:0;fill:#000;fill-opacity:0" transform="translate(205 309)"/><text x="27.578" y="18" class="annotation-text" style="font-family:&quot;Open Sans&quot;,verdana,arial,sans-serif;font-size:16px;fill:#000;fill-opacity:1;white-space:pre" text-anchor="middle" transform="translate(205 309)">Nb-Nb</text></g></g></g><g class="annotation" data-index="4" style="opacity:1"><g class="annotation-text-g"><g class="cursor-pointer"><path fill="none" d="M.5.5h45v23H.5z" class="bg" style="stroke-width:1px;stroke:#000;stroke-opacity:0;fill:#000;fill-opacity:0" transform="translate(641 309)"/><text x="22.906" y="18" class="annotation-text" style="font-family:&quot;Open Sans&quot;,verdana,arial,sans-serif;font-size:16px;fill:#000;fill-opacity:1;white-space:pre" text-anchor="middle" transform="translate(641 309)">Nb-O</text></g></g></g><g class="annotation" data-index="5" style="opacity:1"><g class="annotation-text-g"><g class="cursor-pointer"><path fill="none" d="M.5.5h35v23H.5z" class="bg" style="stroke-width:1px;stroke:#000;stroke-opacity:0;fill:#000;fill-opacity:0" transform="translate(1077 309)"/><text x="18.234" y="18" class="annotation-text" style="font-family:&quot;Open Sans&quot;,verdana,arial,sans-serif;font-size:16px;fill:#000;fill-opacity:1;white-space:pre" text-anchor="middle" transform="translate(1077 309)">O-O</text></g></g></g></g></svg>
