<svg class="main-svg" xmlns="http://www.w3.org/2000/svg" xmlns:xlink="http://www.w3.org/1999/xlink" width="700" height="500" style="" viewBox="0 0 700 500"><rect x="0" y="0" width="700" height="500" style="fill: rgb(255, 255, 255); fill-opacity: 1;"/><defs id="defs-3b1a58"><g class="clips"><clipPath id="clip3b1a58xyplot" class="plotclip"><rect width="525" height="431"/></clipPath><clipPath class="axesclip" id="clip3b1a58x"><rect x="63" y="0" width="525" height="500"/></clipPath><clipPath class="axesclip" id="clip3b1a58y"><rect x="0" y="11" width="700" height="431"/></clipPath><clipPath class="axesclip" id="clip3b1a58xy"><rect x="63" y="11" width="525" height="431"/></clipPath></g><g class="gradients"/><g class="patterns"/></defs><g class="bglayer"/><g class="layer-below"><g class="imagelayer"/><g class="shapelayer"/></g><g class="cartesianlayer"><g class="subplot xy"><g class="layer-subplot"><g class="shapelayer"/><g class="imagelayer"/></g><g class="minor-gridlayer"><g class="x"/><g class="y"/></g><g class="gridlayer"><g class="x"><path class="xgrid crisp" transform="translate(163.76,0)" d="M0,11v431" style="stroke: rgb(211, 211, 211); stroke-opacity: 1; stroke-width: 1px;"/><path class="xgrid crisp" transform="translate(269.82,0)" d="M0,11v431" style="stroke: rgb(211, 211, 211); stroke-opacity: 1; stroke-width: 1px;"/><path class="xgrid crisp" transform="translate(375.88,0)" d="M0,11v431" style="stroke: rgb(211, 211, 211); stroke-opacity: 1; stroke-width: 1px;"/><path class="xgrid crisp" transform="translate(481.94,0)" d="M0,11v431" style="stroke: rgb(211, 211, 211); stroke-opacity: 1; stroke-width: 1px;"/></g><g class="y"><path class="ygrid crisp" transform="translate(0,393.01)" d="M63,0h525" style="stroke: rgb(211, 211, 211); stroke-opacity: 1; stroke-width: 1px;"/><path class="ygrid crisp" transform="translate(0,344.02)" d="M63,0h525" style="stroke: rgb(211, 211, 211); stroke-opacity: 1; stroke-width: 1px;"/><path class="ygrid crisp" transform="translate(0,295.03)" d="M63,0h525" style="stroke: rgb(211, 211, 211); stroke-opacity: 1; stroke-width: 1px;"/><path class="ygrid crisp" transform="translate(0,246.04)" d="M63,0h525" style="stroke: rgb(211, 211, 211); stroke-opacity: 1; stroke-width: 1px;"/><path class="ygrid crisp" transform="translate(0,197.05)" d="M63,0h525" style="stroke: rgb(211, 211, 211); stroke-opacity: 1; stroke-width: 1px;"/><path class="ygrid crisp" transform="translate(0,148.06)" d="M63,0h525" style="stroke: rgb(211, 211, 211); stroke-opacity: 1; stroke-width: 1px;"/><path class="ygrid crisp" transform="translate(0,99.07)" d="M63,0h525" style="stroke: rgb(211, 211, 211); stroke-opacity: 1; stroke-width: 1px;"/><path class="ygrid crisp" transform="translate(0,50.08)" d="M63,0h525" style="stroke: rgb(211, 211, 211); stroke-opacity: 1; stroke-width: 1px;"/></g></g><g class="zerolinelayer"><path class="yzl zl crisp" transform="translate(0,442)" d="M63,0h525" style="stroke: rgb(235, 240, 248); stroke-opacity: 1; stroke-width: 2px;"/></g><g class="layer-between"><g class="shapelayer"/><g class="imagelayer"/></g><path class="xlines-below"/><path class="ylines-below"/><g class="overlines-below"/><g class="xaxislayer-below"/><g class="yaxislayer-below"/><g class="overaxes-below"/><g class="overplot"><g class="xy" transform="translate(63,11)" clip-path="url(#clip3b1a58xyplot)"><g class="scatterlayer mlayer"><g class="trace scatter traceabe441" style="stroke-miterlimit: 2; opacity: 1;"><g class="fills"/><g class="errorbars"/><g class="lines"><path class="js-line" d="M525,405.03L519.7,391.21L514.39,380.5L509.09,369.68L503.79,354.32L498.48,350.69L493.18,339.93L487.88,332.12L482.58,328.95L471.97,322.06L466.67,319.65L461.36,318.14L456.06,313.71L450.76,304.5L445.45,302.58L440.15,300.83L434.85,294.21L429.55,289.67L424.24,286.47L418.94,276.72L413.64,273.03L408.33,271.52L403.03,270.84L397.73,269.17L392.42,265.15L387.12,258.46L381.82,255.66L376.52,251.05L371.21,244.01L360.61,230.97L355.3,229.05L350,225.39L344.7,223.1L339.39,220.69L334.09,214.93L328.79,213.74L323.48,208.4L312.88,206.03L307.58,203.35L302.27,200.01L296.97,197.71L291.67,196.88L286.36,193.88L270.45,183.35L265.15,182.28L259.85,180.26L254.55,176.48L249.24,172.79L243.94,168.08L238.64,162.98L233.33,162.29L222.73,161.01L217.42,158.16L206.82,156.1L201.52,154.09L190.91,151.42L185.61,150.84L169.7,146.72L164.39,141.58L143.18,135.11L137.88,133.46L132.58,132.29L127.27,129.09L116.67,125.74L111.36,122.8L100.76,122.03L95.45,120.38L58.33,111.27L53.03,110.99L37.12,109.65L31.82,108.57L15.91,102.63L10.61,101.73L0,99.18" style="vector-effect: none; fill: none; stroke: rgb(99, 110, 250); stroke-opacity: 1; stroke-width: 2px; opacity: 1;"/></g><g class="points"/><g class="text"/></g><g class="trace scatter trace1395a9" style="stroke-miterlimit: 2; opacity: 1;"><g class="fills"/><g class="errorbars"/><g class="lines"><path class="js-line" d="M525,347.05L514.39,298.57L509.09,291.1L503.79,285.17L498.48,276.76L493.18,271.99L487.88,268.7L477.27,265.7L471.97,263.2L461.36,259.67L456.06,258.14L434.85,251.61L429.55,246.9L424.24,243.92L418.94,233.82L413.64,231.02L408.33,226.88L397.73,222.65L392.42,219.29L387.12,216.04L381.82,209.8L376.52,203.3L371.21,200.46L360.61,195.63L355.3,195.04L334.09,192.44L328.79,187.71L318.18,171.51L312.88,166.68L307.58,158.86L302.27,154.66L291.67,151.03L286.36,148.12L281.06,146.47L275.76,145.95L265.15,144.84L259.85,142.55L243.94,137.76L238.64,137.28L217.42,135.86L212.12,135.66L201.52,134.91L196.21,133.61L190.91,131.66L185.61,130.6L180.3,128.35L175,127.81L164.39,126.9L159.09,123.83L143.18,122.02L137.88,121.09L132.58,119.15L127.27,118.48L111.36,116.5L106.06,115.28L95.45,113.47L90.15,113.34L79.55,112.52L74.24,111.14L58.33,108.92L53.03,107.22L42.42,106.01L37.12,104.73L31.82,103.38L26.52,102.87L15.91,101.24L10.61,100.89L0,99.18" style="vector-effect: none; fill: none; stroke: rgb(239, 85, 59); stroke-opacity: 1; stroke-width: 2px; opacity: 1;"/></g><g class="points"/><g class="text"/></g><g class="trace scatter trace195b73" style="stroke-miterlimit: 2; opacity: 1;"><g class="fills"/><g class="errorbars"/><g class="lines"><path class="js-line" d="M525,427.87L514.39,421.79L509.09,419.62L503.79,417.71L498.48,414.42L477.27,402.62L471.97,399.95L440.15,382.03L434.85,378.98L413.64,367.43L408.33,364.73L371.21,344.48L365.91,341.54L318.18,314.32L312.88,311.28L196.21,244.62L190.91,241.68L127.27,205.46L121.97,202.21L100.76,187.6L95.45,183.7L53.03,152.01L47.73,147.72L31.82,134.07L26.52,129.22L10.61,113.3L5.3,107.11L0,99.46" style="vector-effect: none; fill: none; stroke: rgb(0, 204, 150); stroke-opacity: 1; stroke-width: 2px; opacity: 1;"/></g><g class="points"/><g class="text"/></g><g class="trace scatter trace45e1b4" style="stroke-miterlimit: 2; opacity: 1;"><g class="fills"/><g class="errorbars"/><g class="lines"><path class="js-line" d="M0,99.46L525,99.46" style="vector-effect: none; fill: none; stroke: rgb(171, 99, 250); stroke-opacity: 1; stroke-dasharray: 9px, 9px; stroke-width: 2px; opacity: 1;"/></g><g class="points"/><g class="text"/></g><g class="trace scatter trace8f15be" style="stroke-miterlimit: 2;"><g class="fills"><g><path class="js-fill" d="M0,100.43L42.42,103.14L47.73,103.21L132.58,105.43L137.88,105.72L185.61,107.19L190.91,107.6L206.82,108.22L212.12,108.33L238.64,109.12L243.94,109.17L296.97,110.3L302.27,110.88L318.18,111.54L323.48,111.68L381.82,115.84L387.12,116.01L397.73,117.29L403.03,117.7L445.45,125.49L450.76,125.8L466.67,128.2L471.97,130.88L477.27,132.4L482.58,135.35L487.88,136.81L493.18,139.66L498.48,143.14L503.79,148.89L509.09,152.11L514.39,161.25L519.7,190.28L525,312.52L525,-113.59L519.7,8.64L514.39,37.68L509.09,46.82L503.79,50.04L498.48,55.78L493.18,59.27L487.88,62.11L482.58,63.57L477.27,66.52L471.97,68.05L466.67,70.72L434.85,74.88L429.55,76.46L413.64,79.05L408.33,80.26L397.73,81.64L392.42,81.99L381.82,83.08L376.52,83.24L360.61,84.14L355.3,84.76L344.7,85.87L339.39,86.16L318.18,87.38L312.88,87.45L296.97,88.62L291.67,88.8L249.24,89.69L243.94,89.75L153.79,92.75L148.48,92.95L79.55,95.09L74.24,95.16L53.03,95.61L47.73,95.72L0,98.49Z" style="fill: rgb(128, 128, 128); fill-opacity: 0.2; stroke-width: 0;"/></g></g><g class="errorbars"/><g class="lines"><path class="js-line" d="M0,98.49L47.73,95.72L53.03,95.61L74.24,95.16L79.55,95.09L148.48,92.95L153.79,92.75L243.94,89.75L249.24,89.69L291.67,88.8L296.97,88.62L312.88,87.45L318.18,87.38L339.39,86.16L344.7,85.87L355.3,84.76L360.61,84.14L376.52,83.24L381.82,83.08L392.42,81.99L397.73,81.64L408.33,80.26L413.64,79.05L429.55,76.46L434.85,74.88L466.67,70.72L471.97,68.05L477.27,66.52L482.58,63.57L487.88,62.11L493.18,59.27L498.48,55.78L503.79,50.04L509.09,46.82L514.39,37.68L519.7,8.64L525,-113.59" style="vector-effect: none; fill: none; stroke: rgb(255, 161, 90); stroke-opacity: 1; stroke-width: 0px; opacity: 1;"/></g><g class="points"/><g class="text"/></g><g class="trace scatter trace497089" style="stroke-miterlimit: 2;"><g class="fills"/><g class="errorbars"/><g class="lines"><path class="js-line" d="M0,100.43L42.42,103.14L47.73,103.21L132.58,105.43L137.88,105.72L185.61,107.19L190.91,107.6L206.82,108.22L212.12,108.33L238.64,109.12L243.94,109.17L296.97,110.3L302.27,110.88L318.18,111.54L323.48,111.68L381.82,115.84L387.12,116.01L397.73,117.29L403.03,117.7L445.45,125.49L450.76,125.8L466.67,128.2L471.97,130.88L477.27,132.4L482.58,135.35L487.88,136.81L493.18,139.66L498.48,143.14L503.79,148.89L509.09,152.11L514.39,161.25L519.7,190.28L525,312.52" style="vector-effect: none; fill: none; stroke: rgb(25, 211, 243); stroke-opacity: 1; stroke-width: 0px; opacity: 1;"/></g><g class="points"/><g class="text"/></g></g></g></g><path class="xlines-above crisp" d="M62,442.5H589M62,10.5H589" style="fill: none; stroke-width: 1px; stroke: rgb(0, 0, 0); stroke-opacity: 1;"/><path class="ylines-above crisp" d="M62.5,11V442M588.5,11V442" style="fill: none; stroke-width: 1px; stroke: rgb(0, 0, 0); stroke-opacity: 1;"/><g class="overlines-above"/><g class="xaxislayer-above"><path class="xtick ticks crisp" d="M0,443v5" transform="translate(163.76,0)" style="stroke: rgb(68, 68, 68); stroke-opacity: 1; stroke-width: 1px;"/><path class="xtick ticks crisp" d="M0,443v5" transform="translate(269.82,0)" style="stroke: rgb(68, 68, 68); stroke-opacity: 1; stroke-width: 1px;"/><path class="xtick ticks crisp" d="M0,443v5" transform="translate(375.88,0)" style="stroke: rgb(68, 68, 68); stroke-opacity: 1; stroke-width: 1px;"/><path class="xtick ticks crisp" d="M0,443v5" transform="translate(481.94,0)" style="stroke: rgb(68, 68, 68); stroke-opacity: 1; stroke-width: 1px;"/><path class="xtick ticks crisp" d="M0,443v5" transform="translate(588,0)" style="stroke: rgb(68, 68, 68); stroke-opacity: 1; stroke-width: 1px;"/><g class="xtick"><text text-anchor="middle" x="0" y="462.4" transform="translate(163.76,0)" style="font-family: 'Open Sans', verdana, arial, sans-serif; font-size: 12px; fill: rgb(0, 0, 0); fill-opacity: 1; white-space: pre; opacity: 1;">20</text></g><g class="xtick"><text text-anchor="middle" x="0" y="462.4" style="font-family: 'Open Sans', verdana, arial, sans-serif; font-size: 12px; fill: rgb(0, 0, 0); fill-opacity: 1; white-space: pre; opacity: 1;" transform="translate(269.82,0)">40</text></g><g class="xtick"><text text-anchor="middle" x="0" y="462.4" style="font-family: 'Open Sans', verdana, arial, sans-serif; font-size: 12px; fill: rgb(0, 0, 0); fill-opacity: 1; white-space: pre; opacity: 1;" transform="translate(375.88,0)">60</text></g><g class="xtick"><text text-anchor="middle" x="0" y="462.4" style="font-family: 'Open Sans', verdana, arial, sans-serif; font-size: 12px; fill: rgb(0, 0, 0); fill-opacity: 1; white-space: pre; opacity: 1;" transform="translate(481.94,0)">80</text></g><g class="xtick"><text text-anchor="middle" x="0" y="462.4" style="font-family: 'Open Sans', verdana, arial, sans-serif; font-size: 12px; fill: rgb(0, 0, 0); fill-opacity: 1; white-space: pre; opacity: 1;" transform="translate(588,0)">100</text></g></g><g class="yaxislayer-above"><path class="ytick ticks crisp" d="M62,0h-5" transform="translate(0,442)" style="stroke: rgb(68, 68, 68); stroke-opacity: 1; stroke-width: 1px;"/><path class="ytick ticks crisp" d="M62,0h-5" transform="translate(0,393.01)" style="stroke: rgb(68, 68, 68); stroke-opacity: 1; stroke-width: 1px;"/><path class="ytick ticks crisp" d="M62,0h-5" transform="translate(0,344.02)" style="stroke: rgb(68, 68, 68); stroke-opacity: 1; stroke-width: 1px;"/><path class="ytick ticks crisp" d="M62,0h-5" transform="translate(0,295.03)" style="stroke: rgb(68, 68, 68); stroke-opacity: 1; stroke-width: 1px;"/><path class="ytick ticks crisp" d="M62,0h-5" transform="translate(0,246.04)" style="stroke: rgb(68, 68, 68); stroke-opacity: 1; stroke-width: 1px;"/><path class="ytick ticks crisp" d="M62,0h-5" transform="translate(0,197.05)" style="stroke: rgb(68, 68, 68); stroke-opacity: 1; stroke-width: 1px;"/><path class="ytick ticks crisp" d="M62,0h-5" transform="translate(0,148.06)" style="stroke: rgb(68, 68, 68); stroke-opacity: 1; stroke-width: 1px;"/><path class="ytick ticks crisp" d="M62,0h-5" transform="translate(0,99.07)" style="stroke: rgb(68, 68, 68); stroke-opacity: 1; stroke-width: 1px;"/><path class="ytick ticks crisp" d="M62,0h-5" transform="translate(0,50.08)" style="stroke: rgb(68, 68, 68); stroke-opacity: 1; stroke-width: 1px;"/><g class="ytick"><text text-anchor="end" x="54.6" y="4.199999999999999" transform="translate(0,442)" style="font-family: 'Open Sans', verdana, arial, sans-serif; font-size: 12px; fill: rgb(0, 0, 0); fill-opacity: 1; white-space: pre; opacity: 1;">0</text></g><g class="ytick"><text text-anchor="end" x="54.6" y="4.199999999999999" style="font-family: 'Open Sans', verdana, arial, sans-serif; font-size: 12px; fill: rgb(0, 0, 0); fill-opacity: 1; white-space: pre; opacity: 1;" transform="translate(0,393.01)">0.2</text></g><g class="ytick"><text text-anchor="end" x="54.6" y="4.199999999999999" style="font-family: 'Open Sans', verdana, arial, sans-serif; font-size: 12px; fill: rgb(0, 0, 0); fill-opacity: 1; white-space: pre; opacity: 1;" transform="translate(0,344.02)">0.4</text></g><g class="ytick"><text text-anchor="end" x="54.6" y="4.199999999999999" style="font-family: 'Open Sans', verdana, arial, sans-serif; font-size: 12px; fill: rgb(0, 0, 0); fill-opacity: 1; white-space: pre; opacity: 1;" transform="translate(0,295.03)">0.6</text></g><g class="ytick"><text text-anchor="end" x="54.6" y="4.199999999999999" style="font-family: 'Open Sans', verdana, arial, sans-serif; font-size: 12px; fill: rgb(0, 0, 0); fill-opacity: 1; white-space: pre; opacity: 1;" transform="translate(0,246.04)">0.8</text></g><g class="ytick"><text text-anchor="end" x="54.6" y="4.199999999999999" style="font-family: 'Open Sans', verdana, arial, sans-serif; font-size: 12px; fill: rgb(0, 0, 0); fill-opacity: 1; white-space: pre; opacity: 1;" transform="translate(0,197.05)">1</text></g><g class="ytick"><text text-anchor="end" x="54.6" y="4.199999999999999" style="font-family: 'Open Sans', verdana, arial, sans-serif; font-size: 12px; fill: rgb(0, 0, 0); fill-opacity: 1; white-space: pre; opacity: 1;" transform="translate(0,148.06)">1.2</text></g><g class="ytick"><text text-anchor="end" x="54.6" y="4.199999999999999" style="font-family: 'Open Sans', verdana, arial, sans-serif; font-size: 12px; fill: rgb(0, 0, 0); fill-opacity: 1; white-space: pre; opacity: 1;" transform="translate(0,99.07)">1.4</text></g><g class="ytick"><text text-anchor="end" x="54.6" y="4.199999999999999" style="font-family: 'Open Sans', verdana, arial, sans-serif; font-size: 12px; fill: rgb(0, 0, 0); fill-opacity: 1; white-space: pre; opacity: 1;" transform="translate(0,50.08)">1.6</text></g></g><g class="overaxes-above"/></g></g><g class="polarlayer"/><g class="smithlayer"/><g class="ternarylayer"/><g class="geolayer"/><g class="funnelarealayer"/><g class="pielayer"/><g class="iciclelayer"/><g class="treemaplayer"/><g class="sunburstlayer"/><g class="glimages"/><defs id="topdefs-3b1a58"><g class="clips"/><clipPath id="legend3b1a58"><rect width="92" height="86" x="0" y="0"/></clipPath></defs><g class="layer-above"><g class="imagelayer"/><g class="shapelayer"/></g><g class="infolayer"><g class="legend" pointer-events="all" transform="translate(598.5,11)"><rect class="bg" shape-rendering="crispEdges" style="stroke: rgb(68, 68, 68); stroke-opacity: 1; fill: rgb(255, 255, 255); fill-opacity: 1; stroke-width: 0px;" width="92" height="86" x="0" y="0"/><g class="scrollbox" transform="" clip-path="url(#legend3b1a58)"><g class="groups"><g class="traces" transform="translate(0,14.5)" style="opacity: 1;"><text class="legendtext" text-anchor="start" x="40" y="4.680000000000001" style="font-family: 'Open Sans', verdana, arial, sans-serif; font-size: 12px; fill: rgb(0, 0, 0); fill-opacity: 1; white-space: pre;">random</text><g class="layers"><g class="legendfill"><path class="js-fill" d="M5,-2h30v6h-30z" style="stroke-width: 0; fill: rgb(128, 128, 128); fill-opacity: 0.2;"/></g><g class="legendlines"><path class="js-line" d="M5,-2h30" style="fill: none; stroke: rgb(25, 211, 243); stroke-opacity: 1; stroke-width: 0px;"/></g><g class="legendsymbols"><g class="legendpoints"/></g></g><rect class="legendtoggle" x="0" y="-9.5" width="86.359375" height="19" style="fill: rgb(0, 0, 0); fill-opacity: 0;"/></g><g class="traces" transform="translate(0,33.5)" style="opacity: 1;"><text class="legendtext" text-anchor="start" x="40" y="4.680000000000001" style="font-family: 'Open Sans', verdana, arial, sans-serif; font-size: 12px; fill: rgb(0, 0, 0); fill-opacity: 1; white-space: pre;">error</text><g class="layers" style="opacity: 1;"><g class="legendfill"/><g class="legendlines"><path class="js-line" d="M5,0h30" style="fill: none; stroke: rgb(0, 204, 150); stroke-opacity: 1; stroke-width: 2px;"/></g><g class="legendsymbols"><g class="legendpoints"/></g></g><rect class="legendtoggle" x="0" y="-9.5" width="86.359375" height="19" style="fill: rgb(0, 0, 0); fill-opacity: 0;"/></g><g class="traces" transform="translate(0,52.5)" style="opacity: 1;"><text class="legendtext" text-anchor="start" x="40" y="4.680000000000001" style="font-family: 'Open Sans', verdana, arial, sans-serif; font-size: 12px; fill: rgb(0, 0, 0); fill-opacity: 1; white-space: pre;">worse</text><g class="layers" style="opacity: 1;"><g class="legendfill"/><g class="legendlines"><path class="js-line" d="M5,0h30" style="fill: none; stroke: rgb(239, 85, 59); stroke-opacity: 1; stroke-width: 2px;"/></g><g class="legendsymbols"><g class="legendpoints"/></g></g><rect class="legendtoggle" x="0" y="-9.5" width="86.359375" height="19" style="fill: rgb(0, 0, 0); fill-opacity: 0;"/></g><g class="traces" transform="translate(0,71.5)" style="opacity: 1;"><text class="legendtext" text-anchor="start" x="40" y="4.680000000000001" style="font-family: 'Open Sans', verdana, arial, sans-serif; font-size: 12px; fill: rgb(0, 0, 0); fill-opacity: 1; white-space: pre;">better</text><g class="layers" style="opacity: 1;"><g class="legendfill"/><g class="legendlines"><path class="js-line" d="M5,0h30" style="fill: none; stroke: rgb(99, 110, 250); stroke-opacity: 1; stroke-width: 2px;"/></g><g class="legendsymbols"><g class="legendpoints"/></g></g><rect class="legendtoggle" x="0" y="-9.5" width="86.359375" height="19" style="fill: rgb(0, 0, 0); fill-opacity: 0;"/></g></g></g><rect class="scrollbar" rx="20" ry="3" width="0" height="0" style="fill: rgb(128, 139, 164); fill-opacity: 1;" x="0" y="0"/></g><g class="g-gtitle"/><g class="g-xtitle"><text class="xtitle" x="325.5" y="489.20625" text-anchor="middle" style="opacity: 1; font-family: 'Open Sans', verdana, arial, sans-serif; font-size: 14px; fill: rgb(0, 0, 0); fill-opacity: 1; white-space: pre;">Confidence percentiles</text></g><g class="g-ytitle"><text class="ytitle" transform="rotate(-90,15.568750000000001,226.5)" x="15.568750000000001" y="226.5" text-anchor="middle" style="opacity: 1; font-family: 'Open Sans', verdana, arial, sans-serif; font-size: 14px; fill: rgb(0, 0, 0); fill-opacity: 1; white-space: pre;">MAE</text></g></g></svg>