<svg xmlns="http://www.w3.org/2000/svg" width="700" height="500" class="main-svg"><path d="M0 0h700v500H0z" style="fill:#fff;fill-opacity:1"/><defs><clipPath id="a" class="plotclip"><path d="M0 0h625v403H0z"/></clipPath></defs><g class="cartesianlayer"><g class="subplot xy"><g class="gridlayer"><g class="x"><path d="M0 40v403" class="xgrid crisp" style="stroke:#d3d3d3;stroke-opacity:1;stroke-width:1px" transform="translate(75.91)"/><path d="M0 40v403" class="xgrid crisp" style="stroke:#d3d3d3;stroke-opacity:1;stroke-width:1px" transform="translate(172.53)"/><path d="M0 40v403" class="xgrid crisp" style="stroke:#d3d3d3;stroke-opacity:1;stroke-width:1px" transform="translate(269.15)"/><path d="M0 40v403" class="xgrid crisp" style="stroke:#d3d3d3;stroke-opacity:1;stroke-width:1px" transform="translate(365.76)"/><path d="M0 40v403" class="xgrid crisp" style="stroke:#d3d3d3;stroke-opacity:1;stroke-width:1px" transform="translate(559)"/><path d="M0 40v403" class="xgrid crisp" style="stroke:#d3d3d3;stroke-opacity:1;stroke-width:1px" transform="translate(655.61)"/></g><g class="y"><path d="M74 0h625" class="ygrid crisp" style="stroke:#d3d3d3;stroke-opacity:1;stroke-width:1px" transform="translate(0 372.02)"/><path d="M74 0h625" class="ygrid crisp" style="stroke:#d3d3d3;stroke-opacity:1;stroke-width:1px" transform="translate(0 321.19)"/><path d="M74 0h625" class="ygrid crisp" style="stroke:#d3d3d3;stroke-opacity:1;stroke-width:1px" transform="translate(0 270.36)"/><path d="M74 0h625" class="ygrid crisp" style="stroke:#d3d3d3;stroke-opacity:1;stroke-width:1px" transform="translate(0 219.53)"/><path d="M74 0h625" class="ygrid crisp" style="stroke:#d3d3d3;stroke-opacity:1;stroke-width:1px" transform="translate(0 168.7)"/><path d="M74 0h625" class="ygrid crisp" style="stroke:#d3d3d3;stroke-opacity:1;stroke-width:1px" transform="translate(0 117.87)"/><path d="M74 0h625" class="ygrid crisp" style="stroke:#d3d3d3;stroke-opacity:1;stroke-width:1px" transform="translate(0 67.04)"/></g></g><g class="zerolinelayer"><path d="M0 40v403" class="xzl zl crisp" style="stroke:#ebf0f8;stroke-opacity:1;stroke-width:2px" transform="translate(462.38)"/><path d="M74 0h625" class="yzl zl crisp" style="stroke:#ebf0f8;stroke-opacity:1;stroke-width:2px" transform="translate(0 422.85)"/></g><g class="plot" clip-path="url(#a)" transform="translate(74 40)"><g class="scatterlayer mlayer"><g class="trace scatter trace2d591f" style="stroke-miterlimit:2;opacity:1"><g class="lines"><path d="m0 382.85 56.25-.75 3.13-1.72 12.5-24.22 3.12-3.5 3.13-3.88 3.12-7.44 6.25-2.98 3.13-9.62 3.12-9.72 3.13-5.71 6.25-22.21 3.12-6.64 3.13 1.04 3.12-.17 6.25-.92 3.13 2.77 3.12-1.98 3.13-14.68 6.25-6.15 3.12-19.06 3.13-9.05 3.12-12.27 3.13 22.98 3.12-.46 6.25-6.98 3.13-.92 3.12-5.51 3.13-12.74 3.12-8.55 3.13-15.65 3.12 4.37 3.13 10.12 6.25 6.01 3.12-19.17 3.13 13.94 3.12 6.13 3.13 3.26 3.12 1.69 3.13-1.11 3.12-4.23 9.38-11.72 3.12-1.83 3.13-1.56 3.12.93 3.13-11.72 3.12 20.42 3.13 5.95 3.12-12.03 3.13-14.32 3.12-8.67 3.13-12.99 3.12-1.35 3.13 2.11 3.12 4.27 6.25 7.15 3.13 9.02 6.25 17.58 3.12 6.89 6.25 13.8 3.13 13.89 3.12 11.23 3.13 4.59 3.12 6.42 3.13 3.14 3.12 4.57 3.13 1.21 3.12-.17 3.13 2.64 12.5 16.07 3.12 3.39 3.13 3.05 3.12 4.67 12.5 13.66 3.13 2.24 6.25 3.41 3.12.95 15.63 3.68 3.12.62 12.5 1.96 3.13-.07 3.12-7.38 3.13-.01 3.12-.96 3.13 1.39 3.12-3.17 3.13-14.69 3.12-12.14 3.13 1.63 3.12-9.42 3.13 3 3.12-8.67 3.13-2.89 3.12 14.92 3.13-1.13 3.12-14.15 3.13-4.53 3.12-12.96 3.13-7.84L450 239.6l3.13-18.07 3.12-95.06 3.13 51.94 3.12.37 3.13-68.47 3.12 6.87 3.13-28.71L475 61.92l3.13 23.44 3.12-.74 3.13-17.54 3.12-17.5 3.13-29.43 3.12 27.54 3.13 14.2L500 99.48l3.13 16.06 3.12 42.61 3.13-6.59 3.12-8.79 3.13 6.12 3.12-7.57 3.13-11.15 3.12 1.56 3.13-4.66 3.12-33.97 3.13 5.67 3.12-20.18 3.13 2.82 3.12 87.12 3.13 31.81 3.12 22.57 3.13.05 6.25 23.06 3.12-1.85 3.13 7.52 3.12 51.74 3.13 17.12 3.12 62.3h50" class="js-line" style="vector-effect:none;fill:none;stroke:#636efa;stroke-opacity:1;stroke-width:2px;opacity:1"/></g></g></g></g><path d="M73 443.5h627M73 39.5h627" class="xlines-above crisp" style="fill:none;stroke-width:1px;stroke:#000;stroke-opacity:1"/><path d="M73.5 40v403m626-403v403" class="ylines-above crisp" style="fill:none;stroke-width:1px;stroke:#000;stroke-opacity:1"/><g class="xaxislayer-above"><path d="M0 444v5" class="xtick ticks crisp" style="stroke:#444;stroke-opacity:1;stroke-width:1px" transform="translate(75.91)"/><path d="M0 444v5" class="xtick ticks crisp" style="stroke:#444;stroke-opacity:1;stroke-width:1px" transform="translate(172.53)"/><path d="M0 444v5" class="xtick ticks crisp" style="stroke:#444;stroke-opacity:1;stroke-width:1px" transform="translate(269.15)"/><path d="M0 444v5" class="xtick ticks crisp" style="stroke:#444;stroke-opacity:1;stroke-width:1px" transform="translate(365.76)"/><path d="M0 444v5" class="xtick ticks crisp" style="stroke:#444;stroke-opacity:1;stroke-width:1px" transform="translate(462.38)"/><path d="M0 444v5" class="xtick ticks crisp" style="stroke:#444;stroke-opacity:1;stroke-width:1px" transform="translate(559)"/><path d="M0 444v5" class="xtick ticks crisp" style="stroke:#444;stroke-opacity:1;stroke-width:1px" transform="translate(655.61)"/><text y="468.2" class="xtick" style="font-family:&quot;Open Sans&quot;,verdana,arial,sans-serif;font-size:16px;fill:#000;fill-opacity:1;white-space:pre;opacity:1" text-anchor="middle" transform="translate(75.91)">−80</text><text y="468.2" class="xtick" style="font-family:&quot;Open Sans&quot;,verdana,arial,sans-serif;font-size:16px;fill:#000;fill-opacity:1;white-space:pre;opacity:1" text-anchor="middle" transform="translate(172.53)">−60</text><text y="468.2" class="xtick" style="font-family:&quot;Open Sans&quot;,verdana,arial,sans-serif;font-size:16px;fill:#000;fill-opacity:1;white-space:pre;opacity:1" text-anchor="middle" transform="translate(269.15)">−40</text><text y="468.2" class="xtick" style="font-family:&quot;Open Sans&quot;,verdana,arial,sans-serif;font-size:16px;fill:#000;fill-opacity:1;white-space:pre;opacity:1" text-anchor="middle" transform="translate(365.76)">−20</text><text y="468.2" class="xtick" style="font-family:&quot;Open Sans&quot;,verdana,arial,sans-serif;font-size:16px;fill:#000;fill-opacity:1;white-space:pre;opacity:1" text-anchor="middle" transform="translate(462.38)">0</text><text y="468.2" class="xtick" style="font-family:&quot;Open Sans&quot;,verdana,arial,sans-serif;font-size:16px;fill:#000;fill-opacity:1;white-space:pre;opacity:1" text-anchor="middle" transform="translate(559)">20</text><text y="468.2" class="xtick" style="font-family:&quot;Open Sans&quot;,verdana,arial,sans-serif;font-size:16px;fill:#000;fill-opacity:1;white-space:pre;opacity:1" text-anchor="middle" transform="translate(655.61)">40</text></g><g class="yaxislayer-above"><path d="M73 0h-5" class="ytick ticks crisp" style="stroke:#444;stroke-opacity:1;stroke-width:1px" transform="translate(0 422.85)"/><path d="M73 0h-5" class="ytick ticks crisp" style="stroke:#444;stroke-opacity:1;stroke-width:1px" transform="translate(0 372.02)"/><path d="M73 0h-5" class="ytick ticks crisp" style="stroke:#444;stroke-opacity:1;stroke-width:1px" transform="translate(0 321.19)"/><path d="M73 0h-5" class="ytick ticks crisp" style="stroke:#444;stroke-opacity:1;stroke-width:1px" transform="translate(0 270.36)"/><path d="M73 0h-5" class="ytick ticks crisp" style="stroke:#444;stroke-opacity:1;stroke-width:1px" transform="translate(0 219.53)"/><path d="M73 0h-5" class="ytick ticks crisp" style="stroke:#444;stroke-opacity:1;stroke-width:1px" transform="translate(0 168.7)"/><path d="M73 0h-5" class="ytick ticks crisp" style="stroke:#444;stroke-opacity:1;stroke-width:1px" transform="translate(0 117.87)"/><path d="M73 0h-5" class="ytick ticks crisp" style="stroke:#444;stroke-opacity:1;stroke-width:1px" transform="translate(0 67.04)"/><text x="64.8" y="5.6" class="ytick" style="font-family:&quot;Open Sans&quot;,verdana,arial,sans-serif;font-size:16px;fill:#000;fill-opacity:1;white-space:pre;opacity:1" text-anchor="end" transform="translate(0 422.85)">0</text><text x="64.8" y="5.6" class="ytick" style="font-family:&quot;Open Sans&quot;,verdana,arial,sans-serif;font-size:16px;fill:#000;fill-opacity:1;white-space:pre;opacity:1" text-anchor="end" transform="translate(0 372.02)">0.02</text><text x="64.8" y="5.6" class="ytick" style="font-family:&quot;Open Sans&quot;,verdana,arial,sans-serif;font-size:16px;fill:#000;fill-opacity:1;white-space:pre;opacity:1" text-anchor="end" transform="translate(0 321.19)">0.04</text><text x="64.8" y="5.6" class="ytick" style="font-family:&quot;Open Sans&quot;,verdana,arial,sans-serif;font-size:16px;fill:#000;fill-opacity:1;white-space:pre;opacity:1" text-anchor="end" transform="translate(0 270.36)">0.06</text><text x="64.8" y="5.6" class="ytick" style="font-family:&quot;Open Sans&quot;,verdana,arial,sans-serif;font-size:16px;fill:#000;fill-opacity:1;white-space:pre;opacity:1" text-anchor="end" transform="translate(0 219.53)">0.08</text><text x="64.8" y="5.6" class="ytick" style="font-family:&quot;Open Sans&quot;,verdana,arial,sans-serif;font-size:16px;fill:#000;fill-opacity:1;white-space:pre;opacity:1" text-anchor="end" transform="translate(0 168.7)">0.1</text><text x="64.8" y="5.6" class="ytick" style="font-family:&quot;Open Sans&quot;,verdana,arial,sans-serif;font-size:16px;fill:#000;fill-opacity:1;white-space:pre;opacity:1" text-anchor="end" transform="translate(0 117.87)">0.12</text><text x="64.8" y="5.6" class="ytick" style="font-family:&quot;Open Sans&quot;,verdana,arial,sans-serif;font-size:16px;fill:#000;fill-opacity:1;white-space:pre;opacity:1" text-anchor="end" transform="translate(0 67.04)">0.14</text></g></g></g><g class="infolayer"><g class="g-gtitle"><text x="350" y="10" class="gtitle" dy=".7em" style="font-family:&quot;Open Sans&quot;,verdana,arial,sans-serif;font-size:22px;fill:#000;opacity:1;font-weight:400;white-space:pre" text-anchor="middle">Phonon DOS of H2 (mp-23907)</text></g><g class="g-xtitle"><text x="386.5" y="499.503" class="xtitle" style="font-family:&quot;Open Sans&quot;,verdana,arial,sans-serif;font-size:19px;fill:#000;opacity:1;font-weight:400;white-space:pre" text-anchor="middle" transform="translate(0 -3.503)">Frequency (THz)</text></g><g class="g-ytitle"><text x=".653" y="241.5" class="ytitle" style="font-family:&quot;Open Sans&quot;,verdana,arial,sans-serif;font-size:19px;fill:#000;opacity:1;font-weight:400;white-space:pre" text-anchor="middle" transform="rotate(-90 9.826 232.327)">Density of States</text></g></g></svg>
