<svg class="main-svg" xmlns="http://www.w3.org/2000/svg" xmlns:xlink="http://www.w3.org/1999/xlink" width="700" height="500" style="" viewBox="0 0 700 500"><rect x="0" y="0" width="700" height="500" style="fill: rgb(255, 255, 255); fill-opacity: 1;"/><defs id="defs-001750"><g class="clips"><clipPath id="clip001750xyplot" class="plotclip"><rect width="623" height="424"/></clipPath><clipPath class="axesclip" id="clip001750x"><rect x="63" y="0" width="623" height="500"/></clipPath><clipPath class="axesclip" id="clip001750y"><rect x="0" y="18" width="700" height="424"/></clipPath><clipPath class="axesclip" id="clip001750xy"><rect x="63" y="18" width="623" height="424"/></clipPath></g><g class="gradients"/><g class="patterns"/></defs><g class="bglayer"/><g class="layer-below"><g class="imagelayer"/><g class="shapelayer"/></g><g class="cartesianlayer"><g class="subplot xy"><g class="layer-subplot"><g class="shapelayer"/><g class="imagelayer"/></g><g class="minor-gridlayer"><g class="x"/><g class="y"/></g><g class="gridlayer"><g class="x"><path class="xgrid crisp" transform="translate(187.6,0)" d="M0,18v424" style="stroke: rgb(211, 211, 211); stroke-opacity: 1; stroke-width: 1px;"/><path class="xgrid crisp" transform="translate(312.2,0)" d="M0,18v424" style="stroke: rgb(211, 211, 211); stroke-opacity: 1; stroke-width: 1px;"/><path class="xgrid crisp" transform="translate(436.8,0)" d="M0,18v424" style="stroke: rgb(211, 211, 211); stroke-opacity: 1; stroke-width: 1px;"/><path class="xgrid crisp" transform="translate(561.4,0)" d="M0,18v424" style="stroke: rgb(211, 211, 211); stroke-opacity: 1; stroke-width: 1px;"/></g><g class="y"><path class="ygrid crisp" transform="translate(0,357.2)" d="M63,0h623" style="stroke: rgb(211, 211, 211); stroke-opacity: 1; stroke-width: 1px;"/><path class="ygrid crisp" transform="translate(0,272.4)" d="M63,0h623" style="stroke: rgb(211, 211, 211); stroke-opacity: 1; stroke-width: 1px;"/><path class="ygrid crisp" transform="translate(0,187.6)" d="M63,0h623" style="stroke: rgb(211, 211, 211); stroke-opacity: 1; stroke-width: 1px;"/><path class="ygrid crisp" transform="translate(0,102.8)" d="M63,0h623" style="stroke: rgb(211, 211, 211); stroke-opacity: 1; stroke-width: 1px;"/></g></g><g class="zerolinelayer"><path class="yzl zl crisp" transform="translate(0,442)" d="M63,0h623" style="stroke: rgb(235, 240, 248); stroke-opacity: 1; stroke-width: 2px;"/></g><g class="layer-between"><g class="shapelayer"/><g class="imagelayer"/></g><path class="xlines-below"/><path class="ylines-below"/><g class="overlines-below"/><g class="xaxislayer-below"/><g class="yaxislayer-below"/><g class="overaxes-below"/><g class="overplot"><g class="xy" transform="translate(63,18)" clip-path="url(#clip001750xyplot)"><g class="scatterlayer mlayer"><g class="trace scatter trace6e2f02" style="stroke-miterlimit: 2; opacity: 1;"><g class="fills"/><g class="errorbars"/><g class="lines"><path class="js-line" d="M0,424L623,0" style="vector-effect: none; fill: none; stroke: rgb(255, 0, 0); stroke-opacity: 1; stroke-dasharray: 9px, 9px; stroke-width: 1px; opacity: 1;"/></g><g class="points"/><g class="text"/></g><g class="trace scatter tracee30e88" style="stroke-miterlimit: 2;"><g class="fills"><g><path class="js-fill" d="M0,424L25.17,424L31.46,423.15L37.76,421.46L44.05,421.46L50.34,420.61L56.64,418.91L62.93,418.91L69.22,418.06L75.52,418.06L81.81,417.22L100.69,412.13L106.98,409.58L113.27,407.04L119.57,407.04L125.86,405.34L132.15,404.5L144.74,401.1L151.03,400.26L157.32,398.56L163.62,396.02L169.91,393.47L176.2,391.78L182.49,390.93L188.79,390.93L195.08,390.08L201.37,387.54L213.96,384.14L220.25,381.6L226.55,379.06L232.84,377.36L239.13,373.97L245.42,373.12L251.72,371.42L258.01,368.03L264.3,366.34L270.6,365.49L276.89,364.64L283.18,362.1L289.47,359.55L295.77,356.16L314.65,345.14L320.94,341.74L327.23,340.9L333.53,339.2L346.11,326.48L352.4,322.24L358.7,318L364.99,312.06L377.58,304.43L383.87,300.19L390.16,297.65L396.45,290.02L402.75,285.78L409.04,278.99L427.92,262.88L434.21,251.86L440.51,242.53L446.8,237.44L453.09,226.42L459.38,218.78L465.68,215.39L471.97,211.15L484.56,206.06L490.85,198.43L497.14,190.8L503.43,177.23L516.02,159.42L522.31,152.64L528.61,140.77L534.9,124.66L560.07,90.74L566.36,78.86L578.95,54.27L585.24,48.34L591.54,33.92L597.83,22.9L604.12,13.57L610.41,5.94L616.71,0L623,0L623,0L0,424Z" style="fill: rgb(128, 128, 128); fill-opacity: 0.2; stroke-width: 0;"/></g></g><g class="errorbars"/><g class="lines"><path class="js-line" d="M0,424L623,0" style="vector-effect: none; fill: none; stroke: rgb(239, 85, 59); stroke-opacity: 1; stroke-width: 0px; opacity: 1;"/></g><g class="points"/><g class="text"/></g><g class="trace scatter trace02654d" style="stroke-miterlimit: 2;"><g class="fills"/><g class="errorbars"/><g class="lines"><path class="js-line" d="M0,424L25.17,424L31.46,423.15L37.76,421.46L44.05,421.46L50.34,420.61L56.64,418.91L62.93,418.91L69.22,418.06L75.52,418.06L81.81,417.22L100.69,412.13L106.98,409.58L113.27,407.04L119.57,407.04L125.86,405.34L132.15,404.5L144.74,401.1L151.03,400.26L157.32,398.56L163.62,396.02L169.91,393.47L176.2,391.78L182.49,390.93L188.79,390.93L195.08,390.08L201.37,387.54L213.96,384.14L220.25,381.6L226.55,379.06L232.84,377.36L239.13,373.97L245.42,373.12L251.72,371.42L258.01,368.03L264.3,366.34L270.6,365.49L276.89,364.64L283.18,362.1L289.47,359.55L295.77,356.16L314.65,345.14L320.94,341.74L327.23,340.9L333.53,339.2L346.11,326.48L352.4,322.24L358.7,318L364.99,312.06L377.58,304.43L383.87,300.19L390.16,297.65L396.45,290.02L402.75,285.78L409.04,278.99L427.92,262.88L434.21,251.86L440.51,242.53L446.8,237.44L453.09,226.42L459.38,218.78L465.68,215.39L471.97,211.15L484.56,206.06L490.85,198.43L497.14,190.8L503.43,177.23L516.02,159.42L522.31,152.64L528.61,140.77L534.9,124.66L560.07,90.74L566.36,78.86L578.95,54.27L585.24,48.34L591.54,33.92L597.83,22.9L604.12,13.57L610.41,5.94L616.71,0L623,0" style="vector-effect: none; fill: none; stroke: rgb(0, 204, 150); stroke-opacity: 1; stroke-width: 2px; opacity: 1;"/></g><g class="points"/><g class="text"/></g><g class="trace scatter tracec106e0" style="stroke-miterlimit: 2;"><g class="fills"><g><path class="js-fill" d="M0,424L81.81,424L88.1,422.3L94.39,421.46L100.69,421.46L106.98,420.61L113.27,420.61L119.57,418.91L125.86,418.06L132.15,418.06L138.44,417.22L144.74,417.22L151.03,414.67L157.32,412.98L163.62,410.43L169.91,407.04L176.2,406.19L182.49,405.34L188.79,403.65L195.08,401.1L201.37,399.41L207.67,397.71L213.96,393.47L220.25,390.93L226.55,390.93L239.13,387.54L245.42,384.14L251.72,379.9L258.01,378.21L264.3,373.97L270.6,371.42L276.89,368.03L283.18,366.34L289.47,364.64L295.77,359.55L302.06,353.62L308.35,349.38L314.65,343.44L320.94,340.9L327.23,338.35L333.53,329.87L352.4,306.13L358.7,301.89L364.99,294.26L371.28,288.32L377.58,278.99L383.87,273.06L390.16,265.42L396.45,251.86L409.04,226.42L415.33,217.09L421.63,214.54L427.92,208.61L434.21,202.67L440.51,194.19L453.09,169.6L459.38,157.73L465.68,147.55L471.97,134.83L478.26,120.42L484.56,113.63L490.85,100.91L497.14,92.43L503.43,83.95L509.73,73.78L516.02,61.06L522.31,53.42L528.61,48.34L534.9,39.86L541.19,28.83L547.48,22.9L553.78,15.26L560.07,9.33L566.36,7.63L572.66,5.09L578.95,0.85L585.24,0L623,0L623,0L0,424Z" style="fill: rgb(128, 128, 128); fill-opacity: 0.2; stroke-width: 0;"/></g></g><g class="errorbars"/><g class="lines"><path class="js-line" d="M0,424L623,0" style="vector-effect: none; fill: none; stroke: rgb(171, 99, 250); stroke-opacity: 1; stroke-width: 0px; opacity: 1;"/></g><g class="points"/><g class="text"/></g><g class="trace scatter tracec753c1" style="stroke-miterlimit: 2;"><g class="fills"/><g class="errorbars"/><g class="lines"><path class="js-line" d="M0,424L81.81,424L88.1,422.3L94.39,421.46L100.69,421.46L106.98,420.61L113.27,420.61L119.57,418.91L125.86,418.06L132.15,418.06L138.44,417.22L144.74,417.22L151.03,414.67L157.32,412.98L163.62,410.43L169.91,407.04L176.2,406.19L182.49,405.34L188.79,403.65L195.08,401.1L201.37,399.41L207.67,397.71L213.96,393.47L220.25,390.93L226.55,390.93L239.13,387.54L245.42,384.14L251.72,379.9L258.01,378.21L264.3,373.97L270.6,371.42L276.89,368.03L283.18,366.34L289.47,364.64L295.77,359.55L302.06,353.62L308.35,349.38L314.65,343.44L320.94,340.9L327.23,338.35L333.53,329.87L352.4,306.13L358.7,301.89L364.99,294.26L371.28,288.32L377.58,278.99L383.87,273.06L390.16,265.42L396.45,251.86L409.04,226.42L415.33,217.09L421.63,214.54L427.92,208.61L434.21,202.67L440.51,194.19L453.09,169.6L459.38,157.73L465.68,147.55L471.97,134.83L478.26,120.42L484.56,113.63L490.85,100.91L497.14,92.43L503.43,83.95L509.73,73.78L516.02,61.06L522.31,53.42L528.61,48.34L534.9,39.86L541.19,28.83L547.48,22.9L553.78,15.26L560.07,9.33L566.36,7.63L572.66,5.09L578.95,0.85L585.24,0L623,0" style="vector-effect: none; fill: none; stroke: rgb(255, 161, 90); stroke-opacity: 1; stroke-width: 2px; opacity: 1;"/></g><g class="points"/><g class="text"/></g></g></g></g><path class="xlines-above crisp" d="M62,442.5H687M62,17.5H687" style="fill: none; stroke-width: 1px; stroke: rgb(0, 0, 0); stroke-opacity: 1;"/><path class="ylines-above crisp" d="M62.5,18V442M686.5,18V442" style="fill: none; stroke-width: 1px; stroke: rgb(0, 0, 0); stroke-opacity: 1;"/><g class="overlines-above"/><g class="xaxislayer-above"><path class="xtick ticks crisp" d="M0,443v5" transform="translate(63,0)" style="stroke: rgb(68, 68, 68); stroke-opacity: 1; stroke-width: 1px;"/><path class="xtick ticks crisp" d="M0,443v5" transform="translate(187.6,0)" style="stroke: rgb(68, 68, 68); stroke-opacity: 1; stroke-width: 1px;"/><path class="xtick ticks crisp" d="M0,443v5" transform="translate(312.2,0)" style="stroke: rgb(68, 68, 68); stroke-opacity: 1; stroke-width: 1px;"/><path class="xtick ticks crisp" d="M0,443v5" transform="translate(436.8,0)" style="stroke: rgb(68, 68, 68); stroke-opacity: 1; stroke-width: 1px;"/><path class="xtick ticks crisp" d="M0,443v5" transform="translate(561.4,0)" style="stroke: rgb(68, 68, 68); stroke-opacity: 1; stroke-width: 1px;"/><path class="xtick ticks crisp" d="M0,443v5" transform="translate(686,0)" style="stroke: rgb(68, 68, 68); stroke-opacity: 1; stroke-width: 1px;"/><g class="xtick"><text text-anchor="middle" x="0" y="462.4" transform="translate(63,0)" style="font-family: 'Open Sans', verdana, arial, sans-serif; font-size: 12px; fill: rgb(0, 0, 0); fill-opacity: 1; white-space: pre; opacity: 1;">0</text></g><g class="xtick"><text text-anchor="middle" x="0" y="462.4" style="font-family: 'Open Sans', verdana, arial, sans-serif; font-size: 12px; fill: rgb(0, 0, 0); fill-opacity: 1; white-space: pre; opacity: 1;" transform="translate(187.6,0)">0.2</text></g><g class="xtick"><text text-anchor="middle" x="0" y="462.4" style="font-family: 'Open Sans', verdana, arial, sans-serif; font-size: 12px; fill: rgb(0, 0, 0); fill-opacity: 1; white-space: pre; opacity: 1;" transform="translate(312.2,0)">0.4</text></g><g class="xtick"><text text-anchor="middle" x="0" y="462.4" style="font-family: 'Open Sans', verdana, arial, sans-serif; font-size: 12px; fill: rgb(0, 0, 0); fill-opacity: 1; white-space: pre; opacity: 1;" transform="translate(436.8,0)">0.6</text></g><g class="xtick"><text text-anchor="middle" x="0" y="462.4" style="font-family: 'Open Sans', verdana, arial, sans-serif; font-size: 12px; fill: rgb(0, 0, 0); fill-opacity: 1; white-space: pre; opacity: 1;" transform="translate(561.4,0)">0.8</text></g><g class="xtick"><text text-anchor="middle" x="0" y="462.4" style="font-family: 'Open Sans', verdana, arial, sans-serif; font-size: 12px; fill: rgb(0, 0, 0); fill-opacity: 1; white-space: pre; opacity: 1;" transform="translate(686,0)">1</text></g></g><g class="yaxislayer-above"><path class="ytick ticks crisp" d="M62,0h-5" transform="translate(0,442)" style="stroke: rgb(68, 68, 68); stroke-opacity: 1; stroke-width: 1px;"/><path class="ytick ticks crisp" d="M62,0h-5" transform="translate(0,357.2)" style="stroke: rgb(68, 68, 68); stroke-opacity: 1; stroke-width: 1px;"/><path class="ytick ticks crisp" d="M62,0h-5" transform="translate(0,272.4)" style="stroke: rgb(68, 68, 68); stroke-opacity: 1; stroke-width: 1px;"/><path class="ytick ticks crisp" d="M62,0h-5" transform="translate(0,187.6)" style="stroke: rgb(68, 68, 68); stroke-opacity: 1; stroke-width: 1px;"/><path class="ytick ticks crisp" d="M62,0h-5" transform="translate(0,102.8)" style="stroke: rgb(68, 68, 68); stroke-opacity: 1; stroke-width: 1px;"/><path class="ytick ticks crisp" d="M62,0h-5" transform="translate(0,18)" style="stroke: rgb(68, 68, 68); stroke-opacity: 1; stroke-width: 1px;"/><g class="ytick"><text text-anchor="end" x="54.6" y="4.199999999999999" transform="translate(0,442)" style="font-family: 'Open Sans', verdana, arial, sans-serif; font-size: 12px; fill: rgb(0, 0, 0); fill-opacity: 1; white-space: pre; opacity: 1;">0</text></g><g class="ytick"><text text-anchor="end" x="54.6" y="4.199999999999999" style="font-family: 'Open Sans', verdana, arial, sans-serif; font-size: 12px; fill: rgb(0, 0, 0); fill-opacity: 1; white-space: pre; opacity: 1;" transform="translate(0,357.2)">0.2</text></g><g class="ytick"><text text-anchor="end" x="54.6" y="4.199999999999999" style="font-family: 'Open Sans', verdana, arial, sans-serif; font-size: 12px; fill: rgb(0, 0, 0); fill-opacity: 1; white-space: pre; opacity: 1;" transform="translate(0,272.4)">0.4</text></g><g class="ytick"><text text-anchor="end" x="54.6" y="4.199999999999999" style="font-family: 'Open Sans', verdana, arial, sans-serif; font-size: 12px; fill: rgb(0, 0, 0); fill-opacity: 1; white-space: pre; opacity: 1;" transform="translate(0,187.6)">0.6</text></g><g class="ytick"><text text-anchor="end" x="54.6" y="4.199999999999999" style="font-family: 'Open Sans', verdana, arial, sans-serif; font-size: 12px; fill: rgb(0, 0, 0); fill-opacity: 1; white-space: pre; opacity: 1;" transform="translate(0,102.8)">0.8</text></g><g class="ytick"><text text-anchor="end" x="54.6" y="4.199999999999999" style="font-family: 'Open Sans', verdana, arial, sans-serif; font-size: 12px; fill: rgb(0, 0, 0); fill-opacity: 1; white-space: pre; opacity: 1;" transform="translate(0,18)">1</text></g></g><g class="overaxes-above"/></g></g><g class="polarlayer"/><g class="smithlayer"/><g class="ternarylayer"/><g class="geolayer"/><g class="funnelarealayer"/><g class="pielayer"/><g class="iciclelayer"/><g class="treemaplayer"/><g class="sunburstlayer"/><g class="glimages"/><defs id="topdefs-001750"><g class="clips"/><clipPath id="legend001750"><rect width="245" height="48" x="0" y="0"/></clipPath></defs><g class="layer-above"><g class="imagelayer"/><g class="shapelayer"/></g><g class="infolayer"><g class="legend" pointer-events="all" transform="translate(75.46000000000001,26.480000000000008)"><rect class="bg" shape-rendering="crispEdges" style="stroke: rgb(68, 68, 68); stroke-opacity: 1; fill: rgb(255, 255, 255); fill-opacity: 0.8; stroke-width: 0px;" width="245" height="48" x="0" y="0"/><g class="scrollbox" transform="" clip-path="url(#legend001750)"><g class="groups"><g class="traces" transform="translate(0,14.5)" style="opacity: 1;"><text class="legendtext" text-anchor="start" x="40" y="4.680000000000001" style="font-family: 'Open Sans', verdana, arial, sans-serif; font-size: 12px; fill: rgb(0, 0, 0); fill-opacity: 1; white-space: pre;">less overconfident (miscal: 0.17)</text><g class="layers"><g class="legendfill"><path class="js-fill" d="M5,-2h30v6h-30z" style="stroke-width: 0; fill: rgb(128, 128, 128); fill-opacity: 0.2;"/></g><g class="legendlines"><path class="js-line" d="M5,-2h30" style="fill: none; stroke: rgb(255, 161, 90); stroke-opacity: 1; stroke-width: 2px;"/></g><g class="legendsymbols"><g class="legendpoints"/></g></g><rect class="legendtoggle" x="0" y="-9.5" width="239.421875" height="19" style="fill: rgb(0, 0, 0); fill-opacity: 0;"/></g><g class="traces" transform="translate(0,33.5)" style="opacity: 1;"><text class="legendtext" text-anchor="start" x="40" y="4.680000000000001" style="font-family: 'Open Sans', verdana, arial, sans-serif; font-size: 12px; fill: rgb(0, 0, 0); fill-opacity: 1; white-space: pre;">overconfident (miscal: 0.20)</text><g class="layers"><g class="legendfill"><path class="js-fill" d="M5,-2h30v6h-30z" style="stroke-width: 0; fill: rgb(128, 128, 128); fill-opacity: 0.2;"/></g><g class="legendlines"><path class="js-line" d="M5,-2h30" style="fill: none; stroke: rgb(0, 204, 150); stroke-opacity: 1; stroke-width: 2px;"/></g><g class="legendsymbols"><g class="legendpoints"/></g></g><rect class="legendtoggle" x="0" y="-9.5" width="239.421875" height="19" style="fill: rgb(0, 0, 0); fill-opacity: 0;"/></g></g></g><rect class="scrollbar" rx="20" ry="3" width="0" height="0" style="fill: rgb(128, 139, 164); fill-opacity: 1;" x="0" y="0"/></g><g class="g-gtitle"/><g class="g-xtitle"><text class="xtitle" x="374.5" y="489.20625" text-anchor="middle" style="opacity: 1; font-family: 'Open Sans', verdana, arial, sans-serif; font-size: 14px; fill: rgb(0, 0, 0); fill-opacity: 1; white-space: pre;">Theoretical Quantile</text></g><g class="g-ytitle"><text class="ytitle" transform="rotate(-90,15.568750000000001,230)" x="15.568750000000001" y="230" text-anchor="middle" style="opacity: 1; font-family: 'Open Sans', verdana, arial, sans-serif; font-size: 14px; fill: rgb(0, 0, 0); fill-opacity: 1; white-space: pre;">Observed Quantile</text></g></g></svg>