<svg xmlns="http://www.w3.org/2000/svg" xml:space="preserve" style="fill-rule:evenodd;clip-rule:evenodd" viewBox="0 0 700 500"><path d="M0 0h700v500H0z" style="fill:#fff;fill-rule:nonzero"/><path d="M30 0h480v123.094H30zm0 204.611h480v70.676H30zm0 99.248h480V320H30zm0-28.572c240 0 240 20 480 20v8.572c-240 0-240-20-480-20zm0-149.708c240 0 240 40.938 480 40.938v8.065c-240 0-240-40.939-480-40.939zm0 49.003h480v5.376H30zm0 25.376c240 0 240-20 480-20v4.653c-240 0-240 20-480 20z" style="fill-opacity:.2;fill-rule:nonzero" transform="translate(12.106 67.212)scale(1.25146)"/><path d="M30 123.094c240 0 240 20 480 20v2.485c-240 0-240-20-480-20z" style="fill-opacity:.2;fill-rule:nonzero" transform="translate(12.106 67.212)scale(1.25146)"/><path d="M30 153.643c240 0 240-8.064 480-8.064v.938c-240 0-240 8.065-480 8.065z" style="fill-opacity:.2;fill-rule:nonzero;stroke:#000;stroke-opacity:.2;stroke-width:1px" transform="translate(12.106 67.212)scale(1.25146)"/><path d="M0 0h30v133.643H0z" style="fill:#636efa;fill-opacity:.8;fill-rule:nonzero;stroke:#000;stroke-width:.5px" transform="translate(12.106 67.212)scale(1.25146)"/><text style="font-family:&quot;LucidaGrande&quot;,&quot;Lucida Grande&quot;,sans-serif;font-weight:500;font-size:12px;fill:#2a3f5f" transform="translate(53.717 156.093)scale(1.25146)">25: 10540</text><path d="M0 0h30v83.901H0z" style="fill:#ef553b;fill-opacity:.8;fill-rule:nonzero;stroke:#000;stroke-width:.5px" transform="translate(12.106 317.45)scale(1.25146)"/><text style="font-family:&quot;LucidaGrande&quot;,&quot;Lucida Grande&quot;,sans-serif;font-weight:500;font-size:12px;fill:#2a3f5f" transform="translate(53.717 375.207)scale(1.25146)">99: 6617</text><path d="M0 0h30v16.141H0z" style="fill:#00cc96;fill-opacity:.8;fill-rule:nonzero;stroke:#000;stroke-width:.5px" transform="translate(12.106 447.479)scale(1.25146)"/><text style="font-family:&quot;LucidaGrande&quot;,&quot;Lucida Grande&quot;,sans-serif;font-weight:500;font-size:12px;fill:#2a3f5f" transform="translate(53.717 462.836)scale(1.25146)">221: 1273</text><path d="M0 0h30v5.376H0z" style="fill:#19d3f3;fill-opacity:.8;fill-rule:nonzero;stroke:#000;stroke-width:.5px" transform="translate(12.106 285.694)scale(1.25146)"/><text style="font-family:&quot;LucidaGrande&quot;,&quot;Lucida Grande&quot;,sans-serif;font-weight:500;font-size:12px;fill:#2a3f5f" transform="translate(53.717 294.314)scale(1.25146)">123: 424</text><path d="M0 0h30v.938H0z" style="fill:#ff97ff;fill-opacity:.8;fill-rule:nonzero;stroke:#000;stroke-width:.5px" transform="translate(12.106 259.49)scale(1.25146)"/><text style="font-family:&quot;LucidaGrande&quot;,&quot;Lucida Grande&quot;,sans-serif;font-weight:500;font-size:12px;fill:#2a3f5f" transform="translate(53.717 265.333)scale(1.25146)">47: 74</text><path d="M0 0h30v123.094H0z" style="fill:#fecb52;fill-opacity:.8;fill-rule:nonzero;stroke:#000;stroke-width:.5px" transform="translate(650.35 67.212)scale(1.25146)"/><text x="-53.121" style="font-family:&quot;LucidaGrande&quot;,&quot;Lucida Grande&quot;,sans-serif;font-weight:500;font-size:12px;fill:#2a3f5f" transform="translate(646.283 149.491)scale(1.25146)">25: 9708</text><path d="M0 0h30v70.676H0z" style="fill:#636efa;fill-opacity:.8;fill-rule:nonzero;stroke:#000;stroke-width:.5px" transform="translate(650.35 323.274)scale(1.25146)"/><text x="-53.121" style="font-family:&quot;LucidaGrande&quot;,&quot;Lucida Grande&quot;,sans-serif;font-weight:500;font-size:12px;fill:#2a3f5f" transform="translate(646.283 372.755)scale(1.25146)">99: 5574</text><path d="M0 0h30v24.713H0z" style="fill:#ef553b;fill-opacity:.8;fill-rule:nonzero;stroke:#000;stroke-width:.5px" transform="translate(650.35 436.751)scale(1.25146)"/><text x="-60.709" style="font-family:&quot;LucidaGrande&quot;,&quot;Lucida Grande&quot;,sans-serif;font-weight:500;font-size:12px;fill:#2a3f5f" transform="translate(646.283 457.47)scale(1.25146)">221: 1949</text><path d="M0 0h30v18.094H0z" style="fill:#ab63fa;fill-opacity:.8;fill-rule:nonzero;stroke:#000;stroke-width:.5px" transform="translate(650.35 275.6)scale(1.25146)"/><text x="-60.709" style="font-family:&quot;LucidaGrande&quot;,&quot;Lucida Grande&quot;,sans-serif;font-weight:500;font-size:12px;fill:#2a3f5f" transform="translate(646.283 292.179)scale(1.25146)">123: 1427</text><path d="M0 0h30v3.423H0z" style="fill:#ff6692;fill-opacity:.8;fill-rule:nonzero;stroke:#000;stroke-width:.5px" transform="translate(650.35 246.288)scale(1.25146)"/><text x="-45.533" style="font-family:&quot;LucidaGrande&quot;,&quot;Lucida Grande&quot;,sans-serif;font-weight:500;font-size:12px;fill:#2a3f5f" transform="translate(646.283 253.687)scale(1.25146)">47: 270</text><text x="-192.217" style="font-family:&quot;LucidaGrande&quot;,&quot;Lucida Grande&quot;,sans-serif;font-weight:500;font-size:17px;fill:#2a3f5f" transform="translate(350 35.67)scale(1.25146)">Spacegroups as determined by Spglib vs Aﬂow</text><text x="-152.66" style="font-family:&quot;LucidaGrande&quot;,&quot;Lucida Grande&quot;,sans-serif;font-weight:500;font-size:17px;fill:#2a3f5f" transform="translate(350 55.192)scale(1.25146)">for the Matbench Perovskites dataset</text></svg>
