<svg xmlns="http://www.w3.org/2000/svg" width="700" height="500" class="main-svg"><path d="M0 0h700v500H0z" style="fill:#fff;fill-opacity:1"/><defs><clipPath id="a" class="plotclip"><path d="M0 0h643v362H0z"/></clipPath><clipPath id="b" class="axesclip"><path d="M56 0h643v500H56z"/></clipPath></defs><g class="cartesianlayer"><g class="subplot xy"><g class="gridlayer"><g class="y"><path d="M56 0h643" class="ygrid crisp" style="stroke:#d3d3d3;stroke-opacity:1;stroke-width:1px" transform="translate(0 354.99)"/><path d="M56 0h643" class="ygrid crisp" style="stroke:#d3d3d3;stroke-opacity:1;stroke-width:1px" transform="translate(0 307.97)"/><path d="M56 0h643" class="ygrid crisp" style="stroke:#d3d3d3;stroke-opacity:1;stroke-width:1px" transform="translate(0 260.96)"/><path d="M56 0h643" class="ygrid crisp" style="stroke:#d3d3d3;stroke-opacity:1;stroke-width:1px" transform="translate(0 213.95)"/><path d="M56 0h643" class="ygrid crisp" style="stroke:#d3d3d3;stroke-opacity:1;stroke-width:1px" transform="translate(0 166.94)"/><path d="M56 0h643" class="ygrid crisp" style="stroke:#d3d3d3;stroke-opacity:1;stroke-width:1px" transform="translate(0 119.92)"/><path d="M56 0h643" class="ygrid crisp" style="stroke:#d3d3d3;stroke-opacity:1;stroke-width:1px" transform="translate(0 72.91)"/></g></g><g class="zerolinelayer"><path d="M56 0h643" class="yzl zl crisp" style="stroke:#ebf0f8;stroke-opacity:1;stroke-width:2px" transform="translate(0 402)"/></g><g class="plot" clip-path="url(#a)" transform="translate(56 40)"><g class="barlayer mlayer"><g class="trace bars" style="opacity:1"><g class="points"><path d="M-2.8 362v-30.56h5.6V362Zm6.99 0v-11.75h5.59V362Z" class="point" style="vector-effect:none;opacity:1;stroke-width:.5px;fill:red;fill-opacity:1;stroke:#fff;stroke-opacity:1"/></g></g><g class="trace bars" style="opacity:1"><g class="points"><path d="M11.18 362v-68.17h5.59V362Zm6.99 0V253.87h5.59V362Zm6.99 0v-23.51h5.59V362Zm6.99 0v-11.75h5.59V362Zm6.99 0v-42.31h5.59V362Zm6.99 0v-2.35h5.59V362Zm6.99 0v-4.7h5.59v4.7Zm6.99 0v-11.75h5.59V362Zm6.99 0v-51.71h5.59V362Zm6.98 0v-4.7h5.6v4.7Z" class="point" style="vector-effect:none;opacity:1;stroke-width:.5px;fill:teal;fill-opacity:1;stroke:#fff;stroke-opacity:1"/></g></g><g class="trace bars" style="opacity:1"><g class="points"><path d="M81.07 362v-2.35h5.6V362Zm6.99 0v-4.7h5.59v4.7Zm6.99 0v-7.05h5.59V362Zm6.99 0v-4.7h5.59v4.7Zm6.99 0v-32.91h5.59V362Zm6.99 0v-4.7h5.59v4.7Zm6.99 0v-2.35h5.59V362Zm6.99 0v-2.35h5.59V362Zm6.99 0v-7.05h5.59V362Zm6.99 0v-4.7h5.59v4.7Zm6.99 0v-7.05h5.59V362Zm6.98 0v-4.7h5.6v4.7Zm6.99 0v-39.96h5.59V362Zm6.99 0v-4.7h5.59v4.7Zm6.99 0v-4.7h5.59v4.7Zm6.99 0v-2.35h5.59V362Zm6.99 0v-49.36h5.59V362Zm6.99 0V246.82h5.59V362Zm6.99 0v-11.75h5.59V362Zm6.99 0v-2.35h5.59V362Zm6.99 0v-11.75h5.59V362Zm6.99 0v-2.35h5.59V362Zm6.98 0v-2.35h5.6V362Zm6.99 0v-2.35h5.6V362Zm6.99 0v-54.06h5.59V362Zm6.99 0v-32.91h5.59V362Z" class="point" style="vector-effect:none;opacity:1;stroke-width:.5px;fill:#00f;fill-opacity:1;stroke:#fff;stroke-opacity:1"/></g></g><g class="trace bars" style="opacity:1"><g class="points"><path d="M262.79 362v-23.51h5.59V362Zm6.99 0v-2.35h5.59V362Zm6.99 0V249.17h5.59V362Zm6.99 0v-2.35h5.59V362Zm6.99 0v-91.68h5.59V362Zm6.99 0v-35.26h5.59V362Zm6.99 0v-2.35h5.59V362Zm6.99 0v-4.7h5.59v4.7Zm6.98 0v-18.81h5.6V362Zm6.99 0v-4.7h5.59v4.7Zm6.99 0v-2.35h5.59V362Zm6.99 0v-9.4h5.59v9.4Zm6.99 0v-4.7h5.59v4.7Zm6.99 0v-16.45h5.59V362Zm6.99 0v-11.75h5.59V362Zm6.99 0V218.61h5.59V362Zm6.99 0v-30.56h5.59V362Zm6.99 0v-4.7h5.59v4.7Zm6.99 0v-86.97h5.59V362Zm6.98 0v-7.05h5.6V362Zm6.99 0v-2.35h5.6V362Zm6.99 0v-7.05h5.59V362Zm6.99 0v-4.7h5.59v4.7Zm6.99 0v-23.51h5.59V362Zm6.99 0v-2.35h5.59V362Zm6.99 0v-2.35h5.59V362Z" class="point" style="vector-effect:none;opacity:1;stroke-width:.5px;fill:green;fill-opacity:1;stroke:#fff;stroke-opacity:1"/></g></g><g class="trace bars" style="opacity:1"><g class="points"><path d="M444.51 362v-30.56h5.59V362Zm6.99 0v-4.7h5.59v4.7Zm6.99 0v-25.86h5.59V362Zm6.99 0V159.84h5.59V362Zm6.99 0v-4.7h5.59v4.7Zm6.98 0V232.71h5.6V362Zm6.99 0v-4.7h5.59v4.7Zm6.99 0v-42.31h5.59V362Zm6.99 0v-14.1h5.59V362Zm6.99 0v-32.91H513V362Zm6.99 0v-11.75h5.59V362Zm6.99 0v-2.35h5.59V362Zm6.99 0v-11.75h5.59V362Zm6.99 0V256.22h5.59V362Z" class="point" style="vector-effect:none;opacity:1;stroke-width:.5px;fill:orange;fill-opacity:1;stroke:#fff;stroke-opacity:1"/></g></g><g class="trace bars" style="opacity:1"><g class="points"><path d="M542.36 362v-4.7h5.59v4.7Zm6.99 0v-14.1h5.59V362Zm6.98 0v-25.86h5.6V362Zm6.99 0V246.82h5.6V362Zm6.99 0v-72.87h5.59V362Z" class="point" style="vector-effect:none;opacity:1;stroke-width:.5px;fill:purple;fill-opacity:1;stroke:#fff;stroke-opacity:1"/></g></g><g class="trace bars" style="opacity:1"><g class="points"><path d="M577.3 362v-2.35h5.59V362Zm6.99 0V16.45h5.59V362Zm6.99 0v-9.4h5.59v9.4Zm6.99 0v-9.4h5.59v9.4Zm6.99 0v-4.7h5.59v4.7Zm6.99 0v-25.86h5.59V362Zm6.99 0V256.22h5.59V362Zm6.99 0V202.16h5.59V362Zm6.99 0v-2.35h5.59V362Zm6.98 0v-2.35h5.6V362Z" class="point" style="vector-effect:none;opacity:1;stroke-width:.5px;fill:#8b0000;fill-opacity:1;stroke:#fff;stroke-opacity:1"/></g></g></g></g><path d="M55 402.5h645M55 39.5h645" class="xlines-above crisp" style="fill:none;stroke-width:1px;stroke:#000;stroke-opacity:1"/><path d="M55.5 40v362m644-362v362" class="ylines-above crisp" style="fill:none;stroke-width:1px;stroke:#000;stroke-opacity:1"/><g class="xaxislayer-above"><path d="M0 403v5" class="xtick ticks crisp" style="stroke:#444;stroke-opacity:1;stroke-width:1px" transform="translate(643.09)"/><path d="M0 403v5" class="xtick ticks crisp" style="stroke:#444;stroke-opacity:1;stroke-width:1px" transform="translate(524.27)"/><path d="M0 403v5" class="xtick ticks crisp" style="stroke:#444;stroke-opacity:1;stroke-width:1px" transform="translate(685.02)"/><path d="M0 403v5" class="xtick ticks crisp" style="stroke:#444;stroke-opacity:1;stroke-width:1px" transform="translate(426.42)"/><path d="M0 403v5" class="xtick ticks crisp" style="stroke:#444;stroke-opacity:1;stroke-width:1px" transform="translate(538.25)"/><path d="M0 403v5" class="xtick ticks crisp" style="stroke:#444;stroke-opacity:1;stroke-width:1px" transform="translate(258.68)"/><path d="M0 403v5" class="xtick ticks crisp" style="stroke:#444;stroke-opacity:1;stroke-width:1px" transform="translate(622.12)"/><path d="M0 403v5" class="xtick ticks crisp" style="stroke:#444;stroke-opacity:1;stroke-width:1px" transform="translate(335.57)"/><path d="M0 403v5" class="xtick ticks crisp" style="stroke:#444;stroke-opacity:1;stroke-width:1px" transform="translate(76.97)"/><path d="M0 403v5" class="xtick ticks crisp" style="stroke:#444;stroke-opacity:1;stroke-width:1px" transform="translate(594.16)"/><path d="M0 403v5" class="xtick ticks crisp" style="stroke:#444;stroke-opacity:1;stroke-width:1px" transform="translate(678.03)"/><path d="M0 403v5" class="xtick ticks crisp" style="stroke:#444;stroke-opacity:1;stroke-width:1px" transform="translate(349.54)"/><path d="M0 403v5" class="xtick ticks crisp" style="stroke:#444;stroke-opacity:1;stroke-width:1px" transform="translate(447.39)"/><path d="M0 403v5" class="xtick ticks crisp" style="stroke:#444;stroke-opacity:1;stroke-width:1px" transform="translate(629.11)"/><path d="M0 403v5" class="xtick ticks crisp" style="stroke:#444;stroke-opacity:1;stroke-width:1px" transform="translate(69.98)"/><path d="M0 403v5" class="xtick ticks crisp" style="stroke:#444;stroke-opacity:1;stroke-width:1px" transform="translate(307.61)"/><path d="M0 403v5" class="xtick ticks crisp" style="stroke:#444;stroke-opacity:1;stroke-width:1px" transform="translate(125.89)"/><path d="M0 403v5" class="xtick ticks crisp" style="stroke:#444;stroke-opacity:1;stroke-width:1px" transform="translate(251.7)"/><path d="M0 403v5" class="xtick ticks crisp" style="stroke:#444;stroke-opacity:1;stroke-width:1px" transform="translate(97.93)"/><path d="M0 403v5" class="xtick ticks crisp" style="stroke:#444;stroke-opacity:1;stroke-width:1px" transform="translate(552.23)"/><text x="2.1" y="416.4" class="xtick" style="font-family:&quot;Open Sans&quot;,verdana,arial,sans-serif;font-size:12px;fill:#2a3f5f;fill-opacity:1;white-space:pre;opacity:1" transform="rotate(90 323.645 731.945)">Fm-3m</text><text x="2.1" y="416.4" class="xtick" style="font-family:&quot;Open Sans&quot;,verdana,arial,sans-serif;font-size:12px;fill:#2a3f5f;fill-opacity:1;white-space:pre;opacity:1" transform="rotate(90 264.235 672.535)">R-3m</text><text x="2.1" y="416.4" class="xtick" style="font-family:&quot;Open Sans&quot;,verdana,arial,sans-serif;font-size:12px;fill:#2a3f5f;fill-opacity:1;white-space:pre;opacity:1" transform="rotate(90 344.61 752.91)">F-43m</text><text x="2.1" y="416.4" class="xtick" style="font-family:&quot;Open Sans&quot;,verdana,arial,sans-serif;font-size:12px;fill:#2a3f5f;fill-opacity:1;white-space:pre;opacity:1" transform="rotate(90 215.31 623.61)">I4/mmm</text><text x="2.1" y="416.4" class="xtick" style="font-family:&quot;Open Sans&quot;,verdana,arial,sans-serif;font-size:12px;fill:#2a3f5f;fill-opacity:1;white-space:pre;opacity:1" transform="rotate(90 271.225 679.525)">P-3m1</text><text x="2.1" y="416.4" class="xtick" style="font-family:&quot;Open Sans&quot;,verdana,arial,sans-serif;font-size:12px;fill:#2a3f5f;fill-opacity:1;white-space:pre;opacity:1" transform="rotate(90 131.44 539.74)">Cmcm</text><text x="2.1" y="416.4" class="xtick" style="font-family:&quot;Open Sans&quot;,verdana,arial,sans-serif;font-size:12px;fill:#2a3f5f;fill-opacity:1;white-space:pre;opacity:1" transform="rotate(90 313.16 721.46)">P6_3/mmc</text><text x="2.1" y="416.4" class="xtick" style="font-family:&quot;Open Sans&quot;,verdana,arial,sans-serif;font-size:12px;fill:#2a3f5f;fill-opacity:1;white-space:pre;opacity:1" transform="rotate(90 169.885 578.185)">P4/nmm</text><text x="2.1" y="416.4" class="xtick" style="font-family:&quot;Open Sans&quot;,verdana,arial,sans-serif;font-size:12px;fill:#2a3f5f;fill-opacity:1;white-space:pre;opacity:1" transform="rotate(90 40.585 448.885)">C2/m</text><text x="2.1" y="416.4" class="xtick" style="font-family:&quot;Open Sans&quot;,verdana,arial,sans-serif;font-size:12px;fill:#2a3f5f;fill-opacity:1;white-space:pre;opacity:1" transform="rotate(90 299.18 707.48)">R-3</text><text x="2.1" y="416.4" class="xtick" style="font-family:&quot;Open Sans&quot;,verdana,arial,sans-serif;font-size:12px;fill:#2a3f5f;fill-opacity:1;white-space:pre;opacity:1" transform="rotate(90 341.115 749.415)">Pm-3m</text><text x="2.1" y="416.4" class="xtick" style="font-family:&quot;Open Sans&quot;,verdana,arial,sans-serif;font-size:12px;fill:#2a3f5f;fill-opacity:1;white-space:pre;opacity:1" transform="rotate(90 176.87 585.17)">I-42d</text><text x="2.1" y="416.4" class="xtick" style="font-family:&quot;Open Sans&quot;,verdana,arial,sans-serif;font-size:12px;fill:#2a3f5f;fill-opacity:1;white-space:pre;opacity:1" transform="rotate(90 225.795 634.095)">I-4</text><text x="2.1" y="416.4" class="xtick" style="font-family:&quot;Open Sans&quot;,verdana,arial,sans-serif;font-size:12px;fill:#2a3f5f;fill-opacity:1;white-space:pre;opacity:1" transform="rotate(90 316.655 724.955)">P6_3mc</text><text x="2.1" y="416.4" class="xtick" style="font-family:&quot;Open Sans&quot;,verdana,arial,sans-serif;font-size:12px;fill:#2a3f5f;fill-opacity:1;white-space:pre;opacity:1" transform="rotate(90 37.09 445.39)">C2/c</text><text x="2.1" y="416.4" class="xtick" style="font-family:&quot;Open Sans&quot;,verdana,arial,sans-serif;font-size:12px;fill:#2a3f5f;fill-opacity:1;white-space:pre;opacity:1" transform="rotate(90 155.905 564.205)">Cmc2_1</text><text x="2.1" y="416.4" class="xtick" style="font-family:&quot;Open Sans&quot;,verdana,arial,sans-serif;font-size:12px;fill:#2a3f5f;fill-opacity:1;white-space:pre;opacity:1" transform="rotate(90 65.045 473.345)">P2_1/m</text><text x="2.1" y="416.4" class="xtick" style="font-family:&quot;Open Sans&quot;,verdana,arial,sans-serif;font-size:12px;fill:#2a3f5f;fill-opacity:1;white-space:pre;opacity:1" transform="rotate(90 127.95 536.25)">Ibam</text><text x="2.1" y="416.4" class="xtick" style="font-family:&quot;Open Sans&quot;,verdana,arial,sans-serif;font-size:12px;fill:#2a3f5f;fill-opacity:1;white-space:pre;opacity:1" transform="rotate(90 51.065 459.365)">P2_1/c</text><text x="2.1" y="416.4" class="xtick" style="font-family:&quot;Open Sans&quot;,verdana,arial,sans-serif;font-size:12px;fill:#2a3f5f;fill-opacity:1;white-space:pre;opacity:1" transform="rotate(90 278.215 686.515)">R-3c</text></g><g class="yaxislayer-above"><path d="M55 0h-5" class="ytick ticks crisp" style="stroke:#444;stroke-opacity:1;stroke-width:1px" transform="translate(0 402)"/><path d="M55 0h-5" class="ytick ticks crisp" style="stroke:#444;stroke-opacity:1;stroke-width:1px" transform="translate(0 354.99)"/><path d="M55 0h-5" class="ytick ticks crisp" style="stroke:#444;stroke-opacity:1;stroke-width:1px" transform="translate(0 307.97)"/><path d="M55 0h-5" class="ytick ticks crisp" style="stroke:#444;stroke-opacity:1;stroke-width:1px" transform="translate(0 260.96)"/><path d="M55 0h-5" class="ytick ticks crisp" style="stroke:#444;stroke-opacity:1;stroke-width:1px" transform="translate(0 213.95)"/><path d="M55 0h-5" class="ytick ticks crisp" style="stroke:#444;stroke-opacity:1;stroke-width:1px" transform="translate(0 166.94)"/><path d="M55 0h-5" class="ytick ticks crisp" style="stroke:#444;stroke-opacity:1;stroke-width:1px" transform="translate(0 119.92)"/><path d="M55 0h-5" class="ytick ticks crisp" style="stroke:#444;stroke-opacity:1;stroke-width:1px" transform="translate(0 72.91)"/><text x="47.6" y="4.2" class="ytick" style="font-family:&quot;Open Sans&quot;,verdana,arial,sans-serif;font-size:12px;fill:#2a3f5f;fill-opacity:1;white-space:pre;opacity:1" text-anchor="end" transform="translate(0 402)">0</text><text x="47.6" y="4.2" class="ytick" style="font-family:&quot;Open Sans&quot;,verdana,arial,sans-serif;font-size:12px;fill:#2a3f5f;fill-opacity:1;white-space:pre;opacity:1" text-anchor="end" transform="translate(0 354.99)">20</text><text x="47.6" y="4.2" class="ytick" style="font-family:&quot;Open Sans&quot;,verdana,arial,sans-serif;font-size:12px;fill:#2a3f5f;fill-opacity:1;white-space:pre;opacity:1" text-anchor="end" transform="translate(0 307.97)">40</text><text x="47.6" y="4.2" class="ytick" style="font-family:&quot;Open Sans&quot;,verdana,arial,sans-serif;font-size:12px;fill:#2a3f5f;fill-opacity:1;white-space:pre;opacity:1" text-anchor="end" transform="translate(0 260.96)">60</text><text x="47.6" y="4.2" class="ytick" style="font-family:&quot;Open Sans&quot;,verdana,arial,sans-serif;font-size:12px;fill:#2a3f5f;fill-opacity:1;white-space:pre;opacity:1" text-anchor="end" transform="translate(0 213.95)">80</text><text x="47.6" y="4.2" class="ytick" style="font-family:&quot;Open Sans&quot;,verdana,arial,sans-serif;font-size:12px;fill:#2a3f5f;fill-opacity:1;white-space:pre;opacity:1" text-anchor="end" transform="translate(0 166.94)">100</text><text x="47.6" y="4.2" class="ytick" style="font-family:&quot;Open Sans&quot;,verdana,arial,sans-serif;font-size:12px;fill:#2a3f5f;fill-opacity:1;white-space:pre;opacity:1" text-anchor="end" transform="translate(0 119.92)">120</text><text x="47.6" y="4.2" class="ytick" style="font-family:&quot;Open Sans&quot;,verdana,arial,sans-serif;font-size:12px;fill:#2a3f5f;fill-opacity:1;white-space:pre;opacity:1" text-anchor="end" transform="translate(0 72.91)">140</text></g></g></g><g class="layer-above"><g class="shapelayer"><g class="shape-group" clip-path="url(#b)" data-index="0"><path fill-rule="evenodd" d="M56 402h13.98V40H56Z" data-index="0" style="opacity:.15;stroke:#2a3f5f;stroke-opacity:1;fill:red;fill-opacity:1;stroke-width:1px"/></g><g class="shape-group" clip-path="url(#b)" data-index="1"><path fill-rule="evenodd" d="M69.98 402h69.89V40H69.98Z" data-index="1" style="opacity:.15;stroke:#2a3f5f;stroke-opacity:1;fill:teal;fill-opacity:1;stroke-width:1px"/></g><g class="shape-group" clip-path="url(#b)" data-index="2"><path fill-rule="evenodd" d="M139.87 402h181.72V40H139.87Z" data-index="2" style="opacity:.15;stroke:#2a3f5f;stroke-opacity:1;fill:#00f;fill-opacity:1;stroke-width:1px"/></g><g class="shape-group" clip-path="url(#b)" data-index="3"><path fill-rule="evenodd" d="M321.59 402H503.3V40H321.59Z" data-index="3" style="opacity:.15;stroke:#2a3f5f;stroke-opacity:1;fill:green;fill-opacity:1;stroke-width:1px"/></g><g class="shape-group" clip-path="url(#b)" data-index="4"><path fill-rule="evenodd" d="M503.3 402h97.85V40H503.3Z" data-index="4" style="opacity:.15;stroke:#2a3f5f;stroke-opacity:1;fill:orange;fill-opacity:1;stroke-width:1px"/></g><g class="shape-group" clip-path="url(#b)" data-index="5"><path fill-rule="evenodd" d="M601.15 402h34.95V40h-34.95Z" data-index="5" style="opacity:.15;stroke:#2a3f5f;stroke-opacity:1;fill:purple;fill-opacity:1;stroke-width:1px"/></g><g class="shape-group" clip-path="url(#b)" data-index="6"><path fill-rule="evenodd" d="M636.1 402h69.89V40H636.1Z" data-index="6" style="opacity:.15;stroke:#2a3f5f;stroke-opacity:1;fill:#8b0000;fill-opacity:1;stroke-width:1px"/></g></g></g><g class="infolayer"><g class="g-gtitle"><text x="350" y="20" class="gtitle" dy="0em" style="font-family:&quot;Open Sans&quot;,verdana,arial,sans-serif;font-size:17px;fill:#2a3f5f;opacity:1;font-weight:400;white-space:pre" text-anchor="middle">Counts per crystal system</text></g><g class="g-xtitle"><text x="377.5" y="499.881" class="xtitle" style="font-family:&quot;Open Sans&quot;,verdana,arial,sans-serif;font-size:14px;fill:#2a3f5f;opacity:1;font-weight:400;white-space:pre" text-anchor="middle" transform="translate(0 -2.881)">International Spacegroup Symbol</text></g><g class="g-ytitle"><text x=".403" y="221" class="ytitle" style="font-family:&quot;Open Sans&quot;,verdana,arial,sans-serif;font-size:14px;fill:#2a3f5f;opacity:1;font-weight:400;white-space:pre" text-anchor="middle" transform="rotate(-90 7.201 214.202)">Counts</text></g><g class="annotation" data-index="0" style="opacity:1"><g class="annotation-text-g"><g class="cursor-pointer"><path fill="none" d="M.5.5h53v20H.5z" class="bg" style="stroke-width:1px;stroke:#000;stroke-opacity:0;fill:#000;fill-opacity:0" transform="rotate(90 16.49 56.5)"/><text x="27.156" y="16" class="annotation-text" style="font-family:&quot;Open Sans&quot;,verdana,arial,sans-serif;font-size:14px;fill:#2a3f5f;fill-opacity:1;white-space:pre" text-anchor="middle" transform="rotate(90 16.49 56.5)">triclinic</text></g></g></g><g class="annotation" data-index="1" style="opacity:1"><g class="annotation-text-g"><g class="cursor-pointer"><path fill="none" d="M.5.5h54v18H.5z" class="bg" style="stroke-width:1px;stroke:#000;stroke-opacity:0;fill:#000;fill-opacity:0" transform="translate(35 21)"/><text x="27.469" y="14" class="annotation-text" style="font-family:&quot;Open Sans&quot;,verdana,arial,sans-serif;font-size:12px;fill:#2a3f5f;fill-opacity:1;white-space:pre" text-anchor="middle" transform="translate(35 21)">18 (1%)</text></g></g></g><g class="annotation" data-index="2" style="opacity:1"><g class="annotation-text-g"><g class="cursor-pointer"><path fill="none" d="M.5.5h77v20H.5z" class="bg" style="stroke-width:1px;stroke:#000;stroke-opacity:0;fill:#000;fill-opacity:0" transform="rotate(90 37.42 77.5)"/><text x="39.234" y="16" class="annotation-text" style="font-family:&quot;Open Sans&quot;,verdana,arial,sans-serif;font-size:14px;fill:#2a3f5f;fill-opacity:1;white-space:pre" text-anchor="middle" transform="rotate(90 37.42 77.5)">monoclinic</text></g></g></g><g class="annotation" data-index="3" style="opacity:1"><g class="annotation-text-g"><g class="cursor-pointer"><path fill="none" d="M.5.5h69v18H.5z" class="bg" style="stroke-width:1px;stroke:#000;stroke-opacity:0;fill:#000;fill-opacity:0" transform="translate(70 5)"/><text x="35.094" y="14" class="annotation-text" style="font-family:&quot;Open Sans&quot;,verdana,arial,sans-serif;font-size:12px;fill:#2a3f5f;fill-opacity:1;white-space:pre" text-anchor="middle" transform="translate(70 5)">140 (11%)</text></g></g></g><g class="annotation" data-index="4" style="opacity:1"><g class="annotation-text-g"><g class="cursor-pointer"><path fill="none" d="M.5.5h97v20H.5z" class="bg" style="stroke-width:1px;stroke:#000;stroke-opacity:0;fill:#000;fill-opacity:0" transform="rotate(90 100.23 140.5)"/><text x="49.078" y="16" class="annotation-text" style="font-family:&quot;Open Sans&quot;,verdana,arial,sans-serif;font-size:14px;fill:#2a3f5f;fill-opacity:1;white-space:pre" text-anchor="middle" transform="rotate(90 100.23 140.5)">orthorhombic</text></g></g></g><g class="annotation" data-index="5" style="opacity:1"><g class="annotation-text-g"><g class="cursor-pointer"><path fill="none" d="M.5.5h69v18H.5z" class="bg" style="stroke-width:1px;stroke:#000;stroke-opacity:0;fill:#000;fill-opacity:0" transform="translate(196 21)"/><text x="35.094" y="14" class="annotation-text" style="font-family:&quot;Open Sans&quot;,verdana,arial,sans-serif;font-size:12px;fill:#2a3f5f;fill-opacity:1;white-space:pre" text-anchor="middle" transform="translate(196 21)">179 (14%)</text></g></g></g><g class="annotation" data-index="6" style="opacity:1"><g class="annotation-text-g"><g class="cursor-pointer"><path fill="none" d="M.5.5h75v20H.5z" class="bg" style="stroke-width:1px;stroke:#000;stroke-opacity:0;fill:#000;fill-opacity:0" transform="rotate(90 191.45 231)"/><text x="38.047" y="16" class="annotation-text" style="font-family:&quot;Open Sans&quot;,verdana,arial,sans-serif;font-size:14px;fill:#2a3f5f;fill-opacity:1;white-space:pre" text-anchor="middle" transform="rotate(90 191.45 231)">tetragonal</text></g></g></g><g class="annotation" data-index="7" style="opacity:1"><g class="annotation-text-g"><g class="cursor-pointer"><path fill="none" d="M.5.5h69v18H.5z" class="bg" style="stroke-width:1px;stroke:#000;stroke-opacity:0;fill:#000;fill-opacity:0" transform="translate(377 21)"/><text x="35.094" y="14" class="annotation-text" style="font-family:&quot;Open Sans&quot;,verdana,arial,sans-serif;font-size:12px;fill:#2a3f5f;fill-opacity:1;white-space:pre" text-anchor="middle" transform="translate(377 21)">280 (22%)</text></g></g></g><g class="annotation" data-index="8" style="opacity:1"><g class="annotation-text-g"><g class="cursor-pointer"><path fill="none" d="M.5.5h57v20H.5z" class="bg" style="stroke-width:1px;stroke:#000;stroke-opacity:0;fill:#000;fill-opacity:0" transform="rotate(90 261.23 301)"/><text x="28.844" y="16" class="annotation-text" style="font-family:&quot;Open Sans&quot;,verdana,arial,sans-serif;font-size:14px;fill:#2a3f5f;fill-opacity:1;white-space:pre" text-anchor="middle" transform="rotate(90 261.23 301)">trigonal</text></g></g></g><g class="annotation" data-index="9" style="opacity:1"><g class="annotation-text-g"><g class="cursor-pointer"><path fill="none" d="M.5.5h69v18H.5z" class="bg" style="stroke-width:1px;stroke:#000;stroke-opacity:0;fill:#000;fill-opacity:0" transform="translate(517 21)"/><text x="35.094" y="14" class="annotation-text" style="font-family:&quot;Open Sans&quot;,verdana,arial,sans-serif;font-size:12px;fill:#2a3f5f;fill-opacity:1;white-space:pre" text-anchor="middle" transform="translate(517 21)">265 (21%)</text></g></g></g><g class="annotation" data-index="10" style="opacity:1"><g class="annotation-text-g"><g class="cursor-pointer"><path fill="none" d="M.5.5h75v20H.5z" class="bg" style="stroke-width:1px;stroke:#000;stroke-opacity:0;fill:#000;fill-opacity:0" transform="rotate(90 294.13 334.5)"/><text x="38.125" y="16" class="annotation-text" style="font-family:&quot;Open Sans&quot;,verdana,arial,sans-serif;font-size:14px;fill:#2a3f5f;fill-opacity:1;white-space:pre" text-anchor="middle" transform="rotate(90 294.13 334.5)">hexagonal</text></g></g></g><g class="annotation" data-index="11" style="opacity:1"><g class="annotation-text-g"><g class="cursor-pointer"><path fill="none" d="M.5.5h54v18H.5z" class="bg" style="stroke-width:1px;stroke:#000;stroke-opacity:0;fill:#000;fill-opacity:0" transform="translate(591 5)"/><text x="27.469" y="14" class="annotation-text" style="font-family:&quot;Open Sans&quot;,verdana,arial,sans-serif;font-size:12px;fill:#2a3f5f;fill-opacity:1;white-space:pre" text-anchor="middle" transform="translate(591 5)">99 (8%)</text></g></g></g><g class="annotation" data-index="12" style="opacity:1"><g class="annotation-text-g"><g class="cursor-pointer"><path fill="none" d="M.5.5h39v20H.5z" class="bg" style="stroke-width:1px;stroke:#000;stroke-opacity:0;fill:#000;fill-opacity:0" transform="rotate(90 320.54 360.5)"/><text x="20.016" y="16" class="annotation-text" style="font-family:&quot;Open Sans&quot;,verdana,arial,sans-serif;font-size:14px;fill:#2a3f5f;fill-opacity:1;white-space:pre" text-anchor="middle" transform="rotate(90 320.54 360.5)">cubic</text></g></g></g><g class="annotation" data-index="13" style="opacity:1"><g class="annotation-text-g"><g class="cursor-pointer"><path fill="none" d="M.5.5h69v18H.5z" class="bg" style="stroke-width:1px;stroke:#000;stroke-opacity:0;fill:#000;fill-opacity:0" transform="translate(636 21)"/><text x="35.094" y="14" class="annotation-text" style="font-family:&quot;Open Sans&quot;,verdana,arial,sans-serif;font-size:12px;fill:#2a3f5f;fill-opacity:1;white-space:pre" text-anchor="middle" transform="translate(636 21)">284 (22%)</text></g></g></g></g></svg>
