<svg xmlns="http://www.w3.org/2000/svg" width="700" height="500" class="main-svg"><path d="M0 0h700v500H0z" style="fill:#fff;fill-opacity:1"/><defs><clipPath id="a" class="plotclip"><path d="M0 0h628v139.2H0z"/></clipPath><clipPath id="b" class="plotclip"><path d="M0 0h628v139.2H0z"/></clipPath><clipPath id="c" class="plotclip"><path d="M0 0h628v139.2H0z"/></clipPath></defs><g class="cartesianlayer"><g class="subplot xy"><g class="gridlayer"><g class="x"><path d="M0 40v139.2" class="xgrid crisp" style="stroke:#d3d3d3;stroke-opacity:1;stroke-width:1px" transform="translate(127.22)"/><path d="M0 40v139.2" class="xgrid crisp" style="stroke:#d3d3d3;stroke-opacity:1;stroke-width:1px" transform="translate(193.43)"/><path d="M0 40v139.2" class="xgrid crisp" style="stroke:#d3d3d3;stroke-opacity:1;stroke-width:1px" transform="translate(259.65)"/><path d="M0 40v139.2" class="xgrid crisp" style="stroke:#d3d3d3;stroke-opacity:1;stroke-width:1px" transform="translate(325.86)"/><path d="M0 40v139.2" class="xgrid crisp" style="stroke:#d3d3d3;stroke-opacity:1;stroke-width:1px" transform="translate(392.08)"/><path d="M0 40v139.2" class="xgrid crisp" style="stroke:#d3d3d3;stroke-opacity:1;stroke-width:1px" transform="translate(458.3)"/><path d="M0 40v139.2" class="xgrid crisp" style="stroke:#d3d3d3;stroke-opacity:1;stroke-width:1px" transform="translate(524.51)"/><path d="M0 40v139.2" class="xgrid crisp" style="stroke:#d3d3d3;stroke-opacity:1;stroke-width:1px" transform="translate(590.73)"/><path d="M0 40v139.2" class="xgrid crisp" style="stroke:#d3d3d3;stroke-opacity:1;stroke-width:1px" transform="translate(656.94)"/></g><g class="y"><path d="M61 0h628" class="ygrid crisp" style="stroke:#d3d3d3;stroke-opacity:1;stroke-width:1px" transform="translate(0 112.91)"/><path d="M61 0h628" class="ygrid crisp" style="stroke:#d3d3d3;stroke-opacity:1;stroke-width:1px" transform="translate(0 46.63)"/></g></g><g class="zerolinelayer"><path d="M61 0h628" class="yzl zl crisp" style="stroke:#ebf0f8;stroke-opacity:1;stroke-width:2px" transform="translate(0 179.2)"/></g><g class="overplot"><g class="xy" clip-path="url(#a)" transform="translate(61 40)"><g class="barlayer mlayer"><g class="trace bars" style="opacity:1"><g class="points"><path d="M53.08 139.2V97.57h3.31v41.63Zm22.73 0v-10.22h3.32v10.22Zm17.5 0v-22.62h3.31v22.62Zm14.79 0v-18.36h3.31v18.36Zm13.06 0v-4.5h3.31v4.5Zm11.84 0v-6.16h3.31v6.16Zm21.11 0v-8.83h3.31v8.83Zm9.59 0v-3.19h3.31v3.19Zm9.1 0v-3.39h3.32v3.39Zm8.68 0v-24.17h3.32v24.17Zm8.32 0V6.63h3.31V139.2Zm8 0v-1.44h3.31v1.44Zm7.72 0v-4.48h3.31v4.48Zm14.71 0v-13.88h3.31v13.88Zm7.04 0v-1.51h3.31v1.51Zm6.86 0v-2.43h3.31v2.43Zm6.68 0v-7.57h3.31v7.57Zm6.53 0v-10.56h3.32v10.56Zm6.39 0v-1.53h3.31v1.53Zm6.26 0v-1.24h3.31v1.24Zm12.15 0v-4.4h3.32v4.4Zm5.92 0v-4.13h3.31v4.13Zm5.81 0v-2.95h3.31v2.95Zm5.72 0v-9.88h3.31v9.88Zm11.18 0v-1.46h3.31v1.46Zm5.47 0v-1.6h3.31v1.6Zm10.73 0V27.39h3.31V139.2Zm5.26 0v-3.35h3.31v3.35Zm5.2 0v-1.33h3.31v1.33Zm5.13 0v-6.35h3.31v6.35Zm5.08 0v-5.7h3.32v5.7Zm5.03 0v-.34h3.31v.34Zm4.98 0v-1.69h3.31v1.69Zm9.8 0v-2.08h3.32v2.08Zm4.84 0v-2.85h3.31v2.85Zm4.79 0v-.97h3.31v.97Zm4.75 0v-3.7h3.31v3.7Zm4.71 0V79.32h3.32v59.88Zm4.68 0v-.75h3.31v.75Zm4.64 0v-.84h3.31v.84Zm9.17 0v-4.17h3.31v4.17Zm4.54 0v-1.02h3.31v1.02Zm4.51 0v-1.29h3.31v1.29Zm4.48 0v-3.55h3.31v3.55Zm4.45 0v-2.58h3.31v2.58Zm4.43 0v-.58h3.31v.58Zm4.4 0v-1.31h3.31v1.31Zm8.72 0v-2.47h3.31v2.47Zm4.33 0v-.26h3.31v.26Zm4.3 0v-.29h3.31v.29Zm4.29 0v-6.78h3.31v6.78Zm8.51 0v-.47h3.31v.47Zm4.22 0v-1.06h3.31v1.06Zm8.4 0v-17.49h3.31v17.49Zm4.18 0v-1.41h3.31v1.41Zm4.16 0v-.96h3.31v.96Zm4.14 0v-1.16h3.31v1.16Zm4.13 0v-3.42h3.31v3.42Zm4.12 0v-.51h3.31v.51Zm4.1 0v-.44h3.31v.44Zm8.17 0v-1.27h3.31v1.27Zm4.07 0v-.18h3.31v.18Zm4.05 0v-1.02h3.31v1.02Zm4.05 0v-3.7h3.31v3.7Zm4.03 0v-24.72h3.31v24.72Zm4.03 0v-.44h3.31v.44Zm4.02 0v-.38h3.31v.38Zm8.01 0v-5.96h3.31v5.96Zm4 0v-1.06h3.31v1.06Zm3.98 0v-.36h3.32v.36Zm3.99 0v-2.59h3.31v2.59Zm3.97 0v-2.56h3.31v2.56Zm3.97 0v-.19h3.31v.19Zm3.97 0v-.84h3.31v.84Zm7.92 0v-.65h3.31v.65Zm3.95 0v-1.71h3.31v1.71Zm3.95 0v-.8h3.31v.8Zm3.95 0v-2.48h3.31v2.48Zm7.89 0v-.17h3.31v.17Zm3.94 0v-.61h3.31v.61Zm7.89 0v-38.72h3.31v38.72Z" class="point" style="vector-effect:none;opacity:1;stroke-width:.5px;fill:#636efa;fill-opacity:1;stroke:#fff;stroke-opacity:1"/></g></g></g></g></g><path d="M60 179.7h630M60 39.5h630" class="xlines-above crisp" style="fill:none;stroke-width:1px;stroke:#000;stroke-opacity:1"/><path d="M60.5 40v139.2M689.5 40v139.2" class="ylines-above crisp" style="fill:none;stroke-width:1px;stroke:#000;stroke-opacity:1"/><g class="xaxislayer-above"><path d="M0 179.2v-5" class="xtick ticks crisp" style="stroke:#444;stroke-opacity:1;stroke-width:1px" transform="translate(127.22)"/><path d="M0 179.2v-5" class="xtick ticks crisp" style="stroke:#444;stroke-opacity:1;stroke-width:1px" transform="translate(193.43)"/><path d="M0 179.2v-5" class="xtick ticks crisp" style="stroke:#444;stroke-opacity:1;stroke-width:1px" transform="translate(259.65)"/><path d="M0 179.2v-5" class="xtick ticks crisp" style="stroke:#444;stroke-opacity:1;stroke-width:1px" transform="translate(325.86)"/><path d="M0 179.2v-5" class="xtick ticks crisp" style="stroke:#444;stroke-opacity:1;stroke-width:1px" transform="translate(392.08)"/><path d="M0 179.2v-5" class="xtick ticks crisp" style="stroke:#444;stroke-opacity:1;stroke-width:1px" transform="translate(458.3)"/><path d="M0 179.2v-5" class="xtick ticks crisp" style="stroke:#444;stroke-opacity:1;stroke-width:1px" transform="translate(524.51)"/><path d="M0 179.2v-5" class="xtick ticks crisp" style="stroke:#444;stroke-opacity:1;stroke-width:1px" transform="translate(590.73)"/><path d="M0 179.2v-5" class="xtick ticks crisp" style="stroke:#444;stroke-opacity:1;stroke-width:1px" transform="translate(656.94)"/></g><g class="yaxislayer-above"><path d="M61 0h5" class="ytick ticks crisp" style="stroke:#444;stroke-opacity:1;stroke-width:1px" transform="translate(0 112.91)"/><path d="M61 0h5" class="ytick ticks crisp" style="stroke:#444;stroke-opacity:1;stroke-width:1px" transform="translate(0 46.63)"/><text x="57.6" y="4.2" class="ytick" style="font-family:&quot;Open Sans&quot;,verdana,arial,sans-serif;font-size:12px;fill:#000;fill-opacity:1;white-space:pre;opacity:1" text-anchor="end" transform="translate(0 179.2)">0</text><text x="57.6" y="4.2" class="ytick" style="font-family:&quot;Open Sans&quot;,verdana,arial,sans-serif;font-size:12px;fill:#000;fill-opacity:1;white-space:pre;opacity:1" text-anchor="end" transform="translate(0 112.91)">50</text><text x="57.6" y="4.2" class="ytick" style="font-family:&quot;Open Sans&quot;,verdana,arial,sans-serif;font-size:12px;fill:#000;fill-opacity:1;white-space:pre;opacity:1" text-anchor="end" transform="translate(0 46.63)">100</text></g></g><g class="subplot x2y2"><g class="gridlayer"><g class="x2"><path d="M0 186.4v139.2" class="x2grid crisp" style="stroke:#d3d3d3;stroke-opacity:1;stroke-width:1px" transform="translate(193.43)"/><path d="M0 186.4v139.2" class="x2grid crisp" style="stroke:#d3d3d3;stroke-opacity:1;stroke-width:1px" transform="translate(325.86)"/><path d="M0 186.4v139.2" class="x2grid crisp" style="stroke:#d3d3d3;stroke-opacity:1;stroke-width:1px" transform="translate(458.3)"/><path d="M0 186.4v139.2" class="x2grid crisp" style="stroke:#d3d3d3;stroke-opacity:1;stroke-width:1px" transform="translate(590.73)"/></g><g class="y2"><path d="M61 0h628" class="y2grid crisp" style="stroke:#d3d3d3;stroke-opacity:1;stroke-width:1px" transform="translate(0 259.31)"/><path d="M61 0h628" class="y2grid crisp" style="stroke:#d3d3d3;stroke-opacity:1;stroke-width:1px" transform="translate(0 193.03)"/></g></g><g class="zerolinelayer"><path d="M61 0h628" class="y2zl zl crisp" style="stroke:#ebf0f8;stroke-opacity:1;stroke-width:2px" transform="translate(0 325.6)"/></g><g class="overplot"><g class="x2y2" clip-path="url(#b)" transform="translate(61 186.4)"><g class="barlayer mlayer"><g class="trace bars" style="opacity:1"><g class="points"><path d="M53.08 139.2V81.11h3.31v58.09Zm22.73 0v-21.61h3.32v21.61Zm17.5 0v-37.45h3.31v37.45Zm14.79 0v-32.21h3.31v32.21Zm13.06 0v-18.49h3.31v18.49Zm11.84 0v-10.59h3.31v10.59Zm21.11 0v-12.49h3.31v12.49Zm9.59 0v-7.73h3.31v7.73Zm9.1 0v-6.42h3.32v6.42Zm8.68 0V90.57h3.32v48.63Zm8.32 0V6.63h3.31V139.2Zm8 0v-2.69h3.31v2.69Zm7.72 0v-12.87h3.31v12.87Zm14.71 0v-16.44h3.31v16.44Zm7.04 0v-5.79h3.31v5.79Zm6.86 0v-7.82h3.31v7.82Zm6.68 0v-30.51h3.31v30.51Zm6.53 0v-20.8h3.32v20.8Zm6.39 0v-5.7h3.31v5.7Zm6.26 0v-1.85h3.31v1.85Zm12.15 0v-15.52h3.32v15.52Zm5.92 0v-6.02h3.31v6.02Zm5.81 0v-9.09h3.31v9.09Zm5.72 0v-32.84h3.31v32.84Zm11.18 0v-7.62h3.31v7.62Zm5.47 0v-7.54h3.31v7.54Zm10.73 0V82.3h3.31v56.9Zm5.26 0v-9.7h3.31v9.7Zm5.2 0v-6.35h3.31v6.35Zm5.13 0v-23.93h3.31v23.93Zm5.08 0v-11.89h3.32v11.89Zm5.03 0v-1.34h3.31v1.34Zm4.98 0v-6.93h3.31v6.93Zm9.8 0v-9.12h3.32v9.12Zm4.84 0v-8.43h3.31v8.43Zm4.79 0v-4.56h3.31v4.56Zm4.75 0v-8.25h3.31v8.25Zm4.71 0v-22.36h3.32v22.36Zm4.68 0v-6.41h3.31v6.41Zm4.64 0v-4.92h3.31v4.92Zm9.17 0v-3.38h3.31v3.38Zm4.54 0v-2.88h3.31v2.88Zm4.51 0v-7.57h3.31v7.57Zm4.48 0v-16.91h3.31v16.91Zm4.45 0v-6.37h3.31v6.37Zm4.43 0v-4.58h3.31v4.58Zm4.4 0v-8.01h3.31v8.01Zm8.72 0v-9.56h3.31v9.56Zm4.33 0v-1.03h3.31v1.03Zm4.3 0v-2.19h3.31v2.19Zm4.29 0v-21.51h3.31v21.51Zm8.51 0v-4.09h3.31v4.09Zm4.22 0v-3.45h3.31v3.45Zm8.4 0v-3.12h3.31v3.12Zm4.18 0v-4.86h3.31v4.86Zm4.16 0v-2.76h3.31v2.76Zm4.14 0v-6.61h3.31v6.61Zm4.13 0v-8.11h3.31v8.11Zm4.12 0v-4.71h3.31v4.71Zm4.1 0v-1.65h3.31v1.65Zm8.17 0v-3.54h3.31v3.54Zm4.07 0v-2.39h3.31v2.39Zm4.05 0v-4.03h3.31v4.03Zm4.05 0v-11.66h3.31v11.66Zm4.03 0v-3.83h3.31v3.83Zm4.03 0v-4.33h3.31v4.33Zm4.02 0v-1.67h3.31v1.67Zm8.01 0v-3.29h3.31v3.29Zm4 0v-2.7h3.31v2.7Zm3.98 0v-1.25h3.32v1.25Zm3.99 0v-11.64h3.31v11.64Zm3.97 0v-6.56h3.31v6.56Zm3.97 0v-1.44h3.31v1.44Zm3.97 0v-5.33h3.31v5.33Zm7.92 0v-3.66h3.31v3.66Zm3.95 0v-5h3.31v5Zm3.95 0v-5.35h3.31v5.35Zm3.95 0v-6.41h3.31v6.41Zm7.89 0v-1.64h3.31v1.64Zm3.94 0v-3.3h3.31v3.3Zm7.89 0v-1.49h3.31v1.49Z" class="point" style="vector-effect:none;opacity:1;stroke-width:.5px;fill:#ef553b;fill-opacity:1;stroke:#fff;stroke-opacity:1"/></g></g></g></g></g><path d="M60 326.1h630M60 185.9h630" class="xlines-above crisp" style="fill:none;stroke-width:1px;stroke:#000;stroke-opacity:1"/><path d="M60.5 186.4v139.2m629-139.2v139.2" class="ylines-above crisp" style="fill:none;stroke-width:1px;stroke:#000;stroke-opacity:1"/><g class="xaxislayer-above"><path d="M0 325.6v-5" class="x2tick ticks crisp" style="stroke:#444;stroke-opacity:1;stroke-width:1px" transform="translate(193.43)"/><path d="M0 325.6v-5" class="x2tick ticks crisp" style="stroke:#444;stroke-opacity:1;stroke-width:1px" transform="translate(325.86)"/><path d="M0 325.6v-5" class="x2tick ticks crisp" style="stroke:#444;stroke-opacity:1;stroke-width:1px" transform="translate(458.3)"/><path d="M0 325.6v-5" class="x2tick ticks crisp" style="stroke:#444;stroke-opacity:1;stroke-width:1px" transform="translate(590.73)"/></g><g class="yaxislayer-above"><path d="M61 0h5" class="y2tick ticks crisp" style="stroke:#444;stroke-opacity:1;stroke-width:1px" transform="translate(0 259.31)"/><path d="M61 0h5" class="y2tick ticks crisp" style="stroke:#444;stroke-opacity:1;stroke-width:1px" transform="translate(0 193.03)"/><text x="57.6" y="4.2" class="y2tick" style="font-family:&quot;Open Sans&quot;,verdana,arial,sans-serif;font-size:12px;fill:#000;fill-opacity:1;white-space:pre;opacity:1" text-anchor="end" transform="translate(0 325.6)">0</text><text x="57.6" y="4.2" class="y2tick" style="font-family:&quot;Open Sans&quot;,verdana,arial,sans-serif;font-size:12px;fill:#000;fill-opacity:1;white-space:pre;opacity:1" text-anchor="end" transform="translate(0 259.31)">50</text><text x="57.6" y="4.2" class="y2tick" style="font-family:&quot;Open Sans&quot;,verdana,arial,sans-serif;font-size:12px;fill:#000;fill-opacity:1;white-space:pre;opacity:1" text-anchor="end" transform="translate(0 193.03)">100</text></g></g><g class="subplot x3y3"><g class="gridlayer"><g class="x3"><path d="M0 332.8V472" class="x3grid crisp" style="stroke:#d3d3d3;stroke-opacity:1;stroke-width:1px" transform="translate(193.43)"/><path d="M0 332.8V472" class="x3grid crisp" style="stroke:#d3d3d3;stroke-opacity:1;stroke-width:1px" transform="translate(325.86)"/><path d="M0 332.8V472" class="x3grid crisp" style="stroke:#d3d3d3;stroke-opacity:1;stroke-width:1px" transform="translate(458.3)"/><path d="M0 332.8V472" class="x3grid crisp" style="stroke:#d3d3d3;stroke-opacity:1;stroke-width:1px" transform="translate(590.73)"/></g><g class="y3"><path d="M61 0h628" class="y3grid crisp" style="stroke:#d3d3d3;stroke-opacity:1;stroke-width:1px" transform="translate(0 405.71)"/><path d="M61 0h628" class="y3grid crisp" style="stroke:#d3d3d3;stroke-opacity:1;stroke-width:1px" transform="translate(0 339.43)"/></g></g><g class="zerolinelayer"><path d="M61 0h628" class="y3zl zl crisp" style="stroke:#ebf0f8;stroke-opacity:1;stroke-width:2px" transform="translate(0 472)"/></g><g class="overplot"><g class="x3y3" clip-path="url(#c)" transform="translate(61 332.8)"><g class="barlayer mlayer"><g class="trace bars" style="opacity:1"><g class="points"><path d="M53.08 139.2V36.75h3.31V139.2Zm22.73 0v-28.23h3.32v28.23Zm17.5 0V6.63h3.31V139.2Zm14.79 0v-12.65h3.31v12.65Zm13.06 0v-36.3h3.31v36.3Zm11.84 0V86.79h3.31v52.41Zm21.11 0V85.46h3.31v53.74Zm9.59 0V95.15h3.31v44.05Zm9.1 0V54.88h3.32v84.32Zm8.68 0V94.74h3.32v44.46Zm8.32 0V58.71h3.31v80.49Zm8 0v-31.4h3.31v31.4Zm7.72 0V88.27h3.31v50.93Zm14.71 0v-10.38h3.31v10.38Zm7.04 0v-16.86h3.31v16.86Zm6.86 0v-28.68h3.31v28.68Zm6.68 0V98.22h3.31v40.98Zm6.53 0v-33.26h3.32v33.26Zm6.39 0v-25.07h3.31v25.07Zm6.26 0v-18.78h3.31v18.78Zm12.15 0v-30.16h3.32v30.16Zm5.92 0v-2.76h3.31v2.76Zm5.81 0v-25.58h3.31v25.58Zm5.72 0V90.64h3.31v48.56Zm11.18 0v-23.27h3.31v23.27Zm5.47 0v-12.42h3.31v12.42Zm10.73 0v-9.97h3.31v9.97Zm5.26 0v-17.12h3.31v17.12Zm5.2 0v-16.72h3.31v16.72Zm5.13 0v-36.29h3.31v36.29Zm5.08 0v-17.96h3.32v17.96Zm5.03 0v-2.31h3.31v2.31Zm4.98 0v-23.62h3.31v23.62Zm9.8 0v-20.76h3.32v20.76Zm4.84 0v-13.11h3.31v13.11Zm4.79 0v-11.77h3.31v11.77Zm4.75 0v-11.26h3.31v11.26Zm4.71 0v-15.13h3.32v15.13Zm4.68 0v-8.11h3.31v8.11Zm4.64 0v-11.89h3.31v11.89Zm9.17 0v-5.85h3.31v5.85Zm4.54 0v-9.23h3.31v9.23Zm4.51 0v-11.97h3.31v11.97Zm4.48 0v-15.86h3.31v15.86Zm4.45 0v-10.54h3.31v10.54Zm4.43 0v-4.98h3.31v4.98Zm4.4 0v-7.35h3.31v7.35Zm8.72 0v-20.98h3.31v20.98Zm4.33 0v-3.24h3.31v3.24Zm4.3 0v-1h3.31v1Zm4.29 0v-22.03h3.31v22.03Zm8.51 0v-9.07h3.31v9.07Zm4.22 0v-12.22h3.31v12.22Zm8.4 0v-3.44h3.31v3.44Zm4.18 0v-7.31h3.31v7.31Zm4.16 0v-10.7h3.31v10.7Zm4.14 0v-5.92h3.31v5.92Zm4.13 0v-18.87h3.31v18.87Zm4.12 0v-8.93h3.31v8.93Zm4.1 0v-2.81h3.31v2.81Zm8.17 0v-7.5h3.31v7.5Zm4.07 0v-3.12h3.31v3.12Zm4.05 0v-12.55h3.31v12.55Zm4.05 0v-13.45h3.31v13.45Zm4.03 0v-7.27h3.31v7.27Zm4.03 0v-6.5h3.31v6.5Zm4.02 0v-3.95h3.31v3.95Zm8.01 0v-5.53h3.31v5.53Zm4 0v-7.04h3.31v7.04Zm3.98 0v-4.22h3.32v4.22Zm3.99 0v-12.62h3.31v12.62Zm3.97 0v-11.69h3.31v11.69Zm3.97 0v-1.92h3.31v1.92Zm3.97 0v-7.8h3.31v7.8Zm7.92 0v-3.67h3.31v3.67Zm3.95 0v-8.41h3.31v8.41Zm3.95 0v-7.16h3.31v7.16Zm3.95 0v-5.85h3.31v5.85Zm7.89 0v-2.56h3.31v2.56Zm3.94 0v-7.3h3.31v7.3Zm7.89 0v-7.45h3.31v7.45Z" class="point" style="vector-effect:none;opacity:1;stroke-width:.5px;fill:#00cc96;fill-opacity:1;stroke:#fff;stroke-opacity:1"/></g></g></g></g></g><path d="M60 472.5h630M60 332.3h630" class="xlines-above crisp" style="fill:none;stroke-width:1px;stroke:#000;stroke-opacity:1"/><path d="M60.5 332.8V472m629-139.2V472" class="ylines-above crisp" style="fill:none;stroke-width:1px;stroke:#000;stroke-opacity:1"/><g class="xaxislayer-above"><path d="M0 472v-5" class="x3tick ticks crisp" style="stroke:#444;stroke-opacity:1;stroke-width:1px" transform="translate(193.43)"/><path d="M0 472v-5" class="x3tick ticks crisp" style="stroke:#444;stroke-opacity:1;stroke-width:1px" transform="translate(325.86)"/><path d="M0 472v-5" class="x3tick ticks crisp" style="stroke:#444;stroke-opacity:1;stroke-width:1px" transform="translate(458.3)"/><path d="M0 472v-5" class="x3tick ticks crisp" style="stroke:#444;stroke-opacity:1;stroke-width:1px" transform="translate(590.73)"/><text y="487.4" class="x3tick" style="font-family:&quot;Open Sans&quot;,verdana,arial,sans-serif;font-size:12px;fill:#000;fill-opacity:1;white-space:pre;opacity:1" text-anchor="middle" transform="translate(61)">0</text><text y="487.4" class="x3tick" style="font-family:&quot;Open Sans&quot;,verdana,arial,sans-serif;font-size:12px;fill:#000;fill-opacity:1;white-space:pre;opacity:1" text-anchor="middle" transform="translate(193.43)">20</text><text y="487.4" class="x3tick" style="font-family:&quot;Open Sans&quot;,verdana,arial,sans-serif;font-size:12px;fill:#000;fill-opacity:1;white-space:pre;opacity:1" text-anchor="middle" transform="translate(325.86)">40</text><text y="487.4" class="x3tick" style="font-family:&quot;Open Sans&quot;,verdana,arial,sans-serif;font-size:12px;fill:#000;fill-opacity:1;white-space:pre;opacity:1" text-anchor="middle" transform="translate(458.3)">60</text><text y="487.4" class="x3tick" style="font-family:&quot;Open Sans&quot;,verdana,arial,sans-serif;font-size:12px;fill:#000;fill-opacity:1;white-space:pre;opacity:1" text-anchor="middle" transform="translate(590.73)">80</text></g><g class="yaxislayer-above"><path d="M61 0h5" class="y3tick ticks crisp" style="stroke:#444;stroke-opacity:1;stroke-width:1px" transform="translate(0 405.71)"/><path d="M61 0h5" class="y3tick ticks crisp" style="stroke:#444;stroke-opacity:1;stroke-width:1px" transform="translate(0 339.43)"/><text x="57.6" y="4.2" class="y3tick" style="font-family:&quot;Open Sans&quot;,verdana,arial,sans-serif;font-size:12px;fill:#000;fill-opacity:1;white-space:pre;opacity:1" text-anchor="end" transform="translate(0 472)">0</text><text x="57.6" y="4.2" class="y3tick" style="font-family:&quot;Open Sans&quot;,verdana,arial,sans-serif;font-size:12px;fill:#000;fill-opacity:1;white-space:pre;opacity:1" text-anchor="end" transform="translate(0 405.71)">50</text><text x="57.6" y="4.2" class="y3tick" style="font-family:&quot;Open Sans&quot;,verdana,arial,sans-serif;font-size:12px;fill:#000;fill-opacity:1;white-space:pre;opacity:1" text-anchor="end" transform="translate(0 339.43)">100</text></g></g></g><g class="infolayer"><g class="g-gtitle"><text x="350" y="15" class="gtitle" dy=".7em" style="opacity:1;font-family:&quot;Open Sans&quot;,verdana,arial,sans-serif;font-size:17px;fill:#000;fill-opacity:1;white-space:pre" text-anchor="middle">Vertically Stacked XRD Patterns with Custom Subplot Titles</text></g><g class="g-xtitle"><text x="375" y="204.5" class="xtitle" style="opacity:1;font-family:&quot;Open Sans&quot;,verdana,arial,sans-serif;font-size:14px;fill:#000;fill-opacity:1;white-space:pre" text-anchor="middle">2θ (degrees)</text></g><g class="g-ytitle"><text x="15.303" y="109.6" class="ytitle" style="opacity:1;font-family:&quot;Open Sans&quot;,verdana,arial,sans-serif;font-size:14px;fill:#000;fill-opacity:1;white-space:pre" text-anchor="middle" transform="rotate(-90 15.303 109.6)">Intensity (a.u.)</text></g><g class="annotation" data-index="0" style="opacity:1"><g class="annotation-text-g"><g class="cursor-pointer"><path fill="none" d="M.5.5h44v33H.5z" class="bg" style="stroke-width:1px;stroke:#000;stroke-opacity:0;fill:#000;fill-opacity:0" transform="translate(272 67)"/><text x="22.703" y="14" class="annotation-text" style="font-family:&quot;Open Sans&quot;,verdana,arial,sans-serif;font-size:12px;fill:#000;fill-opacity:1;white-space:pre" text-anchor="middle" transform="translate(272 67)"><tspan x="22.703" y="14" class="line" dy="0em">202</tspan><tspan x="22.703" y="14" class="line" dy="1.3em">28.91°</tspan></text></g></g><g class="annotation-arrow-g" style="opacity:1"><path d="m272.46 66.63-20-20" style="stroke-width:1px;stroke:#2a3f5f;stroke-opacity:1;stroke-dasharray:0,0,26.9843px,28.2843px"/><path d="M-3.7-2.5v5l5-2.5Z" style="fill:#2a3f5f;stroke-width:0" transform="rotate(-135 136.537 -28.702)"/></g></g><g class="annotation" data-index="1" style="opacity:1"><g class="annotation-text-g"><g class="cursor-pointer"><path fill="none" d="M.5.5h170v20H.5z" class="bg" style="stroke-width:1px;stroke:#000;stroke-opacity:0;fill:#000;fill-opacity:0" transform="translate(518 40)"/><text x="85.531" y="16" class="annotation-text" style="font-family:&quot;Open Sans&quot;,verdana,arial,sans-serif;font-size:14px;fill:#000;fill-opacity:1;white-space:pre" text-anchor="middle" transform="translate(518 40)">Zr8 Bi12 O28 (1) idx=0</text></g></g></g><g class="annotation" data-index="2" style="opacity:1"><g class="annotation-text-g"><g class="cursor-pointer"><path fill="none" d="M.5.5h44v33H.5z" class="bg" style="stroke-width:1px;stroke:#000;stroke-opacity:0;fill:#000;fill-opacity:0" transform="translate(187 213)"/><text x="22.703" y="14" class="annotation-text" style="font-family:&quot;Open Sans&quot;,verdana,arial,sans-serif;font-size:12px;fill:#000;fill-opacity:1;white-space:pre" text-anchor="middle" transform="translate(187 213)"><tspan x="22.703" y="14" class="line" dy="0em">202</tspan><tspan x="22.703" y="14" class="line" dy="1.3em">28.91°</tspan></text></g></g><g class="annotation-arrow-g" style="opacity:1"><path d="m232.46 213.03 20-20" style="stroke-width:1px;stroke:#2a3f5f;stroke-opacity:1;stroke-dasharray:0,0,26.9843px,28.2843px"/><path d="M-3.7-2.5v5l5-2.5Z" style="fill:#2a3f5f;stroke-width:0" transform="rotate(-45 359.888 -206.662)"/></g></g><g class="annotation" data-index="3" style="opacity:1"><g class="annotation-text-g"><g class="cursor-pointer"><path fill="none" d="M.5.5h170v20H.5z" class="bg" style="stroke-width:1px;stroke:#000;stroke-opacity:0;fill:#000;fill-opacity:0" transform="translate(518 186)"/><text x="85.531" y="16" class="annotation-text" style="font-family:&quot;Open Sans&quot;,verdana,arial,sans-serif;font-size:14px;fill:#000;fill-opacity:1;white-space:pre" text-anchor="middle" transform="translate(518 186)">Zr8 Bi12 O28 (1) idx=1</text></g></g></g><g class="annotation" data-index="4" style="opacity:1"><g class="annotation-text-g"><g class="cursor-pointer"><path fill="none" d="M.5.5h44v33H.5z" class="bg" style="stroke-width:1px;stroke:#000;stroke-opacity:0;fill:#000;fill-opacity:0" transform="translate(176 359)"/><text x="22.703" y="14" class="annotation-text" style="font-family:&quot;Open Sans&quot;,verdana,arial,sans-serif;font-size:12px;fill:#000;fill-opacity:1;white-space:pre" text-anchor="middle" transform="translate(176 359)"><tspan x="22.703" y="14" class="line" dy="0em">101</tspan><tspan x="22.703" y="14" class="line" dy="1.3em">14.34°</tspan></text></g></g></g><g class="annotation" data-index="5" style="opacity:1"><g class="annotation-text-g"><g class="cursor-pointer"><path fill="none" d="M.5.5h170v20H.5z" class="bg" style="stroke-width:1px;stroke:#000;stroke-opacity:0;fill:#000;fill-opacity:0" transform="translate(518 333)"/><text x="85.531" y="16" class="annotation-text" style="font-family:&quot;Open Sans&quot;,verdana,arial,sans-serif;font-size:14px;fill:#000;fill-opacity:1;white-space:pre" text-anchor="middle" transform="translate(518 333)">Zr8 Bi12 O28 (1) idx=2</text></g></g></g></g></svg>
