<svg class="main-svg" xmlns="http://www.w3.org/2000/svg" xmlns:xlink="http://www.w3.org/1999/xlink" width="1050" height="400" style="" viewBox="0 0 1050 400"><rect x="0" y="0" width="1050" height="400" style="fill: rgb(255, 255, 255); fill-opacity: 1;"/><defs id="defs-7de302"><g class="clips"><clipPath id="clip7de302xyplot" class="plotclip"><rect width="300.59999999999997" height="132.125"/></clipPath><clipPath id="clip7de302x2y2plot" class="plotclip"><rect width="300.5999999999999" height="132.125"/></clipPath><clipPath id="clip7de302x3y3plot" class="plotclip"><rect width="300.6" height="132.125"/></clipPath><clipPath id="clip7de302x4y4plot" class="plotclip"><rect width="300.59999999999997" height="132.125"/></clipPath><clipPath id="clip7de302x5y5plot" class="plotclip"><rect width="300.5999999999999" height="132.125"/></clipPath><clipPath id="clip7de302x6y6plot" class="plotclip"><rect width="300.6" height="132.125"/></clipPath><clipPath class="axesclip" id="clip7de302x"><rect x="40" y="0" width="300.59999999999997" height="400"/></clipPath><clipPath class="axesclip" id="clip7de302y"><rect x="0" y="50" width="1050" height="132.125"/></clipPath><clipPath class="axesclip" id="clip7de302xy"><rect x="40" y="50" width="300.59999999999997" height="132.125"/></clipPath><clipPath class="axesclip" id="clip7de302y2"><rect x="0" y="50" width="1050" height="132.125"/></clipPath><clipPath class="axesclip" id="clip7de302xy2"><rect x="40" y="50" width="300.59999999999997" height="132.125"/></clipPath><clipPath class="axesclip" id="clip7de302y3"><rect x="0" y="50" width="1050" height="132.125"/></clipPath><clipPath class="axesclip" id="clip7de302xy3"><rect x="40" y="50" width="300.59999999999997" height="132.125"/></clipPath><clipPath class="axesclip" id="clip7de302y4"><rect x="0" y="219.875" width="1050" height="132.125"/></clipPath><clipPath class="axesclip" id="clip7de302xy4"><rect x="40" y="219.875" width="300.59999999999997" height="132.125"/></clipPath><clipPath class="axesclip" id="clip7de302y5"><rect x="0" y="219.875" width="1050" height="132.125"/></clipPath><clipPath class="axesclip" id="clip7de302xy5"><rect x="40" y="219.875" width="300.59999999999997" height="132.125"/></clipPath><clipPath class="axesclip" id="clip7de302y6"><rect x="0" y="219.875" width="1050" height="132.125"/></clipPath><clipPath class="axesclip" id="clip7de302xy6"><rect x="40" y="219.875" width="300.59999999999997" height="132.125"/></clipPath><clipPath class="axesclip" id="clip7de302x2"><rect x="390.7" y="0" width="300.5999999999999" height="400"/></clipPath><clipPath class="axesclip" id="clip7de302x2y"><rect x="390.7" y="50" width="300.5999999999999" height="132.125"/></clipPath><clipPath class="axesclip" id="clip7de302x2y2"><rect x="390.7" y="50" width="300.5999999999999" height="132.125"/></clipPath><clipPath class="axesclip" id="clip7de302x2y3"><rect x="390.7" y="50" width="300.5999999999999" height="132.125"/></clipPath><clipPath class="axesclip" id="clip7de302x2y4"><rect x="390.7" y="219.875" width="300.5999999999999" height="132.125"/></clipPath><clipPath class="axesclip" id="clip7de302x2y5"><rect x="390.7" y="219.875" width="300.5999999999999" height="132.125"/></clipPath><clipPath class="axesclip" id="clip7de302x2y6"><rect x="390.7" y="219.875" width="300.5999999999999" height="132.125"/></clipPath><clipPath class="axesclip" id="clip7de302x3"><rect x="741.4" y="0" width="300.6" height="400"/></clipPath><clipPath class="axesclip" id="clip7de302x3y"><rect x="741.4" y="50" width="300.6" height="132.125"/></clipPath><clipPath class="axesclip" id="clip7de302x3y2"><rect x="741.4" y="50" width="300.6" height="132.125"/></clipPath><clipPath class="axesclip" id="clip7de302x3y3"><rect x="741.4" y="50" width="300.6" height="132.125"/></clipPath><clipPath class="axesclip" id="clip7de302x3y4"><rect x="741.4" y="219.875" width="300.6" height="132.125"/></clipPath><clipPath class="axesclip" id="clip7de302x3y5"><rect x="741.4" y="219.875" width="300.6" height="132.125"/></clipPath><clipPath class="axesclip" id="clip7de302x3y6"><rect x="741.4" y="219.875" width="300.6" height="132.125"/></clipPath><clipPath class="axesclip" id="clip7de302x4"><rect x="40" y="0" width="300.59999999999997" height="400"/></clipPath><clipPath class="axesclip" id="clip7de302x4y"><rect x="40" y="50" width="300.59999999999997" height="132.125"/></clipPath><clipPath class="axesclip" id="clip7de302x4y2"><rect x="40" y="50" width="300.59999999999997" height="132.125"/></clipPath><clipPath class="axesclip" id="clip7de302x4y3"><rect x="40" y="50" width="300.59999999999997" height="132.125"/></clipPath><clipPath class="axesclip" id="clip7de302x4y4"><rect x="40" y="219.875" width="300.59999999999997" height="132.125"/></clipPath><clipPath class="axesclip" id="clip7de302x4y5"><rect x="40" y="219.875" width="300.59999999999997" height="132.125"/></clipPath><clipPath class="axesclip" id="clip7de302x4y6"><rect x="40" y="219.875" width="300.59999999999997" height="132.125"/></clipPath><clipPath class="axesclip" id="clip7de302x5"><rect x="390.7" y="0" width="300.5999999999999" height="400"/></clipPath><clipPath class="axesclip" id="clip7de302x5y"><rect x="390.7" y="50" width="300.5999999999999" height="132.125"/></clipPath><clipPath class="axesclip" id="clip7de302x5y2"><rect x="390.7" y="50" width="300.5999999999999" height="132.125"/></clipPath><clipPath class="axesclip" id="clip7de302x5y3"><rect x="390.7" y="50" width="300.5999999999999" height="132.125"/></clipPath><clipPath class="axesclip" id="clip7de302x5y4"><rect x="390.7" y="219.875" width="300.5999999999999" height="132.125"/></clipPath><clipPath class="axesclip" id="clip7de302x5y5"><rect x="390.7" y="219.875" width="300.5999999999999" height="132.125"/></clipPath><clipPath class="axesclip" id="clip7de302x5y6"><rect x="390.7" y="219.875" width="300.5999999999999" height="132.125"/></clipPath><clipPath class="axesclip" id="clip7de302x6"><rect x="741.4" y="0" width="300.6" height="400"/></clipPath><clipPath class="axesclip" id="clip7de302x6y"><rect x="741.4" y="50" width="300.6" height="132.125"/></clipPath><clipPath class="axesclip" id="clip7de302x6y2"><rect x="741.4" y="50" width="300.6" height="132.125"/></clipPath><clipPath class="axesclip" id="clip7de302x6y3"><rect x="741.4" y="50" width="300.6" height="132.125"/></clipPath><clipPath class="axesclip" id="clip7de302x6y4"><rect x="741.4" y="219.875" width="300.6" height="132.125"/></clipPath><clipPath class="axesclip" id="clip7de302x6y5"><rect x="741.4" y="219.875" width="300.6" height="132.125"/></clipPath><clipPath class="axesclip" id="clip7de302x6y6"><rect x="741.4" y="219.875" width="300.6" height="132.125"/></clipPath></g><g class="gradients"/><g class="patterns"/></defs><g class="bglayer"/><g class="layer-below"><g class="imagelayer"/><g class="shapelayer"/></g><g class="cartesianlayer"><g class="subplot xy"><g class="layer-subplot"><g class="shapelayer"/><g class="imagelayer"/></g><g class="minor-gridlayer"><g class="x"/><g class="y"/></g><g class="gridlayer"><g class="x"><path class="xgrid crisp" transform="translate(97.69,0)" d="M0,50v132.125" style="stroke: rgb(211, 211, 211); stroke-opacity: 1; stroke-width: 1px;"/><path class="xgrid crisp" transform="translate(158.42000000000002,0)" d="M0,50v132.125" style="stroke: rgb(211, 211, 211); stroke-opacity: 1; stroke-width: 1px;"/><path class="xgrid crisp" transform="translate(219.15,0)" d="M0,50v132.125" style="stroke: rgb(211, 211, 211); stroke-opacity: 1; stroke-width: 1px;"/><path class="xgrid crisp" transform="translate(279.87,0)" d="M0,50v132.125" style="stroke: rgb(211, 211, 211); stroke-opacity: 1; stroke-width: 1px;"/></g><g class="y"><path class="ygrid crisp" transform="translate(0,112.15)" d="M40,0h300.59999999999997" style="stroke: rgb(211, 211, 211); stroke-opacity: 1; stroke-width: 1px;"/></g></g><g class="zerolinelayer"><path class="yzl zl crisp" transform="translate(0,175.51999999999998)" d="M40,0h300.59999999999997" style="stroke: rgb(235, 240, 248); stroke-opacity: 1; stroke-width: 2px;"/></g><g class="layer-between"><g class="shapelayer"/><g class="imagelayer"/></g><path class="xlines-below"/><path class="ylines-below"/><g class="overlines-below"/><g class="xaxislayer-below"/><g class="yaxislayer-below"/><g class="overaxes-below"/><g class="overplot"><g class="xy" transform="translate(40,50)" clip-path="url(#clip7de302xyplot)"><g class="scatterlayer mlayer"><g class="trace scatter trace6cb707" style="stroke-miterlimit: 2; opacity: 1;"><g class="fills"/><g class="errorbars"/><g class="lines"><path class="js-line" d="M0,125.52L115.38,125.52L118.42,6.61L121.45,125.52L124.49,125.52L163.96,125.52L167,64.85L170.04,125.52L173.07,125.52L203.44,125.52L206.47,112.2L209.51,125.52L212.55,125.52L300.6,125.52" style="vector-effect: none; fill: none; stroke: rgb(65, 105, 225); stroke-opacity: 1; stroke-width: 2px; opacity: 1;"/></g><g class="points"/><g class="text"/></g></g></g></g><path class="xlines-above crisp" d="M39,182.625H341.59999999999997M39,49.5H341.59999999999997" style="fill: none; stroke-width: 1px; stroke: rgb(0, 0, 0); stroke-opacity: 1;"/><path class="ylines-above crisp" d="M39.5,50V182.125M341.09999999999997,50V182.125" style="fill: none; stroke-width: 1px; stroke: rgb(0, 0, 0); stroke-opacity: 1;"/><g class="overlines-above"/><g class="xaxislayer-above"><path class="xtick ticks crisp" d="M0,183.125v5" transform="translate(97.69,0)" style="stroke: rgb(68, 68, 68); stroke-opacity: 1; stroke-width: 1px;"/><path class="xtick ticks crisp" d="M0,183.125v5" transform="translate(158.42000000000002,0)" style="stroke: rgb(68, 68, 68); stroke-opacity: 1; stroke-width: 1px;"/><path class="xtick ticks crisp" d="M0,183.125v5" transform="translate(219.15,0)" style="stroke: rgb(68, 68, 68); stroke-opacity: 1; stroke-width: 1px;"/><path class="xtick ticks crisp" d="M0,183.125v5" transform="translate(279.87,0)" style="stroke: rgb(68, 68, 68); stroke-opacity: 1; stroke-width: 1px;"/><path class="xtick ticks crisp" d="M0,183.125v5" transform="translate(340.6,0)" style="stroke: rgb(68, 68, 68); stroke-opacity: 1; stroke-width: 1px;"/><g class="xtick"><text text-anchor="middle" x="0" y="202.525" transform="translate(97.69,0)" style="font-family: 'Open Sans', verdana, arial, sans-serif; font-size: 12px; fill: rgb(0, 0, 0); fill-opacity: 1; white-space: pre; opacity: 1;">2</text></g><g class="xtick"><text text-anchor="middle" x="0" y="202.525" style="font-family: 'Open Sans', verdana, arial, sans-serif; font-size: 12px; fill: rgb(0, 0, 0); fill-opacity: 1; white-space: pre; opacity: 1;" transform="translate(158.42000000000002,0)">4</text></g><g class="xtick"><text text-anchor="middle" x="0" y="202.525" style="font-family: 'Open Sans', verdana, arial, sans-serif; font-size: 12px; fill: rgb(0, 0, 0); fill-opacity: 1; white-space: pre; opacity: 1;" transform="translate(219.15,0)">6</text></g><g class="xtick"><text text-anchor="middle" x="0" y="202.525" style="font-family: 'Open Sans', verdana, arial, sans-serif; font-size: 12px; fill: rgb(0, 0, 0); fill-opacity: 1; white-space: pre; opacity: 1;" transform="translate(279.87,0)">8</text></g><g class="xtick"><text text-anchor="middle" x="0" y="202.525" style="font-family: 'Open Sans', verdana, arial, sans-serif; font-size: 12px; fill: rgb(0, 0, 0); fill-opacity: 1; white-space: pre; opacity: 1;" transform="translate(340.6,0)">10</text></g></g><g class="yaxislayer-above"><path class="ytick ticks crisp" d="M39,0h-5" transform="translate(0,175.51999999999998)" style="stroke: rgb(68, 68, 68); stroke-opacity: 1; stroke-width: 1px;"/><path class="ytick ticks crisp" d="M39,0h-5" transform="translate(0,112.15)" style="stroke: rgb(68, 68, 68); stroke-opacity: 1; stroke-width: 1px;"/><g class="ytick"><text text-anchor="end" x="31.6" y="4.199999999999999" transform="translate(0,175.51999999999998)" style="font-family: 'Open Sans', verdana, arial, sans-serif; font-size: 12px; fill: rgb(0, 0, 0); fill-opacity: 1; white-space: pre; opacity: 1;">0</text></g><g class="ytick"><text text-anchor="end" x="31.6" y="4.199999999999999" style="font-family: 'Open Sans', verdana, arial, sans-serif; font-size: 12px; fill: rgb(0, 0, 0); fill-opacity: 1; white-space: pre; opacity: 1;" transform="translate(0,112.15)">5</text></g></g><g class="overaxes-above"/></g><g class="subplot x2y2"><g class="layer-subplot"><g class="shapelayer"/><g class="imagelayer"/></g><g class="minor-gridlayer"><g class="x2"/><g class="y2"/></g><g class="gridlayer"><g class="x2"><path class="x2grid crisp" transform="translate(448.39,0)" d="M0,50v132.125" style="stroke: rgb(211, 211, 211); stroke-opacity: 1; stroke-width: 1px;"/><path class="x2grid crisp" transform="translate(509.12,0)" d="M0,50v132.125" style="stroke: rgb(211, 211, 211); stroke-opacity: 1; stroke-width: 1px;"/><path class="x2grid crisp" transform="translate(569.85,0)" d="M0,50v132.125" style="stroke: rgb(211, 211, 211); stroke-opacity: 1; stroke-width: 1px;"/><path class="x2grid crisp" transform="translate(630.5699999999999,0)" d="M0,50v132.125" style="stroke: rgb(211, 211, 211); stroke-opacity: 1; stroke-width: 1px;"/></g><g class="y2"><path class="y2grid crisp" transform="translate(0,141.18)" d="M390.7,0h300.5999999999999" style="stroke: rgb(211, 211, 211); stroke-opacity: 1; stroke-width: 1px;"/><path class="y2grid crisp" transform="translate(0,106.84)" d="M390.7,0h300.5999999999999" style="stroke: rgb(211, 211, 211); stroke-opacity: 1; stroke-width: 1px;"/><path class="y2grid crisp" transform="translate(0,72.5)" d="M390.7,0h300.5999999999999" style="stroke: rgb(211, 211, 211); stroke-opacity: 1; stroke-width: 1px;"/></g></g><g class="zerolinelayer"><path class="y2zl zl crisp" transform="translate(0,175.51999999999998)" d="M390.7,0h300.5999999999999" style="stroke: rgb(235, 240, 248); stroke-opacity: 1; stroke-width: 2px;"/></g><g class="layer-between"><g class="shapelayer"/><g class="imagelayer"/></g><path class="xlines-below"/><path class="ylines-below"/><g class="overlines-below"/><g class="xaxislayer-below"/><g class="yaxislayer-below"/><g class="overaxes-below"/><g class="overplot"><g class="x2y2" transform="translate(390.7,50)" clip-path="url(#clip7de302x2y2plot)"><g class="scatterlayer mlayer"><g class="trace scatter trace53e7c0" style="stroke-miterlimit: 2; opacity: 1;"><g class="fills"/><g class="errorbars"/><g class="lines"><path class="js-line" d="M0,125.52L97.16,125.52L100.2,6.61L103.24,41.36L106.27,125.52L109.31,100.42L112.35,125.52L300.6,125.52" style="vector-effect: none; fill: none; stroke: rgb(65, 105, 225); stroke-opacity: 1; stroke-width: 2px; opacity: 1;"/></g><g class="points"/><g class="text"/></g></g></g></g><path class="xlines-above crisp" d="M389.7,182.625H692.3M389.7,49.5H692.3" style="fill: none; stroke-width: 1px; stroke: rgb(0, 0, 0); stroke-opacity: 1;"/><path class="ylines-above crisp" d="M390.2,50V182.125M691.8,50V182.125" style="fill: none; stroke-width: 1px; stroke: rgb(0, 0, 0); stroke-opacity: 1;"/><g class="overlines-above"/><g class="xaxislayer-above"><path class="x2tick ticks crisp" d="M0,183.125v5" transform="translate(448.39,0)" style="stroke: rgb(68, 68, 68); stroke-opacity: 1; stroke-width: 1px;"/><path class="x2tick ticks crisp" d="M0,183.125v5" transform="translate(509.12,0)" style="stroke: rgb(68, 68, 68); stroke-opacity: 1; stroke-width: 1px;"/><path class="x2tick ticks crisp" d="M0,183.125v5" transform="translate(569.85,0)" style="stroke: rgb(68, 68, 68); stroke-opacity: 1; stroke-width: 1px;"/><path class="x2tick ticks crisp" d="M0,183.125v5" transform="translate(630.5699999999999,0)" style="stroke: rgb(68, 68, 68); stroke-opacity: 1; stroke-width: 1px;"/><path class="x2tick ticks crisp" d="M0,183.125v5" transform="translate(691.3,0)" style="stroke: rgb(68, 68, 68); stroke-opacity: 1; stroke-width: 1px;"/><g class="x2tick"><text text-anchor="middle" x="0" y="202.525" transform="translate(448.39,0)" style="font-family: 'Open Sans', verdana, arial, sans-serif; font-size: 12px; fill: rgb(0, 0, 0); fill-opacity: 1; white-space: pre; opacity: 1;">2</text></g><g class="x2tick"><text text-anchor="middle" x="0" y="202.525" style="font-family: 'Open Sans', verdana, arial, sans-serif; font-size: 12px; fill: rgb(0, 0, 0); fill-opacity: 1; white-space: pre; opacity: 1;" transform="translate(509.12,0)">4</text></g><g class="x2tick"><text text-anchor="middle" x="0" y="202.525" style="font-family: 'Open Sans', verdana, arial, sans-serif; font-size: 12px; fill: rgb(0, 0, 0); fill-opacity: 1; white-space: pre; opacity: 1;" transform="translate(569.85,0)">6</text></g><g class="x2tick"><text text-anchor="middle" x="0" y="202.525" style="font-family: 'Open Sans', verdana, arial, sans-serif; font-size: 12px; fill: rgb(0, 0, 0); fill-opacity: 1; white-space: pre; opacity: 1;" transform="translate(630.5699999999999,0)">8</text></g><g class="x2tick"><text text-anchor="middle" x="0" y="202.525" style="font-family: 'Open Sans', verdana, arial, sans-serif; font-size: 12px; fill: rgb(0, 0, 0); fill-opacity: 1; white-space: pre; opacity: 1;" transform="translate(691.3,0)">10</text></g></g><g class="yaxislayer-above"><path class="y2tick ticks crisp" d="M389.7,0h-5" transform="translate(0,175.51999999999998)" style="stroke: rgb(68, 68, 68); stroke-opacity: 1; stroke-width: 1px;"/><path class="y2tick ticks crisp" d="M389.7,0h-5" transform="translate(0,141.18)" style="stroke: rgb(68, 68, 68); stroke-opacity: 1; stroke-width: 1px;"/><path class="y2tick ticks crisp" d="M389.7,0h-5" transform="translate(0,106.84)" style="stroke: rgb(68, 68, 68); stroke-opacity: 1; stroke-width: 1px;"/><path class="y2tick ticks crisp" d="M389.7,0h-5" transform="translate(0,72.5)" style="stroke: rgb(68, 68, 68); stroke-opacity: 1; stroke-width: 1px;"/><g class="y2tick"><text text-anchor="end" x="382.3" y="4.199999999999999" transform="translate(0,175.51999999999998)" style="font-family: 'Open Sans', verdana, arial, sans-serif; font-size: 12px; fill: rgb(0, 0, 0); fill-opacity: 1; white-space: pre; opacity: 1;">0</text></g><g class="y2tick"><text text-anchor="end" x="382.3" y="4.199999999999999" style="font-family: 'Open Sans', verdana, arial, sans-serif; font-size: 12px; fill: rgb(0, 0, 0); fill-opacity: 1; white-space: pre; opacity: 1;" transform="translate(0,141.18)">5</text></g><g class="y2tick"><text text-anchor="end" x="382.3" y="4.199999999999999" style="font-family: 'Open Sans', verdana, arial, sans-serif; font-size: 12px; fill: rgb(0, 0, 0); fill-opacity: 1; white-space: pre; opacity: 1;" transform="translate(0,106.84)">10</text></g><g class="y2tick"><text text-anchor="end" x="382.3" y="4.199999999999999" style="font-family: 'Open Sans', verdana, arial, sans-serif; font-size: 12px; fill: rgb(0, 0, 0); fill-opacity: 1; white-space: pre; opacity: 1;" transform="translate(0,72.5)">15</text></g></g><g class="overaxes-above"/></g><g class="subplot x3y3"><g class="layer-subplot"><g class="shapelayer"/><g class="imagelayer"/></g><g class="minor-gridlayer"><g class="x3"/><g class="y3"/></g><g class="gridlayer"><g class="x3"><path class="x3grid crisp" transform="translate(799.0899999999999,0)" d="M0,50v132.125" style="stroke: rgb(211, 211, 211); stroke-opacity: 1; stroke-width: 1px;"/><path class="x3grid crisp" transform="translate(859.8199999999999,0)" d="M0,50v132.125" style="stroke: rgb(211, 211, 211); stroke-opacity: 1; stroke-width: 1px;"/><path class="x3grid crisp" transform="translate(920.55,0)" d="M0,50v132.125" style="stroke: rgb(211, 211, 211); stroke-opacity: 1; stroke-width: 1px;"/><path class="x3grid crisp" transform="translate(981.27,0)" d="M0,50v132.125" style="stroke: rgb(211, 211, 211); stroke-opacity: 1; stroke-width: 1px;"/></g><g class="y3"><path class="y3grid crisp" transform="translate(0,114.68)" d="M741.4,0h300.6" style="stroke: rgb(211, 211, 211); stroke-opacity: 1; stroke-width: 1px;"/><path class="y3grid crisp" transform="translate(0,53.84)" d="M741.4,0h300.6" style="stroke: rgb(211, 211, 211); stroke-opacity: 1; stroke-width: 1px;"/></g></g><g class="zerolinelayer"><path class="y3zl zl crisp" transform="translate(0,175.51999999999998)" d="M741.4,0h300.6" style="stroke: rgb(235, 240, 248); stroke-opacity: 1; stroke-width: 2px;"/></g><g class="layer-between"><g class="shapelayer"/><g class="imagelayer"/></g><path class="xlines-below"/><path class="ylines-below"/><g class="overlines-below"/><g class="xaxislayer-below"/><g class="yaxislayer-below"/><g class="overaxes-below"/><g class="overplot"><g class="x3y3" transform="translate(741.4,50)" clip-path="url(#clip7de302x3y3plot)"><g class="scatterlayer mlayer"><g class="trace scatter tracef02658" style="stroke-miterlimit: 2; opacity: 1;"><g class="fills"/><g class="errorbars"/><g class="lines"><path class="js-line" d="M0,125.52L69.84,125.52L72.87,28.11L75.91,35.45L78.95,125.52L91.09,125.52L94.13,6.61L97.16,125.52L100.2,125.52L130.56,125.52L133.6,95.45L136.64,125.52L139.67,97.96L142.71,125.52L145.75,100.16L148.78,101.17L151.82,125.52L300.6,125.52" style="vector-effect: none; fill: none; stroke: rgb(65, 105, 225); stroke-opacity: 1; stroke-width: 2px; opacity: 1;"/></g><g class="points"/><g class="text"/></g></g></g></g><path class="xlines-above crisp" d="M740.4,182.625H1043M740.4,49.5H1043" style="fill: none; stroke-width: 1px; stroke: rgb(0, 0, 0); stroke-opacity: 1;"/><path class="ylines-above crisp" d="M740.9,50V182.125M1042.5,50V182.125" style="fill: none; stroke-width: 1px; stroke: rgb(0, 0, 0); stroke-opacity: 1;"/><g class="overlines-above"/><g class="xaxislayer-above"><path class="x3tick ticks crisp" d="M0,183.125v5" transform="translate(799.0899999999999,0)" style="stroke: rgb(68, 68, 68); stroke-opacity: 1; stroke-width: 1px;"/><path class="x3tick ticks crisp" d="M0,183.125v5" transform="translate(859.8199999999999,0)" style="stroke: rgb(68, 68, 68); stroke-opacity: 1; stroke-width: 1px;"/><path class="x3tick ticks crisp" d="M0,183.125v5" transform="translate(920.55,0)" style="stroke: rgb(68, 68, 68); stroke-opacity: 1; stroke-width: 1px;"/><path class="x3tick ticks crisp" d="M0,183.125v5" transform="translate(981.27,0)" style="stroke: rgb(68, 68, 68); stroke-opacity: 1; stroke-width: 1px;"/><path class="x3tick ticks crisp" d="M0,183.125v5" transform="translate(1042,0)" style="stroke: rgb(68, 68, 68); stroke-opacity: 1; stroke-width: 1px;"/><g class="x3tick"><text text-anchor="middle" x="0" y="202.525" transform="translate(799.0899999999999,0)" style="font-family: 'Open Sans', verdana, arial, sans-serif; font-size: 12px; fill: rgb(0, 0, 0); fill-opacity: 1; white-space: pre; opacity: 1;">2</text></g><g class="x3tick"><text text-anchor="middle" x="0" y="202.525" style="font-family: 'Open Sans', verdana, arial, sans-serif; font-size: 12px; fill: rgb(0, 0, 0); fill-opacity: 1; white-space: pre; opacity: 1;" transform="translate(859.8199999999999,0)">4</text></g><g class="x3tick"><text text-anchor="middle" x="0" y="202.525" style="font-family: 'Open Sans', verdana, arial, sans-serif; font-size: 12px; fill: rgb(0, 0, 0); fill-opacity: 1; white-space: pre; opacity: 1;" transform="translate(920.55,0)">6</text></g><g class="x3tick"><text text-anchor="middle" x="0" y="202.525" style="font-family: 'Open Sans', verdana, arial, sans-serif; font-size: 12px; fill: rgb(0, 0, 0); fill-opacity: 1; white-space: pre; opacity: 1;" transform="translate(981.27,0)">8</text></g><g class="x3tick"><text text-anchor="middle" x="0" y="202.525" style="font-family: 'Open Sans', verdana, arial, sans-serif; font-size: 12px; fill: rgb(0, 0, 0); fill-opacity: 1; white-space: pre; opacity: 1;" transform="translate(1042,0)">10</text></g></g><g class="yaxislayer-above"><path class="y3tick ticks crisp" d="M740.4,0h-5" transform="translate(0,175.51999999999998)" style="stroke: rgb(68, 68, 68); stroke-opacity: 1; stroke-width: 1px;"/><path class="y3tick ticks crisp" d="M740.4,0h-5" transform="translate(0,114.68)" style="stroke: rgb(68, 68, 68); stroke-opacity: 1; stroke-width: 1px;"/><path class="y3tick ticks crisp" d="M740.4,0h-5" transform="translate(0,53.84)" style="stroke: rgb(68, 68, 68); stroke-opacity: 1; stroke-width: 1px;"/><g class="y3tick"><text text-anchor="end" x="733" y="4.199999999999999" transform="translate(0,175.51999999999998)" style="font-family: 'Open Sans', verdana, arial, sans-serif; font-size: 12px; fill: rgb(0, 0, 0); fill-opacity: 1; white-space: pre; opacity: 1;">0</text></g><g class="y3tick"><text text-anchor="end" x="733" y="4.199999999999999" style="font-family: 'Open Sans', verdana, arial, sans-serif; font-size: 12px; fill: rgb(0, 0, 0); fill-opacity: 1; white-space: pre; opacity: 1;" transform="translate(0,114.68)">5</text></g><g class="y3tick"><text text-anchor="end" x="733" y="4.199999999999999" style="font-family: 'Open Sans', verdana, arial, sans-serif; font-size: 12px; fill: rgb(0, 0, 0); fill-opacity: 1; white-space: pre; opacity: 1;" transform="translate(0,53.84)">10</text></g></g><g class="overaxes-above"/></g><g class="subplot x4y4"><g class="layer-subplot"><g class="shapelayer"/><g class="imagelayer"/></g><g class="minor-gridlayer"><g class="x4"/><g class="y4"/></g><g class="gridlayer"><g class="x4"><path class="x4grid crisp" transform="translate(97.69,0)" d="M0,219.875v132.125" style="stroke: rgb(211, 211, 211); stroke-opacity: 1; stroke-width: 1px;"/><path class="x4grid crisp" transform="translate(158.42000000000002,0)" d="M0,219.875v132.125" style="stroke: rgb(211, 211, 211); stroke-opacity: 1; stroke-width: 1px;"/><path class="x4grid crisp" transform="translate(219.15,0)" d="M0,219.875v132.125" style="stroke: rgb(211, 211, 211); stroke-opacity: 1; stroke-width: 1px;"/><path class="x4grid crisp" transform="translate(279.87,0)" d="M0,219.875v132.125" style="stroke: rgb(211, 211, 211); stroke-opacity: 1; stroke-width: 1px;"/></g><g class="y4"><path class="y4grid crisp" transform="translate(0,282.025)" d="M40,0h300.59999999999997" style="stroke: rgb(211, 211, 211); stroke-opacity: 1; stroke-width: 1px;"/></g></g><g class="zerolinelayer"><path class="y4zl zl crisp" transform="translate(0,345.395)" d="M40,0h300.59999999999997" style="stroke: rgb(235, 240, 248); stroke-opacity: 1; stroke-width: 2px;"/></g><g class="layer-between"><g class="shapelayer"/><g class="imagelayer"/></g><path class="xlines-below"/><path class="ylines-below"/><g class="overlines-below"/><g class="xaxislayer-below"/><g class="yaxislayer-below"/><g class="overaxes-below"/><g class="overplot"><g class="x4y4" transform="translate(40,219.875)" clip-path="url(#clip7de302x4y4plot)"><g class="scatterlayer mlayer"><g class="trace scatter tracef9fefc" style="stroke-miterlimit: 2; opacity: 1;"><g class="fills"/><g class="errorbars"/><g class="lines"><path class="js-line" d="M0,125.52L115.38,125.52L118.42,6.61L121.45,125.52L124.49,125.52L163.96,125.52L167,64.85L170.04,125.52L173.07,125.52L203.44,125.52L206.47,112.2L209.51,125.52L212.55,125.52L300.6,125.52" style="vector-effect: none; fill: none; stroke: rgb(65, 105, 225); stroke-opacity: 1; stroke-width: 2px; opacity: 1;"/></g><g class="points"/><g class="text"/></g></g></g></g><path class="xlines-above crisp" d="M39,352.5H341.59999999999997M39,219.375H341.59999999999997" style="fill: none; stroke-width: 1px; stroke: rgb(0, 0, 0); stroke-opacity: 1;"/><path class="ylines-above crisp" d="M39.5,219.875V352M341.09999999999997,219.875V352" style="fill: none; stroke-width: 1px; stroke: rgb(0, 0, 0); stroke-opacity: 1;"/><g class="overlines-above"/><g class="xaxislayer-above"><path class="x4tick ticks crisp" d="M0,353v5" transform="translate(97.69,0)" style="stroke: rgb(68, 68, 68); stroke-opacity: 1; stroke-width: 1px;"/><path class="x4tick ticks crisp" d="M0,353v5" transform="translate(158.42000000000002,0)" style="stroke: rgb(68, 68, 68); stroke-opacity: 1; stroke-width: 1px;"/><path class="x4tick ticks crisp" d="M0,353v5" transform="translate(219.15,0)" style="stroke: rgb(68, 68, 68); stroke-opacity: 1; stroke-width: 1px;"/><path class="x4tick ticks crisp" d="M0,353v5" transform="translate(279.87,0)" style="stroke: rgb(68, 68, 68); stroke-opacity: 1; stroke-width: 1px;"/><path class="x4tick ticks crisp" d="M0,353v5" transform="translate(340.6,0)" style="stroke: rgb(68, 68, 68); stroke-opacity: 1; stroke-width: 1px;"/><g class="x4tick"><text text-anchor="middle" x="0" y="372.4" transform="translate(97.69,0)" style="font-family: 'Open Sans', verdana, arial, sans-serif; font-size: 12px; fill: rgb(0, 0, 0); fill-opacity: 1; white-space: pre; opacity: 1;">2</text></g><g class="x4tick"><text text-anchor="middle" x="0" y="372.4" style="font-family: 'Open Sans', verdana, arial, sans-serif; font-size: 12px; fill: rgb(0, 0, 0); fill-opacity: 1; white-space: pre; opacity: 1;" transform="translate(158.42000000000002,0)">4</text></g><g class="x4tick"><text text-anchor="middle" x="0" y="372.4" style="font-family: 'Open Sans', verdana, arial, sans-serif; font-size: 12px; fill: rgb(0, 0, 0); fill-opacity: 1; white-space: pre; opacity: 1;" transform="translate(219.15,0)">6</text></g><g class="x4tick"><text text-anchor="middle" x="0" y="372.4" style="font-family: 'Open Sans', verdana, arial, sans-serif; font-size: 12px; fill: rgb(0, 0, 0); fill-opacity: 1; white-space: pre; opacity: 1;" transform="translate(279.87,0)">8</text></g><g class="x4tick"><text text-anchor="middle" x="0" y="372.4" style="font-family: 'Open Sans', verdana, arial, sans-serif; font-size: 12px; fill: rgb(0, 0, 0); fill-opacity: 1; white-space: pre; opacity: 1;" transform="translate(340.6,0)">10</text></g></g><g class="yaxislayer-above"><path class="y4tick ticks crisp" d="M39,0h-5" transform="translate(0,345.395)" style="stroke: rgb(68, 68, 68); stroke-opacity: 1; stroke-width: 1px;"/><path class="y4tick ticks crisp" d="M39,0h-5" transform="translate(0,282.025)" style="stroke: rgb(68, 68, 68); stroke-opacity: 1; stroke-width: 1px;"/><g class="y4tick"><text text-anchor="end" x="31.6" y="4.199999999999999" transform="translate(0,345.395)" style="font-family: 'Open Sans', verdana, arial, sans-serif; font-size: 12px; fill: rgb(0, 0, 0); fill-opacity: 1; white-space: pre; opacity: 1;">0</text></g><g class="y4tick"><text text-anchor="end" x="31.6" y="4.199999999999999" style="font-family: 'Open Sans', verdana, arial, sans-serif; font-size: 12px; fill: rgb(0, 0, 0); fill-opacity: 1; white-space: pre; opacity: 1;" transform="translate(0,282.025)">5</text></g></g><g class="overaxes-above"/></g><g class="subplot x5y5"><g class="layer-subplot"><g class="shapelayer"/><g class="imagelayer"/></g><g class="minor-gridlayer"><g class="x5"/><g class="y5"/></g><g class="gridlayer"><g class="x5"><path class="x5grid crisp" transform="translate(448.39,0)" d="M0,219.875v132.125" style="stroke: rgb(211, 211, 211); stroke-opacity: 1; stroke-width: 1px;"/><path class="x5grid crisp" transform="translate(509.12,0)" d="M0,219.875v132.125" style="stroke: rgb(211, 211, 211); stroke-opacity: 1; stroke-width: 1px;"/><path class="x5grid crisp" transform="translate(569.85,0)" d="M0,219.875v132.125" style="stroke: rgb(211, 211, 211); stroke-opacity: 1; stroke-width: 1px;"/><path class="x5grid crisp" transform="translate(630.5699999999999,0)" d="M0,219.875v132.125" style="stroke: rgb(211, 211, 211); stroke-opacity: 1; stroke-width: 1px;"/></g><g class="y5"><path class="y5grid crisp" transform="translate(0,297.865)" d="M390.7,0h300.5999999999999" style="stroke: rgb(211, 211, 211); stroke-opacity: 1; stroke-width: 1px;"/><path class="y5grid crisp" transform="translate(0,250.335)" d="M390.7,0h300.5999999999999" style="stroke: rgb(211, 211, 211); stroke-opacity: 1; stroke-width: 1px;"/></g></g><g class="zerolinelayer"><path class="y5zl zl crisp" transform="translate(0,345.395)" d="M390.7,0h300.5999999999999" style="stroke: rgb(235, 240, 248); stroke-opacity: 1; stroke-width: 2px;"/></g><g class="layer-between"><g class="shapelayer"/><g class="imagelayer"/></g><path class="xlines-below"/><path class="ylines-below"/><g class="overlines-below"/><g class="xaxislayer-below"/><g class="yaxislayer-below"/><g class="overaxes-below"/><g class="overplot"><g class="x5y5" transform="translate(390.7,219.875)" clip-path="url(#clip7de302x5y5plot)"><g class="scatterlayer mlayer"><g class="trace scatter trace324992" style="stroke-miterlimit: 2; opacity: 1;"><g class="fills"/><g class="errorbars"/><g class="lines"><path class="js-line" d="M0,125.52L54.65,125.52L57.69,6.61L60.73,125.52L63.76,27.24L66.8,125.52L69.84,125.52L118.42,125.52L121.45,97.22L127.53,99.79L130.56,125.52L133.6,102.03L136.64,125.52L163.96,125.52L167,110.35L170.04,110.88L173.07,125.52L300.6,125.52" style="vector-effect: none; fill: none; stroke: rgb(65, 105, 225); stroke-opacity: 1; stroke-width: 2px; opacity: 1;"/></g><g class="points"/><g class="text"/></g></g></g></g><path class="xlines-above crisp" d="M389.7,352.5H692.3M389.7,219.375H692.3" style="fill: none; stroke-width: 1px; stroke: rgb(0, 0, 0); stroke-opacity: 1;"/><path class="ylines-above crisp" d="M390.2,219.875V352M691.8,219.875V352" style="fill: none; stroke-width: 1px; stroke: rgb(0, 0, 0); stroke-opacity: 1;"/><g class="overlines-above"/><g class="xaxislayer-above"><path class="x5tick ticks crisp" d="M0,353v5" transform="translate(448.39,0)" style="stroke: rgb(68, 68, 68); stroke-opacity: 1; stroke-width: 1px;"/><path class="x5tick ticks crisp" d="M0,353v5" transform="translate(509.12,0)" style="stroke: rgb(68, 68, 68); stroke-opacity: 1; stroke-width: 1px;"/><path class="x5tick ticks crisp" d="M0,353v5" transform="translate(569.85,0)" style="stroke: rgb(68, 68, 68); stroke-opacity: 1; stroke-width: 1px;"/><path class="x5tick ticks crisp" d="M0,353v5" transform="translate(630.5699999999999,0)" style="stroke: rgb(68, 68, 68); stroke-opacity: 1; stroke-width: 1px;"/><path class="x5tick ticks crisp" d="M0,353v5" transform="translate(691.3,0)" style="stroke: rgb(68, 68, 68); stroke-opacity: 1; stroke-width: 1px;"/><g class="x5tick"><text text-anchor="middle" x="0" y="372.4" transform="translate(448.39,0)" style="font-family: 'Open Sans', verdana, arial, sans-serif; font-size: 12px; fill: rgb(0, 0, 0); fill-opacity: 1; white-space: pre; opacity: 1;">2</text></g><g class="x5tick"><text text-anchor="middle" x="0" y="372.4" style="font-family: 'Open Sans', verdana, arial, sans-serif; font-size: 12px; fill: rgb(0, 0, 0); fill-opacity: 1; white-space: pre; opacity: 1;" transform="translate(509.12,0)">4</text></g><g class="x5tick"><text text-anchor="middle" x="0" y="372.4" style="font-family: 'Open Sans', verdana, arial, sans-serif; font-size: 12px; fill: rgb(0, 0, 0); fill-opacity: 1; white-space: pre; opacity: 1;" transform="translate(569.85,0)">6</text></g><g class="x5tick"><text text-anchor="middle" x="0" y="372.4" style="font-family: 'Open Sans', verdana, arial, sans-serif; font-size: 12px; fill: rgb(0, 0, 0); fill-opacity: 1; white-space: pre; opacity: 1;" transform="translate(630.5699999999999,0)">8</text></g><g class="x5tick"><text text-anchor="middle" x="0" y="372.4" style="font-family: 'Open Sans', verdana, arial, sans-serif; font-size: 12px; fill: rgb(0, 0, 0); fill-opacity: 1; white-space: pre; opacity: 1;" transform="translate(691.3,0)">10</text></g></g><g class="yaxislayer-above"><path class="y5tick ticks crisp" d="M389.7,0h-5" transform="translate(0,345.395)" style="stroke: rgb(68, 68, 68); stroke-opacity: 1; stroke-width: 1px;"/><path class="y5tick ticks crisp" d="M389.7,0h-5" transform="translate(0,297.865)" style="stroke: rgb(68, 68, 68); stroke-opacity: 1; stroke-width: 1px;"/><path class="y5tick ticks crisp" d="M389.7,0h-5" transform="translate(0,250.335)" style="stroke: rgb(68, 68, 68); stroke-opacity: 1; stroke-width: 1px;"/><g class="y5tick"><text text-anchor="end" x="382.3" y="4.199999999999999" transform="translate(0,345.395)" style="font-family: 'Open Sans', verdana, arial, sans-serif; font-size: 12px; fill: rgb(0, 0, 0); fill-opacity: 1; white-space: pre; opacity: 1;">0</text></g><g class="y5tick"><text text-anchor="end" x="382.3" y="4.199999999999999" style="font-family: 'Open Sans', verdana, arial, sans-serif; font-size: 12px; fill: rgb(0, 0, 0); fill-opacity: 1; white-space: pre; opacity: 1;" transform="translate(0,297.865)">5</text></g><g class="y5tick"><text text-anchor="end" x="382.3" y="4.199999999999999" style="font-family: 'Open Sans', verdana, arial, sans-serif; font-size: 12px; fill: rgb(0, 0, 0); fill-opacity: 1; white-space: pre; opacity: 1;" transform="translate(0,250.335)">10</text></g></g><g class="overaxes-above"/></g><g class="subplot x6y6"><g class="layer-subplot"><g class="shapelayer"/><g class="imagelayer"/></g><g class="minor-gridlayer"><g class="x6"/><g class="y6"/></g><g class="gridlayer"><g class="x6"><path class="x6grid crisp" transform="translate(799.0899999999999,0)" d="M0,219.875v132.125" style="stroke: rgb(211, 211, 211); stroke-opacity: 1; stroke-width: 1px;"/><path class="x6grid crisp" transform="translate(859.8199999999999,0)" d="M0,219.875v132.125" style="stroke: rgb(211, 211, 211); stroke-opacity: 1; stroke-width: 1px;"/><path class="x6grid crisp" transform="translate(920.55,0)" d="M0,219.875v132.125" style="stroke: rgb(211, 211, 211); stroke-opacity: 1; stroke-width: 1px;"/><path class="x6grid crisp" transform="translate(981.27,0)" d="M0,219.875v132.125" style="stroke: rgb(211, 211, 211); stroke-opacity: 1; stroke-width: 1px;"/></g><g class="y6"><path class="y6grid crisp" transform="translate(0,307.915)" d="M741.4,0h300.6" style="stroke: rgb(211, 211, 211); stroke-opacity: 1; stroke-width: 1px;"/><path class="y6grid crisp" transform="translate(0,270.445)" d="M741.4,0h300.6" style="stroke: rgb(211, 211, 211); stroke-opacity: 1; stroke-width: 1px;"/><path class="y6grid crisp" transform="translate(0,232.975)" d="M741.4,0h300.6" style="stroke: rgb(211, 211, 211); stroke-opacity: 1; stroke-width: 1px;"/></g></g><g class="zerolinelayer"><path class="y6zl zl crisp" transform="translate(0,345.395)" d="M741.4,0h300.6" style="stroke: rgb(235, 240, 248); stroke-opacity: 1; stroke-width: 2px;"/></g><g class="layer-between"><g class="shapelayer"/><g class="imagelayer"/></g><path class="xlines-below"/><path class="ylines-below"/><g class="overlines-below"/><g class="xaxislayer-below"/><g class="yaxislayer-below"/><g class="overaxes-below"/><g class="overplot"><g class="x6y6" transform="translate(741.4,219.875)" clip-path="url(#clip7de302x6y6plot)"><g class="scatterlayer mlayer"><g class="trace scatter traceb090c9" style="stroke-miterlimit: 2; opacity: 1;"><g class="fills"/><g class="errorbars"/><g class="lines"><path class="js-line" d="M0,125.52L81.98,125.52L85.02,6.61L88.05,125.52L91.09,125.52L100.2,125.52L103.24,105.11L106.27,125.52L109.31,125.52L118.42,125.52L121.45,118.08L124.49,111.35L127.53,125.52L136.64,125.52L139.67,114.2L142.71,114.67L145.75,125.52L148.78,125.52L151.82,115.91L154.85,125.52L157.89,125.52L163.96,125.52L167,113.56L170.04,125.52L173.07,125.52L185.22,125.52L188.25,122.37L191.29,125.52L194.33,125.52L300.6,125.52" style="vector-effect: none; fill: none; stroke: rgb(65, 105, 225); stroke-opacity: 1; stroke-width: 2px; opacity: 1;"/></g><g class="points"/><g class="text"/></g></g></g></g><path class="xlines-above crisp" d="M740.4,352.5H1043M740.4,219.375H1043" style="fill: none; stroke-width: 1px; stroke: rgb(0, 0, 0); stroke-opacity: 1;"/><path class="ylines-above crisp" d="M740.9,219.875V352M1042.5,219.875V352" style="fill: none; stroke-width: 1px; stroke: rgb(0, 0, 0); stroke-opacity: 1;"/><g class="overlines-above"/><g class="xaxislayer-above"><path class="x6tick ticks crisp" d="M0,353v5" transform="translate(799.0899999999999,0)" style="stroke: rgb(68, 68, 68); stroke-opacity: 1; stroke-width: 1px;"/><path class="x6tick ticks crisp" d="M0,353v5" transform="translate(859.8199999999999,0)" style="stroke: rgb(68, 68, 68); stroke-opacity: 1; stroke-width: 1px;"/><path class="x6tick ticks crisp" d="M0,353v5" transform="translate(920.55,0)" style="stroke: rgb(68, 68, 68); stroke-opacity: 1; stroke-width: 1px;"/><path class="x6tick ticks crisp" d="M0,353v5" transform="translate(981.27,0)" style="stroke: rgb(68, 68, 68); stroke-opacity: 1; stroke-width: 1px;"/><path class="x6tick ticks crisp" d="M0,353v5" transform="translate(1042,0)" style="stroke: rgb(68, 68, 68); stroke-opacity: 1; stroke-width: 1px;"/><g class="x6tick"><text text-anchor="middle" x="0" y="372.4" transform="translate(799.0899999999999,0)" style="font-family: 'Open Sans', verdana, arial, sans-serif; font-size: 12px; fill: rgb(0, 0, 0); fill-opacity: 1; white-space: pre; opacity: 1;">2</text></g><g class="x6tick"><text text-anchor="middle" x="0" y="372.4" style="font-family: 'Open Sans', verdana, arial, sans-serif; font-size: 12px; fill: rgb(0, 0, 0); fill-opacity: 1; white-space: pre; opacity: 1;" transform="translate(859.8199999999999,0)">4</text></g><g class="x6tick"><text text-anchor="middle" x="0" y="372.4" style="font-family: 'Open Sans', verdana, arial, sans-serif; font-size: 12px; fill: rgb(0, 0, 0); fill-opacity: 1; white-space: pre; opacity: 1;" transform="translate(920.55,0)">6</text></g><g class="x6tick"><text text-anchor="middle" x="0" y="372.4" style="font-family: 'Open Sans', verdana, arial, sans-serif; font-size: 12px; fill: rgb(0, 0, 0); fill-opacity: 1; white-space: pre; opacity: 1;" transform="translate(981.27,0)">8</text></g><g class="x6tick"><text text-anchor="middle" x="0" y="372.4" style="font-family: 'Open Sans', verdana, arial, sans-serif; font-size: 12px; fill: rgb(0, 0, 0); fill-opacity: 1; white-space: pre; opacity: 1;" transform="translate(1042,0)">10</text></g></g><g class="yaxislayer-above"><path class="y6tick ticks crisp" d="M740.4,0h-5" transform="translate(0,345.395)" style="stroke: rgb(68, 68, 68); stroke-opacity: 1; stroke-width: 1px;"/><path class="y6tick ticks crisp" d="M740.4,0h-5" transform="translate(0,307.915)" style="stroke: rgb(68, 68, 68); stroke-opacity: 1; stroke-width: 1px;"/><path class="y6tick ticks crisp" d="M740.4,0h-5" transform="translate(0,270.445)" style="stroke: rgb(68, 68, 68); stroke-opacity: 1; stroke-width: 1px;"/><path class="y6tick ticks crisp" d="M740.4,0h-5" transform="translate(0,232.975)" style="stroke: rgb(68, 68, 68); stroke-opacity: 1; stroke-width: 1px;"/><g class="y6tick"><text text-anchor="end" x="733" y="4.199999999999999" transform="translate(0,345.395)" style="font-family: 'Open Sans', verdana, arial, sans-serif; font-size: 12px; fill: rgb(0, 0, 0); fill-opacity: 1; white-space: pre; opacity: 1;">0</text></g><g class="y6tick"><text text-anchor="end" x="733" y="4.199999999999999" style="font-family: 'Open Sans', verdana, arial, sans-serif; font-size: 12px; fill: rgb(0, 0, 0); fill-opacity: 1; white-space: pre; opacity: 1;" transform="translate(0,307.915)">5</text></g><g class="y6tick"><text text-anchor="end" x="733" y="4.199999999999999" style="font-family: 'Open Sans', verdana, arial, sans-serif; font-size: 12px; fill: rgb(0, 0, 0); fill-opacity: 1; white-space: pre; opacity: 1;" transform="translate(0,270.445)">10</text></g><g class="y6tick"><text text-anchor="end" x="733" y="4.199999999999999" style="font-family: 'Open Sans', verdana, arial, sans-serif; font-size: 12px; fill: rgb(0, 0, 0); fill-opacity: 1; white-space: pre; opacity: 1;" transform="translate(0,232.975)">15</text></g></g><g class="overaxes-above"/></g></g><g class="polarlayer"/><g class="smithlayer"/><g class="ternarylayer"/><g class="geolayer"/><g class="funnelarealayer"/><g class="pielayer"/><g class="iciclelayer"/><g class="treemaplayer"/><g class="sunburstlayer"/><g class="glimages"/><defs id="topdefs-7de302"><g class="clips"/></defs><g class="layer-above"><g class="imagelayer"/><g class="shapelayer"/></g><g class="infolayer"><g class="g-gtitle"><text class="gtitle" x="525" y="8" text-anchor="middle" dy="0.7em" style="opacity: 1; font-family: 'Open Sans', verdana, arial, sans-serif; font-size: 17px; fill: rgb(0, 0, 0); fill-opacity: 1; white-space: pre;">Pairwise RDFs - Na8 Nb8 O24</text></g><g class="g-xtitle"/><g class="g-x2title"/><g class="g-x3title"/><g class="g-x4title" transform="translate(0,-2.2062500000000114)"><text class="x4title" x="190.29999999999998" y="399.20625" text-anchor="middle" style="opacity: 1; font-family: 'Open Sans', verdana, arial, sans-serif; font-size: 14px; fill: rgb(0, 0, 0); fill-opacity: 1; white-space: pre;">r (Å)</text></g><g class="g-x5title" transform="translate(0,-2.2062500000000114)"><text class="x5title" x="541" y="399.20625" text-anchor="middle" style="opacity: 1; font-family: 'Open Sans', verdana, arial, sans-serif; font-size: 14px; fill: rgb(0, 0, 0); fill-opacity: 1; white-space: pre;">r (Å)</text></g><g class="g-x6title" transform="translate(0,-2.2062500000000114)"><text class="x6title" x="891.7" y="399.20625" text-anchor="middle" style="opacity: 1; font-family: 'Open Sans', verdana, arial, sans-serif; font-size: 14px; fill: rgb(0, 0, 0); fill-opacity: 1; white-space: pre;">r (Å)</text></g><g class="g-ytitle"><text class="ytitle" transform="rotate(-90,19.46875,116.0625)" x="19.46875" y="116.0625" text-anchor="middle" style="opacity: 1; font-family: 'Open Sans', verdana, arial, sans-serif; font-size: 14px; fill: rgb(0, 0, 0); fill-opacity: 1; white-space: pre;">g(r)</text></g><g class="g-y2title"/><g class="g-y3title"/><g class="g-y4title"><text class="y4title" transform="rotate(-90,19.46875,285.9375)" x="19.46875" y="285.9375" text-anchor="middle" style="opacity: 1; font-family: 'Open Sans', verdana, arial, sans-serif; font-size: 14px; fill: rgb(0, 0, 0); fill-opacity: 1; white-space: pre;">g(r)</text></g><g class="g-y5title"/><g class="g-y6title"/><g class="annotation" data-index="0" style="opacity: 1;"><g class="annotation-text-g" transform="rotate(0,190.29999999999998,38)"><g class="cursor-pointer" transform="translate(163,26)"><rect class="bg" x="0.5" y="0.5" width="53" height="23" style="stroke-width: 1px; stroke: rgb(0, 0, 0); stroke-opacity: 0; fill: rgb(0, 0, 0); fill-opacity: 0;"/><text class="annotation-text" text-anchor="middle" x="27.21875" y="18" style="font-family: 'Open Sans', verdana, arial, sans-serif; font-size: 16px; fill: rgb(0, 0, 0); fill-opacity: 1; white-space: pre;">Na-Na</text></g></g></g><g class="annotation" data-index="1" style="opacity: 1;"><g class="annotation-text-g" transform="rotate(0,541,38)"><g class="cursor-pointer" transform="translate(514,26)"><rect class="bg" x="0.5" y="0.5" width="54" height="23" style="stroke-width: 1px; stroke: rgb(0, 0, 0); stroke-opacity: 0; fill: rgb(0, 0, 0); fill-opacity: 0;"/><text class="annotation-text" text-anchor="middle" x="27.390625" y="18" style="font-family: 'Open Sans', verdana, arial, sans-serif; font-size: 16px; fill: rgb(0, 0, 0); fill-opacity: 1; white-space: pre;">Na-Nb</text></g></g></g><g class="annotation" data-index="2" style="opacity: 1;"><g class="annotation-text-g" transform="rotate(0,891.6999999999999,38)"><g class="cursor-pointer" transform="translate(869,26)"><rect class="bg" x="0.5" y="0.5" width="44" height="23" style="stroke-width: 1px; stroke: rgb(0, 0, 0); stroke-opacity: 0; fill: rgb(0, 0, 0); fill-opacity: 0;"/><text class="annotation-text" text-anchor="middle" x="22.71875" y="18" style="font-family: 'Open Sans', verdana, arial, sans-serif; font-size: 16px; fill: rgb(0, 0, 0); fill-opacity: 1; white-space: pre;">Na-O</text></g></g></g><g class="annotation" data-index="3" style="opacity: 1;"><g class="annotation-text-g" transform="rotate(0,190.29999999999998,207.875)"><g class="cursor-pointer" transform="translate(163,196)"><rect class="bg" x="0.5" y="0.5" width="54" height="23" style="stroke-width: 1px; stroke: rgb(0, 0, 0); stroke-opacity: 0; fill: rgb(0, 0, 0); fill-opacity: 0;"/><text class="annotation-text" text-anchor="middle" x="27.578125" y="18" style="font-family: 'Open Sans', verdana, arial, sans-serif; font-size: 16px; fill: rgb(0, 0, 0); fill-opacity: 1; white-space: pre;">Nb-Nb</text></g></g></g><g class="annotation" data-index="4" style="opacity: 1;"><g class="annotation-text-g" transform="rotate(0,541,207.875)"><g class="cursor-pointer" transform="translate(518,196)"><rect class="bg" x="0.5" y="0.5" width="45" height="23" style="stroke-width: 1px; stroke: rgb(0, 0, 0); stroke-opacity: 0; fill: rgb(0, 0, 0); fill-opacity: 0;"/><text class="annotation-text" text-anchor="middle" x="22.90625" y="18" style="font-family: 'Open Sans', verdana, arial, sans-serif; font-size: 16px; fill: rgb(0, 0, 0); fill-opacity: 1; white-space: pre;">Nb-O</text></g></g></g><g class="annotation" data-index="5" style="opacity: 1;"><g class="annotation-text-g" transform="rotate(0,891.6999999999999,207.875)"><g class="cursor-pointer" transform="translate(874,196)"><rect class="bg" x="0.5" y="0.5" width="35" height="23" style="stroke-width: 1px; stroke: rgb(0, 0, 0); stroke-opacity: 0; fill: rgb(0, 0, 0); fill-opacity: 0;"/><text class="annotation-text" text-anchor="middle" x="18.234375" y="18" style="font-family: 'Open Sans', verdana, arial, sans-serif; font-size: 16px; fill: rgb(0, 0, 0); fill-opacity: 1; white-space: pre;">O-O</text></g></g></g></g></svg>
