<svg class="main-svg" xmlns="http://www.w3.org/2000/svg" xmlns:xlink="http://www.w3.org/1999/xlink" width="1050" height="200" style="" viewBox="0 0 1050 200"><rect x="0" y="0" width="1050" height="200" style="fill: rgb(255, 255, 255); fill-opacity: 1;"/><defs id="defs-9ee9d0"><g class="clips"><clipPath id="clip9ee9d0xyplot" class="plotclip"><rect width="300.59999999999997" height="102"/></clipPath><clipPath id="clip9ee9d0x2y2plot" class="plotclip"><rect width="300.5999999999999" height="102"/></clipPath><clipPath id="clip9ee9d0x3y3plot" class="plotclip"><rect width="300.6" height="102"/></clipPath><clipPath class="axesclip" id="clip9ee9d0x"><rect x="40" y="0" width="300.59999999999997" height="200"/></clipPath><clipPath class="axesclip" id="clip9ee9d0y"><rect x="0" y="50" width="1050" height="102"/></clipPath><clipPath class="axesclip" id="clip9ee9d0xy"><rect x="40" y="50" width="300.59999999999997" height="102"/></clipPath><clipPath class="axesclip" id="clip9ee9d0y2"><rect x="0" y="50" width="1050" height="102"/></clipPath><clipPath class="axesclip" id="clip9ee9d0xy2"><rect x="40" y="50" width="300.59999999999997" height="102"/></clipPath><clipPath class="axesclip" id="clip9ee9d0y3"><rect x="0" y="50" width="1050" height="102"/></clipPath><clipPath class="axesclip" id="clip9ee9d0xy3"><rect x="40" y="50" width="300.59999999999997" height="102"/></clipPath><clipPath class="axesclip" id="clip9ee9d0x2"><rect x="390.7" y="0" width="300.5999999999999" height="200"/></clipPath><clipPath class="axesclip" id="clip9ee9d0x2y"><rect x="390.7" y="50" width="300.5999999999999" height="102"/></clipPath><clipPath class="axesclip" id="clip9ee9d0x2y2"><rect x="390.7" y="50" width="300.5999999999999" height="102"/></clipPath><clipPath class="axesclip" id="clip9ee9d0x2y3"><rect x="390.7" y="50" width="300.5999999999999" height="102"/></clipPath><clipPath class="axesclip" id="clip9ee9d0x3"><rect x="741.4" y="0" width="300.6" height="200"/></clipPath><clipPath class="axesclip" id="clip9ee9d0x3y"><rect x="741.4" y="50" width="300.6" height="102"/></clipPath><clipPath class="axesclip" id="clip9ee9d0x3y2"><rect x="741.4" y="50" width="300.6" height="102"/></clipPath><clipPath class="axesclip" id="clip9ee9d0x3y3"><rect x="741.4" y="50" width="300.6" height="102"/></clipPath></g><g class="gradients"/><g class="patterns"/></defs><g class="bglayer"/><g class="layer-below"><g class="imagelayer"/><g class="shapelayer"/></g><g class="cartesianlayer"><g class="subplot xy"><g class="layer-subplot"><g class="shapelayer"/><g class="imagelayer"/></g><g class="minor-gridlayer"><g class="x"/><g class="y"/></g><g class="gridlayer"><g class="x"><path class="xgrid crisp" transform="translate(97.69,0)" d="M0,50v102" style="stroke: rgb(211, 211, 211); stroke-opacity: 1; stroke-width: 1px;"/><path class="xgrid crisp" transform="translate(158.42000000000002,0)" d="M0,50v102" style="stroke: rgb(211, 211, 211); stroke-opacity: 1; stroke-width: 1px;"/><path class="xgrid crisp" transform="translate(219.15,0)" d="M0,50v102" style="stroke: rgb(211, 211, 211); stroke-opacity: 1; stroke-width: 1px;"/><path class="xgrid crisp" transform="translate(279.87,0)" d="M0,50v102" style="stroke: rgb(211, 211, 211); stroke-opacity: 1; stroke-width: 1px;"/></g><g class="y"><path class="ygrid crisp" transform="translate(0,117.16)" d="M40,0h300.59999999999997" style="stroke: rgb(211, 211, 211); stroke-opacity: 1; stroke-width: 1px;"/><path class="ygrid crisp" transform="translate(0,87.42)" d="M40,0h300.59999999999997" style="stroke: rgb(211, 211, 211); stroke-opacity: 1; stroke-width: 1px;"/><path class="ygrid crisp" transform="translate(0,57.68)" d="M40,0h300.59999999999997" style="stroke: rgb(211, 211, 211); stroke-opacity: 1; stroke-width: 1px;"/></g></g><g class="zerolinelayer"><path class="yzl zl crisp" transform="translate(0,146.9)" d="M40,0h300.59999999999997" style="stroke: rgb(235, 240, 248); stroke-opacity: 1; stroke-width: 2px;"/></g><g class="layer-between"><g class="shapelayer"/><g class="imagelayer"/></g><path class="xlines-below"/><path class="ylines-below"/><g class="overlines-below"/><g class="xaxislayer-below"/><g class="yaxislayer-below"/><g class="overaxes-below"/><g class="overplot"><g class="xy" transform="translate(40,50)" clip-path="url(#clip9ee9d0xyplot)"><g class="scatterlayer mlayer"><g class="trace scatter tracee9dc67" style="stroke-miterlimit: 2; opacity: 1;"><g class="fills"/><g class="errorbars"/><g class="lines"><path class="js-line" d="M0,96.9L75.91,96.9L78.95,5.1L81.98,96.9L85.02,96.9L115.38,96.9L118.42,69.02L124.49,96.9L127.53,96.9L142.71,96.9L145.75,87.61L148.78,79.05L151.82,79.75L154.85,80.4L157.89,96.9L170.04,96.9L173.07,83.64L176.11,96.9L179.15,96.9L212.55,96.9L215.58,94.75L218.62,96.9L221.65,96.9L300.6,96.9" style="vector-effect: none; fill: none; stroke: rgb(65, 105, 225); stroke-opacity: 1; stroke-width: 2px; opacity: 1;"/></g><g class="points"/><g class="text"/></g></g></g></g><path class="xlines-above crisp" d="M39,152.5H341.59999999999997M39,49.5H341.59999999999997" style="fill: none; stroke-width: 1px; stroke: rgb(0, 0, 0); stroke-opacity: 1;"/><path class="ylines-above crisp" d="M39.5,50V152M341.09999999999997,50V152" style="fill: none; stroke-width: 1px; stroke: rgb(0, 0, 0); stroke-opacity: 1;"/><g class="overlines-above"/><g class="xaxislayer-above"><path class="xtick ticks crisp" d="M0,153v5" transform="translate(97.69,0)" style="stroke: rgb(68, 68, 68); stroke-opacity: 1; stroke-width: 1px;"/><path class="xtick ticks crisp" d="M0,153v5" transform="translate(158.42000000000002,0)" style="stroke: rgb(68, 68, 68); stroke-opacity: 1; stroke-width: 1px;"/><path class="xtick ticks crisp" d="M0,153v5" transform="translate(219.15,0)" style="stroke: rgb(68, 68, 68); stroke-opacity: 1; stroke-width: 1px;"/><path class="xtick ticks crisp" d="M0,153v5" transform="translate(279.87,0)" style="stroke: rgb(68, 68, 68); stroke-opacity: 1; stroke-width: 1px;"/><path class="xtick ticks crisp" d="M0,153v5" transform="translate(340.6,0)" style="stroke: rgb(68, 68, 68); stroke-opacity: 1; stroke-width: 1px;"/><g class="xtick"><text text-anchor="middle" x="0" y="172.4" transform="translate(97.69,0)" style="font-family: 'Open Sans', verdana, arial, sans-serif; font-size: 12px; fill: rgb(0, 0, 0); fill-opacity: 1; white-space: pre; opacity: 1;">2</text></g><g class="xtick"><text text-anchor="middle" x="0" y="172.4" style="font-family: 'Open Sans', verdana, arial, sans-serif; font-size: 12px; fill: rgb(0, 0, 0); fill-opacity: 1; white-space: pre; opacity: 1;" transform="translate(158.42000000000002,0)">4</text></g><g class="xtick"><text text-anchor="middle" x="0" y="172.4" style="font-family: 'Open Sans', verdana, arial, sans-serif; font-size: 12px; fill: rgb(0, 0, 0); fill-opacity: 1; white-space: pre; opacity: 1;" transform="translate(219.15,0)">6</text></g><g class="xtick"><text text-anchor="middle" x="0" y="172.4" style="font-family: 'Open Sans', verdana, arial, sans-serif; font-size: 12px; fill: rgb(0, 0, 0); fill-opacity: 1; white-space: pre; opacity: 1;" transform="translate(279.87,0)">8</text></g><g class="xtick"><text text-anchor="middle" x="0" y="172.4" style="font-family: 'Open Sans', verdana, arial, sans-serif; font-size: 12px; fill: rgb(0, 0, 0); fill-opacity: 1; white-space: pre; opacity: 1;" transform="translate(340.6,0)">10</text></g></g><g class="yaxislayer-above"><path class="ytick ticks crisp" d="M39,0h-5" transform="translate(0,146.9)" style="stroke: rgb(68, 68, 68); stroke-opacity: 1; stroke-width: 1px;"/><path class="ytick ticks crisp" d="M39,0h-5" transform="translate(0,117.16)" style="stroke: rgb(68, 68, 68); stroke-opacity: 1; stroke-width: 1px;"/><path class="ytick ticks crisp" d="M39,0h-5" transform="translate(0,87.42)" style="stroke: rgb(68, 68, 68); stroke-opacity: 1; stroke-width: 1px;"/><path class="ytick ticks crisp" d="M39,0h-5" transform="translate(0,57.68)" style="stroke: rgb(68, 68, 68); stroke-opacity: 1; stroke-width: 1px;"/><g class="ytick"><text text-anchor="end" x="31.6" y="4.199999999999999" transform="translate(0,146.9)" style="font-family: 'Open Sans', verdana, arial, sans-serif; font-size: 12px; fill: rgb(0, 0, 0); fill-opacity: 1; white-space: pre; opacity: 1;">0</text></g><g class="ytick"><text text-anchor="end" x="31.6" y="4.199999999999999" style="font-family: 'Open Sans', verdana, arial, sans-serif; font-size: 12px; fill: rgb(0, 0, 0); fill-opacity: 1; white-space: pre; opacity: 1;" transform="translate(0,117.16)">5</text></g><g class="ytick"><text text-anchor="end" x="31.6" y="4.199999999999999" style="font-family: 'Open Sans', verdana, arial, sans-serif; font-size: 12px; fill: rgb(0, 0, 0); fill-opacity: 1; white-space: pre; opacity: 1;" transform="translate(0,87.42)">10</text></g><g class="ytick"><text text-anchor="end" x="31.6" y="4.199999999999999" style="font-family: 'Open Sans', verdana, arial, sans-serif; font-size: 12px; fill: rgb(0, 0, 0); fill-opacity: 1; white-space: pre; opacity: 1;" transform="translate(0,57.68)">15</text></g></g><g class="overaxes-above"/></g><g class="subplot x2y2"><g class="layer-subplot"><g class="shapelayer"/><g class="imagelayer"/></g><g class="minor-gridlayer"><g class="x2"/><g class="y2"/></g><g class="gridlayer"><g class="x2"><path class="x2grid crisp" transform="translate(448.39,0)" d="M0,50v102" style="stroke: rgb(211, 211, 211); stroke-opacity: 1; stroke-width: 1px;"/><path class="x2grid crisp" transform="translate(509.12,0)" d="M0,50v102" style="stroke: rgb(211, 211, 211); stroke-opacity: 1; stroke-width: 1px;"/><path class="x2grid crisp" transform="translate(569.85,0)" d="M0,50v102" style="stroke: rgb(211, 211, 211); stroke-opacity: 1; stroke-width: 1px;"/><path class="x2grid crisp" transform="translate(630.5699999999999,0)" d="M0,50v102" style="stroke: rgb(211, 211, 211); stroke-opacity: 1; stroke-width: 1px;"/></g><g class="y2"><path class="y2grid crisp" transform="translate(0,111.53)" d="M390.7,0h300.5999999999999" style="stroke: rgb(211, 211, 211); stroke-opacity: 1; stroke-width: 1px;"/><path class="y2grid crisp" transform="translate(0,76.16)" d="M390.7,0h300.5999999999999" style="stroke: rgb(211, 211, 211); stroke-opacity: 1; stroke-width: 1px;"/></g></g><g class="zerolinelayer"><path class="y2zl zl crisp" transform="translate(0,146.9)" d="M390.7,0h300.5999999999999" style="stroke: rgb(235, 240, 248); stroke-opacity: 1; stroke-width: 2px;"/></g><g class="layer-between"><g class="shapelayer"/><g class="imagelayer"/></g><path class="xlines-below"/><path class="ylines-below"/><g class="overlines-below"/><g class="xaxislayer-below"/><g class="yaxislayer-below"/><g class="overaxes-below"/><g class="overplot"><g class="x2y2" transform="translate(390.7,50)" clip-path="url(#clip9ee9d0x2y2plot)"><g class="scatterlayer mlayer"><g class="trace scatter trace14832b" style="stroke-miterlimit: 2; opacity: 1;"><g class="fills"/><g class="errorbars"/><g class="lines"><path class="js-line" d="M0,96.9L45.55,96.9L48.58,5.1L51.62,96.9L54.65,96.9L106.27,96.9L109.31,77.52L112.35,96.9L115.38,96.9L118.42,80.32L121.45,96.9L124.49,96.9L127.53,82.55L130.56,96.9L133.6,96.9L142.71,96.9L145.75,85.85L148.78,96.9L151.82,96.9L154.85,87.09L157.89,87.46L160.93,96.9L163.96,96.9L179.15,96.9L182.18,89.77L185.22,96.9L188.25,96.9L300.6,96.9" style="vector-effect: none; fill: none; stroke: rgb(65, 105, 225); stroke-opacity: 1; stroke-width: 2px; opacity: 1;"/></g><g class="points"/><g class="text"/></g></g></g></g><path class="xlines-above crisp" d="M389.7,152.5H692.3M389.7,49.5H692.3" style="fill: none; stroke-width: 1px; stroke: rgb(0, 0, 0); stroke-opacity: 1;"/><path class="ylines-above crisp" d="M390.2,50V152M691.8,50V152" style="fill: none; stroke-width: 1px; stroke: rgb(0, 0, 0); stroke-opacity: 1;"/><g class="overlines-above"/><g class="xaxislayer-above"><path class="x2tick ticks crisp" d="M0,153v5" transform="translate(448.39,0)" style="stroke: rgb(68, 68, 68); stroke-opacity: 1; stroke-width: 1px;"/><path class="x2tick ticks crisp" d="M0,153v5" transform="translate(509.12,0)" style="stroke: rgb(68, 68, 68); stroke-opacity: 1; stroke-width: 1px;"/><path class="x2tick ticks crisp" d="M0,153v5" transform="translate(569.85,0)" style="stroke: rgb(68, 68, 68); stroke-opacity: 1; stroke-width: 1px;"/><path class="x2tick ticks crisp" d="M0,153v5" transform="translate(630.5699999999999,0)" style="stroke: rgb(68, 68, 68); stroke-opacity: 1; stroke-width: 1px;"/><path class="x2tick ticks crisp" d="M0,153v5" transform="translate(691.3,0)" style="stroke: rgb(68, 68, 68); stroke-opacity: 1; stroke-width: 1px;"/><g class="x2tick"><text text-anchor="middle" x="0" y="172.4" transform="translate(448.39,0)" style="font-family: 'Open Sans', verdana, arial, sans-serif; font-size: 12px; fill: rgb(0, 0, 0); fill-opacity: 1; white-space: pre; opacity: 1;">2</text></g><g class="x2tick"><text text-anchor="middle" x="0" y="172.4" style="font-family: 'Open Sans', verdana, arial, sans-serif; font-size: 12px; fill: rgb(0, 0, 0); fill-opacity: 1; white-space: pre; opacity: 1;" transform="translate(509.12,0)">4</text></g><g class="x2tick"><text text-anchor="middle" x="0" y="172.4" style="font-family: 'Open Sans', verdana, arial, sans-serif; font-size: 12px; fill: rgb(0, 0, 0); fill-opacity: 1; white-space: pre; opacity: 1;" transform="translate(569.85,0)">6</text></g><g class="x2tick"><text text-anchor="middle" x="0" y="172.4" style="font-family: 'Open Sans', verdana, arial, sans-serif; font-size: 12px; fill: rgb(0, 0, 0); fill-opacity: 1; white-space: pre; opacity: 1;" transform="translate(630.5699999999999,0)">8</text></g><g class="x2tick"><text text-anchor="middle" x="0" y="172.4" style="font-family: 'Open Sans', verdana, arial, sans-serif; font-size: 12px; fill: rgb(0, 0, 0); fill-opacity: 1; white-space: pre; opacity: 1;" transform="translate(691.3,0)">10</text></g></g><g class="yaxislayer-above"><path class="y2tick ticks crisp" d="M389.7,0h-5" transform="translate(0,146.9)" style="stroke: rgb(68, 68, 68); stroke-opacity: 1; stroke-width: 1px;"/><path class="y2tick ticks crisp" d="M389.7,0h-5" transform="translate(0,111.53)" style="stroke: rgb(68, 68, 68); stroke-opacity: 1; stroke-width: 1px;"/><path class="y2tick ticks crisp" d="M389.7,0h-5" transform="translate(0,76.16)" style="stroke: rgb(68, 68, 68); stroke-opacity: 1; stroke-width: 1px;"/><g class="y2tick"><text text-anchor="end" x="382.3" y="4.199999999999999" transform="translate(0,146.9)" style="font-family: 'Open Sans', verdana, arial, sans-serif; font-size: 12px; fill: rgb(0, 0, 0); fill-opacity: 1; white-space: pre; opacity: 1;">0</text></g><g class="y2tick"><text text-anchor="end" x="382.3" y="4.199999999999999" style="font-family: 'Open Sans', verdana, arial, sans-serif; font-size: 12px; fill: rgb(0, 0, 0); fill-opacity: 1; white-space: pre; opacity: 1;" transform="translate(0,111.53)">10</text></g><g class="y2tick"><text text-anchor="end" x="382.3" y="4.199999999999999" style="font-family: 'Open Sans', verdana, arial, sans-serif; font-size: 12px; fill: rgb(0, 0, 0); fill-opacity: 1; white-space: pre; opacity: 1;" transform="translate(0,76.16)">20</text></g></g><g class="overaxes-above"/></g><g class="subplot x3y3"><g class="layer-subplot"><g class="shapelayer"/><g class="imagelayer"/></g><g class="minor-gridlayer"><g class="x3"/><g class="y3"/></g><g class="gridlayer"><g class="x3"><path class="x3grid crisp" transform="translate(799.0899999999999,0)" d="M0,50v102" style="stroke: rgb(211, 211, 211); stroke-opacity: 1; stroke-width: 1px;"/><path class="x3grid crisp" transform="translate(859.8199999999999,0)" d="M0,50v102" style="stroke: rgb(211, 211, 211); stroke-opacity: 1; stroke-width: 1px;"/><path class="x3grid crisp" transform="translate(920.55,0)" d="M0,50v102" style="stroke: rgb(211, 211, 211); stroke-opacity: 1; stroke-width: 1px;"/><path class="x3grid crisp" transform="translate(981.27,0)" d="M0,50v102" style="stroke: rgb(211, 211, 211); stroke-opacity: 1; stroke-width: 1px;"/></g><g class="y3"><path class="y3grid crisp" transform="translate(0,115.57)" d="M741.4,0h300.6" style="stroke: rgb(211, 211, 211); stroke-opacity: 1; stroke-width: 1px;"/><path class="y3grid crisp" transform="translate(0,84.24000000000001)" d="M741.4,0h300.6" style="stroke: rgb(211, 211, 211); stroke-opacity: 1; stroke-width: 1px;"/><path class="y3grid crisp" transform="translate(0,52.91)" d="M741.4,0h300.6" style="stroke: rgb(211, 211, 211); stroke-opacity: 1; stroke-width: 1px;"/></g></g><g class="zerolinelayer"><path class="y3zl zl crisp" transform="translate(0,146.9)" d="M741.4,0h300.6" style="stroke: rgb(235, 240, 248); stroke-opacity: 1; stroke-width: 2px;"/></g><g class="layer-between"><g class="shapelayer"/><g class="imagelayer"/></g><path class="xlines-below"/><path class="ylines-below"/><g class="overlines-below"/><g class="xaxislayer-below"/><g class="yaxislayer-below"/><g class="overaxes-below"/><g class="overplot"><g class="x3y3" transform="translate(741.4,50)" clip-path="url(#clip9ee9d0x3y3plot)"><g class="scatterlayer mlayer"><g class="trace scatter trace9e7e98" style="stroke-miterlimit: 2; opacity: 1;"><g class="fills"/><g class="errorbars"/><g class="lines"><path class="js-line" d="M0,96.9L91.09,96.9L94.13,5.1L97.16,96.9L100.2,96.9L148.78,96.9L151.82,78.83L154.85,62.14L157.89,96.9L176.11,96.9L179.15,70.79L182.18,96.9L185.22,96.9L212.55,96.9L215.58,92.37L218.62,96.9L221.65,96.9L300.6,96.9" style="vector-effect: none; fill: none; stroke: rgb(65, 105, 225); stroke-opacity: 1; stroke-width: 2px; opacity: 1;"/></g><g class="points"/><g class="text"/></g></g></g></g><path class="xlines-above crisp" d="M740.4,152.5H1043M740.4,49.5H1043" style="fill: none; stroke-width: 1px; stroke: rgb(0, 0, 0); stroke-opacity: 1;"/><path class="ylines-above crisp" d="M740.9,50V152M1042.5,50V152" style="fill: none; stroke-width: 1px; stroke: rgb(0, 0, 0); stroke-opacity: 1;"/><g class="overlines-above"/><g class="xaxislayer-above"><path class="x3tick ticks crisp" d="M0,153v5" transform="translate(799.0899999999999,0)" style="stroke: rgb(68, 68, 68); stroke-opacity: 1; stroke-width: 1px;"/><path class="x3tick ticks crisp" d="M0,153v5" transform="translate(859.8199999999999,0)" style="stroke: rgb(68, 68, 68); stroke-opacity: 1; stroke-width: 1px;"/><path class="x3tick ticks crisp" d="M0,153v5" transform="translate(920.55,0)" style="stroke: rgb(68, 68, 68); stroke-opacity: 1; stroke-width: 1px;"/><path class="x3tick ticks crisp" d="M0,153v5" transform="translate(981.27,0)" style="stroke: rgb(68, 68, 68); stroke-opacity: 1; stroke-width: 1px;"/><path class="x3tick ticks crisp" d="M0,153v5" transform="translate(1042,0)" style="stroke: rgb(68, 68, 68); stroke-opacity: 1; stroke-width: 1px;"/><g class="x3tick"><text text-anchor="middle" x="0" y="172.4" transform="translate(799.0899999999999,0)" style="font-family: 'Open Sans', verdana, arial, sans-serif; font-size: 12px; fill: rgb(0, 0, 0); fill-opacity: 1; white-space: pre; opacity: 1;">2</text></g><g class="x3tick"><text text-anchor="middle" x="0" y="172.4" style="font-family: 'Open Sans', verdana, arial, sans-serif; font-size: 12px; fill: rgb(0, 0, 0); fill-opacity: 1; white-space: pre; opacity: 1;" transform="translate(859.8199999999999,0)">4</text></g><g class="x3tick"><text text-anchor="middle" x="0" y="172.4" style="font-family: 'Open Sans', verdana, arial, sans-serif; font-size: 12px; fill: rgb(0, 0, 0); fill-opacity: 1; white-space: pre; opacity: 1;" transform="translate(920.55,0)">6</text></g><g class="x3tick"><text text-anchor="middle" x="0" y="172.4" style="font-family: 'Open Sans', verdana, arial, sans-serif; font-size: 12px; fill: rgb(0, 0, 0); fill-opacity: 1; white-space: pre; opacity: 1;" transform="translate(981.27,0)">8</text></g><g class="x3tick"><text text-anchor="middle" x="0" y="172.4" style="font-family: 'Open Sans', verdana, arial, sans-serif; font-size: 12px; fill: rgb(0, 0, 0); fill-opacity: 1; white-space: pre; opacity: 1;" transform="translate(1042,0)">10</text></g></g><g class="yaxislayer-above"><path class="y3tick ticks crisp" d="M740.4,0h-5" transform="translate(0,146.9)" style="stroke: rgb(68, 68, 68); stroke-opacity: 1; stroke-width: 1px;"/><path class="y3tick ticks crisp" d="M740.4,0h-5" transform="translate(0,115.57)" style="stroke: rgb(68, 68, 68); stroke-opacity: 1; stroke-width: 1px;"/><path class="y3tick ticks crisp" d="M740.4,0h-5" transform="translate(0,84.24000000000001)" style="stroke: rgb(68, 68, 68); stroke-opacity: 1; stroke-width: 1px;"/><path class="y3tick ticks crisp" d="M740.4,0h-5" transform="translate(0,52.91)" style="stroke: rgb(68, 68, 68); stroke-opacity: 1; stroke-width: 1px;"/><g class="y3tick"><text text-anchor="end" x="733" y="4.199999999999999" transform="translate(0,146.9)" style="font-family: 'Open Sans', verdana, arial, sans-serif; font-size: 12px; fill: rgb(0, 0, 0); fill-opacity: 1; white-space: pre; opacity: 1;">0</text></g><g class="y3tick"><text text-anchor="end" x="733" y="4.199999999999999" style="font-family: 'Open Sans', verdana, arial, sans-serif; font-size: 12px; fill: rgb(0, 0, 0); fill-opacity: 1; white-space: pre; opacity: 1;" transform="translate(0,115.57)">5</text></g><g class="y3tick"><text text-anchor="end" x="733" y="4.199999999999999" style="font-family: 'Open Sans', verdana, arial, sans-serif; font-size: 12px; fill: rgb(0, 0, 0); fill-opacity: 1; white-space: pre; opacity: 1;" transform="translate(0,84.24000000000001)">10</text></g><g class="y3tick"><text text-anchor="end" x="733" y="4.199999999999999" style="font-family: 'Open Sans', verdana, arial, sans-serif; font-size: 12px; fill: rgb(0, 0, 0); fill-opacity: 1; white-space: pre; opacity: 1;" transform="translate(0,52.91)">15</text></g></g><g class="overaxes-above"/></g></g><g class="polarlayer"/><g class="smithlayer"/><g class="ternarylayer"/><g class="geolayer"/><g class="funnelarealayer"/><g class="pielayer"/><g class="iciclelayer"/><g class="treemaplayer"/><g class="sunburstlayer"/><g class="glimages"/><defs id="topdefs-9ee9d0"><g class="clips"/></defs><g class="layer-above"><g class="imagelayer"/><g class="shapelayer"/></g><g class="infolayer"><g class="g-gtitle"><text class="gtitle" x="525" y="4" text-anchor="middle" dy="0.7em" style="opacity: 1; font-family: 'Open Sans', verdana, arial, sans-serif; font-size: 17px; fill: rgb(0, 0, 0); fill-opacity: 1; white-space: pre;">Pairwise RDFs - Si16 O32</text></g><g class="g-xtitle" transform="translate(0,-2.2062500000000114)"><text class="xtitle" x="190.29999999999998" y="199.20625" text-anchor="middle" style="opacity: 1; font-family: 'Open Sans', verdana, arial, sans-serif; font-size: 14px; fill: rgb(0, 0, 0); fill-opacity: 1; white-space: pre;">r (Å)</text></g><g class="g-x2title" transform="translate(0,-2.2062500000000114)"><text class="x2title" x="541" y="199.20625" text-anchor="middle" style="opacity: 1; font-family: 'Open Sans', verdana, arial, sans-serif; font-size: 14px; fill: rgb(0, 0, 0); fill-opacity: 1; white-space: pre;">r (Å)</text></g><g class="g-x3title" transform="translate(0,-2.2062500000000114)"><text class="x3title" x="891.7" y="199.20625" text-anchor="middle" style="opacity: 1; font-family: 'Open Sans', verdana, arial, sans-serif; font-size: 14px; fill: rgb(0, 0, 0); fill-opacity: 1; white-space: pre;">r (Å)</text></g><g class="g-ytitle" transform="translate(2.171875,0)"><text class="ytitle" transform="rotate(-90,11.828125,101)" x="11.828125" y="101" text-anchor="middle" style="opacity: 1; font-family: 'Open Sans', verdana, arial, sans-serif; font-size: 14px; fill: rgb(0, 0, 0); fill-opacity: 1; white-space: pre;">g(r)</text></g><g class="g-y2title"/><g class="g-y3title"/><g class="annotation" data-index="0" style="opacity: 1;"><g class="annotation-text-g" transform="rotate(0,190.29999999999998,38)"><g class="cursor-pointer" transform="translate(172,26)"><rect class="bg" x="0.5" y="0.5" width="35" height="23" style="stroke-width: 1px; stroke: rgb(0, 0, 0); stroke-opacity: 0; fill: rgb(0, 0, 0); fill-opacity: 0;"/><text class="annotation-text" text-anchor="middle" x="18.234375" y="18" style="font-family: 'Open Sans', verdana, arial, sans-serif; font-size: 16px; fill: rgb(0, 0, 0); fill-opacity: 1; white-space: pre;">O-O</text></g></g></g><g class="annotation" data-index="1" style="opacity: 1;"><g class="annotation-text-g" transform="rotate(0,541,38)"><g class="cursor-pointer" transform="translate(522,26)"><rect class="bg" x="0.5" y="0.5" width="38" height="23" style="stroke-width: 1px; stroke: rgb(0, 0, 0); stroke-opacity: 0; fill: rgb(0, 0, 0); fill-opacity: 0;"/><text class="annotation-text" text-anchor="middle" x="19.59375" y="18" style="font-family: 'Open Sans', verdana, arial, sans-serif; font-size: 16px; fill: rgb(0, 0, 0); fill-opacity: 1; white-space: pre;">O-Si</text></g></g></g><g class="annotation" data-index="2" style="opacity: 1;"><g class="annotation-text-g" transform="rotate(0,891.6999999999999,38)"><g class="cursor-pointer" transform="translate(871,26)"><rect class="bg" x="0.5" y="0.5" width="41" height="23" style="stroke-width: 1px; stroke: rgb(0, 0, 0); stroke-opacity: 0; fill: rgb(0, 0, 0); fill-opacity: 0;"/><text class="annotation-text" text-anchor="middle" x="20.96875" y="18" style="font-family: 'Open Sans', verdana, arial, sans-serif; font-size: 16px; fill: rgb(0, 0, 0); fill-opacity: 1; white-space: pre;">Si-Si</text></g></g></g></g></svg>
