<svg xmlns="http://www.w3.org/2000/svg" width="700" height="500" class="main-svg"><path d="M0 0h700v500H0z" style="fill:#fff;fill-opacity:1"/><defs><clipPath id="a" class="plotclip"><path d="M0 0h235.225v392H0z"/></clipPath><clipPath id="b" class="plotclip"><path d="M0 0h235.225v392H0z"/></clipPath></defs><g class="cartesianlayer"><g class="subplot xy"><g class="gridlayer"><g class="x"><path d="M0 50v392" class="xgrid crisp" style="stroke:#d3d3d3;stroke-opacity:1;stroke-width:1px" transform="translate(87.4)"/><path d="M0 50v392" class="xgrid crisp" style="stroke:#d3d3d3;stroke-opacity:1;stroke-width:1px" transform="translate(146.21)"/><path d="M0 50v392" class="xgrid crisp" style="stroke:#d3d3d3;stroke-opacity:1;stroke-width:1px" transform="translate(205.02)"/><path d="M0 50v392" class="xgrid crisp" style="stroke:#d3d3d3;stroke-opacity:1;stroke-width:1px" transform="translate(263.82)"/></g><g class="y"><path d="M58 0h235.225" class="ygrid crisp" style="stroke:#d3d3d3;stroke-opacity:1;stroke-width:1px" transform="translate(0 402.4)"/><path d="M58 0h235.225" class="ygrid crisp" style="stroke:#d3d3d3;stroke-opacity:1;stroke-width:1px" transform="translate(0 362.81)"/><path d="M58 0h235.225" class="ygrid crisp" style="stroke:#d3d3d3;stroke-opacity:1;stroke-width:1px" transform="translate(0 323.21)"/><path d="M58 0h235.225" class="ygrid crisp" style="stroke:#d3d3d3;stroke-opacity:1;stroke-width:1px" transform="translate(0 283.62)"/><path d="M58 0h235.225" class="ygrid crisp" style="stroke:#d3d3d3;stroke-opacity:1;stroke-width:1px" transform="translate(0 244.02)"/><path d="M58 0h235.225" class="ygrid crisp" style="stroke:#d3d3d3;stroke-opacity:1;stroke-width:1px" transform="translate(0 204.42)"/><path d="M58 0h235.225" class="ygrid crisp" style="stroke:#d3d3d3;stroke-opacity:1;stroke-width:1px" transform="translate(0 164.83)"/><path d="M58 0h235.225" class="ygrid crisp" style="stroke:#d3d3d3;stroke-opacity:1;stroke-width:1px" transform="translate(0 125.23)"/><path d="M58 0h235.225" class="ygrid crisp" style="stroke:#d3d3d3;stroke-opacity:1;stroke-width:1px" transform="translate(0 85.64)"/></g></g><g class="zerolinelayer"><path d="M58 0h235.225" class="yzl zl crisp" style="stroke:#ebf0f8;stroke-opacity:1;stroke-width:2px" transform="translate(0 442)"/></g><g class="overplot"><g class="xy" clip-path="url(#a)" transform="translate(58 50)"><g class="barlayer mlayer"><g class="trace bars" shape-rendering="crispEdges" style="opacity:1"><g class="points"><g class="point"><path d="M5.88 392V273.21h47.05V392Z" style="vector-effect:none;opacity:1;stroke-width:.5px;fill:#006985;fill-opacity:1;stroke:#fff;stroke-opacity:1"/><text class="bartext bartext-inside" data-notex="1" style="font-family:&quot;Open Sans&quot;,verdana,arial,sans-serif;font-size:12px;fill:#fff;fill-opacity:1;white-space:pre" text-anchor="middle" transform="translate(29.405 288.21)">6</text></g><g class="point"><path d="M64.69 392V35.64h47.04V392Z" style="vector-effect:none;opacity:1;stroke-width:.5px;fill:#006985;fill-opacity:1;stroke:#fff;stroke-opacity:1"/><text class="bartext bartext-inside" data-notex="1" style="font-family:&quot;Open Sans&quot;,verdana,arial,sans-serif;font-size:12px;fill:#fff;fill-opacity:1;white-space:pre" text-anchor="middle" transform="translate(88.21 50.64)">18</text></g><path d="M123.49 392h47.05Zm58.81 0h47.04Zm58.81 0h47.04Z" class="point" style="vector-effect:none;opacity:1;stroke-width:.5px;fill:#006985;fill-opacity:1;stroke:#fff;stroke-opacity:1"/></g></g></g></g></g><path d="M57 442.5h237.225M57 49.5h237.225" class="xlines-above crisp" style="fill:none;stroke-width:1px;stroke:#000;stroke-opacity:1"/><path d="M57.5 50v392M293.725 50v392" class="ylines-above crisp" style="fill:none;stroke-width:1px;stroke:#000;stroke-opacity:1"/><g class="xaxislayer-above"><path d="M0 443v5" class="xtick ticks crisp" style="stroke:#444;stroke-opacity:1;stroke-width:1px" transform="translate(87.4)"/><path d="M0 443v5" class="xtick ticks crisp" style="stroke:#444;stroke-opacity:1;stroke-width:1px" transform="translate(146.21)"/><path d="M0 443v5" class="xtick ticks crisp" style="stroke:#444;stroke-opacity:1;stroke-width:1px" transform="translate(205.02)"/><path d="M0 443v5" class="xtick ticks crisp" style="stroke:#444;stroke-opacity:1;stroke-width:1px" transform="translate(263.82)"/><text y="462.4" class="xtick" style="font-family:&quot;Open Sans&quot;,verdana,arial,sans-serif;font-size:12px;fill:#000;fill-opacity:1;white-space:pre;opacity:1" text-anchor="middle" transform="translate(87.4)">6</text><text y="462.4" class="xtick" style="font-family:&quot;Open Sans&quot;,verdana,arial,sans-serif;font-size:12px;fill:#000;fill-opacity:1;white-space:pre;opacity:1" text-anchor="middle" transform="translate(146.21)">7</text><text y="462.4" class="xtick" style="font-family:&quot;Open Sans&quot;,verdana,arial,sans-serif;font-size:12px;fill:#000;fill-opacity:1;white-space:pre;opacity:1" text-anchor="middle" transform="translate(205.02)">8</text><text y="462.4" class="xtick" style="font-family:&quot;Open Sans&quot;,verdana,arial,sans-serif;font-size:12px;fill:#000;fill-opacity:1;white-space:pre;opacity:1" text-anchor="middle" transform="translate(263.82)">9</text></g><g class="yaxislayer-above"><path d="M57 0h-5" class="ytick ticks crisp" style="stroke:#444;stroke-opacity:1;stroke-width:1px" transform="translate(0 442)"/><path d="M57 0h-5" class="ytick ticks crisp" style="stroke:#444;stroke-opacity:1;stroke-width:1px" transform="translate(0 402.4)"/><path d="M57 0h-5" class="ytick ticks crisp" style="stroke:#444;stroke-opacity:1;stroke-width:1px" transform="translate(0 362.81)"/><path d="M57 0h-5" class="ytick ticks crisp" style="stroke:#444;stroke-opacity:1;stroke-width:1px" transform="translate(0 323.21)"/><path d="M57 0h-5" class="ytick ticks crisp" style="stroke:#444;stroke-opacity:1;stroke-width:1px" transform="translate(0 283.62)"/><path d="M57 0h-5" class="ytick ticks crisp" style="stroke:#444;stroke-opacity:1;stroke-width:1px" transform="translate(0 244.02)"/><path d="M57 0h-5" class="ytick ticks crisp" style="stroke:#444;stroke-opacity:1;stroke-width:1px" transform="translate(0 204.42)"/><path d="M57 0h-5" class="ytick ticks crisp" style="stroke:#444;stroke-opacity:1;stroke-width:1px" transform="translate(0 164.83)"/><path d="M57 0h-5" class="ytick ticks crisp" style="stroke:#444;stroke-opacity:1;stroke-width:1px" transform="translate(0 125.23)"/><path d="M57 0h-5" class="ytick ticks crisp" style="stroke:#444;stroke-opacity:1;stroke-width:1px" transform="translate(0 85.64)"/><text x="49.6" y="4.2" class="ytick" style="font-family:&quot;Open Sans&quot;,verdana,arial,sans-serif;font-size:12px;fill:#000;fill-opacity:1;white-space:pre;opacity:1" text-anchor="end" transform="translate(0 442)">0</text><text x="49.6" y="4.2" class="ytick" style="font-family:&quot;Open Sans&quot;,verdana,arial,sans-serif;font-size:12px;fill:#000;fill-opacity:1;white-space:pre;opacity:1" text-anchor="end" transform="translate(0 402.4)">2</text><text x="49.6" y="4.2" class="ytick" style="font-family:&quot;Open Sans&quot;,verdana,arial,sans-serif;font-size:12px;fill:#000;fill-opacity:1;white-space:pre;opacity:1" text-anchor="end" transform="translate(0 362.81)">4</text><text x="49.6" y="4.2" class="ytick" style="font-family:&quot;Open Sans&quot;,verdana,arial,sans-serif;font-size:12px;fill:#000;fill-opacity:1;white-space:pre;opacity:1" text-anchor="end" transform="translate(0 323.21)">6</text><text x="49.6" y="4.2" class="ytick" style="font-family:&quot;Open Sans&quot;,verdana,arial,sans-serif;font-size:12px;fill:#000;fill-opacity:1;white-space:pre;opacity:1" text-anchor="end" transform="translate(0 283.62)">8</text><text x="49.6" y="4.2" class="ytick" style="font-family:&quot;Open Sans&quot;,verdana,arial,sans-serif;font-size:12px;fill:#000;fill-opacity:1;white-space:pre;opacity:1" text-anchor="end" transform="translate(0 244.02)">10</text><text x="49.6" y="4.2" class="ytick" style="font-family:&quot;Open Sans&quot;,verdana,arial,sans-serif;font-size:12px;fill:#000;fill-opacity:1;white-space:pre;opacity:1" text-anchor="end" transform="translate(0 204.42)">12</text><text x="49.6" y="4.2" class="ytick" style="font-family:&quot;Open Sans&quot;,verdana,arial,sans-serif;font-size:12px;fill:#000;fill-opacity:1;white-space:pre;opacity:1" text-anchor="end" transform="translate(0 164.83)">14</text><text x="49.6" y="4.2" class="ytick" style="font-family:&quot;Open Sans&quot;,verdana,arial,sans-serif;font-size:12px;fill:#000;fill-opacity:1;white-space:pre;opacity:1" text-anchor="end" transform="translate(0 125.23)">16</text><text x="49.6" y="4.2" class="ytick" style="font-family:&quot;Open Sans&quot;,verdana,arial,sans-serif;font-size:12px;fill:#000;fill-opacity:1;white-space:pre;opacity:1" text-anchor="end" transform="translate(0 85.64)">18</text></g></g><g class="subplot x2y2"><g class="gridlayer"><g class="x2"><path d="M0 50v392" class="x2grid crisp" style="stroke:#d3d3d3;stroke-opacity:1;stroke-width:1px" transform="translate(337.175)"/><path d="M0 50v392" class="x2grid crisp" style="stroke:#d3d3d3;stroke-opacity:1;stroke-width:1px" transform="translate(395.985)"/><path d="M0 50v392" class="x2grid crisp" style="stroke:#d3d3d3;stroke-opacity:1;stroke-width:1px" transform="translate(454.795)"/><path d="M0 50v392" class="x2grid crisp" style="stroke:#d3d3d3;stroke-opacity:1;stroke-width:1px" transform="translate(513.595)"/></g><g class="y2"><path d="M307.775 0H543" class="y2grid crisp" style="stroke:#d3d3d3;stroke-opacity:1;stroke-width:1px" transform="translate(0 402.4)"/><path d="M307.775 0H543" class="y2grid crisp" style="stroke:#d3d3d3;stroke-opacity:1;stroke-width:1px" transform="translate(0 362.81)"/><path d="M307.775 0H543" class="y2grid crisp" style="stroke:#d3d3d3;stroke-opacity:1;stroke-width:1px" transform="translate(0 323.21)"/><path d="M307.775 0H543" class="y2grid crisp" style="stroke:#d3d3d3;stroke-opacity:1;stroke-width:1px" transform="translate(0 283.62)"/><path d="M307.775 0H543" class="y2grid crisp" style="stroke:#d3d3d3;stroke-opacity:1;stroke-width:1px" transform="translate(0 244.02)"/><path d="M307.775 0H543" class="y2grid crisp" style="stroke:#d3d3d3;stroke-opacity:1;stroke-width:1px" transform="translate(0 204.42)"/><path d="M307.775 0H543" class="y2grid crisp" style="stroke:#d3d3d3;stroke-opacity:1;stroke-width:1px" transform="translate(0 164.83)"/><path d="M307.775 0H543" class="y2grid crisp" style="stroke:#d3d3d3;stroke-opacity:1;stroke-width:1px" transform="translate(0 125.23)"/><path d="M307.775 0H543" class="y2grid crisp" style="stroke:#d3d3d3;stroke-opacity:1;stroke-width:1px" transform="translate(0 85.64)"/></g></g><g class="zerolinelayer"><path d="M307.775 0H543" class="y2zl zl crisp" style="stroke:#ebf0f8;stroke-opacity:1;stroke-width:2px" transform="translate(0 442)"/></g><g class="overplot"><g class="x2y2" clip-path="url(#b)" transform="translate(307.775 50)"><g class="barlayer mlayer"><g class="trace bars" shape-rendering="crispEdges" style="opacity:1"><g class="points"><path d="M5.88 392h47.05Zm58.81 0h47.04Zm58.8 0h47.05Z" class="point" style="vector-effect:none;opacity:1;stroke-width:.5px;fill:#94e0e0;fill-opacity:1;stroke:#fff;stroke-opacity:1"/><g class="point"><path d="M182.3 392V35.64h47.04V392Z" style="vector-effect:none;opacity:1;stroke-width:.5px;fill:#94e0e0;fill-opacity:1;stroke:#fff;stroke-opacity:1"/><text class="bartext bartext-inside" data-notex="1" style="font-family:&quot;Open Sans&quot;,verdana,arial,sans-serif;font-size:12px;fill:#444;fill-opacity:1;white-space:pre" text-anchor="middle" transform="translate(205.82 50.64)">18</text></g><path d="M241.11 392h47.04Z" class="point" style="vector-effect:none;opacity:1;stroke-width:.5px;fill:#94e0e0;fill-opacity:1;stroke:#fff;stroke-opacity:1"/></g></g></g></g></g><path d="M306.775 442.5H544m-237.225-393H544" class="xlines-above crisp" style="fill:none;stroke-width:1px;stroke:#000;stroke-opacity:1"/><path d="M307.275 50v392M543.5 50v392" class="ylines-above crisp" style="fill:none;stroke-width:1px;stroke:#000;stroke-opacity:1"/><g class="xaxislayer-above"><path d="M0 443v5" class="x2tick ticks crisp" style="stroke:#444;stroke-opacity:1;stroke-width:1px" transform="translate(337.175)"/><path d="M0 443v5" class="x2tick ticks crisp" style="stroke:#444;stroke-opacity:1;stroke-width:1px" transform="translate(395.985)"/><path d="M0 443v5" class="x2tick ticks crisp" style="stroke:#444;stroke-opacity:1;stroke-width:1px" transform="translate(454.795)"/><path d="M0 443v5" class="x2tick ticks crisp" style="stroke:#444;stroke-opacity:1;stroke-width:1px" transform="translate(513.595)"/><text y="462.4" class="x2tick" style="font-family:&quot;Open Sans&quot;,verdana,arial,sans-serif;font-size:12px;fill:#000;fill-opacity:1;white-space:pre;opacity:1" text-anchor="middle" transform="translate(337.175)">6</text><text y="462.4" class="x2tick" style="font-family:&quot;Open Sans&quot;,verdana,arial,sans-serif;font-size:12px;fill:#000;fill-opacity:1;white-space:pre;opacity:1" text-anchor="middle" transform="translate(395.985)">7</text><text y="462.4" class="x2tick" style="font-family:&quot;Open Sans&quot;,verdana,arial,sans-serif;font-size:12px;fill:#000;fill-opacity:1;white-space:pre;opacity:1" text-anchor="middle" transform="translate(454.795)">8</text><text y="462.4" class="x2tick" style="font-family:&quot;Open Sans&quot;,verdana,arial,sans-serif;font-size:12px;fill:#000;fill-opacity:1;white-space:pre;opacity:1" text-anchor="middle" transform="translate(513.595)">9</text></g><g class="yaxislayer-above"><path d="M306.775 0h-5" class="y2tick ticks crisp" style="stroke:#444;stroke-opacity:1;stroke-width:1px" transform="translate(0 442)"/><path d="M306.775 0h-5" class="y2tick ticks crisp" style="stroke:#444;stroke-opacity:1;stroke-width:1px" transform="translate(0 402.4)"/><path d="M306.775 0h-5" class="y2tick ticks crisp" style="stroke:#444;stroke-opacity:1;stroke-width:1px" transform="translate(0 362.81)"/><path d="M306.775 0h-5" class="y2tick ticks crisp" style="stroke:#444;stroke-opacity:1;stroke-width:1px" transform="translate(0 323.21)"/><path d="M306.775 0h-5" class="y2tick ticks crisp" style="stroke:#444;stroke-opacity:1;stroke-width:1px" transform="translate(0 283.62)"/><path d="M306.775 0h-5" class="y2tick ticks crisp" style="stroke:#444;stroke-opacity:1;stroke-width:1px" transform="translate(0 244.02)"/><path d="M306.775 0h-5" class="y2tick ticks crisp" style="stroke:#444;stroke-opacity:1;stroke-width:1px" transform="translate(0 204.42)"/><path d="M306.775 0h-5" class="y2tick ticks crisp" style="stroke:#444;stroke-opacity:1;stroke-width:1px" transform="translate(0 164.83)"/><path d="M306.775 0h-5" class="y2tick ticks crisp" style="stroke:#444;stroke-opacity:1;stroke-width:1px" transform="translate(0 125.23)"/><path d="M306.775 0h-5" class="y2tick ticks crisp" style="stroke:#444;stroke-opacity:1;stroke-width:1px" transform="translate(0 85.64)"/></g></g></g><defs><clipPath id="c"><path d="M0 0h137v68H0z"/></clipPath></defs><g class="infolayer"><g class="legend" pointer-events="all"><path d="M0 0h137v68H0z" class="bg" shape-rendering="crispEdges" style="stroke:#444;stroke-opacity:1;fill:#fff;fill-opacity:1;stroke-width:0" transform="translate(552.7 50)"/><g class="scrollbox" clip-path="url(#c)" transform="translate(552.7 50)"><g class="groups"><g class="traces" style="opacity:1"><text x="5" y="5.07" class="legendtext" style="font-family:&quot;Open Sans&quot;,verdana,arial,sans-serif;font-size:13px;fill:#000;fill-opacity:1;white-space:pre" transform="translate(0 14.95)">Zr18 Pd24</text><path fill="none" d="M0-9.95h131.391v19.9H0z" class="legendtoggle" style="fill:#000;fill-opacity:0" transform="translate(0 14.95)"/></g><g class="traces" style="opacity:1"><text x="40" y="4.68" class="legendtext" style="font-family:&quot;Open Sans&quot;,verdana,arial,sans-serif;font-size:12px;fill:#000;fill-opacity:1;white-space:pre" transform="translate(0 34.4)">Zr18 Pd24 - Zr</text><g class="layers" style="opacity:1"><g class="legendsymbols"><g class="legendpoints"><path d="M6 6H-6V-6H6Z" class="legendundefined" style="stroke-width:.5px;fill:#94e0e0;fill-opacity:1;stroke:#fff;stroke-opacity:1" transform="translate(20 34.4)"/></g></g></g><path fill="none" d="M0-9.5h131.391v19H0z" class="legendtoggle" style="fill:#000;fill-opacity:0" transform="translate(0 34.4)"/></g><g class="traces" style="opacity:1"><text x="40" y="4.68" class="legendtext" style="font-family:&quot;Open Sans&quot;,verdana,arial,sans-serif;font-size:12px;fill:#000;fill-opacity:1;white-space:pre" transform="translate(0 53.4)">Zr18 Pd24 - Pd</text><g class="layers" style="opacity:1"><g class="legendsymbols"><g class="legendpoints"><path d="M6 6H-6V-6H6Z" class="legendundefined" style="stroke-width:.5px;fill:#006985;fill-opacity:1;stroke:#fff;stroke-opacity:1" transform="translate(20 53.4)"/></g></g></g><path fill="none" d="M0-9.5h131.391v19H0z" class="legendtoggle" style="fill:#000;fill-opacity:0" transform="translate(0 53.4)"/></g></g></g></g><g class="g-gtitle"><text x="350" y="10" class="gtitle" dy=".7em" style="opacity:1;font-family:&quot;Open Sans&quot;,verdana,arial,sans-serif;font-size:17px;fill:#000;fill-opacity:1;white-space:pre" text-anchor="middle">Coordination Histogram: Zr18 Pd24 (148)</text></g><g class="g-xtitle"><text x="175.613" y="489.206" class="xtitle" style="opacity:1;font-family:&quot;Open Sans&quot;,verdana,arial,sans-serif;font-size:14px;fill:#000;fill-opacity:1;white-space:pre" text-anchor="middle">Coordination Number</text></g><g class="g-x2title"><text x="425.387" y="489.206" class="x2title" style="opacity:1;font-family:&quot;Open Sans&quot;,verdana,arial,sans-serif;font-size:14px;fill:#000;fill-opacity:1;white-space:pre" text-anchor="middle">Coordination Number</text></g><g class="g-ytitle"><text x="14.928" y="246" class="ytitle" style="opacity:1;font-family:&quot;Open Sans&quot;,verdana,arial,sans-serif;font-size:14px;fill:#000;fill-opacity:1;white-space:pre" text-anchor="middle" transform="rotate(-90 14.928 246)">Count</text></g><g class="g-y2title"><text x="282.375" y="246" class="y2title" style="opacity:1;font-family:&quot;Open Sans&quot;,verdana,arial,sans-serif;font-size:14px;fill:#000;fill-opacity:1;white-space:pre" text-anchor="middle" transform="rotate(-90 282.375 246)">Count</text></g><g class="annotation" data-index="0" style="opacity:1"><g class="annotation-text-g"><g class="cursor-pointer"><path fill="none" d="M.5.5h23v23H.5z" class="bg" style="stroke-width:1px;stroke:#000;stroke-opacity:0;fill:#000;fill-opacity:0" transform="translate(164 26)"/><text x="11.813" y="18" class="annotation-text" style="font-family:&quot;Open Sans&quot;,verdana,arial,sans-serif;font-size:16px;fill:#000;fill-opacity:1;white-space:pre" text-anchor="middle" transform="translate(164 26)">Pd</text></g></g></g><g class="annotation" data-index="1" style="opacity:1"><g class="annotation-text-g"><g class="cursor-pointer"><path fill="none" d="M.5.5h21v23H.5z" class="bg" style="stroke-width:1px;stroke:#000;stroke-opacity:0;fill:#000;fill-opacity:0" transform="translate(414 26)"/><text x="10.906" y="18" class="annotation-text" style="font-family:&quot;Open Sans&quot;,verdana,arial,sans-serif;font-size:16px;fill:#000;fill-opacity:1;white-space:pre" text-anchor="middle" transform="translate(414 26)">Zr</text></g></g></g></g></svg>
