<svg xmlns="http://www.w3.org/2000/svg" width="700" height="500" class="main-svg"><path d="M0 0h700v500H0z" style="fill:#fff;fill-opacity:1"/><defs><clipPath id="a" class="plotclip"><path d="M0 0h428v382H0z"/></clipPath></defs><g class="cartesianlayer"><g class="subplot xy"><g class="gridlayer"><g class="x"><path d="M0 60v382" class="xgrid crisp" style="stroke:#d3d3d3;stroke-opacity:1;stroke-width:1px" transform="translate(79.4)"/><path d="M0 60v382" class="xgrid crisp" style="stroke:#d3d3d3;stroke-opacity:1;stroke-width:1px" transform="translate(122.2)"/><path d="M0 60v382" class="xgrid crisp" style="stroke:#d3d3d3;stroke-opacity:1;stroke-width:1px" transform="translate(165)"/><path d="M0 60v382" class="xgrid crisp" style="stroke:#d3d3d3;stroke-opacity:1;stroke-width:1px" transform="translate(207.8)"/><path d="M0 60v382" class="xgrid crisp" style="stroke:#d3d3d3;stroke-opacity:1;stroke-width:1px" transform="translate(250.6)"/><path d="M0 60v382" class="xgrid crisp" style="stroke:#d3d3d3;stroke-opacity:1;stroke-width:1px" transform="translate(293.4)"/><path d="M0 60v382" class="xgrid crisp" style="stroke:#d3d3d3;stroke-opacity:1;stroke-width:1px" transform="translate(336.2)"/><path d="M0 60v382" class="xgrid crisp" style="stroke:#d3d3d3;stroke-opacity:1;stroke-width:1px" transform="translate(379)"/><path d="M0 60v382" class="xgrid crisp" style="stroke:#d3d3d3;stroke-opacity:1;stroke-width:1px" transform="translate(421.8)"/><path d="M0 60v382" class="xgrid crisp" style="stroke:#d3d3d3;stroke-opacity:1;stroke-width:1px" transform="translate(464.6)"/></g><g class="y"><path d="M58 0h428" class="ygrid crisp" style="stroke:#d3d3d3;stroke-opacity:1;stroke-width:1px" transform="translate(0 379.99)"/><path d="M58 0h428" class="ygrid crisp" style="stroke:#d3d3d3;stroke-opacity:1;stroke-width:1px" transform="translate(0 317.97)"/><path d="M58 0h428" class="ygrid crisp" style="stroke:#d3d3d3;stroke-opacity:1;stroke-width:1px" transform="translate(0 255.96)"/><path d="M58 0h428" class="ygrid crisp" style="stroke:#d3d3d3;stroke-opacity:1;stroke-width:1px" transform="translate(0 193.95)"/><path d="M58 0h428" class="ygrid crisp" style="stroke:#d3d3d3;stroke-opacity:1;stroke-width:1px" transform="translate(0 131.94)"/><path d="M58 0h428" class="ygrid crisp" style="stroke:#d3d3d3;stroke-opacity:1;stroke-width:1px" transform="translate(0 69.92)"/></g></g><g class="zerolinelayer"><path d="M58 0h428" class="yzl zl crisp" style="stroke:#ebf0f8;stroke-opacity:1;stroke-width:2px" transform="translate(0 442)"/></g><g class="overplot"><g class="xy" clip-path="url(#a)" transform="translate(58 60)"><g class="barlayer mlayer" shape-rendering="crispEdges"><g class="trace bars" style="opacity:1"><g class="points"><path d="M4.28 382h34.24Zm42.8 0h34.24Zm42.8 0h34.24Zm42.8 0h34.24Zm42.8 0h34.24Zm42.8 0h34.24Zm42.8 0h34.24Zm42.8 0h34.24Z" class="point" style="vector-effect:none;opacity:1;stroke-width:.5px;fill:#94e0e0;fill-opacity:1;stroke:#fff;stroke-opacity:1"/><g class="point"><path d="M346.68 382V158.75h34.24V382Z" style="vector-effect:none;opacity:1;stroke-width:.5px;fill:#94e0e0;fill-opacity:1;stroke:#fff;stroke-opacity:1"/><text class="bartext bartext-inside" data-notex="1" style="font-family:&quot;Open Sans&quot;,verdana,arial,sans-serif;font-size:12px;fill:#444;fill-opacity:1;white-space:pre" text-anchor="middle" transform="translate(363.8 173.75)">18</text></g><path d="M389.48 382h34.24Zm42.8 0h34.24Z" class="point" style="vector-effect:none;opacity:1;stroke-width:.5px;fill:#94e0e0;fill-opacity:1;stroke:#fff;stroke-opacity:1"/></g></g><g class="trace bars" style="opacity:1"><g class="points"><path d="M4.28 382h34.24Zm42.8 0h34.24Zm42.8 0h34.24Zm42.8 0h34.24Zm42.8 0h34.24Z" class="point" style="vector-effect:none;opacity:1;stroke-width:.5px;fill:#006985;fill-opacity:1;stroke:#fff;stroke-opacity:1"/><g class="point"><path d="M218.28 382v-74.42h34.24V382Z" style="vector-effect:none;opacity:1;stroke-width:.5px;fill:#006985;fill-opacity:1;stroke:#fff;stroke-opacity:1"/><text class="bartext bartext-inside" data-notex="1" style="font-family:&quot;Open Sans&quot;,verdana,arial,sans-serif;font-size:12px;fill:#fff;fill-opacity:1;white-space:pre" text-anchor="middle" transform="translate(235.4 322.58)">6</text></g><g class="point"><path d="M261.08 382V158.75h34.24V382Z" style="vector-effect:none;opacity:1;stroke-width:.5px;fill:#006985;fill-opacity:1;stroke:#fff;stroke-opacity:1"/><text class="bartext bartext-inside" data-notex="1" style="font-family:&quot;Open Sans&quot;,verdana,arial,sans-serif;font-size:12px;fill:#fff;fill-opacity:1;white-space:pre" text-anchor="middle" transform="translate(278.2 173.75)">18</text></g><path d="M303.88 382h34.24Zm42.8-223.25h34.24ZM389.48 382h34.24Zm42.8 0h34.24Z" class="point" style="vector-effect:none;opacity:1;stroke-width:.5px;fill:#006985;fill-opacity:1;stroke:#fff;stroke-opacity:1"/></g></g><g class="trace bars" style="opacity:1"><g class="points"><path d="M4.28 382h34.24Zm42.8 0h34.24Zm42.8 0h34.24Zm42.8 0h34.24Zm42.8 0h34.24Z" class="point" style="vector-effect:none;opacity:1;stroke-width:.5px;fill:#0101ff;fill-opacity:1;stroke:#fff;stroke-opacity:1"/><g class="point"><path d="M218.28 307.58v-49.61h34.24v49.61Z" style="vector-effect:none;opacity:1;stroke-width:.5px;fill:#0101ff;fill-opacity:1;stroke:#fff;stroke-opacity:1"/><text class="bartext bartext-inside" data-notex="1" style="font-family:&quot;Open Sans&quot;,verdana,arial,sans-serif;font-size:12px;fill:#fff;fill-opacity:1;white-space:pre" text-anchor="middle" transform="translate(235.4 272.97)">4</text></g><path d="M261.08 158.75h34.24ZM303.88 382h34.24Zm42.8-223.25h34.24ZM389.48 382h34.24Zm42.8 0h34.24Z" class="point" style="vector-effect:none;opacity:1;stroke-width:.5px;fill:#0101ff;fill-opacity:1;stroke:#fff;stroke-opacity:1"/></g></g><g class="trace bars" style="opacity:1"><g class="points"><path d="M4.28 382h34.24Zm42.8 0h34.24Zm42.8 0h34.24Zm42.8 0h34.24Zm42.8 0h34.24Z" class="point" style="vector-effect:none;opacity:1;stroke-width:.5px;fill:#e06633;fill-opacity:1;stroke:#fff;stroke-opacity:1"/><g class="point"><path d="M218.28 257.97v-49.61h34.24v49.61Z" style="vector-effect:none;opacity:1;stroke-width:.5px;fill:#e06633;fill-opacity:1;stroke:#fff;stroke-opacity:1"/><text class="bartext bartext-inside" data-notex="1" style="font-family:&quot;Open Sans&quot;,verdana,arial,sans-serif;font-size:12px;fill:#444;fill-opacity:1;white-space:pre" text-anchor="middle" transform="translate(235.4 223.36)">4</text></g><path d="M261.08 158.75h34.24ZM303.88 382h34.24Zm42.8-223.25h34.24ZM389.48 382h34.24Zm42.8 0h34.24Z" class="point" style="vector-effect:none;opacity:1;stroke-width:.5px;fill:#e06633;fill-opacity:1;stroke:#fff;stroke-opacity:1"/></g></g><g class="trace bars" style="opacity:1"><g class="points"><path d="M4.28 382h34.24Zm42.8 0h34.24Zm42.8 0h34.24Z" class="point" style="vector-effect:none;opacity:1;stroke-width:.5px;fill:#ff0100;fill-opacity:1;stroke:#fff;stroke-opacity:1"/><g class="point"><path d="M132.68 382v-49.61h34.24V382Z" style="vector-effect:none;opacity:1;stroke-width:.5px;fill:#ff0100;fill-opacity:1;stroke:#fff;stroke-opacity:1"/><text class="bartext bartext-inside" data-notex="1" style="font-family:&quot;Open Sans&quot;,verdana,arial,sans-serif;font-size:12px;fill:#fff;fill-opacity:1;white-space:pre" text-anchor="middle" transform="translate(149.8 347.39)">4</text></g><path d="M175.48 382h34.24Zm42.8-173.64h34.24Zm42.8-49.61h34.24ZM303.88 382h34.24Zm42.8-223.25h34.24ZM389.48 382h34.24Zm42.8 0h34.24Z" class="point" style="vector-effect:none;opacity:1;stroke-width:.5px;fill:#ff0100;fill-opacity:1;stroke:#fff;stroke-opacity:1"/></g></g><g class="trace bars" style="opacity:1"><g class="points"><path d="M4.28 382h34.24Zm42.8 0h34.24Zm42.8 0h34.24Z" class="point" style="vector-effect:none;opacity:1;stroke-width:.5px;fill:red;fill-opacity:1;stroke:#fff;stroke-opacity:1"/><g class="point"><path d="M132.68 332.39V133.95h34.24v198.44Z" style="vector-effect:none;opacity:1;stroke-width:.5px;fill:red;fill-opacity:1;stroke:#fff;stroke-opacity:1"/><text class="bartext bartext-inside" data-notex="1" style="font-family:&quot;Open Sans&quot;,verdana,arial,sans-serif;font-size:12px;fill:#fff;fill-opacity:1;white-space:pre" text-anchor="middle" transform="translate(149.8 148.95)">16</text></g><path d="M175.48 382h34.24Zm42.8-173.64h34.24Zm42.8-49.61h34.24ZM303.88 382h34.24Zm42.8-223.25h34.24ZM389.48 382h34.24Zm42.8 0h34.24Z" class="point" style="vector-effect:none;opacity:1;stroke-width:.5px;fill:red;fill-opacity:1;stroke:#fff;stroke-opacity:1"/></g></g><g class="trace bars" style="opacity:1"><g class="points"><path d="M4.28 382h34.24Zm42.8 0h34.24Zm42.8 0h34.24Zm42.8-248.05h34.24ZM175.48 382h34.24Zm42.8-173.64h34.24Zm42.8-49.61h34.24Z" class="point" style="vector-effect:none;opacity:1;stroke-width:.5px;fill:#94e0e0;fill-opacity:1;stroke:#fff;stroke-opacity:1"/><g class="point"><path d="M303.88 382v-99.22h34.24V382Z" style="vector-effect:none;opacity:1;stroke-width:.5px;fill:#94e0e0;fill-opacity:1;stroke:#fff;stroke-opacity:1"/><text class="bartext bartext-inside" data-notex="1" style="font-family:&quot;Open Sans&quot;,verdana,arial,sans-serif;font-size:12px;fill:#444;fill-opacity:1;white-space:pre" text-anchor="middle" transform="translate(321 297.78)">8</text></g><path d="M346.68 158.75h34.24ZM389.48 382h34.24Zm42.8 0h34.24Z" class="point" style="vector-effect:none;opacity:1;stroke-width:.5px;fill:#94e0e0;fill-opacity:1;stroke:#fff;stroke-opacity:1"/></g></g><g class="trace bars" style="opacity:1"><g class="points"><g class="point"><path d="M4.28 382v-12.4h34.24V382Z" style="vector-effect:none;opacity:1;stroke-width:.5px;fill:#9e4fb5;fill-opacity:1;stroke:#fff;stroke-opacity:1"/><text class="bartext bartext-outside" data-notex="1" style="font-family:&quot;Open Sans&quot;,verdana,arial,sans-serif;font-size:12px;fill:#000;fill-opacity:1;white-space:pre" text-anchor="middle" transform="translate(21.4 364.1)">1</text></g><g class="point"><path d="M47.08 382v-12.4h34.24V382Z" style="vector-effect:none;opacity:1;stroke-width:.5px;fill:#9e4fb5;fill-opacity:1;stroke:#fff;stroke-opacity:1"/><text class="bartext bartext-outside" data-notex="1" style="font-family:&quot;Open Sans&quot;,verdana,arial,sans-serif;font-size:12px;fill:#000;fill-opacity:1;white-space:pre" text-anchor="middle" transform="translate(64.2 364.1)">1</text></g><path d="M89.88 382h34.24Zm42.8-248.05h34.24Z" class="point" style="vector-effect:none;opacity:1;stroke-width:.5px;fill:#9e4fb5;fill-opacity:1;stroke:#fff;stroke-opacity:1"/><g class="point"><path d="M175.48 382v-12.4h34.24V382Z" style="vector-effect:none;opacity:1;stroke-width:.5px;fill:#9e4fb5;fill-opacity:1;stroke:#fff;stroke-opacity:1"/><text class="bartext bartext-outside" data-notex="1" style="font-family:&quot;Open Sans&quot;,verdana,arial,sans-serif;font-size:12px;fill:#000;fill-opacity:1;white-space:pre" text-anchor="middle" transform="translate(192.6 364.1)">1</text></g><g class="point"><path d="M218.28 208.36v-24.8h34.24v24.8Z" style="vector-effect:none;opacity:1;stroke-width:.5px;fill:#9e4fb5;fill-opacity:1;stroke:#fff;stroke-opacity:1"/><text class="bartext bartext-inside" data-notex="1" style="font-family:&quot;Open Sans&quot;,verdana,arial,sans-serif;font-size:12px;fill:#fff;fill-opacity:1;white-space:pre" text-anchor="middle" transform="translate(235.4 198.56)">2</text></g><g class="point"><path d="M261.08 158.75v-24.8h34.24v24.8Z" style="vector-effect:none;opacity:1;stroke-width:.5px;fill:#9e4fb5;fill-opacity:1;stroke:#fff;stroke-opacity:1"/><text class="bartext bartext-inside" data-notex="1" style="font-family:&quot;Open Sans&quot;,verdana,arial,sans-serif;font-size:12px;fill:#fff;fill-opacity:1;white-space:pre" text-anchor="middle" transform="translate(278.2 148.95)">2</text></g><g class="point"><path d="M303.88 282.78v-37.21h34.24v37.21Z" style="vector-effect:none;opacity:1;stroke-width:.5px;fill:#9e4fb5;fill-opacity:1;stroke:#fff;stroke-opacity:1"/><text class="bartext bartext-inside" data-notex="1" style="font-family:&quot;Open Sans&quot;,verdana,arial,sans-serif;font-size:12px;fill:#fff;fill-opacity:1;white-space:pre" text-anchor="middle" transform="translate(321 260.57)">3</text></g><path d="M346.68 158.75h34.24Z" class="point" style="vector-effect:none;opacity:1;stroke-width:.5px;fill:#9e4fb5;fill-opacity:1;stroke:#fff;stroke-opacity:1"/><g class="point"><path d="M389.48 382v-24.81h34.24V382Z" style="vector-effect:none;opacity:1;stroke-width:.5px;fill:#9e4fb5;fill-opacity:1;stroke:#fff;stroke-opacity:1"/><text class="bartext bartext-inside" data-notex="1" style="font-family:&quot;Open Sans&quot;,verdana,arial,sans-serif;font-size:12px;fill:#fff;fill-opacity:1;white-space:pre" text-anchor="middle" transform="translate(406.6 372.19)">2</text></g><path d="M432.28 382h34.24Z" class="point" style="vector-effect:none;opacity:1;stroke-width:.5px;fill:#9e4fb5;fill-opacity:1;stroke:#fff;stroke-opacity:1"/></g></g><g class="trace bars" style="opacity:1"><g class="points"><path d="M4.28 369.6h34.24Zm42.8 0h34.24Zm42.8 12.4h34.24Z" class="point" style="vector-effect:none;opacity:1;stroke-width:.5px;fill:red;fill-opacity:1;stroke:#fff;stroke-opacity:1"/><g class="point"><path d="M132.68 133.95v-347.27h34.24v347.27Z" style="vector-effect:none;opacity:1;stroke-width:.5px;fill:red;fill-opacity:1;stroke:#fff;stroke-opacity:1"/><text class="bartext bartext-inside" data-notex="1" style="font-family:&quot;Open Sans&quot;,verdana,arial,sans-serif;font-size:12px;fill:#fff;fill-opacity:1;white-space:pre" text-anchor="middle" transform="translate(149.8 -198.32)">28</text></g><path d="M175.48 369.6h34.24Zm42.8-186.04h34.24Zm42.8-49.61h34.24Zm42.8 111.62h34.24Zm42.8-86.82h34.24Zm42.8 198.44h34.24Zm42.8 24.81h34.24Z" class="point" style="vector-effect:none;opacity:1;stroke-width:.5px;fill:red;fill-opacity:1;stroke:#fff;stroke-opacity:1"/></g></g></g></g></g><path d="M57 442.5h430M57 59.5h430" class="xlines-above crisp" style="fill:none;stroke-width:1px;stroke:#000;stroke-opacity:1"/><path d="M57.5 60v382m429-382v382" class="ylines-above crisp" style="fill:none;stroke-width:1px;stroke:#000;stroke-opacity:1"/><g class="xaxislayer-above"><path d="M0 443v5" class="xtick ticks crisp" style="stroke:#444;stroke-opacity:1;stroke-width:1px" transform="translate(79.4)"/><path d="M0 443v5" class="xtick ticks crisp" style="stroke:#444;stroke-opacity:1;stroke-width:1px" transform="translate(122.2)"/><path d="M0 443v5" class="xtick ticks crisp" style="stroke:#444;stroke-opacity:1;stroke-width:1px" transform="translate(165)"/><path d="M0 443v5" class="xtick ticks crisp" style="stroke:#444;stroke-opacity:1;stroke-width:1px" transform="translate(207.8)"/><path d="M0 443v5" class="xtick ticks crisp" style="stroke:#444;stroke-opacity:1;stroke-width:1px" transform="translate(250.6)"/><path d="M0 443v5" class="xtick ticks crisp" style="stroke:#444;stroke-opacity:1;stroke-width:1px" transform="translate(293.4)"/><path d="M0 443v5" class="xtick ticks crisp" style="stroke:#444;stroke-opacity:1;stroke-width:1px" transform="translate(336.2)"/><path d="M0 443v5" class="xtick ticks crisp" style="stroke:#444;stroke-opacity:1;stroke-width:1px" transform="translate(379)"/><path d="M0 443v5" class="xtick ticks crisp" style="stroke:#444;stroke-opacity:1;stroke-width:1px" transform="translate(421.8)"/><path d="M0 443v5" class="xtick ticks crisp" style="stroke:#444;stroke-opacity:1;stroke-width:1px" transform="translate(464.6)"/><text y="462.4" class="xtick" style="font-family:&quot;Open Sans&quot;,verdana,arial,sans-serif;font-size:12px;fill:#000;fill-opacity:1;white-space:pre;opacity:1" text-anchor="middle" transform="translate(79.4)">1</text><text y="462.4" class="xtick" style="font-family:&quot;Open Sans&quot;,verdana,arial,sans-serif;font-size:12px;fill:#000;fill-opacity:1;white-space:pre;opacity:1" text-anchor="middle" transform="translate(122.2)">2</text><text y="462.4" class="xtick" style="font-family:&quot;Open Sans&quot;,verdana,arial,sans-serif;font-size:12px;fill:#000;fill-opacity:1;white-space:pre;opacity:1" text-anchor="middle" transform="translate(165)">3</text><text y="462.4" class="xtick" style="font-family:&quot;Open Sans&quot;,verdana,arial,sans-serif;font-size:12px;fill:#000;fill-opacity:1;white-space:pre;opacity:1" text-anchor="middle" transform="translate(207.8)">4</text><text y="462.4" class="xtick" style="font-family:&quot;Open Sans&quot;,verdana,arial,sans-serif;font-size:12px;fill:#000;fill-opacity:1;white-space:pre;opacity:1" text-anchor="middle" transform="translate(250.6)">5</text><text y="462.4" class="xtick" style="font-family:&quot;Open Sans&quot;,verdana,arial,sans-serif;font-size:12px;fill:#000;fill-opacity:1;white-space:pre;opacity:1" text-anchor="middle" transform="translate(293.4)">6</text><text y="462.4" class="xtick" style="font-family:&quot;Open Sans&quot;,verdana,arial,sans-serif;font-size:12px;fill:#000;fill-opacity:1;white-space:pre;opacity:1" text-anchor="middle" transform="translate(336.2)">7</text><text y="462.4" class="xtick" style="font-family:&quot;Open Sans&quot;,verdana,arial,sans-serif;font-size:12px;fill:#000;fill-opacity:1;white-space:pre;opacity:1" text-anchor="middle" transform="translate(379)">8</text><text y="462.4" class="xtick" style="font-family:&quot;Open Sans&quot;,verdana,arial,sans-serif;font-size:12px;fill:#000;fill-opacity:1;white-space:pre;opacity:1" text-anchor="middle" transform="translate(421.8)">9</text><text y="462.4" class="xtick" style="font-family:&quot;Open Sans&quot;,verdana,arial,sans-serif;font-size:12px;fill:#000;fill-opacity:1;white-space:pre;opacity:1" text-anchor="middle" transform="translate(464.6)">10</text></g><g class="yaxislayer-above"><path d="M57 0h-5" class="ytick ticks crisp" style="stroke:#444;stroke-opacity:1;stroke-width:1px" transform="translate(0 442)"/><path d="M57 0h-5" class="ytick ticks crisp" style="stroke:#444;stroke-opacity:1;stroke-width:1px" transform="translate(0 379.99)"/><path d="M57 0h-5" class="ytick ticks crisp" style="stroke:#444;stroke-opacity:1;stroke-width:1px" transform="translate(0 317.97)"/><path d="M57 0h-5" class="ytick ticks crisp" style="stroke:#444;stroke-opacity:1;stroke-width:1px" transform="translate(0 255.96)"/><path d="M57 0h-5" class="ytick ticks crisp" style="stroke:#444;stroke-opacity:1;stroke-width:1px" transform="translate(0 193.95)"/><path d="M57 0h-5" class="ytick ticks crisp" style="stroke:#444;stroke-opacity:1;stroke-width:1px" transform="translate(0 131.94)"/><path d="M57 0h-5" class="ytick ticks crisp" style="stroke:#444;stroke-opacity:1;stroke-width:1px" transform="translate(0 69.92)"/><text x="49.6" y="4.2" class="ytick" style="font-family:&quot;Open Sans&quot;,verdana,arial,sans-serif;font-size:12px;fill:#000;fill-opacity:1;white-space:pre;opacity:1" text-anchor="end" transform="translate(0 442)">0</text><text x="49.6" y="4.2" class="ytick" style="font-family:&quot;Open Sans&quot;,verdana,arial,sans-serif;font-size:12px;fill:#000;fill-opacity:1;white-space:pre;opacity:1" text-anchor="end" transform="translate(0 379.99)">5</text><text x="49.6" y="4.2" class="ytick" style="font-family:&quot;Open Sans&quot;,verdana,arial,sans-serif;font-size:12px;fill:#000;fill-opacity:1;white-space:pre;opacity:1" text-anchor="end" transform="translate(0 317.97)">10</text><text x="49.6" y="4.2" class="ytick" style="font-family:&quot;Open Sans&quot;,verdana,arial,sans-serif;font-size:12px;fill:#000;fill-opacity:1;white-space:pre;opacity:1" text-anchor="end" transform="translate(0 255.96)">15</text><text x="49.6" y="4.2" class="ytick" style="font-family:&quot;Open Sans&quot;,verdana,arial,sans-serif;font-size:12px;fill:#000;fill-opacity:1;white-space:pre;opacity:1" text-anchor="end" transform="translate(0 193.95)">20</text><text x="49.6" y="4.2" class="ytick" style="font-family:&quot;Open Sans&quot;,verdana,arial,sans-serif;font-size:12px;fill:#000;fill-opacity:1;white-space:pre;opacity:1" text-anchor="end" transform="translate(0 131.94)">25</text><text x="49.6" y="4.2" class="ytick" style="font-family:&quot;Open Sans&quot;,verdana,arial,sans-serif;font-size:12px;fill:#000;fill-opacity:1;white-space:pre;opacity:1" text-anchor="end" transform="translate(0 69.92)">30</text></g></g></g><defs><clipPath id="b"><path d="M0 0h195v181H0z"/></clipPath></defs><g class="infolayer"><g class="legend" pointer-events="all"><path d="M0 0h195v181H0z" class="bg" shape-rendering="crispEdges" style="stroke:#444;stroke-opacity:1;fill:#fff;fill-opacity:1;stroke-width:0" transform="translate(494.56 60)"/><g class="scrollbox" clip-path="url(#b)" transform="translate(494.56 60)"><g class="groups"><g class="traces" style="opacity:1"><text x="40" y="4.68" class="legendtext" style="font-family:&quot;Open Sans&quot;,verdana,arial,sans-serif;font-size:12px;fill:#000;fill-opacity:1;white-space:pre" transform="translate(0 14.5)">Zr8 Bi12 O28 (1) - O</text><g class="layers" style="opacity:1"><g class="legendsymbols"><g class="legendpoints"><path d="M6 6H-6V-6H6Z" class="legendundefined" style="stroke-width:.5px;fill:red;fill-opacity:1;stroke:#fff;stroke-opacity:1" transform="translate(20 14.5)"/></g></g></g><path fill="none" d="M0-9.5h189.813v19H0z" class="legendtoggle" style="fill:#000;fill-opacity:0" transform="translate(0 14.5)"/></g><g class="traces" style="opacity:1"><text x="40" y="4.68" class="legendtext" style="font-family:&quot;Open Sans&quot;,verdana,arial,sans-serif;font-size:12px;fill:#000;fill-opacity:1;white-space:pre" transform="translate(0 33.5)">Zr8 Bi12 O28 (1) - Bi</text><g class="layers" style="opacity:1"><g class="legendsymbols"><g class="legendpoints"><path d="M6 6H-6V-6H6Z" class="legendundefined" style="stroke-width:.5px;fill:#9e4fb5;fill-opacity:1;stroke:#fff;stroke-opacity:1" transform="translate(20 33.5)"/></g></g></g><path fill="none" d="M0-9.5h189.813v19H0z" class="legendtoggle" style="fill:#000;fill-opacity:0" transform="translate(0 33.5)"/></g><g class="traces" style="opacity:1"><text x="40" y="4.68" class="legendtext" style="font-family:&quot;Open Sans&quot;,verdana,arial,sans-serif;font-size:12px;fill:#000;fill-opacity:1;white-space:pre" transform="translate(0 52.5)">Zr8 Bi12 O28 (1) - Zr</text><g class="layers" style="opacity:1"><g class="legendsymbols"><g class="legendpoints"><path d="M6 6H-6V-6H6Z" class="legendundefined" style="stroke-width:.5px;fill:#94e0e0;fill-opacity:1;stroke:#fff;stroke-opacity:1" transform="translate(20 52.5)"/></g></g></g><path fill="none" d="M0-9.5h189.813v19H0z" class="legendtoggle" style="fill:#000;fill-opacity:0" transform="translate(0 52.5)"/></g><g class="traces" style="opacity:1"><text x="40" y="4.68" class="legendtext" style="font-family:&quot;Open Sans&quot;,verdana,arial,sans-serif;font-size:12px;fill:#000;fill-opacity:1;white-space:pre" transform="translate(0 71.5)">Li4 Fe4 P4 O16 (62) - O</text><g class="layers" style="opacity:1"><g class="legendsymbols"><g class="legendpoints"><path d="M6 6H-6V-6H6Z" class="legendundefined" style="stroke-width:.5px;fill:red;fill-opacity:1;stroke:#fff;stroke-opacity:1" transform="translate(20 71.5)"/></g></g></g><path fill="none" d="M0-9.5h189.813v19H0z" class="legendtoggle" style="fill:#000;fill-opacity:0" transform="translate(0 71.5)"/></g><g class="traces" style="opacity:1"><text x="40" y="4.68" class="legendtext" style="font-family:&quot;Open Sans&quot;,verdana,arial,sans-serif;font-size:12px;fill:#000;fill-opacity:1;white-space:pre" transform="translate(0 90.5)">Li4 Fe4 P4 O16 (62) - P</text><g class="layers" style="opacity:1"><g class="legendsymbols"><g class="legendpoints"><path d="M6 6H-6V-6H6Z" class="legendundefined" style="stroke-width:.5px;fill:#ff0100;fill-opacity:1;stroke:#fff;stroke-opacity:1" transform="translate(20 90.5)"/></g></g></g><path fill="none" d="M0-9.5h189.813v19H0z" class="legendtoggle" style="fill:#000;fill-opacity:0" transform="translate(0 90.5)"/></g><g class="traces" style="opacity:1"><text x="40" y="4.68" class="legendtext" style="font-family:&quot;Open Sans&quot;,verdana,arial,sans-serif;font-size:12px;fill:#000;fill-opacity:1;white-space:pre" transform="translate(0 109.5)">Li4 Fe4 P4 O16 (62) - Fe</text><g class="layers" style="opacity:1"><g class="legendsymbols"><g class="legendpoints"><path d="M6 6H-6V-6H6Z" class="legendundefined" style="stroke-width:.5px;fill:#e06633;fill-opacity:1;stroke:#fff;stroke-opacity:1" transform="translate(20 109.5)"/></g></g></g><path fill="none" d="M0-9.5h189.813v19H0z" class="legendtoggle" style="fill:#000;fill-opacity:0" transform="translate(0 109.5)"/></g><g class="traces" style="opacity:1"><text x="40" y="4.68" class="legendtext" style="font-family:&quot;Open Sans&quot;,verdana,arial,sans-serif;font-size:12px;fill:#000;fill-opacity:1;white-space:pre" transform="translate(0 128.5)">Li4 Fe4 P4 O16 (62) - Li</text><g class="layers" style="opacity:1"><g class="legendsymbols"><g class="legendpoints"><path d="M6 6H-6V-6H6Z" class="legendundefined" style="stroke-width:.5px;fill:#0101ff;fill-opacity:1;stroke:#fff;stroke-opacity:1" transform="translate(20 128.5)"/></g></g></g><path fill="none" d="M0-9.5h189.813v19H0z" class="legendtoggle" style="fill:#000;fill-opacity:0" transform="translate(0 128.5)"/></g><g class="traces" style="opacity:1"><text x="40" y="4.68" class="legendtext" style="font-family:&quot;Open Sans&quot;,verdana,arial,sans-serif;font-size:12px;fill:#000;fill-opacity:1;white-space:pre" transform="translate(0 147.5)">Zr18 Pd24 (148) - Pd</text><g class="layers" style="opacity:1"><g class="legendsymbols"><g class="legendpoints"><path d="M6 6H-6V-6H6Z" class="legendundefined" style="stroke-width:.5px;fill:#006985;fill-opacity:1;stroke:#fff;stroke-opacity:1" transform="translate(20 147.5)"/></g></g></g><path fill="none" d="M0-9.5h189.813v19H0z" class="legendtoggle" style="fill:#000;fill-opacity:0" transform="translate(0 147.5)"/></g><g class="traces" style="opacity:1"><text x="40" y="4.68" class="legendtext" style="font-family:&quot;Open Sans&quot;,verdana,arial,sans-serif;font-size:12px;fill:#000;fill-opacity:1;white-space:pre" transform="translate(0 166.5)">Zr18 Pd24 (148) - Zr</text><g class="layers" style="opacity:1"><g class="legendsymbols"><g class="legendpoints"><path d="M6 6H-6V-6H6Z" class="legendundefined" style="stroke-width:.5px;fill:#94e0e0;fill-opacity:1;stroke:#fff;stroke-opacity:1" transform="translate(20 166.5)"/></g></g></g><path fill="none" d="M0-9.5h189.813v19H0z" class="legendtoggle" style="fill:#000;fill-opacity:0" transform="translate(0 166.5)"/></g></g></g></g><g class="g-gtitle"><text x="350" y="10" class="gtitle" dy=".7em" style="opacity:1;font-family:&quot;Open Sans&quot;,verdana,arial,sans-serif;font-size:17px;fill:#000;fill-opacity:1;white-space:pre" text-anchor="middle">Coordination Histogram by Structure and Element</text></g><g class="g-xtitle"><text x="272" y="489.206" class="xtitle" style="opacity:1;font-family:&quot;Open Sans&quot;,verdana,arial,sans-serif;font-size:14px;fill:#000;fill-opacity:1;white-space:pre" text-anchor="middle">Coordination Number</text></g><g class="g-ytitle"><text x="14.928" y="251" class="ytitle" style="opacity:1;font-family:&quot;Open Sans&quot;,verdana,arial,sans-serif;font-size:14px;fill:#000;fill-opacity:1;white-space:pre" text-anchor="middle" transform="rotate(-90 14.928 251)">Count</text></g><g class="annotation" data-index="0" style="opacity:1"><g class="annotation-text-g"><g class="cursor-pointer"><path fill="none" d="M.5.5h137v23H.5z" class="bg" style="stroke-width:1px;stroke:#000;stroke-opacity:0;fill:#000;fill-opacity:0" transform="translate(203 36)"/><text x="69.203" y="18" class="annotation-text" style="font-family:&quot;Open Sans&quot;,verdana,arial,sans-serif;font-size:16px;fill:#000;fill-opacity:1;white-space:pre" text-anchor="middle" transform="translate(203 36)">Zr18 Pd24 (148)</text></g></g></g></g></svg>
