<svg height="442.232" viewBox="0 0 723.766 331.674" width="965.021" xmlns="http://www.w3.org/2000/svg" xmlns:xlink="http://www.w3.org/1999/xlink"><defs><style>*{stroke-linecap:butt;stroke-linejoin:round}</style></defs><g id="figure_1"><path d="M0 331.674h723.766V0H0z" fill="none" id="patch_1"/><g id="axes_1"><path d="M46.966 294.118h304.363v-271.8H46.966z" fill="#fff" id="patch_2"/><path clip-path="url(#pff4f0df2ae)" d="M77.234 294.118v-13.59l1.396-2.718 1.382-2.718 5.701-2.718.067-2.718 4.124-2.718 4.985-2.718 17.21-2.718.101-2.718 1.983-2.718.35-2.718 4.078-2.718 6.581-2.718 1.222-2.718.714-2.718 1.007-2.718.866-2.718 2.984-2.718 1.195-2.718.836-2.718.63-2.718 2.88-2.718 2.478-2.718 2.753-2.718 2.91-2.718 1.234-2.718 2.505-2.718 1.16-2.718 5.987-2.718 2.834-2.718 2.214-2.718 1.357-2.718.364-2.718 1.212-2.718.222-2.718.506-2.718.922-2.718 4.053-2.718 2.003-2.718 3.885-2.718.866-2.718 1.915-2.718 1.19-2.718.918-2.718 4.3-2.718.931-2.718 3.376-2.718 1.55-2.718 4.58-2.718 3.281-2.718 1.324-2.718 2.271-2.718 2.847-2.718 2.078-2.718 7.556-2.718 1.368-2.718 1.82-2.718.547-2.718 1.353-2.718.673-2.718.209-2.718 1.256-2.718 1.656-2.718.044-2.718 1.613-2.718 2.94-2.718.012-2.718 1.787-2.718 1.702-2.718 1.504-2.718.87-2.718 4.475-2.718 12.71-2.718 3.106-2.718 3.899-2.718 8.425-2.718 7.26-2.718 2.567-2.718 7.823-2.718 3.524-2.718 7.446-2.718 1.282-2.718 15.718-2.718 3.41-2.718 3.856-2.718.445-2.718 1.312-2.718 8.61-2.718 7.053-2.718v252.774H77.234z" fill="#1f77b4" fill-opacity=".3" id="PolyCollection_1"/><g id="matplotlib.axis_1"><g id="xtick_1"><g id="line2d_1"><defs><path d="M0 0v3.5" id="m3759af52f4" stroke="#000" stroke-width=".8"/></defs><use x="69.695" xlink:href="#m3759af52f4" y="294.118" stroke="#000" stroke-width=".8"/></g><g transform="matrix(.1 0 0 -.1 57.554 308.717)" id="text_1"><defs><path d="M10.594 35.5h62.593v-8.297H10.594z" id="DejaVuSans-8722"/><path d="M31.781 66.406q-7.61 0-11.453-7.5Q16.5 51.422 16.5 36.375q0-14.984 3.828-22.484 3.844-7.5 11.453-7.5 7.672 0 11.5 7.5 3.844 7.5 3.844 22.484 0 15.047-3.844 22.531-3.828 7.5-11.5 7.5zm0 7.813q12.266 0 18.735-9.703 6.468-9.688 6.468-28.141 0-18.406-6.468-28.11-6.47-9.687-18.735-9.687-12.25 0-18.718 9.688-6.47 9.703-6.47 28.109 0 18.453 6.47 28.14Q19.53 74.22 31.78 74.22z" id="DejaVuSans-48"/><path d="M10.688 12.406H21V0H10.687z" id="DejaVuSans-46"/><path d="M19.188 8.297h34.421V0H7.33v8.297q5.609 5.812 15.296 15.594 9.703 9.797 12.188 12.64 4.734 5.313 6.609 9 1.89 3.688 1.89 7.25 0 5.813-4.078 9.469-4.078 3.672-10.625 3.672-4.64 0-9.797-1.61-5.14-1.609-11-4.89v9.969Q13.767 71.78 18.938 73q5.188 1.219 9.485 1.219 11.328 0 18.062-5.672 6.735-5.656 6.735-15.125 0-4.5-1.688-8.531-1.672-4.016-6.125-9.485-1.218-1.422-7.765-8.187-6.532-6.766-18.453-18.922z" id="DejaVuSans-50"/></defs><use xlink:href="#DejaVuSans-8722"/><use x="83.789" xlink:href="#DejaVuSans-48"/><use x="147.412" xlink:href="#DejaVuSans-46"/><use x="179.199" xlink:href="#DejaVuSans-50"/></g></g><g id="xtick_2"><use x="134.421" xlink:href="#m3759af52f4" y="294.118" stroke="#000" stroke-width=".8" id="line2d_2"/><g transform="matrix(.1 0 0 -.1 122.28 308.717)" id="text_2"><defs><path d="M12.406 8.297h16.11v55.625l-17.532-3.516v8.985l17.438 3.515h9.86V8.296H54.39V0H12.406z" id="DejaVuSans-49"/></defs><use xlink:href="#DejaVuSans-8722"/><use x="83.789" xlink:href="#DejaVuSans-48"/><use x="147.412" xlink:href="#DejaVuSans-46"/><use x="179.199" xlink:href="#DejaVuSans-49"/></g></g><g id="xtick_3"><use x="199.147" xlink:href="#m3759af52f4" y="294.118" stroke="#000" stroke-width=".8" id="line2d_3"/><g transform="matrix(.1 0 0 -.1 191.196 308.717)" id="text_3"><use xlink:href="#DejaVuSans-48"/><use x="63.623" xlink:href="#DejaVuSans-46"/><use x="95.41" xlink:href="#DejaVuSans-48"/></g></g><g id="xtick_4"><use x="263.873" xlink:href="#m3759af52f4" y="294.118" stroke="#000" stroke-width=".8" id="line2d_4"/><g transform="matrix(.1 0 0 -.1 255.922 308.717)" id="text_4"><use xlink:href="#DejaVuSans-48"/><use x="63.623" xlink:href="#DejaVuSans-46"/><use x="95.41" xlink:href="#DejaVuSans-49"/></g></g><g id="xtick_5"><use x="328.6" xlink:href="#m3759af52f4" y="294.118" stroke="#000" stroke-width=".8" id="line2d_5"/><g transform="matrix(.1 0 0 -.1 320.648 308.717)" id="text_5"><use xlink:href="#DejaVuSans-48"/><use x="63.623" xlink:href="#DejaVuSans-46"/><use x="95.41" xlink:href="#DejaVuSans-50"/></g></g><g transform="matrix(.1 0 0 -.1 178.032 322.395)" id="text_6"><defs><path d="M44.39 34.188q3.172-1.079 6.172-4.594 3-3.516 6.032-9.672L66.609 0H56l-9.313 18.703q-3.624 7.328-7.015 9.719-3.39 2.39-9.25 2.39h-10.75V0h-9.86v72.906h22.266q12.5 0 18.656-5.234 6.157-5.219 6.157-15.766 0-6.89-3.203-11.437-3.204-4.532-9.297-6.282zM19.673 64.797V38.922h12.406q7.125 0 10.766 3.297 3.64 3.297 3.64 9.687 0 6.39-3.64 9.64-3.64 3.25-10.766 3.25z" id="DejaVuSans-82"/><path d="M56.203 29.594v-4.39H14.891q.593-9.282 5.593-14.142 5-4.859 13.938-4.859 5.172 0 10.031 1.266 4.86 1.265 9.656 3.812v-8.5Q49.266.734 44.187-.344 39.11-1.422 33.892-1.422q-13.094 0-20.735 7.61-7.64 7.625-7.64 20.625 0 13.421 7.25 21.296Q20.016 56 32.328 56q11.031 0 17.453-7.11 6.422-7.093 6.422-19.296zm-8.984 2.64q-.094 7.36-4.125 11.75-4.032 4.407-10.672 4.407-7.516 0-12.031-4.25-4.516-4.25-5.203-11.97z" id="DejaVuSans-101"/><path d="M44.281 53.078v-8.5q-3.797 1.953-7.906 2.922-4.094.984-8.5.984-6.688 0-10.031-2.047-3.344-2.046-3.344-6.156 0-3.125 2.39-4.906 2.391-1.781 9.626-3.39l3.078-.688q9.562-2.047 13.593-5.781 4.032-3.735 4.032-10.422 0-7.625-6.032-12.078-6.03-4.438-16.578-4.438-4.39 0-9.156.86Q10.688.296 5.422 2v9.281q4.984-2.594 9.812-3.89 4.829-1.282 9.579-1.282 6.343 0 9.75 2.172 3.421 2.172 3.421 6.125 0 3.656-2.468 5.61-2.453 1.953-10.813 3.765l-3.125.735q-8.344 1.75-12.062 5.39-3.704 3.64-3.704 9.985 0 7.718 5.47 11.906Q16.75 56 26.811 56q4.97 0 9.36-.734 4.406-.72 8.11-2.188z" id="DejaVuSans-115"/><path d="M9.422 54.688h8.984V0H9.422zm0 21.296h8.984v-11.39H9.422z" id="DejaVuSans-105"/><path d="M45.406 46.39v29.594h8.985V0h-8.985v8.203Q42.578 3.328 38.25.953q-4.313-2.375-10.375-2.375-9.906 0-16.14 7.906-6.22 7.922-6.22 20.813 0 12.89 6.22 20.797Q17.968 56 27.874 56q6.063 0 10.375-2.375 4.328-2.36 7.156-7.234zm-30.61-19.093q0-9.906 4.079-15.547 4.078-5.64 11.203-5.64 7.125 0 11.219 5.64 4.11 5.64 4.11 15.547 0 9.906-4.11 15.547-4.094 5.64-11.219 5.64-7.125 0-11.203-5.64-4.078-5.64-4.078-15.547z" id="DejaVuSans-100"/><path d="M8.5 21.578v33.11h8.984V21.922q0-7.766 3.016-11.656 3.031-3.875 9.094-3.875 7.265 0 11.484 4.64 4.234 4.64 4.234 12.656v31h8.985V0h-8.984v8.406Q42.047 3.422 37.718 1q-4.313-2.422-10.032-2.422-9.421 0-14.312 5.86Q8.5 10.296 8.5 21.578zM31.11 56z" id="DejaVuSans-117"/><path d="M34.281 27.484q-10.89 0-15.093-2.484-4.204-2.484-4.204-8.5 0-4.781 3.157-7.594 3.156-2.797 8.562-2.797 7.485 0 12 5.297 4.516 5.297 4.516 14.078v2zm17.922 3.72V0H43.22v8.297Q40.14 3.328 35.547.953q-4.594-2.375-11.234-2.375-8.391 0-13.36 4.719Q6 8.016 6 15.922q0 9.219 6.172 13.906 6.187 4.688 18.437 4.688h12.61v.89q0 6.203-4.078 9.594-4.078 3.39-11.453 3.39-4.688 0-9.141-1.124-4.438-1.125-8.531-3.375v8.312q4.921 1.906 9.562 2.844 4.64.953 9.031.953 11.875 0 17.735-6.156 5.86-6.14 5.86-18.64z" id="DejaVuSans-97"/><path d="M9.422 75.984h8.984V0H9.422z" id="DejaVuSans-108"/></defs><use xlink:href="#DejaVuSans-82"/><use x="64.982" xlink:href="#DejaVuSans-101"/><use x="126.506" xlink:href="#DejaVuSans-115"/><use x="178.605" xlink:href="#DejaVuSans-105"/><use x="206.389" xlink:href="#DejaVuSans-100"/><use x="269.865" xlink:href="#DejaVuSans-117"/><use x="333.244" xlink:href="#DejaVuSans-97"/><use x="394.523" xlink:href="#DejaVuSans-108"/></g></g><g id="matplotlib.axis_2"><g id="ytick_1"><g id="line2d_6"><defs><path d="M0 0h-3.5" id="m228ead3398" stroke="#000" stroke-width=".8"/></defs><use x="46.966" xlink:href="#m228ead3398" y="294.118" stroke="#000" stroke-width=".8"/></g><use xlink:href="#DejaVuSans-48" transform="matrix(.1 0 0 -.1 33.603 297.917)" id="text_7"/></g><g id="ytick_2"><use x="46.966" xlink:href="#m228ead3398" y="239.758" stroke="#000" stroke-width=".8" id="line2d_7"/><g transform="matrix(.1 0 0 -.1 27.24 243.557)" id="text_8"><use xlink:href="#DejaVuSans-50"/><use x="63.623" xlink:href="#DejaVuSans-48"/></g></g><g id="ytick_3"><use x="46.966" xlink:href="#m228ead3398" y="185.398" stroke="#000" stroke-width=".8" id="line2d_8"/><g transform="matrix(.1 0 0 -.1 27.24 189.197)" id="text_9"><defs><path d="M37.797 64.313L12.89 25.39h24.906zm-2.594 8.593H47.61V25.391h10.407v-8.203H47.609V0h-9.812v17.188H4.89v9.515z" id="DejaVuSans-52"/></defs><use xlink:href="#DejaVuSans-52"/><use x="63.623" xlink:href="#DejaVuSans-48"/></g></g><g id="ytick_4"><use x="46.966" xlink:href="#m228ead3398" y="131.038" stroke="#000" stroke-width=".8" id="line2d_9"/><g transform="matrix(.1 0 0 -.1 27.24 134.837)" id="text_10"><defs><path d="M33.016 40.375q-6.641 0-10.532-4.547-3.875-4.531-3.875-12.437 0-7.86 3.875-12.438 3.891-4.562 10.532-4.562 6.64 0 10.515 4.562 3.875 4.578 3.875 12.438 0 7.906-3.875 12.437-3.875 4.547-10.515 4.547zm19.578 30.922v-8.984q-3.719 1.75-7.5 2.671-3.782.938-7.5.938-9.766 0-14.922-6.594-5.14-6.594-5.875-19.922 2.875 4.25 7.219 6.516 4.359 2.266 9.578 2.266 10.984 0 17.36-6.672 6.374-6.657 6.374-18.125 0-11.235-6.64-18.032-6.641-6.78-17.672-6.78-12.657 0-19.344 9.687-6.688 9.703-6.688 28.109 0 17.281 8.204 27.563 8.203 10.28 22.015 10.28 3.719 0 7.5-.734t7.89-2.187z" id="DejaVuSans-54"/></defs><use xlink:href="#DejaVuSans-54"/><use x="63.623" xlink:href="#DejaVuSans-48"/></g></g><g id="ytick_5"><use x="46.966" xlink:href="#m228ead3398" y="76.678" stroke="#000" stroke-width=".8" id="line2d_10"/><g transform="matrix(.1 0 0 -.1 27.24 80.477)" id="text_11"><defs><path d="M31.781 34.625q-7.031 0-11.062-3.766-4.016-3.765-4.016-10.343 0-6.594 4.016-10.36Q24.75 6.391 31.78 6.391q7.032 0 11.078 3.78 4.063 3.798 4.063 10.345 0 6.578-4.031 10.343-4.016 3.766-11.11 3.766zm-9.86 4.188q-6.343 1.562-9.89 5.906Q8.5 49.079 8.5 55.329q0 8.733 6.219 13.812 6.234 5.078 17.062 5.078 10.89 0 17.094-5.078 6.203-5.079 6.203-13.813 0-6.25-3.547-10.61-3.531-4.343-9.828-5.906 7.125-1.656 11.094-6.5 3.984-4.828 3.984-11.796 0-10.61-6.468-16.282-6.47-5.656-18.532-5.656-12.047 0-18.531 5.656-6.469 5.672-6.469 16.282 0 6.968 4 11.797 4.016 4.843 11.14 6.5zM18.314 54.39q0-5.657 3.53-8.828 3.548-3.172 9.938-3.172 6.36 0 9.938 3.172 3.593 3.171 3.593 8.828 0 5.672-3.593 8.843-3.578 3.172-9.938 3.172-6.39 0-9.937-3.172-3.532-3.172-3.532-8.843z" id="DejaVuSans-56"/></defs><use xlink:href="#DejaVuSans-56"/><use x="63.623" xlink:href="#DejaVuSans-48"/></g></g><g id="ytick_6"><use x="46.966" xlink:href="#m228ead3398" y="22.318" stroke="#000" stroke-width=".8" id="line2d_11"/><g transform="matrix(.1 0 0 -.1 20.878 26.117)" id="text_12"><use xlink:href="#DejaVuSans-49"/><use x="63.623" xlink:href="#DejaVuSans-48"/><use x="127.246" xlink:href="#DejaVuSans-48"/></g></g><g transform="matrix(0 -.1 -.1 0 14.798 182.88)" id="text_13"><defs><path d="M19.672 64.797v-27.39h12.406q6.89 0 10.64 3.562 3.766 3.562 3.766 10.156 0 6.547-3.765 10.11-3.75 3.562-10.64 3.562zm-9.86 8.11h22.266q12.266 0 18.531-5.548 6.282-5.546 6.282-16.234 0-10.797-6.282-16.313-6.265-5.515-18.53-5.515H19.671V0h-9.86z" id="DejaVuSans-80"/><path d="M41.11 46.297q-1.516.875-3.297 1.281Q36.03 48 33.89 48q-7.625 0-11.703-4.953-4.079-4.953-4.079-14.234V0H9.08v54.688h9.03v-8.5q2.844 4.984 7.375 7.39Q30.031 56 36.531 56q.922 0 2.047-.125 1.125-.11 2.484-.36z" id="DejaVuSans-114"/><path d="M48.781 52.594v-8.407q-3.812 2.11-7.64 3.157-3.828 1.047-7.735 1.047-8.75 0-13.593-5.547-4.829-5.532-4.829-15.547 0-10.016 4.829-15.563 4.843-5.53 13.593-5.53 3.907 0 7.735 1.046 3.828 1.047 7.64 3.156V2.094Q45.016.344 40.984-.531q-4.015-.89-8.562-.89-12.36 0-19.64 7.765-7.266 7.765-7.266 20.953 0 13.375 7.343 21.031Q20.22 56 33.016 56q4.14 0 8.093-.86 3.953-.843 7.672-2.546z" id="DejaVuSans-99"/><path d="M54.89 33.016V0h-8.984v32.719q0 7.765-3.031 11.61-3.031 3.858-9.078 3.858-7.281 0-11.484-4.64-4.204-4.625-4.204-12.64V0H9.08v54.688h9.03v-8.5q3.235 4.937 7.594 7.374Q30.078 56 35.797 56q9.422 0 14.25-5.828 4.844-5.828 4.844-17.156z" id="DejaVuSans-110"/><path d="M18.313 70.219V54.688h18.5v-6.985h-18.5V18.016q0-6.688 1.828-8.594 1.828-1.906 7.453-1.906h9.218V0h-9.218q-10.407 0-14.36 3.875-3.953 3.89-3.953 14.14v29.688H2.687v6.984h6.594V70.22z" id="DejaVuSans-116"/></defs><use xlink:href="#DejaVuSans-80"/><use x="56.678" xlink:href="#DejaVuSans-101"/><use x="118.201" xlink:href="#DejaVuSans-114"/><use x="157.064" xlink:href="#DejaVuSans-99"/><use x="212.045" xlink:href="#DejaVuSans-101"/><use x="273.568" xlink:href="#DejaVuSans-110"/><use x="336.947" xlink:href="#DejaVuSans-116"/><use x="376.156" xlink:href="#DejaVuSans-105"/><use x="403.939" xlink:href="#DejaVuSans-108"/><use x="431.723" xlink:href="#DejaVuSans-101"/></g></g><path clip-path="url(#pff4f0df2ae)" d="M-1 292.062l19.466-.662 16.104-2.718 37.483-2.718 5.111-2.718.07-2.718 1.396-2.718 1.382-2.718 5.701-2.718.067-2.718 4.124-2.718 4.985-2.718 17.21-2.718.101-2.718 1.983-2.718.35-2.718 4.078-2.718 6.581-2.718 1.222-2.718.714-2.718 1.007-2.718.866-2.718 2.984-2.718 1.195-2.718.836-2.718.63-2.718 2.88-2.718 2.478-2.718 2.753-2.718 2.91-2.718 1.234-2.718 2.505-2.718 1.16-2.718 5.987-2.718 2.834-2.718 2.214-2.718 1.357-2.718.364-2.718 1.212-2.718.222-2.718.506-2.718.922-2.718 4.053-2.718 2.003-2.718 3.885-2.718.866-2.718 1.915-2.718 1.19-2.718.918-2.718 4.3-2.718.931-2.718 3.376-2.718 1.55-2.718 4.58-2.718 3.281-2.718 1.324-2.718 2.271-2.718 2.847-2.718 2.078-2.718 7.556-2.718 1.368-2.718 1.82-2.718.547-2.718 1.353-2.718.673-2.718.209-2.718 1.256-2.718 1.656-2.718.044-2.718 1.613-2.718 2.94-2.718.012-2.718 1.787-2.718 1.702-2.718 1.504-2.718.87-2.718 4.475-2.718 12.71-2.718 3.106-2.718 3.899-2.718 8.425-2.718 7.26-2.718 2.567-2.718 7.823-2.718 3.524-2.718 7.446-2.718 1.282-2.718 15.718-2.718 3.41-2.718 3.856-2.718.445-2.718 1.312-2.718 8.61-2.718 7.053-2.718 2.605-2.718 4.089-2.718 7.252-2.718 17.46-2.718 17.644-2.718 4.063-2.718" fill="none" stroke="#1f77b4" stroke-linecap="square" stroke-width="1.5" id="line2d_12"/><path clip-path="url(#pff4f0df2ae)" d="M199.147 294.118v-271.8" fill="none" stroke="gray" stroke-dasharray="5.55,2.4" stroke-opacity=".4" stroke-width="1.5" id="line2d_13"/><path clip-path="url(#pff4f0df2ae)" d="M46.966 158.218h152.181" fill="none" stroke="gray" stroke-dasharray="5.55,2.4" stroke-opacity=".4" stroke-width="1.5" id="line2d_14"/><path d="M46.966 294.118v-271.8" fill="none" stroke="#000" stroke-linecap="square" stroke-width=".8" id="patch_3"/><path d="M351.33 294.118v-271.8" fill="none" stroke="#000" stroke-linecap="square" stroke-width=".8" id="patch_4"/><path d="M46.966 294.118h304.363" fill="none" stroke="#000" stroke-linecap="square" stroke-width=".8" id="patch_5"/><path d="M46.966 22.318h304.363" fill="none" stroke="#000" stroke-linecap="square" stroke-width=".8" id="patch_6"/><g transform="matrix(.12 0 0 -.12 137.657 16.318)" id="text_14"><defs><path d="M64.406 67.281v-10.39q-4.984 4.64-10.625 6.922-5.64 2.296-11.984 2.296-12.5 0-19.14-7.64-6.641-7.64-6.641-22.094 0-14.406 6.64-22.047 6.64-7.64 19.14-7.64 6.345 0 11.985 2.296 5.64 2.297 10.625 6.938V5.609Q59.234 2.094 53.437.33q-5.78-1.75-12.218-1.75-16.563 0-26.094 10.124-9.516 10.14-9.516 27.672 0 17.578 9.516 27.703 9.531 10.14 26.094 10.14 6.531 0 12.312-1.734 5.797-1.734 10.875-5.203z" id="DejaVuSans-67"/><path d="M52 44.188q3.375 6.062 8.063 8.937Q64.75 56 71.093 56q8.548 0 13.188-5.984 4.64-5.97 4.64-17V0h-9.03v32.719q0 7.86-2.797 11.656-2.781 3.813-8.485 3.813-6.984 0-11.046-4.641-4.047-4.625-4.047-12.64V0h-9.032v32.719q0 7.906-2.78 11.687-2.782 3.782-8.595 3.782-6.89 0-10.953-4.657-4.047-4.656-4.047-12.625V0H9.08v54.688h9.03v-8.5q3.078 5.03 7.375 7.421Q29.781 56 35.687 56q5.97 0 10.141-3.031Q50 49.953 52 44.187z" id="DejaVuSans-109"/><path d="M2.984 54.688H12.5L29.594 8.797l17.093 45.89h9.516L35.687 0H23.485z" id="DejaVuSans-118"/></defs><use xlink:href="#DejaVuSans-67"/><use x="69.824" xlink:href="#DejaVuSans-117"/><use x="133.203" xlink:href="#DejaVuSans-109"/><use x="230.615" xlink:href="#DejaVuSans-117"/><use x="293.994" xlink:href="#DejaVuSans-108"/><use x="321.777" xlink:href="#DejaVuSans-97"/><use x="383.057" xlink:href="#DejaVuSans-116"/><use x="422.266" xlink:href="#DejaVuSans-105"/><use x="450.049" xlink:href="#DejaVuSans-118"/><use x="509.229" xlink:href="#DejaVuSans-101"/><use x="570.752" xlink:href="#DejaVuSans-32"/><use x="602.539" xlink:href="#DejaVuSans-82"/><use x="667.521" xlink:href="#DejaVuSans-101"/><use x="729.045" xlink:href="#DejaVuSans-115"/><use x="781.145" xlink:href="#DejaVuSans-105"/><use x="808.928" xlink:href="#DejaVuSans-100"/><use x="872.404" xlink:href="#DejaVuSans-117"/><use x="935.783" xlink:href="#DejaVuSans-97"/><use x="997.063" xlink:href="#DejaVuSans-108"/></g></g><g id="axes_2"><path d="M412.202 294.118h304.364v-271.8H412.202z" fill="#fff" id="patch_7"/><g id="matplotlib.axis_3"><g id="xtick_6"><use x="412.202" xlink:href="#m3759af52f4" y="294.118" stroke="#000" stroke-width=".8" id="line2d_15"/><g transform="matrix(.1 0 0 -.1 401.07 308.717)" id="text_15"><use xlink:href="#DejaVuSans-48"/><use x="63.623" xlink:href="#DejaVuSans-46"/><use x="95.41" xlink:href="#DejaVuSans-48"/><use x="159.033" xlink:href="#DejaVuSans-48"/></g></g><g id="xtick_7"><use x="464.773" xlink:href="#m3759af52f4" y="294.118" stroke="#000" stroke-width=".8" id="line2d_16"/><g transform="matrix(.1 0 0 -.1 453.64 308.717)" id="text_16"><defs><path d="M10.797 72.906h38.719v-8.312H19.828v-17.86q2.14.735 4.281 1.094 2.157.36 4.313.36 12.203 0 19.328-6.688 7.14-6.688 7.14-18.11 0-11.765-7.328-18.296-7.328-6.516-20.656-6.516-4.593 0-9.36.781-4.75.782-9.827 2.344v9.922q4.39-2.39 9.078-3.563 4.687-1.171 9.906-1.171 8.453 0 13.375 4.437 4.938 4.438 4.938 12.063 0 7.609-4.938 12.047-4.922 4.453-13.375 4.453-3.953 0-7.89-.875-3.922-.875-8.016-2.735z" id="DejaVuSans-53"/></defs><use xlink:href="#DejaVuSans-48"/><use x="63.623" xlink:href="#DejaVuSans-46"/><use x="95.41" xlink:href="#DejaVuSans-48"/><use x="159.033" xlink:href="#DejaVuSans-53"/></g></g><g id="xtick_8"><use x="517.344" xlink:href="#m3759af52f4" y="294.118" stroke="#000" stroke-width=".8" id="line2d_17"/><g transform="matrix(.1 0 0 -.1 506.212 308.717)" id="text_17"><use xlink:href="#DejaVuSans-48"/><use x="63.623" xlink:href="#DejaVuSans-46"/><use x="95.41" xlink:href="#DejaVuSans-49"/><use x="159.033" xlink:href="#DejaVuSans-48"/></g></g><g id="xtick_9"><use x="569.916" xlink:href="#m3759af52f4" y="294.118" stroke="#000" stroke-width=".8" id="line2d_18"/><g transform="matrix(.1 0 0 -.1 558.783 308.717)" id="text_18"><use xlink:href="#DejaVuSans-48"/><use x="63.623" xlink:href="#DejaVuSans-46"/><use x="95.41" xlink:href="#DejaVuSans-49"/><use x="159.033" xlink:href="#DejaVuSans-53"/></g></g><g id="xtick_10"><use x="622.487" xlink:href="#m3759af52f4" y="294.118" stroke="#000" stroke-width=".8" id="line2d_19"/><g transform="matrix(.1 0 0 -.1 611.354 308.717)" id="text_19"><use xlink:href="#DejaVuSans-48"/><use x="63.623" xlink:href="#DejaVuSans-46"/><use x="95.41" xlink:href="#DejaVuSans-50"/><use x="159.033" xlink:href="#DejaVuSans-48"/></g></g><g id="xtick_11"><use x="675.058" xlink:href="#m3759af52f4" y="294.118" stroke="#000" stroke-width=".8" id="line2d_20"/><g transform="matrix(.1 0 0 -.1 663.925 308.717)" id="text_20"><use xlink:href="#DejaVuSans-48"/><use x="63.623" xlink:href="#DejaVuSans-46"/><use x="95.41" xlink:href="#DejaVuSans-50"/><use x="159.033" xlink:href="#DejaVuSans-53"/></g></g><g transform="matrix(.1 0 0 -.1 528.756 322.395)" id="text_21"><defs><path d="M34.188 63.188L20.797 26.906h26.812zm-5.579 9.718h11.188L67.578 0h-10.25l-6.64 18.703h-32.86L11.188 0H.78z" id="DejaVuSans-65"/><path d="M48.688 27.297q0 9.906-4.079 15.547-4.078 5.64-11.203 5.64-7.14 0-11.218-5.64-4.079-5.64-4.079-15.547 0-9.906 4.078-15.547 4.079-5.64 11.22-5.64 7.124 0 11.202 5.64t4.078 15.547zM18.108 46.39q2.844 4.875 7.157 7.234Q29.594 56 35.594 56q9.968 0 16.187-7.906 6.235-7.907 6.235-20.797T51.78 6.484q-6.218-7.906-16.187-7.906-6 0-10.328 2.375-4.313 2.375-7.157 7.25V0H9.08v75.984h9.03z" id="DejaVuSans-98"/><path d="M30.61 48.39q-7.22 0-11.422-5.64-4.204-5.64-4.204-15.453 0-9.813 4.172-15.453 4.188-5.64 11.453-5.64 7.188 0 11.375 5.655 4.203 5.672 4.203 15.438 0 9.719-4.203 15.406-4.187 5.688-11.375 5.688zm0 7.61q11.718 0 18.406-7.625 6.703-7.61 6.703-21.078 0-13.422-6.703-21.078-6.688-7.64-18.407-7.64-11.765 0-18.437 7.64-6.656 7.656-6.656 21.078 0 13.469 6.656 21.078Q18.844 56 30.609 56z" id="DejaVuSans-111"/><path d="M9.813 72.906h46.093v-8.312H19.672V43.016H54.39v-8.297H19.67V8.297h37.11V0H9.813z" id="DejaVuSans-69"/></defs><use xlink:href="#DejaVuSans-65"/><use x="68.408" xlink:href="#DejaVuSans-98"/><use x="131.885" xlink:href="#DejaVuSans-115"/><use x="183.984" xlink:href="#DejaVuSans-111"/><use x="245.166" xlink:href="#DejaVuSans-108"/><use x="272.949" xlink:href="#DejaVuSans-117"/><use x="336.328" xlink:href="#DejaVuSans-116"/><use x="375.537" xlink:href="#DejaVuSans-101"/><use x="437.061" xlink:href="#DejaVuSans-32"/><use x="468.848" xlink:href="#DejaVuSans-69"/><use x="532.031" xlink:href="#DejaVuSans-114"/><use x="571.395" xlink:href="#DejaVuSans-114"/><use x="610.258" xlink:href="#DejaVuSans-111"/><use x="671.439" xlink:href="#DejaVuSans-114"/></g></g><g id="matplotlib.axis_4"><g id="ytick_7"><use x="412.202" xlink:href="#m228ead3398" y="294.118" stroke="#000" stroke-width=".8" id="line2d_21"/><use xlink:href="#DejaVuSans-48" transform="matrix(.1 0 0 -.1 398.84 297.917)" id="text_22"/></g><g id="ytick_8"><use x="412.202" xlink:href="#m228ead3398" y="239.758" stroke="#000" stroke-width=".8" id="line2d_22"/><g transform="matrix(.1 0 0 -.1 392.477 243.557)" id="text_23"><use xlink:href="#DejaVuSans-50"/><use x="63.623" xlink:href="#DejaVuSans-48"/></g></g><g id="ytick_9"><use x="412.202" xlink:href="#m228ead3398" y="185.398" stroke="#000" stroke-width=".8" id="line2d_23"/><g transform="matrix(.1 0 0 -.1 392.477 189.197)" id="text_24"><use xlink:href="#DejaVuSans-52"/><use x="63.623" xlink:href="#DejaVuSans-48"/></g></g><g id="ytick_10"><use x="412.202" xlink:href="#m228ead3398" y="131.038" stroke="#000" stroke-width=".8" id="line2d_24"/><g transform="matrix(.1 0 0 -.1 392.477 134.837)" id="text_25"><use xlink:href="#DejaVuSans-54"/><use x="63.623" xlink:href="#DejaVuSans-48"/></g></g><g id="ytick_11"><use x="412.202" xlink:href="#m228ead3398" y="76.678" stroke="#000" stroke-width=".8" id="line2d_25"/><g transform="matrix(.1 0 0 -.1 392.477 80.477)" id="text_26"><use xlink:href="#DejaVuSans-56"/><use x="63.623" xlink:href="#DejaVuSans-48"/></g></g><g id="ytick_12"><use x="412.202" xlink:href="#m228ead3398" y="22.318" stroke="#000" stroke-width=".8" id="line2d_26"/><g transform="matrix(.1 0 0 -.1 386.114 26.117)" id="text_27"><use xlink:href="#DejaVuSans-49"/><use x="63.623" xlink:href="#DejaVuSans-48"/><use x="127.246" xlink:href="#DejaVuSans-48"/></g></g><g transform="matrix(0 -.1 -.1 0 380.035 182.88)" id="text_28"><use xlink:href="#DejaVuSans-80"/><use x="56.678" xlink:href="#DejaVuSans-101"/><use x="118.201" xlink:href="#DejaVuSans-114"/><use x="157.064" xlink:href="#DejaVuSans-99"/><use x="212.045" xlink:href="#DejaVuSans-101"/><use x="273.568" xlink:href="#DejaVuSans-110"/><use x="336.947" xlink:href="#DejaVuSans-116"/><use x="376.156" xlink:href="#DejaVuSans-105"/><use x="403.939" xlink:href="#DejaVuSans-108"/><use x="431.723" xlink:href="#DejaVuSans-101"/></g></g><path clip-path="url(#pbc811d6933)" d="M412.39 294.118l1.774-2.718 3.555-2.718.136-2.718 4.624-2.718 2.679-2.718.697-2.718 1.822-2.718 5.483-2.718 1.512-2.718 3.456-2.718 2.223-2.718 1.308-2.718 1.49-2.718.157-2.718.89-2.718.887-2.718 1.31-2.718 1.093-2.718.34-2.718.367-2.718 1.407-2.718.267-2.718 2.69-2.718.072-2.718 2.62-2.718.661-2.718 3.255-2.718.86-2.718.018-2.718 2.904-2.718 2.765-2.718.037-2.718 1.498-2.718.82-2.718.087-2.718.274-2.718 1.14-2.718.83-2.718.59-2.718 2.205-2.718 3.597-2.718.048-2.718 4.555-2.718 9.725-2.718 1.885-2.718 4.069-2.718.411-2.718 1.593-2.718 3.453-2.718 1.275-2.718 4.472-2.718.586-2.718 3.44-2.718 4.676-2.718 1.025-2.718 1.359-2.718 1.94-2.718 1.246-2.718 3.602-2.718 1.407-2.718 1.636-2.718 1.158-2.718 1.985-2.718 2.007-2.718 4.17-2.718 4.514-2.718 6.624-2.718.569-2.718.999-2.718 2.222-2.718.164-2.718 3.339-2.718 12.096-2.718 2.083-2.718 10.438-2.718 8.098-2.718 6.7-2.718.109-2.718.186-2.718 5.538-2.718 3.536-2.718 2.246-2.718.483-2.718.723-2.718 1.061-2.718.113-2.718.958-2.718 7.345-2.718 6.64-2.718 11.459-2.718 4.231-2.718 6.641-2.718 11.782-2.718 20.136-2.718 8.224-2.718 17.935-2.718 10.729-2.718 6.6-2.718 1.732-.042" fill="none" stroke="#1f77b4" stroke-linecap="square" stroke-width="1.5" id="line2d_27"/><path clip-path="url(#pbc811d6933)" d="M412.202 158.218h91.602" fill="none" stroke="gray" stroke-dasharray="5.55,2.4" stroke-opacity=".4" stroke-width="1.5" id="line2d_28"/><path clip-path="url(#pbc811d6933)" d="M503.804 294.118v-135.9" fill="none" stroke="gray" stroke-dasharray="5.55,2.4" stroke-opacity=".4" stroke-width="1.5" id="line2d_29"/><path clip-path="url(#pbc811d6933)" d="M412.202 90.268h158.92" fill="none" stroke="gray" stroke-dasharray="5.55,2.4" stroke-opacity=".4" stroke-width="1.5" id="line2d_30"/><path clip-path="url(#pbc811d6933)" d="M571.123 294.118V90.268" fill="none" stroke="gray" stroke-dasharray="5.55,2.4" stroke-opacity=".4" stroke-width="1.5" id="line2d_31"/><path d="M412.202 294.118v-271.8" fill="none" stroke="#000" stroke-linecap="square" stroke-width=".8" id="patch_8"/><path d="M716.566 294.118v-271.8" fill="none" stroke="#000" stroke-linecap="square" stroke-width=".8" id="patch_9"/><path d="M412.202 294.118h304.364" fill="none" stroke="#000" stroke-linecap="square" stroke-width=".8" id="patch_10"/><path d="M412.202 22.318h304.364" fill="none" stroke="#000" stroke-linecap="square" stroke-width=".8" id="patch_11"/><g transform="matrix(.12 0 0 -.12 513.61 16.318)" id="text_29"><use xlink:href="#DejaVuSans-67"/><use x="69.824" xlink:href="#DejaVuSans-117"/><use x="133.203" xlink:href="#DejaVuSans-109"/><use x="230.615" xlink:href="#DejaVuSans-117"/><use x="293.994" xlink:href="#DejaVuSans-108"/><use x="321.777" xlink:href="#DejaVuSans-97"/><use x="383.057" xlink:href="#DejaVuSans-116"/><use x="422.266" xlink:href="#DejaVuSans-105"/><use x="450.049" xlink:href="#DejaVuSans-118"/><use x="509.229" xlink:href="#DejaVuSans-101"/><use x="570.752" xlink:href="#DejaVuSans-32"/><use x="602.539" xlink:href="#DejaVuSans-69"/><use x="665.723" xlink:href="#DejaVuSans-114"/><use x="705.086" xlink:href="#DejaVuSans-114"/><use x="743.949" xlink:href="#DejaVuSans-111"/><use x="805.131" xlink:href="#DejaVuSans-114"/></g></g></g><defs><clipPath id="pff4f0df2ae"><path d="M46.966 22.318H351.33v271.8H46.966z"/></clipPath><clipPath id="pbc811d6933"><path d="M412.202 22.318h304.364v271.8H412.202z"/></clipPath></defs></svg>