<svg height="434.649" viewBox="0 0 417.654 325.986" width="556.872" xmlns="http://www.w3.org/2000/svg" xmlns:xlink="http://www.w3.org/1999/xlink"><defs><style>*{stroke-linecap:butt;stroke-linejoin:round}</style></defs><g id="figure_1"><path d="M0 325.986h417.654V0H0z" fill="#fff" id="patch_1"/><g id="axes_1"><path d="M46.966 288.43h357.12V22.318H46.966z" fill="#fff" id="patch_2"/><path clip-path="url(#p9493404b6a)" d="M119.552 288.43v-13.323l1.223-.341 1.173-.342.69-.341.868-.342 2.312-.342.112-.341 2.676-.342 1.683-.341 1.791-.342 2.278-.342.233-.341.353-.342.25-.341.424-.342.103-.342.437-.341 1.608-.342.589-.341 1.23-.342.517-.342.67-.341.347-.342.453-.342 2.728-.341.257-.342.004-.341.797-.342 1.635-.342.498-.341.134-.342.54-.341 1.488-.342 1.39-.342 1.189-.341.047-.342.359-.341.457-.342.454-.342.033-.341.03-.342.136-.341.423-.342.337-.342.442-.341.124-.342.637-.341.215-.342.3-.342.456-.341 1.693-.342.966-.342.104-.341.178-.342 1.085-.341 1.098-.342 1.562-.342.143-.341.463-.342.578-.341.487-.342.122-.342.407-.341.212-.342.146-.341 4.125-.342.233-.342 1.542-.341.286-.342.654-.341.33-.342.353-.342.14-.341.134-.342.599-.341.01-.342.133-.342.12-.341.226-.342 2.94-.342.294-.341.813-.342.166-.341.091-.342.216-.342.058-.341.421-.342.057-.341.105-.342.05-.342.273-.341.123-.342.17-.341.846-.342.302-.342.318-.341.402-.342.935-.341.807-.342.487-.342.388-.341 1.267-.342.65-.341.078-.342.284-.342.079-.341.06-.342.285-.342.182-.341.124-.342.084-.341.085-.342.135-.342.24-.341 1.321-.342.108-.341.423-.342.972-.342.268-.341 1.359-.342.147-.341.107-.342.275-.342.276-.341.247-.342.098-.341.03-.342.237-.342.167-.341.074-.342.363-.341.387-.342.09-.342.439-.341.05-.342.199-.342.115-.341.093-.342.024-.341v-.342l.1-.342.045-.341.118-.342.241-.341.287-.342.297-.342.273-.341.316-.342.06-.341.202-.342.07-.342.051-.341.137-.342v-.341l.938-.342.39-.342.2-.341.006-.342.239-.341.2-.342.388-.342.047-.341.063-.342.332-.342.034-.341.012-.342.293-.341.156-.342.246-.342.591-.341.295-.342.21-.341.182-.342.026-.342.498-.341.332-.342.087-.341.004-.342.081-.342.566-.341.021-.342.031-.341.135-.342.279-.342.093-.341.053-.342.126-.341.221-.342.04-.342.185-.341.592-.342.063-.342.901-.341.07-.342.452-.341.134-.342.067-.342v-.341l.058-.342.1-.341.013-.342.006-.342.077-.341.049-.342.02-.341.16-.342.044-.342.064-.341.114-.342.23-.341.045-.342.122-.342.037-.341.124-.342.432-.341.348-.342.354-.342.036-.341.126-.342.083-.342.117-.341.001-.342.075-.341.144-.342.112-.342.045-.341.011-.342.016-.341.028-.342.104-.342.232-.341.339-.342.128-.341.072-.342.087-.342.008-.341.042-.342.061-.341v-.342l.153-.342.198-.341v-.342l.013-.341.194-.342.236-.342.035-.341.053-.342.042-.342.072-.341.111-.342.034-.341.029-.342.062-.342.236-.341.053-.342.07-.341.142-.342.005-.342v-.341l.047-.342.048-.341.185-.342.036-.342.12-.341.055-.342.004-.341.01-.342.174-.342.036-.341.013-.342.065-.341.04-.342.308-.342.138-.341.017-.342.11-.342.038-.341.077-.342.037-.341.146-.342.136-.342.166-.341.041-.342.18-.341.068-.342.002-.342.05-.341.022-.342.194-.341.008-.342.074-.342.202-.341v-.342l.123-.341.012-.342.004-.342.273-.341v-.342l.08-.341.08-.342.054-.342.017-.341.13-.342.043-.342.056-.341.07-.342.077-.341.066-.342.09-.342.282-.341.074-.342.05-.341.176-.342.17-.342.007-.341.04-.342.123-.341.04-.342.152-.342.312-.341.042-.342.038-.341.057-.342.047-.342.026-.341.026-.342v-.341l.116-.342.033-.342.046-.341.143-.342.091-.342.007-.341.254-.342.006-.341.066-.342.047-.342.111-.341.033-.342.024-.341.092-.342.004-.342.014-.341.245-.342.057-.341.106-.342.19-.342.006-.341.158-.342.04-.341.136-.342.023-.342.052-.341.146-.342.106-.341.024-.342.172-.342.003-.341.006-.342.056-.342.123-.341.043-.342.12-.341.05-.342.023-.342.003-.341.068-.342.054-.341.117-.342.143-.342.105-.341.109-.342.021-.341.236-.342.01-.342.011-.341.038-.342.022-.341v-.342l.01-.342.006-.341.304-.342.286-.342.01-.341.016-.342.203-.341.018-.342.12-.342.114-.341.046-.342.251-.341.197-.342.006-.342.024-.341.007-.342.12-.341.079-.342.076-.342.05-.341.007-.342.117-.341.041-.342.016-.342.073-.341.03-.342.073-.341v-.342l.259-.342.074-.341.123-.342.051-.342.052-.341.158-.342.014-.341.172-.342.136-.342.044-.341.189-.342.198-.341.026-.342.07-.342.225-.341.188-.342.067-.341.004-.342.088-.342.085-.341.01-.342.113-.341v-.342l.04-.342.061-.341.052-.342.147-.341.414-.342.063-.342.029-.341.049-.342.08-.342.008-.341.129-.342.136-.341.005-.342.062-.342.065-.341.19-.342.141-.341.016-.342.025-.342.228-.341.055-.342.203-.341.152-.342.036-.342.035-.341 1.006-.342.023-.341.004-.342.156-.342.21-.341.029-.342.117-.341.002-.342.092-.342.037-.341.203-.342.073-.342.209-.341.107-.342.048-.341.148-.342.201-.342v-.341l.106-.342.065-.341.06-.342.018-.342.049-.341.17-.342.106-.341.047-.342.082-.342.006-.341.04-.342.18-.341.253-.342.189-.342.343-.341.042-.342.088-.341v-.342l.192-.342.012-.341.092-.342.001-.342.054-.341v-.342l.111-.341v-.342l.128-.342.18-.341.039-.342.017-.341.041-.342.14-.342.005-.341.092-.342.091-.341.181-.342.2-.342.01-.341.073-.342v-.341l.13-.342.025-.342.002-.341.047-.342.359-.341.122-.342.008-.342.081-.341.043-.342.222-.342.066-.341.402-.342.12-.341.272-.342.108-.342.122-.341.002-.342.118-.341.234-.342.188-.342.143-.341.015-.342.025-.341.157-.342.063-.342.046-.341.42-.342.01-.341.007-.342.111-.342.065-.341.037-.342.093-.341.01-.342.088-.342.197-.341.268-.342.021-.342.062-.341.537-.342V86.2l.39-.342.124-.342.163-.341.086-.342.053-.341.14-.342.093-.342.163-.341.151-.342.778-.341.11-.342.327-.342.124-.341.056-.342.32-.341.065-.342.045-.342.36-.341.298-.342.08-.341.182-.342.055-.342.988-.341.262-.342.175-.342.01-.341 1.087-.342.507-.341.134-.342.155-.342.106-.341.13-.342.447-.341.224-.342.586-.342.038-.341.878-.342.201-.341.06-.342.555-.342.205-.341.053-.342.113-.341.012-.342.39-.342.05-.341.396-.342.137-.341.284-.342.056-.342.581-.341.423-.342.202-.342.076-.341.238-.342.192-.341.44-.342.266-.342.84-.341.017-.342 1.513-.341 1.153-.342.471-.342.135-.341.181-.342.105-.341.407-.342.136-.342.41-.341.015-.342.156-.341.58-.342.318-.342.197-.341.023-.342.137-.341.524-.342.393-.342.105-.341.703-.342 1.403-.342 1.721-.341.114-.342.415-.341.795-.342.073-.342.007-.341.017-.342 1.558-.341.026-.342.238-.342 2.072-.341.58-.342.086-.341.053-.342 1.725-.342.03-.341.833-.342.459-.341.264-.342.537-.342.721-.341 1.627-.342.012-.341.607-.342.743-.342 1.238-.341 1.07-.342.395-.342.144-.341.373-.342.442-.341 1.47-.342.285-.342.313-.341 2.121-.342 3.256-.341.796-.342.371-.342.29-.341.568-.342.603-.341.086-.342.45-.342.312-.341.29-.342 1.142-.341.316-.342.242-.342.933-.341.085-.342.607-.341.433-.342 1.87-.342 4.017-.341 1.72-.342 1.58-.342 5.199-.341 1.382-.342 2.4-.341.463-.342 1.688-.342.26-.341.823-.342 1.067-.341.013-.342V288.43H119.552z" fill="#1f77b4" fill-opacity=".3" id="PolyCollection_1"/><g id="matplotlib.axis_1"><g id="xtick_1"><g id="line2d_1"><defs><path d="M0 0v3.5" id="m6f42aa68f7" stroke="#000" stroke-width=".8"/></defs><use x="51.73" xlink:href="#m6f42aa68f7" y="288.43" stroke="#000" stroke-width=".8"/></g><g id="text_1"><defs><path d="M10.594 35.5h62.593v-8.297H10.594z" id="DejaVuSans-8722"/><path d="M12.406 8.297h16.11v55.625l-17.532-3.516v8.985l17.438 3.515h9.86V8.296H54.39V0H12.406z" id="DejaVuSans-49"/><path d="M10.688 12.406H21V0H10.687z" id="DejaVuSans-46"/><path d="M31.781 66.406q-7.61 0-11.453-7.5Q16.5 51.422 16.5 36.375q0-14.984 3.828-22.484 3.844-7.5 11.453-7.5 7.672 0 11.5 7.5 3.844 7.5 3.844 22.484 0 15.047-3.844 22.531-3.828 7.5-11.5 7.5zm0 7.813q12.266 0 18.735-9.703 6.468-9.688 6.468-28.141 0-18.406-6.468-28.11-6.47-9.687-18.735-9.687-12.25 0-18.718 9.688-6.47 9.703-6.47 28.109 0 18.453 6.47 28.14Q19.53 74.22 31.78 74.22z" id="DejaVuSans-48"/></defs><g transform="matrix(.1 0 0 -.1 36.407 303.029)"><use xlink:href="#DejaVuSans-8722"/><use x="83.789" xlink:href="#DejaVuSans-49"/><use x="147.412" xlink:href="#DejaVuSans-46"/><use x="179.199" xlink:href="#DejaVuSans-48"/><use x="242.822" xlink:href="#DejaVuSans-48"/></g></g></g><g id="xtick_2"><use x="95.179" xlink:href="#m6f42aa68f7" y="288.43" stroke="#000" stroke-width=".8" id="line2d_2"/><g id="text_2"><defs><path d="M8.203 72.906h46.875v-4.203L28.61 0H18.312L43.22 64.594H8.203z" id="DejaVuSans-55"/><path d="M10.797 72.906h38.719v-8.312H19.828v-17.86q2.14.735 4.281 1.094 2.157.36 4.313.36 12.203 0 19.328-6.688 7.14-6.688 7.14-18.11 0-11.765-7.328-18.296-7.328-6.516-20.656-6.516-4.593 0-9.36.781-4.75.782-9.827 2.344v9.922q4.39-2.39 9.078-3.563 4.687-1.171 9.906-1.171 8.453 0 13.375 4.437 4.938 4.438 4.938 12.063 0 7.609-4.938 12.047-4.922 4.453-13.375 4.453-3.953 0-7.89-.875-3.922-.875-8.016-2.735z" id="DejaVuSans-53"/></defs><g transform="matrix(.1 0 0 -.1 79.856 303.029)"><use xlink:href="#DejaVuSans-8722"/><use x="83.789" xlink:href="#DejaVuSans-48"/><use x="147.412" xlink:href="#DejaVuSans-46"/><use x="179.199" xlink:href="#DejaVuSans-55"/><use x="242.822" xlink:href="#DejaVuSans-53"/></g></g></g><g id="xtick_3"><use x="138.628" xlink:href="#m6f42aa68f7" y="288.43" stroke="#000" stroke-width=".8" id="line2d_3"/><g transform="matrix(.1 0 0 -.1 123.305 303.029)" id="text_3"><use xlink:href="#DejaVuSans-8722"/><use x="83.789" xlink:href="#DejaVuSans-48"/><use x="147.412" xlink:href="#DejaVuSans-46"/><use x="179.199" xlink:href="#DejaVuSans-53"/><use x="242.822" xlink:href="#DejaVuSans-48"/></g></g><g id="xtick_4"><use x="182.077" xlink:href="#m6f42aa68f7" y="288.43" stroke="#000" stroke-width=".8" id="line2d_4"/><g id="text_4"><defs><path d="M19.188 8.297h34.421V0H7.33v8.297q5.609 5.812 15.296 15.594 9.703 9.797 12.188 12.64 4.734 5.313 6.609 9 1.89 3.688 1.89 7.25 0 5.813-4.078 9.469-4.078 3.672-10.625 3.672-4.64 0-9.797-1.61-5.14-1.609-11-4.89v9.969Q13.767 71.78 18.938 73q5.188 1.219 9.485 1.219 11.328 0 18.062-5.672 6.735-5.656 6.735-15.125 0-4.5-1.688-8.531-1.672-4.016-6.125-9.485-1.218-1.422-7.765-8.187-6.532-6.766-18.453-18.922z" id="DejaVuSans-50"/></defs><g transform="matrix(.1 0 0 -.1 166.754 303.029)"><use xlink:href="#DejaVuSans-8722"/><use x="83.789" xlink:href="#DejaVuSans-48"/><use x="147.412" xlink:href="#DejaVuSans-46"/><use x="179.199" xlink:href="#DejaVuSans-50"/><use x="242.822" xlink:href="#DejaVuSans-53"/></g></g></g><g id="xtick_5"><use x="225.526" xlink:href="#m6f42aa68f7" y="288.43" stroke="#000" stroke-width=".8" id="line2d_5"/><g transform="matrix(.1 0 0 -.1 214.393 303.029)" id="text_5"><use xlink:href="#DejaVuSans-48"/><use x="63.623" xlink:href="#DejaVuSans-46"/><use x="95.41" xlink:href="#DejaVuSans-48"/><use x="159.033" xlink:href="#DejaVuSans-48"/></g></g><g id="xtick_6"><use x="268.975" xlink:href="#m6f42aa68f7" y="288.43" stroke="#000" stroke-width=".8" id="line2d_6"/><g transform="matrix(.1 0 0 -.1 257.842 303.029)" id="text_6"><use xlink:href="#DejaVuSans-48"/><use x="63.623" xlink:href="#DejaVuSans-46"/><use x="95.41" xlink:href="#DejaVuSans-50"/><use x="159.033" xlink:href="#DejaVuSans-53"/></g></g><g id="xtick_7"><use x="312.423" xlink:href="#m6f42aa68f7" y="288.43" stroke="#000" stroke-width=".8" id="line2d_7"/><g transform="matrix(.1 0 0 -.1 301.29 303.029)" id="text_7"><use xlink:href="#DejaVuSans-48"/><use x="63.623" xlink:href="#DejaVuSans-46"/><use x="95.41" xlink:href="#DejaVuSans-53"/><use x="159.033" xlink:href="#DejaVuSans-48"/></g></g><g id="xtick_8"><use x="355.872" xlink:href="#m6f42aa68f7" y="288.43" stroke="#000" stroke-width=".8" id="line2d_8"/><g transform="matrix(.1 0 0 -.1 344.74 303.029)" id="text_8"><use xlink:href="#DejaVuSans-48"/><use x="63.623" xlink:href="#DejaVuSans-46"/><use x="95.41" xlink:href="#DejaVuSans-55"/><use x="159.033" xlink:href="#DejaVuSans-53"/></g></g><g id="xtick_9"><use x="399.321" xlink:href="#m6f42aa68f7" y="288.43" stroke="#000" stroke-width=".8" id="line2d_9"/><g transform="matrix(.1 0 0 -.1 388.188 303.029)" id="text_9"><use xlink:href="#DejaVuSans-49"/><use x="63.623" xlink:href="#DejaVuSans-46"/><use x="95.41" xlink:href="#DejaVuSans-48"/><use x="159.033" xlink:href="#DejaVuSans-48"/></g></g><g id="text_10"><defs><path d="M44.39 34.188q3.172-1.079 6.172-4.594 3-3.516 6.032-9.672L66.609 0H56l-9.313 18.703q-3.624 7.328-7.015 9.719-3.39 2.39-9.25 2.39h-10.75V0h-9.86v72.906h22.266q12.5 0 18.656-5.234 6.157-5.219 6.157-15.766 0-6.89-3.203-11.437-3.204-4.532-9.297-6.282zM19.673 64.797V38.922h12.406q7.125 0 10.766 3.297 3.64 3.297 3.64 9.687 0 6.39-3.64 9.64-3.64 3.25-10.766 3.25z" id="DejaVuSans-82"/><path d="M56.203 29.594v-4.39H14.891q.593-9.282 5.593-14.142 5-4.859 13.938-4.859 5.172 0 10.031 1.266 4.86 1.265 9.656 3.812v-8.5Q49.266.734 44.187-.344 39.11-1.422 33.892-1.422q-13.094 0-20.735 7.61-7.64 7.625-7.64 20.625 0 13.421 7.25 21.296Q20.016 56 32.328 56q11.031 0 17.453-7.11 6.422-7.093 6.422-19.296zm-8.984 2.64q-.094 7.36-4.125 11.75-4.032 4.407-10.672 4.407-7.516 0-12.031-4.25-4.516-4.25-5.203-11.97z" id="DejaVuSans-101"/><path d="M44.281 53.078v-8.5q-3.797 1.953-7.906 2.922-4.094.984-8.5.984-6.688 0-10.031-2.047-3.344-2.046-3.344-6.156 0-3.125 2.39-4.906 2.391-1.781 9.626-3.39l3.078-.688q9.562-2.047 13.593-5.781 4.032-3.735 4.032-10.422 0-7.625-6.032-12.078-6.03-4.438-16.578-4.438-4.39 0-9.156.86Q10.688.296 5.422 2v9.281q4.984-2.594 9.812-3.89 4.829-1.282 9.579-1.282 6.343 0 9.75 2.172 3.421 2.172 3.421 6.125 0 3.656-2.468 5.61-2.453 1.953-10.813 3.765l-3.125.735q-8.344 1.75-12.062 5.39-3.704 3.64-3.704 9.985 0 7.718 5.47 11.906Q16.75 56 26.811 56q4.97 0 9.36-.734 4.406-.72 8.11-2.188z" id="DejaVuSans-115"/><path d="M9.422 54.688h8.984V0H9.422zm0 21.296h8.984v-11.39H9.422z" id="DejaVuSans-105"/><path d="M45.406 46.39v29.594h8.985V0h-8.985v8.203Q42.578 3.328 38.25.953q-4.313-2.375-10.375-2.375-9.906 0-16.14 7.906-6.22 7.922-6.22 20.813 0 12.89 6.22 20.797Q17.968 56 27.874 56q6.063 0 10.375-2.375 4.328-2.36 7.156-7.234zm-30.61-19.093q0-9.906 4.079-15.547 4.078-5.64 11.203-5.64 7.125 0 11.219 5.64 4.11 5.64 4.11 15.547 0 9.906-4.11 15.547-4.094 5.64-11.219 5.64-7.125 0-11.203-5.64-4.078-5.64-4.078-15.547z" id="DejaVuSans-100"/><path d="M8.5 21.578v33.11h8.984V21.922q0-7.766 3.016-11.656 3.031-3.875 9.094-3.875 7.265 0 11.484 4.64 4.234 4.64 4.234 12.656v31h8.985V0h-8.984v8.406Q42.047 3.422 37.718 1q-4.313-2.422-10.032-2.422-9.421 0-14.312 5.86Q8.5 10.296 8.5 21.578zM31.11 56z" id="DejaVuSans-117"/><path d="M34.281 27.484q-10.89 0-15.093-2.484-4.204-2.484-4.204-8.5 0-4.781 3.157-7.594 3.156-2.797 8.562-2.797 7.485 0 12 5.297 4.516 5.297 4.516 14.078v2zm17.922 3.72V0H43.22v8.297Q40.14 3.328 35.547.953q-4.594-2.375-11.234-2.375-8.391 0-13.36 4.719Q6 8.016 6 15.922q0 9.219 6.172 13.906 6.187 4.688 18.437 4.688h12.61v.89q0 6.203-4.078 9.594-4.078 3.39-11.453 3.39-4.688 0-9.141-1.124-4.438-1.125-8.531-3.375v8.312q4.921 1.906 9.562 2.844 4.64.953 9.031.953 11.875 0 17.735-6.156 5.86-6.14 5.86-18.64z" id="DejaVuSans-97"/><path d="M9.422 75.984h8.984V0H9.422z" id="DejaVuSans-108"/></defs><g transform="matrix(.1 0 0 -.1 204.188 316.707)"><use xlink:href="#DejaVuSans-82"/><use x="69.42" xlink:href="#DejaVuSans-101"/><use x="130.943" xlink:href="#DejaVuSans-115"/><use x="183.043" xlink:href="#DejaVuSans-105"/><use x="210.826" xlink:href="#DejaVuSans-100"/><use x="274.303" xlink:href="#DejaVuSans-117"/><use x="337.682" xlink:href="#DejaVuSans-97"/><use x="398.961" xlink:href="#DejaVuSans-108"/></g></g></g><g id="matplotlib.axis_2"><g id="ytick_1"><g id="line2d_10"><defs><path d="M0 0h-3.5" id="mbe72518219" stroke="#000" stroke-width=".8"/></defs><use x="46.966" xlink:href="#mbe72518219" y="288.43" stroke="#000" stroke-width=".8"/></g><use xlink:href="#DejaVuSans-48" transform="matrix(.1 0 0 -.1 33.603 292.23)" id="text_11"/></g><g id="ytick_2"><use x="46.966" xlink:href="#mbe72518219" y="235.208" stroke="#000" stroke-width=".8" id="line2d_11"/><g transform="matrix(.1 0 0 -.1 27.24 239.007)" id="text_12"><use xlink:href="#DejaVuSans-50"/><use x="63.623" xlink:href="#DejaVuSans-48"/></g></g><g id="ytick_3"><use x="46.966" xlink:href="#mbe72518219" y="181.985" stroke="#000" stroke-width=".8" id="line2d_12"/><g id="text_13"><defs><path d="M37.797 64.313L12.89 25.39h24.906zm-2.594 8.593H47.61V25.391h10.407v-8.203H47.609V0h-9.812v17.188H4.89v9.515z" id="DejaVuSans-52"/></defs><g transform="matrix(.1 0 0 -.1 27.24 185.785)"><use xlink:href="#DejaVuSans-52"/><use x="63.623" xlink:href="#DejaVuSans-48"/></g></g></g><g id="ytick_4"><use x="46.966" xlink:href="#mbe72518219" y="128.763" stroke="#000" stroke-width=".8" id="line2d_13"/><g id="text_14"><defs><path d="M33.016 40.375q-6.641 0-10.532-4.547-3.875-4.531-3.875-12.437 0-7.86 3.875-12.438 3.891-4.562 10.532-4.562 6.64 0 10.515 4.562 3.875 4.578 3.875 12.438 0 7.906-3.875 12.437-3.875 4.547-10.515 4.547zm19.578 30.922v-8.984q-3.719 1.75-7.5 2.671-3.782.938-7.5.938-9.766 0-14.922-6.594-5.14-6.594-5.875-19.922 2.875 4.25 7.219 6.516 4.359 2.266 9.578 2.266 10.984 0 17.36-6.672 6.374-6.657 6.374-18.125 0-11.235-6.64-18.032-6.641-6.78-17.672-6.78-12.657 0-19.344 9.687-6.688 9.703-6.688 28.109 0 17.281 8.204 27.563 8.203 10.28 22.015 10.28 3.719 0 7.5-.734t7.89-2.187z" id="DejaVuSans-54"/></defs><g transform="matrix(.1 0 0 -.1 27.24 132.562)"><use xlink:href="#DejaVuSans-54"/><use x="63.623" xlink:href="#DejaVuSans-48"/></g></g></g><g id="ytick_5"><use x="46.966" xlink:href="#mbe72518219" y="75.541" stroke="#000" stroke-width=".8" id="line2d_14"/><g id="text_15"><defs><path d="M31.781 34.625q-7.031 0-11.062-3.766-4.016-3.765-4.016-10.343 0-6.594 4.016-10.36Q24.75 6.391 31.78 6.391q7.032 0 11.078 3.78 4.063 3.798 4.063 10.345 0 6.578-4.031 10.343-4.016 3.766-11.11 3.766zm-9.86 4.188q-6.343 1.562-9.89 5.906Q8.5 49.079 8.5 55.329q0 8.733 6.219 13.812 6.234 5.078 17.062 5.078 10.89 0 17.094-5.078 6.203-5.079 6.203-13.813 0-6.25-3.547-10.61-3.531-4.343-9.828-5.906 7.125-1.656 11.094-6.5 3.984-4.828 3.984-11.796 0-10.61-6.468-16.282-6.47-5.656-18.532-5.656-12.047 0-18.531 5.656-6.469 5.672-6.469 16.282 0 6.968 4 11.797 4.016 4.843 11.14 6.5zM18.314 54.39q0-5.657 3.53-8.828 3.548-3.172 9.938-3.172 6.36 0 9.938 3.172 3.593 3.171 3.593 8.828 0 5.672-3.593 8.843-3.578 3.172-9.938 3.172-6.39 0-9.937-3.172-3.532-3.172-3.532-8.843z" id="DejaVuSans-56"/></defs><g transform="matrix(.1 0 0 -.1 27.24 79.34)"><use xlink:href="#DejaVuSans-56"/><use x="63.623" xlink:href="#DejaVuSans-48"/></g></g></g><g id="ytick_6"><use x="46.966" xlink:href="#mbe72518219" y="22.318" stroke="#000" stroke-width=".8" id="line2d_15"/><g transform="matrix(.1 0 0 -.1 20.878 26.117)" id="text_16"><use xlink:href="#DejaVuSans-49"/><use x="63.623" xlink:href="#DejaVuSans-48"/><use x="127.246" xlink:href="#DejaVuSans-48"/></g></g><g id="text_17"><defs><path d="M19.672 64.797v-27.39h12.406q6.89 0 10.64 3.562 3.766 3.562 3.766 10.156 0 6.547-3.765 10.11-3.75 3.562-10.64 3.562zm-9.86 8.11h22.266q12.266 0 18.531-5.548 6.282-5.546 6.282-16.234 0-10.797-6.282-16.313-6.265-5.515-18.53-5.515H19.671V0h-9.86z" id="DejaVuSans-80"/><path d="M41.11 46.297q-1.516.875-3.297 1.281Q36.03 48 33.89 48q-7.625 0-11.703-4.953-4.079-4.953-4.079-14.234V0H9.08v54.688h9.03v-8.5q2.844 4.984 7.375 7.39Q30.031 56 36.531 56q.922 0 2.047-.125 1.125-.11 2.484-.36z" id="DejaVuSans-114"/><path d="M48.781 52.594v-8.407q-3.812 2.11-7.64 3.157-3.828 1.047-7.735 1.047-8.75 0-13.593-5.547-4.829-5.532-4.829-15.547 0-10.016 4.829-15.563 4.843-5.53 13.593-5.53 3.907 0 7.735 1.046 3.828 1.047 7.64 3.156V2.094Q45.016.344 40.984-.531q-4.015-.89-8.562-.89-12.36 0-19.64 7.765-7.266 7.765-7.266 20.953 0 13.375 7.343 21.031Q20.22 56 33.016 56q4.14 0 8.093-.86 3.953-.843 7.672-2.546z" id="DejaVuSans-99"/><path d="M54.89 33.016V0h-8.984v32.719q0 7.765-3.031 11.61-3.031 3.858-9.078 3.858-7.281 0-11.484-4.64-4.204-4.625-4.204-12.64V0H9.08v54.688h9.03v-8.5q3.235 4.937 7.594 7.374Q30.078 56 35.797 56q9.422 0 14.25-5.828 4.844-5.828 4.844-17.156z" id="DejaVuSans-110"/><path d="M18.313 70.219V54.688h18.5v-6.985h-18.5V18.016q0-6.688 1.828-8.594 1.828-1.906 7.453-1.906h9.218V0h-9.218q-10.407 0-14.36 3.875-3.953 3.89-3.953 14.14v29.688H2.687v6.984h6.594V70.22z" id="DejaVuSans-116"/></defs><g transform="matrix(0 -.1 -.1 0 14.798 180.326)"><use xlink:href="#DejaVuSans-80"/><use x="60.256" xlink:href="#DejaVuSans-101"/><use x="121.779" xlink:href="#DejaVuSans-114"/><use x="162.861" xlink:href="#DejaVuSans-99"/><use x="217.842" xlink:href="#DejaVuSans-101"/><use x="279.365" xlink:href="#DejaVuSans-110"/><use x="342.744" xlink:href="#DejaVuSans-116"/><use x="381.953" xlink:href="#DejaVuSans-105"/><use x="409.736" xlink:href="#DejaVuSans-108"/><use x="437.52" xlink:href="#DejaVuSans-101"/></g></g></g><path clip-path="url(#p9493404b6a)" d="M-1 287.797l6.567-.05.626-.342 28.226-.341 4.052-.684 5.012-.341.131-.342 20.985-1.025.41-.683 1.101-.341 1.63-.342 4.505-.342 6.49-.341.243-.342 1.583-.683 3.707-.342 1.471-.341.513-.342 3.531-.341 5.988-.342 1.096-.683.101-.342 3.668-.341.06-.342 1.653-.342.304-.341v-.342l1.088-.342.393-.341 4.795-.342.62-.341 2.161-.342 7.842-.342 2.396-.683 1.558-.683 2.312-.342.112-.341 2.676-.342 3.474-.683 2.278-.342.586-.683.25-.341.424-.342.103-.342.437-.341 1.608-.342.589-.341 1.23-.342 1.987-1.367 2.728-.341.257-.342.004-.341.797-.342 1.635-.342.498-.341.134-.342.54-.341 4.067-1.025.047-.342.816-.683.454-.342.199-1.024 1.202-1.025.124-.342.637-.341.515-.684.456-.341 1.693-.342.966-.342.282-.683 2.183-.683 1.562-.342.143-.341 1.528-1.025.122-.342.407-.341.358-.683 4.125-.342.233-.342 1.542-.341.286-.342.654-.341.683-.684.274-.683.599-.341.01-.342.479-1.025 2.94-.342.294-.341.813-.342.473-1.025.058-.341.421-.342.212-1.025.273-.341.294-.683.845-.342 1.022-1.025 1.742-.683.875-.683 1.267-.342.65-.341.078-.342.284-.342.14-.683.466-.683.667-1.708 1.322-.342.108-.341.423-.342.972-.342.268-.341 1.359-.342.53-1.025.522-.683.365-1.025.604-1.024.387-.342.09-.342.439-.341.05-.342.314-.683.117-.683.1-.684.163-.683 1.098-1.366.316-.342.06-.341.202-.342.258-1.366.938-.342.39-.342.2-.341.006-.342.874-1.366.063-.342.332-.342.046-.683.45-.683.245-.342.591-.341.505-.683.182-.342.026-.342.83-.683.172-1.025.566-.341.052-.683.135-.342.279-.342.272-1.024.221-.342.04-.342.185-.341.592-.342.063-.342.901-.341.07-.342.452-.341.2-.684.059-.683.113-.683.083-.683.337-1.708.672-2.05 1.134-1.025.162-.683.588-2.733.148-1.025.699-1.024.27-1.708v-.342l.351-1.025.013-.341.465-1.025.403-2.392.236-.341.365-2.391.185-.342.225-1.708.174-.342.154-1.366.308-.342.138-.341.127-.684.152-1.024.67-1.708.12-1.025.021-.342.194-.341.082-.684.202-.341v-.342l.135-.683.004-.342.273-.341.08-.683.527-2.733.156-.684.282-.341.3-1.025.17-.342.047-.683.315-1.025.312-.341.43-3.416.235-.684.007-.341.254-.342.119-1.025.144-.683.134-1.366.245-.342.163-.683.19-.342.006-.341.198-.683.159-.684.198-.683.302-1.025.065-1.025.286-1.024.458-2.392.481-1.708.087-2.05.59-.683.026-.683.203-.341.137-.684.412-1.024.197-.342.037-1.025.275-1.025.407-3.074.259-.342.472-2.05.308-.683.044-.341.387-.683.097-.684.412-.683.367-2.391.153-1.025.147-.341.414-.342.626-3.416.331-.683.04-.684.229-.341.055-.342.355-.683.071-.683 1.006-.342.027-.683.512-1.366.094-.684.037-.341.203-.342.073-.342.316-.683.196-.683.201-.342.106-.683.823-3.757.785-1.025.13-1.025.192-.342.16-1.708.457-1.708.058-.683.14-.342.097-.683.272-.683.2-.342.083-1.024.155-.684.05-.683.358-.341.13-.684.412-1.366.402-.342.12-.341.272-.342.584-1.708.331-.683.04-.683.22-.684.046-.341.42-.342.128-1.025.49-2.05.268-.34.083-.684.537-.342V86.2l.39-.342.973-2.733.778-.341.11-.342.327-.342.18-.683.32-.341.11-.684.658-.683.317-1.025.988-.341.437-.684.01-.341 1.087-.342.507-.341.526-1.367.446-.341.224-.342.586-.342.038-.341.878-.342.201-.341.06-.342.555-.342.205-.341.178-1.025.39-.342.05-.341.396-.342.137-.341.284-.342.056-.342 1.004-.683.708-1.366.706-.684.84-.341.017-.342 2.666-.683.471-.342.42-1.024.408-.342.136-.342.41-.341.015-.342.156-.341.58-.342.515-.683.023-.342.137-.341.917-.684.105-.341.703-.342 3.124-.683.114-.342.415-.341.795-.342.08-.683.017-.342 1.558-.341.026-.342.238-.342 2.072-.341.58-.342.14-.683 1.724-.342.03-.341.833-.342.459-.341.264-.342 1.258-.683 1.627-.342.012-.341 1.35-.684 2.308-.683.395-.342.144-.341.815-.683 1.47-.342.598-.683 2.121-.342 3.256-.341.796-.342 1.23-1.025.602-.341.086-.342.762-.683.29-.342 1.142-.341.558-.684.933-.341.085-.342 1.04-.683 1.87-.342 4.017-.341 3.3-.684 5.199-.341 1.382-.342 2.4-.341.463-.342 1.688-.342.26-.341 1.89-.683.013-.342.42-.342 7.565-.341 4.691-.683.328-.342.658-.342 2.343-.683 10.332-.341 2.316-.342.81-.342 3.535-.341 1.751-.342 8.55-.341 1.79-.342.416-.342 3.15-.683.56-.342 4.524-.341 1.43-.342 17.837-.683 4.611-.342 1.534-.341 2.926-.342.823-.341 12.14-.21h0" fill="none" stroke="#1f77b4" stroke-linecap="square" stroke-width="1.5" id="line2d_16"/><path clip-path="url(#p9493404b6a)" d="M225.526 288.43V22.318" fill="none" stroke="gray" stroke-dasharray="5.55,2.4" stroke-opacity=".4" stroke-width="1.5" id="line2d_17"/><path clip-path="url(#p9493404b6a)" d="M46.966 155.374h178.56" fill="none" stroke="gray" stroke-dasharray="5.55,2.4" stroke-opacity=".4" stroke-width="1.5" id="line2d_18"/><path d="M46.966 288.43V22.318" fill="none" stroke="#000" stroke-linecap="square" stroke-width=".8" id="patch_3"/><path d="M404.086 288.43V22.318" fill="none" stroke="#000" stroke-linecap="square" stroke-width=".8" id="patch_4"/><path d="M46.966 288.43h357.12" fill="none" stroke="#000" stroke-linecap="square" stroke-width=".8" id="patch_5"/><path d="M46.966 22.318h357.12" fill="none" stroke="#000" stroke-linecap="square" stroke-width=".8" id="patch_6"/><g id="text_18"><defs><path d="M64.406 67.281v-10.39q-4.984 4.64-10.625 6.922-5.64 2.296-11.984 2.296-12.5 0-19.14-7.64-6.641-7.64-6.641-22.094 0-14.406 6.64-22.047 6.64-7.64 19.14-7.64 6.345 0 11.985 2.296 5.64 2.297 10.625 6.938V5.609Q59.234 2.094 53.437.33q-5.78-1.75-12.218-1.75-16.563 0-26.094 10.124-9.516 10.14-9.516 27.672 0 17.578 9.516 27.703 9.531 10.14 26.094 10.14 6.531 0 12.312-1.734 5.797-1.734 10.875-5.203z" id="DejaVuSans-67"/><path d="M52 44.188q3.375 6.062 8.063 8.937Q64.75 56 71.093 56q8.548 0 13.188-5.984 4.64-5.97 4.64-17V0h-9.03v32.719q0 7.86-2.797 11.656-2.781 3.813-8.485 3.813-6.984 0-11.046-4.641-4.047-4.625-4.047-12.64V0h-9.032v32.719q0 7.906-2.78 11.687-2.782 3.782-8.595 3.782-6.89 0-10.953-4.657-4.047-4.656-4.047-12.625V0H9.08v54.688h9.03v-8.5q3.078 5.03 7.375 7.421Q29.781 56 35.687 56q5.97 0 10.141-3.031Q50 49.953 52 44.187z" id="DejaVuSans-109"/><path d="M2.984 54.688H12.5L29.594 8.797l17.093 45.89h9.516L35.687 0H23.485z" id="DejaVuSans-118"/></defs><g transform="matrix(.12 0 0 -.12 163.769 16.318)"><use xlink:href="#DejaVuSans-67"/><use x="69.824" xlink:href="#DejaVuSans-117"/><use x="133.203" xlink:href="#DejaVuSans-109"/><use x="230.615" xlink:href="#DejaVuSans-117"/><use x="293.994" xlink:href="#DejaVuSans-108"/><use x="321.777" xlink:href="#DejaVuSans-97"/><use x="383.057" xlink:href="#DejaVuSans-116"/><use x="422.266" xlink:href="#DejaVuSans-105"/><use x="450.049" xlink:href="#DejaVuSans-118"/><use x="509.229" xlink:href="#DejaVuSans-101"/><use x="570.752" xlink:href="#DejaVuSans-32"/><use x="602.539" xlink:href="#DejaVuSans-82"/><use x="671.959" xlink:href="#DejaVuSans-101"/><use x="733.482" xlink:href="#DejaVuSans-115"/><use x="785.582" xlink:href="#DejaVuSans-105"/><use x="813.365" xlink:href="#DejaVuSans-100"/><use x="876.842" xlink:href="#DejaVuSans-117"/><use x="940.221" xlink:href="#DejaVuSans-97"/><use x="1001.5" xlink:href="#DejaVuSans-108"/></g></g></g></g><defs><clipPath id="p9493404b6a"><path d="M46.966 22.318h357.12V288.43H46.966z"/></clipPath></defs></svg>