<svg height="369.752" viewBox="0 0 388.966 277.314" width="518.621" xmlns="http://www.w3.org/2000/svg" xmlns:xlink="http://www.w3.org/1999/xlink"><defs><style>*{stroke-linecap:butt;stroke-linejoin:round}</style></defs><g id="figure_1"><path d="M0 277.314h388.966V0H0z" fill="none" id="patch_1"/><g id="axes_1"><path d="M46.966 239.758h334.8V22.318h-334.8z" fill="#fff" id="patch_2"/><path clip-path="url(#pf037030f7f)" d="M470.734 239.758v-10.872l-393.392-2.174-141.818-2.175 172.943-2.174-6.266-2.174-152.448-2.175 271.464-2.174-57.052-2.175-335.778-2.174 326.571-2.174-232.936-2.175 406.092-2.174-5.872-2.175-355.124-2.174 208.623-2.174-3.833-2.175 122.661-2.174 25.185-2.175 226.589-2.174-344.74-2.174 233.122-2.175-377.207-2.174-37.908-2.175 357.209-2.174-406.156-2.174 489.76-2.175-177.705-2.174-21.913-2.175-30.352-2.174 224.226-2.174 124.147-2.175-366.897-2.174-233.486-2.175 321.841-2.174 159.999-2.174-99.204-2.175-118.81-2.174-78.014-2.175 3.34-2.174 113.263-2.174-350.59-2.175-93.686-2.174 338.055-2.175-4.086-2.174 175.195-2.174-184.834-2.175 183.561-2.174-281.777-2.175 107.433-2.174-25.243-2.174 214.754-2.175-12.207-2.174-132.834-2.175-342.424-2.174 307.236-2.174-272.018-2.175 351.665-2.174-124.955-2.175 178.258-2.174-295.337-2.174 235.77-2.175-267.474-2.174 302.045-2.175 76.179-2.174-181.372-2.174-30.82-2.175 306.115-2.174-118.8-2.175-105.085-2.174 21.614-2.174-47.85-2.175 142.497-2.174-65.658-2.175 2.446-2.174 47.036-2.174-18.966-2.175 425.472-2.174-705.542-2.175 355.323-2.174-4.203-2.174-237.832-2.175-178.153-2.174 415.278-2.175-101.306-2.174 72.124-2.174-200.882-2.175 288.064-2.174.136-2.175-53.429-2.174v202.22h53.429-288.2 200.882-72.124 101.306-415.278 420.188H34.631h705.542-425.472 18.966-49.482 65.658-142.497 47.85-21.614 223.885-306.114 212.191H-14.68h267.474-235.77 295.337-178.258 124.955-351.665H179.41h-307.236H359.64 144.886h25.243H62.696h281.777-183.561 184.834H170.55h4.086-338.055H280.86 164.253h296.029-481.839 600.383-348.373 229.971-489.76 406.155H19.61h415.115-233.122 344.74-374.435 3.833-208.623 360.996-406.092 232.936-326.571 392.83-271.464 158.714-172.943 535.21z" fill="#1f77b4" fill-opacity=".3" id="PolyCollection_1"/><g id="matplotlib.axis_1"><g id="xtick_1"><g id="line2d_1"><defs><path d="M0 0v3.5" id="mbaa264f1f7" stroke="#000" stroke-width=".8"/></defs><use x="83.804" xlink:href="#mbaa264f1f7" y="239.758" stroke="#000" stroke-width=".8"/></g><g transform="matrix(.1 0 0 -.1 68.481 254.357)" id="text_1"><defs><path d="M10.594 35.5h62.593v-8.297H10.594z" id="DejaVuSans-8722"/><path d="M31.781 66.406q-7.61 0-11.453-7.5Q16.5 51.422 16.5 36.375q0-14.984 3.828-22.484 3.844-7.5 11.453-7.5 7.672 0 11.5 7.5 3.844 7.5 3.844 22.484 0 15.047-3.844 22.531-3.828 7.5-11.5 7.5zm0 7.813q12.266 0 18.735-9.703 6.468-9.688 6.468-28.141 0-18.406-6.468-28.11-6.47-9.687-18.735-9.687-12.25 0-18.718 9.688-6.47 9.703-6.47 28.109 0 18.453 6.47 28.14Q19.53 74.22 31.78 74.22z" id="DejaVuSans-48"/><path d="M10.688 12.406H21V0H10.687z" id="DejaVuSans-46"/><path d="M12.406 8.297h16.11v55.625l-17.532-3.516v8.985l17.438 3.515h9.86V8.296H54.39V0H12.406z" id="DejaVuSans-49"/></defs><use xlink:href="#DejaVuSans-8722"/><use x="83.789" xlink:href="#DejaVuSans-48"/><use x="147.412" xlink:href="#DejaVuSans-46"/><use x="179.199" xlink:href="#DejaVuSans-49"/><use x="242.822" xlink:href="#DejaVuSans-48"/></g></g><g id="xtick_2"><use x="149.085" xlink:href="#mbaa264f1f7" y="239.758" stroke="#000" stroke-width=".8" id="line2d_2"/><g transform="matrix(.1 0 0 -.1 133.762 254.357)" id="text_2"><defs><path d="M10.797 72.906h38.719v-8.312H19.828v-17.86q2.14.735 4.281 1.094 2.157.36 4.313.36 12.203 0 19.328-6.688 7.14-6.688 7.14-18.11 0-11.765-7.328-18.296-7.328-6.516-20.656-6.516-4.593 0-9.36.781-4.75.782-9.827 2.344v9.922q4.39-2.39 9.078-3.563 4.687-1.171 9.906-1.171 8.453 0 13.375 4.437 4.938 4.438 4.938 12.063 0 7.609-4.938 12.047-4.922 4.453-13.375 4.453-3.953 0-7.89-.875-3.922-.875-8.016-2.735z" id="DejaVuSans-53"/></defs><use xlink:href="#DejaVuSans-8722"/><use x="83.789" xlink:href="#DejaVuSans-48"/><use x="147.412" xlink:href="#DejaVuSans-46"/><use x="179.199" xlink:href="#DejaVuSans-48"/><use x="242.822" xlink:href="#DejaVuSans-53"/></g></g><g id="xtick_3"><use x="214.366" xlink:href="#mbaa264f1f7" y="239.758" stroke="#000" stroke-width=".8" id="line2d_3"/><g transform="matrix(.1 0 0 -.1 203.233 254.357)" id="text_3"><use xlink:href="#DejaVuSans-48"/><use x="63.623" xlink:href="#DejaVuSans-46"/><use x="95.41" xlink:href="#DejaVuSans-48"/><use x="159.033" xlink:href="#DejaVuSans-48"/></g></g><g id="xtick_4"><use x="279.647" xlink:href="#mbaa264f1f7" y="239.758" stroke="#000" stroke-width=".8" id="line2d_4"/><g transform="matrix(.1 0 0 -.1 268.514 254.357)" id="text_4"><use xlink:href="#DejaVuSans-48"/><use x="63.623" xlink:href="#DejaVuSans-46"/><use x="95.41" xlink:href="#DejaVuSans-48"/><use x="159.033" xlink:href="#DejaVuSans-53"/></g></g><g id="xtick_5"><use x="344.928" xlink:href="#mbaa264f1f7" y="239.758" stroke="#000" stroke-width=".8" id="line2d_5"/><g transform="matrix(.1 0 0 -.1 333.795 254.357)" id="text_5"><use xlink:href="#DejaVuSans-48"/><use x="63.623" xlink:href="#DejaVuSans-46"/><use x="95.41" xlink:href="#DejaVuSans-49"/><use x="159.033" xlink:href="#DejaVuSans-48"/></g></g><g transform="matrix(.1 0 0 -.1 193.25 268.035)" id="text_6"><defs><path d="M44.39 34.188q3.172-1.079 6.172-4.594 3-3.516 6.032-9.672L66.609 0H56l-9.313 18.703q-3.624 7.328-7.015 9.719-3.39 2.39-9.25 2.39h-10.75V0h-9.86v72.906h22.266q12.5 0 18.656-5.234 6.157-5.219 6.157-15.766 0-6.89-3.203-11.437-3.204-4.532-9.297-6.282zM19.673 64.797V38.922h12.406q7.125 0 10.766 3.297 3.64 3.297 3.64 9.687 0 6.39-3.64 9.64-3.64 3.25-10.766 3.25z" id="DejaVuSans-82"/><path d="M56.203 29.594v-4.39H14.891q.593-9.282 5.593-14.142 5-4.859 13.938-4.859 5.172 0 10.031 1.266 4.86 1.265 9.656 3.812v-8.5Q49.266.734 44.187-.344 39.11-1.422 33.892-1.422q-13.094 0-20.735 7.61-7.64 7.625-7.64 20.625 0 13.421 7.25 21.296Q20.016 56 32.328 56q11.031 0 17.453-7.11 6.422-7.093 6.422-19.296zm-8.984 2.64q-.094 7.36-4.125 11.75-4.032 4.407-10.672 4.407-7.516 0-12.031-4.25-4.516-4.25-5.203-11.97z" id="DejaVuSans-101"/><path d="M44.281 53.078v-8.5q-3.797 1.953-7.906 2.922-4.094.984-8.5.984-6.688 0-10.031-2.047-3.344-2.046-3.344-6.156 0-3.125 2.39-4.906 2.391-1.781 9.626-3.39l3.078-.688q9.562-2.047 13.593-5.781 4.032-3.735 4.032-10.422 0-7.625-6.032-12.078-6.03-4.438-16.578-4.438-4.39 0-9.156.86Q10.688.296 5.422 2v9.281q4.984-2.594 9.812-3.89 4.829-1.282 9.579-1.282 6.343 0 9.75 2.172 3.421 2.172 3.421 6.125 0 3.656-2.468 5.61-2.453 1.953-10.813 3.765l-3.125.735q-8.344 1.75-12.062 5.39-3.704 3.64-3.704 9.985 0 7.718 5.47 11.906Q16.75 56 26.811 56q4.97 0 9.36-.734 4.406-.72 8.11-2.188z" id="DejaVuSans-115"/><path d="M9.422 54.688h8.984V0H9.422zm0 21.296h8.984v-11.39H9.422z" id="DejaVuSans-105"/><path d="M45.406 46.39v29.594h8.985V0h-8.985v8.203Q42.578 3.328 38.25.953q-4.313-2.375-10.375-2.375-9.906 0-16.14 7.906-6.22 7.922-6.22 20.813 0 12.89 6.22 20.797Q17.968 56 27.874 56q6.063 0 10.375-2.375 4.328-2.36 7.156-7.234zm-30.61-19.093q0-9.906 4.079-15.547 4.078-5.64 11.203-5.64 7.125 0 11.219 5.64 4.11 5.64 4.11 15.547 0 9.906-4.11 15.547-4.094 5.64-11.219 5.64-7.125 0-11.203-5.64-4.078-5.64-4.078-15.547z" id="DejaVuSans-100"/><path d="M8.5 21.578v33.11h8.984V21.922q0-7.766 3.016-11.656 3.031-3.875 9.094-3.875 7.265 0 11.484 4.64 4.234 4.64 4.234 12.656v31h8.985V0h-8.984v8.406Q42.047 3.422 37.718 1q-4.313-2.422-10.032-2.422-9.421 0-14.312 5.86Q8.5 10.296 8.5 21.578zM31.11 56z" id="DejaVuSans-117"/><path d="M34.281 27.484q-10.89 0-15.093-2.484-4.204-2.484-4.204-8.5 0-4.781 3.157-7.594 3.156-2.797 8.562-2.797 7.485 0 12 5.297 4.516 5.297 4.516 14.078v2zm17.922 3.72V0H43.22v8.297Q40.14 3.328 35.547.953q-4.594-2.375-11.234-2.375-8.391 0-13.36 4.719Q6 8.016 6 15.922q0 9.219 6.172 13.906 6.187 4.688 18.437 4.688h12.61v.89q0 6.203-4.078 9.594-4.078 3.39-11.453 3.39-4.688 0-9.141-1.124-4.438-1.125-8.531-3.375v8.312q4.921 1.906 9.562 2.844 4.64.953 9.031.953 11.875 0 17.735-6.156 5.86-6.14 5.86-18.64z" id="DejaVuSans-97"/><path d="M9.422 75.984h8.984V0H9.422z" id="DejaVuSans-108"/></defs><use xlink:href="#DejaVuSans-82"/><use x="64.982" xlink:href="#DejaVuSans-101"/><use x="126.506" xlink:href="#DejaVuSans-115"/><use x="178.605" xlink:href="#DejaVuSans-105"/><use x="206.389" xlink:href="#DejaVuSans-100"/><use x="269.865" xlink:href="#DejaVuSans-117"/><use x="333.244" xlink:href="#DejaVuSans-97"/><use x="394.523" xlink:href="#DejaVuSans-108"/></g></g><g id="matplotlib.axis_2"><g id="ytick_1"><g id="line2d_6"><defs><path d="M0 0h-3.5" id="m9fd63d54f4" stroke="#000" stroke-width=".8"/></defs><use x="46.966" xlink:href="#m9fd63d54f4" y="239.758" stroke="#000" stroke-width=".8"/></g><use xlink:href="#DejaVuSans-48" transform="matrix(.1 0 0 -.1 33.603 243.557)" id="text_7"/></g><g id="ytick_2"><use x="46.966" xlink:href="#m9fd63d54f4" y="196.27" stroke="#000" stroke-width=".8" id="line2d_7"/><g transform="matrix(.1 0 0 -.1 27.24 200.07)" id="text_8"><defs><path d="M19.188 8.297h34.421V0H7.33v8.297q5.609 5.812 15.296 15.594 9.703 9.797 12.188 12.64 4.734 5.313 6.609 9 1.89 3.688 1.89 7.25 0 5.813-4.078 9.469-4.078 3.672-10.625 3.672-4.64 0-9.797-1.61-5.14-1.609-11-4.89v9.969Q13.767 71.78 18.938 73q5.188 1.219 9.485 1.219 11.328 0 18.062-5.672 6.735-5.656 6.735-15.125 0-4.5-1.688-8.531-1.672-4.016-6.125-9.485-1.218-1.422-7.765-8.187-6.532-6.766-18.453-18.922z" id="DejaVuSans-50"/></defs><use xlink:href="#DejaVuSans-50"/><use x="63.623" xlink:href="#DejaVuSans-48"/></g></g><g id="ytick_3"><use x="46.966" xlink:href="#m9fd63d54f4" y="152.782" stroke="#000" stroke-width=".8" id="line2d_8"/><g transform="matrix(.1 0 0 -.1 27.24 156.581)" id="text_9"><defs><path d="M37.797 64.313L12.89 25.39h24.906zm-2.594 8.593H47.61V25.391h10.407v-8.203H47.609V0h-9.812v17.188H4.89v9.515z" id="DejaVuSans-52"/></defs><use xlink:href="#DejaVuSans-52"/><use x="63.623" xlink:href="#DejaVuSans-48"/></g></g><g id="ytick_4"><use x="46.966" xlink:href="#m9fd63d54f4" y="109.294" stroke="#000" stroke-width=".8" id="line2d_9"/><g transform="matrix(.1 0 0 -.1 27.24 113.093)" id="text_10"><defs><path d="M33.016 40.375q-6.641 0-10.532-4.547-3.875-4.531-3.875-12.437 0-7.86 3.875-12.438 3.891-4.562 10.532-4.562 6.64 0 10.515 4.562 3.875 4.578 3.875 12.438 0 7.906-3.875 12.437-3.875 4.547-10.515 4.547zm19.578 30.922v-8.984q-3.719 1.75-7.5 2.671-3.782.938-7.5.938-9.766 0-14.922-6.594-5.14-6.594-5.875-19.922 2.875 4.25 7.219 6.516 4.359 2.266 9.578 2.266 10.984 0 17.36-6.672 6.374-6.657 6.374-18.125 0-11.235-6.64-18.032-6.641-6.78-17.672-6.78-12.657 0-19.344 9.687-6.688 9.703-6.688 28.109 0 17.281 8.204 27.563 8.203 10.28 22.015 10.28 3.719 0 7.5-.734t7.89-2.187z" id="DejaVuSans-54"/></defs><use xlink:href="#DejaVuSans-54"/><use x="63.623" xlink:href="#DejaVuSans-48"/></g></g><g id="ytick_5"><use x="46.966" xlink:href="#m9fd63d54f4" y="65.806" stroke="#000" stroke-width=".8" id="line2d_10"/><g transform="matrix(.1 0 0 -.1 27.24 69.605)" id="text_11"><defs><path d="M31.781 34.625q-7.031 0-11.062-3.766-4.016-3.765-4.016-10.343 0-6.594 4.016-10.36Q24.75 6.391 31.78 6.391q7.032 0 11.078 3.78 4.063 3.798 4.063 10.345 0 6.578-4.031 10.343-4.016 3.766-11.11 3.766zm-9.86 4.188q-6.343 1.562-9.89 5.906Q8.5 49.079 8.5 55.329q0 8.733 6.219 13.812 6.234 5.078 17.062 5.078 10.89 0 17.094-5.078 6.203-5.079 6.203-13.813 0-6.25-3.547-10.61-3.531-4.343-9.828-5.906 7.125-1.656 11.094-6.5 3.984-4.828 3.984-11.796 0-10.61-6.468-16.282-6.47-5.656-18.532-5.656-12.047 0-18.531 5.656-6.469 5.672-6.469 16.282 0 6.968 4 11.797 4.016 4.843 11.14 6.5zM18.314 54.39q0-5.657 3.53-8.828 3.548-3.172 9.938-3.172 6.36 0 9.938 3.172 3.593 3.171 3.593 8.828 0 5.672-3.593 8.843-3.578 3.172-9.938 3.172-6.39 0-9.937-3.172-3.532-3.172-3.532-8.843z" id="DejaVuSans-56"/></defs><use xlink:href="#DejaVuSans-56"/><use x="63.623" xlink:href="#DejaVuSans-48"/></g></g><g id="ytick_6"><use x="46.966" xlink:href="#m9fd63d54f4" y="22.318" stroke="#000" stroke-width=".8" id="line2d_11"/><g transform="matrix(.1 0 0 -.1 20.878 26.117)" id="text_12"><use xlink:href="#DejaVuSans-49"/><use x="63.623" xlink:href="#DejaVuSans-48"/><use x="127.246" xlink:href="#DejaVuSans-48"/></g></g><g transform="matrix(0 -.1 -.1 0 14.798 155.7)" id="text_13"><defs><path d="M19.672 64.797v-27.39h12.406q6.89 0 10.64 3.562 3.766 3.562 3.766 10.156 0 6.547-3.765 10.11-3.75 3.562-10.64 3.562zm-9.86 8.11h22.266q12.266 0 18.531-5.548 6.282-5.546 6.282-16.234 0-10.797-6.282-16.313-6.265-5.515-18.53-5.515H19.671V0h-9.86z" id="DejaVuSans-80"/><path d="M41.11 46.297q-1.516.875-3.297 1.281Q36.03 48 33.89 48q-7.625 0-11.703-4.953-4.079-4.953-4.079-14.234V0H9.08v54.688h9.03v-8.5q2.844 4.984 7.375 7.39Q30.031 56 36.531 56q.922 0 2.047-.125 1.125-.11 2.484-.36z" id="DejaVuSans-114"/><path d="M48.781 52.594v-8.407q-3.812 2.11-7.64 3.157-3.828 1.047-7.735 1.047-8.75 0-13.593-5.547-4.829-5.532-4.829-15.547 0-10.016 4.829-15.563 4.843-5.53 13.593-5.53 3.907 0 7.735 1.046 3.828 1.047 7.64 3.156V2.094Q45.016.344 40.984-.531q-4.015-.89-8.562-.89-12.36 0-19.64 7.765-7.266 7.765-7.266 20.953 0 13.375 7.343 21.031Q20.22 56 33.016 56q4.14 0 8.093-.86 3.953-.843 7.672-2.546z" id="DejaVuSans-99"/><path d="M54.89 33.016V0h-8.984v32.719q0 7.765-3.031 11.61-3.031 3.858-9.078 3.858-7.281 0-11.484-4.64-4.204-4.625-4.204-12.64V0H9.08v54.688h9.03v-8.5q3.235 4.937 7.594 7.374Q30.078 56 35.797 56q9.422 0 14.25-5.828 4.844-5.828 4.844-17.156z" id="DejaVuSans-110"/><path d="M18.313 70.219V54.688h18.5v-6.985h-18.5V18.016q0-6.688 1.828-8.594 1.828-1.906 7.453-1.906h9.218V0h-9.218q-10.407 0-14.36 3.875-3.953 3.89-3.953 14.14v29.688H2.687v6.984h6.594V70.22z" id="DejaVuSans-116"/></defs><use xlink:href="#DejaVuSans-80"/><use x="56.678" xlink:href="#DejaVuSans-101"/><use x="118.201" xlink:href="#DejaVuSans-114"/><use x="157.064" xlink:href="#DejaVuSans-99"/><use x="212.045" xlink:href="#DejaVuSans-101"/><use x="273.568" xlink:href="#DejaVuSans-110"/><use x="336.947" xlink:href="#DejaVuSans-116"/><use x="376.156" xlink:href="#DejaVuSans-105"/><use x="403.939" xlink:href="#DejaVuSans-108"/><use x="431.723" xlink:href="#DejaVuSans-101"/></g></g><path clip-path="url(#pf037030f7f)" d="M272.683 239.758L41.74 237.584l248.362-2.175 99.864-1.613m0-1.686l-32.357-1.05 32.357-.621m0-2l-312.624-1.727L-1 225.51m0-1.772l109.467-1.376-6.266-2.174L-1 218.717m0-1.097l222.217-1.78-57.052-2.175L-1 212.595m0-2.24l155.958-1.038L-1 207.86m0-1.131l329.114-1.762-5.872-2.175L-1 200.814m0-.527l176.741-1.842-3.833-2.175 122.661-2.174 25.185-2.175 70.212-.673m0-2.487l-188.363-1.188 188.363-1.757m0-.676l-332.448-1.916-37.908-2.175 357.209-2.174L-1 176.852m0-.277l390.966-1.736m0-1.175l-107.248-1.312-21.913-2.175-30.352-2.174 159.513-1.547m0-3.921l-178.037-1.055L-1 159.497m0-.33l301.284-2.036 89.682-1.219m0-2.497l-28.887-.633-118.81-2.174-78.014-2.175 3.34-2.174 113.263-2.174L-1 142.336m0-3.645l175.637-1.13-4.086-2.174 175.195-2.174-184.834-2.175 183.561-2.174-281.777-2.175 107.433-2.174-25.243-2.174 214.754-2.175-12.207-2.174-132.834-2.175L-1 114.448m0-1.703l180.411-1.276L-1 110.026m0-1.298l260.058-1.608-124.955-2.175 178.258-2.174-295.337-2.174 235.77-2.175L-1 96.36m0-.21l288.365-2.076 76.179-2.174-181.372-2.174-30.82-2.175 238.614-1.695m0-1.715l-51.299-.939-105.085-2.174 21.614-2.174-47.85-2.175 142.497-2.174-65.658-2.175 2.446-2.174 47.036-2.174-18.966-2.175 75.265-.385m0-2.869L34.63 61.457l355.323-2.174-4.203-2.174-237.832-2.175L-1 53.117m0-.51l386.044-2.022-101.306-2.174 72.124-2.174-200.882-2.175 234.986-1.774m0-4.74l-.215-.01-121.11-2.173L94.337 33.19l48.794-2.174 107.813-2.175-53.532-2.174 42.98-2.174" fill="none" stroke="#1f77b4" stroke-linecap="square" stroke-width="1.5" id="line2d_12"/><path clip-path="url(#pf037030f7f)" d="M214.366 239.758V22.318" fill="none" stroke="gray" stroke-dasharray="5.55,2.4" stroke-opacity=".4" stroke-width="1.5" id="line2d_13"/><path clip-path="url(#pf037030f7f)" d="M46.966 131.038h167.4" fill="none" stroke="gray" stroke-dasharray="5.55,2.4" stroke-opacity=".4" stroke-width="1.5" id="line2d_14"/><path d="M46.966 239.758V22.318" fill="none" stroke="#000" stroke-linecap="square" stroke-width=".8" id="patch_3"/><path d="M381.766 239.758V22.318" fill="none" stroke="#000" stroke-linecap="square" stroke-width=".8" id="patch_4"/><path d="M46.966 239.758h334.8" fill="none" stroke="#000" stroke-linecap="square" stroke-width=".8" id="patch_5"/><path d="M46.966 22.318h334.8" fill="none" stroke="#000" stroke-linecap="square" stroke-width=".8" id="patch_6"/><g transform="matrix(.12 0 0 -.12 152.875 16.318)" id="text_14"><defs><path d="M64.406 67.281v-10.39q-4.984 4.64-10.625 6.922-5.64 2.296-11.984 2.296-12.5 0-19.14-7.64-6.641-7.64-6.641-22.094 0-14.406 6.64-22.047 6.64-7.64 19.14-7.64 6.345 0 11.985 2.296 5.64 2.297 10.625 6.938V5.609Q59.234 2.094 53.437.33q-5.78-1.75-12.218-1.75-16.563 0-26.094 10.124-9.516 10.14-9.516 27.672 0 17.578 9.516 27.703 9.531 10.14 26.094 10.14 6.531 0 12.312-1.734 5.797-1.734 10.875-5.203z" id="DejaVuSans-67"/><path d="M52 44.188q3.375 6.062 8.063 8.937Q64.75 56 71.093 56q8.548 0 13.188-5.984 4.64-5.97 4.64-17V0h-9.03v32.719q0 7.86-2.797 11.656-2.781 3.813-8.485 3.813-6.984 0-11.046-4.641-4.047-4.625-4.047-12.64V0h-9.032v32.719q0 7.906-2.78 11.687-2.782 3.782-8.595 3.782-6.89 0-10.953-4.657-4.047-4.656-4.047-12.625V0H9.08v54.688h9.03v-8.5q3.078 5.03 7.375 7.421Q29.781 56 35.687 56q5.97 0 10.141-3.031Q50 49.953 52 44.187z" id="DejaVuSans-109"/><path d="M2.984 54.688H12.5L29.594 8.797l17.093 45.89h9.516L35.687 0H23.485z" id="DejaVuSans-118"/></defs><use xlink:href="#DejaVuSans-67"/><use x="69.824" xlink:href="#DejaVuSans-117"/><use x="133.203" xlink:href="#DejaVuSans-109"/><use x="230.615" xlink:href="#DejaVuSans-117"/><use x="293.994" xlink:href="#DejaVuSans-108"/><use x="321.777" xlink:href="#DejaVuSans-97"/><use x="383.057" xlink:href="#DejaVuSans-116"/><use x="422.266" xlink:href="#DejaVuSans-105"/><use x="450.049" xlink:href="#DejaVuSans-118"/><use x="509.229" xlink:href="#DejaVuSans-101"/><use x="570.752" xlink:href="#DejaVuSans-32"/><use x="602.539" xlink:href="#DejaVuSans-82"/><use x="667.521" xlink:href="#DejaVuSans-101"/><use x="729.045" xlink:href="#DejaVuSans-115"/><use x="781.145" xlink:href="#DejaVuSans-105"/><use x="808.928" xlink:href="#DejaVuSans-100"/><use x="872.404" xlink:href="#DejaVuSans-117"/><use x="935.783" xlink:href="#DejaVuSans-97"/><use x="997.063" xlink:href="#DejaVuSans-108"/></g></g></g><defs><clipPath id="pf037030f7f"><path d="M46.966 22.318h334.8v217.44h-334.8z"/></clipPath></defs></svg>