<?xml version="1.0" encoding="utf-8" standalone="no"?>
<!DOCTYPE svg PUBLIC "-//W3C//DTD SVG 1.1//EN"
  "http://www.w3.org/Graphics/SVG/1.1/DTD/svg11.dtd">
<!-- Created with matplotlib (https://matplotlib.org/) -->
<svg height="479.92875pt" version="1.1" viewBox="0 0 532.83125 479.92875" width="532.83125pt" xmlns="http://www.w3.org/2000/svg" xmlns:xlink="http://www.w3.org/1999/xlink">
 <defs>
  <style type="text/css">
*{stroke-linecap:butt;stroke-linejoin:round;}
  </style>
 </defs>
 <g id="figure_1">
  <g id="patch_1">
   <path d="M 0 479.92875 
L 532.83125 479.92875 
L 532.83125 0 
L 0 0 
z
" style="fill:#ffffff;"/>
  </g>
  <g id="axes_1">
   <g id="patch_2">
    <path d="M 79.23125 419.51625 
L 525.63125 419.51625 
L 525.63125 31.43625 
L 79.23125 31.43625 
z
" style="fill:#ffffff;"/>
   </g>
   <g id="matplotlib.axis_1">
    <g id="xtick_1">
     <g id="line2d_1">
      <defs>
       <path d="M 0 0 
L 0 7 
" id="md872564747" style="stroke:#000000;stroke-width:2.5;"/>
      </defs>
      <g>
       <use style="stroke:#000000;stroke-width:2.5;" x="79.23125" xlink:href="#md872564747" y="419.51625"/>
      </g>
     </g>
     <g id="text_1">
      <!-- 0.0 -->
      <defs>
       <path d="M 31.78125 66.40625 
Q 24.171875 66.40625 20.328125 58.90625 
Q 16.5 51.421875 16.5 36.375 
Q 16.5 21.390625 20.328125 13.890625 
Q 24.171875 6.390625 31.78125 6.390625 
Q 39.453125 6.390625 43.28125 13.890625 
Q 47.125 21.390625 47.125 36.375 
Q 47.125 51.421875 43.28125 58.90625 
Q 39.453125 66.40625 31.78125 66.40625 
z
M 31.78125 74.21875 
Q 44.046875 74.21875 50.515625 64.515625 
Q 56.984375 54.828125 56.984375 36.375 
Q 56.984375 17.96875 50.515625 8.265625 
Q 44.046875 -1.421875 31.78125 -1.421875 
Q 19.53125 -1.421875 13.0625 8.265625 
Q 6.59375 17.96875 6.59375 36.375 
Q 6.59375 54.828125 13.0625 64.515625 
Q 19.53125 74.21875 31.78125 74.21875 
z
" id="DejaVuSans-48"/>
       <path d="M 10.6875 12.40625 
L 21 12.40625 
L 21 0 
L 10.6875 0 
z
" id="DejaVuSans-46"/>
      </defs>
      <g transform="translate(63.328125 445.213125)scale(0.2 -0.2)">
       <use xlink:href="#DejaVuSans-48"/>
       <use x="63.623047" xlink:href="#DejaVuSans-46"/>
       <use x="95.410156" xlink:href="#DejaVuSans-48"/>
      </g>
     </g>
    </g>
    <g id="xtick_2">
     <g id="line2d_2">
      <g>
       <use style="stroke:#000000;stroke-width:2.5;" x="156.467763" xlink:href="#md872564747" y="419.51625"/>
      </g>
     </g>
     <g id="text_2">
      <!-- 0.2 -->
      <defs>
       <path d="M 19.1875 8.296875 
L 53.609375 8.296875 
L 53.609375 0 
L 7.328125 0 
L 7.328125 8.296875 
Q 12.9375 14.109375 22.625 23.890625 
Q 32.328125 33.6875 34.8125 36.53125 
Q 39.546875 41.84375 41.421875 45.53125 
Q 43.3125 49.21875 43.3125 52.78125 
Q 43.3125 58.59375 39.234375 62.25 
Q 35.15625 65.921875 28.609375 65.921875 
Q 23.96875 65.921875 18.8125 64.3125 
Q 13.671875 62.703125 7.8125 59.421875 
L 7.8125 69.390625 
Q 13.765625 71.78125 18.9375 73 
Q 24.125 74.21875 28.421875 74.21875 
Q 39.75 74.21875 46.484375 68.546875 
Q 53.21875 62.890625 53.21875 53.421875 
Q 53.21875 48.921875 51.53125 44.890625 
Q 49.859375 40.875 45.40625 35.40625 
Q 44.1875 33.984375 37.640625 27.21875 
Q 31.109375 20.453125 19.1875 8.296875 
z
" id="DejaVuSans-50"/>
      </defs>
      <g transform="translate(140.564638 445.213125)scale(0.2 -0.2)">
       <use xlink:href="#DejaVuSans-48"/>
       <use x="63.623047" xlink:href="#DejaVuSans-46"/>
       <use x="95.410156" xlink:href="#DejaVuSans-50"/>
      </g>
     </g>
    </g>
    <g id="xtick_3">
     <g id="line2d_3">
      <g>
       <use style="stroke:#000000;stroke-width:2.5;" x="233.704276" xlink:href="#md872564747" y="419.51625"/>
      </g>
     </g>
     <g id="text_3">
      <!-- 0.4 -->
      <defs>
       <path d="M 37.796875 64.3125 
L 12.890625 25.390625 
L 37.796875 25.390625 
z
M 35.203125 72.90625 
L 47.609375 72.90625 
L 47.609375 25.390625 
L 58.015625 25.390625 
L 58.015625 17.1875 
L 47.609375 17.1875 
L 47.609375 0 
L 37.796875 0 
L 37.796875 17.1875 
L 4.890625 17.1875 
L 4.890625 26.703125 
z
" id="DejaVuSans-52"/>
      </defs>
      <g transform="translate(217.801151 445.213125)scale(0.2 -0.2)">
       <use xlink:href="#DejaVuSans-48"/>
       <use x="63.623047" xlink:href="#DejaVuSans-46"/>
       <use x="95.410156" xlink:href="#DejaVuSans-52"/>
      </g>
     </g>
    </g>
    <g id="xtick_4">
     <g id="line2d_4">
      <g>
       <use style="stroke:#000000;stroke-width:2.5;" x="310.940789" xlink:href="#md872564747" y="419.51625"/>
      </g>
     </g>
     <g id="text_4">
      <!-- 0.6 -->
      <defs>
       <path d="M 33.015625 40.375 
Q 26.375 40.375 22.484375 35.828125 
Q 18.609375 31.296875 18.609375 23.390625 
Q 18.609375 15.53125 22.484375 10.953125 
Q 26.375 6.390625 33.015625 6.390625 
Q 39.65625 6.390625 43.53125 10.953125 
Q 47.40625 15.53125 47.40625 23.390625 
Q 47.40625 31.296875 43.53125 35.828125 
Q 39.65625 40.375 33.015625 40.375 
z
M 52.59375 71.296875 
L 52.59375 62.3125 
Q 48.875 64.0625 45.09375 64.984375 
Q 41.3125 65.921875 37.59375 65.921875 
Q 27.828125 65.921875 22.671875 59.328125 
Q 17.53125 52.734375 16.796875 39.40625 
Q 19.671875 43.65625 24.015625 45.921875 
Q 28.375 48.1875 33.59375 48.1875 
Q 44.578125 48.1875 50.953125 41.515625 
Q 57.328125 34.859375 57.328125 23.390625 
Q 57.328125 12.15625 50.6875 5.359375 
Q 44.046875 -1.421875 33.015625 -1.421875 
Q 20.359375 -1.421875 13.671875 8.265625 
Q 6.984375 17.96875 6.984375 36.375 
Q 6.984375 53.65625 15.1875 63.9375 
Q 23.390625 74.21875 37.203125 74.21875 
Q 40.921875 74.21875 44.703125 73.484375 
Q 48.484375 72.75 52.59375 71.296875 
z
" id="DejaVuSans-54"/>
      </defs>
      <g transform="translate(295.037664 445.213125)scale(0.2 -0.2)">
       <use xlink:href="#DejaVuSans-48"/>
       <use x="63.623047" xlink:href="#DejaVuSans-46"/>
       <use x="95.410156" xlink:href="#DejaVuSans-54"/>
      </g>
     </g>
    </g>
    <g id="xtick_5">
     <g id="line2d_5">
      <g>
       <use style="stroke:#000000;stroke-width:2.5;" x="388.177302" xlink:href="#md872564747" y="419.51625"/>
      </g>
     </g>
     <g id="text_5">
      <!-- 0.8 -->
      <defs>
       <path d="M 31.78125 34.625 
Q 24.75 34.625 20.71875 30.859375 
Q 16.703125 27.09375 16.703125 20.515625 
Q 16.703125 13.921875 20.71875 10.15625 
Q 24.75 6.390625 31.78125 6.390625 
Q 38.8125 6.390625 42.859375 10.171875 
Q 46.921875 13.96875 46.921875 20.515625 
Q 46.921875 27.09375 42.890625 30.859375 
Q 38.875 34.625 31.78125 34.625 
z
M 21.921875 38.8125 
Q 15.578125 40.375 12.03125 44.71875 
Q 8.5 49.078125 8.5 55.328125 
Q 8.5 64.0625 14.71875 69.140625 
Q 20.953125 74.21875 31.78125 74.21875 
Q 42.671875 74.21875 48.875 69.140625 
Q 55.078125 64.0625 55.078125 55.328125 
Q 55.078125 49.078125 51.53125 44.71875 
Q 48 40.375 41.703125 38.8125 
Q 48.828125 37.15625 52.796875 32.3125 
Q 56.78125 27.484375 56.78125 20.515625 
Q 56.78125 9.90625 50.3125 4.234375 
Q 43.84375 -1.421875 31.78125 -1.421875 
Q 19.734375 -1.421875 13.25 4.234375 
Q 6.78125 9.90625 6.78125 20.515625 
Q 6.78125 27.484375 10.78125 32.3125 
Q 14.796875 37.15625 21.921875 38.8125 
z
M 18.3125 54.390625 
Q 18.3125 48.734375 21.84375 45.5625 
Q 25.390625 42.390625 31.78125 42.390625 
Q 38.140625 42.390625 41.71875 45.5625 
Q 45.3125 48.734375 45.3125 54.390625 
Q 45.3125 60.0625 41.71875 63.234375 
Q 38.140625 66.40625 31.78125 66.40625 
Q 25.390625 66.40625 21.84375 63.234375 
Q 18.3125 60.0625 18.3125 54.390625 
z
" id="DejaVuSans-56"/>
      </defs>
      <g transform="translate(372.274177 445.213125)scale(0.2 -0.2)">
       <use xlink:href="#DejaVuSans-48"/>
       <use x="63.623047" xlink:href="#DejaVuSans-46"/>
       <use x="95.410156" xlink:href="#DejaVuSans-56"/>
      </g>
     </g>
    </g>
    <g id="xtick_6">
     <g id="line2d_6">
      <g>
       <use style="stroke:#000000;stroke-width:2.5;" x="465.413815" xlink:href="#md872564747" y="419.51625"/>
      </g>
     </g>
     <g id="text_6">
      <!-- 1.0 -->
      <defs>
       <path d="M 12.40625 8.296875 
L 28.515625 8.296875 
L 28.515625 63.921875 
L 10.984375 60.40625 
L 10.984375 69.390625 
L 28.421875 72.90625 
L 38.28125 72.90625 
L 38.28125 8.296875 
L 54.390625 8.296875 
L 54.390625 0 
L 12.40625 0 
z
" id="DejaVuSans-49"/>
      </defs>
      <g transform="translate(449.51069 445.213125)scale(0.2 -0.2)">
       <use xlink:href="#DejaVuSans-49"/>
       <use x="63.623047" xlink:href="#DejaVuSans-46"/>
       <use x="95.410156" xlink:href="#DejaVuSans-48"/>
      </g>
     </g>
    </g>
    <g id="text_7">
     <!-- Absolute Error -->
     <defs>
      <path d="M 34.1875 63.1875 
L 20.796875 26.90625 
L 47.609375 26.90625 
z
M 28.609375 72.90625 
L 39.796875 72.90625 
L 67.578125 0 
L 57.328125 0 
L 50.6875 18.703125 
L 17.828125 18.703125 
L 11.1875 0 
L 0.78125 0 
z
" id="DejaVuSans-65"/>
      <path d="M 48.6875 27.296875 
Q 48.6875 37.203125 44.609375 42.84375 
Q 40.53125 48.484375 33.40625 48.484375 
Q 26.265625 48.484375 22.1875 42.84375 
Q 18.109375 37.203125 18.109375 27.296875 
Q 18.109375 17.390625 22.1875 11.75 
Q 26.265625 6.109375 33.40625 6.109375 
Q 40.53125 6.109375 44.609375 11.75 
Q 48.6875 17.390625 48.6875 27.296875 
z
M 18.109375 46.390625 
Q 20.953125 51.265625 25.265625 53.625 
Q 29.59375 56 35.59375 56 
Q 45.5625 56 51.78125 48.09375 
Q 58.015625 40.1875 58.015625 27.296875 
Q 58.015625 14.40625 51.78125 6.484375 
Q 45.5625 -1.421875 35.59375 -1.421875 
Q 29.59375 -1.421875 25.265625 0.953125 
Q 20.953125 3.328125 18.109375 8.203125 
L 18.109375 0 
L 9.078125 0 
L 9.078125 75.984375 
L 18.109375 75.984375 
z
" id="DejaVuSans-98"/>
      <path d="M 44.28125 53.078125 
L 44.28125 44.578125 
Q 40.484375 46.53125 36.375 47.5 
Q 32.28125 48.484375 27.875 48.484375 
Q 21.1875 48.484375 17.84375 46.4375 
Q 14.5 44.390625 14.5 40.28125 
Q 14.5 37.15625 16.890625 35.375 
Q 19.28125 33.59375 26.515625 31.984375 
L 29.59375 31.296875 
Q 39.15625 29.25 43.1875 25.515625 
Q 47.21875 21.78125 47.21875 15.09375 
Q 47.21875 7.46875 41.1875 3.015625 
Q 35.15625 -1.421875 24.609375 -1.421875 
Q 20.21875 -1.421875 15.453125 -0.5625 
Q 10.6875 0.296875 5.421875 2 
L 5.421875 11.28125 
Q 10.40625 8.6875 15.234375 7.390625 
Q 20.0625 6.109375 24.8125 6.109375 
Q 31.15625 6.109375 34.5625 8.28125 
Q 37.984375 10.453125 37.984375 14.40625 
Q 37.984375 18.0625 35.515625 20.015625 
Q 33.0625 21.96875 24.703125 23.78125 
L 21.578125 24.515625 
Q 13.234375 26.265625 9.515625 29.90625 
Q 5.8125 33.546875 5.8125 39.890625 
Q 5.8125 47.609375 11.28125 51.796875 
Q 16.75 56 26.8125 56 
Q 31.78125 56 36.171875 55.265625 
Q 40.578125 54.546875 44.28125 53.078125 
z
" id="DejaVuSans-115"/>
      <path d="M 30.609375 48.390625 
Q 23.390625 48.390625 19.1875 42.75 
Q 14.984375 37.109375 14.984375 27.296875 
Q 14.984375 17.484375 19.15625 11.84375 
Q 23.34375 6.203125 30.609375 6.203125 
Q 37.796875 6.203125 41.984375 11.859375 
Q 46.1875 17.53125 46.1875 27.296875 
Q 46.1875 37.015625 41.984375 42.703125 
Q 37.796875 48.390625 30.609375 48.390625 
z
M 30.609375 56 
Q 42.328125 56 49.015625 48.375 
Q 55.71875 40.765625 55.71875 27.296875 
Q 55.71875 13.875 49.015625 6.21875 
Q 42.328125 -1.421875 30.609375 -1.421875 
Q 18.84375 -1.421875 12.171875 6.21875 
Q 5.515625 13.875 5.515625 27.296875 
Q 5.515625 40.765625 12.171875 48.375 
Q 18.84375 56 30.609375 56 
z
" id="DejaVuSans-111"/>
      <path d="M 9.421875 75.984375 
L 18.40625 75.984375 
L 18.40625 0 
L 9.421875 0 
z
" id="DejaVuSans-108"/>
      <path d="M 8.5 21.578125 
L 8.5 54.6875 
L 17.484375 54.6875 
L 17.484375 21.921875 
Q 17.484375 14.15625 20.5 10.265625 
Q 23.53125 6.390625 29.59375 6.390625 
Q 36.859375 6.390625 41.078125 11.03125 
Q 45.3125 15.671875 45.3125 23.6875 
L 45.3125 54.6875 
L 54.296875 54.6875 
L 54.296875 0 
L 45.3125 0 
L 45.3125 8.40625 
Q 42.046875 3.421875 37.71875 1 
Q 33.40625 -1.421875 27.6875 -1.421875 
Q 18.265625 -1.421875 13.375 4.4375 
Q 8.5 10.296875 8.5 21.578125 
z
M 31.109375 56 
z
" id="DejaVuSans-117"/>
      <path d="M 18.3125 70.21875 
L 18.3125 54.6875 
L 36.8125 54.6875 
L 36.8125 47.703125 
L 18.3125 47.703125 
L 18.3125 18.015625 
Q 18.3125 11.328125 20.140625 9.421875 
Q 21.96875 7.515625 27.59375 7.515625 
L 36.8125 7.515625 
L 36.8125 0 
L 27.59375 0 
Q 17.1875 0 13.234375 3.875 
Q 9.28125 7.765625 9.28125 18.015625 
L 9.28125 47.703125 
L 2.6875 47.703125 
L 2.6875 54.6875 
L 9.28125 54.6875 
L 9.28125 70.21875 
z
" id="DejaVuSans-116"/>
      <path d="M 56.203125 29.59375 
L 56.203125 25.203125 
L 14.890625 25.203125 
Q 15.484375 15.921875 20.484375 11.0625 
Q 25.484375 6.203125 34.421875 6.203125 
Q 39.59375 6.203125 44.453125 7.46875 
Q 49.3125 8.734375 54.109375 11.28125 
L 54.109375 2.78125 
Q 49.265625 0.734375 44.1875 -0.34375 
Q 39.109375 -1.421875 33.890625 -1.421875 
Q 20.796875 -1.421875 13.15625 6.1875 
Q 5.515625 13.8125 5.515625 26.8125 
Q 5.515625 40.234375 12.765625 48.109375 
Q 20.015625 56 32.328125 56 
Q 43.359375 56 49.78125 48.890625 
Q 56.203125 41.796875 56.203125 29.59375 
z
M 47.21875 32.234375 
Q 47.125 39.59375 43.09375 43.984375 
Q 39.0625 48.390625 32.421875 48.390625 
Q 24.90625 48.390625 20.390625 44.140625 
Q 15.875 39.890625 15.1875 32.171875 
z
" id="DejaVuSans-101"/>
      <path id="DejaVuSans-32"/>
      <path d="M 9.8125 72.90625 
L 55.90625 72.90625 
L 55.90625 64.59375 
L 19.671875 64.59375 
L 19.671875 43.015625 
L 54.390625 43.015625 
L 54.390625 34.71875 
L 19.671875 34.71875 
L 19.671875 8.296875 
L 56.78125 8.296875 
L 56.78125 0 
L 9.8125 0 
z
" id="DejaVuSans-69"/>
      <path d="M 41.109375 46.296875 
Q 39.59375 47.171875 37.8125 47.578125 
Q 36.03125 48 33.890625 48 
Q 26.265625 48 22.1875 43.046875 
Q 18.109375 38.09375 18.109375 28.8125 
L 18.109375 0 
L 9.078125 0 
L 9.078125 54.6875 
L 18.109375 54.6875 
L 18.109375 46.1875 
Q 20.953125 51.171875 25.484375 53.578125 
Q 30.03125 56 36.53125 56 
Q 37.453125 56 38.578125 55.875 
Q 39.703125 55.765625 41.0625 55.515625 
z
" id="DejaVuSans-114"/>
     </defs>
     <g transform="translate(230.78125 468.569375)scale(0.2 -0.2)">
      <use xlink:href="#DejaVuSans-65"/>
      <use x="68.408203" xlink:href="#DejaVuSans-98"/>
      <use x="131.884766" xlink:href="#DejaVuSans-115"/>
      <use x="183.984375" xlink:href="#DejaVuSans-111"/>
      <use x="245.166016" xlink:href="#DejaVuSans-108"/>
      <use x="272.949219" xlink:href="#DejaVuSans-117"/>
      <use x="336.328125" xlink:href="#DejaVuSans-116"/>
      <use x="375.537109" xlink:href="#DejaVuSans-101"/>
      <use x="437.060547" xlink:href="#DejaVuSans-32"/>
      <use x="468.847656" xlink:href="#DejaVuSans-69"/>
      <use x="532.03125" xlink:href="#DejaVuSans-114"/>
      <use x="573.128906" xlink:href="#DejaVuSans-114"/>
      <use x="614.210938" xlink:href="#DejaVuSans-111"/>
      <use x="675.392578" xlink:href="#DejaVuSans-114"/>
     </g>
    </g>
   </g>
   <g id="matplotlib.axis_2">
    <g id="ytick_1">
     <g id="line2d_7">
      <defs>
       <path d="M 0 0 
L -7 0 
" id="m3a25111f84" style="stroke:#000000;stroke-width:2.5;"/>
      </defs>
      <g>
       <use style="stroke:#000000;stroke-width:2.5;" x="79.23125" xlink:href="#m3a25111f84" y="419.51625"/>
      </g>
     </g>
     <g id="text_8">
      <!-- 0 -->
      <g transform="translate(56.00625 427.114687)scale(0.2 -0.2)">
       <use xlink:href="#DejaVuSans-48"/>
      </g>
     </g>
    </g>
    <g id="ytick_2">
     <g id="line2d_8">
      <g>
       <use style="stroke:#000000;stroke-width:2.5;" x="79.23125" xlink:href="#m3a25111f84" y="341.90025"/>
      </g>
     </g>
     <g id="text_9">
      <!-- 20 -->
      <g transform="translate(43.28125 349.498687)scale(0.2 -0.2)">
       <use xlink:href="#DejaVuSans-50"/>
       <use x="63.623047" xlink:href="#DejaVuSans-48"/>
      </g>
     </g>
    </g>
    <g id="ytick_3">
     <g id="line2d_9">
      <g>
       <use style="stroke:#000000;stroke-width:2.5;" x="79.23125" xlink:href="#m3a25111f84" y="264.28425"/>
      </g>
     </g>
     <g id="text_10">
      <!-- 40 -->
      <g transform="translate(43.28125 271.882687)scale(0.2 -0.2)">
       <use xlink:href="#DejaVuSans-52"/>
       <use x="63.623047" xlink:href="#DejaVuSans-48"/>
      </g>
     </g>
    </g>
    <g id="ytick_4">
     <g id="line2d_10">
      <g>
       <use style="stroke:#000000;stroke-width:2.5;" x="79.23125" xlink:href="#m3a25111f84" y="186.66825"/>
      </g>
     </g>
     <g id="text_11">
      <!-- 60 -->
      <g transform="translate(43.28125 194.266687)scale(0.2 -0.2)">
       <use xlink:href="#DejaVuSans-54"/>
       <use x="63.623047" xlink:href="#DejaVuSans-48"/>
      </g>
     </g>
    </g>
    <g id="ytick_5">
     <g id="line2d_11">
      <g>
       <use style="stroke:#000000;stroke-width:2.5;" x="79.23125" xlink:href="#m3a25111f84" y="109.05225"/>
      </g>
     </g>
     <g id="text_12">
      <!-- 80 -->
      <g transform="translate(43.28125 116.650687)scale(0.2 -0.2)">
       <use xlink:href="#DejaVuSans-56"/>
       <use x="63.623047" xlink:href="#DejaVuSans-48"/>
      </g>
     </g>
    </g>
    <g id="ytick_6">
     <g id="line2d_12">
      <g>
       <use style="stroke:#000000;stroke-width:2.5;" x="79.23125" xlink:href="#m3a25111f84" y="31.43625"/>
      </g>
     </g>
     <g id="text_13">
      <!-- 100 -->
      <g transform="translate(30.55625 39.034687)scale(0.2 -0.2)">
       <use xlink:href="#DejaVuSans-49"/>
       <use x="63.623047" xlink:href="#DejaVuSans-48"/>
       <use x="127.246094" xlink:href="#DejaVuSans-48"/>
      </g>
     </g>
    </g>
    <g id="text_14">
     <!-- Percentile -->
     <defs>
      <path d="M 19.671875 64.796875 
L 19.671875 37.40625 
L 32.078125 37.40625 
Q 38.96875 37.40625 42.71875 40.96875 
Q 46.484375 44.53125 46.484375 51.125 
Q 46.484375 57.671875 42.71875 61.234375 
Q 38.96875 64.796875 32.078125 64.796875 
z
M 9.8125 72.90625 
L 32.078125 72.90625 
Q 44.34375 72.90625 50.609375 67.359375 
Q 56.890625 61.8125 56.890625 51.125 
Q 56.890625 40.328125 50.609375 34.8125 
Q 44.34375 29.296875 32.078125 29.296875 
L 19.671875 29.296875 
L 19.671875 0 
L 9.8125 0 
z
" id="DejaVuSans-80"/>
      <path d="M 48.78125 52.59375 
L 48.78125 44.1875 
Q 44.96875 46.296875 41.140625 47.34375 
Q 37.3125 48.390625 33.40625 48.390625 
Q 24.65625 48.390625 19.8125 42.84375 
Q 14.984375 37.3125 14.984375 27.296875 
Q 14.984375 17.28125 19.8125 11.734375 
Q 24.65625 6.203125 33.40625 6.203125 
Q 37.3125 6.203125 41.140625 7.25 
Q 44.96875 8.296875 48.78125 10.40625 
L 48.78125 2.09375 
Q 45.015625 0.34375 40.984375 -0.53125 
Q 36.96875 -1.421875 32.421875 -1.421875 
Q 20.0625 -1.421875 12.78125 6.34375 
Q 5.515625 14.109375 5.515625 27.296875 
Q 5.515625 40.671875 12.859375 48.328125 
Q 20.21875 56 33.015625 56 
Q 37.15625 56 41.109375 55.140625 
Q 45.0625 54.296875 48.78125 52.59375 
z
" id="DejaVuSans-99"/>
      <path d="M 54.890625 33.015625 
L 54.890625 0 
L 45.90625 0 
L 45.90625 32.71875 
Q 45.90625 40.484375 42.875 44.328125 
Q 39.84375 48.1875 33.796875 48.1875 
Q 26.515625 48.1875 22.3125 43.546875 
Q 18.109375 38.921875 18.109375 30.90625 
L 18.109375 0 
L 9.078125 0 
L 9.078125 54.6875 
L 18.109375 54.6875 
L 18.109375 46.1875 
Q 21.34375 51.125 25.703125 53.5625 
Q 30.078125 56 35.796875 56 
Q 45.21875 56 50.046875 50.171875 
Q 54.890625 44.34375 54.890625 33.015625 
z
" id="DejaVuSans-110"/>
      <path d="M 9.421875 54.6875 
L 18.40625 54.6875 
L 18.40625 0 
L 9.421875 0 
z
M 9.421875 75.984375 
L 18.40625 75.984375 
L 18.40625 64.59375 
L 9.421875 64.59375 
z
" id="DejaVuSans-105"/>
     </defs>
     <g transform="translate(22.396875 275.380937)rotate(-90)scale(0.2 -0.2)">
      <use xlink:href="#DejaVuSans-80"/>
      <use x="60.255859" xlink:href="#DejaVuSans-101"/>
      <use x="121.779297" xlink:href="#DejaVuSans-114"/>
      <use x="162.861328" xlink:href="#DejaVuSans-99"/>
      <use x="217.841797" xlink:href="#DejaVuSans-101"/>
      <use x="279.365234" xlink:href="#DejaVuSans-110"/>
      <use x="342.744141" xlink:href="#DejaVuSans-116"/>
      <use x="381.953125" xlink:href="#DejaVuSans-105"/>
      <use x="409.736328" xlink:href="#DejaVuSans-108"/>
      <use x="437.519531" xlink:href="#DejaVuSans-101"/>
     </g>
    </g>
   </g>
   <g id="line2d_13">
    <path clip-path="url(#p1f49e7c8bc)" d="M 79.285943 419.51625 
L 79.722294 419.018073 
L 79.838116 416.527187 
L 80.07291 416.02901 
L 80.091755 415.530833 
L 80.35775 414.534478 
L 80.543301 412.54177 
L 80.802757 412.043593 
L 81.159997 408.556353 
L 81.320751 408.058176 
L 81.32114 407.559998 
L 81.542159 407.061821 
L 81.896195 406.563644 
L 82.216346 405.56729 
L 82.432469 401.581873 
L 82.563422 400.585518 
L 82.913335 400.087341 
L 83.003842 398.59281 
L 83.246076 398.094633 
L 83.479921 397.098278 
L 83.727028 396.101924 
L 83.797734 395.603747 
L 84.056147 395.10557 
L 84.335432 393.112861 
L 84.587271 391.61833 
L 84.859476 389.625621 
L 85.131528 389.127444 
L 85.269547 388.13109 
L 85.301006 387.134735 
L 85.65882 386.636558 
L 86.070857 383.647495 
L 86.261074 383.149318 
L 86.388629 381.654787 
L 86.87456 377.669369 
L 87.18055 377.171192 
L 87.199795 376.174838 
L 87.616414 375.676661 
L 87.979545 374.680306 
L 88.433351 372.687598 
L 88.554544 371.691244 
L 88.630203 370.196712 
L 88.820153 369.200358 
L 89.511653 364.218586 
L 89.932326 363.720409 
L 89.984764 362.724055 
L 90.187598 362.225878 
L 90.505389 360.233169 
L 90.938921 357.742283 
L 91.15735 355.749575 
L 91.369612 354.75322 
L 91.462448 353.756866 
L 91.756123 353.258689 
L 91.913415 352.262335 
L 92.855179 350.269626 
L 92.961984 349.273272 
L 93.729674 348.276918 
L 94.209739 345.786032 
L 94.554726 345.287855 
L 94.631203 344.789677 
L 94.978402 343.793323 
L 95.147366 342.298792 
L 95.346517 341.302437 
L 95.428957 340.306083 
L 96.326337 335.324312 
L 96.326337 334.826134 
L 96.714798 334.327957 
L 96.932858 333.82978 
L 97.058582 331.837072 
L 97.240963 331.338894 
L 97.242851 330.840717 
L 97.389193 330.34254 
L 97.692138 329.844363 
L 97.835715 329.346186 
L 97.872414 327.851654 
L 98.215534 326.8553 
L 98.349263 325.858946 
L 98.469093 323.866237 
L 98.618198 322.869883 
L 99.019919 321.873529 
L 99.480952 318.884466 
L 99.499355 318.386289 
L 99.782734 317.888111 
L 101.032608 312.90634 
L 101.644713 312.408163 
L 101.933391 309.917277 
L 102.059753 308.422746 
L 102.358988 307.924568 
L 102.598159 304.437328 
L 102.713542 303.939151 
L 102.713542 303.440974 
L 102.946516 302.44462 
L 102.959404 301.448265 
L 103.243864 300.950088 
L 103.568162 299.455557 
L 103.643961 297.961025 
L 104.168604 294.473785 
L 104.181655 293.975608 
L 104.692522 292.481077 
L 104.894439 291.484722 
L 105.217246 289.990191 
L 105.435162 288.993837 
L 105.666213 286.004774 
L 105.908307 285.506597 
L 106.190027 283.513888 
L 106.622574 283.015711 
L 106.65021 282.019357 
L 107.08949 281.023002 
L 107.339399 279.528471 
L 107.429988 278.532116 
L 107.433384 278.033939 
L 107.658943 277.037585 
L 107.676879 276.539408 
L 107.871382 276.041231 
L 108.075192 274.546699 
L 108.31533 274.048522 
L 108.968338 273.550345 
L 109.235589 272.553991 
L 109.814517 271.557636 
L 110.037704 269.066751 
L 110.077635 268.568573 
L 110.285912 268.070396 
L 110.354449 267.074042 
L 110.605396 266.575865 
L 110.617358 266.077688 
L 110.771577 265.579511 
L 110.775028 265.081333 
L 111.033769 264.583156 
L 111.218697 263.586802 
L 111.499969 263.088625 
L 111.578329 262.092271 
L 111.871877 261.594093 
L 111.960275 260.597739 
L 112.310591 260.099562 
L 112.550994 258.60503 
L 113.139441 258.106853 
L 113.485949 257.608676 
L 113.523037 256.612322 
L 113.914448 255.615968 
L 114.456494 252.128728 
L 114.72693 251.63055 
L 114.858826 250.634196 
L 115.33976 250.136019 
L 115.592344 248.641487 
L 115.82997 247.146956 
L 116.186539 246.648779 
L 116.341114 245.652425 
L 116.51295 245.154247 
L 116.553412 244.157893 
L 116.777214 243.659716 
L 117.055172 241.16883 
L 118.336529 239.176122 
L 118.358192 238.677944 
L 118.51114 238.179767 
L 118.643781 237.183413 
L 119.86001 235.190704 
L 120.512988 234.692527 
L 120.652841 234.19435 
L 121.589138 233.696173 
L 122.468823 231.703464 
L 122.559572 231.205287 
L 122.834694 230.70711 
L 122.959803 230.208933 
L 122.960806 229.710756 
L 123.239219 229.212579 
L 123.914988 226.721693 
L 124.483914 225.725339 
L 124.717153 224.230807 
L 125.377202 223.73263 
L 125.556936 223.234453 
L 125.857771 222.736276 
L 126.037802 221.739921 
L 126.082241 220.743567 
L 126.239606 220.24539 
L 126.978757 219.747213 
L 128.084619 219.249036 
L 128.277466 218.252681 
L 129.249064 216.259973 
L 129.27111 215.761796 
L 129.668571 215.263618 
L 130.982183 214.765441 
L 131.528147 214.267264 
L 131.874142 213.27091 
L 132.525742 212.772733 
L 132.629099 211.776378 
L 133.110899 210.780024 
L 133.366512 210.281847 
L 133.689247 208.289138 
L 133.980646 207.790961 
L 134.917451 206.794607 
L 134.97211 206.29643 
L 135.44731 205.798253 
L 135.470161 204.801898 
L 135.90485 204.303721 
L 136.772406 203.805544 
L 136.856243 202.80919 
L 138.807866 202.311013 
L 138.856663 201.314658 
L 139.160875 200.816481 
L 139.430372 198.823772 
L 139.877572 198.325595 
L 140.01277 197.827418 
L 140.620067 197.329241 
L 140.713899 196.831064 
L 141.076825 196.332887 
L 141.472586 194.340178 
L 142.339468 193.343824 
L 142.617957 192.34747 
L 143.153719 191.849292 
L 143.415426 190.852938 
L 143.739397 188.860229 
L 143.793042 188.362052 
L 144.254919 187.365698 
L 144.2648 186.867521 
L 144.390295 186.369344 
L 144.695089 185.871167 
L 144.808283 185.372989 
L 145.680612 184.874812 
L 145.983393 183.878458 
L 146.620209 183.380281 
L 147.238606 181.885749 
L 147.649138 181.387572 
L 147.813072 180.391218 
L 148.18512 179.893041 
L 148.193178 179.394864 
L 148.711045 178.896686 
L 148.779006 178.398509 
L 149.762856 176.405801 
L 150.157496 175.907624 
L 150.768622 175.409446 
L 151.333844 174.413092 
L 151.630644 173.914915 
L 151.666712 173.416738 
L 154.353065 172.918561 
L 154.948152 172.420384 
L 155.028765 171.922206 
L 157.109791 171.424029 
L 158.047765 170.427675 
L 158.637001 169.431321 
L 159.572098 167.936789 
L 160.477384 167.438612 
L 160.778301 166.940435 
L 161.689656 165.944081 
L 161.758172 164.947726 
L 162.05736 164.449549 
L 162.069551 163.951372 
L 162.709199 162.456841 
L 163.113069 161.958663 
L 163.356976 161.460486 
L 163.745867 160.962309 
L 164.06589 159.467778 
L 164.502752 158.9696 
L 164.68493 157.973246 
L 164.859125 157.475069 
L 164.859968 156.976892 
L 166.023715 156.478715 
L 166.302763 155.980538 
L 166.895723 155.48236 
L 167.128769 154.984183 
L 168.691398 154.486006 
L 169.11787 153.987829 
L 171.809949 152.493297 
L 172.855639 151.99512 
L 174.933494 151.496943 
L 175.633841 150.998766 
L 175.826519 150.500589 
L 175.886071 150.002412 
L 176.534382 149.504235 
L 177.20547 148.50788 
L 178.575167 148.009703 
L 178.73661 147.511526 
L 178.790229 146.515172 
L 179.735694 145.02064 
L 180.34252 144.522463 
L 180.453155 144.024286 
L 180.813409 143.027932 
L 181.748913 142.529754 
L 181.878925 142.031577 
L 182.252072 141.5334 
L 182.357654 140.537046 
L 182.928743 139.042514 
L 184.735066 138.544337 
L 185.388644 138.04616 
L 187.444541 137.547983 
L 188.730895 137.049806 
L 189.042429 136.053452 
L 191.922463 135.555274 
L 192.425063 135.057097 
L 192.874104 134.060743 
L 193.008292 132.566211 
L 194.338738 132.068034 
L 194.639032 131.569857 
L 194.948748 130.573503 
L 195.732621 130.075326 
L 195.811827 129.577149 
L 196.39807 129.078971 
L 196.465924 128.580794 
L 197.591515 128.082617 
L 197.91822 127.58444 
L 199.194919 126.588086 
L 201.980433 126.089909 
L 202.498333 125.591731 
L 202.80924 125.093554 
L 202.835407 124.595377 
L 205.835063 123.599023 
L 210.963487 122.602668 
L 211.664405 122.104491 
L 212.459802 120.111783 
L 213.363423 119.115428 
L 213.973195 118.119074 
L 214.718752 117.620897 
L 217.031129 116.624543 
L 217.348811 115.628188 
L 217.871561 115.130011 
L 218.568311 114.631834 
L 223.260108 113.63548 
L 223.280995 113.137303 
L 225.669287 112.639125 
L 226.066551 112.140948 
L 226.297724 111.642771 
L 230.515344 110.646417 
L 232.205904 110.14824 
L 232.284918 109.650063 
L 233.109397 109.151885 
L 233.217703 108.653708 
L 233.752619 108.155531 
L 233.885858 107.657354 
L 234.361899 107.159177 
L 235.777444 106.162823 
L 236.545555 104.668291 
L 237.545271 103.671937 
L 237.784394 103.17376 
L 238.72499 102.177405 
L 239.09296 100.682874 
L 239.167894 100.184697 
L 241.19155 99.188342 
L 241.421162 98.690165 
L 241.989523 98.191988 
L 242.124352 97.195634 
L 242.662399 96.697457 
L 244.734412 96.19928 
L 244.735775 95.701102 
L 244.923954 95.202925 
L 246.272873 94.704748 
L 247.233801 94.206571 
L 247.824321 93.708394 
L 251.129693 93.210217 
L 251.39068 92.712039 
L 252.329567 92.213862 
L 252.627308 91.715685 
L 253.734686 91.217508 
L 257.368077 90.719331 
L 259.138663 90.221154 
L 259.147056 89.722977 
L 260.316016 88.726622 
L 264.137243 88.228445 
L 265.78145 87.730268 
L 267.559016 86.733914 
L 267.650044 86.235737 
L 270.193585 85.239382 
L 272.928871 84.741205 
L 274.236727 84.243028 
L 277.810457 83.744851 
L 278.78223 83.246674 
L 279.200209 82.250319 
L 281.292328 80.755788 
L 282.271579 79.759434 
L 286.871003 79.261256 
L 287.604273 78.763079 
L 288.633605 78.264902 
L 290.852398 77.766725 
L 292.385159 77.268548 
L 292.960147 76.770371 
L 294.5918 76.272194 
L 294.79055 75.774016 
L 297.161962 75.275839 
L 297.190986 74.777662 
L 298.122331 74.279485 
L 300.537146 73.781308 
L 300.786961 73.283131 
L 305.92367 72.784953 
L 311.993203 71.290422 
L 314.709126 70.792245 
L 314.932779 70.294068 
L 325.357391 69.297713 
L 326.08664 68.799536 
L 327.548469 68.301359 
L 330.40912 67.803182 
L 332.135257 67.305005 
L 332.753679 66.806828 
L 336.938733 66.308651 
L 338.314487 65.810473 
L 348.9702 65.312296 
L 349.843659 64.814119 
L 352.259186 64.315942 
L 352.259186 63.817765 
L 352.936367 63.319588 
L 355.713603 62.82141 
L 356.60749 62.323233 
L 356.742266 61.825056 
L 360.859025 61.326879 
L 362.657237 60.828702 
L 364.892267 60.330525 
L 365.117465 59.832348 
L 367.552593 58.835993 
L 370.514919 58.337816 
L 374.405213 57.839639 
L 388.703271 56.843285 
L 389.843773 56.345108 
L 393.11362 55.84693 
L 393.403343 55.348753 
L 397.381435 54.850576 
L 398.305154 54.352399 
L 401.350292 53.854222 
L 402.310578 53.356045 
L 402.978155 52.857867 
L 404.866577 52.35969 
L 405.303322 51.861513 
L 405.408422 51.363336 
L 406.547307 50.865159 
L 416.601731 50.366982 
L 419.780554 49.868805 
L 419.829372 49.370627 
L 429.840714 48.87245 
L 433.460389 48.374273 
L 435.909019 47.876096 
L 436.818682 46.879742 
L 440.958027 46.381565 
L 456.709311 45.883387 
L 459.413586 45.38521 
L 468.014737 44.887033 
L 469.660255 44.388856 
L 473.067722 43.890679 
L 479.568934 43.392502 
L 483.447165 42.396147 
L 483.739721 41.89797 
L 494.875319 41.399793 
L 498.837739 40.901616 
L 503.879852 40.403439 
L 525.389016 39.905262 
L 525.939548 39.407084 
L 533.83125 39.29194 
L 533.83125 39.29194 
" style="fill:none;stroke:#1f77b4;stroke-linecap:square;stroke-width:1.5;"/>
   </g>
   <g id="line2d_14">
    <path clip-path="url(#p1f49e7c8bc)" d="M 79.23125 225.47625 
L 124.483914 225.47625 
" style="fill:none;stroke:#808080;stroke-dasharray:5.55,2.4;stroke-dashoffset:0;stroke-opacity:0.4;stroke-width:1.5;"/>
   </g>
   <g id="line2d_15">
    <path clip-path="url(#p1f49e7c8bc)" d="M 124.483914 419.51625 
L 124.483914 225.47625 
" style="fill:none;stroke:#808080;stroke-dasharray:5.55,2.4;stroke-dashoffset:0;stroke-opacity:0.4;stroke-width:1.5;"/>
   </g>
   <g id="line2d_16">
    <path clip-path="url(#p1f49e7c8bc)" d="M 79.23125 128.45625 
L 196.465924 128.45625 
" style="fill:none;stroke:#808080;stroke-dasharray:5.55,2.4;stroke-dashoffset:0;stroke-opacity:0.4;stroke-width:1.5;"/>
   </g>
   <g id="line2d_17">
    <path clip-path="url(#p1f49e7c8bc)" d="M 196.465924 419.51625 
L 196.465924 128.45625 
" style="fill:none;stroke:#808080;stroke-dasharray:5.55,2.4;stroke-dashoffset:0;stroke-opacity:0.4;stroke-width:1.5;"/>
   </g>
   <g id="patch_3">
    <path d="M 79.23125 419.51625 
L 79.23125 31.43625 
" style="fill:none;stroke:#000000;stroke-linecap:square;stroke-linejoin:miter;stroke-width:2.5;"/>
   </g>
   <g id="patch_4">
    <path d="M 525.63125 419.51625 
L 525.63125 31.43625 
" style="fill:none;stroke:#000000;stroke-linecap:square;stroke-linejoin:miter;stroke-width:2.5;"/>
   </g>
   <g id="patch_5">
    <path d="M 79.23125 419.51625 
L 525.63125 419.51625 
" style="fill:none;stroke:#000000;stroke-linecap:square;stroke-linejoin:miter;stroke-width:2.5;"/>
   </g>
   <g id="patch_6">
    <path d="M 79.23125 31.43625 
L 525.63125 31.43625 
" style="fill:none;stroke:#000000;stroke-linecap:square;stroke-linejoin:miter;stroke-width:2.5;"/>
   </g>
   <g id="text_15">
    <!-- Cumulative Error -->
    <defs>
     <path d="M 64.40625 67.28125 
L 64.40625 56.890625 
Q 59.421875 61.53125 53.78125 63.8125 
Q 48.140625 66.109375 41.796875 66.109375 
Q 29.296875 66.109375 22.65625 58.46875 
Q 16.015625 50.828125 16.015625 36.375 
Q 16.015625 21.96875 22.65625 14.328125 
Q 29.296875 6.6875 41.796875 6.6875 
Q 48.140625 6.6875 53.78125 8.984375 
Q 59.421875 11.28125 64.40625 15.921875 
L 64.40625 5.609375 
Q 59.234375 2.09375 53.4375 0.328125 
Q 47.65625 -1.421875 41.21875 -1.421875 
Q 24.65625 -1.421875 15.125 8.703125 
Q 5.609375 18.84375 5.609375 36.375 
Q 5.609375 53.953125 15.125 64.078125 
Q 24.65625 74.21875 41.21875 74.21875 
Q 47.75 74.21875 53.53125 72.484375 
Q 59.328125 70.75 64.40625 67.28125 
z
" id="DejaVuSans-67"/>
     <path d="M 52 44.1875 
Q 55.375 50.25 60.0625 53.125 
Q 64.75 56 71.09375 56 
Q 79.640625 56 84.28125 50.015625 
Q 88.921875 44.046875 88.921875 33.015625 
L 88.921875 0 
L 79.890625 0 
L 79.890625 32.71875 
Q 79.890625 40.578125 77.09375 44.375 
Q 74.3125 48.1875 68.609375 48.1875 
Q 61.625 48.1875 57.5625 43.546875 
Q 53.515625 38.921875 53.515625 30.90625 
L 53.515625 0 
L 44.484375 0 
L 44.484375 32.71875 
Q 44.484375 40.625 41.703125 44.40625 
Q 38.921875 48.1875 33.109375 48.1875 
Q 26.21875 48.1875 22.15625 43.53125 
Q 18.109375 38.875 18.109375 30.90625 
L 18.109375 0 
L 9.078125 0 
L 9.078125 54.6875 
L 18.109375 54.6875 
L 18.109375 46.1875 
Q 21.1875 51.21875 25.484375 53.609375 
Q 29.78125 56 35.6875 56 
Q 41.65625 56 45.828125 52.96875 
Q 50 49.953125 52 44.1875 
z
" id="DejaVuSans-109"/>
     <path d="M 34.28125 27.484375 
Q 23.390625 27.484375 19.1875 25 
Q 14.984375 22.515625 14.984375 16.5 
Q 14.984375 11.71875 18.140625 8.90625 
Q 21.296875 6.109375 26.703125 6.109375 
Q 34.1875 6.109375 38.703125 11.40625 
Q 43.21875 16.703125 43.21875 25.484375 
L 43.21875 27.484375 
z
M 52.203125 31.203125 
L 52.203125 0 
L 43.21875 0 
L 43.21875 8.296875 
Q 40.140625 3.328125 35.546875 0.953125 
Q 30.953125 -1.421875 24.3125 -1.421875 
Q 15.921875 -1.421875 10.953125 3.296875 
Q 6 8.015625 6 15.921875 
Q 6 25.140625 12.171875 29.828125 
Q 18.359375 34.515625 30.609375 34.515625 
L 43.21875 34.515625 
L 43.21875 35.40625 
Q 43.21875 41.609375 39.140625 45 
Q 35.0625 48.390625 27.6875 48.390625 
Q 23 48.390625 18.546875 47.265625 
Q 14.109375 46.140625 10.015625 43.890625 
L 10.015625 52.203125 
Q 14.9375 54.109375 19.578125 55.046875 
Q 24.21875 56 28.609375 56 
Q 40.484375 56 46.34375 49.84375 
Q 52.203125 43.703125 52.203125 31.203125 
z
" id="DejaVuSans-97"/>
     <path d="M 2.984375 54.6875 
L 12.5 54.6875 
L 29.59375 8.796875 
L 46.6875 54.6875 
L 56.203125 54.6875 
L 35.6875 0 
L 23.484375 0 
z
" id="DejaVuSans-118"/>
    </defs>
    <g transform="translate(200.40875 25.43625)scale(0.24 -0.24)">
     <use xlink:href="#DejaVuSans-67"/>
     <use x="69.824219" xlink:href="#DejaVuSans-117"/>
     <use x="133.203125" xlink:href="#DejaVuSans-109"/>
     <use x="230.615234" xlink:href="#DejaVuSans-117"/>
     <use x="293.994141" xlink:href="#DejaVuSans-108"/>
     <use x="321.777344" xlink:href="#DejaVuSans-97"/>
     <use x="383.056641" xlink:href="#DejaVuSans-116"/>
     <use x="422.265625" xlink:href="#DejaVuSans-105"/>
     <use x="450.048828" xlink:href="#DejaVuSans-118"/>
     <use x="509.228516" xlink:href="#DejaVuSans-101"/>
     <use x="570.751953" xlink:href="#DejaVuSans-32"/>
     <use x="602.539062" xlink:href="#DejaVuSans-69"/>
     <use x="665.722656" xlink:href="#DejaVuSans-114"/>
     <use x="706.820312" xlink:href="#DejaVuSans-114"/>
     <use x="747.902344" xlink:href="#DejaVuSans-111"/>
     <use x="809.083984" xlink:href="#DejaVuSans-114"/>
    </g>
   </g>
   <g id="legend_1"/>
  </g>
 </g>
 <defs>
  <clipPath id="p1f49e7c8bc">
   <rect height="388.08" width="446.4" x="79.23125" y="31.43625"/>
  </clipPath>
 </defs>
</svg>
