<svg xmlns="http://www.w3.org/2000/svg" xmlns:xlink="http://www.w3.org/1999/xlink" width="723.705" height="639.905" viewBox="0 0 542.779 479.929"><defs><style>*{stroke-linecap:butt;stroke-linejoin:round}</style></defs><g id="figure_1"><path id="patch_1" fill="#fff" d="M0 479.929h542.779V0H0z"/><g id="axes_1"><path id="patch_2" fill="#fff" d="M79.231 419.516h446.4V31.436h-446.4z"/><path id="PolyCollection_1" fill="#1f77b4" fill-opacity=".3" d="M169.965 419.516v-19.429l1.527-.498 1.467-.498.862-.498 1.086-.498 2.89-.499.14-.498 3.345-.498 2.103-.498 2.24-.498 2.847-.498.291-.499.441-.498.313-.498.53-.498.128-.498.547-.498 2.01-.499.736-.498 1.539-.498.645-.498.837-.498.434-.499.566-.498 3.41-.498.322-.498.004-.498.996-.498 2.044-.499.623-.498.168-.498.675-.498 1.86-.498 1.737-.499 1.486-.498.059-.498.448-.498.572-.498.567-.498.042-.499.037-.498.17-.498.53-.498.42-.498.552-.498.156-.499.796-.498.268-.498.376-.498.57-.498 2.116-.499 1.207-.498.13-.498.223-.498 1.356-.498 1.373-.498 1.952-.499.179-.498.578-.498.723-.498.609-.498.153-.498.508-.499.265-.498.183-.498 5.156-.498.291-.498 1.927-.499.359-.498.817-.498.412-.498.441-.498.174-.498.17-.499.748-.498.012-.498.166-.498.15-.498.283-.498 3.675-.499.368-.498 1.016-.498.208-.498.113-.498.27-.499.073-.498.526-.498.071-.498.131-.498.063-.498.341-.499.153-.498.214-.498 1.056-.498.378-.498.398-.498.503-.499 1.168-.498 1.008-.498.61-.498.485-.498 1.584-.499.811-.498.099-.498.354-.498.099-.498.075-.498.356-.499.227-.498.156-.498.105-.498.106-.498.168-.499.3-.498 1.652-.498.136-.498.527-.498 1.216-.498.335-.499 1.698-.498.185-.498.133-.498.344-.498.344-.498.31-.499.122-.498.038-.498.296-.498.209-.498.092-.499.453-.498.484-.498.114-.498.547-.498.064-.498.248-.499.143-.498.116-.498.03-.498v-.498l.126-.498.057-.499.147-.498.301-.498.359-.498.371-.498.342-.499.394-.498.076-.498.252-.498.087-.498.064-.498.171-.499v-.498l1.173-.498.488-.498.25-.498.007-.498.298-.499.25-.498.486-.498.058-.498.079-.498.415-.499.042-.498.016-.498.366-.498.195-.498.307-.498.739-.499.368-.498.263-.498.228-.498.032-.498.622-.498.416-.499.108-.498.006-.498.1-.498.708-.498.027-.499.039-.498.168-.498.348-.498.116-.498.068-.498.157-.499.276-.498.049-.498.233-.498.74-.498.078-.498 1.127-.499.086-.498.565-.498.168-.498.084-.498v-.499l.072-.498.126-.498.016-.498.007-.498.096-.498.061-.499.026-.498.2-.498.054-.498.08-.498.143-.499.288-.498.056-.498.153-.498.046-.498.155-.498.54-.499.435-.498.443-.498.044-.498.158-.498.104-.498.145-.499.002-.498.094-.498.18-.498.14-.498.055-.499.015-.498.02-.498.035-.498.13-.498.29-.498.423-.499.16-.498.09-.498.11-.498.01-.498.052-.498.076-.499v-.498l.192-.498.247-.498v-.498l.015-.499.244-.498.294-.498.044-.498.067-.498.051-.498.091-.499.139-.498.043-.498.035-.498.078-.498.295-.498.067-.499.086-.498.178-.498.007-.498v-.498l.058-.499.06-.498.231-.498.045-.498.151-.498.068-.498.005-.499.013-.498.217-.498.045-.498.017-.498.08-.498.05-.499.386-.498.172-.498.022-.498.137-.498.047-.499.097-.498.045-.498.183-.498.17-.498.208-.498.051-.499.226-.498.084-.498.003-.498.062-.498.028-.499.243-.498.009-.498.092-.498.253-.498.001-.498.153-.499.015-.498.005-.498.342-.498v-.498l.1-.498.098-.499.068-.498.022-.498.163-.498.053-.498.07-.499.089-.498.095-.498.082-.498.113-.498.352-.498.093-.499.062-.498.22-.498.212-.498.01-.498.05-.498.153-.499.05-.498.19-.498.39-.498.053-.498.047-.499.072-.498.058-.498.033-.498.032-.498v-.498l.146-.499.04-.498.058-.498.179-.498.114-.498.01-.498.315-.499.009-.498.082-.498.058-.498.14-.498.041-.499.03-.498.115-.498.004-.498.018-.498.306-.498.071-.499.133-.498.239-.498.006-.498.198-.498.05-.498.17-.499.028-.498.066-.498.182-.498.132-.498.03-.499.216-.498.003-.498.008-.498.07-.498.153-.498.054-.499.15-.498.063-.498.028-.498.004-.498.085-.498.068-.499.145-.498.18-.498.13-.498.137-.498.026-.499.295-.498.013-.498.014-.498.047-.498.028-.498v-.499l.013-.498.007-.498.38-.498.358-.498.01-.499.021-.498.254-.498.023-.498.15-.498.142-.498.058-.499.314-.498.245-.498.009-.498.03-.498.009-.498.15-.499.098-.498.096-.498.061-.498.01-.498.145-.499.052-.498.02-.498.091-.498.038-.498.09-.498v-.499l.324-.498.093-.498.154-.498.063-.498.066-.498.197-.499.018-.498.214-.498.17-.498.055-.498.236-.499.248-.498.033-.498.088-.498.28-.498.236-.498.083-.499.005-.498.11-.498.107-.498.013-.498.14-.498v-.499l.05-.498.077-.498.065-.498.183-.498.517-.499.08-.498.036-.498.06-.498.1-.498.012-.498.16-.499.17-.498.007-.498.077-.498.081-.498.237-.498.177-.499.02-.498.03-.498.286-.498.07-.498.253-.499.19-.498.045-.498.044-.498 1.257-.498.028-.498.006-.499.194-.498.263-.498.036-.498.147-.498.003-.499.114-.498.046-.498.254-.498.091-.498.262-.498.133-.499.06-.498.186-.498.251-.498v-.498l.133-.498.08-.499.076-.498.021-.498.062-.498.212-.498.133-.499.06-.498.101-.498.009-.498.049-.498.225-.498.316-.499.236-.498.43-.498.052-.498.11-.498v-.498l.24-.499.015-.498.115-.498.001-.498.068-.498v-.499l.138-.498v-.498l.16-.498.225-.498.049-.498.022-.499.05-.498.174-.498.008-.498.114-.498.115-.498.226-.499.25-.498.012-.498.091-.498v-.498l.163-.499.031-.498.003-.498.059-.498.448-.498.153-.498.01-.499.101-.498.053-.498.278-.498.083-.498.503-.498.15-.499.34-.498.134-.498.153-.498.002-.498.148-.499.293-.498.235-.498.178-.498.019-.498.03-.498.198-.499.077-.498.058-.498.526-.498.013-.498.008-.498.138-.499.082-.498.046-.498.116-.498.013-.498.11-.499.246-.498.334-.498.028-.498.076-.498.671-.498v-.499l.488-.498.156-.498.204-.498.107-.498.066-.499.175-.498.116-.498.204-.498.189-.498.972-.498.139-.499.407-.498.155-.498.071-.498.399-.498.082-.498.056-.499.451-.498.371-.498.101-.498.227-.498.069-.499 1.235-.498.328-.498.218-.498.013-.498 1.358-.498.634-.499.168-.498.194-.498.131-.498.164-.498.558-.498.28-.499.733-.498.047-.498 1.098-.498.25-.498.077-.499.692-.498.257-.498.066-.498.141-.498.016-.498.487-.499.062-.498.495-.498.172-.498.354-.498.071-.498.726-.499.528-.498.253-.498.095-.498.297-.498.24-.499.551-.498.332-.498 1.051-.498.02-.498 1.892-.498 1.44-.499.59-.498.168-.498.227-.498.13-.498.51-.498.169-.499.513-.498.02-.498.193-.498.725-.498.398-.499.246-.498.029-.498.172-.498.655-.498.49-.498.131-.499.88-.498 1.754-.498 2.15-.498.143-.498.52-.499.993-.498.09-.498.01-.498.02-.498 1.948-.498.033-.499.297-.498 2.591-.498.724-.498.108-.498.067-.498 2.155-.499.038-.498 1.04-.498.575-.498.33-.498.671-.499.902-.498 2.033-.498.015-.498.759-.498.928-.498 1.548-.499 1.337-.498.495-.498.18-.498.466-.498.552-.498 1.837-.499.356-.498.392-.498 2.652-.498 4.07-.498.995-.499.463-.498.362-.498.711-.498.753-.498.107-.498.563-.499.39-.498.363-.498 1.427-.498.396-.498.302-.498 1.167-.499.106-.498.758-.498.541-.498 2.338-.498 5.021-.499 2.15-.498 1.976-.498 6.498-.498 1.727-.498 3-.498.58-.499 2.11-.498.323-.498 1.03-.498 1.334-.498.016-.498v367.654H169.965z" clip-path="url(#p1d0ed25a24)"/><g id="matplotlib.axis_1"><g id="xtick_1"><g id="line2d_1"><defs><path id="mbfba4dfb0c" stroke="#000" stroke-width="2.5" d="M0 0v7"/></defs><use xlink:href="#mbfba4dfb0c" x="85.187" y="419.516" stroke="#000" stroke-width="2.5"/></g><g id="text_1"><defs><path id="DejaVuSans-8722" d="M10.594 35.5h62.593v-8.297H10.594z"/><path id="DejaVuSans-49" d="M12.406 8.297h16.11v55.625l-17.532-3.516v8.985l17.438 3.515h9.86V8.296H54.39V0H12.406z"/><path id="DejaVuSans-46" d="M10.688 12.406H21V0H10.687z"/><path id="DejaVuSans-48" d="M31.781 66.406q-7.61 0-11.453-7.5Q16.5 51.422 16.5 36.375q0-14.984 3.828-22.484 3.844-7.5 11.453-7.5 7.672 0 11.5 7.5 3.844 7.5 3.844 22.484 0 15.047-3.844 22.531-3.828 7.5-11.5 7.5zm0 7.813q12.266 0 18.735-9.703 6.468-9.688 6.468-28.141 0-18.406-6.468-28.11-6.47-9.687-18.735-9.687-12.25 0-18.718 9.688-6.47 9.703-6.47 28.109 0 18.453 6.47 28.14Q19.53 74.22 31.78 74.22z"/></defs><g transform="matrix(.2 0 0 -.2 60.904 445.213)"><use xlink:href="#DejaVuSans-8722"/><use xlink:href="#DejaVuSans-49" x="83.789"/><use xlink:href="#DejaVuSans-46" x="147.412"/><use xlink:href="#DejaVuSans-48" x="179.199"/></g></g></g><g id="xtick_2"><use xlink:href="#mbfba4dfb0c" id="line2d_2" x="193.809" y="419.516" stroke="#000" stroke-width="2.5"/><g id="text_2"><defs><path id="DejaVuSans-53" d="M10.797 72.906h38.719v-8.312H19.828v-17.86q2.14.735 4.281 1.094 2.157.36 4.313.36 12.203 0 19.328-6.688 7.14-6.688 7.14-18.11 0-11.765-7.328-18.296-7.328-6.516-20.656-6.516-4.593 0-9.36.781-4.75.782-9.827 2.344v9.922q4.39-2.39 9.078-3.563 4.687-1.171 9.906-1.171 8.453 0 13.375 4.437 4.938 4.438 4.938 12.063 0 7.609-4.938 12.047-4.922 4.453-13.375 4.453-3.953 0-7.89-.875-3.922-.875-8.016-2.735z"/></defs><g transform="matrix(.2 0 0 -.2 169.526 445.213)"><use xlink:href="#DejaVuSans-8722"/><use xlink:href="#DejaVuSans-48" x="83.789"/><use xlink:href="#DejaVuSans-46" x="147.412"/><use xlink:href="#DejaVuSans-53" x="179.199"/></g></g></g><g id="xtick_3"><use xlink:href="#mbfba4dfb0c" id="line2d_3" x="302.431" y="419.516" stroke="#000" stroke-width="2.5"/><g id="text_3" transform="matrix(.2 0 0 -.2 286.528 445.213)"><use xlink:href="#DejaVuSans-48"/><use xlink:href="#DejaVuSans-46" x="63.623"/><use xlink:href="#DejaVuSans-48" x="95.41"/></g></g><g id="xtick_4"><use xlink:href="#mbfba4dfb0c" id="line2d_4" x="411.054" y="419.516" stroke="#000" stroke-width="2.5"/><g id="text_4" transform="matrix(.2 0 0 -.2 395.15 445.213)"><use xlink:href="#DejaVuSans-48"/><use xlink:href="#DejaVuSans-46" x="63.623"/><use xlink:href="#DejaVuSans-53" x="95.41"/></g></g><g id="xtick_5"><use xlink:href="#mbfba4dfb0c" id="line2d_5" x="519.676" y="419.516" stroke="#000" stroke-width="2.5"/><g id="text_5" transform="matrix(.2 0 0 -.2 503.773 445.213)"><use xlink:href="#DejaVuSans-49"/><use xlink:href="#DejaVuSans-46" x="63.623"/><use xlink:href="#DejaVuSans-48" x="95.41"/></g></g><g id="text_6"><defs><path id="DejaVuSans-82" d="M44.39 34.188q3.172-1.079 6.172-4.594 3-3.516 6.032-9.672L66.609 0H56l-9.313 18.703q-3.624 7.328-7.015 9.719-3.39 2.39-9.25 2.39h-10.75V0h-9.86v72.906h22.266q12.5 0 18.656-5.234 6.157-5.219 6.157-15.766 0-6.89-3.203-11.437-3.204-4.532-9.297-6.282zM19.673 64.797V38.922h12.406q7.125 0 10.766 3.297 3.64 3.297 3.64 9.687 0 6.39-3.64 9.64-3.64 3.25-10.766 3.25z"/><path id="DejaVuSans-101" d="M56.203 29.594v-4.39H14.891q.593-9.282 5.593-14.142 5-4.859 13.938-4.859 5.172 0 10.031 1.266 4.86 1.265 9.656 3.812v-8.5Q49.266.734 44.187-.344 39.11-1.422 33.892-1.422q-13.094 0-20.735 7.61-7.64 7.625-7.64 20.625 0 13.421 7.25 21.296Q20.016 56 32.328 56q11.031 0 17.453-7.11 6.422-7.093 6.422-19.296zm-8.984 2.64q-.094 7.36-4.125 11.75-4.032 4.407-10.672 4.407-7.516 0-12.031-4.25-4.516-4.25-5.203-11.97z"/><path id="DejaVuSans-115" d="M44.281 53.078v-8.5q-3.797 1.953-7.906 2.922-4.094.984-8.5.984-6.688 0-10.031-2.047-3.344-2.046-3.344-6.156 0-3.125 2.39-4.906 2.391-1.781 9.626-3.39l3.078-.688q9.562-2.047 13.593-5.781 4.032-3.735 4.032-10.422 0-7.625-6.032-12.078-6.03-4.438-16.578-4.438-4.39 0-9.156.86Q10.688.296 5.422 2v9.281q4.984-2.594 9.812-3.89 4.829-1.282 9.579-1.282 6.343 0 9.75 2.172 3.421 2.172 3.421 6.125 0 3.656-2.468 5.61-2.453 1.953-10.813 3.765l-3.125.735q-8.344 1.75-12.062 5.39-3.704 3.64-3.704 9.985 0 7.718 5.47 11.906Q16.75 56 26.811 56q4.97 0 9.36-.734 4.406-.72 8.11-2.188z"/><path id="DejaVuSans-105" d="M9.422 54.688h8.984V0H9.422zm0 21.296h8.984v-11.39H9.422z"/><path id="DejaVuSans-100" d="M45.406 46.39v29.594h8.985V0h-8.985v8.203Q42.578 3.328 38.25.953q-4.313-2.375-10.375-2.375-9.906 0-16.14 7.906-6.22 7.922-6.22 20.813 0 12.89 6.22 20.797Q17.968 56 27.874 56q6.063 0 10.375-2.375 4.328-2.36 7.156-7.234zm-30.61-19.093q0-9.906 4.079-15.547 4.078-5.64 11.203-5.64 7.125 0 11.219 5.64 4.11 5.64 4.11 15.547 0 9.906-4.11 15.547-4.094 5.64-11.219 5.64-7.125 0-11.203-5.64-4.078-5.64-4.078-15.547z"/><path id="DejaVuSans-117" d="M8.5 21.578v33.11h8.984V21.922q0-7.766 3.016-11.656 3.031-3.875 9.094-3.875 7.265 0 11.484 4.64 4.234 4.64 4.234 12.656v31h8.985V0h-8.984v8.406Q42.047 3.422 37.718 1q-4.313-2.422-10.032-2.422-9.421 0-14.312 5.86Q8.5 10.296 8.5 21.578zM31.11 56z"/><path id="DejaVuSans-97" d="M34.281 27.484q-10.89 0-15.093-2.484-4.204-2.484-4.204-8.5 0-4.781 3.157-7.594 3.156-2.797 8.562-2.797 7.485 0 12 5.297 4.516 5.297 4.516 14.078v2zm17.922 3.72V0H43.22v8.297Q40.14 3.328 35.547.953q-4.594-2.375-11.234-2.375-8.391 0-13.36 4.719Q6 8.016 6 15.922q0 9.219 6.172 13.906 6.187 4.688 18.437 4.688h12.61v.89q0 6.203-4.078 9.594-4.078 3.39-11.453 3.39-4.688 0-9.141-1.124-4.438-1.125-8.531-3.375v8.312q4.921 1.906 9.562 2.844 4.64.953 9.031.953 11.875 0 17.735-6.156 5.86-6.14 5.86-18.64z"/><path id="DejaVuSans-108" d="M9.422 75.984h8.984V0H9.422z"/></defs><g transform="matrix(.2 0 0 -.2 259.756 468.57)"><use xlink:href="#DejaVuSans-82"/><use xlink:href="#DejaVuSans-101" x="69.42"/><use xlink:href="#DejaVuSans-115" x="130.943"/><use xlink:href="#DejaVuSans-105" x="183.043"/><use xlink:href="#DejaVuSans-100" x="210.826"/><use xlink:href="#DejaVuSans-117" x="274.303"/><use xlink:href="#DejaVuSans-97" x="337.682"/><use xlink:href="#DejaVuSans-108" x="398.961"/></g></g></g><g id="matplotlib.axis_2"><g id="ytick_1"><g id="line2d_6"><defs><path id="ma1b3544e0b" stroke="#000" stroke-width="2.5" d="M0 0h-7"/></defs><use xlink:href="#ma1b3544e0b" x="79.231" y="419.516" stroke="#000" stroke-width="2.5"/></g><use xlink:href="#DejaVuSans-48" id="text_7" transform="matrix(.2 0 0 -.2 56.006 427.115)"/></g><g id="ytick_2"><use xlink:href="#ma1b3544e0b" id="line2d_7" x="79.231" y="341.9" stroke="#000" stroke-width="2.5"/><g id="text_8"><defs><path id="DejaVuSans-50" d="M19.188 8.297h34.421V0H7.33v8.297q5.609 5.812 15.296 15.594 9.703 9.797 12.188 12.64 4.734 5.313 6.609 9 1.89 3.688 1.89 7.25 0 5.813-4.078 9.469-4.078 3.672-10.625 3.672-4.64 0-9.797-1.61-5.14-1.609-11-4.89v9.969Q13.767 71.78 18.938 73q5.188 1.219 9.485 1.219 11.328 0 18.062-5.672 6.735-5.656 6.735-15.125 0-4.5-1.688-8.531-1.672-4.016-6.125-9.485-1.218-1.422-7.765-8.187-6.532-6.766-18.453-18.922z"/></defs><g transform="matrix(.2 0 0 -.2 43.281 349.499)"><use xlink:href="#DejaVuSans-50"/><use xlink:href="#DejaVuSans-48" x="63.623"/></g></g></g><g id="ytick_3"><use xlink:href="#ma1b3544e0b" id="line2d_8" x="79.231" y="264.284" stroke="#000" stroke-width="2.5"/><g id="text_9"><defs><path id="DejaVuSans-52" d="M37.797 64.313 12.89 25.39h24.906zm-2.594 8.593H47.61V25.391h10.407v-8.203H47.609V0h-9.812v17.188H4.89v9.515z"/></defs><g transform="matrix(.2 0 0 -.2 43.281 271.883)"><use xlink:href="#DejaVuSans-52"/><use xlink:href="#DejaVuSans-48" x="63.623"/></g></g></g><g id="ytick_4"><use xlink:href="#ma1b3544e0b" id="line2d_9" x="79.231" y="186.668" stroke="#000" stroke-width="2.5"/><g id="text_10"><defs><path id="DejaVuSans-54" d="M33.016 40.375q-6.641 0-10.532-4.547-3.875-4.531-3.875-12.437 0-7.86 3.875-12.438 3.891-4.562 10.532-4.562 6.64 0 10.515 4.562 3.875 4.578 3.875 12.438 0 7.906-3.875 12.437-3.875 4.547-10.515 4.547zm19.578 30.922v-8.984q-3.719 1.75-7.5 2.671-3.782.938-7.5.938-9.766 0-14.922-6.594-5.14-6.594-5.875-19.922 2.875 4.25 7.219 6.516 4.359 2.266 9.578 2.266 10.984 0 17.36-6.672 6.374-6.657 6.374-18.125 0-11.235-6.64-18.032-6.641-6.78-17.672-6.78-12.657 0-19.344 9.687-6.688 9.703-6.688 28.109 0 17.281 8.204 27.563 8.203 10.28 22.015 10.28 3.719 0 7.5-.734t7.89-2.187z"/></defs><g transform="matrix(.2 0 0 -.2 43.281 194.267)"><use xlink:href="#DejaVuSans-54"/><use xlink:href="#DejaVuSans-48" x="63.623"/></g></g></g><g id="ytick_5"><use xlink:href="#ma1b3544e0b" id="line2d_10" x="79.231" y="109.052" stroke="#000" stroke-width="2.5"/><g id="text_11"><defs><path id="DejaVuSans-56" d="M31.781 34.625q-7.031 0-11.062-3.766-4.016-3.765-4.016-10.343 0-6.594 4.016-10.36Q24.75 6.391 31.78 6.391q7.032 0 11.078 3.78 4.063 3.798 4.063 10.345 0 6.578-4.031 10.343-4.016 3.766-11.11 3.766zm-9.86 4.188q-6.343 1.562-9.89 5.906Q8.5 49.079 8.5 55.329q0 8.733 6.219 13.812 6.234 5.078 17.062 5.078 10.89 0 17.094-5.078 6.203-5.079 6.203-13.813 0-6.25-3.547-10.61-3.531-4.343-9.828-5.906 7.125-1.656 11.094-6.5 3.984-4.828 3.984-11.796 0-10.61-6.468-16.282-6.47-5.656-18.532-5.656-12.047 0-18.531 5.656-6.469 5.672-6.469 16.282 0 6.968 4 11.797 4.016 4.843 11.14 6.5zM18.314 54.39q0-5.657 3.53-8.828 3.548-3.172 9.938-3.172 6.36 0 9.938 3.172 3.593 3.171 3.593 8.828 0 5.672-3.593 8.843-3.578 3.172-9.938 3.172-6.39 0-9.937-3.172-3.532-3.172-3.532-8.843z"/></defs><g transform="matrix(.2 0 0 -.2 43.281 116.65)"><use xlink:href="#DejaVuSans-56"/><use xlink:href="#DejaVuSans-48" x="63.623"/></g></g></g><g id="ytick_6"><use xlink:href="#ma1b3544e0b" id="line2d_11" x="79.231" y="31.436" stroke="#000" stroke-width="2.5"/><g id="text_12" transform="matrix(.2 0 0 -.2 30.556 39.035)"><use xlink:href="#DejaVuSans-49"/><use xlink:href="#DejaVuSans-48" x="63.623"/><use xlink:href="#DejaVuSans-48" x="127.246"/></g></g><g id="text_13"><defs><path id="DejaVuSans-80" d="M19.672 64.797v-27.39h12.406q6.89 0 10.64 3.562 3.766 3.562 3.766 10.156 0 6.547-3.765 10.11-3.75 3.562-10.64 3.562zm-9.86 8.11h22.266q12.266 0 18.531-5.548 6.282-5.546 6.282-16.234 0-10.797-6.282-16.313-6.265-5.515-18.53-5.515H19.671V0h-9.86z"/><path id="DejaVuSans-114" d="M41.11 46.297q-1.516.875-3.297 1.281Q36.03 48 33.89 48q-7.625 0-11.703-4.953-4.079-4.953-4.079-14.234V0H9.08v54.688h9.03v-8.5q2.844 4.984 7.375 7.39Q30.031 56 36.531 56q.922 0 2.047-.125 1.125-.11 2.484-.36z"/><path id="DejaVuSans-99" d="M48.781 52.594v-8.407q-3.812 2.11-7.64 3.157-3.828 1.047-7.735 1.047-8.75 0-13.593-5.547-4.829-5.532-4.829-15.547 0-10.016 4.829-15.563 4.843-5.53 13.593-5.53 3.907 0 7.735 1.046 3.828 1.047 7.64 3.156V2.094Q45.016.344 40.984-.531q-4.015-.89-8.562-.89-12.36 0-19.64 7.765-7.266 7.765-7.266 20.953 0 13.375 7.343 21.031Q20.22 56 33.016 56q4.14 0 8.093-.86 3.953-.843 7.672-2.546z"/><path id="DejaVuSans-110" d="M54.89 33.016V0h-8.984v32.719q0 7.765-3.031 11.61-3.031 3.858-9.078 3.858-7.281 0-11.484-4.64-4.204-4.625-4.204-12.64V0H9.08v54.688h9.03v-8.5q3.235 4.937 7.594 7.374Q30.078 56 35.797 56q9.422 0 14.25-5.828 4.844-5.828 4.844-17.156z"/><path id="DejaVuSans-116" d="M18.313 70.219V54.688h18.5v-6.985h-18.5V18.016q0-6.688 1.828-8.594 1.828-1.906 7.453-1.906h9.218V0h-9.218q-10.407 0-14.36 3.875-3.953 3.89-3.953 14.14v29.688H2.687v6.984h6.594V70.22z"/></defs><g transform="matrix(0 -.2 -.2 0 22.397 275.38)"><use xlink:href="#DejaVuSans-80"/><use xlink:href="#DejaVuSans-101" x="60.256"/><use xlink:href="#DejaVuSans-114" x="121.779"/><use xlink:href="#DejaVuSans-99" x="162.861"/><use xlink:href="#DejaVuSans-101" x="217.842"/><use xlink:href="#DejaVuSans-110" x="279.365"/><use xlink:href="#DejaVuSans-116" x="342.744"/><use xlink:href="#DejaVuSans-105" x="381.953"/><use xlink:href="#DejaVuSans-108" x="409.736"/><use xlink:href="#DejaVuSans-101" x="437.52"/></g></g></g><path id="line2d_12" fill="none" stroke="#1f77b4" stroke-linecap="square" stroke-width="1.5" d="m-1 418.771 28.483-.251.782-.498 35.283-.498 5.065-.997 6.265-.498.164-.498 8.682-.498 6.36-.499 11.189-.498.511-.996 1.378-.498 2.036-.498 5.632-.499 8.112-.498.305-.498 1.978-.996 4.634-.498 1.84-.499.64-.498 4.415-.498 7.484-.498 1.37-.997.126-.498 4.585-.498.076-.498 2.065-.498.381-.498v-.499l1.359-.498.491-.498 5.995-.498.774-.498 2.702-.498 9.803-.499 2.994-.996.862-.498 1.086-.498 2.89-.499.14-.498 3.345-.498 4.343-.996 2.847-.498.291-.499 1.284-1.494.128-.498.547-.498 2.01-.499.736-.498 1.539-.498.645-.498.837-.498 1-.997 3.41-.498.322-.498.004-.498.996-.498 2.044-.499.623-.498.168-.498.675-.498 3.597-.997 1.486-.498.059-.498 1.02-.996.567-.498.079-.997.17-.498 1.502-1.494.156-.499.796-.498.644-.996.57-.498 2.116-.499 1.207-.498.353-.996 2.729-.996 1.952-.499.179-.498 1.3-.996.61-.498.153-.498.508-.499.448-.996 5.156-.498.291-.498 1.927-.499.359-.498.817-.498.853-.996.343-.997.749-.498.012-.498.599-1.494 3.675-.499.368-.498 1.016-.498.59-1.495.074-.498.526-.498.265-1.494.341-.499.367-.996 1.056-.498.776-.996.503-.499 2.176-.996 1.095-.996 1.584-.499.811-.498.099-.498.354-.498.174-.996.583-.997.835-2.49 1.652-.499.136-.498.527-.498 1.216-.498.335-.499 1.698-.498.662-1.494.654-.997.456-1.494.301-.997.937-.996.114-.498.547-.498.064-.498.391-.997.147-.996v-.498l.33-1.495 1.03-1.494.736-.997.076-.498.252-.498.322-1.993 1.173-.498.488-.498.25-.498.007-.498.548-.997.486-.498.137-.996.415-.499.058-.996.366-.498.502-.996.739-.499.631-.996.228-.498.032-.498.622-.498.416-.499.215-1.494.707-.498.066-.997.168-.498.348-.498.341-1.495.276-.498.049-.498.233-.498.74-.498.078-.498 1.127-.499.086-.498.565-.498.252-.996.072-.997.142-.996.103-.996.341-1.993.223-.997.288-.498.255-1.494.155-.498.975-.997.443-.498.044-.498.407-1.495.096-.996.32-.996.254-2.491.291-.498.423-.499.25-.996.12-.996.32-1.993.247-.498.015-.997.538-.996.253-1.993.182-.996.113-.996.295-.498.153-.997.178-.498.126-1.993.23-.498.196-.996.073-.997.013-.498.217-.498.192-1.993.386-.498.172-.498.022-.498.184-.997.495-1.992.208-.498.051-.499.226-.498.15-1.494.027-.499.243-.498.101-.996.253-.498.001-.498.153-.499.02-.996.342-.498.1-.996.404-2.491.45-2.491.351-.498.375-1.495.212-.498.06-.996.393-1.495.39-.498.54-4.982.292-.996.01-.498.315-.499.091-.996.406-3.487.306-.498.204-.997.239-.498.006-.498.198-.498.05-.498.17-.499.094-.996.314-.996.03-.499.216-.498.081-1.494.357-1.495.393-2.989.447-1.494.026-.499.295-.498.122-3.487.738-.996.031-.997.254-.498.023-.498.664-1.993.245-.498.048-1.494.344-1.495.508-4.484.323-.498.59-2.989.386-.996.054-.498.484-.997.121-.996.516-.996.459-2.99.049-.996.325-1.494.517-.499.783-4.981.414-.997.05-.996.286-.498.07-.498.443-.997.089-.996 1.257-.498.034-.997.493-1.494.147-.498.003-.499.505-1.992.262-.498.844-3.488.37-1.992.294-1.495.058-.996.777-1.495.43-.498.162-1.494.24-.499.131-1.494.366-2.491.225-.498.303-2.491.455-1.495.25-.498.103-1.494.163-.499.093-1.494.448-.498.153-.498.111-.997.053-.498.278-.498.083-.498.503-.498.15-.499.34-.498.73-2.49.413-.997.05-.996.274-.997.058-.498.526-.498.02-.996.221-.997.284-1.993.581-.996.104-.996.671-.498v-.499l.488-.498 1.217-3.985.972-.498.139-.499.407-.498.226-.996.399-.498.138-.997.822-.996.101-.498.227-.498.069-.499 1.235-.498.546-.996.013-.498 1.358-.498.634-.499.657-1.992.558-.498.28-.499.733-.498.047-.498 1.098-.498.25-.498.077-.499.692-.498.257-.498.223-1.494.487-.499.062-.498.495-.498.172-.498.354-.498.071-.498.726-.499.528-.498.253-.498.095-.498.537-.997.551-.498.332-.498 1.051-.498.02-.498 1.892-.498 1.44-.499.59-.498.525-1.494.51-.498.169-.499.513-.498.02-.498.193-.498.725-.498.398-.499.246-.498.029-.498.172-.498 1.145-.996.131-.499.88-.498 3.905-.996.142-.498.52-.499.993-.498.1-.996.02-.498 1.948-.498.033-.499.297-.498 2.591-.498.724-.498.175-.996 2.155-.499.038-.498 1.04-.498.575-.498.33-.498.671-.499.902-.498 2.033-.498.015-.498 1.687-.996 2.885-.997.495-.498.18-.498 1.018-.996 1.837-.499.748-.996 2.652-.498 4.07-.498.995-.499 1.536-1.494.753-.498.107-.498.563-.499.753-.996 1.427-.498.698-.996 1.167-.499.106-.498.758-.498.541-.498 2.338-.498 5.021-.499 4.126-.996 6.498-.498 1.727-.498 3-.498.58-.499 2.11-.498.323-.498 1.03-.498 1.334-.498.016-.498.524-.499 9.457-.498 5.864-.996.41-.498.823-.499 2.928-.996 12.916-.498 2.894-.498 1.012-.498 4.42-.499 2.189-.498 10.687-.498 2.238-.498.52-.498 2.253-.498 1.683-.499.7-.498 5.656-.498 1.788-.498 22.295-.997 5.765-.498 1.917-.498 3.657-.498 1.03-.498 15.11-.304" clip-path="url(#p1d0ed25a24)"/><path id="line2d_13" fill="none" stroke="gray" stroke-dasharray="5.55,2.4" stroke-opacity=".4" stroke-width="1.5" d="M302.431 419.516V31.436" clip-path="url(#p1d0ed25a24)"/><path id="line2d_14" fill="none" stroke="gray" stroke-dasharray="5.55,2.4" stroke-opacity=".4" stroke-width="1.5" d="M79.231 225.476h223.2" clip-path="url(#p1d0ed25a24)"/><path id="patch_3" fill="none" stroke="#000" stroke-linecap="square" stroke-width="2.5" d="M79.231 419.516V31.436"/><path id="patch_4" fill="none" stroke="#000" stroke-linecap="square" stroke-width="2.5" d="M525.631 419.516V31.436"/><path id="patch_5" fill="none" stroke="#000" stroke-linecap="square" stroke-width="2.5" d="M79.231 419.516h446.4"/><path id="patch_6" fill="none" stroke="#000" stroke-linecap="square" stroke-width="2.5" d="M79.231 31.436h446.4"/><g id="text_14"><defs><path id="DejaVuSans-67" d="M64.406 67.281v-10.39q-4.984 4.64-10.625 6.922-5.64 2.296-11.984 2.296-12.5 0-19.14-7.64-6.641-7.64-6.641-22.094 0-14.406 6.64-22.047 6.64-7.64 19.14-7.64 6.345 0 11.985 2.296 5.64 2.297 10.625 6.938V5.609Q59.234 2.094 53.437.33q-5.78-1.75-12.218-1.75-16.563 0-26.094 10.124-9.516 10.14-9.516 27.672 0 17.578 9.516 27.703 9.531 10.14 26.094 10.14 6.531 0 12.312-1.734 5.797-1.734 10.875-5.203z"/><path id="DejaVuSans-109" d="M52 44.188q3.375 6.062 8.063 8.937Q64.75 56 71.093 56q8.548 0 13.188-5.984 4.64-5.97 4.64-17V0h-9.03v32.719q0 7.86-2.797 11.656-2.781 3.813-8.485 3.813-6.984 0-11.046-4.641-4.047-4.625-4.047-12.64V0h-9.032v32.719q0 7.906-2.78 11.687-2.782 3.782-8.595 3.782-6.89 0-10.953-4.657-4.047-4.656-4.047-12.625V0H9.08v54.688h9.03v-8.5q3.078 5.03 7.375 7.421Q29.781 56 35.687 56q5.97 0 10.141-3.031Q50 49.953 52 44.187z"/><path id="DejaVuSans-118" d="M2.984 54.688H12.5L29.594 8.797l17.093 45.89h9.516L35.687 0H23.485z"/></defs><g transform="matrix(.24 0 0 -.24 178.917 25.436)"><use xlink:href="#DejaVuSans-67"/><use xlink:href="#DejaVuSans-117" x="69.824"/><use xlink:href="#DejaVuSans-109" x="133.203"/><use xlink:href="#DejaVuSans-117" x="230.615"/><use xlink:href="#DejaVuSans-108" x="293.994"/><use xlink:href="#DejaVuSans-97" x="321.777"/><use xlink:href="#DejaVuSans-116" x="383.057"/><use xlink:href="#DejaVuSans-105" x="422.266"/><use xlink:href="#DejaVuSans-118" x="450.049"/><use xlink:href="#DejaVuSans-101" x="509.229"/><use xlink:href="#DejaVuSans-32" x="570.752"/><use xlink:href="#DejaVuSans-82" x="602.539"/><use xlink:href="#DejaVuSans-101" x="671.959"/><use xlink:href="#DejaVuSans-115" x="733.482"/><use xlink:href="#DejaVuSans-105" x="785.582"/><use xlink:href="#DejaVuSans-100" x="813.365"/><use xlink:href="#DejaVuSans-117" x="876.842"/><use xlink:href="#DejaVuSans-97" x="940.221"/><use xlink:href="#DejaVuSans-108" x="1001.5"/></g></g></g></g><defs><clipPath id="p1d0ed25a24"><path d="M79.231 31.436h446.4v388.08h-446.4z"/></clipPath></defs></svg>