<svg height="449.432" viewBox="0 0 723.766 337.074" width="965.021" xmlns="http://www.w3.org/2000/svg" xmlns:xlink="http://www.w3.org/1999/xlink"><defs><style>*{stroke-linecap:butt;stroke-linejoin:round}</style></defs><g id="figure_1"><path d="M0 337.074h723.766V0H0z" fill="#fff" id="patch_1"/><g id="axes_1"><path d="M46.966 299.518h304.363v-277.2H46.966z" fill="#fff" id="patch_2"/><path clip-path="url(#pfd4aebad22)" d="M108.83 299.518V285.64l1.041-.356 1-.355.587-.356.741-.356 1.97-.356.096-.356 2.28-.356 1.435-.355 1.527-.356 1.94-.356.2-.356.3-.356.213-.356.362-.355.087-.356.373-.356 1.37-.356.502-.356 1.05-.356.44-.355.57-.356.296-.356.386-.356 2.325-.356.22-.356.002-.356.68-.355 1.393-.356.425-.356.114-.356.46-.356 1.268-.356 1.185-.355 1.013-.356.04-.356.306-.356.39-.356.386-.356.03-.355.024-.356.116-.356.361-.356.287-.356.376-.356.107-.356.543-.355.182-.356.257-.356.388-.356 1.443-.356.823-.356.088-.355.153-.356.924-.356.936-.356 1.331-.356.122-.356.394-.355.493-.356.415-.356.105-.356.346-.356.18-.356.125-.355 3.516-.356.199-.356 1.314-.356.244-.356.557-.356.281-.356.3-.355.12-.356.115-.356.51-.356.008-.356.114-.356.102-.355.192-.356 2.507-.356.25-.356.693-.356.142-.356.077-.355.184-.356.05-.356.358-.356.05-.356.089-.356.042-.356.233-.355.104-.356.146-.356.72-.356.258-.356.271-.356.343-.355.797-.356.687-.356.415-.356.331-.356 1.08-.356.553-.355.067-.356.242-.356.067-.356.052-.356.242-.356.155-.355.107-.356.071-.356.072-.356.115-.356.204-.356 1.127-.356.092-.355.36-.356.829-.356.228-.356 1.158-.356.126-.356.091-.355.234-.356.235-.356.211-.356.083-.356.026-.356.202-.355.143-.356.063-.356.308-.356.33-.356.078-.356.373-.355.044-.356.168-.356.098-.356.08-.356.02-.356v-.356l.086-.355.038-.356.1-.356.206-.356.244-.356.254-.356.233-.355.269-.356.051-.356.172-.356.06-.356.043-.356.117-.355v-.356l.8-.356.332-.356.17-.356.006-.356.203-.356.17-.355.331-.356.04-.356.054-.356.283-.356.029-.356.01-.355.25-.356.133-.356.21-.356.503-.356.251-.356.18-.355.155-.356.022-.356.424-.356.283-.356.074-.356.004-.355.069-.356.482-.356.018-.356.027-.356.114-.356.238-.356.08-.355.045-.356.107-.356.189-.356.033-.356.159-.356.504-.355.054-.356.768-.356.058-.356.386-.356.114-.356.057-.355.001-.356.049-.356.085-.356.011-.356.005-.356.066-.356.041-.355.018-.356.137-.356.036-.356.055-.356.097-.356.197-.355.038-.356.104-.356.031-.356.106-.356.368-.356.297-.355.302-.356.03-.356.108-.356.07-.356.1-.356.001-.355.064-.356.122-.356.096-.356.038-.356.01-.356.013-.356.024-.355.088-.356.199-.356.288-.356.11-.356.06-.356.075-.355.007-.356.036-.356.052-.356v-.356l.13-.356.169-.355v-.356l.01-.356.166-.356.201-.356.03-.356.046-.356.035-.355.061-.356.095-.356.03-.356.023-.356.054-.356.2-.355.046-.356.06-.356.12-.356.005-.356v-.356l.04-.355.041-.356.157-.356.03-.356.104-.356.046-.356.004-.355.008-.356.149-.356.03-.356.012-.356.055-.356.033-.356.263-.355.118-.356.015-.356.093-.356.032-.356.066-.356.031-.355.125-.356.116-.356.142-.356.034-.356.155-.356.057-.355.002-.356.042-.356.019-.356.166-.356.006-.356.063-.356.172-.355v-.356l.105-.356.01-.356.004-.356.233-.356v-.355l.068-.356.067-.356.046-.356.015-.356.111-.356.037-.355.048-.356.06-.356.065-.356.056-.356.077-.356.24-.355.063-.356.043-.356.15-.356.144-.356.006-.356.035-.356.104-.355.035-.356.129-.356.266-.356.036-.356.032-.356.05-.355.039-.356.022-.356.022-.356v-.356l.1-.356.027-.355.04-.356.121-.356.078-.356.006-.356.216-.356.006-.356.056-.355.04-.356.094-.356.029-.356.02-.356.078-.356.003-.355.012-.356.209-.356.049-.356.09-.356.163-.356.004-.355.135-.356.034-.356.116-.356.02-.356.044-.356.124-.355.09-.356.021-.356.147-.356.002-.356.005-.356.048-.356.105-.355.037-.356.102-.356.043-.356.019-.356.002-.356.058-.355.047-.356.099-.356.122-.356.09-.356.092-.356.018-.355.202-.356.009-.356.009-.356.032-.356.02-.356v-.355l.007-.356.006-.356.258-.356.245-.356.007-.356.014-.356.173-.355.015-.356.102-.356.098-.356.04-.356.213-.356.168-.355.005-.356.02-.356.007-.356.102-.356.067-.356.065-.355.043-.356.006-.356.1-.356.035-.356.013-.356.062-.356.026-.355.062-.356v-.356l.22-.356.064-.356.105-.356.043-.355.045-.356.134-.356.012-.356.146-.356.117-.356.037-.355.16-.356.17-.356.022-.356.06-.356.192-.356.16-.355.057-.356.003-.356.075-.356.073-.356.009-.356.096-.356v-.355l.033-.356.053-.356.044-.356.125-.356.352-.356.054-.355.025-.356.042-.356.068-.356.007-.356.11-.356.116-.355.004-.356.053-.356.056-.356.16-.356.122-.356.013-.356.021-.355.195-.356.047-.356.173-.356.13-.356.03-.356.03-.355.857-.356.02-.356.003-.356.133-.356.179-.356.025-.355.1-.356.001-.356.079-.356.03-.356.174-.356.062-.355.178-.356.091-.356.041-.356.127-.356.171-.356v-.356l.09-.355.056-.356.051-.356.015-.356.042-.356.145-.356.09-.355.04-.356.07-.356.006-.356.033-.356.153-.356.216-.355.161-.356.293-.356.036-.356.075-.356v-.356l.163-.356.01-.355.079-.356.001-.356.046-.356v-.356l.094-.356v-.355l.11-.356.153-.356.033-.356.015-.356.034-.356.119-.355.005-.356.078-.356.078-.356.154-.356.171-.356.008-.355.062-.356v-.356l.111-.356.022-.356.002-.356.04-.356.305-.355.104-.356.007-.356.07-.356.035-.356.19-.356.057-.355.342-.356.103-.356.23-.356.093-.356.104-.356.002-.355.1-.356.2-.356.16-.356.122-.356.013-.356.02-.356.135-.355.053-.356.04-.356.358-.356.008-.356.006-.356.095-.355.055-.356.031-.356.08-.356.008-.356.075-.356.168-.355.228-.356.019-.356.052-.356.458-.356v-.356l.332-.355.106-.356.14-.356.073-.356.044-.356.12-.356.079-.356.14-.355.128-.356.663-.356.094-.356.278-.356.106-.356.048-.355.272-.356.056-.356.038-.356.308-.356.253-.356.069-.355.154-.356.047-.356.842-.356.224-.356.149-.356.008-.356.926-.355.433-.356.114-.356.132-.356.09-.356.112-.356.38-.355.191-.356.5-.356.032-.356.748-.356.171-.356.052-.355.472-.356.175-.356.046-.356.096-.356.01-.356.333-.355.042-.356.337-.356.117-.356.242-.356.048-.356.495-.356.36-.355.173-.356.065-.356.202-.356.164-.356.376-.356.226-.355.716-.356.014-.356 1.29-.356.982-.356.402-.356.115-.355.154-.356.09-.356.347-.356.115-.356.35-.356.013-.355.132-.356.494-.356.272-.356.168-.356.019-.356.117-.356.447-.355.334-.356.09-.356.6-.356 1.195-.356 1.467-.356.097-.355.354-.356.677-.356.062-.356.006-.356.015-.356 1.327-.355.023-.356.202-.356 1.767-.356.493-.356.074-.356.046-.356 1.47-.355.025-.356.71-.356.391-.356.225-.356.458-.356.615-.355 1.386-.356.01-.356.517-.356.634-.356 1.055-.356.912-.355.337-.356.122-.356.318-.356.377-.356 1.252-.356.243-.355.268-.356 1.807-.356 2.775-.356.679-.356.316-.356.247-.356.484-.355.514-.356.073-.356.383-.356.266-.356.248-.356.973-.355.27-.356.206-.356.795-.356.072-.356.518-.356.368-.355 1.595-.356 3.423-.356 1.466-.356 1.347-.356 4.43-.356 1.178-.356 2.045-.355.395-.356 1.44-.356.22-.356.702-.356.91-.356.01-.355v262.61H108.83z" fill="#1f77b4" fill-opacity=".3" id="PolyCollection_1"/><g id="matplotlib.axis_1"><g id="xtick_1"><g id="line2d_1"><defs><path d="M0 0v3.5" id="mc60c40396a" stroke="#000" stroke-width=".8"/></defs><use x="51.026" xlink:href="#mc60c40396a" y="299.518" stroke="#000" stroke-width=".8"/></g><g id="text_1"><defs><path d="M10.594 35.5h62.593v-8.297H10.594z" id="DejaVuSans-8722"/><path d="M12.406 8.297h16.11v55.625l-17.532-3.516v8.985l17.438 3.515h9.86V8.296H54.39V0H12.406z" id="DejaVuSans-49"/><path d="M10.688 12.406H21V0H10.687z" id="DejaVuSans-46"/><path d="M31.781 66.406q-7.61 0-11.453-7.5Q16.5 51.422 16.5 36.375q0-14.984 3.828-22.484 3.844-7.5 11.453-7.5 7.672 0 11.5 7.5 3.844 7.5 3.844 22.484 0 15.047-3.844 22.531-3.828 7.5-11.5 7.5zm0 7.813q12.266 0 18.735-9.703 6.468-9.688 6.468-28.141 0-18.406-6.468-28.11-6.47-9.687-18.735-9.687-12.25 0-18.718 9.688-6.47 9.703-6.47 28.109 0 18.453 6.47 28.14Q19.53 74.22 31.78 74.22z" id="DejaVuSans-48"/></defs><g transform="matrix(.1 0 0 -.1 35.703 314.117)"><use xlink:href="#DejaVuSans-8722"/><use x="83.789" xlink:href="#DejaVuSans-49"/><use x="147.412" xlink:href="#DejaVuSans-46"/><use x="179.199" xlink:href="#DejaVuSans-48"/><use x="242.822" xlink:href="#DejaVuSans-48"/></g></g></g><g id="xtick_2"><use x="88.056" xlink:href="#mc60c40396a" y="299.518" stroke="#000" stroke-width=".8" id="line2d_2"/><g id="text_2"><defs><path d="M8.203 72.906h46.875v-4.203L28.61 0H18.312L43.22 64.594H8.203z" id="DejaVuSans-55"/><path d="M10.797 72.906h38.719v-8.312H19.828v-17.86q2.14.735 4.281 1.094 2.157.36 4.313.36 12.203 0 19.328-6.688 7.14-6.688 7.14-18.11 0-11.765-7.328-18.296-7.328-6.516-20.656-6.516-4.593 0-9.36.781-4.75.782-9.827 2.344v9.922q4.39-2.39 9.078-3.563 4.687-1.171 9.906-1.171 8.453 0 13.375 4.437 4.938 4.438 4.938 12.063 0 7.609-4.938 12.047-4.922 4.453-13.375 4.453-3.953 0-7.89-.875-3.922-.875-8.016-2.735z" id="DejaVuSans-53"/></defs><g transform="matrix(.1 0 0 -.1 72.734 314.117)"><use xlink:href="#DejaVuSans-8722"/><use x="83.789" xlink:href="#DejaVuSans-48"/><use x="147.412" xlink:href="#DejaVuSans-46"/><use x="179.199" xlink:href="#DejaVuSans-55"/><use x="242.822" xlink:href="#DejaVuSans-53"/></g></g></g><g id="xtick_3"><use x="125.087" xlink:href="#mc60c40396a" y="299.518" stroke="#000" stroke-width=".8" id="line2d_3"/><g transform="matrix(.1 0 0 -.1 109.764 314.117)" id="text_3"><use xlink:href="#DejaVuSans-8722"/><use x="83.789" xlink:href="#DejaVuSans-48"/><use x="147.412" xlink:href="#DejaVuSans-46"/><use x="179.199" xlink:href="#DejaVuSans-53"/><use x="242.822" xlink:href="#DejaVuSans-48"/></g></g><g id="xtick_4"><use x="162.117" xlink:href="#mc60c40396a" y="299.518" stroke="#000" stroke-width=".8" id="line2d_4"/><g id="text_4"><defs><path d="M19.188 8.297h34.421V0H7.33v8.297q5.609 5.812 15.296 15.594 9.703 9.797 12.188 12.64 4.734 5.313 6.609 9 1.89 3.688 1.89 7.25 0 5.813-4.078 9.469-4.078 3.672-10.625 3.672-4.64 0-9.797-1.61-5.14-1.609-11-4.89v9.969Q13.767 71.78 18.938 73q5.188 1.219 9.485 1.219 11.328 0 18.062-5.672 6.735-5.656 6.735-15.125 0-4.5-1.688-8.531-1.672-4.016-6.125-9.485-1.218-1.422-7.765-8.187-6.532-6.766-18.453-18.922z" id="DejaVuSans-50"/></defs><g transform="matrix(.1 0 0 -.1 146.794 314.117)"><use xlink:href="#DejaVuSans-8722"/><use x="83.789" xlink:href="#DejaVuSans-48"/><use x="147.412" xlink:href="#DejaVuSans-46"/><use x="179.199" xlink:href="#DejaVuSans-50"/><use x="242.822" xlink:href="#DejaVuSans-53"/></g></g></g><g id="xtick_5"><use x="199.147" xlink:href="#mc60c40396a" y="299.518" stroke="#000" stroke-width=".8" id="line2d_5"/><g transform="matrix(.1 0 0 -.1 188.015 314.117)" id="text_5"><use xlink:href="#DejaVuSans-48"/><use x="63.623" xlink:href="#DejaVuSans-46"/><use x="95.41" xlink:href="#DejaVuSans-48"/><use x="159.033" xlink:href="#DejaVuSans-48"/></g></g><g id="xtick_6"><use x="236.178" xlink:href="#mc60c40396a" y="299.518" stroke="#000" stroke-width=".8" id="line2d_6"/><g transform="matrix(.1 0 0 -.1 225.045 314.117)" id="text_6"><use xlink:href="#DejaVuSans-48"/><use x="63.623" xlink:href="#DejaVuSans-46"/><use x="95.41" xlink:href="#DejaVuSans-50"/><use x="159.033" xlink:href="#DejaVuSans-53"/></g></g><g id="xtick_7"><use x="273.208" xlink:href="#mc60c40396a" y="299.518" stroke="#000" stroke-width=".8" id="line2d_7"/><g transform="matrix(.1 0 0 -.1 262.075 314.117)" id="text_7"><use xlink:href="#DejaVuSans-48"/><use x="63.623" xlink:href="#DejaVuSans-46"/><use x="95.41" xlink:href="#DejaVuSans-53"/><use x="159.033" xlink:href="#DejaVuSans-48"/></g></g><g id="xtick_8"><use x="310.238" xlink:href="#mc60c40396a" y="299.518" stroke="#000" stroke-width=".8" id="line2d_8"/><g transform="matrix(.1 0 0 -.1 299.106 314.117)" id="text_8"><use xlink:href="#DejaVuSans-48"/><use x="63.623" xlink:href="#DejaVuSans-46"/><use x="95.41" xlink:href="#DejaVuSans-55"/><use x="159.033" xlink:href="#DejaVuSans-53"/></g></g><g id="xtick_9"><use x="347.269" xlink:href="#mc60c40396a" y="299.518" stroke="#000" stroke-width=".8" id="line2d_9"/><g transform="matrix(.1 0 0 -.1 336.136 314.117)" id="text_9"><use xlink:href="#DejaVuSans-49"/><use x="63.623" xlink:href="#DejaVuSans-46"/><use x="95.41" xlink:href="#DejaVuSans-48"/><use x="159.033" xlink:href="#DejaVuSans-48"/></g></g><g id="text_10"><defs><path d="M44.39 34.188q3.172-1.079 6.172-4.594 3-3.516 6.032-9.672L66.609 0H56l-9.313 18.703q-3.624 7.328-7.015 9.719-3.39 2.39-9.25 2.39h-10.75V0h-9.86v72.906h22.266q12.5 0 18.656-5.234 6.157-5.219 6.157-15.766 0-6.89-3.203-11.437-3.204-4.532-9.297-6.282zM19.673 64.797V38.922h12.406q7.125 0 10.766 3.297 3.64 3.297 3.64 9.687 0 6.39-3.64 9.64-3.64 3.25-10.766 3.25z" id="DejaVuSans-82"/><path d="M56.203 29.594v-4.39H14.891q.593-9.282 5.593-14.142 5-4.859 13.938-4.859 5.172 0 10.031 1.266 4.86 1.265 9.656 3.812v-8.5Q49.266.734 44.187-.344 39.11-1.422 33.892-1.422q-13.094 0-20.735 7.61-7.64 7.625-7.64 20.625 0 13.421 7.25 21.296Q20.016 56 32.328 56q11.031 0 17.453-7.11 6.422-7.093 6.422-19.296zm-8.984 2.64q-.094 7.36-4.125 11.75-4.032 4.407-10.672 4.407-7.516 0-12.031-4.25-4.516-4.25-5.203-11.97z" id="DejaVuSans-101"/><path d="M44.281 53.078v-8.5q-3.797 1.953-7.906 2.922-4.094.984-8.5.984-6.688 0-10.031-2.047-3.344-2.046-3.344-6.156 0-3.125 2.39-4.906 2.391-1.781 9.626-3.39l3.078-.688q9.562-2.047 13.593-5.781 4.032-3.735 4.032-10.422 0-7.625-6.032-12.078-6.03-4.438-16.578-4.438-4.39 0-9.156.86Q10.688.296 5.422 2v9.281q4.984-2.594 9.812-3.89 4.829-1.282 9.579-1.282 6.343 0 9.75 2.172 3.421 2.172 3.421 6.125 0 3.656-2.468 5.61-2.453 1.953-10.813 3.765l-3.125.735q-8.344 1.75-12.062 5.39-3.704 3.64-3.704 9.985 0 7.718 5.47 11.906Q16.75 56 26.811 56q4.97 0 9.36-.734 4.406-.72 8.11-2.188z" id="DejaVuSans-115"/><path d="M9.422 54.688h8.984V0H9.422zm0 21.296h8.984v-11.39H9.422z" id="DejaVuSans-105"/><path d="M45.406 46.39v29.594h8.985V0h-8.985v8.203Q42.578 3.328 38.25.953q-4.313-2.375-10.375-2.375-9.906 0-16.14 7.906-6.22 7.922-6.22 20.813 0 12.89 6.22 20.797Q17.968 56 27.874 56q6.063 0 10.375-2.375 4.328-2.36 7.156-7.234zm-30.61-19.093q0-9.906 4.079-15.547 4.078-5.64 11.203-5.64 7.125 0 11.219 5.64 4.11 5.64 4.11 15.547 0 9.906-4.11 15.547-4.094 5.64-11.219 5.64-7.125 0-11.203-5.64-4.078-5.64-4.078-15.547z" id="DejaVuSans-100"/><path d="M8.5 21.578v33.11h8.984V21.922q0-7.766 3.016-11.656 3.031-3.875 9.094-3.875 7.265 0 11.484 4.64 4.234 4.64 4.234 12.656v31h8.985V0h-8.984v8.406Q42.047 3.422 37.718 1q-4.313-2.422-10.032-2.422-9.421 0-14.312 5.86Q8.5 10.296 8.5 21.578zM31.11 56z" id="DejaVuSans-117"/><path d="M34.281 27.484q-10.89 0-15.093-2.484-4.204-2.484-4.204-8.5 0-4.781 3.157-7.594 3.156-2.797 8.562-2.797 7.485 0 12 5.297 4.516 5.297 4.516 14.078v2zm17.922 3.72V0H43.22v8.297Q40.14 3.328 35.547.953q-4.594-2.375-11.234-2.375-8.391 0-13.36 4.719Q6 8.016 6 15.922q0 9.219 6.172 13.906 6.187 4.688 18.437 4.688h12.61v.89q0 6.203-4.078 9.594-4.078 3.39-11.453 3.39-4.688 0-9.141-1.124-4.438-1.125-8.531-3.375v8.312q4.921 1.906 9.562 2.844 4.64.953 9.031.953 11.875 0 17.735-6.156 5.86-6.14 5.86-18.64z" id="DejaVuSans-97"/><path d="M9.422 75.984h8.984V0H9.422z" id="DejaVuSans-108"/></defs><g transform="matrix(.1 0 0 -.1 177.81 327.795)"><use xlink:href="#DejaVuSans-82"/><use x="69.42" xlink:href="#DejaVuSans-101"/><use x="130.943" xlink:href="#DejaVuSans-115"/><use x="183.043" xlink:href="#DejaVuSans-105"/><use x="210.826" xlink:href="#DejaVuSans-100"/><use x="274.303" xlink:href="#DejaVuSans-117"/><use x="337.682" xlink:href="#DejaVuSans-97"/><use x="398.961" xlink:href="#DejaVuSans-108"/></g></g></g><g id="matplotlib.axis_2"><g id="ytick_1"><g id="line2d_10"><defs><path d="M0 0h-3.5" id="m9e36ac74c9" stroke="#000" stroke-width=".8"/></defs><use x="46.966" xlink:href="#m9e36ac74c9" y="299.518" stroke="#000" stroke-width=".8"/></g><use xlink:href="#DejaVuSans-48" transform="matrix(.1 0 0 -.1 33.603 303.317)" id="text_11"/></g><g id="ytick_2"><use x="46.966" xlink:href="#m9e36ac74c9" y="244.078" stroke="#000" stroke-width=".8" id="line2d_11"/><g transform="matrix(.1 0 0 -.1 27.24 247.877)" id="text_12"><use xlink:href="#DejaVuSans-50"/><use x="63.623" xlink:href="#DejaVuSans-48"/></g></g><g id="ytick_3"><use x="46.966" xlink:href="#m9e36ac74c9" y="188.638" stroke="#000" stroke-width=".8" id="line2d_12"/><g id="text_13"><defs><path d="M37.797 64.313L12.89 25.39h24.906zm-2.594 8.593H47.61V25.391h10.407v-8.203H47.609V0h-9.812v17.188H4.89v9.515z" id="DejaVuSans-52"/></defs><g transform="matrix(.1 0 0 -.1 27.24 192.437)"><use xlink:href="#DejaVuSans-52"/><use x="63.623" xlink:href="#DejaVuSans-48"/></g></g></g><g id="ytick_4"><use x="46.966" xlink:href="#m9e36ac74c9" y="133.198" stroke="#000" stroke-width=".8" id="line2d_13"/><g id="text_14"><defs><path d="M33.016 40.375q-6.641 0-10.532-4.547-3.875-4.531-3.875-12.437 0-7.86 3.875-12.438 3.891-4.562 10.532-4.562 6.64 0 10.515 4.562 3.875 4.578 3.875 12.438 0 7.906-3.875 12.437-3.875 4.547-10.515 4.547zm19.578 30.922v-8.984q-3.719 1.75-7.5 2.671-3.782.938-7.5.938-9.766 0-14.922-6.594-5.14-6.594-5.875-19.922 2.875 4.25 7.219 6.516 4.359 2.266 9.578 2.266 10.984 0 17.36-6.672 6.374-6.657 6.374-18.125 0-11.235-6.64-18.032-6.641-6.78-17.672-6.78-12.657 0-19.344 9.687-6.688 9.703-6.688 28.109 0 17.281 8.204 27.563 8.203 10.28 22.015 10.28 3.719 0 7.5-.734t7.89-2.187z" id="DejaVuSans-54"/></defs><g transform="matrix(.1 0 0 -.1 27.24 136.997)"><use xlink:href="#DejaVuSans-54"/><use x="63.623" xlink:href="#DejaVuSans-48"/></g></g></g><g id="ytick_5"><use x="46.966" xlink:href="#m9e36ac74c9" y="77.758" stroke="#000" stroke-width=".8" id="line2d_14"/><g id="text_15"><defs><path d="M31.781 34.625q-7.031 0-11.062-3.766-4.016-3.765-4.016-10.343 0-6.594 4.016-10.36Q24.75 6.391 31.78 6.391q7.032 0 11.078 3.78 4.063 3.798 4.063 10.345 0 6.578-4.031 10.343-4.016 3.766-11.11 3.766zm-9.86 4.188q-6.343 1.562-9.89 5.906Q8.5 49.079 8.5 55.329q0 8.733 6.219 13.812 6.234 5.078 17.062 5.078 10.89 0 17.094-5.078 6.203-5.079 6.203-13.813 0-6.25-3.547-10.61-3.531-4.343-9.828-5.906 7.125-1.656 11.094-6.5 3.984-4.828 3.984-11.796 0-10.61-6.468-16.282-6.47-5.656-18.532-5.656-12.047 0-18.531 5.656-6.469 5.672-6.469 16.282 0 6.968 4 11.797 4.016 4.843 11.14 6.5zM18.314 54.39q0-5.657 3.53-8.828 3.548-3.172 9.938-3.172 6.36 0 9.938 3.172 3.593 3.171 3.593 8.828 0 5.672-3.593 8.843-3.578 3.172-9.938 3.172-6.39 0-9.937-3.172-3.532-3.172-3.532-8.843z" id="DejaVuSans-56"/></defs><g transform="matrix(.1 0 0 -.1 27.24 81.557)"><use xlink:href="#DejaVuSans-56"/><use x="63.623" xlink:href="#DejaVuSans-48"/></g></g></g><g id="ytick_6"><use x="46.966" xlink:href="#m9e36ac74c9" y="22.318" stroke="#000" stroke-width=".8" id="line2d_15"/><g transform="matrix(.1 0 0 -.1 20.878 26.117)" id="text_16"><use xlink:href="#DejaVuSans-49"/><use x="63.623" xlink:href="#DejaVuSans-48"/><use x="127.246" xlink:href="#DejaVuSans-48"/></g></g><g id="text_17"><defs><path d="M19.672 64.797v-27.39h12.406q6.89 0 10.64 3.562 3.766 3.562 3.766 10.156 0 6.547-3.765 10.11-3.75 3.562-10.64 3.562zm-9.86 8.11h22.266q12.266 0 18.531-5.548 6.282-5.546 6.282-16.234 0-10.797-6.282-16.313-6.265-5.515-18.53-5.515H19.671V0h-9.86z" id="DejaVuSans-80"/><path d="M41.11 46.297q-1.516.875-3.297 1.281Q36.03 48 33.89 48q-7.625 0-11.703-4.953-4.079-4.953-4.079-14.234V0H9.08v54.688h9.03v-8.5q2.844 4.984 7.375 7.39Q30.031 56 36.531 56q.922 0 2.047-.125 1.125-.11 2.484-.36z" id="DejaVuSans-114"/><path d="M48.781 52.594v-8.407q-3.812 2.11-7.64 3.157-3.828 1.047-7.735 1.047-8.75 0-13.593-5.547-4.829-5.532-4.829-15.547 0-10.016 4.829-15.563 4.843-5.53 13.593-5.53 3.907 0 7.735 1.046 3.828 1.047 7.64 3.156V2.094Q45.016.344 40.984-.531q-4.015-.89-8.562-.89-12.36 0-19.64 7.765-7.266 7.765-7.266 20.953 0 13.375 7.343 21.031Q20.22 56 33.016 56q4.14 0 8.093-.86 3.953-.843 7.672-2.546z" id="DejaVuSans-99"/><path d="M54.89 33.016V0h-8.984v32.719q0 7.765-3.031 11.61-3.031 3.858-9.078 3.858-7.281 0-11.484-4.64-4.204-4.625-4.204-12.64V0H9.08v54.688h9.03v-8.5q3.235 4.937 7.594 7.374Q30.078 56 35.797 56q9.422 0 14.25-5.828 4.844-5.828 4.844-17.156z" id="DejaVuSans-110"/><path d="M18.313 70.219V54.688h18.5v-6.985h-18.5V18.016q0-6.688 1.828-8.594 1.828-1.906 7.453-1.906h9.218V0h-9.218q-10.407 0-14.36 3.875-3.953 3.89-3.953 14.14v29.688H2.687v6.984h6.594V70.22z" id="DejaVuSans-116"/></defs><g transform="matrix(0 -.1 -.1 0 14.798 185.87)"><use xlink:href="#DejaVuSans-80"/><use x="60.256" xlink:href="#DejaVuSans-101"/><use x="121.779" xlink:href="#DejaVuSans-114"/><use x="162.861" xlink:href="#DejaVuSans-99"/><use x="217.842" xlink:href="#DejaVuSans-101"/><use x="279.365" xlink:href="#DejaVuSans-110"/><use x="342.744" xlink:href="#DejaVuSans-116"/><use x="381.953" xlink:href="#DejaVuSans-105"/><use x="409.736" xlink:href="#DejaVuSans-108"/><use x="437.52" xlink:href="#DejaVuSans-101"/></g></g></g><path clip-path="url(#pfd4aebad22)" d="M-1 298.924l12.683-.118.533-.355 24.056-.356 3.454-.712 4.271-.356.112-.356 17.885-1.067.349-.712.939-.356 1.388-.355 3.84-.356 5.531-.356.208-.356 1.349-.712 3.16-.356 1.253-.355.438-.356 3.01-.356 5.102-.356.934-.712.086-.355 3.126-.356.052-.356 1.408-.356.26-.356v-.356l.926-.355.335-.356 4.087-.356.528-.356 1.842-.356 6.684-.356 2.042-.711 1.328-.712 1.97-.356.096-.356 2.28-.356 2.962-.711 1.94-.356.713-1.068.362-.355.087-.356.373-.356 1.37-.356.502-.356 1.05-.356 1.692-1.423 2.325-.356.22-.356.002-.356.68-.355 1.393-.356.425-.356.114-.356.46-.356 3.466-1.067.04-.356.696-.712.386-.356.17-1.067 1.024-1.068.107-.356.543-.355.439-.712.388-.356 1.443-.356.823-.356.24-.711 1.861-.712 1.331-.356.122-.356 1.302-1.067.105-.356.346-.356.305-.711 3.516-.356.199-.356 1.314-.356.244-.356.557-.356.582-.711.234-.712.51-.356.122-.712.294-.711 2.507-.356.25-.356.693-.356.95-2.49.042-.357.337-.711.146-.356.72-.356.872-1.067 1.484-.712.746-.712 1.08-.356.553-.355.067-.356.242-.356.119-.712.397-.711.57-1.78 1.126-.356.092-.355.36-.356.829-.356.228-.356 1.158-.356.451-1.067.446-.712.311-1.067.514-1.068.33-.356.078-.356.373-.355.044-.356.266-.712.1-.712.086-.711.139-.712.936-1.423.269-.356.051-.356.231-.712.161-1.067.8-.356.332-.356.17-.356.006-.356.744-1.423.054-.356.283-.356.04-.711.382-.712.21-.356.503-.356.43-.711.156-.356.022-.356.707-.712.147-1.067.482-.356.16-1.068.237-.356.454-1.779.159-.356.504-.355.054-.356.768-.356.058-.356.386-.356.171-.711.05-.712.096-.712.112-1.067.018-.356.173-.712.152-.712.197-.355.173-1.068.106-.356.967-1.067.138-.712.5-2.847.126-1.067.596-1.068.23-1.779v-.356l.3-1.067.01-.356.397-1.068.344-2.49.2-.356.5-3.203.15-.712.011-.711.18-.712.1-1.068.262-.355.133-.712.191-1.068.156-.711.504-1.78.063-1.067.166-.356.069-.712.172-.355.105-.712.014-.712.233-.356.068-.711.928-4.626.294-.712.041-.712.268-1.067.266-.356.49-3.914.524-2.847.113-1.423.209-.356.14-.712.162-.356.004-.355.17-.712.134-.712.17-.711.26-1.424.052-.712.244-1.067.39-2.49.41-1.78.075-2.135.503-.712.021-.712.173-.355.117-.712.351-1.068.168-.355.032-1.068.234-1.067.347-3.203.22-.356.55-2.49.505-1.78.06-.356.352-.711.346-2.847.222-1.068.352-.356.696-3.914.134-.712.021-.355.195-.356.047-.356.302-.712.06-.711.858-.356.156-1.068.179-.356.205-1.423.03-.356.414-1.067.627-2.847.057-.712.235-.711.302-1.78.67-1.067.11-1.068.164-.356.136-1.779.39-1.779.05-.712.123-.711.31-1.068.171-.356.07-1.067.133-.712.042-.712.305-.355.111-.712.352-1.423.342-.356.103-.356.23-.356.66-2.135.134-.712.02-.356.188-.711.04-.356.358-.356.109-1.067.417-2.135.228-.356.071-.712.458-.356v-.356l.332-.355.83-2.847.663-.356.094-.356.278-.356.52-1.779.56-.712.271-1.067.842-.356.373-.712.008-.356.926-.355.433-.356.448-1.424.38-.355.191-.356.5-.356.032-.356.748-.356.223-.711.472-.356.175-.356.152-1.068.333-.355.042-.356.337-.356.117-.356.242-.356.048-.356.856-.711.979-1.78.226-.355.716-.356.014-.356 2.272-.712.402-.356.358-1.067.348-.356.115-.356.35-.356.013-.355.132-.356.494-.356.44-.712.136-.712.781-.711.09-.356.6-.356 2.662-.712.097-.355.354-.356.677-.356.083-1.068 1.327-.355.023-.356.202-.356 1.767-.356.493-.356.12-.712 1.47-.355.025-.356.71-.356.391-.356.225-.356 1.073-.711 1.386-.356.01-.356 1.15-.712 1.968-.711.337-.356.122-.356.695-.712 1.252-.356.51-.711 1.808-.356 2.775-.356.679-.356 1.047-1.067.514-.356.073-.356.65-.712.247-.356.973-.355.476-.712.795-.356.072-.356.886-.711 1.595-.356 3.423-.356 2.813-.712 4.43-.356 1.178-.356 2.045-.355.395-.356 1.44-.356.22-.356 1.611-.712.011-.355.358-.356 6.447-.356 3.999-.712.28-.356.56-.355 1.997-.712 8.806-.356 1.973-.356.69-.356 3.014-.355 1.492-.356 7.287-.356 1.526-.356.354-.356 2.684-.712.477-.355 3.857-.356 1.219-.356 15.201-.712 3.93-.356 1.307-.355 2.494-.356.702-.356 16.872-.356.212-.356 13.095-.356 5.25-.355 2.403-.356 20.253-.356 1.481-.356 80.083-.356 19.205-.712 140.895-.355 11.402-.356 35.46-.356h0" fill="none" stroke="#1f77b4" stroke-linecap="square" stroke-width="1.5" id="line2d_16"/><path clip-path="url(#pfd4aebad22)" d="M199.147 299.518v-277.2" fill="none" stroke="gray" stroke-dasharray="5.55,2.4" stroke-opacity=".4" stroke-width="1.5" id="line2d_17"/><path clip-path="url(#pfd4aebad22)" d="M46.966 160.918h152.181" fill="none" stroke="gray" stroke-dasharray="5.55,2.4" stroke-opacity=".4" stroke-width="1.5" id="line2d_18"/><path d="M46.966 299.518v-277.2" fill="none" stroke="#000" stroke-linecap="square" stroke-width=".8" id="patch_3"/><path d="M351.33 299.518v-277.2" fill="none" stroke="#000" stroke-linecap="square" stroke-width=".8" id="patch_4"/><path d="M46.966 299.518h304.363" fill="none" stroke="#000" stroke-linecap="square" stroke-width=".8" id="patch_5"/><path d="M46.966 22.318h304.363" fill="none" stroke="#000" stroke-linecap="square" stroke-width=".8" id="patch_6"/><g id="text_18"><defs><path d="M64.406 67.281v-10.39q-4.984 4.64-10.625 6.922-5.64 2.296-11.984 2.296-12.5 0-19.14-7.64-6.641-7.64-6.641-22.094 0-14.406 6.64-22.047 6.64-7.64 19.14-7.64 6.345 0 11.985 2.296 5.64 2.297 10.625 6.938V5.609Q59.234 2.094 53.437.33q-5.78-1.75-12.218-1.75-16.563 0-26.094 10.124-9.516 10.14-9.516 27.672 0 17.578 9.516 27.703 9.531 10.14 26.094 10.14 6.531 0 12.312-1.734 5.797-1.734 10.875-5.203z" id="DejaVuSans-67"/><path d="M52 44.188q3.375 6.062 8.063 8.937Q64.75 56 71.093 56q8.548 0 13.188-5.984 4.64-5.97 4.64-17V0h-9.03v32.719q0 7.86-2.797 11.656-2.781 3.813-8.485 3.813-6.984 0-11.046-4.641-4.047-4.625-4.047-12.64V0h-9.032v32.719q0 7.906-2.78 11.687-2.782 3.782-8.595 3.782-6.89 0-10.953-4.657-4.047-4.656-4.047-12.625V0H9.08v54.688h9.03v-8.5q3.078 5.03 7.375 7.421Q29.781 56 35.687 56q5.97 0 10.141-3.031Q50 49.953 52 44.187z" id="DejaVuSans-109"/><path d="M2.984 54.688H12.5L29.594 8.797l17.093 45.89h9.516L35.687 0H23.485z" id="DejaVuSans-118"/></defs><g transform="matrix(.12 0 0 -.12 137.39 16.318)"><use xlink:href="#DejaVuSans-67"/><use x="69.824" xlink:href="#DejaVuSans-117"/><use x="133.203" xlink:href="#DejaVuSans-109"/><use x="230.615" xlink:href="#DejaVuSans-117"/><use x="293.994" xlink:href="#DejaVuSans-108"/><use x="321.777" xlink:href="#DejaVuSans-97"/><use x="383.057" xlink:href="#DejaVuSans-116"/><use x="422.266" xlink:href="#DejaVuSans-105"/><use x="450.049" xlink:href="#DejaVuSans-118"/><use x="509.229" xlink:href="#DejaVuSans-101"/><use x="570.752" xlink:href="#DejaVuSans-32"/><use x="602.539" xlink:href="#DejaVuSans-82"/><use x="671.959" xlink:href="#DejaVuSans-101"/><use x="733.482" xlink:href="#DejaVuSans-115"/><use x="785.582" xlink:href="#DejaVuSans-105"/><use x="813.365" xlink:href="#DejaVuSans-100"/><use x="876.842" xlink:href="#DejaVuSans-117"/><use x="940.221" xlink:href="#DejaVuSans-97"/><use x="1001.5" xlink:href="#DejaVuSans-108"/></g></g></g><g id="axes_2"><path d="M412.202 299.518h304.364v-277.2H412.202z" fill="#fff" id="patch_7"/><g id="matplotlib.axis_3"><g id="xtick_10"><use x="412.202" xlink:href="#mc60c40396a" y="299.518" stroke="#000" stroke-width=".8" id="line2d_19"/><g transform="matrix(.1 0 0 -.1 404.25 314.117)" id="text_19"><use xlink:href="#DejaVuSans-48"/><use x="63.623" xlink:href="#DejaVuSans-46"/><use x="95.41" xlink:href="#DejaVuSans-48"/></g></g><g id="xtick_11"><use x="464.863" xlink:href="#mc60c40396a" y="299.518" stroke="#000" stroke-width=".8" id="line2d_20"/><g transform="matrix(.1 0 0 -.1 456.912 314.117)" id="text_20"><use xlink:href="#DejaVuSans-48"/><use x="63.623" xlink:href="#DejaVuSans-46"/><use x="95.41" xlink:href="#DejaVuSans-50"/></g></g><g id="xtick_12"><use x="517.525" xlink:href="#mc60c40396a" y="299.518" stroke="#000" stroke-width=".8" id="line2d_21"/><g transform="matrix(.1 0 0 -.1 509.573 314.117)" id="text_21"><use xlink:href="#DejaVuSans-48"/><use x="63.623" xlink:href="#DejaVuSans-46"/><use x="95.41" xlink:href="#DejaVuSans-52"/></g></g><g id="xtick_13"><use x="570.186" xlink:href="#mc60c40396a" y="299.518" stroke="#000" stroke-width=".8" id="line2d_22"/><g transform="matrix(.1 0 0 -.1 562.234 314.117)" id="text_22"><use xlink:href="#DejaVuSans-48"/><use x="63.623" xlink:href="#DejaVuSans-46"/><use x="95.41" xlink:href="#DejaVuSans-54"/></g></g><g id="xtick_14"><use x="622.847" xlink:href="#mc60c40396a" y="299.518" stroke="#000" stroke-width=".8" id="line2d_23"/><g transform="matrix(.1 0 0 -.1 614.895 314.117)" id="text_23"><use xlink:href="#DejaVuSans-48"/><use x="63.623" xlink:href="#DejaVuSans-46"/><use x="95.41" xlink:href="#DejaVuSans-56"/></g></g><g id="xtick_15"><use x="675.508" xlink:href="#mc60c40396a" y="299.518" stroke="#000" stroke-width=".8" id="line2d_24"/><g transform="matrix(.1 0 0 -.1 667.557 314.117)" id="text_24"><use xlink:href="#DejaVuSans-49"/><use x="63.623" xlink:href="#DejaVuSans-46"/><use x="95.41" xlink:href="#DejaVuSans-48"/></g></g><g id="text_25"><defs><path d="M34.188 63.188L20.797 26.906h26.812zm-5.579 9.718h11.188L67.578 0h-10.25l-6.64 18.703h-32.86L11.188 0H.78z" id="DejaVuSans-65"/><path d="M48.688 27.297q0 9.906-4.079 15.547-4.078 5.64-11.203 5.64-7.14 0-11.218-5.64-4.079-5.64-4.079-15.547 0-9.906 4.078-15.547 4.079-5.64 11.22-5.64 7.124 0 11.202 5.64t4.078 15.547zM18.108 46.39q2.844 4.875 7.157 7.234Q29.594 56 35.594 56q9.968 0 16.187-7.906 6.235-7.907 6.235-20.797T51.78 6.484q-6.218-7.906-16.187-7.906-6 0-10.328 2.375-4.313 2.375-7.157 7.25V0H9.08v75.984h9.03z" id="DejaVuSans-98"/><path d="M30.61 48.39q-7.22 0-11.422-5.64-4.204-5.64-4.204-15.453 0-9.813 4.172-15.453 4.188-5.64 11.453-5.64 7.188 0 11.375 5.655 4.203 5.672 4.203 15.438 0 9.719-4.203 15.406-4.187 5.688-11.375 5.688zm0 7.61q11.718 0 18.406-7.625 6.703-7.61 6.703-21.078 0-13.422-6.703-21.078-6.688-7.64-18.407-7.64-11.765 0-18.437 7.64-6.656 7.656-6.656 21.078 0 13.469 6.656 21.078Q18.844 56 30.609 56z" id="DejaVuSans-111"/><path d="M9.813 72.906h46.093v-8.312H19.672V43.016H54.39v-8.297H19.67V8.297h37.11V0H9.813z" id="DejaVuSans-69"/></defs><g transform="matrix(.1 0 0 -.1 528.559 327.795)"><use xlink:href="#DejaVuSans-65"/><use x="68.408" xlink:href="#DejaVuSans-98"/><use x="131.885" xlink:href="#DejaVuSans-115"/><use x="183.984" xlink:href="#DejaVuSans-111"/><use x="245.166" xlink:href="#DejaVuSans-108"/><use x="272.949" xlink:href="#DejaVuSans-117"/><use x="336.328" xlink:href="#DejaVuSans-116"/><use x="375.537" xlink:href="#DejaVuSans-101"/><use x="437.061" xlink:href="#DejaVuSans-32"/><use x="468.848" xlink:href="#DejaVuSans-69"/><use x="532.031" xlink:href="#DejaVuSans-114"/><use x="573.129" xlink:href="#DejaVuSans-114"/><use x="614.211" xlink:href="#DejaVuSans-111"/><use x="675.393" xlink:href="#DejaVuSans-114"/></g></g></g><g id="matplotlib.axis_4"><g id="ytick_7"><use x="412.202" xlink:href="#m9e36ac74c9" y="299.518" stroke="#000" stroke-width=".8" id="line2d_25"/><use xlink:href="#DejaVuSans-48" transform="matrix(.1 0 0 -.1 398.84 303.317)" id="text_26"/></g><g id="ytick_8"><use x="412.202" xlink:href="#m9e36ac74c9" y="244.078" stroke="#000" stroke-width=".8" id="line2d_26"/><g transform="matrix(.1 0 0 -.1 392.477 247.877)" id="text_27"><use xlink:href="#DejaVuSans-50"/><use x="63.623" xlink:href="#DejaVuSans-48"/></g></g><g id="ytick_9"><use x="412.202" xlink:href="#m9e36ac74c9" y="188.638" stroke="#000" stroke-width=".8" id="line2d_27"/><g transform="matrix(.1 0 0 -.1 392.477 192.437)" id="text_28"><use xlink:href="#DejaVuSans-52"/><use x="63.623" xlink:href="#DejaVuSans-48"/></g></g><g id="ytick_10"><use x="412.202" xlink:href="#m9e36ac74c9" y="133.198" stroke="#000" stroke-width=".8" id="line2d_28"/><g transform="matrix(.1 0 0 -.1 392.477 136.997)" id="text_29"><use xlink:href="#DejaVuSans-54"/><use x="63.623" xlink:href="#DejaVuSans-48"/></g></g><g id="ytick_11"><use x="412.202" xlink:href="#m9e36ac74c9" y="77.758" stroke="#000" stroke-width=".8" id="line2d_29"/><g transform="matrix(.1 0 0 -.1 392.477 81.557)" id="text_30"><use xlink:href="#DejaVuSans-56"/><use x="63.623" xlink:href="#DejaVuSans-48"/></g></g><g id="ytick_12"><use x="412.202" xlink:href="#m9e36ac74c9" y="22.318" stroke="#000" stroke-width=".8" id="line2d_30"/><g transform="matrix(.1 0 0 -.1 386.114 26.117)" id="text_31"><use xlink:href="#DejaVuSans-49"/><use x="63.623" xlink:href="#DejaVuSans-48"/><use x="127.246" xlink:href="#DejaVuSans-48"/></g></g><g transform="matrix(0 -.1 -.1 0 380.035 185.87)" id="text_32"><use xlink:href="#DejaVuSans-80"/><use x="60.256" xlink:href="#DejaVuSans-101"/><use x="121.779" xlink:href="#DejaVuSans-114"/><use x="162.861" xlink:href="#DejaVuSans-99"/><use x="217.842" xlink:href="#DejaVuSans-101"/><use x="279.365" xlink:href="#DejaVuSans-110"/><use x="342.744" xlink:href="#DejaVuSans-116"/><use x="381.953" xlink:href="#DejaVuSans-105"/><use x="409.736" xlink:href="#DejaVuSans-108"/><use x="437.52" xlink:href="#DejaVuSans-101"/></g></g><path clip-path="url(#p127a47aa23)" d="M412.24 299.518l.297-.356.079-1.779.16-.356.119-.711.19-1.424.012-.356.176-.355.354-3.203.61-1.423.158-3.203.079-.356.239-.356.061-1.067.22-.712.56-2.135.162-1.423.284-1.78.04-.355.27-.712.03-1.068.244-.355.281-2.135.13-.356.121-1.424.219-1.779.078-.712.209-.355.013-.712.445-.712.458-2.135.266-2.846.207-.712.128-1.78.072-.355.287-.356.174-1.068.336-2.135.176-.711.08-1.424.585-2.846.642-1.424.073-.711.523-.712.615-2.491.237-.712.307-2.49.877-4.27.148-.356.086-1.424.124-.356.101-.711.305-.712.025-1.068.294-1.067.214-2.491.274-.712.6-3.202.314-1.068.355-1.779.104-.356.417-.356.208-2.135.075-.711.204-.356.242-3.203.158-.711.01-.712.27-.712.144-1.067.137-1.424.833-4.626.264-.711.554-4.27.295-.356.019-.712.334-1.067.136-.712.061-.712.092-.712.512-2.49.445-.356.182-.712.395-.712.18-2.135.185-.711.003-.356.171-.356.116-1.068.247-.711.056-.356.191-.356.054-.712.2-.355.06-.712.24-.356.163-1.067.637-.712.026-.712.267-.712.37-2.49.252-.712.022-.356.327-.356.203-1.423.132-.712.243-.356.105-.711.126-.712.019-.356.189-.712.051-1.067.305-.712.67-1.067.131-1.068.08-.356.828-1.423.446-.356.095-.356.638-.356.6-1.423.062-.356.273-.711v-.356l.272-.712.312-1.067.067-.356.435-1.068.112-.711.45-.356.45-1.424.03-.711.108-.356.504-.356.754-.356.132-.712.662-1.423.015-.356.271-.356.896-.355.372-.356.236-.712.444-.356.07-.711.33-.712.234-.712.16-1.067.198-.356.639-.712.037-.356.324-.356.016-.711.296-.356.592-.356.057-.712 1.33-.355.034-.712.207-.356.184-1.423.305-.356.092-.356.414-.356.064-.356.247-.356.27-1.423.591-.712.19-.711.365-.356.248-1.068.152-1.067.177-.712.174-.356.093-.711.207-.356.078-.356.594-.356.207-.712.434-.355 1.067-2.491.005-.356.354-.356.194-.712.12-.356 1.676-2.49.025-.356 1.831-.356.406-.356.055-.356 1.419-.356.64-.711.606-1.068.433-.711.617-.356.51-.712.317-.356.046-.712.204-.355.009-.356.436-1.068.707-1.067.218-1.068.298-.356.124-.711.119-.356v-.356l.794-.356.19-.356.404-.356.16-.355 1.065-.356.29-.356 2.549-1.423 1.417-.356.477-.356.172-.712.442-.356.458-.711.933-.356.122-.712.025-.356.645-1.067.413-.356.322-1.068.637-.355.089-.356.254-.356.21-1.068.19-.355.062-.356 1.231-.356.446-.356 1.402-.356.877-.356.212-.711 1.964-.356.343-.356.306-.712.091-1.067.907-.356.309-.712.107-.356.535-.355.054-.356.4-.356.046-.356.767-.356.223-.356.87-.711 1.9-.356.565-.712.018-.356 2.045-.711 3.496-.712.478-.356.543-1.423.616-.712.415-.712.509-.355 1.576-.712.217-.712.832-.711 3.198-.712.015-.356 1.628-.356.429-.712 4.028-1.067.054-.356.562-.356.074-.356.364-.355.091-.356.771-.712.519-.356.858-1.423.347-.356.163-.356.642-.711.25-1.068.052-.356 1.38-.712.156-.355.388-.356.091-.712.367-.356 1.413-.356.001-.355.128-.356 1.575-.712.403-.356 2.253-.356.178-.355.64-.356.204-.356.755-.356 2.477-.356 1.207-.356.006-.355.797-.712 2.605-.356 1.121-.356 1.212-.712.062-.355 1.735-.712 1.865-.356.891-.356 2.437-.356.662-.355.285-.712 1.427-1.068.668-.711 3.136-.356.5-.356.701-.356 2.558-.712.392-.355 1.113-.356.135-.356 1.617-.356.02-.356.635-.356 1.646-.355.17-.356 3.503-.356 4.138-1.068 1.852-.355.153-.356 7.107-.712.497-.356.997-.356 1.95-.355 1.178-.356.421-.356 2.854-.356.938-.356 7.265-.356.595-.356 1.647-.355v-.356l.462-.356 1.894-.356.61-.356.091-.356 2.807-.355 2.75-.712.153-.356 1.66-.712 4.673-.711 9.749-.712.777-.356 2.23-.356.197-.356 2.713-.355.63-.356 2.076-.356 1.11-.712 1.287-.356.298-.355.072-.356.776-.356 6.855-.356 2.168-.356.033-.356 6.826-.355 2.468-.356 1.67-.356.62-.712 2.822-.356 10.74-.355 1.843-.356 5.865-.356 1.122-.356 2.323-.356 4.433-.356 2.644-.711.2-.356 7.592-.356 6.14-.712 14.664-.356.376-.355 7.99-.123h0" fill="none" stroke="#1f77b4" stroke-linecap="square" stroke-width="1.5" id="line2d_31"/><path clip-path="url(#p127a47aa23)" d="M412.202 160.918h30.854" fill="none" stroke="gray" stroke-dasharray="5.55,2.4" stroke-opacity=".4" stroke-width="1.5" id="line2d_32"/><path clip-path="url(#p127a47aa23)" d="M443.056 299.518v-138.6" fill="none" stroke="gray" stroke-dasharray="5.55,2.4" stroke-opacity=".4" stroke-width="1.5" id="line2d_33"/><path clip-path="url(#p127a47aa23)" d="M412.202 91.618h79.933" fill="none" stroke="gray" stroke-dasharray="5.55,2.4" stroke-opacity=".4" stroke-width="1.5" id="line2d_34"/><path clip-path="url(#p127a47aa23)" d="M492.135 299.518v-207.9" fill="none" stroke="gray" stroke-dasharray="5.55,2.4" stroke-opacity=".4" stroke-width="1.5" id="line2d_35"/><path d="M412.202 299.518v-277.2" fill="none" stroke="#000" stroke-linecap="square" stroke-width=".8" id="patch_8"/><path d="M716.566 299.518v-277.2" fill="none" stroke="#000" stroke-linecap="square" stroke-width=".8" id="patch_9"/><path d="M412.202 299.518h304.364" fill="none" stroke="#000" stroke-linecap="square" stroke-width=".8" id="patch_10"/><path d="M412.202 22.318h304.364" fill="none" stroke="#000" stroke-linecap="square" stroke-width=".8" id="patch_11"/><g transform="matrix(.12 0 0 -.12 513.373 16.318)" id="text_33"><use xlink:href="#DejaVuSans-67"/><use x="69.824" xlink:href="#DejaVuSans-117"/><use x="133.203" xlink:href="#DejaVuSans-109"/><use x="230.615" xlink:href="#DejaVuSans-117"/><use x="293.994" xlink:href="#DejaVuSans-108"/><use x="321.777" xlink:href="#DejaVuSans-97"/><use x="383.057" xlink:href="#DejaVuSans-116"/><use x="422.266" xlink:href="#DejaVuSans-105"/><use x="450.049" xlink:href="#DejaVuSans-118"/><use x="509.229" xlink:href="#DejaVuSans-101"/><use x="570.752" xlink:href="#DejaVuSans-32"/><use x="602.539" xlink:href="#DejaVuSans-69"/><use x="665.723" xlink:href="#DejaVuSans-114"/><use x="706.82" xlink:href="#DejaVuSans-114"/><use x="747.902" xlink:href="#DejaVuSans-111"/><use x="809.084" xlink:href="#DejaVuSans-114"/></g></g></g><defs><clipPath id="pfd4aebad22"><path d="M46.966 22.318H351.33v277.2H46.966z"/></clipPath><clipPath id="p127a47aa23"><path d="M412.202 22.318h304.364v277.2H412.202z"/></clipPath></defs></svg>