<?xml version="1.0" encoding="utf-8" standalone="no"?>
<!DOCTYPE svg PUBLIC "-//W3C//DTD SVG 1.1//EN"
  "http://www.w3.org/Graphics/SVG/1.1/DTD/svg11.dtd">
<!-- Created with matplotlib (https://matplotlib.org/) -->
<svg height="479.92875pt" version="1.1" viewBox="0 0 542.778968 479.92875" width="542.778968pt" xmlns="http://www.w3.org/2000/svg" xmlns:xlink="http://www.w3.org/1999/xlink">
 <defs>
  <style type="text/css">
*{stroke-linecap:butt;stroke-linejoin:round;}
  </style>
 </defs>
 <g id="figure_1">
  <g id="patch_1">
   <path d="M 0 479.92875 
L 542.778968 479.92875 
L 542.778968 0 
L 0 0 
z
" style="fill:#ffffff;"/>
  </g>
  <g id="axes_1">
   <g id="patch_2">
    <path d="M 79.23125 419.51625 
L 525.63125 419.51625 
L 525.63125 31.43625 
L 79.23125 31.43625 
z
" style="fill:#ffffff;"/>
   </g>
   <g id="PolyCollection_1">
    <path clip-path="url(#p1d0ed25a24)" d="M 169.96464 419.51625 
L 169.96464 400.087341 
L 171.492465 399.589164 
L 172.958983 399.090987 
L 173.820695 398.59281 
L 174.906843 398.094633 
L 177.796467 397.596455 
L 177.936999 397.098278 
L 181.281516 396.600101 
L 183.385093 396.101924 
L 185.624802 395.603747 
L 188.471969 395.10557 
L 188.763051 394.607392 
L 189.204002 394.109215 
L 189.516655 393.611038 
L 190.047175 393.112861 
L 190.175091 392.614684 
L 190.721756 392.116507 
L 192.732135 391.61833 
L 193.467862 391.120152 
L 195.00658 390.621975 
L 195.651961 390.123798 
L 196.48864 389.625621 
L 196.923401 389.127444 
L 197.488599 388.629267 
L 200.898976 388.13109 
L 201.220735 387.632912 
L 201.225457 387.134735 
L 202.221489 386.636558 
L 204.26543 386.138381 
L 204.888379 385.640204 
L 205.055871 385.142027 
L 205.730853 384.643849 
L 207.59027 384.145672 
L 209.328479 383.647495 
L 210.814067 383.149318 
L 210.872599 382.651141 
L 211.321494 382.152964 
L 211.892986 381.654787 
L 212.459889 381.156609 
L 212.502042 380.658432 
L 212.538902 380.160255 
L 212.709042 379.662078 
L 213.238168 379.163901 
L 213.659374 378.665724 
L 214.211324 378.167547 
L 214.367165 377.669369 
L 215.163471 377.171192 
L 215.431265 376.673015 
L 215.807132 376.174838 
L 216.376313 375.676661 
L 218.492837 375.178484 
L 219.699922 374.680306 
L 219.829967 374.182129 
L 220.053446 373.683952 
L 221.408715 373.185775 
L 222.781745 372.687598 
L 224.734077 372.189421 
L 224.912788 371.691244 
L 225.491264 371.193066 
L 226.213601 370.694889 
L 226.822628 370.196712 
L 226.976033 369.698535 
L 227.484359 369.200358 
L 227.748941 368.702181 
L 227.931805 368.204004 
L 233.088121 367.705826 
L 233.379463 367.207649 
L 235.306419 366.709472 
L 235.664635 366.211295 
L 236.481616 365.713118 
L 236.89413 365.214941 
L 237.335094 364.716763 
L 237.509322 364.218586 
L 237.67825 363.720409 
L 238.426685 363.222232 
L 238.439003 362.724055 
L 238.605334 362.225878 
L 238.754777 361.727701 
L 239.037511 361.229523 
L 242.71307 360.731346 
L 243.080736 360.233169 
L 244.096872 359.734992 
L 244.304742 359.236815 
L 244.418135 358.738638 
L 244.687441 358.240461 
L 244.760578 357.742283 
L 245.28684 357.244106 
L 245.358355 356.745929 
L 245.489499 356.247752 
L 245.551736 355.749575 
L 245.893102 355.251398 
L 246.046314 354.75322 
L 246.259996 354.255043 
L 247.316464 353.756866 
L 247.69398 353.258689 
L 248.092184 352.760512 
L 248.594549 352.262335 
L 249.763434 351.764158 
L 250.77133 351.26598 
L 251.380905 350.767803 
L 251.866093 350.269626 
L 253.449714 349.771449 
L 254.261349 349.273272 
L 254.359815 348.775095 
L 254.71446 348.276918 
L 254.812581 347.77874 
L 254.888079 347.280563 
L 255.244056 346.782386 
L 255.47125 346.284209 
L 255.6273 345.786032 
L 255.732186 345.287855 
L 255.837939 344.789677 
L 256.006245 344.2915 
L 256.305747 343.793323 
L 257.958446 343.295146 
L 258.093511 342.796969 
L 258.621163 342.298792 
L 259.837179 341.800615 
L 260.171942 341.302437 
L 261.870385 340.80426 
L 262.054766 340.306083 
L 262.188347 339.807906 
L 262.532133 339.309729 
L 262.876405 338.811552 
L 263.185792 338.313375 
L 263.307594 337.815197 
L 263.345824 337.31702 
L 263.64168 336.818843 
L 263.850974 336.320666 
L 263.943194 335.822489 
L 264.396219 335.324312 
L 264.880248 334.826134 
L 264.993666 334.327957 
L 265.541299 333.82978 
L 265.604975 333.331603 
L 265.85259 332.833426 
L 265.996241 332.335249 
L 266.112417 331.837072 
L 266.142594 331.338894 
L 266.142594 330.840717 
L 266.267998 330.34254 
L 266.324842 329.844363 
L 266.472064 329.346186 
L 266.773453 328.848009 
L 267.131547 328.349832 
L 267.503436 327.851654 
L 267.844569 327.353477 
L 268.238985 326.8553 
L 268.31504 326.357123 
L 268.56661 325.858946 
L 268.653724 325.360769 
L 268.718213 324.862591 
L 268.889346 324.364414 
L 268.889346 323.866237 
L 270.061831 323.36806 
L 270.54987 322.869883 
L 270.800016 322.371706 
L 270.807256 321.873529 
L 271.105325 321.375351 
L 271.354581 320.877174 
L 271.841036 320.378997 
L 271.898803 319.88082 
L 271.977796 319.382643 
L 272.392623 318.884466 
L 272.435374 318.386289 
L 272.450766 317.888111 
L 272.81732 317.389934 
L 273.011957 316.891757 
L 273.319085 316.39358 
L 274.05805 315.895403 
L 274.426132 315.397226 
L 274.689106 314.899048 
L 274.917342 314.400871 
L 274.949092 313.902694 
L 275.571188 313.404517 
L 275.986993 312.90634 
L 276.095476 312.408163 
L 276.100516 311.909986 
L 276.201791 311.411808 
L 276.909486 310.913631 
L 276.935682 310.415454 
L 276.974646 309.917277 
L 277.142593 309.4191 
L 277.491307 308.920923 
L 277.607394 308.422746 
L 277.674842 307.924568 
L 277.832025 307.426391 
L 278.108223 306.928214 
L 278.157032 306.430037 
L 278.389768 305.93186 
L 279.129792 305.433683 
L 279.208466 304.935505 
L 280.334593 304.437328 
L 280.420633 303.939151 
L 280.9862 303.440974 
L 281.153639 302.942797 
L 281.23769 302.44462 
L 281.238903 301.946443 
L 281.310002 301.448265 
L 281.435901 300.950088 
L 281.451828 300.451911 
L 281.458662 299.953734 
L 281.555327 299.455557 
L 281.61614 298.95738 
L 281.642283 298.459203 
L 281.842869 297.961025 
L 281.896401 297.462848 
L 281.976544 296.964671 
L 282.118633 296.466494 
L 282.407068 295.968317 
L 282.463377 295.47014 
L 282.615509 294.971962 
L 282.661993 294.473785 
L 282.816669 293.975608 
L 283.356409 293.477431 
L 283.792143 292.979254 
L 284.234603 292.481077 
L 284.278684 291.9829 
L 284.436911 291.484722 
L 284.540941 290.986545 
L 284.686495 290.488368 
L 284.688436 289.990191 
L 284.78192 289.492014 
L 284.961643 288.993837 
L 285.101271 288.495659 
L 285.157419 287.997482 
L 285.172215 287.499305 
L 285.191896 287.001128 
L 285.226824 286.502951 
L 285.356335 286.004774 
L 285.64731 285.506597 
L 286.070182 285.008419 
L 286.230451 284.510242 
L 286.319922 284.012065 
L 286.429339 283.513888 
L 286.439428 283.015711 
L 286.492272 282.517534 
L 286.568226 282.019357 
L 286.568226 281.521179 
L 286.759771 281.023002 
L 287.006885 280.524825 
L 287.006885 280.026648 
L 287.022431 279.528471 
L 287.265758 279.030294 
L 287.560427 278.532116 
L 287.604421 278.033939 
L 287.670977 277.535762 
L 287.72241 277.037585 
L 287.81299 276.539408 
L 287.952017 276.041231 
L 287.994583 275.543054 
L 288.030114 275.044876 
L 288.10817 274.546699 
L 288.402897 274.048522 
L 288.469624 273.550345 
L 288.556346 273.052168 
L 288.734426 272.553991 
L 288.740672 272.055814 
L 288.740672 271.557636 
L 288.799249 271.059459 
L 288.859704 270.561282 
L 289.090375 270.063105 
L 289.135192 269.564928 
L 289.286341 269.066751 
L 289.354104 268.568573 
L 289.358975 268.070396 
L 289.371506 267.572219 
L 289.589218 267.074042 
L 289.634415 266.575865 
L 289.650907 266.077688 
L 289.73156 265.579511 
L 289.781263 265.081333 
L 290.167032 264.583156 
L 290.339005 264.084979 
L 290.360968 263.586802 
L 290.498498 263.088625 
L 290.54514 262.590448 
L 290.64207 262.092271 
L 290.687481 261.594093 
L 290.870141 261.095916 
L 291.039907 260.597739 
L 291.24848 260.099562 
L 291.299258 259.601385 
L 291.525243 259.103208 
L 291.609121 258.60503 
L 291.612334 258.106853 
L 291.674327 257.608676 
L 291.701993 257.110499 
L 291.94478 256.612322 
L 291.953709 256.114145 
L 292.046192 255.615968 
L 292.298936 255.11779 
L 292.299999 254.619613 
L 292.453062 254.121436 
L 292.468186 253.623259 
L 292.473321 253.125082 
L 292.814515 252.626905 
L 292.814515 252.128728 
L 292.915079 251.63055 
L 293.013364 251.132373 
L 293.081101 250.634196 
L 293.103107 250.136019 
L 293.265574 249.637842 
L 293.319331 249.139665 
L 293.389562 248.641487 
L 293.477738 248.14331 
L 293.572788 247.645133 
L 293.655397 247.146956 
L 293.768102 246.648779 
L 294.119999 246.150602 
L 294.212544 245.652425 
L 294.275252 245.154247 
L 294.495491 244.65607 
L 294.707111 244.157893 
L 294.716187 243.659716 
L 294.767194 243.161539 
L 294.920235 242.663362 
L 294.970476 242.165185 
L 295.160033 241.667007 
L 295.550666 241.16883 
L 295.60289 240.670653 
L 295.650184 240.172476 
L 295.722297 239.674299 
L 295.780246 239.176122 
L 295.8128 238.677944 
L 295.845173 238.179767 
L 295.845173 237.68159 
L 295.990553 237.183413 
L 296.031388 236.685236 
L 296.089053 236.187059 
L 296.267825 235.688882 
L 296.381928 235.190704 
L 296.391084 234.692527 
L 296.707464 234.19435 
L 296.715966 233.696173 
L 296.797954 233.197996 
L 296.856343 232.699819 
L 296.995536 232.201642 
L 297.037072 231.703464 
L 297.066268 231.205287 
L 297.182021 230.70711 
L 297.186489 230.208933 
L 297.203798 229.710756 
L 297.509951 229.212579 
L 297.581219 228.714401 
L 297.714228 228.216224 
L 297.952692 227.718047 
L 297.959421 227.21987 
L 298.157154 226.721693 
L 298.206891 226.223516 
L 298.376606 225.725339 
L 298.404911 225.227161 
L 298.471046 224.728984 
L 298.652602 224.230807 
L 298.785277 223.73263 
L 298.815461 223.234453 
L 299.030906 222.736276 
L 299.034443 222.238099 
L 299.041813 221.739921 
L 299.112085 221.241744 
L 299.265127 220.743567 
L 299.319139 220.24539 
L 299.469117 219.747213 
L 299.532182 219.249036 
L 299.559924 218.750858 
L 299.563779 218.252681 
L 299.64868 217.754504 
L 299.717034 217.256327 
L 299.862403 216.75815 
L 300.041187 216.259973 
L 300.172735 215.761796 
L 300.309002 215.263618 
L 300.335445 214.765441 
L 300.630424 214.267264 
L 300.643492 213.769087 
L 300.657125 213.27091 
L 300.703665 212.772733 
L 300.732275 212.274556 
L 300.732275 211.776378 
L 300.744578 211.278201 
L 300.752003 210.780024 
L 301.131263 210.281847 
L 301.489802 209.78367 
L 301.500854 209.285493 
L 301.521384 208.787315 
L 301.775347 208.289138 
L 301.797545 207.790961 
L 301.947178 207.292784 
L 302.089861 206.794607 
L 302.148342 206.29643 
L 302.462017 205.798253 
L 302.707484 205.300075 
L 302.715737 204.801898 
L 302.745089 204.303721 
L 302.754814 203.805544 
L 302.904721 203.307367 
L 303.002666 202.80919 
L 303.098514 202.311013 
L 303.160353 201.812835 
L 303.169336 201.314658 
L 303.315292 200.816481 
L 303.367284 200.318304 
L 303.386705 199.820127 
L 303.478199 199.32195 
L 303.516255 198.823772 
L 303.606686 198.325595 
L 303.606905 197.827418 
L 303.930398 197.329241 
L 304.023314 196.831064 
L 304.176682 196.332887 
L 304.240449 195.83471 
L 304.305743 195.336532 
L 304.502584 194.838355 
L 304.520586 194.340178 
L 304.73518 193.842001 
L 304.905654 193.343824 
L 304.960322 192.845647 
L 305.196418 192.34747 
L 305.444246 191.849292 
L 305.477289 191.351115 
L 305.565219 190.852938 
L 305.845753 190.354761 
L 306.080755 189.856584 
L 306.16438 189.358407 
L 306.169047 188.860229 
L 306.278828 188.362052 
L 306.385834 187.863875 
L 306.398829 187.365698 
L 306.539592 186.867521 
L 306.539605 186.369344 
L 306.58888 185.871167 
L 306.665908 185.372989 
L 306.730946 184.874812 
L 306.913906 184.376635 
L 307.431126 183.878458 
L 307.510093 183.380281 
L 307.546592 182.882104 
L 307.607835 182.383927 
L 307.707344 181.885749 
L 307.718572 181.387572 
L 307.878667 180.889395 
L 308.04931 180.391218 
L 308.055542 179.893041 
L 308.133459 179.394864 
L 308.214427 178.896686 
L 308.451074 178.398509 
L 308.62805 177.900332 
L 308.647537 177.402155 
L 308.678825 176.903978 
L 308.963911 176.405801 
L 309.033321 175.907624 
L 309.287325 175.409446 
L 309.477039 174.911269 
L 309.521676 174.413092 
L 309.565523 173.914915 
L 310.823081 173.416738 
L 310.851271 172.918561 
L 310.857306 172.420384 
L 311.051376 171.922206 
L 311.313888 171.424029 
L 311.350323 170.925852 
L 311.496793 170.427675 
L 311.499566 169.929498 
L 311.614232 169.431321 
L 311.659977 168.933143 
L 311.913605 168.434966 
L 312.005075 167.936789 
L 312.266511 167.438612 
L 312.399991 166.940435 
L 312.459905 166.442258 
L 312.645888 165.944081 
L 312.897076 165.445903 
L 312.897081 164.947726 
L 313.029752 164.449549 
L 313.110741 163.951372 
L 313.185969 163.453195 
L 313.20741 162.955018 
L 313.269094 162.456841 
L 313.481257 161.958663 
L 313.614045 161.460486 
L 313.673174 160.962309 
L 313.775124 160.464132 
L 313.783537 159.965955 
L 313.832946 159.467778 
L 314.057567 158.9696 
L 314.374071 158.471423 
L 314.609986 157.973246 
L 315.039804 157.475069 
L 315.091771 156.976892 
L 315.202198 156.478715 
L 315.202198 155.980538 
L 315.441614 155.48236 
L 315.4568 154.984183 
L 315.571657 154.486006 
L 315.573352 153.987829 
L 315.641067 153.489652 
L 315.641067 152.991475 
L 315.779205 152.493297 
L 315.779375 151.99512 
L 315.939396 151.496943 
L 316.164468 150.998766 
L 316.212561 150.500589 
L 316.234643 150.002412 
L 316.285416 149.504235 
L 316.45929 149.006057 
L 316.466944 148.50788 
L 316.581243 148.009703 
L 316.695824 147.511526 
L 316.921682 147.013349 
L 317.172097 146.515172 
L 317.18439 146.016995 
L 317.275125 145.518817 
L 317.275125 145.02064 
L 317.438262 144.522463 
L 317.469453 144.024286 
L 317.472079 143.526109 
L 317.530861 143.027932 
L 317.979009 142.529754 
L 318.13157 142.031577 
L 318.142127 141.5334 
L 318.243314 141.035223 
L 318.296184 140.537046 
L 318.574413 140.038869 
L 318.65723 139.540692 
L 319.159663 139.042514 
L 319.310004 138.544337 
L 319.649161 138.04616 
L 319.783691 137.547983 
L 319.936888 137.049806 
L 319.939411 136.551629 
L 320.087309 136.053452 
L 320.379576 135.555274 
L 320.614513 135.057097 
L 320.793031 134.55892 
L 320.811842 134.060743 
L 320.842759 133.562566 
L 321.039827 133.064389 
L 321.117427 132.566211 
L 321.175064 132.068034 
L 321.701017 131.569857 
L 321.713501 131.07168 
L 321.721881 130.573503 
L 321.860464 130.075326 
L 321.942067 129.577149 
L 321.987526 129.078971 
L 322.103796 128.580794 
L 322.116562 128.082617 
L 322.226229 127.58444 
L 322.473321 127.086263 
L 322.807396 126.588086 
L 322.834759 126.089909 
L 322.911216 125.591731 
L 323.582369 125.093554 
L 323.582369 124.595377 
L 324.06964 124.0972 
L 324.225822 123.599023 
L 324.429681 123.100846 
L 324.5372 122.602668 
L 324.602523 122.104491 
L 324.778025 121.606314 
L 324.893795 121.108137 
L 325.09814 120.60996 
L 325.286706 120.111783 
L 326.259416 119.613606 
L 326.397544 119.115428 
L 326.805327 118.617251 
L 326.960095 118.119074 
L 327.031039 117.620897 
L 327.4295 117.12272 
L 327.512229 116.624543 
L 327.567808 116.126366 
L 328.019061 115.628188 
L 328.390368 115.130011 
L 328.491476 114.631834 
L 328.717997 114.133657 
L 328.786983 113.63548 
L 330.021893 113.137303 
L 330.349764 112.639125 
L 330.568459 112.140948 
L 330.580861 111.642771 
L 331.939007 111.144594 
L 332.573166 110.646417 
L 332.74091 110.14824 
L 332.934645 109.650063 
L 333.066256 109.151885 
L 333.230181 108.653708 
L 333.787923 108.155531 
L 334.068099 107.657354 
L 334.800696 107.159177 
L 334.84783 106.661 
L 335.945704 106.162823 
L 336.196707 105.664645 
L 336.272713 105.166468 
L 336.965146 104.668291 
L 337.222092 104.170114 
L 337.28842 103.671937 
L 337.429161 103.17376 
L 337.444725 102.675582 
L 337.932385 102.177405 
L 337.993772 101.679228 
L 338.48925 101.181051 
L 338.660511 100.682874 
L 339.015468 100.184697 
L 339.086064 99.68652 
L 339.811924 99.188342 
L 340.340489 98.690165 
L 340.592729 98.191988 
L 340.688364 97.693811 
L 340.985166 97.195634 
L 341.225353 96.697457 
L 341.776145 96.19928 
L 342.108365 95.701102 
L 343.159077 95.202925 
L 343.179367 94.704748 
L 345.070669 94.206571 
L 346.511144 93.708394 
L 347.10046 93.210217 
L 347.269269 92.712039 
L 347.495697 92.213862 
L 347.626493 91.715685 
L 348.135756 91.217508 
L 348.305035 90.719331 
L 348.817712 90.221154 
L 348.837074 89.722977 
L 349.03142 89.224799 
L 349.755652 88.726622 
L 350.154448 88.228445 
L 350.400202 87.730268 
L 350.428725 87.232091 
L 350.600677 86.733914 
L 351.25581 86.235737 
L 351.746352 85.737559 
L 351.877451 85.239382 
L 352.756498 84.741205 
L 354.51082 84.243028 
L 356.661926 83.744851 
L 356.803817 83.246674 
L 357.323146 82.748496 
L 358.316551 82.250319 
L 358.40737 81.752142 
L 358.416906 81.253965 
L 358.437533 80.755788 
L 360.384971 80.257611 
L 360.417664 79.759434 
L 360.715092 79.261256 
L 363.305962 78.763079 
L 364.029592 78.264902 
L 364.138072 77.766725 
L 364.204844 77.268548 
L 366.360329 76.770371 
L 366.397837 76.272194 
L 367.438718 75.774016 
L 368.012926 75.275839 
L 368.342714 74.777662 
L 369.014079 74.279485 
L 369.916063 73.781308 
L 371.949277 73.283131 
L 371.963998 72.784953 
L 372.722734 72.286776 
L 373.651435 71.788599 
L 375.198687 71.290422 
L 376.536398 70.792245 
L 377.030964 70.294068 
L 377.210456 69.795891 
L 377.67717 69.297713 
L 378.229491 68.799536 
L 380.065963 68.301359 
L 380.422492 67.803182 
L 380.814445 67.305005 
L 383.465536 66.806828 
L 387.535174 66.308651 
L 388.530636 65.810473 
L 388.994442 65.312296 
L 389.356282 64.814119 
L 390.067173 64.315942 
L 390.820146 63.817765 
L 390.927431 63.319588 
L 391.489815 62.82141 
L 391.880066 62.323233 
L 392.242863 61.825056 
L 393.670173 61.326879 
L 394.065748 60.828702 
L 394.368424 60.330525 
L 395.534788 59.832348 
L 395.640647 59.33417 
L 396.399473 58.835993 
L 396.940037 58.337816 
L 399.278464 57.839639 
L 404.299356 57.341462 
L 406.448963 56.843285 
L 408.425067 56.345108 
L 414.92254 55.84693 
L 416.650321 55.348753 
L 419.650194 54.850576 
L 420.229239 54.352399 
L 422.339652 53.854222 
L 422.663108 53.356045 
L 423.69279 52.857867 
L 425.026813 52.35969 
L 425.04314 51.861513 
L 425.04314 419.51625 
L 425.04314 419.51625 
L 425.026813 419.51625 
L 423.69279 419.51625 
L 422.663108 419.51625 
L 422.339652 419.51625 
L 420.229239 419.51625 
L 419.650194 419.51625 
L 416.650321 419.51625 
L 414.92254 419.51625 
L 408.425067 419.51625 
L 406.448963 419.51625 
L 404.299356 419.51625 
L 399.278464 419.51625 
L 396.940037 419.51625 
L 396.399473 419.51625 
L 395.640647 419.51625 
L 395.534788 419.51625 
L 394.368424 419.51625 
L 394.065748 419.51625 
L 393.670173 419.51625 
L 392.242863 419.51625 
L 391.880066 419.51625 
L 391.489815 419.51625 
L 390.927431 419.51625 
L 390.820146 419.51625 
L 390.067173 419.51625 
L 389.356282 419.51625 
L 388.994442 419.51625 
L 388.530636 419.51625 
L 387.535174 419.51625 
L 383.465536 419.51625 
L 380.814445 419.51625 
L 380.422492 419.51625 
L 380.065963 419.51625 
L 378.229491 419.51625 
L 377.67717 419.51625 
L 377.210456 419.51625 
L 377.030964 419.51625 
L 376.536398 419.51625 
L 375.198687 419.51625 
L 373.651435 419.51625 
L 372.722734 419.51625 
L 371.963998 419.51625 
L 371.949277 419.51625 
L 369.916063 419.51625 
L 369.014079 419.51625 
L 368.342714 419.51625 
L 368.012926 419.51625 
L 367.438718 419.51625 
L 366.397837 419.51625 
L 366.360329 419.51625 
L 364.204844 419.51625 
L 364.138072 419.51625 
L 364.029592 419.51625 
L 363.305962 419.51625 
L 360.715092 419.51625 
L 360.417664 419.51625 
L 360.384971 419.51625 
L 358.437533 419.51625 
L 358.416906 419.51625 
L 358.40737 419.51625 
L 358.316551 419.51625 
L 357.323146 419.51625 
L 356.803817 419.51625 
L 356.661926 419.51625 
L 354.51082 419.51625 
L 352.756498 419.51625 
L 351.877451 419.51625 
L 351.746352 419.51625 
L 351.25581 419.51625 
L 350.600677 419.51625 
L 350.428725 419.51625 
L 350.400202 419.51625 
L 350.154448 419.51625 
L 349.755652 419.51625 
L 349.03142 419.51625 
L 348.837074 419.51625 
L 348.817712 419.51625 
L 348.305035 419.51625 
L 348.135756 419.51625 
L 347.626493 419.51625 
L 347.495697 419.51625 
L 347.269269 419.51625 
L 347.10046 419.51625 
L 346.511144 419.51625 
L 345.070669 419.51625 
L 343.179367 419.51625 
L 343.159077 419.51625 
L 342.108365 419.51625 
L 341.776145 419.51625 
L 341.225353 419.51625 
L 340.985166 419.51625 
L 340.688364 419.51625 
L 340.592729 419.51625 
L 340.340489 419.51625 
L 339.811924 419.51625 
L 339.086064 419.51625 
L 339.015468 419.51625 
L 338.660511 419.51625 
L 338.48925 419.51625 
L 337.993772 419.51625 
L 337.932385 419.51625 
L 337.444725 419.51625 
L 337.429161 419.51625 
L 337.28842 419.51625 
L 337.222092 419.51625 
L 336.965146 419.51625 
L 336.272713 419.51625 
L 336.196707 419.51625 
L 335.945704 419.51625 
L 334.84783 419.51625 
L 334.800696 419.51625 
L 334.068099 419.51625 
L 333.787923 419.51625 
L 333.230181 419.51625 
L 333.066256 419.51625 
L 332.934645 419.51625 
L 332.74091 419.51625 
L 332.573166 419.51625 
L 331.939007 419.51625 
L 330.580861 419.51625 
L 330.568459 419.51625 
L 330.349764 419.51625 
L 330.021893 419.51625 
L 328.786983 419.51625 
L 328.717997 419.51625 
L 328.491476 419.51625 
L 328.390368 419.51625 
L 328.019061 419.51625 
L 327.567808 419.51625 
L 327.512229 419.51625 
L 327.4295 419.51625 
L 327.031039 419.51625 
L 326.960095 419.51625 
L 326.805327 419.51625 
L 326.397544 419.51625 
L 326.259416 419.51625 
L 325.286706 419.51625 
L 325.09814 419.51625 
L 324.893795 419.51625 
L 324.778025 419.51625 
L 324.602523 419.51625 
L 324.5372 419.51625 
L 324.429681 419.51625 
L 324.225822 419.51625 
L 324.06964 419.51625 
L 323.582369 419.51625 
L 323.582369 419.51625 
L 322.911216 419.51625 
L 322.834759 419.51625 
L 322.807396 419.51625 
L 322.473321 419.51625 
L 322.226229 419.51625 
L 322.116562 419.51625 
L 322.103796 419.51625 
L 321.987526 419.51625 
L 321.942067 419.51625 
L 321.860464 419.51625 
L 321.721881 419.51625 
L 321.713501 419.51625 
L 321.701017 419.51625 
L 321.175064 419.51625 
L 321.117427 419.51625 
L 321.039827 419.51625 
L 320.842759 419.51625 
L 320.811842 419.51625 
L 320.793031 419.51625 
L 320.614513 419.51625 
L 320.379576 419.51625 
L 320.087309 419.51625 
L 319.939411 419.51625 
L 319.936888 419.51625 
L 319.783691 419.51625 
L 319.649161 419.51625 
L 319.310004 419.51625 
L 319.159663 419.51625 
L 318.65723 419.51625 
L 318.574413 419.51625 
L 318.296184 419.51625 
L 318.243314 419.51625 
L 318.142127 419.51625 
L 318.13157 419.51625 
L 317.979009 419.51625 
L 317.530861 419.51625 
L 317.472079 419.51625 
L 317.469453 419.51625 
L 317.438262 419.51625 
L 317.275125 419.51625 
L 317.275125 419.51625 
L 317.18439 419.51625 
L 317.172097 419.51625 
L 316.921682 419.51625 
L 316.695824 419.51625 
L 316.581243 419.51625 
L 316.466944 419.51625 
L 316.45929 419.51625 
L 316.285416 419.51625 
L 316.234643 419.51625 
L 316.212561 419.51625 
L 316.164468 419.51625 
L 315.939396 419.51625 
L 315.779375 419.51625 
L 315.779205 419.51625 
L 315.641067 419.51625 
L 315.641067 419.51625 
L 315.573352 419.51625 
L 315.571657 419.51625 
L 315.4568 419.51625 
L 315.441614 419.51625 
L 315.202198 419.51625 
L 315.202198 419.51625 
L 315.091771 419.51625 
L 315.039804 419.51625 
L 314.609986 419.51625 
L 314.374071 419.51625 
L 314.057567 419.51625 
L 313.832946 419.51625 
L 313.783537 419.51625 
L 313.775124 419.51625 
L 313.673174 419.51625 
L 313.614045 419.51625 
L 313.481257 419.51625 
L 313.269094 419.51625 
L 313.20741 419.51625 
L 313.185969 419.51625 
L 313.110741 419.51625 
L 313.029752 419.51625 
L 312.897081 419.51625 
L 312.897076 419.51625 
L 312.645888 419.51625 
L 312.459905 419.51625 
L 312.399991 419.51625 
L 312.266511 419.51625 
L 312.005075 419.51625 
L 311.913605 419.51625 
L 311.659977 419.51625 
L 311.614232 419.51625 
L 311.499566 419.51625 
L 311.496793 419.51625 
L 311.350323 419.51625 
L 311.313888 419.51625 
L 311.051376 419.51625 
L 310.857306 419.51625 
L 310.851271 419.51625 
L 310.823081 419.51625 
L 309.565523 419.51625 
L 309.521676 419.51625 
L 309.477039 419.51625 
L 309.287325 419.51625 
L 309.033321 419.51625 
L 308.963911 419.51625 
L 308.678825 419.51625 
L 308.647537 419.51625 
L 308.62805 419.51625 
L 308.451074 419.51625 
L 308.214427 419.51625 
L 308.133459 419.51625 
L 308.055542 419.51625 
L 308.04931 419.51625 
L 307.878667 419.51625 
L 307.718572 419.51625 
L 307.707344 419.51625 
L 307.607835 419.51625 
L 307.546592 419.51625 
L 307.510093 419.51625 
L 307.431126 419.51625 
L 306.913906 419.51625 
L 306.730946 419.51625 
L 306.665908 419.51625 
L 306.58888 419.51625 
L 306.539605 419.51625 
L 306.539592 419.51625 
L 306.398829 419.51625 
L 306.385834 419.51625 
L 306.278828 419.51625 
L 306.169047 419.51625 
L 306.16438 419.51625 
L 306.080755 419.51625 
L 305.845753 419.51625 
L 305.565219 419.51625 
L 305.477289 419.51625 
L 305.444246 419.51625 
L 305.196418 419.51625 
L 304.960322 419.51625 
L 304.905654 419.51625 
L 304.73518 419.51625 
L 304.520586 419.51625 
L 304.502584 419.51625 
L 304.305743 419.51625 
L 304.240449 419.51625 
L 304.176682 419.51625 
L 304.023314 419.51625 
L 303.930398 419.51625 
L 303.606905 419.51625 
L 303.606686 419.51625 
L 303.516255 419.51625 
L 303.478199 419.51625 
L 303.386705 419.51625 
L 303.367284 419.51625 
L 303.315292 419.51625 
L 303.169336 419.51625 
L 303.160353 419.51625 
L 303.098514 419.51625 
L 303.002666 419.51625 
L 302.904721 419.51625 
L 302.754814 419.51625 
L 302.745089 419.51625 
L 302.715737 419.51625 
L 302.707484 419.51625 
L 302.462017 419.51625 
L 302.148342 419.51625 
L 302.089861 419.51625 
L 301.947178 419.51625 
L 301.797545 419.51625 
L 301.775347 419.51625 
L 301.521384 419.51625 
L 301.500854 419.51625 
L 301.489802 419.51625 
L 301.131263 419.51625 
L 300.752003 419.51625 
L 300.744578 419.51625 
L 300.732275 419.51625 
L 300.732275 419.51625 
L 300.703665 419.51625 
L 300.657125 419.51625 
L 300.643492 419.51625 
L 300.630424 419.51625 
L 300.335445 419.51625 
L 300.309002 419.51625 
L 300.172735 419.51625 
L 300.041187 419.51625 
L 299.862403 419.51625 
L 299.717034 419.51625 
L 299.64868 419.51625 
L 299.563779 419.51625 
L 299.559924 419.51625 
L 299.532182 419.51625 
L 299.469117 419.51625 
L 299.319139 419.51625 
L 299.265127 419.51625 
L 299.112085 419.51625 
L 299.041813 419.51625 
L 299.034443 419.51625 
L 299.030906 419.51625 
L 298.815461 419.51625 
L 298.785277 419.51625 
L 298.652602 419.51625 
L 298.471046 419.51625 
L 298.404911 419.51625 
L 298.376606 419.51625 
L 298.206891 419.51625 
L 298.157154 419.51625 
L 297.959421 419.51625 
L 297.952692 419.51625 
L 297.714228 419.51625 
L 297.581219 419.51625 
L 297.509951 419.51625 
L 297.203798 419.51625 
L 297.186489 419.51625 
L 297.182021 419.51625 
L 297.066268 419.51625 
L 297.037072 419.51625 
L 296.995536 419.51625 
L 296.856343 419.51625 
L 296.797954 419.51625 
L 296.715966 419.51625 
L 296.707464 419.51625 
L 296.391084 419.51625 
L 296.381928 419.51625 
L 296.267825 419.51625 
L 296.089053 419.51625 
L 296.031388 419.51625 
L 295.990553 419.51625 
L 295.845173 419.51625 
L 295.845173 419.51625 
L 295.8128 419.51625 
L 295.780246 419.51625 
L 295.722297 419.51625 
L 295.650184 419.51625 
L 295.60289 419.51625 
L 295.550666 419.51625 
L 295.160033 419.51625 
L 294.970476 419.51625 
L 294.920235 419.51625 
L 294.767194 419.51625 
L 294.716187 419.51625 
L 294.707111 419.51625 
L 294.495491 419.51625 
L 294.275252 419.51625 
L 294.212544 419.51625 
L 294.119999 419.51625 
L 293.768102 419.51625 
L 293.655397 419.51625 
L 293.572788 419.51625 
L 293.477738 419.51625 
L 293.389562 419.51625 
L 293.319331 419.51625 
L 293.265574 419.51625 
L 293.103107 419.51625 
L 293.081101 419.51625 
L 293.013364 419.51625 
L 292.915079 419.51625 
L 292.814515 419.51625 
L 292.814515 419.51625 
L 292.473321 419.51625 
L 292.468186 419.51625 
L 292.453062 419.51625 
L 292.299999 419.51625 
L 292.298936 419.51625 
L 292.046192 419.51625 
L 291.953709 419.51625 
L 291.94478 419.51625 
L 291.701993 419.51625 
L 291.674327 419.51625 
L 291.612334 419.51625 
L 291.609121 419.51625 
L 291.525243 419.51625 
L 291.299258 419.51625 
L 291.24848 419.51625 
L 291.039907 419.51625 
L 290.870141 419.51625 
L 290.687481 419.51625 
L 290.64207 419.51625 
L 290.54514 419.51625 
L 290.498498 419.51625 
L 290.360968 419.51625 
L 290.339005 419.51625 
L 290.167032 419.51625 
L 289.781263 419.51625 
L 289.73156 419.51625 
L 289.650907 419.51625 
L 289.634415 419.51625 
L 289.589218 419.51625 
L 289.371506 419.51625 
L 289.358975 419.51625 
L 289.354104 419.51625 
L 289.286341 419.51625 
L 289.135192 419.51625 
L 289.090375 419.51625 
L 288.859704 419.51625 
L 288.799249 419.51625 
L 288.740672 419.51625 
L 288.740672 419.51625 
L 288.734426 419.51625 
L 288.556346 419.51625 
L 288.469624 419.51625 
L 288.402897 419.51625 
L 288.10817 419.51625 
L 288.030114 419.51625 
L 287.994583 419.51625 
L 287.952017 419.51625 
L 287.81299 419.51625 
L 287.72241 419.51625 
L 287.670977 419.51625 
L 287.604421 419.51625 
L 287.560427 419.51625 
L 287.265758 419.51625 
L 287.022431 419.51625 
L 287.006885 419.51625 
L 287.006885 419.51625 
L 286.759771 419.51625 
L 286.568226 419.51625 
L 286.568226 419.51625 
L 286.492272 419.51625 
L 286.439428 419.51625 
L 286.429339 419.51625 
L 286.319922 419.51625 
L 286.230451 419.51625 
L 286.070182 419.51625 
L 285.64731 419.51625 
L 285.356335 419.51625 
L 285.226824 419.51625 
L 285.191896 419.51625 
L 285.172215 419.51625 
L 285.157419 419.51625 
L 285.101271 419.51625 
L 284.961643 419.51625 
L 284.78192 419.51625 
L 284.688436 419.51625 
L 284.686495 419.51625 
L 284.540941 419.51625 
L 284.436911 419.51625 
L 284.278684 419.51625 
L 284.234603 419.51625 
L 283.792143 419.51625 
L 283.356409 419.51625 
L 282.816669 419.51625 
L 282.661993 419.51625 
L 282.615509 419.51625 
L 282.463377 419.51625 
L 282.407068 419.51625 
L 282.118633 419.51625 
L 281.976544 419.51625 
L 281.896401 419.51625 
L 281.842869 419.51625 
L 281.642283 419.51625 
L 281.61614 419.51625 
L 281.555327 419.51625 
L 281.458662 419.51625 
L 281.451828 419.51625 
L 281.435901 419.51625 
L 281.310002 419.51625 
L 281.238903 419.51625 
L 281.23769 419.51625 
L 281.153639 419.51625 
L 280.9862 419.51625 
L 280.420633 419.51625 
L 280.334593 419.51625 
L 279.208466 419.51625 
L 279.129792 419.51625 
L 278.389768 419.51625 
L 278.157032 419.51625 
L 278.108223 419.51625 
L 277.832025 419.51625 
L 277.674842 419.51625 
L 277.607394 419.51625 
L 277.491307 419.51625 
L 277.142593 419.51625 
L 276.974646 419.51625 
L 276.935682 419.51625 
L 276.909486 419.51625 
L 276.201791 419.51625 
L 276.100516 419.51625 
L 276.095476 419.51625 
L 275.986993 419.51625 
L 275.571188 419.51625 
L 274.949092 419.51625 
L 274.917342 419.51625 
L 274.689106 419.51625 
L 274.426132 419.51625 
L 274.05805 419.51625 
L 273.319085 419.51625 
L 273.011957 419.51625 
L 272.81732 419.51625 
L 272.450766 419.51625 
L 272.435374 419.51625 
L 272.392623 419.51625 
L 271.977796 419.51625 
L 271.898803 419.51625 
L 271.841036 419.51625 
L 271.354581 419.51625 
L 271.105325 419.51625 
L 270.807256 419.51625 
L 270.800016 419.51625 
L 270.54987 419.51625 
L 270.061831 419.51625 
L 268.889346 419.51625 
L 268.889346 419.51625 
L 268.718213 419.51625 
L 268.653724 419.51625 
L 268.56661 419.51625 
L 268.31504 419.51625 
L 268.238985 419.51625 
L 267.844569 419.51625 
L 267.503436 419.51625 
L 267.131547 419.51625 
L 266.773453 419.51625 
L 266.472064 419.51625 
L 266.324842 419.51625 
L 266.267998 419.51625 
L 266.142594 419.51625 
L 266.142594 419.51625 
L 266.112417 419.51625 
L 265.996241 419.51625 
L 265.85259 419.51625 
L 265.604975 419.51625 
L 265.541299 419.51625 
L 264.993666 419.51625 
L 264.880248 419.51625 
L 264.396219 419.51625 
L 263.943194 419.51625 
L 263.850974 419.51625 
L 263.64168 419.51625 
L 263.345824 419.51625 
L 263.307594 419.51625 
L 263.185792 419.51625 
L 262.876405 419.51625 
L 262.532133 419.51625 
L 262.188347 419.51625 
L 262.054766 419.51625 
L 261.870385 419.51625 
L 260.171942 419.51625 
L 259.837179 419.51625 
L 258.621163 419.51625 
L 258.093511 419.51625 
L 257.958446 419.51625 
L 256.305747 419.51625 
L 256.006245 419.51625 
L 255.837939 419.51625 
L 255.732186 419.51625 
L 255.6273 419.51625 
L 255.47125 419.51625 
L 255.244056 419.51625 
L 254.888079 419.51625 
L 254.812581 419.51625 
L 254.71446 419.51625 
L 254.359815 419.51625 
L 254.261349 419.51625 
L 253.449714 419.51625 
L 251.866093 419.51625 
L 251.380905 419.51625 
L 250.77133 419.51625 
L 249.763434 419.51625 
L 248.594549 419.51625 
L 248.092184 419.51625 
L 247.69398 419.51625 
L 247.316464 419.51625 
L 246.259996 419.51625 
L 246.046314 419.51625 
L 245.893102 419.51625 
L 245.551736 419.51625 
L 245.489499 419.51625 
L 245.358355 419.51625 
L 245.28684 419.51625 
L 244.760578 419.51625 
L 244.687441 419.51625 
L 244.418135 419.51625 
L 244.304742 419.51625 
L 244.096872 419.51625 
L 243.080736 419.51625 
L 242.71307 419.51625 
L 239.037511 419.51625 
L 238.754777 419.51625 
L 238.605334 419.51625 
L 238.439003 419.51625 
L 238.426685 419.51625 
L 237.67825 419.51625 
L 237.509322 419.51625 
L 237.335094 419.51625 
L 236.89413 419.51625 
L 236.481616 419.51625 
L 235.664635 419.51625 
L 235.306419 419.51625 
L 233.379463 419.51625 
L 233.088121 419.51625 
L 227.931805 419.51625 
L 227.748941 419.51625 
L 227.484359 419.51625 
L 226.976033 419.51625 
L 226.822628 419.51625 
L 226.213601 419.51625 
L 225.491264 419.51625 
L 224.912788 419.51625 
L 224.734077 419.51625 
L 222.781745 419.51625 
L 221.408715 419.51625 
L 220.053446 419.51625 
L 219.829967 419.51625 
L 219.699922 419.51625 
L 218.492837 419.51625 
L 216.376313 419.51625 
L 215.807132 419.51625 
L 215.431265 419.51625 
L 215.163471 419.51625 
L 214.367165 419.51625 
L 214.211324 419.51625 
L 213.659374 419.51625 
L 213.238168 419.51625 
L 212.709042 419.51625 
L 212.538902 419.51625 
L 212.502042 419.51625 
L 212.459889 419.51625 
L 211.892986 419.51625 
L 211.321494 419.51625 
L 210.872599 419.51625 
L 210.814067 419.51625 
L 209.328479 419.51625 
L 207.59027 419.51625 
L 205.730853 419.51625 
L 205.055871 419.51625 
L 204.888379 419.51625 
L 204.26543 419.51625 
L 202.221489 419.51625 
L 201.225457 419.51625 
L 201.220735 419.51625 
L 200.898976 419.51625 
L 197.488599 419.51625 
L 196.923401 419.51625 
L 196.48864 419.51625 
L 195.651961 419.51625 
L 195.00658 419.51625 
L 193.467862 419.51625 
L 192.732135 419.51625 
L 190.721756 419.51625 
L 190.175091 419.51625 
L 190.047175 419.51625 
L 189.516655 419.51625 
L 189.204002 419.51625 
L 188.763051 419.51625 
L 188.471969 419.51625 
L 185.624802 419.51625 
L 183.385093 419.51625 
L 181.281516 419.51625 
L 177.936999 419.51625 
L 177.796467 419.51625 
L 174.906843 419.51625 
L 173.820695 419.51625 
L 172.958983 419.51625 
L 171.492465 419.51625 
L 169.96464 419.51625 
z
" style="fill:#1f77b4;fill-opacity:0.3;"/>
   </g>
   <g id="matplotlib.axis_1">
    <g id="xtick_1">
     <g id="line2d_1">
      <defs>
       <path d="M 0 0 
L 0 7 
" id="mbfba4dfb0c" style="stroke:#000000;stroke-width:2.5;"/>
      </defs>
      <g>
       <use style="stroke:#000000;stroke-width:2.5;" x="85.186657" xlink:href="#mbfba4dfb0c" y="419.51625"/>
      </g>
     </g>
     <g id="text_1">
      <!-- −1.0 -->
      <defs>
       <path d="M 10.59375 35.5 
L 73.1875 35.5 
L 73.1875 27.203125 
L 10.59375 27.203125 
z
" id="DejaVuSans-8722"/>
       <path d="M 12.40625 8.296875 
L 28.515625 8.296875 
L 28.515625 63.921875 
L 10.984375 60.40625 
L 10.984375 69.390625 
L 28.421875 72.90625 
L 38.28125 72.90625 
L 38.28125 8.296875 
L 54.390625 8.296875 
L 54.390625 0 
L 12.40625 0 
z
" id="DejaVuSans-49"/>
       <path d="M 10.6875 12.40625 
L 21 12.40625 
L 21 0 
L 10.6875 0 
z
" id="DejaVuSans-46"/>
       <path d="M 31.78125 66.40625 
Q 24.171875 66.40625 20.328125 58.90625 
Q 16.5 51.421875 16.5 36.375 
Q 16.5 21.390625 20.328125 13.890625 
Q 24.171875 6.390625 31.78125 6.390625 
Q 39.453125 6.390625 43.28125 13.890625 
Q 47.125 21.390625 47.125 36.375 
Q 47.125 51.421875 43.28125 58.90625 
Q 39.453125 66.40625 31.78125 66.40625 
z
M 31.78125 74.21875 
Q 44.046875 74.21875 50.515625 64.515625 
Q 56.984375 54.828125 56.984375 36.375 
Q 56.984375 17.96875 50.515625 8.265625 
Q 44.046875 -1.421875 31.78125 -1.421875 
Q 19.53125 -1.421875 13.0625 8.265625 
Q 6.59375 17.96875 6.59375 36.375 
Q 6.59375 54.828125 13.0625 64.515625 
Q 19.53125 74.21875 31.78125 74.21875 
z
" id="DejaVuSans-48"/>
      </defs>
      <g transform="translate(60.903845 445.213125)scale(0.2 -0.2)">
       <use xlink:href="#DejaVuSans-8722"/>
       <use x="83.789062" xlink:href="#DejaVuSans-49"/>
       <use x="147.412109" xlink:href="#DejaVuSans-46"/>
       <use x="179.199219" xlink:href="#DejaVuSans-48"/>
      </g>
     </g>
    </g>
    <g id="xtick_2">
     <g id="line2d_2">
      <g>
       <use style="stroke:#000000;stroke-width:2.5;" x="193.808954" xlink:href="#mbfba4dfb0c" y="419.51625"/>
      </g>
     </g>
     <g id="text_2">
      <!-- −0.5 -->
      <defs>
       <path d="M 10.796875 72.90625 
L 49.515625 72.90625 
L 49.515625 64.59375 
L 19.828125 64.59375 
L 19.828125 46.734375 
Q 21.96875 47.46875 24.109375 47.828125 
Q 26.265625 48.1875 28.421875 48.1875 
Q 40.625 48.1875 47.75 41.5 
Q 54.890625 34.8125 54.890625 23.390625 
Q 54.890625 11.625 47.5625 5.09375 
Q 40.234375 -1.421875 26.90625 -1.421875 
Q 22.3125 -1.421875 17.546875 -0.640625 
Q 12.796875 0.140625 7.71875 1.703125 
L 7.71875 11.625 
Q 12.109375 9.234375 16.796875 8.0625 
Q 21.484375 6.890625 26.703125 6.890625 
Q 35.15625 6.890625 40.078125 11.328125 
Q 45.015625 15.765625 45.015625 23.390625 
Q 45.015625 31 40.078125 35.4375 
Q 35.15625 39.890625 26.703125 39.890625 
Q 22.75 39.890625 18.8125 39.015625 
Q 14.890625 38.140625 10.796875 36.28125 
z
" id="DejaVuSans-53"/>
      </defs>
      <g transform="translate(169.526141 445.213125)scale(0.2 -0.2)">
       <use xlink:href="#DejaVuSans-8722"/>
       <use x="83.789062" xlink:href="#DejaVuSans-48"/>
       <use x="147.412109" xlink:href="#DejaVuSans-46"/>
       <use x="179.199219" xlink:href="#DejaVuSans-53"/>
      </g>
     </g>
    </g>
    <g id="xtick_3">
     <g id="line2d_3">
      <g>
       <use style="stroke:#000000;stroke-width:2.5;" x="302.43125" xlink:href="#mbfba4dfb0c" y="419.51625"/>
      </g>
     </g>
     <g id="text_3">
      <!-- 0.0 -->
      <g transform="translate(286.528125 445.213125)scale(0.2 -0.2)">
       <use xlink:href="#DejaVuSans-48"/>
       <use x="63.623047" xlink:href="#DejaVuSans-46"/>
       <use x="95.410156" xlink:href="#DejaVuSans-48"/>
      </g>
     </g>
    </g>
    <g id="xtick_4">
     <g id="line2d_4">
      <g>
       <use style="stroke:#000000;stroke-width:2.5;" x="411.053546" xlink:href="#mbfba4dfb0c" y="419.51625"/>
      </g>
     </g>
     <g id="text_4">
      <!-- 0.5 -->
      <g transform="translate(395.150421 445.213125)scale(0.2 -0.2)">
       <use xlink:href="#DejaVuSans-48"/>
       <use x="63.623047" xlink:href="#DejaVuSans-46"/>
       <use x="95.410156" xlink:href="#DejaVuSans-53"/>
      </g>
     </g>
    </g>
    <g id="xtick_5">
     <g id="line2d_5">
      <g>
       <use style="stroke:#000000;stroke-width:2.5;" x="519.675843" xlink:href="#mbfba4dfb0c" y="419.51625"/>
      </g>
     </g>
     <g id="text_5">
      <!-- 1.0 -->
      <g transform="translate(503.772718 445.213125)scale(0.2 -0.2)">
       <use xlink:href="#DejaVuSans-49"/>
       <use x="63.623047" xlink:href="#DejaVuSans-46"/>
       <use x="95.410156" xlink:href="#DejaVuSans-48"/>
      </g>
     </g>
    </g>
    <g id="text_6">
     <!-- Residual -->
     <defs>
      <path d="M 44.390625 34.1875 
Q 47.5625 33.109375 50.5625 29.59375 
Q 53.5625 26.078125 56.59375 19.921875 
L 66.609375 0 
L 56 0 
L 46.6875 18.703125 
Q 43.0625 26.03125 39.671875 28.421875 
Q 36.28125 30.8125 30.421875 30.8125 
L 19.671875 30.8125 
L 19.671875 0 
L 9.8125 0 
L 9.8125 72.90625 
L 32.078125 72.90625 
Q 44.578125 72.90625 50.734375 67.671875 
Q 56.890625 62.453125 56.890625 51.90625 
Q 56.890625 45.015625 53.6875 40.46875 
Q 50.484375 35.9375 44.390625 34.1875 
z
M 19.671875 64.796875 
L 19.671875 38.921875 
L 32.078125 38.921875 
Q 39.203125 38.921875 42.84375 42.21875 
Q 46.484375 45.515625 46.484375 51.90625 
Q 46.484375 58.296875 42.84375 61.546875 
Q 39.203125 64.796875 32.078125 64.796875 
z
" id="DejaVuSans-82"/>
      <path d="M 56.203125 29.59375 
L 56.203125 25.203125 
L 14.890625 25.203125 
Q 15.484375 15.921875 20.484375 11.0625 
Q 25.484375 6.203125 34.421875 6.203125 
Q 39.59375 6.203125 44.453125 7.46875 
Q 49.3125 8.734375 54.109375 11.28125 
L 54.109375 2.78125 
Q 49.265625 0.734375 44.1875 -0.34375 
Q 39.109375 -1.421875 33.890625 -1.421875 
Q 20.796875 -1.421875 13.15625 6.1875 
Q 5.515625 13.8125 5.515625 26.8125 
Q 5.515625 40.234375 12.765625 48.109375 
Q 20.015625 56 32.328125 56 
Q 43.359375 56 49.78125 48.890625 
Q 56.203125 41.796875 56.203125 29.59375 
z
M 47.21875 32.234375 
Q 47.125 39.59375 43.09375 43.984375 
Q 39.0625 48.390625 32.421875 48.390625 
Q 24.90625 48.390625 20.390625 44.140625 
Q 15.875 39.890625 15.1875 32.171875 
z
" id="DejaVuSans-101"/>
      <path d="M 44.28125 53.078125 
L 44.28125 44.578125 
Q 40.484375 46.53125 36.375 47.5 
Q 32.28125 48.484375 27.875 48.484375 
Q 21.1875 48.484375 17.84375 46.4375 
Q 14.5 44.390625 14.5 40.28125 
Q 14.5 37.15625 16.890625 35.375 
Q 19.28125 33.59375 26.515625 31.984375 
L 29.59375 31.296875 
Q 39.15625 29.25 43.1875 25.515625 
Q 47.21875 21.78125 47.21875 15.09375 
Q 47.21875 7.46875 41.1875 3.015625 
Q 35.15625 -1.421875 24.609375 -1.421875 
Q 20.21875 -1.421875 15.453125 -0.5625 
Q 10.6875 0.296875 5.421875 2 
L 5.421875 11.28125 
Q 10.40625 8.6875 15.234375 7.390625 
Q 20.0625 6.109375 24.8125 6.109375 
Q 31.15625 6.109375 34.5625 8.28125 
Q 37.984375 10.453125 37.984375 14.40625 
Q 37.984375 18.0625 35.515625 20.015625 
Q 33.0625 21.96875 24.703125 23.78125 
L 21.578125 24.515625 
Q 13.234375 26.265625 9.515625 29.90625 
Q 5.8125 33.546875 5.8125 39.890625 
Q 5.8125 47.609375 11.28125 51.796875 
Q 16.75 56 26.8125 56 
Q 31.78125 56 36.171875 55.265625 
Q 40.578125 54.546875 44.28125 53.078125 
z
" id="DejaVuSans-115"/>
      <path d="M 9.421875 54.6875 
L 18.40625 54.6875 
L 18.40625 0 
L 9.421875 0 
z
M 9.421875 75.984375 
L 18.40625 75.984375 
L 18.40625 64.59375 
L 9.421875 64.59375 
z
" id="DejaVuSans-105"/>
      <path d="M 45.40625 46.390625 
L 45.40625 75.984375 
L 54.390625 75.984375 
L 54.390625 0 
L 45.40625 0 
L 45.40625 8.203125 
Q 42.578125 3.328125 38.25 0.953125 
Q 33.9375 -1.421875 27.875 -1.421875 
Q 17.96875 -1.421875 11.734375 6.484375 
Q 5.515625 14.40625 5.515625 27.296875 
Q 5.515625 40.1875 11.734375 48.09375 
Q 17.96875 56 27.875 56 
Q 33.9375 56 38.25 53.625 
Q 42.578125 51.265625 45.40625 46.390625 
z
M 14.796875 27.296875 
Q 14.796875 17.390625 18.875 11.75 
Q 22.953125 6.109375 30.078125 6.109375 
Q 37.203125 6.109375 41.296875 11.75 
Q 45.40625 17.390625 45.40625 27.296875 
Q 45.40625 37.203125 41.296875 42.84375 
Q 37.203125 48.484375 30.078125 48.484375 
Q 22.953125 48.484375 18.875 42.84375 
Q 14.796875 37.203125 14.796875 27.296875 
z
" id="DejaVuSans-100"/>
      <path d="M 8.5 21.578125 
L 8.5 54.6875 
L 17.484375 54.6875 
L 17.484375 21.921875 
Q 17.484375 14.15625 20.5 10.265625 
Q 23.53125 6.390625 29.59375 6.390625 
Q 36.859375 6.390625 41.078125 11.03125 
Q 45.3125 15.671875 45.3125 23.6875 
L 45.3125 54.6875 
L 54.296875 54.6875 
L 54.296875 0 
L 45.3125 0 
L 45.3125 8.40625 
Q 42.046875 3.421875 37.71875 1 
Q 33.40625 -1.421875 27.6875 -1.421875 
Q 18.265625 -1.421875 13.375 4.4375 
Q 8.5 10.296875 8.5 21.578125 
z
M 31.109375 56 
z
" id="DejaVuSans-117"/>
      <path d="M 34.28125 27.484375 
Q 23.390625 27.484375 19.1875 25 
Q 14.984375 22.515625 14.984375 16.5 
Q 14.984375 11.71875 18.140625 8.90625 
Q 21.296875 6.109375 26.703125 6.109375 
Q 34.1875 6.109375 38.703125 11.40625 
Q 43.21875 16.703125 43.21875 25.484375 
L 43.21875 27.484375 
z
M 52.203125 31.203125 
L 52.203125 0 
L 43.21875 0 
L 43.21875 8.296875 
Q 40.140625 3.328125 35.546875 0.953125 
Q 30.953125 -1.421875 24.3125 -1.421875 
Q 15.921875 -1.421875 10.953125 3.296875 
Q 6 8.015625 6 15.921875 
Q 6 25.140625 12.171875 29.828125 
Q 18.359375 34.515625 30.609375 34.515625 
L 43.21875 34.515625 
L 43.21875 35.40625 
Q 43.21875 41.609375 39.140625 45 
Q 35.0625 48.390625 27.6875 48.390625 
Q 23 48.390625 18.546875 47.265625 
Q 14.109375 46.140625 10.015625 43.890625 
L 10.015625 52.203125 
Q 14.9375 54.109375 19.578125 55.046875 
Q 24.21875 56 28.609375 56 
Q 40.484375 56 46.34375 49.84375 
Q 52.203125 43.703125 52.203125 31.203125 
z
" id="DejaVuSans-97"/>
      <path d="M 9.421875 75.984375 
L 18.40625 75.984375 
L 18.40625 0 
L 9.421875 0 
z
" id="DejaVuSans-108"/>
     </defs>
     <g transform="translate(259.75625 468.569375)scale(0.2 -0.2)">
      <use xlink:href="#DejaVuSans-82"/>
      <use x="69.419922" xlink:href="#DejaVuSans-101"/>
      <use x="130.943359" xlink:href="#DejaVuSans-115"/>
      <use x="183.042969" xlink:href="#DejaVuSans-105"/>
      <use x="210.826172" xlink:href="#DejaVuSans-100"/>
      <use x="274.302734" xlink:href="#DejaVuSans-117"/>
      <use x="337.681641" xlink:href="#DejaVuSans-97"/>
      <use x="398.960938" xlink:href="#DejaVuSans-108"/>
     </g>
    </g>
   </g>
   <g id="matplotlib.axis_2">
    <g id="ytick_1">
     <g id="line2d_6">
      <defs>
       <path d="M 0 0 
L -7 0 
" id="ma1b3544e0b" style="stroke:#000000;stroke-width:2.5;"/>
      </defs>
      <g>
       <use style="stroke:#000000;stroke-width:2.5;" x="79.23125" xlink:href="#ma1b3544e0b" y="419.51625"/>
      </g>
     </g>
     <g id="text_7">
      <!-- 0 -->
      <g transform="translate(56.00625 427.114687)scale(0.2 -0.2)">
       <use xlink:href="#DejaVuSans-48"/>
      </g>
     </g>
    </g>
    <g id="ytick_2">
     <g id="line2d_7">
      <g>
       <use style="stroke:#000000;stroke-width:2.5;" x="79.23125" xlink:href="#ma1b3544e0b" y="341.90025"/>
      </g>
     </g>
     <g id="text_8">
      <!-- 20 -->
      <defs>
       <path d="M 19.1875 8.296875 
L 53.609375 8.296875 
L 53.609375 0 
L 7.328125 0 
L 7.328125 8.296875 
Q 12.9375 14.109375 22.625 23.890625 
Q 32.328125 33.6875 34.8125 36.53125 
Q 39.546875 41.84375 41.421875 45.53125 
Q 43.3125 49.21875 43.3125 52.78125 
Q 43.3125 58.59375 39.234375 62.25 
Q 35.15625 65.921875 28.609375 65.921875 
Q 23.96875 65.921875 18.8125 64.3125 
Q 13.671875 62.703125 7.8125 59.421875 
L 7.8125 69.390625 
Q 13.765625 71.78125 18.9375 73 
Q 24.125 74.21875 28.421875 74.21875 
Q 39.75 74.21875 46.484375 68.546875 
Q 53.21875 62.890625 53.21875 53.421875 
Q 53.21875 48.921875 51.53125 44.890625 
Q 49.859375 40.875 45.40625 35.40625 
Q 44.1875 33.984375 37.640625 27.21875 
Q 31.109375 20.453125 19.1875 8.296875 
z
" id="DejaVuSans-50"/>
      </defs>
      <g transform="translate(43.28125 349.498687)scale(0.2 -0.2)">
       <use xlink:href="#DejaVuSans-50"/>
       <use x="63.623047" xlink:href="#DejaVuSans-48"/>
      </g>
     </g>
    </g>
    <g id="ytick_3">
     <g id="line2d_8">
      <g>
       <use style="stroke:#000000;stroke-width:2.5;" x="79.23125" xlink:href="#ma1b3544e0b" y="264.28425"/>
      </g>
     </g>
     <g id="text_9">
      <!-- 40 -->
      <defs>
       <path d="M 37.796875 64.3125 
L 12.890625 25.390625 
L 37.796875 25.390625 
z
M 35.203125 72.90625 
L 47.609375 72.90625 
L 47.609375 25.390625 
L 58.015625 25.390625 
L 58.015625 17.1875 
L 47.609375 17.1875 
L 47.609375 0 
L 37.796875 0 
L 37.796875 17.1875 
L 4.890625 17.1875 
L 4.890625 26.703125 
z
" id="DejaVuSans-52"/>
      </defs>
      <g transform="translate(43.28125 271.882687)scale(0.2 -0.2)">
       <use xlink:href="#DejaVuSans-52"/>
       <use x="63.623047" xlink:href="#DejaVuSans-48"/>
      </g>
     </g>
    </g>
    <g id="ytick_4">
     <g id="line2d_9">
      <g>
       <use style="stroke:#000000;stroke-width:2.5;" x="79.23125" xlink:href="#ma1b3544e0b" y="186.66825"/>
      </g>
     </g>
     <g id="text_10">
      <!-- 60 -->
      <defs>
       <path d="M 33.015625 40.375 
Q 26.375 40.375 22.484375 35.828125 
Q 18.609375 31.296875 18.609375 23.390625 
Q 18.609375 15.53125 22.484375 10.953125 
Q 26.375 6.390625 33.015625 6.390625 
Q 39.65625 6.390625 43.53125 10.953125 
Q 47.40625 15.53125 47.40625 23.390625 
Q 47.40625 31.296875 43.53125 35.828125 
Q 39.65625 40.375 33.015625 40.375 
z
M 52.59375 71.296875 
L 52.59375 62.3125 
Q 48.875 64.0625 45.09375 64.984375 
Q 41.3125 65.921875 37.59375 65.921875 
Q 27.828125 65.921875 22.671875 59.328125 
Q 17.53125 52.734375 16.796875 39.40625 
Q 19.671875 43.65625 24.015625 45.921875 
Q 28.375 48.1875 33.59375 48.1875 
Q 44.578125 48.1875 50.953125 41.515625 
Q 57.328125 34.859375 57.328125 23.390625 
Q 57.328125 12.15625 50.6875 5.359375 
Q 44.046875 -1.421875 33.015625 -1.421875 
Q 20.359375 -1.421875 13.671875 8.265625 
Q 6.984375 17.96875 6.984375 36.375 
Q 6.984375 53.65625 15.1875 63.9375 
Q 23.390625 74.21875 37.203125 74.21875 
Q 40.921875 74.21875 44.703125 73.484375 
Q 48.484375 72.75 52.59375 71.296875 
z
" id="DejaVuSans-54"/>
      </defs>
      <g transform="translate(43.28125 194.266687)scale(0.2 -0.2)">
       <use xlink:href="#DejaVuSans-54"/>
       <use x="63.623047" xlink:href="#DejaVuSans-48"/>
      </g>
     </g>
    </g>
    <g id="ytick_5">
     <g id="line2d_10">
      <g>
       <use style="stroke:#000000;stroke-width:2.5;" x="79.23125" xlink:href="#ma1b3544e0b" y="109.05225"/>
      </g>
     </g>
     <g id="text_11">
      <!-- 80 -->
      <defs>
       <path d="M 31.78125 34.625 
Q 24.75 34.625 20.71875 30.859375 
Q 16.703125 27.09375 16.703125 20.515625 
Q 16.703125 13.921875 20.71875 10.15625 
Q 24.75 6.390625 31.78125 6.390625 
Q 38.8125 6.390625 42.859375 10.171875 
Q 46.921875 13.96875 46.921875 20.515625 
Q 46.921875 27.09375 42.890625 30.859375 
Q 38.875 34.625 31.78125 34.625 
z
M 21.921875 38.8125 
Q 15.578125 40.375 12.03125 44.71875 
Q 8.5 49.078125 8.5 55.328125 
Q 8.5 64.0625 14.71875 69.140625 
Q 20.953125 74.21875 31.78125 74.21875 
Q 42.671875 74.21875 48.875 69.140625 
Q 55.078125 64.0625 55.078125 55.328125 
Q 55.078125 49.078125 51.53125 44.71875 
Q 48 40.375 41.703125 38.8125 
Q 48.828125 37.15625 52.796875 32.3125 
Q 56.78125 27.484375 56.78125 20.515625 
Q 56.78125 9.90625 50.3125 4.234375 
Q 43.84375 -1.421875 31.78125 -1.421875 
Q 19.734375 -1.421875 13.25 4.234375 
Q 6.78125 9.90625 6.78125 20.515625 
Q 6.78125 27.484375 10.78125 32.3125 
Q 14.796875 37.15625 21.921875 38.8125 
z
M 18.3125 54.390625 
Q 18.3125 48.734375 21.84375 45.5625 
Q 25.390625 42.390625 31.78125 42.390625 
Q 38.140625 42.390625 41.71875 45.5625 
Q 45.3125 48.734375 45.3125 54.390625 
Q 45.3125 60.0625 41.71875 63.234375 
Q 38.140625 66.40625 31.78125 66.40625 
Q 25.390625 66.40625 21.84375 63.234375 
Q 18.3125 60.0625 18.3125 54.390625 
z
" id="DejaVuSans-56"/>
      </defs>
      <g transform="translate(43.28125 116.650687)scale(0.2 -0.2)">
       <use xlink:href="#DejaVuSans-56"/>
       <use x="63.623047" xlink:href="#DejaVuSans-48"/>
      </g>
     </g>
    </g>
    <g id="ytick_6">
     <g id="line2d_11">
      <g>
       <use style="stroke:#000000;stroke-width:2.5;" x="79.23125" xlink:href="#ma1b3544e0b" y="31.43625"/>
      </g>
     </g>
     <g id="text_12">
      <!-- 100 -->
      <g transform="translate(30.55625 39.034687)scale(0.2 -0.2)">
       <use xlink:href="#DejaVuSans-49"/>
       <use x="63.623047" xlink:href="#DejaVuSans-48"/>
       <use x="127.246094" xlink:href="#DejaVuSans-48"/>
      </g>
     </g>
    </g>
    <g id="text_13">
     <!-- Percentile -->
     <defs>
      <path d="M 19.671875 64.796875 
L 19.671875 37.40625 
L 32.078125 37.40625 
Q 38.96875 37.40625 42.71875 40.96875 
Q 46.484375 44.53125 46.484375 51.125 
Q 46.484375 57.671875 42.71875 61.234375 
Q 38.96875 64.796875 32.078125 64.796875 
z
M 9.8125 72.90625 
L 32.078125 72.90625 
Q 44.34375 72.90625 50.609375 67.359375 
Q 56.890625 61.8125 56.890625 51.125 
Q 56.890625 40.328125 50.609375 34.8125 
Q 44.34375 29.296875 32.078125 29.296875 
L 19.671875 29.296875 
L 19.671875 0 
L 9.8125 0 
z
" id="DejaVuSans-80"/>
      <path d="M 41.109375 46.296875 
Q 39.59375 47.171875 37.8125 47.578125 
Q 36.03125 48 33.890625 48 
Q 26.265625 48 22.1875 43.046875 
Q 18.109375 38.09375 18.109375 28.8125 
L 18.109375 0 
L 9.078125 0 
L 9.078125 54.6875 
L 18.109375 54.6875 
L 18.109375 46.1875 
Q 20.953125 51.171875 25.484375 53.578125 
Q 30.03125 56 36.53125 56 
Q 37.453125 56 38.578125 55.875 
Q 39.703125 55.765625 41.0625 55.515625 
z
" id="DejaVuSans-114"/>
      <path d="M 48.78125 52.59375 
L 48.78125 44.1875 
Q 44.96875 46.296875 41.140625 47.34375 
Q 37.3125 48.390625 33.40625 48.390625 
Q 24.65625 48.390625 19.8125 42.84375 
Q 14.984375 37.3125 14.984375 27.296875 
Q 14.984375 17.28125 19.8125 11.734375 
Q 24.65625 6.203125 33.40625 6.203125 
Q 37.3125 6.203125 41.140625 7.25 
Q 44.96875 8.296875 48.78125 10.40625 
L 48.78125 2.09375 
Q 45.015625 0.34375 40.984375 -0.53125 
Q 36.96875 -1.421875 32.421875 -1.421875 
Q 20.0625 -1.421875 12.78125 6.34375 
Q 5.515625 14.109375 5.515625 27.296875 
Q 5.515625 40.671875 12.859375 48.328125 
Q 20.21875 56 33.015625 56 
Q 37.15625 56 41.109375 55.140625 
Q 45.0625 54.296875 48.78125 52.59375 
z
" id="DejaVuSans-99"/>
      <path d="M 54.890625 33.015625 
L 54.890625 0 
L 45.90625 0 
L 45.90625 32.71875 
Q 45.90625 40.484375 42.875 44.328125 
Q 39.84375 48.1875 33.796875 48.1875 
Q 26.515625 48.1875 22.3125 43.546875 
Q 18.109375 38.921875 18.109375 30.90625 
L 18.109375 0 
L 9.078125 0 
L 9.078125 54.6875 
L 18.109375 54.6875 
L 18.109375 46.1875 
Q 21.34375 51.125 25.703125 53.5625 
Q 30.078125 56 35.796875 56 
Q 45.21875 56 50.046875 50.171875 
Q 54.890625 44.34375 54.890625 33.015625 
z
" id="DejaVuSans-110"/>
      <path d="M 18.3125 70.21875 
L 18.3125 54.6875 
L 36.8125 54.6875 
L 36.8125 47.703125 
L 18.3125 47.703125 
L 18.3125 18.015625 
Q 18.3125 11.328125 20.140625 9.421875 
Q 21.96875 7.515625 27.59375 7.515625 
L 36.8125 7.515625 
L 36.8125 0 
L 27.59375 0 
Q 17.1875 0 13.234375 3.875 
Q 9.28125 7.765625 9.28125 18.015625 
L 9.28125 47.703125 
L 2.6875 47.703125 
L 2.6875 54.6875 
L 9.28125 54.6875 
L 9.28125 70.21875 
z
" id="DejaVuSans-116"/>
     </defs>
     <g transform="translate(22.396875 275.380937)rotate(-90)scale(0.2 -0.2)">
      <use xlink:href="#DejaVuSans-80"/>
      <use x="60.255859" xlink:href="#DejaVuSans-101"/>
      <use x="121.779297" xlink:href="#DejaVuSans-114"/>
      <use x="162.861328" xlink:href="#DejaVuSans-99"/>
      <use x="217.841797" xlink:href="#DejaVuSans-101"/>
      <use x="279.365234" xlink:href="#DejaVuSans-110"/>
      <use x="342.744141" xlink:href="#DejaVuSans-116"/>
      <use x="381.953125" xlink:href="#DejaVuSans-105"/>
      <use x="409.736328" xlink:href="#DejaVuSans-108"/>
      <use x="437.519531" xlink:href="#DejaVuSans-101"/>
     </g>
    </g>
   </g>
   <g id="line2d_12">
    <path clip-path="url(#p1d0ed25a24)" d="M -1 418.771438 
L 27.483434 418.519896 
L 28.264883 418.021719 
L 63.547828 417.523541 
L 68.613272 416.527187 
L 74.877533 416.02901 
L 75.042108 415.530833 
L 83.723524 415.032656 
L 90.083321 414.534478 
L 101.272671 414.036301 
L 101.784396 413.039947 
L 103.161857 412.54177 
L 105.198083 412.043593 
L 110.829901 411.545416 
L 118.942316 411.047238 
L 119.247128 410.549061 
L 121.225192 409.552707 
L 125.85868 409.05453 
L 127.698112 408.556353 
L 128.339695 408.058176 
L 132.753505 407.559998 
L 140.237877 407.061821 
L 141.607743 406.065467 
L 141.734426 405.56729 
L 146.319159 405.069113 
L 146.394977 404.570935 
L 148.460144 404.072758 
L 148.841088 403.574581 
L 148.841088 403.076404 
L 150.199927 402.578227 
L 150.691286 402.08005 
L 156.685591 401.581873 
L 157.459513 401.083695 
L 160.161678 400.585518 
L 169.96464 400.087341 
L 172.958983 399.090987 
L 173.820695 398.59281 
L 174.906843 398.094633 
L 177.796467 397.596455 
L 177.936999 397.098278 
L 181.281516 396.600101 
L 185.624802 395.603747 
L 188.471969 395.10557 
L 188.763051 394.607392 
L 190.047175 393.112861 
L 190.175091 392.614684 
L 190.721756 392.116507 
L 192.732135 391.61833 
L 193.467862 391.120152 
L 195.00658 390.621975 
L 195.651961 390.123798 
L 196.48864 389.625621 
L 197.488599 388.629267 
L 200.898976 388.13109 
L 201.220735 387.632912 
L 201.225457 387.134735 
L 202.221489 386.636558 
L 204.26543 386.138381 
L 204.888379 385.640204 
L 205.055871 385.142027 
L 205.730853 384.643849 
L 209.328479 383.647495 
L 210.814067 383.149318 
L 210.872599 382.651141 
L 211.892986 381.654787 
L 212.459889 381.156609 
L 212.538902 380.160255 
L 212.709042 379.662078 
L 214.211324 378.167547 
L 214.367165 377.669369 
L 215.163471 377.171192 
L 215.807132 376.174838 
L 216.376313 375.676661 
L 218.492837 375.178484 
L 219.699922 374.680306 
L 220.053446 373.683952 
L 222.781745 372.687598 
L 224.734077 372.189421 
L 224.912788 371.691244 
L 226.213601 370.694889 
L 226.822628 370.196712 
L 226.976033 369.698535 
L 227.484359 369.200358 
L 227.931805 368.204004 
L 233.088121 367.705826 
L 233.379463 367.207649 
L 235.306419 366.709472 
L 235.664635 366.211295 
L 236.481616 365.713118 
L 237.335094 364.716763 
L 237.67825 363.720409 
L 238.426685 363.222232 
L 238.439003 362.724055 
L 239.037511 361.229523 
L 242.71307 360.731346 
L 243.080736 360.233169 
L 244.096872 359.734992 
L 244.687441 358.240461 
L 244.760578 357.742283 
L 245.28684 357.244106 
L 245.551736 355.749575 
L 245.893102 355.251398 
L 246.259996 354.255043 
L 247.316464 353.756866 
L 248.092184 352.760512 
L 248.594549 352.262335 
L 250.77133 351.26598 
L 251.866093 350.269626 
L 253.449714 349.771449 
L 254.261349 349.273272 
L 254.359815 348.775095 
L 254.71446 348.276918 
L 254.888079 347.280563 
L 255.47125 346.284209 
L 256.305747 343.793323 
L 257.958446 343.295146 
L 258.093511 342.796969 
L 258.621163 342.298792 
L 259.837179 341.800615 
L 260.171942 341.302437 
L 261.870385 340.80426 
L 262.532133 339.309729 
L 263.185792 338.313375 
L 263.64168 336.818843 
L 263.943194 335.822489 
L 264.880248 334.826134 
L 264.993666 334.327957 
L 265.541299 333.82978 
L 265.604975 333.331603 
L 265.996241 332.335249 
L 266.142594 331.338894 
L 266.142594 330.840717 
L 266.472064 329.346186 
L 267.503436 327.851654 
L 268.238985 326.8553 
L 268.31504 326.357123 
L 268.56661 325.858946 
L 268.889346 323.866237 
L 270.061831 323.36806 
L 270.54987 322.869883 
L 270.800016 322.371706 
L 270.807256 321.873529 
L 271.354581 320.877174 
L 271.841036 320.378997 
L 271.977796 319.382643 
L 272.392623 318.884466 
L 272.450766 317.888111 
L 272.81732 317.389934 
L 273.319085 316.39358 
L 274.05805 315.895403 
L 274.689106 314.899048 
L 274.917342 314.400871 
L 274.949092 313.902694 
L 275.571188 313.404517 
L 275.986993 312.90634 
L 276.201791 311.411808 
L 276.909486 310.913631 
L 276.974646 309.917277 
L 277.142593 309.4191 
L 277.491307 308.920923 
L 277.832025 307.426391 
L 278.108223 306.928214 
L 278.157032 306.430037 
L 278.389768 305.93186 
L 279.129792 305.433683 
L 279.208466 304.935505 
L 280.334593 304.437328 
L 280.420633 303.939151 
L 280.9862 303.440974 
L 281.23769 302.44462 
L 281.310002 301.448265 
L 281.451828 300.451911 
L 281.555327 299.455557 
L 281.896401 297.462848 
L 282.118633 296.466494 
L 282.407068 295.968317 
L 282.661993 294.473785 
L 282.816669 293.975608 
L 283.792143 292.979254 
L 284.234603 292.481077 
L 284.278684 291.9829 
L 284.686495 290.488368 
L 284.78192 289.492014 
L 285.101271 288.495659 
L 285.356335 286.004774 
L 285.64731 285.506597 
L 286.070182 285.008419 
L 286.319922 284.012065 
L 286.439428 283.015711 
L 286.759771 281.023002 
L 287.006885 280.524825 
L 287.022431 279.528471 
L 287.560427 278.532116 
L 287.81299 276.539408 
L 287.994583 275.543054 
L 288.10817 274.546699 
L 288.402897 274.048522 
L 288.556346 273.052168 
L 288.734426 272.553991 
L 288.859704 270.561282 
L 289.090375 270.063105 
L 289.286341 269.066751 
L 289.358975 268.070396 
L 289.371506 267.572219 
L 289.589218 267.074042 
L 289.781263 265.081333 
L 290.167032 264.583156 
L 290.339005 264.084979 
L 290.360968 263.586802 
L 290.54514 262.590448 
L 291.039907 260.597739 
L 291.24848 260.099562 
L 291.299258 259.601385 
L 291.525243 259.103208 
L 291.674327 257.608676 
L 291.701993 257.110499 
L 291.94478 256.612322 
L 292.046192 255.615968 
L 292.298936 255.11779 
L 292.299999 254.619613 
L 292.453062 254.121436 
L 292.473321 253.125082 
L 292.814515 252.626905 
L 292.915079 251.63055 
L 293.319331 249.139665 
L 293.768102 246.648779 
L 294.119999 246.150602 
L 294.495491 244.65607 
L 294.707111 244.157893 
L 294.767194 243.161539 
L 295.160033 241.667007 
L 295.550666 241.16883 
L 296.089053 236.187059 
L 296.381928 235.190704 
L 296.391084 234.692527 
L 296.707464 234.19435 
L 296.797954 233.197996 
L 297.203798 229.710756 
L 297.509951 229.212579 
L 297.714228 228.216224 
L 297.952692 227.718047 
L 297.959421 227.21987 
L 298.157154 226.721693 
L 298.206891 226.223516 
L 298.376606 225.725339 
L 298.471046 224.728984 
L 298.785277 223.73263 
L 298.815461 223.234453 
L 299.030906 222.736276 
L 299.112085 221.241744 
L 299.469117 219.747213 
L 299.862403 216.75815 
L 300.309002 215.263618 
L 300.335445 214.765441 
L 300.630424 214.267264 
L 300.752003 210.780024 
L 301.489802 209.78367 
L 301.521384 208.787315 
L 301.775347 208.289138 
L 301.797545 207.790961 
L 302.462017 205.798253 
L 302.707484 205.300075 
L 302.754814 203.805544 
L 303.098514 202.311013 
L 303.606905 197.827418 
L 303.930398 197.329241 
L 304.520586 194.340178 
L 304.905654 193.343824 
L 304.960322 192.845647 
L 305.444246 191.849292 
L 305.565219 190.852938 
L 306.080755 189.856584 
L 306.539592 186.867521 
L 306.58888 185.871167 
L 306.913906 184.376635 
L 307.431126 183.878458 
L 308.214427 178.896686 
L 308.62805 177.900332 
L 308.678825 176.903978 
L 308.963911 176.405801 
L 309.033321 175.907624 
L 309.477039 174.911269 
L 309.565523 173.914915 
L 310.823081 173.416738 
L 310.857306 172.420384 
L 311.350323 170.925852 
L 311.496793 170.427675 
L 311.499566 169.929498 
L 312.005075 167.936789 
L 312.266511 167.438612 
L 313.110741 163.951372 
L 313.481257 161.958663 
L 313.775124 160.464132 
L 313.832946 159.467778 
L 314.609986 157.973246 
L 315.039804 157.475069 
L 315.202198 155.980538 
L 315.441614 155.48236 
L 315.573352 153.987829 
L 315.939396 151.496943 
L 316.164468 150.998766 
L 316.466944 148.50788 
L 316.921682 147.013349 
L 317.172097 146.515172 
L 317.275125 145.02064 
L 317.438262 144.522463 
L 317.530861 143.027932 
L 317.979009 142.529754 
L 318.13157 142.031577 
L 318.243314 141.035223 
L 318.296184 140.537046 
L 318.574413 140.038869 
L 318.65723 139.540692 
L 319.159663 139.042514 
L 319.310004 138.544337 
L 319.649161 138.04616 
L 320.379576 135.555274 
L 320.793031 134.55892 
L 320.842759 133.562566 
L 321.117427 132.566211 
L 321.175064 132.068034 
L 321.701017 131.569857 
L 321.721881 130.573503 
L 321.942067 129.577149 
L 322.226229 127.58444 
L 322.807396 126.588086 
L 322.911216 125.591731 
L 323.582369 125.093554 
L 323.582369 124.595377 
L 324.06964 124.0972 
L 325.286706 120.111783 
L 326.259416 119.613606 
L 326.397544 119.115428 
L 326.805327 118.617251 
L 327.031039 117.620897 
L 327.4295 117.12272 
L 327.567808 116.126366 
L 328.390368 115.130011 
L 328.491476 114.631834 
L 328.717997 114.133657 
L 328.786983 113.63548 
L 330.021893 113.137303 
L 330.568459 112.140948 
L 330.580861 111.642771 
L 331.939007 111.144594 
L 332.573166 110.646417 
L 333.230181 108.653708 
L 333.787923 108.155531 
L 334.068099 107.657354 
L 334.800696 107.159177 
L 334.84783 106.661 
L 335.945704 106.162823 
L 336.196707 105.664645 
L 336.272713 105.166468 
L 336.965146 104.668291 
L 337.222092 104.170114 
L 337.444725 102.675582 
L 337.932385 102.177405 
L 337.993772 101.679228 
L 338.48925 101.181051 
L 338.660511 100.682874 
L 339.015468 100.184697 
L 339.086064 99.68652 
L 339.811924 99.188342 
L 340.340489 98.690165 
L 340.592729 98.191988 
L 340.688364 97.693811 
L 341.225353 96.697457 
L 341.776145 96.19928 
L 342.108365 95.701102 
L 343.159077 95.202925 
L 343.179367 94.704748 
L 345.070669 94.206571 
L 346.511144 93.708394 
L 347.10046 93.210217 
L 347.626493 91.715685 
L 348.135756 91.217508 
L 348.305035 90.719331 
L 348.817712 90.221154 
L 348.837074 89.722977 
L 349.03142 89.224799 
L 349.755652 88.726622 
L 350.154448 88.228445 
L 350.400202 87.730268 
L 350.428725 87.232091 
L 350.600677 86.733914 
L 351.746352 85.737559 
L 351.877451 85.239382 
L 352.756498 84.741205 
L 356.661926 83.744851 
L 356.803817 83.246674 
L 357.323146 82.748496 
L 358.316551 82.250319 
L 358.416906 81.253965 
L 358.437533 80.755788 
L 360.384971 80.257611 
L 360.417664 79.759434 
L 360.715092 79.261256 
L 363.305962 78.763079 
L 364.029592 78.264902 
L 364.204844 77.268548 
L 366.360329 76.770371 
L 366.397837 76.272194 
L 367.438718 75.774016 
L 368.012926 75.275839 
L 368.342714 74.777662 
L 369.014079 74.279485 
L 369.916063 73.781308 
L 371.949277 73.283131 
L 371.963998 72.784953 
L 373.651435 71.788599 
L 376.536398 70.792245 
L 377.030964 70.294068 
L 377.210456 69.795891 
L 378.229491 68.799536 
L 380.065963 68.301359 
L 380.814445 67.305005 
L 383.465536 66.806828 
L 387.535174 66.308651 
L 388.530636 65.810473 
L 390.067173 64.315942 
L 390.820146 63.817765 
L 390.927431 63.319588 
L 391.489815 62.82141 
L 392.242863 61.825056 
L 393.670173 61.326879 
L 394.368424 60.330525 
L 395.534788 59.832348 
L 395.640647 59.33417 
L 396.399473 58.835993 
L 396.940037 58.337816 
L 399.278464 57.839639 
L 404.299356 57.341462 
L 408.425067 56.345108 
L 414.92254 55.84693 
L 416.650321 55.348753 
L 419.650194 54.850576 
L 420.229239 54.352399 
L 422.339652 53.854222 
L 422.663108 53.356045 
L 423.69279 52.857867 
L 425.026813 52.35969 
L 425.04314 51.861513 
L 425.567062 51.363336 
L 435.023675 50.865159 
L 440.887975 49.868805 
L 441.29821 49.370627 
L 442.120553 48.87245 
L 445.048711 47.876096 
L 457.964673 47.377919 
L 460.859198 46.879742 
L 461.870771 46.381565 
L 466.291061 45.883387 
L 468.479522 45.38521 
L 479.166801 44.887033 
L 481.404652 44.388856 
L 481.924284 43.890679 
L 484.177511 43.392502 
L 485.86106 42.894324 
L 486.560856 42.396147 
L 492.21691 41.89797 
L 494.005137 41.399793 
L 516.300452 40.403439 
L 522.064652 39.905262 
L 523.981501 39.407084 
L 527.638717 38.908907 
L 528.668475 38.41073 
L 543.778968 38.106532 
L 543.778968 38.106532 
" style="fill:none;stroke:#1f77b4;stroke-linecap:square;stroke-width:1.5;"/>
   </g>
   <g id="line2d_13">
    <path clip-path="url(#p1d0ed25a24)" d="M 302.43125 419.51625 
L 302.43125 31.43625 
" style="fill:none;stroke:#808080;stroke-dasharray:5.55,2.4;stroke-dashoffset:0;stroke-opacity:0.4;stroke-width:1.5;"/>
   </g>
   <g id="line2d_14">
    <path clip-path="url(#p1d0ed25a24)" d="M 79.23125 225.47625 
L 302.43125 225.47625 
" style="fill:none;stroke:#808080;stroke-dasharray:5.55,2.4;stroke-dashoffset:0;stroke-opacity:0.4;stroke-width:1.5;"/>
   </g>
   <g id="patch_3">
    <path d="M 79.23125 419.51625 
L 79.23125 31.43625 
" style="fill:none;stroke:#000000;stroke-linecap:square;stroke-linejoin:miter;stroke-width:2.5;"/>
   </g>
   <g id="patch_4">
    <path d="M 525.63125 419.51625 
L 525.63125 31.43625 
" style="fill:none;stroke:#000000;stroke-linecap:square;stroke-linejoin:miter;stroke-width:2.5;"/>
   </g>
   <g id="patch_5">
    <path d="M 79.23125 419.51625 
L 525.63125 419.51625 
" style="fill:none;stroke:#000000;stroke-linecap:square;stroke-linejoin:miter;stroke-width:2.5;"/>
   </g>
   <g id="patch_6">
    <path d="M 79.23125 31.43625 
L 525.63125 31.43625 
" style="fill:none;stroke:#000000;stroke-linecap:square;stroke-linejoin:miter;stroke-width:2.5;"/>
   </g>
   <g id="text_14">
    <!-- Cumulative Residual -->
    <defs>
     <path d="M 64.40625 67.28125 
L 64.40625 56.890625 
Q 59.421875 61.53125 53.78125 63.8125 
Q 48.140625 66.109375 41.796875 66.109375 
Q 29.296875 66.109375 22.65625 58.46875 
Q 16.015625 50.828125 16.015625 36.375 
Q 16.015625 21.96875 22.65625 14.328125 
Q 29.296875 6.6875 41.796875 6.6875 
Q 48.140625 6.6875 53.78125 8.984375 
Q 59.421875 11.28125 64.40625 15.921875 
L 64.40625 5.609375 
Q 59.234375 2.09375 53.4375 0.328125 
Q 47.65625 -1.421875 41.21875 -1.421875 
Q 24.65625 -1.421875 15.125 8.703125 
Q 5.609375 18.84375 5.609375 36.375 
Q 5.609375 53.953125 15.125 64.078125 
Q 24.65625 74.21875 41.21875 74.21875 
Q 47.75 74.21875 53.53125 72.484375 
Q 59.328125 70.75 64.40625 67.28125 
z
" id="DejaVuSans-67"/>
     <path d="M 52 44.1875 
Q 55.375 50.25 60.0625 53.125 
Q 64.75 56 71.09375 56 
Q 79.640625 56 84.28125 50.015625 
Q 88.921875 44.046875 88.921875 33.015625 
L 88.921875 0 
L 79.890625 0 
L 79.890625 32.71875 
Q 79.890625 40.578125 77.09375 44.375 
Q 74.3125 48.1875 68.609375 48.1875 
Q 61.625 48.1875 57.5625 43.546875 
Q 53.515625 38.921875 53.515625 30.90625 
L 53.515625 0 
L 44.484375 0 
L 44.484375 32.71875 
Q 44.484375 40.625 41.703125 44.40625 
Q 38.921875 48.1875 33.109375 48.1875 
Q 26.21875 48.1875 22.15625 43.53125 
Q 18.109375 38.875 18.109375 30.90625 
L 18.109375 0 
L 9.078125 0 
L 9.078125 54.6875 
L 18.109375 54.6875 
L 18.109375 46.1875 
Q 21.1875 51.21875 25.484375 53.609375 
Q 29.78125 56 35.6875 56 
Q 41.65625 56 45.828125 52.96875 
Q 50 49.953125 52 44.1875 
z
" id="DejaVuSans-109"/>
     <path d="M 2.984375 54.6875 
L 12.5 54.6875 
L 29.59375 8.796875 
L 46.6875 54.6875 
L 56.203125 54.6875 
L 35.6875 0 
L 23.484375 0 
z
" id="DejaVuSans-118"/>
     <path id="DejaVuSans-32"/>
    </defs>
    <g transform="translate(178.9175 25.43625)scale(0.24 -0.24)">
     <use xlink:href="#DejaVuSans-67"/>
     <use x="69.824219" xlink:href="#DejaVuSans-117"/>
     <use x="133.203125" xlink:href="#DejaVuSans-109"/>
     <use x="230.615234" xlink:href="#DejaVuSans-117"/>
     <use x="293.994141" xlink:href="#DejaVuSans-108"/>
     <use x="321.777344" xlink:href="#DejaVuSans-97"/>
     <use x="383.056641" xlink:href="#DejaVuSans-116"/>
     <use x="422.265625" xlink:href="#DejaVuSans-105"/>
     <use x="450.048828" xlink:href="#DejaVuSans-118"/>
     <use x="509.228516" xlink:href="#DejaVuSans-101"/>
     <use x="570.751953" xlink:href="#DejaVuSans-32"/>
     <use x="602.539062" xlink:href="#DejaVuSans-82"/>
     <use x="671.958984" xlink:href="#DejaVuSans-101"/>
     <use x="733.482422" xlink:href="#DejaVuSans-115"/>
     <use x="785.582031" xlink:href="#DejaVuSans-105"/>
     <use x="813.365234" xlink:href="#DejaVuSans-100"/>
     <use x="876.841797" xlink:href="#DejaVuSans-117"/>
     <use x="940.220703" xlink:href="#DejaVuSans-97"/>
     <use x="1001.5" xlink:href="#DejaVuSans-108"/>
    </g>
   </g>
   <g id="legend_1"/>
  </g>
 </g>
 <defs>
  <clipPath id="p1d0ed25a24">
   <rect height="388.08" width="446.4" x="79.23125" y="31.43625"/>
  </clipPath>
 </defs>
</svg>
