<svg height="434.649" viewBox="0 0 411.286 325.986" width="548.381" xmlns="http://www.w3.org/2000/svg" xmlns:xlink="http://www.w3.org/1999/xlink"><defs><style>*{stroke-linecap:butt;stroke-linejoin:round}</style></defs><g id="figure_1"><path d="M0 325.986h411.286V0H0z" fill="#fff" id="patch_1"/><g id="axes_1"><path d="M46.966 288.43h357.12V22.318H46.966z" fill="#fff" id="patch_2"/><g id="matplotlib.axis_1"><g id="xtick_1"><g id="line2d_1"><defs><path d="M0 0v3.5" id="m1d48480045" stroke="#000" stroke-width=".8"/></defs><use x="46.966" xlink:href="#m1d48480045" y="288.43" stroke="#000" stroke-width=".8"/></g><g id="text_1"><defs><path d="M31.781 66.406q-7.61 0-11.453-7.5Q16.5 51.422 16.5 36.375q0-14.984 3.828-22.484 3.844-7.5 11.453-7.5 7.672 0 11.5 7.5 3.844 7.5 3.844 22.484 0 15.047-3.844 22.531-3.828 7.5-11.5 7.5zm0 7.813q12.266 0 18.735-9.703 6.468-9.688 6.468-28.141 0-18.406-6.468-28.11-6.47-9.687-18.735-9.687-12.25 0-18.718 9.688-6.47 9.703-6.47 28.109 0 18.453 6.47 28.14Q19.53 74.22 31.78 74.22z" id="DejaVuSans-48"/><path d="M10.688 12.406H21V0H10.687z" id="DejaVuSans-46"/></defs><g transform="matrix(.1 0 0 -.1 39.014 303.029)"><use xlink:href="#DejaVuSans-48"/><use x="63.623" xlink:href="#DejaVuSans-46"/><use x="95.41" xlink:href="#DejaVuSans-48"/></g></g></g><g id="xtick_2"><use x="108.755" xlink:href="#m1d48480045" y="288.43" stroke="#000" stroke-width=".8" id="line2d_2"/><g id="text_2"><defs><path d="M19.188 8.297h34.421V0H7.33v8.297q5.609 5.812 15.296 15.594 9.703 9.797 12.188 12.64 4.734 5.313 6.609 9 1.89 3.688 1.89 7.25 0 5.813-4.078 9.469-4.078 3.672-10.625 3.672-4.64 0-9.797-1.61-5.14-1.609-11-4.89v9.969Q13.767 71.78 18.938 73q5.188 1.219 9.485 1.219 11.328 0 18.062-5.672 6.735-5.656 6.735-15.125 0-4.5-1.688-8.531-1.672-4.016-6.125-9.485-1.218-1.422-7.765-8.187-6.532-6.766-18.453-18.922z" id="DejaVuSans-50"/></defs><g transform="matrix(.1 0 0 -.1 100.803 303.029)"><use xlink:href="#DejaVuSans-48"/><use x="63.623" xlink:href="#DejaVuSans-46"/><use x="95.41" xlink:href="#DejaVuSans-50"/></g></g></g><g id="xtick_3"><use x="170.544" xlink:href="#m1d48480045" y="288.43" stroke="#000" stroke-width=".8" id="line2d_3"/><g id="text_3"><defs><path d="M37.797 64.313L12.89 25.39h24.906zm-2.594 8.593H47.61V25.391h10.407v-8.203H47.609V0h-9.812v17.188H4.89v9.515z" id="DejaVuSans-52"/></defs><g transform="matrix(.1 0 0 -.1 162.592 303.029)"><use xlink:href="#DejaVuSans-48"/><use x="63.623" xlink:href="#DejaVuSans-46"/><use x="95.41" xlink:href="#DejaVuSans-52"/></g></g></g><g id="xtick_4"><use x="232.333" xlink:href="#m1d48480045" y="288.43" stroke="#000" stroke-width=".8" id="line2d_4"/><g id="text_4"><defs><path d="M33.016 40.375q-6.641 0-10.532-4.547-3.875-4.531-3.875-12.437 0-7.86 3.875-12.438 3.891-4.562 10.532-4.562 6.64 0 10.515 4.562 3.875 4.578 3.875 12.438 0 7.906-3.875 12.437-3.875 4.547-10.515 4.547zm19.578 30.922v-8.984q-3.719 1.75-7.5 2.671-3.782.938-7.5.938-9.766 0-14.922-6.594-5.14-6.594-5.875-19.922 2.875 4.25 7.219 6.516 4.359 2.266 9.578 2.266 10.984 0 17.36-6.672 6.374-6.657 6.374-18.125 0-11.235-6.64-18.032-6.641-6.78-17.672-6.78-12.657 0-19.344 9.687-6.688 9.703-6.688 28.109 0 17.281 8.204 27.563 8.203 10.28 22.015 10.28 3.719 0 7.5-.734t7.89-2.187z" id="DejaVuSans-54"/></defs><g transform="matrix(.1 0 0 -.1 224.382 303.029)"><use xlink:href="#DejaVuSans-48"/><use x="63.623" xlink:href="#DejaVuSans-46"/><use x="95.41" xlink:href="#DejaVuSans-54"/></g></g></g><g id="xtick_5"><use x="294.122" xlink:href="#m1d48480045" y="288.43" stroke="#000" stroke-width=".8" id="line2d_5"/><g id="text_5"><defs><path d="M31.781 34.625q-7.031 0-11.062-3.766-4.016-3.765-4.016-10.343 0-6.594 4.016-10.36Q24.75 6.391 31.78 6.391q7.032 0 11.078 3.78 4.063 3.798 4.063 10.345 0 6.578-4.031 10.343-4.016 3.766-11.11 3.766zm-9.86 4.188q-6.343 1.562-9.89 5.906Q8.5 49.079 8.5 55.329q0 8.733 6.219 13.812 6.234 5.078 17.062 5.078 10.89 0 17.094-5.078 6.203-5.079 6.203-13.813 0-6.25-3.547-10.61-3.531-4.343-9.828-5.906 7.125-1.656 11.094-6.5 3.984-4.828 3.984-11.796 0-10.61-6.468-16.282-6.47-5.656-18.532-5.656-12.047 0-18.531 5.656-6.469 5.672-6.469 16.282 0 6.968 4 11.797 4.016 4.843 11.14 6.5zM18.314 54.39q0-5.657 3.53-8.828 3.548-3.172 9.938-3.172 6.36 0 9.938 3.172 3.593 3.171 3.593 8.828 0 5.672-3.593 8.843-3.578 3.172-9.938 3.172-6.39 0-9.937-3.172-3.532-3.172-3.532-8.843z" id="DejaVuSans-56"/></defs><g transform="matrix(.1 0 0 -.1 286.17 303.029)"><use xlink:href="#DejaVuSans-48"/><use x="63.623" xlink:href="#DejaVuSans-46"/><use x="95.41" xlink:href="#DejaVuSans-56"/></g></g></g><g id="xtick_6"><use x="355.912" xlink:href="#m1d48480045" y="288.43" stroke="#000" stroke-width=".8" id="line2d_6"/><g id="text_6"><defs><path d="M12.406 8.297h16.11v55.625l-17.532-3.516v8.985l17.438 3.515h9.86V8.296H54.39V0H12.406z" id="DejaVuSans-49"/></defs><g transform="matrix(.1 0 0 -.1 347.96 303.029)"><use xlink:href="#DejaVuSans-49"/><use x="63.623" xlink:href="#DejaVuSans-46"/><use x="95.41" xlink:href="#DejaVuSans-48"/></g></g></g><g id="text_7"><defs><path d="M34.188 63.188L20.797 26.906h26.812zm-5.579 9.718h11.188L67.578 0h-10.25l-6.64 18.703h-32.86L11.188 0H.78z" id="DejaVuSans-65"/><path d="M48.688 27.297q0 9.906-4.079 15.547-4.078 5.64-11.203 5.64-7.14 0-11.218-5.64-4.079-5.64-4.079-15.547 0-9.906 4.078-15.547 4.079-5.64 11.22-5.64 7.124 0 11.202 5.64t4.078 15.547zM18.108 46.39q2.844 4.875 7.157 7.234Q29.594 56 35.594 56q9.968 0 16.187-7.906 6.235-7.907 6.235-20.797T51.78 6.484q-6.218-7.906-16.187-7.906-6 0-10.328 2.375-4.313 2.375-7.157 7.25V0H9.08v75.984h9.03z" id="DejaVuSans-98"/><path d="M44.281 53.078v-8.5q-3.797 1.953-7.906 2.922-4.094.984-8.5.984-6.688 0-10.031-2.047-3.344-2.046-3.344-6.156 0-3.125 2.39-4.906 2.391-1.781 9.626-3.39l3.078-.688q9.562-2.047 13.593-5.781 4.032-3.735 4.032-10.422 0-7.625-6.032-12.078-6.03-4.438-16.578-4.438-4.39 0-9.156.86Q10.688.296 5.422 2v9.281q4.984-2.594 9.812-3.89 4.829-1.282 9.579-1.282 6.343 0 9.75 2.172 3.421 2.172 3.421 6.125 0 3.656-2.468 5.61-2.453 1.953-10.813 3.765l-3.125.735q-8.344 1.75-12.062 5.39-3.704 3.64-3.704 9.985 0 7.718 5.47 11.906Q16.75 56 26.811 56q4.97 0 9.36-.734 4.406-.72 8.11-2.188z" id="DejaVuSans-115"/><path d="M30.61 48.39q-7.22 0-11.422-5.64-4.204-5.64-4.204-15.453 0-9.813 4.172-15.453 4.188-5.64 11.453-5.64 7.188 0 11.375 5.655 4.203 5.672 4.203 15.438 0 9.719-4.203 15.406-4.187 5.688-11.375 5.688zm0 7.61q11.718 0 18.406-7.625 6.703-7.61 6.703-21.078 0-13.422-6.703-21.078-6.688-7.64-18.407-7.64-11.765 0-18.437 7.64-6.656 7.656-6.656 21.078 0 13.469 6.656 21.078Q18.844 56 30.609 56z" id="DejaVuSans-111"/><path d="M9.422 75.984h8.984V0H9.422z" id="DejaVuSans-108"/><path d="M8.5 21.578v33.11h8.984V21.922q0-7.766 3.016-11.656 3.031-3.875 9.094-3.875 7.265 0 11.484 4.64 4.234 4.64 4.234 12.656v31h8.985V0h-8.984v8.406Q42.047 3.422 37.718 1q-4.313-2.422-10.032-2.422-9.421 0-14.312 5.86Q8.5 10.296 8.5 21.578zM31.11 56z" id="DejaVuSans-117"/><path d="M18.313 70.219V54.688h18.5v-6.985h-18.5V18.016q0-6.688 1.828-8.594 1.828-1.906 7.453-1.906h9.218V0h-9.218q-10.407 0-14.36 3.875-3.953 3.89-3.953 14.14v29.688H2.687v6.984h6.594V70.22z" id="DejaVuSans-116"/><path d="M56.203 29.594v-4.39H14.891q.593-9.282 5.593-14.142 5-4.859 13.938-4.859 5.172 0 10.031 1.266 4.86 1.265 9.656 3.812v-8.5Q49.266.734 44.187-.344 39.11-1.422 33.892-1.422q-13.094 0-20.735 7.61-7.64 7.625-7.64 20.625 0 13.421 7.25 21.296Q20.016 56 32.328 56q11.031 0 17.453-7.11 6.422-7.093 6.422-19.296zm-8.984 2.64q-.094 7.36-4.125 11.75-4.032 4.407-10.672 4.407-7.516 0-12.031-4.25-4.516-4.25-5.203-11.97z" id="DejaVuSans-101"/><path d="M9.813 72.906h46.093v-8.312H19.672V43.016H54.39v-8.297H19.67V8.297h37.11V0H9.813z" id="DejaVuSans-69"/><path d="M41.11 46.297q-1.516.875-3.297 1.281Q36.03 48 33.89 48q-7.625 0-11.703-4.953-4.079-4.953-4.079-14.234V0H9.08v54.688h9.03v-8.5q2.844 4.984 7.375 7.39Q30.031 56 36.531 56q.922 0 2.047-.125 1.125-.11 2.484-.36z" id="DejaVuSans-114"/></defs><g transform="matrix(.1 0 0 -.1 189.7 316.707)"><use xlink:href="#DejaVuSans-65"/><use x="68.408" xlink:href="#DejaVuSans-98"/><use x="131.885" xlink:href="#DejaVuSans-115"/><use x="183.984" xlink:href="#DejaVuSans-111"/><use x="245.166" xlink:href="#DejaVuSans-108"/><use x="272.949" xlink:href="#DejaVuSans-117"/><use x="336.328" xlink:href="#DejaVuSans-116"/><use x="375.537" xlink:href="#DejaVuSans-101"/><use x="437.061" xlink:href="#DejaVuSans-32"/><use x="468.848" xlink:href="#DejaVuSans-69"/><use x="532.031" xlink:href="#DejaVuSans-114"/><use x="573.129" xlink:href="#DejaVuSans-114"/><use x="614.211" xlink:href="#DejaVuSans-111"/><use x="675.393" xlink:href="#DejaVuSans-114"/></g></g></g><g id="matplotlib.axis_2"><g id="ytick_1"><g id="line2d_7"><defs><path d="M0 0h-3.5" id="m91ba975ceb" stroke="#000" stroke-width=".8"/></defs><use x="46.966" xlink:href="#m91ba975ceb" y="288.43" stroke="#000" stroke-width=".8"/></g><use xlink:href="#DejaVuSans-48" transform="matrix(.1 0 0 -.1 33.603 292.23)" id="text_8"/></g><g id="ytick_2"><use x="46.966" xlink:href="#m91ba975ceb" y="235.208" stroke="#000" stroke-width=".8" id="line2d_8"/><g transform="matrix(.1 0 0 -.1 27.24 239.007)" id="text_9"><use xlink:href="#DejaVuSans-50"/><use x="63.623" xlink:href="#DejaVuSans-48"/></g></g><g id="ytick_3"><use x="46.966" xlink:href="#m91ba975ceb" y="181.985" stroke="#000" stroke-width=".8" id="line2d_9"/><g transform="matrix(.1 0 0 -.1 27.24 185.785)" id="text_10"><use xlink:href="#DejaVuSans-52"/><use x="63.623" xlink:href="#DejaVuSans-48"/></g></g><g id="ytick_4"><use x="46.966" xlink:href="#m91ba975ceb" y="128.763" stroke="#000" stroke-width=".8" id="line2d_10"/><g transform="matrix(.1 0 0 -.1 27.24 132.562)" id="text_11"><use xlink:href="#DejaVuSans-54"/><use x="63.623" xlink:href="#DejaVuSans-48"/></g></g><g id="ytick_5"><use x="46.966" xlink:href="#m91ba975ceb" y="75.541" stroke="#000" stroke-width=".8" id="line2d_11"/><g transform="matrix(.1 0 0 -.1 27.24 79.34)" id="text_12"><use xlink:href="#DejaVuSans-56"/><use x="63.623" xlink:href="#DejaVuSans-48"/></g></g><g id="ytick_6"><use x="46.966" xlink:href="#m91ba975ceb" y="22.318" stroke="#000" stroke-width=".8" id="line2d_12"/><g transform="matrix(.1 0 0 -.1 20.878 26.117)" id="text_13"><use xlink:href="#DejaVuSans-49"/><use x="63.623" xlink:href="#DejaVuSans-48"/><use x="127.246" xlink:href="#DejaVuSans-48"/></g></g><g id="text_14"><defs><path d="M19.672 64.797v-27.39h12.406q6.89 0 10.64 3.562 3.766 3.562 3.766 10.156 0 6.547-3.765 10.11-3.75 3.562-10.64 3.562zm-9.86 8.11h22.266q12.266 0 18.531-5.548 6.282-5.546 6.282-16.234 0-10.797-6.282-16.313-6.265-5.515-18.53-5.515H19.671V0h-9.86z" id="DejaVuSans-80"/><path d="M48.781 52.594v-8.407q-3.812 2.11-7.64 3.157-3.828 1.047-7.735 1.047-8.75 0-13.593-5.547-4.829-5.532-4.829-15.547 0-10.016 4.829-15.563 4.843-5.53 13.593-5.53 3.907 0 7.735 1.046 3.828 1.047 7.64 3.156V2.094Q45.016.344 40.984-.531q-4.015-.89-8.562-.89-12.36 0-19.64 7.765-7.266 7.765-7.266 20.953 0 13.375 7.343 21.031Q20.22 56 33.016 56q4.14 0 8.093-.86 3.953-.843 7.672-2.546z" id="DejaVuSans-99"/><path d="M54.89 33.016V0h-8.984v32.719q0 7.765-3.031 11.61-3.031 3.858-9.078 3.858-7.281 0-11.484-4.64-4.204-4.625-4.204-12.64V0H9.08v54.688h9.03v-8.5q3.235 4.937 7.594 7.374Q30.078 56 35.797 56q9.422 0 14.25-5.828 4.844-5.828 4.844-17.156z" id="DejaVuSans-110"/><path d="M9.422 54.688h8.984V0H9.422zm0 21.296h8.984v-11.39H9.422z" id="DejaVuSans-105"/></defs><g transform="matrix(0 -.1 -.1 0 14.798 180.326)"><use xlink:href="#DejaVuSans-80"/><use x="60.256" xlink:href="#DejaVuSans-101"/><use x="121.779" xlink:href="#DejaVuSans-114"/><use x="162.861" xlink:href="#DejaVuSans-99"/><use x="217.842" xlink:href="#DejaVuSans-101"/><use x="279.365" xlink:href="#DejaVuSans-110"/><use x="342.744" xlink:href="#DejaVuSans-116"/><use x="381.953" xlink:href="#DejaVuSans-105"/><use x="409.736" xlink:href="#DejaVuSans-108"/><use x="437.52" xlink:href="#DejaVuSans-101"/></g></g></g><path clip-path="url(#p328204c640)" d="M47.01 288.43l.348-.341.093-1.709.188-.341.14-.683.12-.684.116-1.024.208-.342.286-2.391.128-.342v-.341l.717-1.367.185-3.074.092-.342.28-.342.073-1.024.193-.342.188-.683.533-1.708.19-1.367.334-1.708.046-.341.318-.684.035-1.024.287-.342.33-2.05.151-.341.143-1.367.241-1.366.107-1.025.245-.341.015-.684.523-.683.537-2.05.237-2.05.553-3.415.336-.342.042-.683.21-.683.072-.684.217-.683.684-4.099.235-.342.125-.683.754-1.366.085-.683.614-.684.384-1.708.276-.341.222-.684.152-.683.492-3.074.173-.683.379-1.708v-.342l.485-.683.1-1.367.146-.341.002-.342.117-.342.357-.683.03-1.025.274-.683.11-1.025.212-1.708.322-.683.368-2.05.015-.341.227-.342 1-3.416.49-.341.244-2.05.087-.683.24-.342.283-3.074.187-.684.01-.683.228-.341.26-1.367.128-1.025.133-1.024.218-.684.01-.683.41-1.025.222-1.025.016-.341.31-.683.65-4.1.346-.341.022-.683.351-.684.38-2.39.6-2.392.523-.342.214-.683.463-.683.21-2.05.219-.683.003-.342.2-.341.01-.342.124-.341.003-.342.29-.683.065-.342.225-.342.062-.683.235-.341.07-.684.281-.341.192-1.025.471-.342.277-.341.03-.683.313-.684.434-2.39.216-.342.106-.684.384-.341.203-1.025.19-1.025.285-.342.124-.683.137-.341.032-.684.18-.341.222-1.708 1.025-1.367.153-1.024.093-.342.973-1.367.522-.341.112-.342.749-.341.704-1.367.072-.341.32-.684.001-.341.319-.683.248-.684.413-1.024.239-.342.186-1.025.528-.341.529-1.367.035-.683.126-.342.592-.341.884-.342.155-.683.777-1.367.018-.341.317-.342 1.051-.341.437-.342.277-.683.521-.342.083-.683.385-.683.205-.342.258-1.366.233-.342.75-.683.043-.342.38-.341.019-.684.348-.341.694-.342.067-.683 1.56-.342.04-.683.243-.341.216-1.367.358-.341.108-.342.486-.342.075-.341.29-.342.317-1.366.693-.684.223-.683.429-.341.209-.684.78-3.074.244-.342.09-.341.698-.342.242-.683.51-.342 1.252-2.39.006-.343.414-.341.055-.342.787-1.366.316-.342.489-.341.718-1.367 2.15-.341.475-.342.065-.342 1.664-.341.75-.683.472-.684.748-1.025.725-.341.598-.683.371-.342.055-.683.24-.342.01-.341.511-1.025.83-1.025.255-1.025.35-.341.146-.684.139-.341v-.342l.932-.341.223-.342.474-.342.187-.341 1.25-.342.34-.342 2.991-1.366 1.662-.342.56-.341.202-.683.52-.342.536-.683 1.096-.342.142-.683.03-.342.756-1.024.486-.342.376-1.025.749-.341.104-.342.298-.342.246-1.025.224-.341.072-.342 1.445-.341.523-.342 1.644-.342 1.03-.341.249-.683 2.304-.342.402-.342.359-.683.107-1.025 1.065-.341.361-.683.127-.342.627-.342.063-.341.47-.342.053-.341.9-.342.262-.342 1.022-.683 2.228-.342.663-.683.021-.341 2.4-.684 4.102-.683.561-.341.636-1.367.723-.683.488-.683.597-.342 1.85-.683.254-.683.975-.683 3.754-.684.016-.341 1.911-.342.503-.683 4.726-1.025.064-.342.66-.341.086-.342.428-.341.106-.342.905-.683.609-.342 1.006-1.366.408-.342.191-.341.753-.684.294-1.024.06-.342 1.619-.683.184-.342.454-.342.108-.683.43-.341 1.658-.342.001-.342.15-.341 1.849-.683.472-.342 2.644-.342.21-.341.75-.342.238-.341.886-.342 2.907-.342 1.417-.341.006-.342.935-.683 3.057-.342 1.316-.341 1.422-.683.073-.342 2.034-.683 2.189-.342 1.046-.342 2.859-.341.777-.342.335-.683 1.673-1.025.784-.683 3.68-.342.586-.341.824-.342 3-.683.46-.342 1.306-.341.16-.342 1.896-.341.023-.342.745-.342 1.932-.341.2-.342 4.11-.341 4.855-1.025 2.173-.342.179-.342 8.34-.683.583-.341 1.17-.342 2.288-.342 1.38-.341.496-.342 3.348-.341 1.1-.342 8.525-.342.699-.341 1.932-.342v-.341l.542-.342 2.222-.342.715-.341.107-.342 3.294-.341 3.226-.684.18-.341 1.949-.683 5.482-.684 11.438-.683.913-.342 2.616-.341.231-.342 3.183-.341.739-.342 2.436-.342 1.302-.683 1.51-.341.35-.342.084-.342.911-.341 8.044-.342 2.543-.341.04-.342 8.008-.342 4.855-.683.728-.683 3.311-.342 12.601-.341 2.163-.342 6.881-.341 1.317-.342 2.726-.342 5.2-.341 3.103-.684.234-.341 8.909-.342 7.204-.683 17.207-.342.44-.341 7.954-.1h0" fill="none" stroke="#1f77b4" stroke-linecap="square" stroke-width="1.5" id="line2d_13"/><path clip-path="url(#p328204c640)" d="M46.966 155.374h36.202" fill="none" stroke="gray" stroke-dasharray="5.55,2.4" stroke-opacity=".4" stroke-width="1.5" id="line2d_14"/><path clip-path="url(#p328204c640)" d="M83.168 288.43V155.374" fill="none" stroke="gray" stroke-dasharray="5.55,2.4" stroke-opacity=".4" stroke-width="1.5" id="line2d_15"/><path clip-path="url(#p328204c640)" d="M46.966 88.846h93.787" fill="none" stroke="gray" stroke-dasharray="5.55,2.4" stroke-opacity=".4" stroke-width="1.5" id="line2d_16"/><path clip-path="url(#p328204c640)" d="M140.753 288.43V88.846" fill="none" stroke="gray" stroke-dasharray="5.55,2.4" stroke-opacity=".4" stroke-width="1.5" id="line2d_17"/><path d="M46.966 288.43V22.318" fill="none" stroke="#000" stroke-linecap="square" stroke-width=".8" id="patch_3"/><path d="M404.086 288.43V22.318" fill="none" stroke="#000" stroke-linecap="square" stroke-width=".8" id="patch_4"/><path d="M46.966 288.43h357.12" fill="none" stroke="#000" stroke-linecap="square" stroke-width=".8" id="patch_5"/><path d="M46.966 22.318h357.12" fill="none" stroke="#000" stroke-linecap="square" stroke-width=".8" id="patch_6"/><g id="text_15"><defs><path d="M64.406 67.281v-10.39q-4.984 4.64-10.625 6.922-5.64 2.296-11.984 2.296-12.5 0-19.14-7.64-6.641-7.64-6.641-22.094 0-14.406 6.64-22.047 6.64-7.64 19.14-7.64 6.345 0 11.985 2.296 5.64 2.297 10.625 6.938V5.609Q59.234 2.094 53.437.33q-5.78-1.75-12.218-1.75-16.563 0-26.094 10.124-9.516 10.14-9.516 27.672 0 17.578 9.516 27.703 9.531 10.14 26.094 10.14 6.531 0 12.312-1.734 5.797-1.734 10.875-5.203z" id="DejaVuSans-67"/><path d="M52 44.188q3.375 6.062 8.063 8.937Q64.75 56 71.093 56q8.548 0 13.188-5.984 4.64-5.97 4.64-17V0h-9.03v32.719q0 7.86-2.797 11.656-2.781 3.813-8.485 3.813-6.984 0-11.046-4.641-4.047-4.625-4.047-12.64V0h-9.032v32.719q0 7.906-2.78 11.687-2.782 3.782-8.595 3.782-6.89 0-10.953-4.657-4.047-4.656-4.047-12.625V0H9.08v54.688h9.03v-8.5q3.078 5.03 7.375 7.421Q29.781 56 35.687 56q5.97 0 10.141-3.031Q50 49.953 52 44.187z" id="DejaVuSans-109"/><path d="M34.281 27.484q-10.89 0-15.093-2.484-4.204-2.484-4.204-8.5 0-4.781 3.157-7.594 3.156-2.797 8.562-2.797 7.485 0 12 5.297 4.516 5.297 4.516 14.078v2zm17.922 3.72V0H43.22v8.297Q40.14 3.328 35.547.953q-4.594-2.375-11.234-2.375-8.391 0-13.36 4.719Q6 8.016 6 15.922q0 9.219 6.172 13.906 6.187 4.688 18.437 4.688h12.61v.89q0 6.203-4.078 9.594-4.078 3.39-11.453 3.39-4.688 0-9.141-1.124-4.438-1.125-8.531-3.375v8.312q4.921 1.906 9.562 2.844 4.64.953 9.031.953 11.875 0 17.735-6.156 5.86-6.14 5.86-18.64z" id="DejaVuSans-97"/><path d="M2.984 54.688H12.5L29.594 8.797l17.093 45.89h9.516L35.687 0H23.485z" id="DejaVuSans-118"/></defs><g transform="matrix(.12 0 0 -.12 174.514 16.318)"><use xlink:href="#DejaVuSans-67"/><use x="69.824" xlink:href="#DejaVuSans-117"/><use x="133.203" xlink:href="#DejaVuSans-109"/><use x="230.615" xlink:href="#DejaVuSans-117"/><use x="293.994" xlink:href="#DejaVuSans-108"/><use x="321.777" xlink:href="#DejaVuSans-97"/><use x="383.057" xlink:href="#DejaVuSans-116"/><use x="422.266" xlink:href="#DejaVuSans-105"/><use x="450.049" xlink:href="#DejaVuSans-118"/><use x="509.229" xlink:href="#DejaVuSans-101"/><use x="570.752" xlink:href="#DejaVuSans-32"/><use x="602.539" xlink:href="#DejaVuSans-69"/><use x="665.723" xlink:href="#DejaVuSans-114"/><use x="706.82" xlink:href="#DejaVuSans-114"/><use x="747.902" xlink:href="#DejaVuSans-111"/><use x="809.084" xlink:href="#DejaVuSans-114"/></g></g></g></g><defs><clipPath id="p328204c640"><path d="M46.966 22.318h357.12V288.43H46.966z"/></clipPath></defs></svg>