<?xml version="1.0" encoding="utf-8" standalone="no"?>
<!DOCTYPE svg PUBLIC "-//W3C//DTD SVG 1.1//EN"
  "http://www.w3.org/Graphics/SVG/1.1/DTD/svg11.dtd">
<!-- Created with matplotlib (https://matplotlib.org/) -->
<svg height="325.986375pt" version="1.1" viewBox="0 0 417.654112 325.986375" width="417.654112pt" xmlns="http://www.w3.org/2000/svg" xmlns:xlink="http://www.w3.org/1999/xlink">
 <defs>
  <style type="text/css">
*{stroke-linecap:butt;stroke-linejoin:round;}
  </style>
 </defs>
 <g id="figure_1">
  <g id="patch_1">
   <path d="M 0 325.986375 
L 417.654112 325.986375 
L 417.654112 0 
L 0 0 
z
" style="fill:#ffffff;"/>
  </g>
  <g id="axes_1">
   <g id="patch_2">
    <path d="M 46.965625 288.430125 
L 404.085625 288.430125 
L 404.085625 22.318125 
L 46.965625 22.318125 
z
" style="fill:#ffffff;"/>
   </g>
   <g id="PolyCollection_1">
    <path clip-path="url(#p055b0733c4)" d="M 119.552337 288.430125 
L 119.552337 275.107445 
L 120.774597 274.765837 
L 121.947812 274.42423 
L 122.637181 274.082623 
L 123.506099 273.741016 
L 125.817798 273.399409 
L 125.930224 273.057802 
L 128.605838 272.716194 
L 130.2887 272.374587 
L 132.080467 272.03298 
L 134.3582 271.691373 
L 134.591066 271.349766 
L 134.943827 271.008158 
L 135.193949 270.666551 
L 135.618365 270.324944 
L 135.720698 269.983337 
L 136.158029 269.64173 
L 137.766333 269.300122 
L 138.354914 268.958515 
L 139.585889 268.616908 
L 140.102193 268.275301 
L 140.771537 267.933694 
L 141.119346 267.592086 
L 141.571504 267.250479 
L 144.299806 266.908872 
L 144.557213 266.567265 
L 144.560991 266.225658 
L 145.357816 265.884051 
L 146.992969 265.542443 
L 147.491328 265.200836 
L 147.625322 264.859229 
L 148.165307 264.517622 
L 149.652841 264.176015 
L 151.043408 263.834407 
L 152.231879 263.4928 
L 152.278704 263.151193 
L 152.63782 262.809586 
L 153.095014 262.467979 
L 153.548536 262.126371 
L 153.582259 261.784764 
L 153.611747 261.443157 
L 153.747858 261.10155 
L 154.171159 260.759943 
L 154.508124 260.418336 
L 154.949684 260.076728 
L 155.074357 259.735121 
L 155.711402 259.393514 
L 155.925637 259.051907 
L 156.22633 258.7103 
L 156.681675 258.368692 
L 158.374895 258.027085 
L 159.340563 257.685478 
L 159.444599 257.343871 
L 159.623382 257.002264 
L 160.707597 256.660656 
L 161.806021 256.319049 
L 163.367887 255.977442 
L 163.510855 255.635835 
L 163.973636 255.294228 
L 164.551506 254.952621 
L 165.038728 254.611013 
L 165.161451 254.269406 
L 165.568112 253.927799 
L 165.779778 253.586192 
L 165.926069 253.244585 
L 170.051122 252.902977 
L 170.284195 252.56137 
L 171.82576 252.219763 
L 172.112333 251.878156 
L 172.765918 251.536549 
L 173.095929 251.194941 
L 173.4487 250.853334 
L 173.588083 250.511727 
L 173.723225 250.17012 
L 174.321973 249.828513 
L 174.331828 249.486905 
L 174.464892 249.145298 
L 174.584446 248.803691 
L 174.810634 248.462084 
L 177.751081 248.120477 
L 178.045214 247.77887 
L 178.858123 247.437262 
L 179.024418 247.095655 
L 179.115133 246.754048 
L 179.330577 246.412441 
L 179.389087 246.070834 
L 179.810097 245.729226 
L 179.867309 245.387619 
L 179.972224 245.046012 
L 180.022014 244.704405 
L 180.295107 244.362798 
L 180.417676 244.02119 
L 180.588621 243.679583 
L 181.433796 243.337976 
L 181.735809 242.996369 
L 182.054372 242.654762 
L 182.456265 242.313155 
L 183.391372 241.971547 
L 184.197689 241.62994 
L 184.685349 241.288333 
L 185.073499 240.946726 
L 186.340396 240.605119 
L 186.989704 240.263511 
L 187.068477 239.921904 
L 187.352193 239.580297 
L 187.43069 239.23869 
L 187.491089 238.897083 
L 187.77587 238.555475 
L 187.957625 238.213868 
L 188.082465 237.872261 
L 188.166374 237.530654 
L 188.250976 237.189047 
L 188.385621 236.84744 
L 188.625222 236.505832 
L 189.947382 236.164225 
L 190.055434 235.822618 
L 190.477555 235.481011 
L 191.450368 235.139404 
L 191.718178 234.797796 
L 193.076933 234.456189 
L 193.224438 234.114582 
L 193.331303 233.772975 
L 193.606331 233.431368 
L 193.881749 233.08976 
L 194.129259 232.748153 
L 194.2267 232.406546 
L 194.257285 232.064939 
L 194.493969 231.723332 
L 194.661404 231.381724 
L 194.73518 231.040117 
L 195.0976 230.69851 
L 195.484824 230.356903 
L 195.575558 230.015296 
L 196.013664 229.673689 
L 196.064605 229.332081 
L 196.262697 228.990474 
L 196.377618 228.648867 
L 196.470558 228.30726 
L 196.4947 227.965653 
L 196.4947 227.624045 
L 196.595023 227.282438 
L 196.640499 226.940831 
L 196.758276 226.599224 
L 196.999388 226.257617 
L 197.285862 225.916009 
L 197.583374 225.574402 
L 197.85628 225.232795 
L 198.171813 224.891188 
L 198.232657 224.549581 
L 198.433913 224.207974 
L 198.503604 223.866366 
L 198.555196 223.524759 
L 198.692102 223.183152 
L 198.692102 222.841545 
L 199.63009 222.499938 
L 200.020521 222.15833 
L 200.220638 221.816723 
L 200.22643 221.475116 
L 200.464885 221.133509 
L 200.66429 220.791902 
L 201.053454 220.450294 
L 201.099668 220.108687 
L 201.162862 219.76708 
L 201.494724 219.425473 
L 201.528924 219.083866 
L 201.541238 218.742259 
L 201.834481 218.400651 
L 201.990191 218.059044 
L 202.235893 217.717437 
L 202.827065 217.37583 
L 203.121531 217.034223 
L 203.33191 216.692615 
L 203.514498 216.351008 
L 203.539899 216.009401 
L 204.037575 215.667794 
L 204.370219 215.326187 
L 204.457006 214.984579 
L 204.461038 214.642972 
L 204.542058 214.301365 
L 205.108214 213.959758 
L 205.12917 213.618151 
L 205.160342 213.276543 
L 205.294699 212.934936 
L 205.57367 212.593329 
L 205.66654 212.251722 
L 205.720498 211.910115 
L 205.846245 211.568508 
L 206.067203 211.2269 
L 206.106251 210.885293 
L 206.292439 210.543686 
L 206.884459 210.202079 
L 206.947398 209.860472 
L 207.848299 209.518864 
L 207.917131 209.177257 
L 208.369585 208.83565 
L 208.503536 208.494043 
L 208.570777 208.152436 
L 208.571747 207.810828 
L 208.628627 207.469221 
L 208.729346 207.127614 
L 208.742087 206.786007 
L 208.747555 206.4444 
L 208.824887 206.102793 
L 208.873537 205.761185 
L 208.894451 205.419578 
L 209.05492 205.077971 
L 209.097746 204.736364 
L 209.16186 204.394757 
L 209.275532 204.053149 
L 209.50628 203.711542 
L 209.551326 203.369935 
L 209.673032 203.028328 
L 209.71022 202.686721 
L 209.83396 202.345113 
L 210.265752 202.003506 
L 210.614339 201.661899 
L 210.968307 201.320292 
L 211.003572 200.978685 
L 211.130154 200.637078 
L 211.213378 200.29547 
L 211.329821 199.953863 
L 211.331374 199.612256 
L 211.406161 199.270649 
L 211.54994 198.929042 
L 211.661642 198.587434 
L 211.70656 198.245827 
L 211.718397 197.90422 
L 211.734142 197.562613 
L 211.762084 197.221006 
L 211.865693 196.879398 
L 212.098473 196.537791 
L 212.436771 196.196184 
L 212.564986 195.854577 
L 212.636563 195.51297 
L 212.724096 195.171362 
L 212.732168 194.829755 
L 212.774443 194.488148 
L 212.835206 194.146541 
L 212.835206 193.804934 
L 212.988442 193.463327 
L 213.186133 193.121719 
L 213.186133 192.780112 
L 213.19857 192.438505 
L 213.393232 192.096898 
L 213.628966 191.755291 
L 213.664162 191.413683 
L 213.717406 191.072076 
L 213.758553 190.730469 
L 213.831017 190.388862 
L 213.942239 190.047255 
L 213.976292 189.705647 
L 214.004716 189.36404 
L 214.067161 189.022433 
L 214.302943 188.680826 
L 214.356324 188.339219 
L 214.425702 187.997612 
L 214.568166 187.656004 
L 214.573162 187.314397 
L 214.573162 186.97279 
L 214.620025 186.631183 
L 214.668388 186.289576 
L 214.852925 185.947968 
L 214.888778 185.606361 
L 215.009698 185.264754 
L 215.063909 184.923147 
L 215.067805 184.58154 
L 215.077829 184.239932 
L 215.252 183.898325 
L 215.288157 183.556718 
L 215.301351 183.215111 
L 215.365873 182.873504 
L 215.405635 182.531897 
L 215.714251 182.190289 
L 215.851829 181.848682 
L 215.869399 181.507075 
L 215.979423 181.165468 
L 216.016737 180.823861 
L 216.094281 180.482253 
L 216.13061 180.140646 
L 216.276738 179.799039 
L 216.41255 179.457432 
L 216.579409 179.115825 
L 216.620031 178.774217 
L 216.800819 178.43261 
L 216.867922 178.091003 
L 216.870492 177.749396 
L 216.920086 177.407789 
L 216.942219 177.066181 
L 217.136449 176.724574 
L 217.143592 176.382967 
L 217.217579 176.04136 
L 217.419774 175.699753 
L 217.420624 175.358146 
L 217.543075 175.016538 
L 217.555174 174.674931 
L 217.559282 174.333324 
L 217.832237 173.991717 
L 217.832237 173.65011 
L 217.912688 173.308502 
L 217.991316 172.966895 
L 218.045506 172.625288 
L 218.063111 172.283681 
L 218.193084 171.942074 
L 218.23609 171.600466 
L 218.292274 171.258859 
L 218.362816 170.917252 
L 218.438855 170.575645 
L 218.504942 170.234038 
L 218.595107 169.892431 
L 218.876624 169.550823 
L 218.95066 169.209216 
L 219.000827 168.867609 
L 219.177018 168.526002 
L 219.346314 168.184395 
L 219.353574 167.842787 
L 219.39438 167.50118 
L 219.516813 167.159573 
L 219.557006 166.817966 
L 219.708652 166.476359 
L 220.021157 166.134751 
L 220.062937 165.793144 
L 220.100772 165.451537 
L 220.158462 165.10993 
L 220.204822 164.768323 
L 220.230865 164.426716 
L 220.256763 164.085108 
L 220.256763 163.743501 
L 220.373067 163.401894 
L 220.405735 163.060287 
L 220.451868 162.71868 
L 220.594885 162.377072 
L 220.686167 162.035465 
L 220.693492 161.693858 
L 220.946596 161.352251 
L 220.953398 161.010644 
L 221.018988 160.669036 
L 221.065699 160.327429 
L 221.177054 159.985822 
L 221.210283 159.644215 
L 221.233639 159.302608 
L 221.326242 158.961 
L 221.329816 158.619393 
L 221.343663 158.277786 
L 221.588586 157.936179 
L 221.6456 157.594572 
L 221.752008 157.252965 
L 221.942779 156.911357 
L 221.948162 156.56975 
L 222.106348 156.228143 
L 222.146138 155.886536 
L 222.28191 155.544929 
L 222.304554 155.203321 
L 222.357462 154.861714 
L 222.502707 154.520107 
L 222.608846 154.1785 
L 222.632994 153.836893 
L 222.80535 153.495285 
L 222.80818 153.153678 
L 222.814076 152.812071 
L 222.870293 152.470464 
L 222.992726 152.128857 
L 223.035936 151.78725 
L 223.155918 151.445642 
L 223.206371 151.104035 
L 223.228565 150.762428 
L 223.231648 150.420821 
L 223.299569 150.079214 
L 223.354252 149.737606 
L 223.470547 149.395999 
L 223.613574 149.054392 
L 223.718813 148.712785 
L 223.827826 148.371178 
L 223.848981 148.02957 
L 224.084965 147.687963 
L 224.095419 147.346356 
L 224.106325 147.004749 
L 224.143557 146.663142 
L 224.166445 146.321534 
L 224.166445 145.979927 
L 224.176288 145.63832 
L 224.182227 145.296713 
L 224.485635 144.955106 
L 224.772467 144.613499 
L 224.781308 144.271891 
L 224.797732 143.930284 
L 225.000903 143.588677 
L 225.018661 143.24707 
L 225.138368 142.905463 
L 225.252514 142.563855 
L 225.299299 142.222248 
L 225.550239 141.880641 
L 225.746612 141.539034 
L 225.753215 141.197427 
L 225.776696 140.855819 
L 225.784476 140.514212 
L 225.904402 140.172605 
L 225.982758 139.830998 
L 226.059437 139.489391 
L 226.108907 139.147784 
L 226.116094 138.806176 
L 226.232858 138.464569 
L 226.274452 138.122962 
L 226.289989 137.781355 
L 226.363184 137.439748 
L 226.393629 137.09814 
L 226.465974 136.756533 
L 226.466149 136.414926 
L 226.724944 136.073319 
L 226.799276 135.731712 
L 226.921971 135.390104 
L 226.972984 135.048497 
L 227.025219 134.70689 
L 227.182692 134.365283 
L 227.197094 134.023676 
L 227.368769 133.682069 
L 227.505149 133.340461 
L 227.548883 132.998854 
L 227.737759 132.657247 
L 227.936022 132.31564 
L 227.962456 131.974033 
L 228.032801 131.632425 
L 228.257228 131.290818 
L 228.445229 130.949211 
L 228.512129 130.607604 
L 228.515863 130.265997 
L 228.603688 129.924389 
L 228.689292 129.582782 
L 228.699688 129.241175 
L 228.812299 128.899568 
L 228.812309 128.557961 
L 228.851729 128.216353 
L 228.913352 127.874746 
L 228.965382 127.533139 
L 229.111749 127.191532 
L 229.525526 126.849925 
L 229.588699 126.508318 
L 229.617898 126.16671 
L 229.666893 125.825103 
L 229.7465 125.483496 
L 229.755483 125.141889 
L 229.883558 124.800282 
L 230.020073 124.458674 
L 230.025059 124.117067 
L 230.087392 123.77546 
L 230.152166 123.433853 
L 230.341484 123.092246 
L 230.483065 122.750638 
L 230.498655 122.409031 
L 230.523685 122.067424 
L 230.751754 121.725817 
L 230.807281 121.38421 
L 231.010485 121.042603 
L 231.162256 120.700995 
L 231.197966 120.359388 
L 231.233043 120.017781 
L 232.239089 119.676174 
L 232.261642 119.334567 
L 232.26647 118.992959 
L 232.421726 118.651352 
L 232.631735 118.309745 
L 232.660883 117.968138 
L 232.778059 117.626531 
L 232.780278 117.284923 
L 232.872011 116.943316 
L 232.908606 116.601709 
L 233.111509 116.260102 
L 233.184685 115.918495 
L 233.393834 115.576888 
L 233.500618 115.23528 
L 233.548549 114.893673 
L 233.697335 114.552066 
L 233.898286 114.210459 
L 233.89829 113.868852 
L 234.004426 113.527244 
L 234.069218 113.185637 
L 234.1294 112.84403 
L 234.146553 112.502423 
L 234.195901 112.160816 
L 234.36563 111.819208 
L 234.471861 111.477601 
L 234.519164 111.135994 
L 234.600724 110.794387 
L 234.607454 110.45278 
L 234.646982 110.111172 
L 234.826678 109.769565 
L 235.079882 109.427958 
L 235.268614 109.086351 
L 235.612468 108.744744 
L 235.654042 108.403137 
L 235.742383 108.061529 
L 235.742383 107.719922 
L 235.933917 107.378315 
L 235.946065 107.036708 
L 236.037951 106.695101 
L 236.039306 106.353493 
L 236.093478 106.011886 
L 236.093478 105.670279 
L 236.203989 105.328672 
L 236.204125 104.987065 
L 236.332142 104.645457 
L 236.512199 104.30385 
L 236.550674 103.962243 
L 236.568339 103.620636 
L 236.608958 103.279029 
L 236.748057 102.937422 
L 236.754181 102.595814 
L 236.84562 102.254207 
L 236.937284 101.9126 
L 237.117971 101.570993 
L 237.318303 101.229386 
L 237.328137 100.887778 
L 237.400725 100.546171 
L 237.400725 100.204564 
L 237.531235 99.862957 
L 237.556187 99.52135 
L 237.558288 99.179742 
L 237.605314 98.838135 
L 237.963832 98.496528 
L 238.085881 98.154921 
L 238.094327 97.813314 
L 238.175276 97.471707 
L 238.217573 97.130099 
L 238.440156 96.788492 
L 238.506409 96.446885 
L 238.908356 96.105278 
L 239.028628 95.763671 
L 239.299954 95.422063 
L 239.407578 95.080456 
L 239.530136 94.738849 
L 239.532154 94.397242 
L 239.650472 94.055635 
L 239.884286 93.714027 
L 240.072236 93.37242 
L 240.21505 93.030813 
L 240.230098 92.689206 
L 240.254832 92.347599 
L 240.412487 92.005991 
L 240.474566 91.664384 
L 240.520676 91.322777 
L 240.941439 90.98117 
L 240.951426 90.639563 
L 240.95813 90.297956 
L 241.068996 89.956348 
L 241.134278 89.614741 
L 241.170645 89.273134 
L 241.263662 88.931527 
L 241.273874 88.58992 
L 241.361608 88.248312 
L 241.559281 87.906705 
L 241.826542 87.565098 
L 241.848432 87.223491 
L 241.909598 86.881884 
L 242.44652 86.540276 
L 242.44652 86.198669 
L 242.836337 85.857062 
L 242.961282 85.515455 
L 243.12437 85.173848 
L 243.210385 84.832241 
L 243.262644 84.490633 
L 243.403045 84.149026 
L 243.495661 83.807419 
L 243.659137 83.465812 
L 243.809989 83.124205 
L 244.588158 82.782597 
L 244.69866 82.44099 
L 245.024887 82.099383 
L 245.148701 81.757776 
L 245.205456 81.416169 
L 245.524225 81.074561 
L 245.590408 80.732954 
L 245.634872 80.391347 
L 245.995874 80.04974 
L 246.292919 79.708133 
L 246.373806 79.366526 
L 246.555022 79.024918 
L 246.610211 78.683311 
L 247.598139 78.341704 
L 247.860436 78.000097 
L 248.035392 77.65849 
L 248.045314 77.316882 
L 249.131831 76.975275 
L 249.639158 76.633668 
L 249.773353 76.292061 
L 249.928341 75.950454 
L 250.03363 75.608846 
L 250.16477 75.267239 
L 250.610964 74.925632 
L 250.835104 74.584025 
L 251.421181 74.242418 
L 251.458889 73.90081 
L 252.337188 73.559203 
L 252.537991 73.217596 
L 252.598796 72.875989 
L 253.152742 72.534382 
L 253.358299 72.192775 
L 253.411361 71.851167 
L 253.523954 71.50956 
L 253.536405 71.167953 
L 253.926533 70.826346 
L 253.975643 70.484739 
L 254.372025 70.143131 
L 254.509034 69.801524 
L 254.792999 69.459917 
L 254.849477 69.11831 
L 255.430164 68.776703 
L 255.853016 68.435095 
L 256.054808 68.093488 
L 256.131316 67.751881 
L 256.368758 67.410274 
L 256.560907 67.068667 
L 257.001541 66.72706 
L 257.267317 66.385452 
L 258.107887 66.043845 
L 258.124119 65.702238 
L 259.637161 65.360631 
L 260.78954 65.019024 
L 261.260993 64.677416 
L 261.39604 64.335809 
L 261.577182 63.994202 
L 261.681819 63.652595 
L 262.08923 63.310988 
L 262.224653 62.96938 
L 262.634795 62.627773 
L 262.650284 62.286166 
L 262.805761 61.944559 
L 263.385147 61.602952 
L 263.704183 61.261345 
L 263.900786 60.919737 
L 263.923605 60.57813 
L 264.061166 60.236523 
L 264.585273 59.894916 
L 264.977707 59.553309 
L 265.082586 59.211701 
L 265.785823 58.870094 
L 267.189281 58.528487 
L 268.910166 58.18688 
L 269.023679 57.845273 
L 269.439142 57.503665 
L 270.233866 57.162058 
L 270.306521 56.820451 
L 270.31415 56.478844 
L 270.330651 56.137237 
L 271.888602 55.795629 
L 271.914756 55.454022 
L 272.152699 55.112415 
L 274.225394 54.770808 
L 274.804299 54.429201 
L 274.891083 54.087594 
L 274.9445 53.745986 
L 276.668888 53.404379 
L 276.698895 53.062772 
L 277.531599 52.721165 
L 277.990966 52.379558 
L 278.254796 52.03795 
L 278.791888 51.696343 
L 279.513476 51.354736 
L 281.140047 51.013129 
L 281.151823 50.671522 
L 281.758812 50.329914 
L 282.501773 49.988307 
L 283.739575 49.6467 
L 284.809743 49.305093 
L 285.205396 48.963486 
L 285.34899 48.621879 
L 285.722361 48.280271 
L 286.164218 47.938664 
L 287.633395 47.597057 
L 287.918619 47.25545 
L 288.232181 46.913843 
L 290.353054 46.572235 
L 293.608764 46.230628 
L 294.405134 45.889021 
L 294.776178 45.547414 
L 295.065651 45.205807 
L 295.634364 44.864199 
L 296.236742 44.522592 
L 296.32257 44.180985 
L 296.772477 43.839378 
L 297.084677 43.497771 
L 297.374915 43.156164 
L 298.516764 42.814556 
L 298.833224 42.472949 
L 299.075364 42.131342 
L 300.008455 41.789735 
L 300.093143 41.448128 
L 300.700204 41.10652 
L 301.132655 40.764913 
L 303.003396 40.423306 
L 307.02011 40.081699 
L 308.739795 39.740092 
L 310.320679 39.398484 
L 315.518657 39.056877 
L 316.900882 38.71527 
L 319.30078 38.373663 
L 319.764016 38.032056 
L 321.452347 37.690448 
L 321.711111 37.348841 
L 322.534857 37.007234 
L 323.602075 36.665627 
L 323.615137 36.32402 
L 323.615137 288.430125 
L 323.615137 288.430125 
L 323.602075 288.430125 
L 322.534857 288.430125 
L 321.711111 288.430125 
L 321.452347 288.430125 
L 319.764016 288.430125 
L 319.30078 288.430125 
L 316.900882 288.430125 
L 315.518657 288.430125 
L 310.320679 288.430125 
L 308.739795 288.430125 
L 307.02011 288.430125 
L 303.003396 288.430125 
L 301.132655 288.430125 
L 300.700204 288.430125 
L 300.093143 288.430125 
L 300.008455 288.430125 
L 299.075364 288.430125 
L 298.833224 288.430125 
L 298.516764 288.430125 
L 297.374915 288.430125 
L 297.084677 288.430125 
L 296.772477 288.430125 
L 296.32257 288.430125 
L 296.236742 288.430125 
L 295.634364 288.430125 
L 295.065651 288.430125 
L 294.776178 288.430125 
L 294.405134 288.430125 
L 293.608764 288.430125 
L 290.353054 288.430125 
L 288.232181 288.430125 
L 287.918619 288.430125 
L 287.633395 288.430125 
L 286.164218 288.430125 
L 285.722361 288.430125 
L 285.34899 288.430125 
L 285.205396 288.430125 
L 284.809743 288.430125 
L 283.739575 288.430125 
L 282.501773 288.430125 
L 281.758812 288.430125 
L 281.151823 288.430125 
L 281.140047 288.430125 
L 279.513476 288.430125 
L 278.791888 288.430125 
L 278.254796 288.430125 
L 277.990966 288.430125 
L 277.531599 288.430125 
L 276.698895 288.430125 
L 276.668888 288.430125 
L 274.9445 288.430125 
L 274.891083 288.430125 
L 274.804299 288.430125 
L 274.225394 288.430125 
L 272.152699 288.430125 
L 271.914756 288.430125 
L 271.888602 288.430125 
L 270.330651 288.430125 
L 270.31415 288.430125 
L 270.306521 288.430125 
L 270.233866 288.430125 
L 269.439142 288.430125 
L 269.023679 288.430125 
L 268.910166 288.430125 
L 267.189281 288.430125 
L 265.785823 288.430125 
L 265.082586 288.430125 
L 264.977707 288.430125 
L 264.585273 288.430125 
L 264.061166 288.430125 
L 263.923605 288.430125 
L 263.900786 288.430125 
L 263.704183 288.430125 
L 263.385147 288.430125 
L 262.805761 288.430125 
L 262.650284 288.430125 
L 262.634795 288.430125 
L 262.224653 288.430125 
L 262.08923 288.430125 
L 261.681819 288.430125 
L 261.577182 288.430125 
L 261.39604 288.430125 
L 261.260993 288.430125 
L 260.78954 288.430125 
L 259.637161 288.430125 
L 258.124119 288.430125 
L 258.107887 288.430125 
L 257.267317 288.430125 
L 257.001541 288.430125 
L 256.560907 288.430125 
L 256.368758 288.430125 
L 256.131316 288.430125 
L 256.054808 288.430125 
L 255.853016 288.430125 
L 255.430164 288.430125 
L 254.849477 288.430125 
L 254.792999 288.430125 
L 254.509034 288.430125 
L 254.372025 288.430125 
L 253.975643 288.430125 
L 253.926533 288.430125 
L 253.536405 288.430125 
L 253.523954 288.430125 
L 253.411361 288.430125 
L 253.358299 288.430125 
L 253.152742 288.430125 
L 252.598796 288.430125 
L 252.537991 288.430125 
L 252.337188 288.430125 
L 251.458889 288.430125 
L 251.421181 288.430125 
L 250.835104 288.430125 
L 250.610964 288.430125 
L 250.16477 288.430125 
L 250.03363 288.430125 
L 249.928341 288.430125 
L 249.773353 288.430125 
L 249.639158 288.430125 
L 249.131831 288.430125 
L 248.045314 288.430125 
L 248.035392 288.430125 
L 247.860436 288.430125 
L 247.598139 288.430125 
L 246.610211 288.430125 
L 246.555022 288.430125 
L 246.373806 288.430125 
L 246.292919 288.430125 
L 245.995874 288.430125 
L 245.634872 288.430125 
L 245.590408 288.430125 
L 245.524225 288.430125 
L 245.205456 288.430125 
L 245.148701 288.430125 
L 245.024887 288.430125 
L 244.69866 288.430125 
L 244.588158 288.430125 
L 243.809989 288.430125 
L 243.659137 288.430125 
L 243.495661 288.430125 
L 243.403045 288.430125 
L 243.262644 288.430125 
L 243.210385 288.430125 
L 243.12437 288.430125 
L 242.961282 288.430125 
L 242.836337 288.430125 
L 242.44652 288.430125 
L 242.44652 288.430125 
L 241.909598 288.430125 
L 241.848432 288.430125 
L 241.826542 288.430125 
L 241.559281 288.430125 
L 241.361608 288.430125 
L 241.273874 288.430125 
L 241.263662 288.430125 
L 241.170645 288.430125 
L 241.134278 288.430125 
L 241.068996 288.430125 
L 240.95813 288.430125 
L 240.951426 288.430125 
L 240.941439 288.430125 
L 240.520676 288.430125 
L 240.474566 288.430125 
L 240.412487 288.430125 
L 240.254832 288.430125 
L 240.230098 288.430125 
L 240.21505 288.430125 
L 240.072236 288.430125 
L 239.884286 288.430125 
L 239.650472 288.430125 
L 239.532154 288.430125 
L 239.530136 288.430125 
L 239.407578 288.430125 
L 239.299954 288.430125 
L 239.028628 288.430125 
L 238.908356 288.430125 
L 238.506409 288.430125 
L 238.440156 288.430125 
L 238.217573 288.430125 
L 238.175276 288.430125 
L 238.094327 288.430125 
L 238.085881 288.430125 
L 237.963832 288.430125 
L 237.605314 288.430125 
L 237.558288 288.430125 
L 237.556187 288.430125 
L 237.531235 288.430125 
L 237.400725 288.430125 
L 237.400725 288.430125 
L 237.328137 288.430125 
L 237.318303 288.430125 
L 237.117971 288.430125 
L 236.937284 288.430125 
L 236.84562 288.430125 
L 236.754181 288.430125 
L 236.748057 288.430125 
L 236.608958 288.430125 
L 236.568339 288.430125 
L 236.550674 288.430125 
L 236.512199 288.430125 
L 236.332142 288.430125 
L 236.204125 288.430125 
L 236.203989 288.430125 
L 236.093478 288.430125 
L 236.093478 288.430125 
L 236.039306 288.430125 
L 236.037951 288.430125 
L 235.946065 288.430125 
L 235.933917 288.430125 
L 235.742383 288.430125 
L 235.742383 288.430125 
L 235.654042 288.430125 
L 235.612468 288.430125 
L 235.268614 288.430125 
L 235.079882 288.430125 
L 234.826678 288.430125 
L 234.646982 288.430125 
L 234.607454 288.430125 
L 234.600724 288.430125 
L 234.519164 288.430125 
L 234.471861 288.430125 
L 234.36563 288.430125 
L 234.195901 288.430125 
L 234.146553 288.430125 
L 234.1294 288.430125 
L 234.069218 288.430125 
L 234.004426 288.430125 
L 233.89829 288.430125 
L 233.898286 288.430125 
L 233.697335 288.430125 
L 233.548549 288.430125 
L 233.500618 288.430125 
L 233.393834 288.430125 
L 233.184685 288.430125 
L 233.111509 288.430125 
L 232.908606 288.430125 
L 232.872011 288.430125 
L 232.780278 288.430125 
L 232.778059 288.430125 
L 232.660883 288.430125 
L 232.631735 288.430125 
L 232.421726 288.430125 
L 232.26647 288.430125 
L 232.261642 288.430125 
L 232.239089 288.430125 
L 231.233043 288.430125 
L 231.197966 288.430125 
L 231.162256 288.430125 
L 231.010485 288.430125 
L 230.807281 288.430125 
L 230.751754 288.430125 
L 230.523685 288.430125 
L 230.498655 288.430125 
L 230.483065 288.430125 
L 230.341484 288.430125 
L 230.152166 288.430125 
L 230.087392 288.430125 
L 230.025059 288.430125 
L 230.020073 288.430125 
L 229.883558 288.430125 
L 229.755483 288.430125 
L 229.7465 288.430125 
L 229.666893 288.430125 
L 229.617898 288.430125 
L 229.588699 288.430125 
L 229.525526 288.430125 
L 229.111749 288.430125 
L 228.965382 288.430125 
L 228.913352 288.430125 
L 228.851729 288.430125 
L 228.812309 288.430125 
L 228.812299 288.430125 
L 228.699688 288.430125 
L 228.689292 288.430125 
L 228.603688 288.430125 
L 228.515863 288.430125 
L 228.512129 288.430125 
L 228.445229 288.430125 
L 228.257228 288.430125 
L 228.032801 288.430125 
L 227.962456 288.430125 
L 227.936022 288.430125 
L 227.737759 288.430125 
L 227.548883 288.430125 
L 227.505149 288.430125 
L 227.368769 288.430125 
L 227.197094 288.430125 
L 227.182692 288.430125 
L 227.025219 288.430125 
L 226.972984 288.430125 
L 226.921971 288.430125 
L 226.799276 288.430125 
L 226.724944 288.430125 
L 226.466149 288.430125 
L 226.465974 288.430125 
L 226.393629 288.430125 
L 226.363184 288.430125 
L 226.289989 288.430125 
L 226.274452 288.430125 
L 226.232858 288.430125 
L 226.116094 288.430125 
L 226.108907 288.430125 
L 226.059437 288.430125 
L 225.982758 288.430125 
L 225.904402 288.430125 
L 225.784476 288.430125 
L 225.776696 288.430125 
L 225.753215 288.430125 
L 225.746612 288.430125 
L 225.550239 288.430125 
L 225.299299 288.430125 
L 225.252514 288.430125 
L 225.138368 288.430125 
L 225.018661 288.430125 
L 225.000903 288.430125 
L 224.797732 288.430125 
L 224.781308 288.430125 
L 224.772467 288.430125 
L 224.485635 288.430125 
L 224.182227 288.430125 
L 224.176288 288.430125 
L 224.166445 288.430125 
L 224.166445 288.430125 
L 224.143557 288.430125 
L 224.106325 288.430125 
L 224.095419 288.430125 
L 224.084965 288.430125 
L 223.848981 288.430125 
L 223.827826 288.430125 
L 223.718813 288.430125 
L 223.613574 288.430125 
L 223.470547 288.430125 
L 223.354252 288.430125 
L 223.299569 288.430125 
L 223.231648 288.430125 
L 223.228565 288.430125 
L 223.206371 288.430125 
L 223.155918 288.430125 
L 223.035936 288.430125 
L 222.992726 288.430125 
L 222.870293 288.430125 
L 222.814076 288.430125 
L 222.80818 288.430125 
L 222.80535 288.430125 
L 222.632994 288.430125 
L 222.608846 288.430125 
L 222.502707 288.430125 
L 222.357462 288.430125 
L 222.304554 288.430125 
L 222.28191 288.430125 
L 222.146138 288.430125 
L 222.106348 288.430125 
L 221.948162 288.430125 
L 221.942779 288.430125 
L 221.752008 288.430125 
L 221.6456 288.430125 
L 221.588586 288.430125 
L 221.343663 288.430125 
L 221.329816 288.430125 
L 221.326242 288.430125 
L 221.233639 288.430125 
L 221.210283 288.430125 
L 221.177054 288.430125 
L 221.065699 288.430125 
L 221.018988 288.430125 
L 220.953398 288.430125 
L 220.946596 288.430125 
L 220.693492 288.430125 
L 220.686167 288.430125 
L 220.594885 288.430125 
L 220.451868 288.430125 
L 220.405735 288.430125 
L 220.373067 288.430125 
L 220.256763 288.430125 
L 220.256763 288.430125 
L 220.230865 288.430125 
L 220.204822 288.430125 
L 220.158462 288.430125 
L 220.100772 288.430125 
L 220.062937 288.430125 
L 220.021157 288.430125 
L 219.708652 288.430125 
L 219.557006 288.430125 
L 219.516813 288.430125 
L 219.39438 288.430125 
L 219.353574 288.430125 
L 219.346314 288.430125 
L 219.177018 288.430125 
L 219.000827 288.430125 
L 218.95066 288.430125 
L 218.876624 288.430125 
L 218.595107 288.430125 
L 218.504942 288.430125 
L 218.438855 288.430125 
L 218.362816 288.430125 
L 218.292274 288.430125 
L 218.23609 288.430125 
L 218.193084 288.430125 
L 218.063111 288.430125 
L 218.045506 288.430125 
L 217.991316 288.430125 
L 217.912688 288.430125 
L 217.832237 288.430125 
L 217.832237 288.430125 
L 217.559282 288.430125 
L 217.555174 288.430125 
L 217.543075 288.430125 
L 217.420624 288.430125 
L 217.419774 288.430125 
L 217.217579 288.430125 
L 217.143592 288.430125 
L 217.136449 288.430125 
L 216.942219 288.430125 
L 216.920086 288.430125 
L 216.870492 288.430125 
L 216.867922 288.430125 
L 216.800819 288.430125 
L 216.620031 288.430125 
L 216.579409 288.430125 
L 216.41255 288.430125 
L 216.276738 288.430125 
L 216.13061 288.430125 
L 216.094281 288.430125 
L 216.016737 288.430125 
L 215.979423 288.430125 
L 215.869399 288.430125 
L 215.851829 288.430125 
L 215.714251 288.430125 
L 215.405635 288.430125 
L 215.365873 288.430125 
L 215.301351 288.430125 
L 215.288157 288.430125 
L 215.252 288.430125 
L 215.077829 288.430125 
L 215.067805 288.430125 
L 215.063909 288.430125 
L 215.009698 288.430125 
L 214.888778 288.430125 
L 214.852925 288.430125 
L 214.668388 288.430125 
L 214.620025 288.430125 
L 214.573162 288.430125 
L 214.573162 288.430125 
L 214.568166 288.430125 
L 214.425702 288.430125 
L 214.356324 288.430125 
L 214.302943 288.430125 
L 214.067161 288.430125 
L 214.004716 288.430125 
L 213.976292 288.430125 
L 213.942239 288.430125 
L 213.831017 288.430125 
L 213.758553 288.430125 
L 213.717406 288.430125 
L 213.664162 288.430125 
L 213.628966 288.430125 
L 213.393232 288.430125 
L 213.19857 288.430125 
L 213.186133 288.430125 
L 213.186133 288.430125 
L 212.988442 288.430125 
L 212.835206 288.430125 
L 212.835206 288.430125 
L 212.774443 288.430125 
L 212.732168 288.430125 
L 212.724096 288.430125 
L 212.636563 288.430125 
L 212.564986 288.430125 
L 212.436771 288.430125 
L 212.098473 288.430125 
L 211.865693 288.430125 
L 211.762084 288.430125 
L 211.734142 288.430125 
L 211.718397 288.430125 
L 211.70656 288.430125 
L 211.661642 288.430125 
L 211.54994 288.430125 
L 211.406161 288.430125 
L 211.331374 288.430125 
L 211.329821 288.430125 
L 211.213378 288.430125 
L 211.130154 288.430125 
L 211.003572 288.430125 
L 210.968307 288.430125 
L 210.614339 288.430125 
L 210.265752 288.430125 
L 209.83396 288.430125 
L 209.71022 288.430125 
L 209.673032 288.430125 
L 209.551326 288.430125 
L 209.50628 288.430125 
L 209.275532 288.430125 
L 209.16186 288.430125 
L 209.097746 288.430125 
L 209.05492 288.430125 
L 208.894451 288.430125 
L 208.873537 288.430125 
L 208.824887 288.430125 
L 208.747555 288.430125 
L 208.742087 288.430125 
L 208.729346 288.430125 
L 208.628627 288.430125 
L 208.571747 288.430125 
L 208.570777 288.430125 
L 208.503536 288.430125 
L 208.369585 288.430125 
L 207.917131 288.430125 
L 207.848299 288.430125 
L 206.947398 288.430125 
L 206.884459 288.430125 
L 206.292439 288.430125 
L 206.106251 288.430125 
L 206.067203 288.430125 
L 205.846245 288.430125 
L 205.720498 288.430125 
L 205.66654 288.430125 
L 205.57367 288.430125 
L 205.294699 288.430125 
L 205.160342 288.430125 
L 205.12917 288.430125 
L 205.108214 288.430125 
L 204.542058 288.430125 
L 204.461038 288.430125 
L 204.457006 288.430125 
L 204.370219 288.430125 
L 204.037575 288.430125 
L 203.539899 288.430125 
L 203.514498 288.430125 
L 203.33191 288.430125 
L 203.121531 288.430125 
L 202.827065 288.430125 
L 202.235893 288.430125 
L 201.990191 288.430125 
L 201.834481 288.430125 
L 201.541238 288.430125 
L 201.528924 288.430125 
L 201.494724 288.430125 
L 201.162862 288.430125 
L 201.099668 288.430125 
L 201.053454 288.430125 
L 200.66429 288.430125 
L 200.464885 288.430125 
L 200.22643 288.430125 
L 200.220638 288.430125 
L 200.020521 288.430125 
L 199.63009 288.430125 
L 198.692102 288.430125 
L 198.692102 288.430125 
L 198.555196 288.430125 
L 198.503604 288.430125 
L 198.433913 288.430125 
L 198.232657 288.430125 
L 198.171813 288.430125 
L 197.85628 288.430125 
L 197.583374 288.430125 
L 197.285862 288.430125 
L 196.999388 288.430125 
L 196.758276 288.430125 
L 196.640499 288.430125 
L 196.595023 288.430125 
L 196.4947 288.430125 
L 196.4947 288.430125 
L 196.470558 288.430125 
L 196.377618 288.430125 
L 196.262697 288.430125 
L 196.064605 288.430125 
L 196.013664 288.430125 
L 195.575558 288.430125 
L 195.484824 288.430125 
L 195.0976 288.430125 
L 194.73518 288.430125 
L 194.661404 288.430125 
L 194.493969 288.430125 
L 194.257285 288.430125 
L 194.2267 288.430125 
L 194.129259 288.430125 
L 193.881749 288.430125 
L 193.606331 288.430125 
L 193.331303 288.430125 
L 193.224438 288.430125 
L 193.076933 288.430125 
L 191.718178 288.430125 
L 191.450368 288.430125 
L 190.477555 288.430125 
L 190.055434 288.430125 
L 189.947382 288.430125 
L 188.625222 288.430125 
L 188.385621 288.430125 
L 188.250976 288.430125 
L 188.166374 288.430125 
L 188.082465 288.430125 
L 187.957625 288.430125 
L 187.77587 288.430125 
L 187.491089 288.430125 
L 187.43069 288.430125 
L 187.352193 288.430125 
L 187.068477 288.430125 
L 186.989704 288.430125 
L 186.340396 288.430125 
L 185.073499 288.430125 
L 184.685349 288.430125 
L 184.197689 288.430125 
L 183.391372 288.430125 
L 182.456265 288.430125 
L 182.054372 288.430125 
L 181.735809 288.430125 
L 181.433796 288.430125 
L 180.588621 288.430125 
L 180.417676 288.430125 
L 180.295107 288.430125 
L 180.022014 288.430125 
L 179.972224 288.430125 
L 179.867309 288.430125 
L 179.810097 288.430125 
L 179.389087 288.430125 
L 179.330577 288.430125 
L 179.115133 288.430125 
L 179.024418 288.430125 
L 178.858123 288.430125 
L 178.045214 288.430125 
L 177.751081 288.430125 
L 174.810634 288.430125 
L 174.584446 288.430125 
L 174.464892 288.430125 
L 174.331828 288.430125 
L 174.321973 288.430125 
L 173.723225 288.430125 
L 173.588083 288.430125 
L 173.4487 288.430125 
L 173.095929 288.430125 
L 172.765918 288.430125 
L 172.112333 288.430125 
L 171.82576 288.430125 
L 170.284195 288.430125 
L 170.051122 288.430125 
L 165.926069 288.430125 
L 165.779778 288.430125 
L 165.568112 288.430125 
L 165.161451 288.430125 
L 165.038728 288.430125 
L 164.551506 288.430125 
L 163.973636 288.430125 
L 163.510855 288.430125 
L 163.367887 288.430125 
L 161.806021 288.430125 
L 160.707597 288.430125 
L 159.623382 288.430125 
L 159.444599 288.430125 
L 159.340563 288.430125 
L 158.374895 288.430125 
L 156.681675 288.430125 
L 156.22633 288.430125 
L 155.925637 288.430125 
L 155.711402 288.430125 
L 155.074357 288.430125 
L 154.949684 288.430125 
L 154.508124 288.430125 
L 154.171159 288.430125 
L 153.747858 288.430125 
L 153.611747 288.430125 
L 153.582259 288.430125 
L 153.548536 288.430125 
L 153.095014 288.430125 
L 152.63782 288.430125 
L 152.278704 288.430125 
L 152.231879 288.430125 
L 151.043408 288.430125 
L 149.652841 288.430125 
L 148.165307 288.430125 
L 147.625322 288.430125 
L 147.491328 288.430125 
L 146.992969 288.430125 
L 145.357816 288.430125 
L 144.560991 288.430125 
L 144.557213 288.430125 
L 144.299806 288.430125 
L 141.571504 288.430125 
L 141.119346 288.430125 
L 140.771537 288.430125 
L 140.102193 288.430125 
L 139.585889 288.430125 
L 138.354914 288.430125 
L 137.766333 288.430125 
L 136.158029 288.430125 
L 135.720698 288.430125 
L 135.618365 288.430125 
L 135.193949 288.430125 
L 134.943827 288.430125 
L 134.591066 288.430125 
L 134.3582 288.430125 
L 132.080467 288.430125 
L 130.2887 288.430125 
L 128.605838 288.430125 
L 125.930224 288.430125 
L 125.817798 288.430125 
L 123.506099 288.430125 
L 122.637181 288.430125 
L 121.947812 288.430125 
L 120.774597 288.430125 
L 119.552337 288.430125 
z
" style="fill:#1f77b4;fill-opacity:0.3;"/>
   </g>
   <g id="matplotlib.axis_1">
    <g id="xtick_1">
     <g id="line2d_1">
      <defs>
       <path d="M 0 0 
L 0 3.5 
" id="me963c72b3e" style="stroke:#000000;stroke-width:0.8;"/>
      </defs>
      <g>
       <use style="stroke:#000000;stroke-width:0.8;" x="51.729951" xlink:href="#me963c72b3e" y="288.430125"/>
      </g>
     </g>
     <g id="text_1">
      <!-- −1.00 -->
      <defs>
       <path d="M 10.59375 35.5 
L 73.1875 35.5 
L 73.1875 27.203125 
L 10.59375 27.203125 
z
" id="DejaVuSans-8722"/>
       <path d="M 12.40625 8.296875 
L 28.515625 8.296875 
L 28.515625 63.921875 
L 10.984375 60.40625 
L 10.984375 69.390625 
L 28.421875 72.90625 
L 38.28125 72.90625 
L 38.28125 8.296875 
L 54.390625 8.296875 
L 54.390625 0 
L 12.40625 0 
z
" id="DejaVuSans-49"/>
       <path d="M 10.6875 12.40625 
L 21 12.40625 
L 21 0 
L 10.6875 0 
z
" id="DejaVuSans-46"/>
       <path d="M 31.78125 66.40625 
Q 24.171875 66.40625 20.328125 58.90625 
Q 16.5 51.421875 16.5 36.375 
Q 16.5 21.390625 20.328125 13.890625 
Q 24.171875 6.390625 31.78125 6.390625 
Q 39.453125 6.390625 43.28125 13.890625 
Q 47.125 21.390625 47.125 36.375 
Q 47.125 51.421875 43.28125 58.90625 
Q 39.453125 66.40625 31.78125 66.40625 
z
M 31.78125 74.21875 
Q 44.046875 74.21875 50.515625 64.515625 
Q 56.984375 54.828125 56.984375 36.375 
Q 56.984375 17.96875 50.515625 8.265625 
Q 44.046875 -1.421875 31.78125 -1.421875 
Q 19.53125 -1.421875 13.0625 8.265625 
Q 6.59375 17.96875 6.59375 36.375 
Q 6.59375 54.828125 13.0625 64.515625 
Q 19.53125 74.21875 31.78125 74.21875 
z
" id="DejaVuSans-48"/>
      </defs>
      <g transform="translate(36.407294 303.028562)scale(0.1 -0.1)">
       <use xlink:href="#DejaVuSans-8722"/>
       <use x="83.789062" xlink:href="#DejaVuSans-49"/>
       <use x="147.412109" xlink:href="#DejaVuSans-46"/>
       <use x="179.199219" xlink:href="#DejaVuSans-48"/>
       <use x="242.822266" xlink:href="#DejaVuSans-48"/>
      </g>
     </g>
    </g>
    <g id="xtick_2">
     <g id="line2d_2">
      <g>
       <use style="stroke:#000000;stroke-width:0.8;" x="95.178869" xlink:href="#me963c72b3e" y="288.430125"/>
      </g>
     </g>
     <g id="text_2">
      <!-- −0.75 -->
      <defs>
       <path d="M 8.203125 72.90625 
L 55.078125 72.90625 
L 55.078125 68.703125 
L 28.609375 0 
L 18.3125 0 
L 43.21875 64.59375 
L 8.203125 64.59375 
z
" id="DejaVuSans-55"/>
       <path d="M 10.796875 72.90625 
L 49.515625 72.90625 
L 49.515625 64.59375 
L 19.828125 64.59375 
L 19.828125 46.734375 
Q 21.96875 47.46875 24.109375 47.828125 
Q 26.265625 48.1875 28.421875 48.1875 
Q 40.625 48.1875 47.75 41.5 
Q 54.890625 34.8125 54.890625 23.390625 
Q 54.890625 11.625 47.5625 5.09375 
Q 40.234375 -1.421875 26.90625 -1.421875 
Q 22.3125 -1.421875 17.546875 -0.640625 
Q 12.796875 0.140625 7.71875 1.703125 
L 7.71875 11.625 
Q 12.109375 9.234375 16.796875 8.0625 
Q 21.484375 6.890625 26.703125 6.890625 
Q 35.15625 6.890625 40.078125 11.328125 
Q 45.015625 15.765625 45.015625 23.390625 
Q 45.015625 31 40.078125 35.4375 
Q 35.15625 39.890625 26.703125 39.890625 
Q 22.75 39.890625 18.8125 39.015625 
Q 14.890625 38.140625 10.796875 36.28125 
z
" id="DejaVuSans-53"/>
      </defs>
      <g transform="translate(79.856213 303.028562)scale(0.1 -0.1)">
       <use xlink:href="#DejaVuSans-8722"/>
       <use x="83.789062" xlink:href="#DejaVuSans-48"/>
       <use x="147.412109" xlink:href="#DejaVuSans-46"/>
       <use x="179.199219" xlink:href="#DejaVuSans-55"/>
       <use x="242.822266" xlink:href="#DejaVuSans-53"/>
      </g>
     </g>
    </g>
    <g id="xtick_3">
     <g id="line2d_3">
      <g>
       <use style="stroke:#000000;stroke-width:0.8;" x="138.627788" xlink:href="#me963c72b3e" y="288.430125"/>
      </g>
     </g>
     <g id="text_3">
      <!-- −0.50 -->
      <g transform="translate(123.305132 303.028562)scale(0.1 -0.1)">
       <use xlink:href="#DejaVuSans-8722"/>
       <use x="83.789062" xlink:href="#DejaVuSans-48"/>
       <use x="147.412109" xlink:href="#DejaVuSans-46"/>
       <use x="179.199219" xlink:href="#DejaVuSans-53"/>
       <use x="242.822266" xlink:href="#DejaVuSans-48"/>
      </g>
     </g>
    </g>
    <g id="xtick_4">
     <g id="line2d_4">
      <g>
       <use style="stroke:#000000;stroke-width:0.8;" x="182.076706" xlink:href="#me963c72b3e" y="288.430125"/>
      </g>
     </g>
     <g id="text_4">
      <!-- −0.25 -->
      <defs>
       <path d="M 19.1875 8.296875 
L 53.609375 8.296875 
L 53.609375 0 
L 7.328125 0 
L 7.328125 8.296875 
Q 12.9375 14.109375 22.625 23.890625 
Q 32.328125 33.6875 34.8125 36.53125 
Q 39.546875 41.84375 41.421875 45.53125 
Q 43.3125 49.21875 43.3125 52.78125 
Q 43.3125 58.59375 39.234375 62.25 
Q 35.15625 65.921875 28.609375 65.921875 
Q 23.96875 65.921875 18.8125 64.3125 
Q 13.671875 62.703125 7.8125 59.421875 
L 7.8125 69.390625 
Q 13.765625 71.78125 18.9375 73 
Q 24.125 74.21875 28.421875 74.21875 
Q 39.75 74.21875 46.484375 68.546875 
Q 53.21875 62.890625 53.21875 53.421875 
Q 53.21875 48.921875 51.53125 44.890625 
Q 49.859375 40.875 45.40625 35.40625 
Q 44.1875 33.984375 37.640625 27.21875 
Q 31.109375 20.453125 19.1875 8.296875 
z
" id="DejaVuSans-50"/>
      </defs>
      <g transform="translate(166.75405 303.028562)scale(0.1 -0.1)">
       <use xlink:href="#DejaVuSans-8722"/>
       <use x="83.789062" xlink:href="#DejaVuSans-48"/>
       <use x="147.412109" xlink:href="#DejaVuSans-46"/>
       <use x="179.199219" xlink:href="#DejaVuSans-50"/>
       <use x="242.822266" xlink:href="#DejaVuSans-53"/>
      </g>
     </g>
    </g>
    <g id="xtick_5">
     <g id="line2d_5">
      <g>
       <use style="stroke:#000000;stroke-width:0.8;" x="225.525625" xlink:href="#me963c72b3e" y="288.430125"/>
      </g>
     </g>
     <g id="text_5">
      <!-- 0.00 -->
      <g transform="translate(214.392813 303.028562)scale(0.1 -0.1)">
       <use xlink:href="#DejaVuSans-48"/>
       <use x="63.623047" xlink:href="#DejaVuSans-46"/>
       <use x="95.410156" xlink:href="#DejaVuSans-48"/>
       <use x="159.033203" xlink:href="#DejaVuSans-48"/>
      </g>
     </g>
    </g>
    <g id="xtick_6">
     <g id="line2d_6">
      <g>
       <use style="stroke:#000000;stroke-width:0.8;" x="268.974544" xlink:href="#me963c72b3e" y="288.430125"/>
      </g>
     </g>
     <g id="text_6">
      <!-- 0.25 -->
      <g transform="translate(257.841731 303.028562)scale(0.1 -0.1)">
       <use xlink:href="#DejaVuSans-48"/>
       <use x="63.623047" xlink:href="#DejaVuSans-46"/>
       <use x="95.410156" xlink:href="#DejaVuSans-50"/>
       <use x="159.033203" xlink:href="#DejaVuSans-53"/>
      </g>
     </g>
    </g>
    <g id="xtick_7">
     <g id="line2d_7">
      <g>
       <use style="stroke:#000000;stroke-width:0.8;" x="312.423462" xlink:href="#me963c72b3e" y="288.430125"/>
      </g>
     </g>
     <g id="text_7">
      <!-- 0.50 -->
      <g transform="translate(301.29065 303.028562)scale(0.1 -0.1)">
       <use xlink:href="#DejaVuSans-48"/>
       <use x="63.623047" xlink:href="#DejaVuSans-46"/>
       <use x="95.410156" xlink:href="#DejaVuSans-53"/>
       <use x="159.033203" xlink:href="#DejaVuSans-48"/>
      </g>
     </g>
    </g>
    <g id="xtick_8">
     <g id="line2d_8">
      <g>
       <use style="stroke:#000000;stroke-width:0.8;" x="355.872381" xlink:href="#me963c72b3e" y="288.430125"/>
      </g>
     </g>
     <g id="text_8">
      <!-- 0.75 -->
      <g transform="translate(344.739568 303.028562)scale(0.1 -0.1)">
       <use xlink:href="#DejaVuSans-48"/>
       <use x="63.623047" xlink:href="#DejaVuSans-46"/>
       <use x="95.410156" xlink:href="#DejaVuSans-55"/>
       <use x="159.033203" xlink:href="#DejaVuSans-53"/>
      </g>
     </g>
    </g>
    <g id="xtick_9">
     <g id="line2d_9">
      <g>
       <use style="stroke:#000000;stroke-width:0.8;" x="399.321299" xlink:href="#me963c72b3e" y="288.430125"/>
      </g>
     </g>
     <g id="text_9">
      <!-- 1.00 -->
      <g transform="translate(388.188487 303.028562)scale(0.1 -0.1)">
       <use xlink:href="#DejaVuSans-49"/>
       <use x="63.623047" xlink:href="#DejaVuSans-46"/>
       <use x="95.410156" xlink:href="#DejaVuSans-48"/>
       <use x="159.033203" xlink:href="#DejaVuSans-48"/>
      </g>
     </g>
    </g>
    <g id="text_10">
     <!-- Residual -->
     <defs>
      <path d="M 44.390625 34.1875 
Q 47.5625 33.109375 50.5625 29.59375 
Q 53.5625 26.078125 56.59375 19.921875 
L 66.609375 0 
L 56 0 
L 46.6875 18.703125 
Q 43.0625 26.03125 39.671875 28.421875 
Q 36.28125 30.8125 30.421875 30.8125 
L 19.671875 30.8125 
L 19.671875 0 
L 9.8125 0 
L 9.8125 72.90625 
L 32.078125 72.90625 
Q 44.578125 72.90625 50.734375 67.671875 
Q 56.890625 62.453125 56.890625 51.90625 
Q 56.890625 45.015625 53.6875 40.46875 
Q 50.484375 35.9375 44.390625 34.1875 
z
M 19.671875 64.796875 
L 19.671875 38.921875 
L 32.078125 38.921875 
Q 39.203125 38.921875 42.84375 42.21875 
Q 46.484375 45.515625 46.484375 51.90625 
Q 46.484375 58.296875 42.84375 61.546875 
Q 39.203125 64.796875 32.078125 64.796875 
z
" id="DejaVuSans-82"/>
      <path d="M 56.203125 29.59375 
L 56.203125 25.203125 
L 14.890625 25.203125 
Q 15.484375 15.921875 20.484375 11.0625 
Q 25.484375 6.203125 34.421875 6.203125 
Q 39.59375 6.203125 44.453125 7.46875 
Q 49.3125 8.734375 54.109375 11.28125 
L 54.109375 2.78125 
Q 49.265625 0.734375 44.1875 -0.34375 
Q 39.109375 -1.421875 33.890625 -1.421875 
Q 20.796875 -1.421875 13.15625 6.1875 
Q 5.515625 13.8125 5.515625 26.8125 
Q 5.515625 40.234375 12.765625 48.109375 
Q 20.015625 56 32.328125 56 
Q 43.359375 56 49.78125 48.890625 
Q 56.203125 41.796875 56.203125 29.59375 
z
M 47.21875 32.234375 
Q 47.125 39.59375 43.09375 43.984375 
Q 39.0625 48.390625 32.421875 48.390625 
Q 24.90625 48.390625 20.390625 44.140625 
Q 15.875 39.890625 15.1875 32.171875 
z
" id="DejaVuSans-101"/>
      <path d="M 44.28125 53.078125 
L 44.28125 44.578125 
Q 40.484375 46.53125 36.375 47.5 
Q 32.28125 48.484375 27.875 48.484375 
Q 21.1875 48.484375 17.84375 46.4375 
Q 14.5 44.390625 14.5 40.28125 
Q 14.5 37.15625 16.890625 35.375 
Q 19.28125 33.59375 26.515625 31.984375 
L 29.59375 31.296875 
Q 39.15625 29.25 43.1875 25.515625 
Q 47.21875 21.78125 47.21875 15.09375 
Q 47.21875 7.46875 41.1875 3.015625 
Q 35.15625 -1.421875 24.609375 -1.421875 
Q 20.21875 -1.421875 15.453125 -0.5625 
Q 10.6875 0.296875 5.421875 2 
L 5.421875 11.28125 
Q 10.40625 8.6875 15.234375 7.390625 
Q 20.0625 6.109375 24.8125 6.109375 
Q 31.15625 6.109375 34.5625 8.28125 
Q 37.984375 10.453125 37.984375 14.40625 
Q 37.984375 18.0625 35.515625 20.015625 
Q 33.0625 21.96875 24.703125 23.78125 
L 21.578125 24.515625 
Q 13.234375 26.265625 9.515625 29.90625 
Q 5.8125 33.546875 5.8125 39.890625 
Q 5.8125 47.609375 11.28125 51.796875 
Q 16.75 56 26.8125 56 
Q 31.78125 56 36.171875 55.265625 
Q 40.578125 54.546875 44.28125 53.078125 
z
" id="DejaVuSans-115"/>
      <path d="M 9.421875 54.6875 
L 18.40625 54.6875 
L 18.40625 0 
L 9.421875 0 
z
M 9.421875 75.984375 
L 18.40625 75.984375 
L 18.40625 64.59375 
L 9.421875 64.59375 
z
" id="DejaVuSans-105"/>
      <path d="M 45.40625 46.390625 
L 45.40625 75.984375 
L 54.390625 75.984375 
L 54.390625 0 
L 45.40625 0 
L 45.40625 8.203125 
Q 42.578125 3.328125 38.25 0.953125 
Q 33.9375 -1.421875 27.875 -1.421875 
Q 17.96875 -1.421875 11.734375 6.484375 
Q 5.515625 14.40625 5.515625 27.296875 
Q 5.515625 40.1875 11.734375 48.09375 
Q 17.96875 56 27.875 56 
Q 33.9375 56 38.25 53.625 
Q 42.578125 51.265625 45.40625 46.390625 
z
M 14.796875 27.296875 
Q 14.796875 17.390625 18.875 11.75 
Q 22.953125 6.109375 30.078125 6.109375 
Q 37.203125 6.109375 41.296875 11.75 
Q 45.40625 17.390625 45.40625 27.296875 
Q 45.40625 37.203125 41.296875 42.84375 
Q 37.203125 48.484375 30.078125 48.484375 
Q 22.953125 48.484375 18.875 42.84375 
Q 14.796875 37.203125 14.796875 27.296875 
z
" id="DejaVuSans-100"/>
      <path d="M 8.5 21.578125 
L 8.5 54.6875 
L 17.484375 54.6875 
L 17.484375 21.921875 
Q 17.484375 14.15625 20.5 10.265625 
Q 23.53125 6.390625 29.59375 6.390625 
Q 36.859375 6.390625 41.078125 11.03125 
Q 45.3125 15.671875 45.3125 23.6875 
L 45.3125 54.6875 
L 54.296875 54.6875 
L 54.296875 0 
L 45.3125 0 
L 45.3125 8.40625 
Q 42.046875 3.421875 37.71875 1 
Q 33.40625 -1.421875 27.6875 -1.421875 
Q 18.265625 -1.421875 13.375 4.4375 
Q 8.5 10.296875 8.5 21.578125 
z
M 31.109375 56 
z
" id="DejaVuSans-117"/>
      <path d="M 34.28125 27.484375 
Q 23.390625 27.484375 19.1875 25 
Q 14.984375 22.515625 14.984375 16.5 
Q 14.984375 11.71875 18.140625 8.90625 
Q 21.296875 6.109375 26.703125 6.109375 
Q 34.1875 6.109375 38.703125 11.40625 
Q 43.21875 16.703125 43.21875 25.484375 
L 43.21875 27.484375 
z
M 52.203125 31.203125 
L 52.203125 0 
L 43.21875 0 
L 43.21875 8.296875 
Q 40.140625 3.328125 35.546875 0.953125 
Q 30.953125 -1.421875 24.3125 -1.421875 
Q 15.921875 -1.421875 10.953125 3.296875 
Q 6 8.015625 6 15.921875 
Q 6 25.140625 12.171875 29.828125 
Q 18.359375 34.515625 30.609375 34.515625 
L 43.21875 34.515625 
L 43.21875 35.40625 
Q 43.21875 41.609375 39.140625 45 
Q 35.0625 48.390625 27.6875 48.390625 
Q 23 48.390625 18.546875 47.265625 
Q 14.109375 46.140625 10.015625 43.890625 
L 10.015625 52.203125 
Q 14.9375 54.109375 19.578125 55.046875 
Q 24.21875 56 28.609375 56 
Q 40.484375 56 46.34375 49.84375 
Q 52.203125 43.703125 52.203125 31.203125 
z
" id="DejaVuSans-97"/>
      <path d="M 9.421875 75.984375 
L 18.40625 75.984375 
L 18.40625 0 
L 9.421875 0 
z
" id="DejaVuSans-108"/>
     </defs>
     <g transform="translate(204.188125 316.706687)scale(0.1 -0.1)">
      <use xlink:href="#DejaVuSans-82"/>
      <use x="69.419922" xlink:href="#DejaVuSans-101"/>
      <use x="130.943359" xlink:href="#DejaVuSans-115"/>
      <use x="183.042969" xlink:href="#DejaVuSans-105"/>
      <use x="210.826172" xlink:href="#DejaVuSans-100"/>
      <use x="274.302734" xlink:href="#DejaVuSans-117"/>
      <use x="337.681641" xlink:href="#DejaVuSans-97"/>
      <use x="398.960938" xlink:href="#DejaVuSans-108"/>
     </g>
    </g>
   </g>
   <g id="matplotlib.axis_2">
    <g id="ytick_1">
     <g id="line2d_10">
      <defs>
       <path d="M 0 0 
L -3.5 0 
" id="m676ffa33e7" style="stroke:#000000;stroke-width:0.8;"/>
      </defs>
      <g>
       <use style="stroke:#000000;stroke-width:0.8;" x="46.965625" xlink:href="#m676ffa33e7" y="288.430125"/>
      </g>
     </g>
     <g id="text_11">
      <!-- 0 -->
      <g transform="translate(33.603125 292.229344)scale(0.1 -0.1)">
       <use xlink:href="#DejaVuSans-48"/>
      </g>
     </g>
    </g>
    <g id="ytick_2">
     <g id="line2d_11">
      <g>
       <use style="stroke:#000000;stroke-width:0.8;" x="46.965625" xlink:href="#m676ffa33e7" y="235.207725"/>
      </g>
     </g>
     <g id="text_12">
      <!-- 20 -->
      <g transform="translate(27.240625 239.006944)scale(0.1 -0.1)">
       <use xlink:href="#DejaVuSans-50"/>
       <use x="63.623047" xlink:href="#DejaVuSans-48"/>
      </g>
     </g>
    </g>
    <g id="ytick_3">
     <g id="line2d_12">
      <g>
       <use style="stroke:#000000;stroke-width:0.8;" x="46.965625" xlink:href="#m676ffa33e7" y="181.985325"/>
      </g>
     </g>
     <g id="text_13">
      <!-- 40 -->
      <defs>
       <path d="M 37.796875 64.3125 
L 12.890625 25.390625 
L 37.796875 25.390625 
z
M 35.203125 72.90625 
L 47.609375 72.90625 
L 47.609375 25.390625 
L 58.015625 25.390625 
L 58.015625 17.1875 
L 47.609375 17.1875 
L 47.609375 0 
L 37.796875 0 
L 37.796875 17.1875 
L 4.890625 17.1875 
L 4.890625 26.703125 
z
" id="DejaVuSans-52"/>
      </defs>
      <g transform="translate(27.240625 185.784544)scale(0.1 -0.1)">
       <use xlink:href="#DejaVuSans-52"/>
       <use x="63.623047" xlink:href="#DejaVuSans-48"/>
      </g>
     </g>
    </g>
    <g id="ytick_4">
     <g id="line2d_13">
      <g>
       <use style="stroke:#000000;stroke-width:0.8;" x="46.965625" xlink:href="#m676ffa33e7" y="128.762925"/>
      </g>
     </g>
     <g id="text_14">
      <!-- 60 -->
      <defs>
       <path d="M 33.015625 40.375 
Q 26.375 40.375 22.484375 35.828125 
Q 18.609375 31.296875 18.609375 23.390625 
Q 18.609375 15.53125 22.484375 10.953125 
Q 26.375 6.390625 33.015625 6.390625 
Q 39.65625 6.390625 43.53125 10.953125 
Q 47.40625 15.53125 47.40625 23.390625 
Q 47.40625 31.296875 43.53125 35.828125 
Q 39.65625 40.375 33.015625 40.375 
z
M 52.59375 71.296875 
L 52.59375 62.3125 
Q 48.875 64.0625 45.09375 64.984375 
Q 41.3125 65.921875 37.59375 65.921875 
Q 27.828125 65.921875 22.671875 59.328125 
Q 17.53125 52.734375 16.796875 39.40625 
Q 19.671875 43.65625 24.015625 45.921875 
Q 28.375 48.1875 33.59375 48.1875 
Q 44.578125 48.1875 50.953125 41.515625 
Q 57.328125 34.859375 57.328125 23.390625 
Q 57.328125 12.15625 50.6875 5.359375 
Q 44.046875 -1.421875 33.015625 -1.421875 
Q 20.359375 -1.421875 13.671875 8.265625 
Q 6.984375 17.96875 6.984375 36.375 
Q 6.984375 53.65625 15.1875 63.9375 
Q 23.390625 74.21875 37.203125 74.21875 
Q 40.921875 74.21875 44.703125 73.484375 
Q 48.484375 72.75 52.59375 71.296875 
z
" id="DejaVuSans-54"/>
      </defs>
      <g transform="translate(27.240625 132.562144)scale(0.1 -0.1)">
       <use xlink:href="#DejaVuSans-54"/>
       <use x="63.623047" xlink:href="#DejaVuSans-48"/>
      </g>
     </g>
    </g>
    <g id="ytick_5">
     <g id="line2d_14">
      <g>
       <use style="stroke:#000000;stroke-width:0.8;" x="46.965625" xlink:href="#m676ffa33e7" y="75.540525"/>
      </g>
     </g>
     <g id="text_15">
      <!-- 80 -->
      <defs>
       <path d="M 31.78125 34.625 
Q 24.75 34.625 20.71875 30.859375 
Q 16.703125 27.09375 16.703125 20.515625 
Q 16.703125 13.921875 20.71875 10.15625 
Q 24.75 6.390625 31.78125 6.390625 
Q 38.8125 6.390625 42.859375 10.171875 
Q 46.921875 13.96875 46.921875 20.515625 
Q 46.921875 27.09375 42.890625 30.859375 
Q 38.875 34.625 31.78125 34.625 
z
M 21.921875 38.8125 
Q 15.578125 40.375 12.03125 44.71875 
Q 8.5 49.078125 8.5 55.328125 
Q 8.5 64.0625 14.71875 69.140625 
Q 20.953125 74.21875 31.78125 74.21875 
Q 42.671875 74.21875 48.875 69.140625 
Q 55.078125 64.0625 55.078125 55.328125 
Q 55.078125 49.078125 51.53125 44.71875 
Q 48 40.375 41.703125 38.8125 
Q 48.828125 37.15625 52.796875 32.3125 
Q 56.78125 27.484375 56.78125 20.515625 
Q 56.78125 9.90625 50.3125 4.234375 
Q 43.84375 -1.421875 31.78125 -1.421875 
Q 19.734375 -1.421875 13.25 4.234375 
Q 6.78125 9.90625 6.78125 20.515625 
Q 6.78125 27.484375 10.78125 32.3125 
Q 14.796875 37.15625 21.921875 38.8125 
z
M 18.3125 54.390625 
Q 18.3125 48.734375 21.84375 45.5625 
Q 25.390625 42.390625 31.78125 42.390625 
Q 38.140625 42.390625 41.71875 45.5625 
Q 45.3125 48.734375 45.3125 54.390625 
Q 45.3125 60.0625 41.71875 63.234375 
Q 38.140625 66.40625 31.78125 66.40625 
Q 25.390625 66.40625 21.84375 63.234375 
Q 18.3125 60.0625 18.3125 54.390625 
z
" id="DejaVuSans-56"/>
      </defs>
      <g transform="translate(27.240625 79.339744)scale(0.1 -0.1)">
       <use xlink:href="#DejaVuSans-56"/>
       <use x="63.623047" xlink:href="#DejaVuSans-48"/>
      </g>
     </g>
    </g>
    <g id="ytick_6">
     <g id="line2d_15">
      <g>
       <use style="stroke:#000000;stroke-width:0.8;" x="46.965625" xlink:href="#m676ffa33e7" y="22.318125"/>
      </g>
     </g>
     <g id="text_16">
      <!-- 100 -->
      <g transform="translate(20.878125 26.117344)scale(0.1 -0.1)">
       <use xlink:href="#DejaVuSans-49"/>
       <use x="63.623047" xlink:href="#DejaVuSans-48"/>
       <use x="127.246094" xlink:href="#DejaVuSans-48"/>
      </g>
     </g>
    </g>
    <g id="text_17">
     <!-- Percentile -->
     <defs>
      <path d="M 19.671875 64.796875 
L 19.671875 37.40625 
L 32.078125 37.40625 
Q 38.96875 37.40625 42.71875 40.96875 
Q 46.484375 44.53125 46.484375 51.125 
Q 46.484375 57.671875 42.71875 61.234375 
Q 38.96875 64.796875 32.078125 64.796875 
z
M 9.8125 72.90625 
L 32.078125 72.90625 
Q 44.34375 72.90625 50.609375 67.359375 
Q 56.890625 61.8125 56.890625 51.125 
Q 56.890625 40.328125 50.609375 34.8125 
Q 44.34375 29.296875 32.078125 29.296875 
L 19.671875 29.296875 
L 19.671875 0 
L 9.8125 0 
z
" id="DejaVuSans-80"/>
      <path d="M 41.109375 46.296875 
Q 39.59375 47.171875 37.8125 47.578125 
Q 36.03125 48 33.890625 48 
Q 26.265625 48 22.1875 43.046875 
Q 18.109375 38.09375 18.109375 28.8125 
L 18.109375 0 
L 9.078125 0 
L 9.078125 54.6875 
L 18.109375 54.6875 
L 18.109375 46.1875 
Q 20.953125 51.171875 25.484375 53.578125 
Q 30.03125 56 36.53125 56 
Q 37.453125 56 38.578125 55.875 
Q 39.703125 55.765625 41.0625 55.515625 
z
" id="DejaVuSans-114"/>
      <path d="M 48.78125 52.59375 
L 48.78125 44.1875 
Q 44.96875 46.296875 41.140625 47.34375 
Q 37.3125 48.390625 33.40625 48.390625 
Q 24.65625 48.390625 19.8125 42.84375 
Q 14.984375 37.3125 14.984375 27.296875 
Q 14.984375 17.28125 19.8125 11.734375 
Q 24.65625 6.203125 33.40625 6.203125 
Q 37.3125 6.203125 41.140625 7.25 
Q 44.96875 8.296875 48.78125 10.40625 
L 48.78125 2.09375 
Q 45.015625 0.34375 40.984375 -0.53125 
Q 36.96875 -1.421875 32.421875 -1.421875 
Q 20.0625 -1.421875 12.78125 6.34375 
Q 5.515625 14.109375 5.515625 27.296875 
Q 5.515625 40.671875 12.859375 48.328125 
Q 20.21875 56 33.015625 56 
Q 37.15625 56 41.109375 55.140625 
Q 45.0625 54.296875 48.78125 52.59375 
z
" id="DejaVuSans-99"/>
      <path d="M 54.890625 33.015625 
L 54.890625 0 
L 45.90625 0 
L 45.90625 32.71875 
Q 45.90625 40.484375 42.875 44.328125 
Q 39.84375 48.1875 33.796875 48.1875 
Q 26.515625 48.1875 22.3125 43.546875 
Q 18.109375 38.921875 18.109375 30.90625 
L 18.109375 0 
L 9.078125 0 
L 9.078125 54.6875 
L 18.109375 54.6875 
L 18.109375 46.1875 
Q 21.34375 51.125 25.703125 53.5625 
Q 30.078125 56 35.796875 56 
Q 45.21875 56 50.046875 50.171875 
Q 54.890625 44.34375 54.890625 33.015625 
z
" id="DejaVuSans-110"/>
      <path d="M 18.3125 70.21875 
L 18.3125 54.6875 
L 36.8125 54.6875 
L 36.8125 47.703125 
L 18.3125 47.703125 
L 18.3125 18.015625 
Q 18.3125 11.328125 20.140625 9.421875 
Q 21.96875 7.515625 27.59375 7.515625 
L 36.8125 7.515625 
L 36.8125 0 
L 27.59375 0 
Q 17.1875 0 13.234375 3.875 
Q 9.28125 7.765625 9.28125 18.015625 
L 9.28125 47.703125 
L 2.6875 47.703125 
L 2.6875 54.6875 
L 9.28125 54.6875 
L 9.28125 70.21875 
z
" id="DejaVuSans-116"/>
     </defs>
     <g transform="translate(14.798438 180.326469)rotate(-90)scale(0.1 -0.1)">
      <use xlink:href="#DejaVuSans-80"/>
      <use x="60.255859" xlink:href="#DejaVuSans-101"/>
      <use x="121.779297" xlink:href="#DejaVuSans-114"/>
      <use x="162.861328" xlink:href="#DejaVuSans-99"/>
      <use x="217.841797" xlink:href="#DejaVuSans-101"/>
      <use x="279.365234" xlink:href="#DejaVuSans-110"/>
      <use x="342.744141" xlink:href="#DejaVuSans-116"/>
      <use x="381.953125" xlink:href="#DejaVuSans-105"/>
      <use x="409.736328" xlink:href="#DejaVuSans-108"/>
      <use x="437.519531" xlink:href="#DejaVuSans-101"/>
     </g>
    </g>
   </g>
   <g id="line2d_16">
    <path clip-path="url(#p055b0733c4)" d="M -1 287.796623 
L 5.567372 287.746911 
L 6.192532 287.405303 
L 34.418887 287.063696 
L 38.471242 286.380482 
L 43.482651 286.038875 
L 43.614312 285.697267 
L 64.598762 284.672446 
L 65.008142 283.989232 
L 66.110111 283.647624 
L 67.739091 283.306017 
L 72.244546 282.96441 
L 78.734478 282.622803 
L 78.978327 282.281196 
L 80.560779 281.597981 
L 84.267569 281.256374 
L 85.739115 280.914767 
L 86.252381 280.57316 
L 89.783429 280.231552 
L 95.770927 279.889945 
L 96.866819 279.206731 
L 96.968166 278.865124 
L 100.635952 278.523517 
L 100.696606 278.181909 
L 102.34874 277.840302 
L 102.653495 277.498695 
L 102.653495 277.157088 
L 103.740567 276.815481 
L 104.133654 276.473873 
L 108.929098 276.132266 
L 109.548235 275.790659 
L 111.709968 275.449052 
L 119.552337 275.107445 
L 121.947812 274.42423 
L 123.506099 273.741016 
L 125.817798 273.399409 
L 125.930224 273.057802 
L 128.605838 272.716194 
L 132.080467 272.03298 
L 134.3582 271.691373 
L 134.943827 271.008158 
L 135.193949 270.666551 
L 135.618365 270.324944 
L 135.720698 269.983337 
L 136.158029 269.64173 
L 137.766333 269.300122 
L 138.354914 268.958515 
L 139.585889 268.616908 
L 141.571504 267.250479 
L 144.299806 266.908872 
L 144.557213 266.567265 
L 144.560991 266.225658 
L 145.357816 265.884051 
L 146.992969 265.542443 
L 147.491328 265.200836 
L 147.625322 264.859229 
L 148.165307 264.517622 
L 152.231879 263.4928 
L 152.278704 263.151193 
L 153.095014 262.467979 
L 153.548536 262.126371 
L 153.747858 261.10155 
L 154.949684 260.076728 
L 155.074357 259.735121 
L 155.711402 259.393514 
L 156.22633 258.7103 
L 156.681675 258.368692 
L 158.374895 258.027085 
L 159.340563 257.685478 
L 159.623382 257.002264 
L 161.806021 256.319049 
L 163.367887 255.977442 
L 163.510855 255.635835 
L 165.038728 254.611013 
L 165.161451 254.269406 
L 165.568112 253.927799 
L 165.926069 253.244585 
L 170.051122 252.902977 
L 170.284195 252.56137 
L 171.82576 252.219763 
L 172.112333 251.878156 
L 172.765918 251.536549 
L 173.4487 250.853334 
L 173.723225 250.17012 
L 174.321973 249.828513 
L 174.331828 249.486905 
L 174.810634 248.462084 
L 177.751081 248.120477 
L 178.045214 247.77887 
L 178.858123 247.437262 
L 179.330577 246.412441 
L 179.389087 246.070834 
L 179.810097 245.729226 
L 180.022014 244.704405 
L 180.295107 244.362798 
L 180.588621 243.679583 
L 181.433796 243.337976 
L 182.456265 242.313155 
L 184.197689 241.62994 
L 185.073499 240.946726 
L 186.340396 240.605119 
L 186.989704 240.263511 
L 187.068477 239.921904 
L 187.352193 239.580297 
L 187.491089 238.897083 
L 187.957625 238.213868 
L 188.625222 236.505832 
L 189.947382 236.164225 
L 190.055434 235.822618 
L 190.477555 235.481011 
L 191.450368 235.139404 
L 191.718178 234.797796 
L 193.076933 234.456189 
L 193.606331 233.431368 
L 194.129259 232.748153 
L 194.493969 231.723332 
L 195.0976 230.69851 
L 195.484824 230.356903 
L 195.575558 230.015296 
L 196.013664 229.673689 
L 196.064605 229.332081 
L 196.377618 228.648867 
L 196.4947 227.965653 
L 196.595023 227.282438 
L 196.758276 226.599224 
L 197.85628 225.232795 
L 198.171813 224.891188 
L 198.232657 224.549581 
L 198.433913 224.207974 
L 198.692102 222.841545 
L 199.63009 222.499938 
L 200.020521 222.15833 
L 200.220638 221.816723 
L 200.22643 221.475116 
L 201.099668 220.108687 
L 201.162862 219.76708 
L 201.494724 219.425473 
L 201.541238 218.742259 
L 201.990191 218.059044 
L 202.235893 217.717437 
L 202.827065 217.37583 
L 203.33191 216.692615 
L 203.514498 216.351008 
L 203.539899 216.009401 
L 204.370219 215.326187 
L 204.542058 214.301365 
L 205.108214 213.959758 
L 205.160342 213.276543 
L 205.294699 212.934936 
L 205.57367 212.593329 
L 205.846245 211.568508 
L 206.067203 211.2269 
L 206.106251 210.885293 
L 206.292439 210.543686 
L 206.884459 210.202079 
L 206.947398 209.860472 
L 207.848299 209.518864 
L 207.917131 209.177257 
L 208.369585 208.83565 
L 208.570777 208.152436 
L 208.628627 207.469221 
L 208.742087 206.786007 
L 208.824887 206.102793 
L 209.16186 204.394757 
L 209.83396 202.345113 
L 210.968307 201.320292 
L 211.130154 200.637078 
L 211.718397 197.90422 
L 211.865693 196.879398 
L 212.564986 195.854577 
L 212.835206 194.146541 
L 212.835206 193.804934 
L 213.186133 192.780112 
L 213.19857 192.438505 
L 213.664162 191.413683 
L 214.067161 189.022433 
L 214.302943 188.680826 
L 214.668388 186.289576 
L 214.852925 185.947968 
L 215.077829 184.239932 
L 215.252 183.898325 
L 215.405635 182.531897 
L 215.714251 182.190289 
L 215.851829 181.848682 
L 215.979423 181.165468 
L 216.13061 180.140646 
L 216.800819 178.43261 
L 216.920086 177.407789 
L 216.942219 177.066181 
L 217.136449 176.724574 
L 217.217579 176.04136 
L 217.419774 175.699753 
L 217.420624 175.358146 
L 217.555174 174.674931 
L 217.559282 174.333324 
L 217.832237 173.991717 
L 217.912688 173.308502 
L 218.438855 170.575645 
L 218.595107 169.892431 
L 218.876624 169.550823 
L 219.177018 168.526002 
L 219.346314 168.184395 
L 219.39438 167.50118 
L 219.708652 166.476359 
L 220.021157 166.134751 
L 220.451868 162.71868 
L 220.686167 162.035465 
L 220.693492 161.693858 
L 220.946596 161.352251 
L 221.065699 160.327429 
L 221.210283 159.644215 
L 221.343663 158.277786 
L 221.588586 157.936179 
L 221.752008 157.252965 
L 221.942779 156.911357 
L 221.948162 156.56975 
L 222.146138 155.886536 
L 222.304554 155.203321 
L 222.502707 154.520107 
L 222.80535 153.495285 
L 222.870293 152.470464 
L 223.155918 151.445642 
L 223.613574 149.054392 
L 224.095419 147.346356 
L 224.182227 145.296713 
L 224.772467 144.613499 
L 224.797732 143.930284 
L 225.000903 143.588677 
L 225.138368 142.905463 
L 225.550239 141.880641 
L 225.746612 141.539034 
L 225.784476 140.514212 
L 226.059437 139.489391 
L 226.466149 136.414926 
L 226.724944 136.073319 
L 227.197094 134.023676 
L 227.505149 133.340461 
L 227.548883 132.998854 
L 227.936022 132.31564 
L 228.032801 131.632425 
L 228.445229 130.949211 
L 228.812309 128.557961 
L 228.965382 127.533139 
L 229.111749 127.191532 
L 229.525526 126.849925 
L 230.152166 123.433853 
L 230.483065 122.750638 
L 230.523685 122.067424 
L 230.751754 121.725817 
L 230.807281 121.38421 
L 231.162256 120.700995 
L 231.233043 120.017781 
L 232.239089 119.676174 
L 232.26647 118.992959 
L 232.778059 117.626531 
L 232.872011 116.943316 
L 232.908606 116.601709 
L 233.111509 116.260102 
L 233.184685 115.918495 
L 233.500618 115.23528 
L 233.697335 114.552066 
L 233.898286 114.210459 
L 234.004426 113.527244 
L 234.826678 109.769565 
L 235.612468 108.744744 
L 235.742383 107.719922 
L 235.933917 107.378315 
L 236.093478 105.670279 
L 236.550674 103.962243 
L 236.608958 103.279029 
L 236.748057 102.937422 
L 236.84562 102.254207 
L 237.117971 101.570993 
L 237.318303 101.229386 
L 237.400725 100.204564 
L 237.556187 99.52135 
L 237.605314 98.838135 
L 237.963832 98.496528 
L 238.094327 97.813314 
L 238.506409 96.446885 
L 238.908356 96.105278 
L 239.028628 95.763671 
L 239.299954 95.422063 
L 239.884286 93.714027 
L 240.21505 93.030813 
L 240.254832 92.347599 
L 240.474566 91.664384 
L 240.520676 91.322777 
L 240.941439 90.98117 
L 241.068996 89.956348 
L 241.559281 87.906705 
L 241.826542 87.565098 
L 241.909598 86.881884 
L 242.44652 86.540276 
L 242.44652 86.198669 
L 242.836337 85.857062 
L 243.809989 83.124205 
L 244.588158 82.782597 
L 244.69866 82.44099 
L 245.024887 82.099383 
L 245.205456 81.416169 
L 245.524225 81.074561 
L 245.634872 80.391347 
L 246.292919 79.708133 
L 246.610211 78.683311 
L 247.598139 78.341704 
L 248.035392 77.65849 
L 248.045314 77.316882 
L 249.131831 76.975275 
L 249.639158 76.633668 
L 250.16477 75.267239 
L 250.610964 74.925632 
L 250.835104 74.584025 
L 251.421181 74.242418 
L 251.458889 73.90081 
L 252.337188 73.559203 
L 252.537991 73.217596 
L 252.598796 72.875989 
L 253.152742 72.534382 
L 253.358299 72.192775 
L 253.536405 71.167953 
L 253.926533 70.826346 
L 253.975643 70.484739 
L 254.372025 70.143131 
L 254.509034 69.801524 
L 254.792999 69.459917 
L 254.849477 69.11831 
L 255.853016 68.435095 
L 256.560907 67.068667 
L 257.267317 66.385452 
L 258.107887 66.043845 
L 258.124119 65.702238 
L 260.78954 65.019024 
L 261.260993 64.677416 
L 261.681819 63.652595 
L 262.08923 63.310988 
L 262.224653 62.96938 
L 262.634795 62.627773 
L 262.650284 62.286166 
L 262.805761 61.944559 
L 263.385147 61.602952 
L 263.900786 60.919737 
L 263.923605 60.57813 
L 264.061166 60.236523 
L 264.977707 59.553309 
L 265.082586 59.211701 
L 265.785823 58.870094 
L 268.910166 58.18688 
L 269.023679 57.845273 
L 269.439142 57.503665 
L 270.233866 57.162058 
L 270.31415 56.478844 
L 270.330651 56.137237 
L 271.888602 55.795629 
L 271.914756 55.454022 
L 272.152699 55.112415 
L 274.225394 54.770808 
L 274.804299 54.429201 
L 274.9445 53.745986 
L 276.668888 53.404379 
L 276.698895 53.062772 
L 277.531599 52.721165 
L 277.990966 52.379558 
L 278.254796 52.03795 
L 279.513476 51.354736 
L 281.140047 51.013129 
L 281.151823 50.671522 
L 282.501773 49.988307 
L 284.809743 49.305093 
L 285.205396 48.963486 
L 285.34899 48.621879 
L 286.164218 47.938664 
L 287.633395 47.597057 
L 288.232181 46.913843 
L 290.353054 46.572235 
L 293.608764 46.230628 
L 294.405134 45.889021 
L 295.634364 44.864199 
L 296.236742 44.522592 
L 296.32257 44.180985 
L 297.084677 43.497771 
L 297.374915 43.156164 
L 298.516764 42.814556 
L 299.075364 42.131342 
L 300.008455 41.789735 
L 300.093143 41.448128 
L 301.132655 40.764913 
L 303.003396 40.423306 
L 307.02011 40.081699 
L 310.320679 39.398484 
L 315.518657 39.056877 
L 316.900882 38.71527 
L 319.30078 38.373663 
L 319.764016 38.032056 
L 321.452347 37.690448 
L 321.711111 37.348841 
L 323.602075 36.665627 
L 323.615137 36.32402 
L 324.034275 35.982413 
L 331.599565 35.640805 
L 336.291005 34.957591 
L 336.619193 34.615984 
L 337.277067 34.274377 
L 339.619594 33.591162 
L 349.952363 33.249555 
L 352.267983 32.907948 
L 353.077242 32.566341 
L 356.613474 32.224733 
L 358.364242 31.883126 
L 366.914066 31.541519 
L 368.704347 31.199912 
L 369.120052 30.858305 
L 372.269473 30.17509 
L 372.82931 29.833483 
L 377.354153 29.491876 
L 378.784734 29.150269 
L 396.620986 28.467054 
L 401.232346 28.125447 
L 402.765826 27.78384 
L 405.691599 27.442233 
L 406.515405 27.100626 
L 418.654112 26.891164 
L 418.654112 26.891164 
" style="fill:none;stroke:#1f77b4;stroke-linecap:square;stroke-width:1.5;"/>
   </g>
   <g id="line2d_17">
    <path clip-path="url(#p055b0733c4)" d="M 225.525625 288.430125 
L 225.525625 22.318125 
" style="fill:none;stroke:#808080;stroke-dasharray:5.55,2.4;stroke-dashoffset:0;stroke-opacity:0.4;stroke-width:1.5;"/>
   </g>
   <g id="line2d_18">
    <path clip-path="url(#p055b0733c4)" d="M 46.965625 155.374125 
L 225.525625 155.374125 
" style="fill:none;stroke:#808080;stroke-dasharray:5.55,2.4;stroke-dashoffset:0;stroke-opacity:0.4;stroke-width:1.5;"/>
   </g>
   <g id="patch_3">
    <path d="M 46.965625 288.430125 
L 46.965625 22.318125 
" style="fill:none;stroke:#000000;stroke-linecap:square;stroke-linejoin:miter;stroke-width:0.8;"/>
   </g>
   <g id="patch_4">
    <path d="M 404.085625 288.430125 
L 404.085625 22.318125 
" style="fill:none;stroke:#000000;stroke-linecap:square;stroke-linejoin:miter;stroke-width:0.8;"/>
   </g>
   <g id="patch_5">
    <path d="M 46.965625 288.430125 
L 404.085625 288.430125 
" style="fill:none;stroke:#000000;stroke-linecap:square;stroke-linejoin:miter;stroke-width:0.8;"/>
   </g>
   <g id="patch_6">
    <path d="M 46.965625 22.318125 
L 404.085625 22.318125 
" style="fill:none;stroke:#000000;stroke-linecap:square;stroke-linejoin:miter;stroke-width:0.8;"/>
   </g>
   <g id="text_18">
    <!-- Cumulative Residual -->
    <defs>
     <path d="M 64.40625 67.28125 
L 64.40625 56.890625 
Q 59.421875 61.53125 53.78125 63.8125 
Q 48.140625 66.109375 41.796875 66.109375 
Q 29.296875 66.109375 22.65625 58.46875 
Q 16.015625 50.828125 16.015625 36.375 
Q 16.015625 21.96875 22.65625 14.328125 
Q 29.296875 6.6875 41.796875 6.6875 
Q 48.140625 6.6875 53.78125 8.984375 
Q 59.421875 11.28125 64.40625 15.921875 
L 64.40625 5.609375 
Q 59.234375 2.09375 53.4375 0.328125 
Q 47.65625 -1.421875 41.21875 -1.421875 
Q 24.65625 -1.421875 15.125 8.703125 
Q 5.609375 18.84375 5.609375 36.375 
Q 5.609375 53.953125 15.125 64.078125 
Q 24.65625 74.21875 41.21875 74.21875 
Q 47.75 74.21875 53.53125 72.484375 
Q 59.328125 70.75 64.40625 67.28125 
z
" id="DejaVuSans-67"/>
     <path d="M 52 44.1875 
Q 55.375 50.25 60.0625 53.125 
Q 64.75 56 71.09375 56 
Q 79.640625 56 84.28125 50.015625 
Q 88.921875 44.046875 88.921875 33.015625 
L 88.921875 0 
L 79.890625 0 
L 79.890625 32.71875 
Q 79.890625 40.578125 77.09375 44.375 
Q 74.3125 48.1875 68.609375 48.1875 
Q 61.625 48.1875 57.5625 43.546875 
Q 53.515625 38.921875 53.515625 30.90625 
L 53.515625 0 
L 44.484375 0 
L 44.484375 32.71875 
Q 44.484375 40.625 41.703125 44.40625 
Q 38.921875 48.1875 33.109375 48.1875 
Q 26.21875 48.1875 22.15625 43.53125 
Q 18.109375 38.875 18.109375 30.90625 
L 18.109375 0 
L 9.078125 0 
L 9.078125 54.6875 
L 18.109375 54.6875 
L 18.109375 46.1875 
Q 21.1875 51.21875 25.484375 53.609375 
Q 29.78125 56 35.6875 56 
Q 41.65625 56 45.828125 52.96875 
Q 50 49.953125 52 44.1875 
z
" id="DejaVuSans-109"/>
     <path d="M 2.984375 54.6875 
L 12.5 54.6875 
L 29.59375 8.796875 
L 46.6875 54.6875 
L 56.203125 54.6875 
L 35.6875 0 
L 23.484375 0 
z
" id="DejaVuSans-118"/>
     <path id="DejaVuSans-32"/>
    </defs>
    <g transform="translate(163.76875 16.318125)scale(0.12 -0.12)">
     <use xlink:href="#DejaVuSans-67"/>
     <use x="69.824219" xlink:href="#DejaVuSans-117"/>
     <use x="133.203125" xlink:href="#DejaVuSans-109"/>
     <use x="230.615234" xlink:href="#DejaVuSans-117"/>
     <use x="293.994141" xlink:href="#DejaVuSans-108"/>
     <use x="321.777344" xlink:href="#DejaVuSans-97"/>
     <use x="383.056641" xlink:href="#DejaVuSans-116"/>
     <use x="422.265625" xlink:href="#DejaVuSans-105"/>
     <use x="450.048828" xlink:href="#DejaVuSans-118"/>
     <use x="509.228516" xlink:href="#DejaVuSans-101"/>
     <use x="570.751953" xlink:href="#DejaVuSans-32"/>
     <use x="602.539062" xlink:href="#DejaVuSans-82"/>
     <use x="671.958984" xlink:href="#DejaVuSans-101"/>
     <use x="733.482422" xlink:href="#DejaVuSans-115"/>
     <use x="785.582031" xlink:href="#DejaVuSans-105"/>
     <use x="813.365234" xlink:href="#DejaVuSans-100"/>
     <use x="876.841797" xlink:href="#DejaVuSans-117"/>
     <use x="940.220703" xlink:href="#DejaVuSans-97"/>
     <use x="1001.5" xlink:href="#DejaVuSans-108"/>
    </g>
   </g>
   <g id="legend_1"/>
  </g>
 </g>
 <defs>
  <clipPath id="p055b0733c4">
   <rect height="266.112" width="357.12" x="46.965625" y="22.318125"/>
  </clipPath>
 </defs>
</svg>
