<svg xmlns="http://www.w3.org/2000/svg" xmlns:xlink="http://www.w3.org/1999/xlink" width="710.442" height="639.905" viewBox="0 0 532.831 479.929"><defs><style>*{stroke-linecap:butt;stroke-linejoin:round}</style></defs><g id="figure_1"><path id="patch_1" fill="#fff" d="M0 479.929h532.831V0H0z"/><g id="axes_1"><path id="patch_2" fill="#fff" d="M79.231 419.516h446.4V31.436h-446.4z"/><g id="matplotlib.axis_1"><g id="xtick_1"><g id="line2d_1"><defs><path id="md872564747" stroke="#000" stroke-width="2.5" d="M0 0v7"/></defs><use xlink:href="#md872564747" x="79.231" y="419.516" stroke="#000" stroke-width="2.5"/></g><g id="text_1"><defs><path id="DejaVuSans-48" d="M31.781 66.406q-7.61 0-11.453-7.5Q16.5 51.422 16.5 36.375q0-14.984 3.828-22.484 3.844-7.5 11.453-7.5 7.672 0 11.5 7.5 3.844 7.5 3.844 22.484 0 15.047-3.844 22.531-3.828 7.5-11.5 7.5zm0 7.813q12.266 0 18.735-9.703 6.468-9.688 6.468-28.141 0-18.406-6.468-28.11-6.47-9.687-18.735-9.687-12.25 0-18.718 9.688-6.47 9.703-6.47 28.109 0 18.453 6.47 28.14Q19.53 74.22 31.78 74.22z"/><path id="DejaVuSans-46" d="M10.688 12.406H21V0H10.687z"/></defs><g transform="matrix(.2 0 0 -.2 63.328 445.213)"><use xlink:href="#DejaVuSans-48"/><use xlink:href="#DejaVuSans-46" x="63.623"/><use xlink:href="#DejaVuSans-48" x="95.41"/></g></g></g><g id="xtick_2"><use xlink:href="#md872564747" id="line2d_2" x="156.468" y="419.516" stroke="#000" stroke-width="2.5"/><g id="text_2"><defs><path id="DejaVuSans-50" d="M19.188 8.297h34.421V0H7.33v8.297q5.609 5.812 15.296 15.594 9.703 9.797 12.188 12.64 4.734 5.313 6.609 9 1.89 3.688 1.89 7.25 0 5.813-4.078 9.469-4.078 3.672-10.625 3.672-4.64 0-9.797-1.61-5.14-1.609-11-4.89v9.969Q13.767 71.78 18.938 73q5.188 1.219 9.485 1.219 11.328 0 18.062-5.672 6.735-5.656 6.735-15.125 0-4.5-1.688-8.531-1.672-4.016-6.125-9.485-1.218-1.422-7.765-8.187-6.532-6.766-18.453-18.922z"/></defs><g transform="matrix(.2 0 0 -.2 140.565 445.213)"><use xlink:href="#DejaVuSans-48"/><use xlink:href="#DejaVuSans-46" x="63.623"/><use xlink:href="#DejaVuSans-50" x="95.41"/></g></g></g><g id="xtick_3"><use xlink:href="#md872564747" id="line2d_3" x="233.704" y="419.516" stroke="#000" stroke-width="2.5"/><g id="text_3"><defs><path id="DejaVuSans-52" d="M37.797 64.313 12.89 25.39h24.906zm-2.594 8.593H47.61V25.391h10.407v-8.203H47.609V0h-9.812v17.188H4.89v9.515z"/></defs><g transform="matrix(.2 0 0 -.2 217.801 445.213)"><use xlink:href="#DejaVuSans-48"/><use xlink:href="#DejaVuSans-46" x="63.623"/><use xlink:href="#DejaVuSans-52" x="95.41"/></g></g></g><g id="xtick_4"><use xlink:href="#md872564747" id="line2d_4" x="310.941" y="419.516" stroke="#000" stroke-width="2.5"/><g id="text_4"><defs><path id="DejaVuSans-54" d="M33.016 40.375q-6.641 0-10.532-4.547-3.875-4.531-3.875-12.437 0-7.86 3.875-12.438 3.891-4.562 10.532-4.562 6.64 0 10.515 4.562 3.875 4.578 3.875 12.438 0 7.906-3.875 12.437-3.875 4.547-10.515 4.547zm19.578 30.922v-8.984q-3.719 1.75-7.5 2.671-3.782.938-7.5.938-9.766 0-14.922-6.594-5.14-6.594-5.875-19.922 2.875 4.25 7.219 6.516 4.359 2.266 9.578 2.266 10.984 0 17.36-6.672 6.374-6.657 6.374-18.125 0-11.235-6.64-18.032-6.641-6.78-17.672-6.78-12.657 0-19.344 9.687-6.688 9.703-6.688 28.109 0 17.281 8.204 27.563 8.203 10.28 22.015 10.28 3.719 0 7.5-.734t7.89-2.187z"/></defs><g transform="matrix(.2 0 0 -.2 295.038 445.213)"><use xlink:href="#DejaVuSans-48"/><use xlink:href="#DejaVuSans-46" x="63.623"/><use xlink:href="#DejaVuSans-54" x="95.41"/></g></g></g><g id="xtick_5"><use xlink:href="#md872564747" id="line2d_5" x="388.177" y="419.516" stroke="#000" stroke-width="2.5"/><g id="text_5"><defs><path id="DejaVuSans-56" d="M31.781 34.625q-7.031 0-11.062-3.766-4.016-3.765-4.016-10.343 0-6.594 4.016-10.36Q24.75 6.391 31.78 6.391q7.032 0 11.078 3.78 4.063 3.798 4.063 10.345 0 6.578-4.031 10.343-4.016 3.766-11.11 3.766zm-9.86 4.188q-6.343 1.562-9.89 5.906Q8.5 49.079 8.5 55.329q0 8.733 6.219 13.812 6.234 5.078 17.062 5.078 10.89 0 17.094-5.078 6.203-5.079 6.203-13.813 0-6.25-3.547-10.61-3.531-4.343-9.828-5.906 7.125-1.656 11.094-6.5 3.984-4.828 3.984-11.796 0-10.61-6.468-16.282-6.47-5.656-18.532-5.656-12.047 0-18.531 5.656-6.469 5.672-6.469 16.282 0 6.968 4 11.797 4.016 4.843 11.14 6.5zM18.314 54.39q0-5.657 3.53-8.828 3.548-3.172 9.938-3.172 6.36 0 9.938 3.172 3.593 3.171 3.593 8.828 0 5.672-3.593 8.843-3.578 3.172-9.938 3.172-6.39 0-9.937-3.172-3.532-3.172-3.532-8.843z"/></defs><g transform="matrix(.2 0 0 -.2 372.274 445.213)"><use xlink:href="#DejaVuSans-48"/><use xlink:href="#DejaVuSans-46" x="63.623"/><use xlink:href="#DejaVuSans-56" x="95.41"/></g></g></g><g id="xtick_6"><use xlink:href="#md872564747" id="line2d_6" x="465.414" y="419.516" stroke="#000" stroke-width="2.5"/><g id="text_6"><defs><path id="DejaVuSans-49" d="M12.406 8.297h16.11v55.625l-17.532-3.516v8.985l17.438 3.515h9.86V8.296H54.39V0H12.406z"/></defs><g transform="matrix(.2 0 0 -.2 449.51 445.213)"><use xlink:href="#DejaVuSans-49"/><use xlink:href="#DejaVuSans-46" x="63.623"/><use xlink:href="#DejaVuSans-48" x="95.41"/></g></g></g><g id="text_7"><defs><path id="DejaVuSans-65" d="M34.188 63.188 20.797 26.906h26.812zm-5.579 9.718h11.188L67.578 0h-10.25l-6.64 18.703h-32.86L11.188 0H.78z"/><path id="DejaVuSans-98" d="M48.688 27.297q0 9.906-4.079 15.547-4.078 5.64-11.203 5.64-7.14 0-11.218-5.64-4.079-5.64-4.079-15.547 0-9.906 4.078-15.547 4.079-5.64 11.22-5.64 7.124 0 11.202 5.64t4.078 15.547zM18.108 46.39q2.844 4.875 7.157 7.234Q29.594 56 35.594 56q9.968 0 16.187-7.906 6.235-7.907 6.235-20.797T51.78 6.484q-6.218-7.906-16.187-7.906-6 0-10.328 2.375-4.313 2.375-7.157 7.25V0H9.08v75.984h9.03z"/><path id="DejaVuSans-115" d="M44.281 53.078v-8.5q-3.797 1.953-7.906 2.922-4.094.984-8.5.984-6.688 0-10.031-2.047-3.344-2.046-3.344-6.156 0-3.125 2.39-4.906 2.391-1.781 9.626-3.39l3.078-.688q9.562-2.047 13.593-5.781 4.032-3.735 4.032-10.422 0-7.625-6.032-12.078-6.03-4.438-16.578-4.438-4.39 0-9.156.86Q10.688.296 5.422 2v9.281q4.984-2.594 9.812-3.89 4.829-1.282 9.579-1.282 6.343 0 9.75 2.172 3.421 2.172 3.421 6.125 0 3.656-2.468 5.61-2.453 1.953-10.813 3.765l-3.125.735q-8.344 1.75-12.062 5.39-3.704 3.64-3.704 9.985 0 7.718 5.47 11.906Q16.75 56 26.811 56q4.97 0 9.36-.734 4.406-.72 8.11-2.188z"/><path id="DejaVuSans-111" d="M30.61 48.39q-7.22 0-11.422-5.64-4.204-5.64-4.204-15.453 0-9.813 4.172-15.453 4.188-5.64 11.453-5.64 7.188 0 11.375 5.655 4.203 5.672 4.203 15.438 0 9.719-4.203 15.406-4.187 5.688-11.375 5.688zm0 7.61q11.718 0 18.406-7.625 6.703-7.61 6.703-21.078 0-13.422-6.703-21.078-6.688-7.64-18.407-7.64-11.765 0-18.437 7.64-6.656 7.656-6.656 21.078 0 13.469 6.656 21.078Q18.844 56 30.609 56z"/><path id="DejaVuSans-108" d="M9.422 75.984h8.984V0H9.422z"/><path id="DejaVuSans-117" d="M8.5 21.578v33.11h8.984V21.922q0-7.766 3.016-11.656 3.031-3.875 9.094-3.875 7.265 0 11.484 4.64 4.234 4.64 4.234 12.656v31h8.985V0h-8.984v8.406Q42.047 3.422 37.718 1q-4.313-2.422-10.032-2.422-9.421 0-14.312 5.86Q8.5 10.296 8.5 21.578zM31.11 56z"/><path id="DejaVuSans-116" d="M18.313 70.219V54.688h18.5v-6.985h-18.5V18.016q0-6.688 1.828-8.594 1.828-1.906 7.453-1.906h9.218V0h-9.218q-10.407 0-14.36 3.875-3.953 3.89-3.953 14.14v29.688H2.687v6.984h6.594V70.22z"/><path id="DejaVuSans-101" d="M56.203 29.594v-4.39H14.891q.593-9.282 5.593-14.142 5-4.859 13.938-4.859 5.172 0 10.031 1.266 4.86 1.265 9.656 3.812v-8.5Q49.266.734 44.187-.344 39.11-1.422 33.892-1.422q-13.094 0-20.735 7.61-7.64 7.625-7.64 20.625 0 13.421 7.25 21.296Q20.016 56 32.328 56q11.031 0 17.453-7.11 6.422-7.093 6.422-19.296zm-8.984 2.64q-.094 7.36-4.125 11.75-4.032 4.407-10.672 4.407-7.516 0-12.031-4.25-4.516-4.25-5.203-11.97z"/><path id="DejaVuSans-69" d="M9.813 72.906h46.093v-8.312H19.672V43.016H54.39v-8.297H19.67V8.297h37.11V0H9.813z"/><path id="DejaVuSans-114" d="M41.11 46.297q-1.516.875-3.297 1.281Q36.03 48 33.89 48q-7.625 0-11.703-4.953-4.079-4.953-4.079-14.234V0H9.08v54.688h9.03v-8.5q2.844 4.984 7.375 7.39Q30.031 56 36.531 56q.922 0 2.047-.125 1.125-.11 2.484-.36z"/></defs><g transform="matrix(.2 0 0 -.2 230.781 468.57)"><use xlink:href="#DejaVuSans-65"/><use xlink:href="#DejaVuSans-98" x="68.408"/><use xlink:href="#DejaVuSans-115" x="131.885"/><use xlink:href="#DejaVuSans-111" x="183.984"/><use xlink:href="#DejaVuSans-108" x="245.166"/><use xlink:href="#DejaVuSans-117" x="272.949"/><use xlink:href="#DejaVuSans-116" x="336.328"/><use xlink:href="#DejaVuSans-101" x="375.537"/><use xlink:href="#DejaVuSans-32" x="437.061"/><use xlink:href="#DejaVuSans-69" x="468.848"/><use xlink:href="#DejaVuSans-114" x="532.031"/><use xlink:href="#DejaVuSans-114" x="573.129"/><use xlink:href="#DejaVuSans-111" x="614.211"/><use xlink:href="#DejaVuSans-114" x="675.393"/></g></g></g><g id="matplotlib.axis_2"><g id="ytick_1"><g id="line2d_7"><defs><path id="m3a25111f84" stroke="#000" stroke-width="2.5" d="M0 0h-7"/></defs><use xlink:href="#m3a25111f84" x="79.231" y="419.516" stroke="#000" stroke-width="2.5"/></g><use xlink:href="#DejaVuSans-48" id="text_8" transform="matrix(.2 0 0 -.2 56.006 427.115)"/></g><g id="ytick_2"><use xlink:href="#m3a25111f84" id="line2d_8" x="79.231" y="341.9" stroke="#000" stroke-width="2.5"/><g id="text_9" transform="matrix(.2 0 0 -.2 43.281 349.499)"><use xlink:href="#DejaVuSans-50"/><use xlink:href="#DejaVuSans-48" x="63.623"/></g></g><g id="ytick_3"><use xlink:href="#m3a25111f84" id="line2d_9" x="79.231" y="264.284" stroke="#000" stroke-width="2.5"/><g id="text_10" transform="matrix(.2 0 0 -.2 43.281 271.883)"><use xlink:href="#DejaVuSans-52"/><use xlink:href="#DejaVuSans-48" x="63.623"/></g></g><g id="ytick_4"><use xlink:href="#m3a25111f84" id="line2d_10" x="79.231" y="186.668" stroke="#000" stroke-width="2.5"/><g id="text_11" transform="matrix(.2 0 0 -.2 43.281 194.267)"><use xlink:href="#DejaVuSans-54"/><use xlink:href="#DejaVuSans-48" x="63.623"/></g></g><g id="ytick_5"><use xlink:href="#m3a25111f84" id="line2d_11" x="79.231" y="109.052" stroke="#000" stroke-width="2.5"/><g id="text_12" transform="matrix(.2 0 0 -.2 43.281 116.65)"><use xlink:href="#DejaVuSans-56"/><use xlink:href="#DejaVuSans-48" x="63.623"/></g></g><g id="ytick_6"><use xlink:href="#m3a25111f84" id="line2d_12" x="79.231" y="31.436" stroke="#000" stroke-width="2.5"/><g id="text_13" transform="matrix(.2 0 0 -.2 30.556 39.035)"><use xlink:href="#DejaVuSans-49"/><use xlink:href="#DejaVuSans-48" x="63.623"/><use xlink:href="#DejaVuSans-48" x="127.246"/></g></g><g id="text_14"><defs><path id="DejaVuSans-80" d="M19.672 64.797v-27.39h12.406q6.89 0 10.64 3.562 3.766 3.562 3.766 10.156 0 6.547-3.765 10.11-3.75 3.562-10.64 3.562zm-9.86 8.11h22.266q12.266 0 18.531-5.548 6.282-5.546 6.282-16.234 0-10.797-6.282-16.313-6.265-5.515-18.53-5.515H19.671V0h-9.86z"/><path id="DejaVuSans-99" d="M48.781 52.594v-8.407q-3.812 2.11-7.64 3.157-3.828 1.047-7.735 1.047-8.75 0-13.593-5.547-4.829-5.532-4.829-15.547 0-10.016 4.829-15.563 4.843-5.53 13.593-5.53 3.907 0 7.735 1.046 3.828 1.047 7.64 3.156V2.094Q45.016.344 40.984-.531q-4.015-.89-8.562-.89-12.36 0-19.64 7.765-7.266 7.765-7.266 20.953 0 13.375 7.343 21.031Q20.22 56 33.016 56q4.14 0 8.093-.86 3.953-.843 7.672-2.546z"/><path id="DejaVuSans-110" d="M54.89 33.016V0h-8.984v32.719q0 7.765-3.031 11.61-3.031 3.858-9.078 3.858-7.281 0-11.484-4.64-4.204-4.625-4.204-12.64V0H9.08v54.688h9.03v-8.5q3.235 4.937 7.594 7.374Q30.078 56 35.797 56q9.422 0 14.25-5.828 4.844-5.828 4.844-17.156z"/><path id="DejaVuSans-105" d="M9.422 54.688h8.984V0H9.422zm0 21.296h8.984v-11.39H9.422z"/></defs><g transform="matrix(0 -.2 -.2 0 22.397 275.38)"><use xlink:href="#DejaVuSans-80"/><use xlink:href="#DejaVuSans-101" x="60.256"/><use xlink:href="#DejaVuSans-114" x="121.779"/><use xlink:href="#DejaVuSans-99" x="162.861"/><use xlink:href="#DejaVuSans-101" x="217.842"/><use xlink:href="#DejaVuSans-110" x="279.365"/><use xlink:href="#DejaVuSans-116" x="342.744"/><use xlink:href="#DejaVuSans-105" x="381.953"/><use xlink:href="#DejaVuSans-108" x="409.736"/><use xlink:href="#DejaVuSans-101" x="437.52"/></g></g></g><path id="line2d_13" fill="none" stroke="#1f77b4" stroke-linecap="square" stroke-width="1.5" d="m79.286 419.516.436-.498.116-2.49.235-.499.019-.498.266-.997.185-1.992.26-.498.357-3.488.16-.498.001-.498.221-.498.354-.498.32-.997.216-3.985.131-.996.35-.499.09-1.494.243-.498.234-.997.247-.996.07-.498.26-.498.278-1.993.252-1.495.272-1.992.273-.499.138-.996.031-.996.358-.498.412-2.99.19-.498.128-1.494.486-3.986.306-.498.019-.996.416-.498.364-.997.453-1.992.122-.997.075-1.494.19-.997.692-4.981.42-.499.053-.996.203-.498.317-1.993.434-2.49.218-1.993.213-.997.092-.996.294-.498.157-.997.942-1.992.107-.997.768-.996.48-2.491.345-.498.076-.498.347-.997.17-1.494.199-.997.082-.996.897-4.982v-.498l.389-.498.218-.498.126-1.993.182-.498.002-.498.146-.498.303-.499.144-.498.036-1.494.344-.997.133-.996.12-1.993.15-.996.4-.996.462-2.99.018-.498.284-.498 1.25-4.982.612-.498.288-2.49.127-1.495.299-.498.24-3.488.115-.498v-.498l.233-.996.012-.997.285-.498.324-1.494.076-1.495.525-3.487.013-.498.51-1.495.202-.996.323-1.495.218-.996.231-2.99.242-.497.282-1.993.433-.498.027-.997.44-.996.25-1.495.09-.996.003-.498.226-.996.018-.499.194-.498.204-1.494.24-.498.653-.499.268-.996.579-.996.223-2.491.04-.498.208-.499.068-.996.251-.498.012-.498.155-.498.003-.499.259-.498.185-.996.281-.498.078-.997.294-.498.088-.996.35-.498.241-1.495.588-.498.347-.498.037-.997.391-.996.542-3.487.27-.498.133-.997.48-.498.253-1.495.238-1.494.357-.498.154-.997.172-.498.04-.996.224-.498.278-2.491 1.282-1.993.021-.498.153-.498.133-.997 1.216-1.992.653-.498.14-.499.936-.498.88-1.993.09-.498.276-.498.125-.498v-.498l.28-.498.675-2.491.569-.997.233-1.494.66-.498.18-.499.3-.498.18-.996.045-.996.158-.499.739-.498 1.106-.498.192-.996.972-1.993.022-.498.398-.498 1.313-.499.546-.498.346-.996.652-.498.103-.997.482-.996.256-.498.322-1.993.292-.498.936-.996.055-.499.475-.498.023-.996.435-.498.867-.498.084-.997 1.952-.498.049-.996.304-.499.27-1.992.447-.498.135-.499.607-.498.094-.498.363-.498.396-1.993.866-.996.279-.997.536-.498.261-.996.324-1.993.054-.498.462-.996.01-.498.125-.499.305-.498.113-.498.873-.498.302-.997.637-.498.619-1.494.41-.498.164-.997.372-.498.008-.498.518-.498.068-.498.984-1.993.394-.498.612-.499.565-.996.297-.498.036-.498 2.686-.498.595-.499.08-.498 2.082-.498.938-.996.589-.997.935-1.494.905-.498.301-.499.912-.996.068-.996.3-.498.012-.499.64-1.494.403-.498.244-.499.389-.498.32-1.494.437-.498.182-.997.174-.498.001-.498 1.164-.498.279-.498.593-.499.233-.498 1.562-.498.427-.498 2.692-1.495 1.046-.498 2.077-.498.7-.498.194-.498.06-.499.647-.498.671-.996 1.37-.498.162-.498.053-.997.946-1.494.607-.499.11-.498.36-.996.936-.498.13-.498.373-.499.106-.996.57-1.494 1.807-.499.654-.498 2.056-.498 1.286-.498.311-.997 2.88-.498.503-.498.45-.996.133-1.495 1.33-.498.301-.498.31-.996.784-.499.079-.498.586-.498.068-.498 1.126-.498.326-.499 1.277-.996 2.785-.498.518-.498.311-.498.026-.499 3-.996 5.128-.996.701-.499.796-1.992.903-.997.61-.996.746-.498 2.312-.996.318-.997.523-.498.696-.498 4.692-.997.021-.498 2.388-.498.398-.498.23-.498 4.218-.997 1.69-.498.08-.498.824-.498.109-.498.535-.498.133-.499.476-.498 1.415-.996.769-1.495 1-.996.238-.498.941-.997.368-1.494.075-.498 2.024-.997.23-.498.568-.498.134-.996.538-.499 2.072-.498.002-.498.188-.498 1.349-.498.96-.498.591-.499 3.306-.498.26-.498.94-.498.297-.498 1.108-.498 3.633-.499 1.77-.498.01-.498 1.168-.996 3.821-.499 1.644-.498 1.778-.996.091-.498 2.544-.997 2.735-.498 1.308-.498 3.573-.498.972-.498.418-.997 2.092-1.494.98-.997 4.599-.498.733-.498 1.03-.498 2.218-.498 1.533-.498.575-.499 1.632-.498.199-.498 2.371-.498.029-.498.931-.499 2.415-.498.25-.498 5.137-.498 6.07-1.495 2.715-.498.224-.498 10.424-.996.73-.498 1.461-.499 2.861-.498 1.726-.498.619-.498 4.185-.498 1.375-.499 10.656-.498.874-.498 2.415-.498v-.498l.677-.498 2.778-.499.893-.498.135-.498 4.117-.498 1.798-.498 2.235-.498.225-.499 2.436-.996 2.962-.498 3.89-.498 14.298-.997 1.14-.498 3.27-.498.29-.498 3.978-.498.924-.499 3.045-.498.96-.498.668-.498 1.889-.498.436-.498.105-.499 1.14-.498 10.054-.498 3.179-.498.048-.498 10.012-.499 3.62-.498 2.448-.498.91-.996 4.139-.498 15.751-.499 2.705-.498 8.6-.498 1.646-.498 3.408-.498 6.5-.498 3.88-.997.292-.498 11.135-.498 3.963-.498 5.042-.499 21.509-.498.55-.498 7.892-.115" clip-path="url(#p1f49e7c8bc)"/><path id="line2d_14" fill="none" stroke="gray" stroke-dasharray="5.55,2.4" stroke-opacity=".4" stroke-width="1.5" d="M79.231 225.476h45.253" clip-path="url(#p1f49e7c8bc)"/><path id="line2d_15" fill="none" stroke="gray" stroke-dasharray="5.55,2.4" stroke-opacity=".4" stroke-width="1.5" d="M124.484 419.516v-194.04" clip-path="url(#p1f49e7c8bc)"/><path id="line2d_16" fill="none" stroke="gray" stroke-dasharray="5.55,2.4" stroke-opacity=".4" stroke-width="1.5" d="M79.231 128.456h117.235" clip-path="url(#p1f49e7c8bc)"/><path id="line2d_17" fill="none" stroke="gray" stroke-dasharray="5.55,2.4" stroke-opacity=".4" stroke-width="1.5" d="M196.466 419.516v-291.06" clip-path="url(#p1f49e7c8bc)"/><path id="patch_3" fill="none" stroke="#000" stroke-linecap="square" stroke-width="2.5" d="M79.231 419.516V31.436"/><path id="patch_4" fill="none" stroke="#000" stroke-linecap="square" stroke-width="2.5" d="M525.631 419.516V31.436"/><path id="patch_5" fill="none" stroke="#000" stroke-linecap="square" stroke-width="2.5" d="M79.231 419.516h446.4"/><path id="patch_6" fill="none" stroke="#000" stroke-linecap="square" stroke-width="2.5" d="M79.231 31.436h446.4"/><g id="text_15"><defs><path id="DejaVuSans-67" d="M64.406 67.281v-10.39q-4.984 4.64-10.625 6.922-5.64 2.296-11.984 2.296-12.5 0-19.14-7.64-6.641-7.64-6.641-22.094 0-14.406 6.64-22.047 6.64-7.64 19.14-7.64 6.345 0 11.985 2.296 5.64 2.297 10.625 6.938V5.609Q59.234 2.094 53.437.33q-5.78-1.75-12.218-1.75-16.563 0-26.094 10.124-9.516 10.14-9.516 27.672 0 17.578 9.516 27.703 9.531 10.14 26.094 10.14 6.531 0 12.312-1.734 5.797-1.734 10.875-5.203z"/><path id="DejaVuSans-109" d="M52 44.188q3.375 6.062 8.063 8.937Q64.75 56 71.093 56q8.548 0 13.188-5.984 4.64-5.97 4.64-17V0h-9.03v32.719q0 7.86-2.797 11.656-2.781 3.813-8.485 3.813-6.984 0-11.046-4.641-4.047-4.625-4.047-12.64V0h-9.032v32.719q0 7.906-2.78 11.687-2.782 3.782-8.595 3.782-6.89 0-10.953-4.657-4.047-4.656-4.047-12.625V0H9.08v54.688h9.03v-8.5q3.078 5.03 7.375 7.421Q29.781 56 35.687 56q5.97 0 10.141-3.031Q50 49.953 52 44.187z"/><path id="DejaVuSans-97" d="M34.281 27.484q-10.89 0-15.093-2.484-4.204-2.484-4.204-8.5 0-4.781 3.157-7.594 3.156-2.797 8.562-2.797 7.485 0 12 5.297 4.516 5.297 4.516 14.078v2zm17.922 3.72V0H43.22v8.297Q40.14 3.328 35.547.953q-4.594-2.375-11.234-2.375-8.391 0-13.36 4.719Q6 8.016 6 15.922q0 9.219 6.172 13.906 6.187 4.688 18.437 4.688h12.61v.89q0 6.203-4.078 9.594-4.078 3.39-11.453 3.39-4.688 0-9.141-1.124-4.438-1.125-8.531-3.375v8.312q4.921 1.906 9.562 2.844 4.64.953 9.031.953 11.875 0 17.735-6.156 5.86-6.14 5.86-18.64z"/><path id="DejaVuSans-118" d="M2.984 54.688H12.5L29.594 8.797l17.093 45.89h9.516L35.687 0H23.485z"/></defs><g transform="matrix(.24 0 0 -.24 200.409 25.436)"><use xlink:href="#DejaVuSans-67"/><use xlink:href="#DejaVuSans-117" x="69.824"/><use xlink:href="#DejaVuSans-109" x="133.203"/><use xlink:href="#DejaVuSans-117" x="230.615"/><use xlink:href="#DejaVuSans-108" x="293.994"/><use xlink:href="#DejaVuSans-97" x="321.777"/><use xlink:href="#DejaVuSans-116" x="383.057"/><use xlink:href="#DejaVuSans-105" x="422.266"/><use xlink:href="#DejaVuSans-118" x="450.049"/><use xlink:href="#DejaVuSans-101" x="509.229"/><use xlink:href="#DejaVuSans-32" x="570.752"/><use xlink:href="#DejaVuSans-69" x="602.539"/><use xlink:href="#DejaVuSans-114" x="665.723"/><use xlink:href="#DejaVuSans-114" x="706.82"/><use xlink:href="#DejaVuSans-111" x="747.902"/><use xlink:href="#DejaVuSans-114" x="809.084"/></g></g></g></g><defs><clipPath id="p1f49e7c8bc"><path d="M79.231 31.436h446.4v388.08h-446.4z"/></clipPath></defs></svg>