<svg height="349.595" viewBox="0 0 385.781 262.196" width="514.375" xmlns="http://www.w3.org/2000/svg" xmlns:xlink="http://www.w3.org/1999/xlink"><defs><style>*{stroke-linecap:butt;stroke-linejoin:round}</style></defs><g id="figure_1"><path d="M0 262.196h385.781V0H0z" fill="none" id="patch_1"/><g id="axes_1"><path d="M43.781 224.64h286.972V43.44H43.78z" fill="#fff" id="patch_2"/><path clip-path="url(#p7bba025a04)" d="M43.781 208.371l286.972-145.57" fill="none" stroke="#000" stroke-dasharray="5.55,2.4" stroke-opacity=".5" stroke-width="1.5" id="line2d_1"/><g id="PathCollection_1"><defs><path d="M0 3a3 3 0 100-6 3 3 0 000 6z" id="C0_0_4e2967b2a1"/></defs><g clip-path="url(#p7bba025a04)"><use x="260.52" xlink:href="#C0_0_4e2967b2a1" y="104.228" fill="#f7fbff" stroke="#f7fbff"/></g><g clip-path="url(#p7bba025a04)"><use x="316.086" xlink:href="#C0_0_4e2967b2a1" y="69.414" fill="#d4e4f4" stroke="#d4e4f4"/></g><g clip-path="url(#p7bba025a04)"><use x="140.952" xlink:href="#C0_0_4e2967b2a1" y="150.29" fill="#d3e3f3" stroke="#d3e3f3"/></g><g clip-path="url(#p7bba025a04)"><use x="93.471" xlink:href="#C0_0_4e2967b2a1" y="178.424" fill="#cbdef1" stroke="#cbdef1"/></g><g clip-path="url(#p7bba025a04)"><use x="265.854" xlink:href="#C0_0_4e2967b2a1" y="110.835" fill="#bfd8ed" stroke="#bfd8ed"/></g><g clip-path="url(#p7bba025a04)"><use x="289.032" xlink:href="#C0_0_4e2967b2a1" y="99.226" fill="#bdd7ec" stroke="#bdd7ec"/></g><g clip-path="url(#p7bba025a04)"><use x="121.946" xlink:href="#C0_0_4e2967b2a1" y="160.153" fill="#bad6eb" stroke="#bad6eb"/></g><g clip-path="url(#p7bba025a04)"><use x="142.4" xlink:href="#C0_0_4e2967b2a1" y="140.584" fill="#b5d4e9" stroke="#b5d4e9"/></g><g clip-path="url(#p7bba025a04)"><use x="116.305" xlink:href="#C0_0_4e2967b2a1" y="170.252" fill="#b2d2e8" stroke="#b2d2e8"/></g><g clip-path="url(#p7bba025a04)"><use x="210.483" xlink:href="#C0_0_4e2967b2a1" y="117.377" fill="#afd1e7" stroke="#afd1e7"/></g><g clip-path="url(#p7bba025a04)"><use x="216.141" xlink:href="#C0_0_4e2967b2a1" y="132.159" fill="#afd1e7" stroke="#afd1e7"/></g><g clip-path="url(#p7bba025a04)"><use x="224.148" xlink:href="#C0_0_4e2967b2a1" y="122.337" fill="#aed1e7" stroke="#aed1e7"/></g><g clip-path="url(#p7bba025a04)"><use x="184.016" xlink:href="#C0_0_4e2967b2a1" y="127.408" fill="#abd0e6" stroke="#abd0e6"/></g><g clip-path="url(#p7bba025a04)"><use x="72.559" xlink:href="#C0_0_4e2967b2a1" y="194.928" fill="#a8cee4" stroke="#a8cee4"/></g><g clip-path="url(#p7bba025a04)"><use x="288.741" xlink:href="#C0_0_4e2967b2a1" y="69.761" fill="#a6cee4" stroke="#a6cee4"/></g><g clip-path="url(#p7bba025a04)"><use x="80.665" xlink:href="#C0_0_4e2967b2a1" y="181.87" fill="#a6cee4" stroke="#a6cee4"/></g><g clip-path="url(#p7bba025a04)"><use x="276.617" xlink:href="#C0_0_4e2967b2a1" y="79.791" fill="#a6cee4" stroke="#a6cee4"/></g><g clip-path="url(#p7bba025a04)"><use x="158.728" xlink:href="#C0_0_4e2967b2a1" y="130.952" fill="#a5cde3" stroke="#a5cde3"/></g><g clip-path="url(#p7bba025a04)"><use x="291.028" xlink:href="#C0_0_4e2967b2a1" y="78.059" fill="#a1cbe2" stroke="#a1cbe2"/></g><g clip-path="url(#p7bba025a04)"><use x="190.4" xlink:href="#C0_0_4e2967b2a1" y="139.223" fill="#9cc9e1" stroke="#9cc9e1"/></g><g clip-path="url(#p7bba025a04)"><use x="92.081" xlink:href="#C0_0_4e2967b2a1" y="185.204" fill="#99c7e0" stroke="#99c7e0"/></g><g clip-path="url(#p7bba025a04)"><use x="238.488" xlink:href="#C0_0_4e2967b2a1" y="117.522" fill="#97c6df" stroke="#97c6df"/></g><g clip-path="url(#p7bba025a04)"><use x="215.883" xlink:href="#C0_0_4e2967b2a1" y="103.147" fill="#97c6df" stroke="#97c6df"/></g><g clip-path="url(#p7bba025a04)"><use x="279.266" xlink:href="#C0_0_4e2967b2a1" y="78.189" fill="#94c4df" stroke="#94c4df"/></g><g clip-path="url(#p7bba025a04)"><use x="268.01" xlink:href="#C0_0_4e2967b2a1" y="95.711" fill="#8fc2de" stroke="#8fc2de"/></g><g clip-path="url(#p7bba025a04)"><use x="164.225" xlink:href="#C0_0_4e2967b2a1" y="155.269" fill="#8dc1dd" stroke="#8dc1dd"/></g><g clip-path="url(#p7bba025a04)"><use x="265.372" xlink:href="#C0_0_4e2967b2a1" y="105.672" fill="#8abfdd" stroke="#8abfdd"/></g><g clip-path="url(#p7bba025a04)"><use x="73.96" xlink:href="#C0_0_4e2967b2a1" y="188.29" fill="#89bedc" stroke="#89bedc"/></g><g clip-path="url(#p7bba025a04)"><use x="198.313" xlink:href="#C0_0_4e2967b2a1" y="142.067" fill="#82bbdb" stroke="#82bbdb"/></g><g clip-path="url(#p7bba025a04)"><use x="205.762" xlink:href="#C0_0_4e2967b2a1" y="140.045" fill="#81badb" stroke="#81badb"/></g><g clip-path="url(#p7bba025a04)"><use x="224.057" xlink:href="#C0_0_4e2967b2a1" y="113.593" fill="#7fb9da" stroke="#7fb9da"/></g><g clip-path="url(#p7bba025a04)"><use x="296.393" xlink:href="#C0_0_4e2967b2a1" y="69.902" fill="#7fb9da" stroke="#7fb9da"/></g><g clip-path="url(#p7bba025a04)"><use x="171.059" xlink:href="#C0_0_4e2967b2a1" y="162.403" fill="#7db8da" stroke="#7db8da"/></g><g clip-path="url(#p7bba025a04)"><use x="302.123" xlink:href="#C0_0_4e2967b2a1" y="85.866" fill="#7ab6d9" stroke="#7ab6d9"/></g><g clip-path="url(#p7bba025a04)"><use x="234.836" xlink:href="#C0_0_4e2967b2a1" y="98.054" fill="#7ab6d9" stroke="#7ab6d9"/></g><g clip-path="url(#p7bba025a04)"><use x="267.506" xlink:href="#C0_0_4e2967b2a1" y="79.345" fill="#74b3d8" stroke="#74b3d8"/></g><g clip-path="url(#p7bba025a04)"><use x="218.869" xlink:href="#C0_0_4e2967b2a1" y="124.931" fill="#74b3d8" stroke="#74b3d8"/></g><g clip-path="url(#p7bba025a04)"><use x="162.602" xlink:href="#C0_0_4e2967b2a1" y="168.858" fill="#74b3d8" stroke="#74b3d8"/></g><g clip-path="url(#p7bba025a04)"><use x="260.172" xlink:href="#C0_0_4e2967b2a1" y="74.005" fill="#74b3d8" stroke="#74b3d8"/></g><g clip-path="url(#p7bba025a04)"><use x="291.219" xlink:href="#C0_0_4e2967b2a1" y="75.842" fill="#72b2d8" stroke="#72b2d8"/></g><g clip-path="url(#p7bba025a04)"><use x="304.866" xlink:href="#C0_0_4e2967b2a1" y="94.661" fill="#72b2d8" stroke="#72b2d8"/></g><g clip-path="url(#p7bba025a04)"><use x="312.63" xlink:href="#C0_0_4e2967b2a1" y="81.923" fill="#71b1d7" stroke="#71b1d7"/></g><g clip-path="url(#p7bba025a04)"><use x="282.832" xlink:href="#C0_0_4e2967b2a1" y="90.943" fill="#71b1d7" stroke="#71b1d7"/></g><g clip-path="url(#p7bba025a04)"><use x="73.687" xlink:href="#C0_0_4e2967b2a1" y="178.432" fill="#6fb0d7" stroke="#6fb0d7"/></g><g clip-path="url(#p7bba025a04)"><use x="242.513" xlink:href="#C0_0_4e2967b2a1" y="101.603" fill="#6fb0d7" stroke="#6fb0d7"/></g><g clip-path="url(#p7bba025a04)"><use x="165.767" xlink:href="#C0_0_4e2967b2a1" y="131.04" fill="#6dafd7" stroke="#6dafd7"/></g><g clip-path="url(#p7bba025a04)"><use x="272.031" xlink:href="#C0_0_4e2967b2a1" y="100.837" fill="#6caed6" stroke="#6caed6"/></g><g clip-path="url(#p7bba025a04)"><use x="163.01" xlink:href="#C0_0_4e2967b2a1" y="124.444" fill="#6aaed6" stroke="#6aaed6"/></g><g clip-path="url(#p7bba025a04)"><use x="218.031" xlink:href="#C0_0_4e2967b2a1" y="112.221" fill="#6aaed6" stroke="#6aaed6"/></g><g clip-path="url(#p7bba025a04)"><use x="311.095" xlink:href="#C0_0_4e2967b2a1" y="86.382" fill="#68acd5" stroke="#68acd5"/></g><g clip-path="url(#p7bba025a04)"><use x="176.356" xlink:href="#C0_0_4e2967b2a1" y="149.409" fill="#68acd5" stroke="#68acd5"/></g><g clip-path="url(#p7bba025a04)"><use x="209.009" xlink:href="#C0_0_4e2967b2a1" y="123.858" fill="#68acd5" stroke="#68acd5"/></g><g clip-path="url(#p7bba025a04)"><use x="95.56" xlink:href="#C0_0_4e2967b2a1" y="176.3" fill="#66abd4" stroke="#66abd4"/></g><g clip-path="url(#p7bba025a04)"><use x="134.624" xlink:href="#C0_0_4e2967b2a1" y="171.114" fill="#64a9d3" stroke="#64a9d3"/></g><g clip-path="url(#p7bba025a04)"><use x="81.103" xlink:href="#C0_0_4e2967b2a1" y="185.412" fill="#64a9d3" stroke="#64a9d3"/></g><g clip-path="url(#p7bba025a04)"><use x="204.436" xlink:href="#C0_0_4e2967b2a1" y="129.325" fill="#64a9d3" stroke="#64a9d3"/></g><g clip-path="url(#p7bba025a04)"><use x="268.643" xlink:href="#C0_0_4e2967b2a1" y="108.966" fill="#63a8d3" stroke="#63a8d3"/></g><g clip-path="url(#p7bba025a04)"><use x="154.986" xlink:href="#C0_0_4e2967b2a1" y="152.49" fill="#63a8d3" stroke="#63a8d3"/></g><g clip-path="url(#p7bba025a04)"><use x="307.109" xlink:href="#C0_0_4e2967b2a1" y="93.698" fill="#63a8d3" stroke="#63a8d3"/></g><g clip-path="url(#p7bba025a04)"><use x="191.875" xlink:href="#C0_0_4e2967b2a1" y="143.573" fill="#63a8d3" stroke="#63a8d3"/></g><g clip-path="url(#p7bba025a04)"><use x="261.689" xlink:href="#C0_0_4e2967b2a1" y="113.991" fill="#61a7d2" stroke="#61a7d2"/></g><g clip-path="url(#p7bba025a04)"><use x="105.827" xlink:href="#C0_0_4e2967b2a1" y="192.738" fill="#61a7d2" stroke="#61a7d2"/></g><g clip-path="url(#p7bba025a04)"><use x="234.727" xlink:href="#C0_0_4e2967b2a1" y="108.442" fill="#60a7d2" stroke="#60a7d2"/></g><g clip-path="url(#p7bba025a04)"><use x="130.713" xlink:href="#C0_0_4e2967b2a1" y="156.817" fill="#5ca4d0" stroke="#5ca4d0"/></g><g clip-path="url(#p7bba025a04)"><use x="134.378" xlink:href="#C0_0_4e2967b2a1" y="162.62" fill="#5ba3d0" stroke="#5ba3d0"/></g><g clip-path="url(#p7bba025a04)"><use x="298.816" xlink:href="#C0_0_4e2967b2a1" y="87.306" fill="#5aa2cf" stroke="#5aa2cf"/></g><g clip-path="url(#p7bba025a04)"><use x="190.474" xlink:href="#C0_0_4e2967b2a1" y="136.674" fill="#58a1cf" stroke="#58a1cf"/></g><g clip-path="url(#p7bba025a04)"><use x="65.819" xlink:href="#C0_0_4e2967b2a1" y="178.934" fill="#56a0ce" stroke="#56a0ce"/></g><g clip-path="url(#p7bba025a04)"><use x="259.73" xlink:href="#C0_0_4e2967b2a1" y="92.237" fill="#529dcc" stroke="#529dcc"/></g><g clip-path="url(#p7bba025a04)"><use x="94.157" xlink:href="#C0_0_4e2967b2a1" y="198.006" fill="#529dcc" stroke="#529dcc"/></g><g clip-path="url(#p7bba025a04)"><use x="282.19" xlink:href="#C0_0_4e2967b2a1" y="85.032" fill="#519ccc" stroke="#519ccc"/></g><g clip-path="url(#p7bba025a04)"><use x="290.288" xlink:href="#C0_0_4e2967b2a1" y="54.246" fill="#519ccc" stroke="#519ccc"/></g><g clip-path="url(#p7bba025a04)"><use x="235.085" xlink:href="#C0_0_4e2967b2a1" y="115.25" fill="#4b98ca" stroke="#4b98ca"/></g><g clip-path="url(#p7bba025a04)"><use x="256.425" xlink:href="#C0_0_4e2967b2a1" y="104.746" fill="#4b98ca" stroke="#4b98ca"/></g><g clip-path="url(#p7bba025a04)"><use x="70.7" xlink:href="#C0_0_4e2967b2a1" y="187.916" fill="#4b98ca" stroke="#4b98ca"/></g><g clip-path="url(#p7bba025a04)"><use x="144.43" xlink:href="#C0_0_4e2967b2a1" y="175.856" fill="#4493c7" stroke="#4493c7"/></g><g clip-path="url(#p7bba025a04)"><use x="86.119" xlink:href="#C0_0_4e2967b2a1" y="184.555" fill="#4292c6" stroke="#4292c6"/></g><g clip-path="url(#p7bba025a04)"><use x="173.117" xlink:href="#C0_0_4e2967b2a1" y="118.623" fill="#4191c6" stroke="#4191c6"/></g><g clip-path="url(#p7bba025a04)"><use x="102.778" xlink:href="#C0_0_4e2967b2a1" y="166.117" fill="#4191c6" stroke="#4191c6"/></g><g clip-path="url(#p7bba025a04)"><use x="141.563" xlink:href="#C0_0_4e2967b2a1" y="153.364" fill="#4090c5" stroke="#4090c5"/></g><g clip-path="url(#p7bba025a04)"><use x="86.228" xlink:href="#C0_0_4e2967b2a1" y="190.897" fill="#3f8fc5" stroke="#3f8fc5"/></g><g clip-path="url(#p7bba025a04)"><use x="209.121" xlink:href="#C0_0_4e2967b2a1" y="131.596" fill="#3e8ec4" stroke="#3e8ec4"/></g><g clip-path="url(#p7bba025a04)"><use x="303.652" xlink:href="#C0_0_4e2967b2a1" y="86.809" fill="#3b8bc2" stroke="#3b8bc2"/></g><g clip-path="url(#p7bba025a04)"><use x="104.942" xlink:href="#C0_0_4e2967b2a1" y="164.525" fill="#3787c0" stroke="#3787c0"/></g><g clip-path="url(#p7bba025a04)"><use x="143.978" xlink:href="#C0_0_4e2967b2a1" y="149.671" fill="#3181bd" stroke="#3181bd"/></g><g clip-path="url(#p7bba025a04)"><use x="107.037" xlink:href="#C0_0_4e2967b2a1" y="164.285" fill="#2f7fbc" stroke="#2f7fbc"/></g><g clip-path="url(#p7bba025a04)"><use x="297.707" xlink:href="#C0_0_4e2967b2a1" y="77.381" fill="#2575b7" stroke="#2575b7"/></g><g clip-path="url(#p7bba025a04)"><use x="141.541" xlink:href="#C0_0_4e2967b2a1" y="148.446" fill="#2272b6" stroke="#2272b6"/></g><g clip-path="url(#p7bba025a04)"><use x="297.586" xlink:href="#C0_0_4e2967b2a1" y="78.126" fill="#084285" stroke="#084285"/></g><g clip-path="url(#p7bba025a04)"><use x="297.6" xlink:href="#C0_0_4e2967b2a1" y="78.196" fill="#083d7f" stroke="#083d7f"/></g><g clip-path="url(#p7bba025a04)"><use x="246.003" xlink:href="#C0_0_4e2967b2a1" y="111.336" fill="#083877" stroke="#083877"/></g><g clip-path="url(#p7bba025a04)"><use x="246.373" xlink:href="#C0_0_4e2967b2a1" y="111.503" fill="#08306b" stroke="#08306b"/></g></g><g id="matplotlib.axis_1"><g id="xtick_1"><g id="line2d_2"><defs><path d="M0 0v3.5" id="m617fa2f948" stroke="#000" stroke-width=".8"/></defs><use x="46.562" xlink:href="#m617fa2f948" y="224.64" stroke="#000" stroke-width=".8"/></g><g transform="matrix(.1 0 0 -.1 38.61 239.238)" id="text_1"><defs><path d="M31.781 66.406q-7.61 0-11.453-7.5Q16.5 51.422 16.5 36.375q0-14.984 3.828-22.484 3.844-7.5 11.453-7.5 7.672 0 11.5 7.5 3.844 7.5 3.844 22.484 0 15.047-3.844 22.531-3.828 7.5-11.5 7.5zm0 7.813q12.266 0 18.735-9.703 6.468-9.688 6.468-28.141 0-18.406-6.468-28.11-6.47-9.687-18.735-9.687-12.25 0-18.718 9.688-6.47 9.703-6.47 28.109 0 18.453 6.47 28.14Q19.53 74.22 31.78 74.22z" id="DejaVuSans-48"/><path d="M10.688 12.406H21V0H10.687z" id="DejaVuSans-46"/></defs><use xlink:href="#DejaVuSans-48"/><use x="63.623" xlink:href="#DejaVuSans-46"/><use x="95.41" xlink:href="#DejaVuSans-48"/></g></g><g id="xtick_2"><use x="102.141" xlink:href="#m617fa2f948" y="224.64" stroke="#000" stroke-width=".8" id="line2d_3"/><g transform="matrix(.1 0 0 -.1 94.19 239.238)" id="text_2"><defs><path d="M19.188 8.297h34.421V0H7.33v8.297q5.609 5.812 15.296 15.594 9.703 9.797 12.188 12.64 4.734 5.313 6.609 9 1.89 3.688 1.89 7.25 0 5.813-4.078 9.469-4.078 3.672-10.625 3.672-4.64 0-9.797-1.61-5.14-1.609-11-4.89v9.969Q13.767 71.78 18.938 73q5.188 1.219 9.485 1.219 11.328 0 18.062-5.672 6.735-5.656 6.735-15.125 0-4.5-1.688-8.531-1.672-4.016-6.125-9.485-1.218-1.422-7.765-8.187-6.532-6.766-18.453-18.922z" id="DejaVuSans-50"/></defs><use xlink:href="#DejaVuSans-48"/><use x="63.623" xlink:href="#DejaVuSans-46"/><use x="95.41" xlink:href="#DejaVuSans-50"/></g></g><g id="xtick_3"><use x="157.719" xlink:href="#m617fa2f948" y="224.64" stroke="#000" stroke-width=".8" id="line2d_4"/><g transform="matrix(.1 0 0 -.1 149.768 239.238)" id="text_3"><defs><path d="M37.797 64.313L12.89 25.39h24.906zm-2.594 8.593H47.61V25.391h10.407v-8.203H47.609V0h-9.812v17.188H4.89v9.515z" id="DejaVuSans-52"/></defs><use xlink:href="#DejaVuSans-48"/><use x="63.623" xlink:href="#DejaVuSans-46"/><use x="95.41" xlink:href="#DejaVuSans-52"/></g></g><g id="xtick_4"><use x="213.298" xlink:href="#m617fa2f948" y="224.64" stroke="#000" stroke-width=".8" id="line2d_5"/><g transform="matrix(.1 0 0 -.1 205.346 239.238)" id="text_4"><defs><path d="M33.016 40.375q-6.641 0-10.532-4.547-3.875-4.531-3.875-12.437 0-7.86 3.875-12.438 3.891-4.562 10.532-4.562 6.64 0 10.515 4.562 3.875 4.578 3.875 12.438 0 7.906-3.875 12.437-3.875 4.547-10.515 4.547zm19.578 30.922v-8.984q-3.719 1.75-7.5 2.671-3.782.938-7.5.938-9.766 0-14.922-6.594-5.14-6.594-5.875-19.922 2.875 4.25 7.219 6.516 4.359 2.266 9.578 2.266 10.984 0 17.36-6.672 6.374-6.657 6.374-18.125 0-11.235-6.64-18.032-6.641-6.78-17.672-6.78-12.657 0-19.344 9.687-6.688 9.703-6.688 28.109 0 17.281 8.204 27.563 8.203 10.28 22.015 10.28 3.719 0 7.5-.734t7.89-2.187z" id="DejaVuSans-54"/></defs><use xlink:href="#DejaVuSans-48"/><use x="63.623" xlink:href="#DejaVuSans-46"/><use x="95.41" xlink:href="#DejaVuSans-54"/></g></g><g id="xtick_5"><use x="268.876" xlink:href="#m617fa2f948" y="224.64" stroke="#000" stroke-width=".8" id="line2d_6"/><g transform="matrix(.1 0 0 -.1 260.925 239.238)" id="text_5"><defs><path d="M31.781 34.625q-7.031 0-11.062-3.766-4.016-3.765-4.016-10.343 0-6.594 4.016-10.36Q24.75 6.391 31.78 6.391q7.032 0 11.078 3.78 4.063 3.798 4.063 10.345 0 6.578-4.031 10.343-4.016 3.766-11.11 3.766zm-9.86 4.188q-6.343 1.562-9.89 5.906Q8.5 49.079 8.5 55.329q0 8.733 6.219 13.812 6.234 5.078 17.062 5.078 10.89 0 17.094-5.078 6.203-5.079 6.203-13.813 0-6.25-3.547-10.61-3.531-4.343-9.828-5.906 7.125-1.656 11.094-6.5 3.984-4.828 3.984-11.796 0-10.61-6.468-16.282-6.47-5.656-18.532-5.656-12.047 0-18.531 5.656-6.469 5.672-6.469 16.282 0 6.968 4 11.797 4.016 4.843 11.14 6.5zM18.314 54.39q0-5.657 3.53-8.828 3.548-3.172 9.938-3.172 6.36 0 9.938 3.172 3.593 3.171 3.593 8.828 0 5.672-3.593 8.843-3.578 3.172-9.938 3.172-6.39 0-9.937-3.172-3.532-3.172-3.532-8.843z" id="DejaVuSans-56"/></defs><use xlink:href="#DejaVuSans-48"/><use x="63.623" xlink:href="#DejaVuSans-46"/><use x="95.41" xlink:href="#DejaVuSans-56"/></g></g><g id="xtick_6"><use x="324.455" xlink:href="#m617fa2f948" y="224.64" stroke="#000" stroke-width=".8" id="line2d_7"/><g transform="matrix(.1 0 0 -.1 316.503 239.238)" id="text_6"><defs><path d="M12.406 8.297h16.11v55.625l-17.532-3.516v8.985l17.438 3.515h9.86V8.296H54.39V0H12.406z" id="DejaVuSans-49"/></defs><use xlink:href="#DejaVuSans-49"/><use x="63.623" xlink:href="#DejaVuSans-46"/><use x="95.41" xlink:href="#DejaVuSans-48"/></g></g><g transform="matrix(.1 0 0 -.1 171.872 252.917)" id="text_7"><defs><path d="M34.281 27.484q-10.89 0-15.093-2.484-4.204-2.484-4.204-8.5 0-4.781 3.157-7.594 3.156-2.797 8.562-2.797 7.485 0 12 5.297 4.516 5.297 4.516 14.078v2zm17.922 3.72V0H43.22v8.297Q40.14 3.328 35.547.953q-4.594-2.375-11.234-2.375-8.391 0-13.36 4.719Q6 8.016 6 15.922q0 9.219 6.172 13.906 6.187 4.688 18.437 4.688h12.61v.89q0 6.203-4.078 9.594-4.078 3.39-11.453 3.39-4.688 0-9.141-1.124-4.438-1.125-8.531-3.375v8.312q4.921 1.906 9.562 2.844 4.64.953 9.031.953 11.875 0 17.735-6.156 5.86-6.14 5.86-18.64z" id="DejaVuSans-97"/><path d="M48.781 52.594v-8.407q-3.812 2.11-7.64 3.157-3.828 1.047-7.735 1.047-8.75 0-13.593-5.547-4.829-5.532-4.829-15.547 0-10.016 4.829-15.563 4.843-5.53 13.593-5.53 3.907 0 7.735 1.046 3.828 1.047 7.64 3.156V2.094Q45.016.344 40.984-.531q-4.015-.89-8.562-.89-12.36 0-19.64 7.765-7.266 7.765-7.266 20.953 0 13.375 7.343 21.031Q20.22 56 33.016 56q4.14 0 8.093-.86 3.953-.843 7.672-2.546z" id="DejaVuSans-99"/><path d="M18.313 70.219V54.688h18.5v-6.985h-18.5V18.016q0-6.688 1.828-8.594 1.828-1.906 7.453-1.906h9.218V0h-9.218q-10.407 0-14.36 3.875-3.953 3.89-3.953 14.14v29.688H2.687v6.984h6.594V70.22z" id="DejaVuSans-116"/><path d="M8.5 21.578v33.11h8.984V21.922q0-7.766 3.016-11.656 3.031-3.875 9.094-3.875 7.265 0 11.484 4.64 4.234 4.64 4.234 12.656v31h8.985V0h-8.984v8.406Q42.047 3.422 37.718 1q-4.313-2.422-10.032-2.422-9.421 0-14.312 5.86Q8.5 10.296 8.5 21.578zM31.11 56z" id="DejaVuSans-117"/><path d="M9.422 75.984h8.984V0H9.422z" id="DejaVuSans-108"/></defs><use xlink:href="#DejaVuSans-97"/><use x="61.279" xlink:href="#DejaVuSans-99"/><use x="116.26" xlink:href="#DejaVuSans-116"/><use x="155.469" xlink:href="#DejaVuSans-117"/><use x="218.848" xlink:href="#DejaVuSans-97"/><use x="280.127" xlink:href="#DejaVuSans-108"/></g></g><g id="matplotlib.axis_2"><g id="ytick_1"><g id="line2d_8"><defs><path d="M0 0h-3.5" id="m1b01aa4fea" stroke="#000" stroke-width=".8"/></defs><use x="43.781" xlink:href="#m1b01aa4fea" y="206.96" stroke="#000" stroke-width=".8"/></g><g transform="matrix(.1 0 0 -.1 20.878 210.76)" id="text_8"><use xlink:href="#DejaVuSans-48"/><use x="63.623" xlink:href="#DejaVuSans-46"/><use x="95.41" xlink:href="#DejaVuSans-48"/></g></g><g id="ytick_2"><use x="43.781" xlink:href="#m1b01aa4fea" y="178.768" stroke="#000" stroke-width=".8" id="line2d_9"/><g transform="matrix(.1 0 0 -.1 20.878 182.567)" id="text_9"><use xlink:href="#DejaVuSans-48"/><use x="63.623" xlink:href="#DejaVuSans-46"/><use x="95.41" xlink:href="#DejaVuSans-50"/></g></g><g id="ytick_3"><use x="43.781" xlink:href="#m1b01aa4fea" y="150.575" stroke="#000" stroke-width=".8" id="line2d_10"/><g transform="matrix(.1 0 0 -.1 20.878 154.374)" id="text_10"><use xlink:href="#DejaVuSans-48"/><use x="63.623" xlink:href="#DejaVuSans-46"/><use x="95.41" xlink:href="#DejaVuSans-52"/></g></g><g id="ytick_4"><use x="43.781" xlink:href="#m1b01aa4fea" y="122.382" stroke="#000" stroke-width=".8" id="line2d_11"/><g transform="matrix(.1 0 0 -.1 20.878 126.181)" id="text_11"><use xlink:href="#DejaVuSans-48"/><use x="63.623" xlink:href="#DejaVuSans-46"/><use x="95.41" xlink:href="#DejaVuSans-54"/></g></g><g id="ytick_5"><use x="43.781" xlink:href="#m1b01aa4fea" y="94.189" stroke="#000" stroke-width=".8" id="line2d_12"/><g transform="matrix(.1 0 0 -.1 20.878 97.989)" id="text_12"><use xlink:href="#DejaVuSans-48"/><use x="63.623" xlink:href="#DejaVuSans-46"/><use x="95.41" xlink:href="#DejaVuSans-56"/></g></g><g id="ytick_6"><use x="43.781" xlink:href="#m1b01aa4fea" y="65.997" stroke="#000" stroke-width=".8" id="line2d_13"/><g transform="matrix(.1 0 0 -.1 20.878 69.796)" id="text_13"><use xlink:href="#DejaVuSans-49"/><use x="63.623" xlink:href="#DejaVuSans-46"/><use x="95.41" xlink:href="#DejaVuSans-48"/></g></g><g transform="matrix(0 -.1 -.1 0 14.798 157.757)" id="text_14"><defs><path d="M18.11 8.203v-29H9.077v75.484h9.031v-8.296q2.844 4.875 7.157 7.234Q29.594 56 35.594 56q9.968 0 16.187-7.906 6.235-7.907 6.235-20.797T51.78 6.484q-6.218-7.906-16.187-7.906-6 0-10.328 2.375-4.313 2.375-7.157 7.25zm30.578 19.094q0 9.906-4.079 15.547-4.078 5.64-11.203 5.64-7.14 0-11.218-5.64-4.079-5.64-4.079-15.547 0-9.906 4.078-15.547 4.079-5.64 11.22-5.64 7.124 0 11.202 5.64t4.078 15.547z" id="DejaVuSans-112"/><path d="M41.11 46.297q-1.516.875-3.297 1.281Q36.03 48 33.89 48q-7.625 0-11.703-4.953-4.079-4.953-4.079-14.234V0H9.08v54.688h9.03v-8.5q2.844 4.984 7.375 7.39Q30.031 56 36.531 56q.922 0 2.047-.125 1.125-.11 2.484-.36z" id="DejaVuSans-114"/><path d="M56.203 29.594v-4.39H14.891q.593-9.282 5.593-14.142 5-4.859 13.938-4.859 5.172 0 10.031 1.266 4.86 1.265 9.656 3.812v-8.5Q49.266.734 44.187-.344 39.11-1.422 33.892-1.422q-13.094 0-20.735 7.61-7.64 7.625-7.64 20.625 0 13.421 7.25 21.296Q20.016 56 32.328 56q11.031 0 17.453-7.11 6.422-7.093 6.422-19.296zm-8.984 2.64q-.094 7.36-4.125 11.75-4.032 4.407-10.672 4.407-7.516 0-12.031-4.25-4.516-4.25-5.203-11.97z" id="DejaVuSans-101"/><path d="M45.406 46.39v29.594h8.985V0h-8.985v8.203Q42.578 3.328 38.25.953q-4.313-2.375-10.375-2.375-9.906 0-16.14 7.906-6.22 7.922-6.22 20.813 0 12.89 6.22 20.797Q17.968 56 27.874 56q6.063 0 10.375-2.375 4.328-2.36 7.156-7.234zm-30.61-19.093q0-9.906 4.079-15.547 4.078-5.64 11.203-5.64 7.125 0 11.219 5.64 4.11 5.64 4.11 15.547 0 9.906-4.11 15.547-4.094 5.64-11.219 5.64-7.125 0-11.203-5.64-4.078-5.64-4.078-15.547z" id="DejaVuSans-100"/><path d="M9.422 54.688h8.984V0H9.422zm0 21.296h8.984v-11.39H9.422z" id="DejaVuSans-105"/></defs><use xlink:href="#DejaVuSans-112"/><use x="63.477" xlink:href="#DejaVuSans-114"/><use x="102.34" xlink:href="#DejaVuSans-101"/><use x="163.863" xlink:href="#DejaVuSans-100"/><use x="227.34" xlink:href="#DejaVuSans-105"/><use x="255.123" xlink:href="#DejaVuSans-99"/><use x="310.104" xlink:href="#DejaVuSans-116"/><use x="349.313" xlink:href="#DejaVuSans-101"/><use x="410.836" xlink:href="#DejaVuSans-100"/></g></g><path d="M43.781 224.64V43.44" fill="none" stroke="#000" stroke-linecap="square" stroke-width=".8" id="patch_3"/><path d="M330.753 224.64V43.44" fill="none" stroke="#000" stroke-linecap="square" stroke-width=".8" id="patch_4"/><path d="M43.781 224.64h286.972" fill="none" stroke="#000" stroke-linecap="square" stroke-width=".8" id="patch_5"/><path d="M43.781 43.44h286.972" fill="none" stroke="#000" stroke-linecap="square" stroke-width=".8" id="patch_6"/><g id="legend_1"><path d="M52.781 56.538h20" fill="none" stroke="#000" stroke-dasharray="5.55,2.4" stroke-opacity=".5" stroke-width="1.5" id="line2d_14"/><g transform="matrix(.1 0 0 -.1 80.781 60.038)" id="text_15"><use xlink:href="#DejaVuSans-105"/><use x="27.783" xlink:href="#DejaVuSans-100"/><use x="91.26" xlink:href="#DejaVuSans-101"/><use x="152.783" xlink:href="#DejaVuSans-97"/><use x="214.063" xlink:href="#DejaVuSans-108"/></g></g></g><g id="axes_2" fill="#1f77b4"><path clip-path="url(#p3881ea4b6c)" d="M56.825 43.44h2.092V31.935h-2.092z" id="patch_7"/><path clip-path="url(#p3881ea4b6c)" d="M59.44 43.44h2.09-2.09z" id="patch_8"/><path clip-path="url(#p3881ea4b6c)" d="M62.054 43.44h2.09-2.09z" id="patch_9"/><path clip-path="url(#p3881ea4b6c)" d="M64.668 43.44h2.09v-5.752h-2.09z" id="patch_10"/><path clip-path="url(#p3881ea4b6c)" d="M67.282 43.44h2.09-2.09z" id="patch_11"/><path clip-path="url(#p3881ea4b6c)" d="M69.896 43.44h2.09v-5.752h-2.09z" id="patch_12"/><path clip-path="url(#p3881ea4b6c)" d="M72.51 43.44h2.09V26.183h-2.09z" id="patch_13"/><path clip-path="url(#p3881ea4b6c)" d="M75.124 43.44h2.091-2.091z" id="patch_14"/><path clip-path="url(#p3881ea4b6c)" d="M77.738 43.44h2.091-2.091z" id="patch_15"/><path clip-path="url(#p3881ea4b6c)" d="M80.352 43.44h2.091V31.935h-2.091z" id="patch_16"/><path clip-path="url(#p3881ea4b6c)" d="M82.966 43.44h2.091-2.091z" id="patch_17"/><path clip-path="url(#p3881ea4b6c)" d="M85.58 43.44h2.091V31.935h-2.09z" id="patch_18"/><path clip-path="url(#p3881ea4b6c)" d="M88.194 43.44h2.091-2.09z" id="patch_19"/><path clip-path="url(#p3881ea4b6c)" d="M90.808 43.44H92.9v-5.752h-2.09z" id="patch_20"/><path clip-path="url(#p3881ea4b6c)" d="M93.422 43.44h2.091V26.183h-2.09z" id="patch_21"/><path clip-path="url(#p3881ea4b6c)" d="M96.036 43.44h2.092-2.092z" id="patch_22"/><path clip-path="url(#p3881ea4b6c)" d="M98.65 43.44h2.092-2.092z" id="patch_23"/><path clip-path="url(#p3881ea4b6c)" d="M101.264 43.44h2.092v-5.752h-2.092z" id="patch_24"/><path clip-path="url(#p3881ea4b6c)" d="M103.878 43.44h2.092V31.935h-2.092z" id="patch_25"/><path clip-path="url(#p3881ea4b6c)" d="M106.493 43.44h2.09v-5.752h-2.09z" id="patch_26"/><path clip-path="url(#p3881ea4b6c)" d="M109.107 43.44h2.09-2.09z" id="patch_27"/><path clip-path="url(#p3881ea4b6c)" d="M111.72 43.44h2.092-2.091z" id="patch_28"/><path clip-path="url(#p3881ea4b6c)" d="M114.335 43.44h2.091v-5.752h-2.091z" id="patch_29"/><path clip-path="url(#p3881ea4b6c)" d="M116.949 43.44h2.091-2.091z" id="patch_30"/><path clip-path="url(#p3881ea4b6c)" d="M119.563 43.44h2.091-2.091z" id="patch_31"/><path clip-path="url(#p3881ea4b6c)" d="M122.177 43.44h2.091v-5.752h-2.091z" id="patch_32"/><path clip-path="url(#p3881ea4b6c)" d="M124.79 43.44h2.092-2.091z" id="patch_33"/><path clip-path="url(#p3881ea4b6c)" d="M127.405 43.44h2.091-2.091z" id="patch_34"/><path clip-path="url(#p3881ea4b6c)" d="M130.02 43.44h2.09v-5.752h-2.09z" id="patch_35"/><path clip-path="url(#p3881ea4b6c)" d="M132.633 43.44h2.091V31.935h-2.09z" id="patch_36"/><path clip-path="url(#p3881ea4b6c)" d="M135.247 43.44h2.091-2.09z" id="patch_37"/><path clip-path="url(#p3881ea4b6c)" d="M137.861 43.44h2.091-2.09z" id="patch_38"/><path clip-path="url(#p3881ea4b6c)" d="M140.475 43.44h2.092V20.43h-2.092z" id="patch_39"/><path clip-path="url(#p3881ea4b6c)" d="M143.09 43.44h2.09V31.935h-2.09z" id="patch_40"/><path clip-path="url(#p3881ea4b6c)" d="M145.703 43.44h2.092-2.092z" id="patch_41"/><path clip-path="url(#p3881ea4b6c)" d="M148.317 43.44h2.092-2.092z" id="patch_42"/><path clip-path="url(#p3881ea4b6c)" d="M150.932 43.44h2.09-2.09z" id="patch_43"/><path clip-path="url(#p3881ea4b6c)" d="M153.546 43.44h2.09v-5.752h-2.09z" id="patch_44"/><path clip-path="url(#p3881ea4b6c)" d="M156.16 43.44h2.09-2.09z" id="patch_45"/><path clip-path="url(#p3881ea4b6c)" d="M158.774 43.44h2.091v-5.752h-2.091z" id="patch_46"/><path clip-path="url(#p3881ea4b6c)" d="M161.388 43.44h2.091V31.935h-2.091z" id="patch_47"/><path clip-path="url(#p3881ea4b6c)" d="M164.002 43.44h2.091V31.935h-2.091z" id="patch_48"/><path clip-path="url(#p3881ea4b6c)" d="M166.616 43.44h2.091-2.091z" id="patch_49"/><path clip-path="url(#p3881ea4b6c)" d="M169.23 43.44h2.091v-5.752h-2.091z" id="patch_50"/><path clip-path="url(#p3881ea4b6c)" d="M171.844 43.44h2.091v-5.752h-2.091z" id="patch_51"/><path clip-path="url(#p3881ea4b6c)" d="M174.458 43.44h2.091v-5.752h-2.09z" id="patch_52"/><path clip-path="url(#p3881ea4b6c)" d="M177.072 43.44h2.091-2.09z" id="patch_53"/><path clip-path="url(#p3881ea4b6c)" d="M179.686 43.44h2.091-2.09z" id="patch_54"/><path clip-path="url(#p3881ea4b6c)" d="M182.3 43.44h2.091v-5.752h-2.09z" id="patch_55"/><path clip-path="url(#p3881ea4b6c)" d="M184.914 43.44h2.092-2.092z" id="patch_56"/><path clip-path="url(#p3881ea4b6c)" d="M187.528 43.44h2.092-2.092z" id="patch_57"/><path clip-path="url(#p3881ea4b6c)" d="M190.142 43.44h2.092V26.183h-2.092z" id="patch_58"/><path clip-path="url(#p3881ea4b6c)" d="M192.756 43.44h2.092-2.092z" id="patch_59"/><path clip-path="url(#p3881ea4b6c)" d="M195.37 43.44h2.092-2.091z" id="patch_60"/><path clip-path="url(#p3881ea4b6c)" d="M197.985 43.44h2.09v-5.752h-2.09z" id="patch_61"/><path clip-path="url(#p3881ea4b6c)" d="M200.599 43.44h2.09-2.09z" id="patch_62"/><path clip-path="url(#p3881ea4b6c)" d="M203.213 43.44h2.091v-5.752h-2.091z" id="patch_63"/><path clip-path="url(#p3881ea4b6c)" d="M205.827 43.44h2.091v-5.752h-2.091z" id="patch_64"/><path clip-path="url(#p3881ea4b6c)" d="M208.44 43.44h2.092V26.183h-2.091z" id="patch_65"/><path clip-path="url(#p3881ea4b6c)" d="M211.055 43.44h2.091-2.091z" id="patch_66"/><path clip-path="url(#p3881ea4b6c)" d="M213.669 43.44h2.091v-5.752h-2.091z" id="patch_67"/><path clip-path="url(#p3881ea4b6c)" d="M216.283 43.44h2.091V31.935h-2.091z" id="patch_68"/><path clip-path="url(#p3881ea4b6c)" d="M218.897 43.44h2.091v-5.752h-2.09z" id="patch_69"/><path clip-path="url(#p3881ea4b6c)" d="M221.511 43.44h2.091-2.09z" id="patch_70"/><path clip-path="url(#p3881ea4b6c)" d="M224.125 43.44h2.091V31.935h-2.09z" id="patch_71"/><path clip-path="url(#p3881ea4b6c)" d="M226.74 43.44h2.09-2.09z" id="patch_72"/><path clip-path="url(#p3881ea4b6c)" d="M229.353 43.44h2.092-2.092z" id="patch_73"/><path clip-path="url(#p3881ea4b6c)" d="M231.967 43.44h2.092-2.092z" id="patch_74"/><path clip-path="url(#p3881ea4b6c)" d="M234.581 43.44h2.092V26.183h-2.092z" id="patch_75"/><path clip-path="url(#p3881ea4b6c)" d="M237.195 43.44h2.092v-5.752h-2.092z" id="patch_76"/><path clip-path="url(#p3881ea4b6c)" d="M239.81 43.44h2.09-2.09z" id="patch_77"/><path clip-path="url(#p3881ea4b6c)" d="M242.424 43.44h2.09v-5.752h-2.09z" id="patch_78"/><path clip-path="url(#p3881ea4b6c)" d="M245.038 43.44h2.09V31.935h-2.09z" id="patch_79"/><path clip-path="url(#p3881ea4b6c)" d="M247.652 43.44h2.091-2.091z" id="patch_80"/><path clip-path="url(#p3881ea4b6c)" d="M250.266 43.44h2.091-2.091z" id="patch_81"/><path clip-path="url(#p3881ea4b6c)" d="M252.88 43.44h2.091-2.091z" id="patch_82"/><path clip-path="url(#p3881ea4b6c)" d="M255.494 43.44h2.091v-5.752h-2.091z" id="patch_83"/><path clip-path="url(#p3881ea4b6c)" d="M258.108 43.44h2.091V31.935h-2.091z" id="patch_84"/><path clip-path="url(#p3881ea4b6c)" d="M260.722 43.44h2.091V31.935h-2.091z" id="patch_85"/><path clip-path="url(#p3881ea4b6c)" d="M263.336 43.44h2.091v-5.752h-2.09z" id="patch_86"/><path clip-path="url(#p3881ea4b6c)" d="M265.95 43.44h2.091V26.183h-2.09z" id="patch_87"/><path clip-path="url(#p3881ea4b6c)" d="M268.564 43.44h2.091v-5.752h-2.09z" id="patch_88"/><path clip-path="url(#p3881ea4b6c)" d="M271.178 43.44h2.092v-5.752h-2.092z" id="patch_89"/><path clip-path="url(#p3881ea4b6c)" d="M273.792 43.44h2.092-2.092z" id="patch_90"/><path clip-path="url(#p3881ea4b6c)" d="M276.406 43.44h2.092v-5.752h-2.092z" id="patch_91"/><path clip-path="url(#p3881ea4b6c)" d="M279.02 43.44h2.092V31.935h-2.092z" id="patch_92"/><path clip-path="url(#p3881ea4b6c)" d="M281.635 43.44h2.09V31.935h-2.09z" id="patch_93"/><path clip-path="url(#p3881ea4b6c)" d="M284.249 43.44h2.09-2.09z" id="patch_94"/><path clip-path="url(#p3881ea4b6c)" d="M286.863 43.44h2.09V31.935h-2.09z" id="patch_95"/><path clip-path="url(#p3881ea4b6c)" d="M289.477 43.44h2.09V26.183h-2.09z" id="patch_96"/><path clip-path="url(#p3881ea4b6c)" d="M292.09 43.44h2.092-2.091z" id="patch_97"/><path clip-path="url(#p3881ea4b6c)" d="M294.705 43.44h2.091v-5.752h-2.091z" id="patch_98"/><path clip-path="url(#p3881ea4b6c)" d="M297.319 43.44h2.091V20.43h-2.091z" id="patch_99"/><path clip-path="url(#p3881ea4b6c)" d="M299.933 43.44h2.091v-5.752h-2.091z" id="patch_100"/><path clip-path="url(#p3881ea4b6c)" d="M302.547 43.44h2.091V31.935h-2.091z" id="patch_101"/><path clip-path="url(#p3881ea4b6c)" d="M305.161 43.44h2.091v-5.752h-2.091z" id="patch_102"/><path clip-path="url(#p3881ea4b6c)" d="M307.775 43.44h2.091-2.09z" id="patch_103"/><path clip-path="url(#p3881ea4b6c)" d="M310.39 43.44h2.09V31.935h-2.09z" id="patch_104"/><path clip-path="url(#p3881ea4b6c)" d="M313.003 43.44h2.091-2.09z" id="patch_105"/><path clip-path="url(#p3881ea4b6c)" d="M315.617 43.44h2.092V8.926h-2.092z" id="patch_106"/></g><g id="axes_3" fill="#1f77b4"><path clip-path="url(#pfc2685d2b1)" d="M330.753 216.404h9.11v-1.32h-9.11z" id="patch_107"/><path clip-path="url(#pfc2685d2b1)" d="M330.753 214.753v-1.32z" id="patch_108"/><path clip-path="url(#pfc2685d2b1)" d="M330.753 213.102v-1.32z" id="patch_109"/><path clip-path="url(#pfc2685d2b1)" d="M330.753 211.452v-1.32z" id="patch_110"/><path clip-path="url(#pfc2685d2b1)" d="M330.753 209.801v-1.32z" id="patch_111"/><path clip-path="url(#pfc2685d2b1)" d="M330.753 208.15v-1.32z" id="patch_112"/><path clip-path="url(#pfc2685d2b1)" d="M330.753 206.5v-1.32z" id="patch_113"/><path clip-path="url(#pfc2685d2b1)" d="M330.753 204.85v-1.32z" id="patch_114"/><path clip-path="url(#pfc2685d2b1)" d="M330.753 203.199v-1.32z" id="patch_115"/><path clip-path="url(#pfc2685d2b1)" d="M330.753 201.548v-1.32z" id="patch_116"/><path clip-path="url(#pfc2685d2b1)" d="M330.753 199.898v-1.32z" id="patch_117"/><path clip-path="url(#pfc2685d2b1)" d="M330.753 198.247h9.11v-1.32h-9.11z" id="patch_118"/><path clip-path="url(#pfc2685d2b1)" d="M330.753 196.597v-1.32z" id="patch_119"/><path clip-path="url(#pfc2685d2b1)" d="M330.753 194.946h9.11v-1.32h-9.11z" id="patch_120"/><path clip-path="url(#pfc2685d2b1)" d="M330.753 193.296h18.22v-1.32h-18.22z" id="patch_121"/><path clip-path="url(#pfc2685d2b1)" d="M330.753 191.645h9.11v-1.32h-9.11z" id="patch_122"/><path clip-path="url(#pfc2685d2b1)" d="M330.753 189.994v-1.32z" id="patch_123"/><path clip-path="url(#pfc2685d2b1)" d="M330.753 188.344h18.22v-1.32h-18.22z" id="patch_124"/><path clip-path="url(#pfc2685d2b1)" d="M330.753 186.693h9.11v-1.32h-9.11z" id="patch_125"/><path clip-path="url(#pfc2685d2b1)" d="M330.753 185.043h18.22v-1.32h-18.22z" id="patch_126"/><path clip-path="url(#pfc2685d2b1)" d="M330.753 183.392v-1.32z" id="patch_127"/><path clip-path="url(#pfc2685d2b1)" d="M330.753 181.742h9.11v-1.32h-9.11z" id="patch_128"/><path clip-path="url(#pfc2685d2b1)" d="M330.753 180.091h9.11v-1.32h-9.11z" id="patch_129"/><path clip-path="url(#pfc2685d2b1)" d="M330.753 178.44h18.22v-1.32h-18.22z" id="patch_130"/><path clip-path="url(#pfc2685d2b1)" d="M330.753 176.79h18.22v-1.32h-18.22z" id="patch_131"/><path clip-path="url(#pfc2685d2b1)" d="M330.753 175.14v-1.321z" id="patch_132"/><path clip-path="url(#pfc2685d2b1)" d="M330.753 173.489v-1.32z" id="patch_133"/><path clip-path="url(#pfc2685d2b1)" d="M330.753 171.838h9.11v-1.32h-9.11z" id="patch_134"/><path clip-path="url(#pfc2685d2b1)" d="M330.753 170.188h18.22v-1.32h-18.22z" id="patch_135"/><path clip-path="url(#pfc2685d2b1)" d="M330.753 168.537v-1.32z" id="patch_136"/><path clip-path="url(#pfc2685d2b1)" d="M330.753 166.886h9.11v-1.32h-9.11z" id="patch_137"/><path clip-path="url(#pfc2685d2b1)" d="M330.753 165.236h18.22v-1.32h-18.22z" id="patch_138"/><path clip-path="url(#pfc2685d2b1)" d="M330.753 163.585h18.22v-1.32h-18.22z" id="patch_139"/><path clip-path="url(#pfc2685d2b1)" d="M330.753 161.935v-1.32z" id="patch_140"/><path clip-path="url(#pfc2685d2b1)" d="M330.753 160.284h9.11v-1.32h-9.11z" id="patch_141"/><path clip-path="url(#pfc2685d2b1)" d="M330.753 158.634v-1.32z" id="patch_142"/><path clip-path="url(#pfc2685d2b1)" d="M330.753 156.983h9.11v-1.32h-9.11z" id="patch_143"/><path clip-path="url(#pfc2685d2b1)" d="M330.753 155.332h9.11v-1.32h-9.11z" id="patch_144"/><path clip-path="url(#pfc2685d2b1)" d="M330.753 153.682h18.22v-1.32h-18.22z" id="patch_145"/><path clip-path="url(#pfc2685d2b1)" d="M330.753 152.031v-1.32z" id="patch_146"/><path clip-path="url(#pfc2685d2b1)" d="M330.753 150.38h27.33v-1.32h-27.33z" id="patch_147"/><path clip-path="url(#pfc2685d2b1)" d="M330.753 148.73h9.11v-1.32h-9.11z" id="patch_148"/><path clip-path="url(#pfc2685d2b1)" d="M330.753 147.08v-1.32z" id="patch_149"/><path clip-path="url(#pfc2685d2b1)" d="M330.753 145.429v-1.32z" id="patch_150"/><path clip-path="url(#pfc2685d2b1)" d="M330.753 143.778h9.11v-1.32h-9.11z" id="patch_151"/><path clip-path="url(#pfc2685d2b1)" d="M330.753 142.128h9.11v-1.32h-9.11z" id="patch_152"/><path clip-path="url(#pfc2685d2b1)" d="M330.753 140.477h27.33v-1.32h-27.33z" id="patch_153"/><path clip-path="url(#pfc2685d2b1)" d="M330.753 138.827v-1.32z" id="patch_154"/><path clip-path="url(#pfc2685d2b1)" d="M330.753 137.176h9.11v-1.32h-9.11z" id="patch_155"/><path clip-path="url(#pfc2685d2b1)" d="M330.753 135.526v-1.32z" id="patch_156"/><path clip-path="url(#pfc2685d2b1)" d="M330.753 133.875v-1.32z" id="patch_157"/><path clip-path="url(#pfc2685d2b1)" d="M330.753 132.224h36.44v-1.32h-36.44z" id="patch_158"/><path clip-path="url(#pfc2685d2b1)" d="M330.753 130.574h9.11v-1.32h-9.11z" id="patch_159"/><path clip-path="url(#pfc2685d2b1)" d="M330.753 128.923v-1.32z" id="patch_160"/><path clip-path="url(#pfc2685d2b1)" d="M330.753 127.273h9.11v-1.32h-9.11z" id="patch_161"/><path clip-path="url(#pfc2685d2b1)" d="M330.753 125.622h18.22v-1.32h-18.22z" id="patch_162"/><path clip-path="url(#pfc2685d2b1)" d="M330.753 123.971h9.11v-1.32h-9.11z" id="patch_163"/><path clip-path="url(#pfc2685d2b1)" d="M330.753 122.32h9.11V121h-9.11z" id="patch_164"/><path clip-path="url(#pfc2685d2b1)" d="M330.753 120.67v-1.32z" id="patch_165"/><path clip-path="url(#pfc2685d2b1)" d="M330.753 119.02h9.11v-1.32h-9.11z" id="patch_166"/><path clip-path="url(#pfc2685d2b1)" d="M330.753 117.37h18.22v-1.321h-18.22z" id="patch_167"/><path clip-path="url(#pfc2685d2b1)" d="M330.753 115.719h9.11v-1.32h-9.11z" id="patch_168"/><path clip-path="url(#pfc2685d2b1)" d="M330.753 114.068h18.22v-1.32h-18.22z" id="patch_169"/><path clip-path="url(#pfc2685d2b1)" d="M330.753 112.417h27.33v-1.32h-27.33z" id="patch_170"/><path clip-path="url(#pfc2685d2b1)" d="M330.753 110.767h9.11v-1.32h-9.11z" id="patch_171"/><path clip-path="url(#pfc2685d2b1)" d="M330.753 109.116h18.22v-1.32h-18.22z" id="patch_172"/><path clip-path="url(#pfc2685d2b1)" d="M330.753 107.466v-1.32z" id="patch_173"/><path clip-path="url(#pfc2685d2b1)" d="M330.753 105.815h18.22v-1.32h-18.22z" id="patch_174"/><path clip-path="url(#pfc2685d2b1)" d="M330.753 104.165h18.22v-1.32h-18.22z" id="patch_175"/><path clip-path="url(#pfc2685d2b1)" d="M330.753 102.514h18.22v-1.32h-18.22z" id="patch_176"/><path clip-path="url(#pfc2685d2b1)" d="M330.753 100.863h9.11v-1.32h-9.11z" id="patch_177"/><path clip-path="url(#pfc2685d2b1)" d="M330.753 99.213h18.22v-1.32h-18.22z" id="patch_178"/><path clip-path="url(#pfc2685d2b1)" d="M330.753 97.562v-1.32z" id="patch_179"/><path clip-path="url(#pfc2685d2b1)" d="M330.753 95.912h18.22v-1.32h-18.22z" id="patch_180"/><path clip-path="url(#pfc2685d2b1)" d="M330.753 94.261h9.11v-1.32h-9.11z" id="patch_181"/><path clip-path="url(#pfc2685d2b1)" d="M330.753 92.61h9.11v-1.32h-9.11z" id="patch_182"/><path clip-path="url(#pfc2685d2b1)" d="M330.753 90.96h9.11v-1.32h-9.11z" id="patch_183"/><path clip-path="url(#pfc2685d2b1)" d="M330.753 89.31h9.11v-1.321h-9.11z" id="patch_184"/><path clip-path="url(#pfc2685d2b1)" d="M330.753 87.659h27.33v-1.32h-27.33z" id="patch_185"/><path clip-path="url(#pfc2685d2b1)" d="M330.753 86.008h18.22v-1.32h-18.22z" id="patch_186"/><path clip-path="url(#pfc2685d2b1)" d="M330.753 84.358v-1.32z" id="patch_187"/><path clip-path="url(#pfc2685d2b1)" d="M330.753 82.707h9.11v-1.32h-9.11z" id="patch_188"/><path clip-path="url(#pfc2685d2b1)" d="M330.753 81.057h9.11v-1.32h-9.11z" id="patch_189"/><path clip-path="url(#pfc2685d2b1)" d="M330.753 79.406h45.55v-1.32h-45.55z" id="patch_190"/><path clip-path="url(#pfc2685d2b1)" d="M330.753 77.755h18.22v-1.32h-18.22z" id="patch_191"/><path clip-path="url(#pfc2685d2b1)" d="M330.753 76.105h9.11v-1.32h-9.11z" id="patch_192"/><path clip-path="url(#pfc2685d2b1)" d="M330.753 74.454h9.11v-1.32h-9.11z" id="patch_193"/><path clip-path="url(#pfc2685d2b1)" d="M330.753 72.804v-1.32z" id="patch_194"/><path clip-path="url(#pfc2685d2b1)" d="M330.753 71.153h18.22v-1.32h-18.22z" id="patch_195"/><path clip-path="url(#pfc2685d2b1)" d="M330.753 69.503h9.11v-1.32h-9.11z" id="patch_196"/><path clip-path="url(#pfc2685d2b1)" d="M330.753 67.852h9.11v-1.32h-9.11z" id="patch_197"/><path clip-path="url(#pfc2685d2b1)" d="M330.753 66.201v-1.32z" id="patch_198"/><path clip-path="url(#pfc2685d2b1)" d="M330.753 64.55v-1.32z" id="patch_199"/><path clip-path="url(#pfc2685d2b1)" d="M330.753 62.9v-1.32z" id="patch_200"/><path clip-path="url(#pfc2685d2b1)" d="M330.753 61.25v-1.32z" id="patch_201"/><path clip-path="url(#pfc2685d2b1)" d="M330.753 59.6v-1.321z" id="patch_202"/><path clip-path="url(#pfc2685d2b1)" d="M330.753 57.949v-1.32z" id="patch_203"/><path clip-path="url(#pfc2685d2b1)" d="M330.753 56.298v-1.32z" id="patch_204"/><path clip-path="url(#pfc2685d2b1)" d="M330.753 54.647h9.11v-1.32h-9.11z" id="patch_205"/><path clip-path="url(#pfc2685d2b1)" d="M330.753 52.997h18.22v-1.32h-18.22z" id="patch_206"/></g></g><defs><clipPath id="p7bba025a04"><path d="M43.781 43.44h286.971v181.2H43.781z"/></clipPath><clipPath id="p3881ea4b6c"><path d="M43.781 7.2h286.971v36.24H43.781z"/></clipPath><clipPath id="pfc2685d2b1"><path d="M330.753 43.44h47.829v181.2h-47.829z"/></clipPath></defs></svg>