<svg height="414.491" viewBox="0 0 408.101 310.868" width="544.135" xmlns="http://www.w3.org/2000/svg" xmlns:xlink="http://www.w3.org/1999/xlink"><defs><style>*{stroke-linecap:butt;stroke-linejoin:round}</style></defs><g id="figure_1"><path d="M0 310.868h408.101V0H0z" fill="#fff" id="patch_1"/><g id="axes_1"><path d="M43.781 273.312h306.103V51.552H43.781z" fill="#fff" id="patch_2"/><path clip-path="url(#p683fc5699c)" d="M43.781 262.008L349.884 70.65" fill="none" stroke="#000" stroke-dasharray="5.55,2.4" stroke-opacity=".5" stroke-width="1.5" id="line2d_1"/><g id="PathCollection_1"><defs><path d="M0 3a3 3 0 100-6 3 3 0 000 6z" id="C0_0_7c521ab83f"/></defs><g clip-path="url(#p683fc5699c)"><use x="207.654" xlink:href="#C0_0_7c521ab83f" y="172.438" fill="#f7fbff" stroke="#f7fbff"/></g><g clip-path="url(#p683fc5699c)"><use x="143.894" xlink:href="#C0_0_7c521ab83f" y="224.862" fill="#ebf3fb" stroke="#ebf3fb"/></g><g clip-path="url(#p683fc5699c)"><use x="308.52" xlink:href="#C0_0_7c521ab83f" y="93.534" fill="#eaf2fb" stroke="#eaf2fb"/></g><g clip-path="url(#p683fc5699c)"><use x="182.926" xlink:href="#C0_0_7c521ab83f" y="171.947" fill="#e8f1fa" stroke="#e8f1fa"/></g><g clip-path="url(#p683fc5699c)"><use x="325.09" xlink:href="#C0_0_7c521ab83f" y="81.358" fill="#e3eef9" stroke="#e3eef9"/></g><g clip-path="url(#p683fc5699c)"><use x="205.741" xlink:href="#C0_0_7c521ab83f" y="176.571" fill="#e2edf8" stroke="#e2edf8"/></g><g clip-path="url(#p683fc5699c)"><use x="82.329" xlink:href="#C0_0_7c521ab83f" y="207.086" fill="#dceaf6" stroke="#dceaf6"/></g><g clip-path="url(#p683fc5699c)"><use x="253.199" xlink:href="#C0_0_7c521ab83f" y="126.047" fill="#d7e6f5" stroke="#d7e6f5"/></g><g clip-path="url(#p683fc5699c)"><use x="163.4" xlink:href="#C0_0_7c521ab83f" y="179.076" fill="#d6e6f4" stroke="#d6e6f4"/></g><g clip-path="url(#p683fc5699c)"><use x="297.127" xlink:href="#C0_0_7c521ab83f" y="90.144" fill="#d3e3f3" stroke="#d3e3f3"/></g><g clip-path="url(#p683fc5699c)"><use x="191.959" xlink:href="#C0_0_7c521ab83f" y="136.145" fill="#d2e3f3" stroke="#d2e3f3"/></g><g clip-path="url(#p683fc5699c)"><use x="232.3" xlink:href="#C0_0_7c521ab83f" y="138.27" fill="#d0e2f2" stroke="#d0e2f2"/></g><g clip-path="url(#p683fc5699c)"><use x="308.891" xlink:href="#C0_0_7c521ab83f" y="96.186" fill="#d0e2f2" stroke="#d0e2f2"/></g><g clip-path="url(#p683fc5699c)"><use x="152.295" xlink:href="#C0_0_7c521ab83f" y="157.878" fill="#cee0f2" stroke="#cee0f2"/></g><g clip-path="url(#p683fc5699c)"><use x="141.597" xlink:href="#C0_0_7c521ab83f" y="200.959" fill="#cddff1" stroke="#cddff1"/></g><g clip-path="url(#p683fc5699c)"><use x="252.29" xlink:href="#C0_0_7c521ab83f" y="155.731" fill="#ccdff1" stroke="#ccdff1"/></g><g clip-path="url(#p683fc5699c)"><use x="85.65" xlink:href="#C0_0_7c521ab83f" y="213.198" fill="#ccdff1" stroke="#ccdff1"/></g><g clip-path="url(#p683fc5699c)"><use x="99.624" xlink:href="#C0_0_7c521ab83f" y="231.688" fill="#cbdef1" stroke="#cbdef1"/></g><g clip-path="url(#p683fc5699c)"><use x="320.34" xlink:href="#C0_0_7c521ab83f" y="108.078" fill="#cadef0" stroke="#cadef0"/></g><g clip-path="url(#p683fc5699c)"><use x="130.903" xlink:href="#C0_0_7c521ab83f" y="220.892" fill="#c9ddf0" stroke="#c9ddf0"/></g><g clip-path="url(#p683fc5699c)"><use x="209.919" xlink:href="#C0_0_7c521ab83f" y="128.014" fill="#c6dbef" stroke="#c6dbef"/></g><g clip-path="url(#p683fc5699c)"><use x="199.789" xlink:href="#C0_0_7c521ab83f" y="177.098" fill="#c4daee" stroke="#c4daee"/></g><g clip-path="url(#p683fc5699c)"><use x="177.143" xlink:href="#C0_0_7c521ab83f" y="157.882" fill="#c3daee" stroke="#c3daee"/></g><g clip-path="url(#p683fc5699c)"><use x="115.227" xlink:href="#C0_0_7c521ab83f" y="182.476" fill="#bdd7ec" stroke="#bdd7ec"/></g><g clip-path="url(#p683fc5699c)"><use x="296.002" xlink:href="#C0_0_7c521ab83f" y="73.659" fill="#bcd7eb" stroke="#bcd7eb"/></g><g clip-path="url(#p683fc5699c)"><use x="185.346" xlink:href="#C0_0_7c521ab83f" y="169.191" fill="#b9d6ea" stroke="#b9d6ea"/></g><g clip-path="url(#p683fc5699c)"><use x="66.224" xlink:href="#C0_0_7c521ab83f" y="239.521" fill="#b7d4ea" stroke="#b7d4ea"/></g><g clip-path="url(#p683fc5699c)"><use x="166.273" xlink:href="#C0_0_7c521ab83f" y="205.757" fill="#b7d4ea" stroke="#b7d4ea"/></g><g clip-path="url(#p683fc5699c)"><use x="248.359" xlink:href="#C0_0_7c521ab83f" y="113.865" fill="#b4d3e9" stroke="#b4d3e9"/></g><g clip-path="url(#p683fc5699c)"><use x="117.247" xlink:href="#C0_0_7c521ab83f" y="208.803" fill="#b4d3e9" stroke="#b4d3e9"/></g><g clip-path="url(#p683fc5699c)"><use x="209.354" xlink:href="#C0_0_7c521ab83f" y="144.206" fill="#b2d2e8" stroke="#b2d2e8"/></g><g clip-path="url(#p683fc5699c)"><use x="246.423" xlink:href="#C0_0_7c521ab83f" y="131.827" fill="#b2d2e8" stroke="#b2d2e8"/></g><g clip-path="url(#p683fc5699c)"><use x="91.038" xlink:href="#C0_0_7c521ab83f" y="218.127" fill="#b0d2e7" stroke="#b0d2e7"/></g><g clip-path="url(#p683fc5699c)"><use x="297.454" xlink:href="#C0_0_7c521ab83f" y="98.43" fill="#b0d2e7" stroke="#b0d2e7"/></g><g clip-path="url(#p683fc5699c)"><use x="288.681" xlink:href="#C0_0_7c521ab83f" y="108.784" fill="#afd1e7" stroke="#afd1e7"/></g><g clip-path="url(#p683fc5699c)"><use x="260.602" xlink:href="#C0_0_7c521ab83f" y="159.898" fill="#afd1e7" stroke="#afd1e7"/></g><g clip-path="url(#p683fc5699c)"><use x="229.199" xlink:href="#C0_0_7c521ab83f" y="113.81" fill="#afd1e7" stroke="#afd1e7"/></g><g clip-path="url(#p683fc5699c)"><use x="219.44" xlink:href="#C0_0_7c521ab83f" y="165.8" fill="#a9cfe5" stroke="#a9cfe5"/></g><g clip-path="url(#p683fc5699c)"><use x="238.37" xlink:href="#C0_0_7c521ab83f" y="149.571" fill="#a6cee4" stroke="#a6cee4"/></g><g clip-path="url(#p683fc5699c)"><use x="149.274" xlink:href="#C0_0_7c521ab83f" y="193.566" fill="#a5cde3" stroke="#a5cde3"/></g><g clip-path="url(#p683fc5699c)"><use x="303.575" xlink:href="#C0_0_7c521ab83f" y="96.015" fill="#a4cce3" stroke="#a4cce3"/></g><g clip-path="url(#p683fc5699c)"><use x="196.556" xlink:href="#C0_0_7c521ab83f" y="149.419" fill="#a3cce3" stroke="#a3cce3"/></g><g clip-path="url(#p683fc5699c)"><use x="84.981" xlink:href="#C0_0_7c521ab83f" y="254.067" fill="#a3cce3" stroke="#a3cce3"/></g><g clip-path="url(#p683fc5699c)"><use x="151.639" xlink:href="#C0_0_7c521ab83f" y="192.207" fill="#a1cbe2" stroke="#a1cbe2"/></g><g clip-path="url(#p683fc5699c)"><use x="201.137" xlink:href="#C0_0_7c521ab83f" y="182.777" fill="#a0cbe2" stroke="#a0cbe2"/></g><g clip-path="url(#p683fc5699c)"><use x="183.752" xlink:href="#C0_0_7c521ab83f" y="176.285" fill="#a0cbe2" stroke="#a0cbe2"/></g><g clip-path="url(#p683fc5699c)"><use x="263.484" xlink:href="#C0_0_7c521ab83f" y="144.942" fill="#9fcae1" stroke="#9fcae1"/></g><g clip-path="url(#p683fc5699c)"><use x="130.211" xlink:href="#C0_0_7c521ab83f" y="234.132" fill="#9dcae1" stroke="#9dcae1"/></g><g clip-path="url(#p683fc5699c)"><use x="129.578" xlink:href="#C0_0_7c521ab83f" y="181.572" fill="#99c7e0" stroke="#99c7e0"/></g><g clip-path="url(#p683fc5699c)"><use x="305.94" xlink:href="#C0_0_7c521ab83f" y="88.558" fill="#95c5df" stroke="#95c5df"/></g><g clip-path="url(#p683fc5699c)"><use x="328.361" xlink:href="#C0_0_7c521ab83f" y="103.036" fill="#91c3de" stroke="#91c3de"/></g><g clip-path="url(#p683fc5699c)"><use x="302.367" xlink:href="#C0_0_7c521ab83f" y="119.109" fill="#8dc1dd" stroke="#8dc1dd"/></g><g clip-path="url(#p683fc5699c)"><use x="137.2" xlink:href="#C0_0_7c521ab83f" y="209.232" fill="#8cc0dd" stroke="#8cc0dd"/></g><g clip-path="url(#p683fc5699c)"><use x="309.841" xlink:href="#C0_0_7c521ab83f" y="79.308" fill="#8cc0dd" stroke="#8cc0dd"/></g><g clip-path="url(#p683fc5699c)"><use x="205.876" xlink:href="#C0_0_7c521ab83f" y="186.128" fill="#89bedc" stroke="#89bedc"/></g><g clip-path="url(#p683fc5699c)"><use x="75.411" xlink:href="#C0_0_7c521ab83f" y="237.462" fill="#85bcdc" stroke="#85bcdc"/></g><g clip-path="url(#p683fc5699c)"><use x="180.575" xlink:href="#C0_0_7c521ab83f" y="161.412" fill="#85bcdc" stroke="#85bcdc"/></g><g clip-path="url(#p683fc5699c)"><use x="317.914" xlink:href="#C0_0_7c521ab83f" y="88.05" fill="#84bcdb" stroke="#84bcdb"/></g><g clip-path="url(#p683fc5699c)"><use x="206.297" xlink:href="#C0_0_7c521ab83f" y="149.678" fill="#79b5d9" stroke="#79b5d9"/></g><g clip-path="url(#p683fc5699c)"><use x="74.012" xlink:href="#C0_0_7c521ab83f" y="239.053" fill="#79b5d9" stroke="#79b5d9"/></g><g clip-path="url(#p683fc5699c)"><use x="306.679" xlink:href="#C0_0_7c521ab83f" y="65.874" fill="#71b1d7" stroke="#71b1d7"/></g><g clip-path="url(#p683fc5699c)"><use x="173.297" xlink:href="#C0_0_7c521ab83f" y="194.264" fill="#71b1d7" stroke="#71b1d7"/></g><g clip-path="url(#p683fc5699c)"><use x="118.013" xlink:href="#C0_0_7c521ab83f" y="254.126" fill="#6fb0d7" stroke="#6fb0d7"/></g><g clip-path="url(#p683fc5699c)"><use x="154.296" xlink:href="#C0_0_7c521ab83f" y="179.616" fill="#6dafd7" stroke="#6dafd7"/></g><g clip-path="url(#p683fc5699c)"><use x="248.605" xlink:href="#C0_0_7c521ab83f" y="155.779" fill="#6caed6" stroke="#6caed6"/></g><g clip-path="url(#p683fc5699c)"><use x="293.946" xlink:href="#C0_0_7c521ab83f" y="75.324" fill="#6caed6" stroke="#6caed6"/></g><g clip-path="url(#p683fc5699c)"><use x="226.739" xlink:href="#C0_0_7c521ab83f" y="179.666" fill="#68acd5" stroke="#68acd5"/></g><g clip-path="url(#p683fc5699c)"><use x="194.907" xlink:href="#C0_0_7c521ab83f" y="167.722" fill="#68acd5" stroke="#68acd5"/></g><g clip-path="url(#p683fc5699c)"><use x="313.197" xlink:href="#C0_0_7c521ab83f" y="84.816" fill="#68acd5" stroke="#68acd5"/></g><g clip-path="url(#p683fc5699c)"><use x="69.421" xlink:href="#C0_0_7c521ab83f" y="256.589" fill="#66abd4" stroke="#66abd4"/></g><g clip-path="url(#p683fc5699c)"><use x="247.59" xlink:href="#C0_0_7c521ab83f" y="151.697" fill="#66abd4" stroke="#66abd4"/></g><g clip-path="url(#p683fc5699c)"><use x="285.191" xlink:href="#C0_0_7c521ab83f" y="163.659" fill="#66abd4" stroke="#66abd4"/></g><g clip-path="url(#p683fc5699c)"><use x="261.769" xlink:href="#C0_0_7c521ab83f" y="139.338" fill="#66abd4" stroke="#66abd4"/></g><g clip-path="url(#p683fc5699c)"><use x="128.945" xlink:href="#C0_0_7c521ab83f" y="193.444" fill="#65aad4" stroke="#65aad4"/></g><g clip-path="url(#p683fc5699c)"><use x="181.918" xlink:href="#C0_0_7c521ab83f" y="179.915" fill="#65aad4" stroke="#65aad4"/></g><g clip-path="url(#p683fc5699c)"><use x="131.882" xlink:href="#C0_0_7c521ab83f" y="177.495" fill="#65aad4" stroke="#65aad4"/></g><g clip-path="url(#p683fc5699c)"><use x="222.75" xlink:href="#C0_0_7c521ab83f" y="157.395" fill="#64a9d3" stroke="#64a9d3"/></g><g clip-path="url(#p683fc5699c)"><use x="209.616" xlink:href="#C0_0_7c521ab83f" y="149.381" fill="#63a8d3" stroke="#63a8d3"/></g><g clip-path="url(#p683fc5699c)"><use x="260.081" xlink:href="#C0_0_7c521ab83f" y="118.882" fill="#61a7d2" stroke="#61a7d2"/></g><g clip-path="url(#p683fc5699c)"><use x="103.54" xlink:href="#C0_0_7c521ab83f" y="231.841" fill="#61a7d2" stroke="#61a7d2"/></g><g clip-path="url(#p683fc5699c)"><use x="231.229" xlink:href="#C0_0_7c521ab83f" y="127.353" fill="#60a7d2" stroke="#60a7d2"/></g><g clip-path="url(#p683fc5699c)"><use x="117.053" xlink:href="#C0_0_7c521ab83f" y="196.055" fill="#60a7d2" stroke="#60a7d2"/></g><g clip-path="url(#p683fc5699c)"><use x="257.114" xlink:href="#C0_0_7c521ab83f" y="145.372" fill="#60a7d2" stroke="#60a7d2"/></g><g clip-path="url(#p683fc5699c)"><use x="231.76" xlink:href="#C0_0_7c521ab83f" y="123.283" fill="#5fa6d1" stroke="#5fa6d1"/></g><g clip-path="url(#p683fc5699c)"><use x="236.955" xlink:href="#C0_0_7c521ab83f" y="139.328" fill="#5fa6d1" stroke="#5fa6d1"/></g><g clip-path="url(#p683fc5699c)"><use x="203.953" xlink:href="#C0_0_7c521ab83f" y="159.069" fill="#5fa6d1" stroke="#5fa6d1"/></g><g clip-path="url(#p683fc5699c)"><use x="151.203" xlink:href="#C0_0_7c521ab83f" y="181.785" fill="#5fa6d1" stroke="#5fa6d1"/></g><g clip-path="url(#p683fc5699c)"><use x="270.375" xlink:href="#C0_0_7c521ab83f" y="116.778" fill="#5da5d1" stroke="#5da5d1"/></g><g clip-path="url(#p683fc5699c)"><use x="320.424" xlink:href="#C0_0_7c521ab83f" y="84.62" fill="#5ca4d0" stroke="#5ca4d0"/></g><g clip-path="url(#p683fc5699c)"><use x="220.941" xlink:href="#C0_0_7c521ab83f" y="175.615" fill="#5ba3d0" stroke="#5ba3d0"/></g><g clip-path="url(#p683fc5699c)"><use x="60.963" xlink:href="#C0_0_7c521ab83f" y="209.433" fill="#56a0ce" stroke="#56a0ce"/></g><g clip-path="url(#p683fc5699c)"><use x="332.78" xlink:href="#C0_0_7c521ab83f" y="112.619" fill="#4997c9" stroke="#4997c9"/></g><g clip-path="url(#p683fc5699c)"><use x="248.362" xlink:href="#C0_0_7c521ab83f" y="152.583" fill="#4695c8" stroke="#4695c8"/></g><g clip-path="url(#p683fc5699c)"><use x="132.993" xlink:href="#C0_0_7c521ab83f" y="219.675" fill="#3a8ac2" stroke="#3a8ac2"/></g><g clip-path="url(#p683fc5699c)"><use x="314.605" xlink:href="#C0_0_7c521ab83f" y="108.405" fill="#0a539e" stroke="#0a539e"/></g><g clip-path="url(#p683fc5699c)"><use x="315.598" xlink:href="#C0_0_7c521ab83f" y="108.905" fill="#08306b" stroke="#08306b"/></g></g><g id="matplotlib.axis_1"><g id="xtick_1"><g id="line2d_2"><defs><path d="M0 0v3.5" id="mbcc174979a" stroke="#000" stroke-width=".8"/></defs><use x="56.874" xlink:href="#mbcc174979a" y="273.312" stroke="#000" stroke-width=".8"/></g><g id="text_1"><defs><path d="M31.781 66.406q-7.61 0-11.453-7.5Q16.5 51.422 16.5 36.375q0-14.984 3.828-22.484 3.844-7.5 11.453-7.5 7.672 0 11.5 7.5 3.844 7.5 3.844 22.484 0 15.047-3.844 22.531-3.828 7.5-11.5 7.5zm0 7.813q12.266 0 18.735-9.703 6.468-9.688 6.468-28.141 0-18.406-6.468-28.11-6.47-9.687-18.735-9.687-12.25 0-18.718 9.688-6.47 9.703-6.47 28.109 0 18.453 6.47 28.14Q19.53 74.22 31.78 74.22z" id="DejaVuSans-48"/><path d="M10.688 12.406H21V0H10.687z" id="DejaVuSans-46"/></defs><g transform="matrix(.1 0 0 -.1 48.922 287.91)"><use xlink:href="#DejaVuSans-48"/><use x="63.623" xlink:href="#DejaVuSans-46"/><use x="95.41" xlink:href="#DejaVuSans-48"/></g></g></g><g id="xtick_2"><use x="114.396" xlink:href="#mbcc174979a" y="273.312" stroke="#000" stroke-width=".8" id="line2d_3"/><g id="text_2"><defs><path d="M19.188 8.297h34.421V0H7.33v8.297q5.609 5.812 15.296 15.594 9.703 9.797 12.188 12.64 4.734 5.313 6.609 9 1.89 3.688 1.89 7.25 0 5.813-4.078 9.469-4.078 3.672-10.625 3.672-4.64 0-9.797-1.61-5.14-1.609-11-4.89v9.969Q13.767 71.78 18.938 73q5.188 1.219 9.485 1.219 11.328 0 18.062-5.672 6.735-5.656 6.735-15.125 0-4.5-1.688-8.531-1.672-4.016-6.125-9.485-1.218-1.422-7.765-8.187-6.532-6.766-18.453-18.922z" id="DejaVuSans-50"/></defs><g transform="matrix(.1 0 0 -.1 106.445 287.91)"><use xlink:href="#DejaVuSans-48"/><use x="63.623" xlink:href="#DejaVuSans-46"/><use x="95.41" xlink:href="#DejaVuSans-50"/></g></g></g><g id="xtick_3"><use x="171.919" xlink:href="#mbcc174979a" y="273.312" stroke="#000" stroke-width=".8" id="line2d_4"/><g id="text_3"><defs><path d="M37.797 64.313L12.89 25.39h24.906zm-2.594 8.593H47.61V25.391h10.407v-8.203H47.609V0h-9.812v17.188H4.89v9.515z" id="DejaVuSans-52"/></defs><g transform="matrix(.1 0 0 -.1 163.967 287.91)"><use xlink:href="#DejaVuSans-48"/><use x="63.623" xlink:href="#DejaVuSans-46"/><use x="95.41" xlink:href="#DejaVuSans-52"/></g></g></g><g id="xtick_4"><use x="229.441" xlink:href="#mbcc174979a" y="273.312" stroke="#000" stroke-width=".8" id="line2d_5"/><g id="text_4"><defs><path d="M33.016 40.375q-6.641 0-10.532-4.547-3.875-4.531-3.875-12.437 0-7.86 3.875-12.438 3.891-4.562 10.532-4.562 6.64 0 10.515 4.562 3.875 4.578 3.875 12.438 0 7.906-3.875 12.437-3.875 4.547-10.515 4.547zm19.578 30.922v-8.984q-3.719 1.75-7.5 2.671-3.782.938-7.5.938-9.766 0-14.922-6.594-5.14-6.594-5.875-19.922 2.875 4.25 7.219 6.516 4.359 2.266 9.578 2.266 10.984 0 17.36-6.672 6.374-6.657 6.374-18.125 0-11.235-6.64-18.032-6.641-6.78-17.672-6.78-12.657 0-19.344 9.687-6.688 9.703-6.688 28.109 0 17.281 8.204 27.563 8.203 10.28 22.015 10.28 3.719 0 7.5-.734t7.89-2.187z" id="DejaVuSans-54"/></defs><g transform="matrix(.1 0 0 -.1 221.49 287.91)"><use xlink:href="#DejaVuSans-48"/><use x="63.623" xlink:href="#DejaVuSans-46"/><use x="95.41" xlink:href="#DejaVuSans-54"/></g></g></g><g id="xtick_5"><use x="286.964" xlink:href="#mbcc174979a" y="273.312" stroke="#000" stroke-width=".8" id="line2d_6"/><g id="text_5"><defs><path d="M31.781 34.625q-7.031 0-11.062-3.766-4.016-3.765-4.016-10.343 0-6.594 4.016-10.36Q24.75 6.391 31.78 6.391q7.032 0 11.078 3.78 4.063 3.798 4.063 10.345 0 6.578-4.031 10.343-4.016 3.766-11.11 3.766zm-9.86 4.188q-6.343 1.562-9.89 5.906Q8.5 49.079 8.5 55.329q0 8.733 6.219 13.812 6.234 5.078 17.062 5.078 10.89 0 17.094-5.078 6.203-5.079 6.203-13.813 0-6.25-3.547-10.61-3.531-4.343-9.828-5.906 7.125-1.656 11.094-6.5 3.984-4.828 3.984-11.796 0-10.61-6.468-16.282-6.47-5.656-18.532-5.656-12.047 0-18.531 5.656-6.469 5.672-6.469 16.282 0 6.968 4 11.797 4.016 4.843 11.14 6.5zM18.314 54.39q0-5.657 3.53-8.828 3.548-3.172 9.938-3.172 6.36 0 9.938 3.172 3.593 3.171 3.593 8.828 0 5.672-3.593 8.843-3.578 3.172-9.938 3.172-6.39 0-9.937-3.172-3.532-3.172-3.532-8.843z" id="DejaVuSans-56"/></defs><g transform="matrix(.1 0 0 -.1 279.012 287.91)"><use xlink:href="#DejaVuSans-48"/><use x="63.623" xlink:href="#DejaVuSans-46"/><use x="95.41" xlink:href="#DejaVuSans-56"/></g></g></g><g id="xtick_6"><use x="344.486" xlink:href="#mbcc174979a" y="273.312" stroke="#000" stroke-width=".8" id="line2d_7"/><g id="text_6"><defs><path d="M12.406 8.297h16.11v55.625l-17.532-3.516v8.985l17.438 3.515h9.86V8.296H54.39V0H12.406z" id="DejaVuSans-49"/></defs><g transform="matrix(.1 0 0 -.1 336.535 287.91)"><use xlink:href="#DejaVuSans-49"/><use x="63.623" xlink:href="#DejaVuSans-46"/><use x="95.41" xlink:href="#DejaVuSans-48"/></g></g></g><g id="text_7"><defs><path d="M34.281 27.484q-10.89 0-15.093-2.484-4.204-2.484-4.204-8.5 0-4.781 3.157-7.594 3.156-2.797 8.562-2.797 7.485 0 12 5.297 4.516 5.297 4.516 14.078v2zm17.922 3.72V0H43.22v8.297Q40.14 3.328 35.547.953q-4.594-2.375-11.234-2.375-8.391 0-13.36 4.719Q6 8.016 6 15.922q0 9.219 6.172 13.906 6.187 4.688 18.437 4.688h12.61v.89q0 6.203-4.078 9.594-4.078 3.39-11.453 3.39-4.688 0-9.141-1.124-4.438-1.125-8.531-3.375v8.312q4.921 1.906 9.562 2.844 4.64.953 9.031.953 11.875 0 17.735-6.156 5.86-6.14 5.86-18.64z" id="DejaVuSans-97"/><path d="M48.781 52.594v-8.407q-3.812 2.11-7.64 3.157-3.828 1.047-7.735 1.047-8.75 0-13.593-5.547-4.829-5.532-4.829-15.547 0-10.016 4.829-15.563 4.843-5.53 13.593-5.53 3.907 0 7.735 1.046 3.828 1.047 7.64 3.156V2.094Q45.016.344 40.984-.531q-4.015-.89-8.562-.89-12.36 0-19.64 7.765-7.266 7.765-7.266 20.953 0 13.375 7.343 21.031Q20.22 56 33.016 56q4.14 0 8.093-.86 3.953-.843 7.672-2.546z" id="DejaVuSans-99"/><path d="M18.313 70.219V54.688h18.5v-6.985h-18.5V18.016q0-6.688 1.828-8.594 1.828-1.906 7.453-1.906h9.218V0h-9.218q-10.407 0-14.36 3.875-3.953 3.89-3.953 14.14v29.688H2.687v6.984h6.594V70.22z" id="DejaVuSans-116"/><path d="M8.5 21.578v33.11h8.984V21.922q0-7.766 3.016-11.656 3.031-3.875 9.094-3.875 7.265 0 11.484 4.64 4.234 4.64 4.234 12.656v31h8.985V0h-8.984v8.406Q42.047 3.422 37.718 1q-4.313-2.422-10.032-2.422-9.421 0-14.312 5.86Q8.5 10.296 8.5 21.578zM31.11 56z" id="DejaVuSans-117"/><path d="M9.422 75.984h8.984V0H9.422z" id="DejaVuSans-108"/></defs><g transform="matrix(.1 0 0 -.1 181.437 301.589)"><use xlink:href="#DejaVuSans-97"/><use x="61.279" xlink:href="#DejaVuSans-99"/><use x="116.26" xlink:href="#DejaVuSans-116"/><use x="155.469" xlink:href="#DejaVuSans-117"/><use x="218.848" xlink:href="#DejaVuSans-97"/><use x="280.127" xlink:href="#DejaVuSans-108"/></g></g></g><g id="matplotlib.axis_2"><g id="ytick_1"><g id="line2d_8"><defs><path d="M0 0h-3.5" id="m5545fb4d8e" stroke="#000" stroke-width=".8"/></defs><use x="43.781" xlink:href="#m5545fb4d8e" y="253.823" stroke="#000" stroke-width=".8"/></g><g transform="matrix(.1 0 0 -.1 20.878 257.622)" id="text_8"><use xlink:href="#DejaVuSans-48"/><use x="63.623" xlink:href="#DejaVuSans-46"/><use x="95.41" xlink:href="#DejaVuSans-48"/></g></g><g id="ytick_2"><use x="43.781" xlink:href="#m5545fb4d8e" y="217.863" stroke="#000" stroke-width=".8" id="line2d_9"/><g transform="matrix(.1 0 0 -.1 20.878 221.663)" id="text_9"><use xlink:href="#DejaVuSans-48"/><use x="63.623" xlink:href="#DejaVuSans-46"/><use x="95.41" xlink:href="#DejaVuSans-50"/></g></g><g id="ytick_3"><use x="43.781" xlink:href="#m5545fb4d8e" y="181.904" stroke="#000" stroke-width=".8" id="line2d_10"/><g transform="matrix(.1 0 0 -.1 20.878 185.703)" id="text_10"><use xlink:href="#DejaVuSans-48"/><use x="63.623" xlink:href="#DejaVuSans-46"/><use x="95.41" xlink:href="#DejaVuSans-52"/></g></g><g id="ytick_4"><use x="43.781" xlink:href="#m5545fb4d8e" y="145.944" stroke="#000" stroke-width=".8" id="line2d_11"/><g transform="matrix(.1 0 0 -.1 20.878 149.743)" id="text_11"><use xlink:href="#DejaVuSans-48"/><use x="63.623" xlink:href="#DejaVuSans-46"/><use x="95.41" xlink:href="#DejaVuSans-54"/></g></g><g id="ytick_5"><use x="43.781" xlink:href="#m5545fb4d8e" y="109.984" stroke="#000" stroke-width=".8" id="line2d_12"/><g transform="matrix(.1 0 0 -.1 20.878 113.784)" id="text_12"><use xlink:href="#DejaVuSans-48"/><use x="63.623" xlink:href="#DejaVuSans-46"/><use x="95.41" xlink:href="#DejaVuSans-56"/></g></g><g id="ytick_6"><use x="43.781" xlink:href="#m5545fb4d8e" y="74.025" stroke="#000" stroke-width=".8" id="line2d_13"/><g transform="matrix(.1 0 0 -.1 20.878 77.824)" id="text_13"><use xlink:href="#DejaVuSans-49"/><use x="63.623" xlink:href="#DejaVuSans-46"/><use x="95.41" xlink:href="#DejaVuSans-48"/></g></g><g id="text_14"><defs><path d="M18.11 8.203v-29H9.077v75.484h9.031v-8.296q2.844 4.875 7.157 7.234Q29.594 56 35.594 56q9.968 0 16.187-7.906 6.235-7.907 6.235-20.797T51.78 6.484q-6.218-7.906-16.187-7.906-6 0-10.328 2.375-4.313 2.375-7.157 7.25zm30.578 19.094q0 9.906-4.079 15.547-4.078 5.64-11.203 5.64-7.14 0-11.218-5.64-4.079-5.64-4.079-15.547 0-9.906 4.078-15.547 4.079-5.64 11.22-5.64 7.124 0 11.202 5.64t4.078 15.547z" id="DejaVuSans-112"/><path d="M41.11 46.297q-1.516.875-3.297 1.281Q36.03 48 33.89 48q-7.625 0-11.703-4.953-4.079-4.953-4.079-14.234V0H9.08v54.688h9.03v-8.5q2.844 4.984 7.375 7.39Q30.031 56 36.531 56q.922 0 2.047-.125 1.125-.11 2.484-.36z" id="DejaVuSans-114"/><path d="M56.203 29.594v-4.39H14.891q.593-9.282 5.593-14.142 5-4.859 13.938-4.859 5.172 0 10.031 1.266 4.86 1.265 9.656 3.812v-8.5Q49.266.734 44.187-.344 39.11-1.422 33.892-1.422q-13.094 0-20.735 7.61-7.64 7.625-7.64 20.625 0 13.421 7.25 21.296Q20.016 56 32.328 56q11.031 0 17.453-7.11 6.422-7.093 6.422-19.296zm-8.984 2.64q-.094 7.36-4.125 11.75-4.032 4.407-10.672 4.407-7.516 0-12.031-4.25-4.516-4.25-5.203-11.97z" id="DejaVuSans-101"/><path d="M45.406 46.39v29.594h8.985V0h-8.985v8.203Q42.578 3.328 38.25.953q-4.313-2.375-10.375-2.375-9.906 0-16.14 7.906-6.22 7.922-6.22 20.813 0 12.89 6.22 20.797Q17.968 56 27.874 56q6.063 0 10.375-2.375 4.328-2.36 7.156-7.234zm-30.61-19.093q0-9.906 4.079-15.547 4.078-5.64 11.203-5.64 7.125 0 11.219 5.64 4.11 5.64 4.11 15.547 0 9.906-4.11 15.547-4.094 5.64-11.219 5.64-7.125 0-11.203-5.64-4.078-5.64-4.078-15.547z" id="DejaVuSans-100"/><path d="M9.422 54.688h8.984V0H9.422zm0 21.296h8.984v-11.39H9.422z" id="DejaVuSans-105"/></defs><g transform="matrix(0 -.1 -.1 0 14.798 186.26)"><use xlink:href="#DejaVuSans-112"/><use x="63.477" xlink:href="#DejaVuSans-114"/><use x="104.559" xlink:href="#DejaVuSans-101"/><use x="166.082" xlink:href="#DejaVuSans-100"/><use x="229.559" xlink:href="#DejaVuSans-105"/><use x="257.342" xlink:href="#DejaVuSans-99"/><use x="312.322" xlink:href="#DejaVuSans-116"/><use x="351.531" xlink:href="#DejaVuSans-101"/><use x="413.055" xlink:href="#DejaVuSans-100"/></g></g></g><path d="M43.781 273.312V51.552" fill="none" stroke="#000" stroke-linecap="square" stroke-width=".8" id="patch_3"/><path d="M349.884 273.312V51.552" fill="none" stroke="#000" stroke-linecap="square" stroke-width=".8" id="patch_4"/><path d="M43.781 273.312h306.103" fill="none" stroke="#000" stroke-linecap="square" stroke-width=".8" id="patch_5"/><path d="M43.781 51.552h306.103" fill="none" stroke="#000" stroke-linecap="square" stroke-width=".8" id="patch_6"/><g id="legend_1"><path d="M52.781 64.65h20" fill="none" stroke="#000" stroke-dasharray="5.55,2.4" stroke-opacity=".5" stroke-width="1.5" id="line2d_14"/><g transform="matrix(.1 0 0 -.1 80.781 68.15)" id="text_15"><use xlink:href="#DejaVuSans-105"/><use x="27.783" xlink:href="#DejaVuSans-100"/><use x="91.26" xlink:href="#DejaVuSans-101"/><use x="152.783" xlink:href="#DejaVuSans-97"/><use x="214.063" xlink:href="#DejaVuSans-108"/></g></g></g><g id="axes_2"><path clip-path="url(#p38464b1cbd)" d="M57.695 51.552h2.23v-10.56h-2.23z" fill="#1f77b4" id="patch_7"/><path clip-path="url(#p38464b1cbd)" d="M60.483 51.552h2.231v-10.56h-2.23z" fill="#1f77b4" id="patch_8"/><path clip-path="url(#p38464b1cbd)" d="M63.272 51.552h2.23-2.23z" fill="#1f77b4" id="patch_9"/><path clip-path="url(#p38464b1cbd)" d="M66.06 51.552h2.23v-10.56h-2.23z" fill="#1f77b4" id="patch_10"/><path clip-path="url(#p38464b1cbd)" d="M68.848 51.552h2.231v-10.56h-2.23z" fill="#1f77b4" id="patch_11"/><path clip-path="url(#p38464b1cbd)" d="M71.637 51.552h2.23v-10.56h-2.23z" fill="#1f77b4" id="patch_12"/><path clip-path="url(#p38464b1cbd)" d="M74.425 51.552h2.23v-10.56h-2.23z" fill="#1f77b4" id="patch_13"/><path clip-path="url(#p38464b1cbd)" d="M77.213 51.552h2.231-2.23z" fill="#1f77b4" id="patch_14"/><path clip-path="url(#p38464b1cbd)" d="M80.002 51.552h2.23v-10.56h-2.23z" fill="#1f77b4" id="patch_15"/><path clip-path="url(#p38464b1cbd)" d="M82.79 51.552h2.23v-10.56h-2.23z" fill="#1f77b4" id="patch_16"/><path clip-path="url(#p38464b1cbd)" d="M85.578 51.552h2.231v-10.56h-2.23z" fill="#1f77b4" id="patch_17"/><path clip-path="url(#p38464b1cbd)" d="M88.367 51.552h2.23-2.23z" fill="#1f77b4" id="patch_18"/><path clip-path="url(#p38464b1cbd)" d="M91.155 51.552h2.23v-10.56h-2.23z" fill="#1f77b4" id="patch_19"/><path clip-path="url(#p38464b1cbd)" d="M93.943 51.552h2.231-2.23z" fill="#1f77b4" id="patch_20"/><path clip-path="url(#p38464b1cbd)" d="M96.732 51.552h2.23v-10.56h-2.23z" fill="#1f77b4" id="patch_21"/><path clip-path="url(#p38464b1cbd)" d="M99.52 51.552h2.23v-10.56h-2.23z" fill="#1f77b4" id="patch_22"/><path clip-path="url(#p38464b1cbd)" d="M102.308 51.552h2.231v-10.56h-2.23z" fill="#1f77b4" id="patch_23"/><path clip-path="url(#p38464b1cbd)" d="M105.097 51.552h2.23-2.23z" fill="#1f77b4" id="patch_24"/><path clip-path="url(#p38464b1cbd)" d="M107.885 51.552h2.23-2.23z" fill="#1f77b4" id="patch_25"/><path clip-path="url(#p38464b1cbd)" d="M110.673 51.552h2.23-2.23z" fill="#1f77b4" id="patch_26"/><path clip-path="url(#p38464b1cbd)" d="M113.462 51.552h2.23v-10.56h-2.23z" fill="#1f77b4" id="patch_27"/><path clip-path="url(#p38464b1cbd)" d="M116.25 51.552h2.23v-31.68h-2.23z" fill="#1f77b4" id="patch_28"/><path clip-path="url(#p38464b1cbd)" d="M119.038 51.552h2.23-2.23z" fill="#1f77b4" id="patch_29"/><path clip-path="url(#p38464b1cbd)" d="M121.827 51.552h2.23-2.23z" fill="#1f77b4" id="patch_30"/><path clip-path="url(#p38464b1cbd)" d="M124.615 51.552h2.23-2.23z" fill="#1f77b4" id="patch_31"/><path clip-path="url(#p38464b1cbd)" d="M127.403 51.552h2.23v-21.12h-2.23z" fill="#1f77b4" id="patch_32"/><path clip-path="url(#p38464b1cbd)" d="M130.192 51.552h2.23v-31.68h-2.23z" fill="#1f77b4" id="patch_33"/><path clip-path="url(#p38464b1cbd)" d="M132.98 51.552h2.23v-10.56h-2.23z" fill="#1f77b4" id="patch_34"/><path clip-path="url(#p38464b1cbd)" d="M135.768 51.552h2.23v-10.56h-2.23z" fill="#1f77b4" id="patch_35"/><path clip-path="url(#p38464b1cbd)" d="M138.557 51.552h2.23-2.23z" fill="#1f77b4" id="patch_36"/><path clip-path="url(#p38464b1cbd)" d="M141.345 51.552h2.23v-10.56h-2.23z" fill="#1f77b4" id="patch_37"/><path clip-path="url(#p38464b1cbd)" d="M144.133 51.552h2.23v-10.56h-2.23z" fill="#1f77b4" id="patch_38"/><path clip-path="url(#p38464b1cbd)" d="M146.922 51.552h2.23v-10.56h-2.23z" fill="#1f77b4" id="patch_39"/><path clip-path="url(#p38464b1cbd)" d="M149.71 51.552h2.23v-21.12h-2.23z" fill="#1f77b4" id="patch_40"/><path clip-path="url(#p38464b1cbd)" d="M152.498 51.552h2.23v-21.12h-2.23z" fill="#1f77b4" id="patch_41"/><path clip-path="url(#p38464b1cbd)" d="M155.287 51.552h2.23-2.23z" fill="#1f77b4" id="patch_42"/><path clip-path="url(#p38464b1cbd)" d="M158.075 51.552h2.23-2.23z" fill="#1f77b4" id="patch_43"/><path clip-path="url(#p38464b1cbd)" d="M160.863 51.552h2.23-2.23z" fill="#1f77b4" id="patch_44"/><path clip-path="url(#p38464b1cbd)" d="M163.652 51.552h2.23v-10.56h-2.23z" fill="#1f77b4" id="patch_45"/><path clip-path="url(#p38464b1cbd)" d="M166.44 51.552h2.23v-10.56h-2.23z" fill="#1f77b4" id="patch_46"/><path clip-path="url(#p38464b1cbd)" d="M169.228 51.552h2.23-2.23z" fill="#1f77b4" id="patch_47"/><path clip-path="url(#p38464b1cbd)" d="M172.017 51.552h2.23v-10.56h-2.23z" fill="#1f77b4" id="patch_48"/><path clip-path="url(#p38464b1cbd)" d="M174.805 51.552h2.23v-10.56h-2.23z" fill="#1f77b4" id="patch_49"/><path clip-path="url(#p38464b1cbd)" d="M177.593 51.552h2.23-2.23z" fill="#1f77b4" id="patch_50"/><path clip-path="url(#p38464b1cbd)" d="M180.382 51.552h2.23v-21.12h-2.23z" fill="#1f77b4" id="patch_51"/><path clip-path="url(#p38464b1cbd)" d="M183.17 51.552h2.23v-31.68h-2.23z" fill="#1f77b4" id="patch_52"/><path clip-path="url(#p38464b1cbd)" d="M185.958 51.552h2.23-2.23z" fill="#1f77b4" id="patch_53"/><path clip-path="url(#p38464b1cbd)" d="M188.747 51.552h2.23-2.23z" fill="#1f77b4" id="patch_54"/><path clip-path="url(#p38464b1cbd)" d="M191.535 51.552h2.23v-10.56h-2.23z" fill="#1f77b4" id="patch_55"/><path clip-path="url(#p38464b1cbd)" d="M194.323 51.552h2.23v-21.12h-2.23z" fill="#1f77b4" id="patch_56"/><path clip-path="url(#p38464b1cbd)" d="M197.112 51.552h2.23-2.23z" fill="#1f77b4" id="patch_57"/><path clip-path="url(#p38464b1cbd)" d="M199.9 51.552h2.23v-21.12h-2.23z" fill="#1f77b4" id="patch_58"/><path clip-path="url(#p38464b1cbd)" d="M202.688 51.552h2.23v-10.56h-2.23z" fill="#1f77b4" id="patch_59"/><path clip-path="url(#p38464b1cbd)" d="M205.477 51.552h2.23V9.312h-2.23z" fill="#1f77b4" id="patch_60"/><path clip-path="url(#p38464b1cbd)" d="M208.265 51.552h2.23v-31.68h-2.23z" fill="#1f77b4" id="patch_61"/><path clip-path="url(#p38464b1cbd)" d="M211.053 51.552h2.23-2.23z" fill="#1f77b4" id="patch_62"/><path clip-path="url(#p38464b1cbd)" d="M213.841 51.552h2.231-2.23z" fill="#1f77b4" id="patch_63"/><path clip-path="url(#p38464b1cbd)" d="M216.63 51.552h2.23-2.23z" fill="#1f77b4" id="patch_64"/><path clip-path="url(#p38464b1cbd)" d="M219.418 51.552h2.23v-21.12h-2.23z" fill="#1f77b4" id="patch_65"/><path clip-path="url(#p38464b1cbd)" d="M222.206 51.552h2.231v-10.56h-2.23z" fill="#1f77b4" id="patch_66"/><path clip-path="url(#p38464b1cbd)" d="M224.995 51.552h2.23v-10.56h-2.23z" fill="#1f77b4" id="patch_67"/><path clip-path="url(#p38464b1cbd)" d="M227.783 51.552h2.23v-10.56h-2.23z" fill="#1f77b4" id="patch_68"/><path clip-path="url(#p38464b1cbd)" d="M230.571 51.552h2.231v-31.68h-2.23z" fill="#1f77b4" id="patch_69"/><path clip-path="url(#p38464b1cbd)" d="M233.36 51.552h2.23-2.23z" fill="#1f77b4" id="patch_70"/><path clip-path="url(#p38464b1cbd)" d="M236.148 51.552h2.23v-21.12h-2.23z" fill="#1f77b4" id="patch_71"/><path clip-path="url(#p38464b1cbd)" d="M238.936 51.552h2.231-2.23z" fill="#1f77b4" id="patch_72"/><path clip-path="url(#p38464b1cbd)" d="M241.725 51.552h2.23-2.23z" fill="#1f77b4" id="patch_73"/><path clip-path="url(#p38464b1cbd)" d="M244.513 51.552h2.23v-10.56h-2.23z" fill="#1f77b4" id="patch_74"/><path clip-path="url(#p38464b1cbd)" d="M247.301 51.552h2.231V9.312h-2.23z" fill="#1f77b4" id="patch_75"/><path clip-path="url(#p38464b1cbd)" d="M250.09 51.552h2.23v-10.56h-2.23z" fill="#1f77b4" id="patch_76"/><path clip-path="url(#p38464b1cbd)" d="M252.878 51.552h2.23v-10.56h-2.23z" fill="#1f77b4" id="patch_77"/><path clip-path="url(#p38464b1cbd)" d="M255.666 51.552h2.231v-10.56h-2.23z" fill="#1f77b4" id="patch_78"/><path clip-path="url(#p38464b1cbd)" d="M258.455 51.552h2.23v-21.12h-2.23z" fill="#1f77b4" id="patch_79"/><path clip-path="url(#p38464b1cbd)" d="M261.243 51.552h2.23v-21.12h-2.23z" fill="#1f77b4" id="patch_80"/><path clip-path="url(#p38464b1cbd)" d="M264.031 51.552h2.231-2.23z" fill="#1f77b4" id="patch_81"/><path clip-path="url(#p38464b1cbd)" d="M266.82 51.552h2.23-2.23z" fill="#1f77b4" id="patch_82"/><path clip-path="url(#p38464b1cbd)" d="M269.608 51.552h2.23v-10.56h-2.23z" fill="#1f77b4" id="patch_83"/><path clip-path="url(#p38464b1cbd)" d="M272.396 51.552h2.231-2.23z" fill="#1f77b4" id="patch_84"/><path clip-path="url(#p38464b1cbd)" d="M275.185 51.552h2.23-2.23z" fill="#1f77b4" id="patch_85"/><path clip-path="url(#p38464b1cbd)" d="M277.973 51.552h2.23-2.23z" fill="#1f77b4" id="patch_86"/><path clip-path="url(#p38464b1cbd)" d="M280.761 51.552h2.231-2.23z" fill="#1f77b4" id="patch_87"/><path clip-path="url(#p38464b1cbd)" d="M283.55 51.552h2.23v-10.56h-2.23z" fill="#1f77b4" id="patch_88"/><path clip-path="url(#p38464b1cbd)" d="M286.338 51.552h2.23v-10.56h-2.23z" fill="#1f77b4" id="patch_89"/><path clip-path="url(#p38464b1cbd)" d="M289.126 51.552h2.231-2.23z" fill="#1f77b4" id="patch_90"/><path clip-path="url(#p38464b1cbd)" d="M291.915 51.552h2.23v-10.56h-2.23z" fill="#1f77b4" id="patch_91"/><path clip-path="url(#p38464b1cbd)" d="M294.703 51.552h2.23v-21.12h-2.23z" fill="#1f77b4" id="patch_92"/><path clip-path="url(#p38464b1cbd)" d="M297.491 51.552h2.231v-10.56h-2.23z" fill="#1f77b4" id="patch_93"/><path clip-path="url(#p38464b1cbd)" d="M300.28 51.552h2.23v-10.56h-2.23z" fill="#1f77b4" id="patch_94"/><path clip-path="url(#p38464b1cbd)" d="M303.068 51.552h2.23v-10.56h-2.23z" fill="#1f77b4" id="patch_95"/><path clip-path="url(#p38464b1cbd)" d="M305.856 51.552h2.231v-21.12h-2.23z" fill="#1f77b4" id="patch_96"/><path clip-path="url(#p38464b1cbd)" d="M308.645 51.552h2.23v-31.68h-2.23z" fill="#1f77b4" id="patch_97"/><path clip-path="url(#p38464b1cbd)" d="M311.433 51.552h2.23v-10.56h-2.23z" fill="#1f77b4" id="patch_98"/><path clip-path="url(#p38464b1cbd)" d="M314.221 51.552h2.231v-21.12h-2.23z" fill="#1f77b4" id="patch_99"/><path clip-path="url(#p38464b1cbd)" d="M317.01 51.552h2.23v-21.12h-2.23z" fill="#1f77b4" id="patch_100"/><path clip-path="url(#p38464b1cbd)" d="M319.798 51.552h2.23v-21.12h-2.23z" fill="#1f77b4" id="patch_101"/><path clip-path="url(#p38464b1cbd)" d="M322.586 51.552h2.231v-10.56h-2.23z" fill="#1f77b4" id="patch_102"/><path clip-path="url(#p38464b1cbd)" d="M325.375 51.552h2.23-2.23z" fill="#1f77b4" id="patch_103"/><path clip-path="url(#p38464b1cbd)" d="M328.163 51.552h2.23v-10.56h-2.23z" fill="#1f77b4" id="patch_104"/><path clip-path="url(#p38464b1cbd)" d="M330.951 51.552h2.231v-10.56h-2.23z" fill="#1f77b4" id="patch_105"/><path clip-path="url(#p38464b1cbd)" d="M333.74 51.552h2.23v-10.56h-2.23z" fill="#1f77b4" id="patch_106"/></g><g id="axes_3"><path clip-path="url(#paca66e238f)" d="M349.884 263.232h12.147v-1.616h-12.147z" fill="#1f77b4" id="patch_107"/><path clip-path="url(#paca66e238f)" d="M349.884 261.212v-1.616z" fill="#1f77b4" id="patch_108"/><path clip-path="url(#paca66e238f)" d="M349.884 259.192v-1.616z" fill="#1f77b4" id="patch_109"/><path clip-path="url(#paca66e238f)" d="M349.884 257.172h12.147v-1.616h-12.147z" fill="#1f77b4" id="patch_110"/><path clip-path="url(#paca66e238f)" d="M349.884 255.152h24.294v-1.616h-24.294z" fill="#1f77b4" id="patch_111"/><path clip-path="url(#paca66e238f)" d="M349.884 253.132v-1.616z" fill="#1f77b4" id="patch_112"/><path clip-path="url(#paca66e238f)" d="M349.884 251.112v-1.616z" fill="#1f77b4" id="patch_113"/><path clip-path="url(#paca66e238f)" d="M349.884 249.092v-1.616z" fill="#1f77b4" id="patch_114"/><path clip-path="url(#paca66e238f)" d="M349.884 247.072v-1.616z" fill="#1f77b4" id="patch_115"/><path clip-path="url(#paca66e238f)" d="M349.884 245.052v-1.616z" fill="#1f77b4" id="patch_116"/><path clip-path="url(#paca66e238f)" d="M349.884 243.032v-1.616z" fill="#1f77b4" id="patch_117"/><path clip-path="url(#paca66e238f)" d="M349.884 241.012h12.147v-1.616h-12.147z" fill="#1f77b4" id="patch_118"/><path clip-path="url(#paca66e238f)" d="M349.884 238.992h24.294v-1.617h-24.294z" fill="#1f77b4" id="patch_119"/><path clip-path="url(#paca66e238f)" d="M349.884 236.971v-1.616z" fill="#1f77b4" id="patch_120"/><path clip-path="url(#paca66e238f)" d="M349.884 234.951h12.147v-1.616h-12.147z" fill="#1f77b4" id="patch_121"/><path clip-path="url(#paca66e238f)" d="M349.884 232.931h24.294v-1.616h-24.294z" fill="#1f77b4" id="patch_122"/><path clip-path="url(#paca66e238f)" d="M349.884 230.911v-1.616z" fill="#1f77b4" id="patch_123"/><path clip-path="url(#paca66e238f)" d="M349.884 228.891v-1.616z" fill="#1f77b4" id="patch_124"/><path clip-path="url(#paca66e238f)" d="M349.884 226.871v-1.616z" fill="#1f77b4" id="patch_125"/><path clip-path="url(#paca66e238f)" d="M349.884 224.851h12.147v-1.616h-12.147z" fill="#1f77b4" id="patch_126"/><path clip-path="url(#paca66e238f)" d="M349.884 222.831v-1.616z" fill="#1f77b4" id="patch_127"/><path clip-path="url(#paca66e238f)" d="M349.884 220.811h36.44v-1.616h-36.44z" fill="#1f77b4" id="patch_128"/><path clip-path="url(#paca66e238f)" d="M349.884 218.791h12.147v-1.616h-12.147z" fill="#1f77b4" id="patch_129"/><path clip-path="url(#paca66e238f)" d="M349.884 216.771v-1.616z" fill="#1f77b4" id="patch_130"/><path clip-path="url(#paca66e238f)" d="M349.884 214.751h12.147v-1.616h-12.147z" fill="#1f77b4" id="patch_131"/><path clip-path="url(#paca66e238f)" d="M349.884 212.731v-1.616z" fill="#1f77b4" id="patch_132"/><path clip-path="url(#paca66e238f)" d="M349.884 210.711h24.294v-1.616h-24.294z" fill="#1f77b4" id="patch_133"/><path clip-path="url(#paca66e238f)" d="M349.884 208.69h24.294v-1.615h-24.294z" fill="#1f77b4" id="patch_134"/><path clip-path="url(#paca66e238f)" d="M349.884 206.67h12.147v-1.615h-12.147z" fill="#1f77b4" id="patch_135"/><path clip-path="url(#paca66e238f)" d="M349.884 204.65v-1.615z" fill="#1f77b4" id="patch_136"/><path clip-path="url(#paca66e238f)" d="M349.884 202.63h12.147v-1.615h-12.147z" fill="#1f77b4" id="patch_137"/><path clip-path="url(#paca66e238f)" d="M349.884 200.61v-1.615z" fill="#1f77b4" id="patch_138"/><path clip-path="url(#paca66e238f)" d="M349.884 198.59v-1.615z" fill="#1f77b4" id="patch_139"/><path clip-path="url(#paca66e238f)" d="M349.884 196.57h12.147v-1.615h-12.147z" fill="#1f77b4" id="patch_140"/><path clip-path="url(#paca66e238f)" d="M349.884 194.55h36.44v-1.615h-36.44z" fill="#1f77b4" id="patch_141"/><path clip-path="url(#paca66e238f)" d="M349.884 192.53h12.147v-1.615h-12.147z" fill="#1f77b4" id="patch_142"/><path clip-path="url(#paca66e238f)" d="M349.884 190.51v-1.615z" fill="#1f77b4" id="patch_143"/><path clip-path="url(#paca66e238f)" d="M349.884 188.49v-1.616z" fill="#1f77b4" id="patch_144"/><path clip-path="url(#paca66e238f)" d="M349.884 186.47h12.147v-1.616h-12.147z" fill="#1f77b4" id="patch_145"/><path clip-path="url(#paca66e238f)" d="M349.884 184.45h12.147v-1.616h-12.147z" fill="#1f77b4" id="patch_146"/><path clip-path="url(#paca66e238f)" d="M349.884 182.43h36.44v-1.616h-36.44z" fill="#1f77b4" id="patch_147"/><path clip-path="url(#paca66e238f)" d="M349.884 180.41h48.588v-1.616h-48.588z" fill="#1f77b4" id="patch_148"/><path clip-path="url(#paca66e238f)" d="M349.884 178.39h24.294v-1.616h-24.294z" fill="#1f77b4" id="patch_149"/><path clip-path="url(#paca66e238f)" d="M349.884 176.37h36.44v-1.616h-36.44z" fill="#1f77b4" id="patch_150"/><path clip-path="url(#paca66e238f)" d="M349.884 174.35v-1.616z" fill="#1f77b4" id="patch_151"/><path clip-path="url(#paca66e238f)" d="M349.884 172.33h24.294v-1.616h-24.294z" fill="#1f77b4" id="patch_152"/><path clip-path="url(#paca66e238f)" d="M349.884 170.31h12.147v-1.616h-12.147z" fill="#1f77b4" id="patch_153"/><path clip-path="url(#paca66e238f)" d="M349.884 168.29h12.147v-1.616h-12.147z" fill="#1f77b4" id="patch_154"/><path clip-path="url(#paca66e238f)" d="M349.884 166.27h12.147v-1.616h-12.147z" fill="#1f77b4" id="patch_155"/><path clip-path="url(#paca66e238f)" d="M349.884 164.25h12.147v-1.616h-12.147z" fill="#1f77b4" id="patch_156"/><path clip-path="url(#paca66e238f)" d="M349.884 162.23h12.147v-1.616h-12.147z" fill="#1f77b4" id="patch_157"/><path clip-path="url(#paca66e238f)" d="M349.884 160.21h24.294v-1.616h-24.294z" fill="#1f77b4" id="patch_158"/><path clip-path="url(#paca66e238f)" d="M349.884 158.19h36.44v-1.616h-36.44z" fill="#1f77b4" id="patch_159"/><path clip-path="url(#paca66e238f)" d="M349.884 156.17h24.294v-1.616h-24.294z" fill="#1f77b4" id="patch_160"/><path clip-path="url(#paca66e238f)" d="M349.884 154.15h12.147v-1.616h-12.147z" fill="#1f77b4" id="patch_161"/><path clip-path="url(#paca66e238f)" d="M349.884 152.13h12.147v-1.616h-12.147z" fill="#1f77b4" id="patch_162"/><path clip-path="url(#paca66e238f)" d="M349.884 150.11h48.588v-1.616h-48.588z" fill="#1f77b4" id="patch_163"/><path clip-path="url(#paca66e238f)" d="M349.884 148.09v-1.616z" fill="#1f77b4" id="patch_164"/><path clip-path="url(#paca66e238f)" d="M349.884 146.07h24.294v-1.616h-24.294z" fill="#1f77b4" id="patch_165"/><path clip-path="url(#paca66e238f)" d="M349.884 144.05h12.147v-1.616h-12.147z" fill="#1f77b4" id="patch_166"/><path clip-path="url(#paca66e238f)" d="M349.884 142.03v-1.616z" fill="#1f77b4" id="patch_167"/><path clip-path="url(#paca66e238f)" d="M349.884 140.01h36.44v-1.616h-36.44z" fill="#1f77b4" id="patch_168"/><path clip-path="url(#paca66e238f)" d="M349.884 137.99v-1.617z" fill="#1f77b4" id="patch_169"/><path clip-path="url(#paca66e238f)" d="M349.884 135.97h12.147v-1.617h-12.147z" fill="#1f77b4" id="patch_170"/><path clip-path="url(#paca66e238f)" d="M349.884 133.95v-1.617z" fill="#1f77b4" id="patch_171"/><path clip-path="url(#paca66e238f)" d="M349.884 131.93h12.147v-1.617h-12.147z" fill="#1f77b4" id="patch_172"/><path clip-path="url(#paca66e238f)" d="M349.884 129.91v-1.617z" fill="#1f77b4" id="patch_173"/><path clip-path="url(#paca66e238f)" d="M349.884 127.89h24.294v-1.617h-24.294z" fill="#1f77b4" id="patch_174"/><path clip-path="url(#paca66e238f)" d="M349.884 125.87h12.147v-1.617h-12.147z" fill="#1f77b4" id="patch_175"/><path clip-path="url(#paca66e238f)" d="M349.884 123.85h12.147v-1.617h-12.147z" fill="#1f77b4" id="patch_176"/><path clip-path="url(#paca66e238f)" d="M349.884 121.83v-1.617z" fill="#1f77b4" id="patch_177"/><path clip-path="url(#paca66e238f)" d="M349.884 119.81h24.294v-1.617h-24.294z" fill="#1f77b4" id="patch_178"/><path clip-path="url(#paca66e238f)" d="M349.884 117.79h12.147v-1.617h-12.147z" fill="#1f77b4" id="patch_179"/><path clip-path="url(#paca66e238f)" d="M349.884 115.77v-1.617z" fill="#1f77b4" id="patch_180"/><path clip-path="url(#paca66e238f)" d="M349.884 113.749h36.44v-1.616h-36.44z" fill="#1f77b4" id="patch_181"/><path clip-path="url(#paca66e238f)" d="M349.884 111.729v-1.616z" fill="#1f77b4" id="patch_182"/><path clip-path="url(#paca66e238f)" d="M349.884 109.709h48.588v-1.616h-48.588z" fill="#1f77b4" id="patch_183"/><path clip-path="url(#paca66e238f)" d="M349.884 107.689v-1.616z" fill="#1f77b4" id="patch_184"/><path clip-path="url(#paca66e238f)" d="M349.884 105.669v-1.616z" fill="#1f77b4" id="patch_185"/><path clip-path="url(#paca66e238f)" d="M349.884 103.649h12.147v-1.616h-12.147z" fill="#1f77b4" id="patch_186"/><path clip-path="url(#paca66e238f)" d="M349.884 101.629v-1.616z" fill="#1f77b4" id="patch_187"/><path clip-path="url(#paca66e238f)" d="M349.884 99.609h12.147v-1.616h-12.147z" fill="#1f77b4" id="patch_188"/><path clip-path="url(#paca66e238f)" d="M349.884 97.589h24.294v-1.616h-24.294z" fill="#1f77b4" id="patch_189"/><path clip-path="url(#paca66e238f)" d="M349.884 95.569v-1.616z" fill="#1f77b4" id="patch_190"/><path clip-path="url(#paca66e238f)" d="M349.884 93.549h12.147v-1.616h-12.147z" fill="#1f77b4" id="patch_191"/><path clip-path="url(#paca66e238f)" d="M349.884 91.529h12.147v-1.616h-12.147z" fill="#1f77b4" id="patch_192"/><path clip-path="url(#paca66e238f)" d="M349.884 89.509h24.294v-1.616h-24.294z" fill="#1f77b4" id="patch_193"/><path clip-path="url(#paca66e238f)" d="M349.884 87.489v-1.617z" fill="#1f77b4" id="patch_194"/><path clip-path="url(#paca66e238f)" d="M349.884 85.468h24.294v-1.616h-24.294z" fill="#1f77b4" id="patch_195"/><path clip-path="url(#paca66e238f)" d="M349.884 83.448v-1.616z" fill="#1f77b4" id="patch_196"/><path clip-path="url(#paca66e238f)" d="M349.884 81.428h12.147v-1.616h-12.147z" fill="#1f77b4" id="patch_197"/><path clip-path="url(#paca66e238f)" d="M349.884 79.408h12.147v-1.616h-12.147z" fill="#1f77b4" id="patch_198"/><path clip-path="url(#paca66e238f)" d="M349.884 77.388v-1.616z" fill="#1f77b4" id="patch_199"/><path clip-path="url(#paca66e238f)" d="M349.884 75.368h36.44v-1.616h-36.44z" fill="#1f77b4" id="patch_200"/><path clip-path="url(#paca66e238f)" d="M349.884 73.348v-1.616z" fill="#1f77b4" id="patch_201"/><path clip-path="url(#paca66e238f)" d="M349.884 71.328v-1.616z" fill="#1f77b4" id="patch_202"/><path clip-path="url(#paca66e238f)" d="M349.884 69.308v-1.616z" fill="#1f77b4" id="patch_203"/><path clip-path="url(#paca66e238f)" d="M349.884 67.288h12.147v-1.616h-12.147z" fill="#1f77b4" id="patch_204"/><path clip-path="url(#paca66e238f)" d="M349.884 65.268v-1.616z" fill="#1f77b4" id="patch_205"/><path clip-path="url(#paca66e238f)" d="M349.884 63.248h12.147v-1.616h-12.147z" fill="#1f77b4" id="patch_206"/></g></g><defs><clipPath id="p683fc5699c"><path d="M43.781 51.552h306.103v221.76H43.781z"/></clipPath><clipPath id="p38464b1cbd"><path d="M43.781 7.2h306.103v44.352H43.781z"/></clipPath><clipPath id="paca66e238f"><path d="M349.884 51.552h51.017v221.76h-51.017z"/></clipPath></defs></svg>