<svg height="414.491" viewBox="0 0 408.101 310.868" width="544.135" xmlns="http://www.w3.org/2000/svg" xmlns:xlink="http://www.w3.org/1999/xlink"><defs><style>*{stroke-linecap:butt;stroke-linejoin:round}</style></defs><g id="figure_1"><path d="M0 310.868h408.101V0H0z" fill="#fff" id="patch_1"/><g id="axes_1"><path d="M43.781 273.312h357.12V7.2H43.781z" fill="#fff" id="patch_2"/><path clip-path="url(#p8122d7c65e)" d="M43.781 241.75l357.12-213.781" fill="none" stroke="#000" stroke-dasharray="5.55,2.4" stroke-opacity=".5" stroke-width="1.5" id="line2d_1"/><g id="PathCollection_1"><defs><path d="M0 3a3 3 0 100-6 3 3 0 000 6z" id="C0_0_714ef099de"/></defs><g clip-path="url(#p8122d7c65e)"><use x="179.148" xlink:href="#C0_0_714ef099de" y="161.412" fill="#f7fbff" stroke="#f7fbff"/></g><g clip-path="url(#p8122d7c65e)"><use x="173.438" xlink:href="#C0_0_714ef099de" y="151" fill="#f2f8fd" stroke="#f2f8fd"/></g><g clip-path="url(#p8122d7c65e)"><use x="193.44" xlink:href="#C0_0_714ef099de" y="168.711" fill="#d5e5f4" stroke="#d5e5f4"/></g><g clip-path="url(#p8122d7c65e)"><use x="363.539" xlink:href="#C0_0_714ef099de" y="19.296" fill="#c9ddf0" stroke="#c9ddf0"/></g><g clip-path="url(#p8122d7c65e)"><use x="153.153" xlink:href="#C0_0_714ef099de" y="196.26" fill="#c2d9ee" stroke="#c2d9ee"/></g><g clip-path="url(#p8122d7c65e)"><use x="309.23" xlink:href="#C0_0_714ef099de" y="109.443" fill="#bed8ec" stroke="#bed8ec"/></g><g clip-path="url(#p8122d7c65e)"><use x="67.865" xlink:href="#C0_0_714ef099de" y="221.414" fill="#bed8ec" stroke="#bed8ec"/></g><g clip-path="url(#p8122d7c65e)"><use x="298.423" xlink:href="#C0_0_714ef099de" y="74.489" fill="#bdd7ec" stroke="#bdd7ec"/></g><g clip-path="url(#p8122d7c65e)"><use x="80.493" xlink:href="#C0_0_714ef099de" y="200.969" fill="#b9d6ea" stroke="#b9d6ea"/></g><g clip-path="url(#p8122d7c65e)"><use x="269.398" xlink:href="#C0_0_714ef099de" y="77.361" fill="#b9d6ea" stroke="#b9d6ea"/></g><g clip-path="url(#p8122d7c65e)"><use x="140.302" xlink:href="#C0_0_714ef099de" y="149.424" fill="#b8d5ea" stroke="#b8d5ea"/></g><g clip-path="url(#p8122d7c65e)"><use x="137.152" xlink:href="#C0_0_714ef099de" y="205.451" fill="#b7d4ea" stroke="#b7d4ea"/></g><g clip-path="url(#p8122d7c65e)"><use x="243.588" xlink:href="#C0_0_714ef099de" y="121.777" fill="#b5d4e9" stroke="#b5d4e9"/></g><g clip-path="url(#p8122d7c65e)"><use x="369.449" xlink:href="#C0_0_714ef099de" y="37.161" fill="#abd0e6" stroke="#abd0e6"/></g><g clip-path="url(#p8122d7c65e)"><use x="169.946" xlink:href="#C0_0_714ef099de" y="198.087" fill="#a6cee4" stroke="#a6cee4"/></g><g clip-path="url(#p8122d7c65e)"><use x="137.765" xlink:href="#C0_0_714ef099de" y="171.559" fill="#a5cde3" stroke="#a5cde3"/></g><g clip-path="url(#p8122d7c65e)"><use x="280.536" xlink:href="#C0_0_714ef099de" y="91.813" fill="#a4cce3" stroke="#a4cce3"/></g><g clip-path="url(#p8122d7c65e)"><use x="303.335" xlink:href="#C0_0_714ef099de" y="116.752" fill="#a3cce3" stroke="#a3cce3"/></g><g clip-path="url(#p8122d7c65e)"><use x="153.542" xlink:href="#C0_0_714ef099de" y="165.464" fill="#9fcae1" stroke="#9fcae1"/></g><g clip-path="url(#p8122d7c65e)"><use x="245.46" xlink:href="#C0_0_714ef099de" y="141.264" fill="#9fcae1" stroke="#9fcae1"/></g><g clip-path="url(#p8122d7c65e)"><use x="163.134" xlink:href="#C0_0_714ef099de" y="158.465" fill="#9ac8e0" stroke="#9ac8e0"/></g><g clip-path="url(#p8122d7c65e)"><use x="268.25" xlink:href="#C0_0_714ef099de" y="89.194" fill="#9ac8e0" stroke="#9ac8e0"/></g><g clip-path="url(#p8122d7c65e)"><use x="167.472" xlink:href="#C0_0_714ef099de" y="179.126" fill="#99c7e0" stroke="#99c7e0"/></g><g clip-path="url(#p8122d7c65e)"><use x="263.317" xlink:href="#C0_0_714ef099de" y="86.322" fill="#94c4df" stroke="#94c4df"/></g><g clip-path="url(#p8122d7c65e)"><use x="184.616" xlink:href="#C0_0_714ef099de" y="143.916" fill="#91c3de" stroke="#91c3de"/></g><g clip-path="url(#p8122d7c65e)"><use x="182.354" xlink:href="#C0_0_714ef099de" y="144.223" fill="#8fc2de" stroke="#8fc2de"/></g><g clip-path="url(#p8122d7c65e)"><use x="167.548" xlink:href="#C0_0_714ef099de" y="149.762" fill="#8dc1dd" stroke="#8dc1dd"/></g><g clip-path="url(#p8122d7c65e)"><use x="167.415" xlink:href="#C0_0_714ef099de" y="163.334" fill="#8cc0dd" stroke="#8cc0dd"/></g><g clip-path="url(#p8122d7c65e)"><use x="255.048" xlink:href="#C0_0_714ef099de" y="139.285" fill="#89bedc" stroke="#89bedc"/></g><g clip-path="url(#p8122d7c65e)"><use x="368.177" xlink:href="#C0_0_714ef099de" y="93.068" fill="#87bddc" stroke="#87bddc"/></g><g clip-path="url(#p8122d7c65e)"><use x="200.187" xlink:href="#C0_0_714ef099de" y="182.771" fill="#85bcdc" stroke="#85bcdc"/></g><g clip-path="url(#p8122d7c65e)"><use x="106.797" xlink:href="#C0_0_714ef099de" y="186.704" fill="#84bcdb" stroke="#84bcdb"/></g><g clip-path="url(#p8122d7c65e)"><use x="186.448" xlink:href="#C0_0_714ef099de" y="135.285" fill="#84bcdb" stroke="#84bcdb"/></g><g clip-path="url(#p8122d7c65e)"><use x="286.759" xlink:href="#C0_0_714ef099de" y="126.203" fill="#7cb7da" stroke="#7cb7da"/></g><g clip-path="url(#p8122d7c65e)"><use x="60.014" xlink:href="#C0_0_714ef099de" y="205.011" fill="#7cb7da" stroke="#7cb7da"/></g><g clip-path="url(#p8122d7c65e)"><use x="273.163" xlink:href="#C0_0_714ef099de" y="96.096" fill="#7ab6d9" stroke="#7ab6d9"/></g><g clip-path="url(#p8122d7c65e)"><use x="86.564" xlink:href="#C0_0_714ef099de" y="241.279" fill="#79b5d9" stroke="#79b5d9"/></g><g clip-path="url(#p8122d7c65e)"><use x="114.913" xlink:href="#C0_0_714ef099de" y="215.593" fill="#77b5d9" stroke="#77b5d9"/></g><g clip-path="url(#p8122d7c65e)"><use x="308.055" xlink:href="#C0_0_714ef099de" y="78.903" fill="#75b4d8" stroke="#75b4d8"/></g><g clip-path="url(#p8122d7c65e)"><use x="262.238" xlink:href="#C0_0_714ef099de" y="100.212" fill="#74b3d8" stroke="#74b3d8"/></g><g clip-path="url(#p8122d7c65e)"><use x="236.966" xlink:href="#C0_0_714ef099de" y="113.517" fill="#74b3d8" stroke="#74b3d8"/></g><g clip-path="url(#p8122d7c65e)"><use x="255.637" xlink:href="#C0_0_714ef099de" y="117.658" fill="#72b2d8" stroke="#72b2d8"/></g><g clip-path="url(#p8122d7c65e)"><use x="91.974" xlink:href="#C0_0_714ef099de" y="255.383" fill="#6fb0d7" stroke="#6fb0d7"/></g><g clip-path="url(#p8122d7c65e)"><use x="99.818" xlink:href="#C0_0_714ef099de" y="213.114" fill="#6dafd7" stroke="#6dafd7"/></g><g clip-path="url(#p8122d7c65e)"><use x="112.178" xlink:href="#C0_0_714ef099de" y="208.334" fill="#6dafd7" stroke="#6dafd7"/></g><g clip-path="url(#p8122d7c65e)"><use x="177.805" xlink:href="#C0_0_714ef099de" y="158.624" fill="#6caed6" stroke="#6caed6"/></g><g clip-path="url(#p8122d7c65e)"><use x="145.201" xlink:href="#C0_0_714ef099de" y="236.325" fill="#68acd5" stroke="#68acd5"/></g><g clip-path="url(#p8122d7c65e)"><use x="127.735" xlink:href="#C0_0_714ef099de" y="192.448" fill="#68acd5" stroke="#68acd5"/></g><g clip-path="url(#p8122d7c65e)"><use x="111.619" xlink:href="#C0_0_714ef099de" y="168.221" fill="#66abd4" stroke="#66abd4"/></g><g clip-path="url(#p8122d7c65e)"><use x="175.999" xlink:href="#C0_0_714ef099de" y="172.506" fill="#65aad4" stroke="#65aad4"/></g><g clip-path="url(#p8122d7c65e)"><use x="273.726" xlink:href="#C0_0_714ef099de" y="47.57" fill="#65aad4" stroke="#65aad4"/></g><g clip-path="url(#p8122d7c65e)"><use x="363.841" xlink:href="#C0_0_714ef099de" y="69.914" fill="#64a9d3" stroke="#64a9d3"/></g><g clip-path="url(#p8122d7c65e)"><use x="182.659" xlink:href="#C0_0_714ef099de" y="172.006" fill="#64a9d3" stroke="#64a9d3"/></g><g clip-path="url(#p8122d7c65e)"><use x="326.057" xlink:href="#C0_0_714ef099de" y="63.03" fill="#63a8d3" stroke="#63a8d3"/></g><g clip-path="url(#p8122d7c65e)"><use x="284.497" xlink:href="#C0_0_714ef099de" y="101.259" fill="#63a8d3" stroke="#63a8d3"/></g><g clip-path="url(#p8122d7c65e)"><use x="384.669" xlink:href="#C0_0_714ef099de" y="64.131" fill="#63a8d3" stroke="#63a8d3"/></g><g clip-path="url(#p8122d7c65e)"><use x="253.408" xlink:href="#C0_0_714ef099de" y="107.78" fill="#60a7d2" stroke="#60a7d2"/></g><g clip-path="url(#p8122d7c65e)"><use x="214.799" xlink:href="#C0_0_714ef099de" y="108.705" fill="#5da5d1" stroke="#5da5d1"/></g><g clip-path="url(#p8122d7c65e)"><use x="227.009" xlink:href="#C0_0_714ef099de" y="132.816" fill="#5ca4d0" stroke="#5ca4d0"/></g><g clip-path="url(#p8122d7c65e)"><use x="76.588" xlink:href="#C0_0_714ef099de" y="259.232" fill="#5ba3d0" stroke="#5ba3d0"/></g><g clip-path="url(#p8122d7c65e)"><use x="210.921" xlink:href="#C0_0_714ef099de" y="162.542" fill="#5ba3d0" stroke="#5ba3d0"/></g><g clip-path="url(#p8122d7c65e)"><use x="213.914" xlink:href="#C0_0_714ef099de" y="125.223" fill="#56a0ce" stroke="#56a0ce"/></g><g clip-path="url(#p8122d7c65e)"><use x="60.316" xlink:href="#C0_0_714ef099de" y="243.203" fill="#549fcd" stroke="#549fcd"/></g><g clip-path="url(#p8122d7c65e)"><use x="101.705" xlink:href="#C0_0_714ef099de" y="190.282" fill="#529dcc" stroke="#529dcc"/></g><g clip-path="url(#p8122d7c65e)"><use x="340.023" xlink:href="#C0_0_714ef099de" y="76.254" fill="#529dcc" stroke="#529dcc"/></g><g clip-path="url(#p8122d7c65e)"><use x="234.884" xlink:href="#C0_0_714ef099de" y="117.419" fill="#519ccc" stroke="#519ccc"/></g><g clip-path="url(#p8122d7c65e)"><use x="241.54" xlink:href="#C0_0_714ef099de" y="118.442" fill="#519ccc" stroke="#519ccc"/></g><g clip-path="url(#p8122d7c65e)"><use x="356.768" xlink:href="#C0_0_714ef099de" y="53.802" fill="#4f9bcb" stroke="#4f9bcb"/></g><g clip-path="url(#p8122d7c65e)"><use x="169.128" xlink:href="#C0_0_714ef099de" y="138.103" fill="#4f9bcb" stroke="#4f9bcb"/></g><g clip-path="url(#p8122d7c65e)"><use x="72.086" xlink:href="#C0_0_714ef099de" y="251.855" fill="#4b98ca" stroke="#4b98ca"/></g><g clip-path="url(#p8122d7c65e)"><use x="357.477" xlink:href="#C0_0_714ef099de" y="65.834" fill="#4a98c9" stroke="#4a98c9"/></g><g clip-path="url(#p8122d7c65e)"><use x="359.797" xlink:href="#C0_0_714ef099de" y="61.072" fill="#4997c9" stroke="#4997c9"/></g><g clip-path="url(#p8122d7c65e)"><use x="181.301" xlink:href="#C0_0_714ef099de" y="140.424" fill="#4896c8" stroke="#4896c8"/></g><g clip-path="url(#p8122d7c65e)"><use x="201.025" xlink:href="#C0_0_714ef099de" y="113.113" fill="#4896c8" stroke="#4896c8"/></g><g clip-path="url(#p8122d7c65e)"><use x="205.355" xlink:href="#C0_0_714ef099de" y="150.459" fill="#4695c8" stroke="#4695c8"/></g><g clip-path="url(#p8122d7c65e)"><use x="178.083" xlink:href="#C0_0_714ef099de" y="152.827" fill="#4493c7" stroke="#4493c7"/></g><g clip-path="url(#p8122d7c65e)"><use x="99.324" xlink:href="#C0_0_714ef099de" y="227.549" fill="#4292c6" stroke="#4292c6"/></g><g clip-path="url(#p8122d7c65e)"><use x="112.752" xlink:href="#C0_0_714ef099de" y="202.375" fill="#4090c5" stroke="#4090c5"/></g><g clip-path="url(#p8122d7c65e)"><use x="237.699" xlink:href="#C0_0_714ef099de" y="144.987" fill="#4090c5" stroke="#4090c5"/></g><g clip-path="url(#p8122d7c65e)"><use x="287.718" xlink:href="#C0_0_714ef099de" y="88.271" fill="#4090c5" stroke="#4090c5"/></g><g clip-path="url(#p8122d7c65e)"><use x="347.423" xlink:href="#C0_0_714ef099de" y="75.638" fill="#3f8fc5" stroke="#3f8fc5"/></g><g clip-path="url(#p8122d7c65e)"><use x="231.034" xlink:href="#C0_0_714ef099de" y="160.043" fill="#3e8ec4" stroke="#3e8ec4"/></g><g clip-path="url(#p8122d7c65e)"><use x="138.871" xlink:href="#C0_0_714ef099de" y="187.658" fill="#3e8ec4" stroke="#3e8ec4"/></g><g clip-path="url(#p8122d7c65e)"><use x="69.3" xlink:href="#C0_0_714ef099de" y="237.08" fill="#3d8dc4" stroke="#3d8dc4"/></g><g clip-path="url(#p8122d7c65e)"><use x="214.571" xlink:href="#C0_0_714ef099de" y="162.325" fill="#3a8ac2" stroke="#3a8ac2"/></g><g clip-path="url(#p8122d7c65e)"><use x="101.739" xlink:href="#C0_0_714ef099de" y="208.583" fill="#3282be" stroke="#3282be"/></g><g clip-path="url(#p8122d7c65e)"><use x="359.174" xlink:href="#C0_0_714ef099de" y="53.8" fill="#3181bd" stroke="#3181bd"/></g><g clip-path="url(#p8122d7c65e)"><use x="76.376" xlink:href="#C0_0_714ef099de" y="261.216" fill="#2c7cba" stroke="#2c7cba"/></g><g clip-path="url(#p8122d7c65e)"><use x="175.801" xlink:href="#C0_0_714ef099de" y="158.898" fill="#2777b8" stroke="#2777b8"/></g><g clip-path="url(#p8122d7c65e)"><use x="61.196" xlink:href="#C0_0_714ef099de" y="242.736" fill="#2575b7" stroke="#2575b7"/></g><g clip-path="url(#p8122d7c65e)"><use x="209.378" xlink:href="#C0_0_714ef099de" y="146.121" fill="#2272b6" stroke="#2272b6"/></g><g clip-path="url(#p8122d7c65e)"><use x="206.933" xlink:href="#C0_0_714ef099de" y="144.751" fill="#0e59a2" stroke="#0e59a2"/></g><g clip-path="url(#p8122d7c65e)"><use x="172.895" xlink:href="#C0_0_714ef099de" y="159.93" fill="#084e98" stroke="#084e98"/></g><g clip-path="url(#p8122d7c65e)"><use x="102.914" xlink:href="#C0_0_714ef099de" y="208.162" fill="#084a91" stroke="#084a91"/></g><g clip-path="url(#p8122d7c65e)"><use x="175.486" xlink:href="#C0_0_714ef099de" y="160.28" fill="#08306b" stroke="#08306b"/></g></g><g id="matplotlib.axis_1"><g id="xtick_1"><g id="line2d_2"><defs><path d="M0 0v3.5" id="m5f560bebf4" stroke="#000" stroke-width=".8"/></defs><use x="57.3" xlink:href="#m5f560bebf4" y="273.312" stroke="#000" stroke-width=".8"/></g><g transform="matrix(.1 0 0 -.1 49.349 287.91)" id="text_1"><defs><path d="M31.781 66.406q-7.61 0-11.453-7.5Q16.5 51.422 16.5 36.375q0-14.984 3.828-22.484 3.844-7.5 11.453-7.5 7.672 0 11.5 7.5 3.844 7.5 3.844 22.484 0 15.047-3.844 22.531-3.828 7.5-11.5 7.5zm0 7.813q12.266 0 18.735-9.703 6.468-9.688 6.468-28.141 0-18.406-6.468-28.11-6.47-9.687-18.735-9.687-12.25 0-18.718 9.688-6.47 9.703-6.47 28.109 0 18.453 6.47 28.14Q19.53 74.22 31.78 74.22z" id="DejaVuSans-48"/><path d="M10.688 12.406H21V0H10.687z" id="DejaVuSans-46"/></defs><use xlink:href="#DejaVuSans-48"/><use x="63.623" xlink:href="#DejaVuSans-46"/><use x="95.41" xlink:href="#DejaVuSans-48"/></g></g><g id="xtick_2"><use x="123.858" xlink:href="#m5f560bebf4" y="273.312" stroke="#000" stroke-width=".8" id="line2d_3"/><g transform="matrix(.1 0 0 -.1 115.906 287.91)" id="text_2"><defs><path d="M19.188 8.297h34.421V0H7.33v8.297q5.609 5.812 15.296 15.594 9.703 9.797 12.188 12.64 4.734 5.313 6.609 9 1.89 3.688 1.89 7.25 0 5.813-4.078 9.469-4.078 3.672-10.625 3.672-4.64 0-9.797-1.61-5.14-1.609-11-4.89v9.969Q13.767 71.78 18.938 73q5.188 1.219 9.485 1.219 11.328 0 18.062-5.672 6.735-5.656 6.735-15.125 0-4.5-1.688-8.531-1.672-4.016-6.125-9.485-1.218-1.422-7.765-8.187-6.532-6.766-18.453-18.922z" id="DejaVuSans-50"/></defs><use xlink:href="#DejaVuSans-48"/><use x="63.623" xlink:href="#DejaVuSans-46"/><use x="95.41" xlink:href="#DejaVuSans-50"/></g></g><g id="xtick_3"><use x="190.415" xlink:href="#m5f560bebf4" y="273.312" stroke="#000" stroke-width=".8" id="line2d_4"/><g transform="matrix(.1 0 0 -.1 182.463 287.91)" id="text_3"><defs><path d="M37.797 64.313L12.89 25.39h24.906zm-2.594 8.593H47.61V25.391h10.407v-8.203H47.609V0h-9.812v17.188H4.89v9.515z" id="DejaVuSans-52"/></defs><use xlink:href="#DejaVuSans-48"/><use x="63.623" xlink:href="#DejaVuSans-46"/><use x="95.41" xlink:href="#DejaVuSans-52"/></g></g><g id="xtick_4"><use x="256.972" xlink:href="#m5f560bebf4" y="273.312" stroke="#000" stroke-width=".8" id="line2d_5"/><g transform="matrix(.1 0 0 -.1 249.02 287.91)" id="text_4"><defs><path d="M33.016 40.375q-6.641 0-10.532-4.547-3.875-4.531-3.875-12.437 0-7.86 3.875-12.438 3.891-4.562 10.532-4.562 6.64 0 10.515 4.562 3.875 4.578 3.875 12.438 0 7.906-3.875 12.437-3.875 4.547-10.515 4.547zm19.578 30.922v-8.984q-3.719 1.75-7.5 2.671-3.782.938-7.5.938-9.766 0-14.922-6.594-5.14-6.594-5.875-19.922 2.875 4.25 7.219 6.516 4.359 2.266 9.578 2.266 10.984 0 17.36-6.672 6.374-6.657 6.374-18.125 0-11.235-6.64-18.032-6.641-6.78-17.672-6.78-12.657 0-19.344 9.687-6.688 9.703-6.688 28.109 0 17.281 8.204 27.563 8.203 10.28 22.015 10.28 3.719 0 7.5-.734t7.89-2.187z" id="DejaVuSans-54"/></defs><use xlink:href="#DejaVuSans-48"/><use x="63.623" xlink:href="#DejaVuSans-46"/><use x="95.41" xlink:href="#DejaVuSans-54"/></g></g><g id="xtick_5"><use x="323.529" xlink:href="#m5f560bebf4" y="273.312" stroke="#000" stroke-width=".8" id="line2d_6"/><g transform="matrix(.1 0 0 -.1 315.578 287.91)" id="text_5"><defs><path d="M31.781 34.625q-7.031 0-11.062-3.766-4.016-3.765-4.016-10.343 0-6.594 4.016-10.36Q24.75 6.391 31.78 6.391q7.032 0 11.078 3.78 4.063 3.798 4.063 10.345 0 6.578-4.031 10.343-4.016 3.766-11.11 3.766zm-9.86 4.188q-6.343 1.562-9.89 5.906Q8.5 49.079 8.5 55.329q0 8.733 6.219 13.812 6.234 5.078 17.062 5.078 10.89 0 17.094-5.078 6.203-5.079 6.203-13.813 0-6.25-3.547-10.61-3.531-4.343-9.828-5.906 7.125-1.656 11.094-6.5 3.984-4.828 3.984-11.796 0-10.61-6.468-16.282-6.47-5.656-18.532-5.656-12.047 0-18.531 5.656-6.469 5.672-6.469 16.282 0 6.968 4 11.797 4.016 4.843 11.14 6.5zM18.314 54.39q0-5.657 3.53-8.828 3.548-3.172 9.938-3.172 6.36 0 9.938 3.172 3.593 3.171 3.593 8.828 0 5.672-3.593 8.843-3.578 3.172-9.938 3.172-6.39 0-9.937-3.172-3.532-3.172-3.532-8.843z" id="DejaVuSans-56"/></defs><use xlink:href="#DejaVuSans-48"/><use x="63.623" xlink:href="#DejaVuSans-46"/><use x="95.41" xlink:href="#DejaVuSans-56"/></g></g><g id="xtick_6"><use x="390.086" xlink:href="#m5f560bebf4" y="273.312" stroke="#000" stroke-width=".8" id="line2d_7"/><g transform="matrix(.1 0 0 -.1 382.135 287.91)" id="text_6"><defs><path d="M12.406 8.297h16.11v55.625l-17.532-3.516v8.985l17.438 3.515h9.86V8.296H54.39V0H12.406z" id="DejaVuSans-49"/></defs><use xlink:href="#DejaVuSans-49"/><use x="63.623" xlink:href="#DejaVuSans-46"/><use x="95.41" xlink:href="#DejaVuSans-48"/></g></g><g transform="matrix(.1 0 0 -.1 214.462 301.589)" id="text_7"><defs><path d="M37.11 75.984V68.5h-8.594q-4.828 0-6.72-1.953-1.874-1.953-1.874-7.031v-4.828h14.797v-6.985H19.922V0H10.89v47.703H2.297v6.984h8.594V58.5q0 9.125 4.25 13.297 4.25 4.187 13.468 4.187z" id="DejaVuSans-102"/><path d="M30.61 48.39q-7.22 0-11.422-5.64-4.204-5.64-4.204-15.453 0-9.813 4.172-15.453 4.188-5.64 11.453-5.64 7.188 0 11.375 5.655 4.203 5.672 4.203 15.438 0 9.719-4.203 15.406-4.187 5.688-11.375 5.688zm0 7.61q11.718 0 18.406-7.625 6.703-7.61 6.703-21.078 0-13.422-6.703-21.078-6.688-7.64-18.407-7.64-11.765 0-18.437 7.64-6.656 7.656-6.656 21.078 0 13.469 6.656 21.078Q18.844 56 30.609 56z" id="DejaVuSans-111"/></defs><use xlink:href="#DejaVuSans-102"/><use x="35.205" xlink:href="#DejaVuSans-111"/><use x="96.387" xlink:href="#DejaVuSans-111"/></g></g><g id="matplotlib.axis_2"><g id="ytick_1"><g id="line2d_8"><defs><path d="M0 0h-3.5" id="m273f6bb48b" stroke="#000" stroke-width=".8"/></defs><use x="43.781" xlink:href="#m273f6bb48b" y="233.657" stroke="#000" stroke-width=".8"/></g><g transform="matrix(.1 0 0 -.1 20.878 237.456)" id="text_8"><use xlink:href="#DejaVuSans-48"/><use x="63.623" xlink:href="#DejaVuSans-46"/><use x="95.41" xlink:href="#DejaVuSans-48"/></g></g><g id="ytick_2"><use x="43.781" xlink:href="#m273f6bb48b" y="193.814" stroke="#000" stroke-width=".8" id="line2d_9"/><g transform="matrix(.1 0 0 -.1 20.878 197.613)" id="text_9"><use xlink:href="#DejaVuSans-48"/><use x="63.623" xlink:href="#DejaVuSans-46"/><use x="95.41" xlink:href="#DejaVuSans-50"/></g></g><g id="ytick_3"><use x="43.781" xlink:href="#m273f6bb48b" y="153.971" stroke="#000" stroke-width=".8" id="line2d_10"/><g transform="matrix(.1 0 0 -.1 20.878 157.77)" id="text_10"><use xlink:href="#DejaVuSans-48"/><use x="63.623" xlink:href="#DejaVuSans-46"/><use x="95.41" xlink:href="#DejaVuSans-52"/></g></g><g id="ytick_4"><use x="43.781" xlink:href="#m273f6bb48b" y="114.128" stroke="#000" stroke-width=".8" id="line2d_11"/><g transform="matrix(.1 0 0 -.1 20.878 117.928)" id="text_11"><use xlink:href="#DejaVuSans-48"/><use x="63.623" xlink:href="#DejaVuSans-46"/><use x="95.41" xlink:href="#DejaVuSans-54"/></g></g><g id="ytick_5"><use x="43.781" xlink:href="#m273f6bb48b" y="74.286" stroke="#000" stroke-width=".8" id="line2d_12"/><g transform="matrix(.1 0 0 -.1 20.878 78.085)" id="text_12"><use xlink:href="#DejaVuSans-48"/><use x="63.623" xlink:href="#DejaVuSans-46"/><use x="95.41" xlink:href="#DejaVuSans-56"/></g></g><g id="ytick_6"><use x="43.781" xlink:href="#m273f6bb48b" y="34.443" stroke="#000" stroke-width=".8" id="line2d_13"/><g transform="matrix(.1 0 0 -.1 20.878 38.242)" id="text_13"><use xlink:href="#DejaVuSans-49"/><use x="63.623" xlink:href="#DejaVuSans-46"/><use x="95.41" xlink:href="#DejaVuSans-48"/></g></g><g transform="matrix(0 -.1 -.1 0 14.798 148.55)" id="text_14"><defs><path d="M48.688 27.297q0 9.906-4.079 15.547-4.078 5.64-11.203 5.64-7.14 0-11.218-5.64-4.079-5.64-4.079-15.547 0-9.906 4.078-15.547 4.079-5.64 11.22-5.64 7.124 0 11.202 5.64t4.078 15.547zM18.108 46.39q2.844 4.875 7.157 7.234Q29.594 56 35.594 56q9.968 0 16.187-7.906 6.235-7.907 6.235-20.797T51.78 6.484q-6.218-7.906-16.187-7.906-6 0-10.328 2.375-4.313 2.375-7.157 7.25V0H9.08v75.984h9.03z" id="DejaVuSans-98"/><path d="M34.281 27.484q-10.89 0-15.093-2.484-4.204-2.484-4.204-8.5 0-4.781 3.157-7.594 3.156-2.797 8.562-2.797 7.485 0 12 5.297 4.516 5.297 4.516 14.078v2zm17.922 3.72V0H43.22v8.297Q40.14 3.328 35.547.953q-4.594-2.375-11.234-2.375-8.391 0-13.36 4.719Q6 8.016 6 15.922q0 9.219 6.172 13.906 6.187 4.688 18.437 4.688h12.61v.89q0 6.203-4.078 9.594-4.078 3.39-11.453 3.39-4.688 0-9.141-1.124-4.438-1.125-8.531-3.375v8.312q4.921 1.906 9.562 2.844 4.64.953 9.031.953 11.875 0 17.735-6.156 5.86-6.14 5.86-18.64z" id="DejaVuSans-97"/><path d="M41.11 46.297q-1.516.875-3.297 1.281Q36.03 48 33.89 48q-7.625 0-11.703-4.953-4.079-4.953-4.079-14.234V0H9.08v54.688h9.03v-8.5q2.844 4.984 7.375 7.39Q30.031 56 36.531 56q.922 0 2.047-.125 1.125-.11 2.484-.36z" id="DejaVuSans-114"/></defs><use xlink:href="#DejaVuSans-98"/><use x="63.477" xlink:href="#DejaVuSans-97"/><use x="124.756" xlink:href="#DejaVuSans-114"/></g></g><path d="M43.781 273.312V7.2" fill="none" stroke="#000" stroke-linecap="square" stroke-width=".8" id="patch_3"/><path d="M400.901 273.312V7.2" fill="none" stroke="#000" stroke-linecap="square" stroke-width=".8" id="patch_4"/><path d="M43.781 273.312h357.12" fill="none" stroke="#000" stroke-linecap="square" stroke-width=".8" id="patch_5"/><path d="M43.781 7.2h357.12" fill="none" stroke="#000" stroke-linecap="square" stroke-width=".8" id="patch_6"/><g id="legend_1"><path d="M52.781 20.298h20" fill="none" stroke="#000" stroke-dasharray="5.55,2.4" stroke-opacity=".5" stroke-width="1.5" id="line2d_14"/><g transform="matrix(.1 0 0 -.1 80.781 23.798)" id="text_15"><defs><path d="M9.422 54.688h8.984V0H9.422zm0 21.296h8.984v-11.39H9.422z" id="DejaVuSans-105"/><path d="M45.406 46.39v29.594h8.985V0h-8.985v8.203Q42.578 3.328 38.25.953q-4.313-2.375-10.375-2.375-9.906 0-16.14 7.906-6.22 7.922-6.22 20.813 0 12.89 6.22 20.797Q17.968 56 27.874 56q6.063 0 10.375-2.375 4.328-2.36 7.156-7.234zm-30.61-19.093q0-9.906 4.079-15.547 4.078-5.64 11.203-5.64 7.125 0 11.219 5.64 4.11 5.64 4.11 15.547 0 9.906-4.11 15.547-4.094 5.64-11.219 5.64-7.125 0-11.203-5.64-4.078-5.64-4.078-15.547z" id="DejaVuSans-100"/><path d="M56.203 29.594v-4.39H14.891q.593-9.282 5.593-14.142 5-4.859 13.938-4.859 5.172 0 10.031 1.266 4.86 1.265 9.656 3.812v-8.5Q49.266.734 44.187-.344 39.11-1.422 33.892-1.422q-13.094 0-20.735 7.61-7.64 7.625-7.64 20.625 0 13.421 7.25 21.296Q20.016 56 32.328 56q11.031 0 17.453-7.11 6.422-7.093 6.422-19.296zm-8.984 2.64q-.094 7.36-4.125 11.75-4.032 4.407-10.672 4.407-7.516 0-12.031-4.25-4.516-4.25-5.203-11.97z" id="DejaVuSans-101"/><path d="M9.422 75.984h8.984V0H9.422z" id="DejaVuSans-108"/></defs><use xlink:href="#DejaVuSans-105"/><use x="27.783" xlink:href="#DejaVuSans-100"/><use x="91.26" xlink:href="#DejaVuSans-101"/><use x="152.783" xlink:href="#DejaVuSans-97"/><use x="214.063" xlink:href="#DejaVuSans-108"/></g></g></g></g><defs><clipPath id="p8122d7c65e"><path d="M43.781 7.2h357.12v266.112H43.781z"/></clipPath></defs></svg>