<svg height="414.491" viewBox="0 0 411.573 310.868" width="548.764" xmlns="http://www.w3.org/2000/svg" xmlns:xlink="http://www.w3.org/1999/xlink"><defs><style>*{stroke-linecap:butt;stroke-linejoin:round}</style></defs><g id="figure_1"><path d="M0 310.868h411.573V0H0z" fill="#fff" id="patch_1"/><g id="axes_1"><path d="M43.781 273.312h357.12V7.2H43.781z" fill="#fff" id="patch_2"/><path clip-path="url(#pc45784dc83)" d="M43.781 264.852l357.12-236.516" fill="none" stroke="#000" stroke-dasharray="5.55,2.4" stroke-opacity=".5" stroke-width="1.5" id="line2d_1"/><g id="PathCollection_1"><defs><path d="M0 3a3 3 0 100-6 3 3 0 000 6z" id="C0_0_daf51cdd4e"/></defs><g clip-path="url(#pc45784dc83)"><use x="235.056" xlink:href="#C0_0_daf51cdd4e" y="154.257" fill="#f7fbff" stroke="#f7fbff"/></g><g clip-path="url(#pc45784dc83)"><use x="159.864" xlink:href="#C0_0_daf51cdd4e" y="219.753" fill="#ebf3fb" stroke="#ebf3fb"/></g><g clip-path="url(#pc45784dc83)"><use x="354.007" xlink:href="#C0_0_daf51cdd4e" y="55.677" fill="#eaf2fb" stroke="#eaf2fb"/></g><g clip-path="url(#pc45784dc83)"><use x="205.895" xlink:href="#C0_0_daf51cdd4e" y="153.643" fill="#e8f1fa" stroke="#e8f1fa"/></g><g clip-path="url(#pc45784dc83)"><use x="373.548" xlink:href="#C0_0_daf51cdd4e" y="40.465" fill="#e3eef9" stroke="#e3eef9"/></g><g clip-path="url(#pc45784dc83)"><use x="232.8" xlink:href="#C0_0_daf51cdd4e" y="159.42" fill="#e2edf8" stroke="#e2edf8"/></g><g clip-path="url(#pc45784dc83)"><use x="87.261" xlink:href="#C0_0_daf51cdd4e" y="197.544" fill="#dceaf6" stroke="#dceaf6"/></g><g clip-path="url(#pc45784dc83)"><use x="288.767" xlink:href="#C0_0_daf51cdd4e" y="96.297" fill="#d7e6f5" stroke="#d7e6f5"/></g><g clip-path="url(#pc45784dc83)"><use x="182.869" xlink:href="#C0_0_daf51cdd4e" y="162.55" fill="#d6e6f4" stroke="#d6e6f4"/></g><g clip-path="url(#pc45784dc83)"><use x="340.571" xlink:href="#C0_0_daf51cdd4e" y="51.442" fill="#d3e3f3" stroke="#d3e3f3"/></g><g clip-path="url(#pc45784dc83)"><use x="216.548" xlink:href="#C0_0_daf51cdd4e" y="108.914" fill="#d2e3f3" stroke="#d2e3f3"/></g><g clip-path="url(#pc45784dc83)"><use x="264.121" xlink:href="#C0_0_daf51cdd4e" y="111.569" fill="#d0e2f2" stroke="#d0e2f2"/></g><g clip-path="url(#pc45784dc83)"><use x="354.445" xlink:href="#C0_0_daf51cdd4e" y="58.99" fill="#d0e2f2" stroke="#d0e2f2"/></g><g clip-path="url(#pc45784dc83)"><use x="169.772" xlink:href="#C0_0_daf51cdd4e" y="136.065" fill="#cee0f2" stroke="#cee0f2"/></g><g clip-path="url(#pc45784dc83)"><use x="157.156" xlink:href="#C0_0_daf51cdd4e" y="189.89" fill="#cddff1" stroke="#cddff1"/></g><g clip-path="url(#pc45784dc83)"><use x="287.696" xlink:href="#C0_0_daf51cdd4e" y="133.384" fill="#ccdff1" stroke="#ccdff1"/></g><g clip-path="url(#pc45784dc83)"><use x="91.178" xlink:href="#C0_0_daf51cdd4e" y="205.18" fill="#ccdff1" stroke="#ccdff1"/></g><g clip-path="url(#pc45784dc83)"><use x="107.658" xlink:href="#C0_0_daf51cdd4e" y="228.282" fill="#cbdef1" stroke="#cbdef1"/></g><g clip-path="url(#pc45784dc83)"><use x="367.946" xlink:href="#C0_0_daf51cdd4e" y="73.847" fill="#cadef0" stroke="#cadef0"/></g><g clip-path="url(#pc45784dc83)"><use x="144.544" xlink:href="#C0_0_daf51cdd4e" y="214.793" fill="#c9ddf0" stroke="#c9ddf0"/></g><g clip-path="url(#pc45784dc83)"><use x="237.728" xlink:href="#C0_0_daf51cdd4e" y="98.755" fill="#c6dbef" stroke="#c6dbef"/></g><g clip-path="url(#pc45784dc83)"><use x="225.781" xlink:href="#C0_0_daf51cdd4e" y="160.079" fill="#c4daee" stroke="#c4daee"/></g><g clip-path="url(#pc45784dc83)"><use x="199.076" xlink:href="#C0_0_daf51cdd4e" y="136.071" fill="#c3daee" stroke="#c3daee"/></g><g clip-path="url(#pc45784dc83)"><use x="126.058" xlink:href="#C0_0_daf51cdd4e" y="166.798" fill="#bdd7ec" stroke="#bdd7ec"/></g><g clip-path="url(#pc45784dc83)"><use x="339.245" xlink:href="#C0_0_daf51cdd4e" y="30.846" fill="#bcd7eb" stroke="#bcd7eb"/></g><g clip-path="url(#pc45784dc83)"><use x="208.748" xlink:href="#C0_0_daf51cdd4e" y="150.2" fill="#b9d6ea" stroke="#b9d6ea"/></g><g clip-path="url(#pc45784dc83)"><use x="68.269" xlink:href="#C0_0_daf51cdd4e" y="238.068" fill="#b7d4ea" stroke="#b7d4ea"/></g><g clip-path="url(#pc45784dc83)"><use x="186.256" xlink:href="#C0_0_daf51cdd4e" y="195.884" fill="#b7d4ea" stroke="#b7d4ea"/></g><g clip-path="url(#pc45784dc83)"><use x="283.06" xlink:href="#C0_0_daf51cdd4e" y="81.077" fill="#b4d3e9" stroke="#b4d3e9"/></g><g clip-path="url(#pc45784dc83)"><use x="128.441" xlink:href="#C0_0_daf51cdd4e" y="199.69" fill="#b4d3e9" stroke="#b4d3e9"/></g><g clip-path="url(#pc45784dc83)"><use x="237.062" xlink:href="#C0_0_daf51cdd4e" y="118.985" fill="#b2d2e8" stroke="#b2d2e8"/></g><g clip-path="url(#pc45784dc83)"><use x="280.777" xlink:href="#C0_0_daf51cdd4e" y="103.519" fill="#b2d2e8" stroke="#b2d2e8"/></g><g clip-path="url(#pc45784dc83)"><use x="97.532" xlink:href="#C0_0_daf51cdd4e" y="211.338" fill="#b0d2e7" stroke="#b0d2e7"/></g><g clip-path="url(#pc45784dc83)"><use x="340.957" xlink:href="#C0_0_daf51cdd4e" y="61.794" fill="#b0d2e7" stroke="#b0d2e7"/></g><g clip-path="url(#pc45784dc83)"><use x="330.611" xlink:href="#C0_0_daf51cdd4e" y="74.729" fill="#afd1e7" stroke="#afd1e7"/></g><g clip-path="url(#pc45784dc83)"><use x="297.498" xlink:href="#C0_0_daf51cdd4e" y="138.59" fill="#afd1e7" stroke="#afd1e7"/></g><g clip-path="url(#pc45784dc83)"><use x="260.464" xlink:href="#C0_0_daf51cdd4e" y="81.009" fill="#afd1e7" stroke="#afd1e7"/></g><g clip-path="url(#pc45784dc83)"><use x="248.956" xlink:href="#C0_0_daf51cdd4e" y="145.963" fill="#a9cfe5" stroke="#a9cfe5"/></g><g clip-path="url(#pc45784dc83)"><use x="271.28" xlink:href="#C0_0_daf51cdd4e" y="125.687" fill="#a6cee4" stroke="#a6cee4"/></g><g clip-path="url(#pc45784dc83)"><use x="166.21" xlink:href="#C0_0_daf51cdd4e" y="180.654" fill="#a5cde3" stroke="#a5cde3"/></g><g clip-path="url(#pc45784dc83)"><use x="348.176" xlink:href="#C0_0_daf51cdd4e" y="58.776" fill="#a4cce3" stroke="#a4cce3"/></g><g clip-path="url(#pc45784dc83)"><use x="221.969" xlink:href="#C0_0_daf51cdd4e" y="125.497" fill="#a3cce3" stroke="#a3cce3"/></g><g clip-path="url(#pc45784dc83)"><use x="90.389" xlink:href="#C0_0_daf51cdd4e" y="256.242" fill="#a3cce3" stroke="#a3cce3"/></g><g clip-path="url(#pc45784dc83)"><use x="168.998" xlink:href="#C0_0_daf51cdd4e" y="178.956" fill="#a1cbe2" stroke="#a1cbe2"/></g><g clip-path="url(#pc45784dc83)"><use x="227.372" xlink:href="#C0_0_daf51cdd4e" y="167.174" fill="#a0cbe2" stroke="#a0cbe2"/></g><g clip-path="url(#pc45784dc83)"><use x="206.869" xlink:href="#C0_0_daf51cdd4e" y="159.063" fill="#a0cbe2" stroke="#a0cbe2"/></g><g clip-path="url(#pc45784dc83)"><use x="300.897" xlink:href="#C0_0_daf51cdd4e" y="119.905" fill="#9fcae1" stroke="#9fcae1"/></g><g clip-path="url(#pc45784dc83)"><use x="143.729" xlink:href="#C0_0_daf51cdd4e" y="231.335" fill="#9dcae1" stroke="#9dcae1"/></g><g clip-path="url(#pc45784dc83)"><use x="142.983" xlink:href="#C0_0_daf51cdd4e" y="165.668" fill="#99c7e0" stroke="#99c7e0"/></g><g clip-path="url(#pc45784dc83)"><use x="350.965" xlink:href="#C0_0_daf51cdd4e" y="49.46" fill="#95c5df" stroke="#95c5df"/></g><g clip-path="url(#pc45784dc83)"><use x="377.405" xlink:href="#C0_0_daf51cdd4e" y="67.548" fill="#91c3de" stroke="#91c3de"/></g><g clip-path="url(#pc45784dc83)"><use x="346.751" xlink:href="#C0_0_daf51cdd4e" y="87.629" fill="#8dc1dd" stroke="#8dc1dd"/></g><g clip-path="url(#pc45784dc83)"><use x="151.971" xlink:href="#C0_0_daf51cdd4e" y="200.225" fill="#8cc0dd" stroke="#8cc0dd"/></g><g clip-path="url(#pc45784dc83)"><use x="355.565" xlink:href="#C0_0_daf51cdd4e" y="37.903" fill="#8cc0dd" stroke="#8cc0dd"/></g><g clip-path="url(#pc45784dc83)"><use x="232.959" xlink:href="#C0_0_daf51cdd4e" y="171.361" fill="#89bedc" stroke="#89bedc"/></g><g clip-path="url(#pc45784dc83)"><use x="79.103" xlink:href="#C0_0_daf51cdd4e" y="235.496" fill="#85bcdc" stroke="#85bcdc"/></g><g clip-path="url(#pc45784dc83)"><use x="203.123" xlink:href="#C0_0_daf51cdd4e" y="140.481" fill="#85bcdc" stroke="#85bcdc"/></g><g clip-path="url(#pc45784dc83)"><use x="365.085" xlink:href="#C0_0_daf51cdd4e" y="48.825" fill="#84bcdb" stroke="#84bcdb"/></g><g clip-path="url(#pc45784dc83)"><use x="233.457" xlink:href="#C0_0_daf51cdd4e" y="125.821" fill="#79b5d9" stroke="#79b5d9"/></g><g clip-path="url(#pc45784dc83)"><use x="77.454" xlink:href="#C0_0_daf51cdd4e" y="237.483" fill="#79b5d9" stroke="#79b5d9"/></g><g clip-path="url(#pc45784dc83)"><use x="351.837" xlink:href="#C0_0_daf51cdd4e" y="21.119" fill="#71b1d7" stroke="#71b1d7"/></g><g clip-path="url(#pc45784dc83)"><use x="194.54" xlink:href="#C0_0_daf51cdd4e" y="181.526" fill="#71b1d7" stroke="#71b1d7"/></g><g clip-path="url(#pc45784dc83)"><use x="129.344" xlink:href="#C0_0_daf51cdd4e" y="256.315" fill="#6fb0d7" stroke="#6fb0d7"/></g><g clip-path="url(#pc45784dc83)"><use x="172.132" xlink:href="#C0_0_daf51cdd4e" y="163.225" fill="#6dafd7" stroke="#6dafd7"/></g><g clip-path="url(#pc45784dc83)"><use x="283.35" xlink:href="#C0_0_daf51cdd4e" y="133.443" fill="#6caed6" stroke="#6caed6"/></g><g clip-path="url(#pc45784dc83)"><use x="336.82" xlink:href="#C0_0_daf51cdd4e" y="32.925" fill="#6caed6" stroke="#6caed6"/></g><g clip-path="url(#pc45784dc83)"><use x="257.563" xlink:href="#C0_0_daf51cdd4e" y="163.287" fill="#68acd5" stroke="#68acd5"/></g><g clip-path="url(#pc45784dc83)"><use x="220.024" xlink:href="#C0_0_daf51cdd4e" y="148.365" fill="#68acd5" stroke="#68acd5"/></g><g clip-path="url(#pc45784dc83)"><use x="359.522" xlink:href="#C0_0_daf51cdd4e" y="44.784" fill="#68acd5" stroke="#68acd5"/></g><g clip-path="url(#pc45784dc83)"><use x="72.039" xlink:href="#C0_0_daf51cdd4e" y="259.393" fill="#66abd4" stroke="#66abd4"/></g><g clip-path="url(#pc45784dc83)"><use x="282.153" xlink:href="#C0_0_daf51cdd4e" y="128.343" fill="#66abd4" stroke="#66abd4"/></g><g clip-path="url(#pc45784dc83)"><use x="326.496" xlink:href="#C0_0_daf51cdd4e" y="143.289" fill="#66abd4" stroke="#66abd4"/></g><g clip-path="url(#pc45784dc83)"><use x="298.874" xlink:href="#C0_0_daf51cdd4e" y="112.903" fill="#66abd4" stroke="#66abd4"/></g><g clip-path="url(#pc45784dc83)"><use x="142.235" xlink:href="#C0_0_daf51cdd4e" y="180.501" fill="#65aad4" stroke="#65aad4"/></g><g clip-path="url(#pc45784dc83)"><use x="204.706" xlink:href="#C0_0_daf51cdd4e" y="163.598" fill="#65aad4" stroke="#65aad4"/></g><g clip-path="url(#pc45784dc83)"><use x="145.699" xlink:href="#C0_0_daf51cdd4e" y="160.575" fill="#65aad4" stroke="#65aad4"/></g><g clip-path="url(#pc45784dc83)"><use x="252.859" xlink:href="#C0_0_daf51cdd4e" y="135.462" fill="#64a9d3" stroke="#64a9d3"/></g><g clip-path="url(#pc45784dc83)"><use x="237.371" xlink:href="#C0_0_daf51cdd4e" y="125.45" fill="#63a8d3" stroke="#63a8d3"/></g><g clip-path="url(#pc45784dc83)"><use x="296.884" xlink:href="#C0_0_daf51cdd4e" y="87.345" fill="#61a7d2" stroke="#61a7d2"/></g><g clip-path="url(#pc45784dc83)"><use x="112.276" xlink:href="#C0_0_daf51cdd4e" y="228.472" fill="#61a7d2" stroke="#61a7d2"/></g><g clip-path="url(#pc45784dc83)"><use x="262.859" xlink:href="#C0_0_daf51cdd4e" y="97.929" fill="#60a7d2" stroke="#60a7d2"/></g><g clip-path="url(#pc45784dc83)"><use x="128.211" xlink:href="#C0_0_daf51cdd4e" y="183.763" fill="#60a7d2" stroke="#60a7d2"/></g><g clip-path="url(#pc45784dc83)"><use x="293.384" xlink:href="#C0_0_daf51cdd4e" y="120.441" fill="#60a7d2" stroke="#60a7d2"/></g><g clip-path="url(#pc45784dc83)"><use x="263.485" xlink:href="#C0_0_daf51cdd4e" y="92.844" fill="#5fa6d1" stroke="#5fa6d1"/></g><g clip-path="url(#pc45784dc83)"><use x="269.611" xlink:href="#C0_0_daf51cdd4e" y="112.89" fill="#5fa6d1" stroke="#5fa6d1"/></g><g clip-path="url(#pc45784dc83)"><use x="230.692" xlink:href="#C0_0_daf51cdd4e" y="137.554" fill="#5fa6d1" stroke="#5fa6d1"/></g><g clip-path="url(#pc45784dc83)"><use x="168.485" xlink:href="#C0_0_daf51cdd4e" y="165.935" fill="#5fa6d1" stroke="#5fa6d1"/></g><g clip-path="url(#pc45784dc83)"><use x="309.023" xlink:href="#C0_0_daf51cdd4e" y="84.717" fill="#5da5d1" stroke="#5da5d1"/></g><g clip-path="url(#pc45784dc83)"><use x="368.046" xlink:href="#C0_0_daf51cdd4e" y="44.539" fill="#5ca4d0" stroke="#5ca4d0"/></g><g clip-path="url(#pc45784dc83)"><use x="250.726" xlink:href="#C0_0_daf51cdd4e" y="158.226" fill="#5ba3d0" stroke="#5ba3d0"/></g><g clip-path="url(#pc45784dc83)"><use x="62.065" xlink:href="#C0_0_daf51cdd4e" y="200.477" fill="#56a0ce" stroke="#56a0ce"/></g><g clip-path="url(#pc45784dc83)"><use x="382.617" xlink:href="#C0_0_daf51cdd4e" y="79.52" fill="#4997c9" stroke="#4997c9"/></g><g clip-path="url(#pc45784dc83)"><use x="283.063" xlink:href="#C0_0_daf51cdd4e" y="129.451" fill="#4695c8" stroke="#4695c8"/></g><g clip-path="url(#pc45784dc83)"><use x="147.01" xlink:href="#C0_0_daf51cdd4e" y="213.273" fill="#3a8ac2" stroke="#3a8ac2"/></g><g clip-path="url(#pc45784dc83)"><use x="361.184" xlink:href="#C0_0_daf51cdd4e" y="74.256" fill="#0a539e" stroke="#0a539e"/></g><g clip-path="url(#pc45784dc83)"><use x="362.354" xlink:href="#C0_0_daf51cdd4e" y="74.88" fill="#08306b" stroke="#08306b"/></g></g><g id="matplotlib.axis_1"><g id="xtick_1"><g id="line2d_2"><defs><path d="M0 0v3.5" id="ma4624466df" stroke="#000" stroke-width=".8"/></defs><use x="57.243" xlink:href="#ma4624466df" y="273.312" stroke="#000" stroke-width=".8"/></g><g id="text_1"><defs><path d="M31.781 66.406q-7.61 0-11.453-7.5Q16.5 51.422 16.5 36.375q0-14.984 3.828-22.484 3.844-7.5 11.453-7.5 7.672 0 11.5 7.5 3.844 7.5 3.844 22.484 0 15.047-3.844 22.531-3.828 7.5-11.5 7.5zm0 7.813q12.266 0 18.735-9.703 6.468-9.688 6.468-28.141 0-18.406-6.468-28.11-6.47-9.687-18.735-9.687-12.25 0-18.718 9.688-6.47 9.703-6.47 28.109 0 18.453 6.47 28.14Q19.53 74.22 31.78 74.22z" id="DejaVuSans-48"/><path d="M10.688 12.406H21V0H10.687z" id="DejaVuSans-46"/></defs><g transform="matrix(.1 0 0 -.1 49.291 287.91)"><use xlink:href="#DejaVuSans-48"/><use x="63.623" xlink:href="#DejaVuSans-46"/><use x="95.41" xlink:href="#DejaVuSans-48"/></g></g></g><g id="xtick_2"><use x="125.079" xlink:href="#ma4624466df" y="273.312" stroke="#000" stroke-width=".8" id="line2d_3"/><g id="text_2"><defs><path d="M19.188 8.297h34.421V0H7.33v8.297q5.609 5.812 15.296 15.594 9.703 9.797 12.188 12.64 4.734 5.313 6.609 9 1.89 3.688 1.89 7.25 0 5.813-4.078 9.469-4.078 3.672-10.625 3.672-4.64 0-9.797-1.61-5.14-1.609-11-4.89v9.969Q13.767 71.78 18.938 73q5.188 1.219 9.485 1.219 11.328 0 18.062-5.672 6.735-5.656 6.735-15.125 0-4.5-1.688-8.531-1.672-4.016-6.125-9.485-1.218-1.422-7.765-8.187-6.532-6.766-18.453-18.922z" id="DejaVuSans-50"/></defs><g transform="matrix(.1 0 0 -.1 117.127 287.91)"><use xlink:href="#DejaVuSans-48"/><use x="63.623" xlink:href="#DejaVuSans-46"/><use x="95.41" xlink:href="#DejaVuSans-50"/></g></g></g><g id="xtick_3"><use x="192.914" xlink:href="#ma4624466df" y="273.312" stroke="#000" stroke-width=".8" id="line2d_4"/><g id="text_3"><defs><path d="M37.797 64.313L12.89 25.39h24.906zm-2.594 8.593H47.61V25.391h10.407v-8.203H47.609V0h-9.812v17.188H4.89v9.515z" id="DejaVuSans-52"/></defs><g transform="matrix(.1 0 0 -.1 184.963 287.91)"><use xlink:href="#DejaVuSans-48"/><use x="63.623" xlink:href="#DejaVuSans-46"/><use x="95.41" xlink:href="#DejaVuSans-52"/></g></g></g><g id="xtick_4"><use x="260.75" xlink:href="#ma4624466df" y="273.312" stroke="#000" stroke-width=".8" id="line2d_5"/><g id="text_4"><defs><path d="M33.016 40.375q-6.641 0-10.532-4.547-3.875-4.531-3.875-12.437 0-7.86 3.875-12.438 3.891-4.562 10.532-4.562 6.64 0 10.515 4.562 3.875 4.578 3.875 12.438 0 7.906-3.875 12.437-3.875 4.547-10.515 4.547zm19.578 30.922v-8.984q-3.719 1.75-7.5 2.671-3.782.938-7.5.938-9.766 0-14.922-6.594-5.14-6.594-5.875-19.922 2.875 4.25 7.219 6.516 4.359 2.266 9.578 2.266 10.984 0 17.36-6.672 6.374-6.657 6.374-18.125 0-11.235-6.64-18.032-6.641-6.78-17.672-6.78-12.657 0-19.344 9.687-6.688 9.703-6.688 28.109 0 17.281 8.204 27.563 8.203 10.28 22.015 10.28 3.719 0 7.5-.734t7.89-2.187z" id="DejaVuSans-54"/></defs><g transform="matrix(.1 0 0 -.1 252.799 287.91)"><use xlink:href="#DejaVuSans-48"/><use x="63.623" xlink:href="#DejaVuSans-46"/><use x="95.41" xlink:href="#DejaVuSans-54"/></g></g></g><g id="xtick_5"><use x="328.586" xlink:href="#ma4624466df" y="273.312" stroke="#000" stroke-width=".8" id="line2d_6"/><g id="text_5"><defs><path d="M31.781 34.625q-7.031 0-11.062-3.766-4.016-3.765-4.016-10.343 0-6.594 4.016-10.36Q24.75 6.391 31.78 6.391q7.032 0 11.078 3.78 4.063 3.798 4.063 10.345 0 6.578-4.031 10.343-4.016 3.766-11.11 3.766zm-9.86 4.188q-6.343 1.562-9.89 5.906Q8.5 49.079 8.5 55.329q0 8.733 6.219 13.812 6.234 5.078 17.062 5.078 10.89 0 17.094-5.078 6.203-5.079 6.203-13.813 0-6.25-3.547-10.61-3.531-4.343-9.828-5.906 7.125-1.656 11.094-6.5 3.984-4.828 3.984-11.796 0-10.61-6.468-16.282-6.47-5.656-18.532-5.656-12.047 0-18.531 5.656-6.469 5.672-6.469 16.282 0 6.968 4 11.797 4.016 4.843 11.14 6.5zM18.314 54.39q0-5.657 3.53-8.828 3.548-3.172 9.938-3.172 6.36 0 9.938 3.172 3.593 3.171 3.593 8.828 0 5.672-3.593 8.843-3.578 3.172-9.938 3.172-6.39 0-9.937-3.172-3.532-3.172-3.532-8.843z" id="DejaVuSans-56"/></defs><g transform="matrix(.1 0 0 -.1 320.634 287.91)"><use xlink:href="#DejaVuSans-48"/><use x="63.623" xlink:href="#DejaVuSans-46"/><use x="95.41" xlink:href="#DejaVuSans-56"/></g></g></g><g id="xtick_6"><use x="396.422" xlink:href="#ma4624466df" y="273.312" stroke="#000" stroke-width=".8" id="line2d_7"/><g id="text_6"><defs><path d="M12.406 8.297h16.11v55.625l-17.532-3.516v8.985l17.438 3.515h9.86V8.296H54.39V0H12.406z" id="DejaVuSans-49"/></defs><g transform="matrix(.1 0 0 -.1 388.47 287.91)"><use xlink:href="#DejaVuSans-49"/><use x="63.623" xlink:href="#DejaVuSans-46"/><use x="95.41" xlink:href="#DejaVuSans-48"/></g></g></g><g id="text_7"><defs><path d="M37.11 75.984V68.5h-8.594q-4.828 0-6.72-1.953-1.874-1.953-1.874-7.031v-4.828h14.797v-6.985H19.922V0H10.89v47.703H2.297v6.984h8.594V58.5q0 9.125 4.25 13.297 4.25 4.187 13.468 4.187z" id="DejaVuSans-102"/><path d="M30.61 48.39q-7.22 0-11.422-5.64-4.204-5.64-4.204-15.453 0-9.813 4.172-15.453 4.188-5.64 11.453-5.64 7.188 0 11.375 5.655 4.203 5.672 4.203 15.438 0 9.719-4.203 15.406-4.187 5.688-11.375 5.688zm0 7.61q11.718 0 18.406-7.625 6.703-7.61 6.703-21.078 0-13.422-6.703-21.078-6.688-7.64-18.407-7.64-11.765 0-18.437 7.64-6.656 7.656-6.656 21.078 0 13.469 6.656 21.078Q18.844 56 30.609 56z" id="DejaVuSans-111"/></defs><g transform="matrix(.1 0 0 -.1 214.462 301.589)"><use xlink:href="#DejaVuSans-102"/><use x="35.205" xlink:href="#DejaVuSans-111"/><use x="96.387" xlink:href="#DejaVuSans-111"/></g></g></g><g id="matplotlib.axis_2"><g id="ytick_1"><g id="line2d_8"><defs><path d="M0 0h-3.5" id="m91049c0eaa" stroke="#000" stroke-width=".8"/></defs><use x="43.781" xlink:href="#m91049c0eaa" y="255.936" stroke="#000" stroke-width=".8"/></g><g transform="matrix(.1 0 0 -.1 20.878 259.735)" id="text_8"><use xlink:href="#DejaVuSans-48"/><use x="63.623" xlink:href="#DejaVuSans-46"/><use x="95.41" xlink:href="#DejaVuSans-48"/></g></g><g id="ytick_2"><use x="43.781" xlink:href="#m91049c0eaa" y="211.01" stroke="#000" stroke-width=".8" id="line2d_9"/><g transform="matrix(.1 0 0 -.1 20.878 214.809)" id="text_9"><use xlink:href="#DejaVuSans-48"/><use x="63.623" xlink:href="#DejaVuSans-46"/><use x="95.41" xlink:href="#DejaVuSans-50"/></g></g><g id="ytick_3"><use x="43.781" xlink:href="#m91049c0eaa" y="166.083" stroke="#000" stroke-width=".8" id="line2d_10"/><g transform="matrix(.1 0 0 -.1 20.878 169.882)" id="text_10"><use xlink:href="#DejaVuSans-48"/><use x="63.623" xlink:href="#DejaVuSans-46"/><use x="95.41" xlink:href="#DejaVuSans-52"/></g></g><g id="ytick_4"><use x="43.781" xlink:href="#m91049c0eaa" y="121.156" stroke="#000" stroke-width=".8" id="line2d_11"/><g transform="matrix(.1 0 0 -.1 20.878 124.955)" id="text_11"><use xlink:href="#DejaVuSans-48"/><use x="63.623" xlink:href="#DejaVuSans-46"/><use x="95.41" xlink:href="#DejaVuSans-54"/></g></g><g id="ytick_5"><use x="43.781" xlink:href="#m91049c0eaa" y="76.229" stroke="#000" stroke-width=".8" id="line2d_12"/><g transform="matrix(.1 0 0 -.1 20.878 80.029)" id="text_12"><use xlink:href="#DejaVuSans-48"/><use x="63.623" xlink:href="#DejaVuSans-46"/><use x="95.41" xlink:href="#DejaVuSans-56"/></g></g><g id="ytick_6"><use x="43.781" xlink:href="#m91049c0eaa" y="31.303" stroke="#000" stroke-width=".8" id="line2d_13"/><g transform="matrix(.1 0 0 -.1 20.878 35.102)" id="text_13"><use xlink:href="#DejaVuSans-49"/><use x="63.623" xlink:href="#DejaVuSans-46"/><use x="95.41" xlink:href="#DejaVuSans-48"/></g></g><g id="text_14"><defs><path d="M48.688 27.297q0 9.906-4.079 15.547-4.078 5.64-11.203 5.64-7.14 0-11.218-5.64-4.079-5.64-4.079-15.547 0-9.906 4.078-15.547 4.079-5.64 11.22-5.64 7.124 0 11.202 5.64t4.078 15.547zM18.108 46.39q2.844 4.875 7.157 7.234Q29.594 56 35.594 56q9.968 0 16.187-7.906 6.235-7.907 6.235-20.797T51.78 6.484q-6.218-7.906-16.187-7.906-6 0-10.328 2.375-4.313 2.375-7.157 7.25V0H9.08v75.984h9.03z" id="DejaVuSans-98"/><path d="M34.281 27.484q-10.89 0-15.093-2.484-4.204-2.484-4.204-8.5 0-4.781 3.157-7.594 3.156-2.797 8.562-2.797 7.485 0 12 5.297 4.516 5.297 4.516 14.078v2zm17.922 3.72V0H43.22v8.297Q40.14 3.328 35.547.953q-4.594-2.375-11.234-2.375-8.391 0-13.36 4.719Q6 8.016 6 15.922q0 9.219 6.172 13.906 6.187 4.688 18.437 4.688h12.61v.89q0 6.203-4.078 9.594-4.078 3.39-11.453 3.39-4.688 0-9.141-1.124-4.438-1.125-8.531-3.375v8.312q4.921 1.906 9.562 2.844 4.64.953 9.031.953 11.875 0 17.735-6.156 5.86-6.14 5.86-18.64z" id="DejaVuSans-97"/><path d="M41.11 46.297q-1.516.875-3.297 1.281Q36.03 48 33.89 48q-7.625 0-11.703-4.953-4.079-4.953-4.079-14.234V0H9.08v54.688h9.03v-8.5q2.844 4.984 7.375 7.39Q30.031 56 36.531 56q.922 0 2.047-.125 1.125-.11 2.484-.36z" id="DejaVuSans-114"/></defs><g transform="matrix(0 -.1 -.1 0 14.798 148.55)"><use xlink:href="#DejaVuSans-98"/><use x="63.477" xlink:href="#DejaVuSans-97"/><use x="124.756" xlink:href="#DejaVuSans-114"/></g></g></g><path d="M43.781 273.312V7.2" fill="none" stroke="#000" stroke-linecap="square" stroke-width=".8" id="patch_3"/><path d="M400.901 273.312V7.2" fill="none" stroke="#000" stroke-linecap="square" stroke-width=".8" id="patch_4"/><path d="M43.781 273.312h357.12" fill="none" stroke="#000" stroke-linecap="square" stroke-width=".8" id="patch_5"/><path d="M43.781 7.2h357.12" fill="none" stroke="#000" stroke-linecap="square" stroke-width=".8" id="patch_6"/><g id="legend_1"><path d="M52.781 20.298h20" fill="none" stroke="#000" stroke-dasharray="5.55,2.4" stroke-opacity=".5" stroke-width="1.5" id="line2d_14"/><g id="text_15"><defs><path d="M9.422 54.688h8.984V0H9.422zm0 21.296h8.984v-11.39H9.422z" id="DejaVuSans-105"/><path d="M45.406 46.39v29.594h8.985V0h-8.985v8.203Q42.578 3.328 38.25.953q-4.313-2.375-10.375-2.375-9.906 0-16.14 7.906-6.22 7.922-6.22 20.813 0 12.89 6.22 20.797Q17.968 56 27.874 56q6.063 0 10.375-2.375 4.328-2.36 7.156-7.234zm-30.61-19.093q0-9.906 4.079-15.547 4.078-5.64 11.203-5.64 7.125 0 11.219 5.64 4.11 5.64 4.11 15.547 0 9.906-4.11 15.547-4.094 5.64-11.219 5.64-7.125 0-11.203-5.64-4.078-5.64-4.078-15.547z" id="DejaVuSans-100"/><path d="M56.203 29.594v-4.39H14.891q.593-9.282 5.593-14.142 5-4.859 13.938-4.859 5.172 0 10.031 1.266 4.86 1.265 9.656 3.812v-8.5Q49.266.734 44.187-.344 39.11-1.422 33.892-1.422q-13.094 0-20.735 7.61-7.64 7.625-7.64 20.625 0 13.421 7.25 21.296Q20.016 56 32.328 56q11.031 0 17.453-7.11 6.422-7.093 6.422-19.296zm-8.984 2.64q-.094 7.36-4.125 11.75-4.032 4.407-10.672 4.407-7.516 0-12.031-4.25-4.516-4.25-5.203-11.97z" id="DejaVuSans-101"/><path d="M9.422 75.984h8.984V0H9.422z" id="DejaVuSans-108"/></defs><g transform="matrix(.1 0 0 -.1 80.781 23.798)"><use xlink:href="#DejaVuSans-105"/><use x="27.783" xlink:href="#DejaVuSans-100"/><use x="91.26" xlink:href="#DejaVuSans-101"/><use x="152.783" xlink:href="#DejaVuSans-97"/><use x="214.063" xlink:href="#DejaVuSans-108"/></g></g></g></g></g><defs><clipPath id="pc45784dc83"><path d="M43.781 7.2h357.12v266.112H43.781z"/></clipPath></defs></svg>