<svg xmlns="http://www.w3.org/2000/svg" xmlns:xlink="http://www.w3.org/1999/xlink" width="625.6" height="472" viewBox="0 0 469.2 354"><style>.B{stroke:#000}.C{stroke-width:.8}</style><path fill="#1f77b4" d="M71.628 298.072h18.278V77.276H71.628zm26.112 0h18.278v-79.971H97.74zm26.112 0h18.278v-68.827h-18.278zm26.111 0h18.278v-25.93h-18.278zm26.112 0h18.278v-23.384h-18.278zm26.112 0h18.278v-21.483h-18.278zm26.112 0h18.278v-20.069h-18.278zm26.112 0h18.278v-17.821h-18.278zm26.111 0H298.8v-17.408h-18.278zm26.112 0h18.278v-17.086h-18.278zm26.112 0h18.278v-16.801h-18.278zm26.112 0h18.278v-16.714h-18.278zm26.112 0h18.278v-16.54H384.97zm26.111 0h18.278v-15.207h-18.278zm26.112 0h18.278v-14.961h-18.278z" class="B" clip-path="url(#j)"/><defs><path id="A" d="M0 0v3.5" class="B C"/></defs><use xlink:href="#A" x="80.767" y="298.072" class="B C"/><g transform="matrix(0 -.16 -.16 0 85.182 317.667)"><defs><path id="B" d="M2522 4238q-688 0-1093-513-404-512-404-1397 0-881 404-1394 405-512 1093-512 687 0 1089 512 402 513 402 1394 0 885-402 1397-402 513-1089 513m0 512q981 0 1568-658 588-658 588-1764 0-1103-588-1761Q3503-91 2522-91q-984 0-1574 656-589 657-589 1763t589 1764q590 658 1574 658" transform="scale(.01563)"/></defs><use xlink:href="#B"/></g><use xlink:href="#A" x="106.879" y="298.072" class="B C"/><g transform="matrix(0 -.16 -.16 0 111.294 315.23)"><defs><path id="C" d="M3425 4513v-616q-359 172-678 256-319 85-616 85-515 0-795-200t-280-569q0-310 186-468 186-157 705-254l381-78q706-135 1042-474t336-907q0-679-455-1029Q2797-91 1919-91q-331 0-705 75-373 75-773 222v650q384-215 753-325 369-109 725-109 540 0 834 212 294 213 294 607 0 343-211 537t-692 291l-385 75q-706 140-1022 440-315 300-315 835 0 619 436 975t1201 356q329 0 669-60 341-59 697-177" transform="scale(.01563)"/></defs><use xlink:href="#C"/></g><use xlink:href="#A" x="132.991" y="298.072" class="B C"/><g transform="matrix(0 -.16 -.16 0 137.406 325.075)"><defs><path id="D" d="M3597 1894v-281H953q38-594 358-905t892-311q331 0 642 81t618 244V178Q3153 47 2828-22t-659-69q-838 0-1327 487-489 488-489 1320 0 859 464 1363 464 505 1252 505 706 0 1117-455 411-454 411-1235m-575 169q-6 471-264 752-258 282-683 282-481 0-770-272t-333-766z" transform="scale(.01563)"/></defs><use xlink:href="#C"/><use xlink:href="#D" x="63.477"/></g><use xlink:href="#A" x="159.103" y="298.072" class="B C"/><g transform="matrix(0 -.16 -.16 0 163.518 316.05)"><defs><path id="E" d="M1259 2228V519h1013q509 0 754 211 246 211 246 645 0 438-246 645-245 208-754 208zm0 1919V2741h935q462 0 688 173 227 174 227 530 0 353-227 528-226 175-688 175zm-631 519h1613q722 0 1112-300 391-300 391-853 0-429-200-682t-588-315q466-100 724-418 258-317 258-792 0-625-425-966Q3088 0 2303 0H628z" transform="scale(.01563)"/></defs><use xlink:href="#E"/></g><use xlink:href="#A" x="185.214" y="298.072" class="B C"/><g transform="matrix(0 -.16 -.16 0 189.63 321.97)"><defs><path id="F" d="M-19 4666h3947v-532H2272V0h-634v4134H-19z" transform="scale(.01563)"/></defs><use xlink:href="#F"/><use xlink:href="#D" x="44.084"/></g><use xlink:href="#A" x="211.326" y="298.072" class="B C"/><g transform="matrix(0 -.16 -.16 0 215.741 318.432)"><defs><path id="G" d="M628 4666h631V531h2272V0H628z" transform="scale(.01563)"/><path id="H" d="M603 3500h575V0H603zm0 1363h575v-729H603z" transform="scale(.01563)"/></defs><use xlink:href="#G"/><use xlink:href="#H" x="55.713"/></g><use xlink:href="#A" x="237.438" y="298.072" class="B C"/><g transform="matrix(0 -.16 -.16 0 241.853 326.385)"><defs><path id="I" d="M4122 4306v-665q-319 297-680 443-361 147-767 147-800 0-1225-489t-425-1414q0-922 425-1411t1225-489q406 0 767 147t680 444V359q-331-225-702-338-370-112-782-112-1060 0-1670 648-609 649-609 1771 0 1125 609 1773 610 649 1670 649 418 0 788-111 371-111 696-333" transform="scale(.01563)"/><path id="J" d="M544 1381v2119h575V1403q0-497 193-746 194-248 582-248 465 0 735 297 271 297 271 810v1984h575V0h-575v538q-209-319-486-474-276-155-642-155-603 0-916 375-312 375-312 1097m1447 2203" transform="scale(.01563)"/></defs><use xlink:href="#I"/><use xlink:href="#J" x="69.824"/></g><use xlink:href="#A" x="263.55" y="298.072" class="B C"/><g transform="matrix(0 -.16 -.16 0 267.965 327.315)"><defs><path id="K" d="M3809 666v1253H2778v519h1656V434q-365-259-806-392-440-133-940-133-1094 0-1712 639-617 640-617 1780 0 1144 617 1783 618 639 1712 639 456 0 867-113 411-112 758-331v-672q-350 297-744 447t-828 150q-857 0-1287-478-429-478-429-1425 0-944 429-1422 430-478 1287-478 334 0 596 58 263 58 472 180" transform="scale(.01563)"/></defs><use xlink:href="#K"/><use xlink:href="#D" x="77.49"/></g><use xlink:href="#A" x="289.662" y="298.072" class="B C"/><g transform="matrix(0 -.16 -.16 0 294.077 314.72)"><defs><path id="L" d="M1259 4147V2394h794q441 0 681 228 241 228 241 650 0 419-241 647-240 228-681 228zm-631 519h1425q785 0 1186-355 402-355 402-1039 0-691-402-1044-401-353-1186-353h-794V0H628z" transform="scale(.01563)"/></defs><use xlink:href="#L"/></g><use xlink:href="#A" x="315.773" y="298.072" class="B C"/><g transform="scale(.16 -.16)rotate(90 2000.375 .8)"><defs><path id="M" d="M628 4666h631V0H628z" transform="scale(.01563)"/><path id="N" d="M3513 2113V0h-575v2094q0 497-194 743-194 247-581 247-466 0-735-297-269-296-269-809V0H581v3500h578v-544q207 316 486 472 280 156 646 156 603 0 912-373 310-373 310-1098" transform="scale(.01563)"/></defs><use xlink:href="#M"/><use xlink:href="#N" x="29.492"/></g><use xlink:href="#A" x="341.885" y="298.072" class="B C"/><g transform="matrix(0 -.16 -.16 0 346.3 320.495)"><use xlink:href="#E"/><use xlink:href="#H" x="68.604"/></g><use xlink:href="#A" x="367.997" y="298.072" class="B C"/><g transform="matrix(0 -.16 -.16 0 372.412 327.275)"><defs><path id="O" d="M2194 1759q-697 0-966-159t-269-544q0-306 202-486 202-179 548-179 479 0 768 339t289 901v128zm1147 238V0h-575v531q-197-318-491-470T1556-91q-537 0-855 302-317 302-317 808 0 590 395 890 396 300 1180 300h807v57q0 397-261 614t-733 217q-300 0-585-72-284-72-546-216v532q315 122 612 182 297 61 578 61 760 0 1135-394 375-393 375-1193" transform="scale(.01563)"/></defs><use xlink:href="#K"/><use xlink:href="#O" x="77.49"/></g><use xlink:href="#A" x="394.109" y="298.072" class="B C"/><g transform="matrix(0 -.16 -.16 0 398.524 320.462)"><defs><path id="P" d="m2188 4044-857-2322h1716zm-357 622h716L4325 0h-656l-425 1197H1141L716 0H50z" transform="scale(.01563)"/><path id="Q" d="M603 4863h575V0H603z" transform="scale(.01563)"/></defs><use xlink:href="#P"/><use xlink:href="#Q" x="68.408"/></g><use xlink:href="#A" x="420.221" y="298.072" class="B C"/><g transform="matrix(0 -.16 -.16 0 424.636 321.487)"><defs><path id="R" d="M628 4666h850L3547 763v3903h612V0h-850L1241 3903V0H628z" transform="scale(.01563)"/></defs><use xlink:href="#R"/><use xlink:href="#H" x="74.805"/></g><use xlink:href="#A" x="446.332" y="298.072" class="B C"/><g transform="matrix(0 -.16 -.16 0 450.747 325.855)"><use xlink:href="#E"/><use xlink:href="#O" x="68.604"/></g><g transform="matrix(.16 0 0 -.16 234.659 343.472)"><defs><path id="S" d="M2834 3397v-544q-243 125-506 187-262 63-544 63-428 0-642-131t-214-394q0-200 153-314t616-217l197-44q612-131 870-370t258-667q0-488-386-773Q2250-91 1575-91q-281 0-586 55T347 128v594q319-166 628-249 309-82 613-82 406 0 624 139 219 139 219 392 0 234-158 359-157 125-692 241l-200 47q-534 112-772 345-237 233-237 639 0 494 350 762 350 269 994 269 318 0 599-47 282-46 519-140" transform="scale(.01563)"/><path id="T" d="M2059-325q-243-625-475-815-231-191-618-191H506v481h338q237 0 368 113 132 112 291 531l103 262L191 3500h609L1894 763l1094 2737h609z" transform="scale(.01563)"/><path id="U" d="M3328 2828q216 388 516 572t706 184q547 0 844-383 297-382 297-1088V0h-578v2094q0 503-179 746-178 244-543 244-447 0-707-297-259-296-259-809V0h-578v2094q0 506-178 748t-550 242q-441 0-701-298-259-298-259-808V0H581v3500h578v-544q197 322 472 475t653 153q382 0 649-194 267-193 395-562" transform="scale(.01563)"/><path id="V" d="M3116 1747q0 634-261 995t-717 361q-457 0-718-361t-261-995 261-995 718-361q456 0 717 361t261 995M1159 2969q182 312 458 463 277 152 661 152 638 0 1036-506 399-506 399-1331T3314 415Q2916-91 2278-91q-384 0-661 152-276 152-458 464V0H581v4863h578z" transform="scale(.01563)"/><path id="W" d="M1959 3097q-462 0-731-361t-269-989 267-989q268-361 733-361 460 0 728 362 269 363 269 988 0 622-269 986-268 364-728 364m0 487q750 0 1178-488 429-487 429-1349 0-859-429-1349Q2709-91 1959-91q-753 0-1180 489-426 490-426 1349 0 862 426 1349 427 488 1180 488" transform="scale(.01563)"/></defs><use xlink:href="#S"/><use xlink:href="#T" x="52.1"/><use xlink:href="#U" x="111.279"/><use xlink:href="#V" x="208.691"/><use xlink:href="#W" x="272.168"/><use xlink:href="#Q" x="333.35"/></g><defs><path id="X" d="M0 0h-3.5" class="B C"/></defs><use xlink:href="#X" x="65.1" y="298.072" class="B C"/><g transform="matrix(.16 0 0 -.16 47.92 304.15)"><defs><path id="Y" d="M2034 4250q-487 0-733-480-245-479-245-1442 0-959 245-1439 246-480 733-480 491 0 736 480 246 480 246 1439 0 963-246 1442-245 480-736 480m0 500q785 0 1199-621 414-620 414-1801 0-1178-414-1799Q2819-91 2034-91q-784 0-1198 620-414 621-414 1799 0 1181 414 1801 414 621 1198 621" transform="scale(.01563)"/></defs><use xlink:href="#Y"/></g><use xlink:href="#X" x="65.1" y="253.671" class="B C"/><g transform="matrix(.16 0 0 -.16 17.38 259.75)"><defs><path id="Z" d="M1228 531h2203V0H469v531q359 372 979 998 621 627 780 809 303 340 423 576 121 236 121 464 0 372-261 606-261 235-680 235-297 0-627-103-329-103-704-313v638q381 153 712 231 332 78 607 78 725 0 1156-363 431-362 431-968 0-288-108-546-107-257-392-607-78-91-497-524-418-433-1181-1211" transform="scale(.01563)"/></defs><use xlink:href="#Z"/><use xlink:href="#Y" x="63.623"/><use xlink:href="#Y" x="127.246"/><use xlink:href="#Y" x="190.869"/></g><use xlink:href="#X" x="65.1" y="209.27" class="B C"/><g transform="matrix(.16 0 0 -.16 17.38 215.349)"><defs><path id="a" d="M2419 4116 825 1625h1594zm-166 550h794V1625h666v-525h-666V0h-628v1100H313v609z" transform="scale(.01563)"/></defs><use xlink:href="#a"/><use xlink:href="#Y" x="63.623"/><use xlink:href="#Y" x="127.246"/><use xlink:href="#Y" x="190.869"/></g><use xlink:href="#X" x="65.1" y="164.869" class="B C"/><g transform="matrix(.16 0 0 -.16 17.38 170.948)"><defs><path id="b" d="M2113 2584q-425 0-674-291-248-290-248-796 0-503 248-796 249-292 674-292t673 292q248 293 248 796 0 506-248 796-248 291-673 291m1253 1979v-575q-238 112-480 171-242 60-480 60-625 0-955-422-329-422-376-1275 184 272 462 417 279 145 613 145 703 0 1111-427 408-426 408-1160 0-719-425-1154Q2819-91 2113-91q-810 0-1238 620-428 621-428 1799 0 1106 525 1764t1409 658q238 0 480-47t505-140" transform="scale(.01563)"/></defs><use xlink:href="#b"/><use xlink:href="#Y" x="63.623"/><use xlink:href="#Y" x="127.246"/><use xlink:href="#Y" x="190.869"/></g><use xlink:href="#X" x="65.1" y="120.468" class="B C"/><g transform="matrix(.16 0 0 -.16 17.38 126.546)"><defs><path id="c" d="M2034 2216q-450 0-708-241-257-241-257-662 0-422 257-663 258-241 708-241t709 242q260 243 260 662 0 421-258 662-257 241-711 241m-631 268q-406 100-633 378-226 279-226 679 0 559 398 884 399 325 1092 325 697 0 1094-325t397-884q0-400-227-679-226-278-629-378 456-106 710-416 255-309 255-755 0-679-414-1042Q2806-91 2034-91q-771 0-1186 362-414 363-414 1042 0 446 256 755 257 310 713 416m-231 997q0-362 226-565 227-203 636-203 407 0 636 203 230 203 230 565 0 363-230 566-229 203-636 203-409 0-636-203-226-203-226-566" transform="scale(.01563)"/></defs><use xlink:href="#c"/><use xlink:href="#Y" x="63.623"/><use xlink:href="#Y" x="127.246"/><use xlink:href="#Y" x="190.869"/></g><use xlink:href="#X" x="65.1" y="76.067" class="B C"/><g transform="matrix(.16 0 0 -.16 7.2 82.145)"><defs><path id="d" d="M794 531h1031v3560L703 3866v575l1116 225h631V531h1031V0H794z" transform="scale(.01563)"/></defs><use xlink:href="#d"/><use xlink:href="#Y" x="63.623"/><use xlink:href="#Y" x="127.246"/><use xlink:href="#Y" x="190.869"/><use xlink:href="#Y" x="254.492"/></g><use xlink:href="#X" x="65.1" y="31.665" class="B C"/><g transform="matrix(.16 0 0 -.16 7.2 37.744)"><use xlink:href="#d"/><use xlink:href="#Z" x="63.623"/><use xlink:href="#Y" x="127.246"/><use xlink:href="#Y" x="190.869"/><use xlink:href="#Y" x="254.492"/></g><path fill="none" stroke-linecap="square" d="M65.1 298.072V27.789M462 298.072V27.789M65.1 298.072H462M65.1 27.789H462" class="B C"/><g transform="matrix(.12 0 0 -.12 67.431 72.836)"><defs><path id="e" d="M2597 2516q453-97 707-404 255-306 255-756 0-690-475-1069Q2609-91 1734-91q-293 0-604 58T488 141v609q262-153 574-231 313-78 654-78 593 0 904 234t311 681q0 413-289 645-289 233-804 233h-544v519h569q465 0 712 186t247 536q0 359-255 551-254 193-729 193-260 0-557-57-297-56-653-174v562q360 100 674 150t592 50q719 0 1137-327 419-326 419-882 0-388-222-655t-631-370" transform="scale(.01563)"/><path id="f" d="M525 4666h3000v-269L1831 0h-659l1594 4134H525z" transform="scale(.01563)"/><path id="g" d="M4653 2053q-272 0-427-231-154-231-154-644 0-406 154-639 155-233 427-233 266 0 420 233 155 233 155 639 0 410-155 642-154 233-420 233m0 397q494 0 784-344 291-343 291-928 0-584-292-927-292-342-783-342-500 0-791 342-290 343-290 927 0 588 292 930t789 342M1428 4353q-269 0-424-233-154-232-154-639 0-412 153-644 153-231 425-231t426 231q155 232 155 644 0 403-156 637-156 235-425 235m2822 397h500L1831-91h-500zm-2822 0q494 0 787-342 294-342 294-927 0-590-292-931t-789-341-786 342q-289 343-289 930 0 582 290 925 291 344 785 344" transform="scale(.01563)"/></defs><use xlink:href="#e"/><use xlink:href="#f" x="63.623"/><use xlink:href="#g" x="127.246"/></g><g transform="matrix(.12 0 0 -.12 93.543 213.661)"><use xlink:href="#d"/><use xlink:href="#e" x="63.623"/><use xlink:href="#g" x="127.246"/></g><g transform="matrix(.12 0 0 -.12 119.655 224.805)"><use xlink:href="#d"/><use xlink:href="#Z" x="63.623"/><use xlink:href="#g" x="127.246"/></g><g transform="matrix(.12 0 0 -.12 149.584 267.702)"><use xlink:href="#a"/><use xlink:href="#g" x="63.623"/></g><g transform="matrix(.12 0 0 -.12 175.696 270.248)"><use xlink:href="#a"/><use xlink:href="#g" x="63.623"/></g><g transform="matrix(.12 0 0 -.12 201.808 272.15)"><use xlink:href="#a"/><use xlink:href="#g" x="63.623"/></g><g transform="matrix(.12 0 0 -.12 227.92 273.563)"><use xlink:href="#e"/><use xlink:href="#g" x="63.623"/></g><g transform="matrix(.12 0 0 -.12 254.031 275.811)"><use xlink:href="#e"/><use xlink:href="#g" x="63.623"/></g><g transform="matrix(.12 0 0 -.12 280.143 276.224)"><use xlink:href="#e"/><use xlink:href="#g" x="63.623"/></g><g transform="matrix(.12 0 0 -.12 306.255 276.546)"><use xlink:href="#e"/><use xlink:href="#g" x="63.623"/></g><g transform="matrix(.12 0 0 -.12 332.367 276.83)"><use xlink:href="#e"/><use xlink:href="#g" x="63.623"/></g><g transform="matrix(.12 0 0 -.12 358.479 276.918)"><use xlink:href="#e"/><use xlink:href="#g" x="63.623"/></g><g transform="matrix(.12 0 0 -.12 384.59 277.092)"><use xlink:href="#e"/><use xlink:href="#g" x="63.623"/></g><g transform="matrix(.12 0 0 -.12 410.702 278.425)"><use xlink:href="#e"/><use xlink:href="#g" x="63.623"/></g><g transform="matrix(.12 0 0 -.12 436.814 278.671)"><use xlink:href="#e"/><use xlink:href="#g" x="63.623"/></g><g transform="matrix(.192 0 0 -.192 192.244 21.789)"><defs><path id="h" d="M628 4666h2950v-532H1259V2753h2222v-531H1259V531h2375V0H628z" transform="scale(.01563)"/><path id="i" d="M1172 4494v-994h1184v-447H1172V1153q0-428 117-550t477-122h590V0h-590q-666 0-919 248-253 249-253 905v1900H172v447h422v994z" transform="scale(.01563)"/></defs><use xlink:href="#h"/><use xlink:href="#Q" x="63.184"/><use xlink:href="#D" x="90.967"/><use xlink:href="#U" x="152.49"/><use xlink:href="#D" x="249.902"/><use xlink:href="#N" x="311.426"/><use xlink:href="#i" x="374.805"/><use xlink:href="#Bn" x="414.014"/><use xlink:href="#I" x="445.801"/><use xlink:href="#W" x="515.625"/><use xlink:href="#J" x="576.807"/><use xlink:href="#N" x="640.186"/><use xlink:href="#i" x="703.564"/></g><defs><clipPath id="j"><path d="M65.1 27.789H462v270.283H65.1z"/></clipPath></defs></svg>
