<svg xmlns="http://www.w3.org/2000/svg" width="1050" height="400" class="main-svg"><path d="M0 0h1050v400H0z" style="fill:#fff;fill-opacity:1"/><defs><clipPath id="a" class="plotclip"><path d="M0 0h300.6v132.125H0z"/></clipPath><clipPath id="b" class="plotclip"><path d="M0 0h300.6v132.125H0z"/></clipPath><clipPath id="c" class="plotclip"><path d="M0 0h300.6v132.125H0z"/></clipPath><clipPath id="d" class="plotclip"><path d="M0 0h300.6v132.125H0z"/></clipPath><clipPath id="e" class="plotclip"><path d="M0 0h300.6v132.125H0z"/></clipPath><clipPath id="f" class="plotclip"><path d="M0 0h300.6v132.125H0z"/></clipPath></defs><g class="cartesianlayer"><g class="subplot xy"><g class="gridlayer"><g class="x"><path d="M0 50v132.125" class="xgrid crisp" style="stroke:#d3d3d3;stroke-opacity:1;stroke-width:1px" transform="translate(97.69)"/><path d="M0 50v132.125" class="xgrid crisp" style="stroke:#d3d3d3;stroke-opacity:1;stroke-width:1px" transform="translate(158.42)"/><path d="M0 50v132.125" class="xgrid crisp" style="stroke:#d3d3d3;stroke-opacity:1;stroke-width:1px" transform="translate(219.15)"/><path d="M0 50v132.125" class="xgrid crisp" style="stroke:#d3d3d3;stroke-opacity:1;stroke-width:1px" transform="translate(279.87)"/></g><g class="y"><path d="M40 0h300.6" class="ygrid crisp" style="stroke:#d3d3d3;stroke-opacity:1;stroke-width:1px" transform="translate(0 112.15)"/></g></g><g class="zerolinelayer"><path d="M40 0h300.6" class="yzl zl crisp" style="stroke:#ebf0f8;stroke-opacity:1;stroke-width:2px" transform="translate(0 175.52)"/></g><g class="overplot"><g class="xy" clip-path="url(#a)" transform="translate(40 50)"><g class="scatterlayer mlayer"><g class="trace scatter trace681aab" style="stroke-miterlimit:2;opacity:1"><g class="lines"><path d="M0 125.52h115.38l3.04-118.91 3.03 118.91h42.51L167 64.85l3.04 60.67h33.4l3.03-13.32 3.04 13.32h91.09" class="js-line" style="vector-effect:none;fill:none;stroke:#4169e1;stroke-opacity:1;stroke-width:2px;opacity:1"/></g></g></g></g></g><path d="M39 182.625h302.6M39 49.5h302.6" class="xlines-above crisp" style="fill:none;stroke-width:1px;stroke:#000;stroke-opacity:1"/><path d="M39.5 50v132.125M341.1 50v132.125" class="ylines-above crisp" style="fill:none;stroke-width:1px;stroke:#000;stroke-opacity:1"/><g class="xaxislayer-above"><path d="M0 183.125v5" class="xtick ticks crisp" style="stroke:#444;stroke-opacity:1;stroke-width:1px" transform="translate(97.69)"/><path d="M0 183.125v5" class="xtick ticks crisp" style="stroke:#444;stroke-opacity:1;stroke-width:1px" transform="translate(158.42)"/><path d="M0 183.125v5" class="xtick ticks crisp" style="stroke:#444;stroke-opacity:1;stroke-width:1px" transform="translate(219.15)"/><path d="M0 183.125v5" class="xtick ticks crisp" style="stroke:#444;stroke-opacity:1;stroke-width:1px" transform="translate(279.87)"/><path d="M0 183.125v5" class="xtick ticks crisp" style="stroke:#444;stroke-opacity:1;stroke-width:1px" transform="translate(340.6)"/><text y="202.525" class="xtick" style="font-family:&quot;Open Sans&quot;,verdana,arial,sans-serif;font-size:12px;fill:#000;fill-opacity:1;white-space:pre;opacity:1" text-anchor="middle" transform="translate(97.69)">2</text><text y="202.525" class="xtick" style="font-family:&quot;Open Sans&quot;,verdana,arial,sans-serif;font-size:12px;fill:#000;fill-opacity:1;white-space:pre;opacity:1" text-anchor="middle" transform="translate(158.42)">4</text><text y="202.525" class="xtick" style="font-family:&quot;Open Sans&quot;,verdana,arial,sans-serif;font-size:12px;fill:#000;fill-opacity:1;white-space:pre;opacity:1" text-anchor="middle" transform="translate(219.15)">6</text><text y="202.525" class="xtick" style="font-family:&quot;Open Sans&quot;,verdana,arial,sans-serif;font-size:12px;fill:#000;fill-opacity:1;white-space:pre;opacity:1" text-anchor="middle" transform="translate(279.87)">8</text><text y="202.525" class="xtick" style="font-family:&quot;Open Sans&quot;,verdana,arial,sans-serif;font-size:12px;fill:#000;fill-opacity:1;white-space:pre;opacity:1" text-anchor="middle" transform="translate(340.6)">10</text></g><g class="yaxislayer-above"><path d="M39 0h-5" class="ytick ticks crisp" style="stroke:#444;stroke-opacity:1;stroke-width:1px" transform="translate(0 175.52)"/><path d="M39 0h-5" class="ytick ticks crisp" style="stroke:#444;stroke-opacity:1;stroke-width:1px" transform="translate(0 112.15)"/><text x="31.6" y="4.2" class="ytick" style="font-family:&quot;Open Sans&quot;,verdana,arial,sans-serif;font-size:12px;fill:#000;fill-opacity:1;white-space:pre;opacity:1" text-anchor="end" transform="translate(0 175.52)">0</text><text x="31.6" y="4.2" class="ytick" style="font-family:&quot;Open Sans&quot;,verdana,arial,sans-serif;font-size:12px;fill:#000;fill-opacity:1;white-space:pre;opacity:1" text-anchor="end" transform="translate(0 112.15)">5</text></g></g><g class="subplot x2y2"><g class="gridlayer"><g class="x2"><path d="M0 50v132.125" class="x2grid crisp" style="stroke:#d3d3d3;stroke-opacity:1;stroke-width:1px" transform="translate(448.39)"/><path d="M0 50v132.125" class="x2grid crisp" style="stroke:#d3d3d3;stroke-opacity:1;stroke-width:1px" transform="translate(509.12)"/><path d="M0 50v132.125" class="x2grid crisp" style="stroke:#d3d3d3;stroke-opacity:1;stroke-width:1px" transform="translate(569.85)"/><path d="M0 50v132.125" class="x2grid crisp" style="stroke:#d3d3d3;stroke-opacity:1;stroke-width:1px" transform="translate(630.57)"/></g><g class="y2"><path d="M390.7 0h300.6" class="y2grid crisp" style="stroke:#d3d3d3;stroke-opacity:1;stroke-width:1px" transform="translate(0 141.18)"/><path d="M390.7 0h300.6" class="y2grid crisp" style="stroke:#d3d3d3;stroke-opacity:1;stroke-width:1px" transform="translate(0 106.84)"/><path d="M390.7 0h300.6" class="y2grid crisp" style="stroke:#d3d3d3;stroke-opacity:1;stroke-width:1px" transform="translate(0 72.5)"/></g></g><g class="zerolinelayer"><path d="M390.7 0h300.6" class="y2zl zl crisp" style="stroke:#ebf0f8;stroke-opacity:1;stroke-width:2px" transform="translate(0 175.52)"/></g><g class="overplot"><g class="x2y2" clip-path="url(#b)" transform="translate(390.7 50)"><g class="scatterlayer mlayer"><g class="trace scatter trace940f1d" style="stroke-miterlimit:2;opacity:1"><g class="lines"><path d="M0 125.52h97.16L100.2 6.61l3.04 34.75 3.03 84.16 3.04-25.1 3.04 25.1H300.6" class="js-line" style="vector-effect:none;fill:none;stroke:#4169e1;stroke-opacity:1;stroke-width:2px;opacity:1"/></g></g></g></g></g><path d="M389.7 182.625h302.6M389.7 49.5h302.6" class="xlines-above crisp" style="fill:none;stroke-width:1px;stroke:#000;stroke-opacity:1"/><path d="M390.2 50v132.125M691.8 50v132.125" class="ylines-above crisp" style="fill:none;stroke-width:1px;stroke:#000;stroke-opacity:1"/><g class="xaxislayer-above"><path d="M0 183.125v5" class="x2tick ticks crisp" style="stroke:#444;stroke-opacity:1;stroke-width:1px" transform="translate(448.39)"/><path d="M0 183.125v5" class="x2tick ticks crisp" style="stroke:#444;stroke-opacity:1;stroke-width:1px" transform="translate(509.12)"/><path d="M0 183.125v5" class="x2tick ticks crisp" style="stroke:#444;stroke-opacity:1;stroke-width:1px" transform="translate(569.85)"/><path d="M0 183.125v5" class="x2tick ticks crisp" style="stroke:#444;stroke-opacity:1;stroke-width:1px" transform="translate(630.57)"/><path d="M0 183.125v5" class="x2tick ticks crisp" style="stroke:#444;stroke-opacity:1;stroke-width:1px" transform="translate(691.3)"/><text y="202.525" class="x2tick" style="font-family:&quot;Open Sans&quot;,verdana,arial,sans-serif;font-size:12px;fill:#000;fill-opacity:1;white-space:pre;opacity:1" text-anchor="middle" transform="translate(448.39)">2</text><text y="202.525" class="x2tick" style="font-family:&quot;Open Sans&quot;,verdana,arial,sans-serif;font-size:12px;fill:#000;fill-opacity:1;white-space:pre;opacity:1" text-anchor="middle" transform="translate(509.12)">4</text><text y="202.525" class="x2tick" style="font-family:&quot;Open Sans&quot;,verdana,arial,sans-serif;font-size:12px;fill:#000;fill-opacity:1;white-space:pre;opacity:1" text-anchor="middle" transform="translate(569.85)">6</text><text y="202.525" class="x2tick" style="font-family:&quot;Open Sans&quot;,verdana,arial,sans-serif;font-size:12px;fill:#000;fill-opacity:1;white-space:pre;opacity:1" text-anchor="middle" transform="translate(630.57)">8</text><text y="202.525" class="x2tick" style="font-family:&quot;Open Sans&quot;,verdana,arial,sans-serif;font-size:12px;fill:#000;fill-opacity:1;white-space:pre;opacity:1" text-anchor="middle" transform="translate(691.3)">10</text></g><g class="yaxislayer-above"><path d="M389.7 0h-5" class="y2tick ticks crisp" style="stroke:#444;stroke-opacity:1;stroke-width:1px" transform="translate(0 175.52)"/><path d="M389.7 0h-5" class="y2tick ticks crisp" style="stroke:#444;stroke-opacity:1;stroke-width:1px" transform="translate(0 141.18)"/><path d="M389.7 0h-5" class="y2tick ticks crisp" style="stroke:#444;stroke-opacity:1;stroke-width:1px" transform="translate(0 106.84)"/><path d="M389.7 0h-5" class="y2tick ticks crisp" style="stroke:#444;stroke-opacity:1;stroke-width:1px" transform="translate(0 72.5)"/><text x="382.3" y="4.2" class="y2tick" style="font-family:&quot;Open Sans&quot;,verdana,arial,sans-serif;font-size:12px;fill:#000;fill-opacity:1;white-space:pre;opacity:1" text-anchor="end" transform="translate(0 175.52)">0</text><text x="382.3" y="4.2" class="y2tick" style="font-family:&quot;Open Sans&quot;,verdana,arial,sans-serif;font-size:12px;fill:#000;fill-opacity:1;white-space:pre;opacity:1" text-anchor="end" transform="translate(0 141.18)">5</text><text x="382.3" y="4.2" class="y2tick" style="font-family:&quot;Open Sans&quot;,verdana,arial,sans-serif;font-size:12px;fill:#000;fill-opacity:1;white-space:pre;opacity:1" text-anchor="end" transform="translate(0 106.84)">10</text><text x="382.3" y="4.2" class="y2tick" style="font-family:&quot;Open Sans&quot;,verdana,arial,sans-serif;font-size:12px;fill:#000;fill-opacity:1;white-space:pre;opacity:1" text-anchor="end" transform="translate(0 72.5)">15</text></g></g><g class="subplot x3y3"><g class="gridlayer"><g class="x3"><path d="M0 50v132.125" class="x3grid crisp" style="stroke:#d3d3d3;stroke-opacity:1;stroke-width:1px" transform="translate(799.09)"/><path d="M0 50v132.125" class="x3grid crisp" style="stroke:#d3d3d3;stroke-opacity:1;stroke-width:1px" transform="translate(859.82)"/><path d="M0 50v132.125" class="x3grid crisp" style="stroke:#d3d3d3;stroke-opacity:1;stroke-width:1px" transform="translate(920.55)"/><path d="M0 50v132.125" class="x3grid crisp" style="stroke:#d3d3d3;stroke-opacity:1;stroke-width:1px" transform="translate(981.27)"/></g><g class="y3"><path d="M741.4 0H1042" class="y3grid crisp" style="stroke:#d3d3d3;stroke-opacity:1;stroke-width:1px" transform="translate(0 114.68)"/><path d="M741.4 0H1042" class="y3grid crisp" style="stroke:#d3d3d3;stroke-opacity:1;stroke-width:1px" transform="translate(0 53.84)"/></g></g><g class="zerolinelayer"><path d="M741.4 0H1042" class="y3zl zl crisp" style="stroke:#ebf0f8;stroke-opacity:1;stroke-width:2px" transform="translate(0 175.52)"/></g><g class="overplot"><g class="x3y3" clip-path="url(#c)" transform="translate(741.4 50)"><g class="scatterlayer mlayer"><g class="trace scatter trace3c9a50" style="stroke-miterlimit:2;opacity:1"><g class="lines"><path d="M0 125.52h69.84l3.03-97.41 3.04 7.34 3.04 90.07h12.14L94.13 6.61l3.03 118.91h33.4l3.04-30.07 3.04 30.07 3.03-27.56 3.04 27.56 3.04-25.36 3.03 1.01 3.04 24.35H300.6" class="js-line" style="vector-effect:none;fill:none;stroke:#4169e1;stroke-opacity:1;stroke-width:2px;opacity:1"/></g></g></g></g></g><path d="M740.4 182.625H1043M740.4 49.5H1043" class="xlines-above crisp" style="fill:none;stroke-width:1px;stroke:#000;stroke-opacity:1"/><path d="M740.9 50v132.125M1042.5 50v132.125" class="ylines-above crisp" style="fill:none;stroke-width:1px;stroke:#000;stroke-opacity:1"/><g class="xaxislayer-above"><path d="M0 183.125v5" class="x3tick ticks crisp" style="stroke:#444;stroke-opacity:1;stroke-width:1px" transform="translate(799.09)"/><path d="M0 183.125v5" class="x3tick ticks crisp" style="stroke:#444;stroke-opacity:1;stroke-width:1px" transform="translate(859.82)"/><path d="M0 183.125v5" class="x3tick ticks crisp" style="stroke:#444;stroke-opacity:1;stroke-width:1px" transform="translate(920.55)"/><path d="M0 183.125v5" class="x3tick ticks crisp" style="stroke:#444;stroke-opacity:1;stroke-width:1px" transform="translate(981.27)"/><path d="M0 183.125v5" class="x3tick ticks crisp" style="stroke:#444;stroke-opacity:1;stroke-width:1px" transform="translate(1042)"/><text y="202.525" class="x3tick" style="font-family:&quot;Open Sans&quot;,verdana,arial,sans-serif;font-size:12px;fill:#000;fill-opacity:1;white-space:pre;opacity:1" text-anchor="middle" transform="translate(799.09)">2</text><text y="202.525" class="x3tick" style="font-family:&quot;Open Sans&quot;,verdana,arial,sans-serif;font-size:12px;fill:#000;fill-opacity:1;white-space:pre;opacity:1" text-anchor="middle" transform="translate(859.82)">4</text><text y="202.525" class="x3tick" style="font-family:&quot;Open Sans&quot;,verdana,arial,sans-serif;font-size:12px;fill:#000;fill-opacity:1;white-space:pre;opacity:1" text-anchor="middle" transform="translate(920.55)">6</text><text y="202.525" class="x3tick" style="font-family:&quot;Open Sans&quot;,verdana,arial,sans-serif;font-size:12px;fill:#000;fill-opacity:1;white-space:pre;opacity:1" text-anchor="middle" transform="translate(981.27)">8</text><text y="202.525" class="x3tick" style="font-family:&quot;Open Sans&quot;,verdana,arial,sans-serif;font-size:12px;fill:#000;fill-opacity:1;white-space:pre;opacity:1" text-anchor="middle" transform="translate(1042)">10</text></g><g class="yaxislayer-above"><path d="M740.4 0h-5" class="y3tick ticks crisp" style="stroke:#444;stroke-opacity:1;stroke-width:1px" transform="translate(0 175.52)"/><path d="M740.4 0h-5" class="y3tick ticks crisp" style="stroke:#444;stroke-opacity:1;stroke-width:1px" transform="translate(0 114.68)"/><path d="M740.4 0h-5" class="y3tick ticks crisp" style="stroke:#444;stroke-opacity:1;stroke-width:1px" transform="translate(0 53.84)"/><text x="733" y="4.2" class="y3tick" style="font-family:&quot;Open Sans&quot;,verdana,arial,sans-serif;font-size:12px;fill:#000;fill-opacity:1;white-space:pre;opacity:1" text-anchor="end" transform="translate(0 175.52)">0</text><text x="733" y="4.2" class="y3tick" style="font-family:&quot;Open Sans&quot;,verdana,arial,sans-serif;font-size:12px;fill:#000;fill-opacity:1;white-space:pre;opacity:1" text-anchor="end" transform="translate(0 114.68)">5</text><text x="733" y="4.2" class="y3tick" style="font-family:&quot;Open Sans&quot;,verdana,arial,sans-serif;font-size:12px;fill:#000;fill-opacity:1;white-space:pre;opacity:1" text-anchor="end" transform="translate(0 53.84)">10</text></g></g><g class="subplot x4y4"><g class="gridlayer"><g class="x4"><path d="M0 219.875V352" class="x4grid crisp" style="stroke:#d3d3d3;stroke-opacity:1;stroke-width:1px" transform="translate(97.69)"/><path d="M0 219.875V352" class="x4grid crisp" style="stroke:#d3d3d3;stroke-opacity:1;stroke-width:1px" transform="translate(158.42)"/><path d="M0 219.875V352" class="x4grid crisp" style="stroke:#d3d3d3;stroke-opacity:1;stroke-width:1px" transform="translate(219.15)"/><path d="M0 219.875V352" class="x4grid crisp" style="stroke:#d3d3d3;stroke-opacity:1;stroke-width:1px" transform="translate(279.87)"/></g><g class="y4"><path d="M40 0h300.6" class="y4grid crisp" style="stroke:#d3d3d3;stroke-opacity:1;stroke-width:1px" transform="translate(0 282.025)"/></g></g><g class="zerolinelayer"><path d="M40 0h300.6" class="y4zl zl crisp" style="stroke:#ebf0f8;stroke-opacity:1;stroke-width:2px" transform="translate(0 345.395)"/></g><g class="overplot"><g class="x4y4" clip-path="url(#d)" transform="translate(40 219.875)"><g class="scatterlayer mlayer"><g class="trace scatter trace3f7494" style="stroke-miterlimit:2;opacity:1"><g class="lines"><path d="M0 125.52h115.38l3.04-118.91 3.03 118.91h42.51L167 64.85l3.04 60.67h33.4l3.03-13.32 3.04 13.32h91.09" class="js-line" style="vector-effect:none;fill:none;stroke:#4169e1;stroke-opacity:1;stroke-width:2px;opacity:1"/></g></g></g></g></g><path d="M39 352.5h302.6M39 219.375h302.6" class="xlines-above crisp" style="fill:none;stroke-width:1px;stroke:#000;stroke-opacity:1"/><path d="M39.5 219.875V352m301.6-132.125V352" class="ylines-above crisp" style="fill:none;stroke-width:1px;stroke:#000;stroke-opacity:1"/><g class="xaxislayer-above"><path d="M0 353v5" class="x4tick ticks crisp" style="stroke:#444;stroke-opacity:1;stroke-width:1px" transform="translate(97.69)"/><path d="M0 353v5" class="x4tick ticks crisp" style="stroke:#444;stroke-opacity:1;stroke-width:1px" transform="translate(158.42)"/><path d="M0 353v5" class="x4tick ticks crisp" style="stroke:#444;stroke-opacity:1;stroke-width:1px" transform="translate(219.15)"/><path d="M0 353v5" class="x4tick ticks crisp" style="stroke:#444;stroke-opacity:1;stroke-width:1px" transform="translate(279.87)"/><path d="M0 353v5" class="x4tick ticks crisp" style="stroke:#444;stroke-opacity:1;stroke-width:1px" transform="translate(340.6)"/><text y="372.4" class="x4tick" style="font-family:&quot;Open Sans&quot;,verdana,arial,sans-serif;font-size:12px;fill:#000;fill-opacity:1;white-space:pre;opacity:1" text-anchor="middle" transform="translate(97.69)">2</text><text y="372.4" class="x4tick" style="font-family:&quot;Open Sans&quot;,verdana,arial,sans-serif;font-size:12px;fill:#000;fill-opacity:1;white-space:pre;opacity:1" text-anchor="middle" transform="translate(158.42)">4</text><text y="372.4" class="x4tick" style="font-family:&quot;Open Sans&quot;,verdana,arial,sans-serif;font-size:12px;fill:#000;fill-opacity:1;white-space:pre;opacity:1" text-anchor="middle" transform="translate(219.15)">6</text><text y="372.4" class="x4tick" style="font-family:&quot;Open Sans&quot;,verdana,arial,sans-serif;font-size:12px;fill:#000;fill-opacity:1;white-space:pre;opacity:1" text-anchor="middle" transform="translate(279.87)">8</text><text y="372.4" class="x4tick" style="font-family:&quot;Open Sans&quot;,verdana,arial,sans-serif;font-size:12px;fill:#000;fill-opacity:1;white-space:pre;opacity:1" text-anchor="middle" transform="translate(340.6)">10</text></g><g class="yaxislayer-above"><path d="M39 0h-5" class="y4tick ticks crisp" style="stroke:#444;stroke-opacity:1;stroke-width:1px" transform="translate(0 345.395)"/><path d="M39 0h-5" class="y4tick ticks crisp" style="stroke:#444;stroke-opacity:1;stroke-width:1px" transform="translate(0 282.025)"/><text x="31.6" y="4.2" class="y4tick" style="font-family:&quot;Open Sans&quot;,verdana,arial,sans-serif;font-size:12px;fill:#000;fill-opacity:1;white-space:pre;opacity:1" text-anchor="end" transform="translate(0 345.395)">0</text><text x="31.6" y="4.2" class="y4tick" style="font-family:&quot;Open Sans&quot;,verdana,arial,sans-serif;font-size:12px;fill:#000;fill-opacity:1;white-space:pre;opacity:1" text-anchor="end" transform="translate(0 282.025)">5</text></g></g><g class="subplot x5y5"><g class="gridlayer"><g class="x5"><path d="M0 219.875V352" class="x5grid crisp" style="stroke:#d3d3d3;stroke-opacity:1;stroke-width:1px" transform="translate(448.39)"/><path d="M0 219.875V352" class="x5grid crisp" style="stroke:#d3d3d3;stroke-opacity:1;stroke-width:1px" transform="translate(509.12)"/><path d="M0 219.875V352" class="x5grid crisp" style="stroke:#d3d3d3;stroke-opacity:1;stroke-width:1px" transform="translate(569.85)"/><path d="M0 219.875V352" class="x5grid crisp" style="stroke:#d3d3d3;stroke-opacity:1;stroke-width:1px" transform="translate(630.57)"/></g><g class="y5"><path d="M390.7 0h300.6" class="y5grid crisp" style="stroke:#d3d3d3;stroke-opacity:1;stroke-width:1px" transform="translate(0 297.865)"/><path d="M390.7 0h300.6" class="y5grid crisp" style="stroke:#d3d3d3;stroke-opacity:1;stroke-width:1px" transform="translate(0 250.335)"/></g></g><g class="zerolinelayer"><path d="M390.7 0h300.6" class="y5zl zl crisp" style="stroke:#ebf0f8;stroke-opacity:1;stroke-width:2px" transform="translate(0 345.395)"/></g><g class="overplot"><g class="x5y5" clip-path="url(#e)" transform="translate(390.7 219.875)"><g class="scatterlayer mlayer"><g class="trace scatter traceb65973" style="stroke-miterlimit:2;opacity:1"><g class="lines"><path d="M0 125.52h54.65L57.69 6.61l3.04 118.91 3.03-98.28 3.04 98.28h51.62l3.03-28.3 6.08 2.57 3.03 25.73 3.04-23.49 3.04 23.49h27.32l3.04-15.17 3.04.53 3.03 14.64H300.6" class="js-line" style="vector-effect:none;fill:none;stroke:#4169e1;stroke-opacity:1;stroke-width:2px;opacity:1"/></g></g></g></g></g><path d="M389.7 352.5h302.6M389.7 219.375h302.6" class="xlines-above crisp" style="fill:none;stroke-width:1px;stroke:#000;stroke-opacity:1"/><path d="M390.2 219.875V352m301.6-132.125V352" class="ylines-above crisp" style="fill:none;stroke-width:1px;stroke:#000;stroke-opacity:1"/><g class="xaxislayer-above"><path d="M0 353v5" class="x5tick ticks crisp" style="stroke:#444;stroke-opacity:1;stroke-width:1px" transform="translate(448.39)"/><path d="M0 353v5" class="x5tick ticks crisp" style="stroke:#444;stroke-opacity:1;stroke-width:1px" transform="translate(509.12)"/><path d="M0 353v5" class="x5tick ticks crisp" style="stroke:#444;stroke-opacity:1;stroke-width:1px" transform="translate(569.85)"/><path d="M0 353v5" class="x5tick ticks crisp" style="stroke:#444;stroke-opacity:1;stroke-width:1px" transform="translate(630.57)"/><path d="M0 353v5" class="x5tick ticks crisp" style="stroke:#444;stroke-opacity:1;stroke-width:1px" transform="translate(691.3)"/><text y="372.4" class="x5tick" style="font-family:&quot;Open Sans&quot;,verdana,arial,sans-serif;font-size:12px;fill:#000;fill-opacity:1;white-space:pre;opacity:1" text-anchor="middle" transform="translate(448.39)">2</text><text y="372.4" class="x5tick" style="font-family:&quot;Open Sans&quot;,verdana,arial,sans-serif;font-size:12px;fill:#000;fill-opacity:1;white-space:pre;opacity:1" text-anchor="middle" transform="translate(509.12)">4</text><text y="372.4" class="x5tick" style="font-family:&quot;Open Sans&quot;,verdana,arial,sans-serif;font-size:12px;fill:#000;fill-opacity:1;white-space:pre;opacity:1" text-anchor="middle" transform="translate(569.85)">6</text><text y="372.4" class="x5tick" style="font-family:&quot;Open Sans&quot;,verdana,arial,sans-serif;font-size:12px;fill:#000;fill-opacity:1;white-space:pre;opacity:1" text-anchor="middle" transform="translate(630.57)">8</text><text y="372.4" class="x5tick" style="font-family:&quot;Open Sans&quot;,verdana,arial,sans-serif;font-size:12px;fill:#000;fill-opacity:1;white-space:pre;opacity:1" text-anchor="middle" transform="translate(691.3)">10</text></g><g class="yaxislayer-above"><path d="M389.7 0h-5" class="y5tick ticks crisp" style="stroke:#444;stroke-opacity:1;stroke-width:1px" transform="translate(0 345.395)"/><path d="M389.7 0h-5" class="y5tick ticks crisp" style="stroke:#444;stroke-opacity:1;stroke-width:1px" transform="translate(0 297.865)"/><path d="M389.7 0h-5" class="y5tick ticks crisp" style="stroke:#444;stroke-opacity:1;stroke-width:1px" transform="translate(0 250.335)"/><text x="382.3" y="4.2" class="y5tick" style="font-family:&quot;Open Sans&quot;,verdana,arial,sans-serif;font-size:12px;fill:#000;fill-opacity:1;white-space:pre;opacity:1" text-anchor="end" transform="translate(0 345.395)">0</text><text x="382.3" y="4.2" class="y5tick" style="font-family:&quot;Open Sans&quot;,verdana,arial,sans-serif;font-size:12px;fill:#000;fill-opacity:1;white-space:pre;opacity:1" text-anchor="end" transform="translate(0 297.865)">5</text><text x="382.3" y="4.2" class="y5tick" style="font-family:&quot;Open Sans&quot;,verdana,arial,sans-serif;font-size:12px;fill:#000;fill-opacity:1;white-space:pre;opacity:1" text-anchor="end" transform="translate(0 250.335)">10</text></g></g><g class="subplot x6y6"><g class="gridlayer"><g class="x6"><path d="M0 219.875V352" class="x6grid crisp" style="stroke:#d3d3d3;stroke-opacity:1;stroke-width:1px" transform="translate(799.09)"/><path d="M0 219.875V352" class="x6grid crisp" style="stroke:#d3d3d3;stroke-opacity:1;stroke-width:1px" transform="translate(859.82)"/><path d="M0 219.875V352" class="x6grid crisp" style="stroke:#d3d3d3;stroke-opacity:1;stroke-width:1px" transform="translate(920.55)"/><path d="M0 219.875V352" class="x6grid crisp" style="stroke:#d3d3d3;stroke-opacity:1;stroke-width:1px" transform="translate(981.27)"/></g><g class="y6"><path d="M741.4 0H1042" class="y6grid crisp" style="stroke:#d3d3d3;stroke-opacity:1;stroke-width:1px" transform="translate(0 307.915)"/><path d="M741.4 0H1042" class="y6grid crisp" style="stroke:#d3d3d3;stroke-opacity:1;stroke-width:1px" transform="translate(0 270.445)"/><path d="M741.4 0H1042" class="y6grid crisp" style="stroke:#d3d3d3;stroke-opacity:1;stroke-width:1px" transform="translate(0 232.975)"/></g></g><g class="zerolinelayer"><path d="M741.4 0H1042" class="y6zl zl crisp" style="stroke:#ebf0f8;stroke-opacity:1;stroke-width:2px" transform="translate(0 345.395)"/></g><g class="overplot"><g class="x6y6" clip-path="url(#f)" transform="translate(741.4 219.875)"><g class="scatterlayer mlayer"><g class="trace scatter trace176b56" style="stroke-miterlimit:2;opacity:1"><g class="lines"><path d="M0 125.52h81.98L85.02 6.61l3.03 118.91h12.15l3.04-20.41 3.03 20.41h12.15l3.03-7.44 3.04-6.73 3.04 14.17h9.11l3.03-11.32 3.04.47 3.04 10.85h3.03l3.04-9.61 3.03 9.61h9.11l3.04-11.96 3.04 11.96h15.18l3.03-3.15 3.04 3.15H300.6" class="js-line" style="vector-effect:none;fill:none;stroke:#4169e1;stroke-opacity:1;stroke-width:2px;opacity:1"/></g></g></g></g></g><path d="M740.4 352.5H1043M740.4 219.375H1043" class="xlines-above crisp" style="fill:none;stroke-width:1px;stroke:#000;stroke-opacity:1"/><path d="M740.9 219.875V352m301.6-132.125V352" class="ylines-above crisp" style="fill:none;stroke-width:1px;stroke:#000;stroke-opacity:1"/><g class="xaxislayer-above"><path d="M0 353v5" class="x6tick ticks crisp" style="stroke:#444;stroke-opacity:1;stroke-width:1px" transform="translate(799.09)"/><path d="M0 353v5" class="x6tick ticks crisp" style="stroke:#444;stroke-opacity:1;stroke-width:1px" transform="translate(859.82)"/><path d="M0 353v5" class="x6tick ticks crisp" style="stroke:#444;stroke-opacity:1;stroke-width:1px" transform="translate(920.55)"/><path d="M0 353v5" class="x6tick ticks crisp" style="stroke:#444;stroke-opacity:1;stroke-width:1px" transform="translate(981.27)"/><path d="M0 353v5" class="x6tick ticks crisp" style="stroke:#444;stroke-opacity:1;stroke-width:1px" transform="translate(1042)"/><text y="372.4" class="x6tick" style="font-family:&quot;Open Sans&quot;,verdana,arial,sans-serif;font-size:12px;fill:#000;fill-opacity:1;white-space:pre;opacity:1" text-anchor="middle" transform="translate(799.09)">2</text><text y="372.4" class="x6tick" style="font-family:&quot;Open Sans&quot;,verdana,arial,sans-serif;font-size:12px;fill:#000;fill-opacity:1;white-space:pre;opacity:1" text-anchor="middle" transform="translate(859.82)">4</text><text y="372.4" class="x6tick" style="font-family:&quot;Open Sans&quot;,verdana,arial,sans-serif;font-size:12px;fill:#000;fill-opacity:1;white-space:pre;opacity:1" text-anchor="middle" transform="translate(920.55)">6</text><text y="372.4" class="x6tick" style="font-family:&quot;Open Sans&quot;,verdana,arial,sans-serif;font-size:12px;fill:#000;fill-opacity:1;white-space:pre;opacity:1" text-anchor="middle" transform="translate(981.27)">8</text><text y="372.4" class="x6tick" style="font-family:&quot;Open Sans&quot;,verdana,arial,sans-serif;font-size:12px;fill:#000;fill-opacity:1;white-space:pre;opacity:1" text-anchor="middle" transform="translate(1042)">10</text></g><g class="yaxislayer-above"><path d="M740.4 0h-5" class="y6tick ticks crisp" style="stroke:#444;stroke-opacity:1;stroke-width:1px" transform="translate(0 345.395)"/><path d="M740.4 0h-5" class="y6tick ticks crisp" style="stroke:#444;stroke-opacity:1;stroke-width:1px" transform="translate(0 307.915)"/><path d="M740.4 0h-5" class="y6tick ticks crisp" style="stroke:#444;stroke-opacity:1;stroke-width:1px" transform="translate(0 270.445)"/><path d="M740.4 0h-5" class="y6tick ticks crisp" style="stroke:#444;stroke-opacity:1;stroke-width:1px" transform="translate(0 232.975)"/><text x="733" y="4.2" class="y6tick" style="font-family:&quot;Open Sans&quot;,verdana,arial,sans-serif;font-size:12px;fill:#000;fill-opacity:1;white-space:pre;opacity:1" text-anchor="end" transform="translate(0 345.395)">0</text><text x="733" y="4.2" class="y6tick" style="font-family:&quot;Open Sans&quot;,verdana,arial,sans-serif;font-size:12px;fill:#000;fill-opacity:1;white-space:pre;opacity:1" text-anchor="end" transform="translate(0 307.915)">5</text><text x="733" y="4.2" class="y6tick" style="font-family:&quot;Open Sans&quot;,verdana,arial,sans-serif;font-size:12px;fill:#000;fill-opacity:1;white-space:pre;opacity:1" text-anchor="end" transform="translate(0 270.445)">10</text><text x="733" y="4.2" class="y6tick" style="font-family:&quot;Open Sans&quot;,verdana,arial,sans-serif;font-size:12px;fill:#000;fill-opacity:1;white-space:pre;opacity:1" text-anchor="end" transform="translate(0 232.975)">15</text></g></g></g><g class="infolayer"><g class="g-gtitle"><text x="525" y="8" class="gtitle" dy=".7em" style="opacity:1;font-family:&quot;Open Sans&quot;,verdana,arial,sans-serif;font-size:17px;fill:#000;fill-opacity:1;white-space:pre" text-anchor="middle">Pairwise RDFs - Na8 Nb8 O24</text></g><g class="g-x4title"><text x="190.3" y="399.206" class="x4title" style="opacity:1;font-family:&quot;Open Sans&quot;,verdana,arial,sans-serif;font-size:14px;fill:#000;fill-opacity:1;white-space:pre" text-anchor="middle" transform="translate(0 -2.206)">r (Å)</text></g><g class="g-x5title"><text x="541" y="399.206" class="x5title" style="opacity:1;font-family:&quot;Open Sans&quot;,verdana,arial,sans-serif;font-size:14px;fill:#000;fill-opacity:1;white-space:pre" text-anchor="middle" transform="translate(0 -2.206)">r (Å)</text></g><g class="g-x6title"><text x="891.7" y="399.206" class="x6title" style="opacity:1;font-family:&quot;Open Sans&quot;,verdana,arial,sans-serif;font-size:14px;fill:#000;fill-opacity:1;white-space:pre" text-anchor="middle" transform="translate(0 -2.206)">r (Å)</text></g><g class="g-ytitle"><text x="19.469" y="116.063" class="ytitle" style="opacity:1;font-family:&quot;Open Sans&quot;,verdana,arial,sans-serif;font-size:14px;fill:#000;fill-opacity:1;white-space:pre" text-anchor="middle" transform="rotate(-90 19.469 116.063)">g(r)</text></g><g class="g-y4title"><text x="19.469" y="285.938" class="y4title" style="opacity:1;font-family:&quot;Open Sans&quot;,verdana,arial,sans-serif;font-size:14px;fill:#000;fill-opacity:1;white-space:pre" text-anchor="middle" transform="rotate(-90 19.469 285.938)">g(r)</text></g><g class="annotation" data-index="0" style="opacity:1"><g class="annotation-text-g"><g class="cursor-pointer"><path fill="none" d="M.5.5h53v23H.5z" class="bg" style="stroke-width:1px;stroke:#000;stroke-opacity:0;fill:#000;fill-opacity:0" transform="translate(163 26)"/><text x="27.219" y="18" class="annotation-text" style="font-family:&quot;Open Sans&quot;,verdana,arial,sans-serif;font-size:16px;fill:#000;fill-opacity:1;white-space:pre" text-anchor="middle" transform="translate(163 26)">Na-Na</text></g></g></g><g class="annotation" data-index="1" style="opacity:1"><g class="annotation-text-g"><g class="cursor-pointer"><path fill="none" d="M.5.5h54v23H.5z" class="bg" style="stroke-width:1px;stroke:#000;stroke-opacity:0;fill:#000;fill-opacity:0" transform="translate(514 26)"/><text x="27.391" y="18" class="annotation-text" style="font-family:&quot;Open Sans&quot;,verdana,arial,sans-serif;font-size:16px;fill:#000;fill-opacity:1;white-space:pre" text-anchor="middle" transform="translate(514 26)">Na-Nb</text></g></g></g><g class="annotation" data-index="2" style="opacity:1"><g class="annotation-text-g"><g class="cursor-pointer"><path fill="none" d="M.5.5h44v23H.5z" class="bg" style="stroke-width:1px;stroke:#000;stroke-opacity:0;fill:#000;fill-opacity:0" transform="translate(869 26)"/><text x="22.719" y="18" class="annotation-text" style="font-family:&quot;Open Sans&quot;,verdana,arial,sans-serif;font-size:16px;fill:#000;fill-opacity:1;white-space:pre" text-anchor="middle" transform="translate(869 26)">Na-O</text></g></g></g><g class="annotation" data-index="3" style="opacity:1"><g class="annotation-text-g"><g class="cursor-pointer"><path fill="none" d="M.5.5h54v23H.5z" class="bg" style="stroke-width:1px;stroke:#000;stroke-opacity:0;fill:#000;fill-opacity:0" transform="translate(163 196)"/><text x="27.578" y="18" class="annotation-text" style="font-family:&quot;Open Sans&quot;,verdana,arial,sans-serif;font-size:16px;fill:#000;fill-opacity:1;white-space:pre" text-anchor="middle" transform="translate(163 196)">Nb-Nb</text></g></g></g><g class="annotation" data-index="4" style="opacity:1"><g class="annotation-text-g"><g class="cursor-pointer"><path fill="none" d="M.5.5h45v23H.5z" class="bg" style="stroke-width:1px;stroke:#000;stroke-opacity:0;fill:#000;fill-opacity:0" transform="translate(518 196)"/><text x="22.906" y="18" class="annotation-text" style="font-family:&quot;Open Sans&quot;,verdana,arial,sans-serif;font-size:16px;fill:#000;fill-opacity:1;white-space:pre" text-anchor="middle" transform="translate(518 196)">Nb-O</text></g></g></g><g class="annotation" data-index="5" style="opacity:1"><g class="annotation-text-g"><g class="cursor-pointer"><path fill="none" d="M.5.5h35v23H.5z" class="bg" style="stroke-width:1px;stroke:#000;stroke-opacity:0;fill:#000;fill-opacity:0" transform="translate(874 196)"/><text x="18.234" y="18" class="annotation-text" style="font-family:&quot;Open Sans&quot;,verdana,arial,sans-serif;font-size:16px;fill:#000;fill-opacity:1;white-space:pre" text-anchor="middle" transform="translate(874 196)">O-O</text></g></g></g></g></svg>
