<svg xmlns="http://www.w3.org/2000/svg" width="1350" height="600" class="main-svg"><path d="M0 0h1350v600H0z" style="fill:#fff;fill-opacity:1"/><defs><clipPath id="a" class="plotclip"><path d="M0 0h346.933v223.08H0z"/></clipPath><clipPath id="b" class="plotclip"><path d="M0 0h346.933v223.08H0z"/></clipPath><clipPath id="c" class="plotclip"><path d="M0 0h346.933v223.08H0z"/></clipPath><clipPath id="d" class="plotclip"><path d="M0 0h346.933v223.08H0z"/></clipPath><clipPath id="e" class="plotclip"><path d="M0 0h346.933v223.08H0z"/></clipPath><clipPath id="f" class="plotclip"><path d="M0 0h346.933v223.08H0z"/></clipPath></defs><g class="cartesianlayer"><g class="subplot xy"><g class="gridlayer"><g class="x"><path d="M0 70v223.08" class="xgrid crisp" style="stroke:#d3d3d3;stroke-opacity:1;stroke-width:1px" transform="translate(153.52)"/><path d="M0 70v223.08" class="xgrid crisp" style="stroke:#d3d3d3;stroke-opacity:1;stroke-width:1px" transform="translate(270.73)"/></g><g class="y"><path d="M41 0h346.933" class="ygrid crisp" style="stroke:#d3d3d3;stroke-opacity:1;stroke-width:1px" transform="translate(0 231.47)"/><path d="M41 0h346.933" class="ygrid crisp" style="stroke:#d3d3d3;stroke-opacity:1;stroke-width:1px" transform="translate(0 181.01)"/><path d="M41 0h346.933" class="ygrid crisp" style="stroke:#d3d3d3;stroke-opacity:1;stroke-width:1px" transform="translate(0 130.55)"/><path d="M41 0h346.933" class="ygrid crisp" style="stroke:#d3d3d3;stroke-opacity:1;stroke-width:1px" transform="translate(0 80.09)"/></g></g><g class="zerolinelayer"><path d="M41 0h346.933" class="yzl zl crisp" style="stroke:#ebf0f8;stroke-opacity:1;stroke-width:2px" transform="translate(0 281.93)"/></g><g class="overplot"><g class="xy" clip-path="url(#a)" transform="translate(41 70)"><g class="scatterlayer mlayer"><g class="trace scatter tracef1aeb4" style="stroke-miterlimit:2;opacity:1"><g class="lines"><path d="M0 211.93h346.93" class="js-line" style="vector-effect:none;fill:none;stroke:#636efa;stroke-opacity:1;stroke-width:2px;opacity:1"/></g></g><g class="trace scatter tracea09335" style="stroke-miterlimit:2;opacity:1"><g class="lines"><path d="M0 211.93h9.38l4.68-200.78 4.69 200.78h14.07l4.69-39.66 4.68-24.59 4.69-15.4 4.69 57.34 4.69-15.71 4.69-43.93 4.69 39.11 4.68 5.19 4.69-6.82 4.69 4.81 4.69-22.63 4.69 30.16 4.69-11.58 4.68-16.03 4.69 5.08 4.69 15.62 4.69-12.36 4.69 13.38 4.69 7.17 4.68-18.32 4.69-11.95 4.69 25.42 4.69-17.79 4.69 25.25 4.69-16.01 4.68 2.56 4.69-23.87 9.38 25.67 4.69-17.95 4.68 11.37 4.69 4.3 4.69-7.52 4.69.52 4.69-4.69 4.69 4.08 4.68.6 4.69-3.96 4.69-10.85 4.69 16.58 4.69 7.27 4.69-.98 4.68.36 4.69 2.74 4.69-3.15 4.69 7.02 4.69 4.41 4.69-10.21 4.68 3.36 4.69 12.71 4.69-1.96 4.69-3.61 4.69 9.59 4.69-6.89 4.68 7.32 4.69 1.39 4.69 2.07 4.69 3.43 4.69 4.66 4.69-10.19 4.68 1.2 4.69 9 4.69 2.77 4.69-.48 4.69 2.56 4.69-1.68 4.68.7" class="js-line" style="vector-effect:none;fill:none;stroke:#ef553b;stroke-opacity:1;stroke-dasharray:3px,3px;stroke-width:2px;opacity:1"/></g></g></g></g></g><path d="M40 293.58h348.933M40 69.5h348.933" class="xlines-above crisp" style="fill:none;stroke-width:1px;stroke:#000;stroke-opacity:1"/><path d="M40.5 70v223.08M388.433 70v223.08" class="ylines-above crisp" style="fill:none;stroke-width:1px;stroke:#000;stroke-opacity:1"/><g class="xaxislayer-above"><path d="M0 294.08v5" class="xtick ticks crisp" style="stroke:#444;stroke-opacity:1;stroke-width:1px" transform="translate(153.52)"/><path d="M0 294.08v5" class="xtick ticks crisp" style="stroke:#444;stroke-opacity:1;stroke-width:1px" transform="translate(270.73)"/><path d="M0 294.08v5" class="xtick ticks crisp" style="stroke:#444;stroke-opacity:1;stroke-width:1px" transform="translate(387.93)"/><text y="313.48" class="xtick" style="font-family:&quot;Open Sans&quot;,verdana,arial,sans-serif;font-size:12px;fill:#000;fill-opacity:1;white-space:pre;opacity:1" text-anchor="middle" transform="translate(153.52)">5</text><text y="313.48" class="xtick" style="font-family:&quot;Open Sans&quot;,verdana,arial,sans-serif;font-size:12px;fill:#000;fill-opacity:1;white-space:pre;opacity:1" text-anchor="middle" transform="translate(270.73)">10</text><text y="313.48" class="xtick" style="font-family:&quot;Open Sans&quot;,verdana,arial,sans-serif;font-size:12px;fill:#000;fill-opacity:1;white-space:pre;opacity:1" text-anchor="middle" transform="translate(387.93)">15</text></g><g class="yaxislayer-above"><path d="M40 0h-5" class="ytick ticks crisp" style="stroke:#444;stroke-opacity:1;stroke-width:1px" transform="translate(0 281.93)"/><path d="M40 0h-5" class="ytick ticks crisp" style="stroke:#444;stroke-opacity:1;stroke-width:1px" transform="translate(0 231.47)"/><path d="M40 0h-5" class="ytick ticks crisp" style="stroke:#444;stroke-opacity:1;stroke-width:1px" transform="translate(0 181.01)"/><path d="M40 0h-5" class="ytick ticks crisp" style="stroke:#444;stroke-opacity:1;stroke-width:1px" transform="translate(0 130.55)"/><path d="M40 0h-5" class="ytick ticks crisp" style="stroke:#444;stroke-opacity:1;stroke-width:1px" transform="translate(0 80.09)"/><text x="32.6" y="4.2" class="ytick" style="font-family:&quot;Open Sans&quot;,verdana,arial,sans-serif;font-size:12px;fill:#000;fill-opacity:1;white-space:pre;opacity:1" text-anchor="end" transform="translate(0 281.93)">0</text><text x="32.6" y="4.2" class="ytick" style="font-family:&quot;Open Sans&quot;,verdana,arial,sans-serif;font-size:12px;fill:#000;fill-opacity:1;white-space:pre;opacity:1" text-anchor="end" transform="translate(0 231.47)">1</text><text x="32.6" y="4.2" class="ytick" style="font-family:&quot;Open Sans&quot;,verdana,arial,sans-serif;font-size:12px;fill:#000;fill-opacity:1;white-space:pre;opacity:1" text-anchor="end" transform="translate(0 181.01)">2</text><text x="32.6" y="4.2" class="ytick" style="font-family:&quot;Open Sans&quot;,verdana,arial,sans-serif;font-size:12px;fill:#000;fill-opacity:1;white-space:pre;opacity:1" text-anchor="end" transform="translate(0 130.55)">3</text><text x="32.6" y="4.2" class="ytick" style="font-family:&quot;Open Sans&quot;,verdana,arial,sans-serif;font-size:12px;fill:#000;fill-opacity:1;white-space:pre;opacity:1" text-anchor="end" transform="translate(0 80.09)">4</text></g></g><g class="subplot x2y2"><g class="gridlayer"><g class="x2"><path d="M0 70v223.08" class="x2grid crisp" style="stroke:#d3d3d3;stroke-opacity:1;stroke-width:1px" transform="translate(630.553)"/><path d="M0 70v223.08" class="x2grid crisp" style="stroke:#d3d3d3;stroke-opacity:1;stroke-width:1px" transform="translate(747.763)"/></g><g class="y2"><path d="M518.033 0h346.934" class="y2grid crisp" style="stroke:#d3d3d3;stroke-opacity:1;stroke-width:1px" transform="translate(0 232.59)"/><path d="M518.033 0h346.934" class="y2grid crisp" style="stroke:#d3d3d3;stroke-opacity:1;stroke-width:1px" transform="translate(0 183.25)"/><path d="M518.033 0h346.934" class="y2grid crisp" style="stroke:#d3d3d3;stroke-opacity:1;stroke-width:1px" transform="translate(0 133.91)"/><path d="M518.033 0h346.934" class="y2grid crisp" style="stroke:#d3d3d3;stroke-opacity:1;stroke-width:1px" transform="translate(0 84.57)"/></g></g><g class="zerolinelayer"><path d="M518.033 0h346.934" class="y2zl zl crisp" style="stroke:#ebf0f8;stroke-opacity:1;stroke-width:2px" transform="translate(0 281.93)"/></g><g class="overplot"><g class="x2y2" clip-path="url(#b)" transform="translate(518.033 70)"><g class="scatterlayer mlayer"><g class="trace scatter tracea85bc1" style="stroke-miterlimit:2;opacity:1"><g class="lines"><path d="M0 211.93h75.01L79.7 11.15l4.69 20.58 4.69 180.2h257.85" class="js-line" style="vector-effect:none;fill:none;stroke:#636efa;stroke-opacity:1;stroke-width:2px;opacity:1"/></g></g><g class="trace scatter traceb5d195" style="stroke-miterlimit:2;opacity:1"><g class="lines"><path d="M0 211.93h4.69l4.69-87.26 4.68-10.9 4.69 35.33 4.69-2.61 4.69 49.41 4.69-131.21 4.69 1.81 4.68 74.75 4.69 5.78 4.69-44.17 4.69-2.45 4.69 39.4 4.69-4.67 4.68 3.17 4.69-18.77 4.69-2.14 4.69-35.99 4.69 53.95 4.69-30.27 4.68 22.47 4.69 11.63 4.69-7.7 4.69-11.28 4.69-4.7 4.69 14.55 4.68-3.27 4.69-14.77 4.69-3.92 4.69 9.85 4.69-6.48 4.69 4.55 4.68-6.67 4.69-3.2 4.69 19.13 4.69.6 9.37-23.41 4.69 3.93 4.69 3.22 4.69 1.25 4.69-8.52 4.69 3.3 4.68 6.61 4.69 8 4.69-7.16 4.69 2.71 4.69-1.02 4.69-4.32 4.68 4.54 4.69 8.34 4.69 7.23 4.69 2.44 4.69 17.12 4.69.44 4.68 2.37 4.69 4.82 4.69-10.59 4.69 16.1 4.69 1.16 4.69 10.51 4.68-1.8 4.69 7.53 4.69 2.07 4.69.33 4.69 5.4 4.69-1.18 4.68 7.64 4.69 4 4.69 3.64 4.69-.95 9.38 2.27 4.68 2.58" class="js-line" style="vector-effect:none;fill:none;stroke:#ef553b;stroke-opacity:1;stroke-dasharray:3px,3px;stroke-width:2px;opacity:1"/></g></g></g></g></g><path d="M517.033 293.58h348.934M517.033 69.5h348.934" class="xlines-above crisp" style="fill:none;stroke-width:1px;stroke:#000;stroke-opacity:1"/><path d="M517.533 70v223.08M865.467 70v223.08" class="ylines-above crisp" style="fill:none;stroke-width:1px;stroke:#000;stroke-opacity:1"/><g class="xaxislayer-above"><path d="M0 294.08v5" class="x2tick ticks crisp" style="stroke:#444;stroke-opacity:1;stroke-width:1px" transform="translate(630.553)"/><path d="M0 294.08v5" class="x2tick ticks crisp" style="stroke:#444;stroke-opacity:1;stroke-width:1px" transform="translate(747.763)"/><path d="M0 294.08v5" class="x2tick ticks crisp" style="stroke:#444;stroke-opacity:1;stroke-width:1px" transform="translate(864.963)"/><text y="313.48" class="x2tick" style="font-family:&quot;Open Sans&quot;,verdana,arial,sans-serif;font-size:12px;fill:#000;fill-opacity:1;white-space:pre;opacity:1" text-anchor="middle" transform="translate(630.553)">5</text><text y="313.48" class="x2tick" style="font-family:&quot;Open Sans&quot;,verdana,arial,sans-serif;font-size:12px;fill:#000;fill-opacity:1;white-space:pre;opacity:1" text-anchor="middle" transform="translate(747.763)">10</text><text y="313.48" class="x2tick" style="font-family:&quot;Open Sans&quot;,verdana,arial,sans-serif;font-size:12px;fill:#000;fill-opacity:1;white-space:pre;opacity:1" text-anchor="middle" transform="translate(864.963)">15</text></g><g class="yaxislayer-above"><path d="M517.033 0h-5" class="y2tick ticks crisp" style="stroke:#444;stroke-opacity:1;stroke-width:1px" transform="translate(0 281.93)"/><path d="M517.033 0h-5" class="y2tick ticks crisp" style="stroke:#444;stroke-opacity:1;stroke-width:1px" transform="translate(0 232.59)"/><path d="M517.033 0h-5" class="y2tick ticks crisp" style="stroke:#444;stroke-opacity:1;stroke-width:1px" transform="translate(0 183.25)"/><path d="M517.033 0h-5" class="y2tick ticks crisp" style="stroke:#444;stroke-opacity:1;stroke-width:1px" transform="translate(0 133.91)"/><path d="M517.033 0h-5" class="y2tick ticks crisp" style="stroke:#444;stroke-opacity:1;stroke-width:1px" transform="translate(0 84.57)"/><text x="509.633" y="4.2" class="y2tick" style="font-family:&quot;Open Sans&quot;,verdana,arial,sans-serif;font-size:12px;fill:#000;fill-opacity:1;white-space:pre;opacity:1" text-anchor="end" transform="translate(0 281.93)">0</text><text x="509.633" y="4.2" class="y2tick" style="font-family:&quot;Open Sans&quot;,verdana,arial,sans-serif;font-size:12px;fill:#000;fill-opacity:1;white-space:pre;opacity:1" text-anchor="end" transform="translate(0 232.59)">0.5</text><text x="509.633" y="4.2" class="y2tick" style="font-family:&quot;Open Sans&quot;,verdana,arial,sans-serif;font-size:12px;fill:#000;fill-opacity:1;white-space:pre;opacity:1" text-anchor="end" transform="translate(0 183.25)">1</text><text x="509.633" y="4.2" class="y2tick" style="font-family:&quot;Open Sans&quot;,verdana,arial,sans-serif;font-size:12px;fill:#000;fill-opacity:1;white-space:pre;opacity:1" text-anchor="end" transform="translate(0 133.91)">1.5</text><text x="509.633" y="4.2" class="y2tick" style="font-family:&quot;Open Sans&quot;,verdana,arial,sans-serif;font-size:12px;fill:#000;fill-opacity:1;white-space:pre;opacity:1" text-anchor="end" transform="translate(0 84.57)">2</text></g></g><g class="subplot x3y3"><g class="gridlayer"><g class="x3"><path d="M0 70v223.08" class="x3grid crisp" style="stroke:#d3d3d3;stroke-opacity:1;stroke-width:1px" transform="translate(1107.587)"/><path d="M0 70v223.08" class="x3grid crisp" style="stroke:#d3d3d3;stroke-opacity:1;stroke-width:1px" transform="translate(1224.797)"/></g><g class="y3"><path d="M995.067 0H1342" class="y3grid crisp" style="stroke:#d3d3d3;stroke-opacity:1;stroke-width:1px" transform="translate(0 242.5)"/><path d="M995.067 0H1342" class="y3grid crisp" style="stroke:#d3d3d3;stroke-opacity:1;stroke-width:1px" transform="translate(0 203.08)"/><path d="M995.067 0H1342" class="y3grid crisp" style="stroke:#d3d3d3;stroke-opacity:1;stroke-width:1px" transform="translate(0 163.66)"/><path d="M995.067 0H1342" class="y3grid crisp" style="stroke:#d3d3d3;stroke-opacity:1;stroke-width:1px" transform="translate(0 124.24)"/><path d="M995.067 0H1342" class="y3grid crisp" style="stroke:#d3d3d3;stroke-opacity:1;stroke-width:1px" transform="translate(0 84.82)"/></g></g><g class="zerolinelayer"><path d="M995.067 0H1342" class="y3zl zl crisp" style="stroke:#ebf0f8;stroke-opacity:1;stroke-width:2px" transform="translate(0 281.93)"/></g><g class="overplot"><g class="x3y3" clip-path="url(#c)" transform="translate(995.067 70)"><g class="scatterlayer mlayer"><g class="trace scatter trace4c5677" style="stroke-miterlimit:2;opacity:1"><g class="lines"><path d="M0 211.93h98.45l4.69-196.5 4.69 196.5h239.1" class="js-line" style="vector-effect:none;fill:none;stroke:#636efa;stroke-opacity:1;stroke-width:2px;opacity:1"/></g></g><g class="trace scatter trace793143" style="stroke-miterlimit:2;opacity:1"><g class="lines"><path d="M0 211.93h9.38l4.68-156.86 4.69-43.92 4.69 61.35 4.69-14.23 4.69 114.44 4.69-115.7 4.68 79.63 4.69-7.68 4.69-108.74 4.69 176.86 4.69-36.37 4.69 6.6 4.68-33.81 4.69-8.41 4.69 9.38 4.69 28.79 4.69-1.53 4.69-12.4 4.68 10.74 4.69-.33 4.69-8.81 4.69-15.3 4.69 9.47 4.69-8.91 4.68-13.89 4.69 26.96 4.69-15.41 4.69-2.88 4.69 12.33 4.69-2.81 4.68 10.65 4.69-15.02 4.69-3.59 4.69 15.23 4.69-14.04 4.68 7.26 4.69 9.77 4.69-10.49 4.69-3.74 4.69-15.53 4.69 15.75 4.68-16.52 4.69 2.75 9.38 11.62 4.69-11.51 4.69 1.51 4.68 11.11 9.38 13.69 4.69 3.15 4.69 10.44 4.69-3.87 4.68-6.66 4.69 11.73 4.69 7.37 4.69-7.73 4.69 15.06 4.69-2.21 4.68 2.38 4.69 5.3 4.69-.94 4.69 2.59 4.69 9.15 4.69-.59 4.68 4.71 4.69 1.9 4.69 2.29 4.69.24 4.69 2.1 4.69-.75 4.68 1.52" class="js-line" style="vector-effect:none;fill:none;stroke:#ef553b;stroke-opacity:1;stroke-dasharray:3px,3px;stroke-width:2px;opacity:1"/></g></g></g></g></g><path d="M994.067 293.58H1343M994.067 69.5H1343" class="xlines-above crisp" style="fill:none;stroke-width:1px;stroke:#000;stroke-opacity:1"/><path d="M994.567 70v223.08M1342.5 70v223.08" class="ylines-above crisp" style="fill:none;stroke-width:1px;stroke:#000;stroke-opacity:1"/><g class="xaxislayer-above"><path d="M0 294.08v5" class="x3tick ticks crisp" style="stroke:#444;stroke-opacity:1;stroke-width:1px" transform="translate(1107.587)"/><path d="M0 294.08v5" class="x3tick ticks crisp" style="stroke:#444;stroke-opacity:1;stroke-width:1px" transform="translate(1224.797)"/><path d="M0 294.08v5" class="x3tick ticks crisp" style="stroke:#444;stroke-opacity:1;stroke-width:1px" transform="translate(1341.997)"/><text y="313.48" class="x3tick" style="font-family:&quot;Open Sans&quot;,verdana,arial,sans-serif;font-size:12px;fill:#000;fill-opacity:1;white-space:pre;opacity:1" text-anchor="middle" transform="translate(1107.587)">5</text><text y="313.48" class="x3tick" style="font-family:&quot;Open Sans&quot;,verdana,arial,sans-serif;font-size:12px;fill:#000;fill-opacity:1;white-space:pre;opacity:1" text-anchor="middle" transform="translate(1224.797)">10</text><text y="313.48" class="x3tick" style="font-family:&quot;Open Sans&quot;,verdana,arial,sans-serif;font-size:12px;fill:#000;fill-opacity:1;white-space:pre;opacity:1" text-anchor="middle" transform="translate(1341.997)">15</text></g><g class="yaxislayer-above"><path d="M994.067 0h-5" class="y3tick ticks crisp" style="stroke:#444;stroke-opacity:1;stroke-width:1px" transform="translate(0 281.93)"/><path d="M994.067 0h-5" class="y3tick ticks crisp" style="stroke:#444;stroke-opacity:1;stroke-width:1px" transform="translate(0 242.5)"/><path d="M994.067 0h-5" class="y3tick ticks crisp" style="stroke:#444;stroke-opacity:1;stroke-width:1px" transform="translate(0 203.08)"/><path d="M994.067 0h-5" class="y3tick ticks crisp" style="stroke:#444;stroke-opacity:1;stroke-width:1px" transform="translate(0 163.66)"/><path d="M994.067 0h-5" class="y3tick ticks crisp" style="stroke:#444;stroke-opacity:1;stroke-width:1px" transform="translate(0 124.24)"/><path d="M994.067 0h-5" class="y3tick ticks crisp" style="stroke:#444;stroke-opacity:1;stroke-width:1px" transform="translate(0 84.82)"/><text x="986.667" y="4.2" class="y3tick" style="font-family:&quot;Open Sans&quot;,verdana,arial,sans-serif;font-size:12px;fill:#000;fill-opacity:1;white-space:pre;opacity:1" text-anchor="end" transform="translate(0 281.93)">0</text><text x="986.667" y="4.2" class="y3tick" style="font-family:&quot;Open Sans&quot;,verdana,arial,sans-serif;font-size:12px;fill:#000;fill-opacity:1;white-space:pre;opacity:1" text-anchor="end" transform="translate(0 242.5)">0.5</text><text x="986.667" y="4.2" class="y3tick" style="font-family:&quot;Open Sans&quot;,verdana,arial,sans-serif;font-size:12px;fill:#000;fill-opacity:1;white-space:pre;opacity:1" text-anchor="end" transform="translate(0 203.08)">1</text><text x="986.667" y="4.2" class="y3tick" style="font-family:&quot;Open Sans&quot;,verdana,arial,sans-serif;font-size:12px;fill:#000;fill-opacity:1;white-space:pre;opacity:1" text-anchor="end" transform="translate(0 163.66)">1.5</text><text x="986.667" y="4.2" class="y3tick" style="font-family:&quot;Open Sans&quot;,verdana,arial,sans-serif;font-size:12px;fill:#000;fill-opacity:1;white-space:pre;opacity:1" text-anchor="end" transform="translate(0 124.24)">2</text><text x="986.667" y="4.2" class="y3tick" style="font-family:&quot;Open Sans&quot;,verdana,arial,sans-serif;font-size:12px;fill:#000;fill-opacity:1;white-space:pre;opacity:1" text-anchor="end" transform="translate(0 84.82)">2.5</text></g></g><g class="subplot x4y4"><g class="gridlayer"><g class="x4"><path d="M0 353.92V577" class="x4grid crisp" style="stroke:#d3d3d3;stroke-opacity:1;stroke-width:1px" transform="translate(153.52)"/><path d="M0 353.92V577" class="x4grid crisp" style="stroke:#d3d3d3;stroke-opacity:1;stroke-width:1px" transform="translate(270.73)"/></g><g class="y4"><path d="M41 0h346.933" class="y4grid crisp" style="stroke:#d3d3d3;stroke-opacity:1;stroke-width:1px" transform="translate(0 521.99)"/><path d="M41 0h346.933" class="y4grid crisp" style="stroke:#d3d3d3;stroke-opacity:1;stroke-width:1px" transform="translate(0 478.13)"/><path d="M41 0h346.933" class="y4grid crisp" style="stroke:#d3d3d3;stroke-opacity:1;stroke-width:1px" transform="translate(0 434.27)"/><path d="M41 0h346.933" class="y4grid crisp" style="stroke:#d3d3d3;stroke-opacity:1;stroke-width:1px" transform="translate(0 390.41)"/></g></g><g class="zerolinelayer"><path d="M41 0h346.933" class="y4zl zl crisp" style="stroke:#ebf0f8;stroke-opacity:1;stroke-width:2px" transform="translate(0 565.85)"/></g><g class="overplot"><g class="x4y4" clip-path="url(#d)" transform="translate(41 353.92)"><g class="scatterlayer mlayer"><g class="trace scatter tracea2fc17" style="stroke-miterlimit:2;opacity:1"><g class="lines"><path d="M0 211.93h46.88l4.69-200.78 4.69 200.78h9.38l4.68-28.24 4.69 3.23 4.69 25.01h267.23" class="js-line" style="vector-effect:none;fill:none;stroke:#636efa;stroke-opacity:1;stroke-width:2px;opacity:1"/></g></g><g class="trace scatter traced193ae" style="stroke-miterlimit:2;opacity:1"><g class="lines"><path d="M0 211.93h4.69l4.69-38.78 4.68-15.76 4.69 12.65 4.69 12.8 4.69 4.16 4.69-37.79 4.69 21.78 4.68-9.67 4.69 13.11 4.69-19.46 4.69 21.85 4.69-12.97 4.69 10.85 4.68-6.4 4.69.15 4.69-7.69 4.69 18.78 4.69-11.24 4.69 6.83 4.68-10.08 4.69 3 4.69-.36 4.69.96 4.69.68 4.69 1.9 4.68.19 4.69-1.41 4.69 2.75 4.69-.96 4.69-.26 4.69-2.56 4.68-4.45 4.69 8.51 4.69-7.7 4.69 4.78 4.69 5.67 4.68-3.1 4.69-3.74 4.69 1.24 4.69 1.87 4.69-3.08 4.69.85 4.68-2.54 9.38 1.66 4.69-.27 4.69-1.02 4.69 4.97 4.68.32 4.69 1.29 4.69 1.65 4.69 2.46 4.69 1.39 4.69-2.59 4.68 7.33 4.69 2.44 4.69.99 4.69 1.96 4.69.01 4.69 1.62 4.68 2.53 4.69 1.58 4.69 2.48 4.69.98 9.38 4.1 4.68.14 4.69.75 4.69 3.09 14.07 2.04 4.68.72" class="js-line" style="vector-effect:none;fill:none;stroke:#ef553b;stroke-opacity:1;stroke-dasharray:3px,3px;stroke-width:2px;opacity:1"/></g></g></g></g></g><path d="M40 577.5h348.933M40 353.42h348.933" class="xlines-above crisp" style="fill:none;stroke-width:1px;stroke:#000;stroke-opacity:1"/><path d="M40.5 353.92V577m347.933-223.08V577" class="ylines-above crisp" style="fill:none;stroke-width:1px;stroke:#000;stroke-opacity:1"/><g class="xaxislayer-above"><path d="M0 578v5" class="x4tick ticks crisp" style="stroke:#444;stroke-opacity:1;stroke-width:1px" transform="translate(153.52)"/><path d="M0 578v5" class="x4tick ticks crisp" style="stroke:#444;stroke-opacity:1;stroke-width:1px" transform="translate(270.73)"/><path d="M0 578v5" class="x4tick ticks crisp" style="stroke:#444;stroke-opacity:1;stroke-width:1px" transform="translate(387.93)"/><text y="597.4" class="x4tick" style="font-family:&quot;Open Sans&quot;,verdana,arial,sans-serif;font-size:12px;fill:#000;fill-opacity:1;white-space:pre;opacity:1" text-anchor="middle" transform="translate(153.52)">5</text><text y="597.4" class="x4tick" style="font-family:&quot;Open Sans&quot;,verdana,arial,sans-serif;font-size:12px;fill:#000;fill-opacity:1;white-space:pre;opacity:1" text-anchor="middle" transform="translate(270.73)">10</text><text y="597.4" class="x4tick" style="font-family:&quot;Open Sans&quot;,verdana,arial,sans-serif;font-size:12px;fill:#000;fill-opacity:1;white-space:pre;opacity:1" text-anchor="middle" transform="translate(387.93)">15</text></g><g class="yaxislayer-above"><path d="M40 0h-5" class="y4tick ticks crisp" style="stroke:#444;stroke-opacity:1;stroke-width:1px" transform="translate(0 565.85)"/><path d="M40 0h-5" class="y4tick ticks crisp" style="stroke:#444;stroke-opacity:1;stroke-width:1px" transform="translate(0 521.99)"/><path d="M40 0h-5" class="y4tick ticks crisp" style="stroke:#444;stroke-opacity:1;stroke-width:1px" transform="translate(0 478.13)"/><path d="M40 0h-5" class="y4tick ticks crisp" style="stroke:#444;stroke-opacity:1;stroke-width:1px" transform="translate(0 434.27)"/><path d="M40 0h-5" class="y4tick ticks crisp" style="stroke:#444;stroke-opacity:1;stroke-width:1px" transform="translate(0 390.41)"/><text x="32.6" y="4.2" class="y4tick" style="font-family:&quot;Open Sans&quot;,verdana,arial,sans-serif;font-size:12px;fill:#000;fill-opacity:1;white-space:pre;opacity:1" text-anchor="end" transform="translate(0 565.85)">0</text><text x="32.6" y="4.2" class="y4tick" style="font-family:&quot;Open Sans&quot;,verdana,arial,sans-serif;font-size:12px;fill:#000;fill-opacity:1;white-space:pre;opacity:1" text-anchor="end" transform="translate(0 521.99)">1</text><text x="32.6" y="4.2" class="y4tick" style="font-family:&quot;Open Sans&quot;,verdana,arial,sans-serif;font-size:12px;fill:#000;fill-opacity:1;white-space:pre;opacity:1" text-anchor="end" transform="translate(0 478.13)">2</text><text x="32.6" y="4.2" class="y4tick" style="font-family:&quot;Open Sans&quot;,verdana,arial,sans-serif;font-size:12px;fill:#000;fill-opacity:1;white-space:pre;opacity:1" text-anchor="end" transform="translate(0 434.27)">3</text><text x="32.6" y="4.2" class="y4tick" style="font-family:&quot;Open Sans&quot;,verdana,arial,sans-serif;font-size:12px;fill:#000;fill-opacity:1;white-space:pre;opacity:1" text-anchor="end" transform="translate(0 390.41)">4</text></g></g><g class="subplot x5y5"><g class="gridlayer"><g class="x5"><path d="M0 353.92V577" class="x5grid crisp" style="stroke:#d3d3d3;stroke-opacity:1;stroke-width:1px" transform="translate(630.553)"/><path d="M0 353.92V577" class="x5grid crisp" style="stroke:#d3d3d3;stroke-opacity:1;stroke-width:1px" transform="translate(747.763)"/></g><g class="y5"><path d="M518.033 0h346.934" class="y5grid crisp" style="stroke:#d3d3d3;stroke-opacity:1;stroke-width:1px" transform="translate(0 526.86)"/><path d="M518.033 0h346.934" class="y5grid crisp" style="stroke:#d3d3d3;stroke-opacity:1;stroke-width:1px" transform="translate(0 487.88)"/><path d="M518.033 0h346.934" class="y5grid crisp" style="stroke:#d3d3d3;stroke-opacity:1;stroke-width:1px" transform="translate(0 448.89)"/><path d="M518.033 0h346.934" class="y5grid crisp" style="stroke:#d3d3d3;stroke-opacity:1;stroke-width:1px" transform="translate(0 409.91)"/><path d="M518.033 0h346.934" class="y5grid crisp" style="stroke:#d3d3d3;stroke-opacity:1;stroke-width:1px" transform="translate(0 370.92)"/></g></g><g class="zerolinelayer"><path d="M518.033 0h346.934" class="y5zl zl crisp" style="stroke:#ebf0f8;stroke-opacity:1;stroke-width:2px" transform="translate(0 565.85)"/></g><g class="overplot"><g class="x5y5" clip-path="url(#e)" transform="translate(518.033 353.92)"><g class="scatterlayer mlayer"><g class="trace scatter trace2bb437" style="stroke-miterlimit:2;opacity:1"><g class="lines"><path d="M0 211.93h28.13l4.69-200.78 4.69 42.14 4.68 158.64h304.74" class="js-line" style="vector-effect:none;fill:none;stroke:#636efa;stroke-opacity:1;stroke-width:2px;opacity:1"/></g></g><g class="trace scatter tracef849a6" style="stroke-miterlimit:2;opacity:1"><g class="lines"><path d="M0 211.93h9.38l4.68-19.39 4.69 19.39 4.69-17.24 9.38 2.69 4.69-2.69 4.68-2.93 4.69-1.63 4.69 5.64 4.69-6.79 4.69 7.12 4.69-.03 4.68-2.93 4.69 1.61L79.7 199l4.69-5.98 4.69-2.81 4.69 2.37 4.68-2.13 4.69 6.81 4.69-2.57 4.69-1.63 4.69.74 4.69 4.51 9.37-6.86 4.69.14 9.38.95 4.69 1.01 4.68.26 4.69-.88 4.69.09 4.69-.92 4.69 1.35 4.68.32 4.69-1.23 4.69.28 4.69-.15 4.69-4.32 4.69 5.15 4.68-1.64 4.69 1.3 4.69.44 4.69.08 4.69 1.25 4.69-3.73 4.68 2.24 4.69 2.48 4.69-1.61 4.69 3.41 4.69-.97 4.69.04 4.68 4.11 4.69-.27 4.69.69 9.38 1.43 4.69-.43 4.68 2.77 4.69.21 4.69-.02 4.69 1.77 4.69-.58 4.69 1.67 4.68-.19 4.69.81 4.69.27 4.69 1.13 14.06.66" class="js-line" style="vector-effect:none;fill:none;stroke:#ef553b;stroke-opacity:1;stroke-dasharray:3px,3px;stroke-width:2px;opacity:1"/></g></g></g></g></g><path d="M517.033 577.5h348.934M517.033 353.42h348.934" class="xlines-above crisp" style="fill:none;stroke-width:1px;stroke:#000;stroke-opacity:1"/><path d="M517.533 353.92V577m347.934-223.08V577" class="ylines-above crisp" style="fill:none;stroke-width:1px;stroke:#000;stroke-opacity:1"/><g class="xaxislayer-above"><path d="M0 578v5" class="x5tick ticks crisp" style="stroke:#444;stroke-opacity:1;stroke-width:1px" transform="translate(630.553)"/><path d="M0 578v5" class="x5tick ticks crisp" style="stroke:#444;stroke-opacity:1;stroke-width:1px" transform="translate(747.763)"/><path d="M0 578v5" class="x5tick ticks crisp" style="stroke:#444;stroke-opacity:1;stroke-width:1px" transform="translate(864.963)"/><text y="597.4" class="x5tick" style="font-family:&quot;Open Sans&quot;,verdana,arial,sans-serif;font-size:12px;fill:#000;fill-opacity:1;white-space:pre;opacity:1" text-anchor="middle" transform="translate(630.553)">5</text><text y="597.4" class="x5tick" style="font-family:&quot;Open Sans&quot;,verdana,arial,sans-serif;font-size:12px;fill:#000;fill-opacity:1;white-space:pre;opacity:1" text-anchor="middle" transform="translate(747.763)">10</text><text y="597.4" class="x5tick" style="font-family:&quot;Open Sans&quot;,verdana,arial,sans-serif;font-size:12px;fill:#000;fill-opacity:1;white-space:pre;opacity:1" text-anchor="middle" transform="translate(864.963)">15</text></g><g class="yaxislayer-above"><path d="M517.033 0h-5" class="y5tick ticks crisp" style="stroke:#444;stroke-opacity:1;stroke-width:1px" transform="translate(0 565.85)"/><path d="M517.033 0h-5" class="y5tick ticks crisp" style="stroke:#444;stroke-opacity:1;stroke-width:1px" transform="translate(0 526.86)"/><path d="M517.033 0h-5" class="y5tick ticks crisp" style="stroke:#444;stroke-opacity:1;stroke-width:1px" transform="translate(0 487.88)"/><path d="M517.033 0h-5" class="y5tick ticks crisp" style="stroke:#444;stroke-opacity:1;stroke-width:1px" transform="translate(0 448.89)"/><path d="M517.033 0h-5" class="y5tick ticks crisp" style="stroke:#444;stroke-opacity:1;stroke-width:1px" transform="translate(0 409.91)"/><path d="M517.033 0h-5" class="y5tick ticks crisp" style="stroke:#444;stroke-opacity:1;stroke-width:1px" transform="translate(0 370.92)"/><text x="509.633" y="4.2" class="y5tick" style="font-family:&quot;Open Sans&quot;,verdana,arial,sans-serif;font-size:12px;fill:#000;fill-opacity:1;white-space:pre;opacity:1" text-anchor="end" transform="translate(0 565.85)">0</text><text x="509.633" y="4.2" class="y5tick" style="font-family:&quot;Open Sans&quot;,verdana,arial,sans-serif;font-size:12px;fill:#000;fill-opacity:1;white-space:pre;opacity:1" text-anchor="end" transform="translate(0 526.86)">2</text><text x="509.633" y="4.2" class="y5tick" style="font-family:&quot;Open Sans&quot;,verdana,arial,sans-serif;font-size:12px;fill:#000;fill-opacity:1;white-space:pre;opacity:1" text-anchor="end" transform="translate(0 487.88)">4</text><text x="509.633" y="4.2" class="y5tick" style="font-family:&quot;Open Sans&quot;,verdana,arial,sans-serif;font-size:12px;fill:#000;fill-opacity:1;white-space:pre;opacity:1" text-anchor="end" transform="translate(0 448.89)">6</text><text x="509.633" y="4.2" class="y5tick" style="font-family:&quot;Open Sans&quot;,verdana,arial,sans-serif;font-size:12px;fill:#000;fill-opacity:1;white-space:pre;opacity:1" text-anchor="end" transform="translate(0 409.91)">8</text><text x="509.633" y="4.2" class="y5tick" style="font-family:&quot;Open Sans&quot;,verdana,arial,sans-serif;font-size:12px;fill:#000;fill-opacity:1;white-space:pre;opacity:1" text-anchor="end" transform="translate(0 370.92)">10</text></g></g><g class="subplot x6y6"><g class="gridlayer"><g class="x6"><path d="M0 353.92V577" class="x6grid crisp" style="stroke:#d3d3d3;stroke-opacity:1;stroke-width:1px" transform="translate(1107.587)"/><path d="M0 353.92V577" class="x6grid crisp" style="stroke:#d3d3d3;stroke-opacity:1;stroke-width:1px" transform="translate(1224.797)"/></g><g class="y6"><path d="M995.067 0H1342" class="y6grid crisp" style="stroke:#d3d3d3;stroke-opacity:1;stroke-width:1px" transform="translate(0 526.42)"/><path d="M995.067 0H1342" class="y6grid crisp" style="stroke:#d3d3d3;stroke-opacity:1;stroke-width:1px" transform="translate(0 487)"/><path d="M995.067 0H1342" class="y6grid crisp" style="stroke:#d3d3d3;stroke-opacity:1;stroke-width:1px" transform="translate(0 447.58)"/><path d="M995.067 0H1342" class="y6grid crisp" style="stroke:#d3d3d3;stroke-opacity:1;stroke-width:1px" transform="translate(0 408.16)"/><path d="M995.067 0H1342" class="y6grid crisp" style="stroke:#d3d3d3;stroke-opacity:1;stroke-width:1px" transform="translate(0 368.74)"/></g></g><g class="zerolinelayer"><path d="M995.067 0H1342" class="y6zl zl crisp" style="stroke:#ebf0f8;stroke-opacity:1;stroke-width:2px" transform="translate(0 565.85)"/></g><g class="overplot"><g class="x6y6" clip-path="url(#f)" transform="translate(995.067 353.92)"><g class="scatterlayer mlayer"><g class="trace scatter trace1f9f86" style="stroke-miterlimit:2;opacity:1"><g class="lines"><path d="M0 211.93h346.93" class="js-line" style="vector-effect:none;fill:none;stroke:#636efa;stroke-opacity:1;stroke-width:2px;opacity:1"/></g></g><g class="trace scatter tracede99fa" style="stroke-miterlimit:2;opacity:1"><g class="lines"><path d="M0 211.93h14.06l4.69-200.78 4.69 200.78h4.69l4.69-39.22 4.69-22.75 4.68 36.87 4.69-16.39 4.69 24.06 4.69-12.27 4.69-34.33 4.69 19.41 4.68-4.4 4.69 5.6 4.69 20.18 4.69 2.38 4.69-23.06 4.69-12.99 4.68 36.17 4.69-2.98 4.69-19.85 4.69 7.43 4.69-4.7 4.69 13.3 4.68-20.48 4.69 21.16 9.38-7.09 4.69-5.27 4.69 6.95 4.68 1.87 4.69-37.21 4.69 32.75 4.69 16.52 4.69-18.16 4.68 1.85 4.69-4.57 4.69 3.39 4.69-15.39 4.69 17.28 4.69-6.25 4.68 5.48 4.69-10.36 4.69 9.85 4.69.36 9.38-5.3 4.68-.37 4.69 1.54 4.69 5.04 4.69-.48 4.69 4.56 4.69-.54 4.68 5.69 4.69-3.63 4.69 6 4.69 4.92 4.69-.78 4.69 5.8 4.68-.87 4.69 3.47 4.69-1.48 4.69 4.95 4.69-5.96 14.06 8.71 4.69-2.89 4.69 3.09 4.69 1.5 9.37-1.24" class="js-line" style="vector-effect:none;fill:none;stroke:#ef553b;stroke-opacity:1;stroke-dasharray:3px,3px;stroke-width:2px;opacity:1"/></g></g></g></g></g><path d="M994.067 577.5H1343M994.067 353.42H1343" class="xlines-above crisp" style="fill:none;stroke-width:1px;stroke:#000;stroke-opacity:1"/><path d="M994.567 353.92V577M1342.5 353.92V577" class="ylines-above crisp" style="fill:none;stroke-width:1px;stroke:#000;stroke-opacity:1"/><g class="xaxislayer-above"><path d="M0 578v5" class="x6tick ticks crisp" style="stroke:#444;stroke-opacity:1;stroke-width:1px" transform="translate(1107.587)"/><path d="M0 578v5" class="x6tick ticks crisp" style="stroke:#444;stroke-opacity:1;stroke-width:1px" transform="translate(1224.797)"/><path d="M0 578v5" class="x6tick ticks crisp" style="stroke:#444;stroke-opacity:1;stroke-width:1px" transform="translate(1341.997)"/><text y="597.4" class="x6tick" style="font-family:&quot;Open Sans&quot;,verdana,arial,sans-serif;font-size:12px;fill:#000;fill-opacity:1;white-space:pre;opacity:1" text-anchor="middle" transform="translate(1107.587)">5</text><text y="597.4" class="x6tick" style="font-family:&quot;Open Sans&quot;,verdana,arial,sans-serif;font-size:12px;fill:#000;fill-opacity:1;white-space:pre;opacity:1" text-anchor="middle" transform="translate(1224.797)">10</text><text y="597.4" class="x6tick" style="font-family:&quot;Open Sans&quot;,verdana,arial,sans-serif;font-size:12px;fill:#000;fill-opacity:1;white-space:pre;opacity:1" text-anchor="middle" transform="translate(1341.997)">15</text></g><g class="yaxislayer-above"><path d="M994.067 0h-5" class="y6tick ticks crisp" style="stroke:#444;stroke-opacity:1;stroke-width:1px" transform="translate(0 565.85)"/><path d="M994.067 0h-5" class="y6tick ticks crisp" style="stroke:#444;stroke-opacity:1;stroke-width:1px" transform="translate(0 526.42)"/><path d="M994.067 0h-5" class="y6tick ticks crisp" style="stroke:#444;stroke-opacity:1;stroke-width:1px" transform="translate(0 487)"/><path d="M994.067 0h-5" class="y6tick ticks crisp" style="stroke:#444;stroke-opacity:1;stroke-width:1px" transform="translate(0 447.58)"/><path d="M994.067 0h-5" class="y6tick ticks crisp" style="stroke:#444;stroke-opacity:1;stroke-width:1px" transform="translate(0 408.16)"/><path d="M994.067 0h-5" class="y6tick ticks crisp" style="stroke:#444;stroke-opacity:1;stroke-width:1px" transform="translate(0 368.74)"/><text x="986.667" y="4.2" class="y6tick" style="font-family:&quot;Open Sans&quot;,verdana,arial,sans-serif;font-size:12px;fill:#000;fill-opacity:1;white-space:pre;opacity:1" text-anchor="end" transform="translate(0 565.85)">0</text><text x="986.667" y="4.2" class="y6tick" style="font-family:&quot;Open Sans&quot;,verdana,arial,sans-serif;font-size:12px;fill:#000;fill-opacity:1;white-space:pre;opacity:1" text-anchor="end" transform="translate(0 526.42)">1</text><text x="986.667" y="4.2" class="y6tick" style="font-family:&quot;Open Sans&quot;,verdana,arial,sans-serif;font-size:12px;fill:#000;fill-opacity:1;white-space:pre;opacity:1" text-anchor="end" transform="translate(0 487)">2</text><text x="986.667" y="4.2" class="y6tick" style="font-family:&quot;Open Sans&quot;,verdana,arial,sans-serif;font-size:12px;fill:#000;fill-opacity:1;white-space:pre;opacity:1" text-anchor="end" transform="translate(0 447.58)">3</text><text x="986.667" y="4.2" class="y6tick" style="font-family:&quot;Open Sans&quot;,verdana,arial,sans-serif;font-size:12px;fill:#000;fill-opacity:1;white-space:pre;opacity:1" text-anchor="end" transform="translate(0 408.16)">4</text><text x="986.667" y="4.2" class="y6tick" style="font-family:&quot;Open Sans&quot;,verdana,arial,sans-serif;font-size:12px;fill:#000;fill-opacity:1;white-space:pre;opacity:1" text-anchor="end" transform="translate(0 368.74)">5</text></g></g></g><defs><clipPath id="g"><path d="M0 0h220v32H0z"/></clipPath></defs><g class="infolayer"><g class="legend" pointer-events="all"><path d="M0 0h220v32H0z" class="bg" shape-rendering="crispEdges" style="stroke:#444;stroke-opacity:1;fill:#fff;fill-opacity:1;stroke-width:0" transform="translate(581.5 27.86)"/><g class="scrollbox" clip-path="url(#g)" transform="translate(581.5 27.86)"><g class="groups"><g class="traces" style="opacity:1"><text x="40" y="5.46" class="legendtext" style="font-family:&quot;Open Sans&quot;,verdana,arial,sans-serif;font-size:14px;fill:#000;fill-opacity:1;white-space:pre" transform="translate(0 15.6)">Crystal</text><g class="layers" style="opacity:1"><g class="legendlines"><path d="M5 0h30" class="js-line" style="fill:none;stroke:#636efa;stroke-opacity:1;stroke-width:2px" transform="translate(0 15.6)"/></g></g><path fill="none" d="M0-10.6h91.609v21.2H0z" class="legendtoggle" style="fill:#000;fill-opacity:0" transform="translate(0 15.6)"/></g></g><g class="groups"><g class="traces" style="opacity:1"><text x="40" y="5.46" class="legendtext" style="font-family:&quot;Open Sans&quot;,verdana,arial,sans-serif;font-size:14px;fill:#000;fill-opacity:1;white-space:pre" transform="translate(94.11 15.6)">Amorphous</text><g class="layers" style="opacity:1"><g class="legendlines"><path d="M5 0h30" class="js-line" style="fill:none;stroke:#ef553b;stroke-opacity:1;stroke-dasharray:3px,3px;stroke-width:2px" transform="translate(94.11 15.6)"/></g></g><path fill="none" d="M0-10.6h122.406v21.2H0z" class="legendtoggle" style="fill:#000;fill-opacity:0" transform="translate(94.11 15.6)"/></g></g></g></g><g class="g-gtitle"><text x="675" y="6" class="gtitle" dy=".7em" style="opacity:1;font-family:&quot;Open Sans&quot;,verdana,arial,sans-serif;font-size:17px;fill:#000;fill-opacity:1;white-space:pre" text-anchor="middle">Pairwise RDFs - LiPO4 Crystal vs Amorphous</text></g><g class="g-xtitle"><text x="214.467" y="340.284" class="xtitle" style="opacity:1;font-family:&quot;Open Sans&quot;,verdana,arial,sans-serif;font-size:14px;fill:#000;fill-opacity:1;white-space:pre" text-anchor="middle">r (Å)</text></g><g class="g-x2title"><text x="691.5" y="340.284" class="x2title" style="opacity:1;font-family:&quot;Open Sans&quot;,verdana,arial,sans-serif;font-size:14px;fill:#000;fill-opacity:1;white-space:pre" text-anchor="middle">r (Å)</text></g><g class="g-ytitle"><text x="5.569" y="181.54" class="ytitle" style="opacity:1;font-family:&quot;Open Sans&quot;,verdana,arial,sans-serif;font-size:14px;fill:#000;fill-opacity:1;white-space:pre" text-anchor="middle" transform="rotate(-90 9.789 177.32)">g(r)</text></g><g class="g-y4title"><text x="5.569" y="465.46" class="y4title" style="opacity:1;font-family:&quot;Open Sans&quot;,verdana,arial,sans-serif;font-size:14px;fill:#000;fill-opacity:1;white-space:pre" text-anchor="middle" transform="rotate(-90 9.788 461.24)">g(r)</text></g><g class="annotation" data-index="0" style="opacity:1"><g class="annotation-text-g"><g class="cursor-pointer"><path fill="none" d="M.5.5h37v23H.5z" class="bg" style="stroke-width:1px;stroke:#000;stroke-opacity:0;fill:#000;fill-opacity:0" transform="translate(195 46)"/><text x="18.938" y="18" class="annotation-text" style="font-family:&quot;Open Sans&quot;,verdana,arial,sans-serif;font-size:16px;fill:#000;fill-opacity:1;white-space:pre" text-anchor="middle" transform="translate(195 46)">Li-Li</text></g></g></g><g class="annotation" data-index="1" style="opacity:1"><g class="annotation-text-g"><g class="cursor-pointer"><path fill="none" d="M.5.5h36v23H.5z" class="bg" style="stroke-width:1px;stroke:#000;stroke-opacity:0;fill:#000;fill-opacity:0" transform="translate(673 46)"/><text x="18.578" y="18" class="annotation-text" style="font-family:&quot;Open Sans&quot;,verdana,arial,sans-serif;font-size:16px;fill:#000;fill-opacity:1;white-space:pre" text-anchor="middle" transform="translate(673 46)">Li-O</text></g></g></g><g class="annotation" data-index="2" style="opacity:1"><g class="annotation-text-g"><g class="cursor-pointer"><path fill="none" d="M.5.5h33v23H.5z" class="bg" style="stroke-width:1px;stroke:#000;stroke-opacity:0;fill:#000;fill-opacity:0" transform="translate(1152 46)"/><text x="17.109" y="18" class="annotation-text" style="font-family:&quot;Open Sans&quot;,verdana,arial,sans-serif;font-size:16px;fill:#000;fill-opacity:1;white-space:pre" text-anchor="middle" transform="translate(1152 46)">Li-P</text></g></g></g><g class="annotation" data-index="3" style="opacity:1"><g class="annotation-text-g"><g class="cursor-pointer"><path fill="none" d="M.5.5h35v23H.5z" class="bg" style="stroke-width:1px;stroke:#000;stroke-opacity:0;fill:#000;fill-opacity:0" transform="translate(196 330)"/><text x="18.234" y="18" class="annotation-text" style="font-family:&quot;Open Sans&quot;,verdana,arial,sans-serif;font-size:16px;fill:#000;fill-opacity:1;white-space:pre" text-anchor="middle" transform="translate(196 330)">O-O</text></g></g></g><g class="annotation" data-index="4" style="opacity:1"><g class="annotation-text-g"><g class="cursor-pointer"><path fill="none" d="M.5.5h33v23H.5z" class="bg" style="stroke-width:1px;stroke:#000;stroke-opacity:0;fill:#000;fill-opacity:0" transform="translate(675 330)"/><text x="16.766" y="18" class="annotation-text" style="font-family:&quot;Open Sans&quot;,verdana,arial,sans-serif;font-size:16px;fill:#000;fill-opacity:1;white-space:pre" text-anchor="middle" transform="translate(675 330)">O-P</text></g></g></g><g class="annotation" data-index="5" style="opacity:1"><g class="annotation-text-g"><g class="cursor-pointer"><path fill="none" d="M.5.5h30v23H.5z" class="bg" style="stroke-width:1px;stroke:#000;stroke-opacity:0;fill:#000;fill-opacity:0" transform="translate(1153 330)"/><text x="15.281" y="18" class="annotation-text" style="font-family:&quot;Open Sans&quot;,verdana,arial,sans-serif;font-size:16px;fill:#000;fill-opacity:1;white-space:pre" text-anchor="middle" transform="translate(1153 330)">P-P</text></g></g></g></g></svg>
