<svg xmlns="http://www.w3.org/2000/svg" xmlns:xlink="http://www.w3.org/1999/xlink" width="713.233" height="643.954" viewBox="0 0 534.925 482.966"><defs><style>*{stroke-linecap:butt;stroke-linejoin:round}</style></defs><g id="figure_1"><path id="patch_1" d="M0 482.966h534.925V0H0z" style="fill:none"/><g id="axes_1"><path id="patch_2" d="M81.325 411.956h446.4V31.436h-446.4z" style="fill:#fff"/><path id="patch_3" d="M88.667 411.956h20.558V66.034H88.667z" clip-path="url(#p0032945eef)" style="fill:#1f77b4;stroke:#000;stroke-linejoin:miter"/><path id="patch_4" d="M118.036 411.956h20.557V168.353h-20.557z" clip-path="url(#p0032945eef)" style="fill:#1f77b4;stroke:#000;stroke-linejoin:miter"/><path id="patch_5" d="M147.404 411.956h20.558V241.15h-20.558z" clip-path="url(#p0032945eef)" style="fill:#1f77b4;stroke:#000;stroke-linejoin:miter"/><path id="patch_6" d="M176.772 411.956h20.558V276.037h-20.558z" clip-path="url(#p0032945eef)" style="fill:#1f77b4;stroke:#000;stroke-linejoin:miter"/><path id="patch_7" d="M206.14 411.956h20.56V317.18h-20.56z" clip-path="url(#p0032945eef)" style="fill:#1f77b4;stroke:#000;stroke-linejoin:miter"/><path id="patch_8" d="M235.51 411.956h20.557v-92.535H235.51z" clip-path="url(#p0032945eef)" style="fill:#1f77b4;stroke:#000;stroke-linejoin:miter"/><path id="patch_9" d="M264.878 411.956h20.558v-86.889h-20.558z" clip-path="url(#p0032945eef)" style="fill:#1f77b4;stroke:#000;stroke-linejoin:miter"/><path id="patch_10" d="M294.246 411.956h20.558v-63.745h-20.558z" clip-path="url(#p0032945eef)" style="fill:#1f77b4;stroke:#000;stroke-linejoin:miter"/><path id="patch_11" d="M323.614 411.956h20.558v-50.482h-20.558z" clip-path="url(#p0032945eef)" style="fill:#1f77b4;stroke:#000;stroke-linejoin:miter"/><path id="patch_12" d="M352.983 411.956h20.558v-47.09h-20.558z" clip-path="url(#p0032945eef)" style="fill:#1f77b4;stroke:#000;stroke-linejoin:miter"/><path id="patch_13" d="M382.351 411.956h20.558v-41.815h-20.558z" clip-path="url(#p0032945eef)" style="fill:#1f77b4;stroke:#000;stroke-linejoin:miter"/><path id="patch_14" d="M411.72 411.956h20.558V371.63H411.72z" clip-path="url(#p0032945eef)" style="fill:#1f77b4;stroke:#000;stroke-linejoin:miter"/><path id="patch_15" d="M441.088 411.956h20.558V380.86h-20.558z" clip-path="url(#p0032945eef)" style="fill:#1f77b4;stroke:#000;stroke-linejoin:miter"/><path id="patch_16" d="M470.457 411.956h20.557v-24.345h-20.557z" clip-path="url(#p0032945eef)" style="fill:#1f77b4;stroke:#000;stroke-linejoin:miter"/><path id="patch_17" d="M499.825 411.956h20.558v-21.914h-20.558z" clip-path="url(#p0032945eef)" style="fill:#1f77b4;stroke:#000;stroke-linejoin:miter"/><g id="matplotlib.axis_1"><g id="xtick_1"><g id="line2d_1"><defs><path id="m124123b6f6" d="M0 0v7" style="stroke:#000;stroke-width:2.5"/></defs><use xlink:href="#m124123b6f6" x="98.946" y="411.956" style="stroke:#000;stroke-width:2.5"/></g><g id="text_1" transform="matrix(0 -.2 -.2 0 104.465 445.166)"><defs><path id="DejaVuSans-46" d="M628 4666h2681v-532H1259V2759h1850v-531H1259V0H628v4666z" transform="scale(.01563)"/><path id="DejaVuSans-65" d="M3597 1894v-281H953q38-594 358-905t892-311q331 0 642 81t618 244V178Q3153 47 2828-22t-659-69q-838 0-1327 487-489 488-489 1320 0 859 464 1363 464 505 1252 505 706 0 1117-455 411-454 411-1235zm-575 169q-6 471-264 752-258 282-683 282-481 0-770-272t-333-766l2050 4z" transform="scale(.01563)"/></defs><use xlink:href="#DejaVuSans-46"/><use xlink:href="#DejaVuSans-65" x="52.02"/></g></g><g id="xtick_2"><use xlink:href="#m124123b6f6" id="line2d_2" x="128.314" y="411.956" style="stroke:#000;stroke-width:2.5"/><g id="text_2" transform="matrix(0 -.2 -.2 0 133.833 441.694)"><defs><path id="DejaVuSans-41" d="m2188 4044-857-2322h1716l-859 2322zm-357 622h716L4325 0h-656l-425 1197H1141L716 0H50l1781 4666z" transform="scale(.01563)"/><path id="DejaVuSans-6c" d="M603 4863h575V0H603v4863z" transform="scale(.01563)"/></defs><use xlink:href="#DejaVuSans-41"/><use xlink:href="#DejaVuSans-6c" x="68.408"/></g></g><g id="xtick_3"><use xlink:href="#m124123b6f6" id="line2d_3" x="157.683" y="411.956" style="stroke:#000;stroke-width:2.5"/><g id="text_3" transform="matrix(0 -.2 -.2 0 163.202 442.975)"><defs><path id="DejaVuSans-4e" d="M628 4666h850L3547 763v3903h612V0h-850L1241 3903V0H628v4666z" transform="scale(.01563)"/><path id="DejaVuSans-69" d="M603 3500h575V0H603v3500zm0 1363h575v-729H603v729z" transform="scale(.01563)"/></defs><use xlink:href="#DejaVuSans-4e"/><use xlink:href="#DejaVuSans-69" x="74.805"/></g></g><g id="xtick_4"><use xlink:href="#m124123b6f6" id="line2d_4" x="187.051" y="411.956" style="stroke:#000;stroke-width:2.5"/><g id="text_4" transform="matrix(0 -.2 -.2 0 192.57 448.66)"><defs><path id="DejaVuSans-43" d="M4122 4306v-665q-319 297-680 443-361 147-767 147-800 0-1225-489t-425-1414q0-922 425-1411t1225-489q406 0 767 147t680 444V359q-331-225-702-338-370-112-782-112-1060 0-1670 648-609 649-609 1771 0 1125 609 1773 610 649 1670 649 418 0 788-111 371-111 696-333z" transform="scale(.01563)"/><path id="DejaVuSans-6f" d="M1959 3097q-462 0-731-361t-269-989q0-628 267-989 268-361 733-361 460 0 728 362 269 363 269 988 0 622-269 986-268 364-728 364zm0 487q750 0 1178-488 429-487 429-1349 0-859-429-1349Q2709-91 1959-91q-753 0-1180 489-426 490-426 1349 0 862 426 1349 427 488 1180 488z" transform="scale(.01563)"/></defs><use xlink:href="#DejaVuSans-43"/><use xlink:href="#DejaVuSans-6f" x="69.824"/></g></g><g id="xtick_5"><use xlink:href="#m124123b6f6" id="line2d_5" x="216.42" y="411.956" style="stroke:#000;stroke-width:2.5"/><g id="text_5" transform="matrix(0 -.2 -.2 0 221.938 444.378)"><defs><path id="DejaVuSans-5a" d="M359 4666h3666v-482L1075 531h3022V0H288v481l2950 3653H359v532z" transform="scale(.01563)"/><path id="DejaVuSans-72" d="M2631 2963q-97 56-211 82-114 27-251 27-488 0-749-317t-261-911V0H581v3500h578v-544q182 319 472 473 291 155 707 155 59 0 131-8 72-7 159-23l3-590z" transform="scale(.01563)"/></defs><use xlink:href="#DejaVuSans-5a"/><use xlink:href="#DejaVuSans-72" x="68.506"/></g></g><g id="xtick_6"><use xlink:href="#m124123b6f6" id="line2d_6" x="245.788" y="411.956" style="stroke:#000;stroke-width:2.5"/><g id="text_6" transform="matrix(0 -.2 -.2 0 251.307 449.097)"><defs><path id="DejaVuSans-75" d="M544 1381v2119h575V1403q0-497 193-746 194-248 582-248 465 0 735 297 271 297 271 810v1984h575V0h-575v538q-209-319-486-474-276-155-642-155-603 0-916 375-312 375-312 1097zm1447 2203z" transform="scale(.01563)"/></defs><use xlink:href="#DejaVuSans-43"/><use xlink:href="#DejaVuSans-75" x="69.824"/></g></g><g id="xtick_7"><use xlink:href="#m124123b6f6" id="line2d_7" x="275.157" y="411.956" style="stroke:#000;stroke-width:2.5"/><g id="text_7" transform="matrix(0 -.2 -.2 0 280.675 436.178)"><defs><path id="DejaVuSans-42" d="M1259 2228V519h1013q509 0 754 211 246 211 246 645 0 438-246 645-245 208-754 208H1259zm0 1919V2741h935q462 0 688 173 227 174 227 530 0 353-227 528-226 175-688 175h-935zm-631 519h1613q722 0 1112-300 391-300 391-853 0-429-200-682t-588-315q466-100 724-418 258-317 258-792 0-625-425-966Q3088 0 2303 0H628v4666z" transform="scale(.01563)"/></defs><use xlink:href="#DejaVuSans-42"/></g></g><g id="xtick_8"><use xlink:href="#m124123b6f6" id="line2d_8" x="304.525" y="411.956" style="stroke:#000;stroke-width:2.5"/><g id="text_8" transform="matrix(0 -.2 -.2 0 310.044 447.212)"><defs><path id="DejaVuSans-50" d="M1259 4147V2394h794q441 0 681 228 241 228 241 650 0 419-241 647-240 228-681 228h-794zm-631 519h1425q785 0 1186-355 402-355 402-1039 0-691-402-1044-401-353-1186-353h-794V0H628v4666z" transform="scale(.01563)"/><path id="DejaVuSans-64" d="M2906 2969v1894h575V0h-575v525q-181-312-458-464-276-152-664-152-634 0-1033 506-398 507-398 1332t398 1331q399 506 1033 506 388 0 664-152 277-151 458-463zM947 1747q0-634 261-995t717-361q456 0 718 361 263 361 263 995t-263 995q-262 361-718 361t-717-361q-261-361-261-995z" transform="scale(.01563)"/></defs><use xlink:href="#DejaVuSans-50"/><use xlink:href="#DejaVuSans-64" x="60.303"/></g></g><g id="xtick_9"><use xlink:href="#m124123b6f6" id="line2d_9" x="333.893" y="411.956" style="stroke:#000;stroke-width:2.5"/><g id="text_9" transform="matrix(0 -.2 -.2 0 339.412 452.41)"><defs><path id="DejaVuSans-4d" d="M628 4666h941l1190-3175 1197 3175h941V0h-616v4097L3078 897h-634L1241 4097V0H628v4666z" transform="scale(.01563)"/><path id="DejaVuSans-67" d="M2906 1791q0 625-258 968-257 344-723 344-462 0-720-344-258-343-258-968 0-622 258-966t720-344q466 0 723 344 258 344 258 966zm575-1357q0-893-397-1329-396-436-1215-436-303 0-572 45t-522 139v559q253-137 500-202 247-66 503-66 566 0 847 295t281 892v285q-178-310-456-463T1784 0Q1141 0 747 490 353 981 353 1791q0 812 394 1302 394 491 1037 491 388 0 666-153t456-462v531h575V434z" transform="scale(.01563)"/></defs><use xlink:href="#DejaVuSans-4d"/><use xlink:href="#DejaVuSans-67" x="86.279"/></g></g><g id="xtick_10"><use xlink:href="#m124123b6f6" id="line2d_10" x="363.262" y="411.956" style="stroke:#000;stroke-width:2.5"/><g id="text_10" transform="matrix(0 -.2 -.2 0 368.78 440.71)"><defs><path id="DejaVuSans-53" d="M3425 4513v-616q-359 172-678 256-319 85-616 85-515 0-795-200t-280-569q0-310 186-468 186-157 705-254l381-78q706-135 1042-474t336-907q0-679-455-1029Q2797-91 1919-91q-331 0-705 75-373 75-773 222v650q384-215 753-325 369-109 725-109 540 0 834 212 294 213 294 607 0 343-211 537t-692 291l-385 75q-706 140-1022 440-315 300-315 835 0 619 436 975t1201 356q329 0 669-60 341-59 697-177z" transform="scale(.01563)"/></defs><use xlink:href="#DejaVuSans-53"/><use xlink:href="#DejaVuSans-69" x="63.477"/></g></g><g id="xtick_11"><use xlink:href="#m124123b6f6" id="line2d_11" x="392.63" y="411.956" style="stroke:#000;stroke-width:2.5"/><g id="text_11" transform="matrix(0 -.2 -.2 0 398.149 439.603)"><defs><path id="DejaVuSans-54" d="M-19 4666h3947v-532H2272V0h-634v4134H-19v532z" transform="scale(.01563)"/></defs><use xlink:href="#DejaVuSans-54"/><use xlink:href="#DejaVuSans-69" x="57.959"/></g></g><g id="xtick_12"><use xlink:href="#m124123b6f6" id="line2d_12" x="421.999" y="411.956" style="stroke:#000;stroke-width:2.5"/><g id="text_12" transform="matrix(0 -.2 -.2 0 427.517 445.856)"><defs><path id="DejaVuSans-4c" d="M628 4666h631V531h2272V0H628v4666z" transform="scale(.01563)"/><path id="DejaVuSans-61" d="M2194 1759q-697 0-966-159t-269-544q0-306 202-486 202-179 548-179 479 0 768 339t289 901v128h-572zm1147 238V0h-575v531q-197-318-491-470T1556-91q-537 0-855 302-317 302-317 808 0 590 395 890 396 300 1180 300h807v57q0 397-261 614t-733 217q-300 0-585-72-284-72-546-216v532q315 122 612 182 297 61 578 61 760 0 1135-394 375-393 375-1193z" transform="scale(.01563)"/></defs><use xlink:href="#DejaVuSans-4c"/><use xlink:href="#DejaVuSans-61" x="55.713"/></g></g><g id="xtick_13"><use xlink:href="#m124123b6f6" id="line2d_13" x="451.367" y="411.956" style="stroke:#000;stroke-width:2.5"/><g id="text_13" transform="matrix(0 -.2 -.2 0 456.886 444.538)"><defs><path id="DejaVuSans-48" d="M628 4666h631V2753h2294v1913h631V0h-631v2222H1259V0H628v4666z" transform="scale(.01563)"/><path id="DejaVuSans-66" d="M2375 4863v-479h-550q-309 0-430-125-120-125-120-450v-309h947v-447h-947V0H697v3053H147v447h550v244q0 584 272 851 272 268 862 268h544z" transform="scale(.01563)"/></defs><use xlink:href="#DejaVuSans-48"/><use xlink:href="#DejaVuSans-66" x="75.195"/></g></g><g id="xtick_14"><use xlink:href="#m124123b6f6" id="line2d_14" x="480.736" y="411.956" style="stroke:#000;stroke-width:2.5"/><g id="text_14" transform="matrix(0 -.2 -.2 0 486.254 450.116)"><defs><path id="DejaVuSans-62" d="M3116 1747q0 634-261 995t-717 361q-457 0-718-361t-261-995q0-634 261-995t718-361q456 0 717 361t261 995zM1159 2969q182 312 458 463 277 152 661 152 638 0 1036-506 399-506 399-1331T3314 415Q2916-91 2278-91q-384 0-661 152-276 152-458 464V0H581v4863h578V2969z" transform="scale(.01563)"/></defs><use xlink:href="#DejaVuSans-4e"/><use xlink:href="#DejaVuSans-62" x="74.805"/></g></g><g id="xtick_15"><use xlink:href="#m124123b6f6" id="line2d_15" x="510.104" y="411.956" style="stroke:#000;stroke-width:2.5"/><g id="text_15" transform="matrix(0 -.2 -.2 0 515.623 452.387)"><defs><path id="DejaVuSans-6e" d="M3513 2113V0h-575v2094q0 497-194 743-194 247-581 247-466 0-735-297-269-296-269-809V0H581v3500h578v-544q207 316 486 472 280 156 646 156 603 0 912-373 310-373 310-1098z" transform="scale(.01563)"/></defs><use xlink:href="#DejaVuSans-4d"/><use xlink:href="#DejaVuSans-6e" x="86.279"/></g></g><g id="text_16" transform="matrix(.2 0 0 -.2 268.41 471.606)"><defs><path id="DejaVuSans-73" d="M2834 3397v-544q-243 125-506 187-262 63-544 63-428 0-642-131t-214-394q0-200 153-314t616-217l197-44q612-131 870-370t258-667q0-488-386-773Q2250-91 1575-91q-281 0-586 55T347 128v594q319-166 628-249 309-82 613-82 406 0 624 139 219 139 219 392 0 234-158 359-157 125-692 241l-200 47q-534 112-772 345-237 233-237 639 0 494 350 762 350 269 994 269 318 0 599-47 282-46 519-140z" transform="scale(.01563)"/><path id="DejaVuSans-79" d="M2059-325q-243-625-475-815-231-191-618-191H506v481h338q237 0 368 113 132 112 291 531l103 262L191 3500h609L1894 763l1094 2737h609L2059-325z" transform="scale(.01563)"/><path id="DejaVuSans-6d" d="M3328 2828q216 388 516 572t706 184q547 0 844-383 297-382 297-1088V0h-578v2094q0 503-179 746-178 244-543 244-447 0-707-297-259-296-259-809V0h-578v2094q0 506-178 748t-550 242q-441 0-701-298-259-298-259-808V0H581v3500h578v-544q197 322 472 475t653 153q382 0 649-194 267-193 395-562z" transform="scale(.01563)"/></defs><use xlink:href="#DejaVuSans-73"/><use xlink:href="#DejaVuSans-79" x="52.1"/><use xlink:href="#DejaVuSans-6d" x="111.279"/><use xlink:href="#DejaVuSans-62" x="208.691"/><use xlink:href="#DejaVuSans-6f" x="272.168"/><use xlink:href="#DejaVuSans-6c" x="333.35"/></g></g><g id="matplotlib.axis_2"><g id="ytick_1"><g id="line2d_16"><defs><path id="m83cf764bf4" d="M0 0h-7" style="stroke:#000;stroke-width:2.5"/></defs><use xlink:href="#m83cf764bf4" x="81.325" y="411.956" style="stroke:#000;stroke-width:2.5"/></g><g id="text_17" transform="matrix(.2 0 0 -.2 58.1 419.555)"><defs><path id="DejaVuSans-30" d="M2034 4250q-487 0-733-480-245-479-245-1442 0-959 245-1439 246-480 733-480 491 0 736 480 246 480 246 1439 0 963-246 1442-245 480-736 480zm0 500q785 0 1199-621 414-620 414-1801 0-1178-414-1799Q2819-91 2034-91q-784 0-1198 620-414 621-414 1799 0 1181 414 1801 414 621 1198 621z" transform="scale(.01563)"/></defs><use xlink:href="#DejaVuSans-30"/></g></g><g id="ytick_2"><use xlink:href="#m83cf764bf4" id="line2d_17" x="81.325" y="358.914" style="stroke:#000;stroke-width:2.5"/><g id="text_18" transform="matrix(.2 0 0 -.2 7.2 366.513)"><defs><path id="DejaVuSans-31" d="M794 531h1031v3560L703 3866v575l1116 225h631V531h1031V0H794v531z" transform="scale(.01563)"/></defs><use xlink:href="#DejaVuSans-31"/><use xlink:href="#DejaVuSans-30" x="63.623"/><use xlink:href="#DejaVuSans-30" x="127.246"/><use xlink:href="#DejaVuSans-30" x="190.869"/><use xlink:href="#DejaVuSans-30" x="254.492"/></g></g><g id="ytick_3"><use xlink:href="#m83cf764bf4" id="line2d_18" x="81.325" y="305.872" style="stroke:#000;stroke-width:2.5"/><g id="text_19" transform="matrix(.2 0 0 -.2 7.2 313.47)"><defs><path id="DejaVuSans-32" d="M1228 531h2203V0H469v531q359 372 979 998 621 627 780 809 303 340 423 576 121 236 121 464 0 372-261 606-261 235-680 235-297 0-627-103-329-103-704-313v638q381 153 712 231 332 78 607 78 725 0 1156-363 431-362 431-968 0-288-108-546-107-257-392-607-78-91-497-524-418-433-1181-1211z" transform="scale(.01563)"/></defs><use xlink:href="#DejaVuSans-32"/><use xlink:href="#DejaVuSans-30" x="63.623"/><use xlink:href="#DejaVuSans-30" x="127.246"/><use xlink:href="#DejaVuSans-30" x="190.869"/><use xlink:href="#DejaVuSans-30" x="254.492"/></g></g><g id="ytick_4"><use xlink:href="#m83cf764bf4" id="line2d_19" x="81.325" y="252.83" style="stroke:#000;stroke-width:2.5"/><g id="text_20" transform="matrix(.2 0 0 -.2 7.2 260.429)"><defs><path id="DejaVuSans-33" d="M2597 2516q453-97 707-404 255-306 255-756 0-690-475-1069Q2609-91 1734-91q-293 0-604 58T488 141v609q262-153 574-231 313-78 654-78 593 0 904 234t311 681q0 413-289 645-289 233-804 233h-544v519h569q465 0 712 186t247 536q0 359-255 551-254 193-729 193-260 0-557-57-297-56-653-174v562q360 100 674 150t592 50q719 0 1137-327 419-326 419-882 0-388-222-655t-631-370z" transform="scale(.01563)"/></defs><use xlink:href="#DejaVuSans-33"/><use xlink:href="#DejaVuSans-30" x="63.623"/><use xlink:href="#DejaVuSans-30" x="127.246"/><use xlink:href="#DejaVuSans-30" x="190.869"/><use xlink:href="#DejaVuSans-30" x="254.492"/></g></g><g id="ytick_5"><use xlink:href="#m83cf764bf4" id="line2d_20" x="81.325" y="199.788" style="stroke:#000;stroke-width:2.5"/><g id="text_21" transform="matrix(.2 0 0 -.2 7.2 207.387)"><defs><path id="DejaVuSans-34" d="M2419 4116 825 1625h1594v2491zm-166 550h794V1625h666v-525h-666V0h-628v1100H313v609l1940 2957z" transform="scale(.01563)"/></defs><use xlink:href="#DejaVuSans-34"/><use xlink:href="#DejaVuSans-30" x="63.623"/><use xlink:href="#DejaVuSans-30" x="127.246"/><use xlink:href="#DejaVuSans-30" x="190.869"/><use xlink:href="#DejaVuSans-30" x="254.492"/></g></g><g id="ytick_6"><use xlink:href="#m83cf764bf4" id="line2d_21" x="81.325" y="146.746" style="stroke:#000;stroke-width:2.5"/><g id="text_22" transform="matrix(.2 0 0 -.2 7.2 154.345)"><defs><path id="DejaVuSans-35" d="M691 4666h2478v-532H1269V2991q137 47 274 70 138 23 276 23 781 0 1237-428 457-428 457-1159 0-753-469-1171Q2575-91 1722-91q-294 0-599 50Q819 9 494 109v635q281-153 581-228t634-75q541 0 856 284 316 284 316 772 0 487-316 771-315 285-856 285-253 0-505-56-251-56-513-175v2344z" transform="scale(.01563)"/></defs><use xlink:href="#DejaVuSans-35"/><use xlink:href="#DejaVuSans-30" x="63.623"/><use xlink:href="#DejaVuSans-30" x="127.246"/><use xlink:href="#DejaVuSans-30" x="190.869"/><use xlink:href="#DejaVuSans-30" x="254.492"/></g></g><g id="ytick_7"><use xlink:href="#m83cf764bf4" id="line2d_22" x="81.325" y="93.705" style="stroke:#000;stroke-width:2.5"/><g id="text_23" transform="matrix(.2 0 0 -.2 7.2 101.303)"><defs><path id="DejaVuSans-36" d="M2113 2584q-425 0-674-291-248-290-248-796 0-503 248-796 249-292 674-292t673 292q248 293 248 796 0 506-248 796-248 291-673 291zm1253 1979v-575q-238 112-480 171-242 60-480 60-625 0-955-422-329-422-376-1275 184 272 462 417 279 145 613 145 703 0 1111-427 408-426 408-1160 0-719-425-1154Q2819-91 2113-91q-810 0-1238 620-428 621-428 1799 0 1106 525 1764t1409 658q238 0 480-47t505-140z" transform="scale(.01563)"/></defs><use xlink:href="#DejaVuSans-36"/><use xlink:href="#DejaVuSans-30" x="63.623"/><use xlink:href="#DejaVuSans-30" x="127.246"/><use xlink:href="#DejaVuSans-30" x="190.869"/><use xlink:href="#DejaVuSans-30" x="254.492"/></g></g><g id="ytick_8"><use xlink:href="#m83cf764bf4" id="line2d_23" x="81.325" y="40.663" style="stroke:#000;stroke-width:2.5"/><g id="text_24" transform="matrix(.2 0 0 -.2 7.2 48.261)"><defs><path id="DejaVuSans-37" d="M525 4666h3000v-269L1831 0h-659l1594 4134H525v532z" transform="scale(.01563)"/></defs><use xlink:href="#DejaVuSans-37"/><use xlink:href="#DejaVuSans-30" x="63.623"/><use xlink:href="#DejaVuSans-30" x="127.246"/><use xlink:href="#DejaVuSans-30" x="190.869"/><use xlink:href="#DejaVuSans-30" x="254.492"/></g></g></g><path id="patch_18" d="M81.325 411.956V31.436" style="fill:none;stroke:#000;stroke-linecap:square;stroke-linejoin:miter;stroke-width:2.5"/><path id="patch_19" d="M527.725 411.956V31.436" style="fill:none;stroke:#000;stroke-linecap:square;stroke-linejoin:miter;stroke-width:2.5"/><path id="patch_20" d="M81.325 411.956h446.4" style="fill:none;stroke:#000;stroke-linecap:square;stroke-linejoin:miter;stroke-width:2.5"/><path id="patch_21" d="M81.325 31.436h446.4" style="fill:none;stroke:#000;stroke-linecap:square;stroke-linejoin:miter;stroke-width:2.5"/><g id="text_25" transform="scale(.14 -.14) rotate(45 883.645 502.246)"><defs><path id="DejaVuSans-2e" d="M684 794h660V0H684v794z" transform="scale(.01563)"/><path id="DejaVuSans-25" d="M4653 2053q-272 0-427-231-154-231-154-644 0-406 154-639 155-233 427-233 266 0 420 233 155 233 155 639 0 410-155 642-154 233-420 233zm0 397q494 0 784-344 291-343 291-928 0-584-292-927-292-342-783-342-500 0-791 342-290 343-290 927 0 588 292 930t789 342zM1428 4353q-269 0-424-233-154-232-154-639 0-412 153-644 153-231 425-231t426 231q155 232 155 644 0 403-156 637-156 235-425 235zm2822 397h500L1831-91h-500l2919 4841zm-2822 0q494 0 787-342 294-342 294-927 0-590-292-931t-789-341q-497 0-786 342-289 343-289 930 0 582 290 925 291 344 785 344z" transform="scale(.01563)"/></defs><use xlink:href="#DejaVuSans-32"/><use xlink:href="#DejaVuSans-33" x="63.623"/><use xlink:href="#DejaVuSans-2e" x="127.246"/><use xlink:href="#DejaVuSans-32" x="159.033"/><use xlink:href="#DejaVuSans-25" x="222.656"/></g><g id="text_26" transform="scale(.14 -.14) rotate(45 1870.743 390.043)"><use xlink:href="#DejaVuSans-31"/><use xlink:href="#DejaVuSans-36" x="63.623"/><use xlink:href="#DejaVuSans-2e" x="127.246"/><use xlink:href="#DejaVuSans-33" x="159.033"/><use xlink:href="#DejaVuSans-25" x="222.656"/></g><g id="text_27" transform="scale(.14 -.14) rotate(45 2603.304 383.272)"><use xlink:href="#DejaVuSans-31"/><use xlink:href="#DejaVuSans-31" x="63.623"/><use xlink:href="#DejaVuSans-2e" x="127.246"/><use xlink:href="#DejaVuSans-35" x="159.033"/><use xlink:href="#DejaVuSans-25" x="222.656"/></g><g id="text_28" transform="scale(.14 -.14) rotate(45 3020.24 539.05)"><defs><path id="DejaVuSans-39" d="M703 97v575q238-113 481-172 244-59 479-59 625 0 954 420 330 420 377 1277-181-269-460-413-278-144-615-144-700 0-1108 423-408 424-408 1159 0 718 425 1152 425 435 1131 435 810 0 1236-621 427-620 427-1801 0-1103-524-1761Q2575-91 1691-91q-238 0-482 47Q966 3 703 97zm1256 1978q425 0 673 290 249 291 249 798 0 503-249 795-248 292-673 292t-673-292q-248-292-248-795 0-507 248-798 248-290 673-290z" transform="scale(.01563)"/></defs><use xlink:href="#DejaVuSans-39"/><use xlink:href="#DejaVuSans-2e" x="63.623"/><use xlink:href="#DejaVuSans-31" x="95.41"/><use xlink:href="#DejaVuSans-25" x="159.033"/></g><g id="text_29" transform="scale(.14 -.14) rotate(45 3479.87 645.33)"><use xlink:href="#DejaVuSans-36"/><use xlink:href="#DejaVuSans-2e" x="63.623"/><use xlink:href="#DejaVuSans-34" x="95.41"/><use xlink:href="#DejaVuSans-25" x="159.033"/></g><g id="text_30" transform="scale(.14 -.14) rotate(45 3604.077 890.548)"><use xlink:href="#DejaVuSans-36"/><use xlink:href="#DejaVuSans-2e" x="63.623"/><use xlink:href="#DejaVuSans-32" x="95.41"/><use xlink:href="#DejaVuSans-25" x="159.033"/></g><g id="text_31" transform="scale(.14 -.14) rotate(45 3757.649 1123.602)"><defs><path id="DejaVuSans-38" d="M2034 2216q-450 0-708-241-257-241-257-662 0-422 257-663 258-241 708-241t709 242q260 243 260 662 0 421-258 662-257 241-711 241zm-631 268q-406 100-633 378-226 279-226 679 0 559 398 884 399 325 1092 325 697 0 1094-325t397-884q0-400-227-679-226-278-629-378 456-106 710-416 255-309 255-755 0-679-414-1042Q2806-91 2034-91q-771 0-1186 362-414 363-414 1042 0 446 256 755 257 310 713 416zm-231 997q0-362 226-565 227-203 636-203 407 0 636 203 230 203 230 565 0 363-230 566-229 203-636 203-409 0-636-203-226-203-226-566z" transform="scale(.01563)"/></defs><use xlink:href="#DejaVuSans-35"/><use xlink:href="#DejaVuSans-2e" x="63.623"/><use xlink:href="#DejaVuSans-38" x="95.41"/><use xlink:href="#DejaVuSans-25" x="159.033"/></g><g id="text_32" transform="scale(.14 -.14) rotate(45 4062.086 1294.166)"><use xlink:href="#DejaVuSans-34"/><use xlink:href="#DejaVuSans-2e" x="63.623"/><use xlink:href="#DejaVuSans-33" x="95.41"/><use xlink:href="#DejaVuSans-25" x="159.033"/></g><g id="text_33" transform="scale(.14 -.14) rotate(45 4281.324 1500.02)"><use xlink:href="#DejaVuSans-33"/><use xlink:href="#DejaVuSans-2e" x="63.623"/><use xlink:href="#DejaVuSans-34" x="95.41"/><use xlink:href="#DejaVuSans-25" x="159.033"/></g><g id="text_34" transform="scale(.14 -.14) rotate(45 4415.47 1741.122)"><use xlink:href="#DejaVuSans-33"/><use xlink:href="#DejaVuSans-2e" x="63.623"/><use xlink:href="#DejaVuSans-32" x="95.41"/><use xlink:href="#DejaVuSans-25" x="159.033"/></g><g id="text_35" transform="scale(.14 -.14) rotate(45 4565.834 1975.505)"><use xlink:href="#DejaVuSans-32"/><use xlink:href="#DejaVuSans-2e" x="63.623"/><use xlink:href="#DejaVuSans-38" x="95.41"/><use xlink:href="#DejaVuSans-25" x="159.033"/></g><g id="text_36" transform="scale(.14 -.14) rotate(45 4683.552 2223.41)"><use xlink:href="#DejaVuSans-32"/><use xlink:href="#DejaVuSans-2e" x="63.623"/><use xlink:href="#DejaVuSans-37" x="95.41"/><use xlink:href="#DejaVuSans-25" x="159.033"/></g><g id="text_37" transform="scale(.14 -.14) rotate(45 4868.02 2443.666)"><use xlink:href="#DejaVuSans-32"/><use xlink:href="#DejaVuSans-2e" x="63.623"/><use xlink:href="#DejaVuSans-31" x="95.41"/><use xlink:href="#DejaVuSans-25" x="159.033"/></g><g id="text_38" transform="scale(.14 -.14) rotate(45 5031.118 2672.775)"><use xlink:href="#DejaVuSans-31"/><use xlink:href="#DejaVuSans-2e" x="63.623"/><use xlink:href="#DejaVuSans-36" x="95.41"/><use xlink:href="#DejaVuSans-25" x="159.033"/></g><g id="text_39" transform="scale(.14 -.14) rotate(45 5156.974 2917.31)"><use xlink:href="#DejaVuSans-31"/><use xlink:href="#DejaVuSans-2e" x="63.623"/><use xlink:href="#DejaVuSans-35" x="95.41"/><use xlink:href="#DejaVuSans-25" x="159.033"/></g><g id="text_40" transform="matrix(.24 0 0 -.24 215.393 25.436)"><defs><path id="DejaVuSans-45" d="M628 4666h2950v-532H1259V2753h2222v-531H1259V531h2375V0H628v4666z" transform="scale(.01563)"/><path id="DejaVuSans-74" d="M1172 4494v-994h1184v-447H1172V1153q0-428 117-550t477-122h590V0h-590q-666 0-919 248-253 249-253 905v1900H172v447h422v994h578z" transform="scale(.01563)"/></defs><use xlink:href="#DejaVuSans-45"/><use xlink:href="#DejaVuSans-6c" x="63.184"/><use xlink:href="#DejaVuSans-65" x="90.967"/><use xlink:href="#DejaVuSans-6d" x="152.49"/><use xlink:href="#DejaVuSans-65" x="249.902"/><use xlink:href="#DejaVuSans-6e" x="311.426"/><use xlink:href="#DejaVuSans-74" x="374.805"/><use xlink:href="#DejaVuSans-20" x="414.014"/><use xlink:href="#DejaVuSans-43" x="445.801"/><use xlink:href="#DejaVuSans-6f" x="515.625"/><use xlink:href="#DejaVuSans-75" x="576.807"/><use xlink:href="#DejaVuSans-6e" x="640.186"/><use xlink:href="#DejaVuSans-74" x="703.564"/></g></g></g><defs><clipPath id="p0032945eef"><path d="M81.325 31.436h446.4v380.52h-446.4z"/></clipPath></defs></svg>