<svg height="607.59" viewBox="0 0 539.188 455.692" width="718.917" xmlns="http://www.w3.org/2000/svg" xmlns:xlink="http://www.w3.org/1999/xlink"><defs><style>*{stroke-linecap:butt;stroke-linejoin:round}</style></defs><g id="figure_1"><path d="M0 455.692h539.188V0H0z" fill="#fff" id="patch_1"/><g id="axes_1"><path d="M85.588 395.28h446.4V7.2h-446.4z" fill="#fff" id="patch_2"/><path clip-path="url(#p06dea04a12)" d="M105.878 50.656v-3.474l4.1-2.443 4.099-1.086 4.099-.576 4.1-.805 4.098-1.2 4.1-.856 4.099-.53 4.099-.466 4.099-.61 4.1-.22 4.098-.338 4.1-.847 4.099-.545 4.099-.274 4.099-.508 4.1-.26 4.098-.379 4.1-.368 4.099-.161 4.099-.32 4.1-.477 4.098-.488 4.1-.585 4.099-.359 4.099-.177 4.099-.542 4.1-.364 4.098-.136 4.1-.07 4.099-.147 4.099-.09 4.099-.182 4.1-.24 4.098-.477 4.1-.212 4.099-.428 4.099-.174 4.099-.283 4.1-.695 4.098-.513 4.1-.57 4.099-.182 4.099-.657 4.099-.342 4.1-.566 4.098-.247 4.1-.131 4.099-.142 4.099-.081 4.1-.605 4.098-.214 4.1-.211 4.099-.301 4.099-.583 4.099-.578 4.1-1.052 4.098-.392 4.1-.393 4.099-.077 4.099-.157 4.099-.996 4.1-.65 4.098-.26 4.1-.231 4.099-.248 4.099-1.59 4.099-.61 4.1-.725 4.098-.326 4.1-.565 4.099-1.642 4.099-.796 4.1-1.205 4.098-.448 4.1-.603 4.099-1.037 4.099-1.614 4.099-1.712 4.1-.733 4.098-1.563 4.1-2.315 4.099-1.07 4.099-3.183 4.099-1.938 4.1-2.04 4.098-.666 4.1-2.383 4.099-2.063 4.099-2.61 4.099-4.862 4.1-6.277 4.098-2.825 4.1-2.22 4.099-3.307 4.099-15.412 4.1-11.377 4.098-16.844 4.1-41.599 4.099-216.032V392.81l-4.1-200.532-4.099-32.886-4.099-16.61-4.1-11.159-4.098-15.318-4.1-3.106-4.099-1.955-4.099-2.44-4.099-6.14-4.1-4.76-4.098-2.471-4.1-1.998-4.099-2.256-4.099-.46-4.099-1.7-4.1-1.773-4.098-3.093-4.1-.996-4.099-2.198-4.099-1.508-4.1-.69-4.098-1.632-4.1-1.567-4.099-1.018-4.099-.539-4.099-.383-4.1-1.163-4.098-.763-4.1-1.588-4.099-.51-4.099-.295-4.099-.699-4.1-.584-4.098-1.562-4.1-.223-4.099-.195-4.099-.23-4.099-.628-4.1-.981-4.098-.14-4.1-.055-4.099-.38-4.099-.378-4.099-1.032-4.1-.551-4.098-.56-4.1-.284-4.099-.191-4.099-.187-4.1-.59-4.098-.06-4.1-.107-4.099-.116-4.099-.225-4.099-.556-4.1-.329-4.098-.63-4.1-.157-4.099-.546-4.099-.485-4.099-.68-4.1-.256-4.098-.159-4.1-.405-4.099-.185-4.099-.431-4.099-.207-4.1-.127-4.098-.04-4.1-.089-4.099-.024-4.099-.05-4.1-.315-4.098-.481-4.1-.094-4.099-.243-4.099-.381-4.099-.09-4.1-.216-4.098.104-4.1.047-4.099-.207-4.099-.056-4.099.06-4.1-.11-4.098-.074-4.1-.39-4.099-.594-4.099-.13-4.099-.08-4.1-.383-4.098-.308-4.1-.025-4.099-.517-4.099-.016-4.1.413-4.098.004-4.1.25-4.099.499z" fill="#1f77b4" fill-opacity=".2" id="PolyCollection_1"/><g id="matplotlib.axis_1"><g id="xtick_1"><g id="line2d_1"><defs><path d="M0 0v7" id="me3e17943a3" stroke="#000" stroke-width="2.5"/></defs><use x="101.779" xlink:href="#me3e17943a3" y="395.28" stroke="#000" stroke-width="2.5"/></g><g id="text_1"><defs><path d="M31.781 66.406q-7.61 0-11.453-7.5Q16.5 51.422 16.5 36.375q0-14.984 3.828-22.484 3.844-7.5 11.453-7.5 7.672 0 11.5 7.5 3.844 7.5 3.844 22.484 0 15.047-3.844 22.531-3.828 7.5-11.5 7.5zm0 7.813q12.266 0 18.735-9.703 6.468-9.688 6.468-28.141 0-18.406-6.468-28.11-6.47-9.687-18.735-9.687-12.25 0-18.718 9.688-6.47 9.703-6.47 28.109 0 18.453 6.47 28.14Q19.53 74.22 31.78 74.22z" id="DejaVuSans-48"/></defs><use xlink:href="#DejaVuSans-48" transform="matrix(.2 0 0 -.2 95.417 420.977)"/></g></g><g id="xtick_2"><use x="183.763" xlink:href="#me3e17943a3" y="395.28" stroke="#000" stroke-width="2.5" id="line2d_2"/><g id="text_2"><defs><path d="M19.188 8.297h34.421V0H7.33v8.297q5.609 5.812 15.296 15.594 9.703 9.797 12.188 12.64 4.734 5.313 6.609 9 1.89 3.688 1.89 7.25 0 5.813-4.078 9.469-4.078 3.672-10.625 3.672-4.64 0-9.797-1.61-5.14-1.609-11-4.89v9.969Q13.767 71.78 18.938 73q5.188 1.219 9.485 1.219 11.328 0 18.062-5.672 6.735-5.656 6.735-15.125 0-4.5-1.688-8.531-1.672-4.016-6.125-9.485-1.218-1.422-7.765-8.187-6.532-6.766-18.453-18.922z" id="DejaVuSans-50"/></defs><g transform="matrix(.2 0 0 -.2 171.038 420.977)"><use xlink:href="#DejaVuSans-50"/><use x="63.623" xlink:href="#DejaVuSans-48"/></g></g></g><g id="xtick_3"><use x="265.746" xlink:href="#me3e17943a3" y="395.28" stroke="#000" stroke-width="2.5" id="line2d_3"/><g id="text_3"><defs><path d="M37.797 64.313L12.89 25.39h24.906zm-2.594 8.593H47.61V25.391h10.407v-8.203H47.609V0h-9.812v17.188H4.89v9.515z" id="DejaVuSans-52"/></defs><g transform="matrix(.2 0 0 -.2 253.021 420.977)"><use xlink:href="#DejaVuSans-52"/><use x="63.623" xlink:href="#DejaVuSans-48"/></g></g></g><g id="xtick_4"><use x="347.73" xlink:href="#me3e17943a3" y="395.28" stroke="#000" stroke-width="2.5" id="line2d_4"/><g id="text_4"><defs><path d="M33.016 40.375q-6.641 0-10.532-4.547-3.875-4.531-3.875-12.437 0-7.86 3.875-12.438 3.891-4.562 10.532-4.562 6.64 0 10.515 4.562 3.875 4.578 3.875 12.438 0 7.906-3.875 12.437-3.875 4.547-10.515 4.547zm19.578 30.922v-8.984q-3.719 1.75-7.5 2.671-3.782.938-7.5.938-9.766 0-14.922-6.594-5.14-6.594-5.875-19.922 2.875 4.25 7.219 6.516 4.359 2.266 9.578 2.266 10.984 0 17.36-6.672 6.374-6.657 6.374-18.125 0-11.235-6.64-18.032-6.641-6.78-17.672-6.78-12.657 0-19.344 9.687-6.688 9.703-6.688 28.109 0 17.281 8.204 27.563 8.203 10.28 22.015 10.28 3.719 0 7.5-.734t7.89-2.187z" id="DejaVuSans-54"/></defs><g transform="matrix(.2 0 0 -.2 335.005 420.977)"><use xlink:href="#DejaVuSans-54"/><use x="63.623" xlink:href="#DejaVuSans-48"/></g></g></g><g id="xtick_5"><use x="429.713" xlink:href="#me3e17943a3" y="395.28" stroke="#000" stroke-width="2.5" id="line2d_5"/><g id="text_5"><defs><path d="M31.781 34.625q-7.031 0-11.062-3.766-4.016-3.765-4.016-10.343 0-6.594 4.016-10.36Q24.75 6.391 31.78 6.391q7.032 0 11.078 3.78 4.063 3.798 4.063 10.345 0 6.578-4.031 10.343-4.016 3.766-11.11 3.766zm-9.86 4.188q-6.343 1.562-9.89 5.906Q8.5 49.079 8.5 55.329q0 8.733 6.219 13.812 6.234 5.078 17.062 5.078 10.89 0 17.094-5.078 6.203-5.079 6.203-13.813 0-6.25-3.547-10.61-3.531-4.343-9.828-5.906 7.125-1.656 11.094-6.5 3.984-4.828 3.984-11.796 0-10.61-6.468-16.282-6.47-5.656-18.532-5.656-12.047 0-18.531 5.656-6.469 5.672-6.469 16.282 0 6.968 4 11.797 4.016 4.843 11.14 6.5zM18.314 54.39q0-5.657 3.53-8.828 3.548-3.172 9.938-3.172 6.36 0 9.938 3.172 3.593 3.171 3.593 8.828 0 5.672-3.593 8.843-3.578 3.172-9.938 3.172-6.39 0-9.937-3.172-3.532-3.172-3.532-8.843z" id="DejaVuSans-56"/></defs><g transform="matrix(.2 0 0 -.2 416.988 420.977)"><use xlink:href="#DejaVuSans-56"/><use x="63.623" xlink:href="#DejaVuSans-48"/></g></g></g><g id="xtick_6"><use x="511.697" xlink:href="#me3e17943a3" y="395.28" stroke="#000" stroke-width="2.5" id="line2d_6"/><g id="text_6"><defs><path d="M12.406 8.297h16.11v55.625l-17.532-3.516v8.985l17.438 3.515h9.86V8.296H54.39V0H12.406z" id="DejaVuSans-49"/></defs><g transform="matrix(.2 0 0 -.2 492.61 420.977)"><use xlink:href="#DejaVuSans-49"/><use x="63.623" xlink:href="#DejaVuSans-48"/><use x="127.246" xlink:href="#DejaVuSans-48"/></g></g></g><g id="text_7"><defs><path d="M56.203 29.594v-4.39H14.891q.593-9.282 5.593-14.142 5-4.859 13.938-4.859 5.172 0 10.031 1.266 4.86 1.265 9.656 3.812v-8.5Q49.266.734 44.187-.344 39.11-1.422 33.892-1.422q-13.094 0-20.735 7.61-7.64 7.625-7.64 20.625 0 13.421 7.25 21.296Q20.016 56 32.328 56q11.031 0 17.453-7.11 6.422-7.093 6.422-19.296zm-8.984 2.64q-.094 7.36-4.125 11.75-4.032 4.407-10.672 4.407-7.516 0-12.031-4.25-4.516-4.25-5.203-11.97z" id="DejaVuSans-101"/><path d="M41.11 46.297q-1.516.875-3.297 1.281Q36.03 48 33.89 48q-7.625 0-11.703-4.953-4.079-4.953-4.079-14.234V0H9.08v54.688h9.03v-8.5q2.844 4.984 7.375 7.39Q30.031 56 36.531 56q.922 0 2.047-.125 1.125-.11 2.484-.36z" id="DejaVuSans-114"/><path d="M30.61 48.39q-7.22 0-11.422-5.64-4.204-5.64-4.204-15.453 0-9.813 4.172-15.453 4.188-5.64 11.453-5.64 7.188 0 11.375 5.655 4.203 5.672 4.203 15.438 0 9.719-4.203 15.406-4.187 5.688-11.375 5.688zm0 7.61q11.718 0 18.406-7.625 6.703-7.61 6.703-21.078 0-13.422-6.703-21.078-6.688-7.64-18.407-7.64-11.765 0-18.437 7.64-6.656 7.656-6.656 21.078 0 13.469 6.656 21.078Q18.844 56 30.609 56z" id="DejaVuSans-111"/><path d="M25.39 72.906h8.297L8.297-9.28H0z" id="DejaVuSans-47"/><path d="M48.781 52.594v-8.407q-3.812 2.11-7.64 3.157-3.828 1.047-7.735 1.047-8.75 0-13.593-5.547-4.829-5.532-4.829-15.547 0-10.016 4.829-15.563 4.843-5.53 13.593-5.53 3.907 0 7.735 1.046 3.828 1.047 7.64 3.156V2.094Q45.016.344 40.984-.531q-4.015-.89-8.562-.89-12.36 0-19.64 7.765-7.266 7.765-7.266 20.953 0 13.375 7.343 21.031Q20.22 56 33.016 56q4.14 0 8.093-.86 3.953-.843 7.672-2.546z" id="DejaVuSans-99"/><path d="M54.89 33.016V0h-8.984v32.719q0 7.765-3.031 11.61-3.031 3.858-9.078 3.858-7.281 0-11.484-4.64-4.204-4.625-4.204-12.64V0H9.08v54.688h9.03v-8.5q3.235 4.937 7.594 7.374Q30.078 56 35.797 56q9.422 0 14.25-5.828 4.844-5.828 4.844-17.156z" id="DejaVuSans-110"/><path d="M37.11 75.984V68.5h-8.594q-4.828 0-6.72-1.953-1.874-1.953-1.874-7.031v-4.828h14.797v-6.985H19.922V0H10.89v47.703H2.297v6.984h8.594V58.5q0 9.125 4.25 13.297 4.25 4.187 13.468 4.187z" id="DejaVuSans-102"/><path d="M9.422 54.688h8.984V0H9.422zm0 21.296h8.984v-11.39H9.422z" id="DejaVuSans-105"/><path d="M45.406 46.39v29.594h8.985V0h-8.985v8.203Q42.578 3.328 38.25.953q-4.313-2.375-10.375-2.375-9.906 0-16.14 7.906-6.22 7.922-6.22 20.813 0 12.89 6.22 20.797Q17.968 56 27.874 56q6.063 0 10.375-2.375 4.328-2.36 7.156-7.234zm-30.61-19.093q0-9.906 4.079-15.547 4.078-5.64 11.203-5.64 7.125 0 11.219 5.64 4.11 5.64 4.11 15.547 0 9.906-4.11 15.547-4.094 5.64-11.219 5.64-7.125 0-11.203-5.64-4.078-5.64-4.078-15.547z" id="DejaVuSans-100"/><path d="M18.11 8.203v-29H9.077v75.484h9.031v-8.296q2.844 4.875 7.157 7.234Q29.594 56 35.594 56q9.968 0 16.187-7.906 6.235-7.907 6.235-20.797T51.78 6.484q-6.218-7.906-16.187-7.906-6 0-10.328 2.375-4.313 2.375-7.157 7.25zm30.578 19.094q0 9.906-4.079 15.547-4.078 5.64-11.203 5.64-7.14 0-11.218-5.64-4.079-5.64-4.079-15.547 0-9.906 4.078-15.547 4.079-5.64 11.22-5.64 7.124 0 11.202 5.64t4.078 15.547z" id="DejaVuSans-112"/><path d="M18.313 70.219V54.688h18.5v-6.985h-18.5V18.016q0-6.688 1.828-8.594 1.828-1.906 7.453-1.906h9.218V0h-9.218q-10.407 0-14.36 3.875-3.953 3.89-3.953 14.14v29.688H2.687v6.984h6.594V70.22z" id="DejaVuSans-116"/><path d="M9.422 75.984h8.984V0H9.422z" id="DejaVuSans-108"/></defs><g transform="matrix(.2 0 0 -.2 172.669 444.333)"><use xlink:href="#DejaVuSans-101"/><use x="61.523" xlink:href="#DejaVuSans-114"/><use x="102.621" xlink:href="#DejaVuSans-114"/><use x="143.703" xlink:href="#DejaVuSans-111"/><use x="204.885" xlink:href="#DejaVuSans-114"/><use x="245.998" xlink:href="#DejaVuSans-47"/><use x="279.689" xlink:href="#DejaVuSans-99"/><use x="334.67" xlink:href="#DejaVuSans-111"/><use x="395.852" xlink:href="#DejaVuSans-110"/><use x="459.23" xlink:href="#DejaVuSans-102"/><use x="494.436" xlink:href="#DejaVuSans-105"/><use x="522.219" xlink:href="#DejaVuSans-100"/><use x="585.695" xlink:href="#DejaVuSans-101"/><use x="647.219" xlink:href="#DejaVuSans-110"/><use x="710.598" xlink:href="#DejaVuSans-99"/><use x="765.578" xlink:href="#DejaVuSans-101"/><use x="827.102" xlink:href="#DejaVuSans-32"/><use x="858.889" xlink:href="#DejaVuSans-112"/><use x="922.365" xlink:href="#DejaVuSans-101"/><use x="983.889" xlink:href="#DejaVuSans-114"/><use x="1024.971" xlink:href="#DejaVuSans-99"/><use x="1079.951" xlink:href="#DejaVuSans-101"/><use x="1141.475" xlink:href="#DejaVuSans-110"/><use x="1204.854" xlink:href="#DejaVuSans-116"/><use x="1244.063" xlink:href="#DejaVuSans-105"/><use x="1271.846" xlink:href="#DejaVuSans-108"/><use x="1299.629" xlink:href="#DejaVuSans-101"/></g></g></g><g id="matplotlib.axis_2"><g id="ytick_1"><g id="line2d_7"><defs><path d="M0 0h-7" id="mb268331724" stroke="#000" stroke-width="2.5"/></defs><use x="85.588" xlink:href="#mb268331724" y="395.28" stroke="#000" stroke-width="2.5"/></g><g id="text_8"><defs><path d="M10.688 12.406H21V0H10.687z" id="DejaVuSans-46"/></defs><g transform="matrix(.2 0 0 -.2 30.556 402.878)"><use xlink:href="#DejaVuSans-48"/><use x="63.623" xlink:href="#DejaVuSans-46"/><use x="95.41" xlink:href="#DejaVuSans-48"/><use x="159.033" xlink:href="#DejaVuSans-48"/></g></g></g><g id="ytick_2"><use x="85.588" xlink:href="#mb268331724" y="322.775" stroke="#000" stroke-width="2.5" id="line2d_8"/><g id="text_9"><defs><path d="M10.797 72.906h38.719v-8.312H19.828v-17.86q2.14.735 4.281 1.094 2.157.36 4.313.36 12.203 0 19.328-6.688 7.14-6.688 7.14-18.11 0-11.765-7.328-18.296-7.328-6.516-20.656-6.516-4.593 0-9.36.781-4.75.782-9.827 2.344v9.922q4.39-2.39 9.078-3.563 4.687-1.171 9.906-1.171 8.453 0 13.375 4.437 4.938 4.438 4.938 12.063 0 7.609-4.938 12.047-4.922 4.453-13.375 4.453-3.953 0-7.89-.875-3.922-.875-8.016-2.735z" id="DejaVuSans-53"/></defs><g transform="matrix(.2 0 0 -.2 30.556 330.374)"><use xlink:href="#DejaVuSans-48"/><use x="63.623" xlink:href="#DejaVuSans-46"/><use x="95.41" xlink:href="#DejaVuSans-48"/><use x="159.033" xlink:href="#DejaVuSans-53"/></g></g></g><g id="ytick_3"><use x="85.588" xlink:href="#mb268331724" y="250.27" stroke="#000" stroke-width="2.5" id="line2d_9"/><g transform="matrix(.2 0 0 -.2 30.556 257.869)" id="text_10"><use xlink:href="#DejaVuSans-48"/><use x="63.623" xlink:href="#DejaVuSans-46"/><use x="95.41" xlink:href="#DejaVuSans-49"/><use x="159.033" xlink:href="#DejaVuSans-48"/></g></g><g id="ytick_4"><use x="85.588" xlink:href="#mb268331724" y="177.765" stroke="#000" stroke-width="2.5" id="line2d_10"/><g transform="matrix(.2 0 0 -.2 30.556 185.364)" id="text_11"><use xlink:href="#DejaVuSans-48"/><use x="63.623" xlink:href="#DejaVuSans-46"/><use x="95.41" xlink:href="#DejaVuSans-49"/><use x="159.033" xlink:href="#DejaVuSans-53"/></g></g><g id="ytick_5"><use x="85.588" xlink:href="#mb268331724" y="105.26" stroke="#000" stroke-width="2.5" id="line2d_11"/><g transform="matrix(.2 0 0 -.2 30.556 112.859)" id="text_12"><use xlink:href="#DejaVuSans-48"/><use x="63.623" xlink:href="#DejaVuSans-46"/><use x="95.41" xlink:href="#DejaVuSans-50"/><use x="159.033" xlink:href="#DejaVuSans-48"/></g></g><g id="ytick_6"><use x="85.588" xlink:href="#mb268331724" y="32.755" stroke="#000" stroke-width="2.5" id="line2d_12"/><g transform="matrix(.2 0 0 -.2 30.556 40.354)" id="text_13"><use xlink:href="#DejaVuSans-48"/><use x="63.623" xlink:href="#DejaVuSans-46"/><use x="95.41" xlink:href="#DejaVuSans-50"/><use x="159.033" xlink:href="#DejaVuSans-53"/></g></g><g id="text_14"><defs><path d="M19.734 29.5q-5.28 1.172-7.578 4.344-1.703 2.234-1.703 5.265 0 8.297 7.906 13.141 6.25 3.813 15.828 3.813 3.704 0 7.75-.594 4.063-.578 8.594-1.75l-1.562-8.157q-4.485 1.407-8.25 2.047-3.86.641-7.313.641-5.812 0-9.625-2.25-4.593-2.688-4.593-6.594 0-2.593 2.39-4.39 2.844-2.157 8.5-2.157h7.563l-1.407-7.422H29q-6.734 0-10.688-2.484-5.375-3.375-5.375-8.64 0-3.329 2.891-5.516 3.61-2.735 10.985-2.735 4.53 0 8.875.875 4.359.922 8.156 2.735l-1.657-8.36q-4.64-1.359-8.89-2.046-4.25-.688-8.156-.688-11.61 0-17.078 4.453-4.157 3.422-4.157 9.172 0 7.766 5.469 12.547 4.047 3.578 10.36 4.75z" id="DejaVuSans-Oblique-949"/><path d="M9.813 72.906h14.703l18.593-49.61 18.703 49.61h14.704V0H66.89v64.016l-18.797-50h-9.907l-18.796 50V0H9.813z" id="DejaVuSans-77"/><path d="M34.188 63.188L20.797 26.906h26.812zm-5.579 9.718h11.188L67.578 0h-10.25l-6.64 18.703h-32.86L11.188 0H.78z" id="DejaVuSans-65"/><path d="M9.813 72.906h46.093v-8.312H19.672V43.016H54.39v-8.297H19.67V8.297h37.11V0H9.813z" id="DejaVuSans-69"/></defs><g transform="matrix(0 -.2 -.2 0 22.397 222.24)"><use transform="translate(0 .938)" xlink:href="#DejaVuSans-Oblique-949"/><use transform="matrix(.7 0 0 .7 54.053 -15.469)" xlink:href="#DejaVuSans-77"/><use transform="matrix(.7 0 0 .7 114.448 -15.469)" xlink:href="#DejaVuSans-65"/><use transform="matrix(.7 0 0 .7 162.334 -15.469)" xlink:href="#DejaVuSans-69"/></g></g></g><path clip-path="url(#p06dea04a12)" d="M511.697 333.344l-4.1-20.93-4.099-2.898-4.099-1.867-4.1-.803-4.098-.59-4.1-.9-4.099-.727-4.099-.8-4.099-1.142-4.1-.81-4.098-2.37-4.1-2.82-4.099-1.013-4.099-1.115-4.099-1.057-4.1-2.485-4.098-5.905-4.1-2.036-4.099-2.752-4.099-3.268-4.1-6.614-4.098-12.642-4.1-1.689-4.099-1.696-4.099-3.15-4.099-1.119-4.1-.704-4.098-1.102-4.1-.446-4.099-.943-4.099-.443-4.099-1.517-4.1-4.845-4.098-1.35-4.1-1.212-4.099-5.975-4.099-.902-4.099-.803-4.1-1.03-4.098-6.652-4.1-3.554-4.099-.836-4.099-3.893-4.099-.63-4.1-.65-4.098-.985-4.1-2.226-4.099-3.946-4.099-2.082-4.1-1.004-4.098-2.256-4.1-2.053-4.099-.97-4.099-6.645-4.099-1.152-4.1-.772-4.098-.755-4.1-.528-4.099-.443-4.099-4.07-4.099-3.913-4.1-3.066-4.098-2.68-4.1-.908-4.099-3.412-4.099-1.43-4.099-4.152-4.1-1.617-4.098-5.08-4.1-2.65-4.099-.692-4.099-1.789-4.1-1.73-4.098-.91-4.1-4.784-4.099-4.61-4.099-3-4.099-4.07-4.1-4.542-4.098-1.986-4.1-2.384-4.099-3.252-4.099-1.75-4.099-.237-4.1-7.448-4.098-.401-4.1-2.108-4.099-4.36-4.099-4.765-4.099-4.196-4.1-7.89-4.098-5.43-4.1-6.535-4.099-6.71-4.099-7.536-4.1-5.893-4.098-3.487-4.1-.37-4.099-9.12" fill="none" stroke="#1f77b4" stroke-linecap="square" stroke-width="1.5" id="line2d_13"/><path clip-path="url(#p06dea04a12)" d="M511.697 393.227l-4.1-1.25-4.099-1.103-4.099-1.456-4.1-1.228-4.098-1.315-4.1-1.426-4.099-1.386-4.099-1.39-4.099-1.364-4.1-1.303-4.098-1.423-4.1-1.415-4.099-1.362-4.099-1.366-4.099-1.376-4.1-1.337-4.098-1.417-4.1-1.554-4.099-1.607-4.099-1.564-4.1-1.545-4.098-1.55-4.1-1.552-4.099-1.508-4.099-1.503-4.099-1.514-4.1-1.56-4.098-1.562-4.1-1.519-4.099-1.493-4.099-1.467-4.099-1.458-4.1-1.462-4.098-1.437-4.1-1.461-4.099-1.456-4.099-1.482-4.099-1.535-4.1-1.523-4.098-1.539-4.1-1.58-4.099-1.611-4.099-1.617-4.099-1.63-4.1-1.621-4.098-1.66-4.1-1.742-4.099-1.86-4.099-1.88-4.1-1.916-4.098-1.979-4.1-2.09-4.099-2.206-4.099-2.227-4.099-2.296-4.1-2.406-4.098-2.43-4.1-2.461-4.099-2.456-4.099-2.475-4.099-2.53-4.1-2.559-4.098-2.704-4.1-2.932-4.099-3.003-4.099-3.008-4.099-3.016-4.1-3.178-4.098-3.442-4.1-3.506-4.099-3.531-4.099-3.632-4.1-3.873-4.098-3.923-4.1-4.052-4.099-4.374-4.099-4.498-4.099-4.647-4.1-4.98-4.098-5.124-4.1-5.144-4.099-5.145-4.099-5.218-4.099-5.49-4.1-5.815-4.098-6.156-4.1-6.364-4.099-6.68-4.099-7.059-4.099-7.712-4.1-8.428-4.098-8.81-4.1-9.494-4.099-10.027-4.099-10.691-4.1-11.804-4.098-13.002-4.1-16.117-4.099-31.768" fill="none" stroke="#ff7f0e" stroke-linecap="square" stroke-width="1.5" id="line2d_14"/><path clip-path="url(#p06dea04a12)" d="M105.878 48.92l4.1-1.473 4.099-.667 4.099-.29 4.1-.61 4.098-.59 4.1-.17 4.099-.253 4.099-.079 4.099-.114 4.1-.069 4.098-.105 4.1-.126 4.099-.077 4.099-.1 4.099-.2 4.1-.16 4.098-.16 4.1-.081 4.099-.105 4.099-.211 4.1-.131 4.098-.199 4.1-.102 4.099-.058 4.099-.042 4.099-.03 4.1-.025 4.098-.043 4.1-.022 4.099-.03 4.099-.025 4.099-.027 4.1-.016 4.098-.023 4.1-.014 4.099-.011 4.099-.008 4.099-.013 4.1-.008 4.098-.014 4.1-.011 4.099-.013 4.099-.014 4.099-.007 4.1-.005 4.098-.01 4.1-.008 4.099-.018 4.099-.01 4.1-.007 4.098-.014 4.1-.01 4.099-.009 4.099-.011 4.099-.013 4.1-.01 4.098-.008 4.1-.006 4.099-.011 4.099-.008 4.099-.008 4.1-.012 4.098-.014 4.1-.018 4.099-.012 4.099-.014 4.099-.014 4.1-.012 4.098-.016 4.1-.028 4.099-.027 4.099-.016 4.1-.021 4.098-.032 4.1-.032 4.099-.01 4.099-.023 4.099-.04 4.1-.022 4.098-.027 4.1-.059 4.099-.037 4.099-.045 4.099-.083 4.1-.17 4.098-.103 4.1-.063 4.099-.032 4.099-.07 4.099-.051 4.1-.069 4.098-.192 4.1-.132 4.099-.1 4.099-.048 4.1-.11 4.098-.116 4.1-4.356 4.099-7.75" fill="none" stroke="#2ca02c" stroke-linecap="square" stroke-width="1.5" id="line2d_15"/><path d="M85.588 395.28V7.2" fill="none" stroke="#000" stroke-linecap="square" stroke-width="2.5" id="patch_3"/><path d="M531.987 395.28V7.2" fill="none" stroke="#000" stroke-linecap="square" stroke-width="2.5" id="patch_4"/><path d="M85.588 395.28h446.4" fill="none" stroke="#000" stroke-linecap="square" stroke-width="2.5" id="patch_5"/><path d="M85.588 7.2h446.4" fill="none" stroke="#000" stroke-linecap="square" stroke-width="2.5" id="patch_6"/><g id="legend_1"><path d="M99.588 385.28h141.568q4 0 4-4v-86.069q0-4-4-4H99.587q-4 0-4 4v86.069q0 4 4 4z" fill="#fff" opacity=".8" stroke="#ccc" id="patch_7"/><path d="M103.588 307.408h40" fill="none" stroke="#1f77b4" stroke-linecap="square" stroke-width="1.5" id="line2d_16"/><g id="text_15"><defs><path d="M44.281 53.078v-8.5q-3.797 1.953-7.906 2.922-4.094.984-8.5.984-6.688 0-10.031-2.047-3.344-2.046-3.344-6.156 0-3.125 2.39-4.906 2.391-1.781 9.626-3.39l3.078-.688q9.562-2.047 13.593-5.781 4.032-3.735 4.032-10.422 0-7.625-6.032-12.078-6.03-4.438-16.578-4.438-4.39 0-9.156.86Q10.688.296 5.422 2v9.281q4.984-2.594 9.812-3.89 4.829-1.282 9.579-1.282 6.343 0 9.75 2.172 3.421 2.172 3.421 6.125 0 3.656-2.468 5.61-2.453 1.953-10.813 3.765l-3.125.735q-8.344 1.75-12.062 5.39-3.704 3.64-3.704 9.985 0 7.718 5.47 11.906Q16.75 56 26.811 56q4.97 0 9.36-.734 4.406-.72 8.11-2.188z" id="DejaVuSans-115"/></defs><g transform="matrix(.2 0 0 -.2 159.588 314.408)"><use xlink:href="#DejaVuSans-115"/><use x="52.1" xlink:href="#DejaVuSans-116"/><use x="91.309" xlink:href="#DejaVuSans-100"/></g></g><path d="M103.588 336.764h40" fill="none" stroke="#ff7f0e" stroke-linecap="square" stroke-width="1.5" id="line2d_18"/><g transform="matrix(.2 0 0 -.2 159.588 343.764)" id="text_16"><use xlink:href="#DejaVuSans-101"/><use x="61.523" xlink:href="#DejaVuSans-114"/><use x="102.621" xlink:href="#DejaVuSans-114"/><use x="143.703" xlink:href="#DejaVuSans-111"/><use x="204.885" xlink:href="#DejaVuSans-114"/></g><path d="M103.588 373.12h40v-14h-40z" fill="#1f77b4" opacity=".2" id="patch_8"/><g id="text_17"><defs><path d="M34.281 27.484q-10.89 0-15.093-2.484-4.204-2.484-4.204-8.5 0-4.781 3.157-7.594 3.156-2.797 8.562-2.797 7.485 0 12 5.297 4.516 5.297 4.516 14.078v2zm17.922 3.72V0H43.22v8.297Q40.14 3.328 35.547.953q-4.594-2.375-11.234-2.375-8.391 0-13.36 4.719Q6 8.016 6 15.922q0 9.219 6.172 13.906 6.187 4.688 18.437 4.688h12.61v.89q0 6.203-4.078 9.594-4.078 3.39-11.453 3.39-4.688 0-9.141-1.124-4.438-1.125-8.531-3.375v8.312q4.921 1.906 9.562 2.844 4.64.953 9.031.953 11.875 0 17.735-6.156 5.86-6.14 5.86-18.64z" id="DejaVuSans-97"/><path d="M52 44.188q3.375 6.062 8.063 8.937Q64.75 56 71.093 56q8.548 0 13.188-5.984 4.64-5.97 4.64-17V0h-9.03v32.719q0 7.86-2.797 11.656-2.781 3.813-8.485 3.813-6.984 0-11.046-4.641-4.047-4.625-4.047-12.64V0h-9.032v32.719q0 7.906-2.78 11.687-2.782 3.782-8.595 3.782-6.89 0-10.953-4.657-4.047-4.656-4.047-12.625V0H9.08v54.688h9.03v-8.5q3.078 5.03 7.375 7.421Q29.781 56 35.687 56q5.97 0 10.141-3.031Q50 49.953 52 44.187z" id="DejaVuSans-109"/></defs><g transform="matrix(.2 0 0 -.2 159.588 373.12)"><use xlink:href="#DejaVuSans-114"/><use x="41.113" xlink:href="#DejaVuSans-97"/><use x="102.393" xlink:href="#DejaVuSans-110"/><use x="165.771" xlink:href="#DejaVuSans-100"/><use x="229.248" xlink:href="#DejaVuSans-111"/><use x="290.43" xlink:href="#DejaVuSans-109"/></g></g></g></g></g><defs><clipPath id="p06dea04a12"><path d="M85.588 7.2h446.4v388.08h-446.4z"/></clipPath></defs></svg>