<svg height="597.51" viewBox="0 0 539.188 448.132" width="718.917" xmlns="http://www.w3.org/2000/svg" xmlns:xlink="http://www.w3.org/1999/xlink"><defs><style>*{stroke-linecap:butt;stroke-linejoin:round}</style></defs><g id="figure_1"><path d="M0 448.132h539.188V0H0z" fill="none" id="patch_1"/><g id="axes_1"><path d="M85.588 387.72h446.4V7.2h-446.4z" fill="#fff" id="patch_2"/><path clip-path="url(#p737ab58d7e)" d="M105.878 48.14v-2.71l4.1-1.34 4.099-1.605 4.099-1.19 4.1-.753 4.098-.425 4.1-.216 4.099-.481 4.099-.335 4.099-.305 4.1-.265 4.098-.337 4.1-.239 4.099-.384 4.099-.3 4.099-.234 4.1-.598 4.098-.395 4.1-.473 4.099-.429 4.099-.275 4.1-.266 4.098-.205 4.1-.37 4.099-.154 4.099-.138 4.099-.333 4.1-.356 4.098-.244 4.1-.22 4.099-.392 4.099-.638 4.099-.445 4.1-.263 4.098-.286 4.1-.273 4.099-.3 4.099-.528 4.099-.39 4.1-.311 4.098-.274 4.1-.442 4.099-.27 4.099-.234 4.099-.587 4.1-.857 4.098-.55 4.1-.23 4.099-.172 4.099-.397 4.1-.434 4.098-.346 4.1-.276 4.099-.157 4.099-.093 4.099-.116 4.1-.158 4.098-.206 4.1-.676 4.099-.821 4.099-.396 4.099-.213 4.1-.172 4.098-.434 4.1-1.508 4.099-.702 4.099-.34 4.099-.294 4.1-.91 4.098-.516 4.1-.4 4.099-1.214 4.099-.668 4.1-1.292 4.098-1.542 4.1-1.498 4.099-1.217 4.099-1.495 4.099-1.02 4.1-.923 4.098-.69 4.1-.338 4.099-1.006 4.099-.81 4.099-1.39 4.1-3.613 4.098-3.445 4.1-5.796 4.099-.943 4.099-1.133 4.099-1.602 4.1-.809 4.098-4.072 4.1-4.479 4.099-9.056 4.099-12.828 4.1-17.579 4.098-39.274 4.1-45.666 4.099-356.024V462.84l-4.1-242.001-4.099-37.1-4.099-37.274-4.1-17.042-4.098-12.439-4.1-8.843-4.099-4.399-4.099-4.015-4.099-.772-4.1-1.535-4.098-1.088-4.1-.857-4.099-5.751-4.099-3.378-4.099-3.564-4.1-1.37-4.098-.775-4.1-.962-4.099-.313-4.099-.668-4.1-.91-4.098-.984-4.1-1.466-4.099-1.178-4.099-1.48-4.099-1.522-4.1-1.282-4.098-.638-4.1-1.186-4.099-.38-4.099-.503-4.099-.897-4.1-.278-4.098-.322-4.1-.674-4.099-1.472-4.099-.41-4.099-.151-4.1-.174-4.098-.374-4.1-.782-4.099-.66-4.099-.156-4.099-.124-4.1-.067-4.098-.002-4.1-.076-4.099-.193-4.099-.226-4.1-.349-4.098-.342-4.1-.109-4.099-.218-4.099-.49-4.099-.792-4.1-.535-4.098-.204-4.1-.22-4.099-.395-4.099-.237-4.099-.217-4.1-.345-4.098-.452-4.1-.226-4.099-.082-4.099-.16-4.099-.149-4.1-.342-4.098-.577-4.1-.272-4.099-.143-4.099-.142-4.1-.232-4.098-.251-4.1-.09-4.099-.048-4.099-.304-4.099-.133-4.1-.203-4.098-.208-4.1-.336-4.099-.414-4.099-.285-4.099-.572-4.1-.19-4.098-.198-4.1-.287-4.099-.202-4.099-.22-4.099-.167-4.1-.151-4.098-.246-4.1-.37-4.099-.028-4.099-.148-4.1-.404-4.098.596-4.1.332-4.099-.23z" fill="#1f77b4" fill-opacity=".2" id="PolyCollection_1"/><g id="matplotlib.axis_1"><g id="xtick_1"><g id="line2d_1"><defs><path d="M0 0v7" id="m0d75884b06" stroke="#000" stroke-width="2.5"/></defs><use x="101.779" xlink:href="#m0d75884b06" y="387.72" stroke="#000" stroke-width="2.5"/></g><g transform="matrix(.2 0 0 -.2 95.417 413.417)" id="text_1"><defs><path d="M31.781 66.406q-7.61 0-11.453-7.5Q16.5 51.422 16.5 36.375q0-14.984 3.828-22.484 3.844-7.5 11.453-7.5 7.672 0 11.5 7.5 3.844 7.5 3.844 22.484 0 15.047-3.844 22.531-3.828 7.5-11.5 7.5zm0 7.813q12.266 0 18.735-9.703 6.468-9.688 6.468-28.141 0-18.406-6.468-28.11-6.47-9.687-18.735-9.687-12.25 0-18.718 9.688-6.47 9.703-6.47 28.109 0 18.453 6.47 28.14Q19.53 74.22 31.78 74.22z" id="DejaVuSans-48"/></defs><use xlink:href="#DejaVuSans-48"/></g></g><g id="xtick_2"><use x="183.763" xlink:href="#m0d75884b06" y="387.72" stroke="#000" stroke-width="2.5" id="line2d_2"/><g transform="matrix(.2 0 0 -.2 171.038 413.417)" id="text_2"><defs><path d="M19.188 8.297h34.421V0H7.33v8.297q5.609 5.812 15.296 15.594 9.703 9.797 12.188 12.64 4.734 5.313 6.609 9 1.89 3.688 1.89 7.25 0 5.813-4.078 9.469-4.078 3.672-10.625 3.672-4.64 0-9.797-1.61-5.14-1.609-11-4.89v9.969Q13.767 71.78 18.938 73q5.188 1.219 9.485 1.219 11.328 0 18.062-5.672 6.735-5.656 6.735-15.125 0-4.5-1.688-8.531-1.672-4.016-6.125-9.485-1.218-1.422-7.765-8.187-6.532-6.766-18.453-18.922z" id="DejaVuSans-50"/></defs><use xlink:href="#DejaVuSans-50"/><use x="63.623" xlink:href="#DejaVuSans-48"/></g></g><g id="xtick_3"><use x="265.746" xlink:href="#m0d75884b06" y="387.72" stroke="#000" stroke-width="2.5" id="line2d_3"/><g transform="matrix(.2 0 0 -.2 253.021 413.417)" id="text_3"><defs><path d="M37.797 64.313L12.89 25.39h24.906zm-2.594 8.593H47.61V25.391h10.407v-8.203H47.609V0h-9.812v17.188H4.89v9.515z" id="DejaVuSans-52"/></defs><use xlink:href="#DejaVuSans-52"/><use x="63.623" xlink:href="#DejaVuSans-48"/></g></g><g id="xtick_4"><use x="347.73" xlink:href="#m0d75884b06" y="387.72" stroke="#000" stroke-width="2.5" id="line2d_4"/><g transform="matrix(.2 0 0 -.2 335.005 413.417)" id="text_4"><defs><path d="M33.016 40.375q-6.641 0-10.532-4.547-3.875-4.531-3.875-12.437 0-7.86 3.875-12.438 3.891-4.562 10.532-4.562 6.64 0 10.515 4.562 3.875 4.578 3.875 12.438 0 7.906-3.875 12.437-3.875 4.547-10.515 4.547zm19.578 30.922v-8.984q-3.719 1.75-7.5 2.671-3.782.938-7.5.938-9.766 0-14.922-6.594-5.14-6.594-5.875-19.922 2.875 4.25 7.219 6.516 4.359 2.266 9.578 2.266 10.984 0 17.36-6.672 6.374-6.657 6.374-18.125 0-11.235-6.64-18.032-6.641-6.78-17.672-6.78-12.657 0-19.344 9.687-6.688 9.703-6.688 28.109 0 17.281 8.204 27.563 8.203 10.28 22.015 10.28 3.719 0 7.5-.734t7.89-2.187z" id="DejaVuSans-54"/></defs><use xlink:href="#DejaVuSans-54"/><use x="63.623" xlink:href="#DejaVuSans-48"/></g></g><g id="xtick_5"><use x="429.713" xlink:href="#m0d75884b06" y="387.72" stroke="#000" stroke-width="2.5" id="line2d_5"/><g transform="matrix(.2 0 0 -.2 416.988 413.417)" id="text_5"><defs><path d="M31.781 34.625q-7.031 0-11.062-3.766-4.016-3.765-4.016-10.343 0-6.594 4.016-10.36Q24.75 6.391 31.78 6.391q7.032 0 11.078 3.78 4.063 3.798 4.063 10.345 0 6.578-4.031 10.343-4.016 3.766-11.11 3.766zm-9.86 4.188q-6.343 1.562-9.89 5.906Q8.5 49.079 8.5 55.329q0 8.733 6.219 13.812 6.234 5.078 17.062 5.078 10.89 0 17.094-5.078 6.203-5.079 6.203-13.813 0-6.25-3.547-10.61-3.531-4.343-9.828-5.906 7.125-1.656 11.094-6.5 3.984-4.828 3.984-11.796 0-10.61-6.468-16.282-6.47-5.656-18.532-5.656-12.047 0-18.531 5.656-6.469 5.672-6.469 16.282 0 6.968 4 11.797 4.016 4.843 11.14 6.5zM18.314 54.39q0-5.657 3.53-8.828 3.548-3.172 9.938-3.172 6.36 0 9.938 3.172 3.593 3.171 3.593 8.828 0 5.672-3.593 8.843-3.578 3.172-9.938 3.172-6.39 0-9.937-3.172-3.532-3.172-3.532-8.843z" id="DejaVuSans-56"/></defs><use xlink:href="#DejaVuSans-56"/><use x="63.623" xlink:href="#DejaVuSans-48"/></g></g><g id="xtick_6"><use x="511.697" xlink:href="#m0d75884b06" y="387.72" stroke="#000" stroke-width="2.5" id="line2d_6"/><g transform="matrix(.2 0 0 -.2 492.61 413.417)" id="text_6"><defs><path d="M12.406 8.297h16.11v55.625l-17.532-3.516v8.985l17.438 3.515h9.86V8.296H54.39V0H12.406z" id="DejaVuSans-49"/></defs><use xlink:href="#DejaVuSans-49"/><use x="63.623" xlink:href="#DejaVuSans-48"/><use x="127.246" xlink:href="#DejaVuSans-48"/></g></g><g transform="matrix(.2 0 0 -.2 173.286 436.773)" id="text_7"><defs><path d="M56.203 29.594v-4.39H14.891q.593-9.282 5.593-14.142 5-4.859 13.938-4.859 5.172 0 10.031 1.266 4.86 1.265 9.656 3.812v-8.5Q49.266.734 44.187-.344 39.11-1.422 33.892-1.422q-13.094 0-20.735 7.61-7.64 7.625-7.64 20.625 0 13.421 7.25 21.296Q20.016 56 32.328 56q11.031 0 17.453-7.11 6.422-7.093 6.422-19.296zm-8.984 2.64q-.094 7.36-4.125 11.75-4.032 4.407-10.672 4.407-7.516 0-12.031-4.25-4.516-4.25-5.203-11.97z" id="DejaVuSans-101"/><path d="M41.11 46.297q-1.516.875-3.297 1.281Q36.03 48 33.89 48q-7.625 0-11.703-4.953-4.079-4.953-4.079-14.234V0H9.08v54.688h9.03v-8.5q2.844 4.984 7.375 7.39Q30.031 56 36.531 56q.922 0 2.047-.125 1.125-.11 2.484-.36z" id="DejaVuSans-114"/><path d="M30.61 48.39q-7.22 0-11.422-5.64-4.204-5.64-4.204-15.453 0-9.813 4.172-15.453 4.188-5.64 11.453-5.64 7.188 0 11.375 5.655 4.203 5.672 4.203 15.438 0 9.719-4.203 15.406-4.187 5.688-11.375 5.688zm0 7.61q11.718 0 18.406-7.625 6.703-7.61 6.703-21.078 0-13.422-6.703-21.078-6.688-7.64-18.407-7.64-11.765 0-18.437 7.64-6.656 7.656-6.656 21.078 0 13.469 6.656 21.078Q18.844 56 30.609 56z" id="DejaVuSans-111"/><path d="M25.39 72.906h8.297L8.297-9.28H0z" id="DejaVuSans-47"/><path d="M48.781 52.594v-8.407q-3.812 2.11-7.64 3.157-3.828 1.047-7.735 1.047-8.75 0-13.593-5.547-4.829-5.532-4.829-15.547 0-10.016 4.829-15.563 4.843-5.53 13.593-5.53 3.907 0 7.735 1.046 3.828 1.047 7.64 3.156V2.094Q45.016.344 40.984-.531q-4.015-.89-8.562-.89-12.36 0-19.64 7.765-7.266 7.765-7.266 20.953 0 13.375 7.343 21.031Q20.22 56 33.016 56q4.14 0 8.093-.86 3.953-.843 7.672-2.546z" id="DejaVuSans-99"/><path d="M54.89 33.016V0h-8.984v32.719q0 7.765-3.031 11.61-3.031 3.858-9.078 3.858-7.281 0-11.484-4.64-4.204-4.625-4.204-12.64V0H9.08v54.688h9.03v-8.5q3.235 4.937 7.594 7.374Q30.078 56 35.797 56q9.422 0 14.25-5.828 4.844-5.828 4.844-17.156z" id="DejaVuSans-110"/><path d="M37.11 75.984V68.5h-8.594q-4.828 0-6.72-1.953-1.874-1.953-1.874-7.031v-4.828h14.797v-6.985H19.922V0H10.89v47.703H2.297v6.984h8.594V58.5q0 9.125 4.25 13.297 4.25 4.187 13.468 4.187z" id="DejaVuSans-102"/><path d="M9.422 54.688h8.984V0H9.422zm0 21.296h8.984v-11.39H9.422z" id="DejaVuSans-105"/><path d="M45.406 46.39v29.594h8.985V0h-8.985v8.203Q42.578 3.328 38.25.953q-4.313-2.375-10.375-2.375-9.906 0-16.14 7.906-6.22 7.922-6.22 20.813 0 12.89 6.22 20.797Q17.968 56 27.874 56q6.063 0 10.375-2.375 4.328-2.36 7.156-7.234zm-30.61-19.093q0-9.906 4.079-15.547 4.078-5.64 11.203-5.64 7.125 0 11.219 5.64 4.11 5.64 4.11 15.547 0 9.906-4.11 15.547-4.094 5.64-11.219 5.64-7.125 0-11.203-5.64-4.078-5.64-4.078-15.547z" id="DejaVuSans-100"/><path d="M18.11 8.203v-29H9.077v75.484h9.031v-8.296q2.844 4.875 7.157 7.234Q29.594 56 35.594 56q9.968 0 16.187-7.906 6.235-7.907 6.235-20.797T51.78 6.484q-6.218-7.906-16.187-7.906-6 0-10.328 2.375-4.313 2.375-7.157 7.25zm30.578 19.094q0 9.906-4.079 15.547-4.078 5.64-11.203 5.64-7.14 0-11.218-5.64-4.079-5.64-4.079-15.547 0-9.906 4.078-15.547 4.079-5.64 11.22-5.64 7.124 0 11.202 5.64t4.078 15.547z" id="DejaVuSans-112"/><path d="M18.313 70.219V54.688h18.5v-6.985h-18.5V18.016q0-6.688 1.828-8.594 1.828-1.906 7.453-1.906h9.218V0h-9.218q-10.407 0-14.36 3.875-3.953 3.89-3.953 14.14v29.688H2.687v6.984h6.594V70.22z" id="DejaVuSans-116"/><path d="M9.422 75.984h8.984V0H9.422z" id="DejaVuSans-108"/></defs><use xlink:href="#DejaVuSans-101"/><use x="61.523" xlink:href="#DejaVuSans-114"/><use x="100.887" xlink:href="#DejaVuSans-114"/><use x="139.75" xlink:href="#DejaVuSans-111"/><use x="200.932" xlink:href="#DejaVuSans-114"/><use x="242.045" xlink:href="#DejaVuSans-47"/><use x="275.736" xlink:href="#DejaVuSans-99"/><use x="330.717" xlink:href="#DejaVuSans-111"/><use x="391.898" xlink:href="#DejaVuSans-110"/><use x="455.277" xlink:href="#DejaVuSans-102"/><use x="490.482" xlink:href="#DejaVuSans-105"/><use x="518.266" xlink:href="#DejaVuSans-100"/><use x="581.742" xlink:href="#DejaVuSans-101"/><use x="643.266" xlink:href="#DejaVuSans-110"/><use x="706.645" xlink:href="#DejaVuSans-99"/><use x="761.625" xlink:href="#DejaVuSans-101"/><use x="823.148" xlink:href="#DejaVuSans-32"/><use x="854.936" xlink:href="#DejaVuSans-112"/><use x="918.412" xlink:href="#DejaVuSans-101"/><use x="979.936" xlink:href="#DejaVuSans-114"/><use x="1018.799" xlink:href="#DejaVuSans-99"/><use x="1073.779" xlink:href="#DejaVuSans-101"/><use x="1135.303" xlink:href="#DejaVuSans-110"/><use x="1198.682" xlink:href="#DejaVuSans-116"/><use x="1237.891" xlink:href="#DejaVuSans-105"/><use x="1265.674" xlink:href="#DejaVuSans-108"/><use x="1293.457" xlink:href="#DejaVuSans-101"/></g></g><g id="matplotlib.axis_2"><g id="ytick_1"><g id="line2d_7"><defs><path d="M0 0h-7" id="m286752285f" stroke="#000" stroke-width="2.5"/></defs><use x="85.588" xlink:href="#m286752285f" y="387.72" stroke="#000" stroke-width="2.5"/></g><g transform="matrix(.2 0 0 -.2 30.556 395.318)" id="text_8"><defs><path d="M10.688 12.406H21V0H10.687z" id="DejaVuSans-46"/></defs><use xlink:href="#DejaVuSans-48"/><use x="63.623" xlink:href="#DejaVuSans-46"/><use x="95.41" xlink:href="#DejaVuSans-48"/><use x="159.033" xlink:href="#DejaVuSans-48"/></g></g><g id="ytick_2"><use x="85.588" xlink:href="#m286752285f" y="316.813" stroke="#000" stroke-width="2.5" id="line2d_8"/><g transform="matrix(.2 0 0 -.2 30.556 324.411)" id="text_9"><defs><path d="M10.797 72.906h38.719v-8.312H19.828v-17.86q2.14.735 4.281 1.094 2.157.36 4.313.36 12.203 0 19.328-6.688 7.14-6.688 7.14-18.11 0-11.765-7.328-18.296-7.328-6.516-20.656-6.516-4.593 0-9.36.781-4.75.782-9.827 2.344v9.922q4.39-2.39 9.078-3.563 4.687-1.171 9.906-1.171 8.453 0 13.375 4.437 4.938 4.438 4.938 12.063 0 7.609-4.938 12.047-4.922 4.453-13.375 4.453-3.953 0-7.89-.875-3.922-.875-8.016-2.735z" id="DejaVuSans-53"/></defs><use xlink:href="#DejaVuSans-48"/><use x="63.623" xlink:href="#DejaVuSans-46"/><use x="95.41" xlink:href="#DejaVuSans-48"/><use x="159.033" xlink:href="#DejaVuSans-53"/></g></g><g id="ytick_3"><use x="85.588" xlink:href="#m286752285f" y="245.906" stroke="#000" stroke-width="2.5" id="line2d_9"/><g transform="matrix(.2 0 0 -.2 30.556 253.504)" id="text_10"><use xlink:href="#DejaVuSans-48"/><use x="63.623" xlink:href="#DejaVuSans-46"/><use x="95.41" xlink:href="#DejaVuSans-49"/><use x="159.033" xlink:href="#DejaVuSans-48"/></g></g><g id="ytick_4"><use x="85.588" xlink:href="#m286752285f" y="174.999" stroke="#000" stroke-width="2.5" id="line2d_10"/><g transform="matrix(.2 0 0 -.2 30.556 182.597)" id="text_11"><use xlink:href="#DejaVuSans-48"/><use x="63.623" xlink:href="#DejaVuSans-46"/><use x="95.41" xlink:href="#DejaVuSans-49"/><use x="159.033" xlink:href="#DejaVuSans-53"/></g></g><g id="ytick_5"><use x="85.588" xlink:href="#m286752285f" y="104.092" stroke="#000" stroke-width="2.5" id="line2d_11"/><g transform="matrix(.2 0 0 -.2 30.556 111.69)" id="text_12"><use xlink:href="#DejaVuSans-48"/><use x="63.623" xlink:href="#DejaVuSans-46"/><use x="95.41" xlink:href="#DejaVuSans-50"/><use x="159.033" xlink:href="#DejaVuSans-48"/></g></g><g id="ytick_6"><use x="85.588" xlink:href="#m286752285f" y="33.185" stroke="#000" stroke-width="2.5" id="line2d_12"/><g transform="matrix(.2 0 0 -.2 30.556 40.783)" id="text_13"><use xlink:href="#DejaVuSans-48"/><use x="63.623" xlink:href="#DejaVuSans-46"/><use x="95.41" xlink:href="#DejaVuSans-50"/><use x="159.033" xlink:href="#DejaVuSans-53"/></g></g><g transform="matrix(0 -.2 -.2 0 22.397 218.46)" id="text_14"><defs><path d="M19.734 29.5q-5.28 1.172-7.578 4.344-1.703 2.234-1.703 5.265 0 8.297 7.906 13.141 6.25 3.813 15.828 3.813 3.704 0 7.75-.594 4.063-.578 8.594-1.75l-1.562-8.157q-4.485 1.407-8.25 2.047-3.86.641-7.313.641-5.812 0-9.625-2.25-4.593-2.688-4.593-6.594 0-2.593 2.39-4.39 2.844-2.157 8.5-2.157h7.563l-1.407-7.422H29q-6.734 0-10.688-2.484-5.375-3.375-5.375-8.64 0-3.329 2.891-5.516 3.61-2.735 10.985-2.735 4.53 0 8.875.875 4.359.922 8.156 2.735l-1.657-8.36q-4.64-1.359-8.89-2.046-4.25-.688-8.156-.688-11.61 0-17.078 4.453-4.157 3.422-4.157 9.172 0 7.766 5.469 12.547 4.047 3.578 10.36 4.75z" id="DejaVuSans-Oblique-949"/><path d="M9.813 72.906h14.703l18.593-49.61 18.703 49.61h14.704V0H66.89v64.016l-18.797-50h-9.907l-18.796 50V0H9.813z" id="DejaVuSans-77"/><path d="M34.188 63.188L20.797 26.906h26.812zm-5.579 9.718h11.188L67.578 0h-10.25l-6.64 18.703h-32.86L11.188 0H.78z" id="DejaVuSans-65"/><path d="M9.813 72.906h46.093v-8.312H19.672V43.016H54.39v-8.297H19.67V8.297h37.11V0H9.813z" id="DejaVuSans-69"/></defs><use transform="translate(0 .938)" xlink:href="#DejaVuSans-Oblique-949"/><use transform="matrix(.7 0 0 .7 54.053 -15.469)" xlink:href="#DejaVuSans-77"/><use transform="matrix(.7 0 0 .7 114.448 -15.469)" xlink:href="#DejaVuSans-65"/><use transform="matrix(.7 0 0 .7 162.334 -15.469)" xlink:href="#DejaVuSans-69"/></g></g><path clip-path="url(#p737ab58d7e)" d="M511.697 327.149l-4.1-20.469-4.099-2.834-4.099-1.825-4.1-.786-4.098-.577-4.1-.88-4.099-.71-4.099-.784-4.099-1.117-4.1-.791-4.098-2.319-4.1-2.758-4.099-.99-4.099-1.09-4.099-1.034-4.1-2.43-4.098-5.775-4.1-1.99-4.099-2.692-4.099-3.196-4.1-6.468-4.098-12.364-4.1-1.652-4.099-1.659-4.099-3.08-4.099-1.094-4.1-.689-4.098-1.077-4.1-.437-4.099-.922-4.099-.433-4.099-1.483-4.1-4.74-4.098-1.32-4.1-1.184-4.099-5.844-4.099-.882-4.099-.785-4.1-1.007-4.098-6.506-4.1-3.475-4.099-.818-4.099-3.807-4.099-.617-4.1-.636-4.098-.963-4.1-2.177-4.099-3.858-4.099-2.036-4.1-.983-4.098-2.206-4.1-2.008-4.099-.948-4.099-6.498-4.099-1.128-4.1-.754-4.098-.738-4.1-.517-4.099-.433-4.099-3.98-4.099-3.827-4.1-2.999-4.098-2.622-4.1-.887-4.099-3.337-4.099-1.398-4.099-4.06-4.1-1.581-4.098-4.969-4.1-2.592-4.099-.676-4.099-1.75-4.1-1.692-4.098-.889-4.1-4.679-4.099-4.508-4.099-2.934-4.099-3.98-4.1-4.443-4.098-1.942-4.1-2.332-4.099-3.18-4.099-1.71-4.099-.233-4.1-7.284-4.098-.392-4.1-2.061-4.099-4.265-4.099-4.66-4.099-4.103-4.1-7.716-4.098-5.31-4.1-6.391-4.099-6.562-4.099-7.37-4.1-5.764-4.098-3.41-4.1-.362-4.099-8.918" fill="none" stroke="#1f77b4" stroke-linecap="square" stroke-width="1.5" id="line2d_13"/><path clip-path="url(#p737ab58d7e)" d="M511.697 286.262l-4.1-58.547-4.099-18.124-4.099-2.664-4.1-1.748-4.098-4.583-4.1-2.356-4.099-3.012-4.099-2.883-4.099-3.58-4.1-5.599-4.098-7.277-4.1-6.808-4.099-2.115-4.099-3.027-4.099-1.371-4.1-1.378-4.098-2.819-4.1-1.185-4.099-1.355-4.099-1.752-4.1-2.254-4.098-2.333-4.1-2.772-4.099-.93-4.099-.737-4.099-.541-4.1-.504-4.098-.468-4.1-.55-4.099-.57-4.099-.277-4.099-.494-4.1-.277-4.098-.464-4.1-.807-4.099-.911-4.099-.407-4.099-.695-4.1-.438-4.098-.244-4.1-.458-4.099-.474-4.099-.362-4.099-.598-4.1-.54-4.098-1.979-4.1-2.537-4.099-.867-4.099-3.866-4.1-1.627-4.098-.52-4.1-.294-4.099-.111-4.099-.403-4.099-.22-4.1-.445-4.098-1.196-4.1-.998-4.099-.891-4.099-1.036-4.099-.506-4.1-.935-4.098-.866-4.1-.324-4.099-.615-4.099-.354-4.099-.319-4.1-.163-4.098-.318-4.1-.44-4.099-.391-4.099-2.826-4.1-.505-4.098-2.733-4.1-1.999-4.099-1.078-4.099-4.07-4.099-2.817-4.1-.629-4.098-5.206-4.1-.784-4.099-.607-4.099-.369-4.099-.543-4.1-3.104-4.098-1.101-4.1-.278-4.099-.31-4.099-.385-4.099-.86-4.1-4.02-4.098-1.34-4.1-7.872-4.099-1.782-4.099-3.493-4.1-6.042-4.098-9.334-4.1-1.711-4.099-4.847" fill="none" stroke="#ff7f0e" stroke-linecap="square" stroke-width="1.5" id="line2d_14"/><path clip-path="url(#p737ab58d7e)" d="M511.697 385.712l-4.1-1.222-4.099-1.079-4.099-1.423-4.1-1.202-4.098-1.286-4.1-1.394-4.099-1.356-4.099-1.36-4.099-1.333-4.1-1.275-4.098-1.39-4.1-1.385-4.099-1.332-4.099-1.335-4.099-1.347-4.1-1.307-4.098-1.385-4.1-1.52-4.099-1.572-4.099-1.53-4.1-1.51-4.098-1.515-4.1-1.52-4.099-1.474-4.099-1.47-4.099-1.48-4.1-1.527-4.098-1.527-4.1-1.485-4.099-1.46-4.099-1.435-4.099-1.426-4.1-1.43-4.098-1.405-4.1-1.43-4.099-1.422-4.099-1.45-4.099-1.5-4.1-1.49-4.098-1.505-4.1-1.546-4.099-1.576-4.099-1.58-4.099-1.595-4.1-1.585-4.098-1.623-4.1-1.704-4.099-1.82-4.099-1.837-4.1-1.874-4.098-1.936-4.1-2.043-4.099-2.159-4.099-2.177-4.099-2.246-4.1-2.353-4.098-2.376-4.1-2.407-4.099-2.401-4.099-2.421-4.099-2.474-4.1-2.503-4.098-2.644-4.1-2.867-4.099-2.938-4.099-2.941-4.099-2.95-4.1-3.108-4.098-3.365-4.1-3.43-4.099-3.453-4.099-3.551-4.1-3.788-4.098-3.837-4.1-3.962-4.099-4.278-4.099-4.399-4.099-4.545-4.1-4.87-4.098-5.01-4.1-5.031-4.099-5.033-4.099-5.102-4.099-5.37-4.1-5.686-4.098-6.02-4.1-6.224-4.099-6.534-4.099-6.902-4.099-7.542-4.1-8.242-4.098-8.616-4.1-9.285-4.099-9.806-4.099-10.456-4.1-11.543-4.098-12.716-4.1-15.761-4.099-31.069" fill="none" stroke="#2ca02c" stroke-linecap="square" stroke-width="1.5" id="line2d_15"/><path clip-path="url(#p737ab58d7e)" d="M105.878 46.786l4.1-.556 4.099-.968 4.099-.894 4.1-.174 4.098-.139 4.1-.093 4.099-.056 4.099-.044 4.099-.077 4.1-.05 4.098-.058 4.1-.018 4.099-.049 4.099-.051 4.099-.022 4.1-.013 4.098-.055 4.1-.03 4.099-.046 4.099-.033 4.1-.032 4.098-.036 4.1-.033 4.099-.053 4.099-.024 4.099-.041 4.1-.062 4.098-.05 4.1-.04 4.099-.06 4.099-.03 4.099-.051 4.1-.058 4.098-.063 4.1-.095 4.099-.037 4.099-.038 4.099-.022 4.1-.047 4.098-.02 4.1-.023 4.099-.025 4.099-.015 4.099-.025 4.1-.033 4.098-.03 4.1-.006 4.099-.031 4.099-.028 4.1-.043 4.098-.06 4.1-.041 4.099-.04 4.099-.046 4.099-.025 4.1-.016 4.098-.025 4.1-.008 4.099-.02 4.099-.011 4.099-.02 4.1-.01 4.098-.012 4.1-.018 4.099-.014 4.099-.01 4.099-.007 4.1-.007 4.098-.006 4.1-.01 4.099-.014 4.099-.015 4.1-.005 4.098-.01 4.1-.009 4.099-.02 4.099-.014 4.099-.018 4.1-.007 4.098-.01 4.1-.013 4.099-.022 4.099-.017 4.099-.01 4.1-.025 4.098-.034 4.1-.022 4.099-.043 4.099-.022 4.099-.034 4.1-.018 4.098-.029 4.1-.04 4.099-.106 4.099-.195 4.1-.268 4.098-1 4.1-4.284L510.221-1" fill="none" stroke="#d62728" stroke-linecap="square" stroke-width="1.5" id="line2d_16"/><path d="M85.588 387.72V7.2" fill="none" stroke="#000" stroke-linecap="square" stroke-width="2.5" id="patch_3"/><path d="M531.987 387.72V7.2" fill="none" stroke="#000" stroke-linecap="square" stroke-width="2.5" id="patch_4"/><path d="M85.588 387.72h446.4" fill="none" stroke="#000" stroke-linecap="square" stroke-width="2.5" id="patch_5"/><path d="M85.588 7.2h446.4" fill="none" stroke="#000" stroke-linecap="square" stroke-width="2.5" id="patch_6"/><g id="legend_1"><path d="M99.588 377.72h141.568q4 0 4-4V258.295q0-4-4-4H99.587q-4 0-4 4V373.72q0 4 4 4z" fill="#fff" opacity=".8" stroke="#ccc" id="patch_7"/><path d="M103.588 270.492h40" fill="none" stroke="#1f77b4" stroke-linecap="square" stroke-width="1.5" id="line2d_17"/><g transform="matrix(.2 0 0 -.2 159.588 277.492)" id="text_15"><defs><path d="M48.688 27.297q0 9.906-4.079 15.547-4.078 5.64-11.203 5.64-7.14 0-11.218-5.64-4.079-5.64-4.079-15.547 0-9.906 4.078-15.547 4.079-5.64 11.22-5.64 7.124 0 11.202 5.64t4.078 15.547zM18.108 46.39q2.844 4.875 7.157 7.234Q29.594 56 35.594 56q9.968 0 16.187-7.906 6.235-7.907 6.235-20.797T51.78 6.484q-6.218-7.906-16.187-7.906-6 0-10.328 2.375-4.313 2.375-7.157 7.25V0H9.08v75.984h9.03z" id="DejaVuSans-98"/></defs><use xlink:href="#DejaVuSans-98"/><use x="63.477" xlink:href="#DejaVuSans-101"/><use x="125" xlink:href="#DejaVuSans-116"/><use x="164.209" xlink:href="#DejaVuSans-116"/><use x="203.418" xlink:href="#DejaVuSans-101"/><use x="264.941" xlink:href="#DejaVuSans-114"/></g><path d="M103.588 299.848h40" fill="none" stroke="#ff7f0e" stroke-linecap="square" stroke-width="1.5" id="line2d_19"/><g transform="matrix(.2 0 0 -.2 159.588 306.848)" id="text_16"><defs><path d="M4.203 54.688h8.985l11.234-42.672 11.172 42.672h10.593l11.235-42.672 11.187 42.672h8.985L63.28 0H52.688L40.922 44.828 29.109 0H18.5z" id="DejaVuSans-119"/><path d="M44.281 53.078v-8.5q-3.797 1.953-7.906 2.922-4.094.984-8.5.984-6.688 0-10.031-2.047-3.344-2.046-3.344-6.156 0-3.125 2.39-4.906 2.391-1.781 9.626-3.39l3.078-.688q9.562-2.047 13.593-5.781 4.032-3.735 4.032-10.422 0-7.625-6.032-12.078-6.03-4.438-16.578-4.438-4.39 0-9.156.86Q10.688.296 5.422 2v9.281q4.984-2.594 9.812-3.89 4.829-1.282 9.579-1.282 6.343 0 9.75 2.172 3.421 2.172 3.421 6.125 0 3.656-2.468 5.61-2.453 1.953-10.813 3.765l-3.125.735q-8.344 1.75-12.062 5.39-3.704 3.64-3.704 9.985 0 7.718 5.47 11.906Q16.75 56 26.811 56q4.97 0 9.36-.734 4.406-.72 8.11-2.188z" id="DejaVuSans-115"/></defs><use xlink:href="#DejaVuSans-119"/><use x="81.787" xlink:href="#DejaVuSans-111"/><use x="142.969" xlink:href="#DejaVuSans-114"/><use x="184.082" xlink:href="#DejaVuSans-115"/><use x="236.182" xlink:href="#DejaVuSans-101"/></g><path d="M103.588 329.204h40" fill="none" stroke="#2ca02c" stroke-linecap="square" stroke-width="1.5" id="line2d_21"/><g transform="matrix(.2 0 0 -.2 159.588 336.204)" id="text_17"><use xlink:href="#DejaVuSans-101"/><use x="61.523" xlink:href="#DejaVuSans-114"/><use x="100.887" xlink:href="#DejaVuSans-114"/><use x="139.75" xlink:href="#DejaVuSans-111"/><use x="200.932" xlink:href="#DejaVuSans-114"/></g><path d="M103.588 365.56h40v-14h-40z" fill="#1f77b4" opacity=".2" id="patch_8"/><g transform="matrix(.2 0 0 -.2 159.588 365.56)" id="text_18"><defs><path d="M34.281 27.484q-10.89 0-15.093-2.484-4.204-2.484-4.204-8.5 0-4.781 3.157-7.594 3.156-2.797 8.562-2.797 7.485 0 12 5.297 4.516 5.297 4.516 14.078v2zm17.922 3.72V0H43.22v8.297Q40.14 3.328 35.547.953q-4.594-2.375-11.234-2.375-8.391 0-13.36 4.719Q6 8.016 6 15.922q0 9.219 6.172 13.906 6.187 4.688 18.437 4.688h12.61v.89q0 6.203-4.078 9.594-4.078 3.39-11.453 3.39-4.688 0-9.141-1.124-4.438-1.125-8.531-3.375v8.312q4.921 1.906 9.562 2.844 4.64.953 9.031.953 11.875 0 17.735-6.156 5.86-6.14 5.86-18.64z" id="DejaVuSans-97"/><path d="M52 44.188q3.375 6.062 8.063 8.937Q64.75 56 71.093 56q8.548 0 13.188-5.984 4.64-5.97 4.64-17V0h-9.03v32.719q0 7.86-2.797 11.656-2.781 3.813-8.485 3.813-6.984 0-11.046-4.641-4.047-4.625-4.047-12.64V0h-9.032v32.719q0 7.906-2.78 11.687-2.782 3.782-8.595 3.782-6.89 0-10.953-4.657-4.047-4.656-4.047-12.625V0H9.08v54.688h9.03v-8.5q3.078 5.03 7.375 7.421Q29.781 56 35.687 56q5.97 0 10.141-3.031Q50 49.953 52 44.187z" id="DejaVuSans-109"/></defs><use xlink:href="#DejaVuSans-114"/><use x="41.113" xlink:href="#DejaVuSans-97"/><use x="102.393" xlink:href="#DejaVuSans-110"/><use x="165.771" xlink:href="#DejaVuSans-100"/><use x="229.248" xlink:href="#DejaVuSans-111"/><use x="290.43" xlink:href="#DejaVuSans-109"/></g></g></g></g><defs><clipPath id="p737ab58d7e"><path d="M85.588 7.2h446.4v380.52h-446.4z"/></clipPath></defs></svg>