<svg height="414.491" viewBox="0 0 414.464 310.868" width="552.618" xmlns="http://www.w3.org/2000/svg" xmlns:xlink="http://www.w3.org/1999/xlink"><defs><style>*{stroke-linecap:butt;stroke-linejoin:round}</style></defs><g id="figure_1"><path d="M0 310.868h414.464V0H0z" fill="#fff" id="patch_1"/><g id="axes_1"><path d="M50.144 273.312h357.12V7.2H50.144z" fill="#fff" id="patch_2"/><path clip-path="url(#p76102453b4)" d="M66.376 40.533v-3.157l3.28-.605 3.28-1.306 3.278-1.704 3.28-1.965 3.28-1.703 3.279-.283 3.279-.474 3.28-.331 3.279-.588 3.279-.127 3.28-.347 3.279-.188 3.279-.495 3.28-.755 3.279-.452 3.279-.328 3.28-.158 3.279-.314 3.279-.1 3.28-.544 3.279-.17 3.279-.53 3.28-.62 3.279-.397 3.279-.55 3.28-.288 3.279-.32 3.279-.243 3.28-.23 3.279-.168 3.279-.184 3.28-.23 3.279-.148 3.279-.259 3.28-.13 3.279-.067 3.279-.527 3.28-.404 3.279-.399 3.279-.302 3.28-.372 3.279-.334 3.279-.368 3.28-.64 3.279-.678 3.28-.436 3.278-.195 3.28-.276 3.28-.548 3.278-.388 3.28-.204 3.28-.255 3.278-.172 3.28-.193 3.28-.653 3.278-.831 3.28-.469 3.28-.55 3.278-.326 3.28-.48 3.28-.83 3.278-.547 3.28-.614 3.28-.451 3.279-.62 3.279-.206 3.28-.8 3.279-.926 3.279-.143 3.28-.203 3.279-.223 3.279-.879 3.28-1.432 3.279-.76 3.279-.981 3.28-.827 3.279-.721 3.279-1.507 3.28-1.472 3.279-1.55 3.279-1.105 3.28-.204 3.279-.49 3.279-1.226 3.28-.702 3.279-1.77 3.279-2.748 3.28-1.295 3.279-4.124 3.279-3.818 3.28-2.73 3.279-5.288 3.279-7.2 3.28-2.242 3.279-6.682 3.279-3.755 3.28-15.552 3.279-17.139 3.279-46.607v317.08l-3.28-46.459-3.279-16.71-3.279-15.538-3.28-3.706-3.279-6.314-3.279-2.038-3.28-7.154-3.279-5.016-3.279-2.455-3.28-3.787-3.279-4.052-3.279-1.208-3.28-2.562-3.279-1.315-3.28-.598-3.278-1.2-3.28-.323-3.28-.023-3.278-.93-3.28-1.467-3.28-1.413-3.278-1.436-3.28-.561-3.28-.724-3.278-.938-3.28-.734-3.28-1.244-3.278-.625-3.28-.056-3.28-.061-3.278-.075-3.28-.846-3.28-.704-3.278-.168-3.28-.52-3.28-.27-3.279-.497-3.279-.483-3.28-.784-3.279-.422-3.279-.261-3.28-.495-3.279-.444-3.279-.814-3.28-.595-3.279-.153-3.279-.166-3.28-.249-3.279-.176-3.279-.356-3.28-.53-3.279-.242-3.279-.13-3.28-.385-3.279-.673-3.279-.605-3.28-.305-3.279-.3-3.279-.343-3.28-.241-3.279-.321-3.279-.379-3.28-.514-3.279-.048-3.279-.084-3.28-.207-3.279-.141-3.279-.169-3.28-.011-3.279.067-3.279.064-3.28.036-3.279-.03-3.28.075-3.278-.149-3.28-.26-3.28-.264-3.278-.427-3.28-.097-3.28-.453-3.278-.067-3.28-.213-3.28-.116-3.278-.28-3.28-.352-3.28-.518-3.278-.399-3.28-.156-3.28-.164-3.278.059-3.28.18-3.28-.074-3.278-.091-3.28.05-3.28.715-3.279.746-3.279.553-3.28.59-3.279-.525z" fill="#1f77b4" fill-opacity=".2" id="PolyCollection_1"/><g id="matplotlib.axis_1"><g id="xtick_1"><g id="line2d_1"><defs><path d="M0 0v3.5" id="md127ccd3b4" stroke="#000" stroke-width=".8"/></defs><use x="63.097" xlink:href="#md127ccd3b4" y="273.312" stroke="#000" stroke-width=".8"/></g><g id="text_1"><defs><path d="M31.781 66.406q-7.61 0-11.453-7.5Q16.5 51.422 16.5 36.375q0-14.984 3.828-22.484 3.844-7.5 11.453-7.5 7.672 0 11.5 7.5 3.844 7.5 3.844 22.484 0 15.047-3.844 22.531-3.828 7.5-11.5 7.5zm0 7.813q12.266 0 18.735-9.703 6.468-9.688 6.468-28.141 0-18.406-6.468-28.11-6.47-9.687-18.735-9.687-12.25 0-18.718 9.688-6.47 9.703-6.47 28.109 0 18.453 6.47 28.14Q19.53 74.22 31.78 74.22z" id="DejaVuSans-48"/></defs><use xlink:href="#DejaVuSans-48" transform="matrix(.1 0 0 -.1 59.916 287.91)"/></g></g><g id="xtick_2"><use x="128.684" xlink:href="#md127ccd3b4" y="273.312" stroke="#000" stroke-width=".8" id="line2d_2"/><g id="text_2"><defs><path d="M19.188 8.297h34.421V0H7.33v8.297q5.609 5.812 15.296 15.594 9.703 9.797 12.188 12.64 4.734 5.313 6.609 9 1.89 3.688 1.89 7.25 0 5.813-4.078 9.469-4.078 3.672-10.625 3.672-4.64 0-9.797-1.61-5.14-1.609-11-4.89v9.969Q13.767 71.78 18.938 73q5.188 1.219 9.485 1.219 11.328 0 18.062-5.672 6.735-5.656 6.735-15.125 0-4.5-1.688-8.531-1.672-4.016-6.125-9.485-1.218-1.422-7.765-8.187-6.532-6.766-18.453-18.922z" id="DejaVuSans-50"/></defs><g transform="matrix(.1 0 0 -.1 122.321 287.91)"><use xlink:href="#DejaVuSans-50"/><use x="63.623" xlink:href="#DejaVuSans-48"/></g></g></g><g id="xtick_3"><use x="194.271" xlink:href="#md127ccd3b4" y="273.312" stroke="#000" stroke-width=".8" id="line2d_3"/><g id="text_3"><defs><path d="M37.797 64.313L12.89 25.39h24.906zm-2.594 8.593H47.61V25.391h10.407v-8.203H47.609V0h-9.812v17.188H4.89v9.515z" id="DejaVuSans-52"/></defs><g transform="matrix(.1 0 0 -.1 187.908 287.91)"><use xlink:href="#DejaVuSans-52"/><use x="63.623" xlink:href="#DejaVuSans-48"/></g></g></g><g id="xtick_4"><use x="259.857" xlink:href="#md127ccd3b4" y="273.312" stroke="#000" stroke-width=".8" id="line2d_4"/><g id="text_4"><defs><path d="M33.016 40.375q-6.641 0-10.532-4.547-3.875-4.531-3.875-12.437 0-7.86 3.875-12.438 3.891-4.562 10.532-4.562 6.64 0 10.515 4.562 3.875 4.578 3.875 12.438 0 7.906-3.875 12.437-3.875 4.547-10.515 4.547zm19.578 30.922v-8.984q-3.719 1.75-7.5 2.671-3.782.938-7.5.938-9.766 0-14.922-6.594-5.14-6.594-5.875-19.922 2.875 4.25 7.219 6.516 4.359 2.266 9.578 2.266 10.984 0 17.36-6.672 6.374-6.657 6.374-18.125 0-11.235-6.64-18.032-6.641-6.78-17.672-6.78-12.657 0-19.344 9.687-6.688 9.703-6.688 28.109 0 17.281 8.204 27.563 8.203 10.28 22.015 10.28 3.719 0 7.5-.734t7.89-2.187z" id="DejaVuSans-54"/></defs><g transform="matrix(.1 0 0 -.1 253.495 287.91)"><use xlink:href="#DejaVuSans-54"/><use x="63.623" xlink:href="#DejaVuSans-48"/></g></g></g><g id="xtick_5"><use x="325.444" xlink:href="#md127ccd3b4" y="273.312" stroke="#000" stroke-width=".8" id="line2d_5"/><g id="text_5"><defs><path d="M31.781 34.625q-7.031 0-11.062-3.766-4.016-3.765-4.016-10.343 0-6.594 4.016-10.36Q24.75 6.391 31.78 6.391q7.032 0 11.078 3.78 4.063 3.798 4.063 10.345 0 6.578-4.031 10.343-4.016 3.766-11.11 3.766zm-9.86 4.188q-6.343 1.562-9.89 5.906Q8.5 49.079 8.5 55.329q0 8.733 6.219 13.812 6.234 5.078 17.062 5.078 10.89 0 17.094-5.078 6.203-5.079 6.203-13.813 0-6.25-3.547-10.61-3.531-4.343-9.828-5.906 7.125-1.656 11.094-6.5 3.984-4.828 3.984-11.796 0-10.61-6.468-16.282-6.47-5.656-18.532-5.656-12.047 0-18.531 5.656-6.469 5.672-6.469 16.282 0 6.968 4 11.797 4.016 4.843 11.14 6.5zM18.314 54.39q0-5.657 3.53-8.828 3.548-3.172 9.938-3.172 6.36 0 9.938 3.172 3.593 3.171 3.593 8.828 0 5.672-3.593 8.843-3.578 3.172-9.938 3.172-6.39 0-9.937-3.172-3.532-3.172-3.532-8.843z" id="DejaVuSans-56"/></defs><g transform="matrix(.1 0 0 -.1 319.082 287.91)"><use xlink:href="#DejaVuSans-56"/><use x="63.623" xlink:href="#DejaVuSans-48"/></g></g></g><g id="xtick_6"><use x="391.031" xlink:href="#md127ccd3b4" y="273.312" stroke="#000" stroke-width=".8" id="line2d_6"/><g id="text_6"><defs><path d="M12.406 8.297h16.11v55.625l-17.532-3.516v8.985l17.438 3.515h9.86V8.296H54.39V0H12.406z" id="DejaVuSans-49"/></defs><g transform="matrix(.1 0 0 -.1 381.487 287.91)"><use xlink:href="#DejaVuSans-49"/><use x="63.623" xlink:href="#DejaVuSans-48"/><use x="127.246" xlink:href="#DejaVuSans-48"/></g></g></g><g id="text_7"><defs><path d="M56.203 29.594v-4.39H14.891q.593-9.282 5.593-14.142 5-4.859 13.938-4.859 5.172 0 10.031 1.266 4.86 1.265 9.656 3.812v-8.5Q49.266.734 44.187-.344 39.11-1.422 33.892-1.422q-13.094 0-20.735 7.61-7.64 7.625-7.64 20.625 0 13.421 7.25 21.296Q20.016 56 32.328 56q11.031 0 17.453-7.11 6.422-7.093 6.422-19.296zm-8.984 2.64q-.094 7.36-4.125 11.75-4.032 4.407-10.672 4.407-7.516 0-12.031-4.25-4.516-4.25-5.203-11.97z" id="DejaVuSans-101"/><path d="M41.11 46.297q-1.516.875-3.297 1.281Q36.03 48 33.89 48q-7.625 0-11.703-4.953-4.079-4.953-4.079-14.234V0H9.08v54.688h9.03v-8.5q2.844 4.984 7.375 7.39Q30.031 56 36.531 56q.922 0 2.047-.125 1.125-.11 2.484-.36z" id="DejaVuSans-114"/><path d="M30.61 48.39q-7.22 0-11.422-5.64-4.204-5.64-4.204-15.453 0-9.813 4.172-15.453 4.188-5.64 11.453-5.64 7.188 0 11.375 5.655 4.203 5.672 4.203 15.438 0 9.719-4.203 15.406-4.187 5.688-11.375 5.688zm0 7.61q11.718 0 18.406-7.625 6.703-7.61 6.703-21.078 0-13.422-6.703-21.078-6.688-7.64-18.407-7.64-11.765 0-18.437 7.64-6.656 7.656-6.656 21.078 0 13.469 6.656 21.078Q18.844 56 30.609 56z" id="DejaVuSans-111"/><path d="M25.39 72.906h8.297L8.297-9.28H0z" id="DejaVuSans-47"/><path d="M48.781 52.594v-8.407q-3.812 2.11-7.64 3.157-3.828 1.047-7.735 1.047-8.75 0-13.593-5.547-4.829-5.532-4.829-15.547 0-10.016 4.829-15.563 4.843-5.53 13.593-5.53 3.907 0 7.735 1.046 3.828 1.047 7.64 3.156V2.094Q45.016.344 40.984-.531q-4.015-.89-8.562-.89-12.36 0-19.64 7.765-7.266 7.765-7.266 20.953 0 13.375 7.343 21.031Q20.22 56 33.016 56q4.14 0 8.093-.86 3.953-.843 7.672-2.546z" id="DejaVuSans-99"/><path d="M54.89 33.016V0h-8.984v32.719q0 7.765-3.031 11.61-3.031 3.858-9.078 3.858-7.281 0-11.484-4.64-4.204-4.625-4.204-12.64V0H9.08v54.688h9.03v-8.5q3.235 4.937 7.594 7.374Q30.078 56 35.797 56q9.422 0 14.25-5.828 4.844-5.828 4.844-17.156z" id="DejaVuSans-110"/><path d="M37.11 75.984V68.5h-8.594q-4.828 0-6.72-1.953-1.874-1.953-1.874-7.031v-4.828h14.797v-6.985H19.922V0H10.89v47.703H2.297v6.984h8.594V58.5q0 9.125 4.25 13.297 4.25 4.187 13.468 4.187z" id="DejaVuSans-102"/><path d="M9.422 54.688h8.984V0H9.422zm0 21.296h8.984v-11.39H9.422z" id="DejaVuSans-105"/><path d="M45.406 46.39v29.594h8.985V0h-8.985v8.203Q42.578 3.328 38.25.953q-4.313-2.375-10.375-2.375-9.906 0-16.14 7.906-6.22 7.922-6.22 20.813 0 12.89 6.22 20.797Q17.968 56 27.874 56q6.063 0 10.375-2.375 4.328-2.36 7.156-7.234zm-30.61-19.093q0-9.906 4.079-15.547 4.078-5.64 11.203-5.64 7.125 0 11.219 5.64 4.11 5.64 4.11 15.547 0 9.906-4.11 15.547-4.094 5.64-11.219 5.64-7.125 0-11.203-5.64-4.078-5.64-4.078-15.547z" id="DejaVuSans-100"/><path d="M18.11 8.203v-29H9.077v75.484h9.031v-8.296q2.844 4.875 7.157 7.234Q29.594 56 35.594 56q9.968 0 16.187-7.906 6.235-7.907 6.235-20.797T51.78 6.484q-6.218-7.906-16.187-7.906-6 0-10.328 2.375-4.313 2.375-7.157 7.25zm30.578 19.094q0 9.906-4.079 15.547-4.078 5.64-11.203 5.64-7.14 0-11.218-5.64-4.079-5.64-4.079-15.547 0-9.906 4.078-15.547 4.079-5.64 11.22-5.64 7.124 0 11.202 5.64t4.078 15.547z" id="DejaVuSans-112"/><path d="M18.313 70.219V54.688h18.5v-6.985h-18.5V18.016q0-6.688 1.828-8.594 1.828-1.906 7.453-1.906h9.218V0h-9.218q-10.407 0-14.36 3.875-3.953 3.89-3.953 14.14v29.688H2.687v6.984h6.594V70.22z" id="DejaVuSans-116"/><path d="M9.422 75.984h8.984V0H9.422z" id="DejaVuSans-108"/></defs><g transform="matrix(.1 0 0 -.1 160.644 301.589)"><use xlink:href="#DejaVuSans-101"/><use x="61.523" xlink:href="#DejaVuSans-114"/><use x="102.621" xlink:href="#DejaVuSans-114"/><use x="143.703" xlink:href="#DejaVuSans-111"/><use x="204.885" xlink:href="#DejaVuSans-114"/><use x="245.998" xlink:href="#DejaVuSans-47"/><use x="279.689" xlink:href="#DejaVuSans-99"/><use x="334.67" xlink:href="#DejaVuSans-111"/><use x="395.852" xlink:href="#DejaVuSans-110"/><use x="459.23" xlink:href="#DejaVuSans-102"/><use x="494.436" xlink:href="#DejaVuSans-105"/><use x="522.219" xlink:href="#DejaVuSans-100"/><use x="585.695" xlink:href="#DejaVuSans-101"/><use x="647.219" xlink:href="#DejaVuSans-110"/><use x="710.598" xlink:href="#DejaVuSans-99"/><use x="765.578" xlink:href="#DejaVuSans-101"/><use x="827.102" xlink:href="#DejaVuSans-32"/><use x="858.889" xlink:href="#DejaVuSans-112"/><use x="922.365" xlink:href="#DejaVuSans-101"/><use x="983.889" xlink:href="#DejaVuSans-114"/><use x="1024.971" xlink:href="#DejaVuSans-99"/><use x="1079.951" xlink:href="#DejaVuSans-101"/><use x="1141.475" xlink:href="#DejaVuSans-110"/><use x="1204.854" xlink:href="#DejaVuSans-116"/><use x="1244.063" xlink:href="#DejaVuSans-105"/><use x="1271.846" xlink:href="#DejaVuSans-108"/><use x="1299.629" xlink:href="#DejaVuSans-101"/></g></g></g><g id="matplotlib.axis_2"><g id="ytick_1"><g id="line2d_7"><defs><path d="M0 0h-3.5" id="m81223f2521" stroke="#000" stroke-width=".8"/></defs><use x="50.144" xlink:href="#m81223f2521" y="273.312" stroke="#000" stroke-width=".8"/></g><g id="text_8"><defs><path d="M10.688 12.406H21V0H10.687z" id="DejaVuSans-46"/></defs><g transform="matrix(.1 0 0 -.1 20.878 277.111)"><use xlink:href="#DejaVuSans-48"/><use x="63.623" xlink:href="#DejaVuSans-46"/><use x="95.41" xlink:href="#DejaVuSans-48"/><use x="159.033" xlink:href="#DejaVuSans-48"/></g></g></g><g id="ytick_2"><use x="50.144" xlink:href="#m81223f2521" y="234.803" stroke="#000" stroke-width=".8" id="line2d_8"/><g transform="matrix(.1 0 0 -.1 20.878 238.603)" id="text_9"><use xlink:href="#DejaVuSans-48"/><use x="63.623" xlink:href="#DejaVuSans-46"/><use x="95.41" xlink:href="#DejaVuSans-48"/><use x="159.033" xlink:href="#DejaVuSans-50"/></g></g><g id="ytick_3"><use x="50.144" xlink:href="#m81223f2521" y="196.295" stroke="#000" stroke-width=".8" id="line2d_9"/><g transform="matrix(.1 0 0 -.1 20.878 200.094)" id="text_10"><use xlink:href="#DejaVuSans-48"/><use x="63.623" xlink:href="#DejaVuSans-46"/><use x="95.41" xlink:href="#DejaVuSans-48"/><use x="159.033" xlink:href="#DejaVuSans-52"/></g></g><g id="ytick_4"><use x="50.144" xlink:href="#m81223f2521" y="157.786" stroke="#000" stroke-width=".8" id="line2d_10"/><g transform="matrix(.1 0 0 -.1 20.878 161.586)" id="text_11"><use xlink:href="#DejaVuSans-48"/><use x="63.623" xlink:href="#DejaVuSans-46"/><use x="95.41" xlink:href="#DejaVuSans-48"/><use x="159.033" xlink:href="#DejaVuSans-54"/></g></g><g id="ytick_5"><use x="50.144" xlink:href="#m81223f2521" y="119.278" stroke="#000" stroke-width=".8" id="line2d_11"/><g transform="matrix(.1 0 0 -.1 20.878 123.077)" id="text_12"><use xlink:href="#DejaVuSans-48"/><use x="63.623" xlink:href="#DejaVuSans-46"/><use x="95.41" xlink:href="#DejaVuSans-48"/><use x="159.033" xlink:href="#DejaVuSans-56"/></g></g><g id="ytick_6"><use x="50.144" xlink:href="#m81223f2521" y="80.769" stroke="#000" stroke-width=".8" id="line2d_12"/><g transform="matrix(.1 0 0 -.1 20.878 84.569)" id="text_13"><use xlink:href="#DejaVuSans-48"/><use x="63.623" xlink:href="#DejaVuSans-46"/><use x="95.41" xlink:href="#DejaVuSans-49"/><use x="159.033" xlink:href="#DejaVuSans-48"/></g></g><g id="ytick_7"><use x="50.144" xlink:href="#m81223f2521" y="42.261" stroke="#000" stroke-width=".8" id="line2d_13"/><g transform="matrix(.1 0 0 -.1 20.878 46.06)" id="text_14"><use xlink:href="#DejaVuSans-48"/><use x="63.623" xlink:href="#DejaVuSans-46"/><use x="95.41" xlink:href="#DejaVuSans-49"/><use x="159.033" xlink:href="#DejaVuSans-50"/></g></g><g id="text_15"><defs><path d="M19.734 29.5q-5.28 1.172-7.578 4.344-1.703 2.234-1.703 5.265 0 8.297 7.906 13.141 6.25 3.813 15.828 3.813 3.704 0 7.75-.594 4.063-.578 8.594-1.75l-1.562-8.157q-4.485 1.407-8.25 2.047-3.86.641-7.313.641-5.812 0-9.625-2.25-4.593-2.688-4.593-6.594 0-2.593 2.39-4.39 2.844-2.157 8.5-2.157h7.563l-1.407-7.422H29q-6.734 0-10.688-2.484-5.375-3.375-5.375-8.64 0-3.329 2.891-5.516 3.61-2.735 10.985-2.735 4.53 0 8.875.875 4.359.922 8.156 2.735l-1.657-8.36q-4.64-1.359-8.89-2.046-4.25-.688-8.156-.688-11.61 0-17.078 4.453-4.157 3.422-4.157 9.172 0 7.766 5.469 12.547 4.047 3.578 10.36 4.75z" id="DejaVuSans-Oblique-949"/><path d="M9.813 72.906h14.703l18.593-49.61 18.703 49.61h14.704V0H66.89v64.016l-18.797-50h-9.907l-18.796 50V0H9.813z" id="DejaVuSans-77"/><path d="M34.188 63.188L20.797 26.906h26.812zm-5.579 9.718h11.188L67.578 0h-10.25l-6.64 18.703h-32.86L11.188 0H.78z" id="DejaVuSans-65"/><path d="M9.813 72.906h46.093v-8.312H19.672V43.016H54.39v-8.297H19.67V8.297h37.11V0H9.813z" id="DejaVuSans-69"/></defs><g transform="matrix(0 -.1 -.1 0 14.798 150.756)"><use transform="translate(0 .938)" xlink:href="#DejaVuSans-Oblique-949"/><use transform="matrix(.7 0 0 .7 54.053 -15.469)" xlink:href="#DejaVuSans-77"/><use transform="matrix(.7 0 0 .7 114.448 -15.469)" xlink:href="#DejaVuSans-65"/><use transform="matrix(.7 0 0 .7 162.334 -15.469)" xlink:href="#DejaVuSans-69"/></g></g></g><path clip-path="url(#p76102453b4)" d="M391.031 79.06l-3.28-.06-3.279-.067-3.279-.201-3.28-.014-3.279-.238-3.279-.071-3.28-.31-3.279-.232-3.279-.185-3.28-.484-3.279-.317-3.279-.462-3.28-.636-3.279-.22-3.28-.723-3.278-.478-3.28-.54-3.28-.837-3.278-.226-3.28-1.16-3.28-.42-3.278-1.145-3.28-.738-3.28-1.105-3.278-.892-3.28-1.051-3.28-1.016-3.278-.953-3.28-1.225-3.28-.905-3.278-1.367-3.28-.87-3.28-1.48-3.278-1.236-3.28-1.49-3.28-1.362-3.279-1.602-3.279-1.45-3.28-1.858-3.279-1.491-3.279-1.998-3.28-1.531-3.279-2.185-3.279-1.628-3.28-1.893-3.279-2.14-3.279-1.93-3.28-2.1-3.279-2.79-3.279-3.971-3.28-4.025-3.279-4.01-3.279-3.943-3.28-3.974-3.279-4.06-3.279-4.14L205.337-1" fill="none" stroke="#1f77b4" stroke-linecap="square" stroke-width="1.5" id="line2d_14"/><path clip-path="url(#p76102453b4)" d="M391.031 272.477l-3.28-6.024-3.279-4.21-3.279-3.415-3.28-4.446-3.279-4.116-3.279-3.194-3.28-2.89-3.279-3.088-3.279-3.042-3.28-2.762-3.279-2.369-3.279-2.08-3.28-2.1-3.279-1.934-3.28-1.73-3.278-1.611-3.28-1.524-3.28-1.537-3.278-1.649-3.28-1.738-3.28-1.658-3.278-1.594-3.28-1.558-3.28-1.572-3.278-1.556-3.28-1.56-3.28-1.582-3.278-1.555-3.28-1.572-3.28-1.525-3.278-1.462-3.28-1.454-3.28-1.443-3.278-1.55-3.28-1.634-3.28-1.676-3.279-1.987-3.279-2.121-3.28-2.077-3.279-2.016-3.279-1.95-3.28-1.961-3.279-2.008-3.279-2.02-3.28-2.015-3.279-2.085-3.279-2.138-3.28-2.112-3.279-2.08-3.279-2.042-3.28-1.99-3.279-1.949-3.279-1.915-3.28-1.86-3.279-1.81-3.279-1.783-3.28-1.757-3.279-1.837-3.279-1.966-3.28-1.962-3.279-1.956-3.279-1.918-3.28-1.917-3.279-1.919-3.279-1.917-3.28-1.964-3.279-2.05-3.279-2.084-3.28-2.213-3.279-2.25-3.279-2.445-3.28-2.47-3.279-2.464-3.28-2.458-3.278-2.494-3.28-2.476-3.28-2.526-3.278-2.506-3.28-2.526-3.28-2.523-3.278-2.537-3.28-2.67-3.28-2.79-3.278-3.08-3.28-3.383-3.28-3.328-3.278-3.363-3.28-3.353-3.28-3.475-3.278-3.455-3.28-3.588-3.28-3.709-3.278-3.671-3.28-3.62-3.28-3.617-3.279-3.684-3.279-3.954-3.28-3.908-3.279-5.004" fill="none" stroke="#ff7f0e" stroke-linecap="square" stroke-width="1.5" id="line2d_15"/><path clip-path="url(#p76102453b4)" d="M66.376 38.954l3.28-.04 3.28-.947 3.278-1.129 3.28-1.355 3.28-1.21 3.279-.166 3.279-.192 3.28-.128 3.279-.384 3.279-.093 3.28-.092 3.279-.015 3.279-.048 3.28-.119 3.279-.05 3.279-.024 3.28-.021 3.279-.05 3.279-.017 3.28-.045 3.279-.037 3.279-.052 3.28-.177 3.279-.069 3.279-.2 3.28-.183 3.279-.144 3.279-.14 3.28-.147 3.279-.117 3.279-.087 3.28-.03 3.279-.004 3.279-.025 3.28-.023 3.279-.01 3.279-.006 3.28-.013 3.279-.039 3.279-.03 3.28-.014 3.279-.018 3.279-.031 3.28-.018 3.279-.002 3.28-.026 3.278-.033 3.28-.016 3.28-.01 3.278-.016 3.28-.013 3.28-.003 3.278-.003 3.28-.02 3.28-.03 3.278-.008 3.28-.012 3.28-.028 3.278-.033 3.28-.028 3.28-.023 3.278-.033 3.28-.058 3.28-.09 3.279-.05 3.279-.02 3.28-.047 3.279-.04 3.279-.035 3.28-.07 3.279-.084 3.279-.127 3.28-.094 3.279-.013 3.279-.022 3.28-.051 3.279-.08 3.279-.035 3.28-.03 3.279-.042 3.279-.087 3.28-.09 3.279-.084 3.279-.013 3.28-.052 3.279-.227 3.279-.094 3.28-.043 3.279-.036 3.279-.015 3.28-.138 3.279-.136 3.279-.023 3.28-.102 3.279-.184 3.279-.025 3.28-.006 3.279-.215 3.279-.073" fill="none" stroke="#2ca02c" stroke-linecap="square" stroke-width="1.5" id="line2d_16"/><path d="M50.144 273.312V7.2" fill="none" stroke="#000" stroke-linecap="square" stroke-width=".8" id="patch_3"/><path d="M407.264 273.312V7.2" fill="none" stroke="#000" stroke-linecap="square" stroke-width=".8" id="patch_4"/><path d="M50.144 273.312h357.12" fill="none" stroke="#000" stroke-linecap="square" stroke-width=".8" id="patch_5"/><path d="M50.144 7.2h357.12" fill="none" stroke="#000" stroke-linecap="square" stroke-width=".8" id="patch_6"/><g id="legend_1"><path d="M57.144 268.312h70.784q2 0 2-2v-43.034q0-2-2-2H57.144q-2 0-2 2v43.034q0 2 2 2z" fill="#fff" opacity=".8" stroke="#ccc" id="patch_7"/><path d="M59.144 229.376h20" fill="none" stroke="#1f77b4" stroke-linecap="square" stroke-width="1.5" id="line2d_17"/><g id="text_16"><defs><path d="M44.281 53.078v-8.5q-3.797 1.953-7.906 2.922-4.094.984-8.5.984-6.688 0-10.031-2.047-3.344-2.046-3.344-6.156 0-3.125 2.39-4.906 2.391-1.781 9.626-3.39l3.078-.688q9.562-2.047 13.593-5.781 4.032-3.735 4.032-10.422 0-7.625-6.032-12.078-6.03-4.438-16.578-4.438-4.39 0-9.156.86Q10.688.296 5.422 2v9.281q4.984-2.594 9.812-3.89 4.829-1.282 9.579-1.282 6.343 0 9.75 2.172 3.421 2.172 3.421 6.125 0 3.656-2.468 5.61-2.453 1.953-10.813 3.765l-3.125.735q-8.344 1.75-12.062 5.39-3.704 3.64-3.704 9.985 0 7.718 5.47 11.906Q16.75 56 26.811 56q4.97 0 9.36-.734 4.406-.72 8.11-2.188z" id="DejaVuSans-115"/></defs><g transform="matrix(.1 0 0 -.1 87.144 232.876)"><use xlink:href="#DejaVuSans-115"/><use x="52.1" xlink:href="#DejaVuSans-116"/><use x="91.309" xlink:href="#DejaVuSans-100"/></g></g><path d="M59.144 244.054h20" fill="none" stroke="#ff7f0e" stroke-linecap="square" stroke-width="1.5" id="line2d_19"/><g transform="matrix(.1 0 0 -.1 87.144 247.554)" id="text_17"><use xlink:href="#DejaVuSans-101"/><use x="61.523" xlink:href="#DejaVuSans-114"/><use x="102.621" xlink:href="#DejaVuSans-114"/><use x="143.703" xlink:href="#DejaVuSans-111"/><use x="204.885" xlink:href="#DejaVuSans-114"/></g><path d="M59.144 262.232h20v-7h-20z" fill="#1f77b4" opacity=".2" id="patch_8"/><g id="text_18"><defs><path d="M34.281 27.484q-10.89 0-15.093-2.484-4.204-2.484-4.204-8.5 0-4.781 3.157-7.594 3.156-2.797 8.562-2.797 7.485 0 12 5.297 4.516 5.297 4.516 14.078v2zm17.922 3.72V0H43.22v8.297Q40.14 3.328 35.547.953q-4.594-2.375-11.234-2.375-8.391 0-13.36 4.719Q6 8.016 6 15.922q0 9.219 6.172 13.906 6.187 4.688 18.437 4.688h12.61v.89q0 6.203-4.078 9.594-4.078 3.39-11.453 3.39-4.688 0-9.141-1.124-4.438-1.125-8.531-3.375v8.312q4.921 1.906 9.562 2.844 4.64.953 9.031.953 11.875 0 17.735-6.156 5.86-6.14 5.86-18.64z" id="DejaVuSans-97"/><path d="M52 44.188q3.375 6.062 8.063 8.937Q64.75 56 71.093 56q8.548 0 13.188-5.984 4.64-5.97 4.64-17V0h-9.03v32.719q0 7.86-2.797 11.656-2.781 3.813-8.485 3.813-6.984 0-11.046-4.641-4.047-4.625-4.047-12.64V0h-9.032v32.719q0 7.906-2.78 11.687-2.782 3.782-8.595 3.782-6.89 0-10.953-4.657-4.047-4.656-4.047-12.625V0H9.08v54.688h9.03v-8.5q3.078 5.03 7.375 7.421Q29.781 56 35.687 56q5.97 0 10.141-3.031Q50 49.953 52 44.187z" id="DejaVuSans-109"/></defs><g transform="matrix(.1 0 0 -.1 87.144 262.232)"><use xlink:href="#DejaVuSans-114"/><use x="41.113" xlink:href="#DejaVuSans-97"/><use x="102.393" xlink:href="#DejaVuSans-110"/><use x="165.771" xlink:href="#DejaVuSans-100"/><use x="229.248" xlink:href="#DejaVuSans-111"/><use x="290.43" xlink:href="#DejaVuSans-109"/></g></g></g></g></g><defs><clipPath id="p76102453b4"><path d="M50.144 7.2h357.12v266.112H50.144z"/></clipPath></defs></svg>