<svg height="597.51" viewBox="0 0 520.106 448.132" width="693.475" xmlns="http://www.w3.org/2000/svg" xmlns:xlink="http://www.w3.org/1999/xlink"><defs><style>*{stroke-linecap:butt;stroke-linejoin:round}</style></defs><g id="figure_1"><path d="M0 448.132h520.106V0H0z" fill="none" id="patch_1"/><g id="axes_1"><path d="M66.506 387.72h446.4V7.2h-446.4z" fill="#fff" id="patch_2"/><path clip-path="url(#p8ff867afab)" d="M66.506 369.207l446.4-339.41" fill="none" stroke="#000" stroke-dasharray="5.55,2.4" stroke-opacity=".5" stroke-width="1.5" id="line2d_1"/><g id="matplotlib.axis_1"><g id="xtick_1"><g id="line2d_2"><defs><path d="M0 0v7" id="m1f3b0cc0c8" stroke="#000" stroke-width="2.5"/></defs><use x="84.089" xlink:href="#m1f3b0cc0c8" y="387.72" stroke="#000" stroke-width="2.5"/></g><g transform="matrix(.2 0 0 -.2 77.726 413.417)" id="text_1"><defs><path d="M31.781 66.406q-7.61 0-11.453-7.5Q16.5 51.422 16.5 36.375q0-14.984 3.828-22.484 3.844-7.5 11.453-7.5 7.672 0 11.5 7.5 3.844 7.5 3.844 22.484 0 15.047-3.844 22.531-3.828 7.5-11.5 7.5zm0 7.813q12.266 0 18.735-9.703 6.468-9.688 6.468-28.141 0-18.406-6.468-28.11-6.47-9.687-18.735-9.687-12.25 0-18.718 9.688-6.47 9.703-6.47 28.109 0 18.453 6.47 28.14Q19.53 74.22 31.78 74.22z" id="DejaVuSans-48"/></defs><use xlink:href="#DejaVuSans-48"/></g></g><g id="xtick_2"><use x="163.032" xlink:href="#m1f3b0cc0c8" y="387.72" stroke="#000" stroke-width="2.5" id="line2d_3"/><g transform="matrix(.2 0 0 -.2 156.67 413.417)" id="text_2"><defs><path d="M19.188 8.297h34.421V0H7.33v8.297q5.609 5.812 15.296 15.594 9.703 9.797 12.188 12.64 4.734 5.313 6.609 9 1.89 3.688 1.89 7.25 0 5.813-4.078 9.469-4.078 3.672-10.625 3.672-4.64 0-9.797-1.61-5.14-1.609-11-4.89v9.969Q13.767 71.78 18.938 73q5.188 1.219 9.485 1.219 11.328 0 18.062-5.672 6.735-5.656 6.735-15.125 0-4.5-1.688-8.531-1.672-4.016-6.125-9.485-1.218-1.422-7.765-8.187-6.532-6.766-18.453-18.922z" id="DejaVuSans-50"/></defs><use xlink:href="#DejaVuSans-50"/></g></g><g id="xtick_3"><use x="241.975" xlink:href="#m1f3b0cc0c8" y="387.72" stroke="#000" stroke-width="2.5" id="line2d_4"/><g transform="matrix(.2 0 0 -.2 235.613 413.417)" id="text_3"><defs><path d="M37.797 64.313L12.89 25.39h24.906zm-2.594 8.593H47.61V25.391h10.407v-8.203H47.609V0h-9.812v17.188H4.89v9.515z" id="DejaVuSans-52"/></defs><use xlink:href="#DejaVuSans-52"/></g></g><g id="xtick_4"><use x="320.918" xlink:href="#m1f3b0cc0c8" y="387.72" stroke="#000" stroke-width="2.5" id="line2d_5"/><g transform="matrix(.2 0 0 -.2 314.556 413.417)" id="text_4"><defs><path d="M33.016 40.375q-6.641 0-10.532-4.547-3.875-4.531-3.875-12.437 0-7.86 3.875-12.438 3.891-4.562 10.532-4.562 6.64 0 10.515 4.562 3.875 4.578 3.875 12.438 0 7.906-3.875 12.437-3.875 4.547-10.515 4.547zm19.578 30.922v-8.984q-3.719 1.75-7.5 2.671-3.782.938-7.5.938-9.766 0-14.922-6.594-5.14-6.594-5.875-19.922 2.875 4.25 7.219 6.516 4.359 2.266 9.578 2.266 10.984 0 17.36-6.672 6.374-6.657 6.374-18.125 0-11.235-6.64-18.032-6.641-6.78-17.672-6.78-12.657 0-19.344 9.687-6.688 9.703-6.688 28.109 0 17.281 8.204 27.563 8.203 10.28 22.015 10.28 3.719 0 7.5-.734t7.89-2.187z" id="DejaVuSans-54"/></defs><use xlink:href="#DejaVuSans-54"/></g></g><g id="xtick_5"><use x="399.862" xlink:href="#m1f3b0cc0c8" y="387.72" stroke="#000" stroke-width="2.5" id="line2d_6"/><g transform="matrix(.2 0 0 -.2 393.499 413.417)" id="text_5"><defs><path d="M31.781 34.625q-7.031 0-11.062-3.766-4.016-3.765-4.016-10.343 0-6.594 4.016-10.36Q24.75 6.391 31.78 6.391q7.032 0 11.078 3.78 4.063 3.798 4.063 10.345 0 6.578-4.031 10.343-4.016 3.766-11.11 3.766zm-9.86 4.188q-6.343 1.562-9.89 5.906Q8.5 49.079 8.5 55.329q0 8.733 6.219 13.812 6.234 5.078 17.062 5.078 10.89 0 17.094-5.078 6.203-5.079 6.203-13.813 0-6.25-3.547-10.61-3.531-4.343-9.828-5.906 7.125-1.656 11.094-6.5 3.984-4.828 3.984-11.796 0-10.61-6.468-16.282-6.47-5.656-18.532-5.656-12.047 0-18.531 5.656-6.469 5.672-6.469 16.282 0 6.968 4 11.797 4.016 4.843 11.14 6.5zM18.314 54.39q0-5.657 3.53-8.828 3.548-3.172 9.938-3.172 6.36 0 9.938 3.172 3.593 3.171 3.593 8.828 0 5.672-3.593 8.843-3.578 3.172-9.938 3.172-6.39 0-9.937-3.172-3.532-3.172-3.532-8.843z" id="DejaVuSans-56"/></defs><use xlink:href="#DejaVuSans-56"/></g></g><g id="xtick_6"><use x="478.805" xlink:href="#m1f3b0cc0c8" y="387.72" stroke="#000" stroke-width="2.5" id="line2d_7"/><g transform="matrix(.2 0 0 -.2 466.08 413.417)" id="text_6"><defs><path d="M12.406 8.297h16.11v55.625l-17.532-3.516v8.985l17.438 3.515h9.86V8.296H54.39V0H12.406z" id="DejaVuSans-49"/></defs><use xlink:href="#DejaVuSans-49"/><use x="63.623" xlink:href="#DejaVuSans-48"/></g></g><g transform="matrix(.2 0 0 -.2 258.378 436.773)" id="text_7"><defs><path d="M34.188 63.188L20.797 26.906h26.812zm-5.579 9.718h11.188L67.578 0h-10.25l-6.64 18.703h-32.86L11.188 0H.78z" id="DejaVuSans-65"/><path d="M48.781 52.594v-8.407q-3.812 2.11-7.64 3.157-3.828 1.047-7.735 1.047-8.75 0-13.593-5.547-4.829-5.532-4.829-15.547 0-10.016 4.829-15.563 4.843-5.53 13.593-5.53 3.907 0 7.735 1.046 3.828 1.047 7.64 3.156V2.094Q45.016.344 40.984-.531q-4.015-.89-8.562-.89-12.36 0-19.64 7.765-7.266 7.765-7.266 20.953 0 13.375 7.343 21.031Q20.22 56 33.016 56q4.14 0 8.093-.86 3.953-.843 7.672-2.546z" id="DejaVuSans-99"/><path d="M18.313 70.219V54.688h18.5v-6.985h-18.5V18.016q0-6.688 1.828-8.594 1.828-1.906 7.453-1.906h9.218V0h-9.218q-10.407 0-14.36 3.875-3.953 3.89-3.953 14.14v29.688H2.687v6.984h6.594V70.22z" id="DejaVuSans-116"/><path d="M8.5 21.578v33.11h8.984V21.922q0-7.766 3.016-11.656 3.031-3.875 9.094-3.875 7.265 0 11.484 4.64 4.234 4.64 4.234 12.656v31h8.985V0h-8.984v8.406Q42.047 3.422 37.718 1q-4.313-2.422-10.032-2.422-9.421 0-14.312 5.86Q8.5 10.296 8.5 21.578zM31.11 56z" id="DejaVuSans-117"/><path d="M34.281 27.484q-10.89 0-15.093-2.484-4.204-2.484-4.204-8.5 0-4.781 3.157-7.594 3.156-2.797 8.562-2.797 7.485 0 12 5.297 4.516 5.297 4.516 14.078v2zm17.922 3.72V0H43.22v8.297Q40.14 3.328 35.547.953q-4.594-2.375-11.234-2.375-8.391 0-13.36 4.719Q6 8.016 6 15.922q0 9.219 6.172 13.906 6.187 4.688 18.437 4.688h12.61v.89q0 6.203-4.078 9.594-4.078 3.39-11.453 3.39-4.688 0-9.141-1.124-4.438-1.125-8.531-3.375v8.312q4.921 1.906 9.562 2.844 4.64.953 9.031.953 11.875 0 17.735-6.156 5.86-6.14 5.86-18.64z" id="DejaVuSans-97"/><path d="M9.422 75.984h8.984V0H9.422z" id="DejaVuSans-108"/></defs><use xlink:href="#DejaVuSans-65"/><use x="66.658" xlink:href="#DejaVuSans-99"/><use x="121.639" xlink:href="#DejaVuSans-116"/><use x="160.848" xlink:href="#DejaVuSans-117"/><use x="224.227" xlink:href="#DejaVuSans-97"/><use x="285.506" xlink:href="#DejaVuSans-108"/></g></g><g id="matplotlib.axis_2"><g id="ytick_1"><g id="line2d_8"><defs><path d="M0 0h-7" id="m06271f73a8" stroke="#000" stroke-width="2.5"/></defs><use x="66.506" xlink:href="#m06271f73a8" y="355.839" stroke="#000" stroke-width="2.5"/></g><use xlink:href="#DejaVuSans-48" transform="matrix(.2 0 0 -.2 43.281 363.437)" id="text_8"/></g><g id="ytick_2"><use x="66.506" xlink:href="#m06271f73a8" y="295.816" stroke="#000" stroke-width="2.5" id="line2d_9"/><use xlink:href="#DejaVuSans-50" transform="matrix(.2 0 0 -.2 43.281 303.415)" id="text_9"/></g><g id="ytick_3"><use x="66.506" xlink:href="#m06271f73a8" y="235.793" stroke="#000" stroke-width="2.5" id="line2d_10"/><use xlink:href="#DejaVuSans-52" transform="matrix(.2 0 0 -.2 43.281 243.392)" id="text_10"/></g><g id="ytick_4"><use x="66.506" xlink:href="#m06271f73a8" y="175.771" stroke="#000" stroke-width="2.5" id="line2d_11"/><use xlink:href="#DejaVuSans-54" transform="matrix(.2 0 0 -.2 43.281 183.37)" id="text_11"/></g><g id="ytick_5"><use x="66.506" xlink:href="#m06271f73a8" y="115.748" stroke="#000" stroke-width="2.5" id="line2d_12"/><use xlink:href="#DejaVuSans-56" transform="matrix(.2 0 0 -.2 43.281 123.346)" id="text_12"/></g><g id="ytick_6"><use x="66.506" xlink:href="#m06271f73a8" y="55.725" stroke="#000" stroke-width="2.5" id="line2d_13"/><g transform="matrix(.2 0 0 -.2 30.556 63.324)" id="text_13"><use xlink:href="#DejaVuSans-49"/><use x="63.623" xlink:href="#DejaVuSans-48"/></g></g><g transform="matrix(0 -.2 -.2 0 22.397 244.4)" id="text_14"><defs><path d="M19.672 64.797v-27.39h12.406q6.89 0 10.64 3.562 3.766 3.562 3.766 10.156 0 6.547-3.765 10.11-3.75 3.562-10.64 3.562zm-9.86 8.11h22.266q12.266 0 18.531-5.548 6.282-5.546 6.282-16.234 0-10.797-6.282-16.313-6.265-5.515-18.53-5.515H19.671V0h-9.86z" id="DejaVuSans-80"/><path d="M41.11 46.297q-1.516.875-3.297 1.281Q36.03 48 33.89 48q-7.625 0-11.703-4.953-4.079-4.953-4.079-14.234V0H9.08v54.688h9.03v-8.5q2.844 4.984 7.375 7.39Q30.031 56 36.531 56q.922 0 2.047-.125 1.125-.11 2.484-.36z" id="DejaVuSans-114"/><path d="M56.203 29.594v-4.39H14.891q.593-9.282 5.593-14.142 5-4.859 13.938-4.859 5.172 0 10.031 1.266 4.86 1.265 9.656 3.812v-8.5Q49.266.734 44.187-.344 39.11-1.422 33.892-1.422q-13.094 0-20.735 7.61-7.64 7.625-7.64 20.625 0 13.421 7.25 21.296Q20.016 56 32.328 56q11.031 0 17.453-7.11 6.422-7.093 6.422-19.296zm-8.984 2.64q-.094 7.36-4.125 11.75-4.032 4.407-10.672 4.407-7.516 0-12.031-4.25-4.516-4.25-5.203-11.97z" id="DejaVuSans-101"/><path d="M45.406 46.39v29.594h8.985V0h-8.985v8.203Q42.578 3.328 38.25.953q-4.313-2.375-10.375-2.375-9.906 0-16.14 7.906-6.22 7.922-6.22 20.813 0 12.89 6.22 20.797Q17.968 56 27.874 56q6.063 0 10.375-2.375 4.328-2.36 7.156-7.234zm-30.61-19.093q0-9.906 4.079-15.547 4.078-5.64 11.203-5.64 7.125 0 11.219 5.64 4.11 5.64 4.11 15.547 0 9.906-4.11 15.547-4.094 5.64-11.219 5.64-7.125 0-11.203-5.64-4.078-5.64-4.078-15.547z" id="DejaVuSans-100"/><path d="M9.422 54.688h8.984V0H9.422zm0 21.296h8.984v-11.39H9.422z" id="DejaVuSans-105"/></defs><use xlink:href="#DejaVuSans-80"/><use x="58.553" xlink:href="#DejaVuSans-114"/><use x="97.416" xlink:href="#DejaVuSans-101"/><use x="158.939" xlink:href="#DejaVuSans-100"/><use x="222.416" xlink:href="#DejaVuSans-105"/><use x="250.199" xlink:href="#DejaVuSans-99"/><use x="305.18" xlink:href="#DejaVuSans-116"/><use x="344.389" xlink:href="#DejaVuSans-101"/><use x="405.912" xlink:href="#DejaVuSans-100"/></g></g><g id="LineCollection_1" fill="none" stroke="green" stroke-width="2"><path clip-path="url(#p8ff867afab)" d="M135.536 323.713v-13.778M174.43 291.75v-6.874M166.784 281.521v-7.424M219.917 268.71v-19.615M148.802 312.979v-11.517M220.26 253.752v-17.91M103.995 345.03v-8.393M111.628 345.011v-4.755M186.243 286.632v-4.44M258.75 299.858v-30.292M171.665 279.714v-8.61M118.205 356.025v-18.38M189.3 266.59v-11.174M136.756 317.28v-8.715M118.74 331.891v-9.126M93.581 353.125v-5.376M150.732 308.692v-9.545M147.845 308.946v-8.853M154.233 296.232v-8.035M123.488 331.02v-7.383M171.63 298.71v-5.788M324.588 178.037V158.5M220.83 278.72v-52.24M103.663 339.846v-10.03M96.931 321.431v-6.213M396.83 142.25v-22.992M237.683 242.69v-31.2M132.413 325.5v-7.148M184.021 262.919v-9.234M120.292 332.63v-7.602M119.621 330.783v-6.91M97.856 345.869v-6.47M155.602 303.89v-7.745M124.924 321.377v-9.106M118.265 322.158v-5.866M179.757 265.25v-28.901M415.866 109.48V86.003M184.576 297.638v-9.646M189.281 268.816v-6.623M184.518 286.926v-6.228M122.155 333.395V320.66M126.405 338.743v-19.828M113.983 366.88v-46.092M186.298 297.628v-33.635M247.49 245.65v-13.71M219.937 242.268v-29.756M123.414 315.667v-13.892M294.077 216.07v-14.574M114.466 336.61v-4.759M155.602 305.091v-7.746M129.776 330.291v-7.727M176.639 290.079v-10.134M212.067 261.741v-10.48M223.201 253.01v-6.823M96.406 348.464v-4.457M371.692 173.421v-48.72M193.907 274.297v-6.78M150.713 324.041v-8.432M168.601 292.04v-4.452M126.976 325.38v-6.307M140.992 310.914v-6.787M99.497 345.719v-4.97M274.042 219.142v-26.12M196.97 277.283v-22.956M141.944 312.771v-4.499M133.982 305.81v-11.585M132.423 316v-7.355M93.493 348.34v-6.01M122.861 324.568v-6.484M93.97 350.028v-4.584M94.285 353.554v-6.835M128.747 323.002v-6.954M175.48 281.757v-8.496M195.321 255.703V233.89M198.504 270.464v-9.319M176.639 289.479v-10.134M158.365 306.193v-7.549M97.136 347.254v-4.439M179.642 286.11v-19.002M92.764 352.297v-4.92M87.204 356.644v-5.212M162.193 304.726v-8.216M153.67 302.518v-6.201M143.065 299.676v-5.319M105.217 343.88v-5.494M146.139 296.575v-8.72M192.21 282.739v-9.259M174.43 291.45v-6.874M147.49 301.234V293.4M90.673 353.981v-7.089M229.925 211.567v-24.775M159.247 312.711V275.32M120 325.626v-17.004M182.003 284.725v-5.429M480.151 56.943V24.496M184.518 285.725v-6.228M181.674 281.165v-6.711M146.632 313.692v-5.74M158.29 304.84v-6.044M167.502 300.126v-8.62M163.35 296.664v-4.697M227.67 278.374V265.84M169.718 289.212v-4.799M167.48 282.642v-11.466M200.539 268.487v-7.165M144.008 314.35v-7.657M183.926 280.583v-7.948M195.55 301.89v-12.148M93.539 350.66v-5.249M166.294 294.726v-9.824M223.949 231.35v-26.527M117.772 330.21v-5.763M317.598 188.963V169.18M202.526 267.149v-7.49M413.117 121.41V98.081M134.873 345.78v-6.893M122.51 327.74v-5.026M197.199 269.696v-8.983M181.544 286.972v-15.924M128.347 309.145V292.69M132.743 309.404v-9.169M126.706 329.053v-8.852M215.627 262.535v-10.867M415.866 112.482v-23.48M179.77 266.335v-22.069M155.602 291.886v-7.746M165.19 295.91v-7.99M197.31 278.837v-8.058M138.38 304.172v-10.709M115.634 328.182V312.67M197.199 269.696v-8.983M137.643 305.939v-13.043M158.17 302.874v-5.713M183.683 276.156v-13.5M213.579 304.016v-16.4M231.027 249.365v-8.536M188.35 281.814v-6.808M88.763 354.819v-5.163M273.945 230.803v-14.028M98.04 345.492v-6.316M108.726 339.006v-6.55M118.795 312.609v-8.376M110.882 324.706v-9.761M201.21 267.981v-16.357M149.199 310.11v-6.98M111.662 339.061v-10.26M206.725 263.779v-10.954M95.523 356.88v-6.284M256.493 246.41v-12.23M160.566 301.66v-11.687M226.62 239.16v-10.335M86.797 357.287v-5.297M138.543 323.4v-22.755M147.77 309.7v-7.36M225.81 257.246v-8.692M98.38 351v-5.929M123.968 349.408V338.26M273.017 214.801v-10.235M164.687 296.397V284.43M218.674 260.822v-8.041M191.454 291.736v-15.85M105.265 353.896v-9.92M128.243 326.342v-5.83M98.758 347.3v-4.53M190.12 282.984v-10.35M130.52 324.485v-12.32M153.67 301.018v-6.202M153.978 307.973v-5.107M231.027 253.867v-8.536M125.981 327.106v-7.358M168.76 290.68v-14.937M92.018 353.72v-5.365M118.607 339.451v-6.84M200.015 265.332v-11.06M114.466 338.11v-4.758M132.376 322.082v-9.916M142.25 310.106v-4.57M165.385 302.528v-16.425M180.416 289.954v-6.283M204.283 267.565v-9.523M125.526 325.128v-4.603M193.23 276.46v-5.705M107.4 347.046V334.02M131.389 314.203v-6.763M316.505 188.541v-34.544M163.94 297.87v-4.107M441.346 92.043V67.425M92.996 351.59v-5.308M153.751 293.618v-8.209M174.312 310.76v-15.481M175.967 289.903v-6.18M107.122 350.262v-6.854M171.714 298.44v-11.25M204.94 272.906v-20.205M304.364 183.693v-15.844M159.098 304.783v-5.929M201.842 265.491v-7.176M137.256 318.509v-6.37M212.177 366.924V333.95M135.556 320.826V306.82M90.45 351.877v-5.282M184.518 281.824v-6.228M158.698 315.071V272.96M239.269 348.876V329.79M186.243 282.13v-4.44M144.433 311.45v-6.657M124.6 324.953V317.7M166.404 295.38v-5.13M161.349 312.74v-6.837M93.504 349.595v-4.92M151.28 309.224v-5.808M141.944 312.471v-4.499M149.187 318.871v-7.095M169.626 283.448v-7.676M143.065 312.28v-5.318M181.44 285.502v-18.387M93.504 351.996v-4.92M154.476 295.405v-11.182M137.387 329.152v-12.651M151.234 312.847v-5.25M169.121 342.858v-58.07M146.203 310.425v-5.208M99.837 355.35v-13.427M144.86 320.98v-7.71M101.194 334.666v-5.673M317.598 163.153v-19.782M133.443 327.646v-6.038M162.88 296.847v-5.663M159.017 300.996v-5.558M114.322 361.116V347.56M159.23 298.532V290.7M92.387 351.77v-5.068M168.021 300.79v-5.147M141.944 312.171v-4.5M266.9 215.603v-13.64M154.883 306.382v-4.926M201.507 280.505v-22.798M291.978 198.432V180.72M109.95 345.2v-11.734M94.772 348.262v-5.854M108.704 348.546v-10.024M154.035 302.363v-5.29M105.394 335.47v-7.28M172.95 290.847v-5.068M110.372 340.47v-6.477M179.642 291.812V272.81M178.601 300.269V285.36M114.488 341.247v-7.43M166.404 300.482v-5.13M186.243 272.827v-4.441M182.087 264.973v-22.346M138.512 353.596v-49.535M188.095 291.809v-9.992M102.925 344.839v-5.61M95.117 349.975v-6.279M140.757 323.977v-11.905M178.19 308.292v-10.546M124.925 324.022v-6.593M129.716 323.912v-6.973M248.988 235.939v-23.7M155.645 307.167v-9.497M102.818 370.424v-47.177M93.581 348.924v-5.377M123.92 314.944v-19.048M103.266 331.88v-6.102M170.498 297.49V285.74M204.94 275.307v-20.205M174.983 286.33v-5.036M234.684 241.156V229.23M148.802 310.578V299.06M119.881 307.119v-7.6M173.255 301.793v-5.952M100.667 356.608v-7.54M102.777 313.585v-9.127M282.505 255.874v-23.955M205.593 255.91v-10.222M175.39 289.977v-6.929M122.155 328.893V316.16M185.313 284.242v-12.865M168.677 327.531v-33.419M150.668 316.12v-5.794M268.385 245.681v-55.789M151.28 310.425v-5.808M154.283 305.097v-17.36M218.674 256.62v-8.04M168.475 286.335v-5.047M203.784 266.117v-18.631M155.685 304.364v-5.09M197.434 275.598v-7.582M162.777 297.323v-12.617M91.866 353.8v-4.926M144.375 351.807V306.45M139.605 337.323v-7.985M155.768 311.643v-10.646M94.332 352.864v-5.455M136.031 317.4v-5.353M177.071 282.16v-42.314M212.137 261.228v-8.253M177.11 287.06v-6.496M97.856 349.77v-6.47M181.463 284.387v-8.954M131.243 311.262v-6.883M113.983 359.078v-46.093M122.384 353.301v-56.148M121.223 326.766v-7.88M212.137 261.829v-8.254M158.698 318.072v-42.111M129.226 323.751V315.3M492.615 60.885V32.559M123.782 338.286v-12.913M166.404 293.88v-5.131M126.956 329.037v-6.419M262.537 233.577v-13.574M155.602 303.59v-7.745M200.376 287.133v-28.852M179.642 294.513V275.51M153.963 287.62v-6.416M97.856 350.37v-6.47M183.004 282.976v-12.734M117.307 333.894v-4.73M88.239 357.2v-5.123M238.857 269.662V213.93M139.903 316.268v-4.89M148.175 306.04v-4.842M155.602 304.791v-7.746M130.564 336.048v-18.64M133.92 321.724v-9.8M204.86 256.379v-29.166M106.6 319.408v-5.768M137.324 318.217v-5.787M153.963 290.32v-6.415M192.257 250.852v-20.513M172.574 289.785v-6.545M179.642 294.513V275.51M215.959 268.462v-29.324M98.345 355.227v-10.78M122.025 335.44v-7.22M148.335 318.929v-8.411M150.685 307.678v-5.717M214.06 266.298V234.7M128.8 329.248v-14.044M97.856 350.37v-6.47M161.532 298.379v-11.128M186.298 282.622v-33.634M143.15 307.334v-5.63M251.253 231.053v-17.529M133.659 318.074v-5.5M162.95 301.437v-7.04M94.332 352.264v-5.455M159.838 298.827v-5.421M194.488 266.576v-18.349M133.685 300.054v-8.475M146.77 305.44v-30.051M177.593 302.29v-6.946M101.437 351.411v-9.751M165.468 297.124v-6.817M105.46 338.321v-12.983M156.004 299.68v-14.93M131.342 318.284v-7.121M141.944 310.67v-4.499M166.949 295.246v-7.263M184.668 275.57v-19.53M143.432 311.156v-6.67M171.011 283.533v-6.646M204.94 286.411v-20.205M159.236 303.865v-8.895M129.968 310.775v-8.91M113.983 359.078v-46.093M212.137 260.628v-8.254M148.823 311.792v-4.941M129.226 324.052v-8.453M128.892 330.704V319.75M103.342 347.732v-5.995M159.424 301.89v-10.347M193.766 254.868v-12.94M138.68 319.241v-5.434M240.6 246.262v-20.337M87.204 356.644v-5.212M135.536 335.718V321.94M171.462 303.671v-9.107M135.293 318.235v-6.423M181.544 287.572v-15.924M171.59 322.85v-33.06M198.301 330.278v-35.911M179.642 283.109v-19.002M179.871 286.642v-5.66M97.856 350.07v-6.47M176.624 316.164V305.48M94.285 353.554v-6.835M135.233 319.744v-5.84M92.859 353.335v-4.596M202.526 272.25v-7.489M210.08 261.635v-24.072M166.254 297.508v-9.986M106.916 341.8v-11.537M167.176 297.148v-5.665M152.712 297.453v-12.877M179.642 299.315v-19.002M114.847 337.942v-6.222M166.949 291.645v-7.264M138.33 315.692v-7.34M225.557 262.553V251.05M170.019 301.82v-9.006M145.344 321.264v-5.879M107.097 350.002v-11.135M218.611 254.977v-8.356M99.497 346.32v-4.97M99.967 348.344v-4.817M94.285 349.053v-6.836M276.445 204.892v-21.63M150.64 297.304v-8.978M164.235 300.52v-14.21M109.526 337.49v-10.72M94.285 351.754v-6.836M205.409 293.659v-7.69M185.14 280.397v-5.175M126.42 331.314V317.94M91.108 350.675v-5.879M185.27 289.844V277.78M168.266 293.522v-4.415M179.642 281.308v-19.002M123.637 346.194v-7.72M115.288 357.423v-11.572M204.273 267.027v-14.449M128.035 327.389v-9.725M323.236 177.71v-20.684M110.24 353.814v-9.756M123.337 352.907v-7.941M235.43 238.617v-11.65M136.026 319.932v-7.416M237.463 243.137v-8.685M149.199 308.91v-6.98M208.751 267.379v-9.15M129.226 326.452V318M132.954 287.713v-13.805M90.814 354.269v-5.263M136.557 350.123V325.54M116.708 332.558V325.1M159.364 300.545v-4.055M103.549 356.95v-9.424M88.031 355.231v-8.388M196.228 281.302v-12.987M140.152 311.282v-9.324M170.223 289.76v-13.698M189.175 270.31v-21.014M108.212 335.598v-9.337M144.004 308.313v-6.987M93.377 350.582v-5.092M132.87 317.71v-7.774M171.114 300.76v-8.687M112.102 336.697v-9.734M174.43 289.05v-6.875M128.035 326.788v-9.724M152.43 310.72v-56.817M150.075 307.693v-6.947M272.695 218.655V192.91M142.448 320.26v-9.872M174.743 292.72v-7.613M128.543 354.574v-15.477M92.466 351.71v-4.948M353.104 160.856v-18.79M175.07 290.862v-8.098M324.588 177.737v-19.538M184.518 283.324v-6.228M221.723 263.482v-8.56M123.649 345.204v-6.34M193.907 279.098v-6.78M123.775 320.848V312.8M178.358 296.693v-8.956M121.29 331.562v-4.866M101.865 335.742v-4.823M119.087 333.551v-9.445M137.735 316.836v-5.426M181.167 285.445v-15.271M93.414 352.044v-5.015M186.439 268.708v-23.813M110.731 337.02v-4.378M144.704 316.29v-15.138M285.332 198.143v-20.735M135.536 326.714v-13.778M259.423 346.774v-59.9M104.584 344.799v-4.93M218.802 262.04v-10.476M144.158 341.711v-10.159M111.663 345.066V335.4M127.242 298.8v-11.97M174.43 288.15v-6.875M137.256 316.408v-6.37M212.137 262.729v-8.254M183.473 284.936v-5.25M95.117 349.674v-6.278M113.762 339.855v-10.048M103.83 355.52v-5.365M173.43 299.098V280.53M113.528 336.712v-10.965M143.879 313.851v-18.063M230.975 253.388v-11.18M105.671 340.445v-5.226M173.638 307.339v-33.85M304.364 194.797v-15.844M98.386 340.736v-5.808M156.027 277.615v-11.616M228.218 251.72v-7.844M120.377 329.927v-14.2M167.188 334.557v-14.458M157.208 300.298v-5.962M171.062 312.276v-11.912M220.729 263.08v-8.956M88.308 355.754v-5.832M189.052 299.391v-8.35M144.704 319.891v-15.137M268.464 221.514v-19.459M121.612 340.084v-6.904M88.59 354.774V349.7M193.995 273.505v-5.797M174.313 280.86v-18.106M110.035 337.553v-4.244M154.382 317.869v-27.9M137.256 316.708v-6.37M179.642 303.516v-19.001M234.867 239.948v-8.309M97.574 355.66v-6.245M135.233 320.344v-5.84M195.024 283.012v-19.41M124.186 336.491v-23.728M127.388 324.339v-5.426M165.967 297.685v-9.14M182.087 290.183v-22.346M170.972 283.93v-6.24M133.017 339.546v-9.43M181.937 263.088v-10.172M212.304 257.975V234.62M92.29 352.158v-5.243M297.128 182.736v-13.93M155.967 296.182v-8.535M167.915 294.043v-7.858M152.13 303.94v-9.645M149.824 288.088v-15.156M167.906 293.194v-4.36M201.764 274.652V262.96M177.016 299.123v-18.618M296.245 198.267v-17.982M112.683 337.36v-5.659M158.795 295.504v-11.38M287.473 232.826V184.74M142.641 327.677v-7.9M199.417 287.242v-12.864M136.29 321.961v-18.677M164.906 303.097v-6.158M257.226 261.03v-52.875M144.433 315.95v-6.656M135.536 332.716V318.94M141.501 311.358v-7.675M108.306 348.192v-8.715M106.58 344.64v-6.412M130.515 322.324v-6.198M324.588 177.737v-19.538M92.859 351.534v-4.595M198.301 329.978v-35.911M174.097 295.278v-9.127M180.526 287.648v-6.472M218.674 256.62v-8.04M117.753 337.862v-9.064M114.466 333.91v-4.76M88.4 357.21v-5.143M165.057 297.185v-5.74M112.517 346.006v-6.744M139.009 309.598v-15.559M94.26 350.334v-5.797M118.795 330.015v-8.375M301.073 204.123v-75.312M105.671 341.646v-5.227M150.62 304.318v-11.002M335.827 177.68v-21.825M150.668 313.119v-5.794M267.589 234.184v-14.788M158.572 302.087v-30.549M103.806 333.206v-8.755M193.907 274.897v-6.78M204.07 222.914v-28.261M157.217 293.518v-7.408M278.097 274.255v-57.116M149.84 314.307v-7.57M142.343 313.547v-5.45M186.344 283.061v-9.303M154.524 340.738v-17.817M168.65 290.14v-18.66M176.626 307.644v-10.45M136.301 323.577v-10.505M107.154 350.699v-7.727M120.291 329.426v-7.196M197.707 259.912V249.49M179.642 290.311V271.31M154.035 303.263v-5.29M126.167 323.941v-7.031M186.243 277.029v-4.441M149.483 362.476V319.19M156.325 300.771v-10.51M232.668 314.118V290.72M155.704 290.344v-7.062M143.15 306.134v-5.63M179.808 281.384v-10.751M140.529 320.981v-12.515M190.844 280.923v-8.628M101.5 357.066v-8.456M148.802 315.98v-11.517M186.766 277.353v-5.09M169.038 296.624v-12.42M173.43 284.092v-18.567M115.426 324.124v-8.598M143.575 312.797v-6.952M155.381 307.457v-8.876M171.714 296.64v-11.251M152.92 312.806v-12.972M211.461 249.037v-14.482M164.235 296.919v-14.21M101.437 351.711v-9.751M121.195 332.545v-8.032M173.534 292.746v-6.465M92.859 351.234v-4.595M130.962 318.482v-6.317M145.572 309.54v-5.84M133.297 365.279v-37.487M162.441 312.374v-6.105M116.513 332.575V319.08M171.788 291.799v-5.77M94.892 349.291v-4.911M170.019 297.317v-9.004M94.285 350.553v-6.835M228.7 257.107v-12.615M131.744 326.023v-12.395M176.974 291.605V277.82M183.509 294.775v-36.332M257.226 250.226v-52.875M99.001 354.666v-4.857M176.303 282.478v-18.34M136.692 300.46v-9.287M181.855 299.811V287.62M166.577 298.144v-13.66M144.987 306.952v-5.465M136.91 312.449v-11.057M191.809 292.397v-11.169M93.816 342.008v-5.35M479.644 72.047V44.205M169.513 292.283v-8.54M184.518 280.923v-6.228M234.684 245.657v-11.924M98.012 349.983v-15.898M96.905 351.105v-5.538M164.32 301.334V293.3M166.404 293.58v-5.131M99.967 345.943v-4.817M140.383 314.527v-20.615M105.182 305.445v-7.253M122.155 332.794v-12.733M171.846 287.264v-7.505M175.576 288.314v-6.604M151.082 321.288v-17.331M212.137 263.93v-8.254M95.437 349.21v-4.75M216.457 261.703V251.9M214.5 262.941v-24.284M123.488 329.219v-7.383M190.844 281.523v-8.628M144.31 317.727v-8.409M174.43 293.251v-6.874M155.602 309.593v-7.746M238.087 243.186v-8.783M137.285 320.89v-9.932M193.907 273.096v-6.78M245.285 308.458v-23.483M132.237 320.591v-6.333M132.622 328.817v-11.982M157.655 307.082v-10.527M197.863 271.192v-9.574M153.644 305.538v-7.44M92.859 351.234v-4.595M119.671 331.589v-6.72M114.375 328.339v-6.823M120.583 334.3v-8.541M331.632 177.586V131.94M99.111 349.244v-4.817M139.264 331.584v-15.715M150.075 310.394v-6.947M143.794 310.6v-9.76M180.533 301.925v-18.22M145.499 309.678v-9.717M91.492 348.282v-10.696M204.217 248.005v-11.818M97.856 347.67v-6.47M166.437 303.283v-8.33M265.742 198.02v-15.087M135.151 322.008v-7.367M150.186 302.513v-6.791M189.74 317.745v-22.25M113.737 341.052v-10.04M123.883 352.632v-20.596M89.828 354.113v-4.952M146.025 312.485v-6.327M126.341 319.653v-7.459M168.071 292.99v-12.355M91.281 354.535v-5.195M369.412 163.382v-23.241M161.94 302.1v-6.566M137.256 316.708v-6.37M114.466 334.81v-4.76M192.85 283.044v-12.87M166.404 294.78v-5.13M99.967 347.443v-4.817M178.601 290.365v-14.908M174.29 287.658v-7.693M179.856 283.529v-6.037M215.127 293.968v-14.31M97.856 347.37v-6.47M226.758 247.733V237.06M186.439 268.708v-23.813M375.16 155.488V134.23M160.433 295.876v-7.323M195.699 283.929v-12.24M114.144 337.614v-5.566M87.304 356.746v-6.616M94.752 350.123v-4.774M129.968 308.674v-8.91M123.288 328.513V317.14M132.376 320.282v-9.917M181.544 294.174v-15.923M103.995 347.13v-8.392M157.043 305.854v-18.275M178.358 285.588v-8.955M224.173 254.305v-10.613M97.74 348.437v-4.403M150.668 304.715v-5.793M159.598 288.105v-14.589M200.864 283.926v-9.832M181.544 287.572v-15.924M138.355 317.74v-6.034M147.21 306.032v-17.43M100.929 344.964v-8.261M140.757 320.676V308.77M257.246 220.79v-10.808M123.488 331.02v-7.383M147.35 307.98v-4.52M264.424 229.145v-10.712M220.729 252.276v-8.956M326.089 216.507v-28.653M142.83 314.64v-5.835M311.413 189.822v-22.1M144.433 309.648v-6.656M263.441 228.273v-30.576M204.94 285.811v-20.205M143.357 312.361v-6.68M193.17 300.419v-6.204M212.018 263.908v-8.21M324.588 174.736v-19.539M196.737 297.614v-10.798M168.613 330.739v-15.825M205.816 270.828v-9.447M202.526 268.95v-7.49M170.019 298.818v-9.005M169.888 295.652v-5.074M128.243 325.442v-5.831M224.04 259.914v-12.228M118.177 325.609V311.04M93.493 352.242v-6.011M141.944 312.771v-4.499M104.913 348.956v-6.642M177.375 293.005V278.22M122.082 301.673v-12.314M108.221 341.807v-7.95M187.658 272.276v-14.142M130.77 324.406v-7.961M330.199 168.062V130.06M177.302 277.58v-27.152M91.492 353.985v-10.697M106.756 350.671v-6.47M216.575 256.15v-7.701M155.785 278.859v-10.502M107.833 338.377v-5.292M137.256 316.408v-6.37"/></g><g id="line2d_14"><defs><path d="M0 3a3 3 0 100-6 3 3 0 000 6z" id="m2142927ef1" stroke="#1f77b4"/></defs><g clip-path="url(#p8ff867afab)" fill="#1f77b4" stroke="#1f77b4"><use x="135.536" xlink:href="#m2142927ef1" y="316.824"/><use x="174.43" xlink:href="#m2142927ef1" y="288.313"/><use x="166.784" xlink:href="#m2142927ef1" y="277.809"/><use x="219.917" xlink:href="#m2142927ef1" y="258.902"/><use x="148.802" xlink:href="#m2142927ef1" y="307.22"/><use x="220.261" xlink:href="#m2142927ef1" y="244.797"/><use x="103.995" xlink:href="#m2142927ef1" y="340.833"/><use x="111.628" xlink:href="#m2142927ef1" y="342.634"/><use x="186.243" xlink:href="#m2142927ef1" y="284.412"/><use x="258.75" xlink:href="#m2142927ef1" y="284.712"/><use x="171.665" xlink:href="#m2142927ef1" y="275.408"/><use x="118.205" xlink:href="#m2142927ef1" y="346.835"/><use x="189.301" xlink:href="#m2142927ef1" y="261.003"/><use x="136.756" xlink:href="#m2142927ef1" y="312.923"/><use x="118.739" xlink:href="#m2142927ef1" y="327.328"/><use x="93.581" xlink:href="#m2142927ef1" y="350.437"/><use x="150.732" xlink:href="#m2142927ef1" y="303.919"/><use x="147.845" xlink:href="#m2142927ef1" y="304.519"/><use x="154.233" xlink:href="#m2142927ef1" y="292.215"/><use x="123.488" xlink:href="#m2142927ef1" y="327.328"/><use x="171.63" xlink:href="#m2142927ef1" y="295.816"/><use x="324.588" xlink:href="#m2142927ef1" y="168.268"/><use x="220.83" xlink:href="#m2142927ef1" y="252.6"/><use x="103.663" xlink:href="#m2142927ef1" y="334.831"/><use x="96.931" xlink:href="#m2142927ef1" y="318.325"/><use x="396.83" xlink:href="#m2142927ef1" y="130.754"/><use x="237.683" xlink:href="#m2142927ef1" y="227.09"/><use x="132.413" xlink:href="#m2142927ef1" y="321.926"/><use x="184.021" xlink:href="#m2142927ef1" y="258.302"/><use x="120.292" xlink:href="#m2142927ef1" y="328.829"/><use x="119.621" xlink:href="#m2142927ef1" y="327.328"/><use x="97.856" xlink:href="#m2142927ef1" y="342.634"/><use x="155.602" xlink:href="#m2142927ef1" y="300.018"/><use x="124.924" xlink:href="#m2142927ef1" y="316.824"/><use x="118.265" xlink:href="#m2142927ef1" y="319.225"/><use x="179.757" xlink:href="#m2142927ef1" y="250.799"/><use x="415.866" xlink:href="#m2142927ef1" y="97.741"/><use x="184.576" xlink:href="#m2142927ef1" y="292.815"/><use x="189.281" xlink:href="#m2142927ef1" y="265.505"/><use x="184.518" xlink:href="#m2142927ef1" y="283.812"/><use x="122.155" xlink:href="#m2142927ef1" y="327.028"/><use x="126.405" xlink:href="#m2142927ef1" y="328.829"/><use x="113.983" xlink:href="#m2142927ef1" y="343.834"/><use x="186.298" xlink:href="#m2142927ef1" y="280.81"/><use x="247.49" xlink:href="#m2142927ef1" y="238.795"/><use x="219.937" xlink:href="#m2142927ef1" y="227.39"/><use x="123.414" xlink:href="#m2142927ef1" y="308.721"/><use x="294.077" xlink:href="#m2142927ef1" y="208.783"/><use x="114.466" xlink:href="#m2142927ef1" y="334.231"/><use x="155.602" xlink:href="#m2142927ef1" y="301.218"/><use x="129.776" xlink:href="#m2142927ef1" y="326.428"/><use x="176.639" xlink:href="#m2142927ef1" y="285.012"/><use x="212.067" xlink:href="#m2142927ef1" y="256.501"/><use x="223.201" xlink:href="#m2142927ef1" y="249.599"/><use x="96.406" xlink:href="#m2142927ef1" y="346.235"/><use x="371.692" xlink:href="#m2142927ef1" y="149.061"/><use x="193.907" xlink:href="#m2142927ef1" y="270.907"/><use x="150.713" xlink:href="#m2142927ef1" y="319.825"/><use x="168.601" xlink:href="#m2142927ef1" y="289.814"/><use x="126.976" xlink:href="#m2142927ef1" y="322.226"/><use x="140.992" xlink:href="#m2142927ef1" y="307.521"/><use x="99.497" xlink:href="#m2142927ef1" y="343.234"/><use x="274.042" xlink:href="#m2142927ef1" y="206.082"/><use x="196.97" xlink:href="#m2142927ef1" y="265.805"/><use x="141.944" xlink:href="#m2142927ef1" y="310.522"/><use x="133.982" xlink:href="#m2142927ef1" y="300.018"/><use x="132.423" xlink:href="#m2142927ef1" y="312.322"/><use x="93.493" xlink:href="#m2142927ef1" y="345.335"/><use x="122.861" xlink:href="#m2142927ef1" y="321.326"/><use x="93.97" xlink:href="#m2142927ef1" y="347.736"/><use x="94.285" xlink:href="#m2142927ef1" y="350.137"/><use x="128.747" xlink:href="#m2142927ef1" y="319.525"/><use x="175.481" xlink:href="#m2142927ef1" y="277.509"/><use x="195.321" xlink:href="#m2142927ef1" y="244.797"/><use x="198.504" xlink:href="#m2142927ef1" y="265.805"/><use x="176.639" xlink:href="#m2142927ef1" y="284.412"/><use x="158.365" xlink:href="#m2142927ef1" y="302.419"/><use x="97.136" xlink:href="#m2142927ef1" y="345.035"/><use x="179.642" xlink:href="#m2142927ef1" y="276.609"/><use x="92.764" xlink:href="#m2142927ef1" y="349.837"/><use x="87.204" xlink:href="#m2142927ef1" y="354.038"/><use x="162.193" xlink:href="#m2142927ef1" y="300.618"/><use x="153.67" xlink:href="#m2142927ef1" y="299.418"/><use x="143.065" xlink:href="#m2142927ef1" y="297.017"/><use x="105.217" xlink:href="#m2142927ef1" y="341.133"/><use x="146.139" xlink:href="#m2142927ef1" y="292.215"/><use x="192.21" xlink:href="#m2142927ef1" y="278.109"/><use x="174.43" xlink:href="#m2142927ef1" y="288.013"/><use x="147.489" xlink:href="#m2142927ef1" y="297.317"/><use x="90.673" xlink:href="#m2142927ef1" y="350.437"/><use x="229.925" xlink:href="#m2142927ef1" y="199.18"/><use x="159.247" xlink:href="#m2142927ef1" y="294.015"/><use x="119.999" xlink:href="#m2142927ef1" y="317.124"/><use x="182.003" xlink:href="#m2142927ef1" y="282.011"/><use x="480.151" xlink:href="#m2142927ef1" y="40.72"/><use x="184.518" xlink:href="#m2142927ef1" y="282.611"/><use x="181.674" xlink:href="#m2142927ef1" y="277.809"/><use x="146.632" xlink:href="#m2142927ef1" y="310.822"/><use x="158.291" xlink:href="#m2142927ef1" y="301.818"/><use x="167.502" xlink:href="#m2142927ef1" y="295.816"/><use x="163.35" xlink:href="#m2142927ef1" y="294.316"/><use x="227.669" xlink:href="#m2142927ef1" y="272.107"/><use x="169.718" xlink:href="#m2142927ef1" y="286.813"/><use x="167.48" xlink:href="#m2142927ef1" y="276.909"/><use x="200.539" xlink:href="#m2142927ef1" y="264.904"/><use x="144.008" xlink:href="#m2142927ef1" y="310.522"/><use x="183.926" xlink:href="#m2142927ef1" y="276.609"/><use x="195.55" xlink:href="#m2142927ef1" y="295.816"/><use x="93.539" xlink:href="#m2142927ef1" y="348.036"/><use x="166.294" xlink:href="#m2142927ef1" y="289.814"/><use x="223.949" xlink:href="#m2142927ef1" y="218.087"/><use x="117.772" xlink:href="#m2142927ef1" y="327.328"/><use x="317.598" xlink:href="#m2142927ef1" y="179.072"/><use x="202.526" xlink:href="#m2142927ef1" y="263.404"/><use x="413.117" xlink:href="#m2142927ef1" y="109.746"/><use x="134.873" xlink:href="#m2142927ef1" y="342.334"/><use x="122.509" xlink:href="#m2142927ef1" y="325.227"/><use x="197.199" xlink:href="#m2142927ef1" y="265.205"/><use x="181.544" xlink:href="#m2142927ef1" y="279.01"/><use x="128.347" xlink:href="#m2142927ef1" y="300.918"/><use x="132.743" xlink:href="#m2142927ef1" y="304.82"/><use x="126.706" xlink:href="#m2142927ef1" y="324.627"/><use x="215.627" xlink:href="#m2142927ef1" y="257.102"/><use x="415.866" xlink:href="#m2142927ef1" y="100.742"/><use x="179.77" xlink:href="#m2142927ef1" y="255.301"/><use x="155.602" xlink:href="#m2142927ef1" y="288.013"/><use x="165.191" xlink:href="#m2142927ef1" y="291.915"/><use x="197.309" xlink:href="#m2142927ef1" y="274.808"/><use x="138.379" xlink:href="#m2142927ef1" y="298.817"/><use x="115.634" xlink:href="#m2142927ef1" y="320.425"/><use x="197.199" xlink:href="#m2142927ef1" y="265.205"/><use x="137.643" xlink:href="#m2142927ef1" y="299.418"/><use x="158.169" xlink:href="#m2142927ef1" y="300.018"/><use x="183.683" xlink:href="#m2142927ef1" y="269.406"/><use x="213.579" xlink:href="#m2142927ef1" y="295.816"/><use x="231.027" xlink:href="#m2142927ef1" y="245.097"/><use x="188.351" xlink:href="#m2142927ef1" y="278.41"/><use x="88.763" xlink:href="#m2142927ef1" y="352.238"/><use x="273.945" xlink:href="#m2142927ef1" y="223.789"/><use x="98.041" xlink:href="#m2142927ef1" y="342.334"/><use x="108.726" xlink:href="#m2142927ef1" y="335.731"/><use x="118.795" xlink:href="#m2142927ef1" y="308.421"/><use x="110.882" xlink:href="#m2142927ef1" y="319.825"/><use x="201.211" xlink:href="#m2142927ef1" y="259.803"/><use x="149.199" xlink:href="#m2142927ef1" y="306.62"/><use x="111.662" xlink:href="#m2142927ef1" y="333.931"/><use x="206.725" xlink:href="#m2142927ef1" y="258.302"/><use x="95.523" xlink:href="#m2142927ef1" y="353.738"/><use x="256.493" xlink:href="#m2142927ef1" y="240.295"/><use x="160.566" xlink:href="#m2142927ef1" y="295.816"/><use x="226.621" xlink:href="#m2142927ef1" y="233.993"/><use x="86.797" xlink:href="#m2142927ef1" y="354.638"/><use x="138.543" xlink:href="#m2142927ef1" y="312.022"/><use x="147.771" xlink:href="#m2142927ef1" y="306.02"/><use x="225.81" xlink:href="#m2142927ef1" y="252.9"/><use x="98.38" xlink:href="#m2142927ef1" y="348.036"/><use x="123.968" xlink:href="#m2142927ef1" y="343.834"/><use x="273.017" xlink:href="#m2142927ef1" y="209.684"/><use x="164.687" xlink:href="#m2142927ef1" y="290.414"/><use x="218.674" xlink:href="#m2142927ef1" y="256.801"/><use x="191.454" xlink:href="#m2142927ef1" y="283.812"/><use x="105.265" xlink:href="#m2142927ef1" y="348.936"/><use x="128.243" xlink:href="#m2142927ef1" y="323.427"/><use x="98.758" xlink:href="#m2142927ef1" y="345.035"/><use x="190.121" xlink:href="#m2142927ef1" y="277.809"/><use x="130.521" xlink:href="#m2142927ef1" y="318.325"/><use x="153.67" xlink:href="#m2142927ef1" y="297.917"/><use x="153.978" xlink:href="#m2142927ef1" y="305.42"/><use x="231.027" xlink:href="#m2142927ef1" y="249.599"/><use x="125.981" xlink:href="#m2142927ef1" y="323.427"/><use x="168.76" xlink:href="#m2142927ef1" y="283.211"/><use x="92.018" xlink:href="#m2142927ef1" y="351.037"/><use x="118.607" xlink:href="#m2142927ef1" y="336.031"/><use x="200.015" xlink:href="#m2142927ef1" y="259.803"/><use x="114.466" xlink:href="#m2142927ef1" y="335.731"/><use x="132.376" xlink:href="#m2142927ef1" y="317.124"/><use x="142.25" xlink:href="#m2142927ef1" y="307.821"/><use x="165.385" xlink:href="#m2142927ef1" y="294.316"/><use x="180.416" xlink:href="#m2142927ef1" y="286.813"/><use x="204.283" xlink:href="#m2142927ef1" y="262.804"/><use x="125.526" xlink:href="#m2142927ef1" y="322.826"/><use x="193.231" xlink:href="#m2142927ef1" y="273.608"/><use x="107.4" xlink:href="#m2142927ef1" y="340.533"/><use x="131.389" xlink:href="#m2142927ef1" y="310.822"/><use x="316.505" xlink:href="#m2142927ef1" y="171.269"/><use x="163.94" xlink:href="#m2142927ef1" y="295.816"/><use x="441.346" xlink:href="#m2142927ef1" y="79.734"/><use x="92.996" xlink:href="#m2142927ef1" y="348.936"/><use x="153.751" xlink:href="#m2142927ef1" y="289.514"/><use x="174.312" xlink:href="#m2142927ef1" y="303.019"/><use x="175.967" xlink:href="#m2142927ef1" y="286.813"/><use x="107.122" xlink:href="#m2142927ef1" y="346.835"/><use x="171.714" xlink:href="#m2142927ef1" y="292.815"/><use x="204.941" xlink:href="#m2142927ef1" y="262.804"/><use x="304.364" xlink:href="#m2142927ef1" y="175.771"/><use x="159.098" xlink:href="#m2142927ef1" y="301.818"/><use x="201.842" xlink:href="#m2142927ef1" y="261.903"/><use x="137.256" xlink:href="#m2142927ef1" y="315.324"/><use x="212.177" xlink:href="#m2142927ef1" y="350.437"/><use x="135.556" xlink:href="#m2142927ef1" y="313.823"/><use x="90.451" xlink:href="#m2142927ef1" y="349.236"/><use x="184.518" xlink:href="#m2142927ef1" y="278.71"/><use x="158.698" xlink:href="#m2142927ef1" y="294.015"/><use x="239.269" xlink:href="#m2142927ef1" y="339.333"/><use x="186.243" xlink:href="#m2142927ef1" y="279.91"/><use x="144.433" xlink:href="#m2142927ef1" y="308.121"/><use x="124.601" xlink:href="#m2142927ef1" y="321.326"/><use x="166.404" xlink:href="#m2142927ef1" y="292.815"/><use x="161.349" xlink:href="#m2142927ef1" y="309.321"/><use x="93.504" xlink:href="#m2142927ef1" y="347.136"/><use x="151.28" xlink:href="#m2142927ef1" y="306.32"/><use x="141.944" xlink:href="#m2142927ef1" y="310.222"/><use x="149.187" xlink:href="#m2142927ef1" y="315.324"/><use x="169.626" xlink:href="#m2142927ef1" y="279.61"/><use x="143.065" xlink:href="#m2142927ef1" y="309.621"/><use x="181.439" xlink:href="#m2142927ef1" y="276.309"/><use x="93.504" xlink:href="#m2142927ef1" y="349.536"/><use x="154.476" xlink:href="#m2142927ef1" y="289.814"/><use x="137.387" xlink:href="#m2142927ef1" y="322.826"/><use x="151.234" xlink:href="#m2142927ef1" y="310.222"/><use x="169.121" xlink:href="#m2142927ef1" y="313.823"/><use x="146.203" xlink:href="#m2142927ef1" y="307.821"/><use x="99.837" xlink:href="#m2142927ef1" y="348.636"/><use x="144.86" xlink:href="#m2142927ef1" y="317.124"/><use x="101.194" xlink:href="#m2142927ef1" y="331.83"/><use x="317.598" xlink:href="#m2142927ef1" y="153.262"/><use x="133.443" xlink:href="#m2142927ef1" y="324.627"/><use x="162.879" xlink:href="#m2142927ef1" y="294.015"/><use x="159.017" xlink:href="#m2142927ef1" y="298.217"/><use x="114.322" xlink:href="#m2142927ef1" y="354.338"/><use x="159.23" xlink:href="#m2142927ef1" y="294.616"/><use x="92.387" xlink:href="#m2142927ef1" y="349.236"/><use x="168.021" xlink:href="#m2142927ef1" y="298.217"/><use x="141.944" xlink:href="#m2142927ef1" y="309.922"/><use x="266.901" xlink:href="#m2142927ef1" y="208.783"/><use x="154.883" xlink:href="#m2142927ef1" y="303.919"/><use x="201.507" xlink:href="#m2142927ef1" y="269.106"/><use x="291.978" xlink:href="#m2142927ef1" y="189.576"/><use x="109.951" xlink:href="#m2142927ef1" y="339.333"/><use x="94.772" xlink:href="#m2142927ef1" y="345.335"/><use x="108.704" xlink:href="#m2142927ef1" y="343.534"/><use x="154.035" xlink:href="#m2142927ef1" y="299.718"/><use x="105.394" xlink:href="#m2142927ef1" y="331.83"/><use x="172.95" xlink:href="#m2142927ef1" y="288.313"/><use x="110.372" xlink:href="#m2142927ef1" y="337.232"/><use x="179.642" xlink:href="#m2142927ef1" y="282.311"/><use x="178.601" xlink:href="#m2142927ef1" y="292.815"/><use x="114.488" xlink:href="#m2142927ef1" y="337.532"/><use x="166.404" xlink:href="#m2142927ef1" y="297.917"/><use x="186.243" xlink:href="#m2142927ef1" y="270.607"/><use x="182.087" xlink:href="#m2142927ef1" y="253.8"/><use x="138.512" xlink:href="#m2142927ef1" y="328.829"/><use x="188.095" xlink:href="#m2142927ef1" y="286.813"/><use x="102.925" xlink:href="#m2142927ef1" y="342.034"/><use x="95.117" xlink:href="#m2142927ef1" y="346.835"/><use x="140.757" xlink:href="#m2142927ef1" y="318.025"/><use x="178.191" xlink:href="#m2142927ef1" y="303.019"/><use x="124.925" xlink:href="#m2142927ef1" y="320.726"/><use x="129.716" xlink:href="#m2142927ef1" y="320.425"/><use x="248.988" xlink:href="#m2142927ef1" y="224.089"/><use x="155.645" xlink:href="#m2142927ef1" y="302.419"/><use x="102.818" xlink:href="#m2142927ef1" y="346.835"/><use x="93.581" xlink:href="#m2142927ef1" y="346.235"/><use x="123.92" xlink:href="#m2142927ef1" y="305.42"/><use x="103.266" xlink:href="#m2142927ef1" y="328.829"/><use x="170.498" xlink:href="#m2142927ef1" y="291.615"/><use x="204.941" xlink:href="#m2142927ef1" y="265.205"/><use x="174.983" xlink:href="#m2142927ef1" y="283.812"/><use x="234.684" xlink:href="#m2142927ef1" y="235.193"/><use x="148.802" xlink:href="#m2142927ef1" y="304.82"/><use x="119.881" xlink:href="#m2142927ef1" y="303.319"/><use x="173.255" xlink:href="#m2142927ef1" y="298.817"/><use x="100.667" xlink:href="#m2142927ef1" y="352.838"/><use x="102.777" xlink:href="#m2142927ef1" y="309.021"/><use x="282.505" xlink:href="#m2142927ef1" y="243.897"/><use x="205.593" xlink:href="#m2142927ef1" y="250.799"/><use x="175.389" xlink:href="#m2142927ef1" y="286.513"/><use x="122.155" xlink:href="#m2142927ef1" y="322.526"/><use x="185.313" xlink:href="#m2142927ef1" y="277.809"/><use x="168.677" xlink:href="#m2142927ef1" y="310.822"/><use x="150.668" xlink:href="#m2142927ef1" y="313.223"/><use x="268.385" xlink:href="#m2142927ef1" y="217.787"/><use x="151.28" xlink:href="#m2142927ef1" y="307.521"/><use x="154.283" xlink:href="#m2142927ef1" y="296.416"/><use x="218.674" xlink:href="#m2142927ef1" y="252.6"/><use x="168.475" xlink:href="#m2142927ef1" y="283.812"/><use x="203.784" xlink:href="#m2142927ef1" y="256.801"/><use x="155.685" xlink:href="#m2142927ef1" y="301.818"/><use x="197.434" xlink:href="#m2142927ef1" y="271.807"/><use x="162.777" xlink:href="#m2142927ef1" y="291.014"/><use x="91.866" xlink:href="#m2142927ef1" y="351.337"/><use x="144.375" xlink:href="#m2142927ef1" y="329.129"/><use x="139.605" xlink:href="#m2142927ef1" y="333.33"/><use x="155.768" xlink:href="#m2142927ef1" y="306.32"/><use x="94.332" xlink:href="#m2142927ef1" y="350.137"/><use x="136.031" xlink:href="#m2142927ef1" y="314.723"/><use x="177.071" xlink:href="#m2142927ef1" y="261.003"/><use x="212.137" xlink:href="#m2142927ef1" y="257.102"/><use x="177.11" xlink:href="#m2142927ef1" y="283.812"/><use x="97.856" xlink:href="#m2142927ef1" y="346.535"/><use x="181.463" xlink:href="#m2142927ef1" y="279.91"/><use x="131.243" xlink:href="#m2142927ef1" y="307.821"/><use x="113.983" xlink:href="#m2142927ef1" y="336.031"/><use x="122.384" xlink:href="#m2142927ef1" y="325.227"/><use x="121.223" xlink:href="#m2142927ef1" y="322.826"/><use x="212.137" xlink:href="#m2142927ef1" y="257.702"/><use x="158.698" xlink:href="#m2142927ef1" y="297.017"/><use x="129.226" xlink:href="#m2142927ef1" y="319.525"/><use x="492.615" xlink:href="#m2142927ef1" y="46.722"/><use x="123.782" xlink:href="#m2142927ef1" y="331.83"/><use x="166.404" xlink:href="#m2142927ef1" y="291.314"/><use x="126.956" xlink:href="#m2142927ef1" y="325.828"/><use x="262.537" xlink:href="#m2142927ef1" y="226.79"/><use x="155.602" xlink:href="#m2142927ef1" y="299.718"/><use x="200.376" xlink:href="#m2142927ef1" y="272.707"/><use x="179.642" xlink:href="#m2142927ef1" y="285.012"/><use x="153.963" xlink:href="#m2142927ef1" y="284.412"/><use x="97.856" xlink:href="#m2142927ef1" y="347.136"/><use x="183.004" xlink:href="#m2142927ef1" y="276.609"/><use x="117.307" xlink:href="#m2142927ef1" y="331.53"/><use x="88.239" xlink:href="#m2142927ef1" y="354.638"/><use x="238.857" xlink:href="#m2142927ef1" y="241.796"/><use x="139.903" xlink:href="#m2142927ef1" y="313.823"/><use x="148.175" xlink:href="#m2142927ef1" y="303.619"/><use x="155.602" xlink:href="#m2142927ef1" y="300.918"/><use x="130.564" xlink:href="#m2142927ef1" y="326.728"/><use x="133.92" xlink:href="#m2142927ef1" y="316.824"/><use x="204.861" xlink:href="#m2142927ef1" y="241.796"/><use x="106.599" xlink:href="#m2142927ef1" y="316.524"/><use x="137.324" xlink:href="#m2142927ef1" y="315.324"/><use x="153.963" xlink:href="#m2142927ef1" y="287.113"/><use x="192.257" xlink:href="#m2142927ef1" y="240.595"/><use x="172.574" xlink:href="#m2142927ef1" y="286.513"/><use x="179.642" xlink:href="#m2142927ef1" y="285.012"/><use x="215.959" xlink:href="#m2142927ef1" y="253.8"/><use x="98.345" xlink:href="#m2142927ef1" y="349.837"/><use x="122.025" xlink:href="#m2142927ef1" y="331.83"/><use x="148.335" xlink:href="#m2142927ef1" y="314.723"/><use x="150.685" xlink:href="#m2142927ef1" y="304.82"/><use x="214.061" xlink:href="#m2142927ef1" y="250.499"/><use x="128.799" xlink:href="#m2142927ef1" y="322.226"/><use x="97.856" xlink:href="#m2142927ef1" y="347.136"/><use x="161.532" xlink:href="#m2142927ef1" y="292.815"/><use x="186.298" xlink:href="#m2142927ef1" y="265.805"/><use x="143.15" xlink:href="#m2142927ef1" y="304.519"/><use x="251.253" xlink:href="#m2142927ef1" y="222.288"/><use x="133.659" xlink:href="#m2142927ef1" y="315.324"/><use x="162.95" xlink:href="#m2142927ef1" y="297.917"/><use x="94.332" xlink:href="#m2142927ef1" y="349.536"/><use x="159.838" xlink:href="#m2142927ef1" y="296.116"/><use x="194.488" xlink:href="#m2142927ef1" y="257.402"/><use x="133.685" xlink:href="#m2142927ef1" y="295.816"/><use x="146.769" xlink:href="#m2142927ef1" y="290.414"/><use x="177.593" xlink:href="#m2142927ef1" y="298.817"/><use x="101.437" xlink:href="#m2142927ef1" y="346.535"/><use x="165.468" xlink:href="#m2142927ef1" y="293.715"/><use x="105.46" xlink:href="#m2142927ef1" y="331.83"/><use x="156.004" xlink:href="#m2142927ef1" y="292.215"/><use x="131.342" xlink:href="#m2142927ef1" y="314.723"/><use x="141.944" xlink:href="#m2142927ef1" y="308.421"/><use x="166.949" xlink:href="#m2142927ef1" y="291.615"/><use x="184.668" xlink:href="#m2142927ef1" y="265.805"/><use x="143.432" xlink:href="#m2142927ef1" y="307.821"/><use x="171.011" xlink:href="#m2142927ef1" y="280.21"/><use x="204.941" xlink:href="#m2142927ef1" y="276.309"/><use x="159.236" xlink:href="#m2142927ef1" y="299.418"/><use x="129.968" xlink:href="#m2142927ef1" y="306.32"/><use x="113.983" xlink:href="#m2142927ef1" y="336.031"/><use x="212.137" xlink:href="#m2142927ef1" y="256.501"/><use x="148.823" xlink:href="#m2142927ef1" y="309.321"/><use x="129.226" xlink:href="#m2142927ef1" y="319.825"/><use x="128.892" xlink:href="#m2142927ef1" y="325.227"/><use x="103.342" xlink:href="#m2142927ef1" y="344.735"/><use x="159.424" xlink:href="#m2142927ef1" y="296.717"/><use x="193.766" xlink:href="#m2142927ef1" y="248.398"/><use x="138.679" xlink:href="#m2142927ef1" y="316.524"/><use x="240.6" xlink:href="#m2142927ef1" y="236.094"/><use x="87.204" xlink:href="#m2142927ef1" y="354.038"/><use x="135.536" xlink:href="#m2142927ef1" y="328.829"/><use x="171.462" xlink:href="#m2142927ef1" y="299.117"/><use x="135.293" xlink:href="#m2142927ef1" y="315.023"/><use x="181.544" xlink:href="#m2142927ef1" y="279.61"/><use x="171.59" xlink:href="#m2142927ef1" y="306.32"/><use x="198.301" xlink:href="#m2142927ef1" y="312.322"/><use x="179.642" xlink:href="#m2142927ef1" y="273.608"/><use x="179.871" xlink:href="#m2142927ef1" y="283.812"/><use x="97.856" xlink:href="#m2142927ef1" y="346.835"/><use x="176.624" xlink:href="#m2142927ef1" y="310.822"/><use x="94.285" xlink:href="#m2142927ef1" y="350.137"/><use x="135.233" xlink:href="#m2142927ef1" y="316.824"/><use x="92.859" xlink:href="#m2142927ef1" y="351.037"/><use x="202.526" xlink:href="#m2142927ef1" y="268.506"/><use x="210.081" xlink:href="#m2142927ef1" y="249.599"/><use x="166.254" xlink:href="#m2142927ef1" y="292.515"/><use x="106.916" xlink:href="#m2142927ef1" y="336.031"/><use x="167.176" xlink:href="#m2142927ef1" y="294.316"/><use x="152.712" xlink:href="#m2142927ef1" y="291.014"/><use x="179.642" xlink:href="#m2142927ef1" y="289.814"/><use x="114.847" xlink:href="#m2142927ef1" y="334.831"/><use x="166.949" xlink:href="#m2142927ef1" y="288.013"/><use x="138.331" xlink:href="#m2142927ef1" y="312.022"/><use x="225.557" xlink:href="#m2142927ef1" y="256.801"/><use x="170.019" xlink:href="#m2142927ef1" y="297.317"/><use x="145.344" xlink:href="#m2142927ef1" y="318.325"/><use x="107.097" xlink:href="#m2142927ef1" y="344.435"/><use x="218.611" xlink:href="#m2142927ef1" y="250.799"/><use x="99.497" xlink:href="#m2142927ef1" y="343.834"/><use x="99.967" xlink:href="#m2142927ef1" y="345.935"/><use x="94.285" xlink:href="#m2142927ef1" y="345.635"/><use x="276.445" xlink:href="#m2142927ef1" y="194.078"/><use x="150.64" xlink:href="#m2142927ef1" y="292.815"/><use x="164.235" xlink:href="#m2142927ef1" y="293.415"/><use x="109.526" xlink:href="#m2142927ef1" y="332.13"/><use x="94.285" xlink:href="#m2142927ef1" y="348.336"/><use x="205.409" xlink:href="#m2142927ef1" y="289.814"/><use x="185.141" xlink:href="#m2142927ef1" y="277.809"/><use x="126.419" xlink:href="#m2142927ef1" y="324.627"/><use x="91.108" xlink:href="#m2142927ef1" y="347.736"/><use x="185.271" xlink:href="#m2142927ef1" y="283.812"/><use x="168.266" xlink:href="#m2142927ef1" y="291.314"/><use x="179.642" xlink:href="#m2142927ef1" y="271.807"/><use x="123.637" xlink:href="#m2142927ef1" y="342.334"/><use x="115.288" xlink:href="#m2142927ef1" y="351.637"/><use x="204.273" xlink:href="#m2142927ef1" y="259.803"/><use x="128.035" xlink:href="#m2142927ef1" y="322.526"/><use x="323.236" xlink:href="#m2142927ef1" y="167.368"/><use x="110.241" xlink:href="#m2142927ef1" y="348.936"/><use x="123.337" xlink:href="#m2142927ef1" y="348.936"/><use x="235.431" xlink:href="#m2142927ef1" y="232.792"/><use x="136.026" xlink:href="#m2142927ef1" y="316.224"/><use x="237.463" xlink:href="#m2142927ef1" y="238.795"/><use x="149.199" xlink:href="#m2142927ef1" y="305.42"/><use x="208.751" xlink:href="#m2142927ef1" y="262.804"/><use x="129.226" xlink:href="#m2142927ef1" y="322.226"/><use x="132.954" xlink:href="#m2142927ef1" y="280.81"/><use x="90.814" xlink:href="#m2142927ef1" y="351.637"/><use x="136.557" xlink:href="#m2142927ef1" y="337.832"/><use x="116.708" xlink:href="#m2142927ef1" y="328.829"/><use x="159.364" xlink:href="#m2142927ef1" y="298.517"/><use x="103.549" xlink:href="#m2142927ef1" y="352.238"/><use x="88.031" xlink:href="#m2142927ef1" y="351.037"/><use x="196.228" xlink:href="#m2142927ef1" y="274.808"/><use x="140.152" xlink:href="#m2142927ef1" y="306.62"/><use x="170.223" xlink:href="#m2142927ef1" y="282.911"/><use x="189.175" xlink:href="#m2142927ef1" y="259.803"/><use x="108.212" xlink:href="#m2142927ef1" y="330.929"/><use x="144.004" xlink:href="#m2142927ef1" y="304.82"/><use x="93.377" xlink:href="#m2142927ef1" y="348.036"/><use x="132.87" xlink:href="#m2142927ef1" y="313.823"/><use x="171.114" xlink:href="#m2142927ef1" y="296.416"/><use x="112.102" xlink:href="#m2142927ef1" y="331.83"/><use x="174.43" xlink:href="#m2142927ef1" y="285.612"/><use x="128.035" xlink:href="#m2142927ef1" y="321.926"/><use x="152.43" xlink:href="#m2142927ef1" y="282.311"/><use x="150.075" xlink:href="#m2142927ef1" y="304.219"/><use x="272.695" xlink:href="#m2142927ef1" y="205.782"/><use x="142.448" xlink:href="#m2142927ef1" y="315.324"/><use x="174.743" xlink:href="#m2142927ef1" y="288.914"/><use x="128.543" xlink:href="#m2142927ef1" y="346.835"/><use x="92.466" xlink:href="#m2142927ef1" y="349.236"/><use x="353.104" xlink:href="#m2142927ef1" y="151.462"/><use x="175.071" xlink:href="#m2142927ef1" y="286.813"/><use x="324.588" xlink:href="#m2142927ef1" y="167.968"/><use x="184.518" xlink:href="#m2142927ef1" y="280.21"/><use x="221.723" xlink:href="#m2142927ef1" y="259.202"/><use x="123.649" xlink:href="#m2142927ef1" y="342.034"/><use x="193.907" xlink:href="#m2142927ef1" y="275.709"/><use x="123.775" xlink:href="#m2142927ef1" y="316.824"/><use x="178.358" xlink:href="#m2142927ef1" y="292.215"/><use x="121.29" xlink:href="#m2142927ef1" y="329.129"/><use x="101.865" xlink:href="#m2142927ef1" y="333.33"/><use x="119.087" xlink:href="#m2142927ef1" y="328.829"/><use x="137.735" xlink:href="#m2142927ef1" y="314.123"/><use x="181.167" xlink:href="#m2142927ef1" y="277.809"/><use x="93.414" xlink:href="#m2142927ef1" y="349.536"/><use x="186.439" xlink:href="#m2142927ef1" y="256.801"/><use x="110.731" xlink:href="#m2142927ef1" y="334.831"/><use x="144.704" xlink:href="#m2142927ef1" y="308.721"/><use x="285.332" xlink:href="#m2142927ef1" y="187.775"/><use x="135.536" xlink:href="#m2142927ef1" y="319.825"/><use x="259.423" xlink:href="#m2142927ef1" y="316.824"/><use x="104.584" xlink:href="#m2142927ef1" y="342.334"/><use x="218.802" xlink:href="#m2142927ef1" y="256.801"/><use x="144.158" xlink:href="#m2142927ef1" y="336.632"/><use x="111.663" xlink:href="#m2142927ef1" y="340.233"/><use x="127.242" xlink:href="#m2142927ef1" y="292.815"/><use x="174.43" xlink:href="#m2142927ef1" y="284.712"/><use x="137.256" xlink:href="#m2142927ef1" y="313.223"/><use x="212.137" xlink:href="#m2142927ef1" y="258.602"/><use x="183.473" xlink:href="#m2142927ef1" y="282.311"/><use x="95.117" xlink:href="#m2142927ef1" y="346.535"/><use x="113.762" xlink:href="#m2142927ef1" y="334.831"/><use x="103.83" xlink:href="#m2142927ef1" y="352.838"/><use x="173.43" xlink:href="#m2142927ef1" y="289.814"/><use x="113.528" xlink:href="#m2142927ef1" y="331.23"/><use x="143.879" xlink:href="#m2142927ef1" y="304.82"/><use x="230.975" xlink:href="#m2142927ef1" y="247.798"/><use x="105.671" xlink:href="#m2142927ef1" y="337.832"/><use x="173.638" xlink:href="#m2142927ef1" y="290.414"/><use x="304.364" xlink:href="#m2142927ef1" y="186.875"/><use x="98.386" xlink:href="#m2142927ef1" y="337.832"/><use x="156.027" xlink:href="#m2142927ef1" y="271.807"/><use x="228.218" xlink:href="#m2142927ef1" y="247.798"/><use x="120.377" xlink:href="#m2142927ef1" y="322.826"/><use x="167.188" xlink:href="#m2142927ef1" y="327.328"/><use x="157.208" xlink:href="#m2142927ef1" y="297.317"/><use x="171.062" xlink:href="#m2142927ef1" y="306.32"/><use x="220.729" xlink:href="#m2142927ef1" y="258.602"/><use x="88.308" xlink:href="#m2142927ef1" y="352.838"/><use x="189.052" xlink:href="#m2142927ef1" y="295.216"/><use x="144.704" xlink:href="#m2142927ef1" y="312.322"/><use x="268.464" xlink:href="#m2142927ef1" y="211.784"/><use x="121.612" xlink:href="#m2142927ef1" y="336.632"/><use x="88.589" xlink:href="#m2142927ef1" y="352.238"/><use x="193.995" xlink:href="#m2142927ef1" y="270.607"/><use x="174.313" xlink:href="#m2142927ef1" y="271.807"/><use x="110.035" xlink:href="#m2142927ef1" y="335.431"/><use x="154.382" xlink:href="#m2142927ef1" y="303.919"/><use x="137.256" xlink:href="#m2142927ef1" y="313.523"/><use x="179.642" xlink:href="#m2142927ef1" y="294.015"/><use x="234.867" xlink:href="#m2142927ef1" y="235.793"/><use x="97.574" xlink:href="#m2142927ef1" y="352.538"/><use x="135.233" xlink:href="#m2142927ef1" y="317.424"/><use x="195.024" xlink:href="#m2142927ef1" y="273.308"/><use x="124.186" xlink:href="#m2142927ef1" y="324.627"/><use x="127.388" xlink:href="#m2142927ef1" y="321.626"/><use x="165.967" xlink:href="#m2142927ef1" y="293.115"/><use x="182.087" xlink:href="#m2142927ef1" y="279.01"/><use x="170.972" xlink:href="#m2142927ef1" y="280.81"/><use x="133.017" xlink:href="#m2142927ef1" y="334.831"/><use x="181.937" xlink:href="#m2142927ef1" y="258.002"/><use x="212.304" xlink:href="#m2142927ef1" y="246.297"/><use x="92.29" xlink:href="#m2142927ef1" y="349.536"/><use x="297.128" xlink:href="#m2142927ef1" y="175.771"/><use x="155.967" xlink:href="#m2142927ef1" y="291.915"/><use x="167.915" xlink:href="#m2142927ef1" y="290.114"/><use x="152.13" xlink:href="#m2142927ef1" y="299.117"/><use x="149.824" xlink:href="#m2142927ef1" y="280.51"/><use x="167.906" xlink:href="#m2142927ef1" y="291.014"/><use x="201.764" xlink:href="#m2142927ef1" y="268.806"/><use x="177.016" xlink:href="#m2142927ef1" y="289.814"/><use x="296.245" xlink:href="#m2142927ef1" y="189.276"/><use x="112.683" xlink:href="#m2142927ef1" y="334.531"/><use x="158.795" xlink:href="#m2142927ef1" y="289.814"/><use x="287.473" xlink:href="#m2142927ef1" y="208.783"/><use x="142.641" xlink:href="#m2142927ef1" y="323.727"/><use x="199.417" xlink:href="#m2142927ef1" y="280.81"/><use x="136.291" xlink:href="#m2142927ef1" y="312.623"/><use x="164.906" xlink:href="#m2142927ef1" y="300.018"/><use x="257.226" xlink:href="#m2142927ef1" y="234.593"/><use x="144.433" xlink:href="#m2142927ef1" y="312.623"/><use x="135.536" xlink:href="#m2142927ef1" y="325.828"/><use x="141.501" xlink:href="#m2142927ef1" y="307.521"/><use x="108.306" xlink:href="#m2142927ef1" y="343.834"/><use x="106.58" xlink:href="#m2142927ef1" y="341.433"/><use x="130.515" xlink:href="#m2142927ef1" y="319.225"/><use x="324.588" xlink:href="#m2142927ef1" y="167.968"/><use x="92.859" xlink:href="#m2142927ef1" y="349.236"/><use x="198.301" xlink:href="#m2142927ef1" y="312.022"/><use x="174.097" xlink:href="#m2142927ef1" y="290.714"/><use x="180.526" xlink:href="#m2142927ef1" y="284.412"/><use x="218.674" xlink:href="#m2142927ef1" y="252.6"/><use x="117.753" xlink:href="#m2142927ef1" y="333.33"/><use x="114.466" xlink:href="#m2142927ef1" y="331.53"/><use x="88.4" xlink:href="#m2142927ef1" y="354.638"/><use x="165.057" xlink:href="#m2142927ef1" y="294.316"/><use x="112.517" xlink:href="#m2142927ef1" y="342.634"/><use x="139.009" xlink:href="#m2142927ef1" y="301.818"/><use x="94.26" xlink:href="#m2142927ef1" y="347.436"/><use x="118.795" xlink:href="#m2142927ef1" y="325.828"/><use x="301.073" xlink:href="#m2142927ef1" y="166.467"/><use x="105.671" xlink:href="#m2142927ef1" y="339.033"/><use x="150.619" xlink:href="#m2142927ef1" y="298.817"/><use x="335.827" xlink:href="#m2142927ef1" y="166.767"/><use x="150.668" xlink:href="#m2142927ef1" y="310.222"/><use x="267.589" xlink:href="#m2142927ef1" y="226.79"/><use x="158.572" xlink:href="#m2142927ef1" y="286.813"/><use x="103.806" xlink:href="#m2142927ef1" y="328.829"/><use x="193.907" xlink:href="#m2142927ef1" y="271.507"/><use x="204.071" xlink:href="#m2142927ef1" y="208.783"/><use x="157.217" xlink:href="#m2142927ef1" y="289.814"/><use x="278.097" xlink:href="#m2142927ef1" y="245.697"/><use x="149.84" xlink:href="#m2142927ef1" y="310.522"/><use x="142.343" xlink:href="#m2142927ef1" y="310.822"/><use x="186.344" xlink:href="#m2142927ef1" y="278.41"/><use x="154.524" xlink:href="#m2142927ef1" y="331.83"/><use x="168.651" xlink:href="#m2142927ef1" y="280.81"/><use x="176.626" xlink:href="#m2142927ef1" y="302.419"/><use x="136.301" xlink:href="#m2142927ef1" y="318.325"/><use x="107.154" xlink:href="#m2142927ef1" y="346.835"/><use x="120.291" xlink:href="#m2142927ef1" y="325.828"/><use x="197.707" xlink:href="#m2142927ef1" y="254.701"/><use x="179.642" xlink:href="#m2142927ef1" y="280.81"/><use x="154.035" xlink:href="#m2142927ef1" y="300.618"/><use x="126.167" xlink:href="#m2142927ef1" y="320.425"/><use x="186.243" xlink:href="#m2142927ef1" y="274.808"/><use x="149.483" xlink:href="#m2142927ef1" y="340.833"/><use x="156.325" xlink:href="#m2142927ef1" y="295.516"/><use x="232.668" xlink:href="#m2142927ef1" y="302.419"/><use x="155.704" xlink:href="#m2142927ef1" y="286.813"/><use x="143.15" xlink:href="#m2142927ef1" y="303.319"/><use x="179.808" xlink:href="#m2142927ef1" y="276.009"/><use x="140.529" xlink:href="#m2142927ef1" y="314.723"/><use x="190.844" xlink:href="#m2142927ef1" y="276.609"/><use x="101.5" xlink:href="#m2142927ef1" y="352.838"/><use x="148.802" xlink:href="#m2142927ef1" y="310.222"/><use x="186.766" xlink:href="#m2142927ef1" y="274.808"/><use x="169.038" xlink:href="#m2142927ef1" y="290.414"/><use x="173.43" xlink:href="#m2142927ef1" y="274.808"/><use x="115.426" xlink:href="#m2142927ef1" y="319.825"/><use x="143.575" xlink:href="#m2142927ef1" y="309.321"/><use x="155.381" xlink:href="#m2142927ef1" y="303.019"/><use x="171.714" xlink:href="#m2142927ef1" y="291.014"/><use x="152.919" xlink:href="#m2142927ef1" y="306.32"/><use x="211.461" xlink:href="#m2142927ef1" y="241.796"/><use x="164.235" xlink:href="#m2142927ef1" y="289.814"/><use x="101.437" xlink:href="#m2142927ef1" y="346.835"/><use x="121.195" xlink:href="#m2142927ef1" y="328.529"/><use x="173.534" xlink:href="#m2142927ef1" y="289.514"/><use x="92.859" xlink:href="#m2142927ef1" y="348.936"/><use x="130.962" xlink:href="#m2142927ef1" y="315.324"/><use x="145.572" xlink:href="#m2142927ef1" y="306.62"/><use x="133.297" xlink:href="#m2142927ef1" y="346.535"/><use x="162.441" xlink:href="#m2142927ef1" y="309.321"/><use x="116.513" xlink:href="#m2142927ef1" y="325.828"/><use x="171.788" xlink:href="#m2142927ef1" y="288.914"/><use x="94.892" xlink:href="#m2142927ef1" y="346.835"/><use x="170.019" xlink:href="#m2142927ef1" y="292.815"/><use x="94.285" xlink:href="#m2142927ef1" y="347.136"/><use x="228.701" xlink:href="#m2142927ef1" y="250.799"/><use x="131.744" xlink:href="#m2142927ef1" y="319.825"/><use x="176.974" xlink:href="#m2142927ef1" y="284.712"/><use x="183.509" xlink:href="#m2142927ef1" y="276.609"/><use x="257.226" xlink:href="#m2142927ef1" y="223.789"/><use x="99.001" xlink:href="#m2142927ef1" y="352.238"/><use x="176.303" xlink:href="#m2142927ef1" y="273.308"/><use x="136.692" xlink:href="#m2142927ef1" y="295.816"/><use x="181.855" xlink:href="#m2142927ef1" y="293.715"/><use x="166.577" xlink:href="#m2142927ef1" y="291.314"/><use x="144.987" xlink:href="#m2142927ef1" y="304.219"/><use x="136.909" xlink:href="#m2142927ef1" y="306.92"/><use x="191.809" xlink:href="#m2142927ef1" y="286.813"/><use x="93.816" xlink:href="#m2142927ef1" y="339.333"/><use x="479.644" xlink:href="#m2142927ef1" y="58.126"/><use x="169.513" xlink:href="#m2142927ef1" y="288.013"/><use x="184.518" xlink:href="#m2142927ef1" y="277.809"/><use x="234.684" xlink:href="#m2142927ef1" y="239.695"/><use x="98.012" xlink:href="#m2142927ef1" y="342.034"/><use x="96.905" xlink:href="#m2142927ef1" y="348.336"/><use x="164.32" xlink:href="#m2142927ef1" y="297.317"/><use x="166.404" xlink:href="#m2142927ef1" y="291.014"/><use x="99.967" xlink:href="#m2142927ef1" y="343.534"/><use x="140.383" xlink:href="#m2142927ef1" y="304.219"/><use x="105.182" xlink:href="#m2142927ef1" y="301.818"/><use x="122.155" xlink:href="#m2142927ef1" y="326.428"/><use x="171.846" xlink:href="#m2142927ef1" y="283.512"/><use x="175.576" xlink:href="#m2142927ef1" y="285.012"/><use x="151.082" xlink:href="#m2142927ef1" y="312.623"/><use x="212.137" xlink:href="#m2142927ef1" y="259.803"/><use x="95.437" xlink:href="#m2142927ef1" y="346.835"/><use x="216.457" xlink:href="#m2142927ef1" y="256.801"/><use x="214.5" xlink:href="#m2142927ef1" y="250.799"/><use x="123.488" xlink:href="#m2142927ef1" y="325.527"/><use x="190.844" xlink:href="#m2142927ef1" y="277.209"/><use x="144.311" xlink:href="#m2142927ef1" y="313.523"/><use x="174.43" xlink:href="#m2142927ef1" y="289.814"/><use x="155.602" xlink:href="#m2142927ef1" y="305.72"/><use x="238.087" xlink:href="#m2142927ef1" y="238.795"/><use x="137.285" xlink:href="#m2142927ef1" y="315.924"/><use x="193.907" xlink:href="#m2142927ef1" y="269.706"/><use x="245.285" xlink:href="#m2142927ef1" y="296.717"/><use x="132.237" xlink:href="#m2142927ef1" y="317.424"/><use x="132.622" xlink:href="#m2142927ef1" y="322.826"/><use x="157.655" xlink:href="#m2142927ef1" y="301.818"/><use x="197.863" xlink:href="#m2142927ef1" y="266.405"/><use x="153.644" xlink:href="#m2142927ef1" y="301.818"/><use x="92.859" xlink:href="#m2142927ef1" y="348.936"/><use x="119.671" xlink:href="#m2142927ef1" y="328.228"/><use x="114.375" xlink:href="#m2142927ef1" y="324.927"/><use x="120.583" xlink:href="#m2142927ef1" y="330.029"/><use x="331.632" xlink:href="#m2142927ef1" y="154.763"/><use x="99.111" xlink:href="#m2142927ef1" y="346.835"/><use x="139.264" xlink:href="#m2142927ef1" y="323.727"/><use x="150.075" xlink:href="#m2142927ef1" y="306.92"/><use x="143.794" xlink:href="#m2142927ef1" y="305.72"/><use x="180.533" xlink:href="#m2142927ef1" y="292.815"/><use x="145.499" xlink:href="#m2142927ef1" y="304.82"/><use x="91.492" xlink:href="#m2142927ef1" y="342.934"/><use x="204.217" xlink:href="#m2142927ef1" y="242.096"/><use x="97.856" xlink:href="#m2142927ef1" y="344.435"/><use x="166.437" xlink:href="#m2142927ef1" y="299.117"/><use x="265.742" xlink:href="#m2142927ef1" y="190.476"/><use x="135.151" xlink:href="#m2142927ef1" y="318.325"/><use x="150.186" xlink:href="#m2142927ef1" y="299.117"/><use x="189.741" xlink:href="#m2142927ef1" y="306.62"/><use x="113.737" xlink:href="#m2142927ef1" y="336.031"/><use x="123.883" xlink:href="#m2142927ef1" y="342.334"/><use x="89.828" xlink:href="#m2142927ef1" y="351.637"/><use x="146.025" xlink:href="#m2142927ef1" y="309.321"/><use x="126.341" xlink:href="#m2142927ef1" y="315.924"/><use x="168.071" xlink:href="#m2142927ef1" y="286.813"/><use x="91.281" xlink:href="#m2142927ef1" y="351.937"/><use x="369.412" xlink:href="#m2142927ef1" y="151.762"/><use x="161.939" xlink:href="#m2142927ef1" y="298.817"/><use x="137.256" xlink:href="#m2142927ef1" y="313.523"/><use x="114.466" xlink:href="#m2142927ef1" y="332.43"/><use x="192.851" xlink:href="#m2142927ef1" y="276.609"/><use x="166.404" xlink:href="#m2142927ef1" y="292.215"/><use x="99.967" xlink:href="#m2142927ef1" y="345.035"/><use x="178.601" xlink:href="#m2142927ef1" y="282.911"/><use x="174.289" xlink:href="#m2142927ef1" y="283.812"/><use x="179.856" xlink:href="#m2142927ef1" y="280.51"/><use x="215.127" xlink:href="#m2142927ef1" y="286.813"/><use x="97.856" xlink:href="#m2142927ef1" y="344.134"/><use x="226.758" xlink:href="#m2142927ef1" y="242.396"/><use x="186.439" xlink:href="#m2142927ef1" y="256.801"/><use x="375.161" xlink:href="#m2142927ef1" y="144.859"/><use x="160.433" xlink:href="#m2142927ef1" y="292.215"/><use x="195.699" xlink:href="#m2142927ef1" y="277.809"/><use x="114.144" xlink:href="#m2142927ef1" y="334.831"/><use x="87.304" xlink:href="#m2142927ef1" y="353.438"/><use x="94.752" xlink:href="#m2142927ef1" y="347.736"/><use x="129.968" xlink:href="#m2142927ef1" y="304.219"/><use x="123.288" xlink:href="#m2142927ef1" y="322.826"/><use x="132.376" xlink:href="#m2142927ef1" y="315.324"/><use x="181.544" xlink:href="#m2142927ef1" y="286.213"/><use x="103.995" xlink:href="#m2142927ef1" y="342.934"/><use x="157.043" xlink:href="#m2142927ef1" y="296.717"/><use x="178.358" xlink:href="#m2142927ef1" y="281.111"/><use x="224.173" xlink:href="#m2142927ef1" y="248.998"/><use x="97.741" xlink:href="#m2142927ef1" y="346.235"/><use x="150.668" xlink:href="#m2142927ef1" y="301.818"/><use x="159.598" xlink:href="#m2142927ef1" y="280.81"/><use x="200.864" xlink:href="#m2142927ef1" y="279.01"/><use x="181.544" xlink:href="#m2142927ef1" y="279.61"/><use x="138.355" xlink:href="#m2142927ef1" y="314.723"/><use x="147.21" xlink:href="#m2142927ef1" y="297.317"/><use x="100.929" xlink:href="#m2142927ef1" y="340.833"/><use x="140.757" xlink:href="#m2142927ef1" y="314.723"/><use x="257.246" xlink:href="#m2142927ef1" y="215.386"/><use x="123.488" xlink:href="#m2142927ef1" y="327.328"/><use x="147.35" xlink:href="#m2142927ef1" y="305.72"/><use x="264.424" xlink:href="#m2142927ef1" y="223.789"/><use x="220.729" xlink:href="#m2142927ef1" y="247.798"/><use x="326.089" xlink:href="#m2142927ef1" y="202.181"/><use x="142.831" xlink:href="#m2142927ef1" y="311.722"/><use x="311.413" xlink:href="#m2142927ef1" y="178.772"/><use x="144.433" xlink:href="#m2142927ef1" y="306.32"/><use x="263.441" xlink:href="#m2142927ef1" y="212.985"/><use x="204.941" xlink:href="#m2142927ef1" y="275.709"/><use x="143.357" xlink:href="#m2142927ef1" y="309.021"/><use x="193.17" xlink:href="#m2142927ef1" y="297.317"/><use x="212.018" xlink:href="#m2142927ef1" y="259.803"/><use x="324.588" xlink:href="#m2142927ef1" y="164.967"/><use x="196.737" xlink:href="#m2142927ef1" y="292.215"/><use x="168.613" xlink:href="#m2142927ef1" y="322.826"/><use x="205.816" xlink:href="#m2142927ef1" y="266.105"/><use x="202.526" xlink:href="#m2142927ef1" y="265.205"/><use x="170.019" xlink:href="#m2142927ef1" y="294.316"/><use x="169.888" xlink:href="#m2142927ef1" y="293.115"/><use x="128.243" xlink:href="#m2142927ef1" y="322.526"/><use x="224.04" xlink:href="#m2142927ef1" y="253.8"/><use x="118.177" xlink:href="#m2142927ef1" y="318.325"/><use x="93.493" xlink:href="#m2142927ef1" y="349.236"/><use x="141.944" xlink:href="#m2142927ef1" y="310.522"/><use x="104.913" xlink:href="#m2142927ef1" y="345.635"/><use x="177.375" xlink:href="#m2142927ef1" y="285.612"/><use x="122.082" xlink:href="#m2142927ef1" y="295.516"/><use x="108.221" xlink:href="#m2142927ef1" y="337.832"/><use x="187.658" xlink:href="#m2142927ef1" y="265.205"/><use x="130.769" xlink:href="#m2142927ef1" y="320.425"/><use x="330.199" xlink:href="#m2142927ef1" y="149.061"/><use x="177.302" xlink:href="#m2142927ef1" y="264.004"/><use x="91.492" xlink:href="#m2142927ef1" y="348.636"/><use x="106.756" xlink:href="#m2142927ef1" y="347.436"/><use x="216.575" xlink:href="#m2142927ef1" y="252.3"/><use x="155.785" xlink:href="#m2142927ef1" y="273.608"/><use x="107.833" xlink:href="#m2142927ef1" y="335.731"/><use x="137.256" xlink:href="#m2142927ef1" y="313.223"/></g></g><path d="M66.506 387.72V7.2" fill="none" stroke="#000" stroke-linecap="square" stroke-width="2.5" id="patch_3"/><path d="M512.906 387.72V7.2" fill="none" stroke="#000" stroke-linecap="square" stroke-width="2.5" id="patch_4"/><path d="M66.506 387.72h446.4" fill="none" stroke="#000" stroke-linecap="square" stroke-width="2.5" id="patch_5"/><path d="M66.506 7.2h446.4" fill="none" stroke="#000" stroke-linecap="square" stroke-width="2.5" id="patch_6"/><g id="text_15"><g transform="matrix(.2 0 0 -.2 384.706 343.165)"><defs><path d="M19.734 29.5q-5.28 1.172-7.578 4.344-1.703 2.234-1.703 5.265 0 8.297 7.906 13.141 6.25 3.813 15.828 3.813 3.704 0 7.75-.594 4.063-.578 8.594-1.75l-1.562-8.157q-4.485 1.407-8.25 2.047-3.86.641-7.313.641-5.812 0-9.625-2.25-4.593-2.688-4.593-6.594 0-2.593 2.39-4.39 2.844-2.157 8.5-2.157h7.563l-1.407-7.422H29q-6.734 0-10.688-2.484-5.375-3.375-5.375-8.64 0-3.329 2.891-5.516 3.61-2.735 10.985-2.735 4.53 0 8.875.875 4.359.922 8.156 2.735l-1.657-8.36q-4.64-1.359-8.89-2.046-4.25-.688-8.156-.688-11.61 0-17.078 4.453-4.157 3.422-4.157 9.172 0 7.766 5.469 12.547 4.047 3.578 10.36 4.75z" id="DejaVuSans-Oblique-949"/><path d="M52 44.188q3.375 6.062 8.063 8.937Q64.75 56 71.093 56q8.548 0 13.188-5.984 4.64-5.97 4.64-17V0h-9.03v32.719q0 7.86-2.797 11.656-2.781 3.813-8.485 3.813-6.984 0-11.046-4.641-4.047-4.625-4.047-12.64V0h-9.032v32.719q0 7.906-2.78 11.687-2.782 3.782-8.595 3.782-6.89 0-10.953-4.657-4.047-4.656-4.047-12.625V0H9.08v54.688h9.03v-8.5q3.078 5.03 7.375 7.421Q29.781 56 35.687 56q5.97 0 10.141-3.031Q50 49.953 52 44.187z" id="DejaVuSans-109"/><path d="M10.594 45.406h62.593v-8.203H10.594zm0-19.922h62.593v-8.297H10.594z" id="DejaVuSans-61"/><path d="M10.688 12.406H21V0H10.687z" id="DejaVuSans-46"/></defs><use transform="translate(0 .781)" xlink:href="#DejaVuSans-Oblique-949"/><use transform="matrix(.7 0 0 .7 54.053 -15.625)" xlink:href="#DejaVuSans-109"/><use transform="matrix(.7 0 0 .7 122.241 -15.625)" xlink:href="#DejaVuSans-97"/><use transform="matrix(.7 0 0 .7 165.137 -15.625)" xlink:href="#DejaVuSans-101"/><use transform="translate(230.42 .781)" xlink:href="#DejaVuSans-61"/><use transform="translate(333.691 .781)" xlink:href="#DejaVuSans-48"/><use transform="translate(397.314 .781)" xlink:href="#DejaVuSans-46"/><use transform="translate(423.602 .781)" xlink:href="#DejaVuSans-50"/><use transform="translate(487.225 .781)" xlink:href="#DejaVuSans-52"/></g><g transform="matrix(.2 0 0 -.2 384.706 365.56)"><defs><path d="M25.203 64.797L20.22 38.922h12.687q7.469 0 12.078 4.125 4.625 4.125 4.625 10.766 0 5.312-3.109 8.14-3.094 2.844-8.906 2.844zm18.11-29.781q3.124-.735 5.203-3.625 2.078-2.875 4.812-11.47L59.516 0H49.125l-5.719 18.703q-2.187 7.219-5.078 9.656-2.875 2.453-8.828 2.453H18.61L12.593 0H2.688L16.89 72.906h22.218q10.11 0 15.5-4.578 5.407-4.562 5.407-13.156 0-7.61-4.594-13.188-4.594-5.562-12.11-6.968z" id="DejaVuSans-Oblique-82"/><path d="M10.984 1.516V10.5q3.72-1.766 7.516-2.688 3.813-.921 7.484-.921 9.766 0 14.907 6.562 5.156 6.563 5.89 19.953-2.828-4.203-7.187-6.453-4.344-2.25-9.61-2.25-10.937 0-17.312 6.61-6.375 6.625-6.375 18.109 0 11.219 6.64 18 6.641 6.797 17.672 6.797 12.657 0 19.313-9.703 6.672-9.688 6.672-28.141 0-17.234-8.188-27.516Q40.234-1.42 26.422-1.42q-3.719 0-7.531.734-3.797.734-7.907 2.203zM30.61 32.422q6.641 0 10.516 4.531 3.89 4.547 3.89 12.469 0 7.86-3.89 12.422-3.875 4.562-10.516 4.562-6.64 0-10.515-4.562-3.875-4.563-3.875-12.422 0-7.922 3.875-12.469 3.875-4.531 10.515-4.531z" id="DejaVuSans-57"/></defs><use transform="translate(0 .766)" xlink:href="#DejaVuSans-Oblique-82"/><use transform="matrix(.7 0 0 .7 76.5 39.047)" xlink:href="#DejaVuSans-50"/><use transform="translate(143.252 .766)" xlink:href="#DejaVuSans-61"/><use transform="translate(246.524 .766)" xlink:href="#DejaVuSans-48"/><use transform="translate(310.147 .766)" xlink:href="#DejaVuSans-46"/><use transform="translate(341.934 .766)" xlink:href="#DejaVuSans-57"/><use transform="translate(403.807 .766)" xlink:href="#DejaVuSans-50"/></g></g></g></g><defs><clipPath id="p8ff867afab"><path d="M66.506 7.2h446.4v380.52h-446.4z"/></clipPath></defs></svg>