<?xml version="1.0" encoding="utf-8" standalone="no"?>
<!DOCTYPE svg PUBLIC "-//W3C//DTD SVG 1.1//EN"
  "http://www.w3.org/Graphics/SVG/1.1/DTD/svg11.dtd">
<!-- Created with matplotlib (https://matplotlib.org/) -->
<svg height="455.6925pt" version="1.1" viewBox="0 0 539.1875 455.6925" width="539.1875pt" xmlns="http://www.w3.org/2000/svg" xmlns:xlink="http://www.w3.org/1999/xlink">
 <defs>
  <style type="text/css">
*{stroke-linecap:butt;stroke-linejoin:round;}
  </style>
 </defs>
 <g id="figure_1">
  <g id="patch_1">
   <path d="M 0 455.6925 
L 539.1875 455.6925 
L 539.1875 0 
L 0 0 
z
" style="fill:#ffffff;"/>
  </g>
  <g id="axes_1">
   <g id="patch_2">
    <path d="M 85.5875 395.28 
L 531.9875 395.28 
L 531.9875 7.2 
L 85.5875 7.2 
z
" style="fill:#ffffff;"/>
   </g>
   <g id="PolyCollection_1">
    <path clip-path="url(#p06dea04a12)" d="M 105.878409 50.656029 
L 105.878409 47.182499 
L 109.977583 44.7386 
L 114.076756 43.653284 
L 118.17593 43.077434 
L 122.275103 42.271541 
L 126.374277 41.072533 
L 130.47345 40.215908 
L 134.572624 39.685535 
L 138.671798 39.220245 
L 142.770971 38.609188 
L 146.870145 38.390664 
L 150.969318 38.051544 
L 155.068492 37.205256 
L 159.167665 36.660363 
L 163.266839 36.386411 
L 167.366012 35.877646 
L 171.465186 35.617433 
L 175.56436 35.239266 
L 179.663533 34.871369 
L 183.762707 34.709584 
L 187.86188 34.390557 
L 191.961054 33.912677 
L 196.060227 33.425388 
L 200.159401 32.840219 
L 204.258574 32.481099 
L 208.357748 32.304167 
L 212.456921 31.761757 
L 216.556095 31.397597 
L 220.655269 31.261901 
L 224.754442 31.191914 
L 228.853616 31.045376 
L 232.952789 30.954963 
L 237.051963 30.772786 
L 241.151136 30.533495 
L 245.25031 30.056212 
L 249.349483 29.844191 
L 253.448657 29.416145 
L 257.547831 29.241585 
L 261.647004 28.958872 
L 265.746178 28.263718 
L 269.845351 27.750668 
L 273.944525 27.181826 
L 278.043698 26.998759 
L 282.142872 26.341722 
L 286.242045 25.999511 
L 290.341219 25.433745 
L 294.440393 25.187435 
L 298.539566 25.056046 
L 302.63874 24.913698 
L 306.737913 24.832602 
L 310.837087 24.228385 
L 314.93626 24.013886 
L 319.035434 23.802792 
L 323.134607 23.501575 
L 327.233781 22.918738 
L 331.332955 22.34068 
L 335.432128 21.289366 
L 339.531302 20.896615 
L 343.630475 20.503902 
L 347.729649 20.427392 
L 351.828822 20.270493 
L 355.927996 19.274302 
L 360.027169 18.623691 
L 364.126343 18.363483 
L 368.225517 18.133 
L 372.32469 17.885339 
L 376.423864 16.295452 
L 380.523037 15.684597 
L 384.622211 14.959988 
L 388.721384 14.634188 
L 392.820558 14.069427 
L 396.919731 12.426826 
L 401.018905 11.630692 
L 405.118079 10.425961 
L 409.217252 9.978159 
L 413.316426 9.374888 
L 417.415599 8.337945 
L 421.514773 6.724498 
L 425.613946 5.012062 
L 429.71312 4.279022 
L 433.812293 2.716125 
L 437.911467 0.401442 
L 442.01064 -0.668411 
L 446.109814 -3.851936 
L 450.208988 -5.78995 
L 454.308161 -7.829949 
L 458.407335 -8.49566 
L 462.506508 -10.878922 
L 466.605682 -12.941671 
L 470.704855 -15.55106 
L 474.804029 -20.41426 
L 478.903202 -26.690962 
L 483.002376 -29.515968 
L 487.10155 -31.735165 
L 491.200723 -35.042634 
L 495.299897 -50.454567 
L 499.39907 -61.831791 
L 503.498244 -78.675964 
L 507.597417 -120.27504 
L 511.696591 -336.307069 
L 511.696591 392.810403 
L 511.696591 392.810403 
L 507.597417 192.2781 
L 503.498244 159.391866 
L 499.39907 142.781523 
L 495.299897 131.623118 
L 491.200723 116.304995 
L 487.10155 113.199457 
L 483.002376 111.243878 
L 478.903202 108.803723 
L 474.804029 102.664281 
L 470.704855 97.904448 
L 466.605682 95.433012 
L 462.506508 93.4351 
L 458.407335 91.178607 
L 454.308161 90.719162 
L 450.208988 89.018211 
L 446.109814 87.246113 
L 442.01064 84.15285 
L 437.911467 83.157387 
L 433.812293 80.959178 
L 429.71312 79.451031 
L 425.613946 78.760282 
L 421.514773 77.128629 
L 417.415599 75.562243 
L 413.316426 74.544415 
L 409.217252 74.005011 
L 405.118079 73.621901 
L 401.018905 72.459066 
L 396.919731 71.696071 
L 392.820558 70.107568 
L 388.721384 69.598201 
L 384.622211 69.303024 
L 380.523037 68.604139 
L 376.423864 68.019988 
L 372.32469 66.458326 
L 368.225517 66.235251 
L 364.126343 66.03977 
L 360.027169 65.809231 
L 355.927996 65.181988 
L 351.828822 64.200853 
L 347.729649 64.060646 
L 343.630475 64.005996 
L 339.531302 63.626342 
L 335.432128 63.248462 
L 331.332955 62.216338 
L 327.233781 61.664776 
L 323.134607 61.104691 
L 319.035434 60.821142 
L 314.93626 60.62956 
L 310.837087 60.442931 
L 306.737913 59.853769 
L 302.63874 59.792444 
L 298.539566 59.685765 
L 294.440393 59.570086 
L 290.341219 59.344843 
L 286.242045 58.788694 
L 282.142872 58.460014 
L 278.043698 57.830433 
L 273.944525 57.673311 
L 269.845351 57.126647 
L 265.746178 56.642477 
L 261.647004 55.962129 
L 257.547831 55.705727 
L 253.448657 55.547422 
L 249.349483 55.141776 
L 245.25031 54.956905 
L 241.151136 54.525587 
L 237.051963 54.318565 
L 232.952789 54.191554 
L 228.853616 54.151932 
L 224.754442 54.063124 
L 220.655269 54.038961 
L 216.556095 53.988288 
L 212.456921 53.67434 
L 208.357748 53.19268 
L 204.258574 53.098912 
L 200.159401 52.855683 
L 196.060227 52.474566 
L 191.961054 52.384708 
L 187.86188 52.169396 
L 183.762707 52.273025 
L 179.663533 52.319817 
L 175.56436 52.112899 
L 171.465186 52.057047 
L 167.366012 52.1172 
L 163.266839 52.007631 
L 159.167665 51.932699 
L 155.068492 51.542796 
L 150.969318 50.949175 
L 146.870145 50.819497 
L 142.770971 50.738747 
L 138.671798 50.35588 
L 134.572624 50.04778 
L 130.47345 50.022658 
L 126.374277 49.506004 
L 122.275103 49.489834 
L 118.17593 49.903346 
L 114.076756 49.906832 
L 109.977583 50.156212 
L 105.878409 50.656029 
z
" style="fill:#1f77b4;fill-opacity:0.2;"/>
   </g>
   <g id="matplotlib.axis_1">
    <g id="xtick_1">
     <g id="line2d_1">
      <defs>
       <path d="M 0 0 
L 0 7 
" id="me3e17943a3" style="stroke:#000000;stroke-width:2.5;"/>
      </defs>
      <g>
       <use style="stroke:#000000;stroke-width:2.5;" x="101.779236" xlink:href="#me3e17943a3" y="395.28"/>
      </g>
     </g>
     <g id="text_1">
      <!-- 0 -->
      <defs>
       <path d="M 31.78125 66.40625 
Q 24.171875 66.40625 20.328125 58.90625 
Q 16.5 51.421875 16.5 36.375 
Q 16.5 21.390625 20.328125 13.890625 
Q 24.171875 6.390625 31.78125 6.390625 
Q 39.453125 6.390625 43.28125 13.890625 
Q 47.125 21.390625 47.125 36.375 
Q 47.125 51.421875 43.28125 58.90625 
Q 39.453125 66.40625 31.78125 66.40625 
z
M 31.78125 74.21875 
Q 44.046875 74.21875 50.515625 64.515625 
Q 56.984375 54.828125 56.984375 36.375 
Q 56.984375 17.96875 50.515625 8.265625 
Q 44.046875 -1.421875 31.78125 -1.421875 
Q 19.53125 -1.421875 13.0625 8.265625 
Q 6.59375 17.96875 6.59375 36.375 
Q 6.59375 54.828125 13.0625 64.515625 
Q 19.53125 74.21875 31.78125 74.21875 
z
" id="DejaVuSans-48"/>
      </defs>
      <g transform="translate(95.416736 420.976875)scale(0.2 -0.2)">
       <use xlink:href="#DejaVuSans-48"/>
      </g>
     </g>
    </g>
    <g id="xtick_2">
     <g id="line2d_2">
      <g>
       <use style="stroke:#000000;stroke-width:2.5;" x="183.762707" xlink:href="#me3e17943a3" y="395.28"/>
      </g>
     </g>
     <g id="text_2">
      <!-- 20 -->
      <defs>
       <path d="M 19.1875 8.296875 
L 53.609375 8.296875 
L 53.609375 0 
L 7.328125 0 
L 7.328125 8.296875 
Q 12.9375 14.109375 22.625 23.890625 
Q 32.328125 33.6875 34.8125 36.53125 
Q 39.546875 41.84375 41.421875 45.53125 
Q 43.3125 49.21875 43.3125 52.78125 
Q 43.3125 58.59375 39.234375 62.25 
Q 35.15625 65.921875 28.609375 65.921875 
Q 23.96875 65.921875 18.8125 64.3125 
Q 13.671875 62.703125 7.8125 59.421875 
L 7.8125 69.390625 
Q 13.765625 71.78125 18.9375 73 
Q 24.125 74.21875 28.421875 74.21875 
Q 39.75 74.21875 46.484375 68.546875 
Q 53.21875 62.890625 53.21875 53.421875 
Q 53.21875 48.921875 51.53125 44.890625 
Q 49.859375 40.875 45.40625 35.40625 
Q 44.1875 33.984375 37.640625 27.21875 
Q 31.109375 20.453125 19.1875 8.296875 
z
" id="DejaVuSans-50"/>
      </defs>
      <g transform="translate(171.037707 420.976875)scale(0.2 -0.2)">
       <use xlink:href="#DejaVuSans-50"/>
       <use x="63.623047" xlink:href="#DejaVuSans-48"/>
      </g>
     </g>
    </g>
    <g id="xtick_3">
     <g id="line2d_3">
      <g>
       <use style="stroke:#000000;stroke-width:2.5;" x="265.746178" xlink:href="#me3e17943a3" y="395.28"/>
      </g>
     </g>
     <g id="text_3">
      <!-- 40 -->
      <defs>
       <path d="M 37.796875 64.3125 
L 12.890625 25.390625 
L 37.796875 25.390625 
z
M 35.203125 72.90625 
L 47.609375 72.90625 
L 47.609375 25.390625 
L 58.015625 25.390625 
L 58.015625 17.1875 
L 47.609375 17.1875 
L 47.609375 0 
L 37.796875 0 
L 37.796875 17.1875 
L 4.890625 17.1875 
L 4.890625 26.703125 
z
" id="DejaVuSans-52"/>
      </defs>
      <g transform="translate(253.021178 420.976875)scale(0.2 -0.2)">
       <use xlink:href="#DejaVuSans-52"/>
       <use x="63.623047" xlink:href="#DejaVuSans-48"/>
      </g>
     </g>
    </g>
    <g id="xtick_4">
     <g id="line2d_4">
      <g>
       <use style="stroke:#000000;stroke-width:2.5;" x="347.729649" xlink:href="#me3e17943a3" y="395.28"/>
      </g>
     </g>
     <g id="text_4">
      <!-- 60 -->
      <defs>
       <path d="M 33.015625 40.375 
Q 26.375 40.375 22.484375 35.828125 
Q 18.609375 31.296875 18.609375 23.390625 
Q 18.609375 15.53125 22.484375 10.953125 
Q 26.375 6.390625 33.015625 6.390625 
Q 39.65625 6.390625 43.53125 10.953125 
Q 47.40625 15.53125 47.40625 23.390625 
Q 47.40625 31.296875 43.53125 35.828125 
Q 39.65625 40.375 33.015625 40.375 
z
M 52.59375 71.296875 
L 52.59375 62.3125 
Q 48.875 64.0625 45.09375 64.984375 
Q 41.3125 65.921875 37.59375 65.921875 
Q 27.828125 65.921875 22.671875 59.328125 
Q 17.53125 52.734375 16.796875 39.40625 
Q 19.671875 43.65625 24.015625 45.921875 
Q 28.375 48.1875 33.59375 48.1875 
Q 44.578125 48.1875 50.953125 41.515625 
Q 57.328125 34.859375 57.328125 23.390625 
Q 57.328125 12.15625 50.6875 5.359375 
Q 44.046875 -1.421875 33.015625 -1.421875 
Q 20.359375 -1.421875 13.671875 8.265625 
Q 6.984375 17.96875 6.984375 36.375 
Q 6.984375 53.65625 15.1875 63.9375 
Q 23.390625 74.21875 37.203125 74.21875 
Q 40.921875 74.21875 44.703125 73.484375 
Q 48.484375 72.75 52.59375 71.296875 
z
" id="DejaVuSans-54"/>
      </defs>
      <g transform="translate(335.004649 420.976875)scale(0.2 -0.2)">
       <use xlink:href="#DejaVuSans-54"/>
       <use x="63.623047" xlink:href="#DejaVuSans-48"/>
      </g>
     </g>
    </g>
    <g id="xtick_5">
     <g id="line2d_5">
      <g>
       <use style="stroke:#000000;stroke-width:2.5;" x="429.71312" xlink:href="#me3e17943a3" y="395.28"/>
      </g>
     </g>
     <g id="text_5">
      <!-- 80 -->
      <defs>
       <path d="M 31.78125 34.625 
Q 24.75 34.625 20.71875 30.859375 
Q 16.703125 27.09375 16.703125 20.515625 
Q 16.703125 13.921875 20.71875 10.15625 
Q 24.75 6.390625 31.78125 6.390625 
Q 38.8125 6.390625 42.859375 10.171875 
Q 46.921875 13.96875 46.921875 20.515625 
Q 46.921875 27.09375 42.890625 30.859375 
Q 38.875 34.625 31.78125 34.625 
z
M 21.921875 38.8125 
Q 15.578125 40.375 12.03125 44.71875 
Q 8.5 49.078125 8.5 55.328125 
Q 8.5 64.0625 14.71875 69.140625 
Q 20.953125 74.21875 31.78125 74.21875 
Q 42.671875 74.21875 48.875 69.140625 
Q 55.078125 64.0625 55.078125 55.328125 
Q 55.078125 49.078125 51.53125 44.71875 
Q 48 40.375 41.703125 38.8125 
Q 48.828125 37.15625 52.796875 32.3125 
Q 56.78125 27.484375 56.78125 20.515625 
Q 56.78125 9.90625 50.3125 4.234375 
Q 43.84375 -1.421875 31.78125 -1.421875 
Q 19.734375 -1.421875 13.25 4.234375 
Q 6.78125 9.90625 6.78125 20.515625 
Q 6.78125 27.484375 10.78125 32.3125 
Q 14.796875 37.15625 21.921875 38.8125 
z
M 18.3125 54.390625 
Q 18.3125 48.734375 21.84375 45.5625 
Q 25.390625 42.390625 31.78125 42.390625 
Q 38.140625 42.390625 41.71875 45.5625 
Q 45.3125 48.734375 45.3125 54.390625 
Q 45.3125 60.0625 41.71875 63.234375 
Q 38.140625 66.40625 31.78125 66.40625 
Q 25.390625 66.40625 21.84375 63.234375 
Q 18.3125 60.0625 18.3125 54.390625 
z
" id="DejaVuSans-56"/>
      </defs>
      <g transform="translate(416.98812 420.976875)scale(0.2 -0.2)">
       <use xlink:href="#DejaVuSans-56"/>
       <use x="63.623047" xlink:href="#DejaVuSans-48"/>
      </g>
     </g>
    </g>
    <g id="xtick_6">
     <g id="line2d_6">
      <g>
       <use style="stroke:#000000;stroke-width:2.5;" x="511.696591" xlink:href="#me3e17943a3" y="395.28"/>
      </g>
     </g>
     <g id="text_6">
      <!-- 100 -->
      <defs>
       <path d="M 12.40625 8.296875 
L 28.515625 8.296875 
L 28.515625 63.921875 
L 10.984375 60.40625 
L 10.984375 69.390625 
L 28.421875 72.90625 
L 38.28125 72.90625 
L 38.28125 8.296875 
L 54.390625 8.296875 
L 54.390625 0 
L 12.40625 0 
z
" id="DejaVuSans-49"/>
      </defs>
      <g transform="translate(492.609091 420.976875)scale(0.2 -0.2)">
       <use xlink:href="#DejaVuSans-49"/>
       <use x="63.623047" xlink:href="#DejaVuSans-48"/>
       <use x="127.246094" xlink:href="#DejaVuSans-48"/>
      </g>
     </g>
    </g>
    <g id="text_7">
     <!-- error/confidence percentile -->
     <defs>
      <path d="M 56.203125 29.59375 
L 56.203125 25.203125 
L 14.890625 25.203125 
Q 15.484375 15.921875 20.484375 11.0625 
Q 25.484375 6.203125 34.421875 6.203125 
Q 39.59375 6.203125 44.453125 7.46875 
Q 49.3125 8.734375 54.109375 11.28125 
L 54.109375 2.78125 
Q 49.265625 0.734375 44.1875 -0.34375 
Q 39.109375 -1.421875 33.890625 -1.421875 
Q 20.796875 -1.421875 13.15625 6.1875 
Q 5.515625 13.8125 5.515625 26.8125 
Q 5.515625 40.234375 12.765625 48.109375 
Q 20.015625 56 32.328125 56 
Q 43.359375 56 49.78125 48.890625 
Q 56.203125 41.796875 56.203125 29.59375 
z
M 47.21875 32.234375 
Q 47.125 39.59375 43.09375 43.984375 
Q 39.0625 48.390625 32.421875 48.390625 
Q 24.90625 48.390625 20.390625 44.140625 
Q 15.875 39.890625 15.1875 32.171875 
z
" id="DejaVuSans-101"/>
      <path d="M 41.109375 46.296875 
Q 39.59375 47.171875 37.8125 47.578125 
Q 36.03125 48 33.890625 48 
Q 26.265625 48 22.1875 43.046875 
Q 18.109375 38.09375 18.109375 28.8125 
L 18.109375 0 
L 9.078125 0 
L 9.078125 54.6875 
L 18.109375 54.6875 
L 18.109375 46.1875 
Q 20.953125 51.171875 25.484375 53.578125 
Q 30.03125 56 36.53125 56 
Q 37.453125 56 38.578125 55.875 
Q 39.703125 55.765625 41.0625 55.515625 
z
" id="DejaVuSans-114"/>
      <path d="M 30.609375 48.390625 
Q 23.390625 48.390625 19.1875 42.75 
Q 14.984375 37.109375 14.984375 27.296875 
Q 14.984375 17.484375 19.15625 11.84375 
Q 23.34375 6.203125 30.609375 6.203125 
Q 37.796875 6.203125 41.984375 11.859375 
Q 46.1875 17.53125 46.1875 27.296875 
Q 46.1875 37.015625 41.984375 42.703125 
Q 37.796875 48.390625 30.609375 48.390625 
z
M 30.609375 56 
Q 42.328125 56 49.015625 48.375 
Q 55.71875 40.765625 55.71875 27.296875 
Q 55.71875 13.875 49.015625 6.21875 
Q 42.328125 -1.421875 30.609375 -1.421875 
Q 18.84375 -1.421875 12.171875 6.21875 
Q 5.515625 13.875 5.515625 27.296875 
Q 5.515625 40.765625 12.171875 48.375 
Q 18.84375 56 30.609375 56 
z
" id="DejaVuSans-111"/>
      <path d="M 25.390625 72.90625 
L 33.6875 72.90625 
L 8.296875 -9.28125 
L 0 -9.28125 
z
" id="DejaVuSans-47"/>
      <path d="M 48.78125 52.59375 
L 48.78125 44.1875 
Q 44.96875 46.296875 41.140625 47.34375 
Q 37.3125 48.390625 33.40625 48.390625 
Q 24.65625 48.390625 19.8125 42.84375 
Q 14.984375 37.3125 14.984375 27.296875 
Q 14.984375 17.28125 19.8125 11.734375 
Q 24.65625 6.203125 33.40625 6.203125 
Q 37.3125 6.203125 41.140625 7.25 
Q 44.96875 8.296875 48.78125 10.40625 
L 48.78125 2.09375 
Q 45.015625 0.34375 40.984375 -0.53125 
Q 36.96875 -1.421875 32.421875 -1.421875 
Q 20.0625 -1.421875 12.78125 6.34375 
Q 5.515625 14.109375 5.515625 27.296875 
Q 5.515625 40.671875 12.859375 48.328125 
Q 20.21875 56 33.015625 56 
Q 37.15625 56 41.109375 55.140625 
Q 45.0625 54.296875 48.78125 52.59375 
z
" id="DejaVuSans-99"/>
      <path d="M 54.890625 33.015625 
L 54.890625 0 
L 45.90625 0 
L 45.90625 32.71875 
Q 45.90625 40.484375 42.875 44.328125 
Q 39.84375 48.1875 33.796875 48.1875 
Q 26.515625 48.1875 22.3125 43.546875 
Q 18.109375 38.921875 18.109375 30.90625 
L 18.109375 0 
L 9.078125 0 
L 9.078125 54.6875 
L 18.109375 54.6875 
L 18.109375 46.1875 
Q 21.34375 51.125 25.703125 53.5625 
Q 30.078125 56 35.796875 56 
Q 45.21875 56 50.046875 50.171875 
Q 54.890625 44.34375 54.890625 33.015625 
z
" id="DejaVuSans-110"/>
      <path d="M 37.109375 75.984375 
L 37.109375 68.5 
L 28.515625 68.5 
Q 23.6875 68.5 21.796875 66.546875 
Q 19.921875 64.59375 19.921875 59.515625 
L 19.921875 54.6875 
L 34.71875 54.6875 
L 34.71875 47.703125 
L 19.921875 47.703125 
L 19.921875 0 
L 10.890625 0 
L 10.890625 47.703125 
L 2.296875 47.703125 
L 2.296875 54.6875 
L 10.890625 54.6875 
L 10.890625 58.5 
Q 10.890625 67.625 15.140625 71.796875 
Q 19.390625 75.984375 28.609375 75.984375 
z
" id="DejaVuSans-102"/>
      <path d="M 9.421875 54.6875 
L 18.40625 54.6875 
L 18.40625 0 
L 9.421875 0 
z
M 9.421875 75.984375 
L 18.40625 75.984375 
L 18.40625 64.59375 
L 9.421875 64.59375 
z
" id="DejaVuSans-105"/>
      <path d="M 45.40625 46.390625 
L 45.40625 75.984375 
L 54.390625 75.984375 
L 54.390625 0 
L 45.40625 0 
L 45.40625 8.203125 
Q 42.578125 3.328125 38.25 0.953125 
Q 33.9375 -1.421875 27.875 -1.421875 
Q 17.96875 -1.421875 11.734375 6.484375 
Q 5.515625 14.40625 5.515625 27.296875 
Q 5.515625 40.1875 11.734375 48.09375 
Q 17.96875 56 27.875 56 
Q 33.9375 56 38.25 53.625 
Q 42.578125 51.265625 45.40625 46.390625 
z
M 14.796875 27.296875 
Q 14.796875 17.390625 18.875 11.75 
Q 22.953125 6.109375 30.078125 6.109375 
Q 37.203125 6.109375 41.296875 11.75 
Q 45.40625 17.390625 45.40625 27.296875 
Q 45.40625 37.203125 41.296875 42.84375 
Q 37.203125 48.484375 30.078125 48.484375 
Q 22.953125 48.484375 18.875 42.84375 
Q 14.796875 37.203125 14.796875 27.296875 
z
" id="DejaVuSans-100"/>
      <path id="DejaVuSans-32"/>
      <path d="M 18.109375 8.203125 
L 18.109375 -20.796875 
L 9.078125 -20.796875 
L 9.078125 54.6875 
L 18.109375 54.6875 
L 18.109375 46.390625 
Q 20.953125 51.265625 25.265625 53.625 
Q 29.59375 56 35.59375 56 
Q 45.5625 56 51.78125 48.09375 
Q 58.015625 40.1875 58.015625 27.296875 
Q 58.015625 14.40625 51.78125 6.484375 
Q 45.5625 -1.421875 35.59375 -1.421875 
Q 29.59375 -1.421875 25.265625 0.953125 
Q 20.953125 3.328125 18.109375 8.203125 
z
M 48.6875 27.296875 
Q 48.6875 37.203125 44.609375 42.84375 
Q 40.53125 48.484375 33.40625 48.484375 
Q 26.265625 48.484375 22.1875 42.84375 
Q 18.109375 37.203125 18.109375 27.296875 
Q 18.109375 17.390625 22.1875 11.75 
Q 26.265625 6.109375 33.40625 6.109375 
Q 40.53125 6.109375 44.609375 11.75 
Q 48.6875 17.390625 48.6875 27.296875 
z
" id="DejaVuSans-112"/>
      <path d="M 18.3125 70.21875 
L 18.3125 54.6875 
L 36.8125 54.6875 
L 36.8125 47.703125 
L 18.3125 47.703125 
L 18.3125 18.015625 
Q 18.3125 11.328125 20.140625 9.421875 
Q 21.96875 7.515625 27.59375 7.515625 
L 36.8125 7.515625 
L 36.8125 0 
L 27.59375 0 
Q 17.1875 0 13.234375 3.875 
Q 9.28125 7.765625 9.28125 18.015625 
L 9.28125 47.703125 
L 2.6875 47.703125 
L 2.6875 54.6875 
L 9.28125 54.6875 
L 9.28125 70.21875 
z
" id="DejaVuSans-116"/>
      <path d="M 9.421875 75.984375 
L 18.40625 75.984375 
L 18.40625 0 
L 9.421875 0 
z
" id="DejaVuSans-108"/>
     </defs>
     <g transform="translate(172.66875 444.333125)scale(0.2 -0.2)">
      <use xlink:href="#DejaVuSans-101"/>
      <use x="61.523438" xlink:href="#DejaVuSans-114"/>
      <use x="102.621094" xlink:href="#DejaVuSans-114"/>
      <use x="143.703125" xlink:href="#DejaVuSans-111"/>
      <use x="204.884766" xlink:href="#DejaVuSans-114"/>
      <use x="245.998047" xlink:href="#DejaVuSans-47"/>
      <use x="279.689453" xlink:href="#DejaVuSans-99"/>
      <use x="334.669922" xlink:href="#DejaVuSans-111"/>
      <use x="395.851562" xlink:href="#DejaVuSans-110"/>
      <use x="459.230469" xlink:href="#DejaVuSans-102"/>
      <use x="494.435547" xlink:href="#DejaVuSans-105"/>
      <use x="522.21875" xlink:href="#DejaVuSans-100"/>
      <use x="585.695312" xlink:href="#DejaVuSans-101"/>
      <use x="647.21875" xlink:href="#DejaVuSans-110"/>
      <use x="710.597656" xlink:href="#DejaVuSans-99"/>
      <use x="765.578125" xlink:href="#DejaVuSans-101"/>
      <use x="827.101562" xlink:href="#DejaVuSans-32"/>
      <use x="858.888672" xlink:href="#DejaVuSans-112"/>
      <use x="922.365234" xlink:href="#DejaVuSans-101"/>
      <use x="983.888672" xlink:href="#DejaVuSans-114"/>
      <use x="1024.970703" xlink:href="#DejaVuSans-99"/>
      <use x="1079.951172" xlink:href="#DejaVuSans-101"/>
      <use x="1141.474609" xlink:href="#DejaVuSans-110"/>
      <use x="1204.853516" xlink:href="#DejaVuSans-116"/>
      <use x="1244.0625" xlink:href="#DejaVuSans-105"/>
      <use x="1271.845703" xlink:href="#DejaVuSans-108"/>
      <use x="1299.628906" xlink:href="#DejaVuSans-101"/>
     </g>
    </g>
   </g>
   <g id="matplotlib.axis_2">
    <g id="ytick_1">
     <g id="line2d_7">
      <defs>
       <path d="M 0 0 
L -7 0 
" id="mb268331724" style="stroke:#000000;stroke-width:2.5;"/>
      </defs>
      <g>
       <use style="stroke:#000000;stroke-width:2.5;" x="85.5875" xlink:href="#mb268331724" y="395.28"/>
      </g>
     </g>
     <g id="text_8">
      <!-- 0.00 -->
      <defs>
       <path d="M 10.6875 12.40625 
L 21 12.40625 
L 21 0 
L 10.6875 0 
z
" id="DejaVuSans-46"/>
      </defs>
      <g transform="translate(30.55625 402.878437)scale(0.2 -0.2)">
       <use xlink:href="#DejaVuSans-48"/>
       <use x="63.623047" xlink:href="#DejaVuSans-46"/>
       <use x="95.410156" xlink:href="#DejaVuSans-48"/>
       <use x="159.033203" xlink:href="#DejaVuSans-48"/>
      </g>
     </g>
    </g>
    <g id="ytick_2">
     <g id="line2d_8">
      <g>
       <use style="stroke:#000000;stroke-width:2.5;" x="85.5875" xlink:href="#mb268331724" y="322.775074"/>
      </g>
     </g>
     <g id="text_9">
      <!-- 0.05 -->
      <defs>
       <path d="M 10.796875 72.90625 
L 49.515625 72.90625 
L 49.515625 64.59375 
L 19.828125 64.59375 
L 19.828125 46.734375 
Q 21.96875 47.46875 24.109375 47.828125 
Q 26.265625 48.1875 28.421875 48.1875 
Q 40.625 48.1875 47.75 41.5 
Q 54.890625 34.8125 54.890625 23.390625 
Q 54.890625 11.625 47.5625 5.09375 
Q 40.234375 -1.421875 26.90625 -1.421875 
Q 22.3125 -1.421875 17.546875 -0.640625 
Q 12.796875 0.140625 7.71875 1.703125 
L 7.71875 11.625 
Q 12.109375 9.234375 16.796875 8.0625 
Q 21.484375 6.890625 26.703125 6.890625 
Q 35.15625 6.890625 40.078125 11.328125 
Q 45.015625 15.765625 45.015625 23.390625 
Q 45.015625 31 40.078125 35.4375 
Q 35.15625 39.890625 26.703125 39.890625 
Q 22.75 39.890625 18.8125 39.015625 
Q 14.890625 38.140625 10.796875 36.28125 
z
" id="DejaVuSans-53"/>
      </defs>
      <g transform="translate(30.55625 330.373511)scale(0.2 -0.2)">
       <use xlink:href="#DejaVuSans-48"/>
       <use x="63.623047" xlink:href="#DejaVuSans-46"/>
       <use x="95.410156" xlink:href="#DejaVuSans-48"/>
       <use x="159.033203" xlink:href="#DejaVuSans-53"/>
      </g>
     </g>
    </g>
    <g id="ytick_3">
     <g id="line2d_9">
      <g>
       <use style="stroke:#000000;stroke-width:2.5;" x="85.5875" xlink:href="#mb268331724" y="250.270148"/>
      </g>
     </g>
     <g id="text_10">
      <!-- 0.10 -->
      <g transform="translate(30.55625 257.868585)scale(0.2 -0.2)">
       <use xlink:href="#DejaVuSans-48"/>
       <use x="63.623047" xlink:href="#DejaVuSans-46"/>
       <use x="95.410156" xlink:href="#DejaVuSans-49"/>
       <use x="159.033203" xlink:href="#DejaVuSans-48"/>
      </g>
     </g>
    </g>
    <g id="ytick_4">
     <g id="line2d_10">
      <g>
       <use style="stroke:#000000;stroke-width:2.5;" x="85.5875" xlink:href="#mb268331724" y="177.765221"/>
      </g>
     </g>
     <g id="text_11">
      <!-- 0.15 -->
      <g transform="translate(30.55625 185.363659)scale(0.2 -0.2)">
       <use xlink:href="#DejaVuSans-48"/>
       <use x="63.623047" xlink:href="#DejaVuSans-46"/>
       <use x="95.410156" xlink:href="#DejaVuSans-49"/>
       <use x="159.033203" xlink:href="#DejaVuSans-53"/>
      </g>
     </g>
    </g>
    <g id="ytick_5">
     <g id="line2d_11">
      <g>
       <use style="stroke:#000000;stroke-width:2.5;" x="85.5875" xlink:href="#mb268331724" y="105.260295"/>
      </g>
     </g>
     <g id="text_12">
      <!-- 0.20 -->
      <g transform="translate(30.55625 112.858733)scale(0.2 -0.2)">
       <use xlink:href="#DejaVuSans-48"/>
       <use x="63.623047" xlink:href="#DejaVuSans-46"/>
       <use x="95.410156" xlink:href="#DejaVuSans-50"/>
       <use x="159.033203" xlink:href="#DejaVuSans-48"/>
      </g>
     </g>
    </g>
    <g id="ytick_6">
     <g id="line2d_12">
      <g>
       <use style="stroke:#000000;stroke-width:2.5;" x="85.5875" xlink:href="#mb268331724" y="32.755369"/>
      </g>
     </g>
     <g id="text_13">
      <!-- 0.25 -->
      <g transform="translate(30.55625 40.353806)scale(0.2 -0.2)">
       <use xlink:href="#DejaVuSans-48"/>
       <use x="63.623047" xlink:href="#DejaVuSans-46"/>
       <use x="95.410156" xlink:href="#DejaVuSans-50"/>
       <use x="159.033203" xlink:href="#DejaVuSans-53"/>
      </g>
     </g>
    </g>
    <g id="text_14">
     <!-- $\epsilon_\mathrm{MAE}$ -->
     <defs>
      <path d="M 19.734375 29.5 
Q 14.453125 30.671875 12.15625 33.84375 
Q 10.453125 36.078125 10.453125 39.109375 
Q 10.453125 47.40625 18.359375 52.25 
Q 24.609375 56.0625 34.1875 56.0625 
Q 37.890625 56.0625 41.9375 55.46875 
Q 46 54.890625 50.53125 53.71875 
L 48.96875 45.5625 
Q 44.484375 46.96875 40.71875 47.609375 
Q 36.859375 48.25 33.40625 48.25 
Q 27.59375 48.25 23.78125 46 
Q 19.1875 43.3125 19.1875 39.40625 
Q 19.1875 36.8125 21.578125 35.015625 
Q 24.421875 32.859375 30.078125 32.859375 
L 37.640625 32.859375 
L 36.234375 25.4375 
L 29 25.4375 
Q 22.265625 25.4375 18.3125 22.953125 
Q 12.9375 19.578125 12.9375 14.3125 
Q 12.9375 10.984375 15.828125 8.796875 
Q 19.4375 6.0625 26.8125 6.0625 
Q 31.34375 6.0625 35.6875 6.9375 
Q 40.046875 7.859375 43.84375 9.671875 
L 42.1875 1.3125 
Q 37.546875 -0.046875 33.296875 -0.734375 
Q 29.046875 -1.421875 25.140625 -1.421875 
Q 13.53125 -1.421875 8.0625 3.03125 
Q 3.90625 6.453125 3.90625 12.203125 
Q 3.90625 19.96875 9.375 24.75 
Q 13.421875 28.328125 19.734375 29.5 
z
" id="DejaVuSans-Oblique-949"/>
      <path d="M 9.8125 72.90625 
L 24.515625 72.90625 
L 43.109375 23.296875 
L 61.8125 72.90625 
L 76.515625 72.90625 
L 76.515625 0 
L 66.890625 0 
L 66.890625 64.015625 
L 48.09375 14.015625 
L 38.1875 14.015625 
L 19.390625 64.015625 
L 19.390625 0 
L 9.8125 0 
z
" id="DejaVuSans-77"/>
      <path d="M 34.1875 63.1875 
L 20.796875 26.90625 
L 47.609375 26.90625 
z
M 28.609375 72.90625 
L 39.796875 72.90625 
L 67.578125 0 
L 57.328125 0 
L 50.6875 18.703125 
L 17.828125 18.703125 
L 11.1875 0 
L 0.78125 0 
z
" id="DejaVuSans-65"/>
      <path d="M 9.8125 72.90625 
L 55.90625 72.90625 
L 55.90625 64.59375 
L 19.671875 64.59375 
L 19.671875 43.015625 
L 54.390625 43.015625 
L 54.390625 34.71875 
L 19.671875 34.71875 
L 19.671875 8.296875 
L 56.78125 8.296875 
L 56.78125 0 
L 9.8125 0 
z
" id="DejaVuSans-69"/>
     </defs>
     <g transform="translate(22.396875 222.24)rotate(-90)scale(0.2 -0.2)">
      <use transform="translate(0 0.9375)" xlink:href="#DejaVuSans-Oblique-949"/>
      <use transform="translate(54.052734 -15.46875)scale(0.7)" xlink:href="#DejaVuSans-77"/>
      <use transform="translate(114.448242 -15.46875)scale(0.7)" xlink:href="#DejaVuSans-65"/>
      <use transform="translate(162.333984 -15.46875)scale(0.7)" xlink:href="#DejaVuSans-69"/>
     </g>
    </g>
   </g>
   <g id="line2d_13">
    <path clip-path="url(#p06dea04a12)" d="M 511.696591 333.343529 
L 507.597417 312.414056 
L 503.498244 309.515846 
L 499.39907 307.649428 
L 495.299897 306.845744 
L 491.200723 306.256366 
L 487.10155 305.355577 
L 483.002376 304.629234 
L 478.903202 303.828499 
L 474.804029 302.686567 
L 470.704855 301.87737 
L 466.605682 299.506534 
L 462.506508 296.686383 
L 458.407335 295.674136 
L 454.308161 294.558959 
L 450.208988 293.502071 
L 446.109814 291.017232 
L 442.01064 285.112147 
L 437.911467 283.076433 
L 433.812293 280.324366 
L 429.71312 277.05606 
L 425.613946 270.442344 
L 421.514773 257.800041 
L 417.415599 256.111188 
L 413.316426 254.414515 
L 409.217252 251.264516 
L 405.118079 250.146166 
L 401.018905 249.442332 
L 396.919731 248.34017 
L 392.820558 247.893782 
L 388.721384 246.951148 
L 384.622211 246.508155 
L 380.523037 244.991319 
L 376.423864 240.145948 
L 372.32469 238.795496 
L 368.225517 237.584247 
L 364.126343 231.609049 
L 360.027169 230.707169 
L 355.927996 229.903805 
L 351.828822 228.874628 
L 347.729649 222.221571 
L 343.630475 218.668455 
L 339.531302 217.832403 
L 335.432128 213.939241 
L 331.332955 213.308753 
L 327.233781 212.658114 
L 323.134607 211.673556 
L 319.035434 209.447675 
L 314.93626 205.502311 
L 310.837087 203.420147 
L 306.737913 202.41563 
L 302.63874 200.159843 
L 298.539566 198.107012 
L 294.440393 197.137132 
L 290.341219 190.492497 
L 286.242045 189.33964 
L 282.142872 188.568228 
L 278.043698 187.813417 
L 273.944525 187.285483 
L 269.845351 186.842104 
L 265.746178 182.772724 
L 261.647004 178.858833 
L 257.547831 175.792846 
L 253.448657 173.112132 
L 249.349483 172.204602 
L 245.25031 168.7927 
L 241.151136 167.362958 
L 237.051963 163.21111 
L 232.952789 161.594399 
L 228.853616 156.513942 
L 224.754442 153.863337 
L 220.655269 153.17216 
L 216.556095 151.383334 
L 212.456921 149.653004 
L 208.357748 148.743739 
L 204.258574 143.959236 
L 200.159401 139.349472 
L 196.060227 136.349794 
L 191.961054 132.279488 
L 187.86188 127.737151 
L 183.762707 125.750866 
L 179.663533 123.366745 
L 175.56436 120.115354 
L 171.465186 118.365892 
L 167.366012 118.127759 
L 163.266839 110.679765 
L 159.167665 110.278557 
L 155.068492 108.171287 
L 150.969318 103.810424 
L 146.870145 99.045966 
L 142.770971 94.850343 
L 138.671798 86.960028 
L 134.572624 81.530108 
L 130.47345 74.994982 
L 126.374277 68.285414 
L 122.275103 60.748981 
L 118.17593 54.855756 
L 114.076756 51.369119 
L 109.977583 50.998127 
L 105.878409 41.879811 
" style="fill:none;stroke:#1f77b4;stroke-linecap:square;stroke-width:1.5;"/>
   </g>
   <g id="line2d_14">
    <path clip-path="url(#p06dea04a12)" d="M 511.696591 393.226918 
L 507.597417 391.977366 
L 503.498244 390.874125 
L 499.39907 389.418393 
L 495.299897 388.18968 
L 491.200723 386.874629 
L 487.10155 385.449268 
L 483.002376 384.06254 
L 478.903202 382.67303 
L 474.804029 381.308983 
L 470.704855 380.005764 
L 466.605682 378.583451 
L 462.506508 377.167902 
L 458.407335 375.80621 
L 454.308161 374.440379 
L 450.208988 373.063766 
L 446.109814 371.726531 
L 442.01064 370.310474 
L 437.911467 368.756265 
L 433.812293 367.149468 
L 429.71312 365.584727 
L 425.613946 364.040023 
L 421.514773 362.490942 
L 417.415599 360.937943 
L 413.316426 359.429736 
L 409.217252 357.927125 
L 405.118079 356.412786 
L 401.018905 354.852207 
L 396.919731 353.291051 
L 392.820558 351.772172 
L 388.721384 350.279049 
L 384.622211 348.812312 
L 380.523037 347.354054 
L 376.423864 345.892138 
L 372.32469 344.454863 
L 368.225517 342.9936 
L 364.126343 341.538198 
L 360.027169 340.056147 
L 355.927996 338.521388 
L 351.828822 336.997681 
L 347.729649 335.459335 
L 343.630475 333.878888 
L 339.531302 332.267761 
L 335.432128 330.651122 
L 331.332955 329.021096 
L 327.233781 327.399562 
L 323.134607 325.740125 
L 319.035434 323.998231 
L 314.93626 322.137858 
L 310.837087 320.258769 
L 306.737913 318.341908 
L 302.63874 316.363049 
L 298.539566 314.273829 
L 294.440393 312.066527 
L 290.341219 309.840489 
L 286.242045 307.543598 
L 282.142872 305.137671 
L 278.043698 302.707473 
L 273.944525 300.246728 
L 269.845351 297.791437 
L 265.746178 295.315668 
L 261.647004 292.786361 
L 257.547831 290.227236 
L 253.448657 287.523159 
L 249.349483 284.591404 
L 245.25031 281.587601 
L 241.151136 278.579809 
L 237.051963 275.564215 
L 232.952789 272.385542 
L 228.853616 268.944221 
L 224.754442 265.437951 
L 220.655269 261.90684 
L 216.556095 258.275203 
L 212.456921 254.402005 
L 208.357748 250.479247 
L 204.258574 246.427183 
L 200.159401 242.052944 
L 196.060227 237.555015 
L 191.961054 232.907828 
L 187.86188 227.928159 
L 183.762707 222.804006 
L 179.663533 217.660413 
L 175.56436 212.514524 
L 171.465186 207.29737 
L 167.366012 201.806294 
L 163.266839 195.991747 
L 159.167665 189.836029 
L 155.068492 183.472179 
L 150.969318 176.791118 
L 146.870145 169.733213 
L 142.770971 162.02127 
L 138.671798 153.593333 
L 134.572624 144.783598 
L 130.47345 135.289301 
L 126.374277 125.262192 
L 122.275103 114.570983 
L 118.17593 102.767209 
L 114.076756 89.765097 
L 109.977583 73.648489 
L 105.878409 41.879811 
" style="fill:none;stroke:#ff7f0e;stroke-linecap:square;stroke-width:1.5;"/>
   </g>
   <g id="line2d_15">
    <path clip-path="url(#p06dea04a12)" d="M 105.878409 48.919264 
L 109.977583 47.447406 
L 114.076756 46.780058 
L 118.17593 46.49039 
L 122.275103 45.880687 
L 126.374277 45.289269 
L 130.47345 45.119283 
L 134.572624 44.866658 
L 138.671798 44.788063 
L 142.770971 44.673968 
L 146.870145 44.605081 
L 150.969318 44.50036 
L 155.068492 44.374026 
L 159.167665 44.296531 
L 163.266839 44.197021 
L 167.366012 43.997423 
L 171.465186 43.83724 
L 175.56436 43.676083 
L 179.663533 43.595593 
L 183.762707 43.491304 
L 187.86188 43.279976 
L 191.961054 43.148693 
L 196.060227 42.949977 
L 200.159401 42.847951 
L 204.258574 42.790006 
L 208.357748 42.748424 
L 212.456921 42.718049 
L 216.556095 42.692942 
L 220.655269 42.650431 
L 224.754442 42.627519 
L 228.853616 42.598654 
L 232.952789 42.573258 
L 237.051963 42.545675 
L 241.151136 42.529541 
L 245.25031 42.506559 
L 249.349483 42.492983 
L 253.448657 42.481783 
L 257.547831 42.473656 
L 261.647004 42.460501 
L 265.746178 42.453098 
L 269.845351 42.438658 
L 273.944525 42.427569 
L 278.043698 42.414596 
L 282.142872 42.400868 
L 286.242045 42.394102 
L 290.341219 42.389294 
L 294.440393 42.378761 
L 298.539566 42.370905 
L 302.63874 42.353071 
L 306.737913 42.343186 
L 310.837087 42.335658 
L 314.93626 42.321723 
L 319.035434 42.311967 
L 323.134607 42.303133 
L 327.233781 42.291757 
L 331.332955 42.278509 
L 335.432128 42.268914 
L 339.531302 42.261479 
L 343.630475 42.254949 
L 347.729649 42.244019 
L 351.828822 42.235673 
L 355.927996 42.228145 
L 360.027169 42.216461 
L 364.126343 42.201627 
L 368.225517 42.184125 
L 372.32469 42.171833 
L 376.423864 42.15772 
L 380.523037 42.144368 
L 384.622211 42.131506 
L 388.721384 42.116195 
L 392.820558 42.088497 
L 396.919731 42.061448 
L 401.018905 42.044879 
L 405.118079 42.023931 
L 409.217252 41.991585 
L 413.316426 41.959652 
L 417.415599 41.950094 
L 421.514773 41.926563 
L 425.613946 41.886172 
L 429.71312 41.865026 
L 433.812293 41.837652 
L 437.911467 41.779415 
L 442.01064 41.742219 
L 446.109814 41.697088 
L 450.208988 41.61413 
L 454.308161 41.444606 
L 458.407335 41.341474 
L 462.506508 41.278089 
L 466.605682 41.245671 
L 470.704855 41.176694 
L 474.804029 41.125011 
L 478.903202 41.05638 
L 483.002376 40.863955 
L 487.10155 40.732146 
L 491.200723 40.631181 
L 495.299897 40.584275 
L 499.39907 40.474866 
L 503.498244 40.357951 
L 507.597417 36.00153 
L 511.696591 28.251667 
" style="fill:none;stroke:#2ca02c;stroke-linecap:square;stroke-width:1.5;"/>
   </g>
   <g id="patch_3">
    <path d="M 85.5875 395.28 
L 85.5875 7.2 
" style="fill:none;stroke:#000000;stroke-linecap:square;stroke-linejoin:miter;stroke-width:2.5;"/>
   </g>
   <g id="patch_4">
    <path d="M 531.9875 395.28 
L 531.9875 7.2 
" style="fill:none;stroke:#000000;stroke-linecap:square;stroke-linejoin:miter;stroke-width:2.5;"/>
   </g>
   <g id="patch_5">
    <path d="M 85.5875 395.28 
L 531.9875 395.28 
" style="fill:none;stroke:#000000;stroke-linecap:square;stroke-linejoin:miter;stroke-width:2.5;"/>
   </g>
   <g id="patch_6">
    <path d="M 85.5875 7.2 
L 531.9875 7.2 
" style="fill:none;stroke:#000000;stroke-linecap:square;stroke-linejoin:miter;stroke-width:2.5;"/>
   </g>
   <g id="legend_1">
    <g id="patch_7">
     <path d="M 99.5875 385.28 
L 241.15625 385.28 
Q 245.15625 385.28 245.15625 381.28 
L 245.15625 295.21125 
Q 245.15625 291.21125 241.15625 291.21125 
L 99.5875 291.21125 
Q 95.5875 291.21125 95.5875 295.21125 
L 95.5875 381.28 
Q 95.5875 385.28 99.5875 385.28 
z
" style="fill:#ffffff;opacity:0.8;stroke:#cccccc;stroke-linejoin:miter;"/>
    </g>
    <g id="line2d_16">
     <path d="M 103.5875 307.408125 
L 143.5875 307.408125 
" style="fill:none;stroke:#1f77b4;stroke-linecap:square;stroke-width:1.5;"/>
    </g>
    <g id="line2d_17"/>
    <g id="text_15">
     <!-- std -->
     <defs>
      <path d="M 44.28125 53.078125 
L 44.28125 44.578125 
Q 40.484375 46.53125 36.375 47.5 
Q 32.28125 48.484375 27.875 48.484375 
Q 21.1875 48.484375 17.84375 46.4375 
Q 14.5 44.390625 14.5 40.28125 
Q 14.5 37.15625 16.890625 35.375 
Q 19.28125 33.59375 26.515625 31.984375 
L 29.59375 31.296875 
Q 39.15625 29.25 43.1875 25.515625 
Q 47.21875 21.78125 47.21875 15.09375 
Q 47.21875 7.46875 41.1875 3.015625 
Q 35.15625 -1.421875 24.609375 -1.421875 
Q 20.21875 -1.421875 15.453125 -0.5625 
Q 10.6875 0.296875 5.421875 2 
L 5.421875 11.28125 
Q 10.40625 8.6875 15.234375 7.390625 
Q 20.0625 6.109375 24.8125 6.109375 
Q 31.15625 6.109375 34.5625 8.28125 
Q 37.984375 10.453125 37.984375 14.40625 
Q 37.984375 18.0625 35.515625 20.015625 
Q 33.0625 21.96875 24.703125 23.78125 
L 21.578125 24.515625 
Q 13.234375 26.265625 9.515625 29.90625 
Q 5.8125 33.546875 5.8125 39.890625 
Q 5.8125 47.609375 11.28125 51.796875 
Q 16.75 56 26.8125 56 
Q 31.78125 56 36.171875 55.265625 
Q 40.578125 54.546875 44.28125 53.078125 
z
" id="DejaVuSans-115"/>
     </defs>
     <g transform="translate(159.5875 314.408125)scale(0.2 -0.2)">
      <use xlink:href="#DejaVuSans-115"/>
      <use x="52.099609" xlink:href="#DejaVuSans-116"/>
      <use x="91.308594" xlink:href="#DejaVuSans-100"/>
     </g>
    </g>
    <g id="line2d_18">
     <path d="M 103.5875 336.764375 
L 143.5875 336.764375 
" style="fill:none;stroke:#ff7f0e;stroke-linecap:square;stroke-width:1.5;"/>
    </g>
    <g id="line2d_19"/>
    <g id="text_16">
     <!-- error -->
     <g transform="translate(159.5875 343.764375)scale(0.2 -0.2)">
      <use xlink:href="#DejaVuSans-101"/>
      <use x="61.523438" xlink:href="#DejaVuSans-114"/>
      <use x="102.621094" xlink:href="#DejaVuSans-114"/>
      <use x="143.703125" xlink:href="#DejaVuSans-111"/>
      <use x="204.884766" xlink:href="#DejaVuSans-114"/>
     </g>
    </g>
    <g id="patch_8">
     <path d="M 103.5875 373.120625 
L 143.5875 373.120625 
L 143.5875 359.120625 
L 103.5875 359.120625 
z
" style="fill:#1f77b4;opacity:0.2;"/>
    </g>
    <g id="text_17">
     <!-- random -->
     <defs>
      <path d="M 34.28125 27.484375 
Q 23.390625 27.484375 19.1875 25 
Q 14.984375 22.515625 14.984375 16.5 
Q 14.984375 11.71875 18.140625 8.90625 
Q 21.296875 6.109375 26.703125 6.109375 
Q 34.1875 6.109375 38.703125 11.40625 
Q 43.21875 16.703125 43.21875 25.484375 
L 43.21875 27.484375 
z
M 52.203125 31.203125 
L 52.203125 0 
L 43.21875 0 
L 43.21875 8.296875 
Q 40.140625 3.328125 35.546875 0.953125 
Q 30.953125 -1.421875 24.3125 -1.421875 
Q 15.921875 -1.421875 10.953125 3.296875 
Q 6 8.015625 6 15.921875 
Q 6 25.140625 12.171875 29.828125 
Q 18.359375 34.515625 30.609375 34.515625 
L 43.21875 34.515625 
L 43.21875 35.40625 
Q 43.21875 41.609375 39.140625 45 
Q 35.0625 48.390625 27.6875 48.390625 
Q 23 48.390625 18.546875 47.265625 
Q 14.109375 46.140625 10.015625 43.890625 
L 10.015625 52.203125 
Q 14.9375 54.109375 19.578125 55.046875 
Q 24.21875 56 28.609375 56 
Q 40.484375 56 46.34375 49.84375 
Q 52.203125 43.703125 52.203125 31.203125 
z
" id="DejaVuSans-97"/>
      <path d="M 52 44.1875 
Q 55.375 50.25 60.0625 53.125 
Q 64.75 56 71.09375 56 
Q 79.640625 56 84.28125 50.015625 
Q 88.921875 44.046875 88.921875 33.015625 
L 88.921875 0 
L 79.890625 0 
L 79.890625 32.71875 
Q 79.890625 40.578125 77.09375 44.375 
Q 74.3125 48.1875 68.609375 48.1875 
Q 61.625 48.1875 57.5625 43.546875 
Q 53.515625 38.921875 53.515625 30.90625 
L 53.515625 0 
L 44.484375 0 
L 44.484375 32.71875 
Q 44.484375 40.625 41.703125 44.40625 
Q 38.921875 48.1875 33.109375 48.1875 
Q 26.21875 48.1875 22.15625 43.53125 
Q 18.109375 38.875 18.109375 30.90625 
L 18.109375 0 
L 9.078125 0 
L 9.078125 54.6875 
L 18.109375 54.6875 
L 18.109375 46.1875 
Q 21.1875 51.21875 25.484375 53.609375 
Q 29.78125 56 35.6875 56 
Q 41.65625 56 45.828125 52.96875 
Q 50 49.953125 52 44.1875 
z
" id="DejaVuSans-109"/>
     </defs>
     <g transform="translate(159.5875 373.120625)scale(0.2 -0.2)">
      <use xlink:href="#DejaVuSans-114"/>
      <use x="41.113281" xlink:href="#DejaVuSans-97"/>
      <use x="102.392578" xlink:href="#DejaVuSans-110"/>
      <use x="165.771484" xlink:href="#DejaVuSans-100"/>
      <use x="229.248047" xlink:href="#DejaVuSans-111"/>
      <use x="290.429688" xlink:href="#DejaVuSans-109"/>
     </g>
    </g>
   </g>
  </g>
 </g>
 <defs>
  <clipPath id="p06dea04a12">
   <rect height="388.08" width="446.4" x="85.5875" y="7.2"/>
  </clipPath>
 </defs>
</svg>
