<?xml version="1.0" encoding="utf-8" standalone="no"?>
<!DOCTYPE svg PUBLIC "-//W3C//DTD SVG 1.1//EN"
  "http://www.w3.org/Graphics/SVG/1.1/DTD/svg11.dtd">
<!-- Created with matplotlib (https://matplotlib.org/) -->
<svg height="310.86825pt" version="1.1" viewBox="0 0 414.46375 310.86825" width="414.46375pt" xmlns="http://www.w3.org/2000/svg" xmlns:xlink="http://www.w3.org/1999/xlink">
 <defs>
  <style type="text/css">
*{stroke-linecap:butt;stroke-linejoin:round;}
  </style>
 </defs>
 <g id="figure_1">
  <g id="patch_1">
   <path d="M 0 310.86825 
L 414.46375 310.86825 
L 414.46375 0 
L 0 0 
z
" style="fill:#ffffff;"/>
  </g>
  <g id="axes_1">
   <g id="patch_2">
    <path d="M 50.14375 273.312 
L 407.26375 273.312 
L 407.26375 7.2 
L 50.14375 7.2 
z
" style="fill:#ffffff;"/>
   </g>
   <g id="PolyCollection_1">
    <path clip-path="url(#p095087e965)" d="M 66.376477 34.425727 
L 66.376477 32.150926 
L 69.655816 31.581353 
L 72.935155 31.20438 
L 76.214494 30.56673 
L 79.493833 30.280622 
L 82.773171 30.041457 
L 86.05251 29.729843 
L 89.331849 29.658831 
L 92.611188 29.12269 
L 95.890527 28.929351 
L 99.169866 28.807085 
L 102.449205 28.699561 
L 105.728543 28.655091 
L 109.007882 28.391586 
L 112.287221 28.054969 
L 115.56656 27.653097 
L 118.845899 27.513064 
L 122.125238 27.326836 
L 125.404576 27.093821 
L 128.683915 26.550913 
L 131.963254 26.233291 
L 135.242593 26.091883 
L 138.521932 25.945438 
L 141.801271 25.860223 
L 145.08061 25.418568 
L 148.359948 25.150004 
L 151.639287 25.067113 
L 154.918626 24.917711 
L 158.197965 24.645624 
L 161.477304 24.270343 
L 164.756643 24.043206 
L 168.035981 23.809159 
L 171.31532 23.571605 
L 174.594659 23.306787 
L 177.873998 22.997301 
L 181.153337 22.818457 
L 184.432676 22.659137 
L 187.712014 22.482751 
L 190.991353 22.403216 
L 194.270692 22.274931 
L 197.550031 22.165361 
L 200.82937 22.050599 
L 204.108709 21.648267 
L 207.388048 21.174422 
L 210.667386 21.030791 
L 213.946725 20.788021 
L 217.226064 20.389568 
L 220.505403 20.243636 
L 223.784742 19.84538 
L 227.064081 19.121586 
L 230.343419 18.960751 
L 233.622758 18.901879 
L 236.902097 18.829598 
L 240.181436 18.778101 
L 243.460775 18.713237 
L 246.740114 18.512156 
L 250.019452 18.294782 
L 253.298791 17.42616 
L 256.57813 16.486939 
L 259.857469 16.211837 
L 263.136808 15.949078 
L 266.416147 15.668812 
L 269.695486 15.542683 
L 272.974824 15.280075 
L 276.254163 15.121798 
L 279.533502 14.789039 
L 282.812841 13.605819 
L 286.09218 13.27451 
L 289.371519 12.484788 
L 292.650857 11.637658 
L 295.930196 10.707898 
L 299.209535 10.393007 
L 302.488874 9.23524 
L 305.768213 8.489131 
L 309.047552 8.085425 
L 312.32689 7.479632 
L 315.606229 6.403331 
L 318.885568 5.687844 
L 322.164907 4.827176 
L 325.444246 4.055676 
L 328.723585 2.172912 
L 332.002924 1.180444 
L 335.282262 -0.976379 
L 338.561601 -2.776768 
L 341.84094 -3.3657 
L 345.120279 -5.01676 
L 348.399618 -7.132027 
L 351.678957 -9.280054 
L 354.958295 -10.894501 
L 358.237634 -12.590516 
L 361.516973 -14.461237 
L 364.796312 -17.127049 
L 368.075651 -19.877726 
L 371.35499 -24.203943 
L 374.634329 -33.978585 
L 377.913667 -45.087147 
L 381.193006 -58.206951 
L 384.472345 -70.36664 
L 387.751684 -99.457415 
L 391.031023 -376.630876 
L 391.031023 412.827461 
L 391.031023 412.827461 
L 387.751684 147.090137 
L 384.472345 124.012976 
L 381.193006 112.72657 
L 377.913667 100.175332 
L 374.634329 89.637485 
L 371.35499 80.236989 
L 368.075651 76.274161 
L 364.796312 73.843118 
L 361.516973 71.337887 
L 358.237634 69.630877 
L 354.958295 68.331594 
L 351.678957 67.061389 
L 348.399618 65.03482 
L 345.120279 63.169966 
L 341.84094 61.83412 
L 338.561601 61.428411 
L 335.282262 59.848425 
L 332.002924 57.978886 
L 328.723585 57.246017 
L 325.444246 55.704678 
L 322.164907 55.561999 
L 318.885568 54.993347 
L 315.606229 54.455854 
L 312.32689 53.571142 
L 309.047552 53.157967 
L 305.768213 52.922637 
L 302.488874 52.349668 
L 299.209535 51.367922 
L 295.930196 51.119876 
L 292.650857 50.572113 
L 289.371519 50.954697 
L 286.09218 50.335711 
L 282.812841 50.126707 
L 279.533502 49.068367 
L 276.254163 48.827775 
L 272.974824 48.768249 
L 269.695486 48.565103 
L 266.416147 48.479278 
L 263.136808 48.251526 
L 259.857469 48.021017 
L 256.57813 47.793509 
L 253.298791 46.87425 
L 250.019452 46.028611 
L 246.740114 45.831051 
L 243.460775 45.663186 
L 240.181436 45.629769 
L 236.902097 45.612005 
L 233.622758 45.562458 
L 230.343419 45.528783 
L 227.064081 45.416826 
L 223.784742 44.742815 
L 220.505403 44.367819 
L 217.226064 44.251069 
L 213.946725 43.878382 
L 210.667386 43.649813 
L 207.388048 43.54323 
L 204.108709 43.10903 
L 200.82937 42.750409 
L 197.550031 42.656069 
L 194.270692 42.585919 
L 190.991353 42.51091 
L 187.712014 42.475097 
L 184.432676 42.353037 
L 181.153337 42.234086 
L 177.873998 42.098788 
L 174.594659 41.831132 
L 171.31532 41.597213 
L 168.035981 41.4074 
L 164.756643 41.201639 
L 161.477304 41.057185 
L 158.197965 40.723487 
L 154.918626 40.522232 
L 151.639287 40.530986 
L 148.359948 40.483656 
L 145.08061 40.257152 
L 141.801271 39.869868 
L 138.521932 39.814612 
L 135.242593 39.702413 
L 131.963254 39.577681 
L 128.683915 39.280386 
L 125.404576 38.749139 
L 122.125238 38.52928 
L 118.845899 38.368875 
L 115.56656 38.245081 
L 112.287221 37.856084 
L 109.007882 37.530806 
L 105.728543 37.29397 
L 102.449205 37.282924 
L 99.169866 37.188521 
L 95.890527 37.087078 
L 92.611188 36.940428 
L 89.331849 36.459741 
L 86.05251 36.414172 
L 82.773171 36.137581 
L 79.493833 35.942684 
L 76.214494 35.760636 
L 72.935155 35.196848 
L 69.655816 34.890481 
L 66.376477 34.425727 
z
" style="fill:#1f77b4;fill-opacity:0.2;"/>
   </g>
   <g id="matplotlib.axis_1">
    <g id="xtick_1">
     <g id="line2d_1">
      <defs>
       <path d="M 0 0 
L 0 3.5 
" id="m890072f777" style="stroke:#000000;stroke-width:0.8;"/>
      </defs>
      <g>
       <use style="stroke:#000000;stroke-width:0.8;" x="63.097138" xlink:href="#m890072f777" y="273.312"/>
      </g>
     </g>
     <g id="text_1">
      <!-- 0 -->
      <defs>
       <path d="M 31.78125 66.40625 
Q 24.171875 66.40625 20.328125 58.90625 
Q 16.5 51.421875 16.5 36.375 
Q 16.5 21.390625 20.328125 13.890625 
Q 24.171875 6.390625 31.78125 6.390625 
Q 39.453125 6.390625 43.28125 13.890625 
Q 47.125 21.390625 47.125 36.375 
Q 47.125 51.421875 43.28125 58.90625 
Q 39.453125 66.40625 31.78125 66.40625 
z
M 31.78125 74.21875 
Q 44.046875 74.21875 50.515625 64.515625 
Q 56.984375 54.828125 56.984375 36.375 
Q 56.984375 17.96875 50.515625 8.265625 
Q 44.046875 -1.421875 31.78125 -1.421875 
Q 19.53125 -1.421875 13.0625 8.265625 
Q 6.59375 17.96875 6.59375 36.375 
Q 6.59375 54.828125 13.0625 64.515625 
Q 19.53125 74.21875 31.78125 74.21875 
z
" id="DejaVuSans-48"/>
      </defs>
      <g transform="translate(59.915888 287.910437)scale(0.1 -0.1)">
       <use xlink:href="#DejaVuSans-48"/>
      </g>
     </g>
    </g>
    <g id="xtick_2">
     <g id="line2d_2">
      <g>
       <use style="stroke:#000000;stroke-width:0.8;" x="128.683915" xlink:href="#m890072f777" y="273.312"/>
      </g>
     </g>
     <g id="text_2">
      <!-- 20 -->
      <defs>
       <path d="M 19.1875 8.296875 
L 53.609375 8.296875 
L 53.609375 0 
L 7.328125 0 
L 7.328125 8.296875 
Q 12.9375 14.109375 22.625 23.890625 
Q 32.328125 33.6875 34.8125 36.53125 
Q 39.546875 41.84375 41.421875 45.53125 
Q 43.3125 49.21875 43.3125 52.78125 
Q 43.3125 58.59375 39.234375 62.25 
Q 35.15625 65.921875 28.609375 65.921875 
Q 23.96875 65.921875 18.8125 64.3125 
Q 13.671875 62.703125 7.8125 59.421875 
L 7.8125 69.390625 
Q 13.765625 71.78125 18.9375 73 
Q 24.125 74.21875 28.421875 74.21875 
Q 39.75 74.21875 46.484375 68.546875 
Q 53.21875 62.890625 53.21875 53.421875 
Q 53.21875 48.921875 51.53125 44.890625 
Q 49.859375 40.875 45.40625 35.40625 
Q 44.1875 33.984375 37.640625 27.21875 
Q 31.109375 20.453125 19.1875 8.296875 
z
" id="DejaVuSans-50"/>
      </defs>
      <g transform="translate(122.321415 287.910437)scale(0.1 -0.1)">
       <use xlink:href="#DejaVuSans-50"/>
       <use x="63.623047" xlink:href="#DejaVuSans-48"/>
      </g>
     </g>
    </g>
    <g id="xtick_3">
     <g id="line2d_3">
      <g>
       <use style="stroke:#000000;stroke-width:0.8;" x="194.270692" xlink:href="#m890072f777" y="273.312"/>
      </g>
     </g>
     <g id="text_3">
      <!-- 40 -->
      <defs>
       <path d="M 37.796875 64.3125 
L 12.890625 25.390625 
L 37.796875 25.390625 
z
M 35.203125 72.90625 
L 47.609375 72.90625 
L 47.609375 25.390625 
L 58.015625 25.390625 
L 58.015625 17.1875 
L 47.609375 17.1875 
L 47.609375 0 
L 37.796875 0 
L 37.796875 17.1875 
L 4.890625 17.1875 
L 4.890625 26.703125 
z
" id="DejaVuSans-52"/>
      </defs>
      <g transform="translate(187.908192 287.910437)scale(0.1 -0.1)">
       <use xlink:href="#DejaVuSans-52"/>
       <use x="63.623047" xlink:href="#DejaVuSans-48"/>
      </g>
     </g>
    </g>
    <g id="xtick_4">
     <g id="line2d_4">
      <g>
       <use style="stroke:#000000;stroke-width:0.8;" x="259.857469" xlink:href="#m890072f777" y="273.312"/>
      </g>
     </g>
     <g id="text_4">
      <!-- 60 -->
      <defs>
       <path d="M 33.015625 40.375 
Q 26.375 40.375 22.484375 35.828125 
Q 18.609375 31.296875 18.609375 23.390625 
Q 18.609375 15.53125 22.484375 10.953125 
Q 26.375 6.390625 33.015625 6.390625 
Q 39.65625 6.390625 43.53125 10.953125 
Q 47.40625 15.53125 47.40625 23.390625 
Q 47.40625 31.296875 43.53125 35.828125 
Q 39.65625 40.375 33.015625 40.375 
z
M 52.59375 71.296875 
L 52.59375 62.3125 
Q 48.875 64.0625 45.09375 64.984375 
Q 41.3125 65.921875 37.59375 65.921875 
Q 27.828125 65.921875 22.671875 59.328125 
Q 17.53125 52.734375 16.796875 39.40625 
Q 19.671875 43.65625 24.015625 45.921875 
Q 28.375 48.1875 33.59375 48.1875 
Q 44.578125 48.1875 50.953125 41.515625 
Q 57.328125 34.859375 57.328125 23.390625 
Q 57.328125 12.15625 50.6875 5.359375 
Q 44.046875 -1.421875 33.015625 -1.421875 
Q 20.359375 -1.421875 13.671875 8.265625 
Q 6.984375 17.96875 6.984375 36.375 
Q 6.984375 53.65625 15.1875 63.9375 
Q 23.390625 74.21875 37.203125 74.21875 
Q 40.921875 74.21875 44.703125 73.484375 
Q 48.484375 72.75 52.59375 71.296875 
z
" id="DejaVuSans-54"/>
      </defs>
      <g transform="translate(253.494969 287.910437)scale(0.1 -0.1)">
       <use xlink:href="#DejaVuSans-54"/>
       <use x="63.623047" xlink:href="#DejaVuSans-48"/>
      </g>
     </g>
    </g>
    <g id="xtick_5">
     <g id="line2d_5">
      <g>
       <use style="stroke:#000000;stroke-width:0.8;" x="325.444246" xlink:href="#m890072f777" y="273.312"/>
      </g>
     </g>
     <g id="text_5">
      <!-- 80 -->
      <defs>
       <path d="M 31.78125 34.625 
Q 24.75 34.625 20.71875 30.859375 
Q 16.703125 27.09375 16.703125 20.515625 
Q 16.703125 13.921875 20.71875 10.15625 
Q 24.75 6.390625 31.78125 6.390625 
Q 38.8125 6.390625 42.859375 10.171875 
Q 46.921875 13.96875 46.921875 20.515625 
Q 46.921875 27.09375 42.890625 30.859375 
Q 38.875 34.625 31.78125 34.625 
z
M 21.921875 38.8125 
Q 15.578125 40.375 12.03125 44.71875 
Q 8.5 49.078125 8.5 55.328125 
Q 8.5 64.0625 14.71875 69.140625 
Q 20.953125 74.21875 31.78125 74.21875 
Q 42.671875 74.21875 48.875 69.140625 
Q 55.078125 64.0625 55.078125 55.328125 
Q 55.078125 49.078125 51.53125 44.71875 
Q 48 40.375 41.703125 38.8125 
Q 48.828125 37.15625 52.796875 32.3125 
Q 56.78125 27.484375 56.78125 20.515625 
Q 56.78125 9.90625 50.3125 4.234375 
Q 43.84375 -1.421875 31.78125 -1.421875 
Q 19.734375 -1.421875 13.25 4.234375 
Q 6.78125 9.90625 6.78125 20.515625 
Q 6.78125 27.484375 10.78125 32.3125 
Q 14.796875 37.15625 21.921875 38.8125 
z
M 18.3125 54.390625 
Q 18.3125 48.734375 21.84375 45.5625 
Q 25.390625 42.390625 31.78125 42.390625 
Q 38.140625 42.390625 41.71875 45.5625 
Q 45.3125 48.734375 45.3125 54.390625 
Q 45.3125 60.0625 41.71875 63.234375 
Q 38.140625 66.40625 31.78125 66.40625 
Q 25.390625 66.40625 21.84375 63.234375 
Q 18.3125 60.0625 18.3125 54.390625 
z
" id="DejaVuSans-56"/>
      </defs>
      <g transform="translate(319.081746 287.910437)scale(0.1 -0.1)">
       <use xlink:href="#DejaVuSans-56"/>
       <use x="63.623047" xlink:href="#DejaVuSans-48"/>
      </g>
     </g>
    </g>
    <g id="xtick_6">
     <g id="line2d_6">
      <g>
       <use style="stroke:#000000;stroke-width:0.8;" x="391.031023" xlink:href="#m890072f777" y="273.312"/>
      </g>
     </g>
     <g id="text_6">
      <!-- 100 -->
      <defs>
       <path d="M 12.40625 8.296875 
L 28.515625 8.296875 
L 28.515625 63.921875 
L 10.984375 60.40625 
L 10.984375 69.390625 
L 28.421875 72.90625 
L 38.28125 72.90625 
L 38.28125 8.296875 
L 54.390625 8.296875 
L 54.390625 0 
L 12.40625 0 
z
" id="DejaVuSans-49"/>
      </defs>
      <g transform="translate(381.487273 287.910437)scale(0.1 -0.1)">
       <use xlink:href="#DejaVuSans-49"/>
       <use x="63.623047" xlink:href="#DejaVuSans-48"/>
       <use x="127.246094" xlink:href="#DejaVuSans-48"/>
      </g>
     </g>
    </g>
    <g id="text_7">
     <!-- error/confidence percentile -->
     <defs>
      <path d="M 56.203125 29.59375 
L 56.203125 25.203125 
L 14.890625 25.203125 
Q 15.484375 15.921875 20.484375 11.0625 
Q 25.484375 6.203125 34.421875 6.203125 
Q 39.59375 6.203125 44.453125 7.46875 
Q 49.3125 8.734375 54.109375 11.28125 
L 54.109375 2.78125 
Q 49.265625 0.734375 44.1875 -0.34375 
Q 39.109375 -1.421875 33.890625 -1.421875 
Q 20.796875 -1.421875 13.15625 6.1875 
Q 5.515625 13.8125 5.515625 26.8125 
Q 5.515625 40.234375 12.765625 48.109375 
Q 20.015625 56 32.328125 56 
Q 43.359375 56 49.78125 48.890625 
Q 56.203125 41.796875 56.203125 29.59375 
z
M 47.21875 32.234375 
Q 47.125 39.59375 43.09375 43.984375 
Q 39.0625 48.390625 32.421875 48.390625 
Q 24.90625 48.390625 20.390625 44.140625 
Q 15.875 39.890625 15.1875 32.171875 
z
" id="DejaVuSans-101"/>
      <path d="M 41.109375 46.296875 
Q 39.59375 47.171875 37.8125 47.578125 
Q 36.03125 48 33.890625 48 
Q 26.265625 48 22.1875 43.046875 
Q 18.109375 38.09375 18.109375 28.8125 
L 18.109375 0 
L 9.078125 0 
L 9.078125 54.6875 
L 18.109375 54.6875 
L 18.109375 46.1875 
Q 20.953125 51.171875 25.484375 53.578125 
Q 30.03125 56 36.53125 56 
Q 37.453125 56 38.578125 55.875 
Q 39.703125 55.765625 41.0625 55.515625 
z
" id="DejaVuSans-114"/>
      <path d="M 30.609375 48.390625 
Q 23.390625 48.390625 19.1875 42.75 
Q 14.984375 37.109375 14.984375 27.296875 
Q 14.984375 17.484375 19.15625 11.84375 
Q 23.34375 6.203125 30.609375 6.203125 
Q 37.796875 6.203125 41.984375 11.859375 
Q 46.1875 17.53125 46.1875 27.296875 
Q 46.1875 37.015625 41.984375 42.703125 
Q 37.796875 48.390625 30.609375 48.390625 
z
M 30.609375 56 
Q 42.328125 56 49.015625 48.375 
Q 55.71875 40.765625 55.71875 27.296875 
Q 55.71875 13.875 49.015625 6.21875 
Q 42.328125 -1.421875 30.609375 -1.421875 
Q 18.84375 -1.421875 12.171875 6.21875 
Q 5.515625 13.875 5.515625 27.296875 
Q 5.515625 40.765625 12.171875 48.375 
Q 18.84375 56 30.609375 56 
z
" id="DejaVuSans-111"/>
      <path d="M 25.390625 72.90625 
L 33.6875 72.90625 
L 8.296875 -9.28125 
L 0 -9.28125 
z
" id="DejaVuSans-47"/>
      <path d="M 48.78125 52.59375 
L 48.78125 44.1875 
Q 44.96875 46.296875 41.140625 47.34375 
Q 37.3125 48.390625 33.40625 48.390625 
Q 24.65625 48.390625 19.8125 42.84375 
Q 14.984375 37.3125 14.984375 27.296875 
Q 14.984375 17.28125 19.8125 11.734375 
Q 24.65625 6.203125 33.40625 6.203125 
Q 37.3125 6.203125 41.140625 7.25 
Q 44.96875 8.296875 48.78125 10.40625 
L 48.78125 2.09375 
Q 45.015625 0.34375 40.984375 -0.53125 
Q 36.96875 -1.421875 32.421875 -1.421875 
Q 20.0625 -1.421875 12.78125 6.34375 
Q 5.515625 14.109375 5.515625 27.296875 
Q 5.515625 40.671875 12.859375 48.328125 
Q 20.21875 56 33.015625 56 
Q 37.15625 56 41.109375 55.140625 
Q 45.0625 54.296875 48.78125 52.59375 
z
" id="DejaVuSans-99"/>
      <path d="M 54.890625 33.015625 
L 54.890625 0 
L 45.90625 0 
L 45.90625 32.71875 
Q 45.90625 40.484375 42.875 44.328125 
Q 39.84375 48.1875 33.796875 48.1875 
Q 26.515625 48.1875 22.3125 43.546875 
Q 18.109375 38.921875 18.109375 30.90625 
L 18.109375 0 
L 9.078125 0 
L 9.078125 54.6875 
L 18.109375 54.6875 
L 18.109375 46.1875 
Q 21.34375 51.125 25.703125 53.5625 
Q 30.078125 56 35.796875 56 
Q 45.21875 56 50.046875 50.171875 
Q 54.890625 44.34375 54.890625 33.015625 
z
" id="DejaVuSans-110"/>
      <path d="M 37.109375 75.984375 
L 37.109375 68.5 
L 28.515625 68.5 
Q 23.6875 68.5 21.796875 66.546875 
Q 19.921875 64.59375 19.921875 59.515625 
L 19.921875 54.6875 
L 34.71875 54.6875 
L 34.71875 47.703125 
L 19.921875 47.703125 
L 19.921875 0 
L 10.890625 0 
L 10.890625 47.703125 
L 2.296875 47.703125 
L 2.296875 54.6875 
L 10.890625 54.6875 
L 10.890625 58.5 
Q 10.890625 67.625 15.140625 71.796875 
Q 19.390625 75.984375 28.609375 75.984375 
z
" id="DejaVuSans-102"/>
      <path d="M 9.421875 54.6875 
L 18.40625 54.6875 
L 18.40625 0 
L 9.421875 0 
z
M 9.421875 75.984375 
L 18.40625 75.984375 
L 18.40625 64.59375 
L 9.421875 64.59375 
z
" id="DejaVuSans-105"/>
      <path d="M 45.40625 46.390625 
L 45.40625 75.984375 
L 54.390625 75.984375 
L 54.390625 0 
L 45.40625 0 
L 45.40625 8.203125 
Q 42.578125 3.328125 38.25 0.953125 
Q 33.9375 -1.421875 27.875 -1.421875 
Q 17.96875 -1.421875 11.734375 6.484375 
Q 5.515625 14.40625 5.515625 27.296875 
Q 5.515625 40.1875 11.734375 48.09375 
Q 17.96875 56 27.875 56 
Q 33.9375 56 38.25 53.625 
Q 42.578125 51.265625 45.40625 46.390625 
z
M 14.796875 27.296875 
Q 14.796875 17.390625 18.875 11.75 
Q 22.953125 6.109375 30.078125 6.109375 
Q 37.203125 6.109375 41.296875 11.75 
Q 45.40625 17.390625 45.40625 27.296875 
Q 45.40625 37.203125 41.296875 42.84375 
Q 37.203125 48.484375 30.078125 48.484375 
Q 22.953125 48.484375 18.875 42.84375 
Q 14.796875 37.203125 14.796875 27.296875 
z
" id="DejaVuSans-100"/>
      <path id="DejaVuSans-32"/>
      <path d="M 18.109375 8.203125 
L 18.109375 -20.796875 
L 9.078125 -20.796875 
L 9.078125 54.6875 
L 18.109375 54.6875 
L 18.109375 46.390625 
Q 20.953125 51.265625 25.265625 53.625 
Q 29.59375 56 35.59375 56 
Q 45.5625 56 51.78125 48.09375 
Q 58.015625 40.1875 58.015625 27.296875 
Q 58.015625 14.40625 51.78125 6.484375 
Q 45.5625 -1.421875 35.59375 -1.421875 
Q 29.59375 -1.421875 25.265625 0.953125 
Q 20.953125 3.328125 18.109375 8.203125 
z
M 48.6875 27.296875 
Q 48.6875 37.203125 44.609375 42.84375 
Q 40.53125 48.484375 33.40625 48.484375 
Q 26.265625 48.484375 22.1875 42.84375 
Q 18.109375 37.203125 18.109375 27.296875 
Q 18.109375 17.390625 22.1875 11.75 
Q 26.265625 6.109375 33.40625 6.109375 
Q 40.53125 6.109375 44.609375 11.75 
Q 48.6875 17.390625 48.6875 27.296875 
z
" id="DejaVuSans-112"/>
      <path d="M 18.3125 70.21875 
L 18.3125 54.6875 
L 36.8125 54.6875 
L 36.8125 47.703125 
L 18.3125 47.703125 
L 18.3125 18.015625 
Q 18.3125 11.328125 20.140625 9.421875 
Q 21.96875 7.515625 27.59375 7.515625 
L 36.8125 7.515625 
L 36.8125 0 
L 27.59375 0 
Q 17.1875 0 13.234375 3.875 
Q 9.28125 7.765625 9.28125 18.015625 
L 9.28125 47.703125 
L 2.6875 47.703125 
L 2.6875 54.6875 
L 9.28125 54.6875 
L 9.28125 70.21875 
z
" id="DejaVuSans-116"/>
      <path d="M 9.421875 75.984375 
L 18.40625 75.984375 
L 18.40625 0 
L 9.421875 0 
z
" id="DejaVuSans-108"/>
     </defs>
     <g transform="translate(160.644375 301.588562)scale(0.1 -0.1)">
      <use xlink:href="#DejaVuSans-101"/>
      <use x="61.523438" xlink:href="#DejaVuSans-114"/>
      <use x="102.621094" xlink:href="#DejaVuSans-114"/>
      <use x="143.703125" xlink:href="#DejaVuSans-111"/>
      <use x="204.884766" xlink:href="#DejaVuSans-114"/>
      <use x="245.998047" xlink:href="#DejaVuSans-47"/>
      <use x="279.689453" xlink:href="#DejaVuSans-99"/>
      <use x="334.669922" xlink:href="#DejaVuSans-111"/>
      <use x="395.851562" xlink:href="#DejaVuSans-110"/>
      <use x="459.230469" xlink:href="#DejaVuSans-102"/>
      <use x="494.435547" xlink:href="#DejaVuSans-105"/>
      <use x="522.21875" xlink:href="#DejaVuSans-100"/>
      <use x="585.695312" xlink:href="#DejaVuSans-101"/>
      <use x="647.21875" xlink:href="#DejaVuSans-110"/>
      <use x="710.597656" xlink:href="#DejaVuSans-99"/>
      <use x="765.578125" xlink:href="#DejaVuSans-101"/>
      <use x="827.101562" xlink:href="#DejaVuSans-32"/>
      <use x="858.888672" xlink:href="#DejaVuSans-112"/>
      <use x="922.365234" xlink:href="#DejaVuSans-101"/>
      <use x="983.888672" xlink:href="#DejaVuSans-114"/>
      <use x="1024.970703" xlink:href="#DejaVuSans-99"/>
      <use x="1079.951172" xlink:href="#DejaVuSans-101"/>
      <use x="1141.474609" xlink:href="#DejaVuSans-110"/>
      <use x="1204.853516" xlink:href="#DejaVuSans-116"/>
      <use x="1244.0625" xlink:href="#DejaVuSans-105"/>
      <use x="1271.845703" xlink:href="#DejaVuSans-108"/>
      <use x="1299.628906" xlink:href="#DejaVuSans-101"/>
     </g>
    </g>
   </g>
   <g id="matplotlib.axis_2">
    <g id="ytick_1">
     <g id="line2d_7">
      <defs>
       <path d="M 0 0 
L -3.5 0 
" id="m393cd0a9f9" style="stroke:#000000;stroke-width:0.8;"/>
      </defs>
      <g>
       <use style="stroke:#000000;stroke-width:0.8;" x="50.14375" xlink:href="#m393cd0a9f9" y="273.312"/>
      </g>
     </g>
     <g id="text_8">
      <!-- 0.00 -->
      <defs>
       <path d="M 10.6875 12.40625 
L 21 12.40625 
L 21 0 
L 10.6875 0 
z
" id="DejaVuSans-46"/>
      </defs>
      <g transform="translate(20.878125 277.111219)scale(0.1 -0.1)">
       <use xlink:href="#DejaVuSans-48"/>
       <use x="63.623047" xlink:href="#DejaVuSans-46"/>
       <use x="95.410156" xlink:href="#DejaVuSans-48"/>
       <use x="159.033203" xlink:href="#DejaVuSans-48"/>
      </g>
     </g>
    </g>
    <g id="ytick_2">
     <g id="line2d_8">
      <g>
       <use style="stroke:#000000;stroke-width:0.8;" x="50.14375" xlink:href="#m393cd0a9f9" y="224.058318"/>
      </g>
     </g>
     <g id="text_9">
      <!-- 0.05 -->
      <defs>
       <path d="M 10.796875 72.90625 
L 49.515625 72.90625 
L 49.515625 64.59375 
L 19.828125 64.59375 
L 19.828125 46.734375 
Q 21.96875 47.46875 24.109375 47.828125 
Q 26.265625 48.1875 28.421875 48.1875 
Q 40.625 48.1875 47.75 41.5 
Q 54.890625 34.8125 54.890625 23.390625 
Q 54.890625 11.625 47.5625 5.09375 
Q 40.234375 -1.421875 26.90625 -1.421875 
Q 22.3125 -1.421875 17.546875 -0.640625 
Q 12.796875 0.140625 7.71875 1.703125 
L 7.71875 11.625 
Q 12.109375 9.234375 16.796875 8.0625 
Q 21.484375 6.890625 26.703125 6.890625 
Q 35.15625 6.890625 40.078125 11.328125 
Q 45.015625 15.765625 45.015625 23.390625 
Q 45.015625 31 40.078125 35.4375 
Q 35.15625 39.890625 26.703125 39.890625 
Q 22.75 39.890625 18.8125 39.015625 
Q 14.890625 38.140625 10.796875 36.28125 
z
" id="DejaVuSans-53"/>
      </defs>
      <g transform="translate(20.878125 227.857537)scale(0.1 -0.1)">
       <use xlink:href="#DejaVuSans-48"/>
       <use x="63.623047" xlink:href="#DejaVuSans-46"/>
       <use x="95.410156" xlink:href="#DejaVuSans-48"/>
       <use x="159.033203" xlink:href="#DejaVuSans-53"/>
      </g>
     </g>
    </g>
    <g id="ytick_3">
     <g id="line2d_9">
      <g>
       <use style="stroke:#000000;stroke-width:0.8;" x="50.14375" xlink:href="#m393cd0a9f9" y="174.804637"/>
      </g>
     </g>
     <g id="text_10">
      <!-- 0.10 -->
      <g transform="translate(20.878125 178.603855)scale(0.1 -0.1)">
       <use xlink:href="#DejaVuSans-48"/>
       <use x="63.623047" xlink:href="#DejaVuSans-46"/>
       <use x="95.410156" xlink:href="#DejaVuSans-49"/>
       <use x="159.033203" xlink:href="#DejaVuSans-48"/>
      </g>
     </g>
    </g>
    <g id="ytick_4">
     <g id="line2d_10">
      <g>
       <use style="stroke:#000000;stroke-width:0.8;" x="50.14375" xlink:href="#m393cd0a9f9" y="125.550955"/>
      </g>
     </g>
     <g id="text_11">
      <!-- 0.15 -->
      <g transform="translate(20.878125 129.350174)scale(0.1 -0.1)">
       <use xlink:href="#DejaVuSans-48"/>
       <use x="63.623047" xlink:href="#DejaVuSans-46"/>
       <use x="95.410156" xlink:href="#DejaVuSans-49"/>
       <use x="159.033203" xlink:href="#DejaVuSans-53"/>
      </g>
     </g>
    </g>
    <g id="ytick_5">
     <g id="line2d_11">
      <g>
       <use style="stroke:#000000;stroke-width:0.8;" x="50.14375" xlink:href="#m393cd0a9f9" y="76.297273"/>
      </g>
     </g>
     <g id="text_12">
      <!-- 0.20 -->
      <g transform="translate(20.878125 80.096492)scale(0.1 -0.1)">
       <use xlink:href="#DejaVuSans-48"/>
       <use x="63.623047" xlink:href="#DejaVuSans-46"/>
       <use x="95.410156" xlink:href="#DejaVuSans-50"/>
       <use x="159.033203" xlink:href="#DejaVuSans-48"/>
      </g>
     </g>
    </g>
    <g id="ytick_6">
     <g id="line2d_12">
      <g>
       <use style="stroke:#000000;stroke-width:0.8;" x="50.14375" xlink:href="#m393cd0a9f9" y="27.043591"/>
      </g>
     </g>
     <g id="text_13">
      <!-- 0.25 -->
      <g transform="translate(20.878125 30.84281)scale(0.1 -0.1)">
       <use xlink:href="#DejaVuSans-48"/>
       <use x="63.623047" xlink:href="#DejaVuSans-46"/>
       <use x="95.410156" xlink:href="#DejaVuSans-50"/>
       <use x="159.033203" xlink:href="#DejaVuSans-53"/>
      </g>
     </g>
    </g>
    <g id="text_14">
     <!-- $\epsilon_\mathrm{MAE}$ -->
     <defs>
      <path d="M 19.734375 29.5 
Q 14.453125 30.671875 12.15625 33.84375 
Q 10.453125 36.078125 10.453125 39.109375 
Q 10.453125 47.40625 18.359375 52.25 
Q 24.609375 56.0625 34.1875 56.0625 
Q 37.890625 56.0625 41.9375 55.46875 
Q 46 54.890625 50.53125 53.71875 
L 48.96875 45.5625 
Q 44.484375 46.96875 40.71875 47.609375 
Q 36.859375 48.25 33.40625 48.25 
Q 27.59375 48.25 23.78125 46 
Q 19.1875 43.3125 19.1875 39.40625 
Q 19.1875 36.8125 21.578125 35.015625 
Q 24.421875 32.859375 30.078125 32.859375 
L 37.640625 32.859375 
L 36.234375 25.4375 
L 29 25.4375 
Q 22.265625 25.4375 18.3125 22.953125 
Q 12.9375 19.578125 12.9375 14.3125 
Q 12.9375 10.984375 15.828125 8.796875 
Q 19.4375 6.0625 26.8125 6.0625 
Q 31.34375 6.0625 35.6875 6.9375 
Q 40.046875 7.859375 43.84375 9.671875 
L 42.1875 1.3125 
Q 37.546875 -0.046875 33.296875 -0.734375 
Q 29.046875 -1.421875 25.140625 -1.421875 
Q 13.53125 -1.421875 8.0625 3.03125 
Q 3.90625 6.453125 3.90625 12.203125 
Q 3.90625 19.96875 9.375 24.75 
Q 13.421875 28.328125 19.734375 29.5 
z
" id="DejaVuSans-Oblique-949"/>
      <path d="M 9.8125 72.90625 
L 24.515625 72.90625 
L 43.109375 23.296875 
L 61.8125 72.90625 
L 76.515625 72.90625 
L 76.515625 0 
L 66.890625 0 
L 66.890625 64.015625 
L 48.09375 14.015625 
L 38.1875 14.015625 
L 19.390625 64.015625 
L 19.390625 0 
L 9.8125 0 
z
" id="DejaVuSans-77"/>
      <path d="M 34.1875 63.1875 
L 20.796875 26.90625 
L 47.609375 26.90625 
z
M 28.609375 72.90625 
L 39.796875 72.90625 
L 67.578125 0 
L 57.328125 0 
L 50.6875 18.703125 
L 17.828125 18.703125 
L 11.1875 0 
L 0.78125 0 
z
" id="DejaVuSans-65"/>
      <path d="M 9.8125 72.90625 
L 55.90625 72.90625 
L 55.90625 64.59375 
L 19.671875 64.59375 
L 19.671875 43.015625 
L 54.390625 43.015625 
L 54.390625 34.71875 
L 19.671875 34.71875 
L 19.671875 8.296875 
L 56.78125 8.296875 
L 56.78125 0 
L 9.8125 0 
z
" id="DejaVuSans-69"/>
     </defs>
     <g transform="translate(14.798438 150.756)rotate(-90)scale(0.1 -0.1)">
      <use transform="translate(0 0.9375)" xlink:href="#DejaVuSans-Oblique-949"/>
      <use transform="translate(54.052734 -15.46875)scale(0.7)" xlink:href="#DejaVuSans-77"/>
      <use transform="translate(114.448242 -15.46875)scale(0.7)" xlink:href="#DejaVuSans-65"/>
      <use transform="translate(162.333984 -15.46875)scale(0.7)" xlink:href="#DejaVuSans-69"/>
     </g>
    </g>
   </g>
   <g id="line2d_13">
    <path clip-path="url(#p095087e965)" d="M 391.031023 231.237628 
L 387.751684 217.019924 
L 384.472345 215.051126 
L 381.193006 213.783241 
L 377.913667 213.237286 
L 374.634329 212.836913 
L 371.35499 212.224994 
L 368.075651 211.731578 
L 364.796312 211.187626 
L 361.516973 210.411895 
L 358.237634 209.862196 
L 354.958295 208.251651 
L 351.678957 206.33588 
L 348.399618 205.648246 
L 345.120279 204.890689 
L 341.84094 204.172729 
L 338.561601 202.484741 
L 335.282262 198.473328 
L 332.002924 197.090437 
L 328.723585 195.220917 
L 325.444246 193.000708 
L 322.164907 188.507911 
L 318.885568 179.919806 
L 315.606229 178.772543 
L 312.32689 177.619968 
L 309.047552 175.480126 
L 305.768213 174.720414 
L 302.488874 174.242289 
L 299.209535 173.493574 
L 295.930196 173.190336 
L 292.650857 172.549991 
L 289.371519 172.249059 
L 286.09218 171.21865 
L 282.812841 167.927116 
L 279.533502 167.009734 
L 276.254163 166.186914 
L 272.974824 162.127873 
L 269.695486 161.515212 
L 266.416147 160.969475 
L 263.136808 160.27034 
L 259.857469 155.750819 
L 256.57813 153.337134 
L 253.298791 152.769191 
L 250.019452 150.124508 
L 246.740114 149.696208 
L 243.460775 149.254219 
L 240.181436 148.585394 
L 236.902097 147.07332 
L 233.622758 144.393175 
L 230.343419 142.97873 
L 227.064081 142.296347 
L 223.784742 140.763957 
L 220.505403 139.369438 
L 217.226064 138.710584 
L 213.946725 134.196784 
L 210.667386 133.413631 
L 207.388048 132.889599 
L 204.108709 132.376844 
L 200.82937 132.018211 
L 197.550031 131.717017 
L 194.270692 128.952627 
L 190.991353 126.293861 
L 187.712014 124.211091 
L 184.432676 122.390042 
L 181.153337 121.773543 
L 177.873998 119.455787 
L 174.594659 118.484541 
L 171.31532 115.664129 
L 168.035981 114.565873 
L 164.756643 111.114643 
L 161.477304 109.314047 
L 158.197965 108.84452 
L 154.918626 107.629344 
L 151.639287 106.453905 
L 148.359948 105.836228 
L 145.08061 102.586043 
L 141.801271 99.454561 
L 138.521932 97.416835 
L 135.242593 94.651815 
L 131.963254 91.566138 
L 128.683915 90.216825 
L 125.404576 88.597255 
L 122.125238 86.388537 
L 118.845899 85.200101 
L 115.56656 85.038334 
L 112.287221 79.9788 
L 109.007882 79.706253 
L 105.728543 78.274754 
L 102.449205 75.312354 
L 99.169866 72.075786 
L 95.890527 69.225637 
L 92.611188 63.865628 
L 89.331849 60.177002 
L 86.05251 55.737593 
L 82.773171 51.179683 
L 79.493833 46.060071 
L 76.214494 42.056715 
L 72.935155 39.68819 
L 69.655816 39.43617 
L 66.376477 33.241961 
" style="fill:none;stroke:#1f77b4;stroke-linecap:square;stroke-width:1.5;"/>
   </g>
   <g id="line2d_14">
    <path clip-path="url(#p095087e965)" d="M 391.031023 271.917311 
L 387.751684 271.068471 
L 384.472345 270.319023 
L 381.193006 269.330122 
L 377.913667 268.495439 
L 374.634329 267.602105 
L 371.35499 266.633837 
L 368.075651 265.691811 
L 364.796312 264.747896 
L 361.516973 263.821279 
L 358.237634 262.935983 
L 354.958295 261.969785 
L 351.678957 261.008181 
L 348.399618 260.083163 
L 345.120279 259.155334 
L 341.84094 258.22018 
L 338.561601 257.311776 
L 335.282262 256.349827 
L 332.002924 255.29403 
L 328.723585 254.202508 
L 325.444246 253.139557 
L 322.164907 252.090216 
L 318.885568 251.037902 
L 315.606229 249.982927 
L 312.32689 248.958379 
L 309.047552 247.937633 
L 305.768213 246.90892 
L 302.488874 245.848795 
L 299.209535 244.788279 
L 295.930196 243.756481 
L 292.650857 242.74218 
L 289.371519 241.745804 
L 286.09218 240.755187 
L 282.812841 239.762086 
L 279.533502 238.785724 
L 276.254163 237.793066 
L 272.974824 236.804389 
L 269.695486 235.79761 
L 266.416147 234.755025 
L 263.136808 233.719949 
L 259.857469 232.674927 
L 256.57813 231.601305 
L 253.298791 230.506843 
L 250.019452 229.408636 
L 246.740114 228.301335 
L 243.460775 227.199803 
L 240.181436 226.072522 
L 236.902097 224.889227 
L 233.622758 223.625448 
L 230.343419 222.348955 
L 227.064081 221.046803 
L 223.784742 219.702534 
L 220.505403 218.283295 
L 217.226064 216.783842 
L 213.946725 215.271661 
L 210.667386 213.711349 
L 207.388048 212.076967 
L 204.108709 210.426097 
L 200.82937 208.754476 
L 197.550031 207.08656 
L 194.270692 205.404733 
L 190.991353 203.686537 
L 187.712014 201.948085 
L 184.432676 200.111165 
L 181.153337 198.11958 
L 177.873998 196.079052 
L 174.594659 194.035813 
L 171.31532 191.987276 
L 168.035981 189.827955 
L 164.756643 187.490214 
L 161.477304 185.108352 
L 158.197965 182.709616 
L 154.918626 180.24259 
L 151.639287 177.611469 
L 148.359948 174.946681 
L 145.08061 172.194053 
L 141.801271 169.222567 
L 138.521932 166.167057 
L 135.242593 163.010153 
L 131.963254 159.627389 
L 128.683915 156.146475 
L 125.404576 152.652356 
L 122.125238 149.156676 
L 118.845899 145.612586 
L 115.56656 141.882415 
L 112.287221 137.932506 
L 109.007882 133.750835 
L 105.728543 129.427776 
L 102.449205 124.889232 
L 99.169866 120.094691 
L 95.890527 114.855853 
L 92.611188 109.130629 
L 89.331849 103.146044 
L 86.05251 96.696426 
L 82.773171 89.884861 
L 79.493833 82.622163 
L 76.214494 74.603682 
L 72.935155 65.771153 
L 69.655816 54.8229 
L 66.376477 33.241961 
" style="fill:none;stroke:#ff7f0e;stroke-linecap:square;stroke-width:1.5;"/>
   </g>
   <g id="line2d_15">
    <path clip-path="url(#p095087e965)" d="M 66.376477 33.288326 
L 69.655816 33.235917 
L 72.935155 33.200614 
L 76.214494 33.163683 
L 79.493833 33.111653 
L 82.773171 33.089519 
L 86.05251 33.072008 
L 89.331849 33.059286 
L 92.611188 33.031559 
L 95.890527 33.008214 
L 99.169866 32.997803 
L 102.449205 32.991242 
L 105.728543 32.97453 
L 109.007882 32.961196 
L 112.287221 32.955526 
L 115.56656 32.949089 
L 118.845899 32.940969 
L 122.125238 32.928058 
L 125.404576 32.92148 
L 128.683915 32.915649 
L 131.963254 32.905486 
L 135.242593 32.897148 
L 138.521932 32.880025 
L 141.801271 32.865046 
L 145.08061 32.83786 
L 148.359948 32.81683 
L 151.639287 32.799049 
L 154.918626 32.719972 
L 158.197965 32.684555 
L 161.477304 32.663764 
L 164.756643 32.622423 
L 168.035981 32.60828 
L 171.31532 32.584409 
L 174.594659 32.56896 
L 177.873998 32.548045 
L 181.153337 32.526271 
L 184.432676 32.506087 
L 187.712014 32.478924 
L 190.991353 32.457063 
L 194.270692 32.430425 
L 197.550031 32.410715 
L 200.82937 32.400504 
L 204.108709 32.378648 
L 207.388048 32.358826 
L 210.667386 32.340302 
L 213.946725 32.333201 
L 217.226064 32.320318 
L 220.505403 32.305728 
L 223.784742 32.294097 
L 227.064081 32.269206 
L 230.343419 32.244767 
L 233.622758 32.232169 
L 236.902097 32.220802 
L 240.181436 32.203935 
L 243.460775 32.188211 
L 246.740114 32.171604 
L 250.019452 32.161696 
L 253.298791 32.150205 
L 256.57813 32.140224 
L 259.857469 32.116427 
L 263.136808 32.100302 
L 266.416147 32.074045 
L 269.695486 32.053893 
L 272.974824 32.024162 
L 276.254163 31.974786 
L 279.533502 31.928703 
L 282.812841 31.866263 
L 286.09218 31.80511 
L 289.371519 31.719742 
L 292.650857 31.104885 
L 295.930196 30.913887 
L 299.209535 30.880465 
L 302.488874 30.792454 
L 305.768213 30.705884 
L 309.047552 30.621696 
L 312.32689 30.525387 
L 315.606229 30.429592 
L 318.885568 30.340596 
L 322.164907 30.194588 
L 325.444246 29.880177 
L 328.723585 29.709464 
L 332.002924 29.579665 
L 335.282262 29.436023 
L 338.561601 29.325821 
L 341.84094 29.23421 
L 345.120279 29.076603 
L 348.399618 28.951396 
L 351.678957 28.890668 
L 354.958295 28.718546 
L 358.237634 28.520181 
L 361.516973 28.438325 
L 364.796312 28.358034 
L 368.075651 28.198218 
L 371.35499 28.016523 
L 374.634329 27.82945 
L 377.913667 27.544093 
L 381.193006 27.25981 
L 384.472345 26.823168 
L 387.751684 23.816361 
L 391.031023 18.098293 
" style="fill:none;stroke:#2ca02c;stroke-linecap:square;stroke-width:1.5;"/>
   </g>
   <g id="patch_3">
    <path d="M 50.14375 273.312 
L 50.14375 7.2 
" style="fill:none;stroke:#000000;stroke-linecap:square;stroke-linejoin:miter;stroke-width:0.8;"/>
   </g>
   <g id="patch_4">
    <path d="M 407.26375 273.312 
L 407.26375 7.2 
" style="fill:none;stroke:#000000;stroke-linecap:square;stroke-linejoin:miter;stroke-width:0.8;"/>
   </g>
   <g id="patch_5">
    <path d="M 50.14375 273.312 
L 407.26375 273.312 
" style="fill:none;stroke:#000000;stroke-linecap:square;stroke-linejoin:miter;stroke-width:0.8;"/>
   </g>
   <g id="patch_6">
    <path d="M 50.14375 7.2 
L 407.26375 7.2 
" style="fill:none;stroke:#000000;stroke-linecap:square;stroke-linejoin:miter;stroke-width:0.8;"/>
   </g>
   <g id="legend_1">
    <g id="patch_7">
     <path d="M 57.14375 268.312 
L 127.928125 268.312 
Q 129.928125 268.312 129.928125 266.312 
L 129.928125 223.277625 
Q 129.928125 221.277625 127.928125 221.277625 
L 57.14375 221.277625 
Q 55.14375 221.277625 55.14375 223.277625 
L 55.14375 266.312 
Q 55.14375 268.312 57.14375 268.312 
z
" style="fill:#ffffff;opacity:0.8;stroke:#cccccc;stroke-linejoin:miter;"/>
    </g>
    <g id="line2d_16">
     <path d="M 59.14375 229.376062 
L 79.14375 229.376062 
" style="fill:none;stroke:#1f77b4;stroke-linecap:square;stroke-width:1.5;"/>
    </g>
    <g id="line2d_17"/>
    <g id="text_15">
     <!-- std -->
     <defs>
      <path d="M 44.28125 53.078125 
L 44.28125 44.578125 
Q 40.484375 46.53125 36.375 47.5 
Q 32.28125 48.484375 27.875 48.484375 
Q 21.1875 48.484375 17.84375 46.4375 
Q 14.5 44.390625 14.5 40.28125 
Q 14.5 37.15625 16.890625 35.375 
Q 19.28125 33.59375 26.515625 31.984375 
L 29.59375 31.296875 
Q 39.15625 29.25 43.1875 25.515625 
Q 47.21875 21.78125 47.21875 15.09375 
Q 47.21875 7.46875 41.1875 3.015625 
Q 35.15625 -1.421875 24.609375 -1.421875 
Q 20.21875 -1.421875 15.453125 -0.5625 
Q 10.6875 0.296875 5.421875 2 
L 5.421875 11.28125 
Q 10.40625 8.6875 15.234375 7.390625 
Q 20.0625 6.109375 24.8125 6.109375 
Q 31.15625 6.109375 34.5625 8.28125 
Q 37.984375 10.453125 37.984375 14.40625 
Q 37.984375 18.0625 35.515625 20.015625 
Q 33.0625 21.96875 24.703125 23.78125 
L 21.578125 24.515625 
Q 13.234375 26.265625 9.515625 29.90625 
Q 5.8125 33.546875 5.8125 39.890625 
Q 5.8125 47.609375 11.28125 51.796875 
Q 16.75 56 26.8125 56 
Q 31.78125 56 36.171875 55.265625 
Q 40.578125 54.546875 44.28125 53.078125 
z
" id="DejaVuSans-115"/>
     </defs>
     <g transform="translate(87.14375 232.876062)scale(0.1 -0.1)">
      <use xlink:href="#DejaVuSans-115"/>
      <use x="52.099609" xlink:href="#DejaVuSans-116"/>
      <use x="91.308594" xlink:href="#DejaVuSans-100"/>
     </g>
    </g>
    <g id="line2d_18">
     <path d="M 59.14375 244.054187 
L 79.14375 244.054187 
" style="fill:none;stroke:#ff7f0e;stroke-linecap:square;stroke-width:1.5;"/>
    </g>
    <g id="line2d_19"/>
    <g id="text_16">
     <!-- error -->
     <g transform="translate(87.14375 247.554187)scale(0.1 -0.1)">
      <use xlink:href="#DejaVuSans-101"/>
      <use x="61.523438" xlink:href="#DejaVuSans-114"/>
      <use x="102.621094" xlink:href="#DejaVuSans-114"/>
      <use x="143.703125" xlink:href="#DejaVuSans-111"/>
      <use x="204.884766" xlink:href="#DejaVuSans-114"/>
     </g>
    </g>
    <g id="patch_8">
     <path d="M 59.14375 262.232312 
L 79.14375 262.232312 
L 79.14375 255.232312 
L 59.14375 255.232312 
z
" style="fill:#1f77b4;opacity:0.2;"/>
    </g>
    <g id="text_17">
     <!-- random -->
     <defs>
      <path d="M 34.28125 27.484375 
Q 23.390625 27.484375 19.1875 25 
Q 14.984375 22.515625 14.984375 16.5 
Q 14.984375 11.71875 18.140625 8.90625 
Q 21.296875 6.109375 26.703125 6.109375 
Q 34.1875 6.109375 38.703125 11.40625 
Q 43.21875 16.703125 43.21875 25.484375 
L 43.21875 27.484375 
z
M 52.203125 31.203125 
L 52.203125 0 
L 43.21875 0 
L 43.21875 8.296875 
Q 40.140625 3.328125 35.546875 0.953125 
Q 30.953125 -1.421875 24.3125 -1.421875 
Q 15.921875 -1.421875 10.953125 3.296875 
Q 6 8.015625 6 15.921875 
Q 6 25.140625 12.171875 29.828125 
Q 18.359375 34.515625 30.609375 34.515625 
L 43.21875 34.515625 
L 43.21875 35.40625 
Q 43.21875 41.609375 39.140625 45 
Q 35.0625 48.390625 27.6875 48.390625 
Q 23 48.390625 18.546875 47.265625 
Q 14.109375 46.140625 10.015625 43.890625 
L 10.015625 52.203125 
Q 14.9375 54.109375 19.578125 55.046875 
Q 24.21875 56 28.609375 56 
Q 40.484375 56 46.34375 49.84375 
Q 52.203125 43.703125 52.203125 31.203125 
z
" id="DejaVuSans-97"/>
      <path d="M 52 44.1875 
Q 55.375 50.25 60.0625 53.125 
Q 64.75 56 71.09375 56 
Q 79.640625 56 84.28125 50.015625 
Q 88.921875 44.046875 88.921875 33.015625 
L 88.921875 0 
L 79.890625 0 
L 79.890625 32.71875 
Q 79.890625 40.578125 77.09375 44.375 
Q 74.3125 48.1875 68.609375 48.1875 
Q 61.625 48.1875 57.5625 43.546875 
Q 53.515625 38.921875 53.515625 30.90625 
L 53.515625 0 
L 44.484375 0 
L 44.484375 32.71875 
Q 44.484375 40.625 41.703125 44.40625 
Q 38.921875 48.1875 33.109375 48.1875 
Q 26.21875 48.1875 22.15625 43.53125 
Q 18.109375 38.875 18.109375 30.90625 
L 18.109375 0 
L 9.078125 0 
L 9.078125 54.6875 
L 18.109375 54.6875 
L 18.109375 46.1875 
Q 21.1875 51.21875 25.484375 53.609375 
Q 29.78125 56 35.6875 56 
Q 41.65625 56 45.828125 52.96875 
Q 50 49.953125 52 44.1875 
z
" id="DejaVuSans-109"/>
     </defs>
     <g transform="translate(87.14375 262.232312)scale(0.1 -0.1)">
      <use xlink:href="#DejaVuSans-114"/>
      <use x="41.113281" xlink:href="#DejaVuSans-97"/>
      <use x="102.392578" xlink:href="#DejaVuSans-110"/>
      <use x="165.771484" xlink:href="#DejaVuSans-100"/>
      <use x="229.248047" xlink:href="#DejaVuSans-111"/>
      <use x="290.429688" xlink:href="#DejaVuSans-109"/>
     </g>
    </g>
   </g>
  </g>
 </g>
 <defs>
  <clipPath id="p095087e965">
   <rect height="266.112" width="357.12" x="50.14375" y="7.2"/>
  </clipPath>
 </defs>
</svg>
