<svg xmlns="http://www.w3.org/2000/svg" xmlns:xlink="http://www.w3.org/1999/xlink" width="718.917" height="597.51" viewBox="0 0 539.188 448.132"><defs><style>*{stroke-linecap:butt;stroke-linejoin:round}</style></defs><g id="figure_1"><path id="patch_1" fill="none" d="M0 448.132h539.188V0H0z"/><g id="axes_1"><path id="patch_2" fill="#fff" d="M85.588 387.72h446.4V7.2h-446.4z"/><path id="PolyCollection_1" fill="#1f77b4" fill-opacity=".2" d="M105.878 43.775V39.81l4.1-.388 4.099-.604 4.099-.59 4.1-.624 4.098-.334 4.1-.527 4.099-.063 4.099-.232 4.099-.502 4.1-.3 4.098-.291 4.1-.285 4.099-.238 4.099-.135 4.099-.401 4.1-.155 4.098-.248 4.1-.665 4.099-.696 4.099-.301 4.1-.181 4.098-.794 4.1-.224 4.099-.129 4.099-.196 4.099-.708 4.1-.484 4.098-.31 4.1-.524 4.099-.528 4.099-.266 4.099-.308 4.1-.315 4.098-.223 4.1-.234 4.099-.548 4.099-.166 4.099-.084 4.1-.11 4.098-.306 4.1-.503 4.099-.179 4.099-.15 4.099-.219 4.1-.167 4.098-.49 4.1-.069 4.099-.048 4.099-.043 4.1-.1 4.098-.05 4.1-.075 4.099-.116 4.099-.051 4.099-.063 4.1-.062 4.098-.074 4.1-.238 4.099-.226 4.099-.25 4.099-.376 4.1-.446 4.098-.428 4.1-.5 4.099-.322 4.099-.214 4.099-.223 4.1-1.452 4.098-.297 4.1-.172 4.099-.49 4.099-1.124 4.1-.31 4.098-.439 4.1-.225 4.099-.355 4.099-.229 4.099-.715 4.1-1.15 4.098-1.339 4.1-1.675 4.099-1.31 4.099-.785 4.099-.64 4.1-1.711 4.098-2.753 4.1-2.766 4.099-3.895 4.099-1.587 4.099-1.418 4.1-3.575 4.098-3.24 4.1-2.597 4.099-4.05 4.099-7.926 4.1-8.434 4.098-30.21 4.1-54.2 4.099-354.995v1035.89l-4.1-354.995-4.099-54.201-4.099-30.21-4.1-8.434-4.098-7.926-4.1-4.05-4.099-2.596-4.099-3.241-4.099-3.574-4.1-1.418-4.098-1.588-4.1-3.894-4.099-2.767-4.099-2.753-4.099-1.711-4.1-.64-4.098-.784-4.1-1.311-4.099-1.675-4.099-1.34-4.1-1.148-4.098-.716-4.1-.229-4.099-.355-4.099-.225-4.099-.438-4.1-.31-4.098-1.124-4.1-.49-4.099-.173-4.099-.296-4.099-1.453-4.1-.222-4.098-.215-4.1-.32-4.099-.502-4.099-.428-4.099-.446-4.1-.376-4.098-.25-4.1-.225-4.099-.239-4.099-.074-4.099-.062-4.1-.062-4.098-.051-4.1-.116-4.099-.075-4.099-.051-4.1-.1-4.098-.042-4.1-.049-4.099-.068-4.099-.49-4.099-.168-4.1-.218-4.098-.151-4.1-.178-4.099-.504-4.099-.306-4.099-.11-4.1-.083-4.098-.167-4.1-.547-4.099-.234-4.099-.223-4.099-.315-4.1-.309-4.098-.266-4.1-.528-4.099-.524-4.099-.31-4.1-.484-4.098-.708-4.1-.196-4.099-.129-4.099-.223-4.099-.794-4.1-.181-4.098-.302-4.1-.695-4.099-.666-4.099-.247-4.099-.156-4.1-.401-4.098-.135-4.1-.238-4.099-.284-4.099-.29-4.099-.301-4.1-.502-4.098-.233-4.1-.062-4.099-.527-4.099-.335-4.1-.623-4.098-.59-4.1-.605-4.099-.387z" clip-path="url(#p16f2242e3d)"/><g id="matplotlib.axis_1"><g id="xtick_1"><g id="line2d_1"><defs><path id="mb8ee9efc51" stroke="#000" stroke-width="2.5" d="M0 0v7"/></defs><use xlink:href="#mb8ee9efc51" x="101.779" y="387.72" stroke="#000" stroke-width="2.5"/></g><g id="text_1" transform="matrix(.2 0 0 -.2 95.417 413.417)"><defs><path id="DejaVuSans-48" d="M31.781 66.406q-7.61 0-11.453-7.5Q16.5 51.422 16.5 36.375q0-14.984 3.828-22.484 3.844-7.5 11.453-7.5 7.672 0 11.5 7.5 3.844 7.5 3.844 22.484 0 15.047-3.844 22.531-3.828 7.5-11.5 7.5zm0 7.813q12.266 0 18.735-9.703 6.468-9.688 6.468-28.141 0-18.406-6.468-28.11-6.47-9.687-18.735-9.687-12.25 0-18.718 9.688-6.47 9.703-6.47 28.109 0 18.453 6.47 28.14Q19.53 74.22 31.78 74.22z"/></defs><use xlink:href="#DejaVuSans-48"/></g></g><g id="xtick_2"><use xlink:href="#mb8ee9efc51" id="line2d_2" x="183.763" y="387.72" stroke="#000" stroke-width="2.5"/><g id="text_2" transform="matrix(.2 0 0 -.2 171.038 413.417)"><defs><path id="DejaVuSans-50" d="M19.188 8.297h34.421V0H7.33v8.297q5.609 5.812 15.296 15.594 9.703 9.797 12.188 12.64 4.734 5.313 6.609 9 1.89 3.688 1.89 7.25 0 5.813-4.078 9.469-4.078 3.672-10.625 3.672-4.64 0-9.797-1.61-5.14-1.609-11-4.89v9.969Q13.767 71.78 18.938 73q5.188 1.219 9.485 1.219 11.328 0 18.062-5.672 6.735-5.656 6.735-15.125 0-4.5-1.688-8.531-1.672-4.016-6.125-9.485-1.218-1.422-7.765-8.187-6.532-6.766-18.453-18.922z"/></defs><use xlink:href="#DejaVuSans-50"/><use xlink:href="#DejaVuSans-48" x="63.623"/></g></g><g id="xtick_3"><use xlink:href="#mb8ee9efc51" id="line2d_3" x="265.746" y="387.72" stroke="#000" stroke-width="2.5"/><g id="text_3" transform="matrix(.2 0 0 -.2 253.021 413.417)"><defs><path id="DejaVuSans-52" d="M37.797 64.313 12.89 25.39h24.906zm-2.594 8.593H47.61V25.391h10.407v-8.203H47.609V0h-9.812v17.188H4.89v9.515z"/></defs><use xlink:href="#DejaVuSans-52"/><use xlink:href="#DejaVuSans-48" x="63.623"/></g></g><g id="xtick_4"><use xlink:href="#mb8ee9efc51" id="line2d_4" x="347.73" y="387.72" stroke="#000" stroke-width="2.5"/><g id="text_4" transform="matrix(.2 0 0 -.2 335.005 413.417)"><defs><path id="DejaVuSans-54" d="M33.016 40.375q-6.641 0-10.532-4.547-3.875-4.531-3.875-12.437 0-7.86 3.875-12.438 3.891-4.562 10.532-4.562 6.64 0 10.515 4.562 3.875 4.578 3.875 12.438 0 7.906-3.875 12.437-3.875 4.547-10.515 4.547zm19.578 30.922v-8.984q-3.719 1.75-7.5 2.671-3.782.938-7.5.938-9.766 0-14.922-6.594-5.14-6.594-5.875-19.922 2.875 4.25 7.219 6.516 4.359 2.266 9.578 2.266 10.984 0 17.36-6.672 6.374-6.657 6.374-18.125 0-11.235-6.64-18.032-6.641-6.78-17.672-6.78-12.657 0-19.344 9.687-6.688 9.703-6.688 28.109 0 17.281 8.204 27.563 8.203 10.28 22.015 10.28 3.719 0 7.5-.734t7.89-2.187z"/></defs><use xlink:href="#DejaVuSans-54"/><use xlink:href="#DejaVuSans-48" x="63.623"/></g></g><g id="xtick_5"><use xlink:href="#mb8ee9efc51" id="line2d_5" x="429.713" y="387.72" stroke="#000" stroke-width="2.5"/><g id="text_5" transform="matrix(.2 0 0 -.2 416.988 413.417)"><defs><path id="DejaVuSans-56" d="M31.781 34.625q-7.031 0-11.062-3.766-4.016-3.765-4.016-10.343 0-6.594 4.016-10.36Q24.75 6.391 31.78 6.391q7.032 0 11.078 3.78 4.063 3.798 4.063 10.345 0 6.578-4.031 10.343-4.016 3.766-11.11 3.766zm-9.86 4.188q-6.343 1.562-9.89 5.906Q8.5 49.079 8.5 55.329q0 8.733 6.219 13.812 6.234 5.078 17.062 5.078 10.89 0 17.094-5.078 6.203-5.079 6.203-13.813 0-6.25-3.547-10.61-3.531-4.343-9.828-5.906 7.125-1.656 11.094-6.5 3.984-4.828 3.984-11.796 0-10.61-6.468-16.282-6.47-5.656-18.532-5.656-12.047 0-18.531 5.656-6.469 5.672-6.469 16.282 0 6.968 4 11.797 4.016 4.843 11.14 6.5zM18.314 54.39q0-5.657 3.53-8.828 3.548-3.172 9.938-3.172 6.36 0 9.938 3.172 3.593 3.171 3.593 8.828 0 5.672-3.593 8.843-3.578 3.172-9.938 3.172-6.39 0-9.937-3.172-3.532-3.172-3.532-8.843z"/></defs><use xlink:href="#DejaVuSans-56"/><use xlink:href="#DejaVuSans-48" x="63.623"/></g></g><g id="xtick_6"><use xlink:href="#mb8ee9efc51" id="line2d_6" x="511.697" y="387.72" stroke="#000" stroke-width="2.5"/><g id="text_6" transform="matrix(.2 0 0 -.2 492.61 413.417)"><defs><path id="DejaVuSans-49" d="M12.406 8.297h16.11v55.625l-17.532-3.516v8.985l17.438 3.515h9.86V8.296H54.39V0H12.406z"/></defs><use xlink:href="#DejaVuSans-49"/><use xlink:href="#DejaVuSans-48" x="63.623"/><use xlink:href="#DejaVuSans-48" x="127.246"/></g></g><g id="text_7" transform="matrix(.2 0 0 -.2 173.286 436.773)"><defs><path id="DejaVuSans-101" d="M56.203 29.594v-4.39H14.891q.593-9.282 5.593-14.142 5-4.859 13.938-4.859 5.172 0 10.031 1.266 4.86 1.265 9.656 3.812v-8.5Q49.266.734 44.187-.344 39.11-1.422 33.892-1.422q-13.094 0-20.735 7.61-7.64 7.625-7.64 20.625 0 13.421 7.25 21.296Q20.016 56 32.328 56q11.031 0 17.453-7.11 6.422-7.093 6.422-19.296zm-8.984 2.64q-.094 7.36-4.125 11.75-4.032 4.407-10.672 4.407-7.516 0-12.031-4.25-4.516-4.25-5.203-11.97z"/><path id="DejaVuSans-114" d="M41.11 46.297q-1.516.875-3.297 1.281Q36.03 48 33.89 48q-7.625 0-11.703-4.953-4.079-4.953-4.079-14.234V0H9.08v54.688h9.03v-8.5q2.844 4.984 7.375 7.39Q30.031 56 36.531 56q.922 0 2.047-.125 1.125-.11 2.484-.36z"/><path id="DejaVuSans-111" d="M30.61 48.39q-7.22 0-11.422-5.64-4.204-5.64-4.204-15.453 0-9.813 4.172-15.453 4.188-5.64 11.453-5.64 7.188 0 11.375 5.655 4.203 5.672 4.203 15.438 0 9.719-4.203 15.406-4.187 5.688-11.375 5.688zm0 7.61q11.718 0 18.406-7.625 6.703-7.61 6.703-21.078 0-13.422-6.703-21.078-6.688-7.64-18.407-7.64-11.765 0-18.437 7.64-6.656 7.656-6.656 21.078 0 13.469 6.656 21.078Q18.844 56 30.609 56z"/><path id="DejaVuSans-47" d="M25.39 72.906h8.297L8.297-9.28H0z"/><path id="DejaVuSans-99" d="M48.781 52.594v-8.407q-3.812 2.11-7.64 3.157-3.828 1.047-7.735 1.047-8.75 0-13.593-5.547-4.829-5.532-4.829-15.547 0-10.016 4.829-15.563 4.843-5.53 13.593-5.53 3.907 0 7.735 1.046 3.828 1.047 7.64 3.156V2.094Q45.016.344 40.984-.531q-4.015-.89-8.562-.89-12.36 0-19.64 7.765-7.266 7.765-7.266 20.953 0 13.375 7.343 21.031Q20.22 56 33.016 56q4.14 0 8.093-.86 3.953-.843 7.672-2.546z"/><path id="DejaVuSans-110" d="M54.89 33.016V0h-8.984v32.719q0 7.765-3.031 11.61-3.031 3.858-9.078 3.858-7.281 0-11.484-4.64-4.204-4.625-4.204-12.64V0H9.08v54.688h9.03v-8.5q3.235 4.937 7.594 7.374Q30.078 56 35.797 56q9.422 0 14.25-5.828 4.844-5.828 4.844-17.156z"/><path id="DejaVuSans-102" d="M37.11 75.984V68.5h-8.594q-4.828 0-6.72-1.953-1.874-1.953-1.874-7.031v-4.828h14.797v-6.985H19.922V0H10.89v47.703H2.297v6.984h8.594V58.5q0 9.125 4.25 13.297 4.25 4.187 13.468 4.187z"/><path id="DejaVuSans-105" d="M9.422 54.688h8.984V0H9.422zm0 21.296h8.984v-11.39H9.422z"/><path id="DejaVuSans-100" d="M45.406 46.39v29.594h8.985V0h-8.985v8.203Q42.578 3.328 38.25.953q-4.313-2.375-10.375-2.375-9.906 0-16.14 7.906-6.22 7.922-6.22 20.813 0 12.89 6.22 20.797Q17.968 56 27.874 56q6.063 0 10.375-2.375 4.328-2.36 7.156-7.234zm-30.61-19.093q0-9.906 4.079-15.547 4.078-5.64 11.203-5.64 7.125 0 11.219 5.64 4.11 5.64 4.11 15.547 0 9.906-4.11 15.547-4.094 5.64-11.219 5.64-7.125 0-11.203-5.64-4.078-5.64-4.078-15.547z"/><path id="DejaVuSans-112" d="M18.11 8.203v-29H9.077v75.484h9.031v-8.296q2.844 4.875 7.157 7.234Q29.594 56 35.594 56q9.968 0 16.187-7.906 6.235-7.907 6.235-20.797T51.78 6.484q-6.218-7.906-16.187-7.906-6 0-10.328 2.375-4.313 2.375-7.157 7.25zm30.578 19.094q0 9.906-4.079 15.547-4.078 5.64-11.203 5.64-7.14 0-11.218-5.64-4.079-5.64-4.079-15.547 0-9.906 4.078-15.547 4.079-5.64 11.22-5.64 7.124 0 11.202 5.64t4.078 15.547z"/><path id="DejaVuSans-116" d="M18.313 70.219V54.688h18.5v-6.985h-18.5V18.016q0-6.688 1.828-8.594 1.828-1.906 7.453-1.906h9.218V0h-9.218q-10.407 0-14.36 3.875-3.953 3.89-3.953 14.14v29.688H2.687v6.984h6.594V70.22z"/><path id="DejaVuSans-108" d="M9.422 75.984h8.984V0H9.422z"/></defs><use xlink:href="#DejaVuSans-101"/><use xlink:href="#DejaVuSans-114" x="61.523"/><use xlink:href="#DejaVuSans-114" x="100.887"/><use xlink:href="#DejaVuSans-111" x="139.75"/><use xlink:href="#DejaVuSans-114" x="200.932"/><use xlink:href="#DejaVuSans-47" x="242.045"/><use xlink:href="#DejaVuSans-99" x="275.736"/><use xlink:href="#DejaVuSans-111" x="330.717"/><use xlink:href="#DejaVuSans-110" x="391.898"/><use xlink:href="#DejaVuSans-102" x="455.277"/><use xlink:href="#DejaVuSans-105" x="490.482"/><use xlink:href="#DejaVuSans-100" x="518.266"/><use xlink:href="#DejaVuSans-101" x="581.742"/><use xlink:href="#DejaVuSans-110" x="643.266"/><use xlink:href="#DejaVuSans-99" x="706.645"/><use xlink:href="#DejaVuSans-101" x="761.625"/><use xlink:href="#DejaVuSans-32" x="823.148"/><use xlink:href="#DejaVuSans-112" x="854.936"/><use xlink:href="#DejaVuSans-101" x="918.412"/><use xlink:href="#DejaVuSans-114" x="979.936"/><use xlink:href="#DejaVuSans-99" x="1018.799"/><use xlink:href="#DejaVuSans-101" x="1073.779"/><use xlink:href="#DejaVuSans-110" x="1135.303"/><use xlink:href="#DejaVuSans-116" x="1198.682"/><use xlink:href="#DejaVuSans-105" x="1237.891"/><use xlink:href="#DejaVuSans-108" x="1265.674"/><use xlink:href="#DejaVuSans-101" x="1293.457"/></g></g><g id="matplotlib.axis_2"><g id="ytick_1"><g id="line2d_7"><defs><path id="m3b08ec29ec" stroke="#000" stroke-width="2.5" d="M0 0h-7"/></defs><use xlink:href="#m3b08ec29ec" x="85.588" y="387.72" stroke="#000" stroke-width="2.5"/></g><g id="text_8" transform="matrix(.2 0 0 -.2 30.556 395.318)"><defs><path id="DejaVuSans-46" d="M10.688 12.406H21V0H10.687z"/></defs><use xlink:href="#DejaVuSans-48"/><use xlink:href="#DejaVuSans-46" x="63.623"/><use xlink:href="#DejaVuSans-48" x="95.41"/><use xlink:href="#DejaVuSans-48" x="159.033"/></g></g><g id="ytick_2"><use xlink:href="#m3b08ec29ec" id="line2d_8" x="85.588" y="316.748" stroke="#000" stroke-width="2.5"/><g id="text_9" transform="matrix(.2 0 0 -.2 30.556 324.347)"><defs><path id="DejaVuSans-53" d="M10.797 72.906h38.719v-8.312H19.828v-17.86q2.14.735 4.281 1.094 2.157.36 4.313.36 12.203 0 19.328-6.688 7.14-6.688 7.14-18.11 0-11.765-7.328-18.296-7.328-6.516-20.656-6.516-4.593 0-9.36.781-4.75.782-9.827 2.344v9.922q4.39-2.39 9.078-3.563 4.687-1.171 9.906-1.171 8.453 0 13.375 4.437 4.938 4.438 4.938 12.063 0 7.609-4.938 12.047-4.922 4.453-13.375 4.453-3.953 0-7.89-.875-3.922-.875-8.016-2.735z"/></defs><use xlink:href="#DejaVuSans-48"/><use xlink:href="#DejaVuSans-46" x="63.623"/><use xlink:href="#DejaVuSans-48" x="95.41"/><use xlink:href="#DejaVuSans-53" x="159.033"/></g></g><g id="ytick_3"><use xlink:href="#m3b08ec29ec" id="line2d_9" x="85.588" y="245.776" stroke="#000" stroke-width="2.5"/><g id="text_10" transform="matrix(.2 0 0 -.2 30.556 253.375)"><use xlink:href="#DejaVuSans-48"/><use xlink:href="#DejaVuSans-46" x="63.623"/><use xlink:href="#DejaVuSans-49" x="95.41"/><use xlink:href="#DejaVuSans-48" x="159.033"/></g></g><g id="ytick_4"><use xlink:href="#m3b08ec29ec" id="line2d_10" x="85.588" y="174.805" stroke="#000" stroke-width="2.5"/><g id="text_11" transform="matrix(.2 0 0 -.2 30.556 182.403)"><use xlink:href="#DejaVuSans-48"/><use xlink:href="#DejaVuSans-46" x="63.623"/><use xlink:href="#DejaVuSans-49" x="95.41"/><use xlink:href="#DejaVuSans-53" x="159.033"/></g></g><g id="ytick_5"><use xlink:href="#m3b08ec29ec" id="line2d_11" x="85.588" y="103.833" stroke="#000" stroke-width="2.5"/><g id="text_12" transform="matrix(.2 0 0 -.2 30.556 111.431)"><use xlink:href="#DejaVuSans-48"/><use xlink:href="#DejaVuSans-46" x="63.623"/><use xlink:href="#DejaVuSans-50" x="95.41"/><use xlink:href="#DejaVuSans-48" x="159.033"/></g></g><g id="ytick_6"><use xlink:href="#m3b08ec29ec" id="line2d_12" x="85.588" y="32.861" stroke="#000" stroke-width="2.5"/><g id="text_13" transform="matrix(.2 0 0 -.2 30.556 40.46)"><use xlink:href="#DejaVuSans-48"/><use xlink:href="#DejaVuSans-46" x="63.623"/><use xlink:href="#DejaVuSans-50" x="95.41"/><use xlink:href="#DejaVuSans-53" x="159.033"/></g></g><g id="text_14" transform="matrix(0 -.2 -.2 0 22.397 218.46)"><defs><path id="DejaVuSans-Oblique-949" d="M19.734 29.5q-5.28 1.172-7.578 4.344-1.703 2.234-1.703 5.265 0 8.297 7.906 13.141 6.25 3.813 15.828 3.813 3.704 0 7.75-.594 4.063-.578 8.594-1.75l-1.562-8.157q-4.485 1.407-8.25 2.047-3.86.641-7.313.641-5.812 0-9.625-2.25-4.593-2.688-4.593-6.594 0-2.593 2.39-4.39 2.844-2.157 8.5-2.157h7.563l-1.407-7.422H29q-6.734 0-10.688-2.484-5.375-3.375-5.375-8.64 0-3.329 2.891-5.516 3.61-2.735 10.985-2.735 4.53 0 8.875.875 4.359.922 8.156 2.735l-1.657-8.36q-4.64-1.359-8.89-2.046-4.25-.688-8.156-.688-11.61 0-17.078 4.453-4.157 3.422-4.157 9.172 0 7.766 5.469 12.547 4.047 3.578 10.36 4.75z"/><path id="DejaVuSans-77" d="M9.813 72.906h14.703l18.593-49.61 18.703 49.61h14.704V0H66.89v64.016l-18.797-50h-9.907l-18.796 50V0H9.813z"/><path id="DejaVuSans-65" d="M34.188 63.188 20.797 26.906h26.812zm-5.579 9.718h11.188L67.578 0h-10.25l-6.64 18.703h-32.86L11.188 0H.78z"/><path id="DejaVuSans-69" d="M9.813 72.906h46.093v-8.312H19.672V43.016H54.39v-8.297H19.67V8.297h37.11V0H9.813z"/></defs><use xlink:href="#DejaVuSans-Oblique-949" transform="translate(0 .938)"/><use xlink:href="#DejaVuSans-77" transform="matrix(.7 0 0 .7 54.053 -15.469)"/><use xlink:href="#DejaVuSans-65" transform="matrix(.7 0 0 .7 114.448 -15.469)"/><use xlink:href="#DejaVuSans-69" transform="matrix(.7 0 0 .7 162.334 -15.469)"/></g></g><path id="line2d_13" fill="none" stroke="#1f77b4" stroke-linecap="square" stroke-width="1.5" d="m511.697 327.093-4.1-20.487-4.099-2.837-4.099-1.827-4.1-.786-4.098-.577-4.1-.882-4.099-.71-4.099-.785-4.099-1.117-4.1-.793-4.098-2.32-4.1-2.76-4.099-.992-4.099-1.091-4.099-1.035-4.1-2.432-4.098-5.78-4.1-1.993-4.099-2.694-4.099-3.199-4.1-6.474-4.098-12.375-4.1-1.653-4.099-1.66-4.099-3.084-4.099-1.095-4.1-.689-4.098-1.079-4.1-.437-4.099-.922-4.099-.434-4.099-1.485-4.1-4.743-4.098-1.322-4.1-1.185-4.099-5.849-4.099-.883-4.099-.786-4.1-1.008-4.098-6.512-4.1-3.478-4.099-.818-4.099-3.811-4.099-.617-4.1-.637-4.098-.964-4.1-2.179-4.099-3.862-4.099-2.038-4.1-.983-4.098-2.208-4.1-2.01-4.099-.949-4.099-6.504-4.099-1.129-4.1-.755-4.098-.739-4.1-.516-4.099-.434-4.099-3.984-4.099-3.83-4.1-3.002-4.098-2.624-4.1-.888-4.099-3.34-4.099-1.4-4.099-4.064-4.1-1.582-4.098-4.973-4.1-2.595-4.099-.676-4.099-1.751-4.1-1.694-4.098-.89-4.1-4.683-4.099-4.513-4.099-2.936-4.099-3.984-4.1-4.446-4.098-1.945-4.1-2.333-4.099-3.183-4.099-1.713-4.099-.233-4.1-7.29-4.098-.393-4.1-2.063-4.099-4.268-4.099-4.664-4.099-4.107-4.1-7.723-4.098-5.315-4.1-6.397-4.099-6.568-4.099-7.377-4.1-5.769-4.098-3.413-4.1-.363-4.099-8.925" clip-path="url(#p16f2242e3d)"/><path id="line2d_14" fill="none" stroke="#ff7f0e" stroke-linecap="square" stroke-width="1.5" d="m511.697 385.71-4.1-1.223-4.099-1.08-4.099-1.425-4.1-1.202-4.098-1.288-4.1-1.395-4.099-1.357-4.099-1.36-4.099-1.336-4.1-1.275-4.098-1.392-4.1-1.386-4.099-1.333-4.099-1.337-4.099-1.347-4.1-1.31-4.098-1.386-4.1-1.52-4.099-1.574-4.099-1.531-4.1-1.512-4.098-1.517-4.1-1.52-4.099-1.476-4.099-1.471-4.099-1.482-4.1-1.528-4.098-1.528-4.1-1.487-4.099-1.461-4.099-1.436-4.099-1.428-4.1-1.43-4.098-1.407-4.1-1.43-4.099-1.425-4.099-1.451-4.099-1.502-4.1-1.492-4.098-1.506-4.1-1.547-4.099-1.577-4.099-1.582-4.099-1.596-4.1-1.587-4.098-1.624-4.1-1.705-4.099-1.821-4.099-1.84-4.1-1.876-4.098-1.937-4.1-2.045-4.099-2.16-4.099-2.18-4.099-2.248-4.1-2.355-4.098-2.379-4.1-2.409-4.099-2.403-4.099-2.424-4.099-2.475-4.1-2.505-4.098-2.647-4.1-2.87-4.099-2.94-4.099-2.944-4.099-2.952-4.1-3.112-4.098-3.368-4.1-3.432-4.099-3.457-4.099-3.555-4.1-3.791-4.098-3.84-4.1-3.966-4.099-4.282-4.099-4.403-4.099-4.549-4.1-4.874-4.098-5.016-4.1-5.035-4.099-5.037-4.099-5.107-4.099-5.375-4.1-5.691-4.098-6.026-4.1-6.229-4.099-6.54-4.099-6.908-4.099-7.55-4.1-8.249-4.098-8.623-4.1-9.294-4.099-9.815-4.099-10.465-4.1-11.554-4.098-12.728-4.1-15.775-4.099-31.097" clip-path="url(#p16f2242e3d)"/><path id="line2d_15" fill="none" stroke="#2ca02c" stroke-linecap="square" stroke-width="1.5" d="M105.878 41.793h405.819" clip-path="url(#p16f2242e3d)"/><path id="patch_3" fill="none" stroke="#000" stroke-linecap="square" stroke-width="2.5" d="M85.588 387.72V7.2"/><path id="patch_4" fill="none" stroke="#000" stroke-linecap="square" stroke-width="2.5" d="M531.987 387.72V7.2"/><path id="patch_5" fill="none" stroke="#000" stroke-linecap="square" stroke-width="2.5" d="M85.588 387.72h446.4"/><path id="patch_6" fill="none" stroke="#000" stroke-linecap="square" stroke-width="2.5" d="M85.588 7.2h446.4"/><g id="legend_1"><path id="patch_7" fill="#fff" stroke="#ccc" d="M99.588 377.72h141.568q4 0 4-4v-86.069q0-4-4-4H99.587q-4 0-4 4v86.069q0 4 4 4z" opacity=".8"/><path id="line2d_16" fill="none" stroke="#1f77b4" stroke-linecap="square" stroke-width="1.5" d="M103.588 299.848h40"/><g id="text_15" transform="matrix(.2 0 0 -.2 159.588 306.848)"><defs><path id="DejaVuSans-115" d="M44.281 53.078v-8.5q-3.797 1.953-7.906 2.922-4.094.984-8.5.984-6.688 0-10.031-2.047-3.344-2.046-3.344-6.156 0-3.125 2.39-4.906 2.391-1.781 9.626-3.39l3.078-.688q9.562-2.047 13.593-5.781 4.032-3.735 4.032-10.422 0-7.625-6.032-12.078-6.03-4.438-16.578-4.438-4.39 0-9.156.86Q10.688.296 5.422 2v9.281q4.984-2.594 9.812-3.89 4.829-1.282 9.579-1.282 6.343 0 9.75 2.172 3.421 2.172 3.421 6.125 0 3.656-2.468 5.61-2.453 1.953-10.813 3.765l-3.125.735q-8.344 1.75-12.062 5.39-3.704 3.64-3.704 9.985 0 7.718 5.47 11.906Q16.75 56 26.811 56q4.97 0 9.36-.734 4.406-.72 8.11-2.188z"/></defs><use xlink:href="#DejaVuSans-115"/><use xlink:href="#DejaVuSans-116" x="52.1"/><use xlink:href="#DejaVuSans-100" x="91.309"/></g><path id="line2d_18" fill="none" stroke="#ff7f0e" stroke-linecap="square" stroke-width="1.5" d="M103.588 329.204h40"/><g id="text_16" transform="matrix(.2 0 0 -.2 159.588 336.204)"><use xlink:href="#DejaVuSans-101"/><use xlink:href="#DejaVuSans-114" x="61.523"/><use xlink:href="#DejaVuSans-114" x="100.887"/><use xlink:href="#DejaVuSans-111" x="139.75"/><use xlink:href="#DejaVuSans-114" x="200.932"/></g><path id="patch_8" fill="#1f77b4" d="M103.588 365.56h40v-14h-40z" opacity=".2"/><g id="text_17" transform="matrix(.2 0 0 -.2 159.588 365.56)"><defs><path id="DejaVuSans-97" d="M34.281 27.484q-10.89 0-15.093-2.484-4.204-2.484-4.204-8.5 0-4.781 3.157-7.594 3.156-2.797 8.562-2.797 7.485 0 12 5.297 4.516 5.297 4.516 14.078v2zm17.922 3.72V0H43.22v8.297Q40.14 3.328 35.547.953q-4.594-2.375-11.234-2.375-8.391 0-13.36 4.719Q6 8.016 6 15.922q0 9.219 6.172 13.906 6.187 4.688 18.437 4.688h12.61v.89q0 6.203-4.078 9.594-4.078 3.39-11.453 3.39-4.688 0-9.141-1.124-4.438-1.125-8.531-3.375v8.312q4.921 1.906 9.562 2.844 4.64.953 9.031.953 11.875 0 17.735-6.156 5.86-6.14 5.86-18.64z"/><path id="DejaVuSans-109" d="M52 44.188q3.375 6.062 8.063 8.937Q64.75 56 71.093 56q8.548 0 13.188-5.984 4.64-5.97 4.64-17V0h-9.03v32.719q0 7.86-2.797 11.656-2.781 3.813-8.485 3.813-6.984 0-11.046-4.641-4.047-4.625-4.047-12.64V0h-9.032v32.719q0 7.906-2.78 11.687-2.782 3.782-8.595 3.782-6.89 0-10.953-4.657-4.047-4.656-4.047-12.625V0H9.08v54.688h9.03v-8.5q3.078 5.03 7.375 7.421Q29.781 56 35.687 56q5.97 0 10.141-3.031Q50 49.953 52 44.187z"/></defs><use xlink:href="#DejaVuSans-114"/><use xlink:href="#DejaVuSans-97" x="41.113"/><use xlink:href="#DejaVuSans-110" x="102.393"/><use xlink:href="#DejaVuSans-100" x="165.771"/><use xlink:href="#DejaVuSans-111" x="229.248"/><use xlink:href="#DejaVuSans-109" x="290.43"/></g></g></g></g><defs><clipPath id="p16f2242e3d"><path d="M85.588 7.2h446.4v380.52h-446.4z"/></clipPath></defs></svg>