<svg xmlns="http://www.w3.org/2000/svg" width="700" height="500" class="main-svg"><path d="M0 0h700v500H0z" style="fill:#fff;fill-opacity:1"/><defs><clipPath id="a" class="plotclip"><path d="M0 0h497v424H0z"/></clipPath><clipPath id="b" class="plotclip"><path d="M0 0h497v424H0z"/></clipPath></defs><g class="cartesianlayer"><g class="subplot xy"><g class="gridlayer"><g class="x"><path d="M0 18v424" class="xgrid crisp" style="stroke:#d3d3d3;stroke-opacity:1;stroke-width:1px" transform="translate(72.55)"/><path d="M0 18v424" class="xgrid crisp" style="stroke:#d3d3d3;stroke-opacity:1;stroke-width:1px" transform="translate(161.21)"/><path d="M0 18v424" class="xgrid crisp" style="stroke:#d3d3d3;stroke-opacity:1;stroke-width:1px" transform="translate(338.52)"/><path d="M0 18v424" class="xgrid crisp" style="stroke:#d3d3d3;stroke-opacity:1;stroke-width:1px" transform="translate(427.18)"/><path d="M0 18v424" class="xgrid crisp" style="stroke:#d3d3d3;stroke-opacity:1;stroke-width:1px" transform="translate(515.84)"/></g><g class="y"><path d="M58 0h497" class="ygrid crisp" style="stroke:#d3d3d3;stroke-opacity:1;stroke-width:1px" transform="translate(0 384.46)"/><path d="M58 0h497" class="ygrid crisp" style="stroke:#d3d3d3;stroke-opacity:1;stroke-width:1px" transform="translate(0 326.91)"/><path d="M58 0h497" class="ygrid crisp" style="stroke:#d3d3d3;stroke-opacity:1;stroke-width:1px" transform="translate(0 269.37)"/><path d="M58 0h497" class="ygrid crisp" style="stroke:#d3d3d3;stroke-opacity:1;stroke-width:1px" transform="translate(0 211.83)"/><path d="M58 0h497" class="ygrid crisp" style="stroke:#d3d3d3;stroke-opacity:1;stroke-width:1px" transform="translate(0 154.29)"/><path d="M58 0h497" class="ygrid crisp" style="stroke:#d3d3d3;stroke-opacity:1;stroke-width:1px" transform="translate(0 96.74)"/><path d="M58 0h497" class="ygrid crisp" style="stroke:#d3d3d3;stroke-opacity:1;stroke-width:1px" transform="translate(0 39.2)"/></g></g><g class="zerolinelayer"><path d="M0 18v424" class="xzl zl crisp" style="stroke:#ebf0f8;stroke-opacity:1;stroke-width:2px" transform="translate(249.87)"/><path d="M58 0h497" class="yzl zl crisp" style="stroke:#ebf0f8;stroke-opacity:1;stroke-width:2px" transform="translate(0 442)"/></g><g class="plot" clip-path="url(#a)" transform="translate(58 18)"><g class="barlayer mlayer"><g class="trace bars" style="opacity:.7"><g class="points"><path d="M0 424v-11.51h5.93V424Z" class="point" style="vector-effect:none;opacity:1;stroke-width:0;fill:#636efa;fill-opacity:1"/><path d="M4.94 424v-11.51h5.93V424Zm49.4 0v-11.51h5.93V424Zm9.88 0v-23.02h5.93V424Zm34.59 0v-11.51h5.93V424Z" class="point" style="vector-effect:none;opacity:1;stroke-width:0;fill:#636efa;fill-opacity:1"/><path d="M103.75 424v-11.51h5.93V424Z" class="point" style="vector-effect:none;opacity:1;stroke-width:0;fill:#636efa;fill-opacity:1"/><path d="M108.69 424v-23.02h5.93V424Z" class="point" style="vector-effect:none;opacity:1;stroke-width:0;fill:#636efa;fill-opacity:1"/><path d="M113.63 424v-11.51h5.93V424Z" class="point" style="vector-effect:none;opacity:1;stroke-width:0;fill:#636efa;fill-opacity:1"/><path d="M118.57 424v-11.51h5.93V424Zm14.82 0v-11.51h5.93V424Z" class="point" style="vector-effect:none;opacity:1;stroke-width:0;fill:#636efa;fill-opacity:1"/><path d="M138.33 424v-57.54h5.93V424Zm9.88 0v-11.51h5.93V424Z" class="point" style="vector-effect:none;opacity:1;stroke-width:0;fill:#636efa;fill-opacity:1"/><path d="M153.15 424v-11.51h5.93V424Z" class="point" style="vector-effect:none;opacity:1;stroke-width:0;fill:#636efa;fill-opacity:1"/><path d="M158.09 424v-11.51h5.93V424Zm9.88 0V320.42h5.93V424Z" class="point" style="vector-effect:none;opacity:1;stroke-width:0;fill:#636efa;fill-opacity:1"/><path d="M172.91 424v-80.56h5.93V424Z" class="point" style="vector-effect:none;opacity:1;stroke-width:0;fill:#636efa;fill-opacity:1"/><path d="M177.85 424v-57.54h5.93V424Z" class="point" style="vector-effect:none;opacity:1;stroke-width:0;fill:#636efa;fill-opacity:1"/><path d="M182.79 424V274.39h5.93V424Z" class="point" style="vector-effect:none;opacity:1;stroke-width:0;fill:#636efa;fill-opacity:1"/><path d="M187.73 424v-57.54h5.93V424Z" class="point" style="vector-effect:none;opacity:1;stroke-width:0;fill:#636efa;fill-opacity:1"/><path d="M192.67 424v-80.56h5.93V424Z" class="point" style="vector-effect:none;opacity:1;stroke-width:0;fill:#636efa;fill-opacity:1"/><path d="M197.61 424V297.41h5.93V424Z" class="point" style="vector-effect:none;opacity:1;stroke-width:0;fill:#636efa;fill-opacity:1"/><path d="M202.55 424V308.91h5.93V424Z" class="point" style="vector-effect:none;opacity:1;stroke-width:0;fill:#636efa;fill-opacity:1"/><path d="M207.5 424v-80.56h5.92V424Z" class="point" style="vector-effect:none;opacity:1;stroke-width:0;fill:#636efa;fill-opacity:1"/><path d="M212.44 424v-80.56h5.92V424Z" class="point" style="vector-effect:none;opacity:1;stroke-width:0;fill:#636efa;fill-opacity:1"/><path d="M217.38 424V285.9h5.92V424Z" class="point" style="vector-effect:none;opacity:1;stroke-width:0;fill:#636efa;fill-opacity:1"/><path d="M222.32 424V262.88h5.92V424Z" class="point" style="vector-effect:none;opacity:1;stroke-width:0;fill:#636efa;fill-opacity:1"/><path d="M227.26 424V285.9h5.92V424Z" class="point" style="vector-effect:none;opacity:1;stroke-width:0;fill:#636efa;fill-opacity:1"/><path d="M232.2 424V274.39h5.93V424Z" class="point" style="vector-effect:none;opacity:1;stroke-width:0;fill:#636efa;fill-opacity:1"/><path d="M237.14 424V285.9h5.93V424Z" class="point" style="vector-effect:none;opacity:1;stroke-width:0;fill:#636efa;fill-opacity:1"/><path d="M242.08 424V262.88h5.93V424Z" class="point" style="vector-effect:none;opacity:1;stroke-width:0;fill:#636efa;fill-opacity:1"/><path d="M247.02 424V262.88h5.93V424Z" class="point" style="vector-effect:none;opacity:1;stroke-width:0;fill:#636efa;fill-opacity:1"/><path d="M251.96 424V216.85h5.93V424Z" class="point" style="vector-effect:none;opacity:1;stroke-width:0;fill:#636efa;fill-opacity:1"/><path d="M256.9 424V297.41h5.93V424Z" class="point" style="vector-effect:none;opacity:1;stroke-width:0;fill:#636efa;fill-opacity:1"/><path d="M261.84 424V251.37h5.93V424Z" class="point" style="vector-effect:none;opacity:1;stroke-width:0;fill:#636efa;fill-opacity:1"/><path d="M266.78 424V285.9h5.93V424Z" class="point" style="vector-effect:none;opacity:1;stroke-width:0;fill:#636efa;fill-opacity:1"/><path d="M271.72 424V262.88h5.93V424Z" class="point" style="vector-effect:none;opacity:1;stroke-width:0;fill:#636efa;fill-opacity:1"/><path d="M276.66 424V320.42h5.93V424Z" class="point" style="vector-effect:none;opacity:1;stroke-width:0;fill:#636efa;fill-opacity:1"/><path d="M281.6 424V262.88h5.93V424Z" class="point" style="vector-effect:none;opacity:1;stroke-width:0;fill:#636efa;fill-opacity:1"/><path d="M286.54 424V285.9h5.93V424Z" class="point" style="vector-effect:none;opacity:1;stroke-width:0;fill:#636efa;fill-opacity:1"/><path d="M291.48 424V285.9h5.93V424Z" class="point" style="vector-effect:none;opacity:1;stroke-width:0;fill:#636efa;fill-opacity:1"/><path d="M296.42 424V297.41h5.93V424Z" class="point" style="vector-effect:none;opacity:1;stroke-width:0;fill:#636efa;fill-opacity:1"/><path d="M301.36 424V205.34h5.93V424Z" class="point" style="vector-effect:none;opacity:1;stroke-width:0;fill:#636efa;fill-opacity:1"/><path d="M306.3 424v-69.05h5.93V424Z" class="point" style="vector-effect:none;opacity:1;stroke-width:0;fill:#636efa;fill-opacity:1"/><path d="M311.24 424v-92.07h5.93V424Z" class="point" style="vector-effect:none;opacity:1;stroke-width:0;fill:#636efa;fill-opacity:1"/><path d="M316.18 424V297.41h5.93V424Z" class="point" style="vector-effect:none;opacity:1;stroke-width:0;fill:#636efa;fill-opacity:1"/><path d="M321.12 424V274.39h5.93V424Z" class="point" style="vector-effect:none;opacity:1;stroke-width:0;fill:#636efa;fill-opacity:1"/><path d="M326.06 424v-80.56h5.93V424Z" class="point" style="vector-effect:none;opacity:1;stroke-width:0;fill:#636efa;fill-opacity:1"/><path d="M331 424V285.9h5.93V424Z" class="point" style="vector-effect:none;opacity:1;stroke-width:0;fill:#636efa;fill-opacity:1"/><path d="M335.94 424v-92.07h5.93V424Z" class="point" style="vector-effect:none;opacity:1;stroke-width:0;fill:#636efa;fill-opacity:1"/><path d="M340.88 424V320.42h5.93V424Z" class="point" style="vector-effect:none;opacity:1;stroke-width:0;fill:#636efa;fill-opacity:1"/><path d="M345.83 424V297.41h5.92V424Z" class="point" style="vector-effect:none;opacity:1;stroke-width:0;fill:#636efa;fill-opacity:1"/><path d="M350.77 424V297.41h5.92V424Z" class="point" style="vector-effect:none;opacity:1;stroke-width:0;fill:#636efa;fill-opacity:1"/><path d="M355.71 424v-80.56h5.92V424Z" class="point" style="vector-effect:none;opacity:1;stroke-width:0;fill:#636efa;fill-opacity:1"/><path d="M360.65 424v-57.54h5.92V424Z" class="point" style="vector-effect:none;opacity:1;stroke-width:0;fill:#636efa;fill-opacity:1"/><path d="M365.59 424v-80.56h5.92V424Z" class="point" style="vector-effect:none;opacity:1;stroke-width:0;fill:#636efa;fill-opacity:1"/><path d="M370.53 424V320.42h5.93V424Z" class="point" style="vector-effect:none;opacity:1;stroke-width:0;fill:#636efa;fill-opacity:1"/><path d="M375.47 424v-69.05h5.93V424Z" class="point" style="vector-effect:none;opacity:1;stroke-width:0;fill:#636efa;fill-opacity:1"/><path d="M380.41 424v-46.03h5.93V424Z" class="point" style="vector-effect:none;opacity:1;stroke-width:0;fill:#636efa;fill-opacity:1"/><path d="M385.35 424v-46.03h5.93V424Z" class="point" style="vector-effect:none;opacity:1;stroke-width:0;fill:#636efa;fill-opacity:1"/><path d="M390.29 424v-23.02h5.93V424Z" class="point" style="vector-effect:none;opacity:1;stroke-width:0;fill:#636efa;fill-opacity:1"/><path d="M395.23 424v-34.53h5.93V424Z" class="point" style="vector-effect:none;opacity:1;stroke-width:0;fill:#636efa;fill-opacity:1"/><path d="M400.17 424v-34.53h5.93V424Z" class="point" style="vector-effect:none;opacity:1;stroke-width:0;fill:#636efa;fill-opacity:1"/><path d="M405.11 424v-23.02h5.93V424Z" class="point" style="vector-effect:none;opacity:1;stroke-width:0;fill:#636efa;fill-opacity:1"/><path d="M410.05 424v-11.51h5.93V424Z" class="point" style="vector-effect:none;opacity:1;stroke-width:0;fill:#636efa;fill-opacity:1"/><path d="M414.99 424v-46.03h5.93V424Z" class="point" style="vector-effect:none;opacity:1;stroke-width:0;fill:#636efa;fill-opacity:1"/><path d="M419.93 424v-11.51h5.93V424Z" class="point" style="vector-effect:none;opacity:1;stroke-width:0;fill:#636efa;fill-opacity:1"/><path d="M424.87 424v-23.02h5.93V424Zm14.82 0v-23.02h5.93V424Zm14.82 0v-11.51h5.93V424Zm14.82 0v-11.51h5.93V424Zm19.77 0v-11.51h5.92V424Z" class="point" style="vector-effect:none;opacity:1;stroke-width:0;fill:#636efa;fill-opacity:1"/></g></g><g class="trace bars" style="opacity:.7"><g class="points"><path d="M258.87 424v-11.51h5.93V424Zm9.89 0v-11.51h5.92V424Z" class="point" style="vector-effect:none;opacity:1;stroke-width:0;fill:#ef553b;fill-opacity:1"/><path d="M273.7 424v-23.02h5.92V424Z" class="point" style="vector-effect:none;opacity:1;stroke-width:0;fill:#ef553b;fill-opacity:1"/><path d="M278.64 424v-23.02h5.92V424Z" class="point" style="vector-effect:none;opacity:1;stroke-width:0;fill:#ef553b;fill-opacity:1"/><path d="M283.58 424v-11.51h5.92V424Zm9.88 0v-11.51h5.93V424Z" class="point" style="vector-effect:none;opacity:1;stroke-width:0;fill:#ef553b;fill-opacity:1"/><path d="M298.4 424v-80.56h5.93V424Z" class="point" style="vector-effect:none;opacity:1;stroke-width:0;fill:#ef553b;fill-opacity:1"/><path d="M303.34 424V308.91h5.93V424Z" class="point" style="vector-effect:none;opacity:1;stroke-width:0;fill:#ef553b;fill-opacity:1"/><path d="M308.28 424v-92.07h5.93V424Z" class="point" style="vector-effect:none;opacity:1;stroke-width:0;fill:#ef553b;fill-opacity:1"/><path d="M313.22 424v-92.07h5.93V424Z" class="point" style="vector-effect:none;opacity:1;stroke-width:0;fill:#ef553b;fill-opacity:1"/><path d="M318.16 424V320.42h5.93V424Z" class="point" style="vector-effect:none;opacity:1;stroke-width:0;fill:#ef553b;fill-opacity:1"/><path d="M323.1 424V228.35h5.93V424Z" class="point" style="vector-effect:none;opacity:1;stroke-width:0;fill:#ef553b;fill-opacity:1"/><path d="M328.04 424V216.85h5.93V424Z" class="point" style="vector-effect:none;opacity:1;stroke-width:0;fill:#ef553b;fill-opacity:1"/><path d="M332.98 424V239.86h5.93V424Z" class="point" style="vector-effect:none;opacity:1;stroke-width:0;fill:#ef553b;fill-opacity:1"/><path d="M337.92 424V147.79h5.93V424Z" class="point" style="vector-effect:none;opacity:1;stroke-width:0;fill:#ef553b;fill-opacity:1"/><path d="M342.86 424V147.79h5.93V424Z" class="point" style="vector-effect:none;opacity:1;stroke-width:0;fill:#ef553b;fill-opacity:1"/><path d="M347.8 424V124.78h5.93V424Z" class="point" style="vector-effect:none;opacity:1;stroke-width:0;fill:#ef553b;fill-opacity:1"/><path d="M352.74 424V21.2h5.93V424Z" class="point" style="vector-effect:none;opacity:1;stroke-width:0;fill:#ef553b;fill-opacity:1"/><path d="M357.68 424V67.23h5.93V424Z" class="point" style="vector-effect:none;opacity:1;stroke-width:0;fill:#ef553b;fill-opacity:1"/><path d="M362.62 424V32.71h5.93V424Z" class="point" style="vector-effect:none;opacity:1;stroke-width:0;fill:#ef553b;fill-opacity:1"/><path d="M367.56 424V147.79h5.93V424Z" class="point" style="vector-effect:none;opacity:1;stroke-width:0;fill:#ef553b;fill-opacity:1"/><path d="M372.5 424V136.29h5.93V424Z" class="point" style="vector-effect:none;opacity:1;stroke-width:0;fill:#ef553b;fill-opacity:1"/><path d="M377.44 424V78.74h5.93V424Z" class="point" style="vector-effect:none;opacity:1;stroke-width:0;fill:#ef553b;fill-opacity:1"/><path d="M382.38 424V113.27h5.93V424Z" class="point" style="vector-effect:none;opacity:1;stroke-width:0;fill:#ef553b;fill-opacity:1"/><path d="M387.32 424V216.85h5.93V424Z" class="point" style="vector-effect:none;opacity:1;stroke-width:0;fill:#ef553b;fill-opacity:1"/><path d="M392.26 424V147.79h5.93V424Z" class="point" style="vector-effect:none;opacity:1;stroke-width:0;fill:#ef553b;fill-opacity:1"/><path d="M397.2 424V274.39h5.93V424Z" class="point" style="vector-effect:none;opacity:1;stroke-width:0;fill:#ef553b;fill-opacity:1"/><path d="M402.15 424V320.42h5.92V424Z" class="point" style="vector-effect:none;opacity:1;stroke-width:0;fill:#ef553b;fill-opacity:1"/><path d="M407.09 424V285.9h5.92V424Z" class="point" style="vector-effect:none;opacity:1;stroke-width:0;fill:#ef553b;fill-opacity:1"/><path d="M412.03 424V228.35h5.92V424Z" class="point" style="vector-effect:none;opacity:1;stroke-width:0;fill:#ef553b;fill-opacity:1"/><path d="M416.97 424v-46.03h5.92V424Z" class="point" style="vector-effect:none;opacity:1;stroke-width:0;fill:#ef553b;fill-opacity:1"/><path d="M421.91 424v-23.02h5.92V424Z" class="point" style="vector-effect:none;opacity:1;stroke-width:0;fill:#ef553b;fill-opacity:1"/><path d="M426.85 424v-80.56h5.93V424Z" class="point" style="vector-effect:none;opacity:1;stroke-width:0;fill:#ef553b;fill-opacity:1"/><path d="M431.79 424v-57.54h5.93V424Zm9.88 0v-34.53h5.93V424Z" class="point" style="vector-effect:none;opacity:1;stroke-width:0;fill:#ef553b;fill-opacity:1"/><path d="M446.61 424v-11.51h5.93V424Z" class="point" style="vector-effect:none;opacity:1;stroke-width:0;fill:#ef553b;fill-opacity:1"/><path d="M451.55 424v-46.03h5.93V424ZM0 0" class="point" style="vector-effect:none;opacity:1;stroke-width:0;fill:#ef553b;fill-opacity:1"/></g></g></g></g><g class="overplot"><g class="xy2" clip-path="url(#b)" transform="translate(58 18)"><g class="scatterlayer mlayer"><g class="trace scatter trace40f154" style="stroke-miterlimit:2;opacity:1"><g class="lines"><path d="M3.95 423.15h4.94v-.85H58.3v-.84h9.88v-1.7h34.58v-.85h4.94v-.85h4.94v-1.69h4.94v-.85h4.94v-.85h14.82v-.85h4.94v-4.24h9.88v-.84h4.94v-.85h4.94v-.85h9.88v-7.63h4.94v-5.94h4.95v-4.24h4.94v-11.02h4.94v-4.24h4.94v-5.94h4.94v-9.33h4.94v-8.48h4.94v-5.93h4.94v-5.94h4.94v-10.17h4.94V316.3h4.94v-10.17h4.94V295.1h4.94v-10.17h4.94v-11.87h4.94v-11.88h4.94v-15.26h4.94v-9.33h4.94v-12.72h4.94V213.7h4.94v-11.88h4.94v-7.63h4.94v-11.87h4.94v-10.18h4.94v-10.17h4.94v-9.33h4.94v-16.11h4.94v-5.09h4.94v-6.78h4.95v-9.33h4.94V104.3h4.94v-5.93h4.94V88.19h4.94v-6.78h4.94v-7.63h4.94v-9.33h4.94v-9.33h4.94v-5.94h4.94v-4.24h4.94v-5.93h4.94v-7.63h4.94v-5.09h4.94V22.9h4.94v-3.4h4.94v-1.69h4.94v-2.55h4.94v-2.54h4.94v-1.7H414v-.84h4.94v-3.4h4.94v-.84h4.94v-1.7h14.82v-1.7h14.83V1.7h14.82V.85h19.76V0" class="js-line" style="vector-effect:none;fill:none;stroke:#636efa;stroke-opacity:1;stroke-width:2px;opacity:1"/></g></g><g class="trace scatter tracee52c79" style="stroke-miterlimit:2;opacity:1"><g class="lines"><path d="M260.85 423.15h9.88v-.85h4.94v-1.69h4.94v-1.7h4.94v-.85h9.88v-.84h4.94v-5.94h4.94v-8.48h4.94v-6.78h4.94v-6.79h4.95v-7.63h4.94v-14.42h4.94v-15.26h4.94v-13.57h4.94V318h4.94v-20.35h4.94V275.6h4.94v-29.68h4.94v-26.29h4.94V190.8h4.94v-20.35h4.94v-21.2h4.94v-25.44h4.94v-22.9h4.94V85.65h4.94V65.3h4.94V54.27h4.94v-7.63h4.94V36.46H414V22.05h4.94v-3.39h4.94v-1.7h4.94v-5.94h4.94V6.78h9.88V4.24h4.94v-.85h4.94V0" class="js-line" style="vector-effect:none;fill:none;stroke:#ef553b;stroke-opacity:1;stroke-width:2px;opacity:1"/></g></g></g></g></g><path d="M57 442.5h499M57 17.5h499" class="xlines-above crisp" style="fill:none;stroke-width:1px;stroke:#000;stroke-opacity:1"/><path d="M57.5 18v424m498-424v424" class="ylines-above crisp" style="fill:none;stroke-width:1px;stroke:#000;stroke-opacity:1"/><g class="overlines-above"><path d="M555.5 18v424M57.5 18v424" class="xy2-y crisp" style="fill:none;stroke-width:1px;stroke:#000;stroke-opacity:1"/></g><g class="xaxislayer-above"><path d="M0 443v5" class="xtick ticks crisp" style="stroke:#444;stroke-opacity:1;stroke-width:1px" transform="translate(72.55)"/><path d="M0 443v5" class="xtick ticks crisp" style="stroke:#444;stroke-opacity:1;stroke-width:1px" transform="translate(161.21)"/><path d="M0 443v5" class="xtick ticks crisp" style="stroke:#444;stroke-opacity:1;stroke-width:1px" transform="translate(249.87)"/><path d="M0 443v5" class="xtick ticks crisp" style="stroke:#444;stroke-opacity:1;stroke-width:1px" transform="translate(338.52)"/><path d="M0 443v5" class="xtick ticks crisp" style="stroke:#444;stroke-opacity:1;stroke-width:1px" transform="translate(427.18)"/><path d="M0 443v5" class="xtick ticks crisp" style="stroke:#444;stroke-opacity:1;stroke-width:1px" transform="translate(515.84)"/><text y="462.4" class="xtick" style="font-family:&quot;Open Sans&quot;,verdana,arial,sans-serif;font-size:12px;fill:#000;fill-opacity:1;white-space:pre;opacity:1" text-anchor="middle" transform="translate(72.55)">−10</text><text y="462.4" class="xtick" style="font-family:&quot;Open Sans&quot;,verdana,arial,sans-serif;font-size:12px;fill:#000;fill-opacity:1;white-space:pre;opacity:1" text-anchor="middle" transform="translate(161.21)">−5</text><text y="462.4" class="xtick" style="font-family:&quot;Open Sans&quot;,verdana,arial,sans-serif;font-size:12px;fill:#000;fill-opacity:1;white-space:pre;opacity:1" text-anchor="middle" transform="translate(249.87)">0</text><text y="462.4" class="xtick" style="font-family:&quot;Open Sans&quot;,verdana,arial,sans-serif;font-size:12px;fill:#000;fill-opacity:1;white-space:pre;opacity:1" text-anchor="middle" transform="translate(338.52)">5</text><text y="462.4" class="xtick" style="font-family:&quot;Open Sans&quot;,verdana,arial,sans-serif;font-size:12px;fill:#000;fill-opacity:1;white-space:pre;opacity:1" text-anchor="middle" transform="translate(427.18)">10</text><text y="462.4" class="xtick" style="font-family:&quot;Open Sans&quot;,verdana,arial,sans-serif;font-size:12px;fill:#000;fill-opacity:1;white-space:pre;opacity:1" text-anchor="middle" transform="translate(515.84)">15</text></g><g class="yaxislayer-above"><path d="M57 0h-5" class="ytick ticks crisp" style="stroke:#444;stroke-opacity:1;stroke-width:1px" transform="translate(0 442)"/><path d="M57 0h-5" class="ytick ticks crisp" style="stroke:#444;stroke-opacity:1;stroke-width:1px" transform="translate(0 384.46)"/><path d="M57 0h-5" class="ytick ticks crisp" style="stroke:#444;stroke-opacity:1;stroke-width:1px" transform="translate(0 326.91)"/><path d="M57 0h-5" class="ytick ticks crisp" style="stroke:#444;stroke-opacity:1;stroke-width:1px" transform="translate(0 269.37)"/><path d="M57 0h-5" class="ytick ticks crisp" style="stroke:#444;stroke-opacity:1;stroke-width:1px" transform="translate(0 211.83)"/><path d="M57 0h-5" class="ytick ticks crisp" style="stroke:#444;stroke-opacity:1;stroke-width:1px" transform="translate(0 154.29)"/><path d="M57 0h-5" class="ytick ticks crisp" style="stroke:#444;stroke-opacity:1;stroke-width:1px" transform="translate(0 96.74)"/><path d="M57 0h-5" class="ytick ticks crisp" style="stroke:#444;stroke-opacity:1;stroke-width:1px" transform="translate(0 39.2)"/><text x="49.6" y="4.2" class="ytick" style="font-family:&quot;Open Sans&quot;,verdana,arial,sans-serif;font-size:12px;fill:#000;fill-opacity:1;white-space:pre;opacity:1" text-anchor="end" transform="translate(0 442)">0</text><text x="49.6" y="4.2" class="ytick" style="font-family:&quot;Open Sans&quot;,verdana,arial,sans-serif;font-size:12px;fill:#000;fill-opacity:1;white-space:pre;opacity:1" text-anchor="end" transform="translate(0 384.46)">5</text><text x="49.6" y="4.2" class="ytick" style="font-family:&quot;Open Sans&quot;,verdana,arial,sans-serif;font-size:12px;fill:#000;fill-opacity:1;white-space:pre;opacity:1" text-anchor="end" transform="translate(0 326.91)">10</text><text x="49.6" y="4.2" class="ytick" style="font-family:&quot;Open Sans&quot;,verdana,arial,sans-serif;font-size:12px;fill:#000;fill-opacity:1;white-space:pre;opacity:1" text-anchor="end" transform="translate(0 269.37)">15</text><text x="49.6" y="4.2" class="ytick" style="font-family:&quot;Open Sans&quot;,verdana,arial,sans-serif;font-size:12px;fill:#000;fill-opacity:1;white-space:pre;opacity:1" text-anchor="end" transform="translate(0 211.83)">20</text><text x="49.6" y="4.2" class="ytick" style="font-family:&quot;Open Sans&quot;,verdana,arial,sans-serif;font-size:12px;fill:#000;fill-opacity:1;white-space:pre;opacity:1" text-anchor="end" transform="translate(0 154.29)">25</text><text x="49.6" y="4.2" class="ytick" style="font-family:&quot;Open Sans&quot;,verdana,arial,sans-serif;font-size:12px;fill:#000;fill-opacity:1;white-space:pre;opacity:1" text-anchor="end" transform="translate(0 96.74)">30</text><text x="49.6" y="4.2" class="ytick" style="font-family:&quot;Open Sans&quot;,verdana,arial,sans-serif;font-size:12px;fill:#000;fill-opacity:1;white-space:pre;opacity:1" text-anchor="end" transform="translate(0 39.2)">35</text></g><g class="overaxes-above"><g class="xy2-y"><path d="M556 0h5" class="y2tick ticks crisp" style="stroke:#636efa;stroke-opacity:1;stroke-width:1px" transform="translate(0 442)"/><path d="M556 0h5" class="y2tick ticks crisp" style="stroke:#636efa;stroke-opacity:1;stroke-width:1px" transform="translate(0 357.2)"/><path d="M556 0h5" class="y2tick ticks crisp" style="stroke:#636efa;stroke-opacity:1;stroke-width:1px" transform="translate(0 272.4)"/><path d="M556 0h5" class="y2tick ticks crisp" style="stroke:#636efa;stroke-opacity:1;stroke-width:1px" transform="translate(0 187.6)"/><path d="M556 0h5" class="y2tick ticks crisp" style="stroke:#636efa;stroke-opacity:1;stroke-width:1px" transform="translate(0 102.8)"/><path d="M556 0h5" class="y2tick ticks crisp" style="stroke:#636efa;stroke-opacity:1;stroke-width:1px" transform="translate(0 18)"/><text x="563.4" y="4.2" class="y2tick" style="font-family:&quot;Open Sans&quot;,verdana,arial,sans-serif;font-size:12px;fill:#636efa;fill-opacity:1;white-space:pre;opacity:1" transform="translate(0 442)">0</text><text x="563.4" y="4.2" class="y2tick" style="font-family:&quot;Open Sans&quot;,verdana,arial,sans-serif;font-size:12px;fill:#636efa;fill-opacity:1;white-space:pre;opacity:1" transform="translate(0 357.2)">0.2</text><text x="563.4" y="4.2" class="y2tick" style="font-family:&quot;Open Sans&quot;,verdana,arial,sans-serif;font-size:12px;fill:#636efa;fill-opacity:1;white-space:pre;opacity:1" transform="translate(0 272.4)">0.4</text><text x="563.4" y="4.2" class="y2tick" style="font-family:&quot;Open Sans&quot;,verdana,arial,sans-serif;font-size:12px;fill:#636efa;fill-opacity:1;white-space:pre;opacity:1" transform="translate(0 187.6)">0.6</text><text x="563.4" y="4.2" class="y2tick" style="font-family:&quot;Open Sans&quot;,verdana,arial,sans-serif;font-size:12px;fill:#636efa;fill-opacity:1;white-space:pre;opacity:1" transform="translate(0 102.8)">0.8</text><text x="563.4" y="4.2" class="y2tick" style="font-family:&quot;Open Sans&quot;,verdana,arial,sans-serif;font-size:12px;fill:#636efa;fill-opacity:1;white-space:pre;opacity:1" transform="translate(0 18)">1</text></g></g></g></g><defs><clipPath id="c"><path d="M0 0h125v106H0z"/></clipPath></defs><g class="infolayer"><g class="legend" pointer-events="all"><path d="M0 0h125v106H0z" class="bg" shape-rendering="crispEdges" style="stroke:#444;stroke-opacity:1;fill:#fff;fill-opacity:1;stroke-width:0" transform="translate(564.94 18)"/><g class="scrollbox" clip-path="url(#c)" transform="translate(564.94 18)"><g class="groups"><g class="traces" style="opacity:1"><text x="40" y="4.68" class="legendtext" style="font-family:&quot;Open Sans&quot;,verdana,arial,sans-serif;font-size:12px;fill:#000;fill-opacity:1;white-space:pre" transform="translate(0 14.5)">Gaussian 1</text><g class="layers" style="opacity:.7"><g class="legendsymbols"><g class="legendpoints"><path d="M6 6H-6V-6H6Z" class="legendundefined" style="stroke-width:0;fill:#636efa;fill-opacity:1" transform="translate(20 14.5)"/></g></g></g><path fill="none" d="M0-9.5h119.859v19H0z" class="legendtoggle" style="fill:#000;fill-opacity:0" transform="translate(0 14.5)"/></g></g><g class="groups"><g class="traces" style="opacity:1"><text x="40" y="4.68" class="legendtext" style="font-family:&quot;Open Sans&quot;,verdana,arial,sans-serif;font-size:12px;fill:#000;fill-opacity:1;white-space:pre" transform="translate(0 43.5)">Gaussian 2</text><g class="layers" style="opacity:.7"><g class="legendsymbols"><g class="legendpoints"><path d="M6 6H-6V-6H6Z" class="legendundefined" style="stroke-width:0;fill:#ef553b;fill-opacity:1" transform="translate(20 43.5)"/></g></g></g><path fill="none" d="M0-9.5h119.859v19H0z" class="legendtoggle" style="fill:#000;fill-opacity:0" transform="translate(0 43.5)"/></g></g><g class="groups"><g class="traces" style="opacity:1"><text x="40" y="4.68" class="legendtext" style="font-family:&quot;Open Sans&quot;,verdana,arial,sans-serif;font-size:12px;fill:#000;fill-opacity:1;white-space:pre" transform="translate(0 72.5)">Cumulative</text><g class="layers" style="opacity:1"><g class="legendlines"><path d="M5 0h30" class="js-line" style="fill:none;stroke:#636efa;stroke-opacity:1;stroke-width:2px" transform="translate(0 72.5)"/></g></g><path fill="none" d="M0-9.5h119.859v19H0z" class="legendtoggle" style="fill:#000;fill-opacity:0" transform="translate(0 72.5)"/></g><g class="traces" style="opacity:1"><text x="40" y="4.68" class="legendtext" style="font-family:&quot;Open Sans&quot;,verdana,arial,sans-serif;font-size:12px;fill:#000;fill-opacity:1;white-space:pre" transform="translate(0 91.5)">Cumulative 2</text><g class="layers" style="opacity:1"><g class="legendlines"><path d="M5 0h30" class="js-line" style="fill:none;stroke:#ef553b;stroke-opacity:1;stroke-width:2px" transform="translate(0 91.5)"/></g></g><path fill="none" d="M0-9.5h119.859v19H0z" class="legendtoggle" style="fill:#000;fill-opacity:0" transform="translate(0 91.5)"/></g></g></g></g><g class="g-xtitle"><text x="306.5" y="489.206" class="xtitle" style="font-family:&quot;Open Sans&quot;,verdana,arial,sans-serif;font-size:14px;fill:#000;opacity:1;white-space:pre" text-anchor="middle">Value</text></g><g class="g-ytitle"><text x="14.928" y="230" class="ytitle" style="font-family:&quot;Open Sans&quot;,verdana,arial,sans-serif;font-size:14px;fill:#000;opacity:1;white-space:pre" text-anchor="middle" transform="rotate(-90 14.928 230)">Count</text></g><g class="g-y2title"><text x="607.331" y="230" class="y2title" style="font-family:&quot;Open Sans&quot;,verdana,arial,sans-serif;font-size:14px;fill:#636efa;opacity:1;white-space:pre" text-anchor="middle" transform="rotate(-90 607.331 230)">Cumulative</text></g></g></svg>