<svg height="609.946" viewBox="0 0 520.268 457.459" width="693.691" xmlns="http://www.w3.org/2000/svg" xmlns:xlink="http://www.w3.org/1999/xlink"><defs><style>*{stroke-linecap:butt;stroke-linejoin:round}</style></defs><g id="figure_1"><path d="M0 457.46h520.268V0H0z" fill="none" id="patch_1"/><g id="axes_1"><path d="M66.506 411.956h446.4V31.436h-446.4z" fill="#fff" id="patch_2"/><path clip-path="url(#p50e120851c)" d="M73.848 411.956h20.558V66.03H73.848z" fill="#1f77b4" stroke="#000" id="patch_3"/><path clip-path="url(#p50e120851c)" d="M103.217 411.956h20.558V179.35h-20.558z" fill="#1f77b4" stroke="#000" id="patch_4"/><path clip-path="url(#p50e120851c)" d="M132.585 411.956h20.558v-167h-20.558z" fill="#1f77b4" stroke="#000" id="patch_5"/><path clip-path="url(#p50e120851c)" d="M161.954 411.956h20.558V292.671h-20.558z" fill="#1f77b4" stroke="#000" id="patch_6"/><path clip-path="url(#p50e120851c)" d="M191.322 411.956h20.558V292.671h-20.558z" fill="#1f77b4" stroke="#000" id="patch_7"/><path clip-path="url(#p50e120851c)" d="M220.69 411.956h20.558V292.671H220.69z" fill="#1f77b4" stroke="#000" id="patch_8"/><path clip-path="url(#p50e120851c)" d="M250.059 411.956h20.558V292.671h-20.558z" fill="#1f77b4" stroke="#000" id="patch_9"/><path clip-path="url(#p50e120851c)" d="M279.427 411.956h20.558V310.564h-20.558z" fill="#1f77b4" stroke="#000" id="patch_10"/><path clip-path="url(#p50e120851c)" d="M308.796 411.956h20.558V310.564h-20.558z" fill="#1f77b4" stroke="#000" id="patch_11"/><path clip-path="url(#p50e120851c)" d="M338.164 411.956h20.558v-83.5h-20.558z" fill="#1f77b4" stroke="#000" id="patch_12"/><path clip-path="url(#p50e120851c)" d="M367.533 411.956h20.557v-83.5h-20.557z" fill="#1f77b4" stroke="#000" id="patch_13"/><path clip-path="url(#p50e120851c)" d="M396.901 411.956h20.558v-77.535H396.9z" fill="#1f77b4" stroke="#000" id="patch_14"/><path clip-path="url(#p50e120851c)" d="M426.27 411.956h20.557v-77.535H426.27z" fill="#1f77b4" stroke="#000" id="patch_15"/><path clip-path="url(#p50e120851c)" d="M455.638 411.956h20.558v-77.535h-20.558z" fill="#1f77b4" stroke="#000" id="patch_16"/><path clip-path="url(#p50e120851c)" d="M485.006 411.956h20.558v-71.57h-20.558z" fill="#1f77b4" stroke="#000" id="patch_17"/><g id="matplotlib.axis_1"><g id="xtick_1"><g id="line2d_1"><defs><path d="M0 0v7" id="m227286c44a" stroke="#000" stroke-width="2.5"/></defs><use x="84.127" xlink:href="#m227286c44a" y="411.956" stroke="#000" stroke-width="2.5"/></g><g transform="matrix(0 -.2 -.2 0 89.646 436.422)" id="text_1"><defs><path d="M64.406 67.281v-10.39q-4.984 4.64-10.625 6.922-5.64 2.296-11.984 2.296-12.5 0-19.14-7.64-6.641-7.64-6.641-22.094 0-14.406 6.64-22.047 6.64-7.64 19.14-7.64 6.345 0 11.985 2.296 5.64 2.297 10.625 6.938V5.609Q59.234 2.094 53.437.33q-5.78-1.75-12.218-1.75-16.563 0-26.094 10.124-9.516 10.14-9.516 27.672 0 17.578 9.516 27.703 9.531 10.14 26.094 10.14 6.531 0 12.312-1.734 5.797-1.734 10.875-5.203z" id="DejaVuSans-67"/></defs><use xlink:href="#DejaVuSans-67"/></g></g><g id="xtick_2"><use x="113.496" xlink:href="#m227286c44a" y="411.956" stroke="#000" stroke-width="2.5" id="line2d_2"/><g transform="matrix(0 -.2 -.2 0 119.014 440.71)" id="text_2"><defs><path d="M53.516 70.516V60.89q-5.61 2.687-10.594 4-4.984 1.328-9.625 1.328-8.047 0-12.422-3.125t-4.375-8.89q0-4.845 2.906-7.313 2.907-2.453 11.016-3.97l5.953-1.218q11.031-2.11 16.281-7.406 5.25-5.297 5.25-14.172 0-10.61-7.11-16.078-7.093-5.469-20.812-5.469-5.172 0-11.015 1.172Q13.14.922 6.89 3.219v10.156q6-3.36 11.765-5.078 5.766-1.703 11.328-1.703 8.438 0 13.032 3.312 4.593 3.328 4.593 9.485 0 5.359-3.297 8.39-3.296 3.032-10.812 4.547L27.484 33.5q-11.03 2.188-15.968 6.875-4.922 4.688-4.922 13.047 0 9.672 6.812 15.234 6.813 5.563 18.766 5.563 5.14 0 10.453-.938 5.328-.922 10.89-2.765z" id="DejaVuSans-83"/><path d="M9.422 54.688h8.984V0H9.422zm0 21.296h8.984v-11.39H9.422z" id="DejaVuSans-105"/></defs><use xlink:href="#DejaVuSans-83"/><use x="63.477" xlink:href="#DejaVuSans-105"/></g></g><g id="xtick_3"><use x="142.864" xlink:href="#m227286c44a" y="411.956" stroke="#000" stroke-width="2.5" id="line2d_3"/><use xlink:href="#DejaVuSans-83" transform="matrix(0 -.2 -.2 0 148.383 435.153)" id="text_3"/></g><g id="xtick_4"><use x="172.233" xlink:href="#m227286c44a" y="411.956" stroke="#000" stroke-width="2.5" id="line2d_4"/><g transform="matrix(0 -.2 -.2 0 177.751 438.2)" id="text_4"><defs><path d="M39.406 66.219q-10.75 0-17.078-8.016-6.312-8-6.312-21.828 0-13.766 6.312-21.781 6.328-8 17.078-8 10.735 0 17.016 8 6.281 8.015 6.281 21.781 0 13.828-6.281 21.828-6.281 8.016-17.016 8.016zm0 8q15.328 0 24.5-10.281 9.188-10.282 9.188-27.563 0-17.234-9.188-27.516-9.172-10.28-24.5-10.28-15.375 0-24.593 10.25-9.204 10.265-9.204 27.546t9.204 27.563q9.218 10.28 24.593 10.28z" id="DejaVuSans-79"/></defs><use xlink:href="#DejaVuSans-79"/></g></g><g id="xtick_5"><use x="201.601" xlink:href="#m227286c44a" y="411.956" stroke="#000" stroke-width="2.5" id="line2d_5"/><g transform="matrix(0 -.2 -.2 0 207.12 435.572)" id="text_5"><defs><path d="M9.813 72.906h9.859V42.094L52.39 72.906h12.703L28.906 38.922 67.672 0H54.688L19.672 35.11V0h-9.86z" id="DejaVuSans-75"/></defs><use xlink:href="#DejaVuSans-75"/></g></g><g id="xtick_6"><use x="230.969" xlink:href="#m227286c44a" y="411.956" stroke="#000" stroke-width="2.5" id="line2d_6"/><g transform="matrix(0 -.2 -.2 0 236.488 449.05)" id="text_6"><defs><path d="M44.39 34.188q3.172-1.079 6.172-4.594 3-3.516 6.032-9.672L66.609 0H56l-9.313 18.703q-3.624 7.328-7.015 9.719-3.39 2.39-9.25 2.39h-10.75V0h-9.86v72.906h22.266q12.5 0 18.656-5.234 6.157-5.219 6.157-15.766 0-6.89-3.203-11.437-3.204-4.532-9.297-6.282zM19.673 64.797V38.922h12.406q7.125 0 10.766 3.297 3.64 3.297 3.64 9.687 0 6.39-3.64 9.64-3.64 3.25-10.766 3.25z" id="DejaVuSans-82"/><path d="M48.688 27.297q0 9.906-4.079 15.547-4.078 5.64-11.203 5.64-7.14 0-11.218-5.64-4.079-5.64-4.079-15.547 0-9.906 4.078-15.547 4.079-5.64 11.22-5.64 7.124 0 11.202 5.64t4.078 15.547zM18.108 46.39q2.844 4.875 7.157 7.234Q29.594 56 35.594 56q9.968 0 16.187-7.906 6.235-7.907 6.235-20.797T51.78 6.484q-6.218-7.906-16.187-7.906-6 0-10.328 2.375-4.313 2.375-7.157 7.25V0H9.08v75.984h9.03z" id="DejaVuSans-98"/></defs><use xlink:href="#DejaVuSans-82"/><use x="69.482" xlink:href="#DejaVuSans-98"/></g></g><g id="xtick_7"><use x="260.338" xlink:href="#m227286c44a" y="411.956" stroke="#000" stroke-width="2.5" id="line2d_7"/><g transform="matrix(0 -.2 -.2 0 265.857 450.194)" id="text_7"><defs><path d="M9.813 72.906h9.859v-29.89h35.844v29.89h9.859V0h-9.86v34.719H19.673V0h-9.86z" id="DejaVuSans-72"/><path d="M45.406 27.984q0 9.766-4.031 15.125-4.016 5.375-11.297 5.375-7.219 0-11.25-5.375-4.031-5.359-4.031-15.125 0-9.718 4.031-15.093t11.25-5.375q7.281 0 11.297 5.375 4.031 5.375 4.031 15.093zm8.985-21.203q0-13.953-6.203-20.765Q42-20.797 29.203-20.797q-4.734 0-8.937.703-4.203.703-8.157 2.172v8.735q3.954-2.141 7.813-3.157 3.86-1.031 7.86-1.031 8.843 0 13.234 4.61 4.39 4.609 4.39 13.937v4.453q-2.781-4.844-7.125-7.234Q33.938 0 27.875 0 17.828 0 11.672 7.656q-6.156 7.672-6.156 20.328 0 12.688 6.156 20.344Q17.828 56 27.875 56q6.063 0 10.406-2.39 4.344-2.391 7.125-7.22v8.297h8.985z" id="DejaVuSans-103"/></defs><use xlink:href="#DejaVuSans-72"/><use x="75.195" xlink:href="#DejaVuSans-103"/></g></g><g id="xtick_8"><use x="289.706" xlink:href="#m227286c44a" y="411.956" stroke="#000" stroke-width="2.5" id="line2d_8"/><use xlink:href="#DejaVuSans-72" transform="matrix(0 -.2 -.2 0 295.225 437.497)" id="text_8"/></g><g id="xtick_9"><use x="319.075" xlink:href="#m227286c44a" y="411.956" stroke="#000" stroke-width="2.5" id="line2d_9"/><g transform="matrix(0 -.2 -.2 0 324.593 450.26)" id="text_9"><defs><path d="M59.516 10.406v19.578h-16.11v8.11h25.875V6.78Q63.578 2.734 56.687.656 49.813-1.422 42-1.422q-17.094 0-26.75 9.985-9.64 10-9.64 27.812 0 17.875 9.64 27.86 9.656 9.984 26.75 9.984 7.125 0 13.547-1.766 6.422-1.75 11.844-5.172v-10.5q-5.47 4.64-11.625 6.985-6.157 2.343-12.938 2.343-13.39 0-20.11-7.468-6.702-7.47-6.702-22.266 0-14.75 6.703-22.219 6.718-7.469 20.11-7.469 5.218 0 9.312.907 4.109.906 7.375 2.812z" id="DejaVuSans-71"/><path d="M56.203 29.594v-4.39H14.891q.593-9.282 5.593-14.142 5-4.859 13.938-4.859 5.172 0 10.031 1.266 4.86 1.265 9.656 3.812v-8.5Q49.266.734 44.187-.344 39.11-1.422 33.892-1.422q-13.094 0-20.735 7.61-7.64 7.625-7.64 20.625 0 13.421 7.25 21.296Q20.016 56 32.328 56q11.031 0 17.453-7.11 6.422-7.093 6.422-19.296zm-8.984 2.64q-.094 7.36-4.125 11.75-4.032 4.407-10.672 4.407-7.516 0-12.031-4.25-4.516-4.25-5.203-11.97z" id="DejaVuSans-101"/></defs><use xlink:href="#DejaVuSans-71"/><use x="77.49" xlink:href="#DejaVuSans-101"/></g></g><g id="xtick_10"><use x="348.443" xlink:href="#m227286c44a" y="411.956" stroke="#000" stroke-width="2.5" id="line2d_10"/><g transform="matrix(0 -.2 -.2 0 353.962 446.84)" id="text_10"><defs><path d="M44.281 53.078v-8.5q-3.797 1.953-7.906 2.922-4.094.984-8.5.984-6.688 0-10.031-2.047-3.344-2.046-3.344-6.156 0-3.125 2.39-4.906 2.391-1.781 9.626-3.39l3.078-.688q9.562-2.047 13.593-5.781 4.032-3.735 4.032-10.422 0-7.625-6.032-12.078-6.03-4.438-16.578-4.438-4.39 0-9.156.86Q10.688.296 5.422 2v9.281q4.984-2.594 9.812-3.89 4.829-1.282 9.579-1.282 6.343 0 9.75 2.172 3.421 2.172 3.421 6.125 0 3.656-2.468 5.61-2.453 1.953-10.813 3.765l-3.125.735q-8.344 1.75-12.062 5.39-3.704 3.64-3.704 9.985 0 7.718 5.47 11.906Q16.75 56 26.811 56q4.97 0 9.36-.734 4.406-.72 8.11-2.188z" id="DejaVuSans-115"/></defs><use xlink:href="#DejaVuSans-67"/><use x="69.824" xlink:href="#DejaVuSans-115"/></g></g><g id="xtick_11"><use x="377.812" xlink:href="#m227286c44a" y="411.956" stroke="#000" stroke-width="2.5" id="line2d_11"/><g transform="matrix(0 -.2 -.2 0 383.33 437.419)" id="text_11"><defs><path d="M9.813 72.906h13.28l32.329-60.984v60.984h9.562V0h-13.28L19.39 60.984V0H9.813z" id="DejaVuSans-78"/></defs><use xlink:href="#DejaVuSans-78"/></g></g><g id="xtick_12"><use x="407.18" xlink:href="#m227286c44a" y="411.956" stroke="#000" stroke-width="2.5" id="line2d_12"/><g transform="matrix(0 -.2 -.2 0 412.699 441.734)" id="text_12"><defs><path d="M19.672 34.813V8.108H35.5q7.953 0 11.781 3.297 3.844 3.297 3.844 10.078 0 6.844-3.844 10.078-3.828 3.25-11.781 3.25zm0 29.984V42.828h14.61q7.218 0 10.75 2.703 3.546 2.719 3.546 8.282 0 5.515-3.547 8.25-3.531 2.734-10.75 2.734zm-9.86 8.11h25.204q11.28 0 17.375-4.688Q58.5 63.53 58.5 54.89q0-6.703-3.125-10.657-3.125-3.953-9.188-4.922 7.282-1.562 11.313-6.53 4.031-4.954 4.031-12.376 0-9.765-6.64-15.093Q48.25 0 35.984 0H9.812z" id="DejaVuSans-66"/></defs><use xlink:href="#DejaVuSans-66"/><use x="68.604" xlink:href="#DejaVuSans-105"/></g></g><g id="xtick_13"><use x="436.548" xlink:href="#m227286c44a" y="411.956" stroke="#000" stroke-width="2.5" id="line2d_13"/><g transform="matrix(0 -.2 -.2 0 442.067 449.675)" id="text_13"><defs><path d="M34.281 27.484q-10.89 0-15.093-2.484-4.204-2.484-4.204-8.5 0-4.781 3.157-7.594 3.156-2.797 8.562-2.797 7.485 0 12 5.297 4.516 5.297 4.516 14.078v2zm17.922 3.72V0H43.22v8.297Q40.14 3.328 35.547.953q-4.594-2.375-11.234-2.375-8.391 0-13.36 4.719Q6 8.016 6 15.922q0 9.219 6.172 13.906 6.187 4.688 18.437 4.688h12.61v.89q0 6.203-4.078 9.594-4.078 3.39-11.453 3.39-4.688 0-9.141-1.124-4.438-1.125-8.531-3.375v8.312q4.921 1.906 9.562 2.844 4.64.953 9.031.953 11.875 0 17.735-6.156 5.86-6.14 5.86-18.64z" id="DejaVuSans-97"/></defs><use xlink:href="#DejaVuSans-78"/><use x="74.805" xlink:href="#DejaVuSans-97"/></g></g><g id="xtick_14"><use x="465.917" xlink:href="#m227286c44a" y="411.956" stroke="#000" stroke-width="2.5" id="line2d_14"/><g transform="matrix(0 -.2 -.2 0 471.436 434.516)" id="text_14"><defs><path d="M19.672 64.797v-27.39h12.406q6.89 0 10.64 3.562 3.766 3.562 3.766 10.156 0 6.547-3.765 10.11-3.75 3.562-10.64 3.562zm-9.86 8.11h22.266q12.266 0 18.531-5.548 6.282-5.546 6.282-16.234 0-10.797-6.282-16.313-6.265-5.515-18.53-5.515H19.671V0h-9.86z" id="DejaVuSans-80"/></defs><use xlink:href="#DejaVuSans-80"/></g></g><g id="xtick_15"><use x="495.285" xlink:href="#m227286c44a" y="411.956" stroke="#000" stroke-width="2.5" id="line2d_15"/><use xlink:href="#DejaVuSans-66" transform="matrix(0 -.2 -.2 0 500.804 436.178)" id="text_15"/></g></g><g id="matplotlib.axis_2"><g id="ytick_1"><g id="line2d_16"><defs><path d="M0 0h-7" id="mce02b7dbc4" stroke="#000" stroke-width="2.5"/></defs><use x="66.506" xlink:href="#mce02b7dbc4" y="411.956" stroke="#000" stroke-width="2.5"/></g><g transform="matrix(.2 0 0 -.2 43.281 419.555)" id="text_16"><defs><path d="M31.781 66.406q-7.61 0-11.453-7.5Q16.5 51.422 16.5 36.375q0-14.984 3.828-22.484 3.844-7.5 11.453-7.5 7.672 0 11.5 7.5 3.844 7.5 3.844 22.484 0 15.047-3.844 22.531-3.828 7.5-11.5 7.5zm0 7.813q12.266 0 18.735-9.703 6.468-9.688 6.468-28.141 0-18.406-6.468-28.11-6.47-9.687-18.735-9.687-12.25 0-18.718 9.688-6.47 9.703-6.47 28.109 0 18.453 6.47 28.14Q19.53 74.22 31.78 74.22z" id="DejaVuSans-48"/></defs><use xlink:href="#DejaVuSans-48"/></g></g><g id="ytick_2"><use x="66.506" xlink:href="#mce02b7dbc4" y="352.314" stroke="#000" stroke-width="2.5" id="line2d_17"/><g transform="matrix(.2 0 0 -.2 30.556 359.912)" id="text_17"><defs><path d="M12.406 8.297h16.11v55.625l-17.532-3.516v8.985l17.438 3.515h9.86V8.296H54.39V0H12.406z" id="DejaVuSans-49"/></defs><use xlink:href="#DejaVuSans-49"/><use x="63.623" xlink:href="#DejaVuSans-48"/></g></g><g id="ytick_3"><use x="66.506" xlink:href="#mce02b7dbc4" y="292.671" stroke="#000" stroke-width="2.5" id="line2d_18"/><g transform="matrix(.2 0 0 -.2 30.556 300.27)" id="text_18"><defs><path d="M19.188 8.297h34.421V0H7.33v8.297q5.609 5.812 15.296 15.594 9.703 9.797 12.188 12.64 4.734 5.313 6.609 9 1.89 3.688 1.89 7.25 0 5.813-4.078 9.469-4.078 3.672-10.625 3.672-4.64 0-9.797-1.61-5.14-1.609-11-4.89v9.969Q13.767 71.78 18.938 73q5.188 1.219 9.485 1.219 11.328 0 18.062-5.672 6.735-5.656 6.735-15.125 0-4.5-1.688-8.531-1.672-4.016-6.125-9.485-1.218-1.422-7.765-8.187-6.532-6.766-18.453-18.922z" id="DejaVuSans-50"/></defs><use xlink:href="#DejaVuSans-50"/><use x="63.623" xlink:href="#DejaVuSans-48"/></g></g><g id="ytick_4"><use x="66.506" xlink:href="#mce02b7dbc4" y="233.028" stroke="#000" stroke-width="2.5" id="line2d_19"/><g transform="matrix(.2 0 0 -.2 30.556 240.627)" id="text_19"><defs><path d="M40.578 39.313Q47.656 37.797 51.625 33q3.984-4.781 3.984-11.813 0-10.78-7.422-16.703-7.421-5.906-21.093-5.906-4.578 0-9.438.906-4.86.907-10.031 2.72v9.515q4.094-2.39 8.969-3.61 4.89-1.218 10.218-1.218 9.266 0 14.125 3.656 4.86 3.656 4.86 10.64 0 6.454-4.516 10.079-4.515 3.64-12.562 3.64h-8.5v8.11h8.89q7.266 0 11.125 2.906 3.86 2.906 3.86 8.375 0 5.61-3.985 8.61-3.968 3.015-11.39 3.015-4.063 0-8.703-.89-4.641-.876-10.203-2.72v8.782q5.624 1.562 10.53 2.344 4.907.78 9.25.78 11.235 0 17.766-5.109 6.547-5.093 6.547-13.78 0-6.063-3.468-10.235-3.47-4.172-9.86-5.782z" id="DejaVuSans-51"/></defs><use xlink:href="#DejaVuSans-51"/><use x="63.623" xlink:href="#DejaVuSans-48"/></g></g><g id="ytick_5"><use x="66.506" xlink:href="#mce02b7dbc4" y="173.386" stroke="#000" stroke-width="2.5" id="line2d_20"/><g transform="matrix(.2 0 0 -.2 30.556 180.984)" id="text_20"><defs><path d="M37.797 64.313 12.89 25.39h24.906zm-2.594 8.593H47.61V25.391h10.407v-8.203H47.609V0h-9.812v17.188H4.89v9.515z" id="DejaVuSans-52"/></defs><use xlink:href="#DejaVuSans-52"/><use x="63.623" xlink:href="#DejaVuSans-48"/></g></g><g id="ytick_6"><use x="66.506" xlink:href="#mce02b7dbc4" y="113.743" stroke="#000" stroke-width="2.5" id="line2d_21"/><g transform="matrix(.2 0 0 -.2 30.556 121.342)" id="text_21"><defs><path d="M10.797 72.906h38.719v-8.312H19.828v-17.86q2.14.735 4.281 1.094 2.157.36 4.313.36 12.203 0 19.328-6.688 7.14-6.688 7.14-18.11 0-11.765-7.328-18.296-7.328-6.516-20.656-6.516-4.593 0-9.36.781-4.75.782-9.827 2.344v9.922q4.39-2.39 9.078-3.563 4.687-1.171 9.906-1.171 8.453 0 13.375 4.437 4.938 4.438 4.938 12.063 0 7.609-4.938 12.047-4.922 4.453-13.375 4.453-3.953 0-7.89-.875-3.922-.875-8.016-2.735z" id="DejaVuSans-53"/></defs><use xlink:href="#DejaVuSans-53"/><use x="63.623" xlink:href="#DejaVuSans-48"/></g></g><g id="ytick_7"><use x="66.506" xlink:href="#mce02b7dbc4" y="54.1" stroke="#000" stroke-width="2.5" id="line2d_22"/><g transform="matrix(.2 0 0 -.2 30.556 61.699)" id="text_22"><defs><path d="M33.016 40.375q-6.641 0-10.532-4.547-3.875-4.531-3.875-12.437 0-7.86 3.875-12.438 3.891-4.562 10.532-4.562 6.64 0 10.515 4.562 3.875 4.578 3.875 12.438 0 7.906-3.875 12.437-3.875 4.547-10.515 4.547zm19.578 30.922v-8.984q-3.719 1.75-7.5 2.671-3.782.938-7.5.938-9.766 0-14.922-6.594-5.14-6.594-5.875-19.922 2.875 4.25 7.219 6.516 4.359 2.266 9.578 2.266 10.984 0 17.36-6.672 6.374-6.657 6.374-18.125 0-11.235-6.64-18.032-6.641-6.78-17.672-6.78-12.657 0-19.344 9.687-6.688 9.703-6.688 28.109 0 17.281 8.204 27.563 8.203 10.28 22.015 10.28 3.719 0 7.5-.734t7.89-2.187z" id="DejaVuSans-54"/></defs><use xlink:href="#DejaVuSans-54"/><use x="63.623" xlink:href="#DejaVuSans-48"/></g></g><g transform="matrix(0 -.2 -.2 0 22.397 295.973)" id="text_23"><defs><path d="M9.813 72.906h46.093v-8.312H19.672V43.016H54.39v-8.297H19.67V8.297h37.11V0H9.813z" id="DejaVuSans-69"/><path d="M9.422 75.984h8.984V0H9.422z" id="DejaVuSans-108"/><path d="M52 44.188q3.375 6.062 8.063 8.937Q64.75 56 71.093 56q8.548 0 13.188-5.984 4.64-5.97 4.64-17V0h-9.03v32.719q0 7.86-2.797 11.656-2.781 3.813-8.485 3.813-6.984 0-11.046-4.641-4.047-4.625-4.047-12.64V0h-9.032v32.719q0 7.906-2.78 11.687-2.782 3.782-8.595 3.782-6.89 0-10.953-4.657-4.047-4.656-4.047-12.625V0H9.08v54.688h9.03v-8.5q3.078 5.03 7.375 7.421Q29.781 56 35.687 56q5.97 0 10.141-3.031Q50 49.953 52 44.187z" id="DejaVuSans-109"/><path d="M54.89 33.016V0h-8.984v32.719q0 7.765-3.031 11.61-3.031 3.858-9.078 3.858-7.281 0-11.484-4.64-4.204-4.625-4.204-12.64V0H9.08v54.688h9.03v-8.5q3.235 4.937 7.594 7.374Q30.078 56 35.797 56q9.422 0 14.25-5.828 4.844-5.828 4.844-17.156z" id="DejaVuSans-110"/><path d="M18.313 70.219V54.688h18.5v-6.985h-18.5V18.016q0-6.688 1.828-8.594 1.828-1.906 7.453-1.906h9.218V0h-9.218q-10.407 0-14.36 3.875-3.953 3.89-3.953 14.14v29.688H2.687v6.984h6.594V70.22z" id="DejaVuSans-116"/><path d="M30.61 48.39q-7.22 0-11.422-5.64-4.204-5.64-4.204-15.453 0-9.813 4.172-15.453 4.188-5.64 11.453-5.64 7.188 0 11.375 5.655 4.203 5.672 4.203 15.438 0 9.719-4.203 15.406-4.187 5.688-11.375 5.688zm0 7.61q11.718 0 18.406-7.625 6.703-7.61 6.703-21.078 0-13.422-6.703-21.078-6.688-7.64-18.407-7.64-11.765 0-18.437 7.64-6.656 7.656-6.656 21.078 0 13.469 6.656 21.078Q18.844 56 30.609 56z" id="DejaVuSans-111"/><path d="M8.5 21.578v33.11h8.984V21.922q0-7.766 3.016-11.656 3.031-3.875 9.094-3.875 7.265 0 11.484 4.64 4.234 4.64 4.234 12.656v31h8.985V0h-8.984v8.406Q42.047 3.422 37.718 1q-4.313-2.422-10.032-2.422-9.421 0-14.312 5.86Q8.5 10.296 8.5 21.578zM31.11 56z" id="DejaVuSans-117"/></defs><use xlink:href="#DejaVuSans-69"/><use x="63.184" xlink:href="#DejaVuSans-108"/><use x="90.967" xlink:href="#DejaVuSans-101"/><use x="152.49" xlink:href="#DejaVuSans-109"/><use x="249.902" xlink:href="#DejaVuSans-101"/><use x="311.426" xlink:href="#DejaVuSans-110"/><use x="374.805" xlink:href="#DejaVuSans-116"/><use x="414.014" xlink:href="#DejaVuSans-32"/><use x="445.801" xlink:href="#DejaVuSans-67"/><use x="515.625" xlink:href="#DejaVuSans-111"/><use x="576.807" xlink:href="#DejaVuSans-117"/><use x="640.186" xlink:href="#DejaVuSans-110"/><use x="703.564" xlink:href="#DejaVuSans-116"/></g></g><path d="M66.506 411.956V31.436" fill="none" stroke="#000" stroke-linecap="square" stroke-width="2.5" id="patch_18"/><path d="M512.906 411.956V31.436" fill="none" stroke="#000" stroke-linecap="square" stroke-width="2.5" id="patch_19"/><path d="M66.506 411.956h446.4" fill="none" stroke="#000" stroke-linecap="square" stroke-width="2.5" id="patch_20"/><path d="M66.506 31.436h446.4" fill="none" stroke="#000" stroke-linecap="square" stroke-width="2.5" id="patch_21"/><g transform="matrix(.14 0 0 -.14 61.89 60.065)" id="text_24"><defs><path d="M31.781 34.625q-7.031 0-11.062-3.766-4.016-3.765-4.016-10.343 0-6.594 4.016-10.36Q24.75 6.391 31.78 6.391q7.032 0 11.078 3.78 4.063 3.798 4.063 10.345 0 6.578-4.031 10.343-4.016 3.766-11.11 3.766zm-9.86 4.188q-6.343 1.562-9.89 5.906Q8.5 49.079 8.5 55.329q0 8.733 6.219 13.812 6.234 5.078 17.062 5.078 10.89 0 17.094-5.078 6.203-5.079 6.203-13.813 0-6.25-3.547-10.61-3.531-4.343-9.828-5.906 7.125-1.656 11.094-6.5 3.984-4.828 3.984-11.796 0-10.61-6.468-16.282-6.47-5.656-18.532-5.656-12.047 0-18.531 5.656-6.469 5.672-6.469 16.282 0 6.968 4 11.797 4.016 4.843 11.14 6.5zM18.314 54.39q0-5.657 3.53-8.828 3.548-3.172 9.938-3.172 6.36 0 9.938 3.172 3.593 3.171 3.593 8.828 0 5.672-3.593 8.843-3.578 3.172-9.938 3.172-6.39 0-9.937-3.172-3.532-3.172-3.532-8.843z" id="DejaVuSans-56"/><path d="M10.688 12.406H21V0H10.687z" id="DejaVuSans-46"/><path d="M72.703 32.078q-4.25 0-6.672-3.61-2.406-3.609-2.406-10.062 0-6.343 2.406-9.984 2.422-3.64 6.672-3.64 4.156 0 6.563 3.64 2.421 3.64 2.421 9.984 0 6.407-2.421 10.032-2.407 3.64-6.563 3.64zm0 6.203q7.719 0 12.25-5.375 4.547-5.36 4.547-14.5 0-9.125-4.563-14.484-4.562-5.344-12.234-5.344-7.812 0-12.36 5.344-4.53 5.36-4.53 14.484 0 9.188 4.562 14.532 4.563 5.343 12.328 5.343zm-50.39 29.735q-4.204 0-6.625-3.641-2.407-3.625-2.407-9.984 0-6.438 2.39-10.063 2.392-3.61 6.642-3.61t6.656 3.61q2.422 3.625 2.422 10.063 0 6.297-2.438 9.953-2.437 3.672-6.64 3.672zm44.093 6.203h7.813l-45.61-75.64h-7.812zm-44.094 0q7.72 0 12.297-5.344 4.594-5.344 4.594-14.484 0-9.22-4.562-14.547-4.563-5.328-12.328-5.328-7.766 0-12.282 5.343-4.515 5.36-4.515 14.532 0 9.093 4.53 14.453 4.548 5.375 12.267 5.375z" id="DejaVuSans-37"/></defs><use xlink:href="#DejaVuSans-49"/><use x="63.623" xlink:href="#DejaVuSans-56"/><use x="127.246" xlink:href="#DejaVuSans-46"/><use x="159.033" xlink:href="#DejaVuSans-50"/><use x="222.656" xlink:href="#DejaVuSans-37"/></g><g transform="matrix(.14 0 0 -.14 91.259 173.386)" id="text_25"><use xlink:href="#DejaVuSans-49"/><use x="63.623" xlink:href="#DejaVuSans-50"/><use x="127.246" xlink:href="#DejaVuSans-46"/><use x="159.033" xlink:href="#DejaVuSans-51"/><use x="222.656" xlink:href="#DejaVuSans-37"/></g><g transform="matrix(.14 0 0 -.14 125.08 238.993)" id="text_26"><use xlink:href="#DejaVuSans-56"/><use x="63.623" xlink:href="#DejaVuSans-46"/><use x="95.41" xlink:href="#DejaVuSans-56"/><use x="159.033" xlink:href="#DejaVuSans-37"/></g><g transform="matrix(.14 0 0 -.14 154.45 286.707)" id="text_27"><use xlink:href="#DejaVuSans-54"/><use x="63.623" xlink:href="#DejaVuSans-46"/><use x="95.41" xlink:href="#DejaVuSans-51"/><use x="159.033" xlink:href="#DejaVuSans-37"/></g><g transform="matrix(.14 0 0 -.14 183.818 286.707)" id="text_28"><use xlink:href="#DejaVuSans-54"/><use x="63.623" xlink:href="#DejaVuSans-46"/><use x="95.41" xlink:href="#DejaVuSans-51"/><use x="159.033" xlink:href="#DejaVuSans-37"/></g><g transform="matrix(.14 0 0 -.14 213.186 286.707)" id="text_29"><use xlink:href="#DejaVuSans-54"/><use x="63.623" xlink:href="#DejaVuSans-46"/><use x="95.41" xlink:href="#DejaVuSans-51"/><use x="159.033" xlink:href="#DejaVuSans-37"/></g><g transform="matrix(.14 0 0 -.14 242.555 286.707)" id="text_30"><use xlink:href="#DejaVuSans-54"/><use x="63.623" xlink:href="#DejaVuSans-46"/><use x="95.41" xlink:href="#DejaVuSans-51"/><use x="159.033" xlink:href="#DejaVuSans-37"/></g><g transform="matrix(.14 0 0 -.14 271.923 304.6)" id="text_31"><use xlink:href="#DejaVuSans-53"/><use x="63.623" xlink:href="#DejaVuSans-46"/><use x="95.41" xlink:href="#DejaVuSans-51"/><use x="159.033" xlink:href="#DejaVuSans-37"/></g><g transform="matrix(.14 0 0 -.14 301.291 304.6)" id="text_32"><use xlink:href="#DejaVuSans-53"/><use x="63.623" xlink:href="#DejaVuSans-46"/><use x="95.41" xlink:href="#DejaVuSans-51"/><use x="159.033" xlink:href="#DejaVuSans-37"/></g><g transform="matrix(.14 0 0 -.14 330.66 322.492)" id="text_33"><use xlink:href="#DejaVuSans-52"/><use x="63.623" xlink:href="#DejaVuSans-46"/><use x="95.41" xlink:href="#DejaVuSans-52"/><use x="159.033" xlink:href="#DejaVuSans-37"/></g><g transform="matrix(.14 0 0 -.14 360.028 322.492)" id="text_34"><use xlink:href="#DejaVuSans-52"/><use x="63.623" xlink:href="#DejaVuSans-46"/><use x="95.41" xlink:href="#DejaVuSans-52"/><use x="159.033" xlink:href="#DejaVuSans-37"/></g><g transform="matrix(.14 0 0 -.14 389.397 328.457)" id="text_35"><use xlink:href="#DejaVuSans-52"/><use x="63.623" xlink:href="#DejaVuSans-46"/><use x="95.41" xlink:href="#DejaVuSans-49"/><use x="159.033" xlink:href="#DejaVuSans-37"/></g><g transform="matrix(.14 0 0 -.14 418.765 328.457)" id="text_36"><use xlink:href="#DejaVuSans-52"/><use x="63.623" xlink:href="#DejaVuSans-46"/><use x="95.41" xlink:href="#DejaVuSans-49"/><use x="159.033" xlink:href="#DejaVuSans-37"/></g><g transform="matrix(.14 0 0 -.14 448.133 328.457)" id="text_37"><use xlink:href="#DejaVuSans-52"/><use x="63.623" xlink:href="#DejaVuSans-46"/><use x="95.41" xlink:href="#DejaVuSans-49"/><use x="159.033" xlink:href="#DejaVuSans-37"/></g><g transform="matrix(.14 0 0 -.14 477.502 334.42)" id="text_38"><use xlink:href="#DejaVuSans-51"/><use x="63.623" xlink:href="#DejaVuSans-46"/><use x="95.41" xlink:href="#DejaVuSans-56"/><use x="159.033" xlink:href="#DejaVuSans-37"/></g><g transform="matrix(.24 0 0 -.24 190.626 25.436)" id="text_39"><defs><path d="M-.297 72.906h61.672v-8.312H35.5V0h-9.906v64.594H-.296z" id="DejaVuSans-84"/><path d="M18.11 8.203v-29H9.077v75.484h9.031v-8.296q2.844 4.875 7.157 7.234Q29.594 56 35.594 56q9.968 0 16.187-7.906 6.235-7.907 6.235-20.797T51.78 6.484q-6.218-7.906-16.187-7.906-6 0-10.328 2.375-4.313 2.375-7.157 7.25zm30.578 19.094q0 9.906-4.079 15.547-4.078 5.64-11.203 5.64-7.14 0-11.218-5.64-4.079-5.64-4.079-15.547 0-9.906 4.078-15.547 4.079-5.64 11.22-5.64 7.124 0 11.202 5.64t4.078 15.547z" id="DejaVuSans-112"/></defs><use xlink:href="#DejaVuSans-84"/><use x="44.084" xlink:href="#DejaVuSans-111"/><use x="105.266" xlink:href="#DejaVuSans-112"/><use x="168.742" xlink:href="#DejaVuSans-32"/><use x="200.529" xlink:href="#DejaVuSans-49"/><use x="264.152" xlink:href="#DejaVuSans-53"/><use x="327.775" xlink:href="#DejaVuSans-32"/><use x="359.563" xlink:href="#DejaVuSans-69"/><use x="422.746" xlink:href="#DejaVuSans-108"/><use x="450.529" xlink:href="#DejaVuSans-101"/><use x="512.053" xlink:href="#DejaVuSans-109"/><use x="609.465" xlink:href="#DejaVuSans-101"/><use x="670.988" xlink:href="#DejaVuSans-110"/><use x="734.367" xlink:href="#DejaVuSans-116"/><use x="773.576" xlink:href="#DejaVuSans-115"/></g></g></g><defs><clipPath id="p50e120851c"><path d="M66.506 31.436h446.4v380.52h-446.4z"/></clipPath></defs></svg>