<svg xmlns="http://www.w3.org/2000/svg" xmlns:xlink="http://www.w3.org/1999/xlink" width="681.359" height="566.368" viewBox="0 0 511.019 424.776"><defs><style>*{stroke-linecap:butt;stroke-linejoin:round}</style></defs><g id="figure_1"><path id="patch_1" fill="none" d="M0 424.776h511.02V0H0z"/><g id="axes_1"><path id="patch_2" fill="#fff" d="M49.506 387.72h446.4V7.2h-446.4z"/><path id="patch_3" fill="#1f77b4" stroke="#000" d="M69.797 387.72h7.93V112.296h-7.93z" clip-path="url(#p40d718c5ff)"/><path id="patch_4" fill="#1f77b4" stroke="#000" d="M77.726 387.72h7.929V25.32h-7.929z" clip-path="url(#p40d718c5ff)"/><path id="patch_5" fill="#1f77b4" stroke="#000" d="M85.655 387.72h7.929V25.32h-7.929z" clip-path="url(#p40d718c5ff)"/><path id="patch_6" fill="#1f77b4" stroke="#000" d="M93.584 387.72h7.929V83.304h-7.93z" clip-path="url(#p40d718c5ff)"/><path id="patch_7" fill="#1f77b4" stroke="#000" d="M101.513 387.72h7.929V97.8h-7.93z" clip-path="url(#p40d718c5ff)"/><path id="patch_8" fill="#1f77b4" stroke="#000" d="M109.442 387.72h7.929V68.808h-7.93z" clip-path="url(#p40d718c5ff)"/><path id="patch_9" fill="#1f77b4" stroke="#000" d="M117.37 387.72h7.93V141.288h-7.93z" clip-path="url(#p40d718c5ff)"/><path id="patch_10" fill="#1f77b4" stroke="#000" d="M125.3 387.72h7.928V112.296H125.3z" clip-path="url(#p40d718c5ff)"/><path id="patch_11" fill="#1f77b4" stroke="#000" d="M133.228 387.72h7.93V155.784h-7.93z" clip-path="url(#p40d718c5ff)"/><path id="patch_12" fill="#1f77b4" stroke="#000" d="M141.157 387.72h7.93V170.28h-7.93z" clip-path="url(#p40d718c5ff)"/><path id="patch_13" fill="#1f77b4" stroke="#000" d="M149.086 387.72h7.93V170.28h-7.93z" clip-path="url(#p40d718c5ff)"/><path id="patch_14" fill="#1f77b4" stroke="#000" d="M157.015 387.72h7.929V170.28h-7.929z" clip-path="url(#p40d718c5ff)"/><path id="patch_15" fill="#1f77b4" stroke="#000" d="M164.944 387.72h7.929V184.776h-7.929z" clip-path="url(#p40d718c5ff)"/><path id="patch_16" fill="#1f77b4" stroke="#000" d="M172.873 387.72h7.929V199.272h-7.93z" clip-path="url(#p40d718c5ff)"/><path id="patch_17" fill="#1f77b4" stroke="#000" d="M180.802 387.72h7.929V213.768h-7.93z" clip-path="url(#p40d718c5ff)"/><path id="patch_18" fill="#1f77b4" stroke="#000" d="M188.73 387.72h7.93V170.28h-7.93z" clip-path="url(#p40d718c5ff)"/><path id="patch_19" fill="#1f77b4" stroke="#000" d="M196.66 387.72h7.929V242.76h-7.93z" clip-path="url(#p40d718c5ff)"/><path id="patch_20" fill="#1f77b4" stroke="#000" d="M204.589 387.72h7.928V228.264h-7.928z" clip-path="url(#p40d718c5ff)"/><path id="patch_21" fill="#1f77b4" stroke="#000" d="M212.517 387.72h7.93V213.768h-7.93z" clip-path="url(#p40d718c5ff)"/><path id="patch_22" fill="#1f77b4" stroke="#000" d="M220.446 387.72h7.93V242.76h-7.93z" clip-path="url(#p40d718c5ff)"/><path id="patch_23" fill="#1f77b4" stroke="#000" d="M228.375 387.72h7.93V228.264h-7.93z" clip-path="url(#p40d718c5ff)"/><path id="patch_24" fill="#1f77b4" stroke="#000" d="M236.304 387.72h7.929V271.752h-7.929z" clip-path="url(#p40d718c5ff)"/><path id="patch_25" fill="#1f77b4" stroke="#000" d="M244.233 387.72h7.929V257.256h-7.929z" clip-path="url(#p40d718c5ff)"/><path id="patch_26" fill="#1f77b4" stroke="#000" d="M252.162 387.72h7.929V242.76h-7.93z" clip-path="url(#p40d718c5ff)"/><path id="patch_27" fill="#1f77b4" stroke="#000" d="M260.09 387.72h7.93V286.248h-7.93z" clip-path="url(#p40d718c5ff)"/><path id="patch_28" fill="#1f77b4" stroke="#000" d="M268.02 387.72h7.929V242.76h-7.93z" clip-path="url(#p40d718c5ff)"/><path id="patch_29" fill="#1f77b4" stroke="#000" d="M275.949 387.72h7.929V271.752h-7.93z" clip-path="url(#p40d718c5ff)"/><path id="patch_30" fill="#1f77b4" stroke="#000" d="M283.878 387.72h7.928V271.752h-7.928z" clip-path="url(#p40d718c5ff)"/><path id="patch_31" fill="#1f77b4" stroke="#000" d="M291.806 387.72h7.93v-86.976h-7.93z" clip-path="url(#p40d718c5ff)"/><path id="patch_32" fill="#1f77b4" stroke="#000" d="M299.735 387.72h7.93V286.248h-7.93z" clip-path="url(#p40d718c5ff)"/><path id="patch_33" fill="#1f77b4" stroke="#000" d="M307.664 387.72h7.93V271.752h-7.93z" clip-path="url(#p40d718c5ff)"/><path id="patch_34" fill="#1f77b4" stroke="#000" d="M315.593 387.72h7.93v-86.976h-7.93z" clip-path="url(#p40d718c5ff)"/><path id="patch_35" fill="#1f77b4" stroke="#000" d="M323.522 387.72h7.929V286.248h-7.929z" clip-path="url(#p40d718c5ff)"/><path id="patch_36" fill="#1f77b4" stroke="#000" d="M331.451 387.72h7.929V286.248h-7.929z" clip-path="url(#p40d718c5ff)"/><path id="patch_37" fill="#1f77b4" stroke="#000" d="M339.38 387.72h7.929v-72.48h-7.93z" clip-path="url(#p40d718c5ff)"/><path id="patch_38" fill="#1f77b4" stroke="#000" d="M347.309 387.72h7.929v-72.48h-7.93z" clip-path="url(#p40d718c5ff)"/><path id="patch_39" fill="#1f77b4" stroke="#000" d="M355.238 387.72h7.929v-72.48h-7.93z" clip-path="url(#p40d718c5ff)"/><path id="patch_40" fill="#1f77b4" stroke="#000" d="M363.167 387.72h7.928v-86.976h-7.928z" clip-path="url(#p40d718c5ff)"/><path id="patch_41" fill="#1f77b4" stroke="#000" d="M371.095 387.72h7.93v-72.48h-7.93z" clip-path="url(#p40d718c5ff)"/><path id="patch_42" fill="#1f77b4" stroke="#000" d="M379.024 387.72h7.93v-57.984h-7.93z" clip-path="url(#p40d718c5ff)"/><path id="patch_43" fill="#1f77b4" stroke="#000" d="M386.953 387.72h7.93v-57.984h-7.93z" clip-path="url(#p40d718c5ff)"/><path id="patch_44" fill="#1f77b4" stroke="#000" d="M394.882 387.72h7.93v-43.488h-7.93z" clip-path="url(#p40d718c5ff)"/><path id="patch_45" fill="#1f77b4" stroke="#000" d="M402.811 387.72h7.929v-72.48h-7.929z" clip-path="url(#p40d718c5ff)"/><path id="patch_46" fill="#1f77b4" stroke="#000" d="M410.74 387.72h7.929v-57.984h-7.929z" clip-path="url(#p40d718c5ff)"/><path id="patch_47" fill="#1f77b4" stroke="#000" d="M418.669 387.72h7.929v-28.992h-7.93z" clip-path="url(#p40d718c5ff)"/><path id="patch_48" fill="#1f77b4" stroke="#000" d="M426.598 387.72h7.929v-57.984h-7.93z" clip-path="url(#p40d718c5ff)"/><path id="patch_49" fill="#1f77b4" stroke="#000" d="M434.527 387.72h7.929v-28.992h-7.93z" clip-path="url(#p40d718c5ff)"/><path id="patch_50" fill="#1f77b4" stroke="#000" d="M442.456 387.72h7.929v-43.488h-7.93z" clip-path="url(#p40d718c5ff)"/><path id="patch_51" fill="#1f77b4" stroke="#000" d="M450.385 387.72h7.928v-28.992h-7.928z" clip-path="url(#p40d718c5ff)"/><path id="patch_52" fill="#1f77b4" stroke="#000" d="M458.313 387.72h7.93v-43.488h-7.93z" clip-path="url(#p40d718c5ff)"/><g id="matplotlib.axis_1"><g id="xtick_1"><g id="line2d_1"><defs><path id="m42d176baa0" stroke="#000" stroke-width="2.5" d="M0 0v7"/></defs><use xlink:href="#m42d176baa0" x="57.748" y="387.72" stroke="#000" stroke-width="2.5"/></g><g id="text_1" transform="matrix(.2 0 0 -.2 41.845 413.417)"><defs><path id="DejaVuSans-48" d="M31.781 66.406q-7.61 0-11.453-7.5Q16.5 51.422 16.5 36.375q0-14.984 3.828-22.484 3.844-7.5 11.453-7.5 7.672 0 11.5 7.5 3.844 7.5 3.844 22.484 0 15.047-3.844 22.531-3.828 7.5-11.5 7.5zm0 7.813q12.266 0 18.735-9.703 6.468-9.688 6.468-28.141 0-18.406-6.468-28.11-6.47-9.687-18.735-9.687-12.25 0-18.718 9.688-6.47 9.703-6.47 28.109 0 18.453 6.47 28.14Q19.53 74.22 31.78 74.22z"/><path id="DejaVuSans-46" d="M10.688 12.406H21V0H10.687z"/></defs><use xlink:href="#DejaVuSans-48"/><use xlink:href="#DejaVuSans-46" x="63.623"/><use xlink:href="#DejaVuSans-48" x="95.41"/></g></g><g id="xtick_2"><use xlink:href="#m42d176baa0" id="line2d_2" x="129.443" y="387.72" stroke="#000" stroke-width="2.5"/><g id="text_2" transform="matrix(.2 0 0 -.2 113.54 413.417)"><defs><path id="DejaVuSans-53" d="M10.797 72.906h38.719v-8.312H19.828v-17.86q2.14.735 4.281 1.094 2.157.36 4.313.36 12.203 0 19.328-6.688 7.14-6.688 7.14-18.11 0-11.765-7.328-18.296-7.328-6.516-20.656-6.516-4.593 0-9.36.781-4.75.782-9.827 2.344v9.922q4.39-2.39 9.078-3.563 4.687-1.171 9.906-1.171 8.453 0 13.375 4.437 4.938 4.438 4.938 12.063 0 7.609-4.938 12.047-4.922 4.453-13.375 4.453-3.953 0-7.89-.875-3.922-.875-8.016-2.735z"/></defs><use xlink:href="#DejaVuSans-48"/><use xlink:href="#DejaVuSans-46" x="63.623"/><use xlink:href="#DejaVuSans-53" x="95.41"/></g></g><g id="xtick_3"><use xlink:href="#m42d176baa0" id="line2d_3" x="201.138" y="387.72" stroke="#000" stroke-width="2.5"/><g id="text_3" transform="matrix(.2 0 0 -.2 185.234 413.417)"><defs><path id="DejaVuSans-49" d="M12.406 8.297h16.11v55.625l-17.532-3.516v8.985l17.438 3.515h9.86V8.296H54.39V0H12.406z"/></defs><use xlink:href="#DejaVuSans-49"/><use xlink:href="#DejaVuSans-46" x="63.623"/><use xlink:href="#DejaVuSans-48" x="95.41"/></g></g><g id="xtick_4"><use xlink:href="#m42d176baa0" id="line2d_4" x="272.832" y="387.72" stroke="#000" stroke-width="2.5"/><g id="text_4" transform="matrix(.2 0 0 -.2 256.93 413.417)"><use xlink:href="#DejaVuSans-49"/><use xlink:href="#DejaVuSans-46" x="63.623"/><use xlink:href="#DejaVuSans-53" x="95.41"/></g></g><g id="xtick_5"><use xlink:href="#m42d176baa0" id="line2d_5" x="344.527" y="387.72" stroke="#000" stroke-width="2.5"/><g id="text_5" transform="matrix(.2 0 0 -.2 328.624 413.417)"><defs><path id="DejaVuSans-50" d="M19.188 8.297h34.421V0H7.33v8.297q5.609 5.812 15.296 15.594 9.703 9.797 12.188 12.64 4.734 5.313 6.609 9 1.89 3.688 1.89 7.25 0 5.813-4.078 9.469-4.078 3.672-10.625 3.672-4.64 0-9.797-1.61-5.14-1.609-11-4.89v9.969Q13.767 71.78 18.938 73q5.188 1.219 9.485 1.219 11.328 0 18.062-5.672 6.735-5.656 6.735-15.125 0-4.5-1.688-8.531-1.672-4.016-6.125-9.485-1.218-1.422-7.765-8.187-6.532-6.766-18.453-18.922z"/></defs><use xlink:href="#DejaVuSans-50"/><use xlink:href="#DejaVuSans-46" x="63.623"/><use xlink:href="#DejaVuSans-48" x="95.41"/></g></g><g id="xtick_6"><use xlink:href="#m42d176baa0" id="line2d_6" x="416.222" y="387.72" stroke="#000" stroke-width="2.5"/><g id="text_6" transform="matrix(.2 0 0 -.2 400.318 413.417)"><use xlink:href="#DejaVuSans-50"/><use xlink:href="#DejaVuSans-46" x="63.623"/><use xlink:href="#DejaVuSans-53" x="95.41"/></g></g><g id="xtick_7"><use xlink:href="#m42d176baa0" id="line2d_7" x="487.916" y="387.72" stroke="#000" stroke-width="2.5"/><g id="text_7" transform="matrix(.2 0 0 -.2 472.013 413.417)"><defs><path id="DejaVuSans-51" d="M40.578 39.313Q47.656 37.797 51.625 33q3.984-4.781 3.984-11.813 0-10.78-7.422-16.703-7.421-5.906-21.093-5.906-4.578 0-9.438.906-4.86.907-10.031 2.72v9.515q4.094-2.39 8.969-3.61 4.89-1.218 10.218-1.218 9.266 0 14.125 3.656 4.86 3.656 4.86 10.64 0 6.454-4.516 10.079-4.515 3.64-12.562 3.64h-8.5v8.11h8.89q7.266 0 11.125 2.906 3.86 2.906 3.86 8.375 0 5.61-3.985 8.61-3.968 3.015-11.39 3.015-4.063 0-8.703-.89-4.641-.876-10.203-2.72v8.782q5.624 1.562 10.53 2.344 4.907.78 9.25.78 11.235 0 17.766-5.109 6.547-5.093 6.547-13.78 0-6.063-3.468-10.235-3.47-4.172-9.86-5.782z"/></defs><use xlink:href="#DejaVuSans-51"/><use xlink:href="#DejaVuSans-46" x="63.623"/><use xlink:href="#DejaVuSans-48" x="95.41"/></g></g></g><g id="matplotlib.axis_2"><g id="ytick_1"><g id="line2d_8"><defs><path id="mb734cc9260" stroke="#000" stroke-width="2.5" d="M0 0h-7"/></defs><use xlink:href="#mb734cc9260" x="49.506" y="387.72" stroke="#000" stroke-width="2.5"/></g><g id="text_8" transform="matrix(.2 0 0 -.2 7.2 395.318)"><use xlink:href="#DejaVuSans-48"/><use xlink:href="#DejaVuSans-46" x="63.623"/><use xlink:href="#DejaVuSans-48" x="95.41"/></g></g><g id="ytick_2"><use xlink:href="#mb734cc9260" id="line2d_9" x="49.506" y="307.562" stroke="#000" stroke-width="2.5"/><g id="text_9" transform="matrix(.2 0 0 -.2 7.2 315.16)"><use xlink:href="#DejaVuSans-48"/><use xlink:href="#DejaVuSans-46" x="63.623"/><use xlink:href="#DejaVuSans-50" x="95.41"/></g></g><g id="ytick_3"><use xlink:href="#mb734cc9260" id="line2d_10" x="49.506" y="227.405" stroke="#000" stroke-width="2.5"/><g id="text_10" transform="matrix(.2 0 0 -.2 7.2 235.003)"><defs><path id="DejaVuSans-52" d="M37.797 64.313 12.89 25.39h24.906zm-2.594 8.593H47.61V25.391h10.407v-8.203H47.609V0h-9.812v17.188H4.89v9.515z"/></defs><use xlink:href="#DejaVuSans-48"/><use xlink:href="#DejaVuSans-46" x="63.623"/><use xlink:href="#DejaVuSans-52" x="95.41"/></g></g><g id="ytick_4"><use xlink:href="#mb734cc9260" id="line2d_11" x="49.506" y="147.247" stroke="#000" stroke-width="2.5"/><g id="text_11" transform="matrix(.2 0 0 -.2 7.2 154.846)"><defs><path id="DejaVuSans-54" d="M33.016 40.375q-6.641 0-10.532-4.547-3.875-4.531-3.875-12.437 0-7.86 3.875-12.438 3.891-4.562 10.532-4.562 6.64 0 10.515 4.562 3.875 4.578 3.875 12.438 0 7.906-3.875 12.437-3.875 4.547-10.515 4.547zm19.578 30.922v-8.984q-3.719 1.75-7.5 2.671-3.782.938-7.5.938-9.766 0-14.922-6.594-5.14-6.594-5.875-19.922 2.875 4.25 7.219 6.516 4.359 2.266 9.578 2.266 10.984 0 17.36-6.672 6.374-6.657 6.374-18.125 0-11.235-6.64-18.032-6.641-6.78-17.672-6.78-12.657 0-19.344 9.687-6.688 9.703-6.688 28.109 0 17.281 8.204 27.563 8.203 10.28 22.015 10.28 3.719 0 7.5-.734t7.89-2.187z"/></defs><use xlink:href="#DejaVuSans-48"/><use xlink:href="#DejaVuSans-46" x="63.623"/><use xlink:href="#DejaVuSans-54" x="95.41"/></g></g><g id="ytick_5"><use xlink:href="#mb734cc9260" id="line2d_12" x="49.506" y="67.09" stroke="#000" stroke-width="2.5"/><g id="text_12" transform="matrix(.2 0 0 -.2 7.2 74.688)"><defs><path id="DejaVuSans-56" d="M31.781 34.625q-7.031 0-11.062-3.766-4.016-3.765-4.016-10.343 0-6.594 4.016-10.36Q24.75 6.391 31.78 6.391q7.032 0 11.078 3.78 4.063 3.798 4.063 10.345 0 6.578-4.031 10.343-4.016 3.766-11.11 3.766zm-9.86 4.188q-6.343 1.562-9.89 5.906Q8.5 49.079 8.5 55.329q0 8.733 6.219 13.812 6.234 5.078 17.062 5.078 10.89 0 17.094-5.078 6.203-5.079 6.203-13.813 0-6.25-3.547-10.61-3.531-4.343-9.828-5.906 7.125-1.656 11.094-6.5 3.984-4.828 3.984-11.796 0-10.61-6.468-16.282-6.47-5.656-18.532-5.656-12.047 0-18.531 5.656-6.469 5.672-6.469 16.282 0 6.968 4 11.797 4.016 4.843 11.14 6.5zM18.314 54.39q0-5.657 3.53-8.828 3.548-3.172 9.938-3.172 6.36 0 9.938 3.172 3.593 3.171 3.593 8.828 0 5.672-3.593 8.843-3.578 3.172-9.938 3.172-6.39 0-9.937-3.172-3.532-3.172-3.532-8.843z"/></defs><use xlink:href="#DejaVuSans-48"/><use xlink:href="#DejaVuSans-46" x="63.623"/><use xlink:href="#DejaVuSans-56" x="95.41"/></g></g></g><path id="line2d_13" fill="none" stroke="#ff7f0e" stroke-linecap="square" stroke-width="5" d="m70.05 387.72 2.037-255.147 2.038-59.983 2.038-27.237 2.038-12.663 2.038-5.01 2.038-.662 2.038 1.92 2.038 3.484 2.038 4.433 2.038 4.999 4.076 10.79 8.152 21.803 4.077 10.314 4.076 9.777 4.076 9.226 4.076 8.69 4.076 8.187 4.076 7.716 4.076 7.284 4.076 6.887 4.076 6.521 4.076 6.188 4.076 5.88 4.076 5.6 6.114 7.92 6.114 7.405 6.114 6.948 6.114 6.54 6.114 6.177 6.114 5.85 6.114 5.555 6.114 5.29 6.115 5.05 8.152 6.395 8.152 6.053 8.152 5.748 8.152 5.477 8.152 5.237 10.19 6.246 10.19 5.954 10.19 5.7 12.228 6.552 12.229 6.286 14.266 7.058 16.304 7.786 20.38 9.447 48.913 22.515 12.228 5.917 10.19 5.161 8.152 4.354 8.152 4.644 6.114 3.752 6.114 4.087 4.076 2.988 4.076 3.294 4.076 3.754 2.038 2.14 2.038 2.411 2.038 2.84 2.038 3.674 2.038 8.798" clip-path="url(#p40d718c5ff)"/><path id="patch_53" fill="none" stroke="#000" stroke-linecap="square" stroke-width="2.5" d="M49.506 387.72V7.2"/><path id="patch_54" fill="none" stroke="#000" stroke-linecap="square" stroke-width="2.5" d="M495.906 387.72V7.2"/><path id="patch_55" fill="none" stroke="#000" stroke-linecap="square" stroke-width="2.5" d="M49.506 387.72h446.4"/><path id="patch_56" fill="none" stroke="#000" stroke-linecap="square" stroke-width="2.5" d="M49.506 7.2h446.4"/><g id="text_13" transform="matrix(.2 0 0 -.2 151.652 45.252)"><defs><path id="DejaVuSans-114" d="M41.11 46.297q-1.516.875-3.297 1.281Q36.03 48 33.89 48q-7.625 0-11.703-4.953-4.079-4.953-4.079-14.234V0H9.08v54.688h9.03v-8.5q2.844 4.984 7.375 7.39Q30.031 56 36.531 56q.922 0 2.047-.125 1.125-.11 2.484-.36z"/><path id="DejaVuSans-97" d="M34.281 27.484q-10.89 0-15.093-2.484-4.204-2.484-4.204-8.5 0-4.781 3.157-7.594 3.156-2.797 8.562-2.797 7.485 0 12 5.297 4.516 5.297 4.516 14.078v2zm17.922 3.72V0H43.22v8.297Q40.14 3.328 35.547.953q-4.594-2.375-11.234-2.375-8.391 0-13.36 4.719Q6 8.016 6 15.922q0 9.219 6.172 13.906 6.187 4.688 18.437 4.688h12.61v.89q0 6.203-4.078 9.594-4.078 3.39-11.453 3.39-4.688 0-9.141-1.124-4.438-1.125-8.531-3.375v8.312q4.921 1.906 9.562 2.844 4.64.953 9.031.953 11.875 0 17.735-6.156 5.86-6.14 5.86-18.64z"/><path id="DejaVuSans-110" d="M54.89 33.016V0h-8.984v32.719q0 7.765-3.031 11.61-3.031 3.858-9.078 3.858-7.281 0-11.484-4.64-4.204-4.625-4.204-12.64V0H9.08v54.688h9.03v-8.5q3.235 4.937 7.594 7.374Q30.078 56 35.797 56q9.422 0 14.25-5.828 4.844-5.828 4.844-17.156z"/><path id="DejaVuSans-107" d="M9.078 75.984h9.031V31.11l26.813 23.578H56.39l-29-25.578L57.625 0H45.906L18.11 26.703V0H9.08z"/><path id="DejaVuSans-100" d="M45.406 46.39v29.594h8.985V0h-8.985v8.203Q42.578 3.328 38.25.953q-4.313-2.375-10.375-2.375-9.906 0-16.14 7.906-6.22 7.922-6.22 20.813 0 12.89 6.22 20.797Q17.968 56 27.874 56q6.063 0 10.375-2.375 4.328-2.36 7.156-7.234zm-30.61-19.093q0-9.906 4.079-15.547 4.078-5.64 11.203-5.64 7.125 0 11.219 5.64 4.11 5.64 4.11 15.547 0 9.906-4.11 15.547-4.094 5.64-11.219 5.64-7.125 0-11.203-5.64-4.078-5.64-4.078-15.547z"/><path id="DejaVuSans-101" d="M56.203 29.594v-4.39H14.891q.593-9.282 5.593-14.142 5-4.859 13.938-4.859 5.172 0 10.031 1.266 4.86 1.265 9.656 3.812v-8.5Q49.266.734 44.187-.344 39.11-1.422 33.892-1.422q-13.094 0-20.735 7.61-7.64 7.625-7.64 20.625 0 13.421 7.25 21.296Q20.016 56 32.328 56q11.031 0 17.453-7.11 6.422-7.093 6.422-19.296zm-8.984 2.64q-.094 7.36-4.125 11.75-4.032 4.407-10.672 4.407-7.516 0-12.031-4.25-4.516-4.25-5.203-11.97z"/><path id="DejaVuSans-102" d="M37.11 75.984V68.5h-8.594q-4.828 0-6.72-1.953-1.874-1.953-1.874-7.031v-4.828h14.797v-6.985H19.922V0H10.89v47.703H2.297v6.984h8.594V58.5q0 9.125 4.25 13.297 4.25 4.187 13.468 4.187z"/><path id="DejaVuSans-105" d="M9.422 54.688h8.984V0H9.422zm0 21.296h8.984v-11.39H9.422z"/><path id="DejaVuSans-99" d="M48.781 52.594v-8.407q-3.812 2.11-7.64 3.157-3.828 1.047-7.735 1.047-8.75 0-13.593-5.547-4.829-5.532-4.829-15.547 0-10.016 4.829-15.563 4.843-5.53 13.593-5.53 3.907 0 7.735 1.046 3.828 1.047 7.64 3.156V2.094Q45.016.344 40.984-.531q-4.015-.89-8.562-.89-12.36 0-19.64 7.765-7.266 7.765-7.266 20.953 0 13.375 7.343 21.031Q20.22 56 33.016 56q4.14 0 8.093-.86 3.953-.843 7.672-2.546z"/><path id="DejaVuSans-121" d="M32.172-5.078q-3.797-9.766-7.422-12.735-3.61-2.984-9.656-2.984H7.906v7.516h5.282q3.703 0 5.75 1.765Q21-9.766 23.483-3.219l1.61 4.094-22.11 53.813H12.5l17.094-42.766 17.093 42.766h9.516z"/><path id="DejaVuSans-58" d="M11.719 12.406h10.297V0H11.719zm0 39.297h10.297v-12.39H11.719z"/><path id="DejaVuSans-47" d="M25.39 72.906h8.297L8.297-9.28H0z"/><path id="DejaVuSans-40" d="M31 75.875q-6.531-11.219-9.719-22.219-3.172-10.984-3.172-22.265 0-11.266 3.203-22.328Q24.517-2 31-13.188h-7.813Q15.875-1.704 12.235 9.375q-3.64 11.078-3.64 22.016 0 10.89 3.61 21.922 3.624 11.046 10.983 22.562z"/><path id="DejaVuSans-78" d="M9.813 72.906h13.28l32.329-60.984v60.984h9.562V0h-13.28L19.39 60.984V0H9.813z"/><path id="DejaVuSans-111" d="M30.61 48.39q-7.22 0-11.422-5.64-4.204-5.64-4.204-15.453 0-9.813 4.172-15.453 4.188-5.64 11.453-5.64 7.188 0 11.375 5.655 4.203 5.672 4.203 15.438 0 9.719-4.203 15.406-4.187 5.688-11.375 5.688zm0 7.61q11.718 0 18.406-7.625 6.703-7.61 6.703-21.078 0-13.422-6.703-21.078-6.688-7.64-18.407-7.64-11.765 0-18.437 7.64-6.656 7.656-6.656 21.078 0 13.469 6.656 21.078Q18.844 56 30.609 56z"/><path id="DejaVuSans-41" d="M8.016 75.875h7.812q7.313-11.516 10.953-22.563 3.64-11.03 3.64-21.921 0-10.938-3.64-22.016-3.64-11.078-10.953-22.563H8.016Q14.5-2 17.703 9.063q3.203 11.063 3.203 22.329 0 11.28-3.203 22.265-3.203 11-9.687 22.219z"/></defs><use xlink:href="#DejaVuSans-114"/><use xlink:href="#DejaVuSans-97" x="41.113"/><use xlink:href="#DejaVuSans-110" x="102.393"/><use xlink:href="#DejaVuSans-107" x="165.771"/><use xlink:href="#DejaVuSans-32" x="223.682"/><use xlink:href="#DejaVuSans-100" x="255.469"/><use xlink:href="#DejaVuSans-101" x="318.945"/><use xlink:href="#DejaVuSans-102" x="380.469"/><use xlink:href="#DejaVuSans-105" x="415.674"/><use xlink:href="#DejaVuSans-99" x="443.457"/><use xlink:href="#DejaVuSans-105" x="498.438"/><use xlink:href="#DejaVuSans-101" x="526.221"/><use xlink:href="#DejaVuSans-110" x="587.744"/><use xlink:href="#DejaVuSans-99" x="651.123"/><use xlink:href="#DejaVuSans-121" x="706.104"/><use xlink:href="#DejaVuSans-58" x="758.033"/><use xlink:href="#DejaVuSans-32" x="791.725"/><use xlink:href="#DejaVuSans-53" x="823.512"/><use xlink:href="#DejaVuSans-48" x="887.135"/><use xlink:href="#DejaVuSans-48" x="950.758"/><use xlink:href="#DejaVuSans-47" x="1014.381"/><use xlink:href="#DejaVuSans-53" x="1048.072"/><use xlink:href="#DejaVuSans-48" x="1111.695"/><use xlink:href="#DejaVuSans-48" x="1175.318"/><use xlink:href="#DejaVuSans-32" x="1238.941"/><use xlink:href="#DejaVuSans-40" x="1270.729"/><use xlink:href="#DejaVuSans-78" x="1309.742"/><use xlink:href="#DejaVuSans-111" x="1384.547"/><use xlink:href="#DejaVuSans-110" x="1445.729"/><use xlink:href="#DejaVuSans-101" x="1509.107"/><use xlink:href="#DejaVuSans-41" x="1570.631"/></g></g></g><defs><clipPath id="p40d718c5ff"><path d="M49.506 7.2h446.4v380.52h-446.4z"/></clipPath></defs></svg>