<svg xmlns="http://www.w3.org/2000/svg" width="900" height="600" class="main-svg"><path fill="none" d="M0 0h900v600H0z" style="fill:#000;fill-opacity:0"/><defs><clipPath id="a" class="plotclip"><path d="M0 0h293.333v190.794H0z"/></clipPath><clipPath id="b" class="plotclip"><path d="M0 0h199.339v136.66H0z"/></clipPath><clipPath id="c" class="plotclip"><path d="M0 0h247.044v193.884H0z"/></clipPath><clipPath id="d" class="plotclip"><path d="M0 0h208.976v202.907H0z"/></clipPath><clipPath id="e" class="plotclip"><path d="M0 0h190.647v153.298H0z"/></clipPath><clipPath id="f" class="plotclip"><path d="M0 0h165.657v200.529H0z"/></clipPath></defs><g fill="none" class="bglayer"><path fill="none" d="M10 82.103h293.333v190.794H10zm340.33 27.067h199.339v136.66H350.33zm269.481-28.612h247.044v193.884H619.811zM52.179 351.047h208.976v202.907H52.179zm302.498 24.804h190.647v153.298H354.677zm305.828-23.616h165.657v200.529H660.505z" class="bg" style="fill:#000;fill-opacity:0;stroke-width:0"/></g><g class="cartesianlayer"><g class="subplot xy"><g class="overplot"><g class="xy" clip-path="url(#a)" transform="translate(10 82.103)"><g class="scatterlayer mlayer"><g class="trace scatter tracedcbca4" style="stroke-miterlimit:2;opacity:1"><g class="points"><path d="M19.32 0A19.32 19.32 0 1 1 0-19.32 19.32 19.32 0 0 1 19.32 0Z" class="point" style="opacity:1;stroke-width:.3px;fill:#f0f921;fill-opacity:1;stroke:gray;stroke-opacity:1" transform="translate(172.81 94.04)"/></g><g class="text"><text x="172.81" y="94.04" class="textpoint" style="font-family:&quot;Open Sans&quot;,verdana,arial,sans-serif;font-size:18px;fill:#000;fill-opacity:1;white-space:pre" text-anchor="middle" transform="translate(0 4.5)">Te</text></g></g><g class="trace scatter tracea46628" style="stroke-miterlimit:2;opacity:1"><g class="points"><path d="M30.1 0A30.1 30.1 0 1 1 0-30.1 30.1 30.1 0 0 1 30.1 0Z" class="point" style="opacity:1;stroke-width:.3px;fill:#0d0887;fill-opacity:1;stroke:gray;stroke-opacity:1" transform="translate(52.29 139.42)"/></g><g class="text"><text x="52.29" y="139.42" class="textpoint" style="font-family:&quot;Open Sans&quot;,verdana,arial,sans-serif;font-size:18px;fill:#fff;fill-opacity:1;white-space:pre" text-anchor="middle" transform="translate(0 4.5)">Ba</text></g></g><g class="trace scatter trace5c29b6" style="stroke-miterlimit:2;opacity:1"><g class="lines"><path d="m52.29 139.42 24.93 28.39" class="js-line" style="vector-effect:none;fill:none;stroke:#000;stroke-opacity:1;stroke-width:1px;opacity:1"/></g></g><g class="trace scatter tracea55623" style="stroke-miterlimit:2;opacity:1"><g class="lines"><path d="m52.29 139.42 57.4-125.67" class="js-line" style="vector-effect:none;fill:none;stroke:#000;stroke-opacity:1;stroke-width:1px;opacity:1"/></g></g><g class="trace scatter traced1f89c" style="stroke-miterlimit:2;opacity:1"><g class="lines"><path d="m52.29 139.42 158.72 6.53" class="js-line" style="vector-effect:none;fill:none;stroke:#000;stroke-opacity:1;stroke-width:1px;opacity:1"/></g></g><g class="trace scatter trace70cfc8" style="stroke-miterlimit:2;opacity:1"><g class="lines"><path d="m77.22 167.81 57.39-125.67" class="js-line" style="vector-effect:none;fill:none;stroke:#000;stroke-opacity:1;stroke-width:1px;opacity:1"/></g></g><g class="trace scatter trace8ccf84" style="stroke-miterlimit:2;opacity:1"><g class="lines"><path d="m77.22 167.81 158.72 6.53" class="js-line" style="vector-effect:none;fill:none;stroke:#000;stroke-opacity:1;stroke-width:1px;opacity:1"/></g></g><g class="trace scatter trace75cbf2" style="stroke-miterlimit:2;opacity:1"><g class="lines"><path d="m109.69 13.75 24.92 28.39" class="js-line" style="vector-effect:none;fill:none;stroke:#000;stroke-opacity:1;stroke-width:1px;opacity:1"/></g></g><g class="trace scatter trace9cff28" style="stroke-miterlimit:2;opacity:1"><g class="lines"><path d="m109.69 13.75 158.72 6.53" class="js-line" style="vector-effect:none;fill:none;stroke:#000;stroke-opacity:1;stroke-width:1px;opacity:1"/></g></g><g class="trace scatter trace6e7af3" style="stroke-miterlimit:2;opacity:1"><g class="lines"><path d="m134.61 42.14 158.72 6.53" class="js-line" style="vector-effect:none;fill:none;stroke:#000;stroke-opacity:1;stroke-width:1px;opacity:1"/></g></g><g class="trace scatter trace00c3f8" style="stroke-miterlimit:2;opacity:1"><g class="lines"><path d="m211.01 145.95 24.93 28.39" class="js-line" style="vector-effect:none;fill:none;stroke:#000;stroke-opacity:1;stroke-width:1px;opacity:1"/></g></g><g class="trace scatter tracefc0411" style="stroke-miterlimit:2;opacity:1"><g class="lines"><path d="m211.01 145.95 57.4-125.67" class="js-line" style="vector-effect:none;fill:none;stroke:#000;stroke-opacity:1;stroke-width:1px;opacity:1"/></g></g><g class="trace scatter trace71476c" style="stroke-miterlimit:2;opacity:1"><g class="lines"><path d="m235.94 174.34 57.39-125.67" class="js-line" style="vector-effect:none;fill:none;stroke:#000;stroke-opacity:1;stroke-width:1px;opacity:1"/></g></g><g class="trace scatter trace4d0a33" style="stroke-miterlimit:2;opacity:1"><g class="lines"><path d="m268.41 20.28 24.92 28.39" class="js-line" style="vector-effect:none;fill:none;stroke:#000;stroke-opacity:1;stroke-width:1px;opacity:1"/></g></g></g></g></g></g><g class="subplot x2y2"><g class="overplot"><g class="x2y2" clip-path="url(#b)" transform="translate(350.33 109.17)"><g class="scatterlayer mlayer"><g class="trace scatter trace22dc77" style="stroke-miterlimit:2;opacity:1"><g class="points"><path d="M11.76 0A11.76 11.76 0 1 1 0-11.76 11.76 11.76 0 0 1 11.76 0Z" class="point" style="opacity:1;stroke-width:.3px;fill:#f0f921;fill-opacity:1;stroke:gray;stroke-opacity:1" transform="translate(76.45 83.75)"/></g><g class="text"><text x="76.45" y="83.75" class="textpoint" style="font-family:&quot;Open Sans&quot;,verdana,arial,sans-serif;font-size:18px;fill:#000;fill-opacity:1;white-space:pre" text-anchor="middle" transform="translate(0 4.5)">B</text></g></g><g class="trace scatter tracefed225" style="stroke-miterlimit:2;opacity:1"><g class="points"><path d="M16.66 0A16.66 16.66 0 1 1 0-16.66 16.66 16.66 0 0 1 16.66 0Z" class="point" style="opacity:1;stroke-width:.3px;fill:#e36a5e;fill-opacity:1;stroke:gray;stroke-opacity:1" transform="translate(35.49 99.17)"/></g><g class="text"><text x="35.49" y="99.17" class="textpoint" style="font-family:&quot;Open Sans&quot;,verdana,arial,sans-serif;font-size:18px;fill:#000;fill-opacity:1;white-space:pre" text-anchor="middle" transform="translate(0 4.5)">As</text></g></g><g class="trace scatter trace28b32f" style="stroke-miterlimit:2;opacity:1"><g class="lines"><path d="m35.49 99.17 16.95 19.3" class="js-line" style="vector-effect:none;fill:none;stroke:#000;stroke-opacity:1;stroke-width:1px;opacity:1"/></g></g><g class="trace scatter tracea68ab6" style="stroke-miterlimit:2;opacity:1"><g class="lines"><path d="m35.49 99.17 39.02-85.42" class="js-line" style="vector-effect:none;fill:none;stroke:#000;stroke-opacity:1;stroke-width:1px;opacity:1"/></g></g><g class="trace scatter trace76bc80" style="stroke-miterlimit:2;opacity:1"><g class="lines"><path d="m35.49 99.17 107.89 4.44" class="js-line" style="vector-effect:none;fill:none;stroke:#000;stroke-opacity:1;stroke-width:1px;opacity:1"/></g></g><g class="trace scatter trace0a7cf3" style="stroke-miterlimit:2;opacity:1"><g class="lines"><path d="m52.44 118.47 39.01-85.42" class="js-line" style="vector-effect:none;fill:none;stroke:#000;stroke-opacity:1;stroke-width:1px;opacity:1"/></g></g><g class="trace scatter trace5e5a17" style="stroke-miterlimit:2;opacity:1"><g class="lines"><path d="m52.44 118.47 107.89 4.44" class="js-line" style="vector-effect:none;fill:none;stroke:#000;stroke-opacity:1;stroke-width:1px;opacity:1"/></g></g><g class="trace scatter trace8421e5" style="stroke-miterlimit:2;opacity:1"><g class="lines"><path d="m74.51 13.75 16.94 19.3" class="js-line" style="vector-effect:none;fill:none;stroke:#000;stroke-opacity:1;stroke-width:1px;opacity:1"/></g></g><g class="trace scatter trace4ddf89" style="stroke-miterlimit:2;opacity:1"><g class="lines"><path d="m74.51 13.75 107.89 4.44" class="js-line" style="vector-effect:none;fill:none;stroke:#000;stroke-opacity:1;stroke-width:1px;opacity:1"/></g></g><g class="trace scatter trace83a8cf" style="stroke-miterlimit:2;opacity:1"><g class="lines"><path d="m91.45 33.05 107.89 4.44" class="js-line" style="vector-effect:none;fill:none;stroke:#000;stroke-opacity:1;stroke-width:1px;opacity:1"/></g></g><g class="trace scatter trace63f41c" style="stroke-miterlimit:2;opacity:1"><g class="lines"><path d="m143.38 103.61 16.95 19.3" class="js-line" style="vector-effect:none;fill:none;stroke:#000;stroke-opacity:1;stroke-width:1px;opacity:1"/></g></g><g class="trace scatter tracedaf5d1" style="stroke-miterlimit:2;opacity:1"><g class="lines"><path d="m143.38 103.61 39.02-85.42" class="js-line" style="vector-effect:none;fill:none;stroke:#000;stroke-opacity:1;stroke-width:1px;opacity:1"/></g></g><g class="trace scatter tracebc1efa" style="stroke-miterlimit:2;opacity:1"><g class="lines"><path d="m160.33 122.91 39.01-85.42" class="js-line" style="vector-effect:none;fill:none;stroke:#000;stroke-opacity:1;stroke-width:1px;opacity:1"/></g></g><g class="trace scatter tracee35be4" style="stroke-miterlimit:2;opacity:1"><g class="lines"><path d="m182.4 18.19 16.94 19.3" class="js-line" style="vector-effect:none;fill:none;stroke:#000;stroke-opacity:1;stroke-width:1px;opacity:1"/></g></g></g></g></g></g><g class="subplot x3y3"><g class="overplot"><g class="x3y3" clip-path="url(#c)" transform="translate(619.811 80.558)"><g class="scatterlayer mlayer"><g class="trace scatter trace993afe" style="stroke-miterlimit:2;opacity:1"><g class="points"><path d="M30.1 0A30.1 30.1 0 1 1 0-30.1 30.1 30.1 0 0 1 30.1 0Z" class="point" style="opacity:1;stroke-width:.3px;fill:#0d0887;fill-opacity:1;stroke:gray;stroke-opacity:1" transform="translate(75.93 142.51)"/></g><g class="text"><text x="75.93" y="142.51" class="textpoint" style="font-family:&quot;Open Sans&quot;,verdana,arial,sans-serif;font-size:18px;fill:#fff;fill-opacity:1;white-space:pre" text-anchor="middle" transform="translate(0 4.5)">Ba</text></g></g><g class="trace scatter trace1e6e2d" style="stroke-miterlimit:2;opacity:1"><g class="points"><path d="M17.08 0A17.08 17.08 0 1 1 0-17.08 17.08 17.08 0 0 1 17.08 0Z" class="point" style="opacity:1;stroke-width:.3px;fill:#f0f921;fill-opacity:1;stroke:gray;stroke-opacity:1" transform="translate(161.43 113.25)"/></g><g class="text"><text x="161.43" y="113.25" class="textpoint" style="font-family:&quot;Open Sans&quot;,verdana,arial,sans-serif;font-size:18px;fill:#000;fill-opacity:1;white-space:pre" text-anchor="middle" transform="translate(0 4.5)">Ga</text></g></g><g class="trace scatter tracee602e3" style="stroke-miterlimit:2;opacity:1"><g class="points"><path d="M15.54 0A15.54 15.54 0 1 1 0-15.54 15.54 15.54 0 0 1 15.54 0Z" class="point" style="opacity:1;stroke-width:.3px;fill:#f0f921;fill-opacity:1;stroke:gray;stroke-opacity:1" transform="translate(85.56 72.79)"/></g><g class="text"><text x="85.56" y="72.79" class="textpoint" style="font-family:&quot;Open Sans&quot;,verdana,arial,sans-serif;font-size:18px;fill:#000;fill-opacity:1;white-space:pre" text-anchor="middle" transform="translate(0 4.5)">Si</text></g></g><g class="trace scatter traceba451c" style="stroke-miterlimit:2;opacity:1"><g class="points"><path d="M4.34 0A4.34 4.34 0 1 1 0-4.34 4.34 4.34 0 0 1 4.34 0Z" class="point" style="opacity:1;stroke-width:.3px;fill:#cb4779;fill-opacity:1;stroke:gray;stroke-opacity:1" transform="translate(170.17 123.2)"/></g><g class="text"><text x="170.17" y="123.2" class="textpoint" style="font-family:&quot;Open Sans&quot;,verdana,arial,sans-serif;font-size:12px;fill:#000;fill-opacity:1;white-space:pre" text-anchor="middle" transform="translate(0 3)">H</text></g></g><g class="trace scatter trace4e793e" style="stroke-miterlimit:2;opacity:1"><g class="lines"><path d="m75.93 142.51 26.21 29.84" class="js-line" style="vector-effect:none;fill:none;stroke:#000;stroke-opacity:1;stroke-width:1px;opacity:1"/></g></g><g class="trace scatter trace3aaaf1" style="stroke-miterlimit:2;opacity:1"><g class="lines"><path d="M75.93 142.51 0 21.34" class="js-line" style="vector-effect:none;fill:none;stroke:#000;stroke-opacity:1;stroke-width:1px;opacity:1"/></g></g><g class="trace scatter trace4c3a4c" style="stroke-miterlimit:2;opacity:1"><g class="lines"><path d="m75.93 142.51 144.91-7.59" class="js-line" style="vector-effect:none;fill:none;stroke:#000;stroke-opacity:1;stroke-width:1px;opacity:1"/></g></g><g class="trace scatter trace407512" style="stroke-miterlimit:2;opacity:1"><g class="lines"><path d="M102.14 172.35 26.2 51.19" class="js-line" style="vector-effect:none;fill:none;stroke:#000;stroke-opacity:1;stroke-width:1px;opacity:1"/></g></g><g class="trace scatter trace8275f6" style="stroke-miterlimit:2;opacity:1"><g class="lines"><path d="m102.14 172.35 144.9-7.59" class="js-line" style="vector-effect:none;fill:none;stroke:#000;stroke-opacity:1;stroke-width:1px;opacity:1"/></g></g><g class="trace scatter tracefcf5ce" style="stroke-miterlimit:2;opacity:1"><g class="lines"><path d="m0 21.34 26.2 29.85" class="js-line" style="vector-effect:none;fill:none;stroke:#000;stroke-opacity:1;stroke-width:1px;opacity:1"/></g></g><g class="trace scatter tracea78a6b" style="stroke-miterlimit:2;opacity:1"><g class="lines"><path d="m0 21.34 144.91-7.59" class="js-line" style="vector-effect:none;fill:none;stroke:#000;stroke-opacity:1;stroke-width:1px;opacity:1"/></g></g><g class="trace scatter trace9c19ba" style="stroke-miterlimit:2;opacity:1"><g class="lines"><path d="m26.2 51.19 144.91-7.59" class="js-line" style="vector-effect:none;fill:none;stroke:#000;stroke-opacity:1;stroke-width:1px;opacity:1"/></g></g><g class="trace scatter traceb8d177" style="stroke-miterlimit:2;opacity:1"><g class="lines"><path d="m220.84 134.92 26.2 29.84" class="js-line" style="vector-effect:none;fill:none;stroke:#000;stroke-opacity:1;stroke-width:1px;opacity:1"/></g></g><g class="trace scatter trace0b8c2a" style="stroke-miterlimit:2;opacity:1"><g class="lines"><path d="M220.84 134.92 144.91 13.75" class="js-line" style="vector-effect:none;fill:none;stroke:#000;stroke-opacity:1;stroke-width:1px;opacity:1"/></g></g><g class="trace scatter trace0e6229" style="stroke-miterlimit:2;opacity:1"><g class="lines"><path d="M247.04 164.76 171.11 43.6" class="js-line" style="vector-effect:none;fill:none;stroke:#000;stroke-opacity:1;stroke-width:1px;opacity:1"/></g></g><g class="trace scatter trace50652e" style="stroke-miterlimit:2;opacity:1"><g class="lines"><path d="m144.91 13.75 26.2 29.85" class="js-line" style="vector-effect:none;fill:none;stroke:#000;stroke-opacity:1;stroke-width:1px;opacity:1"/></g></g></g></g></g></g><g class="subplot x4y4"><g class="overplot"><g class="x4y4" clip-path="url(#d)" transform="translate(52.179 351.047)"><g class="scatterlayer mlayer"><g class="trace scatter trace1a906c" style="stroke-miterlimit:2;opacity:1"><g class="points"><path d="M16.94 0A16.94 16.94 0 1 1 0-16.94 16.94 16.94 0 0 1 16.94 0Z" class="point" style="opacity:1;stroke-width:.3px;fill:#f0f921;fill-opacity:1;stroke:gray;stroke-opacity:1" transform="translate(86.48 101.45)"/></g><g class="text"><text x="86.48" y="101.45" class="textpoint" style="font-family:&quot;Open Sans&quot;,verdana,arial,sans-serif;font-size:18px;fill:#000;fill-opacity:1;white-space:pre" text-anchor="middle" transform="translate(0 4.5)">Al</text></g></g><g class="trace scatter tracef770cd" style="stroke-miterlimit:2;opacity:1"><g class="points"><path d="M17.08 0A17.08 17.08 0 1 1 0-17.08 17.08 17.08 0 0 1 17.08 0Z" class="point" style="opacity:1;stroke-width:.3px;fill:#f0f921;fill-opacity:1;stroke:gray;stroke-opacity:1" transform="translate(172.96 110.15)"/></g><g class="text"><text x="172.96" y="110.15" class="textpoint" style="font-family:&quot;Open Sans&quot;,verdana,arial,sans-serif;font-size:18px;fill:#000;fill-opacity:1;white-space:pre" text-anchor="middle" transform="translate(0 4.5)">Ga</text></g></g><g class="trace scatter tracedd9e59" style="stroke-miterlimit:2;opacity:1"><g class="points"><path d="M9.94 0A9.94 9.94 0 1 1 0-9.94 9.94 9.94 0 0 1 9.94 0Z" class="point" style="opacity:1;stroke-width:.3px;fill:#0d0887;fill-opacity:1;stroke:gray;stroke-opacity:1" transform="translate(128.43 67.99)"/></g><g class="text"><text x="128.43" y="67.99" class="textpoint" style="font-family:&quot;Open Sans&quot;,verdana,arial,sans-serif;font-size:18px;fill:#fff;fill-opacity:1;white-space:pre" text-anchor="middle" transform="translate(0 4.5)">N</text></g></g><g class="trace scatter trace1e539c" style="stroke-miterlimit:2;opacity:1"><g class="points"><path d="M9.94 0A9.94 9.94 0 1 1 0-9.94 9.94 9.94 0 0 1 9.94 0Z" class="point" style="opacity:1;stroke-width:.3px;fill:#0d0887;fill-opacity:1;stroke:gray;stroke-opacity:1" transform="translate(119.91 130.96)"/></g><g class="text"><text x="119.91" y="130.96" class="textpoint" style="font-family:&quot;Open Sans&quot;,verdana,arial,sans-serif;font-size:18px;fill:#fff;fill-opacity:1;white-space:pre" text-anchor="middle" transform="translate(0 4.5)">N</text></g></g><g class="trace scatter trace991623" style="stroke-miterlimit:2;opacity:1"><g class="lines"><path d="m172.96 110.15-22.21-25.3" class="js-line" style="vector-effect:none;fill:none;stroke:#000;stroke-opacity:1;stroke-width:1px;opacity:1"/></g></g><g class="trace scatter traceaa8db6" style="stroke-miterlimit:2;opacity:1"><g class="lines"><path d="M172.96 110.15 95.5 39.05" class="js-line" style="vector-effect:none;fill:none;stroke:#000;stroke-opacity:1;stroke-width:1px;opacity:1"/></g></g><g class="trace scatter trace768257" style="stroke-miterlimit:2;opacity:1"><g class="lines"><path d="m172.96 110.15-73.29 79.01" class="js-line" style="vector-effect:none;fill:none;stroke:#000;stroke-opacity:1;stroke-width:1px;opacity:1"/></g></g><g class="trace scatter trace4728c2" style="stroke-miterlimit:2;opacity:1"><g class="lines"><path d="m150.75 84.85-77.47-71.1" class="js-line" style="vector-effect:none;fill:none;stroke:#000;stroke-opacity:1;stroke-width:1px;opacity:1"/></g></g><g class="trace scatter trace41d1d2" style="stroke-miterlimit:2;opacity:1"><g class="lines"><path d="m150.75 84.85-73.29 79.01" class="js-line" style="vector-effect:none;fill:none;stroke:#000;stroke-opacity:1;stroke-width:1px;opacity:1"/></g></g><g class="trace scatter tracea6b4a2" style="stroke-miterlimit:2;opacity:1"><g class="lines"><path d="m95.5 39.05-22.22-25.3" class="js-line" style="vector-effect:none;fill:none;stroke:#000;stroke-opacity:1;stroke-width:1px;opacity:1"/></g></g><g class="trace scatter trace427897" style="stroke-miterlimit:2;opacity:1"><g class="lines"><path d="m95.5 39.05-73.29 79" class="js-line" style="vector-effect:none;fill:none;stroke:#000;stroke-opacity:1;stroke-width:1px;opacity:1"/></g></g><g class="trace scatter tracef92f79" style="stroke-miterlimit:2;opacity:1"><g class="lines"><path d="M73.28 13.75 0 92.75" class="js-line" style="vector-effect:none;fill:none;stroke:#000;stroke-opacity:1;stroke-width:1px;opacity:1"/></g></g><g class="trace scatter tracec6cdda" style="stroke-miterlimit:2;opacity:1"><g class="lines"><path d="m99.67 189.16-22.21-25.3" class="js-line" style="vector-effect:none;fill:none;stroke:#000;stroke-opacity:1;stroke-width:1px;opacity:1"/></g></g><g class="trace scatter trace5769d4" style="stroke-miterlimit:2;opacity:1"><g class="lines"><path d="m99.67 189.16-77.46-71.11" class="js-line" style="vector-effect:none;fill:none;stroke:#000;stroke-opacity:1;stroke-width:1px;opacity:1"/></g></g><g class="trace scatter trace44188c" style="stroke-miterlimit:2;opacity:1"><g class="lines"><path d="M77.46 163.86 0 92.75" class="js-line" style="vector-effect:none;fill:none;stroke:#000;stroke-opacity:1;stroke-width:1px;opacity:1"/></g></g><g class="trace scatter trace1e4999" style="stroke-miterlimit:2;opacity:1"><g class="lines"><path d="M22.21 118.05 0 92.75" class="js-line" style="vector-effect:none;fill:none;stroke:#000;stroke-opacity:1;stroke-width:1px;opacity:1"/></g></g></g></g></g></g><g class="subplot x5y5"><g class="overplot"><g class="x5y5" clip-path="url(#e)" transform="translate(354.677 375.851)"><g class="scatterlayer mlayer"><g class="trace scatter trace90f4ea" style="stroke-miterlimit:2;opacity:1"><g class="points"><path d="M11.76 0A11.76 11.76 0 1 1 0-11.76 11.76 11.76 0 0 1 11.76 0Z" class="point" style="opacity:1;stroke-width:.3px;fill:#f0f921;fill-opacity:1;stroke:gray;stroke-opacity:1" transform="translate(122.71 90.74)"/></g><g class="text"><text x="122.71" y="90.74" class="textpoint" style="font-family:&quot;Open Sans&quot;,verdana,arial,sans-serif;font-size:18px;fill:#000;fill-opacity:1;white-space:pre" text-anchor="middle" transform="translate(0 4.5)">B</text></g></g><g class="trace scatter trace87e043" style="stroke-miterlimit:2;opacity:1"><g class="points"><path d="M11.76 0A11.76 11.76 0 1 1 0-11.76 11.76 11.76 0 0 1 11.76 0Z" class="point" style="opacity:1;stroke-width:.3px;fill:#f0f921;fill-opacity:1;stroke:gray;stroke-opacity:1" transform="translate(54.78 47.57)"/></g><g class="text"><text x="54.78" y="47.57" class="textpoint" style="font-family:&quot;Open Sans&quot;,verdana,arial,sans-serif;font-size:18px;fill:#000;fill-opacity:1;white-space:pre" text-anchor="middle" transform="translate(0 4.5)">B</text></g></g><g class="trace scatter trace8c6de0" style="stroke-miterlimit:2;opacity:1"><g class="points"><path d="M14.98 0A14.98 14.98 0 1 1 0-14.98 14.98 14.98 0 0 1 14.98 0Z" class="point" style="opacity:1;stroke-width:.3px;fill:#f0f921;fill-opacity:1;stroke:gray;stroke-opacity:1" transform="translate(132.58 101.97)"/></g><g class="text"><text x="132.58" y="101.97" class="textpoint" style="font-family:&quot;Open Sans&quot;,verdana,arial,sans-serif;font-size:18px;fill:#000;fill-opacity:1;white-space:pre" text-anchor="middle" transform="translate(0 4.5)">P</text></g></g><g class="trace scatter tracedae9e3" style="stroke-miterlimit:2;opacity:1"><g class="points"><path d="M14.98 0A14.98 14.98 0 1 1 0-14.98 14.98 14.98 0 0 1 14.98 0Z" class="point" style="opacity:1;stroke-width:.3px;fill:#f0f921;fill-opacity:1;stroke:gray;stroke-opacity:1" transform="translate(64.64 58.81)"/></g><g class="text"><text x="64.64" y="58.81" class="textpoint" style="font-family:&quot;Open Sans&quot;,verdana,arial,sans-serif;font-size:18px;fill:#000;fill-opacity:1;white-space:pre" text-anchor="middle" transform="translate(0 4.5)">P</text></g></g><g class="trace scatter trace38a029" style="stroke-miterlimit:2;opacity:1"><g class="lines"><path d="m56.49 109.54 26.35 30.01" class="js-line" style="vector-effect:none;fill:none;stroke:#000;stroke-opacity:1;stroke-width:1px;opacity:1"/></g></g><g class="trace scatter traceb887e4" style="stroke-miterlimit:2;opacity:1"><g class="lines"><path d="M56.49 109.54 0 19.4" class="js-line" style="vector-effect:none;fill:none;stroke:#000;stroke-opacity:1;stroke-width:1px;opacity:1"/></g></g><g class="trace scatter tracee1f3a0" style="stroke-miterlimit:2;opacity:1"><g class="lines"><path d="m56.49 109.54 107.81-5.65" class="js-line" style="vector-effect:none;fill:none;stroke:#000;stroke-opacity:1;stroke-width:1px;opacity:1"/></g></g><g class="trace scatter trace7ab910" style="stroke-miterlimit:2;opacity:1"><g class="lines"><path d="M82.84 139.55 26.34 49.4" class="js-line" style="vector-effect:none;fill:none;stroke:#000;stroke-opacity:1;stroke-width:1px;opacity:1"/></g></g><g class="trace scatter tracecd6b6d" style="stroke-miterlimit:2;opacity:1"><g class="lines"><path d="m82.84 139.55 107.81-5.65" class="js-line" style="vector-effect:none;fill:none;stroke:#000;stroke-opacity:1;stroke-width:1px;opacity:1"/></g></g><g class="trace scatter trace7b5abc" style="stroke-miterlimit:2;opacity:1"><g class="lines"><path d="m0 19.4 26.34 30" class="js-line" style="vector-effect:none;fill:none;stroke:#000;stroke-opacity:1;stroke-width:1px;opacity:1"/></g></g><g class="trace scatter tracef9fd11" style="stroke-miterlimit:2;opacity:1"><g class="lines"><path d="m0 19.4 107.81-5.65" class="js-line" style="vector-effect:none;fill:none;stroke:#000;stroke-opacity:1;stroke-width:1px;opacity:1"/></g></g><g class="trace scatter tracebe03d6" style="stroke-miterlimit:2;opacity:1"><g class="lines"><path d="m26.34 49.4 107.81-5.65" class="js-line" style="vector-effect:none;fill:none;stroke:#000;stroke-opacity:1;stroke-width:1px;opacity:1"/></g></g><g class="trace scatter trace2e5dfd" style="stroke-miterlimit:2;opacity:1"><g class="lines"><path d="m164.3 103.89 26.35 30.01" class="js-line" style="vector-effect:none;fill:none;stroke:#000;stroke-opacity:1;stroke-width:1px;opacity:1"/></g></g><g class="trace scatter traceeb5e79" style="stroke-miterlimit:2;opacity:1"><g class="lines"><path d="m164.3 103.89-56.49-90.14" class="js-line" style="vector-effect:none;fill:none;stroke:#000;stroke-opacity:1;stroke-width:1px;opacity:1"/></g></g><g class="trace scatter traced3bfbc" style="stroke-miterlimit:2;opacity:1"><g class="lines"><path d="m190.65 133.9-56.5-90.15" class="js-line" style="vector-effect:none;fill:none;stroke:#000;stroke-opacity:1;stroke-width:1px;opacity:1"/></g></g><g class="trace scatter traced9bc8c" style="stroke-miterlimit:2;opacity:1"><g class="lines"><path d="m107.81 13.75 26.34 30" class="js-line" style="vector-effect:none;fill:none;stroke:#000;stroke-opacity:1;stroke-width:1px;opacity:1"/></g></g></g></g></g></g><g class="subplot x6y6"><g class="overplot"><g class="x6y6" clip-path="url(#f)" transform="translate(660.505 352.235)"><g class="scatterlayer mlayer"><g class="trace scatter tracecdd72d" style="stroke-miterlimit:2;opacity:1"><g class="points"><path d="M7.98 0A7.98 7.98 0 1 1 0-7.98 7.98 7.98 0 0 1 7.98 0Z" class="point" style="opacity:1;stroke-width:.3px;fill:#bd3786;fill-opacity:1;stroke:gray;stroke-opacity:1" transform="translate(98.57 110.93)"/></g><g class="text"><text x="98.57" y="110.93" class="textpoint" style="font-family:&quot;Open Sans&quot;,verdana,arial,sans-serif;font-size:15.96px;fill:#000;fill-opacity:1;white-space:pre" text-anchor="middle" transform="translate(0 3.99)">F</text></g></g><g class="trace scatter trace5d4dff" style="stroke-miterlimit:2;opacity:1"><g class="points"><path d="M7.98 0A7.98 7.98 0 1 1 0-7.98 7.98 7.98 0 0 1 7.98 0Z" class="point" style="opacity:1;stroke-width:.3px;fill:#bd3786;fill-opacity:1;stroke:gray;stroke-opacity:1" transform="translate(32.86 50.61)"/></g><g class="text"><text x="32.86" y="50.61" class="textpoint" style="font-family:&quot;Open Sans&quot;,verdana,arial,sans-serif;font-size:15.96px;fill:#000;fill-opacity:1;white-space:pre" text-anchor="middle" transform="translate(0 3.99)">F</text></g></g><g class="trace scatter trace3ad09d" style="stroke-miterlimit:2;opacity:1"><g class="points"><path d="M14.7 0A14.7 14.7 0 1 1 0-14.7 14.7 14.7 0 0 1 14.7 0Z" class="point" style="opacity:1;stroke-width:.3px;fill:#f0f921;fill-opacity:1;stroke:gray;stroke-opacity:1" transform="translate(118.82 72.34)"/></g><g class="text"><text x="118.82" y="72.34" class="textpoint" style="font-family:&quot;Open Sans&quot;,verdana,arial,sans-serif;font-size:18px;fill:#000;fill-opacity:1;white-space:pre" text-anchor="middle" transform="translate(0 4.5)">S</text></g></g><g class="trace scatter trace249f1d" style="stroke-miterlimit:2;opacity:1"><g class="points"><path d="M14.7 0A14.7 14.7 0 1 1 0-14.7 14.7 14.7 0 0 1 14.7 0Z" class="point" style="opacity:1;stroke-width:.3px;fill:#f0f921;fill-opacity:1;stroke:gray;stroke-opacity:1" transform="translate(46.84 128.19)"/></g><g class="text"><text x="46.84" y="128.19" class="textpoint" style="font-family:&quot;Open Sans&quot;,verdana,arial,sans-serif;font-size:18px;fill:#000;fill-opacity:1;white-space:pre" text-anchor="middle" transform="translate(0 4.5)">S</text></g></g><g class="trace scatter trace4a8604" style="stroke-miterlimit:2;opacity:1"><g class="points"><path d="M26.6 0A26.6 26.6 0 1 1 0-26.6 26.6 26.6 0 0 1 26.6 0Z" class="point" style="opacity:1;stroke-width:.3px;fill:#0d0887;fill-opacity:1;stroke:gray;stroke-opacity:1" transform="translate(104.63 56.19)"/></g><g class="text"><text x="104.63" y="56.19" class="textpoint" style="font-family:&quot;Open Sans&quot;,verdana,arial,sans-serif;font-size:18px;fill:#000;fill-opacity:1;white-space:pre" text-anchor="middle" transform="translate(0 4.5)">Y</text></g></g><g class="trace scatter trace55a43d" style="stroke-miterlimit:2;opacity:1"><g class="points"><path d="M26.6 0A26.6 26.6 0 1 1 0-26.6 26.6 26.6 0 0 1 26.6 0Z" class="point" style="opacity:1;stroke-width:.3px;fill:#0d0887;fill-opacity:1;stroke:gray;stroke-opacity:1" transform="translate(61.02 144.34)"/></g><g class="text"><text x="61.02" y="144.34" class="textpoint" style="font-family:&quot;Open Sans&quot;,verdana,arial,sans-serif;font-size:18px;fill:#000;fill-opacity:1;white-space:pre" text-anchor="middle" transform="translate(0 4.5)">Y</text></g></g><g class="trace scatter trace11e01b" style="stroke-miterlimit:2;opacity:1"><g class="lines"><path d="m3.54 147.79 34.24 38.99" class="js-line" style="vector-effect:none;fill:none;stroke:#000;stroke-opacity:1;stroke-width:1px;opacity:1"/></g></g><g class="trace scatter traceaea615" style="stroke-miterlimit:2;opacity:1"><g class="lines"><path d="M3.54 147.79 0 20.45" class="js-line" style="vector-effect:none;fill:none;stroke:#000;stroke-opacity:1;stroke-width:1px;opacity:1"/></g></g><g class="trace scatter trace7e7b88" style="stroke-miterlimit:2;opacity:1"><g class="lines"><path d="m3.54 147.79 127.88-6.7" class="js-line" style="vector-effect:none;fill:none;stroke:#000;stroke-opacity:1;stroke-width:1px;opacity:1"/></g></g><g class="trace scatter tracec93a0d" style="stroke-miterlimit:2;opacity:1"><g class="lines"><path d="M37.78 186.78 34.23 59.44" class="js-line" style="vector-effect:none;fill:none;stroke:#000;stroke-opacity:1;stroke-width:1px;opacity:1"/></g></g><g class="trace scatter trace4b62d9" style="stroke-miterlimit:2;opacity:1"><g class="lines"><path d="m37.78 186.78 127.88-6.7" class="js-line" style="vector-effect:none;fill:none;stroke:#000;stroke-opacity:1;stroke-width:1px;opacity:1"/></g></g><g class="trace scatter trace674c9c" style="stroke-miterlimit:2;opacity:1"><g class="lines"><path d="m0 20.45 34.23 38.99" class="js-line" style="vector-effect:none;fill:none;stroke:#000;stroke-opacity:1;stroke-width:1px;opacity:1"/></g></g><g class="trace scatter trace72a20e" style="stroke-miterlimit:2;opacity:1"><g class="lines"><path d="m0 20.45 127.88-6.7" class="js-line" style="vector-effect:none;fill:none;stroke:#000;stroke-opacity:1;stroke-width:1px;opacity:1"/></g></g><g class="trace scatter trace4513e9" style="stroke-miterlimit:2;opacity:1"><g class="lines"><path d="m34.23 59.44 127.88-6.7" class="js-line" style="vector-effect:none;fill:none;stroke:#000;stroke-opacity:1;stroke-width:1px;opacity:1"/></g></g><g class="trace scatter traceac98e5" style="stroke-miterlimit:2;opacity:1"><g class="lines"><path d="m131.42 141.09 34.24 38.99" class="js-line" style="vector-effect:none;fill:none;stroke:#000;stroke-opacity:1;stroke-width:1px;opacity:1"/></g></g><g class="trace scatter traceb3be48" style="stroke-miterlimit:2;opacity:1"><g class="lines"><path d="m131.42 141.09-3.54-127.34" class="js-line" style="vector-effect:none;fill:none;stroke:#000;stroke-opacity:1;stroke-width:1px;opacity:1"/></g></g><g class="trace scatter tracee66e22" style="stroke-miterlimit:2;opacity:1"><g class="lines"><path d="m165.66 180.08-3.55-127.34" class="js-line" style="vector-effect:none;fill:none;stroke:#000;stroke-opacity:1;stroke-width:1px;opacity:1"/></g></g><g class="trace scatter trace93578c" style="stroke-miterlimit:2;opacity:1"><g class="lines"><path d="m127.88 13.75 34.23 38.99" class="js-line" style="vector-effect:none;fill:none;stroke:#000;stroke-opacity:1;stroke-width:1px;opacity:1"/></g></g></g></g></g></g></g><g class="infolayer"><g class="annotation" data-index="0" style="opacity:1"><g class="annotation-text-g"><g class="cursor-pointer"><path fill="none" d="M.5.5h183v23H.5z" class="bg" style="stroke-width:1px;stroke:#000;stroke-opacity:0;fill:#000;fill-opacity:0" transform="translate(65 16)"/><text x="91.797" y="18" class="annotation-text" style="font-family:&quot;Open Sans&quot;,verdana,arial,sans-serif;font-size:16px;fill:#fff;fill-opacity:1;white-space:pre" text-anchor="middle" transform="translate(65 16)">1. Ba1 Te1 (spg=225)</text></g></g></g><g class="annotation" data-index="1" style="opacity:1"><g class="annotation-text-g"><g class="cursor-pointer"><path fill="none" d="M.5.5h173v23H.5z" class="bg" style="stroke-width:1px;stroke:#000;stroke-opacity:0;fill:#000;fill-opacity:0" transform="translate(363 16)"/><text x="86.938" y="18" class="annotation-text" style="font-family:&quot;Open Sans&quot;,verdana,arial,sans-serif;font-size:16px;fill:#fff;fill-opacity:1;white-space:pre" text-anchor="middle" transform="translate(363 16)">2. B1 As1 (spg=216)</text></g></g></g><g class="annotation" data-index="2" style="opacity:1"><g class="annotation-text-g"><g class="cursor-pointer"><path fill="none" d="M.5.5h244v23H.5z" class="bg" style="stroke-width:1px;stroke:#000;stroke-opacity:0;fill:#000;fill-opacity:0" transform="translate(621 16)"/><text x="122.594" y="18" class="annotation-text" style="font-family:&quot;Open Sans&quot;,verdana,arial,sans-serif;font-size:16px;fill:#fff;fill-opacity:1;white-space:pre" text-anchor="middle" transform="translate(621 16)">3. Ba1 Ga1 Si1 H1 (spg=156)</text></g></g></g><g class="annotation" data-index="3" style="opacity:1"><g class="annotation-text-g"><g class="cursor-pointer"><path fill="none" d="M.5.5h208v23H.5z" class="bg" style="stroke-width:1px;stroke:#000;stroke-opacity:0;fill:#000;fill-opacity:0" transform="translate(52 291)"/><text x="104.375" y="18" class="annotation-text" style="font-family:&quot;Open Sans&quot;,verdana,arial,sans-serif;font-size:16px;fill:#fff;fill-opacity:1;white-space:pre" text-anchor="middle" transform="translate(52 291)">4. Al1 Ga1 N2 (spg=115)</text></g></g></g><g class="annotation" data-index="4" style="opacity:1"><g class="annotation-text-g"><g class="cursor-pointer"><path fill="none" d="M.5.5h163v23H.5z" class="bg" style="stroke-width:1px;stroke:#000;stroke-opacity:0;fill:#000;fill-opacity:0" transform="translate(368 291)"/><text x="82.125" y="18" class="annotation-text" style="font-family:&quot;Open Sans&quot;,verdana,arial,sans-serif;font-size:16px;fill:#fff;fill-opacity:1;white-space:pre" text-anchor="middle" transform="translate(368 291)">5. B2 P2 (spg=186)</text></g></g></g><g class="annotation" data-index="5" style="opacity:1"><g class="annotation-text-g"><g class="cursor-pointer"><path fill="none" d="M.5.5h188v23H.5z" class="bg" style="stroke-width:1px;stroke:#000;stroke-opacity:0;fill:#000;fill-opacity:0" transform="translate(649 291)"/><text x="94.703" y="18" class="annotation-text" style="font-family:&quot;Open Sans&quot;,verdana,arial,sans-serif;font-size:16px;fill:#fff;fill-opacity:1;white-space:pre" text-anchor="middle" transform="translate(649 291)">6. Y2 S2 F2 (spg=129)</text></g></g></g></g></svg>
