<svg xmlns="http://www.w3.org/2000/svg" width="700" height="500" xmlns:v="https://vecta.io/nano"><style><![CDATA[.B{font-family:Open Sans, verdana, arial, sans-serif}.C{fill:#000}.D{text-anchor:end}.E{font-size:12px}.F{font-size:9px}.G{text-anchor:middle}]]></style><path d="M0 0h700v500H0z" fill="#fff"/><defs><clipPath id="A"><path d="M0 0h640v456H0z"/></clipPath></defs><g stroke="#d3d3d3"><path d="M162.02 11v456M271.2 11v456M380.38 11v456M489.57 11v456M598.75 11v456"/><path d="M49 444.2h640M49 407.79h640M49 359.67h640M49 323.26h640M49 286.85h640M49 238.73h640M49 202.32h640M49 165.91h640M49 117.78h640M49 81.38h640M49 44.97h640"/></g><path d="M52.83 11v456" stroke="#ebf0f8" stroke-width="2"/><g transform="translate(49 11)" clip-path="url(#A)" fill="#636efa"><path d="M0,4788V22.8H7.66V4788Z"/><path d="M6.39 4788V205.05h7.66V4788z"/><path d="M12.77 4788V196.85h7.67V4788z"/><path d="M19.16 4788V219.93h7.67V4788z"/><path d="M25.55 4788V234.44h7.66V4788z"/><path d="M31.94,4788V199.85H39.6V4788Z"/><path d="M38.32 4788V223.68h7.67V4788z"/><path d="M44.71 4788V235.65h7.67V4788z"/><path d="M51.1 4788V209.31h7.66V4788z"/><path d="M57.49 4788V222.72h7.66V4788z"/><path d="M63.87 4788V221.77h7.67V4788z"/><path d="M70.26 4788V196.27h7.66V4788z"/><path d="M76.65 4788V208.57h7.66V4788z"/><path d="M83.03,4788V210.05H90.7V4788Z"/><path d="M89.42 4788V215.59h7.67V4788z"/><path d="M95.81 4788V204.37h7.66V4788z"/><path d="M102.2 4788V208.57h7.66V4788z"/><path d="M108.58 4788V191.32h7.67V4788z"/><path d="M114.97 4788V192.92h7.66V4788z"/><path d="M121.36 4788V193.46h7.66V4788z"/><path d="M127.74 4788V204.37h7.67V4788z"/><path d="M134.13 4788V214.76h7.67V4788z"/><path d="M140.52 4788V209.31h7.66V4788z"/><path d="M146.91 4788V227.73h7.66V4788z"/><path d="M153.29 4788V249.55h7.67V4788z"/><path d="M159.68 4788V244.98h7.67V4788z"/><path d="M166.07 4788V246.46h7.66V4788z"/><path d="M172.46 4788V244.98h7.66V4788z"/><path d="M178.84 4788V258.18h7.67V4788z"/><path d="M185.23 4788V239.45h7.66V4788z"/><path d="M191.62 4788V256.34h7.66V4788z"/><path d="M198 4788V258.18h7.67V4788z"/><path d="M204.39 4788V273.29h7.67V4788z"/><path d="M210.78 4788V290.96h7.66V4788z"/><path d="M217.17 4788V278.55h7.66V4788z"/><path d="M223.55 4788V270.85h7.67V4788z"/><path d="M229.94 4788V302.68h7.66V4788z"/><path d="M236.33 4788V312.26h7.66V4788z"/><path d="M242.71 4788V312.26h7.67V4788z"/><path d="M249.1 4788V323.98h7.67V4788z"/><path d="M255.49 4788V307.25h7.66V4788z"/><path d="M261.88 4788V281.39h7.66V4788z"/><path d="M268.26 4788V339.09h7.67V4788z"/><path d="M274.65 4788V375.5h7.67V4788z"/><path d="M281.04 4788V360.39h7.66V4788z"/><path d="M287.43 4788V375.5h7.66V4788z"/><path d="M293.81 4788V330.99h7.67V4788z"/><path d="M300.2 4788V312.26h7.66V4788z"/><path d="M306.59 4788V339.09h7.66V4788z"/><path d="M312.97 4788V433.2h7.67V4788zM0 0zm325.75 4788V396.79h7.66V4788z"/><path d="M332.14 4788V396.79h7.66V4788z"/><path d="M338.52 4788V396.79h7.67V4788z"/><path d="M344.91 4788V375.5h7.66V4788z"/><path d="M351.3 4788V339.09h7.66V4788z"/><path d="M357.68 4788V433.2h7.67V4788z"/><path d="M364.07 4788V433.2h7.67V4788z"/><path d="M370.46 4788V339.09h7.66V4788z"/><path d="M376.85 4788V433.2h7.66V4788z"/><path d="M383.23 4788V433.2h7.67V4788zM0 0zm396.01 4788V360.39h7.66V4788z"/><path d="M402.4 4788V433.2h7.66V4788z"/><path d="M408.78 4788V396.79h7.67V4788zM0 0zm0 0zm0 0zm434.33 4788V433.2H442V4788zM0 0zm0 0zm0 0zm459.88 4788V433.2h7.66V4788zM0 0zm0 0zm0 0zm0 0zm0 0zm0 0zm504.59 4788V433.2h7.67V4788zM0 0zm0 0zm0 0zm0 0zm536.53 4788V396.79h7.66V4788z"/><path d="M542.91 4788V433.2h7.67V4788zM0 0zm0 0zm562.08 4788V375.5h7.66V4788z"/><path d="M568.46 4788V433.2h7.67V4788zM0 0zm0 0zm0 0zm0 0zm600.4 4788V433.2h7.66V4788zM0 0zm0 0zm0 0zm0 0zm632.34 4788V433.2H640V4788z"/></g><g fill="none" stroke="#000"><path d="M48,467.5H690M48,10.5H690"/><path d="M48.5 11v456m641-456v456"/></g><path d="M52.83 468v5m109.19-5v5m109.18-5v5m109.18-5v5m109.19-5v5m109.18-5v5" stroke="#444"/><text y="487.4" style="white-space:pre" x="52.83" class="B C E G">0</text><text y="487.4" style="white-space:pre" x="162.02" class="B C E G">2</text><text y="487.4" style="white-space:pre" x="271.2" class="B C E G">4</text><text y="487.4" style="white-space:pre" x="380.38" class="B C E G">6</text><text y="487.4" style="white-space:pre" x="489.57" class="B C E G">8</text><text y="487.4" style="white-space:pre" x="598.75" class="B C E G">10</text><path d="M48 444.2h-5m5-36.41h-5m5-48.12h-5m5-36.41h-5m5-36.41h-5m5-48.12h-5m5-36.41h-5m5-36.41h-5m5-48.13h-5m5-36.4h-5m5-36.41h-5" stroke="#444"/><text x="40.6" y="448.4" style="white-space:pre" class="B C D E">1</text><text x="40.6" y="410.94" style="white-space:pre" class="B C D F">2</text><text x="40.6" y="362.82" style="white-space:pre" class="B C D F">5</text><text x="40.6" y="327.46" style="white-space:pre" class="B C D E">10</text><text x="40.6" y="290" style="white-space:pre" class="B C D F">2</text><text x="40.6" y="241.88" style="white-space:pre" class="B C D F">5</text><text x="40.6" y="206.52" style="white-space:pre" class="B C D E">100</text><text x="40.6" y="169.06" style="white-space:pre" class="B C D F">2</text><text x="40.6" y="120.93" style="white-space:pre" class="B C D F">5</text><text x="40.6" y="85.58" style="white-space:pre" class="B C D E">1000</text><text x="40.6" y="48.12" style="white-space:pre" class="B C D F">2</text></svg>