<svg xmlns="http://www.w3.org/2000/svg" xmlns:xlink="http://www.w3.org/1999/xlink" width="1163.199" height="1111.463" viewBox="0 0 872.4 833.597"><style>.B{fill:#1f77b4}.C{clip-path:url(#AI)}.D{clip-path:url(#AJ)}.E{clip-path:url(#AL)}.F{clip-path:url(#AF)}.G{clip-path:url(#AC)}.H{clip-path:url(#AK)}.I{clip-path:url(#AA)}.J{clip-path:url(#AE)}.K{clip-path:url(#AB)}.L{clip-path:url(#AG)}.M{clip-path:url(#AH)}.N{clip-path:url(#AD)}.O{stroke:#000}.P{fill:#bd80e3}.Q{fill:#c2ff00}.R{fill:#f0c8a0}.S{fill:#ff8000}.T{fill:#668080}.U{fill:#ffb5b5}.V{fill:#8aff00}</style><g class="O"><path d="M78.764 138.798a33.283 33.283 0 1 0-66.566 0 33.283 33.283 0 0 0 66.566 0m0 0z" fill="#00c900" class="I"/><g class="B"><path d="m82.397 142.213-3.356-.31m10.067.931-3.355-.31m10.067.931-3.356-.31m10.068.931-3.356-.31m-38.178-33.185-1.41 2.565m49.656 31.551-3.356-.31m10.067.931-3.355-.31m-48.781-39.557-1.41 2.565m60.258 37.924-3.356-.311m10.068.931-3.356-.31M66.64 100.32l-1.41 2.566m70.86 44.295-3.355-.31M69.461 95.19l-1.41 2.566m74.751 50.046-3.355-.31m-87.237-1.863-.612-.621m97.916 3.415-3.356-.31M72.282 90.06l-1.41 2.565m80.053 53.233-1.41 2.565m.611.622-.612-.622M75.103 84.93l-1.41 2.565m80.053 53.233-1.41 2.565m-98.903 3.578-.612-.621m98.528 4.037-.612-.621M77.924 79.8l-1.41 2.565m80.053 53.233-1.41 2.565m-100.501 9.95-.612-.621M80.745 74.67l-1.41 2.564m80.053 53.234-1.41 2.565m-5.406 18.496-.612-.621M83.566 69.539l-1.41 2.565m80.053 53.233-1.41 2.565m-104.92 21.453-.612-.621m31.121-84.325-1.411 2.565m80.053 53.233-1.41 2.565m-9.825 29.998-.611-.62M89.209 59.278l-1.41 2.566m80.052 53.233-1.41 2.565M57.102 150.597l-.611-.621m36.073-90.387-3.355-.31m.611.621-.611-.622m65.809 94.735-.611-.621M99.276 60.21l-3.356-.31m74.752 50.046-1.41 2.566m-63.274-51.681-3.356-.31m70.861 44.295-1.41 2.565M58.325 151.84l-.611-.622M112.7 61.452l-3.356-.31m-18.301 0-.611-.622m65.81 94.735-.612-.621m-36.219-92.561-3.355-.31m60.258 37.923-1.41 2.565m-48.781-39.557-3.356-.31m-63.219 90.697-.611-.62m73.898-89.146-3.356-.31m49.656 31.551-1.41 2.565M92.267 62.384l-.612-.621m65.81 94.734-.612-.621m-17.306-91.94-3.356-.31m45.765 25.799-1.41 2.565m-34.288-27.433-3.355-.31m-82.131 90.076-.612-.62m92.81-88.525-3.356-.31M93.49 63.626l-.612-.621m65.81 94.734-.612-.621m26.701-72.823-1.41 2.565M159.682 65.8l-3.356-.311m10.068.931-3.356-.31m24.561 13.055-1.411 2.565M61.995 155.565l-.612-.62m111.722-87.904-3.355-.31m-75.037-1.863-.612-.621m65.81 94.733-.612-.62m20.518-90.698-3.356-.31m13.959 6.682-1.411 2.566m-2.48-8.317-3.356-.31M63.218 156.807l-.612-.62M193.24 68.904l-1.41 2.565M95.936 66.11l-.612-.621m97.916 3.415-3.355-.31m-28.751 91.629-.611-.621m33.329-90.077-.611-.62" class="I"/></g><path d="M150.203 113.477a21.363 21.363 0 1 0-42.726 0 21.363 21.363 0 0 0 42.726 0m0 0z" fill="#d47a00" class="I"/><g class="B"><path d="m64.441 158.05-.612-.622M97.16 67.352l-.612-.621M67.797 158.36l-3.356-.31m97.916 3.415-.611-.621m-95.894-5.36-1.411 2.565m130.634-87.282-.611-.62M74.509 158.98l-3.356-.31m-2.48-8.316-1.41 2.565m13.957 6.683-3.355-.31m20.517-90.698-.611-.621m65.809 94.734-.611-.621m-75.037-1.863-3.356-.31M196.299 72.01l-.612-.622M71.494 145.223l-1.41 2.566m24.56 13.055-3.356-.31m10.068.931-3.356-.31m-23.685-21.062-1.41 2.565m26.7-72.822-.611-.621m65.81 94.734-.612-.621m-56.125-1.242-3.356-.31m92.811-88.525-.612-.62m-82.13 90.076-3.357-.31m-34.287-27.434-1.41 2.565m45.764 25.8-3.355-.31m-17.306-91.94-.612-.621m65.81 94.733-.612-.62m-85.458-34.737-1.41 2.565m49.656 31.551-3.356-.31m73.898-89.146-.612-.62m-63.219 90.697-3.356-.31m-48.78-39.558-1.41 2.565m60.258 37.923-3.356-.31m-36.218-92.56-.612-.621m65.81 94.734-.612-.621m-18.3 0-3.356-.31m54.986-89.767-.612-.62M85.599 119.572l-1.41 2.565m70.861 44.296-3.356-.31M88.42 114.442l-1.41 2.565m74.751 50.047-3.356-.31m-55.13-93.182-.612-.621m65.81 94.734-.612-.621m.612.621-3.356-.31m36.074-90.388-.611-.62M91.241 109.312l-1.41 2.565m80.053 53.233-1.411 2.565m-63.975-92.871-.612-.621m-9.824 29.998-1.41 2.565m80.053 53.234-1.41 2.565m31.119-84.325-.611-.622M96.883 99.051l-1.41 2.565m80.053 53.234-1.41 2.564m-68.395-81.368-.611-.621M99.704 93.92l-1.41 2.566m80.053 53.233-1.41 2.565m26.7-72.823-.611-.62M102.525 88.79l-1.41 2.566m80.053 53.233-1.41 2.565m-72.814-69.866-.611-.621m98.527 4.036-.611-.62m-98.903 3.577-1.41 2.565m80.053 53.233-1.41 2.565M108.168 78.53l-.612-.621m.612.621-1.411 2.565m80.053 53.233-1.41 2.565M111.523 78.84l-3.355-.31m97.916 3.415-.612-.62m-87.237-1.864-3.356-.31m74.752 50.047-1.41 2.565m-63.274-51.681-3.356-.31m70.861 44.295-1.41 2.566m16.265-43.446-.612-.62m-75.036-1.864-3.356-.31m10.067.931-3.356-.31m60.259 37.923-1.41 2.565m-48.781-39.557-3.356-.31m66.804 2.795-.612-.622m-56.124-1.242-3.356-.31m49.656 31.551-1.41 2.565m-38.178-33.185-3.356-.31m45.765 25.8-1.41 2.565m-34.288-27.434-3.356-.31m47.892 2.173-.611-.62m-37.212-.621-3.357-.311m35.163 19.427-1.41 2.565M178.64 85.05l-3.355-.31m10.068.931-3.356-.31m24.56 13.055-1.41 2.565m5.829-14.068-.611-.62m-18.301-.001-3.356-.31m10.068.931-3.356-.31m13.958 6.683-1.41 2.565m-2.48-8.316-3.356-.311m10.068.932-.612-.621m.612.621-1.411 2.565m1.411-2.565-3.356-.311" class="I"/></g></g><g transform="matrix(.1 0 0 -.1 38.988 141.557)"><defs><path id="A" d="M1259 2228V519h1013q509 0 754 211 246 211 246 645 0 438-246 645-245 208-754 208H1259zm0 1919V2741h935q462 0 688 173 227 174 227 530 0 353-227 528-226 175-688 175h-935zm-631 519h1613q722 0 1112-300 391-300 391-853 0-429-200-682t-588-315q466-100 724-418 258-317 258-792 0-625-425-966Q3088 0 2303 0H628v4666z" transform="scale(.01563)"/><path id="B" d="M2194 1759q-697 0-966-159t-269-544q0-306 202-486 202-179 548-179 479 0 768 339t289 901v128h-572zm1147 238V0h-575v531q-197-318-491-470T1556-91q-537 0-855 302-317 302-317 808 0 590 395 890 396 300 1180 300h807v57q0 397-261 614t-733 217q-300 0-585-72-284-72-546-216v532q315 122 612 182 297 61 578 61 760 0 1135-394 375-393 375-1193z" transform="scale(.01563)"/></defs><use xlink:href="#A"/><use xlink:href="#B" x="68.604"/></g><g transform="matrix(.1 0 0 -.1 123.56 116.236)"><defs><path id="C" d="M-19 4666h3947v-532H2272V0h-634v4134H-19v532z" transform="scale(.01563)"/><path id="D" d="M3597 1894v-281H953q38-594 358-905t892-311q331 0 642 81t618 244V178Q3153 47 2828-22t-659-69q-838 0-1327 487-489 488-489 1320 0 859 464 1363 464 505 1252 505 706 0 1117-455 411-454 411-1235zm-575 169q-6 471-264 752-258 282-683 282-481 0-770-272t-333-766l2050 4z" transform="scale(.01563)"/></defs><use xlink:href="#C"/><use xlink:href="#D" x="44.084"/></g><g transform="matrix(.16 0 0 -.16 49.759 50.458)"><defs><path id="E" d="M2456 2859q285 0 431 125 147 125 147 369 0 241-147 367-146 127-431 127h-665v-988h665zm41-2040q362 0 545 153t183 462q0 304-181 455-181 152-547 152h-706V819h706zm1119 1678q387-113 599-416 213-303 213-743 0-675-456-1007Q3516 0 2584 0H588v4666h1806q972 0 1408-294t436-941q0-340-160-579-159-239-462-355z" transform="scale(.01563)"/><path id="F" d="M2106 1575q-350 0-527-119-176-118-176-350 0-212 142-333 143-120 396-120 315 0 531 226 216 227 216 568v128h-582zm1710 422V0H2688v519q-225-319-507-465-281-145-684-145-544 0-883 317-339 318-339 824 0 616 423 903 424 288 1330 288h660v87q0 266-210 389-209 124-653 124-359 0-669-72-309-72-575-216v853q360 88 722 133 363 45 725 45 947 0 1367-373 421-373 421-1214z" transform="scale(.01563)"/><path id="G" d="M31 4666h4300v-910H2784V0H1581v3756H31v910z" transform="scale(.01563)"/><path id="H" d="M4031 1759v-318H1416q40-394 284-591t681-197q353 0 723 105 371 105 762 317V213Q3469 63 3072-14t-794-77q-950 0-1477 483-526 483-526 1355 0 856 517 1346 517 491 1424 491 825 0 1320-497 495-496 495-1328zm-1150 372q0 319-186 514-186 196-486 196-325 0-528-183t-253-527h1453z" transform="scale(.01563)"/><path id="I" d="M2413-844h-929Q1006-72 778 623q-228 696-228 1380 0 685 229 1386 230 702 705 1467h929q-400-740-600-1448t-200-1399q0-690 198-1400 198-709 602-1453z" transform="scale(.01563)"/><path id="J" d="M588 4666h3246v-910H1791v-868h1922v-910H1791V0H588v4666z" transform="scale(.01563)"/><path id="K" d="M3781 2919q213 325 505 495t642 170q603 0 919-372 316-371 316-1081V0H5038v1825q3 41 4 84 2 44 2 125 0 372-110 539-109 168-353 168-318 0-492-263-173-262-180-759V0H2784v1825q0 581-100 748-100 168-356 168-322 0-497-264t-175-755V0H531v3500h1125v-512q207 296 474 446t589 150q362 0 640-175 279-175 422-490z" transform="scale(.01563)"/><path id="L" d="M347 2297h1962v-909H347v909z" transform="scale(.01563)"/><path id="M" d="M2981 2516q472-122 717-424 246-301 246-767 0-694-532-1055Q2881-91 1863-91q-360 0-721 58T428 141v928q338-169 670-255 333-86 655-86 478 0 733 165 255 166 255 476 0 319-261 483t-771 164h-481v775h506q454 0 675 142 222 142 222 433 0 268-216 415-215 147-609 147-290 0-587-66-297-65-591-193v881q356 100 706 150t688 50q909 0 1360-299 452-298 452-898 0-409-216-670-215-261-637-367z" transform="scale(.01563)"/><path id="N" d="M513-844q400 744 600 1453 200 710 200 1400 0 691-200 1399T513 4856h928q475-765 704-1467 230-701 230-1386 0-684-228-1380-228-695-706-1467H513z" transform="scale(.01563)"/></defs><use xlink:href="#E"/><use xlink:href="#F" x="76.221"/><use xlink:href="#G" x="143.701"/><use xlink:href="#H" x="198.664"/><use xlink:href="#I" x="301.301"/><use xlink:href="#J" x="347.004"/><use xlink:href="#K" x="415.314"/><use xlink:href="#L" x="519.514"/><use xlink:href="#M" x="561.018"/><use xlink:href="#K" x="630.598"/><use xlink:href="#N" x="734.797"/></g><g class="O"><path d="M284.129 141.808a27.965 27.965 0 1 0-55.93 0 27.965 27.965 0 0 0 55.93 0m0 0z" class="K P"/><path d="m291.948 145.119-5.112-.473m15.336 1.419-5.112-.473m15.336 1.418-5.112-.472m-36.079-32.082-2.149 3.908m53.564 29.593-5.113-.473m15.336 1.419-5.112-.473m-52.229-41.789-2.148 3.908m69.713 39.3-5.112-.473M279.8 98.826l-2.15 3.908m75.64 48.061-5.111-.473m-85.493-1.892-.932-.946m101.761 4.256-5.112-.472m-74.306-60.256-2.149 3.907m83.715 52.914-2.148 3.908m.931.946-.931-.946m-98.966-1.419-.932-.946m24.777-66.179-2.149 3.907m83.715 52.914-2.148 3.908m-1.502 10.653-.932-.946m-72.687-78.251-2.148 3.907m83.715 52.915-2.149 3.907" class="K B"/><path d="M318.913 128.744a19.74 19.74 0 1 0-39.48 0 19.74 19.74 0 0 0 39.48 0m0 0z" class="K U"/><g class="B"><path d="m266.412 152.214-.931-.946m31.507-83.701-2.148 3.908m83.715 52.914-2.148 3.907m-8.234 28.174-.932-.945m-65.955-95.773-2.149 3.908m83.715 52.914-2.148 3.907m-112.429 33.625-.931-.946m39.054-92.935-5.112-.473m.931.946-.931-.946m15.335 1.419-5.111-.473m75.64 48.062-2.15 3.906m-14.964 45.697-.932-.946m-42.259-95.3-5.112-.473m-51.594 94.354-.932-.946m122.24-54.108-2.149 3.908M337.07 63.063l-5.113-.473m-27.877 0-.931-.946m44.144 2.366-5.112-.474m29.719 96.718-.932-.946m24.776-66.178-2.148 3.907m-36.079-32.082-5.112-.473m-80.403 93.408-.932-.946m96.67-91.043-5.111-.473m-56.685-.946-.932-.946m95.029 21.779-2.148 3.907m-19.929-22.375-5.111-.473m.909 95.772-.931-.946m15.357-93.407-5.112-.473m21.263 10.18-2.149 3.907m-128.325 78.374-.932-.946m125.479-90.096-5.112-.473m-85.493-1.892-.932-.946m101.761 4.257-2.149 3.907m2.149-3.907-5.112-.473m-27.898 94.826-.932-.946m34.874-92.461-.932-.946m-132.908 91.988-.931-.946m34.873-92.461-.931-.946m-27.899 94.826-5.112-.473m2.149-3.907-2.149 3.907m101.761 4.257-.932-.946m-85.493-1.892-5.112-.473M411.43 72.523l-.93-.946m-128.326 78.374-2.149 3.908m21.263 10.179-5.112-.473m15.357-93.407-.931-.946m.91 95.772-5.112-.473m-19.929-22.375-2.148 3.908m95.029 21.778-.932-.946m-56.685-.946-5.112-.473m96.671-91.042-.932-.946m-80.402 93.407-5.113-.473m-36.078-32.081-2.15 3.907m24.778-66.179-.932-.946m29.718 96.718-5.112-.473m44.144 2.365-.931-.946m-27.877 0-5.112-.473m-52.229-41.788-2.149 3.907m122.24-54.107-.931-.946m-51.596 94.353-5.111-.473M315.26 73.942l-.932-.946m-14.965 45.696-2.149 3.907m75.641 48.061-5.112-.473m15.335 1.419-.931-.946m.931.946-5.112-.473m39.054-92.934-.931-.946M303.66 110.877l-2.148 3.907m83.715 52.915-2.149 3.907m-65.955-95.772-.932-.946m-8.233 28.174-2.15 3.908m83.716 52.914-2.148 3.907m31.508-83.701-.932-.945M312.255 95.247l-2.149 3.908m83.715 52.914-2.148 3.907m-72.687-78.25-.931-.946m-1.503 10.653-2.149 3.907m83.716 52.914-2.149 3.908m24.777-66.179-.932-.946m-98.965-1.419-.932-.946m.932.946-2.15 3.907m83.716 52.915-2.149 3.907M325.961 80.09l-5.112-.472m101.761 4.257-.932-.946m-85.493-1.892-5.112-.473m75.64 48.061-2.148 3.907m-58.156-50.549-5.112-.473m69.713 39.3-2.148 3.907m-52.229-41.788-5.112-.473m72.952 3.311-.931-.946m-56.685-.946-5.112-.473m53.563 29.593-2.149 3.907M377.08 84.82l-5.112-.472m15.336 1.419-5.112-.473m37.413 19.886-2.149 3.907m8.88-21.429-.931-.945m-27.877 0-5.112-.473m15.336 1.418-5.112-.473m21.262 10.18-2.148 3.908m-3.778-12.669-5.112-.473M428.2 89.55l-.932-.946m.932.946-2.15 3.908m2.15-3.908-5.112-.473" class="K"/></g></g><g transform="matrix(.1 0 0 -.1 250.14 144.567)"><defs><path id="O" d="m2188 4044-857-2322h1716l-859 2322zm-357 622h716L4325 0h-656l-425 1197H1141L716 0H50l1781 4666z" transform="scale(.01563)"/><path id="P" d="M2834 3397v-544q-243 125-506 187-262 63-544 63-428 0-642-131t-214-394q0-200 153-314t616-217l197-44q612-131 870-370t258-667q0-488-386-773Q2250-91 1575-91q-281 0-586 55T347 128v594q319-166 628-249 309-82 613-82 406 0 624 139 219 139 219 392 0 234-158 359-157 125-692 241l-200 47q-534 112-772 345-237 233-237 639 0 494 350 762 350 269 994 269 318 0 599-47 282-46 519-140z" transform="scale(.01563)"/></defs><use xlink:href="#O"/><use xlink:href="#P" x="68.408"/></g><use xlink:href="#A" transform="matrix(.1 0 0 -.1 295.743 131.503)"/><g transform="matrix(.16 0 0 -.16 273.049 50.956)"><defs><path id="Q" d="M3419 850H1538L1241 0H31l1728 4666h1435L4922 0H3713l-294 850zm-1581 866h1278l-638 1856-640-1856z" transform="scale(.01563)"/><path id="R" d="M3272 3391v-850q-359 150-694 225-334 75-631 75-319 0-474-80-154-80-154-245 0-135 117-207 117-71 420-106l197-28q860-109 1156-359 297-250 297-785 0-559-413-841Q2681-91 1863-91q-347 0-718 55-370 55-761 164v850q335-162 686-244 352-81 714-81 329 0 494 90 166 91 166 270 0 150-114 223t-455 114l-197 25q-747 94-1047 347t-300 769q0 556 381 824 382 269 1169 269 310 0 650-47 341-46 741-146z" transform="scale(.01563)"/><path id="S" d="M2356 3675 1038 1722h1318v1953zm-200 991h1338V1722h665V850h-665V0H2356v850H288v1031l1868 2785z" transform="scale(.01563)"/></defs><use xlink:href="#E"/><use xlink:href="#Q" x="76.221"/><use xlink:href="#R" x="153.613"/><use xlink:href="#I" x="247.949"/><use xlink:href="#J" x="293.652"/><use xlink:href="#L" x="358.838"/><use xlink:href="#S" x="400.342"/><use xlink:href="#M" x="469.922"/><use xlink:href="#K" x="539.502"/><use xlink:href="#N" x="643.701"/></g><g class="O"><g class="B"><path d="M618.965 145.968h-4.393m2.313-3.804 2.08 3.804m-8.785 0h-4.394m13.944.777-.765-.777m-6.24-11.413 2.08 3.805m-13.411 7.608H597m11.565-19.021 2.08 3.804m-18.037 15.217h-4.393m-4.393 0h-4.393m24.976-26.63 2.08 3.805m-31.448 22.825h-4.393m29.602-34.238 2.08 3.804m-36.076 30.434h-4.392m59.402 2.33-.766-.777m-24.408-43.4 2.08 3.804m-40.701 38.043h-4.393m-4.392 0h-4.393m47.639-49.456 2.08 3.805m-6.24-11.413 2.08 3.804m-6.24-11.413 2.08 3.804m-6.24-11.413 2.08 3.805m41.262 72.359-.764-.776" class="G"/></g><path d="M542.496 145.968a42.139 42.139 0 1 0-84.278 0 42.139 42.139 0 0 0 84.278 0m0 0z" fill="#00c900" class="G"/><g class="B"><path d="m575.286 66.078 2.08 3.804m-6.24-11.412 2.08 3.804m-6.239-11.414 2.08 3.805m-6.24-11.413 2.08 3.804m59.431 104.348-.765-.777M562.807 43.252h-4.393m-4.393 0h-4.393m13.943.776-.764-.776m-17.572 0h-4.392m-63.364 60.869 2.08 3.804m56.891-64.673h-4.393m-58.737 53.26 2.079 3.805m52.265-57.065h-4.393M469.16 88.904l2.08 3.804m47.638-49.456h-4.393m111.362 109.705-.765-.777M510.093 43.252H505.7M465 81.295l2.08 3.804m98.02-39.518-.764-.776m-63.029-1.553h-4.393M460.84 73.686l2.08 3.805m29.601-34.239h-4.393M456.68 66.078l2.08 3.804m24.976-26.63h-4.393m-4.393 0h-4.393M452.52 58.47l2.08 3.804m172.777 92.236-.765-.777M466.164 43.252h-4.393M448.36 50.86l2.08 3.805m6.939-11.413h-4.393m113.644 3.882-.765-.776M444.2 43.252l2.08 3.804m2.313-3.804H444.2m.765.776-.765-.776m184.706 112.811-.765-.777M568.16 48.687l-.765-.776m-120.901-2.33-.765-.776m184.706 112.811-.764-.777M569.689 50.24l-.765-.776M508.77 154.51l-.765-.777M448.023 47.134l-.764-.776m184.706 112.811-.765-.777M571.218 51.793l-.764-.776M510.3 156.063l-.766-.777M449.553 48.687l-.765-.776m184.706 112.811-.765-.777M572.748 53.346l-.765-.776m-60.154 105.046-.765-.777M451.082 50.24l-.765-.776m184.706 112.81-.764-.776M574.277 54.9l-.765-.777m-60.154 105.046-.765-.777" class="G"/></g><path d="M598.3 125.629a23.911 23.911 0 1 0-47.823 0 23.911 23.911 0 0 0 47.823 0m-.001 0z" fill="#c28f8f" class="G"/><path d="m452.611 51.793-.764-.776m184.706 112.81-.765-.776" class="G B"/><path d="M535.71 89.159a21.755 21.755 0 1 0-43.51 0 21.755 21.755 0 0 0 43.51 0m0 0z" class="G R"/><g class="B"><path d="m575.806 56.452-.764-.776m-60.155 105.046-.764-.777M454.14 53.346l-.764-.776m184.706 112.81-.765-.776M577.336 58.005l-.765-.776m-60.154 105.045-.765-.776M455.67 54.9l-.764-.777m184.705 112.81-.764-.776M578.865 59.558l-.765-.776m-60.154 105.045-.765-.776M457.2 56.452l-.765-.776m184.705 112.81-.764-.776M580.394 61.111l-.764-.776M519.475 165.38l-.764-.776M458.729 58.005l-.765-.776M642.67 170.04l-.765-.777M581.924 62.664l-.765-.777m-60.154 105.046-.765-.776M460.258 59.558l-.764-.776M644.2 171.592l-.765-.776" class="G"/></g><path d="M588.883 134.177a6.076 6.076 0 1 0-12.152 0 6.076 6.076 0 0 0 12.152 0m0 0z" fill="#fff" class="G"/><g class="B"><path d="m583.453 64.217-.765-.777M644.2 171.592h-4.393m2.313-3.804 2.08 3.804m-121.666-3.106-.765-.776m113.645 3.882h-4.393m6.939-11.412 2.08 3.804m-13.412 7.608h-4.393M461.788 61.111l-.765-.776M633.8 152.57l2.08 3.805m-18.038 15.217h-4.392m-4.393 0h-4.393m24.976-26.63 2.08 3.804m-31.449 22.826h-4.393M584.982 65.77l-.764-.777m41.262 72.36 2.08 3.805m-36.075 30.434h-4.392m-63.03-1.552-.764-.777m98.021-39.518 2.08 3.804m-40.7 38.043h-4.393M463.317 62.664l-.765-.777m111.362 109.705h-4.393m47.639-49.456 2.08 3.804m-54.112 45.652h-4.392M613 114.528l2.08 3.804m-58.737 53.26h-4.393m56.89-64.673 2.08 3.804m-63.363 60.869h-4.393m43.348-104.269-.765-.777m-60.154 105.046-.765-.776m13.943.776h-4.393M604.68 99.31l2.08 3.805m-76.774 68.477h-4.393M464.846 64.217l-.764-.777m59.431 104.348 2.08 3.804m74.927-79.89 2.08 3.804m-83.247 64.674 2.08 3.804m74.928-79.891 2.08 3.804m-83.248 64.673 2.08 3.805m74.928-79.891 2.08 3.805m-6.24-11.413-.764-.777m-76.244 76.863 2.08 3.804m74.928-79.89 2.08 3.804m-2.08-3.804h-4.393M466.376 65.77l-.765-.777m41.262 72.36 2.08 3.805m70.303-72.282h-4.393m-4.393 0h-4.393m-63.364 60.869 2.08 3.804m56.891-64.673h-4.393m-58.737 53.26 2.08 3.804m52.264-57.064h-4.392m-54.112 45.652 2.08 3.804m47.639-49.456h-4.393m-4.393 0h-4.393m-40.7 38.043 2.08 3.804m-24.409-43.4-.765-.777m59.401 2.33h-4.392M486.074 99.31l2.08 3.805m29.602-34.239h-4.393m-31.449 22.826 2.08 3.804m24.976-26.63h-4.393m-4.393 0h-4.392m-18.038 15.217 2.08 3.804m11.565-19.021h-4.393m-13.412 7.608 2.08 3.805m-6.239-11.413-.765-.777m13.943.777h-4.393m-8.785 0 2.08 3.804m2.312-3.804h-4.392" class="G"/></g></g><g transform="matrix(.1 0 0 -.1 493.864 148.728)"><use xlink:href="#A"/><use xlink:href="#B" x="68.604"/></g><g transform="matrix(.1 0 0 -.1 567.45 128.388)"><defs><path id="T" d="M3809 666v1253H2778v519h1656V434q-365-259-806-392-440-133-940-133-1094 0-1712 639-617 640-617 1780 0 1144 617 1783 618 639 1712 639 456 0 867-113 411-112 758-331v-672q-350 297-744 447t-828 150q-857 0-1287-478-429-478-429-1425 0-944 429-1422 430-478 1287-478 334 0 596 58 263 58 472 180z" transform="scale(.01563)"/></defs><use xlink:href="#T"/><use xlink:href="#B" x="77.49"/></g><g transform="matrix(.1 0 0 -.1 509.392 91.918)"><defs><path id="U" d="M3425 4513v-616q-359 172-678 256-319 85-616 85-515 0-795-200t-280-569q0-310 186-468 186-157 705-254l381-78q706-135 1042-474t336-907q0-679-455-1029Q2797-91 1919-91q-331 0-705 75-373 75-773 222v650q384-215 753-325 369-109 725-109 540 0 834 212 294 213 294 607 0 343-211 537t-692 291l-385 75q-706 140-1022 440-315 300-315 835 0 619 436 975t1201 356q329 0 669-60 341-59 697-177z" transform="scale(.01563)"/><path id="V" d="M603 3500h575V0H603v3500zm0 1363h575v-729H603v729z" transform="scale(.01563)"/></defs><use xlink:href="#U"/><use xlink:href="#V" x="63.477"/></g><g transform="matrix(.1 0 0 -.1 579.047 136.936)"><defs><path id="W" d="M628 4666h631V2753h2294v1913h631V0h-631v2222H1259V0H628v4666z" transform="scale(.01563)"/></defs><use xlink:href="#W"/></g><g transform="matrix(.16 0 0 -.16 470.11 33.63)"><defs><path id="X" d="M4781 347q-450-219-934-329Q3363-91 2847-91q-1166 0-1847 652T319 2328q0 1128 693 1775 694 647 1901 647 465 0 891-88 427-87 805-259v-965q-390 221-776 330-386 110-774 110-718 0-1107-402-389-401-389-1148 0-740 375-1144 375-403 1065-403 188 0 349 23 161 24 289 74v906h-735v807h1875V347z" transform="scale(.01563)"/><path id="Y" d="M3834 4519v-988q-384 172-750 259-365 88-690 88-431 0-638-119-206-118-206-368 0-188 139-293 139-104 505-179l512-103q778-157 1106-476 329-318 329-906 0-771-458-1148T2284-91q-443 0-890 85-447 84-894 250v1015q447-237 864-358 417-120 805-120 394 0 603 131 209 132 209 376 0 218-142 337t-567 213l-466 103q-700 150-1024 478-323 328-323 884 0 697 450 1072t1294 375q385 0 791-58t840-173z" transform="scale(.01563)"/><path id="Z" d="M538 3500h1118V0H538v3500zm0 1363h1118v-913H538v913z" transform="scale(.01563)"/><path id="a" d="M588 4666h1203V2888h1775v1778h1203V0H3566v1978H1791V0H588v4666z" transform="scale(.01563)"/><path id="b" d="M588 4666h1996q891 0 1367-396 477-395 477-1126 0-735-477-1130-476-395-1367-395h-793V0H588v4666zm1203-872V2491h665q350 0 541 170t191 483q0 312-191 481t-541 169h-665z" transform="scale(.01563)"/><path id="c" d="M750 831h1063v3016L722 3622v819l1084 225h1144V831h1063V0H750v831z" transform="scale(.01563)"/></defs><use xlink:href="#E"/><use xlink:href="#F" x="76.221"/><use xlink:href="#X" x="143.701"/><use xlink:href="#F" x="225.781"/><use xlink:href="#Y" x="293.262"/><use xlink:href="#Z" x="365.283"/><use xlink:href="#a" x="399.561"/><use xlink:href="#I" x="518.066"/><use xlink:href="#b" x="563.77"/><use xlink:href="#M" x="637.061"/><use xlink:href="#K" x="706.641"/><use xlink:href="#c" x="810.84"/><use xlink:href="#N" x="880.42"/></g><g class="O"><g class="B"><path d="m802.522 106.653 3.968-3.85m-11.903 11.55 3.968-3.85m-11.903 11.549 3.967-3.85m-11.902 11.55 3.967-3.85m-11.903 11.549 3.968-3.85m-11.903 11.549 3.968-3.85m-11.904 11.55 3.968-3.85m-11.902 11.55 3.967-3.85m-11.903 11.549 3.968-3.85m-11.903 11.549 3.968-3.85m67.685-73.144 3.732 3.85m-79.117 69.295 3.732 3.85m75.385-73.146.939.954m-76.324 72.191.94.954m63.249-85.648 3.732 3.85M719.91 164.4l3.732 3.849m64.188-84.694 3.732 3.85M712.446 156.7l3.732 3.85m64.189-84.695 3.732 3.85M704.982 149l3.732 3.85m64.189-84.694 3.732 3.85M697.519 141.3l3.731 3.85m107.118-40.44.94.955m-76.324 72.191.94.954M765.44 60.456l3.731 3.85m-79.116 69.295 3.732 3.85m64.189-84.694 3.731 3.85m-79.116 69.295 3.732 3.85m64.189-84.695 3.732 3.85m-79.117 69.295 3.732 3.85m64.189-84.694 3.732 3.85m-79.116 69.295 3.732 3.85m138.851-7.735.94.954m-76.325 72.191.94.954m-.218-151.058 3.732 3.85M660.2 102.803l3.732 3.85m67.685-73.145 3.967-3.85m-11.902 11.55 3.967-3.85m-11.903 11.549 3.968-3.85m-11.903 11.55 3.968-3.85m-11.903 11.549 3.968-3.85m-11.904 11.55 3.968-3.85m-11.902 11.549 3.967-3.85M676.07 87.404l3.968-3.85m-11.903 11.55 3.968-3.85M660.2 102.803l3.968-3.85m71.416-69.294.94.953M660.2 102.803l.94.954m150.985 4.769.94.954m-76.325 72.19.94.955" class="N"/></g><path d="M791.92 146.103a16.499 16.499 0 1 0-32.997 0 16.499 16.499 0 0 0 32.998 0m0 0z" fill="#3050f8" class="N"/><path d="m737.463 31.566.94.954m-76.324 72.19.939.955m150.986 4.769.94.953m-76.324 72.191.939.954m-.217-151.058.939.953m-76.324 72.191.94.954m150.985 4.769.94.954m-76.324 72.191.94.954m-.218-151.059.94.954m-76.324 72.191.939.954m150.986 4.769.94.953m-76.324 72.191.939.954m-.217-151.058.939.953m-76.324 72.192.94.953m150.986 4.769.939.954m-76.324 72.191.94.954m-.218-151.059.94.954m-76.324 72.191.939.954" class="N B"/><path d="M774.142 115.68a28.118 28.118 0 1 0-56.235 0 28.118 28.118 0 0 0 56.235 0m0 0z" fill="#bfa6a6" class="N"/><g class="B"><path d="m821.518 118.064.94.953m-76.324 72.191.939.954m-.217-151.058.939.953m-76.324 72.192.94.953m150.986 4.769.939.954m-76.324 72.191.94.954m-.218-151.059.94.954m-76.324 72.191.94.954m150.985 4.769.94.953m-76.325 72.192.94.953m-.217-151.058.94.954m-76.325 72.191.94.953" class="N"/></g><path d="M806.271 85.256a16.499 16.499 0 1 0-32.997 0 16.499 16.499 0 0 0 32.997 0m0 0z" fill="#3050f8" class="N"/><path d="m751.77 196.931.939.954m-.218-151.059.94.954m-76.324 72.191.94.954m75.601 77.914.94.953m-.218-151.058.94.954m-76.325 72.191.94.953m75.601 77.914.94.954" class="N B"/><path d="M860.2 128.555a28.35 28.35 0 1 0-56.7 0 28.35 28.35 0 0 0 56.7 0m0 0z" fill="#c28f8f" class="N"/><g class="B"><path d="m804.077 155.503 3.967-3.85m-11.902 11.55 3.967-3.85m-11.903 11.549 3.968-3.85m-11.903 11.55 3.968-3.85m-11.903 11.549 3.968-3.85M764.4 194l3.968-3.85m-11.902 11.55 3.967-3.85m-7.699 0 3.732 3.85m-.218-151.059.94.954m-76.324 72.191.94.954m63.466 65.41 3.732 3.85m-11.196-11.549 3.732 3.85m64.189-84.694 3.732 3.85m-79.116 69.295 3.732 3.85m64.188-84.695 3.732 3.85m-79.116 69.295 3.732 3.85m31.516-118.353.94.954m-76.324 72.191.939.953M790.8 86.208l3.732 3.85m-79.117 69.295 3.732 3.85m64.189-84.694 3.732 3.85m-79.116 69.294 3.731 3.85m64.189-84.693 3.732 3.849m-79.116 69.295 3.732 3.85m64.189-84.694 3.731 3.85m-79.116 69.294 3.732 3.85m63.25-85.648.939.954m-76.324 72.191.94.954m75.384-73.145 3.732 3.85m-79.117 69.295 3.732 3.85m67.685-73.145 3.968-3.85m-11.903 11.55 3.968-3.85m-11.903 11.549 3.967-3.85m-11.902 11.549 3.967-3.85m-11.903 11.55 3.968-3.85m-11.903 11.549 3.968-3.85m-11.903 11.55 3.968-3.85m-11.904 11.549 3.968-3.85m-11.902 11.55 3.967-3.85m-11.903 11.549 3.968-3.85" class="N"/></g></g><g transform="matrix(.1 0 0 -.1 771.681 148.862)"><defs><path id="d" d="M628 4666h850L3547 763v3903h612V0h-850L1241 3903V0H628v4666z" transform="scale(.01563)"/></defs><use xlink:href="#d"/></g><g transform="matrix(.1 0 0 -.1 741.216 118.439)"><defs><path id="e" d="M603 4863h575V0H603v4863z" transform="scale(.01563)"/></defs><use xlink:href="#O"/><use xlink:href="#e" x="68.408"/></g><use xlink:href="#d" transform="matrix(.1 0 0 -.1 786.032 88.015)"/><g transform="matrix(.1 0 0 -.1 824.912 131.314)"><use xlink:href="#T"/><use xlink:href="#B" x="77.49"/></g><g transform="matrix(.16 0 0 -.16 688.43 19.358)"><defs><path id="f" d="M538 4863h1118V0H538v4863z" transform="scale(.01563)"/><path id="g" d="M588 4666h1343l1697-3200v3200h1141V0H3425L1728 3200V0H588v4666z" transform="scale(.01563)"/><path id="h" d="M1844 884h2053V0H506v884l1703 1504q229 206 338 403t109 409q0 328-220 528t-586 200q-281 0-616-120-334-120-715-358v1025q406 134 803 204 397 71 778 71 838 0 1302-369 464-368 464-1028 0-381-197-711-197-329-828-883l-997-875z" transform="scale(.01563)"/></defs><use xlink:href="#Q"/><use xlink:href="#f" x="77.393"/><use xlink:href="#X" x="111.67"/><use xlink:href="#F" x="193.75"/><use xlink:href="#g" x="261.23"/><use xlink:href="#h" x="344.922"/><use xlink:href="#I" x="449.316"/><use xlink:href="#b" x="495.02"/><use xlink:href="#L" x="566.561"/><use xlink:href="#S" x="608.064"/><use xlink:href="#K" x="677.645"/><use xlink:href="#h" x="781.844"/><use xlink:href="#N" x="851.424"/></g><g class="O"><g class="B"><path d="M179.55 439.612h-5.978m3.148-5.176 2.83 5.176m-11.955 0h-5.978m18.923 1.005-.99-1.005m-8.491-15.529 2.83 5.176m-18.249 10.353h-5.978m15.736-25.882 2.83 5.176m-24.544 20.706h-5.977m-5.977 0h-5.978m33.986-36.236 2.83 5.177m-42.794 31.059h-5.978m40.281-46.589 2.83 5.176m-49.088 41.413h-5.978m80.677 3.014-.99-1.004m-33.111-58.952 2.83 5.176m-55.383 51.766h-5.978m-5.978 0h-5.977m64.825-67.296 2.83 5.177m-73.633 62.119h-5.977m71.119-77.649 2.83 5.176m-76.78 67.297 2.83 5.176m.99 1.005-.99-1.005m65.46-88.002 2.83 5.176m-76.78 67.297 2.83 5.176m124.182 15.377-.99-1.005m-57.733-102.375 2.83 5.177m-76.78 67.297 2.83 5.176m71.12-77.65h-5.977m-73.633 62.12 2.83 5.177m64.826-67.297h-5.978m18.922 1.004-.99-1.004" class="J"/></g><path d="M89.181 374.051a21.19 21.19 0 1 0-42.379 0 21.19 21.19 0 0 0 42.38 0m0 0z" class="J U"/><g class="B"><path d="M101.864 341.256h-5.978m-55.383 51.767 2.83 5.176m46.576-56.943H83.93m-14.986 101.37-.99-1.004M34.842 382.67l2.83 5.176m40.282-46.59h-5.978m114.5 105.389-.99-1.005M29.182 372.316l2.83 5.177m33.986-36.237h-5.977m-5.978 0h-5.977m-24.545 20.707 2.83 5.176m102.391-22.869-.989-1.005m-85.665-2.009H36.11M17.86 351.61l2.83 5.176m9.443-15.53h-5.978m46.767 103.38-.989-1.005M12.2 341.256l2.83 5.177m3.148-5.177H12.2m176.254 107.398-.989-1.004M13.19 342.26l-.99-1.004m118.521 5.024-.99-1.005m-56.83 101.37-.99-1.005m118.522 5.024-.99-1.005M15.168 344.27l-.99-1.005m118.522 5.024-.99-1.005m-56.83 101.37-.99-1.004m118.522 5.023-.99-1.005M17.147 346.28l-.99-1.005m118.522 5.023-.99-1.005m-56.83 101.371-.99-1.005m118.521 5.023-.989-1.004M19.126 348.289l-.99-1.005m118.522 5.023-.99-1.004m-56.83 101.37-.99-1.005m118.522 5.023-.99-1.004M21.104 350.298l-.989-1.005m118.521 5.024-.99-1.005" class="J"/></g><path d="M107.209 386.465a26.992 26.992 0 1 0-53.983 0 26.992 26.992 0 0 0 53.983 0m0 0z" class="J S"/><path d="m80.816 454.682-.99-1.004m118.522 5.022-.99-1.004M23.083 352.307l-.99-1.004" class="J B"/><path d="M161.29 423.412a21.19 21.19 0 1 0-42.38 0 21.19 21.19 0 0 0 42.38 0m0 0z" class="J U"/><path d="m140.615 356.326-.99-1.005m-56.83 101.37-.99-1.004m118.522 5.023-.99-1.005M25.062 354.317l-.99-1.005m118.522 5.023-.99-1.004M84.774 458.7l-.99-1.004m118.522 5.024-.99-1.005M27.04 356.326l-.989-1.005m118.522 5.023-.99-1.004m-56.83 101.37-.99-1.005m118.521 5.024-.989-1.005M29.02 358.335l-.99-1.004m118.521 5.023-.989-1.005M88.731 462.72l-.989-1.005m118.521 5.023-.99-1.005M30.998 360.344l-.99-1.004m118.522 5.023-.99-1.005M90.71 464.729l-.99-1.005m118.522 5.023-.99-1.004M32.977 362.354l-.99-1.005m118.522 5.023-.99-1.004m-56.83 101.37-.99-1.005m118.521 5.023-.989-1.004M34.956 364.363l-.99-1.005m118.522 5.024-.99-1.005" class="J B"/><path d="M179.317 435.827a26.992 26.992 0 1 0-53.983 0 26.992 26.992 0 0 0 53.983 0m0 0z" class="J S"/><g class="B"><path d="m94.668 468.747-.99-1.004m118.522 5.023-.99-1.005M36.935 366.372l-.99-1.004M212.2 472.766h-5.978m3.148-5.176 2.83 5.176M154.466 370.39l-.989-1.004m46.767 103.38h-5.977m9.442-15.53 2.83 5.176m-18.249 10.354h-5.978m-85.666-2.01-.989-1.004m102.391-22.869 2.83 5.176m-24.544 20.707h-5.978m-5.977 0H158.4m33.987-36.236 2.83 5.176M38.913 368.382l-.989-1.005m114.5 105.389h-5.978m40.281-46.59 2.83 5.177M156.445 372.4l-.99-1.004m-14.987 101.37h-5.977m46.575-56.943 2.83 5.176m-55.383 51.767h-5.977m-23.911 0-.99-1.005m18.923 1.005h-5.978m64.826-67.296 2.83 5.176m-73.633 62.12h-5.978m71.12-77.65 2.83 5.177m-76.78 67.297 2.83 5.176M40.892 370.39l-.99-1.004m124.183 15.377 2.83 5.176m-76.781 67.297 2.83 5.176m65.46-88.002-.99-1.005m.99 1.005 2.83 5.176m-76.78 67.297 2.83 5.176m71.12-77.649h-5.978m-73.633 62.12 2.83 5.176m64.826-67.296h-5.978m-5.977 0h-5.978m-55.383 51.766 2.83 5.177M42.87 372.4l-.989-1.004m80.677 3.014h-5.977m-49.089 41.413 2.83 5.176m40.281-46.589h-5.977m-42.795 31.06 2.83 5.176m33.987-36.236H92.67m-5.977 0h-5.978M56.17 395.116l2.831 5.177m15.737-25.883H68.76m-18.25 10.353 2.83 5.176m-8.49-15.529-.99-1.005m18.922 1.005h-5.977m-11.955 0 2.83 5.176m3.147-5.176H44.85" class="J"/></g></g><use xlink:href="#A" transform="matrix(.1 0 0 -.1 64.562 376.81)"/><g transform="matrix(.1 0 0 -.1 77.203 389.224)"><defs><path id="i" d="M1259 4147V2394h794q441 0 681 228 241 228 241 650 0 419-241 647-240 228-681 228h-794zm-631 519h1425q785 0 1186-355 402-355 402-1039 0-691-402-1044-401-353-1186-353h-794V0H628v4666z" transform="scale(.01563)"/></defs><use xlink:href="#i"/></g><use xlink:href="#A" transform="matrix(.1 0 0 -.1 136.67 426.172)"/><use xlink:href="#i" transform="matrix(.1 0 0 -.1 149.311 438.587)"/><g transform="matrix(.16 0 0 -.16 56.066 331.968)"><defs><path id="j" d="M2316 2303q-316 0-474-205-158-204-158-614 0-409 158-614 158-204 474-204 318 0 476 204 158 205 158 614 0 410-158 614-158 205-476 205zm1487 2241v-863q-297 141-560 208-262 67-512 67-537 0-837-299-300-298-350-885 206 153 446 229 241 77 526 77 715 0 1154-419 439-418 439-1096 0-750-491-1202Q3128-91 2303-91q-909 0-1408 614-498 615-498 1743 0 1156 583 1817t1598 661q322 0 625-50t600-150z" transform="scale(.01563)"/><path id="k" d="M3200-916v-593H0v593h3200z" transform="scale(.01563)"/><path id="l" d="M3366 3391v-913q-228 156-458 231t-477 75q-468 0-729-273t-261-764q0-491 261-765 261-273 729-273 263 0 499 78 236 79 436 232V103Q3103 6 2833-42q-270-49-542-49-947 0-1482 486-534 486-534 1352t534 1351q535 486 1482 486 275 0 542-48t533-145z" transform="scale(.01563)"/></defs><use xlink:href="#E"/><use xlink:href="#b" x="76.221"/><use xlink:href="#I" x="184.326"/><use xlink:href="#b" x="230.029"/><use xlink:href="#j" x="303.32"/><use xlink:href="#k" x="372.9"/><use xlink:href="#M" x="422.9"/><use xlink:href="#K" x="492.48"/><use xlink:href="#l" x="596.68"/><use xlink:href="#N" x="655.957"/></g><g class="O"><g class="B"><path d="m377.032 451.097-.198 6.463m0 0h-6.462m7.056-19.387-.198 6.462m-13.32 12.925h-6.463m20.476 1.105-1.089-1.105m.99-32.312-.198 6.462m-26.641 25.85h-6.463m33.698-45.237-.199 6.463M338.06 457.56h-6.462m47.017-58.161-.198 6.462m-53.282 51.699h-6.462m60.337-71.086-.197 6.462M312.21 457.56h-6.462" class="F"/></g><path d="M356.677 420.401a15.864 15.864 0 1 0-31.728 0 15.864 15.864 0 0 0 31.728 0m0 0z" fill="#90e050" class="F"/><g class="B"><path d="m379.407 373.55-.198 6.462m-79.923 77.548h-6.462m87.276 3.316-1.088-1.105m.79-99.147-.198 6.463m-93.243 90.473H279.9M380.198 347.7l-.198 6.462M273.436 457.56h-6.462m113.62-122.785-.198 6.462M260.512 457.56h-6.463M380.99 321.85l-.198 6.463M247.587 457.56h-6.462m140.26-148.634-.198 6.462M234.662 457.56H228.2m153.185-148.634h-6.462M228.398 451.097l-.198 6.463m154.078 5.527-1.089-1.105M368.46 308.926h-6.462m20.476 1.105-1.089-1.105M228.794 438.173l-.198 6.462m.693 14.03-1.089-1.105m127.336-148.634h-6.463M229.19 425.248l-.199 6.462m113.62-122.784h-6.462M229.585 412.323l-.198 6.463m100.299-109.86h-6.462m-93.244 90.473-.197 6.462m86.979-96.935h-6.463m-79.922 77.548-.198 6.462" class="F"/></g><path d="M284.636 346.084a15.864 15.864 0 1 0-31.729 0 15.864 15.864 0 0 0 31.729 0m0 0z" fill="#90e050" class="F"/><g class="B"><path d="M303.837 308.926h-6.462m87.08 156.372-1.089-1.105M230.772 373.55l-.198 6.462m154.077-67.77-1.088-1.105M231.466 460.876l-1.089-1.105m60.535-150.845h-6.462m-53.282 51.698-.198 6.463m47.017-58.161h-6.462M231.564 347.7l-.198 6.462m33.697-45.236H258.6m-26.64 25.849-.198 6.462m20.376-32.311h-6.462m-13.321 12.924-.198 6.463m7.056-19.387h-6.462m0 0-.198 6.462m154.08 152.122-1.09-1.106m1.286-151.951-1.089-1.105M233.644 463.087l-1.09-1.105m1.286-151.951-1.089-1.105M388.81 469.72l-1.089-1.105m1.285-151.951-1.089-1.105M235.82 465.298l-1.088-1.105m1.285-151.951-1.089-1.105m156.059 160.794-1.088-1.105m1.285-151.951-1.09-1.105M237.998 467.51l-1.088-1.106m1.285-151.951-1.09-1.105" class="F"/></g><path d="M406.687 356.968a52.881 52.881 0 0 0-105.76 0 52.881 52.881 0 0 0 105.76 0m0 0z" fill="#94ffff" class="F"/><g class="B"><path d="m393.165 474.142-1.089-1.105m1.285-151.951-1.089-1.105M240.176 469.72l-1.089-1.105m1.285-151.951-1.089-1.105m156.059 160.794-1.089-1.105m1.285-151.951-1.088-1.105M242.353 471.931l-1.089-1.105m1.286-151.951-1.09-1.105m156.06 160.794-1.09-1.105m1.286-151.951-1.089-1.105M244.53 474.142l-1.088-1.105m1.285-151.951-1.089-1.105" class="F"/></g><path d="M312.418 437.357a29.224 29.224 0 1 0-58.448 0 29.224 29.224 0 0 0 58.448 0m0 0z" fill="#ffff30" class="F"/><g class="B"><path d="m399.697 480.775-1.089-1.105m1.285-151.95-1.089-1.106M246.708 476.353l-1.089-1.105m1.285-151.951-1.089-1.105m156.059 160.794-1.088-1.105m1.284-151.951-1.088-1.105M248.885 478.564l-1.088-1.105m1.285-151.951-1.09-1.105m156.06 160.794-1.089-1.105m1.285-151.951-1.089-1.105M251.063 480.775l-1.089-1.105m1.285-151.95-1.089-1.106m156.06 160.794-1.09-1.105m1.285-151.951-1.088-1.105M253.24 482.986l-1.088-1.105m1.284-151.951-1.088-1.105M408.407 489.62l-1.09-1.106m1.286-151.951-1.089-1.105M255.418 485.197l-1.09-1.105m1.286-151.951-1.089-1.105M410.584 491.83l-1.089-1.105m1.285-151.951-1.088-1.105M257.595 487.408l-1.089-1.105m1.285-151.951-1.088-1.105" class="F"/></g><path d="M402.428 376.665a29.224 29.224 0 1 0-58.448 0 29.224 29.224 0 0 0 58.448 0m0 0z" fill="#ffff30" class="F"/><g class="B"><path d="m412.761 494.041-1.088-1.105m1.285-151.951-1.089-1.105M259.772 489.62l-1.088-1.106m1.285-151.951-1.09-1.105m156.06 160.794-1.089-1.105m1.285-151.951-1.089-1.105M261.95 491.83l-1.089-1.105m1.285-151.951-1.089-1.105m156.059 160.794-1.088-1.105m1.284-151.951-1.088-1.105M264.127 494.041l-1.088-1.105m1.284-151.951-1.088-1.105" class="F"/></g><path d="M355.473 457.054a52.881 52.881 0 0 0-105.76 0 52.881 52.881 0 0 0 105.76 0m0 0z" fill="#94ffff" class="F"/><g class="B"><path d="m419.294 500.674-1.089-1.105m1.285-151.951-1.089-1.105M266.305 496.252l-1.089-1.105m1.284-151.951-1.088-1.105m156.059 160.794-1.089-1.105m1.285-151.95-1.088-1.106M268.482 498.463l-1.089-1.105m1.285-151.951-1.088-1.105m156.059 160.794-1.09-1.105m1.286-151.951-1.089-1.105M270.66 500.674l-1.09-1.105m1.286-151.951-1.089-1.105m154.079 152.121-.197 6.462m0 0h-6.463m7.056-19.386-.198 6.462m-13.32 12.924h-6.463m20.377-32.311-.198 6.462m-26.64 25.849h-6.463m33.697-45.236-.198 6.462m-39.962 38.774h-6.462m47.018-58.161-.199 6.462m-53.281 51.699h-6.463m60.535-150.845-1.089-1.105M272.837 502.885l-1.089-1.105m154.077-67.77-.198 6.463M273.033 349.83l-1.089-1.106m87.081 156.372h-6.462m73.657-84.01-.197 6.462M346.1 505.096h-6.462m86.979-96.935-.198 6.462m-93.243 90.473h-6.463m100.299-109.86-.198 6.463M320.25 505.096h-6.462m113.62-122.784-.198 6.462M307.326 505.096h-6.462M428.2 356.462l-1.09-1.105m.694 14.03-.198 6.462M275.014 505.096l-1.088-1.105m20.475 1.105h-6.462M275.21 352.04l-1.088-1.105m154.078 5.527-.198 6.462M281.477 505.096h-6.463M428.2 356.462h-6.463M275.212 498.634l-.198 6.462m140.261-148.634h-6.463M275.608 485.71l-.198 6.462m126.94-135.71h-6.462M276.004 472.785l-.198 6.462m113.619-122.785h-6.462M276.4 459.86l-.198 6.462M376.5 356.462h-6.462m-93.243 90.473-.198 6.462m.791-99.146-1.089-1.105m87.277 3.316h-6.462M277.19 434.01l-.197 6.463m73.658-84.011h-6.462m-66.602 64.624-.198 6.462m60.338-71.086h-6.463m-53.282 51.699-.198 6.462m47.018-58.161h-6.463m-39.961 38.774-.198 6.463m33.697-45.237h-6.462m-26.641 25.85-.198 6.462m.989-32.312-1.088-1.105m20.475 1.105h-6.462m-13.32 12.925-.198 6.462m7.056-19.387h-6.463m0 0-.198 6.462" class="F"/></g></g><g transform="matrix(.1 0 0 -.1 337.938 423.16)"><defs><path id="m" d="M628 4666h2681v-532H1259V2759h1850v-531H1259V0H628v4666z" transform="scale(.01563)"/></defs><use xlink:href="#m"/></g><use xlink:href="#m" transform="matrix(.1 0 0 -.1 265.896 348.844)"/><g transform="matrix(.1 0 0 -.1 350.753 359.727)"><defs><path id="n" d="M-13 4666h679l1293-1919 1285 1919h678L2272 2222V0h-634v2222L-13 4666z" transform="scale(.01563)"/></defs><use xlink:href="#n"/></g><use xlink:href="#U" transform="matrix(.1 0 0 -.1 280.02 440.117)"/><use xlink:href="#U" transform="matrix(.1 0 0 -.1 370.03 379.424)"/><use xlink:href="#n" transform="matrix(.1 0 0 -.1 299.539 459.814)"/><g transform="matrix(.16 0 0 -.16 264.364 292.941)"><defs><path id="o" d="M-63 4666h1316l1063-1663 1062 1663h1319L2919 1966V0H1716v1966L-63 4666z" transform="scale(.01563)"/><path id="p" d="M1644 4666h694L691-594H0l1644 5260z" transform="scale(.01563)"/><path id="q" d="M4056 2131V0H2931v1631q0 453-20 625t-70 253q-66 110-179 171-112 61-256 61-350 0-550-271-200-270-200-748V0H538v3500h1118v-512q253 306 537 451 285 145 629 145 606 0 920-372 314-371 314-1081z" transform="scale(.01563)"/></defs><use xlink:href="#o"/><use xlink:href="#Y" x="72.412"/><use xlink:href="#J" x="144.434"/><use xlink:href="#I" x="247.559"/><use xlink:href="#b" x="293.262"/><use xlink:href="#S" x="366.553"/><use xlink:href="#p" x="436.133"/><use xlink:href="#q" x="472.656"/><use xlink:href="#K" x="543.848"/><use xlink:href="#K" x="648.047"/><use xlink:href="#N" x="752.246"/></g><g class="O"><g class="B"><path d="m631.41 284.85-3.413 3.311m-3.413 3.312-3.414 3.312m-3.413 3.312-3.413 3.312m-3.414 3.311-3.413 3.312m-3.413 3.312-3.413 3.312m-3.413 3.312-3.414 3.311m-3.413 3.312-3.413 3.312m-3.413 3.312-3.413 3.312m-3.414 3.312-3.413 3.311m-3.413 3.312-3.413 3.312m-3.414 3.312-3.413 3.312m-3.413 3.312-3.413 3.311m-3.413 3.312-3.414 3.312m-3.413 3.312-3.413 3.312m92.157-89.419.474 3.895m-92.631 85.524.474 3.895m91.683-93.314-2.737.583m-89.42 88.836-2.737.584m95.841-82.212.474 3.896M540.2 382.06l.474 3.896m85.263-99.939-2.737.584m-89.42 88.836-2.737.584m102.262-75.588.473 3.895m-92.63 85.524.473 3.896m78.842-106.563-2.737.584m16.526 20.455.474 3.896m-106.42 64.484-2.737.584m16.526 20.455.474 3.896m92.631-85.523.473 3.895m-92.631 85.524.474 3.896m71.474-120.978-2.737.584m-89.421 88.835-2.736.584m116.051-54.549.474 3.896m-92.631 85.523.473 3.896m65.053-127.601-2.737.584m-89.42 88.835-2.737.584m122.472-47.925.474 3.896m-92.631 85.523.474 3.896m92.631-85.524.473 3.896m-92.631 85.524.474 3.895m57.685-142.015-2.737.583m-89.42 88.835-2.737.584" class="L"/></g><path d="M621.953 337.443a28.859 28.859 0 1 0-57.717 0 28.859 28.859 0 0 0 57.717 0m0 0z" fill="#d0d0e0" class="L"/><g class="B"><path d="m638.989 347.182.474 3.896m-92.631 85.523.474 3.896m51.264-148.64-2.738.584m-89.42 88.835-2.737.584m136.261-26.886.474 3.895m-92.63 85.524.473 3.896m92.631-85.524.473 3.896m-92.63 85.523.473 3.896m43.896-163.055-2.737.584m-89.42 88.835-2.737.584m143.629-12.471.474 3.895m-92.631 85.524.474 3.896m37.474-169.679-2.736.584m-89.421 88.835-2.737.584m150.05-5.848.474 3.896m-92.631 85.523.474 3.896m31.054-176.303-2.737.585m64.314 90.195.474 3.896m-154.208-5.256-2.737.584m64.314 90.195.473 3.896m92.158-89.419-3.414 3.311m-3.413 3.313-3.413 3.311m-3.413 3.312-3.414 3.312m-3.413 3.312-3.413 3.311m-3.413 3.312-3.414 3.312m-3.413 3.312-3.413 3.312m-3.414 3.311-3.412 3.312m-3.414 3.312-3.413 3.312m-3.413 3.312-3.413 3.312m-3.414 3.311-3.413 3.312m-3.413 3.312-3.413 3.312m-3.413 3.312-3.414 3.312m-3.413 3.312-3.413 3.311m-3.413 3.312-3.414 3.312m92.158-89.419-2.737.584m-89.421 88.835-2.736.584m27.369-183.51-2.736.584m-89.421 88.835-2.736.584m156.944 4.672-2.737.584m-89.42 88.835-2.737.584m27.37-183.51-2.737.584m-89.42 88.835-2.737.584" class="L"/></g><path d="M580.243 390.036a25.464 25.464 0 1 0-50.927 0 25.464 25.464 0 0 0 50.927 0m0 0z" fill="#668f8f" class="L"/><g class="B"><path d="m633.253 392.371-2.737.584m-89.42 88.835-2.737.585m27.369-183.51-2.736.584m-89.421 88.835-2.736.584m156.945 4.672-2.738.583m-89.42 88.836-2.737.584m27.37-183.511-2.737.584m-89.42 88.836-2.737.584m92.157-89.42-3.413 3.312m-3.413 3.312-3.413 3.312m-3.414 3.312-3.413 3.312m-3.413 3.311-3.413 3.312m-3.414 3.312-3.413 3.312m-3.413 3.312-3.413 3.311m-3.413 3.312-3.414 3.312m-3.413 3.312-3.413 3.312m-3.413 3.312-3.414 3.311m-3.413 3.313-3.413 3.311m-3.413 3.312-3.413 3.312m-3.414 3.312-3.413 3.311M475.6 380.1l-3.412 3.312m-3.414 3.312-3.413 3.312m92.157-89.42.474 3.896m64.314 90.195-2.737.584m-154.208-5.255.474 3.895m64.314 90.196-2.737.583m31.054-176.302.473 3.896m-92.63 85.523.473 3.896m150.05-5.848-2.736.584m-89.421 88.835-2.737.584M559.413 316.2l.474 3.895m-92.631 85.524.474 3.896m143.629-12.472-2.737.584m-89.42 88.835-2.737.584m43.895-163.055.474 3.896m-92.631 85.523.474 3.896m92.631-85.523.473 3.896m-92.631 85.523.474 3.896m136.261-26.887-2.736.584m-89.421 88.835-2.737.584m51.264-148.64.474 3.896m-92.631 85.523.474 3.896m129.84-33.51-2.737.584m-89.42 88.835-2.737.584m57.685-142.016.473 3.896m-92.631 85.523.474 3.896m92.631-85.524.474 3.896m-92.631 85.524.473 3.895m122.472-47.925-2.736.584m-89.421 88.835-2.736.584m65.052-127.601.474 3.896m-92.631 85.523.474 3.896m116.051-54.549-2.737.584m-20.683-31.559.473 3.896m-92.63 85.524.473 3.896m92.631-85.524.474 3.896m16.525 20.455-2.736.584m-13.315-17.143.473 3.896m10.105 13.83-2.737.585m-6.894-10.52.473 3.896m3.685 7.208-2.737.584m-.474-3.896.474 3.896m0 0-3.413 3.311m-3.414 3.312-3.413 3.312m-3.413 3.312-3.413 3.312m-3.414 3.312-3.413 3.311m-3.413 3.312-3.413 3.312m-3.413 3.311-3.414 3.313m-3.412 3.312-3.414 3.311m-3.413 3.312-3.414 3.312m-3.413 3.312-3.413 3.312m-3.413 3.311-3.413 3.312" class="L"/></g><path d="M512.101 495.222a33.951 33.951 0 1 0-67.903 0 33.951 33.951 0 0 0 67.903 0m0 0z" fill="#bfc2c7" class="L"/></g><g transform="matrix(.1 0 0 -.1 588.12 340.202)"><defs><path id="r" d="M1172 4494v-994h1184v-447H1172V1153q0-428 117-550t477-122h590V0h-590q-666 0-919 248-253 249-253 905v1900H172v447h422v994h578z" transform="scale(.01563)"/></defs><use xlink:href="#i"/><use xlink:href="#r" x="60.303"/></g><g transform="matrix(.1 0 0 -.1 547.83 392.795)"><use xlink:href="#T"/><use xlink:href="#D" x="77.49"/></g><g transform="matrix(.1 0 0 -.1 473.864 497.981)"><use xlink:href="#C"/><use xlink:href="#V" x="57.959"/></g><g transform="matrix(.16 0 0 -.16 476.219 272.741)"><defs><path id="s" d="M1759 4494v-994h1154v-800H1759V1216q0-244 97-330t385-86h575V0h-960q-662 0-939 276-276 277-276 940v1484H84v800h557v994h1118z" transform="scale(.01563)"/></defs><use xlink:href="#G"/><use xlink:href="#Z" x="68.213"/><use xlink:href="#X" x="102.49"/><use xlink:href="#H" x="184.57"/><use xlink:href="#b" x="252.393"/><use xlink:href="#s" x="325.684"/><use xlink:href="#I" x="408.301"/><use xlink:href="#J" x="454.004"/><use xlink:href="#L" x="519.189"/><use xlink:href="#S" x="560.693"/><use xlink:href="#M" x="630.273"/><use xlink:href="#K" x="699.854"/><use xlink:href="#N" x="804.053"/></g><g class="O"><g class="B"><path d="m847.15 284.4-3.482 3.38m-3.482 3.378-3.483 3.379m-3.482 3.379-3.482 3.379m-3.483 3.379-3.482 3.379m-3.483 3.379-3.482 3.379m-3.482 3.379-3.483 3.379m-3.482 3.379-3.483 3.379m-3.482 3.379-3.483 3.379m-3.482 3.378-3.482 3.38m-3.483 3.378-3.482 3.38m-3.483 3.379-3.482 3.378m-3.482 3.379-3.483 3.38m-3.482 3.378-3.483 3.38m-3.482 3.378-3.483 3.379M847.15 284.4l.484 3.975m-94.509 87.257.484 3.975M847.15 284.4l-2.792.596m-91.233 90.636-2.792.596m97.784-83.878.484 3.974m-94.509 87.258.483 3.974m86.991-101.964-2.792.596m-91.233 90.636-2.792.595M849.084 300.3l.483 3.974m-94.508 87.257.483 3.975m80.44-108.723-2.792.596m16.86 20.87.484 3.974m-108.577 65.792-2.793.596m16.861 20.869.483 3.975m94.509-87.257.483 3.975m-94.508 87.257.483 3.975m72.922-123.43-2.792.596m-91.233 90.636-2.792.596m118.404-55.655.483 3.975m-94.509 87.257.484 3.974m66.371-130.187-2.792.595m-91.233 90.636-2.792.596m124.954-48.897.483 3.975m-94.508 87.258.483 3.974m94.509-87.257.483 3.975m-94.508 87.257.483 3.974m58.854-144.895-2.793.596m-91.233 90.636-2.792.596m132.472-34.19.484 3.975m-94.509 87.257.483 3.975m52.303-151.653-2.792.596m-91.233 90.636-2.792.595m139.023-27.431.483 3.975m-94.508 87.257.483 3.974m94.509-87.257.483 3.975m-94.509 87.257.484 3.975m44.785-166.361-2.792.596m-91.233 90.636-2.793.596m146.541-12.724.483 3.975m-94.508 87.257.483 3.974m38.234-173.118-2.792.596m-91.233 90.636-2.792.596m153.092-5.967.483 3.975m-94.509 87.257.484 3.975m31.683-179.876-2.792.595m65.617 92.024.484 3.975m-157.334-5.363-2.792.596m65.617 92.024.483 3.974m94.026-91.231-3.483 3.379m-3.482 3.379-3.483 3.379m-3.482 3.378-3.483 3.38m-3.482 3.378-3.482 3.38m-3.483 3.378-3.482 3.38m-3.483 3.378-3.482 3.38m-3.483 3.378-3.482 3.38m-3.482 3.378-3.483 3.379m-3.483 3.379-3.482 3.379m-3.482 3.379-3.482 3.379m-3.483 3.379-3.482 3.379m-3.483 3.379-3.482 3.379m-3.482 3.379-3.483 3.379m-3.482 3.379-3.483 3.378m94.026-91.231-2.793.595m-91.233 90.636-2.792.596m27.925-187.23-2.793.596m-91.233 90.636-2.792.596m160.126 4.766-2.792.596m-91.233 90.636-2.792.596m27.924-187.23-2.792.596m-91.233 90.636-2.792.595" class="M"/></g><path d="M798.902 391.719a29.935 29.935 0 1 0-59.87 0 29.935 29.935 0 0 0 59.87 0m0 0z" fill="#d47a00" class="M"/><g class="B"><path d="m849.03 394.102-2.792.596m-91.233 90.636-2.792.595M780.138 298.7l-2.792.595m-91.234 90.636-2.792.596m160.126 4.766-2.792.596m-91.233 90.636-2.792.596m27.924-187.23-2.792.596m-91.233 90.636-2.792.596m94.025-91.232-3.482 3.379m-3.483 3.379-3.482 3.379m-3.483 3.379-3.482 3.379m-3.482 3.378-3.483 3.38m-3.482 3.378-3.483 3.38m-3.482 3.378-3.482 3.38m-3.483 3.378-3.482 3.38m-3.483 3.378-3.482 3.38m-3.483 3.378-3.482 3.38m-3.482 3.378-3.483 3.379m-3.482 3.379-3.483 3.379m-3.482 3.379-3.482 3.379m-3.483 3.379-3.482 3.379m-3.483 3.379-3.482 3.379m94.025-91.232.483 3.975m65.618 92.023-2.792.596m-157.334-5.362.483 3.974m65.618 92.024-2.793.596m31.684-179.877.483 3.975m-94.509 87.257.484 3.975m153.091-5.966-2.792.595m-91.233 90.637-2.792.595m38.234-173.118.484 3.975m-94.509 87.257.483 3.974m146.541-12.724-2.792.596M732.668 490.1l-2.792.596m44.784-166.361.484 3.975m-94.508 87.257.483 3.975m94.508-87.257.484 3.975m-94.509 87.257.483 3.974m139.024-27.431-2.793.596m-91.233 90.636-2.792.596m52.303-151.654.483 3.975m-94.508 87.257.483 3.975m132.472-34.19-2.792.596m-91.233 90.636-2.792.596m58.853-144.895.484 3.975m-94.509 87.257.484 3.975m94.508-87.258.483 3.975m-94.508 87.257.483 3.975m124.955-48.897-2.792.596m-91.233 90.636-2.793.596m66.372-130.188.483 3.975m-94.509 87.257.484 3.975m118.403-55.655-2.792.595m-91.233 90.637-2.792.595m72.922-123.43.484 3.975m-94.509 87.257.483 3.975m94.509-87.257.483 3.975m16.861 20.869-2.792.596m-108.577 65.792.483 3.975m94.508-87.258.484 3.975m10.31 14.112-2.793.596m-7.034-10.733.483 3.975m3.759 7.354-2.792.595m-.483-3.975.483 3.975m0 0-3.482 3.38m-3.483 3.378-3.482 3.38m-3.483 3.378-3.482 3.38m-3.483 3.378-3.482 3.379m-3.483 3.379-3.482 3.379m-3.482 3.379-3.483 3.379m-3.483 3.379-3.481 3.379m-3.483 3.378-3.482 3.38m-3.483 3.379-3.482 3.379m-3.483 3.379-3.482 3.378m-3.482 3.379-3.483 3.38" class="M"/></g><path d="M721.37 499.037a30.585 30.585 0 1 0-61.171 0 30.585 30.585 0 0 0 61.17 0m0 0z" class="M V"/></g><g transform="matrix(.1 0 0 -.1 763.687 394.478)"><use xlink:href="#C"/><use xlink:href="#D" x="44.084"/></g><g transform="matrix(.1 0 0 -.1 683.296 501.796)"><defs><path id="t" d="M628 4666h941l1190-3175 1197 3175h941V0h-616v4097L3078 897h-634L1241 4097V0H628v4666z" transform="scale(.01563)"/><path id="u" d="M2906 1791q0 625-258 968-257 344-723 344-462 0-720-344-258-343-258-968 0-622 258-966t720-344q466 0 723 344 258 344 258 966zm575-1357q0-893-397-1329-396-436-1215-436-303 0-572 45t-522 139v559q253-137 500-202 247-66 503-66 566 0 847 295t281 892v285q-178-310-456-463T1784 0Q1141 0 747 490 353 981 353 1791q0 812 394 1302 394 491 1037 491 388 0 666-153t456-462v531h575V434z" transform="scale(.01563)"/></defs><use xlink:href="#t"/><use xlink:href="#u" x="86.279"/></g><g transform="matrix(.16 0 0 -.16 695.567 272.27)"><defs><path id="v" d="M588 4666h1531l1062-2497 1069 2497h1528V0H4641v3413L3566 897h-763L1728 3413V0H588v4666z" transform="scale(.01563)"/><path id="w" d="M2919 594q-231-306-510-450Q2131 0 1766 0 1125 0 706 504q-418 505-418 1287 0 784 418 1285 419 502 1060 502 365 0 643-144 279-143 510-453v519h1125V353q0-844-533-1289t-1545-445q-328 0-635 50-306 50-615 153v872q293-169 574-252 282-83 566-83 550 0 806 241 257 241 257 753v241zm-738 2178q-347 0-541-257-193-256-193-724 0-482 187-730 188-248 547-248 350 0 544 256t194 722q0 468-194 724-194 257-544 257z" transform="scale(.01563)"/></defs><use xlink:href="#v"/><use xlink:href="#w" x="99.512"/><use xlink:href="#G" x="171.094"/><use xlink:href="#H" x="226.057"/><use xlink:href="#I" x="328.693"/><use xlink:href="#J" x="374.396"/><use xlink:href="#K" x="442.707"/><use xlink:href="#L" x="546.906"/><use xlink:href="#M" x="588.41"/><use xlink:href="#K" x="657.99"/><use xlink:href="#N" x="762.189"/></g><g class="O"><path d="m207.864 718.084-.115 3.726m.001 0h-3.727m2.658 2.08 1.068-2.08m.343-11.18-.114 3.727m-7.682 7.453h-3.726m11.75-18.633-.114 3.727m-15.363 14.906h-3.727m19.432-26.086-.114 3.727M185.39 721.81h-3.727m27.113-33.54-.114 3.727m-30.726 29.813h-3.726m34.795-40.993-.115 3.727m-38.407 37.266h-3.727m37.788 6.239 1.069-2.08m3.62-52.605-.114 3.727M163.03 721.81h-3.727m50.158-55.9-.114 3.728m-53.77 52.172h-3.727m57.84-63.352-.115 3.726m-61.452 59.626h-3.726m65.52-70.806-.114 3.727M140.67 721.81h-3.727m73.203-78.259-.114 3.727m-7.624 84.93 1.068-2.08m-70.259-8.318h-3.727m80.884-85.712-.114 3.727m-84.496 81.985h-3.727m88.565-93.165-.114 3.726M118.31 721.81h-3.726m96.246-100.619-.114 3.727m-99.859 96.892h-3.727m103.928-108.072-.114 3.727M103.404 721.81h-3.727m100.594 14.557 1.069-2.08m9.947-128.002-.114 3.726M95.95 721.81h-3.726m119.291-122.978-.114 3.726M88.497 721.81h-3.726m126.972-130.432-.114 3.727m.342-11.18-.114 3.727m.343-11.18-.115 3.726m-13.95 160.327 1.068-2.079" class="C B"/><path d="M160.947 649.141a23.642 23.642 0 1 0-47.284 0 23.642 23.642 0 0 0 47.284 0m0 0z" class="C V"/><path d="M212.2 576.472h-3.727" class="B C"/><path d="M85.717 721.81a23.307 23.307 0 1 0-46.613 0 23.307 23.307 0 0 0 46.613 0m0 0z" class="C T"/><g class="B"><path d="m211.131 578.551 1.069-2.08m-7.454.001h-3.726m-3.727 0h-3.727m-3.726 0h-3.727M63.21 695.724l-.115 3.727m119.291-122.979h-3.726M63.438 688.27l-.114 3.727m132.674 52.687 1.068-2.08m-22.133-166.132h-3.726M63.666 680.817l-.114 3.727M208.995 582.71l1.068-2.08m-42.583-4.158h-3.727m-99.859 96.892-.114 3.727m96.247-100.619H156.3M64.122 665.91l-.114 3.728m88.565-93.166h-3.726M64.35 658.458l-.114 3.726m129.625 86.659 1.069-2.08m-49.81-170.291h-3.726m-76.815 74.532-.114 3.727m142.393-67.862 1.068-2.08m-70.259-8.317h-3.727m-69.133 67.079-.114 3.727m65.521-70.806h-3.727m-61.452 59.626-.114 3.727m57.839-63.353h-3.726m-53.771 52.173-.114 3.726m50.158-55.899h-3.727m-46.088 44.719-.115 3.727m126.348 128.084 1.068-2.08m-84.939-174.45h-3.727M65.72 613.738l-.114 3.727m139.115-26.437 1.069-2.08M54.933 736.367l1.068-2.08M100.4 576.472h-3.726m-30.726 29.813-.114 3.726m27.113-33.539h-3.726m-23.045 22.36-.114 3.726m19.432-26.086h-3.727m-15.363 14.906-.114 3.727M189.588 757.16l1.068-2.078M78.04 576.472h-3.726m-7.681 7.453-.114 3.727m4.068-11.18h-3.726m-.001 0-.113 3.726m135.838 14.989 1.068-2.08M52.796 740.525l1.068-2.079m11.929-159.895 1.068-2.08m120.59 184.849 1.069-2.08m11.928-159.894 1.068-2.08M50.66 744.684l1.068-2.08M63.656 582.71l1.068-2.08" class="C"/></g><path d="M200.789 619.073a19.953 19.953 0 1 0-39.907 0 19.953 19.953 0 0 0 39.907 0m0 0zm-74.72 72.669a19.953 19.953 0 1 0-39.906 0 19.953 19.953 0 0 0 39.906 0m0 0z" class="C P"/><g class="B"><path d="m185.315 765.479 1.068-2.08m11.928-159.895 1.069-2.079M48.523 748.843l1.068-2.08M61.52 586.869l1.068-2.08m120.59 184.849 1.069-2.08m11.928-159.895 1.068-2.08M46.386 753.002l1.068-2.08m11.929-159.894 1.068-2.08m120.591 184.848 1.068-2.079m11.928-159.895 1.069-2.08M44.25 757.16l1.068-2.078m11.928-159.895 1.068-2.08m120.591 184.848 1.068-2.08m11.929-159.894 1.068-2.08M42.113 761.32l1.068-2.08M55.11 599.346l1.068-2.08" class="C"/></g><path d="M171.063 734.343a23.642 23.642 0 1 0-47.284 0 23.642 23.642 0 0 0 47.284 0m0 0z" class="C V"/><g class="B"><path d="m176.768 782.114 1.069-2.08m11.928-159.894 1.068-2.08M39.976 765.479l1.068-2.08m11.929-159.895 1.068-2.079m120.591 184.848 1.068-2.08m11.928-159.894 1.069-2.08M37.84 769.638l1.068-2.08m11.928-159.895 1.068-2.08m120.591 184.849 1.068-2.08m11.929-159.894 1.068-2.08M35.703 773.796l1.068-2.079M48.7 611.822l1.068-2.08m120.59 184.848 1.069-2.079m11.928-159.894 1.068-2.08M33.566 777.955l1.069-2.08m11.928-159.894 1.068-2.08" class="C"/></g><path d="M100.284 661.673a23.307 23.307 0 1 0-46.614 0 23.307 23.307 0 0 0 46.614 0m0 0z" class="C T"/><path d="m168.222 798.75 1.068-2.08m11.928-159.894 1.069-2.08M31.43 782.114l1.068-2.08M44.426 620.14l1.069-2.08m120.59 184.849 1.068-2.08m11.929-159.895 1.068-2.079M29.293 786.273l1.068-2.08" class="C B"/><path d="M136.101 776.856a19.953 19.953 0 1 0-39.906 0 19.953 19.953 0 0 0 39.906 0m0 0z" class="C P"/><g class="B"><path d="m42.29 624.299 1.068-2.08m120.591 184.849 1.068-2.08m11.928-159.895 1.068-2.08M27.156 790.432l1.069-2.08m11.928-159.894 1.068-2.08m120.591 184.848 1.068-2.079m11.929-159.895 1.068-2.08M25.02 794.59l1.068-2.079m11.928-159.894 1.069-2.08m120.59 184.848 1.069-2.08m11.928-159.894 1.068-2.08M22.883 798.75l1.068-2.08M35.88 636.776l1.068-2.08m120.591 184.848 1.068-2.08m11.928-159.894 1.069-2.08M20.747 802.909l1.068-2.08m135.838 14.989-.114 3.726m0 0h-3.727m4.069-11.18-.114 3.727m-7.682 7.453h-3.726M33.743 640.934l1.068-2.079M158.11 800.911l-.115 3.727m-15.363 14.906h-3.726" class="C"/></g><path d="M65.651 704.361a19.953 19.953 0 1 0-39.906 0 19.953 19.953 0 0 0 39.906 0m0 0z" class="C P"/><g class="B"><path d="m158.337 793.458-.114 3.726m-23.044 22.36h-3.727m27.114-33.539-.114 3.726m-30.726 29.813h-3.727m44.4-157.815 1.068-2.08M18.61 807.068l1.068-2.08m139.116-26.437-.114 3.727m-38.408 37.266h-3.726m-84.94-174.451 1.069-2.08m126.347 128.085-.114 3.727m-46.088 44.719h-3.728m50.158-55.899-.114 3.726m-53.77 52.173h-3.727m57.839-63.353-.114 3.727m-61.451 59.626h-3.727m72.076-153.656 1.068-2.08m-7.623 84.93-.114 3.727M90.46 819.544h-3.727m-70.26-8.318 1.069-2.079m142.393-67.862-.114 3.727m-76.815 74.532h-3.727M29.47 649.252l1.068-2.08m129.625 86.66-.114 3.726m-84.496 81.986h-3.727m88.565-93.166-.114 3.727M68.1 819.544h-3.727m96.247-100.619-.115 3.727m-99.859 96.892H56.92m107.205-149.497 1.069-2.08M14.337 815.385l1.068-2.08m145.443-101.833-.114 3.726M53.193 819.544h-3.727M27.333 653.411l1.069-2.08m132.674 52.688-.114 3.726M45.74 819.544h-3.727m119.291-122.979-.114 3.727M38.286 819.544H34.56m126.972-130.432-.114 3.727M30.833 819.544h-3.726M161.76 681.659l-.114 3.726m.343-11.179 1.068-2.08M23.38 819.544h-3.727m-7.453 0 1.068-2.08m148.721-143.258-.114 3.726M15.927 819.544H12.2M25.197 657.57l1.068-2.08m135.724 18.716h-3.727M12.314 815.818l-.114 3.726m142.336-145.338h-3.727M12.542 808.364l-.114 3.727m134.654-137.885h-3.726M12.77 800.911l-.114 3.727m126.973-130.432h-3.727M12.999 793.458l-.114 3.726m119.291-122.978h-3.727M13.227 786.005l-.114 3.726m9.947-128.002 1.068-2.08m100.594 14.557h-3.726M13.455 778.551l-.114 3.727M117.27 674.206h-3.727m-99.86 96.892-.114 3.727m96.247-100.619h-3.727m-92.177 89.439-.115 3.726m88.566-93.165h-3.727M14.14 756.191l-.114 3.727m80.884-85.712h-3.727m-70.26-8.318 1.069-2.08m-7.624 84.93-.114 3.727m73.202-78.259H83.73m-69.134 67.079-.114 3.727m65.521-70.806h-3.727m-61.452 59.626-.114 3.726m57.84-63.352h-3.727m-53.77 52.172-.114 3.727m50.157-55.899H61.37m-46.09 44.719-.113 3.727m3.62-52.605 1.068-2.08m37.788 6.239h-3.727m-38.407 37.266-.114 3.726m34.795-40.992h-3.727m-30.726 29.813-.114 3.726m27.114-33.539H39.01m-23.045 22.359-.114 3.727m19.432-26.086h-3.726m-15.363 14.906-.114 3.727m11.75-18.633h-3.727m-7.681 7.453-.114 3.726m.342-11.179 1.068-2.08m2.659 2.08H16.65m0 0-.114 3.726" class="C"/></g></g><g transform="matrix(.1 0 0 -.1 129.817 651.9)"><use xlink:href="#t"/><use xlink:href="#u" x="86.279"/></g><g transform="matrix(.1 0 0 -.1 56.068 724.57)"><defs><path id="x" d="M3513 2113V0h-575v2094q0 497-194 743-194 247-581 247-466 0-735-297-269-296-269-809V0H581v3500h578v-544q207 316 486 472 280 156 646 156 603 0 912-373 310-373 310-1098z" transform="scale(.01563)"/></defs><use xlink:href="#U"/><use xlink:href="#x" x="63.477"/></g><g transform="matrix(.1 0 0 -.1 174.81 621.832)"><use xlink:href="#O"/><use xlink:href="#P" x="68.408"/></g><g transform="matrix(.1 0 0 -.1 100.091 694.501)"><use xlink:href="#O"/><use xlink:href="#P" x="68.408"/></g><g transform="matrix(.1 0 0 -.1 139.934 737.102)"><use xlink:href="#t"/><use xlink:href="#u" x="86.279"/></g><g transform="matrix(.1 0 0 -.1 70.635 664.433)"><use xlink:href="#U"/><use xlink:href="#x" x="63.477"/></g><g transform="matrix(.1 0 0 -.1 110.123 779.615)"><use xlink:href="#O"/><use xlink:href="#P" x="68.408"/></g><g transform="matrix(.1 0 0 -.1 39.674 707.12)"><use xlink:href="#O"/><use xlink:href="#P" x="68.408"/></g><g transform="matrix(.16 0 0 -.16 37.285 564.395)"><defs><path id="y" d="M588 4666h1203V0H588v4666z" transform="scale(.01563)"/><path id="z" d="M2919 2988v1875h1125V0H2919v506q-231-309-510-453-278-144-643-144-647 0-1063 514-415 515-415 1324t415 1323q416 514 1063 514 362 0 642-145t511-451zM2181 722q360 0 549 262 189 263 189 763t-189 762q-189 263-549 263-356 0-545-263-189-262-189-762t189-763q189-262 545-262z" transform="scale(.01563)"/></defs><use xlink:href="#v"/><use xlink:href="#w" x="99.512"/><use xlink:href="#Y" x="171.094"/><use xlink:href="#q" x="243.115"/><use xlink:href="#Q" x="314.307"/><use xlink:href="#R" x="391.699"/><use xlink:href="#h" x="451.221"/><use xlink:href="#I" x="555.615"/><use xlink:href="#y" x="601.318"/><use xlink:href="#L" x="638.525"/><use xlink:href="#S" x="680.029"/><use xlink:href="#h" x="749.609"/><use xlink:href="#z" x="819.189"/><use xlink:href="#N" x="890.771"/></g><g class="O"><g class="B"><path d="m423.862 717.387-.127 4.166m0 0h-4.167m3.062 2.194 1.105-2.194m.382-12.499-.127 4.166m-8.588 8.333h-4.166m13.137-20.832-.128 4.167m-17.175 16.665h-4.167m21.725-29.164-.128 4.166m-25.763 24.998h-4.166m30.312-37.497-.128 4.167m-34.351 33.33h-4.166m38.9-45.829-.128 4.166m-42.938 41.663h-4.167m42.515 6.582 1.105-2.194m3.868-58.55-.128 4.166m-51.525 49.996h-4.167m56.075-62.494-.127 4.166m-60.114 58.328h-4.167m64.663-70.827-.127 4.166m-68.702 66.661h-4.166m73.25-79.16-.127 4.167m-77.29 74.993h-4.166m73.635 10.97 1.106-2.194m7.098-96.269-.128 4.167m-85.877 83.326h-4.166m90.426-95.825-.128 4.166m-94.465 91.659h-4.166m99.014-104.157-.128 4.166m-103.052 99.991h-4.167m107.602-112.49-.128 4.166m-111.64 108.324h-4.166M427.434 600.73l-.127 4.167M416.001 736.91l1.105-2.193m-110.027-13.164h-4.167M427.69 592.398l-.128 4.166m.382-12.499-.127 4.167m.383-12.499-.128 4.166" class="D"/></g><path d="M370.65 648.643a17.594 17.594 0 1 0-35.187 0 17.594 17.594 0 0 0 35.187 0m0 0z" class="D Q"/><path d="M428.2 575.733h-4.167" class="B D"/><path d="M303.388 721.553a25.474 25.474 0 1 0-50.948 0 25.474 25.474 0 0 0 50.948 0m0 0z" class="D T"/><g class="B"><path d="m427.095 577.927 1.105-2.194m-8.333 0H415.7m-1.908 165.566 1.105-2.194m-3.363-163.372h-4.166m-4.166 0h-4.167M278.807 692.389l-.127 4.166m116.19-120.822h-4.167m-111.64 108.323-.128 4.167m107.602-112.49h-4.167m-103.052 99.991-.128 4.166m145.695-97.575 1.105-2.194m-14.408 165.566 1.105-2.194m-34.483-167.76h-4.166m-94.465 91.658-.128 4.166m90.426-95.824h-4.166m-85.877 83.326-.128 4.166m81.839-87.492h-4.166m-77.29 74.993-.127 4.166m73.25-79.159h-4.166m-68.702 66.66-.127 4.167m142.465-59.857 1.104-2.194m-14.407 165.566 1.104-2.194m-65.603-172.148h-4.167m-60.114 58.327-.127 4.167m56.075-62.494h-4.166m-51.526 49.995-.128 4.166m47.488-54.161h-4.167m-42.938 41.663-.128 4.166m38.9-45.829h-4.166m-34.351 33.33-.128 4.166m139.235-22.139 1.105-2.193m-110.028-13.164h-4.166m-25.763 24.997-.128 4.167m125.677 149.566 1.105-2.194M270.181 736.91l1.105-2.193m31.924-158.984h-4.166m-17.174 16.665-.129 4.166m13.137-20.831h-4.166m-8.588 8.332-.127 4.167m4.549-12.499h-4.167m.001 0-.128 4.166m136.005 15.58 1.104-2.194m-138.086-15.358 1.104-2.194m122.575 183.118 1.104-2.194m-138.086-15.358 1.104-2.194m146.971-139.238 1.105-2.194m-138.087-15.358 1.105-2.194m122.574 183.118 1.105-2.194m-138.087-15.358 1.105-2.194" class="D"/></g><path d="M351.73 691.553a21.809 21.809 0 1 0-43.617 0 21.809 21.809 0 0 0 43.617 0m0 0zm58.984-72.91a21.809 21.809 0 1 0-43.617 0 21.809 21.809 0 0 0 43.617 0m0 0z" class="D P"/><path d="m413.838 604.255 1.104-2.194m-138.087-15.358 1.105-2.194m122.575 183.118 1.104-2.194m-138.086-15.358 1.104-2.194m146.971-139.238 1.105-2.194M274.646 591.09l1.105-2.193m122.574 183.118 1.105-2.194m-138.087-15.358 1.105-2.194M409.419 613.03l1.104-2.193m-138.087-15.358 1.105-2.194m122.575 183.118 1.104-2.194m-138.087-15.358 1.105-2.194m146.971-139.238 1.105-2.194m-138.087-15.358 1.105-2.194" class="D B"/><path d="M381.132 734.463a17.594 17.594 0 1 0-35.187 0 17.594 17.594 0 0 0 35.187 0m0 0z" class="D Q"/><path d="m393.906 780.791 1.105-2.194m-138.087-15.358 1.105-2.194M405 621.807l1.104-2.194m-138.087-15.358 1.105-2.194M391.696 785.18l1.105-2.195m-138.087-15.358 1.105-2.194M402.79 626.195l1.105-2.194m-138.087-15.358 1.105-2.194m122.574 183.118 1.105-2.194m-138.087-15.358 1.105-2.194m146.97-139.238 1.105-2.194M263.598 613.03l1.105-2.193m122.574 183.118 1.105-2.194m-138.087-15.358 1.105-2.194M398.37 634.97l1.106-2.193m-138.087-15.358 1.105-2.194" class="D B"/><path d="M318.334 661.553a25.474 25.474 0 1 0-50.948 0 25.474 25.474 0 0 0 50.948 0m0 0z" class="D T"/><path d="m385.068 798.343 1.105-2.194m-138.087-15.358 1.105-2.194m146.97-139.238 1.105-2.194M259.18 621.807l1.104-2.194m122.574 183.118 1.105-2.194M245.876 785.18l1.105-2.195" class="D B"/><path d="M354.38 769.294a21.809 21.809 0 1 0-43.617 0 21.809 21.809 0 0 0 43.617 0m0 0z" class="D P"/><g class="B"><path d="m393.952 643.747 1.105-2.194M256.97 626.195l1.104-2.194M380.649 807.12l1.105-2.195m-138.087-15.358 1.104-2.194m146.971-139.238 1.105-2.194M254.76 630.583l1.105-2.194M378.44 811.507l1.104-2.194m-138.087-15.358 1.105-2.194m146.971-139.238 1.104-2.194M252.55 634.97l1.105-2.193M376.23 815.895l1.104-2.194m-138.086-15.358 1.104-2.194m146.971-139.238 1.105-2.194m-138.087-15.358 1.105-2.194M374.02 820.283l1.105-2.194m-138.087-15.358 1.105-2.194m136.005 15.58-.128 4.166m0 0h-4.166" class="D"/></g><path d="M283.207 712.542a21.809 21.809 0 1 0-43.617 0 21.809 21.809 0 0 0 43.617 0m0 0z" class="D P"/><g class="B"><path d="m374.403 807.784-.128 4.167m-8.587 8.332h-4.167m13.137-20.831-.128 4.166m-17.175 16.665h-4.166m31.925-158.984 1.104-2.194m-138.086-15.358 1.104-2.194M374.913 791.12l-.127 4.166m-25.764 24.997h-4.166M234.829 807.12l1.104-2.195m139.235-22.138-.127 4.166m-34.351 33.33h-4.166m38.899-45.829-.127 4.166m-42.939 41.663h-4.166m47.488-54.162-.128 4.167m-51.526 49.995h-4.167m56.076-62.494-.128 4.166m-60.114 58.328h-4.166m71.378-154.596 1.105-2.194m-138.087-15.358 1.105-2.194M232.62 811.507l1.104-2.194m142.465-59.857-.128 4.167m-68.701 66.66h-4.167m73.251-79.159-.128 4.166m-77.289 74.993h-4.166m81.839-87.492-.128 4.166m-85.878 83.326h-4.166m90.426-95.824-.127 4.166m-94.465 91.658h-4.167m102.5-150.208 1.104-2.194m-138.086-15.358 1.104-2.194M230.41 815.895l1.104-2.194m145.696-97.575-.128 4.166M274.03 820.283h-4.167m107.602-112.49-.128 4.167m-111.64 108.323h-4.167M377.72 699.46l-.128 4.167M257.364 820.283h-4.166m124.777-129.155-.128 4.167M249.031 820.283h-4.166M378.23 682.796l-.128 4.166m.383-12.499 1.105-2.194m-138.087-15.358 1.105-2.194m-1.909 165.566h-4.166m-8.333 0 1.105-2.194m149.18-143.626-.128 4.166M232.366 820.283H228.2m150.285-145.82h-4.166M228.328 816.117l-.128 4.166m141.952-145.82h-4.166M228.583 807.784l-.128 4.167M361.82 674.463h-4.166M228.838 799.452l-.128 4.166m124.777-129.155h-4.166m-110.028-13.164 1.105-2.194M229.093 791.12l-.128 4.166m116.19-120.823h-4.167m-111.64 108.324-.127 4.166m107.601-112.49h-4.166m-103.053 99.991-.127 4.166m99.014-104.157h-4.167m-94.465 91.658-.127 4.167m90.426-95.825h-4.166m-85.878 83.326-.127 4.166m7.098-96.268 1.105-2.194m73.635 10.97h-4.166m-77.289 74.993-.128 4.167m73.251-79.16h-4.166m-68.702 66.661-.128 4.166m64.664-70.827h-4.167m-60.114 58.328-.128 4.166m56.076-62.494h-4.167m-51.526 49.996-.128 4.166m3.868-58.55 1.105-2.194m42.515 6.582h-4.166m-42.938 41.663-.128 4.166m38.899-45.829h-4.166m-34.351 33.33-.127 4.167m30.312-37.497h-4.166M231.9 699.46l-.128 4.167m21.724-29.164h-4.166m-17.175 16.665-.128 4.167m13.137-20.832h-4.167m-8.587 8.333-.128 4.166m.383-12.499 1.105-2.194m3.061 2.194h-4.166m0 0-.128 4.166" class="D"/></g></g><g transform="matrix(.1 0 0 -.1 346.55 651.402)"><use xlink:href="#A"/><use xlink:href="#D" x="68.604"/></g><g transform="matrix(.1 0 0 -.1 271.572 724.312)"><use xlink:href="#U"/><use xlink:href="#x" x="63.477"/></g><g transform="matrix(.1 0 0 -.1 323.897 694.312)"><use xlink:href="#O"/><use xlink:href="#P" x="68.408"/></g><g transform="matrix(.1 0 0 -.1 382.881 621.402)"><use xlink:href="#O"/><use xlink:href="#P" x="68.408"/></g><g transform="matrix(.1 0 0 -.1 357.032 737.222)"><use xlink:href="#A"/><use xlink:href="#D" x="68.604"/></g><g transform="matrix(.1 0 0 -.1 286.518 664.312)"><use xlink:href="#U"/><use xlink:href="#x" x="63.477"/></g><g transform="matrix(.1 0 0 -.1 326.547 772.053)"><use xlink:href="#O"/><use xlink:href="#P" x="68.408"/></g><g transform="matrix(.1 0 0 -.1 255.374 715.302)"><use xlink:href="#O"/><use xlink:href="#P" x="68.408"/></g><g transform="matrix(.16 0 0 -.16 255.449 563.619)"><use xlink:href="#E"/><use xlink:href="#H" x="76.221"/><use xlink:href="#Y" x="144.043"/><use xlink:href="#q" x="216.064"/><use xlink:href="#Q" x="287.256"/><use xlink:href="#R" x="364.648"/><use xlink:href="#h" x="424.17"/><use xlink:href="#I" x="528.564"/><use xlink:href="#y" x="574.268"/><use xlink:href="#L" x="611.475"/><use xlink:href="#S" x="652.979"/><use xlink:href="#h" x="722.559"/><use xlink:href="#z" x="792.139"/><use xlink:href="#N" x="863.721"/></g><g class="O"><g class="B"><path d="m639.778 792.158-.138 4.512m-4.512 0h4.512m.415-13.537-.139 4.512m-13.813 9.025h4.512m9.025 0-1.193-1.241m1.883-21.321-.137 4.512m-23.115 18.05h4.512m19.017-31.587-.138 4.513m-32.416 27.074h4.513m28.318-40.612-.139 4.513m-41.717 36.099h4.513m37.619-49.637-.138 4.513m-51.019 45.124h4.513m46.92-58.661-.138 4.512m-60.319 54.149h4.512m51.763-2.483-1.193-1.241m5.652-63.962-.139 4.512m-69.62 63.174h4.512m65.523-76.711-.138 4.512m-78.922 72.199h4.512m74.824-85.736-.138 4.512m-88.223 81.224h4.512m84.126-94.76-.139 4.512M544.88 796.67h4.512m93.426-103.786-.138 4.513M535.854 796.67h4.513m102.727-112.81-.138 4.512M526.83 796.67h4.512m103.526-4.965-1.193-1.242m9.695-115.628-.138 4.512M517.805 796.67h4.512m121.33-130.86-.138 4.512M508.78 796.67h4.512m130.631-139.885-.138 4.512M499.755 796.67h4.512M644.2 647.76l-.139 4.513M490.73 796.67h4.513m144.444-148.91h4.513M490.868 792.158l-.138 4.512m139.932-148.91h4.513m9.025 0-1.194-1.241M491.145 783.133l-.139 4.512m-.276 9.025-1.193-1.241m142.945-6.207-1.193-1.242m-9.652-140.22h4.513M491.421 774.108l-.138 4.512m121.33-130.86h4.512M491.697 765.083l-.138 4.513M603.588 647.76h4.512M491.974 756.058l-.139 4.513M594.563 647.76h4.512M492.25 747.033l-.138 4.513m93.426-103.786h4.512m-97.524 90.249-.138 4.512m149.425-97.244-1.193-1.241M488.344 794.187l-1.193-1.241m142.944-6.207-1.193-1.241M576.513 647.76h4.513m-88.223 81.224-.139 4.512m74.824-85.736h4.513m-78.922 72.199-.138 4.512m65.523-76.711h4.512m-69.621 63.174-.138 4.512m56.222-67.686h4.512m-60.319 54.15-.139 4.512m46.921-58.662h4.512m-51.018 45.124-.138 4.513m37.619-49.637h4.512m-41.717 36.1-.138 4.512m145.381-45.577-1.193-1.242M485.958 791.705l-1.193-1.242m142.945-6.207-1.194-1.241M522.364 647.76h4.513m-32.417 27.075-.138 4.512m19.018-31.587h4.512m-23.115 18.05-.138 4.512" class="H"/></g><path d="M634.239 765.953a22.038 22.038 0 1 0-44.077 0 22.038 22.038 0 0 0 44.077 0m0 0z" class="H S"/><g class="B"><path d="M504.314 647.76h4.513m-13.814 9.025-.138 4.512m.415-13.537h4.512m-4.512 0-.139 4.513m.139-4.513-1.193-1.241m142.944-6.207-1.193-1.242M483.572 789.222l-1.193-1.242m10.524-142.703-1.193-1.241m142.945-6.207-1.193-1.241M481.186 786.739l-1.194-1.241m142.945-6.208-1.193-1.24M490.517 642.795l-1.193-1.242m142.945-6.207-1.193-1.241M478.8 784.256l-1.194-1.241m142.944-6.207-1.192-1.242" class="H"/></g><path d="M557.589 691.498a22.038 22.038 0 1 0-44.076 0 22.038 22.038 0 0 0 44.076 0m0 0z" class="H S"/><path d="m488.131 640.312-1.193-1.242m142.945-6.207-1.194-1.24m-152.276 150.15-1.193-1.241m142.945-6.207-1.193-1.241M485.745 637.829l-1.193-1.241m142.944-6.208-1.193-1.24M474.027 779.29l-1.193-1.24m142.944-6.208-1.193-1.241M483.359 635.346l-1.193-1.241m142.944-6.207-1.193-1.242M471.64 776.808l-1.192-1.242m142.944-6.206-1.193-1.242M480.973 632.863l-1.193-1.24m142.944-6.208-1.193-1.241M469.255 774.325l-1.193-1.241m142.944-6.207-1.193-1.242" class="H B"/><path d="M605.429 660.78a22.862 22.862 0 1 0-45.724 0 22.862 22.862 0 0 0 45.724 0m0 0z" class="H R"/><path d="M525.605 735.235a19.773 19.773 0 1 0-39.546 0 19.773 19.773 0 0 0 39.546 0m0 0z" class="H Q"/><g class="B"><path d="m478.586 630.38-1.193-1.24m142.945-6.208-1.193-1.241M466.869 771.842l-1.194-1.241m142.945-6.207-1.193-1.242M476.2 627.898l-1.193-1.242m142.945-6.206-1.193-1.242M464.482 769.36l-1.193-1.242m142.945-6.207-1.193-1.241M473.814 625.415l-1.193-1.241m142.945-6.207-1.194-1.242M462.096 766.877l-1.193-1.242m142.945-6.207-1.193-1.241M471.428 622.932l-1.193-1.241m142.945-6.207-1.194-1.241M459.71 764.394l-1.193-1.242m142.944-6.206-1.193-1.242M469.042 620.45l-1.193-1.242m142.944-6.207-1.193-1.241M457.324 761.911l-1.193-1.241m142.944-6.207-1.193-1.242M466.656 617.967l-1.193-1.242m142.944-6.207-1.193-1.241M454.938 759.428l-1.193-1.241" class="H"/></g><path d="M498.125 706.755a22.038 22.038 0 1 0-44.076 0 22.038 22.038 0 0 0 44.076 0m0 0zm76.872-78.929a22.038 22.038 0 1 0-44.076 0 22.038 22.038 0 0 0 44.076 0m0 0z" class="H S"/><path d="m464.27 615.484-1.194-1.241m142.944-6.207-1.192-1.242M452.552 756.946l-1.194-1.242" class="H B"/><path d="M612.882 748.256a19.773 19.773 0 1 0-39.545 0 19.773 19.773 0 0 0 39.545 0m0 0z" class="H Q"/><g class="B"><path d="m593.8 725.694-.137 4.512m-23.115 18.05h4.512m19.017-31.587-.138 4.512m-32.416 27.075h4.512M461.883 613.001l-1.193-1.241m142.945-6.207-1.193-1.242M450.165 754.463l-1.193-1.242m145.381-45.577-.138 4.512m-41.717 36.1h4.513m37.619-49.636-.138 4.512m-51.019 45.124h4.513m46.92-58.662-.138 4.513m-60.32 54.149h4.513m56.221-67.686-.138 4.512m-69.62 63.174h4.512m65.523-76.711-.138 4.512m-78.922 72.199h4.512m74.824-85.736-.138 4.512m-88.223 81.224h4.512m-52.389-137.738-1.193-1.241m142.945-6.207-1.193-1.241M447.78 751.98l-1.194-1.241m149.425-97.244-.138 4.512m-97.523 90.249h4.511m93.427-103.786-.138 4.513m-106.826 99.273h4.513m102.727-112.811-.138 4.513M480.3 748.256h4.512M596.84 626.42l-.138 4.513M471.275 748.256h4.512m121.33-130.86-.138 4.512M462.25 748.256h4.512m-9.651-140.22-1.193-1.242m142.944-6.207-1.193-1.241m-.276 9.024-.138 4.513M445.393 749.497l-1.193-1.241m9.025 0h4.512m139.933-148.91-.139 4.512M444.2 748.256h4.512" class="H"/></g><path d="M543.796 673.8a22.862 22.862 0 1 0-45.724.001 22.862 22.862 0 0 0 45.724 0m0 0z" class="H R"/><g class="B"><path d="M593.157 599.346h4.512M444.338 743.743l-.138 4.513m139.932-148.91h4.513M444.614 734.719l-.138 4.512m130.631-139.885h4.513M444.89 725.694l-.137 4.512m121.329-130.86h4.513M445.167 716.669l-.138 4.512m9.696-115.628-1.193-1.242m103.526-4.965h4.512M445.443 707.644l-.138 4.512m102.728-112.81h4.512M445.72 698.62l-.138 4.512m93.426-103.786h4.512m-97.524 90.248-.138 4.513m84.125-94.761h4.512m-88.223 81.224-.138 4.512m74.824-85.736h4.513m-78.922 72.199-.138 4.512m65.522-76.711h4.513m-69.621 63.174-.138 4.512m5.652-63.962-1.193-1.241m51.763-2.483h4.512m-60.32 54.149-.138 4.512m46.921-58.661h4.512m-51.018 45.124-.138 4.513m37.619-49.637h4.512m-41.717 36.099-.138 4.513m28.318-40.612h4.512M447.93 626.42l-.138 4.513m19.018-31.587h4.512m-23.115 18.05-.138 4.512m1.884-21.321-1.194-1.241m9.025 0h4.513m-13.814 9.024-.138 4.513m.415-13.537h4.512m-4.512 0-.139 4.512" class="H"/></g></g><use xlink:href="#i" transform="matrix(.1 0 0 -.1 609.186 768.712)"/><use xlink:href="#i" transform="matrix(.1 0 0 -.1 532.536 694.257)"/><g transform="matrix(.1 0 0 -.1 578.004 663.54)"><use xlink:href="#U"/><use xlink:href="#V" x="63.477"/></g><g transform="matrix(.1 0 0 -.1 499.325 737.995)"><use xlink:href="#A"/><use xlink:href="#D" x="68.604"/></g><use xlink:href="#i" transform="matrix(.1 0 0 -.1 473.073 709.515)"/><use xlink:href="#i" transform="matrix(.1 0 0 -.1 549.944 630.585)"/><g transform="matrix(.1 0 0 -.1 586.603 751.015)"><use xlink:href="#A"/><use xlink:href="#D" x="68.604"/></g><g transform="matrix(.1 0 0 -.1 516.371 676.56)"><use xlink:href="#U"/><use xlink:href="#V" x="63.477"/></g><g transform="matrix(.16 0 0 -.16 479.49 588.413)"><use xlink:href="#E"/><use xlink:href="#H" x="76.221"/><use xlink:href="#Y" x="144.043"/><use xlink:href="#Z" x="216.064"/><use xlink:href="#b" x="250.342"/><use xlink:href="#h" x="323.633"/><use xlink:href="#I" x="428.027"/><use xlink:href="#y" x="473.73"/><use xlink:href="#L" x="510.938"/><use xlink:href="#S" x="552.441"/><use xlink:href="#h" x="622.021"/><use xlink:href="#z" x="691.602"/><use xlink:href="#N" x="763.184"/></g><g class="O"><path d="m855.876 717.248-.135 4.412m-.001 0h-4.412m3.195 2.398 1.218-2.398m.405-13.238-.135 4.413m-9.096 8.825h-4.412m13.913-22.063-.135 4.413m-18.191 17.65h-4.413m23.01-30.889-.135 4.413m-27.287 26.476h-4.413m32.105-39.714-.135 4.413M820.44 721.66h-4.414m41.201-48.54-.135 4.413m-45.478 44.127H807.2m44.888 7.194 1.218-2.398m4.191-62.161-.135 4.413m-54.574 52.952h-4.412m59.392-66.19-.136 4.412m-63.669 61.778h-4.413m68.488-75.016-.135 4.413m-72.765 70.603h-4.413m77.583-83.841-.135 4.413m-81.861 79.428H771.9m77.753 11.99 1.217-2.398m7.708-102.258-.135 4.412m-90.956 88.254h-4.413m95.774-101.492-.135 4.413M758.661 721.66h-4.412m104.87-110.317-.135 4.412M749.836 721.66h-4.413m113.966-119.143-.135 4.413M741.01 721.66h-4.412M859.66 593.692l-.136 4.413M732.185 721.66h-4.413m119.446 16.786 1.217-2.398m11.495-151.182-.136 4.413m.406-13.238-.136 4.413" class="E B"/><path d="M803.615 648.85a18.455 18.455 0 1 0-36.91 0 18.455 18.455 0 0 0 36.91 0m0 0z" class="E Q"/><path d="M860.2 576.041h-4.413" class="B E"/><path d="M731.46 721.66a21.339 21.339 0 1 0-42.678 0 21.339 21.339 0 0 0 42.678 0m0 0z" class="E R"/><g class="B"><path d="m858.982 578.439 1.218-2.398m-8.826 0h-4.413m-4.412 0h-4.413M710.797 699.597l-.135 4.413m134.12 39.232 1.218-2.398m-12.277-164.803h-4.412m-118.244 114.73-.135 4.413m113.966-119.143h-4.413M711.338 681.946l-.136 4.413m104.87-110.318h-4.412M711.608 673.12l-.135 4.413m145.074-94.298 1.217-2.398m-50.517-4.796h-4.413m-90.956 88.254-.135 4.413m130.604 79.329 1.218-2.398m-45.143-169.598h-4.413m-81.861 79.429-.135 4.412m77.583-83.841h-4.412m-72.766 70.603-.135 4.413m68.487-75.016h-4.412m-63.669 61.778-.135 4.413m141.558-54.202 1.217-2.397m-83.384-9.592h-4.412M704.034 733.65l1.217-2.398m7.708-102.258-.135 4.412m50.296-57.365h-4.413m-45.477 44.127-.136 4.413m126.818 128.252 1.218-2.398m-86.835-174.394h-4.413M713.5 611.343l-.136 4.412m32.106-39.714h-4.414m-27.286 26.476-.136 4.413m23.01-30.889h-4.413m-18.191 17.651-.135 4.413m137.771-5.279 1.218-2.397M701.598 738.446l1.218-2.398m25.002-160.007h-4.412m-9.096 8.825-.135 4.413M837.477 757.63l1.217-2.399m-119.701-179.19h-4.413m0 0-.135 4.413m-1.082-2.015 1.217-2.398m134.661 21.581 1.218-2.398M699.163 743.242l1.218-2.398m134.661 21.581 1.217-2.398M710.927 583.235l1.218-2.398" class="E"/></g><path d="M779.566 691.632a22.877 22.877 0 1 0-45.753 0 22.877 22.877 0 0 0 45.753 0m0 0zm69.5-72.81a22.877 22.877 0 1 0-45.753 0 22.877 22.877 0 0 0 45.753 0m0 0z" class="E P"/><path d="m846.806 602.418 1.218-2.398M696.728 748.037l1.218-2.398m134.66 21.581 1.218-2.397M708.492 588.03l1.218-2.397m134.66 21.581 1.218-2.398M694.293 752.833l1.217-2.398m134.661 21.582 1.218-2.398M706.057 592.826l1.218-2.397m134.661 21.581 1.217-2.398M691.858 757.63l1.217-2.399m134.661 21.581 1.218-2.398M703.622 597.622l1.217-2.398M839.5 616.806l1.218-2.398M689.422 762.425l1.218-2.398" class="E B"/><path d="M813.945 734.413a18.455 18.455 0 1 0-36.91 0 18.455 18.455 0 0 0 36.91 0m0 0z" class="E Q"/><path d="m825.3 781.608 1.218-2.398M701.187 602.418l1.217-2.398m134.661 21.581 1.218-2.397M686.987 767.22l1.218-2.397m134.661 21.581 1.217-2.398M698.751 607.214l1.218-2.398m134.661 21.581 1.218-2.398M684.552 772.017l1.218-2.398M820.43 791.2l1.218-2.398M696.316 612.01l1.218-2.398m134.661 21.581 1.217-2.398M682.117 776.812l1.217-2.398m134.661 21.582 1.218-2.398M693.881 616.806l1.218-2.398" class="E B"/><path d="M746.248 661.603a21.339 21.339 0 1 0-42.678 0 21.339 21.339 0 0 0 42.678 0m0 0z" class="E R"/><path d="m829.76 635.989 1.217-2.398M679.682 781.608l1.217-2.398m134.661 21.582 1.218-2.398M691.446 621.601l1.217-2.397m134.661 21.581 1.218-2.398M677.246 786.404l1.218-2.398m134.661 21.581 1.217-2.398" class="E B"/><path d="M787.21 774.424a22.877 22.877 0 1 0-45.753 0 22.877 22.877 0 0 0 45.754 0m0 0z" class="E P"/><g class="B"><path d="m689.01 626.397 1.218-2.398M824.89 645.58l1.217-2.397M674.811 791.2l1.218-2.398m134.661 21.581 1.217-2.398M686.575 631.193l1.218-2.398m134.661 21.581 1.218-2.397M672.376 795.996l1.218-2.398m134.66 21.582 1.218-2.399M684.14 635.989l1.218-2.398m134.661 21.581 1.217-2.398M669.94 800.792l1.218-2.398m134.662 21.581 1.217-2.398m-1.083-2.015-.135 4.413m.001 0h-4.413m-119.702-179.19 1.218-2.398m123.302 168.35-.135 4.412m-9.096 8.826h-4.413" class="E"/></g><path d="M716.46 707.154a22.877 22.877 0 1 0-45.753 0 22.877 22.877 0 0 0 45.754 0m0 0z" class="E P"/><g class="B"><path d="m817.584 659.968 1.217-2.398M667.506 805.587l1.217-2.398m137.772-5.278-.135 4.413m-18.192 17.651h-4.412m23.009-30.889-.135 4.413m-27.287 26.476h-4.413m32.105-39.715-.135 4.413m-36.382 35.302h-4.413M679.27 645.58l1.217-2.397m126.819 128.252-.136 4.413m-45.478 44.127h-4.412m50.296-57.365-.135 4.412m7.707-102.258 1.218-2.398m-63.499 157.609h-4.413m-83.384-9.592 1.218-2.398m141.558-54.201-.135 4.413m-63.67 61.778h-4.412m68.487-75.016-.135 4.413m-72.765 70.603h-4.413m77.583-83.842-.135 4.413m-81.861 79.429h-4.412m-45.143-169.599 1.217-2.397m130.605 79.329-.135 4.413m-90.957 88.254h-4.413m99.561-150.415 1.218-2.398M662.635 815.18l1.218-2.399m145.074-94.298-.135 4.412m-100.052 97.08h-4.413m104.87-110.318-.135 4.413M699.914 819.975h-4.412m113.965-119.143-.135 4.413m-118.243 114.73h-4.413M674.4 655.172l1.217-2.398m134.121 39.232-.136 4.413M682.264 819.975h-4.413m132.157-136.794-.135 4.413m.405-13.238 1.218-2.398M673.438 819.975h-4.413m-8.825 0 1.218-2.398m148.86-143.221-.135 4.412m-145.53 141.207H660.2m150.078-145.619h-4.413m-145.53 141.206-.135 4.413m141.253-145.619h-4.413M660.605 806.737l-.135 4.412m11.494-151.181 1.218-2.398m119.445 16.786h-4.413M660.876 797.911l-.136 4.413m123.062-127.968h-4.413m-118.243 114.73-.135 4.413m113.965-119.143h-4.412M661.416 780.26l-.135 4.413M766.15 674.356h-4.412m-100.052 97.079-.135 4.413m95.775-101.492h-4.413m-90.957 88.254-.135 4.412m7.709-102.258 1.217-2.398m77.753 11.99h-4.413m-81.86 79.428-.135 4.413m77.583-83.841h-4.413m-72.765 70.603-.135 4.413m68.488-75.016h-4.413m-63.67 61.777-.135 4.413m59.392-66.19h-4.413m-54.574 52.952-.135 4.413m4.192-62.161 1.217-2.398m44.887 7.194h-4.412m-45.478 44.127-.136 4.412m41.201-48.539h-4.413m-36.382 35.301-.135 4.413m32.105-39.714h-4.413m-27.287 26.476-.135 4.413m23.009-30.889h-4.412m-18.192 17.65-.135 4.413m13.914-22.063h-4.413m-9.096 8.825-.135 4.413m.406-13.238 1.217-2.398m3.195 2.398h-4.412m0 0-.135 4.412" class="E"/></g></g><g transform="matrix(.1 0 0 -.1 778.654 651.61)"><use xlink:href="#A"/><use xlink:href="#D" x="68.604"/></g><g transform="matrix(.1 0 0 -.1 705.558 724.42)"><use xlink:href="#U"/><use xlink:href="#V" x="63.477"/></g><g transform="matrix(.1 0 0 -.1 750.665 694.391)"><use xlink:href="#O"/><use xlink:href="#P" x="68.408"/></g><g transform="matrix(.1 0 0 -.1 820.165 621.581)"><use xlink:href="#O"/><use xlink:href="#P" x="68.408"/></g><g transform="matrix(.1 0 0 -.1 788.983 737.172)"><use xlink:href="#A"/><use xlink:href="#D" x="68.604"/></g><g transform="matrix(.1 0 0 -.1 720.346 664.363)"><use xlink:href="#U"/><use xlink:href="#V" x="63.477"/></g><g transform="matrix(.1 0 0 -.1 758.31 777.184)"><use xlink:href="#O"/><use xlink:href="#P" x="68.408"/></g><g transform="matrix(.1 0 0 -.1 687.56 709.913)"><use xlink:href="#O"/><use xlink:href="#P" x="68.408"/></g><g transform="matrix(.16 0 0 -.16 690.401 563.943)"><use xlink:href="#E"/><use xlink:href="#H" x="76.221"/><use xlink:href="#Y" x="144.043"/><use xlink:href="#Z" x="216.064"/><use xlink:href="#Q" x="250.342"/><use xlink:href="#R" x="327.734"/><use xlink:href="#h" x="387.256"/><use xlink:href="#I" x="491.65"/><use xlink:href="#y" x="537.354"/><use xlink:href="#L" x="574.561"/><use xlink:href="#S" x="616.064"/><use xlink:href="#h" x="685.645"/><use xlink:href="#z" x="755.225"/><use xlink:href="#N" x="826.807"/></g><defs><clipPath id="AA"><path d="M7.2 56.458h210V174.9H7.2z"/></clipPath><clipPath id="AB"><path d="M223.2 56.956h210v117.446h-210z"/></clipPath><clipPath id="AC"><path d="M439.2 39.631h210v152.097h-210z"/></clipPath><clipPath id="AD"><path d="M655.2 25.358h210v180.643h-210z"/></clipPath><clipPath id="AE"><path d="M7.2 337.968h210v138.085H7.2z"/></clipPath><clipPath id="AF"><path d="M223.2 298.941h210v216.14h-210z"/></clipPath><clipPath id="AG"><path d="M439.2 278.741h210V535.28h-210z"/></clipPath><clipPath id="AH"><path d="M655.2 278.27h210v257.483h-210z"/></clipPath><clipPath id="AI"><path d="M7.2 570.395h210v255.226H7.2z"/></clipPath><clipPath id="AJ"><path d="M223.2 569.619h210v256.778h-210z"/></clipPath><clipPath id="AK"><path d="M439.2 594.413h210v207.19h-210z"/></clipPath><clipPath id="AL"><path d="M655.2 569.943h210v256.131h-210z"/></clipPath></defs></svg>