<svg height="617.721" viewBox="0 0 542.366 463.291" width="723.154" xmlns="http://www.w3.org/2000/svg" xmlns:xlink="http://www.w3.org/1999/xlink"><defs><style>*{stroke-linecap:butt;stroke-linejoin:round}</style></defs><g id="figure_1"><path d="M0 463.29h542.366V0H0z" fill="#fff" id="patch_1"/><g id="axes_1"><path d="M72.862 402.878h446.4V14.798h-446.4z" fill="#fff" id="patch_2"/><path clip-path="url(#p95abd0de04)" d="M72.862 402.878l446.4-388.08" fill="none" stroke="#000" stroke-dasharray="5.55,2.4" stroke-opacity=".5" stroke-width="1.5" id="line2d_1"/><path clip-path="url(#p95abd0de04)" d="M72.862 402.878l4.51-.996 4.509-5.48 4.509-5.48 4.509-1.993 4.509-2.49 4.509-5.48 4.51-2.491 4.508-4.484 4.51-5.48 4.508-2.989 4.51-3.487 4.509-2.491 4.509-4.484 4.509-3.487 4.509-3.985 4.509-1.993 4.509-3.985 4.51-4.982 4.508-4.982 4.51-2.989 4.508-4.484 4.51-1.494 4.509-2.99 4.509-1.494 4.509-5.48 4.509-1.992 4.509-4.982 4.509-3.986 4.51-3.487 4.508-3.487 4.51-5.48 4.508-3.985 4.51-4.982 4.509-.996 4.509-3.986 4.509-1.494 4.509-2.491 4.509-2.99 4.509-2.988 4.51-3.488 4.508-5.48 4.51-2.989 4.508-3.487 4.51-3.985 4.509-4.982 4.509-2.491 4.509-2.99 4.509-4.98 4.509-3.986 4.509-4.484 4.51-3.985 4.508-1.495 4.51-3.985 4.508-1.495 4.51-2.49 4.509-5.979 4.509-4.982 4.509-5.48 4.509-1.992 4.509-4.484 4.509-4.483 4.51-1.993 4.508-2.99 4.51-1.494 4.508-1.992 4.51-1.495 4.509-2.49 4.509-2.99 4.509-2.989 4.509-4.484 4.509-.498 4.509-1.992 4.51-4.484 4.508-2.49 4.51-2.492 4.508-3.487 4.51-3.487 4.509-2.491 4.509-1.993 4.509-1.993 4.509-1.992 4.509-2.491 4.509-1.993 4.51-3.487 4.508-1.993 4.51-2.989 4.508-3.985 4.51-4.484 4.509-2.989 4.509-.996 4.509-2.491 4.509-3.487L492.208 96l4.509-1.992 4.51-2.491 4.508-4.484 4.51-4.982 4.508-11.458 4.51-55.796-4.51 3.92-4.509 3.92-4.509 3.92-4.509 3.92-4.509 3.92-4.509 3.92-4.51 3.92-4.508 3.92-4.51 3.92-4.508 3.92-4.51 3.92-4.509 3.92-4.509 3.92-4.509 3.92-4.509 3.92-4.509 3.92-4.509 3.92-4.51 3.92-4.508 3.92-4.51 3.92-4.508 3.92-4.51 3.92-4.509 3.92-4.509 3.92-4.509 3.92-4.509 3.92-4.509 3.92-4.509 3.92-4.51 3.92-4.508 3.92-4.51 3.92-4.508 3.92-4.51 3.92-4.509 3.92-4.509 3.92-4.509 3.92-4.509 3.92-4.509 3.92-4.509 3.92-4.51 3.92-4.508 3.92-4.51 3.92-4.508 3.92-4.51 3.92-4.509 3.92-4.509 3.92-4.509 3.92-4.509 3.92-4.509 3.92-4.509 3.92-4.51 3.92-4.508 3.92-4.51 3.92-4.508 3.92-4.51 3.92-4.509 3.92-4.509 3.92-4.509 3.92-4.509 3.92-4.509 3.92-4.509 3.92-4.51 3.92-4.508 3.92-4.51 3.92-4.508 3.92-4.51 3.92-4.509 3.92-4.509 3.92-4.509 3.92-4.509 3.92-4.509 3.92-4.509 3.92-4.51 3.92-4.508 3.92-4.51 3.92-4.508 3.92-4.51 3.92-4.509 3.92-4.509 3.92-4.509 3.92-4.509 3.92-4.509 3.92-4.509 3.92-4.51 3.92-4.508 3.92-4.51 3.92-4.508 3.92-4.51 3.92-4.509 3.92-4.509 3.92-4.509 3.92-4.509 3.92-4.509 3.92-4.509 3.92-4.51 3.92-4.508 3.92-4.51 3.92-4.508 3.92-4.51 3.92z" fill="#1f77b4" fill-opacity=".2" id="PolyCollection_1"/><path clip-path="url(#p95abd0de04)" d="M72.862 402.878l4.51-4.981 4.509-6.975 4.509-2.989 4.509-6.974 4.509-4.982 4.509-7.473 4.51-3.985 4.508-4.484 4.51-7.472 4.508-4.982 4.51-4.982 4.509-5.48 4.509-6.476 4.509-4.982 4.509-3.487 4.509-3.986 4.509-5.978 4.51-4.982 4.508-6.476 4.51-5.48 4.508-6.476 4.51-5.978 4.509-3.487 4.509-4.484 4.509-2.99 4.509-3.985 4.509-4.483 4.509-5.978 4.51-4.982 4.508-4.484 4.51-6.974 4.508-2.99 4.51-4.981 4.509-6.476 4.509-4.982 4.509-3.985 4.509-4.982 4.509-1.495 4.509-4.483 4.51-8.47 4.508-5.977 4.51-3.488 4.508-4.982 4.51-3.487 4.509-3.985 4.509-1.495 4.509-1.992 4.509-2.99 4.509-1.992 4.509-3.487 4.51-5.48 4.508-.997 4.51-1.992 4.508-4.484 4.51-2.49 4.509-2.99 4.509-4.484 4.509-2.989 4.509-1.494 4.509-1.993 4.509-1.993 4.51-1.992 4.508-2.491 4.51-1.993 4.508-2.49 4.51-1.495 4.509-1.993 4.509-2.49 4.509-3.986 4.509-1.993 4.509-2.99 4.509-2.49 4.51-.498 4.508-1.993 4.51-1.494 4.508-2.491 4.51-1.495 4.509-1.993 4.509-1.494 4.509-.996 4.509-.997 4.509-1.494 4.509-2.491 4.51-1.993 4.508-.996 4.51-2.491 4.508-1.495 4.51-1.494 4.509-4.484 4.509-3.985 4.509-2.99 4.509-3.486 4.509-4.484 4.509-2.491 4.51-.996 4.508-6.477 4.51-6.476 4.508-5.978 4.51-23.913-4.51 3.92-4.509 3.92-4.509 3.92-4.509 3.92-4.509 3.92-4.509 3.92-4.51 3.92-4.508 3.92-4.51 3.92-4.508 3.92-4.51 3.92-4.509 3.92-4.509 3.92-4.509 3.92-4.509 3.92-4.509 3.92-4.509 3.92-4.51 3.92-4.508 3.92-4.51 3.92-4.508 3.92-4.51 3.92-4.509 3.92-4.509 3.92-4.509 3.92-4.509 3.92-4.509 3.92-4.509 3.92-4.51 3.92-4.508 3.92-4.51 3.92-4.508 3.92-4.51 3.92-4.509 3.92-4.509 3.92-4.509 3.92-4.509 3.92-4.509 3.92-4.509 3.92-4.51 3.92-4.508 3.92-4.51 3.92-4.508 3.92-4.51 3.92-4.509 3.92-4.509 3.92-4.509 3.92-4.509 3.92-4.509 3.92-4.509 3.92-4.51 3.92-4.508 3.92-4.51 3.92-4.508 3.92-4.51 3.92-4.509 3.92-4.509 3.92-4.509 3.92-4.509 3.92-4.509 3.92-4.509 3.92-4.51 3.92-4.508 3.92-4.51 3.92-4.508 3.92-4.51 3.92-4.509 3.92-4.509 3.92-4.509 3.92-4.509 3.92-4.509 3.92-4.509 3.92-4.51 3.92-4.508 3.92-4.51 3.92-4.508 3.92-4.51 3.92-4.509 3.92-4.509 3.92-4.509 3.92-4.509 3.92-4.509 3.92-4.509 3.92-4.51 3.92-4.508 3.92-4.51 3.92-4.508 3.92-4.51 3.92-4.509 3.92-4.509 3.92-4.509 3.92-4.509 3.92-4.509 3.92-4.509 3.92-4.51 3.92-4.508 3.92-4.51 3.92-4.508 3.92-4.51 3.92z" fill="#ff7f0e" fill-opacity=".2" id="PolyCollection_2"/><g id="matplotlib.axis_1"><g id="xtick_1"><g id="line2d_2"><defs><path d="M0 0v7" id="mb47dff7beb" stroke="#000" stroke-width="2.5"/></defs><use x="72.862" xlink:href="#mb47dff7beb" y="402.878" stroke="#000" stroke-width="2.5"/></g><g id="text_1"><defs><path d="M31.781 66.406q-7.61 0-11.453-7.5Q16.5 51.422 16.5 36.375q0-14.984 3.828-22.484 3.844-7.5 11.453-7.5 7.672 0 11.5 7.5 3.844 7.5 3.844 22.484 0 15.047-3.844 22.531-3.828 7.5-11.5 7.5zm0 7.813q12.266 0 18.735-9.703 6.468-9.688 6.468-28.141 0-18.406-6.468-28.11-6.47-9.687-18.735-9.687-12.25 0-18.718 9.688-6.47 9.703-6.47 28.109 0 18.453 6.47 28.14Q19.53 74.22 31.78 74.22z" id="DejaVuSans-48"/><path d="M10.688 12.406H21V0H10.687z" id="DejaVuSans-46"/></defs><g transform="matrix(.2 0 0 -.2 56.96 428.575)"><use xlink:href="#DejaVuSans-48"/><use x="63.623" xlink:href="#DejaVuSans-46"/><use x="95.41" xlink:href="#DejaVuSans-48"/></g></g></g><g id="xtick_2"><use x="162.143" xlink:href="#mb47dff7beb" y="402.878" stroke="#000" stroke-width="2.5" id="line2d_3"/><g id="text_2"><defs><path d="M19.188 8.297h34.421V0H7.33v8.297q5.609 5.812 15.296 15.594 9.703 9.797 12.188 12.64 4.734 5.313 6.609 9 1.89 3.688 1.89 7.25 0 5.813-4.078 9.469-4.078 3.672-10.625 3.672-4.64 0-9.797-1.61-5.14-1.609-11-4.89v9.969Q13.767 71.78 18.938 73q5.188 1.219 9.485 1.219 11.328 0 18.062-5.672 6.735-5.656 6.735-15.125 0-4.5-1.688-8.531-1.672-4.016-6.125-9.485-1.218-1.422-7.765-8.187-6.532-6.766-18.453-18.922z" id="DejaVuSans-50"/></defs><g transform="matrix(.2 0 0 -.2 146.24 428.575)"><use xlink:href="#DejaVuSans-48"/><use x="63.623" xlink:href="#DejaVuSans-46"/><use x="95.41" xlink:href="#DejaVuSans-50"/></g></g></g><g id="xtick_3"><use x="251.423" xlink:href="#mb47dff7beb" y="402.878" stroke="#000" stroke-width="2.5" id="line2d_4"/><g id="text_3"><defs><path d="M37.797 64.313L12.89 25.39h24.906zm-2.594 8.593H47.61V25.391h10.407v-8.203H47.609V0h-9.812v17.188H4.89v9.515z" id="DejaVuSans-52"/></defs><g transform="matrix(.2 0 0 -.2 235.52 428.575)"><use xlink:href="#DejaVuSans-48"/><use x="63.623" xlink:href="#DejaVuSans-46"/><use x="95.41" xlink:href="#DejaVuSans-52"/></g></g></g><g id="xtick_4"><use x="340.702" xlink:href="#mb47dff7beb" y="402.878" stroke="#000" stroke-width="2.5" id="line2d_5"/><g id="text_4"><defs><path d="M33.016 40.375q-6.641 0-10.532-4.547-3.875-4.531-3.875-12.437 0-7.86 3.875-12.438 3.891-4.562 10.532-4.562 6.64 0 10.515 4.562 3.875 4.578 3.875 12.438 0 7.906-3.875 12.437-3.875 4.547-10.515 4.547zm19.578 30.922v-8.984q-3.719 1.75-7.5 2.671-3.782.938-7.5.938-9.766 0-14.922-6.594-5.14-6.594-5.875-19.922 2.875 4.25 7.219 6.516 4.359 2.266 9.578 2.266 10.984 0 17.36-6.672 6.374-6.657 6.374-18.125 0-11.235-6.64-18.032-6.641-6.78-17.672-6.78-12.657 0-19.344 9.687-6.688 9.703-6.688 28.109 0 17.281 8.204 27.563 8.203 10.28 22.015 10.28 3.719 0 7.5-.734t7.89-2.187z" id="DejaVuSans-54"/></defs><g transform="matrix(.2 0 0 -.2 324.8 428.575)"><use xlink:href="#DejaVuSans-48"/><use x="63.623" xlink:href="#DejaVuSans-46"/><use x="95.41" xlink:href="#DejaVuSans-54"/></g></g></g><g id="xtick_5"><use x="429.983" xlink:href="#mb47dff7beb" y="402.878" stroke="#000" stroke-width="2.5" id="line2d_6"/><g id="text_5"><defs><path d="M31.781 34.625q-7.031 0-11.062-3.766-4.016-3.765-4.016-10.343 0-6.594 4.016-10.36Q24.75 6.391 31.78 6.391q7.032 0 11.078 3.78 4.063 3.798 4.063 10.345 0 6.578-4.031 10.343-4.016 3.766-11.11 3.766zm-9.86 4.188q-6.343 1.562-9.89 5.906Q8.5 49.079 8.5 55.329q0 8.733 6.219 13.812 6.234 5.078 17.062 5.078 10.89 0 17.094-5.078 6.203-5.079 6.203-13.813 0-6.25-3.547-10.61-3.531-4.343-9.828-5.906 7.125-1.656 11.094-6.5 3.984-4.828 3.984-11.796 0-10.61-6.468-16.282-6.47-5.656-18.532-5.656-12.047 0-18.531 5.656-6.469 5.672-6.469 16.282 0 6.968 4 11.797 4.016 4.843 11.14 6.5zM18.314 54.39q0-5.657 3.53-8.828 3.548-3.172 9.938-3.172 6.36 0 9.938 3.172 3.593 3.171 3.593 8.828 0 5.672-3.593 8.843-3.578 3.172-9.938 3.172-6.39 0-9.937-3.172-3.532-3.172-3.532-8.843z" id="DejaVuSans-56"/></defs><g transform="matrix(.2 0 0 -.2 414.08 428.575)"><use xlink:href="#DejaVuSans-48"/><use x="63.623" xlink:href="#DejaVuSans-46"/><use x="95.41" xlink:href="#DejaVuSans-56"/></g></g></g><g id="xtick_6"><use x="519.263" xlink:href="#mb47dff7beb" y="402.878" stroke="#000" stroke-width="2.5" id="line2d_7"/><g id="text_6"><defs><path d="M12.406 8.297h16.11v55.625l-17.532-3.516v8.985l17.438 3.515h9.86V8.296H54.39V0H12.406z" id="DejaVuSans-49"/></defs><g transform="matrix(.2 0 0 -.2 503.36 428.575)"><use xlink:href="#DejaVuSans-49"/><use x="63.623" xlink:href="#DejaVuSans-46"/><use x="95.41" xlink:href="#DejaVuSans-48"/></g></g></g><g id="text_7"><defs><path d="M-.297 72.906h61.672v-8.312H35.5V0h-9.906v64.594H-.296z" id="DejaVuSans-84"/><path d="M54.89 33.016V0h-8.984v32.719q0 7.765-3.031 11.61-3.031 3.858-9.078 3.858-7.281 0-11.484-4.64-4.204-4.625-4.204-12.64V0H9.08v75.984h9.03V46.188q3.235 4.937 7.594 7.374Q30.078 56 35.797 56q9.422 0 14.25-5.828 4.844-5.828 4.844-17.156z" id="DejaVuSans-104"/><path d="M56.203 29.594v-4.39H14.891q.593-9.282 5.593-14.142 5-4.859 13.938-4.859 5.172 0 10.031 1.266 4.86 1.265 9.656 3.812v-8.5Q49.266.734 44.187-.344 39.11-1.422 33.892-1.422q-13.094 0-20.735 7.61-7.64 7.625-7.64 20.625 0 13.421 7.25 21.296Q20.016 56 32.328 56q11.031 0 17.453-7.11 6.422-7.093 6.422-19.296zm-8.984 2.64q-.094 7.36-4.125 11.75-4.032 4.407-10.672 4.407-7.516 0-12.031-4.25-4.516-4.25-5.203-11.97z" id="DejaVuSans-101"/><path d="M30.61 48.39q-7.22 0-11.422-5.64-4.204-5.64-4.204-15.453 0-9.813 4.172-15.453 4.188-5.64 11.453-5.64 7.188 0 11.375 5.655 4.203 5.672 4.203 15.438 0 9.719-4.203 15.406-4.187 5.688-11.375 5.688zm0 7.61q11.718 0 18.406-7.625 6.703-7.61 6.703-21.078 0-13.422-6.703-21.078-6.688-7.64-18.407-7.64-11.765 0-18.437 7.64-6.656 7.656-6.656 21.078 0 13.469 6.656 21.078Q18.844 56 30.609 56z" id="DejaVuSans-111"/><path d="M41.11 46.297q-1.516.875-3.297 1.281Q36.03 48 33.89 48q-7.625 0-11.703-4.953-4.079-4.953-4.079-14.234V0H9.08v54.688h9.03v-8.5q2.844 4.984 7.375 7.39Q30.031 56 36.531 56q.922 0 2.047-.125 1.125-.11 2.484-.36z" id="DejaVuSans-114"/><path d="M18.313 70.219V54.688h18.5v-6.985h-18.5V18.016q0-6.688 1.828-8.594 1.828-1.906 7.453-1.906h9.218V0h-9.218q-10.407 0-14.36 3.875-3.953 3.89-3.953 14.14v29.688H2.687v6.984h6.594V70.22z" id="DejaVuSans-116"/><path d="M9.422 54.688h8.984V0H9.422zm0 21.296h8.984v-11.39H9.422z" id="DejaVuSans-105"/><path d="M48.781 52.594v-8.407q-3.812 2.11-7.64 3.157-3.828 1.047-7.735 1.047-8.75 0-13.593-5.547-4.829-5.532-4.829-15.547 0-10.016 4.829-15.563 4.843-5.53 13.593-5.53 3.907 0 7.735 1.046 3.828 1.047 7.64 3.156V2.094Q45.016.344 40.984-.531q-4.015-.89-8.562-.89-12.36 0-19.64 7.765-7.266 7.765-7.266 20.953 0 13.375 7.343 21.031Q20.22 56 33.016 56q4.14 0 8.093-.86 3.953-.843 7.672-2.546z" id="DejaVuSans-99"/><path d="M34.281 27.484q-10.89 0-15.093-2.484-4.204-2.484-4.204-8.5 0-4.781 3.157-7.594 3.156-2.797 8.562-2.797 7.485 0 12 5.297 4.516 5.297 4.516 14.078v2zm17.922 3.72V0H43.22v8.297Q40.14 3.328 35.547.953q-4.594-2.375-11.234-2.375-8.391 0-13.36 4.719Q6 8.016 6 15.922q0 9.219 6.172 13.906 6.187 4.688 18.437 4.688h12.61v.89q0 6.203-4.078 9.594-4.078 3.39-11.453 3.39-4.688 0-9.141-1.124-4.438-1.125-8.531-3.375v8.312q4.921 1.906 9.562 2.844 4.64.953 9.031.953 11.875 0 17.735-6.156 5.86-6.14 5.86-18.64z" id="DejaVuSans-97"/><path d="M9.422 75.984h8.984V0H9.422z" id="DejaVuSans-108"/><path d="M39.406 66.219q-10.75 0-17.078-8.016-6.312-8-6.312-21.828 0-13.766 6.312-21.781 6.328-8 17.078-8 10.735 0 17.016 8 6.281 8.015 6.281 21.781 0 13.828-6.281 21.828-6.281 8.016-17.016 8.016zM53.22 1.313l13-14.204H54.297L43.5-1.219q-1.61-.093-2.469-.14-.843-.063-1.625-.063-15.375 0-24.593 10.281-9.204 10.282-9.204 27.516 0 17.281 9.204 27.563 9.218 10.28 24.593 10.28 15.328 0 24.5-10.28 9.188-10.282 9.188-27.563 0-12.688-5.11-21.734Q62.891 5.609 53.22 1.312z" id="DejaVuSans-81"/><path d="M8.5 21.578v33.11h8.984V21.922q0-7.766 3.016-11.656 3.031-3.875 9.094-3.875 7.265 0 11.484 4.64 4.234 4.64 4.234 12.656v31h8.985V0h-8.984v8.406Q42.047 3.422 37.718 1q-4.313-2.422-10.032-2.422-9.421 0-14.312 5.86Q8.5 10.296 8.5 21.578zM31.11 56z" id="DejaVuSans-117"/><path d="M54.89 33.016V0h-8.984v32.719q0 7.765-3.031 11.61-3.031 3.858-9.078 3.858-7.281 0-11.484-4.64-4.204-4.625-4.204-12.64V0H9.08v54.688h9.03v-8.5q3.235 4.937 7.594 7.374Q30.078 56 35.797 56q9.422 0 14.25-5.828 4.844-5.828 4.844-17.156z" id="DejaVuSans-110"/></defs><g transform="matrix(.2 0 0 -.2 194.498 451.932)"><use xlink:href="#DejaVuSans-84"/><use x="61.084" xlink:href="#DejaVuSans-104"/><use x="124.463" xlink:href="#DejaVuSans-101"/><use x="185.986" xlink:href="#DejaVuSans-111"/><use x="247.168" xlink:href="#DejaVuSans-114"/><use x="288.25" xlink:href="#DejaVuSans-101"/><use x="349.773" xlink:href="#DejaVuSans-116"/><use x="388.982" xlink:href="#DejaVuSans-105"/><use x="416.766" xlink:href="#DejaVuSans-99"/><use x="471.746" xlink:href="#DejaVuSans-97"/><use x="533.025" xlink:href="#DejaVuSans-108"/><use x="560.809" xlink:href="#DejaVuSans-32"/><use x="592.596" xlink:href="#DejaVuSans-81"/><use x="671.307" xlink:href="#DejaVuSans-117"/><use x="734.686" xlink:href="#DejaVuSans-97"/><use x="795.965" xlink:href="#DejaVuSans-110"/><use x="859.344" xlink:href="#DejaVuSans-116"/><use x="898.553" xlink:href="#DejaVuSans-105"/><use x="926.336" xlink:href="#DejaVuSans-108"/><use x="954.119" xlink:href="#DejaVuSans-101"/></g></g></g><g id="matplotlib.axis_2"><g id="ytick_1"><g id="line2d_8"><defs><path d="M0 0h-7" id="m16039920a6" stroke="#000" stroke-width="2.5"/></defs><use x="72.862" xlink:href="#m16039920a6" y="402.878" stroke="#000" stroke-width="2.5"/></g><g transform="matrix(.2 0 0 -.2 30.556 410.477)" id="text_8"><use xlink:href="#DejaVuSans-48"/><use x="63.623" xlink:href="#DejaVuSans-46"/><use x="95.41" xlink:href="#DejaVuSans-48"/></g></g><g id="ytick_2"><use x="72.862" xlink:href="#m16039920a6" y="325.262" stroke="#000" stroke-width="2.5" id="line2d_9"/><g transform="matrix(.2 0 0 -.2 30.556 332.86)" id="text_9"><use xlink:href="#DejaVuSans-48"/><use x="63.623" xlink:href="#DejaVuSans-46"/><use x="95.41" xlink:href="#DejaVuSans-50"/></g></g><g id="ytick_3"><use x="72.862" xlink:href="#m16039920a6" y="247.646" stroke="#000" stroke-width="2.5" id="line2d_10"/><g transform="matrix(.2 0 0 -.2 30.556 255.245)" id="text_10"><use xlink:href="#DejaVuSans-48"/><use x="63.623" xlink:href="#DejaVuSans-46"/><use x="95.41" xlink:href="#DejaVuSans-52"/></g></g><g id="ytick_4"><use x="72.862" xlink:href="#m16039920a6" y="170.03" stroke="#000" stroke-width="2.5" id="line2d_11"/><g transform="matrix(.2 0 0 -.2 30.556 177.629)" id="text_11"><use xlink:href="#DejaVuSans-48"/><use x="63.623" xlink:href="#DejaVuSans-46"/><use x="95.41" xlink:href="#DejaVuSans-54"/></g></g><g id="ytick_5"><use x="72.862" xlink:href="#m16039920a6" y="92.414" stroke="#000" stroke-width="2.5" id="line2d_12"/><g transform="matrix(.2 0 0 -.2 30.556 100.013)" id="text_12"><use xlink:href="#DejaVuSans-48"/><use x="63.623" xlink:href="#DejaVuSans-46"/><use x="95.41" xlink:href="#DejaVuSans-56"/></g></g><g id="ytick_6"><use x="72.862" xlink:href="#m16039920a6" y="14.798" stroke="#000" stroke-width="2.5" id="line2d_13"/><g transform="matrix(.2 0 0 -.2 30.556 22.397)" id="text_13"><use xlink:href="#DejaVuSans-49"/><use x="63.623" xlink:href="#DejaVuSans-46"/><use x="95.41" xlink:href="#DejaVuSans-48"/></g></g><g id="text_14"><defs><path d="M39.406 66.219q-10.75 0-17.078-8.016-6.312-8-6.312-21.828 0-13.766 6.312-21.781 6.328-8 17.078-8 10.735 0 17.016 8 6.281 8.015 6.281 21.781 0 13.828-6.281 21.828-6.281 8.016-17.016 8.016zm0 8q15.328 0 24.5-10.281 9.188-10.282 9.188-27.563 0-17.234-9.188-27.516-9.172-10.28-24.5-10.28-15.375 0-24.593 10.25-9.204 10.265-9.204 27.546t9.204 27.563q9.218 10.28 24.593 10.28z" id="DejaVuSans-79"/><path d="M48.688 27.297q0 9.906-4.079 15.547-4.078 5.64-11.203 5.64-7.14 0-11.218-5.64-4.079-5.64-4.079-15.547 0-9.906 4.078-15.547 4.079-5.64 11.22-5.64 7.124 0 11.202 5.64t4.078 15.547zM18.108 46.39q2.844 4.875 7.157 7.234Q29.594 56 35.594 56q9.968 0 16.187-7.906 6.235-7.907 6.235-20.797T51.78 6.484q-6.218-7.906-16.187-7.906-6 0-10.328 2.375-4.313 2.375-7.157 7.25V0H9.08v75.984h9.03z" id="DejaVuSans-98"/><path d="M44.281 53.078v-8.5q-3.797 1.953-7.906 2.922-4.094.984-8.5.984-6.688 0-10.031-2.047-3.344-2.046-3.344-6.156 0-3.125 2.39-4.906 2.391-1.781 9.626-3.39l3.078-.688q9.562-2.047 13.593-5.781 4.032-3.735 4.032-10.422 0-7.625-6.032-12.078-6.03-4.438-16.578-4.438-4.39 0-9.156.86Q10.688.296 5.422 2v9.281q4.984-2.594 9.812-3.89 4.829-1.282 9.579-1.282 6.343 0 9.75 2.172 3.421 2.172 3.421 6.125 0 3.656-2.468 5.61-2.453 1.953-10.813 3.765l-3.125.735q-8.344 1.75-12.062 5.39-3.704 3.64-3.704 9.985 0 7.718 5.47 11.906Q16.75 56 26.811 56q4.97 0 9.36-.734 4.406-.72 8.11-2.188z" id="DejaVuSans-115"/><path d="M2.984 54.688H12.5L29.594 8.797l17.093 45.89h9.516L35.687 0H23.485z" id="DejaVuSans-118"/><path d="M45.406 46.39v29.594h8.985V0h-8.985v8.203Q42.578 3.328 38.25.953q-4.313-2.375-10.375-2.375-9.906 0-16.14 7.906-6.22 7.922-6.22 20.813 0 12.89 6.22 20.797Q17.968 56 27.874 56q6.063 0 10.375-2.375 4.328-2.36 7.156-7.234zm-30.61-19.093q0-9.906 4.079-15.547 4.078-5.64 11.203-5.64 7.125 0 11.219 5.64 4.11 5.64 4.11 15.547 0 9.906-4.11 15.547-4.094 5.64-11.219 5.64-7.125 0-11.203-5.64-4.078-5.64-4.078-15.547z" id="DejaVuSans-100"/></defs><g transform="matrix(0 -.2 -.2 0 22.397 302.435)"><use xlink:href="#DejaVuSans-79"/><use x="78.711" xlink:href="#DejaVuSans-98"/><use x="142.188" xlink:href="#DejaVuSans-115"/><use x="194.287" xlink:href="#DejaVuSans-101"/><use x="255.811" xlink:href="#DejaVuSans-114"/><use x="296.924" xlink:href="#DejaVuSans-118"/><use x="356.104" xlink:href="#DejaVuSans-101"/><use x="417.627" xlink:href="#DejaVuSans-100"/><use x="481.104" xlink:href="#DejaVuSans-32"/><use x="512.891" xlink:href="#DejaVuSans-81"/><use x="591.602" xlink:href="#DejaVuSans-117"/><use x="654.98" xlink:href="#DejaVuSans-97"/><use x="716.26" xlink:href="#DejaVuSans-110"/><use x="779.639" xlink:href="#DejaVuSans-116"/><use x="818.848" xlink:href="#DejaVuSans-105"/><use x="846.631" xlink:href="#DejaVuSans-108"/><use x="874.414" xlink:href="#DejaVuSans-101"/></g></g></g><path clip-path="url(#p95abd0de04)" d="M72.862 402.878l4.51-.996 4.509-5.48 4.509-5.48 4.509-1.993 4.509-2.49 4.509-5.48 4.51-2.491 4.508-4.484 4.51-5.48 4.508-2.989 4.51-3.487 4.509-2.491 4.509-4.484 4.509-3.487 4.509-3.985 4.509-1.993 4.509-3.985 4.51-4.982 4.508-4.982 4.51-2.989 4.508-4.484 4.51-1.494 4.509-2.99 4.509-1.494 4.509-5.48 4.509-1.992 4.509-4.982 4.509-3.986 4.51-3.487 4.508-3.487 4.51-5.48 4.508-3.985 4.51-4.982 4.509-.996 4.509-3.986 4.509-1.494 4.509-2.491 4.509-2.99 4.509-2.988 4.51-3.488 4.508-5.48 4.51-2.989 4.508-3.487 4.51-3.985 4.509-4.982 4.509-2.491 4.509-2.99 4.509-4.98 4.509-3.986 4.509-4.484 4.51-3.985 4.508-1.495 4.51-3.985 4.508-1.495 4.51-2.49 4.509-5.979 4.509-4.982 4.509-5.48 4.509-1.992 4.509-4.484 4.509-4.483 4.51-1.993 4.508-2.99 4.51-1.494 4.508-1.992 4.51-1.495 4.509-2.49 4.509-2.99 4.509-2.989 4.509-4.484 4.509-.498 4.509-1.992 4.51-4.484 4.508-2.49 4.51-2.492 4.508-3.487 4.51-3.487 4.509-2.491 4.509-1.993 4.509-1.993 4.509-1.992 4.509-2.491 4.509-1.993 4.51-3.487 4.508-1.993 4.51-2.989 4.508-3.985 4.51-4.484 4.509-2.989 4.509-.996 4.509-2.491 4.509-3.487L492.208 96l4.509-1.992 4.51-2.491 4.508-4.484 4.51-4.982 4.508-11.458 4.51-55.796" fill="none" stroke="#1f77b4" stroke-linecap="square" stroke-opacity=".8" stroke-width="2" id="line2d_14"/><path clip-path="url(#p95abd0de04)" d="M72.862 402.878l4.51-4.981 4.509-6.975 4.509-2.989 4.509-6.974 4.509-4.982 4.509-7.473 4.51-3.985 4.508-4.484 4.51-7.472 4.508-4.982 4.51-4.982 4.509-5.48 4.509-6.476 4.509-4.982 4.509-3.487 4.509-3.986 4.509-5.978 4.51-4.982 4.508-6.476 4.51-5.48 4.508-6.476 4.51-5.978 4.509-3.487 4.509-4.484 4.509-2.99 4.509-3.985 4.509-4.483 4.509-5.978 4.51-4.982 4.508-4.484 4.51-6.974 4.508-2.99 4.51-4.981 4.509-6.476 4.509-4.982 4.509-3.985 4.509-4.982 4.509-1.495 4.509-4.483 4.51-8.47 4.508-5.977 4.51-3.488 4.508-4.982 4.51-3.487 4.509-3.985 4.509-1.495 4.509-1.992 4.509-2.99 4.509-1.992 4.509-3.487 4.51-5.48 4.508-.997 4.51-1.992 4.508-4.484 4.51-2.49 4.509-2.99 4.509-4.484 4.509-2.989 4.509-1.494 4.509-1.993 4.509-1.993 4.51-1.992 4.508-2.491 4.51-1.993 4.508-2.49 4.51-1.495 4.509-1.993 4.509-2.49 4.509-3.986 4.509-1.993 4.509-2.99 4.509-2.49 4.51-.498 4.508-1.993 4.51-1.494 4.508-2.491 4.51-1.495 4.509-1.993 4.509-1.494 4.509-.996 4.509-.997 4.509-1.494 4.509-2.491 4.51-1.993 4.508-.996 4.51-2.491 4.508-1.495 4.51-1.494 4.509-4.484 4.509-3.985 4.509-2.99 4.509-3.486 4.509-4.484 4.509-2.491 4.51-.996 4.508-6.477 4.51-6.476 4.508-5.978 4.51-23.913" fill="none" stroke="#ff7f0e" stroke-linecap="square" stroke-opacity=".8" stroke-width="2" id="line2d_15"/><path d="M72.862 402.878V14.798" fill="none" stroke="#000" stroke-linecap="square" stroke-width="2.5" id="patch_3"/><path d="M519.263 402.878V14.798" fill="none" stroke="#000" stroke-linecap="square" stroke-width="2.5" id="patch_4"/><path d="M72.862 402.878h446.4" fill="none" stroke="#000" stroke-linecap="square" stroke-width="2.5" id="patch_5"/><path d="M72.862 14.798h446.4" fill="none" stroke="#000" stroke-linecap="square" stroke-width="2.5" id="patch_6"/><g id="legend_1"><path d="M90.862 40.995h40" fill="none" stroke="#1f77b4" stroke-linecap="square" stroke-opacity=".8" stroke-width="2" id="line2d_16"/><g id="text_15"><defs><path d="M37.11 75.984V68.5h-8.594q-4.828 0-6.72-1.953-1.874-1.953-1.874-7.031v-4.828h14.797v-6.985H19.922V0H10.89v47.703H2.297v6.984h8.594V58.5q0 9.125 4.25 13.297 4.25 4.187 13.468 4.187z" id="DejaVuSans-102"/></defs><g transform="matrix(.2 0 0 -.2 146.863 47.995)"><use xlink:href="#DejaVuSans-102"/><use x="35.205" xlink:href="#DejaVuSans-111"/><use x="96.387" xlink:href="#DejaVuSans-111"/></g></g><path d="M90.862 70.352h40" fill="none" stroke="#ff7f0e" stroke-linecap="square" stroke-opacity=".8" stroke-width="2" id="line2d_18"/><g transform="matrix(.2 0 0 -.2 146.863 77.352)" id="text_16"><use xlink:href="#DejaVuSans-98"/><use x="63.477" xlink:href="#DejaVuSans-97"/><use x="124.756" xlink:href="#DejaVuSans-114"/></g><path d="M90.862 99.708h40" fill="none" stroke="#000" stroke-dasharray="5.55,2.4" stroke-opacity=".5" stroke-width="1.5" id="line2d_20"/><g transform="matrix(.2 0 0 -.2 146.863 106.708)" id="text_17"><use xlink:href="#DejaVuSans-105"/><use x="27.783" xlink:href="#DejaVuSans-100"/><use x="91.26" xlink:href="#DejaVuSans-101"/><use x="152.783" xlink:href="#DejaVuSans-97"/><use x="214.063" xlink:href="#DejaVuSans-108"/></g></g><g id="legend_2"><g id="text_18"><defs><path d="M9.813 72.906h14.703l18.593-49.61 18.703 49.61h14.704V0H66.89v64.016l-18.797-50h-9.907l-18.796 50V0H9.813z" id="DejaVuSans-77"/></defs><g transform="matrix(.2 0 0 -.2 252.984 351.363)"><use xlink:href="#DejaVuSans-77"/><use x="86.279" xlink:href="#DejaVuSans-105"/><use x="114.063" xlink:href="#DejaVuSans-115"/><use x="166.162" xlink:href="#DejaVuSans-99"/><use x="221.143" xlink:href="#DejaVuSans-97"/><use x="282.422" xlink:href="#DejaVuSans-108"/><use x="310.205" xlink:href="#DejaVuSans-105"/><use x="337.988" xlink:href="#DejaVuSans-98"/><use x="401.465" xlink:href="#DejaVuSans-114"/><use x="442.578" xlink:href="#DejaVuSans-97"/><use x="503.857" xlink:href="#DejaVuSans-116"/><use x="543.066" xlink:href="#DejaVuSans-105"/><use x="570.85" xlink:href="#DejaVuSans-111"/><use x="632.031" xlink:href="#DejaVuSans-110"/><use x="695.41" xlink:href="#DejaVuSans-32"/><use x="727.197" xlink:href="#DejaVuSans-97"/><use x="788.477" xlink:href="#DejaVuSans-114"/><use x="829.559" xlink:href="#DejaVuSans-101"/><use x="891.082" xlink:href="#DejaVuSans-97"/><use x="952.361" xlink:href="#DejaVuSans-115"/></g></g><path d="M252.984 373.72h40" fill="none" stroke="#1f77b4" stroke-linecap="square" stroke-opacity=".8" stroke-width="2" id="line2d_22"/><g id="text_19"><defs><path d="M4.89 31.39h26.313v-8H4.891z" id="DejaVuSans-45"/></defs><g transform="matrix(.2 0 0 -.2 308.984 380.72)"><use xlink:href="#DejaVuSans-45"/><use x="36.084" xlink:href="#DejaVuSans-48"/><use x="99.707" xlink:href="#DejaVuSans-46"/><use x="131.494" xlink:href="#DejaVuSans-48"/><use x="195.117" xlink:href="#DejaVuSans-54"/></g></g><path d="M400.731 373.72h40" fill="none" stroke="#ff7f0e" stroke-linecap="square" stroke-opacity=".8" stroke-width="2" id="line2d_24"/><g transform="matrix(.2 0 0 -.2 456.731 380.72)" id="text_20"><use xlink:href="#DejaVuSans-48"/><use x="63.623" xlink:href="#DejaVuSans-46"/><use x="95.41" xlink:href="#DejaVuSans-48"/><use x="159.033" xlink:href="#DejaVuSans-52"/></g></g></g></g><defs><clipPath id="p95abd0de04"><path d="M72.862 14.798h446.4v388.08h-446.4z"/></clipPath></defs></svg>