<?xml version="1.0" encoding="utf-8" standalone="no"?>
<!DOCTYPE svg PUBLIC "-//W3C//DTD SVG 1.1//EN"
  "http://www.w3.org/Graphics/SVG/1.1/DTD/svg11.dtd">
<!-- Created with matplotlib (https://matplotlib.org/) -->
<svg height="463.290937pt" version="1.1" viewBox="0 0 542.365625 463.290937" width="542.365625pt" xmlns="http://www.w3.org/2000/svg" xmlns:xlink="http://www.w3.org/1999/xlink">
 <defs>
  <style type="text/css">
*{stroke-linecap:butt;stroke-linejoin:round;}
  </style>
 </defs>
 <g id="figure_1">
  <g id="patch_1">
   <path d="M 0 463.290937 
L 542.365625 463.290937 
L 542.365625 0 
L 0 0 
z
" style="fill:#ffffff;"/>
  </g>
  <g id="axes_1">
   <g id="patch_2">
    <path d="M 72.8625 402.878437 
L 519.2625 402.878437 
L 519.2625 14.798437 
L 72.8625 14.798437 
z
" style="fill:#ffffff;"/>
   </g>
   <g id="line2d_1">
    <path clip-path="url(#p9f445ec6ba)" d="M 72.8625 402.878437 
L 519.2625 14.798437 
" style="fill:none;stroke:#000000;stroke-dasharray:5.55,2.4;stroke-dashoffset:0;stroke-opacity:0.5;stroke-width:1.5;"/>
   </g>
   <g id="PolyCollection_1">
    <path clip-path="url(#p9f445ec6ba)" d="M 72.8625 402.878437 
L 72.8625 402.878437 
L 77.371591 401.882083 
L 81.880682 396.402135 
L 86.389773 390.922186 
L 90.898864 388.929477 
L 95.407955 386.438592 
L 99.917045 380.958643 
L 104.426136 378.467757 
L 108.935227 373.984163 
L 113.444318 368.504214 
L 117.953409 365.515151 
L 122.4625 362.027911 
L 126.971591 359.537025 
L 131.480682 355.053431 
L 135.989773 351.566191 
L 140.498864 347.580774 
L 145.007955 345.588065 
L 149.517045 341.602648 
L 154.026136 336.620877 
L 158.535227 331.639105 
L 163.044318 328.650042 
L 167.553409 324.166448 
L 172.0625 322.671916 
L 176.571591 319.682853 
L 181.080682 318.188322 
L 185.589773 312.708373 
L 190.098864 310.715665 
L 194.607955 305.733893 
L 199.117045 301.748476 
L 203.626136 298.261236 
L 208.135227 294.773996 
L 212.644318 289.294047 
L 217.153409 285.30863 
L 221.6625 280.326859 
L 226.171591 279.330504 
L 230.680682 275.345087 
L 235.189773 273.850556 
L 239.698864 271.35967 
L 244.207955 268.370607 
L 248.717045 265.381544 
L 253.226136 261.894304 
L 257.735227 256.414355 
L 262.244318 253.425292 
L 266.753409 249.938052 
L 271.2625 245.952635 
L 275.771591 240.970864 
L 280.280682 238.479978 
L 284.789773 235.490915 
L 289.298864 230.509144 
L 293.807955 226.523726 
L 298.317045 222.040132 
L 302.826136 218.054715 
L 307.335227 216.560183 
L 311.844318 212.574766 
L 316.353409 211.080235 
L 320.8625 208.589349 
L 325.371591 202.611223 
L 329.880682 197.629452 
L 334.389773 192.149503 
L 338.898864 190.156794 
L 343.407955 185.6732 
L 347.917045 181.189606 
L 352.426136 179.196897 
L 356.935227 176.207834 
L 361.444318 174.713303 
L 365.953409 172.720594 
L 370.4625 171.226063 
L 374.971591 168.735177 
L 379.480682 165.746114 
L 383.989773 162.757051 
L 388.498864 158.273457 
L 393.007955 157.77528 
L 397.517045 155.782571 
L 402.026136 151.298977 
L 406.535227 148.808091 
L 411.044318 146.317205 
L 415.553409 142.829965 
L 420.0625 139.342725 
L 424.571591 136.851839 
L 429.080682 134.859131 
L 433.589773 132.866422 
L 438.098864 130.873713 
L 442.607955 128.382828 
L 447.117045 126.390119 
L 451.626136 122.902879 
L 456.135227 120.91017 
L 460.644318 117.921108 
L 465.153409 113.93569 
L 469.6625 109.452096 
L 474.171591 106.463033 
L 478.680682 105.466679 
L 483.189773 102.975793 
L 487.698864 99.488553 
L 492.207955 96.001313 
L 496.717045 94.008604 
L 501.226136 91.517719 
L 505.735227 87.034124 
L 510.244318 82.052353 
L 514.753409 70.594278 
L 519.2625 14.798437 
L 519.2625 14.798437 
L 519.2625 14.798437 
L 514.753409 18.718437 
L 510.244318 22.638437 
L 505.735227 26.558437 
L 501.226136 30.478437 
L 496.717045 34.398437 
L 492.207955 38.318437 
L 487.698864 42.238437 
L 483.189773 46.158437 
L 478.680682 50.078437 
L 474.171591 53.998437 
L 469.6625 57.918437 
L 465.153409 61.838437 
L 460.644318 65.758437 
L 456.135227 69.678437 
L 451.626136 73.598437 
L 447.117045 77.518437 
L 442.607955 81.438437 
L 438.098864 85.358437 
L 433.589773 89.278437 
L 429.080682 93.198437 
L 424.571591 97.118437 
L 420.0625 101.038437 
L 415.553409 104.958437 
L 411.044318 108.878437 
L 406.535227 112.798437 
L 402.026136 116.718437 
L 397.517045 120.638437 
L 393.007955 124.558437 
L 388.498864 128.478437 
L 383.989773 132.398437 
L 379.480682 136.318437 
L 374.971591 140.238437 
L 370.4625 144.158437 
L 365.953409 148.078437 
L 361.444318 151.998437 
L 356.935227 155.918437 
L 352.426136 159.838437 
L 347.917045 163.758437 
L 343.407955 167.678437 
L 338.898864 171.598437 
L 334.389773 175.518437 
L 329.880682 179.438437 
L 325.371591 183.358437 
L 320.8625 187.278437 
L 316.353409 191.198437 
L 311.844318 195.118437 
L 307.335227 199.038437 
L 302.826136 202.958437 
L 298.317045 206.878437 
L 293.807955 210.798437 
L 289.298864 214.718437 
L 284.789773 218.638437 
L 280.280682 222.558437 
L 275.771591 226.478437 
L 271.2625 230.398437 
L 266.753409 234.318437 
L 262.244318 238.238437 
L 257.735227 242.158437 
L 253.226136 246.078437 
L 248.717045 249.998437 
L 244.207955 253.918437 
L 239.698864 257.838437 
L 235.189773 261.758437 
L 230.680682 265.678437 
L 226.171591 269.598437 
L 221.6625 273.518437 
L 217.153409 277.438437 
L 212.644318 281.358437 
L 208.135227 285.278437 
L 203.626136 289.198437 
L 199.117045 293.118437 
L 194.607955 297.038437 
L 190.098864 300.958437 
L 185.589773 304.878437 
L 181.080682 308.798437 
L 176.571591 312.718437 
L 172.0625 316.638437 
L 167.553409 320.558437 
L 163.044318 324.478437 
L 158.535227 328.398437 
L 154.026136 332.318437 
L 149.517045 336.238437 
L 145.007955 340.158437 
L 140.498864 344.078437 
L 135.989773 347.998437 
L 131.480682 351.918437 
L 126.971591 355.838437 
L 122.4625 359.758437 
L 117.953409 363.678437 
L 113.444318 367.598437 
L 108.935227 371.518437 
L 104.426136 375.438437 
L 99.917045 379.358437 
L 95.407955 383.278437 
L 90.898864 387.198437 
L 86.389773 391.118437 
L 81.880682 395.038437 
L 77.371591 398.958437 
L 72.8625 402.878437 
z
" style="fill:#1f77b4;fill-opacity:0.2;"/>
   </g>
   <g id="matplotlib.axis_1">
    <g id="xtick_1">
     <g id="line2d_2">
      <defs>
       <path d="M 0 0 
L 0 7 
" id="m5f50e9683f" style="stroke:#000000;stroke-width:2.5;"/>
      </defs>
      <g>
       <use style="stroke:#000000;stroke-width:2.5;" x="72.8625" xlink:href="#m5f50e9683f" y="402.878437"/>
      </g>
     </g>
     <g id="text_1">
      <!-- 0.0 -->
      <defs>
       <path d="M 31.78125 66.40625 
Q 24.171875 66.40625 20.328125 58.90625 
Q 16.5 51.421875 16.5 36.375 
Q 16.5 21.390625 20.328125 13.890625 
Q 24.171875 6.390625 31.78125 6.390625 
Q 39.453125 6.390625 43.28125 13.890625 
Q 47.125 21.390625 47.125 36.375 
Q 47.125 51.421875 43.28125 58.90625 
Q 39.453125 66.40625 31.78125 66.40625 
z
M 31.78125 74.21875 
Q 44.046875 74.21875 50.515625 64.515625 
Q 56.984375 54.828125 56.984375 36.375 
Q 56.984375 17.96875 50.515625 8.265625 
Q 44.046875 -1.421875 31.78125 -1.421875 
Q 19.53125 -1.421875 13.0625 8.265625 
Q 6.59375 17.96875 6.59375 36.375 
Q 6.59375 54.828125 13.0625 64.515625 
Q 19.53125 74.21875 31.78125 74.21875 
z
" id="DejaVuSans-48"/>
       <path d="M 10.6875 12.40625 
L 21 12.40625 
L 21 0 
L 10.6875 0 
z
" id="DejaVuSans-46"/>
      </defs>
      <g transform="translate(56.959375 428.575312)scale(0.2 -0.2)">
       <use xlink:href="#DejaVuSans-48"/>
       <use x="63.623047" xlink:href="#DejaVuSans-46"/>
       <use x="95.410156" xlink:href="#DejaVuSans-48"/>
      </g>
     </g>
    </g>
    <g id="xtick_2">
     <g id="line2d_3">
      <g>
       <use style="stroke:#000000;stroke-width:2.5;" x="162.1425" xlink:href="#m5f50e9683f" y="402.878437"/>
      </g>
     </g>
     <g id="text_2">
      <!-- 0.2 -->
      <defs>
       <path d="M 19.1875 8.296875 
L 53.609375 8.296875 
L 53.609375 0 
L 7.328125 0 
L 7.328125 8.296875 
Q 12.9375 14.109375 22.625 23.890625 
Q 32.328125 33.6875 34.8125 36.53125 
Q 39.546875 41.84375 41.421875 45.53125 
Q 43.3125 49.21875 43.3125 52.78125 
Q 43.3125 58.59375 39.234375 62.25 
Q 35.15625 65.921875 28.609375 65.921875 
Q 23.96875 65.921875 18.8125 64.3125 
Q 13.671875 62.703125 7.8125 59.421875 
L 7.8125 69.390625 
Q 13.765625 71.78125 18.9375 73 
Q 24.125 74.21875 28.421875 74.21875 
Q 39.75 74.21875 46.484375 68.546875 
Q 53.21875 62.890625 53.21875 53.421875 
Q 53.21875 48.921875 51.53125 44.890625 
Q 49.859375 40.875 45.40625 35.40625 
Q 44.1875 33.984375 37.640625 27.21875 
Q 31.109375 20.453125 19.1875 8.296875 
z
" id="DejaVuSans-50"/>
      </defs>
      <g transform="translate(146.239375 428.575312)scale(0.2 -0.2)">
       <use xlink:href="#DejaVuSans-48"/>
       <use x="63.623047" xlink:href="#DejaVuSans-46"/>
       <use x="95.410156" xlink:href="#DejaVuSans-50"/>
      </g>
     </g>
    </g>
    <g id="xtick_3">
     <g id="line2d_4">
      <g>
       <use style="stroke:#000000;stroke-width:2.5;" x="251.4225" xlink:href="#m5f50e9683f" y="402.878437"/>
      </g>
     </g>
     <g id="text_3">
      <!-- 0.4 -->
      <defs>
       <path d="M 37.796875 64.3125 
L 12.890625 25.390625 
L 37.796875 25.390625 
z
M 35.203125 72.90625 
L 47.609375 72.90625 
L 47.609375 25.390625 
L 58.015625 25.390625 
L 58.015625 17.1875 
L 47.609375 17.1875 
L 47.609375 0 
L 37.796875 0 
L 37.796875 17.1875 
L 4.890625 17.1875 
L 4.890625 26.703125 
z
" id="DejaVuSans-52"/>
      </defs>
      <g transform="translate(235.519375 428.575312)scale(0.2 -0.2)">
       <use xlink:href="#DejaVuSans-48"/>
       <use x="63.623047" xlink:href="#DejaVuSans-46"/>
       <use x="95.410156" xlink:href="#DejaVuSans-52"/>
      </g>
     </g>
    </g>
    <g id="xtick_4">
     <g id="line2d_5">
      <g>
       <use style="stroke:#000000;stroke-width:2.5;" x="340.7025" xlink:href="#m5f50e9683f" y="402.878437"/>
      </g>
     </g>
     <g id="text_4">
      <!-- 0.6 -->
      <defs>
       <path d="M 33.015625 40.375 
Q 26.375 40.375 22.484375 35.828125 
Q 18.609375 31.296875 18.609375 23.390625 
Q 18.609375 15.53125 22.484375 10.953125 
Q 26.375 6.390625 33.015625 6.390625 
Q 39.65625 6.390625 43.53125 10.953125 
Q 47.40625 15.53125 47.40625 23.390625 
Q 47.40625 31.296875 43.53125 35.828125 
Q 39.65625 40.375 33.015625 40.375 
z
M 52.59375 71.296875 
L 52.59375 62.3125 
Q 48.875 64.0625 45.09375 64.984375 
Q 41.3125 65.921875 37.59375 65.921875 
Q 27.828125 65.921875 22.671875 59.328125 
Q 17.53125 52.734375 16.796875 39.40625 
Q 19.671875 43.65625 24.015625 45.921875 
Q 28.375 48.1875 33.59375 48.1875 
Q 44.578125 48.1875 50.953125 41.515625 
Q 57.328125 34.859375 57.328125 23.390625 
Q 57.328125 12.15625 50.6875 5.359375 
Q 44.046875 -1.421875 33.015625 -1.421875 
Q 20.359375 -1.421875 13.671875 8.265625 
Q 6.984375 17.96875 6.984375 36.375 
Q 6.984375 53.65625 15.1875 63.9375 
Q 23.390625 74.21875 37.203125 74.21875 
Q 40.921875 74.21875 44.703125 73.484375 
Q 48.484375 72.75 52.59375 71.296875 
z
" id="DejaVuSans-54"/>
      </defs>
      <g transform="translate(324.799375 428.575312)scale(0.2 -0.2)">
       <use xlink:href="#DejaVuSans-48"/>
       <use x="63.623047" xlink:href="#DejaVuSans-46"/>
       <use x="95.410156" xlink:href="#DejaVuSans-54"/>
      </g>
     </g>
    </g>
    <g id="xtick_5">
     <g id="line2d_6">
      <g>
       <use style="stroke:#000000;stroke-width:2.5;" x="429.9825" xlink:href="#m5f50e9683f" y="402.878437"/>
      </g>
     </g>
     <g id="text_5">
      <!-- 0.8 -->
      <defs>
       <path d="M 31.78125 34.625 
Q 24.75 34.625 20.71875 30.859375 
Q 16.703125 27.09375 16.703125 20.515625 
Q 16.703125 13.921875 20.71875 10.15625 
Q 24.75 6.390625 31.78125 6.390625 
Q 38.8125 6.390625 42.859375 10.171875 
Q 46.921875 13.96875 46.921875 20.515625 
Q 46.921875 27.09375 42.890625 30.859375 
Q 38.875 34.625 31.78125 34.625 
z
M 21.921875 38.8125 
Q 15.578125 40.375 12.03125 44.71875 
Q 8.5 49.078125 8.5 55.328125 
Q 8.5 64.0625 14.71875 69.140625 
Q 20.953125 74.21875 31.78125 74.21875 
Q 42.671875 74.21875 48.875 69.140625 
Q 55.078125 64.0625 55.078125 55.328125 
Q 55.078125 49.078125 51.53125 44.71875 
Q 48 40.375 41.703125 38.8125 
Q 48.828125 37.15625 52.796875 32.3125 
Q 56.78125 27.484375 56.78125 20.515625 
Q 56.78125 9.90625 50.3125 4.234375 
Q 43.84375 -1.421875 31.78125 -1.421875 
Q 19.734375 -1.421875 13.25 4.234375 
Q 6.78125 9.90625 6.78125 20.515625 
Q 6.78125 27.484375 10.78125 32.3125 
Q 14.796875 37.15625 21.921875 38.8125 
z
M 18.3125 54.390625 
Q 18.3125 48.734375 21.84375 45.5625 
Q 25.390625 42.390625 31.78125 42.390625 
Q 38.140625 42.390625 41.71875 45.5625 
Q 45.3125 48.734375 45.3125 54.390625 
Q 45.3125 60.0625 41.71875 63.234375 
Q 38.140625 66.40625 31.78125 66.40625 
Q 25.390625 66.40625 21.84375 63.234375 
Q 18.3125 60.0625 18.3125 54.390625 
z
" id="DejaVuSans-56"/>
      </defs>
      <g transform="translate(414.079375 428.575312)scale(0.2 -0.2)">
       <use xlink:href="#DejaVuSans-48"/>
       <use x="63.623047" xlink:href="#DejaVuSans-46"/>
       <use x="95.410156" xlink:href="#DejaVuSans-56"/>
      </g>
     </g>
    </g>
    <g id="xtick_6">
     <g id="line2d_7">
      <g>
       <use style="stroke:#000000;stroke-width:2.5;" x="519.2625" xlink:href="#m5f50e9683f" y="402.878437"/>
      </g>
     </g>
     <g id="text_6">
      <!-- 1.0 -->
      <defs>
       <path d="M 12.40625 8.296875 
L 28.515625 8.296875 
L 28.515625 63.921875 
L 10.984375 60.40625 
L 10.984375 69.390625 
L 28.421875 72.90625 
L 38.28125 72.90625 
L 38.28125 8.296875 
L 54.390625 8.296875 
L 54.390625 0 
L 12.40625 0 
z
" id="DejaVuSans-49"/>
      </defs>
      <g transform="translate(503.359375 428.575312)scale(0.2 -0.2)">
       <use xlink:href="#DejaVuSans-49"/>
       <use x="63.623047" xlink:href="#DejaVuSans-46"/>
       <use x="95.410156" xlink:href="#DejaVuSans-48"/>
      </g>
     </g>
    </g>
    <g id="text_7">
     <!-- Theoretical Quantile -->
     <defs>
      <path d="M -0.296875 72.90625 
L 61.375 72.90625 
L 61.375 64.59375 
L 35.5 64.59375 
L 35.5 0 
L 25.59375 0 
L 25.59375 64.59375 
L -0.296875 64.59375 
z
" id="DejaVuSans-84"/>
      <path d="M 54.890625 33.015625 
L 54.890625 0 
L 45.90625 0 
L 45.90625 32.71875 
Q 45.90625 40.484375 42.875 44.328125 
Q 39.84375 48.1875 33.796875 48.1875 
Q 26.515625 48.1875 22.3125 43.546875 
Q 18.109375 38.921875 18.109375 30.90625 
L 18.109375 0 
L 9.078125 0 
L 9.078125 75.984375 
L 18.109375 75.984375 
L 18.109375 46.1875 
Q 21.34375 51.125 25.703125 53.5625 
Q 30.078125 56 35.796875 56 
Q 45.21875 56 50.046875 50.171875 
Q 54.890625 44.34375 54.890625 33.015625 
z
" id="DejaVuSans-104"/>
      <path d="M 56.203125 29.59375 
L 56.203125 25.203125 
L 14.890625 25.203125 
Q 15.484375 15.921875 20.484375 11.0625 
Q 25.484375 6.203125 34.421875 6.203125 
Q 39.59375 6.203125 44.453125 7.46875 
Q 49.3125 8.734375 54.109375 11.28125 
L 54.109375 2.78125 
Q 49.265625 0.734375 44.1875 -0.34375 
Q 39.109375 -1.421875 33.890625 -1.421875 
Q 20.796875 -1.421875 13.15625 6.1875 
Q 5.515625 13.8125 5.515625 26.8125 
Q 5.515625 40.234375 12.765625 48.109375 
Q 20.015625 56 32.328125 56 
Q 43.359375 56 49.78125 48.890625 
Q 56.203125 41.796875 56.203125 29.59375 
z
M 47.21875 32.234375 
Q 47.125 39.59375 43.09375 43.984375 
Q 39.0625 48.390625 32.421875 48.390625 
Q 24.90625 48.390625 20.390625 44.140625 
Q 15.875 39.890625 15.1875 32.171875 
z
" id="DejaVuSans-101"/>
      <path d="M 30.609375 48.390625 
Q 23.390625 48.390625 19.1875 42.75 
Q 14.984375 37.109375 14.984375 27.296875 
Q 14.984375 17.484375 19.15625 11.84375 
Q 23.34375 6.203125 30.609375 6.203125 
Q 37.796875 6.203125 41.984375 11.859375 
Q 46.1875 17.53125 46.1875 27.296875 
Q 46.1875 37.015625 41.984375 42.703125 
Q 37.796875 48.390625 30.609375 48.390625 
z
M 30.609375 56 
Q 42.328125 56 49.015625 48.375 
Q 55.71875 40.765625 55.71875 27.296875 
Q 55.71875 13.875 49.015625 6.21875 
Q 42.328125 -1.421875 30.609375 -1.421875 
Q 18.84375 -1.421875 12.171875 6.21875 
Q 5.515625 13.875 5.515625 27.296875 
Q 5.515625 40.765625 12.171875 48.375 
Q 18.84375 56 30.609375 56 
z
" id="DejaVuSans-111"/>
      <path d="M 41.109375 46.296875 
Q 39.59375 47.171875 37.8125 47.578125 
Q 36.03125 48 33.890625 48 
Q 26.265625 48 22.1875 43.046875 
Q 18.109375 38.09375 18.109375 28.8125 
L 18.109375 0 
L 9.078125 0 
L 9.078125 54.6875 
L 18.109375 54.6875 
L 18.109375 46.1875 
Q 20.953125 51.171875 25.484375 53.578125 
Q 30.03125 56 36.53125 56 
Q 37.453125 56 38.578125 55.875 
Q 39.703125 55.765625 41.0625 55.515625 
z
" id="DejaVuSans-114"/>
      <path d="M 18.3125 70.21875 
L 18.3125 54.6875 
L 36.8125 54.6875 
L 36.8125 47.703125 
L 18.3125 47.703125 
L 18.3125 18.015625 
Q 18.3125 11.328125 20.140625 9.421875 
Q 21.96875 7.515625 27.59375 7.515625 
L 36.8125 7.515625 
L 36.8125 0 
L 27.59375 0 
Q 17.1875 0 13.234375 3.875 
Q 9.28125 7.765625 9.28125 18.015625 
L 9.28125 47.703125 
L 2.6875 47.703125 
L 2.6875 54.6875 
L 9.28125 54.6875 
L 9.28125 70.21875 
z
" id="DejaVuSans-116"/>
      <path d="M 9.421875 54.6875 
L 18.40625 54.6875 
L 18.40625 0 
L 9.421875 0 
z
M 9.421875 75.984375 
L 18.40625 75.984375 
L 18.40625 64.59375 
L 9.421875 64.59375 
z
" id="DejaVuSans-105"/>
      <path d="M 48.78125 52.59375 
L 48.78125 44.1875 
Q 44.96875 46.296875 41.140625 47.34375 
Q 37.3125 48.390625 33.40625 48.390625 
Q 24.65625 48.390625 19.8125 42.84375 
Q 14.984375 37.3125 14.984375 27.296875 
Q 14.984375 17.28125 19.8125 11.734375 
Q 24.65625 6.203125 33.40625 6.203125 
Q 37.3125 6.203125 41.140625 7.25 
Q 44.96875 8.296875 48.78125 10.40625 
L 48.78125 2.09375 
Q 45.015625 0.34375 40.984375 -0.53125 
Q 36.96875 -1.421875 32.421875 -1.421875 
Q 20.0625 -1.421875 12.78125 6.34375 
Q 5.515625 14.109375 5.515625 27.296875 
Q 5.515625 40.671875 12.859375 48.328125 
Q 20.21875 56 33.015625 56 
Q 37.15625 56 41.109375 55.140625 
Q 45.0625 54.296875 48.78125 52.59375 
z
" id="DejaVuSans-99"/>
      <path d="M 34.28125 27.484375 
Q 23.390625 27.484375 19.1875 25 
Q 14.984375 22.515625 14.984375 16.5 
Q 14.984375 11.71875 18.140625 8.90625 
Q 21.296875 6.109375 26.703125 6.109375 
Q 34.1875 6.109375 38.703125 11.40625 
Q 43.21875 16.703125 43.21875 25.484375 
L 43.21875 27.484375 
z
M 52.203125 31.203125 
L 52.203125 0 
L 43.21875 0 
L 43.21875 8.296875 
Q 40.140625 3.328125 35.546875 0.953125 
Q 30.953125 -1.421875 24.3125 -1.421875 
Q 15.921875 -1.421875 10.953125 3.296875 
Q 6 8.015625 6 15.921875 
Q 6 25.140625 12.171875 29.828125 
Q 18.359375 34.515625 30.609375 34.515625 
L 43.21875 34.515625 
L 43.21875 35.40625 
Q 43.21875 41.609375 39.140625 45 
Q 35.0625 48.390625 27.6875 48.390625 
Q 23 48.390625 18.546875 47.265625 
Q 14.109375 46.140625 10.015625 43.890625 
L 10.015625 52.203125 
Q 14.9375 54.109375 19.578125 55.046875 
Q 24.21875 56 28.609375 56 
Q 40.484375 56 46.34375 49.84375 
Q 52.203125 43.703125 52.203125 31.203125 
z
" id="DejaVuSans-97"/>
      <path d="M 9.421875 75.984375 
L 18.40625 75.984375 
L 18.40625 0 
L 9.421875 0 
z
" id="DejaVuSans-108"/>
      <path id="DejaVuSans-32"/>
      <path d="M 39.40625 66.21875 
Q 28.65625 66.21875 22.328125 58.203125 
Q 16.015625 50.203125 16.015625 36.375 
Q 16.015625 22.609375 22.328125 14.59375 
Q 28.65625 6.59375 39.40625 6.59375 
Q 50.140625 6.59375 56.421875 14.59375 
Q 62.703125 22.609375 62.703125 36.375 
Q 62.703125 50.203125 56.421875 58.203125 
Q 50.140625 66.21875 39.40625 66.21875 
z
M 53.21875 1.3125 
L 66.21875 -12.890625 
L 54.296875 -12.890625 
L 43.5 -1.21875 
Q 41.890625 -1.3125 41.03125 -1.359375 
Q 40.1875 -1.421875 39.40625 -1.421875 
Q 24.03125 -1.421875 14.8125 8.859375 
Q 5.609375 19.140625 5.609375 36.375 
Q 5.609375 53.65625 14.8125 63.9375 
Q 24.03125 74.21875 39.40625 74.21875 
Q 54.734375 74.21875 63.90625 63.9375 
Q 73.09375 53.65625 73.09375 36.375 
Q 73.09375 23.6875 67.984375 14.640625 
Q 62.890625 5.609375 53.21875 1.3125 
z
" id="DejaVuSans-81"/>
      <path d="M 8.5 21.578125 
L 8.5 54.6875 
L 17.484375 54.6875 
L 17.484375 21.921875 
Q 17.484375 14.15625 20.5 10.265625 
Q 23.53125 6.390625 29.59375 6.390625 
Q 36.859375 6.390625 41.078125 11.03125 
Q 45.3125 15.671875 45.3125 23.6875 
L 45.3125 54.6875 
L 54.296875 54.6875 
L 54.296875 0 
L 45.3125 0 
L 45.3125 8.40625 
Q 42.046875 3.421875 37.71875 1 
Q 33.40625 -1.421875 27.6875 -1.421875 
Q 18.265625 -1.421875 13.375 4.4375 
Q 8.5 10.296875 8.5 21.578125 
z
M 31.109375 56 
z
" id="DejaVuSans-117"/>
      <path d="M 54.890625 33.015625 
L 54.890625 0 
L 45.90625 0 
L 45.90625 32.71875 
Q 45.90625 40.484375 42.875 44.328125 
Q 39.84375 48.1875 33.796875 48.1875 
Q 26.515625 48.1875 22.3125 43.546875 
Q 18.109375 38.921875 18.109375 30.90625 
L 18.109375 0 
L 9.078125 0 
L 9.078125 54.6875 
L 18.109375 54.6875 
L 18.109375 46.1875 
Q 21.34375 51.125 25.703125 53.5625 
Q 30.078125 56 35.796875 56 
Q 45.21875 56 50.046875 50.171875 
Q 54.890625 44.34375 54.890625 33.015625 
z
" id="DejaVuSans-110"/>
     </defs>
     <g transform="translate(194.498437 451.931562)scale(0.2 -0.2)">
      <use xlink:href="#DejaVuSans-84"/>
      <use x="61.083984" xlink:href="#DejaVuSans-104"/>
      <use x="124.462891" xlink:href="#DejaVuSans-101"/>
      <use x="185.986328" xlink:href="#DejaVuSans-111"/>
      <use x="247.167969" xlink:href="#DejaVuSans-114"/>
      <use x="288.25" xlink:href="#DejaVuSans-101"/>
      <use x="349.773438" xlink:href="#DejaVuSans-116"/>
      <use x="388.982422" xlink:href="#DejaVuSans-105"/>
      <use x="416.765625" xlink:href="#DejaVuSans-99"/>
      <use x="471.746094" xlink:href="#DejaVuSans-97"/>
      <use x="533.025391" xlink:href="#DejaVuSans-108"/>
      <use x="560.808594" xlink:href="#DejaVuSans-32"/>
      <use x="592.595703" xlink:href="#DejaVuSans-81"/>
      <use x="671.306641" xlink:href="#DejaVuSans-117"/>
      <use x="734.685547" xlink:href="#DejaVuSans-97"/>
      <use x="795.964844" xlink:href="#DejaVuSans-110"/>
      <use x="859.34375" xlink:href="#DejaVuSans-116"/>
      <use x="898.552734" xlink:href="#DejaVuSans-105"/>
      <use x="926.335938" xlink:href="#DejaVuSans-108"/>
      <use x="954.119141" xlink:href="#DejaVuSans-101"/>
     </g>
    </g>
   </g>
   <g id="matplotlib.axis_2">
    <g id="ytick_1">
     <g id="line2d_8">
      <defs>
       <path d="M 0 0 
L -7 0 
" id="m9a2e327a34" style="stroke:#000000;stroke-width:2.5;"/>
      </defs>
      <g>
       <use style="stroke:#000000;stroke-width:2.5;" x="72.8625" xlink:href="#m9a2e327a34" y="402.878437"/>
      </g>
     </g>
     <g id="text_8">
      <!-- 0.0 -->
      <g transform="translate(30.55625 410.476875)scale(0.2 -0.2)">
       <use xlink:href="#DejaVuSans-48"/>
       <use x="63.623047" xlink:href="#DejaVuSans-46"/>
       <use x="95.410156" xlink:href="#DejaVuSans-48"/>
      </g>
     </g>
    </g>
    <g id="ytick_2">
     <g id="line2d_9">
      <g>
       <use style="stroke:#000000;stroke-width:2.5;" x="72.8625" xlink:href="#m9a2e327a34" y="325.262437"/>
      </g>
     </g>
     <g id="text_9">
      <!-- 0.2 -->
      <g transform="translate(30.55625 332.860875)scale(0.2 -0.2)">
       <use xlink:href="#DejaVuSans-48"/>
       <use x="63.623047" xlink:href="#DejaVuSans-46"/>
       <use x="95.410156" xlink:href="#DejaVuSans-50"/>
      </g>
     </g>
    </g>
    <g id="ytick_3">
     <g id="line2d_10">
      <g>
       <use style="stroke:#000000;stroke-width:2.5;" x="72.8625" xlink:href="#m9a2e327a34" y="247.646437"/>
      </g>
     </g>
     <g id="text_10">
      <!-- 0.4 -->
      <g transform="translate(30.55625 255.244875)scale(0.2 -0.2)">
       <use xlink:href="#DejaVuSans-48"/>
       <use x="63.623047" xlink:href="#DejaVuSans-46"/>
       <use x="95.410156" xlink:href="#DejaVuSans-52"/>
      </g>
     </g>
    </g>
    <g id="ytick_4">
     <g id="line2d_11">
      <g>
       <use style="stroke:#000000;stroke-width:2.5;" x="72.8625" xlink:href="#m9a2e327a34" y="170.030437"/>
      </g>
     </g>
     <g id="text_11">
      <!-- 0.6 -->
      <g transform="translate(30.55625 177.628875)scale(0.2 -0.2)">
       <use xlink:href="#DejaVuSans-48"/>
       <use x="63.623047" xlink:href="#DejaVuSans-46"/>
       <use x="95.410156" xlink:href="#DejaVuSans-54"/>
      </g>
     </g>
    </g>
    <g id="ytick_5">
     <g id="line2d_12">
      <g>
       <use style="stroke:#000000;stroke-width:2.5;" x="72.8625" xlink:href="#m9a2e327a34" y="92.414437"/>
      </g>
     </g>
     <g id="text_12">
      <!-- 0.8 -->
      <g transform="translate(30.55625 100.012875)scale(0.2 -0.2)">
       <use xlink:href="#DejaVuSans-48"/>
       <use x="63.623047" xlink:href="#DejaVuSans-46"/>
       <use x="95.410156" xlink:href="#DejaVuSans-56"/>
      </g>
     </g>
    </g>
    <g id="ytick_6">
     <g id="line2d_13">
      <g>
       <use style="stroke:#000000;stroke-width:2.5;" x="72.8625" xlink:href="#m9a2e327a34" y="14.798437"/>
      </g>
     </g>
     <g id="text_13">
      <!-- 1.0 -->
      <g transform="translate(30.55625 22.396875)scale(0.2 -0.2)">
       <use xlink:href="#DejaVuSans-49"/>
       <use x="63.623047" xlink:href="#DejaVuSans-46"/>
       <use x="95.410156" xlink:href="#DejaVuSans-48"/>
      </g>
     </g>
    </g>
    <g id="text_14">
     <!-- Observed Quantile -->
     <defs>
      <path d="M 39.40625 66.21875 
Q 28.65625 66.21875 22.328125 58.203125 
Q 16.015625 50.203125 16.015625 36.375 
Q 16.015625 22.609375 22.328125 14.59375 
Q 28.65625 6.59375 39.40625 6.59375 
Q 50.140625 6.59375 56.421875 14.59375 
Q 62.703125 22.609375 62.703125 36.375 
Q 62.703125 50.203125 56.421875 58.203125 
Q 50.140625 66.21875 39.40625 66.21875 
z
M 39.40625 74.21875 
Q 54.734375 74.21875 63.90625 63.9375 
Q 73.09375 53.65625 73.09375 36.375 
Q 73.09375 19.140625 63.90625 8.859375 
Q 54.734375 -1.421875 39.40625 -1.421875 
Q 24.03125 -1.421875 14.8125 8.828125 
Q 5.609375 19.09375 5.609375 36.375 
Q 5.609375 53.65625 14.8125 63.9375 
Q 24.03125 74.21875 39.40625 74.21875 
z
" id="DejaVuSans-79"/>
      <path d="M 48.6875 27.296875 
Q 48.6875 37.203125 44.609375 42.84375 
Q 40.53125 48.484375 33.40625 48.484375 
Q 26.265625 48.484375 22.1875 42.84375 
Q 18.109375 37.203125 18.109375 27.296875 
Q 18.109375 17.390625 22.1875 11.75 
Q 26.265625 6.109375 33.40625 6.109375 
Q 40.53125 6.109375 44.609375 11.75 
Q 48.6875 17.390625 48.6875 27.296875 
z
M 18.109375 46.390625 
Q 20.953125 51.265625 25.265625 53.625 
Q 29.59375 56 35.59375 56 
Q 45.5625 56 51.78125 48.09375 
Q 58.015625 40.1875 58.015625 27.296875 
Q 58.015625 14.40625 51.78125 6.484375 
Q 45.5625 -1.421875 35.59375 -1.421875 
Q 29.59375 -1.421875 25.265625 0.953125 
Q 20.953125 3.328125 18.109375 8.203125 
L 18.109375 0 
L 9.078125 0 
L 9.078125 75.984375 
L 18.109375 75.984375 
z
" id="DejaVuSans-98"/>
      <path d="M 44.28125 53.078125 
L 44.28125 44.578125 
Q 40.484375 46.53125 36.375 47.5 
Q 32.28125 48.484375 27.875 48.484375 
Q 21.1875 48.484375 17.84375 46.4375 
Q 14.5 44.390625 14.5 40.28125 
Q 14.5 37.15625 16.890625 35.375 
Q 19.28125 33.59375 26.515625 31.984375 
L 29.59375 31.296875 
Q 39.15625 29.25 43.1875 25.515625 
Q 47.21875 21.78125 47.21875 15.09375 
Q 47.21875 7.46875 41.1875 3.015625 
Q 35.15625 -1.421875 24.609375 -1.421875 
Q 20.21875 -1.421875 15.453125 -0.5625 
Q 10.6875 0.296875 5.421875 2 
L 5.421875 11.28125 
Q 10.40625 8.6875 15.234375 7.390625 
Q 20.0625 6.109375 24.8125 6.109375 
Q 31.15625 6.109375 34.5625 8.28125 
Q 37.984375 10.453125 37.984375 14.40625 
Q 37.984375 18.0625 35.515625 20.015625 
Q 33.0625 21.96875 24.703125 23.78125 
L 21.578125 24.515625 
Q 13.234375 26.265625 9.515625 29.90625 
Q 5.8125 33.546875 5.8125 39.890625 
Q 5.8125 47.609375 11.28125 51.796875 
Q 16.75 56 26.8125 56 
Q 31.78125 56 36.171875 55.265625 
Q 40.578125 54.546875 44.28125 53.078125 
z
" id="DejaVuSans-115"/>
      <path d="M 2.984375 54.6875 
L 12.5 54.6875 
L 29.59375 8.796875 
L 46.6875 54.6875 
L 56.203125 54.6875 
L 35.6875 0 
L 23.484375 0 
z
" id="DejaVuSans-118"/>
      <path d="M 45.40625 46.390625 
L 45.40625 75.984375 
L 54.390625 75.984375 
L 54.390625 0 
L 45.40625 0 
L 45.40625 8.203125 
Q 42.578125 3.328125 38.25 0.953125 
Q 33.9375 -1.421875 27.875 -1.421875 
Q 17.96875 -1.421875 11.734375 6.484375 
Q 5.515625 14.40625 5.515625 27.296875 
Q 5.515625 40.1875 11.734375 48.09375 
Q 17.96875 56 27.875 56 
Q 33.9375 56 38.25 53.625 
Q 42.578125 51.265625 45.40625 46.390625 
z
M 14.796875 27.296875 
Q 14.796875 17.390625 18.875 11.75 
Q 22.953125 6.109375 30.078125 6.109375 
Q 37.203125 6.109375 41.296875 11.75 
Q 45.40625 17.390625 45.40625 27.296875 
Q 45.40625 37.203125 41.296875 42.84375 
Q 37.203125 48.484375 30.078125 48.484375 
Q 22.953125 48.484375 18.875 42.84375 
Q 14.796875 37.203125 14.796875 27.296875 
z
" id="DejaVuSans-100"/>
     </defs>
     <g transform="translate(22.396875 302.435312)rotate(-90)scale(0.2 -0.2)">
      <use xlink:href="#DejaVuSans-79"/>
      <use x="78.710938" xlink:href="#DejaVuSans-98"/>
      <use x="142.1875" xlink:href="#DejaVuSans-115"/>
      <use x="194.287109" xlink:href="#DejaVuSans-101"/>
      <use x="255.810547" xlink:href="#DejaVuSans-114"/>
      <use x="296.923828" xlink:href="#DejaVuSans-118"/>
      <use x="356.103516" xlink:href="#DejaVuSans-101"/>
      <use x="417.626953" xlink:href="#DejaVuSans-100"/>
      <use x="481.103516" xlink:href="#DejaVuSans-32"/>
      <use x="512.890625" xlink:href="#DejaVuSans-81"/>
      <use x="591.601562" xlink:href="#DejaVuSans-117"/>
      <use x="654.980469" xlink:href="#DejaVuSans-97"/>
      <use x="716.259766" xlink:href="#DejaVuSans-110"/>
      <use x="779.638672" xlink:href="#DejaVuSans-116"/>
      <use x="818.847656" xlink:href="#DejaVuSans-105"/>
      <use x="846.630859" xlink:href="#DejaVuSans-108"/>
      <use x="874.414062" xlink:href="#DejaVuSans-101"/>
     </g>
    </g>
   </g>
   <g id="line2d_14">
    <path clip-path="url(#p9f445ec6ba)" d="M 72.8625 402.878437 
L 77.371591 401.882083 
L 81.880682 396.402135 
L 86.389773 390.922186 
L 90.898864 388.929477 
L 95.407955 386.438592 
L 99.917045 380.958643 
L 104.426136 378.467757 
L 108.935227 373.984163 
L 113.444318 368.504214 
L 117.953409 365.515151 
L 122.4625 362.027911 
L 126.971591 359.537025 
L 131.480682 355.053431 
L 135.989773 351.566191 
L 140.498864 347.580774 
L 145.007955 345.588065 
L 149.517045 341.602648 
L 154.026136 336.620877 
L 158.535227 331.639105 
L 163.044318 328.650042 
L 167.553409 324.166448 
L 172.0625 322.671916 
L 176.571591 319.682853 
L 181.080682 318.188322 
L 185.589773 312.708373 
L 190.098864 310.715665 
L 194.607955 305.733893 
L 199.117045 301.748476 
L 203.626136 298.261236 
L 208.135227 294.773996 
L 212.644318 289.294047 
L 217.153409 285.30863 
L 221.6625 280.326859 
L 226.171591 279.330504 
L 230.680682 275.345087 
L 235.189773 273.850556 
L 239.698864 271.35967 
L 244.207955 268.370607 
L 248.717045 265.381544 
L 253.226136 261.894304 
L 257.735227 256.414355 
L 262.244318 253.425292 
L 266.753409 249.938052 
L 271.2625 245.952635 
L 275.771591 240.970864 
L 280.280682 238.479978 
L 284.789773 235.490915 
L 289.298864 230.509144 
L 293.807955 226.523726 
L 298.317045 222.040132 
L 302.826136 218.054715 
L 307.335227 216.560183 
L 311.844318 212.574766 
L 316.353409 211.080235 
L 320.8625 208.589349 
L 325.371591 202.611223 
L 329.880682 197.629452 
L 334.389773 192.149503 
L 338.898864 190.156794 
L 343.407955 185.6732 
L 347.917045 181.189606 
L 352.426136 179.196897 
L 356.935227 176.207834 
L 361.444318 174.713303 
L 365.953409 172.720594 
L 370.4625 171.226063 
L 374.971591 168.735177 
L 379.480682 165.746114 
L 383.989773 162.757051 
L 388.498864 158.273457 
L 393.007955 157.77528 
L 397.517045 155.782571 
L 402.026136 151.298977 
L 406.535227 148.808091 
L 411.044318 146.317205 
L 415.553409 142.829965 
L 420.0625 139.342725 
L 424.571591 136.851839 
L 429.080682 134.859131 
L 433.589773 132.866422 
L 438.098864 130.873713 
L 442.607955 128.382828 
L 447.117045 126.390119 
L 451.626136 122.902879 
L 456.135227 120.91017 
L 460.644318 117.921108 
L 465.153409 113.93569 
L 469.6625 109.452096 
L 474.171591 106.463033 
L 478.680682 105.466679 
L 483.189773 102.975793 
L 487.698864 99.488553 
L 492.207955 96.001313 
L 496.717045 94.008604 
L 501.226136 91.517719 
L 505.735227 87.034124 
L 510.244318 82.052353 
L 514.753409 70.594278 
L 519.2625 14.798437 
" style="fill:none;stroke:#1f77b4;stroke-linecap:square;stroke-opacity:0.8;stroke-width:2;"/>
   </g>
   <g id="patch_3">
    <path d="M 72.8625 402.878437 
L 72.8625 14.798437 
" style="fill:none;stroke:#000000;stroke-linecap:square;stroke-linejoin:miter;stroke-width:2.5;"/>
   </g>
   <g id="patch_4">
    <path d="M 519.2625 402.878437 
L 519.2625 14.798437 
" style="fill:none;stroke:#000000;stroke-linecap:square;stroke-linejoin:miter;stroke-width:2.5;"/>
   </g>
   <g id="patch_5">
    <path d="M 72.8625 402.878437 
L 519.2625 402.878437 
" style="fill:none;stroke:#000000;stroke-linecap:square;stroke-linejoin:miter;stroke-width:2.5;"/>
   </g>
   <g id="patch_6">
    <path d="M 72.8625 14.798437 
L 519.2625 14.798437 
" style="fill:none;stroke:#000000;stroke-linecap:square;stroke-linejoin:miter;stroke-width:2.5;"/>
   </g>
   <g id="legend_1">
    <g id="line2d_15">
     <path d="M 90.8625 40.995312 
L 130.8625 40.995312 
" style="fill:none;stroke:#1f77b4;stroke-linecap:square;stroke-opacity:0.8;stroke-width:2;"/>
    </g>
    <g id="line2d_16"/>
    <g id="text_15">
     <!-- std -->
     <g transform="translate(146.8625 47.995312)scale(0.2 -0.2)">
      <use xlink:href="#DejaVuSans-115"/>
      <use x="52.099609" xlink:href="#DejaVuSans-116"/>
      <use x="91.308594" xlink:href="#DejaVuSans-100"/>
     </g>
    </g>
    <g id="line2d_17">
     <path d="M 90.8625 70.351562 
L 130.8625 70.351562 
" style="fill:none;stroke:#000000;stroke-dasharray:5.55,2.4;stroke-dashoffset:0;stroke-opacity:0.5;stroke-width:1.5;"/>
    </g>
    <g id="line2d_18"/>
    <g id="text_16">
     <!-- ideal -->
     <g transform="translate(146.8625 77.351562)scale(0.2 -0.2)">
      <use xlink:href="#DejaVuSans-105"/>
      <use x="27.783203" xlink:href="#DejaVuSans-100"/>
      <use x="91.259766" xlink:href="#DejaVuSans-101"/>
      <use x="152.783203" xlink:href="#DejaVuSans-97"/>
      <use x="214.0625" xlink:href="#DejaVuSans-108"/>
     </g>
    </g>
   </g>
   <g id="legend_2">
    <g id="line2d_19">
     <path d="M 189.95 373.719062 
L 229.95 373.719062 
" style="fill:none;stroke:#1f77b4;stroke-linecap:square;stroke-opacity:0.8;stroke-width:2;"/>
    </g>
    <g id="line2d_20"/>
    <g id="text_17">
     <!-- Miscalibration area: -0.06 -->
     <defs>
      <path d="M 9.8125 72.90625 
L 24.515625 72.90625 
L 43.109375 23.296875 
L 61.8125 72.90625 
L 76.515625 72.90625 
L 76.515625 0 
L 66.890625 0 
L 66.890625 64.015625 
L 48.09375 14.015625 
L 38.1875 14.015625 
L 19.390625 64.015625 
L 19.390625 0 
L 9.8125 0 
z
" id="DejaVuSans-77"/>
      <path d="M 11.71875 12.40625 
L 22.015625 12.40625 
L 22.015625 0 
L 11.71875 0 
z
M 11.71875 51.703125 
L 22.015625 51.703125 
L 22.015625 39.3125 
L 11.71875 39.3125 
z
" id="DejaVuSans-58"/>
      <path d="M 4.890625 31.390625 
L 31.203125 31.390625 
L 31.203125 23.390625 
L 4.890625 23.390625 
z
" id="DejaVuSans-45"/>
     </defs>
     <g transform="translate(245.95 380.719062)scale(0.2 -0.2)">
      <use xlink:href="#DejaVuSans-77"/>
      <use x="86.279297" xlink:href="#DejaVuSans-105"/>
      <use x="114.0625" xlink:href="#DejaVuSans-115"/>
      <use x="166.162109" xlink:href="#DejaVuSans-99"/>
      <use x="221.142578" xlink:href="#DejaVuSans-97"/>
      <use x="282.421875" xlink:href="#DejaVuSans-108"/>
      <use x="310.205078" xlink:href="#DejaVuSans-105"/>
      <use x="337.988281" xlink:href="#DejaVuSans-98"/>
      <use x="401.464844" xlink:href="#DejaVuSans-114"/>
      <use x="442.578125" xlink:href="#DejaVuSans-97"/>
      <use x="503.857422" xlink:href="#DejaVuSans-116"/>
      <use x="543.066406" xlink:href="#DejaVuSans-105"/>
      <use x="570.849609" xlink:href="#DejaVuSans-111"/>
      <use x="632.03125" xlink:href="#DejaVuSans-110"/>
      <use x="695.410156" xlink:href="#DejaVuSans-32"/>
      <use x="727.197266" xlink:href="#DejaVuSans-97"/>
      <use x="788.476562" xlink:href="#DejaVuSans-114"/>
      <use x="829.558594" xlink:href="#DejaVuSans-101"/>
      <use x="891.082031" xlink:href="#DejaVuSans-97"/>
      <use x="952.361328" xlink:href="#DejaVuSans-58"/>
      <use x="986.052734" xlink:href="#DejaVuSans-32"/>
      <use x="1017.839844" xlink:href="#DejaVuSans-45"/>
      <use x="1053.923828" xlink:href="#DejaVuSans-48"/>
      <use x="1117.546875" xlink:href="#DejaVuSans-46"/>
      <use x="1149.333984" xlink:href="#DejaVuSans-48"/>
      <use x="1212.957031" xlink:href="#DejaVuSans-54"/>
     </g>
    </g>
   </g>
  </g>
 </g>
 <defs>
  <clipPath id="p9f445ec6ba">
   <rect height="388.08" width="446.4" x="72.8625" y="14.798437"/>
  </clipPath>
 </defs>
</svg>
