<?xml version="1.0" encoding="utf-8" standalone="no"?>
<!DOCTYPE svg PUBLIC "-//W3C//DTD SVG 1.1//EN"
  "http://www.w3.org/Graphics/SVG/1.1/DTD/svg11.dtd">
<!-- Created with matplotlib (https://matplotlib.org/) -->
<svg height="300.989344pt" version="1.1" viewBox="0 0 402.374687 300.989344" width="402.374687pt" xmlns="http://www.w3.org/2000/svg" xmlns:xlink="http://www.w3.org/1999/xlink">
 <defs>
  <style type="text/css">
*{stroke-linecap:butt;stroke-linejoin:round;}
  </style>
 </defs>
 <g id="figure_1">
  <g id="patch_1">
   <path d="M 0 300.989344 
L 402.374687 300.989344 
L 402.374687 0 
L 0 0 
z
" style="fill:#ffffff;"/>
  </g>
  <g id="axes_1">
   <g id="patch_2">
    <path d="M 30.103125 277.111219 
L 387.223125 277.111219 
L 387.223125 10.999219 
L 30.103125 10.999219 
z
" style="fill:#ffffff;"/>
   </g>
   <g id="line2d_1">
    <path clip-path="url(#p6fde0bee56)" d="M 30.103125 277.111219 
L 387.223125 10.999219 
" style="fill:none;stroke:#000000;stroke-dasharray:5.55,2.4;stroke-dashoffset:0;stroke-opacity:0.5;stroke-width:1.5;"/>
   </g>
   <g id="PolyCollection_1">
    <path clip-path="url(#p6fde0bee56)" d="M 30.103125 277.111219 
L 30.103125 277.111219 
L 33.710398 276.428004 
L 37.31767 272.670325 
L 40.924943 268.912646 
L 44.532216 267.546217 
L 48.139489 265.838182 
L 51.746761 262.080502 
L 55.354034 260.372467 
L 58.961307 257.298002 
L 62.56858 253.540323 
L 66.175852 251.49068 
L 69.783125 249.099429 
L 73.390398 247.391393 
L 76.99767 244.316929 
L 80.604943 241.925678 
L 84.212216 239.192821 
L 87.819489 237.826392 
L 91.426761 235.093535 
L 95.034034 231.677463 
L 98.641307 228.261391 
L 102.24858 226.211748 
L 105.855852 223.137283 
L 109.463125 222.112461 
L 113.070398 220.062818 
L 116.67767 219.037997 
L 120.284943 215.280318 
L 123.892216 213.913889 
L 127.499489 210.497817 
L 131.106761 207.764959 
L 134.714034 205.373709 
L 138.321307 202.982459 
L 141.92858 199.22478 
L 145.535852 196.491922 
L 149.143125 193.07585 
L 152.750398 192.392636 
L 156.35767 189.659778 
L 159.964943 188.634957 
L 163.572216 186.926921 
L 167.179489 184.877278 
L 170.786761 182.827635 
L 174.394034 180.436384 
L 178.001307 176.678705 
L 181.60858 174.629062 
L 185.215852 172.237812 
L 188.823125 169.504954 
L 192.430398 166.088882 
L 196.03767 164.380846 
L 199.644943 162.331203 
L 203.252216 158.915131 
L 206.859489 156.182274 
L 210.466761 153.107809 
L 214.074034 150.374952 
L 217.681307 149.35013 
L 221.28858 146.617273 
L 224.895852 145.592451 
L 228.503125 143.884415 
L 232.110398 139.785129 
L 235.71767 136.369057 
L 239.324943 132.611378 
L 242.932216 131.244949 
L 246.539489 128.170484 
L 250.146761 125.09602 
L 253.754034 123.729591 
L 257.361307 121.679948 
L 260.96858 120.655126 
L 264.575852 119.288698 
L 268.183125 118.263876 
L 271.790398 116.55584 
L 275.39767 114.506197 
L 279.004943 112.456554 
L 282.612216 109.382089 
L 286.219489 109.040482 
L 289.826761 107.674053 
L 293.434034 104.599588 
L 297.041307 102.891553 
L 300.64858 101.183517 
L 304.255852 98.792266 
L 307.863125 96.401016 
L 311.470398 94.69298 
L 315.07767 93.326551 
L 318.684943 91.960122 
L 322.292216 90.593694 
L 325.899489 88.885658 
L 329.506761 87.519229 
L 333.114034 85.127979 
L 336.721307 83.76155 
L 340.32858 81.711907 
L 343.935852 78.979049 
L 347.543125 75.904585 
L 351.150398 73.854941 
L 354.75767 73.171727 
L 358.364943 71.463691 
L 361.972216 69.072441 
L 365.579489 66.681191 
L 369.186761 65.314762 
L 372.794034 63.606726 
L 376.401307 60.532261 
L 380.00858 57.116189 
L 383.615852 49.259224 
L 387.223125 10.999219 
L 387.223125 10.999219 
L 387.223125 10.999219 
L 383.615852 13.687219 
L 380.00858 16.375219 
L 376.401307 19.063219 
L 372.794034 21.751219 
L 369.186761 24.439219 
L 365.579489 27.127219 
L 361.972216 29.815219 
L 358.364943 32.503219 
L 354.75767 35.191219 
L 351.150398 37.879219 
L 347.543125 40.567219 
L 343.935852 43.255219 
L 340.32858 45.943219 
L 336.721307 48.631219 
L 333.114034 51.319219 
L 329.506761 54.007219 
L 325.899489 56.695219 
L 322.292216 59.383219 
L 318.684943 62.071219 
L 315.07767 64.759219 
L 311.470398 67.447219 
L 307.863125 70.135219 
L 304.255852 72.823219 
L 300.64858 75.511219 
L 297.041307 78.199219 
L 293.434034 80.887219 
L 289.826761 83.575219 
L 286.219489 86.263219 
L 282.612216 88.951219 
L 279.004943 91.639219 
L 275.39767 94.327219 
L 271.790398 97.015219 
L 268.183125 99.703219 
L 264.575852 102.391219 
L 260.96858 105.079219 
L 257.361307 107.767219 
L 253.754034 110.455219 
L 250.146761 113.143219 
L 246.539489 115.831219 
L 242.932216 118.519219 
L 239.324943 121.207219 
L 235.71767 123.895219 
L 232.110398 126.583219 
L 228.503125 129.271219 
L 224.895852 131.959219 
L 221.28858 134.647219 
L 217.681307 137.335219 
L 214.074034 140.023219 
L 210.466761 142.711219 
L 206.859489 145.399219 
L 203.252216 148.087219 
L 199.644943 150.775219 
L 196.03767 153.463219 
L 192.430398 156.151219 
L 188.823125 158.839219 
L 185.215852 161.527219 
L 181.60858 164.215219 
L 178.001307 166.903219 
L 174.394034 169.591219 
L 170.786761 172.279219 
L 167.179489 174.967219 
L 163.572216 177.655219 
L 159.964943 180.343219 
L 156.35767 183.031219 
L 152.750398 185.719219 
L 149.143125 188.407219 
L 145.535852 191.095219 
L 141.92858 193.783219 
L 138.321307 196.471219 
L 134.714034 199.159219 
L 131.106761 201.847219 
L 127.499489 204.535219 
L 123.892216 207.223219 
L 120.284943 209.911219 
L 116.67767 212.599219 
L 113.070398 215.287219 
L 109.463125 217.975219 
L 105.855852 220.663219 
L 102.24858 223.351219 
L 98.641307 226.039219 
L 95.034034 228.727219 
L 91.426761 231.415219 
L 87.819489 234.103219 
L 84.212216 236.791219 
L 80.604943 239.479219 
L 76.99767 242.167219 
L 73.390398 244.855219 
L 69.783125 247.543219 
L 66.175852 250.231219 
L 62.56858 252.919219 
L 58.961307 255.607219 
L 55.354034 258.295219 
L 51.746761 260.983219 
L 48.139489 263.671219 
L 44.532216 266.359219 
L 40.924943 269.047219 
L 37.31767 271.735219 
L 33.710398 274.423219 
L 30.103125 277.111219 
z
" style="fill:#1f77b4;fill-opacity:0.2;"/>
   </g>
   <g id="PolyCollection_2">
    <path clip-path="url(#p6fde0bee56)" d="M 30.103125 277.111219 
L 30.103125 277.111219 
L 33.710398 273.695147 
L 37.31767 268.912646 
L 40.924943 266.863003 
L 44.532216 262.080502 
L 48.139489 258.664431 
L 51.746761 253.540323 
L 55.354034 250.807465 
L 58.961307 247.733001 
L 62.56858 242.608893 
L 66.175852 239.192821 
L 69.783125 235.776749 
L 73.390398 232.01907 
L 76.99767 227.578176 
L 80.604943 224.162105 
L 84.212216 221.770854 
L 87.819489 219.037997 
L 91.426761 214.93871 
L 95.034034 211.522639 
L 98.641307 207.081745 
L 102.24858 203.324066 
L 105.855852 198.883173 
L 109.463125 194.783886 
L 113.070398 192.392636 
L 116.67767 189.318171 
L 120.284943 187.268528 
L 123.892216 184.535671 
L 127.499489 181.461206 
L 131.106761 177.36192 
L 134.714034 173.945848 
L 138.321307 170.871383 
L 141.92858 166.088882 
L 145.535852 164.039239 
L 149.143125 160.623167 
L 152.750398 156.182274 
L 156.35767 152.766202 
L 159.964943 150.033345 
L 163.572216 146.617273 
L 167.179489 145.592451 
L 170.786761 142.517986 
L 174.394034 136.710664 
L 178.001307 132.611378 
L 181.60858 130.220128 
L 185.215852 126.804056 
L 188.823125 124.412805 
L 192.430398 121.679948 
L 196.03767 120.655126 
L 199.644943 119.288698 
L 203.252216 117.239054 
L 206.859489 115.872626 
L 210.466761 113.481375 
L 214.074034 109.723696 
L 217.681307 109.040482 
L 221.28858 107.674053 
L 224.895852 104.599588 
L 228.503125 102.891553 
L 232.110398 100.841909 
L 235.71767 97.767445 
L 239.324943 95.717802 
L 242.932216 94.69298 
L 246.539489 93.326551 
L 250.146761 91.960122 
L 253.754034 90.593694 
L 257.361307 88.885658 
L 260.96858 87.519229 
L 264.575852 85.811193 
L 268.183125 84.786372 
L 271.790398 83.419943 
L 275.39767 81.711907 
L 279.004943 78.979049 
L 282.612216 77.612621 
L 286.219489 75.562977 
L 289.826761 73.854941 
L 293.434034 73.513334 
L 297.041307 72.146906 
L 300.64858 71.122084 
L 304.255852 69.414048 
L 307.863125 68.389226 
L 311.470398 67.022798 
L 315.07767 65.997976 
L 318.684943 65.314762 
L 322.292216 64.631547 
L 325.899489 63.606726 
L 329.506761 61.89869 
L 333.114034 60.532261 
L 336.721307 59.849047 
L 340.32858 58.141011 
L 343.935852 57.116189 
L 347.543125 56.091368 
L 351.150398 53.016903 
L 354.75767 50.284045 
L 358.364943 48.234402 
L 361.972216 45.843152 
L 365.579489 42.768687 
L 369.186761 41.060651 
L 372.794034 40.377437 
L 376.401307 35.936544 
L 380.00858 31.49565 
L 383.615852 27.396364 
L 387.223125 10.999219 
L 387.223125 10.999219 
L 387.223125 10.999219 
L 383.615852 13.687219 
L 380.00858 16.375219 
L 376.401307 19.063219 
L 372.794034 21.751219 
L 369.186761 24.439219 
L 365.579489 27.127219 
L 361.972216 29.815219 
L 358.364943 32.503219 
L 354.75767 35.191219 
L 351.150398 37.879219 
L 347.543125 40.567219 
L 343.935852 43.255219 
L 340.32858 45.943219 
L 336.721307 48.631219 
L 333.114034 51.319219 
L 329.506761 54.007219 
L 325.899489 56.695219 
L 322.292216 59.383219 
L 318.684943 62.071219 
L 315.07767 64.759219 
L 311.470398 67.447219 
L 307.863125 70.135219 
L 304.255852 72.823219 
L 300.64858 75.511219 
L 297.041307 78.199219 
L 293.434034 80.887219 
L 289.826761 83.575219 
L 286.219489 86.263219 
L 282.612216 88.951219 
L 279.004943 91.639219 
L 275.39767 94.327219 
L 271.790398 97.015219 
L 268.183125 99.703219 
L 264.575852 102.391219 
L 260.96858 105.079219 
L 257.361307 107.767219 
L 253.754034 110.455219 
L 250.146761 113.143219 
L 246.539489 115.831219 
L 242.932216 118.519219 
L 239.324943 121.207219 
L 235.71767 123.895219 
L 232.110398 126.583219 
L 228.503125 129.271219 
L 224.895852 131.959219 
L 221.28858 134.647219 
L 217.681307 137.335219 
L 214.074034 140.023219 
L 210.466761 142.711219 
L 206.859489 145.399219 
L 203.252216 148.087219 
L 199.644943 150.775219 
L 196.03767 153.463219 
L 192.430398 156.151219 
L 188.823125 158.839219 
L 185.215852 161.527219 
L 181.60858 164.215219 
L 178.001307 166.903219 
L 174.394034 169.591219 
L 170.786761 172.279219 
L 167.179489 174.967219 
L 163.572216 177.655219 
L 159.964943 180.343219 
L 156.35767 183.031219 
L 152.750398 185.719219 
L 149.143125 188.407219 
L 145.535852 191.095219 
L 141.92858 193.783219 
L 138.321307 196.471219 
L 134.714034 199.159219 
L 131.106761 201.847219 
L 127.499489 204.535219 
L 123.892216 207.223219 
L 120.284943 209.911219 
L 116.67767 212.599219 
L 113.070398 215.287219 
L 109.463125 217.975219 
L 105.855852 220.663219 
L 102.24858 223.351219 
L 98.641307 226.039219 
L 95.034034 228.727219 
L 91.426761 231.415219 
L 87.819489 234.103219 
L 84.212216 236.791219 
L 80.604943 239.479219 
L 76.99767 242.167219 
L 73.390398 244.855219 
L 69.783125 247.543219 
L 66.175852 250.231219 
L 62.56858 252.919219 
L 58.961307 255.607219 
L 55.354034 258.295219 
L 51.746761 260.983219 
L 48.139489 263.671219 
L 44.532216 266.359219 
L 40.924943 269.047219 
L 37.31767 271.735219 
L 33.710398 274.423219 
L 30.103125 277.111219 
z
" style="fill:#ff7f0e;fill-opacity:0.2;"/>
   </g>
   <g id="matplotlib.axis_1">
    <g id="xtick_1">
     <g id="line2d_2">
      <defs>
       <path d="M 0 0 
L 0 3.5 
" id="m22f54526b7" style="stroke:#000000;stroke-width:0.8;"/>
      </defs>
      <g>
       <use style="stroke:#000000;stroke-width:0.8;" x="30.103125" xlink:href="#m22f54526b7" y="277.111219"/>
      </g>
     </g>
     <g id="text_1">
      <!-- 0.0 -->
      <defs>
       <path d="M 31.78125 66.40625 
Q 24.171875 66.40625 20.328125 58.90625 
Q 16.5 51.421875 16.5 36.375 
Q 16.5 21.390625 20.328125 13.890625 
Q 24.171875 6.390625 31.78125 6.390625 
Q 39.453125 6.390625 43.28125 13.890625 
Q 47.125 21.390625 47.125 36.375 
Q 47.125 51.421875 43.28125 58.90625 
Q 39.453125 66.40625 31.78125 66.40625 
z
M 31.78125 74.21875 
Q 44.046875 74.21875 50.515625 64.515625 
Q 56.984375 54.828125 56.984375 36.375 
Q 56.984375 17.96875 50.515625 8.265625 
Q 44.046875 -1.421875 31.78125 -1.421875 
Q 19.53125 -1.421875 13.0625 8.265625 
Q 6.59375 17.96875 6.59375 36.375 
Q 6.59375 54.828125 13.0625 64.515625 
Q 19.53125 74.21875 31.78125 74.21875 
z
" id="DejaVuSans-48"/>
       <path d="M 10.6875 12.40625 
L 21 12.40625 
L 21 0 
L 10.6875 0 
z
" id="DejaVuSans-46"/>
      </defs>
      <g transform="translate(22.151563 291.709656)scale(0.1 -0.1)">
       <use xlink:href="#DejaVuSans-48"/>
       <use x="63.623047" xlink:href="#DejaVuSans-46"/>
       <use x="95.410156" xlink:href="#DejaVuSans-48"/>
      </g>
     </g>
    </g>
    <g id="xtick_2">
     <g id="line2d_3">
      <g>
       <use style="stroke:#000000;stroke-width:0.8;" x="101.527125" xlink:href="#m22f54526b7" y="277.111219"/>
      </g>
     </g>
     <g id="text_2">
      <!-- 0.2 -->
      <defs>
       <path d="M 19.1875 8.296875 
L 53.609375 8.296875 
L 53.609375 0 
L 7.328125 0 
L 7.328125 8.296875 
Q 12.9375 14.109375 22.625 23.890625 
Q 32.328125 33.6875 34.8125 36.53125 
Q 39.546875 41.84375 41.421875 45.53125 
Q 43.3125 49.21875 43.3125 52.78125 
Q 43.3125 58.59375 39.234375 62.25 
Q 35.15625 65.921875 28.609375 65.921875 
Q 23.96875 65.921875 18.8125 64.3125 
Q 13.671875 62.703125 7.8125 59.421875 
L 7.8125 69.390625 
Q 13.765625 71.78125 18.9375 73 
Q 24.125 74.21875 28.421875 74.21875 
Q 39.75 74.21875 46.484375 68.546875 
Q 53.21875 62.890625 53.21875 53.421875 
Q 53.21875 48.921875 51.53125 44.890625 
Q 49.859375 40.875 45.40625 35.40625 
Q 44.1875 33.984375 37.640625 27.21875 
Q 31.109375 20.453125 19.1875 8.296875 
z
" id="DejaVuSans-50"/>
      </defs>
      <g transform="translate(93.575563 291.709656)scale(0.1 -0.1)">
       <use xlink:href="#DejaVuSans-48"/>
       <use x="63.623047" xlink:href="#DejaVuSans-46"/>
       <use x="95.410156" xlink:href="#DejaVuSans-50"/>
      </g>
     </g>
    </g>
    <g id="xtick_3">
     <g id="line2d_4">
      <g>
       <use style="stroke:#000000;stroke-width:0.8;" x="172.951125" xlink:href="#m22f54526b7" y="277.111219"/>
      </g>
     </g>
     <g id="text_3">
      <!-- 0.4 -->
      <defs>
       <path d="M 37.796875 64.3125 
L 12.890625 25.390625 
L 37.796875 25.390625 
z
M 35.203125 72.90625 
L 47.609375 72.90625 
L 47.609375 25.390625 
L 58.015625 25.390625 
L 58.015625 17.1875 
L 47.609375 17.1875 
L 47.609375 0 
L 37.796875 0 
L 37.796875 17.1875 
L 4.890625 17.1875 
L 4.890625 26.703125 
z
" id="DejaVuSans-52"/>
      </defs>
      <g transform="translate(164.999563 291.709656)scale(0.1 -0.1)">
       <use xlink:href="#DejaVuSans-48"/>
       <use x="63.623047" xlink:href="#DejaVuSans-46"/>
       <use x="95.410156" xlink:href="#DejaVuSans-52"/>
      </g>
     </g>
    </g>
    <g id="xtick_4">
     <g id="line2d_5">
      <g>
       <use style="stroke:#000000;stroke-width:0.8;" x="244.375125" xlink:href="#m22f54526b7" y="277.111219"/>
      </g>
     </g>
     <g id="text_4">
      <!-- 0.6 -->
      <defs>
       <path d="M 33.015625 40.375 
Q 26.375 40.375 22.484375 35.828125 
Q 18.609375 31.296875 18.609375 23.390625 
Q 18.609375 15.53125 22.484375 10.953125 
Q 26.375 6.390625 33.015625 6.390625 
Q 39.65625 6.390625 43.53125 10.953125 
Q 47.40625 15.53125 47.40625 23.390625 
Q 47.40625 31.296875 43.53125 35.828125 
Q 39.65625 40.375 33.015625 40.375 
z
M 52.59375 71.296875 
L 52.59375 62.3125 
Q 48.875 64.0625 45.09375 64.984375 
Q 41.3125 65.921875 37.59375 65.921875 
Q 27.828125 65.921875 22.671875 59.328125 
Q 17.53125 52.734375 16.796875 39.40625 
Q 19.671875 43.65625 24.015625 45.921875 
Q 28.375 48.1875 33.59375 48.1875 
Q 44.578125 48.1875 50.953125 41.515625 
Q 57.328125 34.859375 57.328125 23.390625 
Q 57.328125 12.15625 50.6875 5.359375 
Q 44.046875 -1.421875 33.015625 -1.421875 
Q 20.359375 -1.421875 13.671875 8.265625 
Q 6.984375 17.96875 6.984375 36.375 
Q 6.984375 53.65625 15.1875 63.9375 
Q 23.390625 74.21875 37.203125 74.21875 
Q 40.921875 74.21875 44.703125 73.484375 
Q 48.484375 72.75 52.59375 71.296875 
z
" id="DejaVuSans-54"/>
      </defs>
      <g transform="translate(236.423563 291.709656)scale(0.1 -0.1)">
       <use xlink:href="#DejaVuSans-48"/>
       <use x="63.623047" xlink:href="#DejaVuSans-46"/>
       <use x="95.410156" xlink:href="#DejaVuSans-54"/>
      </g>
     </g>
    </g>
    <g id="xtick_5">
     <g id="line2d_6">
      <g>
       <use style="stroke:#000000;stroke-width:0.8;" x="315.799125" xlink:href="#m22f54526b7" y="277.111219"/>
      </g>
     </g>
     <g id="text_5">
      <!-- 0.8 -->
      <defs>
       <path d="M 31.78125 34.625 
Q 24.75 34.625 20.71875 30.859375 
Q 16.703125 27.09375 16.703125 20.515625 
Q 16.703125 13.921875 20.71875 10.15625 
Q 24.75 6.390625 31.78125 6.390625 
Q 38.8125 6.390625 42.859375 10.171875 
Q 46.921875 13.96875 46.921875 20.515625 
Q 46.921875 27.09375 42.890625 30.859375 
Q 38.875 34.625 31.78125 34.625 
z
M 21.921875 38.8125 
Q 15.578125 40.375 12.03125 44.71875 
Q 8.5 49.078125 8.5 55.328125 
Q 8.5 64.0625 14.71875 69.140625 
Q 20.953125 74.21875 31.78125 74.21875 
Q 42.671875 74.21875 48.875 69.140625 
Q 55.078125 64.0625 55.078125 55.328125 
Q 55.078125 49.078125 51.53125 44.71875 
Q 48 40.375 41.703125 38.8125 
Q 48.828125 37.15625 52.796875 32.3125 
Q 56.78125 27.484375 56.78125 20.515625 
Q 56.78125 9.90625 50.3125 4.234375 
Q 43.84375 -1.421875 31.78125 -1.421875 
Q 19.734375 -1.421875 13.25 4.234375 
Q 6.78125 9.90625 6.78125 20.515625 
Q 6.78125 27.484375 10.78125 32.3125 
Q 14.796875 37.15625 21.921875 38.8125 
z
M 18.3125 54.390625 
Q 18.3125 48.734375 21.84375 45.5625 
Q 25.390625 42.390625 31.78125 42.390625 
Q 38.140625 42.390625 41.71875 45.5625 
Q 45.3125 48.734375 45.3125 54.390625 
Q 45.3125 60.0625 41.71875 63.234375 
Q 38.140625 66.40625 31.78125 66.40625 
Q 25.390625 66.40625 21.84375 63.234375 
Q 18.3125 60.0625 18.3125 54.390625 
z
" id="DejaVuSans-56"/>
      </defs>
      <g transform="translate(307.847562 291.709656)scale(0.1 -0.1)">
       <use xlink:href="#DejaVuSans-48"/>
       <use x="63.623047" xlink:href="#DejaVuSans-46"/>
       <use x="95.410156" xlink:href="#DejaVuSans-56"/>
      </g>
     </g>
    </g>
    <g id="xtick_6">
     <g id="line2d_7">
      <g>
       <use style="stroke:#000000;stroke-width:0.8;" x="387.223125" xlink:href="#m22f54526b7" y="277.111219"/>
      </g>
     </g>
     <g id="text_6">
      <!-- 1.0 -->
      <defs>
       <path d="M 12.40625 8.296875 
L 28.515625 8.296875 
L 28.515625 63.921875 
L 10.984375 60.40625 
L 10.984375 69.390625 
L 28.421875 72.90625 
L 38.28125 72.90625 
L 38.28125 8.296875 
L 54.390625 8.296875 
L 54.390625 0 
L 12.40625 0 
z
" id="DejaVuSans-49"/>
      </defs>
      <g transform="translate(379.271562 291.709656)scale(0.1 -0.1)">
       <use xlink:href="#DejaVuSans-49"/>
       <use x="63.623047" xlink:href="#DejaVuSans-46"/>
       <use x="95.410156" xlink:href="#DejaVuSans-48"/>
      </g>
     </g>
    </g>
   </g>
   <g id="matplotlib.axis_2">
    <g id="ytick_1">
     <g id="line2d_8">
      <defs>
       <path d="M 0 0 
L -3.5 0 
" id="m96fac0925e" style="stroke:#000000;stroke-width:0.8;"/>
      </defs>
      <g>
       <use style="stroke:#000000;stroke-width:0.8;" x="30.103125" xlink:href="#m96fac0925e" y="277.111219"/>
      </g>
     </g>
     <g id="text_7">
      <!-- 0.0 -->
      <g transform="translate(7.2 280.910437)scale(0.1 -0.1)">
       <use xlink:href="#DejaVuSans-48"/>
       <use x="63.623047" xlink:href="#DejaVuSans-46"/>
       <use x="95.410156" xlink:href="#DejaVuSans-48"/>
      </g>
     </g>
    </g>
    <g id="ytick_2">
     <g id="line2d_9">
      <g>
       <use style="stroke:#000000;stroke-width:0.8;" x="30.103125" xlink:href="#m96fac0925e" y="223.888819"/>
      </g>
     </g>
     <g id="text_8">
      <!-- 0.2 -->
      <g transform="translate(7.2 227.688037)scale(0.1 -0.1)">
       <use xlink:href="#DejaVuSans-48"/>
       <use x="63.623047" xlink:href="#DejaVuSans-46"/>
       <use x="95.410156" xlink:href="#DejaVuSans-50"/>
      </g>
     </g>
    </g>
    <g id="ytick_3">
     <g id="line2d_10">
      <g>
       <use style="stroke:#000000;stroke-width:0.8;" x="30.103125" xlink:href="#m96fac0925e" y="170.666419"/>
      </g>
     </g>
     <g id="text_9">
      <!-- 0.4 -->
      <g transform="translate(7.2 174.465637)scale(0.1 -0.1)">
       <use xlink:href="#DejaVuSans-48"/>
       <use x="63.623047" xlink:href="#DejaVuSans-46"/>
       <use x="95.410156" xlink:href="#DejaVuSans-52"/>
      </g>
     </g>
    </g>
    <g id="ytick_4">
     <g id="line2d_11">
      <g>
       <use style="stroke:#000000;stroke-width:0.8;" x="30.103125" xlink:href="#m96fac0925e" y="117.444019"/>
      </g>
     </g>
     <g id="text_10">
      <!-- 0.6 -->
      <g transform="translate(7.2 121.243237)scale(0.1 -0.1)">
       <use xlink:href="#DejaVuSans-48"/>
       <use x="63.623047" xlink:href="#DejaVuSans-46"/>
       <use x="95.410156" xlink:href="#DejaVuSans-54"/>
      </g>
     </g>
    </g>
    <g id="ytick_5">
     <g id="line2d_12">
      <g>
       <use style="stroke:#000000;stroke-width:0.8;" x="30.103125" xlink:href="#m96fac0925e" y="64.221619"/>
      </g>
     </g>
     <g id="text_11">
      <!-- 0.8 -->
      <g transform="translate(7.2 68.020837)scale(0.1 -0.1)">
       <use xlink:href="#DejaVuSans-48"/>
       <use x="63.623047" xlink:href="#DejaVuSans-46"/>
       <use x="95.410156" xlink:href="#DejaVuSans-56"/>
      </g>
     </g>
    </g>
    <g id="ytick_6">
     <g id="line2d_13">
      <g>
       <use style="stroke:#000000;stroke-width:0.8;" x="30.103125" xlink:href="#m96fac0925e" y="10.999219"/>
      </g>
     </g>
     <g id="text_12">
      <!-- 1.0 -->
      <g transform="translate(7.2 14.798437)scale(0.1 -0.1)">
       <use xlink:href="#DejaVuSans-49"/>
       <use x="63.623047" xlink:href="#DejaVuSans-46"/>
       <use x="95.410156" xlink:href="#DejaVuSans-48"/>
      </g>
     </g>
    </g>
   </g>
   <g id="line2d_14">
    <path clip-path="url(#p6fde0bee56)" d="M 30.103125 277.111219 
L 33.710398 276.428004 
L 37.31767 272.670325 
L 40.924943 268.912646 
L 44.532216 267.546217 
L 48.139489 265.838182 
L 51.746761 262.080502 
L 55.354034 260.372467 
L 58.961307 257.298002 
L 62.56858 253.540323 
L 66.175852 251.49068 
L 69.783125 249.099429 
L 73.390398 247.391393 
L 76.99767 244.316929 
L 80.604943 241.925678 
L 84.212216 239.192821 
L 87.819489 237.826392 
L 91.426761 235.093535 
L 95.034034 231.677463 
L 98.641307 228.261391 
L 102.24858 226.211748 
L 105.855852 223.137283 
L 109.463125 222.112461 
L 113.070398 220.062818 
L 116.67767 219.037997 
L 120.284943 215.280318 
L 123.892216 213.913889 
L 127.499489 210.497817 
L 131.106761 207.764959 
L 134.714034 205.373709 
L 138.321307 202.982459 
L 141.92858 199.22478 
L 145.535852 196.491922 
L 149.143125 193.07585 
L 152.750398 192.392636 
L 156.35767 189.659778 
L 159.964943 188.634957 
L 163.572216 186.926921 
L 167.179489 184.877278 
L 170.786761 182.827635 
L 174.394034 180.436384 
L 178.001307 176.678705 
L 181.60858 174.629062 
L 185.215852 172.237812 
L 188.823125 169.504954 
L 192.430398 166.088882 
L 196.03767 164.380846 
L 199.644943 162.331203 
L 203.252216 158.915131 
L 206.859489 156.182274 
L 210.466761 153.107809 
L 214.074034 150.374952 
L 217.681307 149.35013 
L 221.28858 146.617273 
L 224.895852 145.592451 
L 228.503125 143.884415 
L 232.110398 139.785129 
L 235.71767 136.369057 
L 239.324943 132.611378 
L 242.932216 131.244949 
L 246.539489 128.170484 
L 250.146761 125.09602 
L 253.754034 123.729591 
L 257.361307 121.679948 
L 260.96858 120.655126 
L 264.575852 119.288698 
L 268.183125 118.263876 
L 271.790398 116.55584 
L 275.39767 114.506197 
L 279.004943 112.456554 
L 282.612216 109.382089 
L 286.219489 109.040482 
L 289.826761 107.674053 
L 293.434034 104.599588 
L 297.041307 102.891553 
L 300.64858 101.183517 
L 304.255852 98.792266 
L 307.863125 96.401016 
L 311.470398 94.69298 
L 315.07767 93.326551 
L 318.684943 91.960122 
L 322.292216 90.593694 
L 325.899489 88.885658 
L 329.506761 87.519229 
L 333.114034 85.127979 
L 336.721307 83.76155 
L 340.32858 81.711907 
L 343.935852 78.979049 
L 347.543125 75.904585 
L 351.150398 73.854941 
L 354.75767 73.171727 
L 358.364943 71.463691 
L 361.972216 69.072441 
L 365.579489 66.681191 
L 369.186761 65.314762 
L 372.794034 63.606726 
L 376.401307 60.532261 
L 380.00858 57.116189 
L 383.615852 49.259224 
L 387.223125 10.999219 
" style="fill:none;stroke:#1f77b4;stroke-linecap:square;stroke-opacity:0.8;stroke-width:2;"/>
   </g>
   <g id="line2d_15">
    <path clip-path="url(#p6fde0bee56)" d="M 30.103125 277.111219 
L 33.710398 273.695147 
L 37.31767 268.912646 
L 40.924943 266.863003 
L 44.532216 262.080502 
L 48.139489 258.664431 
L 51.746761 253.540323 
L 55.354034 250.807465 
L 58.961307 247.733001 
L 62.56858 242.608893 
L 66.175852 239.192821 
L 69.783125 235.776749 
L 73.390398 232.01907 
L 76.99767 227.578176 
L 80.604943 224.162105 
L 84.212216 221.770854 
L 87.819489 219.037997 
L 91.426761 214.93871 
L 95.034034 211.522639 
L 98.641307 207.081745 
L 102.24858 203.324066 
L 105.855852 198.883173 
L 109.463125 194.783886 
L 113.070398 192.392636 
L 116.67767 189.318171 
L 120.284943 187.268528 
L 123.892216 184.535671 
L 127.499489 181.461206 
L 131.106761 177.36192 
L 134.714034 173.945848 
L 138.321307 170.871383 
L 141.92858 166.088882 
L 145.535852 164.039239 
L 149.143125 160.623167 
L 152.750398 156.182274 
L 156.35767 152.766202 
L 159.964943 150.033345 
L 163.572216 146.617273 
L 167.179489 145.592451 
L 170.786761 142.517986 
L 174.394034 136.710664 
L 178.001307 132.611378 
L 181.60858 130.220128 
L 185.215852 126.804056 
L 188.823125 124.412805 
L 192.430398 121.679948 
L 196.03767 120.655126 
L 199.644943 119.288698 
L 203.252216 117.239054 
L 206.859489 115.872626 
L 210.466761 113.481375 
L 214.074034 109.723696 
L 217.681307 109.040482 
L 221.28858 107.674053 
L 224.895852 104.599588 
L 228.503125 102.891553 
L 232.110398 100.841909 
L 235.71767 97.767445 
L 239.324943 95.717802 
L 242.932216 94.69298 
L 246.539489 93.326551 
L 250.146761 91.960122 
L 253.754034 90.593694 
L 257.361307 88.885658 
L 260.96858 87.519229 
L 264.575852 85.811193 
L 268.183125 84.786372 
L 271.790398 83.419943 
L 275.39767 81.711907 
L 279.004943 78.979049 
L 282.612216 77.612621 
L 286.219489 75.562977 
L 289.826761 73.854941 
L 293.434034 73.513334 
L 297.041307 72.146906 
L 300.64858 71.122084 
L 304.255852 69.414048 
L 307.863125 68.389226 
L 311.470398 67.022798 
L 315.07767 65.997976 
L 318.684943 65.314762 
L 322.292216 64.631547 
L 325.899489 63.606726 
L 329.506761 61.89869 
L 333.114034 60.532261 
L 336.721307 59.849047 
L 340.32858 58.141011 
L 343.935852 57.116189 
L 347.543125 56.091368 
L 351.150398 53.016903 
L 354.75767 50.284045 
L 358.364943 48.234402 
L 361.972216 45.843152 
L 365.579489 42.768687 
L 369.186761 41.060651 
L 372.794034 40.377437 
L 376.401307 35.936544 
L 380.00858 31.49565 
L 383.615852 27.396364 
L 387.223125 10.999219 
" style="fill:none;stroke:#ff7f0e;stroke-linecap:square;stroke-opacity:0.8;stroke-width:2;"/>
   </g>
   <g id="patch_3">
    <path d="M 30.103125 277.111219 
L 30.103125 10.999219 
" style="fill:none;stroke:#000000;stroke-linecap:square;stroke-linejoin:miter;stroke-width:0.8;"/>
   </g>
   <g id="patch_4">
    <path d="M 387.223125 277.111219 
L 387.223125 10.999219 
" style="fill:none;stroke:#000000;stroke-linecap:square;stroke-linejoin:miter;stroke-width:0.8;"/>
   </g>
   <g id="patch_5">
    <path d="M 30.103125 277.111219 
L 387.223125 277.111219 
" style="fill:none;stroke:#000000;stroke-linecap:square;stroke-linejoin:miter;stroke-width:0.8;"/>
   </g>
   <g id="patch_6">
    <path d="M 30.103125 10.999219 
L 387.223125 10.999219 
" style="fill:none;stroke:#000000;stroke-linecap:square;stroke-linejoin:miter;stroke-width:0.8;"/>
   </g>
   <g id="legend_1">
    <g id="patch_7">
     <path d="M 37.103125 63.033594 
L 93.289062 63.033594 
Q 95.289062 63.033594 95.289062 61.033594 
L 95.289062 17.999219 
Q 95.289062 15.999219 93.289062 15.999219 
L 37.103125 15.999219 
Q 35.103125 15.999219 35.103125 17.999219 
L 35.103125 61.033594 
Q 35.103125 63.033594 37.103125 63.033594 
z
" style="fill:#ffffff;opacity:0.8;stroke:#cccccc;stroke-linejoin:miter;"/>
    </g>
    <g id="line2d_16">
     <path d="M 39.103125 24.097656 
L 59.103125 24.097656 
" style="fill:none;stroke:#1f77b4;stroke-linecap:square;stroke-opacity:0.8;stroke-width:2;"/>
    </g>
    <g id="line2d_17"/>
    <g id="text_13">
     <!-- foo -->
     <defs>
      <path d="M 37.109375 75.984375 
L 37.109375 68.5 
L 28.515625 68.5 
Q 23.6875 68.5 21.796875 66.546875 
Q 19.921875 64.59375 19.921875 59.515625 
L 19.921875 54.6875 
L 34.71875 54.6875 
L 34.71875 47.703125 
L 19.921875 47.703125 
L 19.921875 0 
L 10.890625 0 
L 10.890625 47.703125 
L 2.296875 47.703125 
L 2.296875 54.6875 
L 10.890625 54.6875 
L 10.890625 58.5 
Q 10.890625 67.625 15.140625 71.796875 
Q 19.390625 75.984375 28.609375 75.984375 
z
" id="DejaVuSans-102"/>
      <path d="M 30.609375 48.390625 
Q 23.390625 48.390625 19.1875 42.75 
Q 14.984375 37.109375 14.984375 27.296875 
Q 14.984375 17.484375 19.15625 11.84375 
Q 23.34375 6.203125 30.609375 6.203125 
Q 37.796875 6.203125 41.984375 11.859375 
Q 46.1875 17.53125 46.1875 27.296875 
Q 46.1875 37.015625 41.984375 42.703125 
Q 37.796875 48.390625 30.609375 48.390625 
z
M 30.609375 56 
Q 42.328125 56 49.015625 48.375 
Q 55.71875 40.765625 55.71875 27.296875 
Q 55.71875 13.875 49.015625 6.21875 
Q 42.328125 -1.421875 30.609375 -1.421875 
Q 18.84375 -1.421875 12.171875 6.21875 
Q 5.515625 13.875 5.515625 27.296875 
Q 5.515625 40.765625 12.171875 48.375 
Q 18.84375 56 30.609375 56 
z
" id="DejaVuSans-111"/>
     </defs>
     <g transform="translate(67.103125 27.597656)scale(0.1 -0.1)">
      <use xlink:href="#DejaVuSans-102"/>
      <use x="35.205078" xlink:href="#DejaVuSans-111"/>
      <use x="96.386719" xlink:href="#DejaVuSans-111"/>
     </g>
    </g>
    <g id="line2d_18">
     <path d="M 39.103125 38.775781 
L 59.103125 38.775781 
" style="fill:none;stroke:#ff7f0e;stroke-linecap:square;stroke-opacity:0.8;stroke-width:2;"/>
    </g>
    <g id="line2d_19"/>
    <g id="text_14">
     <!-- bar -->
     <defs>
      <path d="M 48.6875 27.296875 
Q 48.6875 37.203125 44.609375 42.84375 
Q 40.53125 48.484375 33.40625 48.484375 
Q 26.265625 48.484375 22.1875 42.84375 
Q 18.109375 37.203125 18.109375 27.296875 
Q 18.109375 17.390625 22.1875 11.75 
Q 26.265625 6.109375 33.40625 6.109375 
Q 40.53125 6.109375 44.609375 11.75 
Q 48.6875 17.390625 48.6875 27.296875 
z
M 18.109375 46.390625 
Q 20.953125 51.265625 25.265625 53.625 
Q 29.59375 56 35.59375 56 
Q 45.5625 56 51.78125 48.09375 
Q 58.015625 40.1875 58.015625 27.296875 
Q 58.015625 14.40625 51.78125 6.484375 
Q 45.5625 -1.421875 35.59375 -1.421875 
Q 29.59375 -1.421875 25.265625 0.953125 
Q 20.953125 3.328125 18.109375 8.203125 
L 18.109375 0 
L 9.078125 0 
L 9.078125 75.984375 
L 18.109375 75.984375 
z
" id="DejaVuSans-98"/>
      <path d="M 34.28125 27.484375 
Q 23.390625 27.484375 19.1875 25 
Q 14.984375 22.515625 14.984375 16.5 
Q 14.984375 11.71875 18.140625 8.90625 
Q 21.296875 6.109375 26.703125 6.109375 
Q 34.1875 6.109375 38.703125 11.40625 
Q 43.21875 16.703125 43.21875 25.484375 
L 43.21875 27.484375 
z
M 52.203125 31.203125 
L 52.203125 0 
L 43.21875 0 
L 43.21875 8.296875 
Q 40.140625 3.328125 35.546875 0.953125 
Q 30.953125 -1.421875 24.3125 -1.421875 
Q 15.921875 -1.421875 10.953125 3.296875 
Q 6 8.015625 6 15.921875 
Q 6 25.140625 12.171875 29.828125 
Q 18.359375 34.515625 30.609375 34.515625 
L 43.21875 34.515625 
L 43.21875 35.40625 
Q 43.21875 41.609375 39.140625 45 
Q 35.0625 48.390625 27.6875 48.390625 
Q 23 48.390625 18.546875 47.265625 
Q 14.109375 46.140625 10.015625 43.890625 
L 10.015625 52.203125 
Q 14.9375 54.109375 19.578125 55.046875 
Q 24.21875 56 28.609375 56 
Q 40.484375 56 46.34375 49.84375 
Q 52.203125 43.703125 52.203125 31.203125 
z
" id="DejaVuSans-97"/>
      <path d="M 41.109375 46.296875 
Q 39.59375 47.171875 37.8125 47.578125 
Q 36.03125 48 33.890625 48 
Q 26.265625 48 22.1875 43.046875 
Q 18.109375 38.09375 18.109375 28.8125 
L 18.109375 0 
L 9.078125 0 
L 9.078125 54.6875 
L 18.109375 54.6875 
L 18.109375 46.1875 
Q 20.953125 51.171875 25.484375 53.578125 
Q 30.03125 56 36.53125 56 
Q 37.453125 56 38.578125 55.875 
Q 39.703125 55.765625 41.0625 55.515625 
z
" id="DejaVuSans-114"/>
     </defs>
     <g transform="translate(67.103125 42.275781)scale(0.1 -0.1)">
      <use xlink:href="#DejaVuSans-98"/>
      <use x="63.476562" xlink:href="#DejaVuSans-97"/>
      <use x="124.755859" xlink:href="#DejaVuSans-114"/>
     </g>
    </g>
    <g id="line2d_20">
     <path d="M 39.103125 53.453906 
L 59.103125 53.453906 
" style="fill:none;stroke:#000000;stroke-dasharray:5.55,2.4;stroke-dashoffset:0;stroke-opacity:0.5;stroke-width:1.5;"/>
    </g>
    <g id="line2d_21"/>
    <g id="text_15">
     <!-- ideal -->
     <defs>
      <path d="M 9.421875 54.6875 
L 18.40625 54.6875 
L 18.40625 0 
L 9.421875 0 
z
M 9.421875 75.984375 
L 18.40625 75.984375 
L 18.40625 64.59375 
L 9.421875 64.59375 
z
" id="DejaVuSans-105"/>
      <path d="M 45.40625 46.390625 
L 45.40625 75.984375 
L 54.390625 75.984375 
L 54.390625 0 
L 45.40625 0 
L 45.40625 8.203125 
Q 42.578125 3.328125 38.25 0.953125 
Q 33.9375 -1.421875 27.875 -1.421875 
Q 17.96875 -1.421875 11.734375 6.484375 
Q 5.515625 14.40625 5.515625 27.296875 
Q 5.515625 40.1875 11.734375 48.09375 
Q 17.96875 56 27.875 56 
Q 33.9375 56 38.25 53.625 
Q 42.578125 51.265625 45.40625 46.390625 
z
M 14.796875 27.296875 
Q 14.796875 17.390625 18.875 11.75 
Q 22.953125 6.109375 30.078125 6.109375 
Q 37.203125 6.109375 41.296875 11.75 
Q 45.40625 17.390625 45.40625 27.296875 
Q 45.40625 37.203125 41.296875 42.84375 
Q 37.203125 48.484375 30.078125 48.484375 
Q 22.953125 48.484375 18.875 42.84375 
Q 14.796875 37.203125 14.796875 27.296875 
z
" id="DejaVuSans-100"/>
      <path d="M 56.203125 29.59375 
L 56.203125 25.203125 
L 14.890625 25.203125 
Q 15.484375 15.921875 20.484375 11.0625 
Q 25.484375 6.203125 34.421875 6.203125 
Q 39.59375 6.203125 44.453125 7.46875 
Q 49.3125 8.734375 54.109375 11.28125 
L 54.109375 2.78125 
Q 49.265625 0.734375 44.1875 -0.34375 
Q 39.109375 -1.421875 33.890625 -1.421875 
Q 20.796875 -1.421875 13.15625 6.1875 
Q 5.515625 13.8125 5.515625 26.8125 
Q 5.515625 40.234375 12.765625 48.109375 
Q 20.015625 56 32.328125 56 
Q 43.359375 56 49.78125 48.890625 
Q 56.203125 41.796875 56.203125 29.59375 
z
M 47.21875 32.234375 
Q 47.125 39.59375 43.09375 43.984375 
Q 39.0625 48.390625 32.421875 48.390625 
Q 24.90625 48.390625 20.390625 44.140625 
Q 15.875 39.890625 15.1875 32.171875 
z
" id="DejaVuSans-101"/>
      <path d="M 9.421875 75.984375 
L 18.40625 75.984375 
L 18.40625 0 
L 9.421875 0 
z
" id="DejaVuSans-108"/>
     </defs>
     <g transform="translate(67.103125 56.953906)scale(0.1 -0.1)">
      <use xlink:href="#DejaVuSans-105"/>
      <use x="27.783203" xlink:href="#DejaVuSans-100"/>
      <use x="91.259766" xlink:href="#DejaVuSans-101"/>
      <use x="152.783203" xlink:href="#DejaVuSans-97"/>
      <use x="214.0625" xlink:href="#DejaVuSans-108"/>
     </g>
    </g>
   </g>
   <g id="legend_2">
    <g id="patch_8">
     <path d="M 252.084063 272.111219 
L 380.223125 272.111219 
Q 382.223125 272.111219 382.223125 270.111219 
L 382.223125 241.754969 
Q 382.223125 239.754969 380.223125 239.754969 
L 252.084063 239.754969 
Q 250.084063 239.754969 250.084063 241.754969 
L 250.084063 270.111219 
Q 250.084063 272.111219 252.084063 272.111219 
z
" style="fill:#ffffff;opacity:0.8;stroke:#cccccc;stroke-linejoin:miter;"/>
    </g>
    <g id="text_16">
     <!-- Miscalibration areas -->
     <defs>
      <path d="M 9.8125 72.90625 
L 24.515625 72.90625 
L 43.109375 23.296875 
L 61.8125 72.90625 
L 76.515625 72.90625 
L 76.515625 0 
L 66.890625 0 
L 66.890625 64.015625 
L 48.09375 14.015625 
L 38.1875 14.015625 
L 19.390625 64.015625 
L 19.390625 0 
L 9.8125 0 
z
" id="DejaVuSans-77"/>
      <path d="M 44.28125 53.078125 
L 44.28125 44.578125 
Q 40.484375 46.53125 36.375 47.5 
Q 32.28125 48.484375 27.875 48.484375 
Q 21.1875 48.484375 17.84375 46.4375 
Q 14.5 44.390625 14.5 40.28125 
Q 14.5 37.15625 16.890625 35.375 
Q 19.28125 33.59375 26.515625 31.984375 
L 29.59375 31.296875 
Q 39.15625 29.25 43.1875 25.515625 
Q 47.21875 21.78125 47.21875 15.09375 
Q 47.21875 7.46875 41.1875 3.015625 
Q 35.15625 -1.421875 24.609375 -1.421875 
Q 20.21875 -1.421875 15.453125 -0.5625 
Q 10.6875 0.296875 5.421875 2 
L 5.421875 11.28125 
Q 10.40625 8.6875 15.234375 7.390625 
Q 20.0625 6.109375 24.8125 6.109375 
Q 31.15625 6.109375 34.5625 8.28125 
Q 37.984375 10.453125 37.984375 14.40625 
Q 37.984375 18.0625 35.515625 20.015625 
Q 33.0625 21.96875 24.703125 23.78125 
L 21.578125 24.515625 
Q 13.234375 26.265625 9.515625 29.90625 
Q 5.8125 33.546875 5.8125 39.890625 
Q 5.8125 47.609375 11.28125 51.796875 
Q 16.75 56 26.8125 56 
Q 31.78125 56 36.171875 55.265625 
Q 40.578125 54.546875 44.28125 53.078125 
z
" id="DejaVuSans-115"/>
      <path d="M 48.78125 52.59375 
L 48.78125 44.1875 
Q 44.96875 46.296875 41.140625 47.34375 
Q 37.3125 48.390625 33.40625 48.390625 
Q 24.65625 48.390625 19.8125 42.84375 
Q 14.984375 37.3125 14.984375 27.296875 
Q 14.984375 17.28125 19.8125 11.734375 
Q 24.65625 6.203125 33.40625 6.203125 
Q 37.3125 6.203125 41.140625 7.25 
Q 44.96875 8.296875 48.78125 10.40625 
L 48.78125 2.09375 
Q 45.015625 0.34375 40.984375 -0.53125 
Q 36.96875 -1.421875 32.421875 -1.421875 
Q 20.0625 -1.421875 12.78125 6.34375 
Q 5.515625 14.109375 5.515625 27.296875 
Q 5.515625 40.671875 12.859375 48.328125 
Q 20.21875 56 33.015625 56 
Q 37.15625 56 41.109375 55.140625 
Q 45.0625 54.296875 48.78125 52.59375 
z
" id="DejaVuSans-99"/>
      <path d="M 18.3125 70.21875 
L 18.3125 54.6875 
L 36.8125 54.6875 
L 36.8125 47.703125 
L 18.3125 47.703125 
L 18.3125 18.015625 
Q 18.3125 11.328125 20.140625 9.421875 
Q 21.96875 7.515625 27.59375 7.515625 
L 36.8125 7.515625 
L 36.8125 0 
L 27.59375 0 
Q 17.1875 0 13.234375 3.875 
Q 9.28125 7.765625 9.28125 18.015625 
L 9.28125 47.703125 
L 2.6875 47.703125 
L 2.6875 54.6875 
L 9.28125 54.6875 
L 9.28125 70.21875 
z
" id="DejaVuSans-116"/>
      <path d="M 54.890625 33.015625 
L 54.890625 0 
L 45.90625 0 
L 45.90625 32.71875 
Q 45.90625 40.484375 42.875 44.328125 
Q 39.84375 48.1875 33.796875 48.1875 
Q 26.515625 48.1875 22.3125 43.546875 
Q 18.109375 38.921875 18.109375 30.90625 
L 18.109375 0 
L 9.078125 0 
L 9.078125 54.6875 
L 18.109375 54.6875 
L 18.109375 46.1875 
Q 21.34375 51.125 25.703125 53.5625 
Q 30.078125 56 35.796875 56 
Q 45.21875 56 50.046875 50.171875 
Q 54.890625 44.34375 54.890625 33.015625 
z
" id="DejaVuSans-110"/>
      <path id="DejaVuSans-32"/>
     </defs>
     <g transform="translate(254.084063 251.353406)scale(0.1 -0.1)">
      <use xlink:href="#DejaVuSans-77"/>
      <use x="86.279297" xlink:href="#DejaVuSans-105"/>
      <use x="114.0625" xlink:href="#DejaVuSans-115"/>
      <use x="166.162109" xlink:href="#DejaVuSans-99"/>
      <use x="221.142578" xlink:href="#DejaVuSans-97"/>
      <use x="282.421875" xlink:href="#DejaVuSans-108"/>
      <use x="310.205078" xlink:href="#DejaVuSans-105"/>
      <use x="337.988281" xlink:href="#DejaVuSans-98"/>
      <use x="401.464844" xlink:href="#DejaVuSans-114"/>
      <use x="442.578125" xlink:href="#DejaVuSans-97"/>
      <use x="503.857422" xlink:href="#DejaVuSans-116"/>
      <use x="543.066406" xlink:href="#DejaVuSans-105"/>
      <use x="570.849609" xlink:href="#DejaVuSans-111"/>
      <use x="632.03125" xlink:href="#DejaVuSans-110"/>
      <use x="695.410156" xlink:href="#DejaVuSans-32"/>
      <use x="727.197266" xlink:href="#DejaVuSans-97"/>
      <use x="788.476562" xlink:href="#DejaVuSans-114"/>
      <use x="829.558594" xlink:href="#DejaVuSans-101"/>
      <use x="891.082031" xlink:href="#DejaVuSans-97"/>
      <use x="952.361328" xlink:href="#DejaVuSans-115"/>
     </g>
    </g>
    <g id="line2d_22">
     <path d="M 254.084063 262.531531 
L 274.084063 262.531531 
" style="fill:none;stroke:#1f77b4;stroke-linecap:square;stroke-opacity:0.8;stroke-width:2;"/>
    </g>
    <g id="line2d_23"/>
    <g id="text_17">
     <!-- -0.06 -->
     <defs>
      <path d="M 4.890625 31.390625 
L 31.203125 31.390625 
L 31.203125 23.390625 
L 4.890625 23.390625 
z
" id="DejaVuSans-45"/>
     </defs>
     <g transform="translate(282.084063 266.031531)scale(0.1 -0.1)">
      <use xlink:href="#DejaVuSans-45"/>
      <use x="36.083984" xlink:href="#DejaVuSans-48"/>
      <use x="99.707031" xlink:href="#DejaVuSans-46"/>
      <use x="131.494141" xlink:href="#DejaVuSans-48"/>
      <use x="195.117188" xlink:href="#DejaVuSans-54"/>
     </g>
    </g>
    <g id="line2d_24">
     <path d="M 327.9575 262.531531 
L 347.9575 262.531531 
" style="fill:none;stroke:#ff7f0e;stroke-linecap:square;stroke-opacity:0.8;stroke-width:2;"/>
    </g>
    <g id="line2d_25"/>
    <g id="text_18">
     <!-- 0.04 -->
     <g transform="translate(355.9575 266.031531)scale(0.1 -0.1)">
      <use xlink:href="#DejaVuSans-48"/>
      <use x="63.623047" xlink:href="#DejaVuSans-46"/>
      <use x="95.410156" xlink:href="#DejaVuSans-48"/>
      <use x="159.033203" xlink:href="#DejaVuSans-52"/>
     </g>
    </g>
   </g>
  </g>
 </g>
 <defs>
  <clipPath id="p6fde0bee56">
   <rect height="266.112" width="357.12" x="30.103125" y="10.999219"/>
  </clipPath>
 </defs>
</svg>
