<svg xmlns="http://www.w3.org/2000/svg" xmlns:xlink="http://www.w3.org/1999/xlink" width="723.154" height="607.641" viewBox="0 0 542.366 455.731"><defs><style>*{stroke-linecap:butt;stroke-linejoin:round}</style></defs><g id="figure_1"><path id="patch_1" fill="none" d="M0 455.73h542.366V0H0z"/><g id="axes_1"><path id="patch_2" fill="#fff" d="M72.862 395.318h446.4V14.798h-446.4z"/><path id="line2d_1" fill="none" stroke="#000" stroke-dasharray="5.55,2.4" stroke-opacity=".5" stroke-width="1.5" d="m72.862 395.318 446.4-380.52" clip-path="url(#p247d8eda56)"/><path id="PolyCollection_1" fill="#1f77b4" fill-opacity=".2" d="m72.862 395.318 4.51-.977 4.509-5.373 4.509-5.373 4.509-1.954 4.509-2.442 4.509-5.373 4.51-2.443 4.508-4.396 4.51-5.373 4.508-2.931 4.51-3.42 4.509-2.442 4.509-4.396 4.509-3.42 4.509-3.907 4.509-1.954 4.509-3.908 4.51-4.884 4.508-4.885 4.51-2.93 4.508-4.397 4.51-1.466 4.509-2.93 4.509-1.466 4.509-5.373 4.509-1.954 4.509-4.885 4.509-3.907 4.51-3.42 4.508-3.42 4.51-5.372 4.508-3.908 4.51-4.885 4.509-.977 4.509-3.907 4.509-1.466 4.509-2.442 4.509-2.931 4.509-2.93 4.51-3.42 4.508-5.373 4.51-2.931 4.508-3.42 4.51-3.907 4.509-4.885 4.509-2.442 4.509-2.931 4.509-4.885 4.509-3.908 4.509-4.396 4.51-3.908 4.508-1.465 4.51-3.908 4.508-1.465 4.51-2.443 4.509-5.861 4.509-4.885 4.509-5.373 4.509-1.954 4.509-4.397 4.509-4.396 4.51-1.954 4.508-2.93 4.51-1.466 4.508-1.954 4.51-1.465 4.509-2.443 4.509-2.93 4.509-2.931 4.509-4.397 4.509-.488 4.509-1.954 4.51-4.396 4.508-2.442 4.51-2.443 4.508-3.42 4.51-3.418 4.509-2.443 4.509-1.954 4.509-1.954 4.509-1.953 4.509-2.443 4.509-1.954 4.51-3.42 4.508-1.953 4.51-2.93 4.508-3.909 4.51-4.396 4.509-2.93 4.509-.978 4.509-2.442 4.509-3.42 4.509-3.419 4.509-1.953 4.51-2.443 4.508-4.396 4.51-4.885 4.508-11.235 4.51-54.709-4.51 3.844-4.509 3.844-4.509 3.843-4.509 3.844-4.509 3.844-4.509 3.843-4.51 3.844-4.508 3.844-4.51 3.843-4.508 3.844-4.51 3.843-4.509 3.844-4.509 3.844-4.509 3.843-4.509 3.844-4.509 3.844-4.509 3.843-4.51 3.844-4.508 3.844-4.51 3.843-4.508 3.844-4.51 3.843-4.509 3.844-4.509 3.844-4.509 3.843-4.509 3.844-4.509 3.844-4.509 3.843-4.51 3.844-4.508 3.844-4.51 3.843-4.508 3.844-4.51 3.843-4.509 3.844-4.509 3.844-4.509 3.843-4.509 3.844-4.509 3.844-4.509 3.843-4.51 3.844-4.508 3.844-4.51 3.843-4.508 3.844-4.51 3.843-4.509 3.844-4.509 3.844-4.509 3.843-4.509 3.844-4.509 3.844-4.509 3.843-4.51 3.844-4.508 3.844-4.51 3.843-4.508 3.844-4.51 3.843-4.509 3.844-4.509 3.844-4.509 3.843-4.509 3.844-4.509 3.844-4.509 3.843-4.51 3.844-4.508 3.844-4.51 3.843-4.508 3.844-4.51 3.843-4.509 3.844-4.509 3.844-4.509 3.843-4.509 3.844-4.509 3.844-4.509 3.843-4.51 3.844-4.508 3.844-4.51 3.843-4.508 3.844-4.51 3.843-4.509 3.844-4.509 3.844-4.509 3.843-4.509 3.844-4.509 3.844-4.509 3.843-4.51 3.844-4.508 3.844-4.51 3.843-4.508 3.844-4.51 3.843-4.509 3.844-4.509 3.844-4.509 3.843-4.509 3.844-4.509 3.844-4.509 3.843-4.51 3.844-4.508 3.844-4.51 3.843-4.508 3.844-4.51 3.843z" clip-path="url(#p247d8eda56)"/><path id="PolyCollection_2" fill="#ff7f0e" fill-opacity=".2" d="m72.862 395.318 4.51-4.884 4.509-6.839 4.509-2.93 4.509-6.84 4.509-4.884 4.509-7.327 4.51-3.908 4.508-4.396 4.51-7.327 4.508-4.885 4.51-4.885 4.509-5.373 4.509-6.35 4.509-4.885 4.509-3.42 4.509-3.907 4.509-5.862 4.51-4.884 4.508-6.35 4.51-5.374 4.508-6.35 4.51-5.861 4.509-3.42 4.509-4.396 4.509-2.93 4.509-3.909 4.509-4.396 4.509-5.862 4.51-4.884 4.508-4.396 4.51-6.84 4.508-2.93 4.51-4.885 4.509-6.35 4.509-4.885 4.509-3.907 4.509-4.885 4.509-1.465 4.509-4.397 4.51-8.304 4.508-5.861 4.51-3.42 4.508-4.884 4.51-3.42 4.509-3.908 4.509-1.465 4.509-1.954 4.509-2.93 4.509-1.955 4.509-3.419 4.51-5.373 4.508-.977 4.51-1.954 4.508-4.396 4.51-2.442 4.509-2.931 4.509-4.397 4.509-2.93 4.509-1.466 4.509-1.954 4.509-1.954 4.51-1.953 4.508-2.443 4.51-1.954 4.508-2.442 4.51-1.466 4.509-1.953 4.509-2.443 4.509-3.908 4.509-1.953 4.509-2.931 4.509-2.443 4.51-.488 4.508-1.954 4.51-1.465 4.508-2.443 4.51-1.465 4.509-1.954 4.509-1.466 4.509-.976 4.509-.977 4.509-1.466 4.509-2.442 4.51-1.954 4.508-.977 4.51-2.442 4.508-1.466 4.51-1.465 4.509-4.396 4.509-3.908 4.509-2.931 4.509-3.42 4.509-4.396 4.509-2.442 4.51-.977 4.508-6.35 4.51-6.35 4.508-5.862 4.51-23.447-4.51 3.844-4.509 3.844-4.509 3.843-4.509 3.844-4.509 3.844-4.509 3.843-4.51 3.844-4.508 3.844-4.51 3.843-4.508 3.844-4.51 3.843-4.509 3.844-4.509 3.844-4.509 3.843-4.509 3.844-4.509 3.844-4.509 3.843-4.51 3.844-4.508 3.844-4.51 3.843-4.508 3.844-4.51 3.843-4.509 3.844-4.509 3.844-4.509 3.843-4.509 3.844-4.509 3.844-4.509 3.843-4.51 3.844-4.508 3.844-4.51 3.843-4.508 3.844-4.51 3.843-4.509 3.844-4.509 3.844-4.509 3.843-4.509 3.844-4.509 3.844-4.509 3.843-4.51 3.844-4.508 3.844-4.51 3.843-4.508 3.844-4.51 3.843-4.509 3.844-4.509 3.844-4.509 3.843-4.509 3.844-4.509 3.844-4.509 3.843-4.51 3.844-4.508 3.844-4.51 3.843-4.508 3.844-4.51 3.843-4.509 3.844-4.509 3.844-4.509 3.843-4.509 3.844-4.509 3.844-4.509 3.843-4.51 3.844-4.508 3.844-4.51 3.843-4.508 3.844-4.51 3.843-4.509 3.844-4.509 3.844-4.509 3.843-4.509 3.844-4.509 3.844-4.509 3.843-4.51 3.844-4.508 3.844-4.51 3.843-4.508 3.844-4.51 3.843-4.509 3.844-4.509 3.844-4.509 3.843-4.509 3.844-4.509 3.844-4.509 3.843-4.51 3.844-4.508 3.844-4.51 3.843-4.508 3.844-4.51 3.843-4.509 3.844-4.509 3.844-4.509 3.843-4.509 3.844-4.509 3.844-4.509 3.843-4.51 3.844-4.508 3.844-4.51 3.843-4.508 3.844-4.51 3.843z" clip-path="url(#p247d8eda56)"/><g id="matplotlib.axis_1"><g id="xtick_1"><g id="line2d_2"><defs><path id="ma163947d5b" stroke="#000" stroke-width="2.5" d="M0 0v7"/></defs><use xlink:href="#ma163947d5b" x="72.862" y="395.318" stroke="#000" stroke-width="2.5"/></g><g id="text_1" transform="matrix(.2 0 0 -.2 56.96 421.015)"><defs><path id="DejaVuSans-48" d="M31.781 66.406q-7.61 0-11.453-7.5Q16.5 51.422 16.5 36.375q0-14.984 3.828-22.484 3.844-7.5 11.453-7.5 7.672 0 11.5 7.5 3.844 7.5 3.844 22.484 0 15.047-3.844 22.531-3.828 7.5-11.5 7.5zm0 7.813q12.266 0 18.735-9.703 6.468-9.688 6.468-28.141 0-18.406-6.468-28.11-6.47-9.687-18.735-9.687-12.25 0-18.718 9.688-6.47 9.703-6.47 28.109 0 18.453 6.47 28.14Q19.53 74.22 31.78 74.22z"/><path id="DejaVuSans-46" d="M10.688 12.406H21V0H10.687z"/></defs><use xlink:href="#DejaVuSans-48"/><use xlink:href="#DejaVuSans-46" x="63.623"/><use xlink:href="#DejaVuSans-48" x="95.41"/></g></g><g id="xtick_2"><use xlink:href="#ma163947d5b" id="line2d_3" x="162.143" y="395.318" stroke="#000" stroke-width="2.5"/><g id="text_2" transform="matrix(.2 0 0 -.2 146.24 421.015)"><defs><path id="DejaVuSans-50" d="M19.188 8.297h34.421V0H7.33v8.297q5.609 5.812 15.296 15.594 9.703 9.797 12.188 12.64 4.734 5.313 6.609 9 1.89 3.688 1.89 7.25 0 5.813-4.078 9.469-4.078 3.672-10.625 3.672-4.64 0-9.797-1.61-5.14-1.609-11-4.89v9.969Q13.767 71.78 18.938 73q5.188 1.219 9.485 1.219 11.328 0 18.062-5.672 6.735-5.656 6.735-15.125 0-4.5-1.688-8.531-1.672-4.016-6.125-9.485-1.218-1.422-7.765-8.187-6.532-6.766-18.453-18.922z"/></defs><use xlink:href="#DejaVuSans-48"/><use xlink:href="#DejaVuSans-46" x="63.623"/><use xlink:href="#DejaVuSans-50" x="95.41"/></g></g><g id="xtick_3"><use xlink:href="#ma163947d5b" id="line2d_4" x="251.423" y="395.318" stroke="#000" stroke-width="2.5"/><g id="text_3" transform="matrix(.2 0 0 -.2 235.52 421.015)"><defs><path id="DejaVuSans-52" d="M37.797 64.313 12.89 25.39h24.906zm-2.594 8.593H47.61V25.391h10.407v-8.203H47.609V0h-9.812v17.188H4.89v9.515z"/></defs><use xlink:href="#DejaVuSans-48"/><use xlink:href="#DejaVuSans-46" x="63.623"/><use xlink:href="#DejaVuSans-52" x="95.41"/></g></g><g id="xtick_4"><use xlink:href="#ma163947d5b" id="line2d_5" x="340.702" y="395.318" stroke="#000" stroke-width="2.5"/><g id="text_4" transform="matrix(.2 0 0 -.2 324.8 421.015)"><defs><path id="DejaVuSans-54" d="M33.016 40.375q-6.641 0-10.532-4.547-3.875-4.531-3.875-12.437 0-7.86 3.875-12.438 3.891-4.562 10.532-4.562 6.64 0 10.515 4.562 3.875 4.578 3.875 12.438 0 7.906-3.875 12.437-3.875 4.547-10.515 4.547zm19.578 30.922v-8.984q-3.719 1.75-7.5 2.671-3.782.938-7.5.938-9.766 0-14.922-6.594-5.14-6.594-5.875-19.922 2.875 4.25 7.219 6.516 4.359 2.266 9.578 2.266 10.984 0 17.36-6.672 6.374-6.657 6.374-18.125 0-11.235-6.64-18.032-6.641-6.78-17.672-6.78-12.657 0-19.344 9.687-6.688 9.703-6.688 28.109 0 17.281 8.204 27.563 8.203 10.28 22.015 10.28 3.719 0 7.5-.734t7.89-2.187z"/></defs><use xlink:href="#DejaVuSans-48"/><use xlink:href="#DejaVuSans-46" x="63.623"/><use xlink:href="#DejaVuSans-54" x="95.41"/></g></g><g id="xtick_5"><use xlink:href="#ma163947d5b" id="line2d_6" x="429.983" y="395.318" stroke="#000" stroke-width="2.5"/><g id="text_5" transform="matrix(.2 0 0 -.2 414.08 421.015)"><defs><path id="DejaVuSans-56" d="M31.781 34.625q-7.031 0-11.062-3.766-4.016-3.765-4.016-10.343 0-6.594 4.016-10.36Q24.75 6.391 31.78 6.391q7.032 0 11.078 3.78 4.063 3.798 4.063 10.345 0 6.578-4.031 10.343-4.016 3.766-11.11 3.766zm-9.86 4.188q-6.343 1.562-9.89 5.906Q8.5 49.079 8.5 55.329q0 8.733 6.219 13.812 6.234 5.078 17.062 5.078 10.89 0 17.094-5.078 6.203-5.079 6.203-13.813 0-6.25-3.547-10.61-3.531-4.343-9.828-5.906 7.125-1.656 11.094-6.5 3.984-4.828 3.984-11.796 0-10.61-6.468-16.282-6.47-5.656-18.532-5.656-12.047 0-18.531 5.656-6.469 5.672-6.469 16.282 0 6.968 4 11.797 4.016 4.843 11.14 6.5zM18.314 54.39q0-5.657 3.53-8.828 3.548-3.172 9.938-3.172 6.36 0 9.938 3.172 3.593 3.171 3.593 8.828 0 5.672-3.593 8.843-3.578 3.172-9.938 3.172-6.39 0-9.937-3.172-3.532-3.172-3.532-8.843z"/></defs><use xlink:href="#DejaVuSans-48"/><use xlink:href="#DejaVuSans-46" x="63.623"/><use xlink:href="#DejaVuSans-56" x="95.41"/></g></g><g id="xtick_6"><use xlink:href="#ma163947d5b" id="line2d_7" x="519.263" y="395.318" stroke="#000" stroke-width="2.5"/><g id="text_6" transform="matrix(.2 0 0 -.2 503.36 421.015)"><defs><path id="DejaVuSans-49" d="M12.406 8.297h16.11v55.625l-17.532-3.516v8.985l17.438 3.515h9.86V8.296H54.39V0H12.406z"/></defs><use xlink:href="#DejaVuSans-49"/><use xlink:href="#DejaVuSans-46" x="63.623"/><use xlink:href="#DejaVuSans-48" x="95.41"/></g></g><g id="text_7" transform="matrix(.2 0 0 -.2 194.72 444.372)"><defs><path id="DejaVuSans-84" d="M-.297 72.906h61.672v-8.312H35.5V0h-9.906v64.594H-.296z"/><path id="DejaVuSans-104" d="M54.89 33.016V0h-8.984v32.719q0 7.765-3.031 11.61-3.031 3.858-9.078 3.858-7.281 0-11.484-4.64-4.204-4.625-4.204-12.64V0H9.08v75.984h9.03V46.188q3.235 4.937 7.594 7.374Q30.078 56 35.797 56q9.422 0 14.25-5.828 4.844-5.828 4.844-17.156z"/><path id="DejaVuSans-101" d="M56.203 29.594v-4.39H14.891q.593-9.282 5.593-14.142 5-4.859 13.938-4.859 5.172 0 10.031 1.266 4.86 1.265 9.656 3.812v-8.5Q49.266.734 44.187-.344 39.11-1.422 33.892-1.422q-13.094 0-20.735 7.61-7.64 7.625-7.64 20.625 0 13.421 7.25 21.296Q20.016 56 32.328 56q11.031 0 17.453-7.11 6.422-7.093 6.422-19.296zm-8.984 2.64q-.094 7.36-4.125 11.75-4.032 4.407-10.672 4.407-7.516 0-12.031-4.25-4.516-4.25-5.203-11.97z"/><path id="DejaVuSans-111" d="M30.61 48.39q-7.22 0-11.422-5.64-4.204-5.64-4.204-15.453 0-9.813 4.172-15.453 4.188-5.64 11.453-5.64 7.188 0 11.375 5.655 4.203 5.672 4.203 15.438 0 9.719-4.203 15.406-4.187 5.688-11.375 5.688zm0 7.61q11.718 0 18.406-7.625 6.703-7.61 6.703-21.078 0-13.422-6.703-21.078-6.688-7.64-18.407-7.64-11.765 0-18.437 7.64-6.656 7.656-6.656 21.078 0 13.469 6.656 21.078Q18.844 56 30.609 56z"/><path id="DejaVuSans-114" d="M41.11 46.297q-1.516.875-3.297 1.281Q36.03 48 33.89 48q-7.625 0-11.703-4.953-4.079-4.953-4.079-14.234V0H9.08v54.688h9.03v-8.5q2.844 4.984 7.375 7.39Q30.031 56 36.531 56q.922 0 2.047-.125 1.125-.11 2.484-.36z"/><path id="DejaVuSans-116" d="M18.313 70.219V54.688h18.5v-6.985h-18.5V18.016q0-6.688 1.828-8.594 1.828-1.906 7.453-1.906h9.218V0h-9.218q-10.407 0-14.36 3.875-3.953 3.89-3.953 14.14v29.688H2.687v6.984h6.594V70.22z"/><path id="DejaVuSans-105" d="M9.422 54.688h8.984V0H9.422zm0 21.296h8.984v-11.39H9.422z"/><path id="DejaVuSans-99" d="M48.781 52.594v-8.407q-3.812 2.11-7.64 3.157-3.828 1.047-7.735 1.047-8.75 0-13.593-5.547-4.829-5.532-4.829-15.547 0-10.016 4.829-15.563 4.843-5.53 13.593-5.53 3.907 0 7.735 1.046 3.828 1.047 7.64 3.156V2.094Q45.016.344 40.984-.531q-4.015-.89-8.562-.89-12.36 0-19.64 7.765-7.266 7.765-7.266 20.953 0 13.375 7.343 21.031Q20.22 56 33.016 56q4.14 0 8.093-.86 3.953-.843 7.672-2.546z"/><path id="DejaVuSans-97" d="M34.281 27.484q-10.89 0-15.093-2.484-4.204-2.484-4.204-8.5 0-4.781 3.157-7.594 3.156-2.797 8.562-2.797 7.485 0 12 5.297 4.516 5.297 4.516 14.078v2zm17.922 3.72V0H43.22v8.297Q40.14 3.328 35.547.953q-4.594-2.375-11.234-2.375-8.391 0-13.36 4.719Q6 8.016 6 15.922q0 9.219 6.172 13.906 6.187 4.688 18.437 4.688h12.61v.89q0 6.203-4.078 9.594-4.078 3.39-11.453 3.39-4.688 0-9.141-1.124-4.438-1.125-8.531-3.375v8.312q4.921 1.906 9.562 2.844 4.64.953 9.031.953 11.875 0 17.735-6.156 5.86-6.14 5.86-18.64z"/><path id="DejaVuSans-108" d="M9.422 75.984h8.984V0H9.422z"/><path id="DejaVuSans-81" d="M39.406 66.219q-10.75 0-17.078-8.016-6.312-8-6.312-21.828 0-13.766 6.312-21.781 6.328-8 17.078-8 10.735 0 17.016 8 6.281 8.015 6.281 21.781 0 13.828-6.281 21.828-6.281 8.016-17.016 8.016zM53.22 1.313l13-14.204H54.297L43.5-1.219q-1.61-.093-2.469-.14-.843-.063-1.625-.063-15.375 0-24.593 10.281-9.204 10.282-9.204 27.516 0 17.281 9.204 27.563 9.218 10.28 24.593 10.28 15.328 0 24.5-10.28 9.188-10.282 9.188-27.563 0-12.688-5.11-21.734Q62.891 5.609 53.22 1.312z"/><path id="DejaVuSans-117" d="M8.5 21.578v33.11h8.984V21.922q0-7.766 3.016-11.656 3.031-3.875 9.094-3.875 7.265 0 11.484 4.64 4.234 4.64 4.234 12.656v31h8.985V0h-8.984v8.406Q42.047 3.422 37.718 1q-4.313-2.422-10.032-2.422-9.421 0-14.312 5.86Q8.5 10.296 8.5 21.578zM31.11 56z"/><path id="DejaVuSans-110" d="M54.89 33.016V0h-8.984v32.719q0 7.765-3.031 11.61-3.031 3.858-9.078 3.858-7.281 0-11.484-4.64-4.204-4.625-4.204-12.64V0H9.08v54.688h9.03v-8.5q3.235 4.937 7.594 7.374Q30.078 56 35.797 56q9.422 0 14.25-5.828 4.844-5.828 4.844-17.156z"/></defs><use xlink:href="#DejaVuSans-84"/><use xlink:href="#DejaVuSans-104" x="61.084"/><use xlink:href="#DejaVuSans-101" x="124.463"/><use xlink:href="#DejaVuSans-111" x="185.986"/><use xlink:href="#DejaVuSans-114" x="247.168"/><use xlink:href="#DejaVuSans-101" x="286.031"/><use xlink:href="#DejaVuSans-116" x="347.555"/><use xlink:href="#DejaVuSans-105" x="386.764"/><use xlink:href="#DejaVuSans-99" x="414.547"/><use xlink:href="#DejaVuSans-97" x="469.527"/><use xlink:href="#DejaVuSans-108" x="530.807"/><use xlink:href="#DejaVuSans-32" x="558.59"/><use xlink:href="#DejaVuSans-81" x="590.377"/><use xlink:href="#DejaVuSans-117" x="669.088"/><use xlink:href="#DejaVuSans-97" x="732.467"/><use xlink:href="#DejaVuSans-110" x="793.746"/><use xlink:href="#DejaVuSans-116" x="857.125"/><use xlink:href="#DejaVuSans-105" x="896.334"/><use xlink:href="#DejaVuSans-108" x="924.117"/><use xlink:href="#DejaVuSans-101" x="951.9"/></g></g><g id="matplotlib.axis_2"><g id="ytick_1"><g id="line2d_8"><defs><path id="m0c3daf51a2" stroke="#000" stroke-width="2.5" d="M0 0h-7"/></defs><use xlink:href="#m0c3daf51a2" x="72.862" y="395.318" stroke="#000" stroke-width="2.5"/></g><g id="text_8" transform="matrix(.2 0 0 -.2 30.556 402.917)"><use xlink:href="#DejaVuSans-48"/><use xlink:href="#DejaVuSans-46" x="63.623"/><use xlink:href="#DejaVuSans-48" x="95.41"/></g></g><g id="ytick_2"><use xlink:href="#m0c3daf51a2" id="line2d_9" x="72.862" y="319.214" stroke="#000" stroke-width="2.5"/><g id="text_9" transform="matrix(.2 0 0 -.2 30.556 326.813)"><use xlink:href="#DejaVuSans-48"/><use xlink:href="#DejaVuSans-46" x="63.623"/><use xlink:href="#DejaVuSans-50" x="95.41"/></g></g><g id="ytick_3"><use xlink:href="#m0c3daf51a2" id="line2d_10" x="72.862" y="243.11" stroke="#000" stroke-width="2.5"/><g id="text_10" transform="matrix(.2 0 0 -.2 30.556 250.709)"><use xlink:href="#DejaVuSans-48"/><use xlink:href="#DejaVuSans-46" x="63.623"/><use xlink:href="#DejaVuSans-52" x="95.41"/></g></g><g id="ytick_4"><use xlink:href="#m0c3daf51a2" id="line2d_11" x="72.862" y="167.006" stroke="#000" stroke-width="2.5"/><g id="text_11" transform="matrix(.2 0 0 -.2 30.556 174.605)"><use xlink:href="#DejaVuSans-48"/><use xlink:href="#DejaVuSans-46" x="63.623"/><use xlink:href="#DejaVuSans-54" x="95.41"/></g></g><g id="ytick_5"><use xlink:href="#m0c3daf51a2" id="line2d_12" x="72.862" y="90.902" stroke="#000" stroke-width="2.5"/><g id="text_12" transform="matrix(.2 0 0 -.2 30.556 98.5)"><use xlink:href="#DejaVuSans-48"/><use xlink:href="#DejaVuSans-46" x="63.623"/><use xlink:href="#DejaVuSans-56" x="95.41"/></g></g><g id="ytick_6"><use xlink:href="#m0c3daf51a2" id="line2d_13" x="72.862" y="14.798" stroke="#000" stroke-width="2.5"/><g id="text_13" transform="matrix(.2 0 0 -.2 30.556 22.397)"><use xlink:href="#DejaVuSans-49"/><use xlink:href="#DejaVuSans-46" x="63.623"/><use xlink:href="#DejaVuSans-48" x="95.41"/></g></g><g id="text_14" transform="matrix(0 -.2 -.2 0 22.397 298.655)"><defs><path id="DejaVuSans-79" d="M39.406 66.219q-10.75 0-17.078-8.016-6.312-8-6.312-21.828 0-13.766 6.312-21.781 6.328-8 17.078-8 10.735 0 17.016 8 6.281 8.015 6.281 21.781 0 13.828-6.281 21.828-6.281 8.016-17.016 8.016zm0 8q15.328 0 24.5-10.281 9.188-10.282 9.188-27.563 0-17.234-9.188-27.516-9.172-10.28-24.5-10.28-15.375 0-24.593 10.25-9.204 10.265-9.204 27.546t9.204 27.563q9.218 10.28 24.593 10.28z"/><path id="DejaVuSans-98" d="M48.688 27.297q0 9.906-4.079 15.547-4.078 5.64-11.203 5.64-7.14 0-11.218-5.64-4.079-5.64-4.079-15.547 0-9.906 4.078-15.547 4.079-5.64 11.22-5.64 7.124 0 11.202 5.64t4.078 15.547zM18.108 46.39q2.844 4.875 7.157 7.234Q29.594 56 35.594 56q9.968 0 16.187-7.906 6.235-7.907 6.235-20.797T51.78 6.484q-6.218-7.906-16.187-7.906-6 0-10.328 2.375-4.313 2.375-7.157 7.25V0H9.08v75.984h9.03z"/><path id="DejaVuSans-115" d="M44.281 53.078v-8.5q-3.797 1.953-7.906 2.922-4.094.984-8.5.984-6.688 0-10.031-2.047-3.344-2.046-3.344-6.156 0-3.125 2.39-4.906 2.391-1.781 9.626-3.39l3.078-.688q9.562-2.047 13.593-5.781 4.032-3.735 4.032-10.422 0-7.625-6.032-12.078-6.03-4.438-16.578-4.438-4.39 0-9.156.86Q10.688.296 5.422 2v9.281q4.984-2.594 9.812-3.89 4.829-1.282 9.579-1.282 6.343 0 9.75 2.172 3.421 2.172 3.421 6.125 0 3.656-2.468 5.61-2.453 1.953-10.813 3.765l-3.125.735q-8.344 1.75-12.062 5.39-3.704 3.64-3.704 9.985 0 7.718 5.47 11.906Q16.75 56 26.811 56q4.97 0 9.36-.734 4.406-.72 8.11-2.188z"/><path id="DejaVuSans-118" d="M2.984 54.688H12.5L29.594 8.797l17.093 45.89h9.516L35.687 0H23.485z"/><path id="DejaVuSans-100" d="M45.406 46.39v29.594h8.985V0h-8.985v8.203Q42.578 3.328 38.25.953q-4.313-2.375-10.375-2.375-9.906 0-16.14 7.906-6.22 7.922-6.22 20.813 0 12.89 6.22 20.797Q17.968 56 27.874 56q6.063 0 10.375-2.375 4.328-2.36 7.156-7.234zm-30.61-19.093q0-9.906 4.079-15.547 4.078-5.64 11.203-5.64 7.125 0 11.219 5.64 4.11 5.64 4.11 15.547 0 9.906-4.11 15.547-4.094 5.64-11.219 5.64-7.125 0-11.203-5.64-4.078-5.64-4.078-15.547z"/></defs><use xlink:href="#DejaVuSans-79"/><use xlink:href="#DejaVuSans-98" x="78.711"/><use xlink:href="#DejaVuSans-115" x="142.188"/><use xlink:href="#DejaVuSans-101" x="194.287"/><use xlink:href="#DejaVuSans-114" x="255.811"/><use xlink:href="#DejaVuSans-118" x="296.924"/><use xlink:href="#DejaVuSans-101" x="356.104"/><use xlink:href="#DejaVuSans-100" x="417.627"/><use xlink:href="#DejaVuSans-32" x="481.104"/><use xlink:href="#DejaVuSans-81" x="512.891"/><use xlink:href="#DejaVuSans-117" x="591.602"/><use xlink:href="#DejaVuSans-97" x="654.98"/><use xlink:href="#DejaVuSans-110" x="716.26"/><use xlink:href="#DejaVuSans-116" x="779.639"/><use xlink:href="#DejaVuSans-105" x="818.848"/><use xlink:href="#DejaVuSans-108" x="846.631"/><use xlink:href="#DejaVuSans-101" x="874.414"/></g></g><path id="line2d_14" fill="none" stroke="#1f77b4" stroke-linecap="square" stroke-opacity=".8" stroke-width="2" d="m72.862 395.318 4.51-.977 4.509-5.373 4.509-5.373 4.509-1.954 4.509-2.442 4.509-5.373 4.51-2.443 4.508-4.396 4.51-5.373 4.508-2.931 4.51-3.42 4.509-2.442 4.509-4.396 4.509-3.42 4.509-3.907 4.509-1.954 4.509-3.908 4.51-4.884 4.508-4.885 4.51-2.93 4.508-4.397 4.51-1.466 4.509-2.93 4.509-1.466 4.509-5.373 4.509-1.954 4.509-4.885 4.509-3.907 4.51-3.42 4.508-3.42 4.51-5.372 4.508-3.908 4.51-4.885 4.509-.977 4.509-3.907 4.509-1.466 4.509-2.442 4.509-2.931 4.509-2.93 4.51-3.42 4.508-5.373 4.51-2.931 4.508-3.42 4.51-3.907 4.509-4.885 4.509-2.442 4.509-2.931 4.509-4.885 4.509-3.908 4.509-4.396 4.51-3.908 4.508-1.465 4.51-3.908 4.508-1.465 4.51-2.443 4.509-5.861 4.509-4.885 4.509-5.373 4.509-1.954 4.509-4.397 4.509-4.396 4.51-1.954 4.508-2.93 4.51-1.466 4.508-1.954 4.51-1.465 4.509-2.443 4.509-2.93 4.509-2.931 4.509-4.397 4.509-.488 4.509-1.954 4.51-4.396 4.508-2.442 4.51-2.443 4.508-3.42 4.51-3.418 4.509-2.443 4.509-1.954 4.509-1.954 4.509-1.953 4.509-2.443 4.509-1.954 4.51-3.42 4.508-1.953 4.51-2.93 4.508-3.909 4.51-4.396 4.509-2.93 4.509-.978 4.509-2.442 4.509-3.42 4.509-3.419 4.509-1.953 4.51-2.443 4.508-4.396 4.51-4.885 4.508-11.235 4.51-54.709" clip-path="url(#p247d8eda56)"/><path id="line2d_15" fill="none" stroke="#ff7f0e" stroke-linecap="square" stroke-opacity=".8" stroke-width="2" d="m72.862 395.318 4.51-4.884 4.509-6.839 4.509-2.93 4.509-6.84 4.509-4.884 4.509-7.327 4.51-3.908 4.508-4.396 4.51-7.327 4.508-4.885 4.51-4.885 4.509-5.373 4.509-6.35 4.509-4.885 4.509-3.42 4.509-3.907 4.509-5.862 4.51-4.884 4.508-6.35 4.51-5.374 4.508-6.35 4.51-5.861 4.509-3.42 4.509-4.396 4.509-2.93 4.509-3.909 4.509-4.396 4.509-5.862 4.51-4.884 4.508-4.396 4.51-6.84 4.508-2.93 4.51-4.885 4.509-6.35 4.509-4.885 4.509-3.907 4.509-4.885 4.509-1.465 4.509-4.397 4.51-8.304 4.508-5.861 4.51-3.42 4.508-4.884 4.51-3.42 4.509-3.908 4.509-1.465 4.509-1.954 4.509-2.93 4.509-1.955 4.509-3.419 4.51-5.373 4.508-.977 4.51-1.954 4.508-4.396 4.51-2.442 4.509-2.931 4.509-4.397 4.509-2.93 4.509-1.466 4.509-1.954 4.509-1.954 4.51-1.953 4.508-2.443 4.51-1.954 4.508-2.442 4.51-1.466 4.509-1.953 4.509-2.443 4.509-3.908 4.509-1.953 4.509-2.931 4.509-2.443 4.51-.488 4.508-1.954 4.51-1.465 4.508-2.443 4.51-1.465 4.509-1.954 4.509-1.466 4.509-.976 4.509-.977 4.509-1.466 4.509-2.442 4.51-1.954 4.508-.977 4.51-2.442 4.508-1.466 4.51-1.465 4.509-4.396 4.509-3.908 4.509-2.931 4.509-3.42 4.509-4.396 4.509-2.442 4.51-.977 4.508-6.35 4.51-6.35 4.508-5.862 4.51-23.447" clip-path="url(#p247d8eda56)"/><path id="patch_3" fill="none" stroke="#000" stroke-linecap="square" stroke-width="2.5" d="M72.862 395.318V14.798"/><path id="patch_4" fill="none" stroke="#000" stroke-linecap="square" stroke-width="2.5" d="M519.263 395.318V14.798"/><path id="patch_5" fill="none" stroke="#000" stroke-linecap="square" stroke-width="2.5" d="M72.862 395.318h446.4"/><path id="patch_6" fill="none" stroke="#000" stroke-linecap="square" stroke-width="2.5" d="M72.862 14.798h446.4"/><g id="legend_1"><path id="line2d_16" fill="none" stroke="#1f77b4" stroke-linecap="square" stroke-opacity=".8" stroke-width="2" d="M90.862 40.995h40"/><g id="text_15" transform="matrix(.2 0 0 -.2 146.863 47.995)"><defs><path id="DejaVuSans-102" d="M37.11 75.984V68.5h-8.594q-4.828 0-6.72-1.953-1.874-1.953-1.874-7.031v-4.828h14.797v-6.985H19.922V0H10.89v47.703H2.297v6.984h8.594V58.5q0 9.125 4.25 13.297 4.25 4.187 13.468 4.187z"/></defs><use xlink:href="#DejaVuSans-111"/><use xlink:href="#DejaVuSans-118" x="61.182"/><use xlink:href="#DejaVuSans-101" x="120.361"/><use xlink:href="#DejaVuSans-114" x="181.885"/><use xlink:href="#DejaVuSans-99" x="220.748"/><use xlink:href="#DejaVuSans-111" x="275.729"/><use xlink:href="#DejaVuSans-110" x="336.91"/><use xlink:href="#DejaVuSans-102" x="400.289"/><use xlink:href="#DejaVuSans-105" x="435.494"/><use xlink:href="#DejaVuSans-100" x="463.277"/><use xlink:href="#DejaVuSans-101" x="526.754"/><use xlink:href="#DejaVuSans-110" x="588.277"/><use xlink:href="#DejaVuSans-116" x="651.656"/></g><path id="line2d_18" fill="none" stroke="#ff7f0e" stroke-linecap="square" stroke-opacity=".8" stroke-width="2" d="M90.862 70.352h40"/><g id="text_16" transform="matrix(.2 0 0 -.2 146.863 77.352)"><use xlink:href="#DejaVuSans-117"/><use xlink:href="#DejaVuSans-110" x="63.379"/><use xlink:href="#DejaVuSans-100" x="126.758"/><use xlink:href="#DejaVuSans-101" x="190.234"/><use xlink:href="#DejaVuSans-114" x="251.758"/><use xlink:href="#DejaVuSans-99" x="290.621"/><use xlink:href="#DejaVuSans-111" x="345.602"/><use xlink:href="#DejaVuSans-110" x="406.783"/><use xlink:href="#DejaVuSans-102" x="470.162"/><use xlink:href="#DejaVuSans-105" x="505.367"/><use xlink:href="#DejaVuSans-100" x="533.15"/><use xlink:href="#DejaVuSans-101" x="596.627"/><use xlink:href="#DejaVuSans-110" x="658.15"/><use xlink:href="#DejaVuSans-116" x="721.529"/></g><path id="line2d_20" fill="none" stroke="#000" stroke-dasharray="5.55,2.4" stroke-opacity=".5" stroke-width="1.5" d="M90.862 99.708h40"/><g id="text_17" transform="matrix(.2 0 0 -.2 146.863 106.708)"><use xlink:href="#DejaVuSans-105"/><use xlink:href="#DejaVuSans-100" x="27.783"/><use xlink:href="#DejaVuSans-101" x="91.26"/><use xlink:href="#DejaVuSans-97" x="152.783"/><use xlink:href="#DejaVuSans-108" x="214.063"/></g></g><g id="legend_2"><g id="text_18" transform="matrix(.2 0 0 -.2 252.984 343.803)"><defs><path id="DejaVuSans-77" d="M9.813 72.906h14.703l18.593-49.61 18.703 49.61h14.704V0H66.89v64.016l-18.797-50h-9.907l-18.796 50V0H9.813z"/></defs><use xlink:href="#DejaVuSans-77"/><use xlink:href="#DejaVuSans-105" x="86.279"/><use xlink:href="#DejaVuSans-115" x="114.063"/><use xlink:href="#DejaVuSans-99" x="166.162"/><use xlink:href="#DejaVuSans-97" x="221.143"/><use xlink:href="#DejaVuSans-108" x="282.422"/><use xlink:href="#DejaVuSans-105" x="310.205"/><use xlink:href="#DejaVuSans-98" x="337.988"/><use xlink:href="#DejaVuSans-114" x="401.465"/><use xlink:href="#DejaVuSans-97" x="442.578"/><use xlink:href="#DejaVuSans-116" x="503.857"/><use xlink:href="#DejaVuSans-105" x="543.066"/><use xlink:href="#DejaVuSans-111" x="570.85"/><use xlink:href="#DejaVuSans-110" x="632.031"/><use xlink:href="#DejaVuSans-32" x="695.41"/><use xlink:href="#DejaVuSans-97" x="727.197"/><use xlink:href="#DejaVuSans-114" x="788.477"/><use xlink:href="#DejaVuSans-101" x="827.34"/><use xlink:href="#DejaVuSans-97" x="888.863"/><use xlink:href="#DejaVuSans-115" x="950.143"/></g><path id="line2d_22" fill="none" stroke="#1f77b4" stroke-linecap="square" stroke-opacity=".8" stroke-width="2" d="M252.984 366.16h40"/><g id="text_19" transform="matrix(.2 0 0 -.2 308.984 373.16)"><defs><path id="DejaVuSans-45" d="M4.89 31.39h26.313v-8H4.891z"/></defs><use xlink:href="#DejaVuSans-45"/><use xlink:href="#DejaVuSans-48" x="36.084"/><use xlink:href="#DejaVuSans-46" x="99.707"/><use xlink:href="#DejaVuSans-48" x="131.494"/><use xlink:href="#DejaVuSans-54" x="195.117"/></g><path id="line2d_24" fill="none" stroke="#ff7f0e" stroke-linecap="square" stroke-opacity=".8" stroke-width="2" d="M400.731 366.16h40"/><g id="text_20" transform="matrix(.2 0 0 -.2 456.731 373.16)"><defs><path id="DejaVuSans-53" d="M10.797 72.906h38.719v-8.312H19.828v-17.86q2.14.735 4.281 1.094 2.157.36 4.313.36 12.203 0 19.328-6.688 7.14-6.688 7.14-18.11 0-11.765-7.328-18.296-7.328-6.516-20.656-6.516-4.593 0-9.36.781-4.75.782-9.827 2.344v9.922q4.39-2.39 9.078-3.563 4.687-1.171 9.906-1.171 8.453 0 13.375 4.437 4.938 4.438 4.938 12.063 0 7.609-4.938 12.047-4.922 4.453-13.375 4.453-3.953 0-7.89-.875-3.922-.875-8.016-2.735z"/></defs><use xlink:href="#DejaVuSans-48"/><use xlink:href="#DejaVuSans-46" x="63.623"/><use xlink:href="#DejaVuSans-48" x="95.41"/><use xlink:href="#DejaVuSans-53" x="159.033"/></g></g></g></g><defs><clipPath id="p247d8eda56"><path d="M72.862 14.798h446.4v380.52h-446.4z"/></clipPath></defs></svg>