<svg xmlns="http://www.w3.org/2000/svg" width="700" height="500" class="main-svg"><path d="M0 0h700v500H0z" style="fill:#fff;fill-opacity:1"/><defs><clipPath id="c" class="plotclip"><path d="M0 0h483.448v403H0z"/></clipPath><clipPath id="d" class="plotclip"><path d="M0 0h120.862v403H0z"/></clipPath><clipPath id="e" class="axesclip"><path d="M71 0h483.448v500H71z"/></clipPath><clipPath id="a" class="axesclip"><path d="M0 40h700v403H0z"/></clipPath><clipPath id="b" class="axesclip"><path d="M0 40h700v403H0z"/></clipPath></defs><g class="layer-below"><g class="shapelayer"><g class="shape-group" clip-path="url(#a)" data-index="10"><path fill-rule="evenodd" d="M71 183.24h483.448V443H71Z" data-index="10" style="opacity:.07;stroke:#2a3f5f;stroke-opacity:1;fill:gray;fill-opacity:1;stroke-width:2px"/></g><g class="shape-group" clip-path="url(#b)" data-index="11"><path fill-rule="evenodd" d="M573.138 183.24H694V443H573.138Z" data-index="11" style="opacity:.07;stroke:#2a3f5f;stroke-opacity:1;fill:gray;fill-opacity:1;stroke-width:2px"/></g></g></g><g class="cartesianlayer"><g class="subplot xy"><g class="gridlayer"><g class="x"><path d="M0 40v403" class="xgrid crisp" style="stroke:#d3d3d3;stroke-opacity:1;stroke-width:1px" transform="translate(147.27)"/><path d="M0 40v403" class="xgrid crisp" style="stroke:#d3d3d3;stroke-opacity:1;stroke-width:1px" transform="translate(191.31)"/><path d="M0 40v403" class="xgrid crisp" style="stroke:#d3d3d3;stroke-opacity:1;stroke-width:1px" transform="translate(279.38)"/><path d="M0 40v403" class="xgrid crisp" style="stroke:#d3d3d3;stroke-opacity:1;stroke-width:1px" transform="translate(301.61)"/><path d="M0 40v403" class="xgrid crisp" style="stroke:#d3d3d3;stroke-opacity:1;stroke-width:1px" transform="translate(377.88)"/><path d="M0 40v403" class="xgrid crisp" style="stroke:#d3d3d3;stroke-opacity:1;stroke-width:1px" transform="translate(421.92)"/><path d="M0 40v403" class="xgrid crisp" style="stroke:#d3d3d3;stroke-opacity:1;stroke-width:1px" transform="translate(509.99)"/><path d="M0 40v403" class="xgrid crisp" style="stroke:#d3d3d3;stroke-opacity:1;stroke-width:1px" transform="translate(532.22)"/></g><g class="y"><path d="M71 0h483.448" class="ygrid crisp" style="stroke:#d3d3d3;stroke-opacity:1;stroke-width:1px" transform="translate(0 396.36)"/><path d="M71 0h483.448" class="ygrid crisp" style="stroke:#d3d3d3;stroke-opacity:1;stroke-width:1px" transform="translate(0 325.32)"/><path d="M71 0h483.448" class="ygrid crisp" style="stroke:#d3d3d3;stroke-opacity:1;stroke-width:1px" transform="translate(0 254.28)"/><path d="M71 0h483.448" class="ygrid crisp" style="stroke:#d3d3d3;stroke-opacity:1;stroke-width:1px" transform="translate(0 112.2)"/><path d="M71 0h483.448" class="ygrid crisp" style="stroke:#d3d3d3;stroke-opacity:1;stroke-width:1px" transform="translate(0 41.16)"/></g></g><g class="zerolinelayer"><path d="M71 0h483.448" class="yzl zl crisp" style="stroke:#ebf0f8;stroke-opacity:1;stroke-width:2px" transform="translate(0 183.24)"/></g><g class="plot" clip-path="url(#c)" transform="translate(71 40)"><g class="scatterlayer mlayer"><g class="trace scatter traceb3af5b" style="stroke-miterlimit:2;opacity:1"><g class="lines"><path d="m0 143.24 1.53 10.93.76 3.11 9.15 34.23.76 2.2 3.82 8.31.76 1.06 2.29 1.8.76.11 1.53-.6.76-.73 2.29-4.13.76-2.09 2.29-9.04.76-4.19.76-5.07.77 2.73 3.81 51.82.76 8.99 6.87 71.62.76 6.77 5.34 39.26.76 4.36 3.82 16.82.76 2.34 3.05 5.89.76.62 1.53.21.76-.4 2.29-3.12.76-1.65 3.05-9.38.77-2.96 9.15-38.13.76-1.14.76-.39" class="js-line" style="vector-effect:none;fill:none;stroke:#636efa;stroke-opacity:1;stroke-width:1.5px;opacity:1"/></g></g><g class="trace scatter trace20a422" style="stroke-miterlimit:2;opacity:1"><g class="lines"><path d="m0 143.24.76 5.43.77-2.11 1.52-7.06.76-.91 7.63-7.76.76-.59 5.34-3.03.77-.29 9.91-3.62.76 42.26.77 7.25.76-8.64 3.05 40.62.76 6.94 3.82 26.93.76 4.17 3.81 15.52.77 2.06 2.28 4.01.77.6 1.52.09.76-.53 1.53-2.25.76-1.73 2.29-7.8.76-3.53 3.06-19.54.76-6.56 2.29-26.4.76-11.3 3.05 28.07.76 5.25 3.82 20.02.76 2.94 3.05 8.57.76 1.36 2.29 2.27.76.16" class="js-line" style="vector-effect:none;fill:none;stroke:#636efa;stroke-opacity:1;stroke-width:1.5px;opacity:1"/></g></g><g class="trace scatter trace08ba5c" style="stroke-miterlimit:2;opacity:1"><g class="lines"><path d="m0 143.24 1.53-1.88.76-5.77 4.57-28.95.77-4.09 4.57-20.03.77-2.5 3.05-7.19.76-1.04 1.53-1.08.76-.01 1.52 1.12.77 1.2 2.28 6.59.77 3.43 2.29 16.35.76 9.17.76 14.56.76-.6.77-.45.76 39.62 1.52-40.64.77-2.83 4.57-8.08.77 6.95.76 11.51.76 28.63 1.53 14.93.76 3.73 1.53 4.04.76.71 1.52-.85.77-1.54 1.52-5.62.76-4.49.77-6.45.76-12.95 1.53-31.17.76-6.35 3.05-17.78.76-1.75 1.53 15.89.76 12.51 1.53 54.71.76 8.87.76-20.67.76-49.07 1.53-28.47.76 2.42 2.29 14.68.76 8.36.77 12.93.76 37.85 2.29 32.71.76 6.68 2.29 12.97.76 1.93.76.65" class="js-line" style="vector-effect:none;fill:none;stroke:#636efa;stroke-opacity:1;stroke-width:1.5px;opacity:1"/></g></g><g class="trace scatter traceaed2db" style="stroke-miterlimit:2;opacity:1"><g class="lines"><path d="m0 139.63 3.81-21.17.77-4.03 6.86-32.19.76-2.77 3.82-10.27.76-1.24 2.29-1.85.76.06 1.53 1.25.76 1.23 2.29 6.49.76 3.24 2.29 14.25.76 6.98 1.53 22.24.76-.77 1.52-1.81.77-7.29 2.29-18.41.76.31 1.52 14.55.77.09L45 91.68l.76-2.04 6.87-18.65.76 1.71 3.05 17.58.77-2.72 2.28-5.47.77-.89 1.52-.22.76.72 1.53 3.38.76-9.29 3.05-27.47.77-1.1 4.57-1.95.77-.17 2.28-.21" class="js-line" style="vector-effect:none;fill:none;stroke:#636efa;stroke-opacity:1;stroke-width:1.5px;opacity:1"/></g></g><g class="trace scatter trace505d36" style="stroke-miterlimit:2;opacity:1"><g class="lines"><path d="m0 139.63 6.1-45.01.76-5.24 5.34-32.93.77-1.57 9.91 9.7.76.74 6.87 5.63.76.45 1.53.76.76 2.86 2.29 13.8.76-4.31 2.29-10.68.76-.97 3.82-1.68.76-.5 5.34-4.76.76-.81.76-.71.77 2.32.76 2.75.76-.49 5.34-12.07.76-1.13 4.58-5.08.76-.68 3.05-2.32.77-4.4 1.52-7.91.76-.68 3.82-2.07.76-.14.76-.05" class="js-line" style="vector-effect:none;fill:none;stroke:#636efa;stroke-opacity:1;stroke-width:1.5px;opacity:1"/></g></g><g class="trace scatter tracef97bda" style="stroke-miterlimit:2;opacity:1"><g class="lines"><path d="m0 48.76 4.58.82.76.29 4.58 2.59.76.56 1.52 1.21.77-1.75 3.81-16.09.76-2.35L20.59 28l.77-.59 1.52.02.76.64 1.53 2.58.76 1.96 2.29 8.58.76 3.75 4.58 27.53.76.25 3.82.4.76-.1 4.58-12.11.76-1.1 2.29-1.47.76.15 1.52 1.29.77 1.17 1.52 3.31.77-.87 6.1-7.98.76-1.35 8.39-15.1.76-1.02 2.29-3 .76-3.4 3.06-8.9.76-1.1 1.52-.87" class="js-line" style="vector-effect:none;fill:none;stroke:#636efa;stroke-opacity:1;stroke-width:1.5px;opacity:1"/></g></g><g class="trace scatter trace469181" style="stroke-miterlimit:2;opacity:1"><g class="lines"><path d="m76.27 333.4 1.76-.66.45-.37 2.2-3.06.44-.85 3.08-7.94.44-1.38 3.08-7.8.44 1.23 3.53 19.58.44 2.42 4.4 20.09.44 1.52 3.08 7.86.44.7 2.21 1.9.44.05 1.76-.86.44-.48 2.2-3.95.44-1.09 3.08-10.17.44-1.78 4.85-23.45.44-2.33 3.52-15.18" class="js-line" style="vector-effect:none;fill:none;stroke:#636efa;stroke-opacity:1;stroke-width:1.5px;opacity:1"/></g></g><g class="trace scatter trace171236" style="stroke-miterlimit:2;opacity:1"><g class="lines"><path d="m76.27 254.11 1.32 1 .44.77 1.77 5.1.44 1.73 3.08 15.77.44 2.63 3.96 21.34.44-.29 1.76-6.48.45-2.02 6.6-33.08.44.97.44 2.87 4.4 23.66.45 1.81 3.52 11.01.44.96 2.64 3.98.44.38 2.2.75.44-.07 2.21-1.29.44-.44 5.28-6.27" class="js-line" style="vector-effect:none;fill:none;stroke:#636efa;stroke-opacity:1;stroke-width:1.5px;opacity:1"/></g></g><g class="trace scatter trace3ba531" style="stroke-miterlimit:2;opacity:1"><g class="lines"><path d="m76.27 216.64 2.65.68.44.24 3.08 2.66.44.5 4.4 6.45.44.76 4.85 9.94.44 1.16 2.2 8.49.44 2.53 1.32 8.57.44-.1.44-2 2.2-7.78.44.95 16.74 36.71.44 2.3 2.64 10.2" class="js-line" style="vector-effect:none;fill:none;stroke:#636efa;stroke-opacity:1;stroke-width:1.5px;opacity:1"/></g></g><g class="trace scatter trace16613b" style="stroke-miterlimit:2;opacity:1"><g class="lines"><path d="m76.27 44.89 3.53-.7.44-.18 3.52-1.54.44 2.82 2.64 22.09.44 4.82 2.2 35.13.44 13.39 1.33 65.73.44 8.36 2.64 32.64.44 3.45 2.2 10.3.44 1.28 2.64 5.19.44-1.48 2.65-6.09.44-.49 1.32-.49.44.17 1.32 1.5.44.82 2.2 6.22.44 1.62 3.96 18.27.44 2.3 3.97 17.37.44.84 1.76 1.92" class="js-line" style="vector-effect:none;fill:none;stroke:#636efa;stroke-opacity:1;stroke-width:1.5px;opacity:1"/></g></g><g class="trace scatter trace683461" style="stroke-miterlimit:2;opacity:1"><g class="lines"><path d="m76.27 32.45 5.29-.51.44 1.2 1.76 8.67.44-.36.44-.38 5.28-5.68.45-.55 10.56-13.25.44-.35 15.42-11.83.44-.24 3.08-1.39" class="js-line" style="vector-effect:none;fill:none;stroke:#636efa;stroke-opacity:1;stroke-width:1.5px;opacity:1"/></g></g><g class="trace scatter tracee48379" style="stroke-miterlimit:2;opacity:1"><g class="lines"><path d="m76.27 20.67 1.32.65.44.5 1.77 3.5.44 1.24 2.2 5.19.44-.1 6.6-2.42.44-.22 7.05-4.37.44-.32 2.64-2.82.44-.6 7.05-8.45.44-.42 4.84-3.59.44-.21 3.97-.98.44.01 2.64.52" class="js-line" style="vector-effect:none;fill:none;stroke:#636efa;stroke-opacity:1;stroke-width:1.5px;opacity:1"/></g></g><g class="trace scatter trace363ae1" style="stroke-miterlimit:2;opacity:1"><g class="lines"><path d="m120.31 307.4 1.76 5.36.88 3.74 5.29 19.05.88 2.33 3.52 6.57.88.94 2.64 1.21.88-.11 3.53-1.5.88.78 1.76 6.3.88 4.29 5.28 22.68.88 2.64 2.65 5.39.88.9 1.76.4.88-.53 1.76-2.51.88-2 2.64-8.97.88-3.97 3.53-20.68.88-6.33 4.4-38.26.88-8.88 6.17-58.8.88-3.41 3.52-7.63.88-1.5 5.29-10.09.88-2.03 5.28-14.88.88-2.92 7.05-26.82.88-3.59 3.52-13.89.88-7.44" class="js-line" style="vector-effect:none;fill:none;stroke:#636efa;stroke-opacity:1;stroke-width:1.5px;opacity:1"/></g></g><g class="trace scatter tracea5ccc4" style="stroke-miterlimit:2;opacity:1"><g class="lines"><path d="m120.31 298.9 1.76 2.01.88 1.83 12.33 27.49.88 1.4 3.53 4.16.88.64 2.64.84.88-.11 2.64-1.57.88-.96 2.64-4.27.89-1.89 3.52-10.03.88-3.13 4.4-19.49.88-4.67 5.29-33.9.88-6.72 1.76-9.53.88-2.22 6.17-16.29.88-5.09 1.76-20.39.88-18.81.88-46.63.88-.7 4.4-2.59.88-.29 3.53-.3.88.13 4.4 1.84.88.58 5.29 4.71.88.95 3.52 4.09.88 9.36.88.37.88-6.48" class="js-line" style="vector-effect:none;fill:none;stroke:#636efa;stroke-opacity:1;stroke-width:1.5px;opacity:1"/></g></g><g class="trace scatter trace5d58be" style="stroke-miterlimit:2;opacity:1"><g class="lines"><path d="m120.31 298.9 1.76-5.37.88-3.51 2.64-8.25.88-1.62 1.77-1.16.88.5 1.76 3.16.88 2.59 2.64 11.1.88 4.56 6.17 32.69.88 1.01 1.76-2.28.88-2.1 4.4-14.46.88-3.42 16.74-66.48.88-2.5 3.52-33.38.88-10.47 1.76-28.72.88-35.88 2.65-1.21.88-.68.88-.73.88-10.98 1.76-38.45.88-10.52.88-6.85.88-.69 5.29-4.8.88 2.22 4.4 17.08.88 4.01 6.17 32.38.88 5.16 3.52 20.22.88 1.08.88 1.09" class="js-line" style="vector-effect:none;fill:none;stroke:#636efa;stroke-opacity:1;stroke-width:1.5px;opacity:1"/></g></g><g class="trace scatter trace0a5149" style="stroke-miterlimit:2;opacity:1"><g class="lines"><path d="m120.31 290.15 1.76-2.08.88-2.02 6.17-18.12.88-2.68 7.04-18.68.88-1.86 5.29-9.14.88-1.3 6.16-9.92.89-1.83 3.52-9.44.88-3.06 3.52-16.76.88-5.9 1.76-16.38.88-15.38 1.77-39.32.88 2.43 5.28 12.17.88 1.42 2.64 2.48.88-10.25 1.77-29.83.88-8.44 2.64-16.75.88-2.32 1.76-1.07.88-1.92 1.76-7.99.88-.44 1.77.41.88 1.07.88 2.25.88-.21 2.64 6.22.88 2.64 4.4 16.92.89 4.03 6.16 32.76.88 5.33 1.76 12.44" class="js-line" style="vector-effect:none;fill:none;stroke:#636efa;stroke-opacity:1;stroke-width:1.5px;opacity:1"/></g></g><g class="trace scatter traceef45dc" style="stroke-miterlimit:2;opacity:1"><g class="lines"><path d="m120.31 7.78 3.52 2.07.88.77 4.41 5.37.88 1.38 5.28 10.27.88 2.03 6.17 16.36.88 2.61 10.57 34.22.88 2.94 8.81 27.97.88-3.98 3.52-27.39.88-4.96 2.64-10.82.88.58 3.53 1.23.88.03 3.52-.84.88-1.84 2.64-7.33.88-1.36 1.76-6.31.89 1.75 3.52 6.62.88-.84 3.52-3.24.88 3.22 4.41 24.6.88 5.85 7.04 50.89" class="js-line" style="vector-effect:none;fill:none;stroke:#636efa;stroke-opacity:1;stroke-width:1.5px;opacity:1"/></g></g><g class="trace scatter trace31ae03" style="stroke-miterlimit:2;opacity:1"><g class="lines"><path d="m120.31 7.78 4.4-.94.88-.02 4.41.85.88.36 4.4 2.85.88.77 5.29 6.02.88 1.22 6.16 10.01.88 1.6 16.74 30.49.88 1.17 3.52 3.78.88-.75 3.52-11.34.89-2.03 2.64-4.24.88-.81 1.76-.72.88.08 1.76 1.02.88.94.88 1.21.88-.32 1.77-4.66.88-1.05 1.76.14.88 1.08 1.76 3.95.88 2.8.88 3.29.88-.21 6.17-4.09.88-.39 4.4-1.05.88-.03" class="js-line" style="vector-effect:none;fill:none;stroke:#636efa;stroke-opacity:1;stroke-width:1.5px;opacity:1"/></g></g><g class="trace scatter trace3fdec8" style="stroke-miterlimit:2;opacity:1"><g class="lines"><path d="m208.38 143.24 14.23-4.4.22-.04 6.89-.83.22-.01.67-.02" class="js-line" style="vector-effect:none;fill:none;stroke:#636efa;stroke-opacity:1;stroke-width:1.5px;opacity:1"/></g></g><g class="trace scatter traceb3c866" style="stroke-miterlimit:2;opacity:1"><g class="lines"><path d="m208.38 143.24 14.23-4.4.22-.04 6.89-.83.22-.01.67-.02" class="js-line" style="vector-effect:none;fill:none;stroke:#636efa;stroke-opacity:1;stroke-width:1.5px;opacity:1"/></g></g><g class="trace scatter trace52a678" style="stroke-miterlimit:2;opacity:1"><g class="lines"><path d="m208.38 143.24 2.45-3.68.22-.01 11.78-1.28.22-.02 7.56-.31" class="js-line" style="vector-effect:none;fill:none;stroke:#636efa;stroke-opacity:1;stroke-width:1.5px;opacity:1"/></g></g><g class="trace scatter trace7fb905" style="stroke-miterlimit:2;opacity:1"><g class="lines"><path d="m208.38 139.63 9.34-.75.22-.03 12.23-.92h.22l.22.01" class="js-line" style="vector-effect:none;fill:none;stroke:#636efa;stroke-opacity:1;stroke-width:1.5px;opacity:1"/></g></g><g class="trace scatter trace9edeab" style="stroke-miterlimit:2;opacity:1"><g class="lines"><path d="m208.38 139.63 2-.74.23-.5 5.77-14.89.23-.66 7.11-24.32.22-.81 6.67-23.09" class="js-line" style="vector-effect:none;fill:none;stroke:#636efa;stroke-opacity:1;stroke-width:1.5px;opacity:1"/></g></g><g class="trace scatter traceb284ee" style="stroke-miterlimit:2;opacity:1"><g class="lines"><path d="m208.38 48.76 6.45.73.22.07 3.56 1.88.22.17 3.56 3.99.22.33 3.78 7.2.22.52 4 10.97" class="js-line" style="vector-effect:none;fill:none;stroke:#636efa;stroke-opacity:1;stroke-width:1.5px;opacity:1"/></g></g><g class="trace scatter trace71a194" style="stroke-miterlimit:2;opacity:1"><g class="lines"><path d="m230.61 137.94 1.53-1.79.76-1.73 9.91-24.08.77-1.29 3.05-3.81.76-.58 2.29-.69.76.15 2.29 1.75.76 1.08 2.29 5.1.76 2.5 2.29 12 .76 8.48 1.53 28.01.76 5.45 3.05 18.93.77 8.2 3.81 29.85.76 4.6 3.82 18.15.76 2.73 3.05 8.15.76 1.35 2.29 2.43.76.29 1.53-.21.76-.49 2.29-2.93.76-1.45 3.05-7.99.77-2.51 4.57-18.45.77-3.51 7.62-33.47.77-2.07 1.52-2.52.76-.32" class="js-line" style="vector-effect:none;fill:none;stroke:#636efa;stroke-opacity:1;stroke-width:1.5px;opacity:1"/></g></g><g class="trace scatter trace04e132" style="stroke-miterlimit:2;opacity:1"><g class="lines"><path d="m230.61 137.94 1.53-1.79.76-1.73 9.91-24.08.77-1.29 3.05-3.81.76-.58 2.29-.69.76.15 2.29 1.75.76 1.08 2.29 5.1.76 2.5 2.29 12 .76 8.48 1.53 28.01.76 5.45 3.05 18.93.77 8.2 3.81 29.85.76 4.6 3.82 18.15.76 2.73 3.05 8.15.76 1.35 2.29 2.43.76.29 1.53-.21.76-.49 2.29-2.93.76-1.45 3.05-7.99.77-2.51 4.57-18.45.77-3.51 7.62-33.47.77-2.07 1.52-2.52.76-.32" class="js-line" style="vector-effect:none;fill:none;stroke:#636efa;stroke-opacity:1;stroke-width:1.5px;opacity:1"/></g></g><g class="trace scatter trace3d2562" style="stroke-miterlimit:2;opacity:1"><g class="lines"><path d="m230.61 137.94.76-1.35.77-2.95 8.39-36.01.76-2.15 3.05-5.48.76-.66 2.29-.8.76.01 3.82 1.18.76.37 6.86 4.32.77 2.45 1.52 14.79.77 14.09 1.52 51.78.76 6.81 4.58 16.06.76 2.04 3.82 7.65.76 1.02 3.05 2.3.76.12 2.29-.74.76-.62 2.29-3.04.76-1.41 3.06-7.74.76-2.5 3.05-12.77.76-4.1 2.29-16.78.76-10.25 1.53-32.77.76-5.7 3.05-14.09.76-2.28 3.06-5.77.76-.69 1.52-.56" class="js-line" style="vector-effect:none;fill:none;stroke:#636efa;stroke-opacity:1;stroke-width:1.5px;opacity:1"/></g></g><g class="trace scatter trace00a005" style="stroke-miterlimit:2;opacity:1"><g class="lines"><path d="m230.61 137.94.76-1.35.77-2.95 8.39-36.01.76-2.15 3.05-5.48.76-.66 2.29-.8.76.01 3.82 1.18.76.37 6.86 4.32.77 2.45 1.52 14.79.77 14.09 1.52 51.78.76 6.81 4.58 16.06.76 2.04 3.82 7.65.76 1.02 3.05 2.3.76.12 2.29-.74.76-.62 2.29-3.04.76-1.41 3.06-7.74.76-2.5 3.05-12.77.76-4.1 2.29-16.78.76-10.25 1.53-32.77.76-5.7 3.05-14.09.76-2.28 3.06-5.77.76-.69 1.52-.56" class="js-line" style="vector-effect:none;fill:none;stroke:#636efa;stroke-opacity:1;stroke-width:1.5px;opacity:1"/></g></g><g class="trace scatter trace017709" style="stroke-miterlimit:2;opacity:1"><g class="lines"><path d="m230.61 74.62 7.63-.66.76-.27 3.05-2.11.76-.85 6.11-7.16.76-.34 1.52.04.77.42 2.28 3.1.77 1.71 2.29 7.59.76 3.45 3.05 13.34.76.48 3.05.18.77-.21 3.05-1.76.76-.68 3.81-4.72.77-1.19 5.34-10.01.76-1.6 13.73-27.84.76-1.2 4.58-5.84.76-.73 3.81-2.51.77-.27 2.28-.35" class="js-line" style="vector-effect:none;fill:none;stroke:#636efa;stroke-opacity:1;stroke-width:1.5px;opacity:1"/></g></g><g class="trace scatter tracebbd9e6" style="stroke-miterlimit:2;opacity:1"><g class="lines"><path d="m230.61 74.62 7.63-.66.76-.27 3.05-2.11.76-.85 6.11-7.16.76-.34 1.52.04.77.42 2.28 3.1.77 1.71 2.29 7.59.76 3.45 3.05 13.34.76.48 3.05.18.77-.21 3.05-1.76.76-.68 3.81-4.72.77-1.19 5.34-10.01.76-1.6 13.73-27.84.76-1.2 4.58-5.84.76-.73 3.81-2.51.77-.27 2.28-.35" class="js-line" style="vector-effect:none;fill:none;stroke:#636efa;stroke-opacity:1;stroke-width:1.5px;opacity:1"/></g></g><g class="trace scatter tracea0f3c1" style="stroke-miterlimit:2;opacity:1"><g class="lines"><path d="m306.88 187.25 6.17.38.44.39.88 3.55.44 4.26 5.28 49.33.44 3.42 5.29 34.2.44 2.28 3.96 16.6.44 1.4 3.09 7.35.44.7 2.64 2.4.44.1 1.76-.36.44-.29 2.2-2.53.44-.71 3.09-6.7.44-1.18 4.84-15.39.44-1.5" class="js-line" style="vector-effect:none;fill:none;stroke:#636efa;stroke-opacity:1;stroke-width:1.5px;opacity:1"/></g></g><g class="trace scatter trace701539" style="stroke-miterlimit:2;opacity:1"><g class="lines"><path d="m306.88 187.25 6.17.38.44.39.88 3.55.44 4.26 5.28 49.33.44 3.42 5.29 34.2.44 2.28 3.96 16.6.44 1.4 3.09 7.35.44.7 2.64 2.4.44.1 1.76-.36.44-.29 2.2-2.53.44-.71 3.09-6.7.44-1.18 4.84-15.39.44-1.5" class="js-line" style="vector-effect:none;fill:none;stroke:#636efa;stroke-opacity:1;stroke-width:1.5px;opacity:1"/></g></g><g class="trace scatter trace027ed2" style="stroke-miterlimit:2;opacity:1"><g class="lines"><path d="m306.88 91.72.88.7.44.87 1.33 4.96.44 2.56 1.32 11.79.44 6.31.44 9.57.44 28.22 1.76 27.79.44 1.29 2.2 1.47.44.23 3.08 2.31.45.47 3.08 4.47.44.81 3.96 9.12.44 1.2 5.73 18.15.44 1.55 14.09 53.05.44 1.6 1.32 4.66" class="js-line" style="vector-effect:none;fill:none;stroke:#636efa;stroke-opacity:1;stroke-width:1.5px;opacity:1"/></g></g><g class="trace scatter trace2629f1" style="stroke-miterlimit:2;opacity:1"><g class="lines"><path d="m306.88 91.72.88.7.44.87 1.33 4.96.44 2.56 1.32 11.79.44 6.31.44 9.57.44 28.22 1.76 27.79.44 1.29 2.2 1.47.44.23 3.08 2.31.45.47 3.08 4.47.44.81 3.96 9.12.44 1.2 5.73 18.15.44 1.55 14.09 53.05.44 1.6 1.32 4.66" class="js-line" style="vector-effect:none;fill:none;stroke:#636efa;stroke-opacity:1;stroke-width:1.5px;opacity:1"/></g></g><g class="trace scatter tracedafcfa" style="stroke-miterlimit:2;opacity:1"><g class="lines"><path d="m306.88 34.63 5.29-.75.44-.11 7.92-2.73.45-.21 6.16-3.77.44-.32 17.62-13.37.44-.19 4.4-1.16.44-.03.44-.01" class="js-line" style="vector-effect:none;fill:none;stroke:#636efa;stroke-opacity:1;stroke-width:1.5px;opacity:1"/></g></g><g class="trace scatter tracea3dbcc" style="stroke-miterlimit:2;opacity:1"><g class="lines"><path d="m306.88 34.63 5.29-.75.44-.11 7.92-2.73.45-.21 6.16-3.77.44-.32 17.62-13.37.44-.19 4.4-1.16.44-.03.44-.01" class="js-line" style="vector-effect:none;fill:none;stroke:#636efa;stroke-opacity:1;stroke-width:1.5px;opacity:1"/></g></g><g class="trace scatter trace27b91f" style="stroke-miterlimit:2;opacity:1"><g class="lines"><path d="m350.92 284.95 7.05 22.08.88 2.31 5.28 11.22.88 1.38 3.52 3.96.89.59 2.64.74.88-.1 2.64-1.34.88-.8 3.52-4.98.88-1.68 3.53-8.44.88-2.53 5.28-18.39.88-3.56 7.05-32.69.88-4.53 10.57-59.21.88-5.44 3.52-27.58.88-23.16 1.76-13.01.89-3.44 2.64-5.81.88-.91 1.76-.66.88.18 2.64 2.33.88 1.29 3.53 7.06.88 2.14 6.16 15.31.88.66" class="js-line" style="vector-effect:none;fill:none;stroke:#636efa;stroke-opacity:1;stroke-width:1.5px;opacity:1"/></g></g><g class="trace scatter traceb1b41b" style="stroke-miterlimit:2;opacity:1"><g class="lines"><path d="m350.92 284.95 7.05 22.08.88 2.31 5.28 11.22.88 1.38 3.52 3.96.89.59 2.64.74.88-.1 2.64-1.34.88-.8 3.52-4.98.88-1.68 3.53-8.44.88-2.53 5.28-18.39.88-3.56 7.05-32.69.88-4.53 10.57-59.21.88-5.44 3.52-27.58.88-23.16 1.76-13.01.89-3.44 2.64-5.81.88-.91 1.76-.66.88.18 2.64 2.33.88 1.29 3.53 7.06.88 2.14 6.16 15.31.88.66" class="js-line" style="vector-effect:none;fill:none;stroke:#636efa;stroke-opacity:1;stroke-width:1.5px;opacity:1"/></g></g><g class="trace scatter trace64bc4d" style="stroke-miterlimit:2;opacity:1"><g class="lines"><path d="m350.92 284.87 7.93-25 .88-1.87 2.64-3.75.88-.57 1.76-.13.88.44 2.64 3.03.89 1.48 5.28 11.38.88 1.97 4.4 8.24.88 1.16 2.65 2.12.88.21 1.76-.39.88-.63 2.64-3.71.88-1.86 3.53-10.71.88-3.51 3.52-17.54.88-5.31 3.52-25.7.88-7.91 2.65-32.06.88-25.13 1.76-46.68.88-8.44.88-5.59.88-.75 4.4-2.27.88-.24 3.53.02.88.28 2.64 1.68.88.96 2.64 4.8.88 2.34 3.53 12.76.88 3.84 6.16 26.11" class="js-line" style="vector-effect:none;fill:none;stroke:#636efa;stroke-opacity:1;stroke-width:1.5px;opacity:1"/></g></g><g class="trace scatter trace10cbd1" style="stroke-miterlimit:2;opacity:1"><g class="lines"><path d="m350.92 284.87 7.93-25 .88-1.87 2.64-3.75.88-.57 1.76-.13.88.44 2.64 3.03.89 1.48 5.28 11.38.88 1.97 4.4 8.24.88 1.16 2.65 2.12.88.21 1.76-.39.88-.63 2.64-3.71.88-1.86 3.53-10.71.88-3.51 3.52-17.54.88-5.31 3.52-25.7.88-7.91 2.65-32.06.88-25.13 1.76-46.68.88-8.44.88-5.59.88-.75 4.4-2.27.88-.24 3.53.02.88.28 2.64 1.68.88.96 2.64 4.8.88 2.34 3.53 12.76.88 3.84 6.16 26.11" class="js-line" style="vector-effect:none;fill:none;stroke:#636efa;stroke-opacity:1;stroke-width:1.5px;opacity:1"/></g></g><g class="trace scatter trace6d958f" style="stroke-miterlimit:2;opacity:1"><g class="lines"><path d="m350.92 11.98 4.4.95.88.44 3.53 2.57.88.86 4.4 5.55.88 1.35 6.17 11.45.88 1.88 9.69 23.02.88 2.16 7.92 17.8.88 1.63 4.41 6.47.88.91 3.52 2.23.88.21 3.53-.36.88-.34 3.52-2.04.88-1.63 2.64-13.25.88-2.95 2.64-5.5.89-.89 1.76-.59.88.23 2.64 2.23.88 1.08 4.4 5.02.88.61 3.53 1.22.88.12 5.28.2" class="js-line" style="vector-effect:none;fill:none;stroke:#636efa;stroke-opacity:1;stroke-width:1.5px;opacity:1"/></g></g><g class="trace scatter traceb26497" style="stroke-miterlimit:2;opacity:1"><g class="lines"><path d="m350.92 11.98 4.4.95.88.44 3.53 2.57.88.86 4.4 5.55.88 1.35 6.17 11.45.88 1.88 9.69 23.02.88 2.16 7.92 17.8.88 1.63 4.41 6.47.88.91 3.52 2.23.88.21 3.53-.36.88-.34 3.52-2.04.88-1.63 2.64-13.25.88-2.95 2.64-5.5.89-.89 1.76-.59.88.23 2.64 2.23.88 1.08 4.4 5.02.88.61 3.53 1.22.88.12 5.28.2" class="js-line" style="vector-effect:none;fill:none;stroke:#636efa;stroke-opacity:1;stroke-width:1.5px;opacity:1"/></g></g><g class="trace scatter traceb2bb0d" style="stroke-miterlimit:2;opacity:1"><g class="lines"><path d="m438.99 187.25 5.12 57.43.22 2.16 5.33 44.73.22 1.55 4.67 26.1.22.92 3.34 10.15.22.43 2.22 2.54.23.08.44.06" class="js-line" style="vector-effect:none;fill:none;stroke:#636efa;stroke-opacity:1;stroke-width:1.5px;opacity:1"/></g></g><g class="trace scatter trace757bf9" style="stroke-miterlimit:2;opacity:1"><g class="lines"><path d="m438.99 187.25 1.56-27.12.22-7.54.22-19.39.23 20.97.22 8.92 1.78 30.54.22 2.51 2.89 23.99.22 1.39 3.33 16.05.23.8 3.33 9.04.22.43 3.34 4.51.22.18 2.89 1.46.22.04.89.08" class="js-line" style="vector-effect:none;fill:none;stroke:#636efa;stroke-opacity:1;stroke-width:1.5px;opacity:1"/></g></g><g class="trace scatter tracea122ee" style="stroke-miterlimit:2;opacity:1"><g class="lines"><path d="m438.99 91.72 1.56 24.88.22 5.84.22 8.31.45-8.69.22-3.48 1.78-14.64.22-.95 1.56-3.36.22-.07.89.65.22.4 1.33 4.39.23 1.11 1.55 11.95.22 2.66.67 12.44.22 16.49 1.56 26.93.22 2.31 2.89 21.81.22 1.22 2.89 11.36.23.54 2 2.72.22.07.22.03" class="js-line" style="vector-effect:none;fill:none;stroke:#636efa;stroke-opacity:1;stroke-width:1.5px;opacity:1"/></g></g><g class="trace scatter trace951ae4" style="stroke-miterlimit:2;opacity:1"><g class="lines"><path d="m438.99 91.72 3.34-30.01.22-1.51 3.56-18.95.22-.9.66-.02.23.14 6.89 3.26.22.07 5.78 1.06.22.01.89.02" class="js-line" style="vector-effect:none;fill:none;stroke:#636efa;stroke-opacity:1;stroke-width:1.5px;opacity:1"/></g></g><g class="trace scatter tracebf49b8" style="stroke-miterlimit:2;opacity:1"><g class="lines"><path d="m438.99 34.63 7.34 5.28.22-.44.22-.85 2.45-6.69.22.02 11.78.5" class="js-line" style="vector-effect:none;fill:none;stroke:#636efa;stroke-opacity:1;stroke-width:1.5px;opacity:1"/></g></g><g class="trace scatter tracea5ee7b" style="stroke-miterlimit:2;opacity:1"><g class="lines"><path d="m438.99 34.63 5.34-2.62.22-.04 4.45-.4.22-.57 3.11-5.95.22-.3 3.11-2.79.23-.12 3.33-1.04.22-.03 1.78-.1" class="js-line" style="vector-effect:none;fill:none;stroke:#636efa;stroke-opacity:1;stroke-width:1.5px;opacity:1"/></g></g><g class="trace scatter trace6fe8c1" style="stroke-miterlimit:2;opacity:1"><g class="lines"><path d="m461.22 284.95 2.45 3.6.22.35 8.67 12.88.22.24 4.22 3.54.22.13 4.23 1.54.22.03 1.78.14" class="js-line" style="vector-effect:none;fill:none;stroke:#636efa;stroke-opacity:1;stroke-width:1.5px;opacity:1"/></g></g><g class="trace scatter trace8e4b2d" style="stroke-miterlimit:2;opacity:1"><g class="lines"><path d="m461.22 284.95 3.56.9.22.12 4.22 3.12.22.21 10.67 8.87.23.09 3.11.64" class="js-line" style="vector-effect:none;fill:none;stroke:#636efa;stroke-opacity:1;stroke-width:1.5px;opacity:1"/></g></g><g class="trace scatter traceaa55db" style="stroke-miterlimit:2;opacity:1"><g class="lines"><path d="m461.22 284.87 6.45 2.89.22.18 12.67 10.41.22.08 2.67.47" class="js-line" style="vector-effect:none;fill:none;stroke:#636efa;stroke-opacity:1;stroke-width:1.5px;opacity:1"/></g></g><g class="trace scatter trace679654" style="stroke-miterlimit:2;opacity:1"><g class="lines"><path d="m461.22 284.87 3.78-3.96.22-.15 2.67-.8.22.01 2.67.94.22.14 4.22 3.77.23.23 5.55 4.53.23.1 2.22.47" class="js-line" style="vector-effect:none;fill:none;stroke:#636efa;stroke-opacity:1;stroke-width:1.5px;opacity:1"/></g></g><g class="trace scatter traceda9898" style="stroke-miterlimit:2;opacity:1"><g class="lines"><path d="m461.22 11.98 6-.72.22-.05 16.01-3.43" class="js-line" style="vector-effect:none;fill:none;stroke:#636efa;stroke-opacity:1;stroke-width:1.5px;opacity:1"/></g></g><g class="trace scatter trace7d465f" style="stroke-miterlimit:2;opacity:1"><g class="lines"><path d="m461.22 11.98 6-.72.22-.05 16.01-3.43" class="js-line" style="vector-effect:none;fill:none;stroke:#636efa;stroke-opacity:1;stroke-width:1.5px;opacity:1"/></g></g></g></g><path d="M70 443.5h485.448M70 39.5h485.448" class="xlines-above crisp" style="fill:none;stroke-width:1px;stroke:#000;stroke-opacity:1"/><path d="M70.5 40v403M554.948 40v403" class="ylines-above crisp" style="fill:none;stroke-width:1px;stroke:#000;stroke-opacity:1"/><g class="xaxislayer-above"><path d="M0 444v5" class="xtick ticks crisp" style="stroke:#444;stroke-opacity:1;stroke-width:1px" transform="translate(71)"/><path d="M0 444v5" class="xtick ticks crisp" style="stroke:#444;stroke-opacity:1;stroke-width:1px" transform="translate(147.27)"/><path d="M0 444v5" class="xtick ticks crisp" style="stroke:#444;stroke-opacity:1;stroke-width:1px" transform="translate(191.31)"/><path d="M0 444v5" class="xtick ticks crisp" style="stroke:#444;stroke-opacity:1;stroke-width:1px" transform="translate(279.38)"/><path d="M0 444v5" class="xtick ticks crisp" style="stroke:#444;stroke-opacity:1;stroke-width:1px" transform="translate(301.61)"/><path d="M0 444v5" class="xtick ticks crisp" style="stroke:#444;stroke-opacity:1;stroke-width:1px" transform="translate(377.88)"/><path d="M0 444v5" class="xtick ticks crisp" style="stroke:#444;stroke-opacity:1;stroke-width:1px" transform="translate(421.92)"/><path d="M0 444v5" class="xtick ticks crisp" style="stroke:#444;stroke-opacity:1;stroke-width:1px" transform="translate(509.99)"/><path d="M0 444v5" class="xtick ticks crisp" style="stroke:#444;stroke-opacity:1;stroke-width:1px" transform="translate(532.22)"/><path d="M0 444v5" class="xtick ticks crisp" style="stroke:#444;stroke-opacity:1;stroke-width:1px" transform="translate(554.45)"/><text y="468.2" class="xtick" style="font-family:&quot;Open Sans&quot;,verdana,arial,sans-serif;font-size:16px;fill:#000;fill-opacity:1;white-space:pre;opacity:1" text-anchor="middle" transform="translate(71)">Γ</text><text y="468.2" class="xtick" style="font-family:&quot;Open Sans&quot;,verdana,arial,sans-serif;font-size:16px;fill:#000;fill-opacity:1;white-space:pre;opacity:1" text-anchor="middle" transform="translate(147.27)">M</text><text y="468.2" class="xtick" style="font-family:&quot;Open Sans&quot;,verdana,arial,sans-serif;font-size:16px;fill:#000;fill-opacity:1;white-space:pre;opacity:1" text-anchor="middle" transform="translate(191.31)">K</text><text y="468.2" class="xtick" style="font-family:&quot;Open Sans&quot;,verdana,arial,sans-serif;font-size:16px;fill:#000;fill-opacity:1;white-space:pre;opacity:1" text-anchor="middle" transform="translate(279.38)">Γ</text><text y="468.2" class="xtick" style="font-family:&quot;Open Sans&quot;,verdana,arial,sans-serif;font-size:16px;fill:#000;fill-opacity:1;white-space:pre;opacity:1" text-anchor="middle" transform="translate(301.61)">A</text><text y="468.2" class="xtick" style="font-family:&quot;Open Sans&quot;,verdana,arial,sans-serif;font-size:16px;fill:#000;fill-opacity:1;white-space:pre;opacity:1" text-anchor="middle" transform="translate(377.88)">L</text><text y="468.2" class="xtick" style="font-family:&quot;Open Sans&quot;,verdana,arial,sans-serif;font-size:16px;fill:#000;fill-opacity:1;white-space:pre;opacity:1" text-anchor="middle" transform="translate(421.92)">H</text><text y="468.2" class="xtick" style="font-family:&quot;Open Sans&quot;,verdana,arial,sans-serif;font-size:16px;fill:#000;fill-opacity:1;white-space:pre;opacity:1" text-anchor="middle" transform="translate(509.99)">A|L</text><text y="468.2" class="xtick" style="font-family:&quot;Open Sans&quot;,verdana,arial,sans-serif;font-size:16px;fill:#000;fill-opacity:1;white-space:pre;opacity:1" text-anchor="middle" transform="translate(532.22)">M|H</text><text y="468.2" class="xtick" style="font-family:&quot;Open Sans&quot;,verdana,arial,sans-serif;font-size:16px;fill:#000;fill-opacity:1;white-space:pre;opacity:1" text-anchor="middle" transform="translate(554.45)">K</text></g><g class="yaxislayer-above"><path d="M70 0h-5" class="ytick ticks crisp" style="stroke:#444;stroke-opacity:1;stroke-width:1px" transform="translate(0 396.36)"/><path d="M70 0h-5" class="ytick ticks crisp" style="stroke:#444;stroke-opacity:1;stroke-width:1px" transform="translate(0 325.32)"/><path d="M70 0h-5" class="ytick ticks crisp" style="stroke:#444;stroke-opacity:1;stroke-width:1px" transform="translate(0 254.28)"/><path d="M70 0h-5" class="ytick ticks crisp" style="stroke:#444;stroke-opacity:1;stroke-width:1px" transform="translate(0 183.24)"/><path d="M70 0h-5" class="ytick ticks crisp" style="stroke:#444;stroke-opacity:1;stroke-width:1px" transform="translate(0 112.2)"/><path d="M70 0h-5" class="ytick ticks crisp" style="stroke:#444;stroke-opacity:1;stroke-width:1px" transform="translate(0 41.16)"/><text x="61.8" y="5.6" class="ytick" style="font-family:&quot;Open Sans&quot;,verdana,arial,sans-serif;font-size:16px;fill:#000;fill-opacity:1;white-space:pre;opacity:1" text-anchor="end" transform="translate(0 396.36)">−60</text><text x="61.8" y="5.6" class="ytick" style="font-family:&quot;Open Sans&quot;,verdana,arial,sans-serif;font-size:16px;fill:#000;fill-opacity:1;white-space:pre;opacity:1" text-anchor="end" transform="translate(0 325.32)">−40</text><text x="61.8" y="5.6" class="ytick" style="font-family:&quot;Open Sans&quot;,verdana,arial,sans-serif;font-size:16px;fill:#000;fill-opacity:1;white-space:pre;opacity:1" text-anchor="end" transform="translate(0 254.28)">−20</text><text x="61.8" y="5.6" class="ytick" style="font-family:&quot;Open Sans&quot;,verdana,arial,sans-serif;font-size:16px;fill:#000;fill-opacity:1;white-space:pre;opacity:1" text-anchor="end" transform="translate(0 183.24)">0</text><text x="61.8" y="5.6" class="ytick" style="font-family:&quot;Open Sans&quot;,verdana,arial,sans-serif;font-size:16px;fill:#000;fill-opacity:1;white-space:pre;opacity:1" text-anchor="end" transform="translate(0 112.2)">20</text><text x="61.8" y="5.6" class="ytick" style="font-family:&quot;Open Sans&quot;,verdana,arial,sans-serif;font-size:16px;fill:#000;fill-opacity:1;white-space:pre;opacity:1" text-anchor="end" transform="translate(0 41.16)">40</text></g></g><g class="subplot x2y2"><g class="gridlayer"><g class="x2"><path d="M0 40v403" class="x2grid crisp" style="stroke:#d3d3d3;stroke-opacity:1;stroke-width:1px" transform="translate(615.488)"/><path d="M0 40v403" class="x2grid crisp" style="stroke:#d3d3d3;stroke-opacity:1;stroke-width:1px" transform="translate(657.828)"/></g><g class="y2"><path d="M573.138 0H694" class="y2grid crisp" style="stroke:#d3d3d3;stroke-opacity:1;stroke-width:1px" transform="translate(0 396.36)"/><path d="M573.138 0H694" class="y2grid crisp" style="stroke:#d3d3d3;stroke-opacity:1;stroke-width:1px" transform="translate(0 325.32)"/><path d="M573.138 0H694" class="y2grid crisp" style="stroke:#d3d3d3;stroke-opacity:1;stroke-width:1px" transform="translate(0 254.28)"/><path d="M573.138 0H694" class="y2grid crisp" style="stroke:#d3d3d3;stroke-opacity:1;stroke-width:1px" transform="translate(0 112.2)"/><path d="M573.138 0H694" class="y2grid crisp" style="stroke:#d3d3d3;stroke-opacity:1;stroke-width:1px" transform="translate(0 41.16)"/></g></g><g class="zerolinelayer"><path d="M573.138 0H694" class="y2zl zl crisp" style="stroke:#ebf0f8;stroke-opacity:1;stroke-width:2px" transform="translate(0 183.24)"/></g><g class="plot" clip-path="url(#d)" transform="translate(573.138 40)"><g class="scatterlayer mlayer"><g class="trace scatter trace82a7cc" style="stroke-miterlimit:2;opacity:1"><g class="lines"><path d="m0 428.81.25-41.36.57-2.3 8.07-9.19 1.17-2.29 1.29-2.3 2.48-2.3 1-4.6 3.2-2.29 3.24-2.3 1.9-2.3 9.62-6.89-.35-2.3.36-6.89-.92-2.3.66-2.3 4.89-2.3 2.05-4.59 6.35-2.3 7.11-4.6-7.66-2.29.15-2.3 1.21-2.3 3.26-6.89 4.25-2.3 2.85-2.3 5.21-2.3-1.45-2.29-3.38-2.3-2-4.6 6.39-2.3-4.65-2.29-2.04-2.3-1.65-4.6.37-2.29 5.32-9.2.6-2.29.52-2.3-.31-2.3 3.91-2.3-6.81-2.29-1.98-2.3 4.01-2.3 4.77-2.3 2.89-2.3 4.33-2.29.45-2.3-2.13-4.6-1.28-2.29-1.1-2.3-3-2.3-8.16-6.89-2.04-2.3-2.56-2.3-4.63-2.3-3.74-2.29-1.52-2.3-2.14-2.3-1.05-2.3-1.53-2.3-.4-2.29.06-2.3-.88-2.3-6.48-11.49-1.02-2.3-3.86-6.89-1.21-2.3-2.4-6.89-.52-2.3-2.13-20.68-.15-2.3-.1-4.59 2.46-2.3-.14-6.89 1.05-2.3 8.94-4.6-.54-2.29 3.14-2.3-1-2.3 2.89-2.3.96-2.3-4.97-2.29.38-2.3 4.71-2.3 1.51-2.3 4.32-2.29 2.61-2.3 3.89-2.3 6.02-2.3 31.67-2.3-17.3-2.29-.13-2.3 22.82-2.3-2.29-2.3 9.57-2.3 8.84-2.29-7.81-2.3.25-2.3 5.84-2.3 5.84-2.29 9.8-2.3-9.17-2.3-4.74-2.3-12.52-2.3-5.36-2.29-14.19-2.3 2.19-2.3 2.93-2.3-2.04-2.29 2.53-2.3 3.71-2.3-.52-2.3 1.55-2.3 11.32-2.29-1.89-2.3 6.73-2.3-.94-2.3L71.42 29l-10.6-2.3-7.52-2.3-.02-2.3-7.68-4.59.61-2.3-2.5-2.3-17.25-2.3-5.7-2.29L0 6.02v-36.77" class="js-line" style="vector-effect:none;fill:none;stroke:#636efa;stroke-opacity:1;stroke-width:1.5px;opacity:1"/></g></g></g></g><path d="M572.138 443.5H695m-122.862-404H695" class="xlines-above crisp" style="fill:none;stroke-width:1px;stroke:#000;stroke-opacity:1"/><path d="M572.638 40v403M694.5 40v403" class="ylines-above crisp" style="fill:none;stroke-width:1px;stroke:#000;stroke-opacity:1"/><g class="xaxislayer-above"><path d="M0 444v5" class="x2tick ticks crisp" style="stroke:#444;stroke-opacity:1;stroke-width:1px" transform="translate(573.138)"/><path d="M0 444v5" class="x2tick ticks crisp" style="stroke:#444;stroke-opacity:1;stroke-width:1px" transform="translate(615.488)"/><path d="M0 444v5" class="x2tick ticks crisp" style="stroke:#444;stroke-opacity:1;stroke-width:1px" transform="translate(657.828)"/><text y="468.2" class="x2tick" style="font-family:&quot;Open Sans&quot;,verdana,arial,sans-serif;font-size:16px;fill:#000;fill-opacity:1;white-space:pre;opacity:1" text-anchor="middle" transform="translate(573.138)">0</text><text y="468.2" class="x2tick" style="font-family:&quot;Open Sans&quot;,verdana,arial,sans-serif;font-size:16px;fill:#000;fill-opacity:1;white-space:pre;opacity:1" text-anchor="middle" transform="translate(615.488)">0.05</text><text y="468.2" class="x2tick" style="font-family:&quot;Open Sans&quot;,verdana,arial,sans-serif;font-size:16px;fill:#000;fill-opacity:1;white-space:pre;opacity:1" text-anchor="middle" transform="translate(657.828)">0.1</text></g><g class="yaxislayer-above"><path d="M572.138 0h-5" class="y2tick ticks crisp" style="stroke:#444;stroke-opacity:1;stroke-width:1px" transform="translate(0 396.36)"/><path d="M572.138 0h-5" class="y2tick ticks crisp" style="stroke:#444;stroke-opacity:1;stroke-width:1px" transform="translate(0 325.32)"/><path d="M572.138 0h-5" class="y2tick ticks crisp" style="stroke:#444;stroke-opacity:1;stroke-width:1px" transform="translate(0 254.28)"/><path d="M572.138 0h-5" class="y2tick ticks crisp" style="stroke:#444;stroke-opacity:1;stroke-width:1px" transform="translate(0 183.24)"/><path d="M572.138 0h-5" class="y2tick ticks crisp" style="stroke:#444;stroke-opacity:1;stroke-width:1px" transform="translate(0 112.2)"/><path d="M572.138 0h-5" class="y2tick ticks crisp" style="stroke:#444;stroke-opacity:1;stroke-width:1px" transform="translate(0 41.16)"/></g></g></g><defs><clipPath id="f"><path d="M0 0h75v34H0z"/></clipPath></defs><g class="layer-above"><g class="shapelayer"><g class="shape-group" clip-path="url(#e)" data-index="0"><path fill="none" d="M191.31 443V40" data-index="0" style="opacity:1;stroke:#000;stroke-opacity:1;fill:#000;fill-opacity:0;stroke-width:1px"/></g><g class="shape-group" clip-path="url(#e)" data-index="1"><path fill="none" d="M301.61 443V40" data-index="1" style="opacity:1;stroke:#000;stroke-opacity:1;fill:#000;fill-opacity:0;stroke-width:1px"/></g><g class="shape-group" clip-path="url(#e)" data-index="2"><path fill="none" d="M147.27 443V40" data-index="2" style="opacity:1;stroke:#000;stroke-opacity:1;fill:#000;fill-opacity:0;stroke-width:1px"/></g><g class="shape-group" clip-path="url(#e)" data-index="3"><path fill="none" d="M279.38 443V40" data-index="3" style="opacity:1;stroke:#000;stroke-opacity:1;fill:#000;fill-opacity:0;stroke-width:1px"/></g><g class="shape-group" clip-path="url(#e)" data-index="4"><path fill="none" d="M377.88 443V40" data-index="4" style="opacity:1;stroke:#000;stroke-opacity:1;fill:#000;fill-opacity:0;stroke-width:1px"/></g><g class="shape-group" clip-path="url(#e)" data-index="5"><path fill="none" d="M421.92 443V40" data-index="5" style="opacity:1;stroke:#000;stroke-opacity:1;fill:#000;fill-opacity:0;stroke-width:1px"/></g><g class="shape-group" clip-path="url(#e)" data-index="6"><path fill="none" d="M509.99 443V40" data-index="6" style="opacity:1;stroke:#000;stroke-opacity:1;fill:#000;fill-opacity:0;stroke-width:1px"/></g><g class="shape-group" clip-path="url(#e)" data-index="7"><path fill="none" d="M532.22 443V40" data-index="7" style="opacity:1;stroke:#000;stroke-opacity:1;fill:#000;fill-opacity:0;stroke-width:1px"/></g><g class="shape-group" clip-path="url(#a)" data-index="8"><path fill="none" d="M71 183.24h483.448" data-index="8" style="opacity:1;stroke:#000;stroke-opacity:1;fill:#000;fill-opacity:0;stroke-width:1px"/></g><g class="shape-group" clip-path="url(#b)" data-index="9"><path fill="none" d="M573.138 183.24H694" data-index="9" style="opacity:1;stroke:#000;stroke-opacity:1;fill:#000;fill-opacity:0;stroke-width:1px"/></g></g></g><g class="infolayer"><g class="legend" pointer-events="all"><path d="M0 0h75v34H0z" class="bg" shape-rendering="crispEdges" style="stroke:#444;stroke-opacity:1;fill:#fff;fill-opacity:.6;stroke-width:0" transform="translate(74.115 44.03)"/><g class="scrollbox" clip-path="url(#f)" transform="translate(74.115 44.03)"><g class="groups"><g class="traces" style="opacity:1"><text x="40" y="6.24" class="legendtext" style="font-family:&quot;Open Sans&quot;,verdana,arial,sans-serif;font-size:16px;fill:#000;fill-opacity:1;white-space:pre" transform="translate(0 16.9)">pbe</text><g class="layers" style="opacity:1"><g class="legendlines"><path d="M5 0h30" class="js-line" style="fill:none;stroke:#636efa;stroke-opacity:1;stroke-width:1.5px" transform="translate(0 16.9)"/></g></g><path fill="none" d="M0-11.9h71.969v23.8H0z" class="legendtoggle" style="fill:#000;fill-opacity:0" transform="translate(0 16.9)"/></g></g></g></g><g class="g-gtitle"><text x="350" y="10" class="gtitle" dy=".7em" style="font-family:&quot;Open Sans&quot;,verdana,arial,sans-serif;font-size:22px;fill:#000;opacity:1;font-weight:400;white-space:pre" text-anchor="middle">Phonon Bands and DOS of H2 (mp-23907)</text></g><g class="g-xtitle"><text x="312.724" y="499.503" class="xtitle" style="font-family:&quot;Open Sans&quot;,verdana,arial,sans-serif;font-size:19px;fill:#000;opacity:1;font-weight:400;white-space:pre" text-anchor="middle" transform="translate(0 -3.503)">Wave Vector</text></g><g class="g-x2title"><text x="633.569" y="499.503" class="x2title" style="font-family:&quot;Open Sans&quot;,verdana,arial,sans-serif;font-size:19px;fill:#000;opacity:1;font-weight:400;white-space:pre" text-anchor="middle" transform="translate(0 -3.503)">DOS</text></g><g class="g-ytitle"><text x=".559" y="241.5" class="ytitle" style="font-family:&quot;Open Sans&quot;,verdana,arial,sans-serif;font-size:19px;fill:#000;opacity:1;font-weight:400;white-space:pre" text-anchor="middle" transform="rotate(-90 9.78 232.28)">Frequency (THz)</text></g></g></svg>