<svg xmlns="http://www.w3.org/2000/svg" width="700" height="500" class="main-svg"><path d="M0 0h700v500H0z" style="fill:#fff;fill-opacity:1"/><defs><clipPath id="a" class="plotclip"><path d="M0 0h647v403H0z"/></clipPath><clipPath id="b" class="axesclip"><path d="M48 0h647v500H48z"/></clipPath></defs><g class="cartesianlayer"><g class="subplot xy"><g class="gridlayer"><g class="x"><path d="M0 40v403" class="xgrid crisp" style="stroke:#d3d3d3;stroke-opacity:1;stroke-width:1px" transform="translate(192.18)"/><path d="M0 40v403" class="xgrid crisp" style="stroke:#d3d3d3;stroke-opacity:1;stroke-width:1px" transform="translate(243.16)"/><path d="M0 40v403" class="xgrid crisp" style="stroke:#d3d3d3;stroke-opacity:1;stroke-width:1px" transform="translate(396.09)"/><path d="M0 40v403" class="xgrid crisp" style="stroke:#d3d3d3;stroke-opacity:1;stroke-width:1px" transform="translate(520.96)"/><path d="M0 40v403" class="xgrid crisp" style="stroke:#d3d3d3;stroke-opacity:1;stroke-width:1px" transform="translate(622.91)"/></g><g class="y"><path d="M48 0h647" class="ygrid crisp" style="stroke:#d3d3d3;stroke-opacity:1;stroke-width:1px" transform="translate(0 367.87)"/><path d="M48 0h647" class="ygrid crisp" style="stroke:#d3d3d3;stroke-opacity:1;stroke-width:1px" transform="translate(0 292.73)"/><path d="M48 0h647" class="ygrid crisp" style="stroke:#d3d3d3;stroke-opacity:1;stroke-width:1px" transform="translate(0 217.6)"/><path d="M48 0h647" class="ygrid crisp" style="stroke:#d3d3d3;stroke-opacity:1;stroke-width:1px" transform="translate(0 142.47)"/><path d="M48 0h647" class="ygrid crisp" style="stroke:#d3d3d3;stroke-opacity:1;stroke-width:1px" transform="translate(0 67.34)"/></g></g><g class="plot" clip-path="url(#a)" transform="translate(48 40)"><g class="scatterlayer mlayer"><g class="trace scatter trace867346" style="stroke-miterlimit:2;opacity:1"><g class="lines"><path d="m0 403 30.28-51.71 1.44-2.32 15.86-24.24 1.44-2.06 14.42-19.15 1.44-1.76 12.98-14.42 1.44-1.44 11.54-10.4 1.44-1.15 11.53-8.04 1.44-.86 10.1-5.12 1.44-.6 10.09-3.34 1.44-.35 10.1-1.61 1.44-.1 4.32-.14" class="js-line" style="vector-effect:none;fill:none;stroke:#636efa;stroke-opacity:1;stroke-width:1.5px;opacity:1"/></g></g><g class="trace scatter tracef73d95" style="stroke-miterlimit:2;opacity:1"><g class="lines"><path d="m0 403 30.28-51.71 1.44-2.32 15.86-24.24 1.44-2.06 14.42-19.15 1.44-1.76 12.98-14.42 1.44-1.44 11.54-10.4 1.44-1.15 11.53-8.04 1.44-.86 10.1-5.12 1.44-.6 10.09-3.34 1.44-.35 10.1-1.61 1.44-.1 4.32-.14" class="js-line" style="vector-effect:none;fill:none;stroke:#636efa;stroke-opacity:1;stroke-width:1.5px;opacity:1"/></g></g><g class="trace scatter trace96e5f8" style="stroke-miterlimit:2;opacity:1"><g class="lines"><path d="m0 403 28.84-113.01 1.44-5.34 15.86-55.63 1.44-4.73 12.98-39.66 1.44-4.07 11.53-29.94 1.45-3.41 10.09-21.68 1.44-2.78 8.65-14.76 1.44-2.06 4.33-4.77 1.44-.57 1.44.47 1.44 1.63 4.33 8.81 1.44 3.45 15.86 37.02 1.44 2.75 5.77 9.09 1.44 1.72 4.33 3.66 1.44.69 2.88.56" class="js-line" style="vector-effect:none;fill:none;stroke:#636efa;stroke-opacity:1;stroke-width:1.5px;opacity:1"/></g></g><g class="trace scatter trace954353" style="stroke-miterlimit:2;opacity:1"><g class="lines"><path d="m0 96.21 20.19-.89 1.44-.13 24.51-2.95 1.44-.2 34.6-4.34 1.45-.14 17.3-1.26 1.44.57 1.44 1.16 1.44.12 5.77-2.29 1.44-.04 31.72-.44" class="js-line" style="vector-effect:none;fill:none;stroke:#636efa;stroke-opacity:1;stroke-width:1.5px;opacity:1"/></g></g><g class="trace scatter trace9d5be1" style="stroke-miterlimit:2;opacity:1"><g class="lines"><path d="m0 96.21 20.19-.89 1.44-.13 24.51-2.95 1.44-.2 34.6-4.34 1.45-.14 25.95-1.64 1.44-.06 33.16-.48" class="js-line" style="vector-effect:none;fill:none;stroke:#636efa;stroke-opacity:1;stroke-width:1.5px;opacity:1"/></g></g><g class="trace scatter traceba6c52" style="stroke-miterlimit:2;opacity:1"><g class="lines"><path d="m0 96.21 4.33-.67 1.44-.51 5.76-3.43 1.45-1.18 7.21-7.44 1.44-1.75L34.6 63.78l1.45-1.96 10.09-12.33 1.44-1.47 5.77-4.88 1.44-.94 5.77-2.46 1.44-.28 4.32.05 1.45.31 4.32 1.85 1.44.93 4.33 3.7 1.44 1.54 5.77 7.6 1.44 2.25 7.21 13 1.44 2.88 5.77 11.24 1.44 1.42 7.21-.96 1.44-1.29 10.09-8.33 1.45-.98 7.2-3.97 1.45-.61 7.21-2.07 1.44-.22 4.32-.29" class="js-line" style="vector-effect:none;fill:none;stroke:#636efa;stroke-opacity:1;stroke-width:1.5px;opacity:1"/></g></g><g class="trace scatter trace4fefe3" style="stroke-miterlimit:2;opacity:1"><g class="lines"><path d="m144.18 254.19 8.16-.7.51-.09 9.17-2.53.51-.19 9.69-4.58.51-.29 10.2-6.86.51-.4 10.7-9.47.51-.51.51-.51" class="js-line" style="vector-effect:none;fill:none;stroke:#636efa;stroke-opacity:1;stroke-width:1.5px;opacity:1"/></g></g><g class="trace scatter tracec36160" style="stroke-miterlimit:2;opacity:1"><g class="lines"><path d="m144.18 254.19 3.57-.77.51-.24 3.57-2.49.51-.47 4.59-5.5.51-.74 5.6-9.62.51-.99 7.65-16.82.51-1.22 11.22-28.89.51-1.37 1.52-4.12.51.2.51.27 9.18 5.45" class="js-line" style="vector-effect:none;fill:none;stroke:#636efa;stroke-opacity:1;stroke-width:1.5px;opacity:1"/></g></g><g class="trace scatter trace65ae3e" style="stroke-miterlimit:2;opacity:1"><g class="lines"><path d="m144.18 170.44 10.71.71.51.07 10.7 2.2.51.14 11.73 4.17.51.22 6.11 2.93.51-1.31 9.69-26.16" class="js-line" style="vector-effect:none;fill:none;stroke:#636efa;stroke-opacity:1;stroke-width:1.5px;opacity:1"/></g></g><g class="trace scatter trace27a2e1" style="stroke-miterlimit:2;opacity:1"><g class="lines"><path d="m144.18 85.38 13.26.97.51.07 11.21 2.5.51.15 10.71 4.09.51.24 9.17 5.06.51.33 4.59 3.14" class="js-line" style="vector-effect:none;fill:none;stroke:#636efa;stroke-opacity:1;stroke-width:1.5px;opacity:1"/></g></g><g class="trace scatter tracecf835b" style="stroke-miterlimit:2;opacity:1"><g class="lines"><path d="m144.18 85.38 11.73-.71.51-.06 15.29-2.55.51-.09 16.82-2.55.51-.04 5.61-.18" class="js-line" style="vector-effect:none;fill:none;stroke:#636efa;stroke-opacity:1;stroke-width:1.5px;opacity:1"/></g></g><g class="trace scatter trace31b73e" style="stroke-miterlimit:2;opacity:1"><g class="lines"><path d="m144.18 67.51 27.02.74.51.03 23.45 2.01" class="js-line" style="vector-effect:none;fill:none;stroke:#636efa;stroke-opacity:1;stroke-width:1.5px;opacity:1"/></g></g><g class="trace scatter trace6658bf" style="stroke-miterlimit:2;opacity:1"><g class="lines"><path d="m195.16 228.06 10.7-11.96 1.53-1.88 7.65-10 1.53-.19 12.23 12.54 1.53 1.7 13.77 16.58 1.53 1.97 15.29 21.06 1.53 2.23 18.35 28.12 1.53 2.44 26 43.21 1.53 2.61L348.09 403" class="js-line" style="vector-effect:none;fill:none;stroke:#636efa;stroke-opacity:1;stroke-width:1.5px;opacity:1"/></g></g><g class="trace scatter tracef990df" style="stroke-miterlimit:2;opacity:1"><g class="lines"><path d="m195.16 186.87 12.23 9.05 1.53 1.27 6.12 5.41 1.53-.48 16.82-22.25 1.53-1.44 3.06-1.98 1.53-.41 3.06.5 1.53.91 4.58 4.75 1.53 2.09 7.65 12.52 1.53 2.79 12.23 24.22 1.53 3.21 18.36 40.37 1.52 3.49 29.06 68.54 1.53 3.7L348.09 403" class="js-line" style="vector-effect:none;fill:none;stroke:#636efa;stroke-opacity:1;stroke-width:1.5px;opacity:1"/></g></g><g class="trace scatter traceefb023" style="stroke-miterlimit:2;opacity:1"><g class="lines"><path d="m195.16 153.41 13.76-35.25 1.53-2.85 12.24 13.52 1.53 1.79 9.17 9.96 1.53 1.27 3.06 1.75 1.53.37 3.06-.48 1.53-.81 4.58-4.15 1.53-1.76 4.59-5.81 1.53-.13 9.18 17.77 1.53 3.23 10.7 24.62 1.53 3.8 12.24 32.76 1.52 4.37 13.77 41.89 1.53 4.9 18.35 62.01 1.53 5.38L348.09 403" class="js-line" style="vector-effect:none;fill:none;stroke:#636efa;stroke-opacity:1;stroke-width:1.5px;opacity:1"/></g></g><g class="trace scatter traced85620" style="stroke-miterlimit:2;opacity:1"><g class="lines"><path d="m195.16 101.93 10.7 8.9 1.53 1.45 3.06 2.24 1.53-3.55 6.12-12.82 1.53-2.49 3.06-2.79 1.53-.14 3.05 1.22 1.53 1.02 6.12 5.46 1.53 1.63 7.65 9.44 1.53 2.14 9.17 14.5 1.53.79 15.29-19.07 1.53-1.64 9.18-8.32 1.53-1.12 7.65-4.43 1.52-.65 7.65-2.18 1.53.24 19.88 2.95 1.53.17 18.35 1.24 1.53.04 4.59.05" class="js-line" style="vector-effect:none;fill:none;stroke:#636efa;stroke-opacity:1;stroke-width:1.5px;opacity:1"/></g></g><g class="trace scatter traceef09e1" style="stroke-miterlimit:2;opacity:1"><g class="lines"><path d="m195.16 79.2 9.18.82 1.52.29 13.77 3.22 1.53-.5 3.06-3.13 1.53-2.33 1.52-2.26 1.53.3 29.06 6.41 1.53.36 41.29 9.1 1.53-.19 7.65-.29 1.53.09 10.7 1.53 1.53.3 18.35 3.03 1.53.11 4.59.15" class="js-line" style="vector-effect:none;fill:none;stroke:#636efa;stroke-opacity:1;stroke-width:1.5px;opacity:1"/></g></g><g class="trace scatter trace470167" style="stroke-miterlimit:2;opacity:1"><g class="lines"><path d="m195.16 70.29 24.47 3.59 1.53.28 6.11.87 1.53-2.61 10.71-17.27 1.53-2.17 7.64-9.44 1.53-1.6 7.65-6.37 1.53-.94 6.12-2.66 1.53-.38 6.11-.38 1.53.19 6.12 1.88 1.53.74 6.12 4 1.53 1.24 7.64 7.47 1.53 1.71 10.71 13.41 1.53 2.03 15.29 19.35 1.53 1.65 7.64 6.83 1.53 1.03 6.12 2.82 1.53.36 3.06.29" class="js-line" style="vector-effect:none;fill:none;stroke:#636efa;stroke-opacity:1;stroke-width:1.5px;opacity:1"/></g></g><g class="trace scatter trace119f77" style="stroke-miterlimit:2;opacity:1"><g class="lines"><path d="m348.09 403 38.71-85.31 1.25-2.65 21.22-43.42 1.25-2.46 19.98-37.54 1.25-2.23 16.23-27.28 1.25-1.94 11.24-15.83 1.25-1.48 4.99-4.95 1.25-.91 3.75-1.6 1.25-.12" class="js-line" style="vector-effect:none;fill:none;stroke:#636efa;stroke-opacity:1;stroke-width:1.5px;opacity:1"/></g></g><g class="trace scatter traceedadcc" style="stroke-miterlimit:2;opacity:1"><g class="lines"><path d="m348.09 403 38.71-85.31 1.25-2.65 21.22-43.42 1.25-2.46 19.98-37.54 1.25-2.23 16.23-27.28 1.25-1.94 11.24-15.83 1.25-1.48 4.99-4.95 1.25-.91 3.75-1.6 1.25-.12" class="js-line" style="vector-effect:none;fill:none;stroke:#636efa;stroke-opacity:1;stroke-width:1.5px;opacity:1"/></g></g><g class="trace scatter trace2aad99" style="stroke-miterlimit:2;opacity:1"><g class="lines"><path d="m348.09 403 38.71-132.46 1.25-4.1 18.73-59.09 1.24-3.75 14.99-42.7 1.25-3.34 12.48-31.14 1.25-2.86 3.75-6.77 1.25 1.23 23.72 23.33 1.25.76 3.75 1.38 1.25.1" class="js-line" style="vector-effect:none;fill:none;stroke:#636efa;stroke-opacity:1;stroke-width:1.5px;opacity:1"/></g></g><g class="trace scatter trace53484e" style="stroke-miterlimit:2;opacity:1"><g class="lines"><path d="m348.09 96.21 12.49-.81 1.24-.15 29.97-3.71 1.25.01 8.74.87 1.25.24 8.74 2.67 1.25.52 8.74 4.61 1.25.8 9.99 7.51 1.25 1.07 12.48 11.98 1.25 1.29 17.48 17.35 1.25.89 3.75 1.86 1.25.28 1.25.1" class="js-line" style="vector-effect:none;fill:none;stroke:#636efa;stroke-opacity:1;stroke-width:1.5px;opacity:1"/></g></g><g class="trace scatter tracecf5c91" style="stroke-miterlimit:2;opacity:1"><g class="lines"><path d="m348.09 96.21 12.49-.81 1.24-.15 29.97-3.71 1.25.01 8.74.87 1.25.24 8.74 2.67 1.25.52 8.74 4.61 1.25.8 9.99 7.51 1.25 1.07 6.24 5.73 1.25-.29L450.48 98l1.25-2.2 7.49-11.42 1.25-1.57 4.99-5.02 1.25-.92 3.75-1.79 1.25-.26 1.25-.09" class="js-line" style="vector-effect:none;fill:none;stroke:#636efa;stroke-opacity:1;stroke-width:1.5px;opacity:1"/></g></g><g class="trace scatter trace731f14" style="stroke-miterlimit:2;opacity:1"><g class="lines"><path d="m348.09 96.21 4.99-.73 1.25-.41 5-2.49 1.25-.83 6.24-5.24 1.25-1.24 8.74-10.12 1.25-1.6 28.72-36.83 1.24-1.3 8.75-7.83 1.24-.92 7.5-4.4 1.24-.55 7.5-2.14 1.25-.17 6.24-.12 1.25.12 7.49 1.56 1.25.39 18.73 5.9 1.25.1 1.25.04" class="js-line" style="vector-effect:none;fill:none;stroke:#636efa;stroke-opacity:1;stroke-width:1.5px;opacity:1"/></g></g><g class="trace scatter trace25c5d7" style="stroke-miterlimit:2;opacity:1"><g class="lines"><path d="m472.96 175.28 6.11.73 1.02.25 8.16 2.98 1.02.46 36.7 16.94 1.02.34 12.23 3.22 1.02.2 13.26 1.75 1.02.08 19.37.61h1.02" class="js-line" style="vector-effect:none;fill:none;stroke:#636efa;stroke-opacity:1;stroke-width:1.5px;opacity:1"/></g></g><g class="trace scatter trace9f615b" style="stroke-miterlimit:2;opacity:1"><g class="lines"><path d="m472.96 175.28 8.15.76 1.02.2 10.2 2.82 1.02.34 21.41 8.34 1.02.4 21.41 7.83 1.02.33 15.29 4.12 1.02.21 12.23 1.84 1.02.09 7.14.28" class="js-line" style="vector-effect:none;fill:none;stroke:#636efa;stroke-opacity:1;stroke-width:1.5px;opacity:1"/></g></g><g class="trace scatter trace15b6a1" style="stroke-miterlimit:2;opacity:1"><g class="lines"><path d="m472.96 143.59 7.13-.82 1.02-.24 8.16-2.89 1.02-.46 12.23-6.53 1.02-.59 16.31-8.86 1.02-.45 8.16-2.86 1.02-.26 7.14-.8 1.02.2 8.15 2.69 1.02.45 19.37 8.06 1.02.25 7.14.81" class="js-line" style="vector-effect:none;fill:none;stroke:#636efa;stroke-opacity:1;stroke-width:1.5px;opacity:1"/></g></g><g class="trace scatter trace561780" style="stroke-miterlimit:2;opacity:1"><g class="lines"><path d="m472.96 143.59 6.11-.84 1.02-.3 7.14-2.99 1.02-.54 12.23-7.38 1.02-.64 14.28-8.2 1.02-.47 8.15-2.92 1.02-.24 7.14-.67 1.02.05 8.15-.03 1.02.03 13.26 1.22 1.02.12 17.33 1.16" class="js-line" style="vector-effect:none;fill:none;stroke:#636efa;stroke-opacity:1;stroke-width:1.5px;opacity:1"/></g></g><g class="trace scatter traceca1c2e" style="stroke-miterlimit:2;opacity:1"><g class="lines"><path d="m472.96 74.73 15.29.85 1.02.12 18.35 2.88 1.02.18 15.29 2.03 1.02.06 10.2-.38 1.02-.13 12.23-2.38 1.02-.23 16.31-3.14 1.02-.11 8.16-.45" class="js-line" style="vector-effect:none;fill:none;stroke:#636efa;stroke-opacity:1;stroke-width:1.5px;opacity:1"/></g></g><g class="trace scatter trace23b1cd" style="stroke-miterlimit:2;opacity:1"><g class="lines"><path d="m472.96 27.4 7.13.78 1.02.24 7.14 2.53 1.02.48 8.15 4.81 1.02.71 10.2 8.2 1.02.9 22.43 19.36 1.02.69 7.13 3.92 1.02.42 7.14 2.15 1.02.2 10.2 1.05 1.01.04 14.28.15" class="js-line" style="vector-effect:none;fill:none;stroke:#636efa;stroke-opacity:1;stroke-width:1.5px;opacity:1"/></g></g><g class="trace scatter trace001d3e" style="stroke-miterlimit:2;opacity:1"><g class="lines"><path d="m574.91 202.84 18.74 17.34.72.69 20.91 19 .72.58 10.09 7.13.72.43 8.66 4.1.72.25 7.21 1.62.72.08 2.88.13" class="js-line" style="vector-effect:none;fill:none;stroke:#636efa;stroke-opacity:1;stroke-width:1.5px;opacity:1"/></g></g><g class="trace scatter trace04438a" style="stroke-miterlimit:2;opacity:1"><g class="lines"><path d="m574.91 202.84 13.7-11 .72-.52 12.25-7.95.72-.41.72-.4.73.9 20.9 46.27.72 1.39 7.21 12.16.72 1.01 5.05 5.83.72.64 4.33 2.71.72.26 2.88.46" class="js-line" style="vector-effect:none;fill:none;stroke:#636efa;stroke-opacity:1;stroke-width:1.5px;opacity:1"/></g></g><g class="trace scatter trace811e48" style="stroke-miterlimit:2;opacity:1"><g class="lines"><path d="m574.91 131.29 2.16 1.07.72.73 4.33 6.2.72 1.2 7.93 14.82.72 1.46 12.26 25.39.72-.39 10.81-5.06.72-.28 10.81-3.46.73-.18 11.53-1.96.72-.07 7.21-.32" class="js-line" style="vector-effect:none;fill:none;stroke:#636efa;stroke-opacity:1;stroke-width:1.5px;opacity:1"/></g></g><g class="trace scatter trace69c58a" style="stroke-miterlimit:2;opacity:1"><g class="lines"><path d="m574.91 120.95 2.16-.9.72-.61 6.49-7.17.72-.81 9.37-9.33.72-.61 7.93-5.8.73-.44 8.65-4.34.72-.29 10.09-3.02.72-.16 12.26-1.68.72-.06 10.09-.35" class="js-line" style="vector-effect:none;fill:none;stroke:#636efa;stroke-opacity:1;stroke-width:1.5px;opacity:1"/></g></g><g class="trace scatter traceeeaa7b" style="stroke-miterlimit:2;opacity:1"><g class="lines"><path d="m574.91 74.03 54.07 10.32.72.08 17.3.95" class="js-line" style="vector-effect:none;fill:none;stroke:#636efa;stroke-opacity:1;stroke-width:1.5px;opacity:1"/></g></g><g class="trace scatter traceac1f37" style="stroke-miterlimit:2;opacity:1"><g class="lines"><path d="m574.91 74.03 23.07-3.73.72-.09 21.63-1.95.72-.04 25.95-.71" class="js-line" style="vector-effect:none;fill:none;stroke:#636efa;stroke-opacity:1;stroke-width:1.5px;opacity:1"/></g></g><g class="trace scatter trace22673e" style="stroke-miterlimit:2;opacity:1"><g class="lines"><path d="m0 403 30.28-48 1.44-2.16 17.3-24.41 1.44-1.89 14.42-17.49 1.44-1.6 12.98-13.11 1.44-1.3 11.54-9.38 1.44-1.04 11.53-7.2 1.45-.77 11.53-5.05 1.44-.5 10.09-2.69 1.45-.27 10.09-1.08 1.44-.05 1.44-.01" class="js-line" style="vector-effect:none;fill:none;stroke:#ef553b;stroke-opacity:1;stroke-dasharray:3px,3px;stroke-width:1.5px;opacity:1"/></g></g><g class="trace scatter trace9ce874" style="stroke-miterlimit:2;opacity:1"><g class="lines"><path d="m0 403 30.28-48 1.44-2.16 17.3-24.41 1.44-1.89 14.42-17.49 1.44-1.6 12.98-13.11 1.44-1.3 11.54-9.38 1.44-1.04 11.53-7.2 1.45-.77 11.53-5.05 1.44-.5 10.09-2.69 1.45-.27 10.09-1.08 1.44-.05 1.44-.01" class="js-line" style="vector-effect:none;fill:none;stroke:#ef553b;stroke-opacity:1;stroke-dasharray:3px,3px;stroke-width:1.5px;opacity:1"/></g></g><g class="trace scatter tracef73092" style="stroke-miterlimit:2;opacity:1"><g class="lines"><path d="m0 403 24.51-95.39 1.44-5.29 12.98-44.95 1.44-4.66 11.54-34.58 1.44-3.96 10.09-25.24 1.44-3.24 8.65-17.35 1.45-2.52 7.2-10.81 1.45-1.76 5.76-5.48 1.45-.92 4.32-1.54 1.44-.07 4.33 1.21 1.44.86 4.33 3.81 1.44 1.62 7.21 9.84 1.44 2.16 11.53 16.51 1.44 1.73 5.77 5.56 1.44 1 4.33 1.95 1.44.29 1.44.09" class="js-line" style="vector-effect:none;fill:none;stroke:#ef553b;stroke-opacity:1;stroke-dasharray:3px,3px;stroke-width:1.5px;opacity:1"/></g></g><g class="trace scatter trace89d35c" style="stroke-miterlimit:2;opacity:1"><g class="lines"><path d="m0 118.79 25.95-.75 1.44-.08 95.17-5.94 1.44-.03 20.18-.2" class="js-line" style="vector-effect:none;fill:none;stroke:#ef553b;stroke-opacity:1;stroke-dasharray:3px,3px;stroke-width:1.5px;opacity:1"/></g></g><g class="trace scatter traceb738d3" style="stroke-miterlimit:2;opacity:1"><g class="lines"><path d="m0 118.79 25.95-.75 1.44-.08 95.17-5.94 1.44-.03 20.18-.2" class="js-line" style="vector-effect:none;fill:none;stroke:#ef553b;stroke-opacity:1;stroke-dasharray:3px,3px;stroke-width:1.5px;opacity:1"/></g></g><g class="trace scatter tracedceb0a" style="stroke-miterlimit:2;opacity:1"><g class="lines"><path d="m0 118.79 5.77-.83 1.44-.46 5.77-2.79 1.44-.91 7.21-5.64 1.44-1.3 25.95-24.34 1.44-1 7.21-3.84 1.45-.51 5.76-1.09 1.44-.03 5.77.84 1.44.45 7.21 3.46 1.44.9 15.86 10.14 1.45.57 5.76 1.23 1.45.06 7.2-.71 1.45-.26 21.62-3.86 1.45-.11 5.76-.2" class="js-line" style="vector-effect:none;fill:none;stroke:#ef553b;stroke-opacity:1;stroke-dasharray:3px,3px;stroke-width:1.5px;opacity:1"/></g></g><g class="trace scatter traceae41b4" style="stroke-miterlimit:2;opacity:1"><g class="lines"><path d="m144.18 265 7.65-.69.51-.09 8.16-2.33.51-.2 8.66-4.19.51-.29 9.18-6.22.51-.4 9.68-8.32.51-.49 5.1-5.01" class="js-line" style="vector-effect:none;fill:none;stroke:#ef553b;stroke-opacity:1;stroke-dasharray:3px,3px;stroke-width:1.5px;opacity:1"/></g></g><g class="trace scatter tracedc9ba2" style="stroke-miterlimit:2;opacity:1"><g class="lines"><path d="m144.18 265 4.08-.83.51-.22 4.08-2.65.51-.44 5.1-5.62.51-.67 6.11-9.48.51-.89 8.67-16.97.51-1.09 11.72-24.33.51.25 8.16 4.35" class="js-line" style="vector-effect:none;fill:none;stroke:#ef553b;stroke-opacity:1;stroke-dasharray:3px,3px;stroke-width:1.5px;opacity:1"/></g></g><g class="trace scatter tracecc71c5" style="stroke-miterlimit:2;opacity:1"><g class="lines"><path d="m144.18 191.87 11.73.75.51.07 11.72 2.32.51.14 11.73 3.96.51.2 5.09 1.82.51-1.16 8.67-19.61" class="js-line" style="vector-effect:none;fill:none;stroke:#ef553b;stroke-opacity:1;stroke-dasharray:3px,3px;stroke-width:1.5px;opacity:1"/></g></g><g class="trace scatter tracee0fd40" style="stroke-miterlimit:2;opacity:1"><g class="lines"><path d="m144.18 111.79 14.28.75.51.05 13.76 2.34.51.12 11.72 3.5.51.18 9.69 4.1" class="js-line" style="vector-effect:none;fill:none;stroke:#ef553b;stroke-opacity:1;stroke-dasharray:3px,3px;stroke-width:1.5px;opacity:1"/></g></g><g class="trace scatter trace4c0e75" style="stroke-miterlimit:2;opacity:1"><g class="lines"><path d="m144.18 111.79 12.24-.74.51-.06 17.84-3.19.51-.11 19.88-4" class="js-line" style="vector-effect:none;fill:none;stroke:#ef553b;stroke-opacity:1;stroke-dasharray:3px,3px;stroke-width:1.5px;opacity:1"/></g></g><g class="trace scatter trace5c919f" style="stroke-miterlimit:2;opacity:1"><g class="lines"><path d="m144.18 88.56 16.32.72.51.05 19.37 2.63.51.09 14.27 2.83" class="js-line" style="vector-effect:none;fill:none;stroke:#ef553b;stroke-opacity:1;stroke-dasharray:3px,3px;stroke-width:1.5px;opacity:1"/></g></g><g class="trace scatter traceb283b4" style="stroke-miterlimit:2;opacity:1"><g class="lines"><path d="m195.16 236.77 15.29-16.69 1.53-1.73 3.06 2.08 1.53 1.28 12.23 11.21 1.53 1.52 13.77 14.86 1.53 1.77L262.45 272l1.53 2.03 18.35 25.6 1.53 2.23 22.94 34.81 1.53 2.4 36.7 58.95 1.53 2.49 1.53 2.49" class="js-line" style="vector-effect:none;fill:none;stroke:#ef553b;stroke-opacity:1;stroke-dasharray:3px,3px;stroke-width:1.5px;opacity:1"/></g></g><g class="trace scatter tracedf9029" style="stroke-miterlimit:2;opacity:1"><g class="lines"><path d="m195.16 206.41 12.23 8.06 1.53 1.13 3.06 2.36 1.53-1.34 12.24-12.98 1.52-1.38 6.12-4.47 1.53-.77 4.59-1.23 1.53-.02 4.59 1.19 1.53.8 4.58 3.46 1.53 1.46 6.12 7.11 1.53 2.05 9.18 13.92 1.52 2.56 12.24 22.34 1.53 3 13.76 28.8 1.53 3.38 16.82 39.24 1.53 3.73 22.94 58.25 1.53 3.98 4.59 11.96" class="js-line" style="vector-effect:none;fill:none;stroke:#ef553b;stroke-opacity:1;stroke-dasharray:3px,3px;stroke-width:1.5px;opacity:1"/></g></g><g class="trace scatter tracefb1175" style="stroke-miterlimit:2;opacity:1"><g class="lines"><path d="m195.16 180.36 12.23-25.23 1.53-2.77 6.12-9.7 1.53-2.01 3.06-3.2 1.53 1 10.7 6.13 1.53.61 6.12 1.26 1.53-.03 4.59-.97 1.53-.6 1.52.06 1.53 1.78 7.65 10.3 1.53 2.32 9.18 15.66 1.53 2.89 10.7 22.31 1.53 3.48 10.7 26.23 1.53 4.01 13.77 38.72 1.53 4.57 15.29 48.18 1.53 5.03L348.09 403" class="js-line" style="vector-effect:none;fill:none;stroke:#ef553b;stroke-opacity:1;stroke-dasharray:3px,3px;stroke-width:1.5px;opacity:1"/></g></g><g class="trace scatter traced3cf08" style="stroke-miterlimit:2;opacity:1"><g class="lines"><path d="m195.16 122.83 12.23 6.7 1.53.94 10.71 6.79 1.53-1.36 4.59-2.67 1.52-.42 4.59.03 1.53.4 4.59 2.15 1.53 1.01 6.12 5.24 1.53 1.58 1.52.93 1.53-.81 9.18-6.23 1.53-1.15 15.29-10.69 1.53-.89 9.18-4.39 1.53-.57 9.17-2.4 1.53-.25 6.12-.15 1.53.15 24.47 1.69 1.53.06 15.29.27" class="js-line" style="vector-effect:none;fill:none;stroke:#ef553b;stroke-opacity:1;stroke-dasharray:3px,3px;stroke-width:1.5px;opacity:1"/></g></g><g class="trace scatter trace38d59f" style="stroke-miterlimit:2;opacity:1"><g class="lines"><path d="m195.16 103.69 22.94-3.47 1.53.37 42.82 9.6 1.53.3 27.53 4.51 1.52.2 12.24.98 1.53-.05 12.23.47 1.53.14 27.53 2.05" class="js-line" style="vector-effect:none;fill:none;stroke:#ef553b;stroke-opacity:1;stroke-dasharray:3px,3px;stroke-width:1.5px;opacity:1"/></g></g><g class="trace scatter trace26a548" style="stroke-miterlimit:2;opacity:1"><g class="lines"><path d="m195.16 94.88 21.41 4.69 1.53-.59 6.12-3.37 1.53-1.11 9.17-8.14 1.53-1.47 12.23-10.62 1.53-1.07 7.65-4.23 1.53-.6 6.12-1.51 1.53-.16 6.11.27 1.53.29 6.12 2.01 1.53.7 7.65 4.67 1.53 1.14 9.17 7.96 1.53 1.48 26 25.25 1.53 1.16 7.64 4.63 1.53.66 6.12 1.66 1.53.16 1.53.05" class="js-line" style="vector-effect:none;fill:none;stroke:#ef553b;stroke-opacity:1;stroke-dasharray:3px,3px;stroke-width:1.5px;opacity:1"/></g></g><g class="trace scatter trace510976" style="stroke-miterlimit:2;opacity:1"><g class="lines"><path d="m348.09 403 32.46-73.77 1.25-2.7 18.73-38.5 1.25-2.42 16.23-29.59 1.25-2.13L433 232.06l1.25-1.83 11.23-15.2 1.25-1.52 8.74-9.49 1.25-1.15 6.25-4.79 1.24-.73 5-2.03 1.25-.26 2.5-.21" class="js-line" style="vector-effect:none;fill:none;stroke:#ef553b;stroke-opacity:1;stroke-dasharray:3px,3px;stroke-width:1.5px;opacity:1"/></g></g><g class="trace scatter trace376c16" style="stroke-miterlimit:2;opacity:1"><g class="lines"><path d="m348.09 403 32.46-73.77 1.25-2.7 18.73-38.5 1.25-2.42 16.23-29.59 1.25-2.13L433 232.06l1.25-1.83 11.23-15.2 1.25-1.52 8.74-9.49 1.25-1.15 6.25-4.79 1.24-.73 5-2.03 1.25-.26 2.5-.21" class="js-line" style="vector-effect:none;fill:none;stroke:#ef553b;stroke-opacity:1;stroke-dasharray:3px,3px;stroke-width:1.5px;opacity:1"/></g></g><g class="trace scatter trace58a979" style="stroke-miterlimit:2;opacity:1"><g class="lines"><path d="m348.09 403 33.71-106.65 1.25-3.78 18.73-54.24 1.25-3.44 16.23-42.32 1.25-3.06 13.74-31.64 1.25-2.68 9.98-20.1 1.25-.73 14.99 8.33 1.25.52 6.24 1.82 1.25.18 2.5.14" class="js-line" style="vector-effect:none;fill:none;stroke:#ef553b;stroke-opacity:1;stroke-dasharray:3px,3px;stroke-width:1.5px;opacity:1"/></g></g><g class="trace scatter trace219aa9" style="stroke-miterlimit:2;opacity:1"><g class="lines"><path d="m348.09 118.79 16.23-.7 1.25-.1 27.47-1.77 1.25.02 11.24.94 1.25.2 9.99 2.36 1.24.4 9.99 3.92 1.25.58 12.49 6.73 1.25.74 18.73 10.58 1.25.52 6.24 1.82 1.25.18 2.5.14" class="js-line" style="vector-effect:none;fill:none;stroke:#ef553b;stroke-opacity:1;stroke-dasharray:3px,3px;stroke-width:1.5px;opacity:1"/></g></g><g class="trace scatter traceae82fd" style="stroke-miterlimit:2;opacity:1"><g class="lines"><path d="m348.09 118.79 16.23-.7 1.25-.1 27.47-1.77 1.25.02 11.24.94 1.25.2 9.99 2.36 1.24.4 9.99 3.92 1.25.58 12.49 6.73 1.25.74 2.49 1.5 1.25-.85 9.99-16.91 1.25-1.85 6.24-8.02 1.25-1.28 3.75-2.91 1.25-.58 2.5-.48" class="js-line" style="vector-effect:none;fill:none;stroke:#ef553b;stroke-opacity:1;stroke-dasharray:3px,3px;stroke-width:1.5px;opacity:1"/></g></g><g class="trace scatter trace8ba870" style="stroke-miterlimit:2;opacity:1"><g class="lines"><path d="m348.09 118.79 6.24-.84 1.25-.36 6.24-2.76 1.25-.73 7.5-5.42 1.24-1.06 9.99-9.54 1.25-1.29 22.48-22.39 1.25-1.05 8.74-6.31 1.25-.74 7.49-3.46 1.25-.41 7.49-1.4 1.25-.05 6.24.47 1.25.24 7.49 2.43 1.25.56 8.74 4.83 1.25.77 8.74 4.69 1.25.37 2.5.3" class="js-line" style="vector-effect:none;fill:none;stroke:#ef553b;stroke-opacity:1;stroke-dasharray:3px,3px;stroke-width:1.5px;opacity:1"/></g></g><g class="trace scatter trace724242" style="stroke-miterlimit:2;opacity:1"><g class="lines"><path d="m472.96 194.85 9.17.81 1.02.18 10.2 2.68 1.02.33 17.33 6.67 1.02.42 23.45 8.7 1.02.31 14.27 3.47 1.02.18 13.25 1.59 1.02.06 8.16.24" class="js-line" style="vector-effect:none;fill:none;stroke:#ef553b;stroke-opacity:1;stroke-dasharray:3px,3px;stroke-width:1.5px;opacity:1"/></g></g><g class="trace scatter trace941c2d" style="stroke-miterlimit:2;opacity:1"><g class="lines"><path d="m472.96 194.85 13.25.82 1.02.13 14.27 2.85 1.02.28 14.28 4.63 1.01.37 37.73 13.89 1.02.26 11.21 2.03 1.02.1 6.12.28" class="js-line" style="vector-effect:none;fill:none;stroke:#ef553b;stroke-opacity:1;stroke-dasharray:3px,3px;stroke-width:1.5px;opacity:1"/></g></g><g class="trace scatter tracef26429" style="stroke-miterlimit:2;opacity:1"><g class="lines"><path d="m472.96 145.35 12.23-.85 1.02-.14 12.23-2.57 1.02-.27 8.16-.74 1.02.01 7.14.97 1.02.27 7.13 2.78 1.02.52 9.18 5.56 1.02.69 21.41 13.91 1.02.52 8.15 3.2 1.02.27 7.14 1.03 1.02.02" class="js-line" style="vector-effect:none;fill:none;stroke:#ef553b;stroke-opacity:1;stroke-dasharray:3px,3px;stroke-width:1.5px;opacity:1"/></g></g><g class="trace scatter trace25bef2" style="stroke-miterlimit:2;opacity:1"><g class="lines"><path d="m472.96 145.35 10.19-.8 1.02-.16 18.35-3.74 1.02-.31 38.74-11.8 1.02-.18 11.22-1.33 1.02-.06 17.33-.31h2.04" class="js-line" style="vector-effect:none;fill:none;stroke:#ef553b;stroke-opacity:1;stroke-dasharray:3px,3px;stroke-width:1.5px;opacity:1"/></g></g><g class="trace scatter trace023a74" style="stroke-miterlimit:2;opacity:1"><g class="lines"><path d="m472.96 100.73 10.19.75 1.02.15 13.25 2.9 1.02.26 14.28 2.89 1.02.1 9.17-.04 1.02-.1 11.22-1.88 1.02-.22 25.48-4.66 1.02-.11 12.24-.64" class="js-line" style="vector-effect:none;fill:none;stroke:#ef553b;stroke-opacity:1;stroke-dasharray:3px,3px;stroke-width:1.5px;opacity:1"/></g></g><g class="trace scatter tracea9cd43" style="stroke-miterlimit:2;opacity:1"><g class="lines"><path d="m472.96 75.64 11.21.76 1.02.14 11.21 2.34 1.02.28 13.26 4.44 1.02.4 33.64 12.77 1.02.27 12.24 2.24 1.02.11 13.25.73 1.02.01h1.02" class="js-line" style="vector-effect:none;fill:none;stroke:#ef553b;stroke-opacity:1;stroke-dasharray:3px,3px;stroke-width:1.5px;opacity:1"/></g></g><g class="trace scatter trace48f644" style="stroke-miterlimit:2;opacity:1"><g class="lines"><path d="m574.91 220.49 23.79 19.43.72.6 17.3 13.25.72.49 10.82 6.18.72.34 8.65 3.05.72.17 7.21.97.72.02.72.01" class="js-line" style="vector-effect:none;fill:none;stroke:#ef553b;stroke-opacity:1;stroke-dasharray:3px,3px;stroke-width:1.5px;opacity:1"/></g></g><g class="trace scatter tracec4988c" style="stroke-miterlimit:2;opacity:1"><g class="lines"><path d="m574.91 220.49 15.14-10.63.72-.45 11.53-6.49.72.2 26.68 48.46.72 1.02 5.77 6.9.72.69 5.04 3.58.72.33 4.33.9" class="js-line" style="vector-effect:none;fill:none;stroke:#ef553b;stroke-opacity:1;stroke-dasharray:3px,3px;stroke-width:1.5px;opacity:1"/></g></g><g class="trace scatter tracebe6122" style="stroke-miterlimit:2;opacity:1"><g class="lines"><path d="m574.91 170.53 3.6.72.72.32 4.33 2.97.72.66 5.05 5.72.72.96 7.21 11.02.72 1.22 5.04 8.44.73-.35 12.97-5.31.72-.24 12.26-3.16.72-.13 11.53-1.36.72-.04 4.33-.1" class="js-line" style="vector-effect:none;fill:none;stroke:#ef553b;stroke-opacity:1;stroke-dasharray:3px,3px;stroke-width:1.5px;opacity:1"/></g></g><g class="trace scatter tracec26aec" style="stroke-miterlimit:2;opacity:1"><g class="lines"><path d="m574.91 126.66 5.77-.77.72-.19 9.37-3.59.72-.31 15.14-5.72.72-.21 11.53-2.47.73-.1 14.41-1.26.72-.03 12.26-.22" class="js-line" style="vector-effect:none;fill:none;stroke:#ef553b;stroke-opacity:1;stroke-dasharray:3px,3px;stroke-width:1.5px;opacity:1"/></g></g><g class="trace scatter tracea4a317" style="stroke-miterlimit:2;opacity:1"><g class="lines"><path d="m574.91 100.13 35.32 8.07.72.13 18.75 2.62.72.07 15.14.76.72.01h.72" class="js-line" style="vector-effect:none;fill:none;stroke:#ef553b;stroke-opacity:1;stroke-dasharray:3px,3px;stroke-width:1.5px;opacity:1"/></g></g><g class="trace scatter traceab7528" style="stroke-miterlimit:2;opacity:1"><g class="lines"><path d="m574.91 100.13 34.6-7.9.72-.13 18.75-2.65.72-.07 15.86-.82H647" class="js-line" style="vector-effect:none;fill:none;stroke:#ef553b;stroke-opacity:1;stroke-dasharray:3px,3px;stroke-width:1.5px;opacity:1"/></g></g></g></g><path d="M47 443.5h649M47 39.5h649" class="xlines-above crisp" style="fill:none;stroke-width:1px;stroke:#000;stroke-opacity:1"/><path d="M47.5 40v403m648-403v403" class="ylines-above crisp" style="fill:none;stroke-width:1px;stroke:#000;stroke-opacity:1"/><g class="xaxislayer-above"><path d="M0 444v5" class="xtick ticks crisp" style="stroke:#444;stroke-opacity:1;stroke-width:1px" transform="translate(48)"/><path d="M0 444v5" class="xtick ticks crisp" style="stroke:#444;stroke-opacity:1;stroke-width:1px" transform="translate(192.18)"/><path d="M0 444v5" class="xtick ticks crisp" style="stroke:#444;stroke-opacity:1;stroke-width:1px" transform="translate(243.16)"/><path d="M0 444v5" class="xtick ticks crisp" style="stroke:#444;stroke-opacity:1;stroke-width:1px" transform="translate(396.09)"/><path d="M0 444v5" class="xtick ticks crisp" style="stroke:#444;stroke-opacity:1;stroke-width:1px" transform="translate(520.96)"/><path d="M0 444v5" class="xtick ticks crisp" style="stroke:#444;stroke-opacity:1;stroke-width:1px" transform="translate(622.91)"/><path d="M0 444v5" class="xtick ticks crisp" style="stroke:#444;stroke-opacity:1;stroke-width:1px" transform="translate(695)"/><text y="468.2" class="xtick" style="font-family:&quot;Open Sans&quot;,verdana,arial,sans-serif;font-size:16px;fill:#2a3f5f;fill-opacity:1;white-space:pre;opacity:1" text-anchor="middle" transform="translate(48)">Γ</text><text y="468.2" class="xtick" style="font-family:&quot;Open Sans&quot;,verdana,arial,sans-serif;font-size:16px;fill:#2a3f5f;fill-opacity:1;white-space:pre;opacity:1" text-anchor="middle" transform="translate(192.18)">X</text><text y="468.2" class="xtick" style="font-family:&quot;Open Sans&quot;,verdana,arial,sans-serif;font-size:16px;fill:#2a3f5f;fill-opacity:1;white-space:pre;opacity:1" text-anchor="middle" transform="translate(243.16)">U|K</text><text y="468.2" class="xtick" style="font-family:&quot;Open Sans&quot;,verdana,arial,sans-serif;font-size:16px;fill:#2a3f5f;fill-opacity:1;white-space:pre;opacity:1" text-anchor="middle" transform="translate(396.09)">Γ</text><text y="468.2" class="xtick" style="font-family:&quot;Open Sans&quot;,verdana,arial,sans-serif;font-size:16px;fill:#2a3f5f;fill-opacity:1;white-space:pre;opacity:1" text-anchor="middle" transform="translate(520.96)">L</text><text y="468.2" class="xtick" style="font-family:&quot;Open Sans&quot;,verdana,arial,sans-serif;font-size:16px;fill:#2a3f5f;fill-opacity:1;white-space:pre;opacity:1" text-anchor="middle" transform="translate(622.91)">W</text></g><g class="yaxislayer-above"><path d="M47 0h-5" class="ytick ticks crisp" style="stroke:#444;stroke-opacity:1;stroke-width:1px" transform="translate(0 443)"/><path d="M47 0h-5" class="ytick ticks crisp" style="stroke:#444;stroke-opacity:1;stroke-width:1px" transform="translate(0 367.87)"/><path d="M47 0h-5" class="ytick ticks crisp" style="stroke:#444;stroke-opacity:1;stroke-width:1px" transform="translate(0 292.73)"/><path d="M47 0h-5" class="ytick ticks crisp" style="stroke:#444;stroke-opacity:1;stroke-width:1px" transform="translate(0 217.6)"/><path d="M47 0h-5" class="ytick ticks crisp" style="stroke:#444;stroke-opacity:1;stroke-width:1px" transform="translate(0 142.47)"/><path d="M47 0h-5" class="ytick ticks crisp" style="stroke:#444;stroke-opacity:1;stroke-width:1px" transform="translate(0 67.34)"/><text x="38.8" y="5.6" class="ytick" style="font-family:&quot;Open Sans&quot;,verdana,arial,sans-serif;font-size:16px;fill:#2a3f5f;fill-opacity:1;white-space:pre;opacity:1" text-anchor="end" transform="translate(0 443)">0</text><text x="38.8" y="5.6" class="ytick" style="font-family:&quot;Open Sans&quot;,verdana,arial,sans-serif;font-size:16px;fill:#2a3f5f;fill-opacity:1;white-space:pre;opacity:1" text-anchor="end" transform="translate(0 367.87)">1</text><text x="38.8" y="5.6" class="ytick" style="font-family:&quot;Open Sans&quot;,verdana,arial,sans-serif;font-size:16px;fill:#2a3f5f;fill-opacity:1;white-space:pre;opacity:1" text-anchor="end" transform="translate(0 292.73)">2</text><text x="38.8" y="5.6" class="ytick" style="font-family:&quot;Open Sans&quot;,verdana,arial,sans-serif;font-size:16px;fill:#2a3f5f;fill-opacity:1;white-space:pre;opacity:1" text-anchor="end" transform="translate(0 217.6)">3</text><text x="38.8" y="5.6" class="ytick" style="font-family:&quot;Open Sans&quot;,verdana,arial,sans-serif;font-size:16px;fill:#2a3f5f;fill-opacity:1;white-space:pre;opacity:1" text-anchor="end" transform="translate(0 142.47)">4</text><text x="38.8" y="5.6" class="ytick" style="font-family:&quot;Open Sans&quot;,verdana,arial,sans-serif;font-size:16px;fill:#2a3f5f;fill-opacity:1;white-space:pre;opacity:1" text-anchor="end" transform="translate(0 67.34)">5</text></g></g></g><defs><clipPath id="c"><path d="M0 0h168v34H0z"/></clipPath></defs><g class="layer-above"><g class="shapelayer"><g class="shape-group" clip-path="url(#b)" data-index="0"><path fill="none" d="M192.18 443V40" data-index="0" style="opacity:1;stroke:#000;stroke-opacity:1;fill:#000;fill-opacity:0;stroke-width:1px"/></g><g class="shape-group" clip-path="url(#b)" data-index="1"><path fill="none" d="M520.96 443V40" data-index="1" style="opacity:1;stroke:#000;stroke-opacity:1;fill:#000;fill-opacity:0;stroke-width:1px"/></g><g class="shape-group" clip-path="url(#b)" data-index="2"><path fill="none" d="M243.16 443V40" data-index="2" style="opacity:1;stroke:#000;stroke-opacity:1;fill:#000;fill-opacity:0;stroke-width:1px"/></g><g class="shape-group" clip-path="url(#b)" data-index="3"><path fill="none" d="M622.91 443V40" data-index="3" style="opacity:1;stroke:#000;stroke-opacity:1;fill:#000;fill-opacity:0;stroke-width:1px"/></g><g class="shape-group" clip-path="url(#b)" data-index="4"><path fill="none" d="M396.09 443V40" data-index="4" style="opacity:1;stroke:#000;stroke-opacity:1;fill:#000;fill-opacity:0;stroke-width:1px"/></g></g></g><g class="infolayer"><g class="legend" pointer-events="all"><path d="M0 0h168v34H0z" class="bg" shape-rendering="crispEdges" style="stroke:#444;stroke-opacity:1;fill:#fff;fill-opacity:.6;stroke-width:0" transform="translate(51.235 44.03)"/><g class="scrollbox" clip-path="url(#c)" transform="translate(51.235 44.03)"><g class="groups"><g class="traces" style="opacity:1"><text x="40" y="6.24" class="legendtext" style="font-family:&quot;Open Sans&quot;,verdana,arial,sans-serif;font-size:16px;fill:#2a3f5f;fill-opacity:1;white-space:pre" transform="translate(0 16.9)">DFT</text><g class="layers" style="opacity:1"><g class="legendlines"><path d="M5 0h30" class="js-line" style="fill:none;stroke:#636efa;stroke-opacity:1;stroke-width:1.5px" transform="translate(0 16.9)"/></g></g><path fill="none" d="M0-11.9h73.891v23.8H0z" class="legendtoggle" style="fill:#000;fill-opacity:0" transform="translate(0 16.9)"/></g></g><g class="groups"><g class="traces" style="opacity:1"><text x="40" y="6.24" class="legendtext" style="font-family:&quot;Open Sans&quot;,verdana,arial,sans-serif;font-size:16px;fill:#2a3f5f;fill-opacity:1;white-space:pre" transform="translate(76.39 16.9)">MACE</text><g class="layers" style="opacity:1"><g class="legendlines"><path d="M5 0h30" class="js-line" style="fill:none;stroke:#ef553b;stroke-opacity:1;stroke-dasharray:3px,3px;stroke-width:1.5px" transform="translate(76.39 16.9)"/></g></g><path fill="none" d="M0-11.9h88.219v23.8H0z" class="legendtoggle" style="fill:#000;fill-opacity:0" transform="translate(76.39 16.9)"/></g></g></g></g><g class="g-gtitle"><text x="350" y="10" class="gtitle" dy=".7em" style="font-family:&quot;Open Sans&quot;,verdana,arial,sans-serif;font-size:22px;fill:#2a3f5f;opacity:1;font-weight:400;white-space:pre" text-anchor="middle">Phonon Bands of Sr4Se4 (mp-2758)</text></g><g class="g-xtitle"><text x="371.5" y="499.503" class="xtitle" style="font-family:&quot;Open Sans&quot;,verdana,arial,sans-serif;font-size:19px;fill:#2a3f5f;opacity:1;font-weight:400;white-space:pre" text-anchor="middle" transform="translate(0 -3.503)">Wave Vector</text></g><g class="g-ytitle"><text x=".825" y="241.5" class="ytitle" style="font-family:&quot;Open Sans&quot;,verdana,arial,sans-serif;font-size:19px;fill:#2a3f5f;opacity:1;font-weight:400;white-space:pre" text-anchor="middle" transform="rotate(-90 9.912 232.413)">Frequency (THz)</text></g></g></svg>