<svg xmlns="http://www.w3.org/2000/svg" width="700" height="500" class="main-svg"><path d="M0 0h700v500H0z" style="fill:#fff;fill-opacity:1"/><defs><clipPath id="b" class="plotclip"><path d="M0 0h623v403H0z"/></clipPath><clipPath id="c" class="axesclip"><path d="M71 0h623v500H71z"/></clipPath><clipPath id="a" class="axesclip"><path d="M0 40h700v403H0z"/></clipPath></defs><g class="layer-below"><g class="shapelayer"><g class="shape-group" clip-path="url(#a)" data-index="9"><path fill-rule="evenodd" d="M71 183.24h623V443H71Z" data-index="9" style="opacity:.07;stroke:#2a3f5f;stroke-opacity:1;fill:gray;fill-opacity:1;stroke-width:2px"/></g></g></g><g class="cartesianlayer"><g class="subplot xy"><g class="gridlayer"><g class="x"><path d="M0 40v403" class="xgrid crisp" style="stroke:#d3d3d3;stroke-opacity:1;stroke-width:1px" transform="translate(169.29)"/><path d="M0 40v403" class="xgrid crisp" style="stroke:#d3d3d3;stroke-opacity:1;stroke-width:1px" transform="translate(226.04)"/><path d="M0 40v403" class="xgrid crisp" style="stroke:#d3d3d3;stroke-opacity:1;stroke-width:1px" transform="translate(339.53)"/><path d="M0 40v403" class="xgrid crisp" style="stroke:#d3d3d3;stroke-opacity:1;stroke-width:1px" transform="translate(368.18)"/><path d="M0 40v403" class="xgrid crisp" style="stroke:#d3d3d3;stroke-opacity:1;stroke-width:1px" transform="translate(466.47)"/><path d="M0 40v403" class="xgrid crisp" style="stroke:#d3d3d3;stroke-opacity:1;stroke-width:1px" transform="translate(523.22)"/><path d="M0 40v403" class="xgrid crisp" style="stroke:#d3d3d3;stroke-opacity:1;stroke-width:1px" transform="translate(636.71)"/><path d="M0 40v403" class="xgrid crisp" style="stroke:#d3d3d3;stroke-opacity:1;stroke-width:1px" transform="translate(665.36)"/></g><g class="y"><path d="M71 0h623" class="ygrid crisp" style="stroke:#d3d3d3;stroke-opacity:1;stroke-width:1px" transform="translate(0 396.36)"/><path d="M71 0h623" class="ygrid crisp" style="stroke:#d3d3d3;stroke-opacity:1;stroke-width:1px" transform="translate(0 325.32)"/><path d="M71 0h623" class="ygrid crisp" style="stroke:#d3d3d3;stroke-opacity:1;stroke-width:1px" transform="translate(0 254.28)"/><path d="M71 0h623" class="ygrid crisp" style="stroke:#d3d3d3;stroke-opacity:1;stroke-width:1px" transform="translate(0 112.2)"/><path d="M71 0h623" class="ygrid crisp" style="stroke:#d3d3d3;stroke-opacity:1;stroke-width:1px" transform="translate(0 41.16)"/></g></g><g class="zerolinelayer"><path d="M71 0h623" class="yzl zl crisp" style="stroke:#ebf0f8;stroke-opacity:1;stroke-width:2px" transform="translate(0 183.24)"/></g><g class="plot" clip-path="url(#b)" transform="translate(71 40)"><g class="scatterlayer mlayer"><g class="trace scatter trace615686" style="stroke-miterlimit:2;opacity:1"><g class="lines"><path d="m0 143.24 1.97 10.93.98 3.11 10.81 31.89.98 2.34 4.92 9.23.98 1.28 2.95 2.5.98.36 1.97-.05.98-.44 1.97-1.77.98-1.37 2.95-6.33.98-2.98 2.95-12.8.98 2.73 4.92 51.82.98 8.99 7.86 64.59.99 7.03 5.89 36.34.99 5 4.91 20.16.98 3.02 3.94 8.67.98 1.3 2.95 1.84.98-.06 1.97-1.12.98-1.04 2.95-4.95.98-2.23 3.93-11.33.99-3.34 8.84-29.81.98-1.82 1.97-1.53" class="js-line" style="vector-effect:none;fill:none;stroke:#636efa;stroke-opacity:1;stroke-width:1.5px;opacity:1"/></g></g><g class="trace scatter trace964f2b" style="stroke-miterlimit:2;opacity:1"><g class="lines"><path d="m0 143.24.98 5.43.99-2.11.98-6.14.98-.92 8.85-7.37.98-.67 6.88-3.58.98-.35 14.75-4.23.98 42.26.98 7.25.99-8.64 2.94 32.88.99 7.74 3.93 24.4.98 4.93 4.92 19.08.98 2.75 2.95 6.15.98 1.34 1.97 1.58.98.24 1.97-.68.98-.92 2.95-5.22.98-2.6 2.95-10.59.98-4.57 2.95-17.51.98-7.47 2.95-30.23.99 8.52 3.93 24.8.98 4.79 3.93 15.23.98 2.94 3.94 8.57.98 1.36 2.95 2.27.98.16" class="js-line" style="vector-effect:none;fill:none;stroke:#636efa;stroke-opacity:1;stroke-width:1.5px;opacity:1"/></g></g><g class="trace scatter traced719c7" style="stroke-miterlimit:2;opacity:1"><g class="lines"><path d="m0 143.24 1.97-1.88.98-5.77 4.91-24.68.99-4.27 4.91-18.36.98-3 3.94-9.43.98-1.66 2.95-3.11.98-.37 1.97.35.98.76 1.96 2.86.99 2.17 2.95 10.45.98 5.31 1.96 15.95.99 14.56 1.96-1.05.99 39.62 1.96-40.64.98-2.83 4.92-6.54.98-1.54 1.97 18.46.98 28.63 1.97 14.93.98 3.73 1.97 4.04.98.71 1.96-.85.99-1.54 1.96-5.62.99-4.49.98-6.45.98-12.95 1.97-31.17.98-6.35 3.93-17.78.98-1.75 1.97 15.89.98 12.51 1.97 54.71.98 8.87.99-20.67.98-49.07 1.96-28.47.99 2.42 1.96 8.48.99 6.2 1.96 21.29.98 37.85 2.95 32.71.99 6.68 2.94 12.97.99 1.93.98.65" class="js-line" style="vector-effect:none;fill:none;stroke:#636efa;stroke-opacity:1;stroke-width:1.5px;opacity:1"/></g></g><g class="trace scatter tracee48d42" style="stroke-miterlimit:2;opacity:1"><g class="lines"><path d="m0 139.63 3.93-17.15.98-4.02 8.85-33.25.98-2.97 3.94-9.7.98-1.81 2.95-3.71.98-.62 1.97-.23.98.43 1.96 2.05.99 1.67 2.95 8.06.98 3.91 2.95 17.32.98 9.01.98 13.23.99-.77 1.96-1.81.98-7.29 2.95-18.41.99.31 1.96 14.55.99.09 7.86-14.82.98-2.02 9.83-20.69.98 1.71 3.93 17.58.99-2.72 2.95-5.47.98-.89 1.97-.22.98.72 1.96 3.38.99-9.29 3.93-27.47.98-1.1 5.9-1.95.98-.17 2.95-.21" class="js-line" style="vector-effect:none;fill:none;stroke:#636efa;stroke-opacity:1;stroke-width:1.5px;opacity:1"/></g></g><g class="trace scatter trace438e1e" style="stroke-miterlimit:2;opacity:1"><g class="lines"><path d="m0 139.63 6.88-39.68.98-5.33 7.87-38.17.98-1.57 11.79 8.94.99.76 8.84 5.88.99.49 2.94 1.21.99 2.86 2.95 13.8.98-4.31 2.95-10.68.98-.97 4.92-1.68.98-.5 5.9-3.96.98-.8 1.96-1.52.99 2.32.98 2.75.98-.49 6.88-12.07.99-1.13 5.89-5.08.99-.68 3.93-2.32.98-4.4 1.97-7.91.98-.68 3.93-1.84.98-.23 1.97-.19" class="js-line" style="vector-effect:none;fill:none;stroke:#636efa;stroke-opacity:1;stroke-width:1.5px;opacity:1"/></g></g><g class="trace scatter trace3eec20" style="stroke-miterlimit:2;opacity:1"><g class="lines"><path d="m0 48.76 5.9.82.98.29 5.9 2.59.98.56 1.97 1.21.98-1.75 4.91-16.09.99-2.35 2.95-5.07.98-.97 1.96-.78.99.21 1.96 1.71.99 1.51 2.94 7.23.99 3.31 3.93 17.35.98 5.22 1.97 8.71.98.25 4.92.4.98-.1 5.9-12.11.98-1.1 2.95-1.47.98.15 1.97 1.29.98 1.17 1.96 3.31.99-.87 7.86-7.98.98-1.35 10.82-15.1.98-1.02 2.95-3 .98-3.4 2.95-7.36.98-1.54 1.97-1.75.98-.22" class="js-line" style="vector-effect:none;fill:none;stroke:#636efa;stroke-opacity:1;stroke-width:1.5px;opacity:1"/></g></g><g class="trace scatter tracee05e20" style="stroke-miterlimit:2;opacity:1"><g class="lines"><path d="m98.29 333.4 2.27-.66.57-.37 2.84-3.06.56-.85 3.41-6.61.57-1.33 3.97-9.23.56.05 1.14 3.24.57 2.37 7.94 32.57.57 1.8 3.97 9.97.57 1.02 2.84 3.52.56.38 2.27.43.57-.16 2.27-1.71.57-.69 2.84-4.95.56-1.28 3.98-11.35.56-1.92 6.25-24.34.56-2.32 2.84-9.95.57-.57" class="js-line" style="vector-effect:none;fill:none;stroke:#636efa;stroke-opacity:1;stroke-width:1.5px;opacity:1"/></g></g><g class="trace scatter tracecca32a" style="stroke-miterlimit:2;opacity:1"><g class="lines"><path d="m98.29 254.11 1.7 1 .57.77 2.27 5.1.57 1.73 3.4 13.22.57 2.55 5.67 23.97.57-.29 1.7-4.54.57-1.94 7.95-30.83.56-2.15.57-2.12.57.97 5.11 22.61.56 2.01 3.98 11.31.56 1.23 3.41 5.52.57.62 2.83 1.89.57.15 2.84-.32.57-.26 3.4-2.74.57-.61 4.54-4.06" class="js-line" style="vector-effect:none;fill:none;stroke:#636efa;stroke-opacity:1;stroke-width:1.5px;opacity:1"/></g></g><g class="trace scatter tracec58651" style="stroke-miterlimit:2;opacity:1"><g class="lines"><path d="m98.29 216.64 3.41.68.56.24 3.98 2.66.56.5 5.11 5.7.57.75 6.24 9.61.57 1.09 2.83 7.42.57 2.23 2.84 11 .57-2 2.83-7.78.57.95 21 34.88.57 1.83 3.4 11.98.57.52" class="js-line" style="vector-effect:none;fill:none;stroke:#636efa;stroke-opacity:1;stroke-width:1.5px;opacity:1"/></g></g><g class="trace scatter trace4237b6" style="stroke-miterlimit:2;opacity:1"><g class="lines"><path d="m98.29 44.89 4.54-.7.57-.18 4.54-1.54.57 2.82 3.4 22.09.57 4.82 2.27 25.61.56 9.52.57 13.39.57 39.28 1.7 34.81.57 7.14 2.84 25.5.56 3.45 2.27 8.88.57 1.42 3.41 6.58.56-.11 3.41-6.92.57-.65 1.7-.99.57.01 1.7 1.01.57.66 2.27 4.16.56 1.38 3.41 10.55.57 2.06 7.37 27.54.57.91 2.27 2.61.57.15" class="js-line" style="vector-effect:none;fill:none;stroke:#636efa;stroke-opacity:1;stroke-width:1.5px;opacity:1"/></g></g><g class="trace scatter trace7e0963" style="stroke-miterlimit:2;opacity:1"><g class="lines"><path d="m98.29 32.45 6.81-.51.57 1.2 2.27 8.67.57-.36.56-.38 6.24-5.13.57-.55 10.22-10.83.56-.62 2.84-1.99.57-.36 21-12.42.56-.23 3.41-1.16" class="js-line" style="vector-effect:none;fill:none;stroke:#636efa;stroke-opacity:1;stroke-width:1.5px;opacity:1"/></g></g><g class="trace scatter tracec116e1" style="stroke-miterlimit:2;opacity:1"><g class="lines"><path d="m98.29 20.67 1.7.65.57.5 2.27 3.5.57 1.24 2.27 5.29.57-.1 7.94-2.11.57-.2 9.08-4.17.56-.31 3.98-2.86.56-.6 9.08-8.61.57-.44 6.24-3.77.57-.24 5.11-1.17.57-.02 3.97.53" class="js-line" style="vector-effect:none;fill:none;stroke:#636efa;stroke-opacity:1;stroke-width:1.5px;opacity:1"/></g></g><g class="trace scatter trace64d77b" style="stroke-miterlimit:2;opacity:1"><g class="lines"><path d="m155.04 307.4 1.13 1.87 1.14 3.49 6.81 20.19 1.13 2.6 4.54 7.68 1.14 1.22 3.4 2.01 1.14.14 3.4-.89 1.14-.5 1.13-.22 1.14.78 2.27 6.3 1.13 4.29 5.68 19.66 1.13 3.02 3.41 6.67 1.13 1.36 2.27 1.34 1.14-.04 2.27-1.54 1.13-1.5 3.41-7.48 1.13-3.49 3.41-13.36 1.13-5.41 4.54-26.23 1.14-7.66 6.81-53.9 1.13-9.52 3.41-20.84 1.13-3.41 3.41-6.08 1.13-1.55 7.95-11.59 1.13-2.03 5.68-12.08 1.13-2.8 6.81-19.12 1.13-3.5 7.95-24.6 1.13-7.44" class="js-line" style="vector-effect:none;fill:none;stroke:#636efa;stroke-opacity:1;stroke-width:1.5px;opacity:1"/></g></g><g class="trace scatter trace24bb30" style="stroke-miterlimit:2;opacity:1"><g class="lines"><path d="m155.04 298.9 2.27 2.01 1.13 1.83 15.89 27.49 1.14 1.4 4.54 4.16 1.13.64 3.41.84 1.13-.11 3.41-1.57 1.13-.96 3.41-4.27 1.13-1.89 4.54-10.03 1.14-3.13 4.54-15.07 1.13-4.42 5.68-26.1 1.13-6.08 4.54-22.64 1.14-2.22 6.81-12.88 1.13-3.41 2.27-13.15 1.14-12.33 1.13-18.81 1.14-46.63 5.67-2.92 1.14-.37 4.54-.64 1.13.05 4.54 1.01 1.14.45 5.67 3.21 1.13.82 7.95 6.81 1.13 9.36 1.14.37 1.13-6.48" class="js-line" style="vector-effect:none;fill:none;stroke:#636efa;stroke-opacity:1;stroke-width:1.5px;opacity:1"/></g></g><g class="trace scatter tracedab5bf" style="stroke-miterlimit:2;opacity:1"><g class="lines"><path d="m155.04 298.9 1.13-1.93 1.14-3.44 4.54-11.76 1.13-1.62 2.27-1.16 1.14.5 2.27 3.16 1.13 2.59 3.41 11.1 1.13 4.56 7.95 32.69 1.13 1.01 1.14-.68 1.13-1.6 3.41-7.26 1.13-2.92 6.81-20.67 1.14-3.77 12.48-40.28 1.14-3.12 4.54-10.94 1.13-7.43 4.54-36.42 1.14-12.31 1.13-16.41 1.14-35.88 3.4-1.21 1.14-.68 1.13-.73 1.14-10.98 2.27-38.45 1.13-10.52 1.14-6.85 1.13-.69 6.81-4.8 1.14 2.22 4.54 13.25 1.13 3.83 6.81 26.46 1.13 4.91 6.81 30.4 1.14 1.08 1.13 1.09" class="js-line" style="vector-effect:none;fill:none;stroke:#636efa;stroke-opacity:1;stroke-width:1.5px;opacity:1"/></g></g><g class="trace scatter tracecfc399" style="stroke-miterlimit:2;opacity:1"><g class="lines"><path d="m155.04 290.15 1.13-.59 1.14-1.49 4.54-9.38 1.13-2.65 11.35-25.4 1.14-2.09 5.67-8.79 1.14-1.46 12.48-15.78 1.14-2 4.54-10.5 1.13-3.44 3.41-13.32 1.13-5.9 2.27-16.38 1.14-15.38 1.13-34.22 1.14-5.1 6.81 12.95 1.13 1.65 3.41 3.41 1.13.49 1.14-10.25 1.13-18.57 3.41-26.42 1.13-5.5 2.27-6.85 1.14-.5 1.13-.57 1.14-1.92 1.13-6.4 1.14-1.59 2.27-.45 1.13.42 1.14 1.07 1.13 2.25 1.14-.21 1.13 1.77 3.41 7.09 1.13 2.91 5.67 18.04 1.14 4.21 6.81 28.55 1.13 5.33 2.27 12.44" class="js-line" style="vector-effect:none;fill:none;stroke:#636efa;stroke-opacity:1;stroke-width:1.5px;opacity:1"/></g></g><g class="trace scatter trace9a84ce" style="stroke-miterlimit:2;opacity:1"><g class="lines"><path d="m155.04 7.78 4.54 2.07 1.13.77 4.54 4.1 1.14 1.27 5.67 7.86 1.14 1.85 6.81 12.89 1.13 2.41 9.08 21.4 1.14 2.87 19.29 48.5 1.14-3.98 3.4-21.89 1.14-5.5 3.4-13.52 1.14-2.26 4.54 1.66 1.13.15 4.54-.46 1.14-.35 2.27-4.87 1.13-2.43 2.27-3.23 1.14-4.29 1.13-2.02 1.14 1.75 4.54 6.62 1.13-.84 4.54-3.24 1.13 3.22 4.54 19.01 1.14 5.59 10.21 56.74" class="js-line" style="vector-effect:none;fill:none;stroke:#636efa;stroke-opacity:1;stroke-width:1.5px;opacity:1"/></g></g><g class="trace scatter trace59e8d8" style="stroke-miterlimit:2;opacity:1"><g class="lines"><path d="m155.04 7.78 5.67-.94 1.14-.02 5.67.85 1.14.36 5.67 2.85 1.14.77 5.67 4.86 1.14 1.16 7.94 9.67 1.14 1.56 22.7 32.09 1.13 1.17 4.54 3.78 1.14-.75 4.54-11.34 1.13-2.03 3.41-4.24 1.13-.81 2.27-.72 1.14.08 2.27 1.02 1.13.94 1.14 1.21 1.13-.32 2.27-4.66 1.14-1.05 2.27.14 1.13 1.08 2.27 3.95 1.14 2.8 1.13 3.29 1.13-.21 7.95-4.09 1.13-.39 5.68-1.05 1.13-.03" class="js-line" style="vector-effect:none;fill:none;stroke:#636efa;stroke-opacity:1;stroke-width:1.5px;opacity:1"/></g></g><g class="trace scatter trace8bb81f" style="stroke-miterlimit:2;opacity:1"><g class="lines"><path d="m268.53 143.24 18.91-4.49.29-.04 9.45-.77" class="js-line" style="vector-effect:none;fill:none;stroke:#636efa;stroke-opacity:1;stroke-width:1.5px;opacity:1"/></g></g><g class="trace scatter trace1caf15" style="stroke-miterlimit:2;opacity:1"><g class="lines"><path d="m268.53 143.24 18.91-4.49.29-.04 9.45-.77" class="js-line" style="vector-effect:none;fill:none;stroke:#636efa;stroke-opacity:1;stroke-width:1.5px;opacity:1"/></g></g><g class="trace scatter traced22df3" style="stroke-miterlimit:2;opacity:1"><g class="lines"><path d="m268.53 143.24 2.87-3.67.29-.01 15.75-1.31.29-.02 9.45-.29" class="js-line" style="vector-effect:none;fill:none;stroke:#636efa;stroke-opacity:1;stroke-width:1.5px;opacity:1"/></g></g><g class="trace scatter trace041f40" style="stroke-miterlimit:2;opacity:1"><g class="lines"><path d="m268.53 139.63 12.03-.75.29-.03 16.04-.92.29.01" class="js-line" style="vector-effect:none;fill:none;stroke:#636efa;stroke-opacity:1;stroke-width:1.5px;opacity:1"/></g></g><g class="trace scatter traceb91abb" style="stroke-miterlimit:2;opacity:1"><g class="lines"><path d="m268.53 139.63 2.58-.74.29-.5 6.3-12.29.29-.64 7.16-18.11.28-.79 11.75-31.94" class="js-line" style="vector-effect:none;fill:none;stroke:#636efa;stroke-opacity:1;stroke-width:1.5px;opacity:1"/></g></g><g class="trace scatter tracee9dd01" style="stroke-miterlimit:2;opacity:1"><g class="lines"><path d="m268.53 48.76 8.31.73.29.07 4.58 1.88.29.17 4.58 3.99.29.33 4.58 6.7.29.5 5.44 11.49" class="js-line" style="vector-effect:none;fill:none;stroke:#636efa;stroke-opacity:1;stroke-width:1.5px;opacity:1"/></g></g><g class="trace scatter trace1fea3b" style="stroke-miterlimit:2;opacity:1"><g class="lines"><path d="m297.18 137.94 1.96-1.79.99-1.73 11.79-22.67.98-1.41 3.94-4.37.98-.73 2.95-1.22.98-.05 2.95 1.09.98.81 2.95 4.13.98 2.05 2.95 9.38.99 5.12.98 8.48.98 20.72 2.95 17.35.98 4.1 1.97 10.22.98 8.2 3.93 24.88.99 4.97 4.91 19.72.98 3.03 3.94 9.26.98 1.62 2.95 3.24.98.54 1.97.31.98-.23 2.95-2.2.98-1.22 3.93-7.13.98-2.31 4.92-14.25.98-3.3 11.8-40.39.98-2.07 1.97-2.52.98-.32" class="js-line" style="vector-effect:none;fill:none;stroke:#636efa;stroke-opacity:1;stroke-width:1.5px;opacity:1"/></g></g><g class="trace scatter trace1e38df" style="stroke-miterlimit:2;opacity:1"><g class="lines"><path d="m297.18 137.94 1.96-1.79.99-1.73 11.79-22.67.98-1.41 3.94-4.37.98-.73 2.95-1.22.98-.05 2.95 1.09.98.81 2.95 4.13.98 2.05 2.95 9.38.99 5.12.98 8.48.98 20.72 2.95 17.35.98 4.1 1.97 10.22.98 8.2 3.93 24.88.99 4.97 4.91 19.72.98 3.03 3.94 9.26.98 1.62 2.95 3.24.98.54 1.97.31.98-.23 2.95-2.2.98-1.22 3.93-7.13.98-2.31 4.92-14.25.98-3.3 11.8-40.39.98-2.07 1.97-2.52.98-.32" class="js-line" style="vector-effect:none;fill:none;stroke:#636efa;stroke-opacity:1;stroke-width:1.5px;opacity:1"/></g></g><g class="trace scatter tracea76248" style="stroke-miterlimit:2;opacity:1"><g class="lines"><path d="m297.18 137.94.98-1.35.98-2.95 9.83-33.56.99-2.45 2.94-5.51.99-1.21 2.95-2.01.98-.25 3.93.19.98.25 7.87 3.09.98.43 2.95 1.81.98 2.45 1.97 14.79.98 14.09 1.97 51.78.98 6.81 4.91 13.84.99 2.22 4.91 8.5.98 1.19 3.94 3.01.98.31 2.95-.19.98-.43 2.95-2.45.98-1.21 3.93-6.88.99-2.27 3.93-11.6.98-3.67 2.95-14.15.98-6.73.98-10.25.99-24.59 2.95-18.39.98-3.74 2.95-8.12.98-1.92 2.95-3.85.98-.69 1.97-.56" class="js-line" style="vector-effect:none;fill:none;stroke:#636efa;stroke-opacity:1;stroke-width:1.5px;opacity:1"/></g></g><g class="trace scatter trace853ce5" style="stroke-miterlimit:2;opacity:1"><g class="lines"><path d="m297.18 137.94.98-1.35.98-2.95 9.83-33.56.99-2.45 2.94-5.51.99-1.21 2.95-2.01.98-.25 3.93.19.98.25 7.87 3.09.98.43 2.95 1.81.98 2.45 1.97 14.79.98 14.09 1.97 51.78.98 6.81 4.91 13.84.99 2.22 4.91 8.5.98 1.19 3.94 3.01.98.31 2.95-.19.98-.43 2.95-2.45.98-1.21 3.93-6.88.99-2.27 3.93-11.6.98-3.67 2.95-14.15.98-6.73.98-10.25.99-24.59 2.95-18.39.98-3.74 2.95-8.12.98-1.92 2.95-3.85.98-.69 1.97-.56" class="js-line" style="vector-effect:none;fill:none;stroke:#636efa;stroke-opacity:1;stroke-width:1.5px;opacity:1"/></g></g><g class="trace scatter tracea92c84" style="stroke-miterlimit:2;opacity:1"><g class="lines"><path d="m297.18 74.62 9.83-.66.98-.27 3.93-2.11.98-.85 7.87-7.16.98-.34 1.97.04.98.42 1.97 1.74.98 1.36 2.95 6.33.98 2.97 4.91 16.79.99.48 3.93.18.98-.21 3.93-1.76.99-.68 4.91-4.72.98-1.19 5.9-8.44.98-1.57 18.68-29.44.98-1.2 5.9-5.84.98-.73 4.92-2.51.98-.27 2.95-.35" class="js-line" style="vector-effect:none;fill:none;stroke:#636efa;stroke-opacity:1;stroke-width:1.5px;opacity:1"/></g></g><g class="trace scatter trace673860" style="stroke-miterlimit:2;opacity:1"><g class="lines"><path d="m297.18 74.62 9.83-.66.98-.27 3.93-2.11.98-.85 7.87-7.16.98-.34 1.97.04.98.42 1.97 1.74.98 1.36 2.95 6.33.98 2.97 4.91 16.79.99.48 3.93.18.98-.21 3.93-1.76.99-.68 4.91-4.72.98-1.19 5.9-8.44.98-1.57 18.68-29.44.98-1.2 5.9-5.84.98-.73 4.92-2.51.98-.27 2.95-.35" class="js-line" style="vector-effect:none;fill:none;stroke:#636efa;stroke-opacity:1;stroke-width:1.5px;opacity:1"/></g></g><g class="trace scatter trace083518" style="stroke-miterlimit:2;opacity:1"><g class="lines"><path d="m395.47 187.25 7.94.38.57.39.57.96.57 2.59 8.51 60.35.57 3.24 5.67 27.62.57 2.28 4.54 15.11.56 1.49 3.98 7.96.56.79 2.84 2.63.57.28 2.27.27.57-.13 2.83-1.8.57-.58 3.41-4.84.56-1.02 4.54-9.9.57-1.42 3.41-8.95" class="js-line" style="vector-effect:none;fill:none;stroke:#636efa;stroke-opacity:1;stroke-width:1.5px;opacity:1"/></g></g><g class="trace scatter trace35d6d8" style="stroke-miterlimit:2;opacity:1"><g class="lines"><path d="m395.47 187.25 7.94.38.57.39.57.96.57 2.59 8.51 60.35.57 3.24 5.67 27.62.57 2.28 4.54 15.11.56 1.49 3.98 7.96.56.79 2.84 2.63.57.28 2.27.27.57-.13 2.83-1.8.57-.58 3.41-4.84.56-1.02 4.54-9.9.57-1.42 3.41-8.95" class="js-line" style="vector-effect:none;fill:none;stroke:#636efa;stroke-opacity:1;stroke-width:1.5px;opacity:1"/></g></g><g class="trace scatter tracebf396b" style="stroke-miterlimit:2;opacity:1"><g class="lines"><path d="m395.47 91.72 1.13.7.57.87 1.7 4.96.57 2.56 1.7 11.79.57 6.31.57 9.57.57 28.22 1.7 24.37.57 3.42 1.7 2.12.57.23 5.1 2.52.57.43 3.97 4.17.57.77 4.54 7.63.57 1.13 6.24 14.5.57 1.47 11.35 32.47.56 1.69 10.79 31.25" class="js-line" style="vector-effect:none;fill:none;stroke:#636efa;stroke-opacity:1;stroke-width:1.5px;opacity:1"/></g></g><g class="trace scatter trace77168d" style="stroke-miterlimit:2;opacity:1"><g class="lines"><path d="m395.47 91.72 1.13.7.57.87 1.7 4.96.57 2.56 1.7 11.79.57 6.31.57 9.57.57 28.22 1.7 24.37.57 3.42 1.7 2.12.57.23 5.1 2.52.57.43 3.97 4.17.57.77 4.54 7.63.57 1.13 6.24 14.5.57 1.47 11.35 32.47.56 1.69 10.79 31.25" class="js-line" style="vector-effect:none;fill:none;stroke:#636efa;stroke-opacity:1;stroke-width:1.5px;opacity:1"/></g></g><g class="trace scatter trace3ca746" style="stroke-miterlimit:2;opacity:1"><g class="lines"><path d="m395.47 34.63 6.81-.75.57-.11 10.21-2.73.57-.21 7.38-3.45.56-.32 10.78-6.9.57-.37 10.22-5.75.56-.23 5.68-1.61.57-.08 2.27-.14" class="js-line" style="vector-effect:none;fill:none;stroke:#636efa;stroke-opacity:1;stroke-width:1.5px;opacity:1"/></g></g><g class="trace scatter tracea640b3" style="stroke-miterlimit:2;opacity:1"><g class="lines"><path d="m395.47 34.63 6.81-.75.57-.11 10.21-2.73.57-.21 7.38-3.45.56-.32 10.78-6.9.57-.37 10.22-5.75.56-.23 5.68-1.61.57-.08 2.27-.14" class="js-line" style="vector-effect:none;fill:none;stroke:#636efa;stroke-opacity:1;stroke-width:1.5px;opacity:1"/></g></g><g class="trace scatter tracef9cc83" style="stroke-miterlimit:2;opacity:1"><g class="lines"><path d="m452.22 284.95 7.94 19.65 1.14 2.43 5.67 10.34 1.14 1.67 4.54 5.2 1.13.91 3.41 1.76 1.13.24 3.41-.29 1.13-.45 3.41-2.4 1.13-1.16 4.54-6.38 1.14-2.03 5.67-12.61 1.13-2.99 6.81-20.94 1.14-3.94 9.08-35.04 1.13-4.74 11.35-50.64 1.14-5.69 3.4-21.89 1.14-23.16 2.27-13.01 1.13-3.44 3.41-5.81 1.13-.91 2.27-.66 1.14.18 2.27 1.29 1.13 1.04 3.41 4.48 1.13 1.86 6.81 13.42 1.14 2.3 2.27 3.74 1.13.66" class="js-line" style="vector-effect:none;fill:none;stroke:#636efa;stroke-opacity:1;stroke-width:1.5px;opacity:1"/></g></g><g class="trace scatter traceb69b13" style="stroke-miterlimit:2;opacity:1"><g class="lines"><path d="m452.22 284.95 7.94 19.65 1.14 2.43 5.67 10.34 1.14 1.67 4.54 5.2 1.13.91 3.41 1.76 1.13.24 3.41-.29 1.13-.45 3.41-2.4 1.13-1.16 4.54-6.38 1.14-2.03 5.67-12.61 1.13-2.99 6.81-20.94 1.14-3.94 9.08-35.04 1.13-4.74 11.35-50.64 1.14-5.69 3.4-21.89 1.14-23.16 2.27-13.01 1.13-3.44 3.41-5.81 1.13-.91 2.27-.66 1.14.18 2.27 1.29 1.13 1.04 3.41 4.48 1.13 1.86 6.81 13.42 1.14 2.3 2.27 3.74 1.13.66" class="js-line" style="vector-effect:none;fill:none;stroke:#636efa;stroke-opacity:1;stroke-width:1.5px;opacity:1"/></g></g><g class="trace scatter tracef03f4a" style="stroke-miterlimit:2;opacity:1"><g class="lines"><path d="m452.22 284.87 9.08-22.86 1.13-2.14 3.41-4.7 1.13-.92 2.27-.81 1.14.11 2.27 1.18 1.13 1.02 3.41 4.42 1.13 1.81 11.35 18.11 1.14 1.16 3.4 2.12 1.13.21 2.27-.39 1.14-.63 3.4-3.71 1.14-1.86 3.4-7.53 1.14-3.18 4.54-16.13 1.13-4.92 4.54-23.81 1.14-7.2 3.4-27.02 1.14-12.95 3.4-71.81 1.14-8.44 1.13-5.59 1.14-.75 5.67-2.27 1.14-.24 4.54.02 1.13.28 3.41 1.68 1.13.96 3.41 4.8 1.13 2.34 4.54 12.76 1.14 3.84 7.94 26.11" class="js-line" style="vector-effect:none;fill:none;stroke:#636efa;stroke-opacity:1;stroke-width:1.5px;opacity:1"/></g></g><g class="trace scatter traceae6b88" style="stroke-miterlimit:2;opacity:1"><g class="lines"><path d="m452.22 284.87 9.08-22.86 1.13-2.14 3.41-4.7 1.13-.92 2.27-.81 1.14.11 2.27 1.18 1.13 1.02 3.41 4.42 1.13 1.81 11.35 18.11 1.14 1.16 3.4 2.12 1.13.21 2.27-.39 1.14-.63 3.4-3.71 1.14-1.86 3.4-7.53 1.14-3.18 4.54-16.13 1.13-4.92 4.54-23.81 1.14-7.2 3.4-27.02 1.14-12.95 3.4-71.81 1.14-8.44 1.13-5.59 1.14-.75 5.67-2.27 1.14-.24 4.54.02 1.13.28 3.41 1.68 1.13.96 3.41 4.8 1.13 2.34 4.54 12.76 1.14 3.84 7.94 26.11" class="js-line" style="vector-effect:none;fill:none;stroke:#636efa;stroke-opacity:1;stroke-width:1.5px;opacity:1"/></g></g><g class="trace scatter tracefa92c5" style="stroke-miterlimit:2;opacity:1"><g class="lines"><path d="m452.22 11.98 5.67.95 1.14.44 4.54 2.57 1.13.86 5.68 5.55 1.13 1.35 6.81 9.62 1.14 1.83 10.21 18.38 1.14 2.17 12.48 22.58 1.13 1.73 5.68 7.05 1.13 1.05 4.54 2.79 1.14.35 4.54.11 1.13-.26 5.68-2.38 1.13-1.63 3.41-13.25 1.13-2.95 3.41-5.5 1.13-.89 2.27-.59 1.14.23 3.4 2.23 1.14 1.08 5.67 5.02 1.14.61 4.54 1.22 1.13.12 6.81.2" class="js-line" style="vector-effect:none;fill:none;stroke:#636efa;stroke-opacity:1;stroke-width:1.5px;opacity:1"/></g></g><g class="trace scatter trace9af0c1" style="stroke-miterlimit:2;opacity:1"><g class="lines"><path d="m452.22 11.98 5.67.95 1.14.44 4.54 2.57 1.13.86 5.68 5.55 1.13 1.35 6.81 9.62 1.14 1.83 10.21 18.38 1.14 2.17 12.48 22.58 1.13 1.73 5.68 7.05 1.13 1.05 4.54 2.79 1.14.35 4.54.11 1.13-.26 5.68-2.38 1.13-1.63 3.41-13.25 1.13-2.95 3.41-5.5 1.13-.89 2.27-.59 1.14.23 3.4 2.23 1.14 1.08 5.67 5.02 1.14.61 4.54 1.22 1.13.12 6.81.2" class="js-line" style="vector-effect:none;fill:none;stroke:#636efa;stroke-opacity:1;stroke-width:1.5px;opacity:1"/></g></g><g class="trace scatter trace68aa33" style="stroke-miterlimit:2;opacity:1"><g class="lines"><path d="m565.71 187.25 5.44 48.57.29 2.25 6.59 45.35.29 1.68 4.87 24.48.28 1.19 4.3 14.27.28.7 3.16 5.74.28.33 2.29 1.53.29.04.29.02" class="js-line" style="vector-effect:none;fill:none;stroke:#636efa;stroke-opacity:1;stroke-width:1.5px;opacity:1"/></g></g><g class="trace scatter trace9d2304" style="stroke-miterlimit:2;opacity:1"><g class="lines"><path d="m565.71 187.25 2.01-27.12.28-7.54.29-19.39.29 20.97.28 8.92 2.01 27.87.28 2.67 3.44 23.56.29 1.49 3.72 15.38.29.92 4.01 9.98.29.53 3.43 4.87.29.3 3.72 2.64.29.13 3.44.68" class="js-line" style="vector-effect:none;fill:none;stroke:#636efa;stroke-opacity:1;stroke-width:1.5px;opacity:1"/></g></g><g class="trace scatter traceffc1b7" style="stroke-miterlimit:2;opacity:1"><g class="lines"><path d="m565.71 91.72 2.01 24.88.28 5.84.29 8.31.29-4.23.28-4.46 2.01-15.78.28-1.25 2.01-4.97.29-.27 1.14-.09.29.21 1.43 2.45.29.77 2 8.71.29 1.84 1.43 14.05.29 5.43 1.14 32.14.29 3.24 2.86 21.96.29 1.64 3.44 15.14.28.92 2.87 6.55.28.4 2.01 1.46.29.03" class="js-line" style="vector-effect:none;fill:none;stroke:#636efa;stroke-opacity:1;stroke-width:1.5px;opacity:1"/></g></g><g class="trace scatter trace9961e2" style="stroke-miterlimit:2;opacity:1"><g class="lines"><path d="m565.71 91.72 3.73-26.85.28-1.6 4.3-19.13.29-.99 1.14-3.1.29.14.28.14 8.02 3.09.29.08 7.45 1.3.28.02 2.3.07" class="js-line" style="vector-effect:none;fill:none;stroke:#636efa;stroke-opacity:1;stroke-width:1.5px;opacity:1"/></g></g><g class="trace scatter trace62d4c5" style="stroke-miterlimit:2;opacity:1"><g class="lines"><path d="m565.71 34.63 9.74 4.84.29-.85 2.86-6.71.29.02 15.47.52" class="js-line" style="vector-effect:none;fill:none;stroke:#636efa;stroke-opacity:1;stroke-width:1.5px;opacity:1"/></g></g><g class="trace scatter tracec2225b" style="stroke-miterlimit:2;opacity:1"><g class="lines"><path d="m565.71 34.63 6.3-2.51.29-.06 5.44-.2.29.02.57-.31.29-.57 3.72-5.64.29-.31 3.72-2.82.29-.14 4.58-1.26.29-.03 2.58-.13" class="js-line" style="vector-effect:none;fill:none;stroke:#636efa;stroke-opacity:1;stroke-width:1.5px;opacity:1"/></g></g><g class="trace scatter trace3bb6d1" style="stroke-miterlimit:2;opacity:1"><g class="lines"><path d="m594.36 284.95 2.86 3.24.29.36 11.45 13.23.29.24 5.44 3.54.29.13 5.16 1.5.28.04 2.58.17" class="js-line" style="vector-effect:none;fill:none;stroke:#636efa;stroke-opacity:1;stroke-width:1.5px;opacity:1"/></g></g><g class="trace scatter trace5955bf" style="stroke-miterlimit:2;opacity:1"><g class="lines"><path d="m594.36 284.95 4.58.9.29.12 5.44 3.12.28.21 13.18 8.67.29.1 4.29.82.29.01" class="js-line" style="vector-effect:none;fill:none;stroke:#636efa;stroke-opacity:1;stroke-width:1.5px;opacity:1"/></g></g><g class="trace scatter tracedd8c02" style="stroke-miterlimit:2;opacity:1"><g class="lines"><path d="m594.36 284.87 8.3 2.89.29.18 7.73 5.66.29.21 6.87 4.05.29.11 4.87.93" class="js-line" style="vector-effect:none;fill:none;stroke:#636efa;stroke-opacity:1;stroke-width:1.5px;opacity:1"/></g></g><g class="trace scatter trace3d1c84" style="stroke-miterlimit:2;opacity:1"><g class="lines"><path d="m594.36 284.87 4.58-3.81.29-.15 3.15-.93.28-.02 3.44.69.29.13 4.58 2.92.29.22 8.02 5.44.28.11 3.44.68" class="js-line" style="vector-effect:none;fill:none;stroke:#636efa;stroke-opacity:1;stroke-width:1.5px;opacity:1"/></g></g><g class="trace scatter trace0d15b4" style="stroke-miterlimit:2;opacity:1"><g class="lines"><path d="m594.36 11.98 7.73-.72.29-.05L623 7.78" class="js-line" style="vector-effect:none;fill:none;stroke:#636efa;stroke-opacity:1;stroke-width:1.5px;opacity:1"/></g></g><g class="trace scatter trace5dac64" style="stroke-miterlimit:2;opacity:1"><g class="lines"><path d="m594.36 11.98 7.73-.72.29-.05L623 7.78" class="js-line" style="vector-effect:none;fill:none;stroke:#636efa;stroke-opacity:1;stroke-width:1.5px;opacity:1"/></g></g></g></g><path d="M70 443.5h625M70 39.5h625" class="xlines-above crisp" style="fill:none;stroke-width:1px;stroke:#000;stroke-opacity:1"/><path d="M70.5 40v403m624-403v403" class="ylines-above crisp" style="fill:none;stroke-width:1px;stroke:#000;stroke-opacity:1"/><g class="xaxislayer-above"><path d="M0 444v5" class="xtick ticks crisp" style="stroke:#444;stroke-opacity:1;stroke-width:1px" transform="translate(71)"/><path d="M0 444v5" class="xtick ticks crisp" style="stroke:#444;stroke-opacity:1;stroke-width:1px" transform="translate(169.29)"/><path d="M0 444v5" class="xtick ticks crisp" style="stroke:#444;stroke-opacity:1;stroke-width:1px" transform="translate(226.04)"/><path d="M0 444v5" class="xtick ticks crisp" style="stroke:#444;stroke-opacity:1;stroke-width:1px" transform="translate(339.53)"/><path d="M0 444v5" class="xtick ticks crisp" style="stroke:#444;stroke-opacity:1;stroke-width:1px" transform="translate(368.18)"/><path d="M0 444v5" class="xtick ticks crisp" style="stroke:#444;stroke-opacity:1;stroke-width:1px" transform="translate(466.47)"/><path d="M0 444v5" class="xtick ticks crisp" style="stroke:#444;stroke-opacity:1;stroke-width:1px" transform="translate(523.22)"/><path d="M0 444v5" class="xtick ticks crisp" style="stroke:#444;stroke-opacity:1;stroke-width:1px" transform="translate(636.71)"/><path d="M0 444v5" class="xtick ticks crisp" style="stroke:#444;stroke-opacity:1;stroke-width:1px" transform="translate(665.36)"/><path d="M0 444v5" class="xtick ticks crisp" style="stroke:#444;stroke-opacity:1;stroke-width:1px" transform="translate(694)"/><text y="468.2" class="xtick" style="font-family:&quot;Open Sans&quot;,verdana,arial,sans-serif;font-size:16px;fill:#000;fill-opacity:1;white-space:pre;opacity:1" text-anchor="middle" transform="translate(71)">Γ</text><text y="468.2" class="xtick" style="font-family:&quot;Open Sans&quot;,verdana,arial,sans-serif;font-size:16px;fill:#000;fill-opacity:1;white-space:pre;opacity:1" text-anchor="middle" transform="translate(169.29)">M</text><text y="468.2" class="xtick" style="font-family:&quot;Open Sans&quot;,verdana,arial,sans-serif;font-size:16px;fill:#000;fill-opacity:1;white-space:pre;opacity:1" text-anchor="middle" transform="translate(226.04)">K</text><text y="468.2" class="xtick" style="font-family:&quot;Open Sans&quot;,verdana,arial,sans-serif;font-size:16px;fill:#000;fill-opacity:1;white-space:pre;opacity:1" text-anchor="middle" transform="translate(339.53)">Γ</text><text y="468.2" class="xtick" style="font-family:&quot;Open Sans&quot;,verdana,arial,sans-serif;font-size:16px;fill:#000;fill-opacity:1;white-space:pre;opacity:1" text-anchor="middle" transform="translate(368.18)">A</text><text y="468.2" class="xtick" style="font-family:&quot;Open Sans&quot;,verdana,arial,sans-serif;font-size:16px;fill:#000;fill-opacity:1;white-space:pre;opacity:1" text-anchor="middle" transform="translate(466.47)">L</text><text y="468.2" class="xtick" style="font-family:&quot;Open Sans&quot;,verdana,arial,sans-serif;font-size:16px;fill:#000;fill-opacity:1;white-space:pre;opacity:1" text-anchor="middle" transform="translate(523.22)">H</text><text y="468.2" class="xtick" style="font-family:&quot;Open Sans&quot;,verdana,arial,sans-serif;font-size:16px;fill:#000;fill-opacity:1;white-space:pre;opacity:1" text-anchor="middle" transform="translate(636.71)">A|L</text><text y="468.2" class="xtick" style="font-family:&quot;Open Sans&quot;,verdana,arial,sans-serif;font-size:16px;fill:#000;fill-opacity:1;white-space:pre;opacity:1" text-anchor="middle" transform="translate(665.36)">M|H</text><text y="468.2" class="xtick" style="font-family:&quot;Open Sans&quot;,verdana,arial,sans-serif;font-size:16px;fill:#000;fill-opacity:1;white-space:pre;opacity:1" text-anchor="middle" transform="translate(694)">K</text></g><g class="yaxislayer-above"><path d="M70 0h-5" class="ytick ticks crisp" style="stroke:#444;stroke-opacity:1;stroke-width:1px" transform="translate(0 396.36)"/><path d="M70 0h-5" class="ytick ticks crisp" style="stroke:#444;stroke-opacity:1;stroke-width:1px" transform="translate(0 325.32)"/><path d="M70 0h-5" class="ytick ticks crisp" style="stroke:#444;stroke-opacity:1;stroke-width:1px" transform="translate(0 254.28)"/><path d="M70 0h-5" class="ytick ticks crisp" style="stroke:#444;stroke-opacity:1;stroke-width:1px" transform="translate(0 183.24)"/><path d="M70 0h-5" class="ytick ticks crisp" style="stroke:#444;stroke-opacity:1;stroke-width:1px" transform="translate(0 112.2)"/><path d="M70 0h-5" class="ytick ticks crisp" style="stroke:#444;stroke-opacity:1;stroke-width:1px" transform="translate(0 41.16)"/><text x="61.8" y="5.6" class="ytick" style="font-family:&quot;Open Sans&quot;,verdana,arial,sans-serif;font-size:16px;fill:#000;fill-opacity:1;white-space:pre;opacity:1" text-anchor="end" transform="translate(0 396.36)">−60</text><text x="61.8" y="5.6" class="ytick" style="font-family:&quot;Open Sans&quot;,verdana,arial,sans-serif;font-size:16px;fill:#000;fill-opacity:1;white-space:pre;opacity:1" text-anchor="end" transform="translate(0 325.32)">−40</text><text x="61.8" y="5.6" class="ytick" style="font-family:&quot;Open Sans&quot;,verdana,arial,sans-serif;font-size:16px;fill:#000;fill-opacity:1;white-space:pre;opacity:1" text-anchor="end" transform="translate(0 254.28)">−20</text><text x="61.8" y="5.6" class="ytick" style="font-family:&quot;Open Sans&quot;,verdana,arial,sans-serif;font-size:16px;fill:#000;fill-opacity:1;white-space:pre;opacity:1" text-anchor="end" transform="translate(0 183.24)">0</text><text x="61.8" y="5.6" class="ytick" style="font-family:&quot;Open Sans&quot;,verdana,arial,sans-serif;font-size:16px;fill:#000;fill-opacity:1;white-space:pre;opacity:1" text-anchor="end" transform="translate(0 112.2)">20</text><text x="61.8" y="5.6" class="ytick" style="font-family:&quot;Open Sans&quot;,verdana,arial,sans-serif;font-size:16px;fill:#000;fill-opacity:1;white-space:pre;opacity:1" text-anchor="end" transform="translate(0 41.16)">40</text></g></g></g><defs><clipPath id="d"><path d="M0 0h75v34H0z"/></clipPath></defs><g class="layer-above"><g class="shapelayer"><g class="shape-group" clip-path="url(#c)" data-index="0"><path fill="none" d="M226.04 443V40" data-index="0" style="opacity:1;stroke:#000;stroke-opacity:1;fill:#000;fill-opacity:0;stroke-width:1px"/></g><g class="shape-group" clip-path="url(#c)" data-index="1"><path fill="none" d="M368.18 443V40" data-index="1" style="opacity:1;stroke:#000;stroke-opacity:1;fill:#000;fill-opacity:0;stroke-width:1px"/></g><g class="shape-group" clip-path="url(#c)" data-index="2"><path fill="none" d="M169.29 443V40" data-index="2" style="opacity:1;stroke:#000;stroke-opacity:1;fill:#000;fill-opacity:0;stroke-width:1px"/></g><g class="shape-group" clip-path="url(#c)" data-index="3"><path fill="none" d="M339.53 443V40" data-index="3" style="opacity:1;stroke:#000;stroke-opacity:1;fill:#000;fill-opacity:0;stroke-width:1px"/></g><g class="shape-group" clip-path="url(#c)" data-index="4"><path fill="none" d="M466.47 443V40" data-index="4" style="opacity:1;stroke:#000;stroke-opacity:1;fill:#000;fill-opacity:0;stroke-width:1px"/></g><g class="shape-group" clip-path="url(#c)" data-index="5"><path fill="none" d="M523.22 443V40" data-index="5" style="opacity:1;stroke:#000;stroke-opacity:1;fill:#000;fill-opacity:0;stroke-width:1px"/></g><g class="shape-group" clip-path="url(#c)" data-index="6"><path fill="none" d="M636.71 443V40" data-index="6" style="opacity:1;stroke:#000;stroke-opacity:1;fill:#000;fill-opacity:0;stroke-width:1px"/></g><g class="shape-group" clip-path="url(#c)" data-index="7"><path fill="none" d="M665.36 443V40" data-index="7" style="opacity:1;stroke:#000;stroke-opacity:1;fill:#000;fill-opacity:0;stroke-width:1px"/></g><g class="shape-group" clip-path="url(#a)" data-index="8"><path fill="none" d="M71 183.24h623" data-index="8" style="opacity:1;stroke:#000;stroke-opacity:1;fill:#000;fill-opacity:0;stroke-width:1px"/></g></g></g><g class="infolayer"><g class="legend" pointer-events="all"><path d="M0 0h75v34H0z" class="bg" shape-rendering="crispEdges" style="stroke:#444;stroke-opacity:1;fill:#fff;fill-opacity:.6;stroke-width:0" transform="translate(74.115 44.03)"/><g class="scrollbox" clip-path="url(#d)" transform="translate(74.115 44.03)"><g class="groups"><g class="traces" style="opacity:1"><text x="40" y="6.24" class="legendtext" style="font-family:&quot;Open Sans&quot;,verdana,arial,sans-serif;font-size:16px;fill:#000;fill-opacity:1;white-space:pre" transform="translate(0 16.9)">pbe</text><g class="layers" style="opacity:1"><g class="legendlines"><path d="M5 0h30" class="js-line" style="fill:none;stroke:#636efa;stroke-opacity:1;stroke-width:1.5px" transform="translate(0 16.9)"/></g></g><path fill="none" d="M0-11.9h71.969v23.8H0z" class="legendtoggle" style="fill:#000;fill-opacity:0" transform="translate(0 16.9)"/></g></g></g></g><g class="g-gtitle"><text x="350" y="10" class="gtitle" dy=".7em" style="font-family:&quot;Open Sans&quot;,verdana,arial,sans-serif;font-size:22px;fill:#000;opacity:1;font-weight:400;white-space:pre" text-anchor="middle">Phonon Bands of H2 (mp-23907)</text></g><g class="g-xtitle"><text x="382.5" y="499.503" class="xtitle" style="font-family:&quot;Open Sans&quot;,verdana,arial,sans-serif;font-size:19px;fill:#000;opacity:1;font-weight:400;white-space:pre" text-anchor="middle" transform="translate(0 -3.503)">Wave Vector</text></g><g class="g-ytitle"><text x=".559" y="241.5" class="ytitle" style="font-family:&quot;Open Sans&quot;,verdana,arial,sans-serif;font-size:19px;fill:#000;opacity:1;font-weight:400;white-space:pre" text-anchor="middle" transform="rotate(-90 9.78 232.28)">Frequency (THz)</text></g></g></svg>