<svg xmlns="http://www.w3.org/2000/svg" width="700" height="500" class="main-svg"><path d="M0 0h700v500H0z" style="fill:#fff;fill-opacity:1"/><defs><clipPath id="a" class="plotclip"><path d="M0 0h651v403H0z"/></clipPath></defs><g class="cartesianlayer"><g class="subplot xy"><g class="gridlayer"><g class="x"><path d="M0 40v403" class="xgrid crisp" style="stroke:#d3d3d3;stroke-opacity:1;stroke-width:1px" transform="translate(208.72)"/><path d="M0 40v403" class="xgrid crisp" style="stroke:#d3d3d3;stroke-opacity:1;stroke-width:1px" transform="translate(315.2)"/><path d="M0 40v403" class="xgrid crisp" style="stroke:#d3d3d3;stroke-opacity:1;stroke-width:1px" transform="translate(421.67)"/><path d="M0 40v403" class="xgrid crisp" style="stroke:#d3d3d3;stroke-opacity:1;stroke-width:1px" transform="translate(528.14)"/><path d="M0 40v403" class="xgrid crisp" style="stroke:#d3d3d3;stroke-opacity:1;stroke-width:1px" transform="translate(634.61)"/></g><g class="y"><path d="M48 0h651" class="ygrid crisp" style="stroke:#d3d3d3;stroke-opacity:1;stroke-width:1px" transform="translate(0 379.62)"/><path d="M48 0h651" class="ygrid crisp" style="stroke:#d3d3d3;stroke-opacity:1;stroke-width:1px" transform="translate(0 336.39)"/><path d="M48 0h651" class="ygrid crisp" style="stroke:#d3d3d3;stroke-opacity:1;stroke-width:1px" transform="translate(0 293.16)"/><path d="M48 0h651" class="ygrid crisp" style="stroke:#d3d3d3;stroke-opacity:1;stroke-width:1px" transform="translate(0 249.93)"/><path d="M48 0h651" class="ygrid crisp" style="stroke:#d3d3d3;stroke-opacity:1;stroke-width:1px" transform="translate(0 206.7)"/><path d="M48 0h651" class="ygrid crisp" style="stroke:#d3d3d3;stroke-opacity:1;stroke-width:1px" transform="translate(0 163.47)"/><path d="M48 0h651" class="ygrid crisp" style="stroke:#d3d3d3;stroke-opacity:1;stroke-width:1px" transform="translate(0 120.24)"/><path d="M48 0h651" class="ygrid crisp" style="stroke:#d3d3d3;stroke-opacity:1;stroke-width:1px" transform="translate(0 77.01)"/></g></g><g class="zerolinelayer"><path d="M0 40v403" class="xzl zl crisp" style="stroke:#ebf0f8;stroke-opacity:1;stroke-width:2px" transform="translate(102.25)"/><path d="M48 0h651" class="yzl zl crisp" style="stroke:#ebf0f8;stroke-opacity:1;stroke-width:2px" transform="translate(0 422.85)"/></g><g class="plot" clip-path="url(#a)" transform="translate(48 40)"><g class="scatterlayer mlayer"><g class="trace scatter trace522c4e" style="stroke-miterlimit:2;opacity:1"><g class="lines"><path d="m0 382.85 100.91-.59 3.25-.28 6.51-.78 3.25-.07 19.54-1.06 3.25-.32 55.33-7.43 3.26-.99 26.04-6.18 3.26-1.27 22.78-9.57 3.26-2.31 9.76-8.43 3.25-3.68 3.26-7.22 3.25-1.31 6.52-3.29 3.25-.54 9.77-1.43 3.25-.12 13.02-3.74 3.25-.15 6.52-1.03 3.25-.83 3.26-2.03 3.25-5.87 3.26-9.67 3.25-5.18 3.26 23.97 3.25 15.65 3.26 4.48 3.25-17.43 3.26-14.97 3.25-6.73 3.26 11.14 3.25-13 3.26-12.52 3.25-3.44 3.26-4.63 3.25 9.05 3.26-5.65 3.25 40.16 6.51 35.65 3.26 1.38 3.25.83 3.26-.25 6.51-2.02 3.25-1.5 3.26-1.74 3.25-2.69 3.26-8.52 3.25-13.32 3.26-7.07 3.25-21.48 3.26-37.47 3.25-7.36 3.26 10.74 3.25.81 3.26 23.3 3.25 15.18 6.51 27.98 3.26 7.03 3.25 1.47 3.26-7.99 3.25-39.96 3.26-20.68 3.25-8.07 3.26 13.81 3.25-.27 3.26-3.14 3.25-9.35L485 253.2l3.25-11.06 3.26-48.69L494.76 52l3.26 111.7 3.25 11.86 3.26 48.27 3.25-32.03 3.26-59.73 3.25 78.78 3.26 116.66 3.25-53.49 3.25-100.17 3.26 101.73 3.26 56.81 6.51 7.12 3.25 2.28 3.26.59 3.25-.23 9.77-3.61 3.25-2 3.26-3 3.25-5.22 3.26-13.27 3.25-2.66 3.26 6.01 3.25-15.42 3.26 31.99 3.25 6.86 3.26 12.82 3.25 9.5 6.51 18.7H651" class="js-line" style="vector-effect:none;fill:none;stroke:#636efa;stroke-opacity:1;stroke-width:2px;opacity:1"/></g></g><g class="trace scatter trace4a6c28" style="stroke-miterlimit:2;opacity:1"><g class="lines"><path d="m5.8 382.85 93.01-.56 2.9-.2 11.63-1.07 2.91-.03 17.43-1.35 2.91-.6 8.72-.87 2.91-.23 11.62-1.78 2.91-.4 23.25-4.25 2.91-.88 20.34-5.57 2.91-1.24 11.62-5.4 2.91-1.31 5.81-2.67 2.91-2.11 11.62-12.12 2.91-6.4 2.91-4.91 2.9-.23 2.91-2.91 2.91-1.81 2.9.47 2.91-.66 11.63-3.35 2.9-1.74 8.72-3.57 2.91-.86 2.9-.51 2.91-1.71 2.91-2.79 2.9-6.51 2.91-5.87 2.91 11.89 2.9-4.89 2.91 7.44 2.9 8.63 2.91-16.39 2.91-18.73 2.9 9.42 2.91-14.69 2.91-5.26 2.9-5.79 2.91-7.53 2.91 10.5 2.9-13.45 2.91 6.79 2.91 90.32 2.9-.13 2.91 2.02 5.81-.55 2.91-1.19 5.81-3.63 2.91-2.42 5.81-7.38 2.91-4.81 2.9-5.85 2.91-1.17 2.9-3.1 2.91-4.91 2.91-6.45 2.9-11.64 2.91-33.35 2.91 15.31 2.9 16.37 2.91-2.66 2.91 5.7 2.9.1 2.91-2.06 2.91 55.46 2.9 7.58 2.91-15.25 2.9-20.03 2.91-36.08 2.91-49.99 2.9-2.75 2.91 5.45 2.91-34.78 2.9 24.23 2.91-13.31 2.91-16.74 2.9-186.95 2.91 64.77 2.91 40.43 2.9 54.44 2.91-3.95 2.9-2.45 2.91 6.48 2.91 77.11 2.9 120.48 5.82-103.84 2.9-35.39 2.91-75.73 2.91 97.27 2.9 48.63 2.91 4.26 2.9.65 2.91-1.22 2.91-2 2.9-5.42 5.82-11.75 2.9 9.15 2.91-.59 2.91-4.5 2.9 33.8 2.91 21.18 2.91 26.57 2.9 4.32h46.5" class="js-line" style="vector-effect:none;fill:none;stroke:#ef553b;stroke-opacity:1;stroke-width:2px;opacity:1"/></g></g></g></g><path d="M47 443.5h653M47 39.5h653" class="xlines-above crisp" style="fill:none;stroke-width:1px;stroke:#000;stroke-opacity:1"/><path d="M47.5 40v403m652-403v403" class="ylines-above crisp" style="fill:none;stroke-width:1px;stroke:#000;stroke-opacity:1"/><g class="xaxislayer-above"><path d="M0 444v5" class="xtick ticks crisp" style="stroke:#444;stroke-opacity:1;stroke-width:1px" transform="translate(102.25)"/><path d="M0 444v5" class="xtick ticks crisp" style="stroke:#444;stroke-opacity:1;stroke-width:1px" transform="translate(208.72)"/><path d="M0 444v5" class="xtick ticks crisp" style="stroke:#444;stroke-opacity:1;stroke-width:1px" transform="translate(315.2)"/><path d="M0 444v5" class="xtick ticks crisp" style="stroke:#444;stroke-opacity:1;stroke-width:1px" transform="translate(421.67)"/><path d="M0 444v5" class="xtick ticks crisp" style="stroke:#444;stroke-opacity:1;stroke-width:1px" transform="translate(528.14)"/><path d="M0 444v5" class="xtick ticks crisp" style="stroke:#444;stroke-opacity:1;stroke-width:1px" transform="translate(634.61)"/><text y="468.2" class="xtick" style="font-family:&quot;Open Sans&quot;,verdana,arial,sans-serif;font-size:16px;fill:#2a3f5f;fill-opacity:1;white-space:pre;opacity:1" text-anchor="middle" transform="translate(102.25)">0</text><text y="468.2" class="xtick" style="font-family:&quot;Open Sans&quot;,verdana,arial,sans-serif;font-size:16px;fill:#2a3f5f;fill-opacity:1;white-space:pre;opacity:1" text-anchor="middle" transform="translate(208.72)">1</text><text y="468.2" class="xtick" style="font-family:&quot;Open Sans&quot;,verdana,arial,sans-serif;font-size:16px;fill:#2a3f5f;fill-opacity:1;white-space:pre;opacity:1" text-anchor="middle" transform="translate(315.2)">2</text><text y="468.2" class="xtick" style="font-family:&quot;Open Sans&quot;,verdana,arial,sans-serif;font-size:16px;fill:#2a3f5f;fill-opacity:1;white-space:pre;opacity:1" text-anchor="middle" transform="translate(421.67)">3</text><text y="468.2" class="xtick" style="font-family:&quot;Open Sans&quot;,verdana,arial,sans-serif;font-size:16px;fill:#2a3f5f;fill-opacity:1;white-space:pre;opacity:1" text-anchor="middle" transform="translate(528.14)">4</text><text y="468.2" class="xtick" style="font-family:&quot;Open Sans&quot;,verdana,arial,sans-serif;font-size:16px;fill:#2a3f5f;fill-opacity:1;white-space:pre;opacity:1" text-anchor="middle" transform="translate(634.61)">5</text></g><g class="yaxislayer-above"><path d="M47 0h-5" class="ytick ticks crisp" style="stroke:#444;stroke-opacity:1;stroke-width:1px" transform="translate(0 422.85)"/><path d="M47 0h-5" class="ytick ticks crisp" style="stroke:#444;stroke-opacity:1;stroke-width:1px" transform="translate(0 379.62)"/><path d="M47 0h-5" class="ytick ticks crisp" style="stroke:#444;stroke-opacity:1;stroke-width:1px" transform="translate(0 336.39)"/><path d="M47 0h-5" class="ytick ticks crisp" style="stroke:#444;stroke-opacity:1;stroke-width:1px" transform="translate(0 293.16)"/><path d="M47 0h-5" class="ytick ticks crisp" style="stroke:#444;stroke-opacity:1;stroke-width:1px" transform="translate(0 249.93)"/><path d="M47 0h-5" class="ytick ticks crisp" style="stroke:#444;stroke-opacity:1;stroke-width:1px" transform="translate(0 206.7)"/><path d="M47 0h-5" class="ytick ticks crisp" style="stroke:#444;stroke-opacity:1;stroke-width:1px" transform="translate(0 163.47)"/><path d="M47 0h-5" class="ytick ticks crisp" style="stroke:#444;stroke-opacity:1;stroke-width:1px" transform="translate(0 120.24)"/><path d="M47 0h-5" class="ytick ticks crisp" style="stroke:#444;stroke-opacity:1;stroke-width:1px" transform="translate(0 77.01)"/><text x="38.8" y="5.6" class="ytick" style="font-family:&quot;Open Sans&quot;,verdana,arial,sans-serif;font-size:16px;fill:#2a3f5f;fill-opacity:1;white-space:pre;opacity:1" text-anchor="end" transform="translate(0 422.85)">0</text><text x="38.8" y="5.6" class="ytick" style="font-family:&quot;Open Sans&quot;,verdana,arial,sans-serif;font-size:16px;fill:#2a3f5f;fill-opacity:1;white-space:pre;opacity:1" text-anchor="end" transform="translate(0 379.62)">1</text><text x="38.8" y="5.6" class="ytick" style="font-family:&quot;Open Sans&quot;,verdana,arial,sans-serif;font-size:16px;fill:#2a3f5f;fill-opacity:1;white-space:pre;opacity:1" text-anchor="end" transform="translate(0 336.39)">2</text><text x="38.8" y="5.6" class="ytick" style="font-family:&quot;Open Sans&quot;,verdana,arial,sans-serif;font-size:16px;fill:#2a3f5f;fill-opacity:1;white-space:pre;opacity:1" text-anchor="end" transform="translate(0 293.16)">3</text><text x="38.8" y="5.6" class="ytick" style="font-family:&quot;Open Sans&quot;,verdana,arial,sans-serif;font-size:16px;fill:#2a3f5f;fill-opacity:1;white-space:pre;opacity:1" text-anchor="end" transform="translate(0 249.93)">4</text><text x="38.8" y="5.6" class="ytick" style="font-family:&quot;Open Sans&quot;,verdana,arial,sans-serif;font-size:16px;fill:#2a3f5f;fill-opacity:1;white-space:pre;opacity:1" text-anchor="end" transform="translate(0 206.7)">5</text><text x="38.8" y="5.6" class="ytick" style="font-family:&quot;Open Sans&quot;,verdana,arial,sans-serif;font-size:16px;fill:#2a3f5f;fill-opacity:1;white-space:pre;opacity:1" text-anchor="end" transform="translate(0 163.47)">6</text><text x="38.8" y="5.6" class="ytick" style="font-family:&quot;Open Sans&quot;,verdana,arial,sans-serif;font-size:16px;fill:#2a3f5f;fill-opacity:1;white-space:pre;opacity:1" text-anchor="end" transform="translate(0 120.24)">7</text><text x="38.8" y="5.6" class="ytick" style="font-family:&quot;Open Sans&quot;,verdana,arial,sans-serif;font-size:16px;fill:#2a3f5f;fill-opacity:1;white-space:pre;opacity:1" text-anchor="end" transform="translate(0 77.01)">8</text></g></g></g><defs><clipPath id="b"><path d="M0 0h168v34H0z"/></clipPath></defs><g class="infolayer"><g class="legend" pointer-events="all"><path d="M0 0h168v34H0z" class="bg" shape-rendering="crispEdges" style="stroke:#444;stroke-opacity:1;fill:#fff;fill-opacity:1;stroke-width:0" transform="translate(51.255 44.03)"/><g class="scrollbox" clip-path="url(#b)" transform="translate(51.255 44.03)"><g class="groups"><g class="traces" style="opacity:1"><text x="40" y="6.24" class="legendtext" style="font-family:&quot;Open Sans&quot;,verdana,arial,sans-serif;font-size:16px;fill:#2a3f5f;fill-opacity:1;white-space:pre" transform="translate(0 16.9)">DFT</text><g class="layers" style="opacity:1"><g class="legendlines"><path d="M5 0h30" class="js-line" style="fill:none;stroke:#636efa;stroke-opacity:1;stroke-width:2px" transform="translate(0 16.9)"/></g></g><path fill="none" d="M0-11.9h73.891v23.8H0z" class="legendtoggle" style="fill:#000;fill-opacity:0" transform="translate(0 16.9)"/></g><g class="traces" style="opacity:1"><text x="40" y="6.24" class="legendtext" style="font-family:&quot;Open Sans&quot;,verdana,arial,sans-serif;font-size:16px;fill:#2a3f5f;fill-opacity:1;white-space:pre" transform="translate(76.39 16.9)">MACE</text><g class="layers" style="opacity:1"><g class="legendlines"><path d="M5 0h30" class="js-line" style="fill:none;stroke:#ef553b;stroke-opacity:1;stroke-width:2px" transform="translate(76.39 16.9)"/></g></g><path fill="none" d="M0-11.9h88.219v23.8H0z" class="legendtoggle" style="fill:#000;fill-opacity:0" transform="translate(76.39 16.9)"/></g></g></g></g><g class="g-gtitle"><text x="350" y="10" class="gtitle" dy=".7em" style="font-family:&quot;Open Sans&quot;,verdana,arial,sans-serif;font-size:22px;fill:#2a3f5f;opacity:1;font-weight:400;white-space:pre" text-anchor="middle">Phonon DOS of Sr4Se4 (mp-2758)</text></g><g class="g-xtitle"><text x="373.5" y="499.503" class="xtitle" style="font-family:&quot;Open Sans&quot;,verdana,arial,sans-serif;font-size:19px;fill:#2a3f5f;opacity:1;font-weight:400;white-space:pre" text-anchor="middle" transform="translate(0 -3.503)">Frequency (THz)</text></g><g class="g-ytitle"><text x=".825" y="241.5" class="ytitle" style="font-family:&quot;Open Sans&quot;,verdana,arial,sans-serif;font-size:19px;fill:#2a3f5f;opacity:1;font-weight:400;white-space:pre" text-anchor="middle" transform="rotate(-90 9.912 232.413)">Density of States</text></g></g></svg>