<svg xmlns="http://www.w3.org/2000/svg" width="700" height="500" class="main-svg"><path d="M0 0h700v500H0z" style="fill:#fff;fill-opacity:1"/><defs><clipPath id="a" class="plotclip"><path d="M0 0h641v403H0z"/></clipPath></defs><g class="cartesianlayer"><g class="subplot xy"><g class="gridlayer"><g class="x"><path d="M0 40v403" class="xgrid crisp" style="stroke:#d3d3d3;stroke-opacity:1;stroke-width:1px" transform="translate(216.25)"/><path d="M0 40v403" class="xgrid crisp" style="stroke:#d3d3d3;stroke-opacity:1;stroke-width:1px" transform="translate(321.09)"/><path d="M0 40v403" class="xgrid crisp" style="stroke:#d3d3d3;stroke-opacity:1;stroke-width:1px" transform="translate(425.93)"/><path d="M0 40v403" class="xgrid crisp" style="stroke:#d3d3d3;stroke-opacity:1;stroke-width:1px" transform="translate(530.77)"/><path d="M0 40v403" class="xgrid crisp" style="stroke:#d3d3d3;stroke-opacity:1;stroke-width:1px" transform="translate(635.6)"/></g><g class="y"><path d="M58 0h641" class="ygrid crisp" style="stroke:#d3d3d3;stroke-opacity:1;stroke-width:1px" transform="translate(0 349.93)"/><path d="M58 0h641" class="ygrid crisp" style="stroke:#d3d3d3;stroke-opacity:1;stroke-width:1px" transform="translate(0 277.01)"/><path d="M58 0h641" class="ygrid crisp" style="stroke:#d3d3d3;stroke-opacity:1;stroke-width:1px" transform="translate(0 204.08)"/><path d="M58 0h641" class="ygrid crisp" style="stroke:#d3d3d3;stroke-opacity:1;stroke-width:1px" transform="translate(0 131.16)"/><path d="M58 0h641" class="ygrid crisp" style="stroke:#d3d3d3;stroke-opacity:1;stroke-width:1px" transform="translate(0 58.24)"/></g></g><g class="zerolinelayer"><path d="M0 40v403" class="xzl zl crisp" style="stroke:#ebf0f8;stroke-opacity:1;stroke-width:2px" transform="translate(111.42)"/><path d="M58 0h641" class="yzl zl crisp" style="stroke:#ebf0f8;stroke-opacity:1;stroke-width:2px" transform="translate(0 422.85)"/></g><g class="plot" clip-path="url(#a)" transform="translate(58 40)"><g class="scatterlayer mlayer"><g class="trace scatter tracec5d849" style="stroke-miterlimit:2;opacity:1"><g class="lines"><path d="m11.66 382.85 74.79-.72 2.49-.4 4.98-1.42 2.5.59 12.46-1.26 2.5-.42 2.49-1.1 2.49-.03 7.48-.89 2.49-.69 12.47-3.12 2.49-.4 4.99-1.17 2.49-1.33 12.47-4.12 2.49-.93 19.94-11.5 2.5-3.04 7.47-8.05 2.5-3.41 2.49-4.18 2.49-11.23 4.99-3.97 2.49.2 2.5-.84 2.49.41 2.49 1.08 2.49-.14 4.99-1.99 2.49.38 2.5 1 2.49-.08 2.49-.52 2.5-1.82 2.49-3.21 2.49-5.43 2.49-4.34 2.5 11.99 2.49 10.03 2.49 5.37 2.5.81 2.49-9.92 2.49-9.42 2.5 6.92 2.49.23 2.49-5.91 2.49 1.39 2.5-13.13 2.49 8.46 2.49.18 2.5 6.1 2.49-4.52 2.49-10.38 2.5 14.04 2.49 1.73 2.49-.58 2.49-8 2.5-15.77 2.49 3.28 2.49 49.02 2.5 15.23 2.49-1.35 2.49-1.69 2.5-3.53 4.98-9.3 2.49-3.33 4.99-7.48 2.49-7.98 2.5-18.84 2.49-36.09 2.49.35 2.49 27.17 4.99.93 2.49 4.79 2.5 5.16 2.49 13.29 2.49 19.09 2.5 2.54 2.49 1.52 2.49 5.48 2.49-2.1 2.5-14 2.49-31.59 2.49-20.7 2.5-3.27 2.49 2.4 2.49 4.63 2.5 2.44 2.49-2.53 2.49 10.11 2.49 5.27 2.5-3.97 4.98-5.4 2.5-4.25 2.49-7.54 2.49-17.23 2.5-63.33 2.49-10.91 2.49 30.69 2.49-12.14 2.5-20.67 2.49 35.82 2.49 16.53 2.5 11.21 2.49 12.93 2.49 34.87 2.5-58 2.49-221.76 2.49 189.36 2.49 44.18 4.99 62.44 2.49 9.72 2.5.16 2.49 2.15 2.49.46 2.5-1.62 2.49-8.12 2.49-28.16 9.97 89.26 2.5 2.87h39.88" class="js-line" style="vector-effect:none;fill:none;stroke:#636efa;stroke-opacity:1;stroke-width:2px;opacity:1"/></g></g><g class="trace scatter trace78d79c" style="stroke-miterlimit:2;opacity:1"><g class="lines"><path d="m6.13 382.85 94.36-.68 2.86-.35 5.72-.58 2.86.07 17.16-.92 2.86-.28 8.58-1.04 2.86-.18 14.29-1.72 2.86-.34 22.88-3.67 2.86-.68 20.01-4.72 2.86-1.05 11.44-4.57 2.86-1.09 5.72-2.27 2.86-1.91 11.44-10.22 2.86-5.75 2.86-3.59 2.86-.32 2.86-2.45 2.86-1.32 2.85.34 2.86-.59 11.44-2.85 2.86-1.54 11.44-3.63 2.86-.43 2.86-1.51 2.86-2.46 2.86-5.79 2.86-3.98 2.86 9.46 2.86-4.46 2.85 8.77 2.86 4.65 5.72-29.19 2.86 7.8 2.86-16.53 2.86-.3 5.72-11.58 2.86 9.57 2.86-5.43 2.86 6.79 2.86 69.59 2.86-.5 2.86 1.64 2.86.04 5.72-1.58 2.86-1.38 5.71-3.76 2.86-2.78 5.72-7.64 2.86-4.85 2.86-.77 2.86-2.82 5.72-9.68 2.86-10.21 2.86-27.62 2.86 13.43 2.86 13.42 2.86-2.07 2.86 4.73 2.86-.01 2.86 2.27 2.86 43.49 2.85 5.39 2.86-13.09 2.86-16.99 2.86-31.11 2.86-40.92 2.86-2.62 2.86 4.7 2.86-26.42 2.86 17.61 2.86-11.27 2.86-14.51L452.21 72l2.86 60.63 2.86 33.77 2.86 42.82 2.86-1.59 2.86-.23 2.86 4.32 2.85 66.39 2.86 100.53 5.72-88.33 2.86-29.75 2.86-61.57 2.86 80.33 2.86 40.77 2.86 3.57 2.86.52 2.86-1.04 2.86-1.68 2.86-4.61 5.72-9.85 2.86 7.72 2.86-.49 2.86-3.77 2.86 28.48 2.85 17.86 2.86 22.41 2.86 3.64h45.76" class="js-line" style="vector-effect:none;fill:none;stroke:#ef553b;stroke-opacity:1;stroke-width:2px;opacity:1"/></g></g><g class="trace scatter traced03909" style="stroke-miterlimit:2;opacity:1"><g class="lines"><path d="m0 382.85 102.56-.73 3.21-.63 25.64-.99 3.2-.27 54.48-6.26 3.21-.84 25.64-5.21 3.21-1.07 22.43-8.07 3.2-1.95 9.62-7.11 3.2-3.1 3.21-6.09 3.21-1.11 6.41-2.78 3.2-.45 9.62-1.21 3.2-.09 16.02-3.29 3.21-.3 6.41-1.27 3.2-1.71 3.21-4.95 3.21-8.16 3.2-4.36 3.2 20.22 3.21 13.19 3.21 3.78 6.4-27.32 3.21-5.69 3.21 9.4 3.2-10.96 3.2-10.56 3.21-2.9 3.21-3.91 3.2 7.64 3.2-4.77 3.21 33.87 6.41 30.07 3.2 1.17 3.21.7 3.2-.21 6.41-1.71 3.21-1.26 6.41-3.74 3.21-7.18 3.2-11.24 3.2-5.96 3.21-18.12 3.2-31.6 3.21-6.21 3.21 9.05 3.2.69 3.21 19.65 9.61 36.4 3.2 5.94 3.21 1.23 3.21-6.73 3.2-33.71 3.21-17.44 3.2-6.81 3.2 11.65 3.21-.23 3.2-2.64 3.21-7.89 3.21-13.21 3.2-9.33 3.21-41.07 3.2-119.3 3.2 94.21 3.21 10 3.21 40.72 3.2-27.02 3.21-50.38 3.2 66.45 3.21 98.39 3.2-45.11 3.21-84.49 3.2 85.8 3.21 47.92 6.41 6.01 3.2 1.92 6.41.3 3.21-.97 6.41-2.08 3.2-1.68 3.21-2.53 3.2-4.41 3.21-11.19 3.2-2.24 3.21 5.07 3.2-13.01 3.21 26.99 3.2 5.79 3.21 10.81 3.2 8 6.41 15.78H641" class="js-line" style="vector-effect:none;fill:none;stroke:#00cc96;stroke-opacity:1;stroke-width:2px;opacity:1"/></g></g><g class="trace scatter traceffeaaa" style="stroke-miterlimit:2;opacity:1"><g class="lines"><path d="m16.36 382.85 62.1-.63 2.22-.14 8.87-1.66 2.21-.13 8.88-1.48 2.21-.76 6.66-1.47 2.21-.46 13.31-4.63 2.22-.72 4.43-1.73 2.22-1.57 13.31-7.11 2.22-1.99 13.3-12.2 2.22-3.58 8.87-16.92 2.22-7.27 2.22-11.36 2.22-19.83 2.21 3.62 2.22 7.9 2.22 2.12 2.22 1.03 2.21 1.86 2.22.25 6.66 1.32 2.21-.37 2.22-11.73 2.22-4 2.22 4.83 2.21 8.18 2.22 28.59 2.22 7.53 4.44-31.88 2.21-9.22 2.22 4.88 2.22-15.91 2.22 12.2 2.21-5.78 2.22.64 2.22 12.35 2.22 1.9 2.21-4.1 2.22-2.42 2.22-7.17 2.22-8.12 2.22-34.47 2.21 56.35 2.22 26.54 4.44 29.69 2.21-.95 4.44-1.75 2.22-2.16 2.22-3.12 2.21-7.96 2.22-2.46 2.22-17.05 2.22-30.31 2.21-10.17 2.22-6.1 2.22-1.94 2.22 2.33 2.22 10.97 2.21.86 2.22-.2 2.22-2.19 2.22-14.96 4.43 25.07 2.22 18.84 2.22 4.84 2.22-.17 2.21 12.71 2.22-10.84 2.22-18.96 2.22-9.39 2.21-2.86 2.22-20.45 2.22-17.19 2.22-7.81 2.22-3.63 2.21-2.1 2.22-16.22 2.22-105.17 2.22-42.02 2.21 72.03 2.22 19.65 2.22 41.86 2.22-5.12 2.22 16.34 2.21 17.11 2.22-38.27 2.22-118.3 2.22 245.11 6.65-159.26 2.22 86.53 4.43 63.26 2.22 5.09 4.44 8.9 2.21 2.2 2.22 2.64 2.22-.15 4.44-2 2.21-2.1 4.44-1.79 2.22-1.41 2.21-1.36 2.22-2.78 2.22-8.73 2.22 1.03 2.22 3.18 2.21-4.63 2.22-.6 2.22-3.4 2.22 13.31 2.21 20.93 2.22 29.79 2.22 2.48h35.48" class="js-line" style="vector-effect:none;fill:none;stroke:#ab63fa;stroke-opacity:1;stroke-width:2px;opacity:1"/></g></g></g></g><path d="M57 443.5h643M57 39.5h643" class="xlines-above crisp" style="fill:none;stroke-width:1px;stroke:#000;stroke-opacity:1"/><path d="M57.5 40v403m642-403v403" class="ylines-above crisp" style="fill:none;stroke-width:1px;stroke:#000;stroke-opacity:1"/><g class="xaxislayer-above"><path d="M0 444v5" class="xtick ticks crisp" style="stroke:#444;stroke-opacity:1;stroke-width:1px" transform="translate(111.42)"/><path d="M0 444v5" class="xtick ticks crisp" style="stroke:#444;stroke-opacity:1;stroke-width:1px" transform="translate(216.25)"/><path d="M0 444v5" class="xtick ticks crisp" style="stroke:#444;stroke-opacity:1;stroke-width:1px" transform="translate(321.09)"/><path d="M0 444v5" class="xtick ticks crisp" style="stroke:#444;stroke-opacity:1;stroke-width:1px" transform="translate(425.93)"/><path d="M0 444v5" class="xtick ticks crisp" style="stroke:#444;stroke-opacity:1;stroke-width:1px" transform="translate(530.77)"/><path d="M0 444v5" class="xtick ticks crisp" style="stroke:#444;stroke-opacity:1;stroke-width:1px" transform="translate(635.6)"/><text y="468.2" class="xtick" style="font-family:&quot;Open Sans&quot;,verdana,arial,sans-serif;font-size:16px;fill:#000;fill-opacity:1;white-space:pre;opacity:1" text-anchor="middle" transform="translate(111.42)">0</text><text y="468.2" class="xtick" style="font-family:&quot;Open Sans&quot;,verdana,arial,sans-serif;font-size:16px;fill:#000;fill-opacity:1;white-space:pre;opacity:1" text-anchor="middle" transform="translate(216.25)">1</text><text y="468.2" class="xtick" style="font-family:&quot;Open Sans&quot;,verdana,arial,sans-serif;font-size:16px;fill:#000;fill-opacity:1;white-space:pre;opacity:1" text-anchor="middle" transform="translate(321.09)">2</text><text y="468.2" class="xtick" style="font-family:&quot;Open Sans&quot;,verdana,arial,sans-serif;font-size:16px;fill:#000;fill-opacity:1;white-space:pre;opacity:1" text-anchor="middle" transform="translate(425.93)">3</text><text y="468.2" class="xtick" style="font-family:&quot;Open Sans&quot;,verdana,arial,sans-serif;font-size:16px;fill:#000;fill-opacity:1;white-space:pre;opacity:1" text-anchor="middle" transform="translate(530.77)">4</text><text y="468.2" class="xtick" style="font-family:&quot;Open Sans&quot;,verdana,arial,sans-serif;font-size:16px;fill:#000;fill-opacity:1;white-space:pre;opacity:1" text-anchor="middle" transform="translate(635.6)">5</text></g><g class="yaxislayer-above"><path d="M57 0h-5" class="ytick ticks crisp" style="stroke:#444;stroke-opacity:1;stroke-width:1px" transform="translate(0 422.85)"/><path d="M57 0h-5" class="ytick ticks crisp" style="stroke:#444;stroke-opacity:1;stroke-width:1px" transform="translate(0 349.93)"/><path d="M57 0h-5" class="ytick ticks crisp" style="stroke:#444;stroke-opacity:1;stroke-width:1px" transform="translate(0 277.01)"/><path d="M57 0h-5" class="ytick ticks crisp" style="stroke:#444;stroke-opacity:1;stroke-width:1px" transform="translate(0 204.08)"/><path d="M57 0h-5" class="ytick ticks crisp" style="stroke:#444;stroke-opacity:1;stroke-width:1px" transform="translate(0 131.16)"/><path d="M57 0h-5" class="ytick ticks crisp" style="stroke:#444;stroke-opacity:1;stroke-width:1px" transform="translate(0 58.24)"/><text x="48.8" y="5.6" class="ytick" style="font-family:&quot;Open Sans&quot;,verdana,arial,sans-serif;font-size:16px;fill:#000;fill-opacity:1;white-space:pre;opacity:1" text-anchor="end" transform="translate(0 422.85)">0</text><text x="48.8" y="5.6" class="ytick" style="font-family:&quot;Open Sans&quot;,verdana,arial,sans-serif;font-size:16px;fill:#000;fill-opacity:1;white-space:pre;opacity:1" text-anchor="end" transform="translate(0 349.93)">2</text><text x="48.8" y="5.6" class="ytick" style="font-family:&quot;Open Sans&quot;,verdana,arial,sans-serif;font-size:16px;fill:#000;fill-opacity:1;white-space:pre;opacity:1" text-anchor="end" transform="translate(0 277.01)">4</text><text x="48.8" y="5.6" class="ytick" style="font-family:&quot;Open Sans&quot;,verdana,arial,sans-serif;font-size:16px;fill:#000;fill-opacity:1;white-space:pre;opacity:1" text-anchor="end" transform="translate(0 204.08)">6</text><text x="48.8" y="5.6" class="ytick" style="font-family:&quot;Open Sans&quot;,verdana,arial,sans-serif;font-size:16px;fill:#000;fill-opacity:1;white-space:pre;opacity:1" text-anchor="end" transform="translate(0 131.16)">8</text><text x="48.8" y="5.6" class="ytick" style="font-family:&quot;Open Sans&quot;,verdana,arial,sans-serif;font-size:16px;fill:#000;fill-opacity:1;white-space:pre;opacity:1" text-anchor="end" transform="translate(0 58.24)">10</text></g></g></g><defs><clipPath id="b"><path d="M0 0h369v34H0z"/></clipPath></defs><g class="infolayer"><g class="legend" pointer-events="all"><path d="M0 0h369v34H0z" class="bg" shape-rendering="crispEdges" style="stroke:#444;stroke-opacity:1;fill:#fff;fill-opacity:1;stroke-width:0" transform="translate(61.205 44.03)"/><g class="scrollbox" clip-path="url(#b)" transform="translate(61.205 44.03)"><g class="groups"><g class="traces" style="opacity:1"><text x="40" y="6.24" class="legendtext" style="font-family:&quot;Open Sans&quot;,verdana,arial,sans-serif;font-size:16px;fill:#000;fill-opacity:1;white-space:pre" transform="translate(0 16.9)">v0</text><g class="layers" style="opacity:1"><g class="legendlines"><path d="M5 0h30" class="js-line" style="fill:none;stroke:#636efa;stroke-opacity:1;stroke-width:2px" transform="translate(0 16.9)"/></g></g><path fill="none" d="M0-11.9h62.141v23.8H0z" class="legendtoggle" style="fill:#000;fill-opacity:0" transform="translate(0 16.9)"/></g><g class="traces" style="opacity:1"><text x="40" y="6.24" class="legendtext" style="font-family:&quot;Open Sans&quot;,verdana,arial,sans-serif;font-size:16px;fill:#000;fill-opacity:1;white-space:pre" transform="translate(64.64 16.9)">y7uhwpje</text><g class="layers" style="opacity:1"><g class="legendlines"><path d="M5 0h30" class="js-line" style="fill:none;stroke:#ef553b;stroke-opacity:1;stroke-width:2px" transform="translate(64.64 16.9)"/></g></g><path fill="none" d="M0-11.9h120.5v23.8H0z" class="legendtoggle" style="fill:#000;fill-opacity:0" transform="translate(64.64 16.9)"/></g><g class="traces" style="opacity:1"><text x="40" y="6.24" class="legendtext" style="font-family:&quot;Open Sans&quot;,verdana,arial,sans-serif;font-size:16px;fill:#000;fill-opacity:1;white-space:pre" transform="translate(187.64 16.9)">pbe</text><g class="layers" style="opacity:1"><g class="legendlines"><path d="M5 0h30" class="js-line" style="fill:none;stroke:#00cc96;stroke-opacity:1;stroke-width:2px" transform="translate(187.64 16.9)"/></g></g><path fill="none" d="M0-11.9h71.969v23.8H0z" class="legendtoggle" style="fill:#000;fill-opacity:0" transform="translate(187.64 16.9)"/></g><g class="traces" style="opacity:1"><text x="40" y="6.24" class="legendtext" style="font-family:&quot;Open Sans&quot;,verdana,arial,sans-serif;font-size:16px;fill:#000;fill-opacity:1;white-space:pre" transform="translate(262.11 16.9)">m3gnet</text><g class="layers" style="opacity:1"><g class="legendlines"><path d="M5 0h30" class="js-line" style="fill:none;stroke:#ab63fa;stroke-opacity:1;stroke-width:2px" transform="translate(262.11 16.9)"/></g></g><path fill="none" d="M0-11.9h104.172v23.8H0z" class="legendtoggle" style="fill:#000;fill-opacity:0" transform="translate(262.11 16.9)"/></g></g></g></g><g class="g-gtitle"><text x="350" y="10" class="gtitle" dy=".7em" style="font-family:&quot;Open Sans&quot;,verdana,arial,sans-serif;font-size:22px;fill:#000;opacity:1;font-weight:400;white-space:pre" text-anchor="middle">Phonon DOS of Sr4Se4 (mp-2758)</text></g><g class="g-xtitle"><text x="378.5" y="499.503" class="xtitle" style="font-family:&quot;Open Sans&quot;,verdana,arial,sans-serif;font-size:19px;fill:#000;opacity:1;font-weight:400;white-space:pre" text-anchor="middle" transform="translate(0 -3.503)">Frequency (THz)</text></g><g class="g-ytitle"><text x=".653" y="241.5" class="ytitle" style="font-family:&quot;Open Sans&quot;,verdana,arial,sans-serif;font-size:19px;fill:#000;opacity:1;font-weight:400;white-space:pre" text-anchor="middle" transform="rotate(-90 9.826 232.327)">Density of States</text></g></g></svg>