<svg xmlns="http://www.w3.org/2000/svg" width="700" height="500" class="main-svg"><path d="M0 0h700v500H0z" style="fill:#fff;fill-opacity:1"/><defs><clipPath id="a" class="plotclip"><path d="M0 0h512.424v403H0z"/></clipPath><clipPath id="b" class="plotclip"><path d="M0 0h128.106v403H0z"/></clipPath><clipPath id="c" class="axesclip"><path d="M48 0h512.424v500H48z"/></clipPath></defs><g class="cartesianlayer"><g class="subplot xy"><g class="gridlayer"><g class="x"><path d="M0 40v403" class="xgrid crisp" style="stroke:#d3d3d3;stroke-opacity:1;stroke-width:1px" transform="translate(162.19)"/><path d="M0 40v403" class="xgrid crisp" style="stroke:#d3d3d3;stroke-opacity:1;stroke-width:1px" transform="translate(202.57)"/><path d="M0 40v403" class="xgrid crisp" style="stroke:#d3d3d3;stroke-opacity:1;stroke-width:1px" transform="translate(323.69)"/><path d="M0 40v403" class="xgrid crisp" style="stroke:#d3d3d3;stroke-opacity:1;stroke-width:1px" transform="translate(422.58)"/><path d="M0 40v403" class="xgrid crisp" style="stroke:#d3d3d3;stroke-opacity:1;stroke-width:1px" transform="translate(503.33)"/></g><g class="y"><path d="M48 0h512.424" class="ygrid crisp" style="stroke:#d3d3d3;stroke-opacity:1;stroke-width:1px" transform="translate(0 367.87)"/><path d="M48 0h512.424" class="ygrid crisp" style="stroke:#d3d3d3;stroke-opacity:1;stroke-width:1px" transform="translate(0 292.73)"/><path d="M48 0h512.424" class="ygrid crisp" style="stroke:#d3d3d3;stroke-opacity:1;stroke-width:1px" transform="translate(0 217.6)"/><path d="M48 0h512.424" class="ygrid crisp" style="stroke:#d3d3d3;stroke-opacity:1;stroke-width:1px" transform="translate(0 142.47)"/><path d="M48 0h512.424" class="ygrid crisp" style="stroke:#d3d3d3;stroke-opacity:1;stroke-width:1px" transform="translate(0 67.34)"/></g></g><g class="plot" clip-path="url(#a)" transform="translate(48 40)"><g class="scatterlayer mlayer"><g class="trace scatter tracec7196c" style="stroke-miterlimit:2;opacity:1"><g class="lines"><path d="m0 403 25.12-54.03 1.14-2.31 14.85-28.04 1.14-1.99 11.42-18.29 1.14-1.66 10.28-13.58 1.14-1.35 9.14-9.61 1.14-1.05 9.13-7.26 1.15-.77 7.99-4.44 1.14-.51 8-2.68 1.14-.26 7.99-.97 1.14-.01" class="js-line" style="vector-effect:none;fill:none;stroke:#636efa;stroke-opacity:1;stroke-width:1.5px;opacity:1"/></g></g><g class="trace scatter trace6024f0" style="stroke-miterlimit:2;opacity:1"><g class="lines"><path d="m0 403 25.12-54.03 1.14-2.31 14.85-28.04 1.14-1.99 11.42-18.29 1.14-1.66 10.28-13.58 1.14-1.35 9.14-9.61 1.14-1.05 9.13-7.26 1.15-.77 7.99-4.44 1.14-.51 8-2.68 1.14-.26 7.99-.97 1.14-.01" class="js-line" style="vector-effect:none;fill:none;stroke:#636efa;stroke-opacity:1;stroke-width:1.5px;opacity:1"/></g></g><g class="trace scatter trace83f4e8" style="stroke-miterlimit:2;opacity:1"><g class="lines"><path d="m0 403 23.98-118.35 1.14-5.31 12.56-55.05 1.15-4.66 11.41-43.07 1.15-3.92 9.13-28.76 1.14-3.25 9.14-23.18 1.14-2.51 5.71-10.9 1.14-1.64 2.29-1.81 1.14.47 2.28 4.14 1.14 3.02 17.13 49.08 1.15 2.38 4.56 7.33 1.15 1.22 3.42 2.07 1.14.14" class="js-line" style="vector-effect:none;fill:none;stroke:#636efa;stroke-opacity:1;stroke-width:1.5px;opacity:1"/></g></g><g class="trace scatter trace7b24e4" style="stroke-miterlimit:2;opacity:1"><g class="lines"><path d="m0 96.21 15.99-.89 1.14-.13 19.41-2.95 1.14-.2 28.55-4.48 1.14-.13 12.57-1.13 1.14.57 2.28 1.28 1.14-.63 2.29-1.6 1.14-.06 26.26-.48" class="js-line" style="vector-effect:none;fill:none;stroke:#636efa;stroke-opacity:1;stroke-width:1.5px;opacity:1"/></g></g><g class="trace scatter traceb1e7d9" style="stroke-miterlimit:2;opacity:1"><g class="lines"><path d="m0 96.21 15.99-.89 1.14-.13 19.41-2.95 1.14-.2 28.55-4.48 1.14-.13 20.56-1.57 1.14-.04 25.12-.44" class="js-line" style="vector-effect:none;fill:none;stroke:#636efa;stroke-opacity:1;stroke-width:1.5px;opacity:1"/></g></g><g class="trace scatter tracec284f5" style="stroke-miterlimit:2;opacity:1"><g class="lines"><path d="m0 96.21 3.43-.67 1.14-.51 4.57-3.43 1.14-1.18 5.71-7.44 1.14-1.75L29.69 59.9l1.14-1.88 6.85-10 1.15-1.38 4.56-4.44 1.15-.81 4.56-1.93 1.14-.13 3.43.49 1.14.46 3.43 2.32 1.14 1.08 4.57 5.84 1.14 1.83 5.71 11.21 1.14 2.62 9.14 21.05 1.14-.07 4.57-.89 1.14-1.29 9.13-9.31 1.15-.92 6.85-4.2 1.14-.48 5.71-1.43 1.14-.09 1.14-.04" class="js-line" style="vector-effect:none;fill:none;stroke:#636efa;stroke-opacity:1;stroke-width:1.5px;opacity:1"/></g></g><g class="trace scatter tracec9b470" style="stroke-miterlimit:2;opacity:1"><g class="lines"><path d="m114.19 254.19 6.46-.7.41-.09 7.26-2.53.41-.19 7.67-4.58.4-.29 7.67-6.47.41-.39 8.88-9.87.4-.51.41-.51" class="js-line" style="vector-effect:none;fill:none;stroke:#636efa;stroke-opacity:1;stroke-width:1.5px;opacity:1"/></g></g><g class="trace scatter trace6af05b" style="stroke-miterlimit:2;opacity:1"><g class="lines"><path d="m114.19 254.19 2.83-.77.4-.24 2.83-2.49.4-.47 3.64-5.5.4-.74 5.25-11.63.4-1.03 6.46-18.47.41-1.25 9.28-30.65.41.2.4.27 7.27 5.45" class="js-line" style="vector-effect:none;fill:none;stroke:#636efa;stroke-opacity:1;stroke-width:1.5px;opacity:1"/></g></g><g class="trace scatter trace4aa1e7" style="stroke-miterlimit:2;opacity:1"><g class="lines"><path d="m114.19 170.44 8.48.71.41.07 8.47 2.2.41.14 9.69 4.39.4.23 4.44 2.7.41-1.31 7.67-26.16" class="js-line" style="vector-effect:none;fill:none;stroke:#636efa;stroke-opacity:1;stroke-width:1.5px;opacity:1"/></g></g><g class="trace scatter trace294593" style="stroke-miterlimit:2;opacity:1"><g class="lines"><path d="m114.19 85.38 10.5.97.4.07 8.48 2.35.41.15 8.07 3.77.4.23 8.08 5.54.4.33 3.64 3.14" class="js-line" style="vector-effect:none;fill:none;stroke:#636efa;stroke-opacity:1;stroke-width:1.5px;opacity:1"/></g></g><g class="trace scatter trace9c478b" style="stroke-miterlimit:2;opacity:1"><g class="lines"><path d="m114.19 85.38 9.29-.71.4-.06 11.71-2.45.4-.1 15.75-2.8.4-.02 2.43-.04" class="js-line" style="vector-effect:none;fill:none;stroke:#636efa;stroke-opacity:1;stroke-width:1.5px;opacity:1"/></g></g><g class="trace scatter trace27dea2" style="stroke-miterlimit:2;opacity:1"><g class="lines"><path d="m114.19 67.51 21.4.74.4.03 18.58 2.01" class="js-line" style="vector-effect:none;fill:none;stroke:#636efa;stroke-opacity:1;stroke-width:1.5px;opacity:1"/></g></g><g class="trace scatter tracec4279a" style="stroke-miterlimit:2;opacity:1"><g class="lines"><path d="m154.57 228.06 8.47-11.96 1.22-1.88 6.05-10 1.21-.19 10.9 14.24 1.22 1.73 12.11 18.82 1.21 2.03 14.53 26.05 1.21 2.31 15.75 31.37 1.21 2.5 26.65 57.16 1.21 2.66 18.17 40.1" class="js-line" style="vector-effect:none;fill:none;stroke:#636efa;stroke-opacity:1;stroke-width:1.5px;opacity:1"/></g></g><g class="trace scatter trace5001c1" style="stroke-miterlimit:2;opacity:1"><g class="lines"><path d="m154.57 186.87 9.69 9.05 1.21 1.27 4.84 5.41 1.21-.48 13.33-22.25 1.21-1.44 2.42-1.98 1.21-.41 2.42.5 1.21.91 3.64 4.75 1.21 2.09 6.06 12.52 1.21 2.79 10.9 27.43 1.21 3.23 18.17 51.18 1.21 3.55 26.64 80.47 1.22 3.74 10.9 33.8" class="js-line" style="vector-effect:none;fill:none;stroke:#636efa;stroke-opacity:1;stroke-width:1.5px;opacity:1"/></g></g><g class="trace scatter traceb8a29f" style="stroke-miterlimit:2;opacity:1"><g class="lines"><path d="m154.57 153.41 10.9-35.25 1.21-2.85 10.9 15.31 1.21 1.78 7.27 9.45 1.21 1.03 2.42 1.09 1.21-.04 2.42-1.25 1.22-1.14 4.84-6.64 1.21-1.95 1.21-1.99 1.21-.13 8.48 21 1.21 3.3 8.48 25.12 1.21 3.86 10.9 37.71 1.22 4.49 13.32 52.85 1.21 5.08 18.17 80.02 1.21 5.51 7.27 33.23" class="js-line" style="vector-effect:none;fill:none;stroke:#636efa;stroke-opacity:1;stroke-width:1.5px;opacity:1"/></g></g><g class="trace scatter tracebe95e0" style="stroke-miterlimit:2;opacity:1"><g class="lines"><path d="m154.57 101.93 8.47 8.9 1.22 1.45 2.42 2.24 1.21-3.55 6.06-15.31 1.21-1.83 2.42-1.1 1.21.43 3.63 2.99 1.22 1.32 6.05 8.11 1.21 1.89 7.27 13.06 1.21 2.46 2.42 5.15 1.21.79 12.12-19.07 1.21-1.64 7.26-8.32 1.22-1.12 6.05-4.43 1.21-.65 6.06-2.18 1.21.24 15.75 2.95 1.21.17 14.53 1.24 1.21.04 3.64.05" class="js-line" style="vector-effect:none;fill:none;stroke:#636efa;stroke-opacity:1;stroke-width:1.5px;opacity:1"/></g></g><g class="trace scatter trace30a5d8" style="stroke-miterlimit:2;opacity:1"><g class="lines"><path d="m154.57 79.2 7.26.82 1.21.29 10.91 3.22 1.21-.5 2.42-3.13 1.21-2.33 1.21-2.26 1.21.3 24.23 6.77 1.21.36 31.49 8.74 1.21-.19 6.06-.29 1.21.09 8.48 1.53 1.21.3 14.53 3.03 1.21.11 3.64.15" class="js-line" style="vector-effect:none;fill:none;stroke:#636efa;stroke-opacity:1;stroke-width:1.5px;opacity:1"/></g></g><g class="trace scatter trace93110f" style="stroke-miterlimit:2;opacity:1"><g class="lines"><path d="m154.57 70.29 19.38 3.59 1.21.28 4.84.87 1.21-2.61 9.69-19.44 1.21-2.08 6.06-8.96 1.21-1.48 6.06-5.83 1.21-.84 4.84-2.2 1.21-.27 4.85.08 1.21.31 4.84 2.31 1.22.85 4.84 4.39 1.21 1.33 6.06 7.85 1.21 1.78 12.11 19.77 1.21 2.01 8.48 12.88 1.21 1.57 6.06 6.29 1.21.9 4.84 2.28 1.22.22 1.21.07" class="js-line" style="vector-effect:none;fill:none;stroke:#636efa;stroke-opacity:1;stroke-width:1.5px;opacity:1"/></g></g><g class="trace scatter trace46a5c9" style="stroke-miterlimit:2;opacity:1"><g class="lines"><path d="m275.69 403 33.62-93.22.99-2.62 20.77-52.48.99-2.37 16.81-38.02.99-2.09 11.86-22.99.99-1.68 5.94-8.56.99-1.06 2.96-2.18.99-.33.99-.12" class="js-line" style="vector-effect:none;fill:none;stroke:#636efa;stroke-opacity:1;stroke-width:1.5px;opacity:1"/></g></g><g class="trace scatter trace5199b9" style="stroke-miterlimit:2;opacity:1"><g class="lines"><path d="m275.69 403 33.62-93.22.99-2.62 20.77-52.48.99-2.37 16.81-38.02.99-2.09 11.86-22.99.99-1.68 5.94-8.56.99-1.06 2.96-2.18.99-.33.99-.12" class="js-line" style="vector-effect:none;fill:none;stroke:#636efa;stroke-opacity:1;stroke-width:1.5px;opacity:1"/></g></g><g class="trace scatter trace0c58a8" style="stroke-miterlimit:2;opacity:1"><g class="lines"><path d="m275.69 403 32.63-140.64.99-4.06 16.81-65.79.99-3.64 12.86-44.28.99-3.14 7.91-23.47.99-1.19 19.78 24.56.98.76 2.97 1.38.99.1" class="js-line" style="vector-effect:none;fill:none;stroke:#636efa;stroke-opacity:1;stroke-width:1.5px;opacity:1"/></g></g><g class="trace scatter trace11cb27" style="stroke-miterlimit:2;opacity:1"><g class="lines"><path d="m275.69 96.21 9.89-.81.98-.15 23.74-3.71.99.01 6.92.87.99.24 6.92 2.67.99.52 6.92 4.61.99.8 7.91 7.51.99 1.07 9.89 11.98.99 1.29 13.85 17.35.99.89 3.95 2.14.99.1" class="js-line" style="vector-effect:none;fill:none;stroke:#636efa;stroke-opacity:1;stroke-width:1.5px;opacity:1"/></g></g><g class="trace scatter trace7bdba6" style="stroke-miterlimit:2;opacity:1"><g class="lines"><path d="m275.69 96.21 9.89-.81.98-.15 23.74-3.71.99.01 6.92.87.99.24 6.92 2.67.99.52 6.92 4.61.99.8 7.91 7.51.99 1.07 4.95 5.73.99-.29 7.91-19.48.99-2.12 5.93-10.87.99-1.44 3.96-4.5.98-.76 2.97-1.29.99-.09" class="js-line" style="vector-effect:none;fill:none;stroke:#636efa;stroke-opacity:1;stroke-width:1.5px;opacity:1"/></g></g><g class="trace scatter trace3cf0ce" style="stroke-miterlimit:2;opacity:1"><g class="lines"><path d="m275.69 96.21 3.95-.73.99-.41 3.96-2.49.99-.83 4.94-5.24.99-1.24 6.92-10.12.99-1.6 22.75-36.83.99-1.3 6.92-7.83.99-.92 5.93-4.4.99-.55 5.93-2.14.99-.17 4.95-.12.99.12 5.93 1.56.99.39 14.83 5.9.99.1.99.04" class="js-line" style="vector-effect:none;fill:none;stroke:#636efa;stroke-opacity:1;stroke-width:1.5px;opacity:1"/></g></g><g class="trace scatter trace6925a3" style="stroke-miterlimit:2;opacity:1"><g class="lines"><path d="m374.58 175.28 4.85.73.8.25 6.46 2.98.81.46 29.07 16.94.81.34 9.69 3.22.8.2 10.5 1.75.81.08 15.34.61h.81" class="js-line" style="vector-effect:none;fill:none;stroke:#636efa;stroke-opacity:1;stroke-width:1.5px;opacity:1"/></g></g><g class="trace scatter trace6832da" style="stroke-miterlimit:2;opacity:1"><g class="lines"><path d="m374.58 175.28 6.46.76.81.2 8.07 2.82.81.34 16.96 8.34.8.4 17.77 8.16.81.32 12.92 4.22.8.2 10.5 1.65.81.05 3.23.1" class="js-line" style="vector-effect:none;fill:none;stroke:#636efa;stroke-opacity:1;stroke-width:1.5px;opacity:1"/></g></g><g class="trace scatter traced4c28e" style="stroke-miterlimit:2;opacity:1"><g class="lines"><path d="m374.58 143.59 5.65-.82.81-.24 6.46-2.89.81-.46 9.69-6.53.8-.59 13.73-9.31.81-.44 7.27-2.9.8-.21 4.04-.37.81.2 6.46 2.69.81.45 15.34 8.06.81.25 5.65.81" class="js-line" style="vector-effect:none;fill:none;stroke:#636efa;stroke-opacity:1;stroke-width:1.5px;opacity:1"/></g></g><g class="trace scatter trace13b3e7" style="stroke-miterlimit:2;opacity:1"><g class="lines"><path d="m374.58 143.59 4.85-.84.8-.3 5.66-2.99.8-.54 10.5-8.02.81-.64 10.49-7.56.81-.47 6.46-2.92.81-.24 5.65-.67.81.05 6.46-.03.81.03 10.49 1.22.81.12 13.73 1.16" class="js-line" style="vector-effect:none;fill:none;stroke:#636efa;stroke-opacity:1;stroke-width:1.5px;opacity:1"/></g></g><g class="trace scatter trace337f04" style="stroke-miterlimit:2;opacity:1"><g class="lines"><path d="m374.58 74.73 12.11.85.81.12 14.53 2.88.81.18 12.11 2.03.81.06 8.08-.38.8-.13 9.69-2.38.81-.23 12.92-3.14.81-.11 6.46-.45" class="js-line" style="vector-effect:none;fill:none;stroke:#636efa;stroke-opacity:1;stroke-width:1.5px;opacity:1"/></g></g><g class="trace scatter trace4aed2d" style="stroke-miterlimit:2;opacity:1"><g class="lines"><path d="m374.58 27.4 5.65.78.81.24 5.65 2.53.81.48 6.46 4.81.81.71 8.88 9.1.81.91 16.95 18.45.81.69 6.46 4.34.81.4 6.46 2.13.81.16 8.88.81.81.03 8.88.06" class="js-line" style="vector-effect:none;fill:none;stroke:#636efa;stroke-opacity:1;stroke-width:1.5px;opacity:1"/></g></g><g class="trace scatter trace086419" style="stroke-miterlimit:2;opacity:1"><g class="lines"><path d="m455.33 202.84 16.56 19.41.57.69 15.41 17.51.57.57 8 6.99.57.41 6.28 3.69.57.25 5.71 1.62.57.08 2.28.13" class="js-line" style="vector-effect:none;fill:none;stroke:#636efa;stroke-opacity:1;stroke-width:1.5px;opacity:1"/></g></g><g class="trace scatter trace030154" style="stroke-miterlimit:2;opacity:1"><g class="lines"><path d="m455.33 202.84 11.42-11.52.57-.52 10.28-8.24.57.9 17.7 49.02.57 1.33 5.71 11.45.57.93 4.57 5.69.57.48 3.42 1.71.57.09.57.03" class="js-line" style="vector-effect:none;fill:none;stroke:#636efa;stroke-opacity:1;stroke-width:1.5px;opacity:1"/></g></g><g class="trace scatter tracebf3272" style="stroke-miterlimit:2;opacity:1"><g class="lines"><path d="m455.33 131.29 1.71 1.07.57.73 3.43 6.2.57 1.2 7.42 17.76.57 1.49 8.57 22.42.57-.39 9.13-5.34.57-.28 9.14-3.53.57-.17 8.56-1.69.58-.06 5.13-.26" class="js-line" style="vector-effect:none;fill:none;stroke:#636efa;stroke-opacity:1;stroke-width:1.5px;opacity:1"/></g></g><g class="trace scatter trace5deeae" style="stroke-miterlimit:2;opacity:1"><g class="lines"><path d="m455.33 120.95 1.71-.9.57-.61 5.71-7.98.57-.8 8-9.74.57-.59 6.85-5.9.57-.4 7.42-4.18.57-.24 8-2.56.57-.12 9.7-1.33.57-.04 5.71-.18" class="js-line" style="vector-effect:none;fill:none;stroke:#636efa;stroke-opacity:1;stroke-width:1.5px;opacity:1"/></g></g><g class="trace scatter trace3eb1c1" style="stroke-miterlimit:2;opacity:1"><g class="lines"><path d="m455.33 74.03 43.39 10.4.57.07 11.42.87.57.01h1.14" class="js-line" style="vector-effect:none;fill:none;stroke:#636efa;stroke-opacity:1;stroke-width:1.5px;opacity:1"/></g></g><g class="trace scatter trace57aeb8" style="stroke-miterlimit:2;opacity:1"><g class="lines"><path d="m455.33 74.03 18.27-3.73.57-.09 17.13-1.95.57-.04 20.55-.71" class="js-line" style="vector-effect:none;fill:none;stroke:#636efa;stroke-opacity:1;stroke-width:1.5px;opacity:1"/></g></g><g class="trace scatter trace9d01d8" style="stroke-miterlimit:2;opacity:1"><g class="lines"><path d="m0 403 25.12-50.16 1.14-2.14 14.85-26.02 1.14-1.85 11.42-16.95 1.14-1.55 10.28-12.57 1.14-1.25 9.14-8.9 1.14-.97 9.13-6.72 1.15-.71 9.13-4.58 1.14-.44 9.14-2.5 1.14-.18 6.85-.51" class="js-line" style="vector-effect:none;fill:none;stroke:#ef553b;stroke-opacity:1;stroke-dasharray:3px,3px;stroke-width:1.5px;opacity:1"/></g></g><g class="trace scatter tracec9b273" style="stroke-miterlimit:2;opacity:1"><g class="lines"><path d="m0 403 25.12-50.16 1.14-2.14 14.85-26.02 1.14-1.85 11.42-16.95 1.14-1.55 10.28-12.57 1.14-1.25 9.14-8.9 1.14-.97 9.13-6.72 1.15-.71 9.13-4.58 1.14-.44 9.14-2.5 1.14-.18 6.85-.51" class="js-line" style="vector-effect:none;fill:none;stroke:#ef553b;stroke-opacity:1;stroke-dasharray:3px,3px;stroke-width:1.5px;opacity:1"/></g></g><g class="trace scatter trace980776" style="stroke-miterlimit:2;opacity:1"><g class="lines"><path d="m0 403 21.7-105.92 1.14-5.18 11.42-48.3 1.14-4.45 9.14-32.63 1.14-3.7 7.99-23.32 1.14-2.95 6.85-15.43 1.15-2.16 5.71-8.78 1.14-1.3 3.42-2.76 1.15-.52 3.42-.19 1.14.4 3.43 2.57 1.14 1.28 4.57 6.74 1.14 1.99 14.85 26.19 1.14 1.47 4.57 4.32 1.14.65 3.42.85" class="js-line" style="vector-effect:none;fill:none;stroke:#ef553b;stroke-opacity:1;stroke-dasharray:3px,3px;stroke-width:1.5px;opacity:1"/></g></g><g class="trace scatter trace1b0e58" style="stroke-miterlimit:2;opacity:1"><g class="lines"><path d="m0 118.79 20.55-.75 1.15-.08 75.36-5.94 1.15-.03 15.98-.2" class="js-line" style="vector-effect:none;fill:none;stroke:#ef553b;stroke-opacity:1;stroke-dasharray:3px,3px;stroke-width:1.5px;opacity:1"/></g></g><g class="trace scatter tracef3d88a" style="stroke-miterlimit:2;opacity:1"><g class="lines"><path d="m0 118.79 20.55-.75 1.15-.08 75.36-5.94 1.15-.03 15.98-.2" class="js-line" style="vector-effect:none;fill:none;stroke:#ef553b;stroke-opacity:1;stroke-dasharray:3px,3px;stroke-width:1.5px;opacity:1"/></g></g><g class="trace scatter tracec86f59" style="stroke-miterlimit:2;opacity:1"><g class="lines"><path d="m0 118.79 4.57-.83 1.14-.46 4.57-2.79 1.14-.91 6.85-6.94 1.14-1.34 19.42-23 1.14-1 5.71-3.84 1.14-.51 4.57-1.09 1.14-.03 4.57.84 1.14.45 5.71 3.46 1.14.9 12.56 10.14 1.14.57 4.57 1.23 1.14.06 5.71-.71 1.14-.26 17.13-3.86 1.15-.11 4.56-.2" class="js-line" style="vector-effect:none;fill:none;stroke:#ef553b;stroke-opacity:1;stroke-dasharray:3px,3px;stroke-width:1.5px;opacity:1"/></g></g><g class="trace scatter trace4afd2b" style="stroke-miterlimit:2;opacity:1"><g class="lines"><path d="m114.19 265 6.06-.69.4-.09 6.46-2.33.41-.2 6.86-4.19.4-.29 7.27-6.22.4-.4 7.68-8.32.4-.49 4.04-5.01" class="js-line" style="vector-effect:none;fill:none;stroke:#ef553b;stroke-opacity:1;stroke-dasharray:3px,3px;stroke-width:1.5px;opacity:1"/></g></g><g class="trace scatter trace95f894" style="stroke-miterlimit:2;opacity:1"><g class="lines"><path d="m114.19 265 2.83-.64.4-.19 3.23-2.46.41-.41 4.03-5.4.41-.66 5.25-10.15.4-.89 7.67-19.14.4-1.1 8.08-22.39.4.24.41.25 6.46 4.35" class="js-line" style="vector-effect:none;fill:none;stroke:#ef553b;stroke-opacity:1;stroke-dasharray:3px,3px;stroke-width:1.5px;opacity:1"/></g></g><g class="trace scatter traceeff8e9" style="stroke-miterlimit:2;opacity:1"><g class="lines"><path d="m114.19 191.87 9.29.75.4.07 9.29 2.32.4.14 9.29 3.96.4.2 4.04 1.82.4-1.16 6.87-19.61" class="js-line" style="vector-effect:none;fill:none;stroke:#ef553b;stroke-opacity:1;stroke-dasharray:3px,3px;stroke-width:1.5px;opacity:1"/></g></g><g class="trace scatter trace3b7b40" style="stroke-miterlimit:2;opacity:1"><g class="lines"><path d="m114.19 111.79 11.31.75.4.05 10.9 2.34.41.12 9.69 3.68.4.19 7.27 3.91" class="js-line" style="vector-effect:none;fill:none;stroke:#ef553b;stroke-opacity:1;stroke-dasharray:3px,3px;stroke-width:1.5px;opacity:1"/></g></g><g class="trace scatter tracebaa3c3" style="stroke-miterlimit:2;opacity:1"><g class="lines"><path d="m114.19 111.79 9.69-.74.41-.06 14.13-3.19.4-.11 15.75-4" class="js-line" style="vector-effect:none;fill:none;stroke:#ef553b;stroke-opacity:1;stroke-dasharray:3px,3px;stroke-width:1.5px;opacity:1"/></g></g><g class="trace scatter trace680f44" style="stroke-miterlimit:2;opacity:1"><g class="lines"><path d="m114.19 88.56 12.92.72.41.05 15.74 2.72.41.09 10.9 2.74" class="js-line" style="vector-effect:none;fill:none;stroke:#ef553b;stroke-opacity:1;stroke-dasharray:3px,3px;stroke-width:1.5px;opacity:1"/></g></g><g class="trace scatter trace91c91b" style="stroke-miterlimit:2;opacity:1"><g class="lines"><path d="m154.57 236.77 13.32-18.42 1.21.83 10.9 12.25 1.21 1.49 12.11 16.38 1.22 1.77L207.86 272l1.21 2.03 15.75 27.83 1.21 2.24 21.8 42.2 1.21 2.42L275.69 403" class="js-line" style="vector-effect:none;fill:none;stroke:#ef553b;stroke-opacity:1;stroke-dasharray:3px,3px;stroke-width:1.5px;opacity:1"/></g></g><g class="trace scatter trace6b5b33" style="stroke-miterlimit:2;opacity:1"><g class="lines"><path d="m154.57 206.41 9.69 8.06 1.21 1.13 2.42 2.36 1.21-1.34 10.9-14.36 1.21-1.29 4.85-3.95 1.21-.6 3.63-.65 1.21.19 3.64 1.8 1.21.98 4.84 5.54 1.21 1.73 6.06 10.17 1.21 2.29 8.48 17.85 1.21 2.78 10.9 26.98 1.21 3.2 13.33 37.52 1.21 3.6 18.17 56.88 1.21 3.94 9.69 31.78" class="js-line" style="vector-effect:none;fill:none;stroke:#ef553b;stroke-opacity:1;stroke-dasharray:3px,3px;stroke-width:1.5px;opacity:1"/></g></g><g class="trace scatter tracebb08f1" style="stroke-miterlimit:2;opacity:1"><g class="lines"><path d="m154.57 180.36 9.69-25.23 1.21-2.77 6.05-11.71 1.21-1.8 1.22-1.4 1.21 1 8.48 6.13 1.21.61 4.84 1.26 1.21-.03 3.64-.97 1.21-.6 1.21.06 1.21 1.78 7.27 12.62 1.21 2.41 8.48 19.1 1.21 3.04 9.69 26.95 1.21 3.68 10.9 36.04 1.21 4.31 13.32 50.76 1.21 4.88 16.96 71.5 1.21 5.25 3.64 15.77" class="js-line" style="vector-effect:none;fill:none;stroke:#ef553b;stroke-opacity:1;stroke-dasharray:3px,3px;stroke-width:1.5px;opacity:1"/></g></g><g class="trace scatter trace3be909" style="stroke-miterlimit:2;opacity:1"><g class="lines"><path d="m154.57 122.83 9.69 6.7 1.21.94 8.48 6.79 1.21-1.36 3.63-2.67 1.21-.42 3.64.03 1.21.4 3.63 2.15 1.21 1.01 4.85 5.24 1.21 1.58 1.21.93 1.21-.81 7.27-6.23 1.21-1.15 12.11-10.69 1.21-.89 7.27-4.39 1.21-.57 7.27-2.4 1.21-.25 4.84-.15 1.21.15 19.38 1.69 1.21.06 12.12.27" class="js-line" style="vector-effect:none;fill:none;stroke:#ef553b;stroke-opacity:1;stroke-dasharray:3px,3px;stroke-width:1.5px;opacity:1"/></g></g><g class="trace scatter traceda70eb" style="stroke-miterlimit:2;opacity:1"><g class="lines"><path d="m154.57 103.69 18.16-3.47 1.22.37 33.91 9.6 1.21.3 21.8 4.51 1.21.2 9.69.98 1.21-.05 9.69.47 1.21.14 21.81 2.05" class="js-line" style="vector-effect:none;fill:none;stroke:#ef553b;stroke-opacity:1;stroke-dasharray:3px,3px;stroke-width:1.5px;opacity:1"/></g></g><g class="trace scatter trace078f2f" style="stroke-miterlimit:2;opacity:1"><g class="lines"><path d="m154.57 94.88 16.95 4.69 1.21-.59 4.85-3.37 1.21-1.11 7.27-8.14 1.21-1.47 9.69-10.62 1.21-1.07 6.06-4.23 1.21-.6 4.84-1.51 1.21-.16 4.85.27 1.21.29 4.84 2.01 1.21.7 6.06 4.67 1.21 1.14 7.27 7.96 1.21 1.48 20.59 25.25 1.21 1.16 6.06 4.63 1.21.66 4.84 1.66 1.22.16 1.21.05" class="js-line" style="vector-effect:none;fill:none;stroke:#ef553b;stroke-opacity:1;stroke-dasharray:3px,3px;stroke-width:1.5px;opacity:1"/></g></g><g class="trace scatter tracef4f0de" style="stroke-miterlimit:2;opacity:1"><g class="lines"><path d="m275.69 403 27.69-79.15.99-2.67 14.83-37.97.99-2.38 13.84-31.12.99-2.06 11.87-22.76.99-1.72 8.9-14 .99-1.36 6.92-8.03.99-.89 4.94-3.2.99-.37 2.97-.47" class="js-line" style="vector-effect:none;fill:none;stroke:#ef553b;stroke-opacity:1;stroke-dasharray:3px,3px;stroke-width:1.5px;opacity:1"/></g></g><g class="trace scatter traceee16e5" style="stroke-miterlimit:2;opacity:1"><g class="lines"><path d="m275.69 403 27.69-79.15.99-2.67 14.83-37.97.99-2.38 13.84-31.12.99-2.06 11.87-22.76.99-1.72 8.9-14 .99-1.36 6.92-8.03.99-.89 4.94-3.2.99-.37 2.97-.47" class="js-line" style="vector-effect:none;fill:none;stroke:#ef553b;stroke-opacity:1;stroke-dasharray:3px,3px;stroke-width:1.5px;opacity:1"/></g></g><g class="trace scatter trace6a6397" style="stroke-miterlimit:2;opacity:1"><g class="lines"><path d="m275.69 403 29.66-117.93.99-3.72 15.83-56.62.99-3.34 12.85-40.89.99-2.94 11.87-32.72.99-2.5 3.95-7.98.99.76 11.87 8.09.99.47 4.94 1.53.99.1.99.04" class="js-line" style="vector-effect:none;fill:none;stroke:#ef553b;stroke-opacity:1;stroke-dasharray:3px,3px;stroke-width:1.5px;opacity:1"/></g></g><g class="trace scatter traceef07ef" style="stroke-miterlimit:2;opacity:1"><g class="lines"><path d="m275.69 118.79 12.85-.7.99-.1 21.76-1.77.99.02 8.9.94.99.2 7.91 2.36.99.4 7.91 3.92.99.58 10.88 7.47.99.75 13.84 9.83.99.52 5.93 2 .99.1.99.04" class="js-line" style="vector-effect:none;fill:none;stroke:#ef553b;stroke-opacity:1;stroke-dasharray:3px,3px;stroke-width:1.5px;opacity:1"/></g></g><g class="trace scatter trace66220e" style="stroke-miterlimit:2;opacity:1"><g class="lines"><path d="m275.69 118.79 12.85-.7.99-.1 21.76-1.77.99.02 8.9.94.99.2 7.91 2.36.99.4 7.91 3.92.99.58 10.88 7.47.99.75.98.75.99-.85 8.9-18.76.99-1.78 4.95-7.52.99-1.14 2.96-2.35.99-.36.99-.12" class="js-line" style="vector-effect:none;fill:none;stroke:#ef553b;stroke-opacity:1;stroke-dasharray:3px,3px;stroke-width:1.5px;opacity:1"/></g></g><g class="trace scatter trace8a935c" style="stroke-miterlimit:2;opacity:1"><g class="lines"><path d="m275.69 118.79 4.94-.84.99-.36 4.94-2.76.99-.73 5.94-5.42.99-1.06 8.9-10.83.99-1.29 15.82-20.02.99-1.08 7.91-7.36.99-.74 5.93-3.46.99-.41 5.93-1.4.99-.05 4.95.47.99.24 5.93 2.43.99.56 6.92 4.83.99.77 6.92 4.69.99.37 1.98.3" class="js-line" style="vector-effect:none;fill:none;stroke:#ef553b;stroke-opacity:1;stroke-dasharray:3px,3px;stroke-width:1.5px;opacity:1"/></g></g><g class="trace scatter tracef99f4e" style="stroke-miterlimit:2;opacity:1"><g class="lines"><path d="m374.58 194.85 7.27.81.81.18 8.07 2.68.81.33 15.34 7.5.81.42 16.95 7.87.81.31 11.31 3.47.8.18 10.5 1.59.81.06 6.46.24" class="js-line" style="vector-effect:none;fill:none;stroke:#ef553b;stroke-opacity:1;stroke-dasharray:3px,3px;stroke-width:1.5px;opacity:1"/></g></g><g class="trace scatter tracebb97bb" style="stroke-miterlimit:2;opacity:1"><g class="lines"><path d="m374.58 194.85 10.5.82.81.13 11.3 2.85.81.28 12.11 5 .81.39 29.87 13.76.81.25 8.88 1.88.81.09 4.04.19" class="js-line" style="vector-effect:none;fill:none;stroke:#ef553b;stroke-opacity:1;stroke-dasharray:3px,3px;stroke-width:1.5px;opacity:1"/></g></g><g class="trace scatter trace25f274" style="stroke-miterlimit:2;opacity:1"><g class="lines"><path d="m374.58 145.35 9.69-.85.81-.14 9.69-2.57.8-.27 6.46-.74.81.01 5.65.97.81.27 5.65 2.78.81.52 8.08 6.25.8.7 16.15 13.21.81.52 6.46 3.2.81.27 5.65 1.03.81.02" class="js-line" style="vector-effect:none;fill:none;stroke:#ef553b;stroke-opacity:1;stroke-dasharray:3px,3px;stroke-width:1.5px;opacity:1"/></g></g><g class="trace scatter tracecdd112" style="stroke-miterlimit:2;opacity:1"><g class="lines"><path d="m374.58 145.35 8.08-.8.8-.16 14.54-3.74.8-.31 31.5-11.98.8-.18 10.5-1.31.81-.04 12.92-.17" class="js-line" style="vector-effect:none;fill:none;stroke:#ef553b;stroke-opacity:1;stroke-dasharray:3px,3px;stroke-width:1.5px;opacity:1"/></g></g><g class="trace scatter traceb87465" style="stroke-miterlimit:2;opacity:1"><g class="lines"><path d="m374.58 100.73 8.08.75.8.15 10.5 2.9.81.26 11.3 2.89.81.1 7.27-.04.8-.1 8.89-1.88.8-.22 21-4.77.81-.1 8.88-.54" class="js-line" style="vector-effect:none;fill:none;stroke:#ef553b;stroke-opacity:1;stroke-dasharray:3px,3px;stroke-width:1.5px;opacity:1"/></g></g><g class="trace scatter tracecfa442" style="stroke-miterlimit:2;opacity:1"><g class="lines"><path d="m374.58 75.64 8.88.76.81.14 8.88 2.34.81.28 11.3 4.84.81.4 25.84 12.37.81.27 9.69 2.24.81.11 10.49.73.81.01h.81" class="js-line" style="vector-effect:none;fill:none;stroke:#ef553b;stroke-opacity:1;stroke-dasharray:3px,3px;stroke-width:1.5px;opacity:1"/></g></g><g class="trace scatter trace2bebc3" style="stroke-miterlimit:2;opacity:1"><g class="lines"><path d="m455.33 220.49 20.55 21.21.57.6 13.71 12.9.57.46 7.99 5.44.57.31 6.85 2.75.57.14 5.71.7" class="js-line" style="vector-effect:none;fill:none;stroke:#ef553b;stroke-opacity:1;stroke-dasharray:3px,3px;stroke-width:1.5px;opacity:1"/></g></g><g class="trace scatter trace3c3564" style="stroke-miterlimit:2;opacity:1"><g class="lines"><path d="m455.33 220.49 12.56-11.08.57-.45 8.56-6.04.58.2 21.12 48.46.57 1.02 5.14 7.59.57.65 4 3.26.57.27 2.85.63" class="js-line" style="vector-effect:none;fill:none;stroke:#ef553b;stroke-opacity:1;stroke-dasharray:3px,3px;stroke-width:1.5px;opacity:1"/></g></g><g class="trace scatter trace780dc1" style="stroke-miterlimit:2;opacity:1"><g class="lines"><path d="m455.33 170.53 2.85.72.57.32 3.43 2.97.57.66 4.57 6.68.57.99 6.28 12.49.57 1.26 2.86 5.94.57-.35 10.27-5.31.57-.24 10.28-3.29.57-.13 9.71-1.3.57-.02 2.28-.05" class="js-line" style="vector-effect:none;fill:none;stroke:#ef553b;stroke-opacity:1;stroke-dasharray:3px,3px;stroke-width:1.5px;opacity:1"/></g></g><g class="trace scatter trace816f4d" style="stroke-miterlimit:2;opacity:1"><g class="lines"><path d="m455.33 126.66 4.57-.77.57-.19 7.42-3.59.57-.31 11.99-5.72.57-.21 9.14-2.47.57-.1 11.42-1.26.57-.03 9.7-.22" class="js-line" style="vector-effect:none;fill:none;stroke:#ef553b;stroke-opacity:1;stroke-dasharray:3px,3px;stroke-width:1.5px;opacity:1"/></g></g><g class="trace scatter tracecdba31" style="stroke-miterlimit:2;opacity:1"><g class="lines"><path d="m455.33 100.13 27.97 8.07.58.13 14.84 2.62.57.07 11.99.76.57.01h.57" class="js-line" style="vector-effect:none;fill:none;stroke:#ef553b;stroke-opacity:1;stroke-dasharray:3px,3px;stroke-width:1.5px;opacity:1"/></g></g><g class="trace scatter trace73af0e" style="stroke-miterlimit:2;opacity:1"><g class="lines"><path d="m455.33 100.13 27.4-7.9.57-.13 15.42-2.72.57-.07 13.13-.75" class="js-line" style="vector-effect:none;fill:none;stroke:#ef553b;stroke-opacity:1;stroke-dasharray:3px,3px;stroke-width:1.5px;opacity:1"/></g></g></g></g><path d="M47 443.5h514.424M47 39.5h514.424" class="xlines-above crisp" style="fill:none;stroke-width:1px;stroke:#000;stroke-opacity:1"/><path d="M47.5 40v403M560.924 40v403" class="ylines-above crisp" style="fill:none;stroke-width:1px;stroke:#000;stroke-opacity:1"/><g class="xaxislayer-above"><path d="M0 444v5" class="xtick ticks crisp" style="stroke:#444;stroke-opacity:1;stroke-width:1px" transform="translate(48)"/><path d="M0 444v5" class="xtick ticks crisp" style="stroke:#444;stroke-opacity:1;stroke-width:1px" transform="translate(162.19)"/><path d="M0 444v5" class="xtick ticks crisp" style="stroke:#444;stroke-opacity:1;stroke-width:1px" transform="translate(202.57)"/><path d="M0 444v5" class="xtick ticks crisp" style="stroke:#444;stroke-opacity:1;stroke-width:1px" transform="translate(323.69)"/><path d="M0 444v5" class="xtick ticks crisp" style="stroke:#444;stroke-opacity:1;stroke-width:1px" transform="translate(422.58)"/><path d="M0 444v5" class="xtick ticks crisp" style="stroke:#444;stroke-opacity:1;stroke-width:1px" transform="translate(503.33)"/><path d="M0 444v5" class="xtick ticks crisp" style="stroke:#444;stroke-opacity:1;stroke-width:1px" transform="translate(560.42)"/><text y="468.2" class="xtick" style="font-family:&quot;Open Sans&quot;,verdana,arial,sans-serif;font-size:16px;fill:#2a3f5f;fill-opacity:1;white-space:pre;opacity:1" text-anchor="middle" transform="translate(48)">Γ</text><text y="468.2" class="xtick" style="font-family:&quot;Open Sans&quot;,verdana,arial,sans-serif;font-size:16px;fill:#2a3f5f;fill-opacity:1;white-space:pre;opacity:1" text-anchor="middle" transform="translate(162.19)">X</text><text y="468.2" class="xtick" style="font-family:&quot;Open Sans&quot;,verdana,arial,sans-serif;font-size:16px;fill:#2a3f5f;fill-opacity:1;white-space:pre;opacity:1" text-anchor="middle" transform="translate(202.57)">U|K</text><text y="468.2" class="xtick" style="font-family:&quot;Open Sans&quot;,verdana,arial,sans-serif;font-size:16px;fill:#2a3f5f;fill-opacity:1;white-space:pre;opacity:1" text-anchor="middle" transform="translate(323.69)">Γ</text><text y="468.2" class="xtick" style="font-family:&quot;Open Sans&quot;,verdana,arial,sans-serif;font-size:16px;fill:#2a3f5f;fill-opacity:1;white-space:pre;opacity:1" text-anchor="middle" transform="translate(422.58)">L</text><text y="468.2" class="xtick" style="font-family:&quot;Open Sans&quot;,verdana,arial,sans-serif;font-size:16px;fill:#2a3f5f;fill-opacity:1;white-space:pre;opacity:1" text-anchor="middle" transform="translate(503.33)">W</text><text y="468.2" class="xtick" style="font-family:&quot;Open Sans&quot;,verdana,arial,sans-serif;font-size:16px;fill:#2a3f5f;fill-opacity:1;white-space:pre;opacity:1" text-anchor="middle" transform="translate(560.42)">X</text></g><g class="yaxislayer-above"><path d="M47 0h-5" class="ytick ticks crisp" style="stroke:#444;stroke-opacity:1;stroke-width:1px" transform="translate(0 443)"/><path d="M47 0h-5" class="ytick ticks crisp" style="stroke:#444;stroke-opacity:1;stroke-width:1px" transform="translate(0 367.87)"/><path d="M47 0h-5" class="ytick ticks crisp" style="stroke:#444;stroke-opacity:1;stroke-width:1px" transform="translate(0 292.73)"/><path d="M47 0h-5" class="ytick ticks crisp" style="stroke:#444;stroke-opacity:1;stroke-width:1px" transform="translate(0 217.6)"/><path d="M47 0h-5" class="ytick ticks crisp" style="stroke:#444;stroke-opacity:1;stroke-width:1px" transform="translate(0 142.47)"/><path d="M47 0h-5" class="ytick ticks crisp" style="stroke:#444;stroke-opacity:1;stroke-width:1px" transform="translate(0 67.34)"/><text x="38.8" y="5.6" class="ytick" style="font-family:&quot;Open Sans&quot;,verdana,arial,sans-serif;font-size:16px;fill:#2a3f5f;fill-opacity:1;white-space:pre;opacity:1" text-anchor="end" transform="translate(0 443)">0</text><text x="38.8" y="5.6" class="ytick" style="font-family:&quot;Open Sans&quot;,verdana,arial,sans-serif;font-size:16px;fill:#2a3f5f;fill-opacity:1;white-space:pre;opacity:1" text-anchor="end" transform="translate(0 367.87)">1</text><text x="38.8" y="5.6" class="ytick" style="font-family:&quot;Open Sans&quot;,verdana,arial,sans-serif;font-size:16px;fill:#2a3f5f;fill-opacity:1;white-space:pre;opacity:1" text-anchor="end" transform="translate(0 292.73)">2</text><text x="38.8" y="5.6" class="ytick" style="font-family:&quot;Open Sans&quot;,verdana,arial,sans-serif;font-size:16px;fill:#2a3f5f;fill-opacity:1;white-space:pre;opacity:1" text-anchor="end" transform="translate(0 217.6)">3</text><text x="38.8" y="5.6" class="ytick" style="font-family:&quot;Open Sans&quot;,verdana,arial,sans-serif;font-size:16px;fill:#2a3f5f;fill-opacity:1;white-space:pre;opacity:1" text-anchor="end" transform="translate(0 142.47)">4</text><text x="38.8" y="5.6" class="ytick" style="font-family:&quot;Open Sans&quot;,verdana,arial,sans-serif;font-size:16px;fill:#2a3f5f;fill-opacity:1;white-space:pre;opacity:1" text-anchor="end" transform="translate(0 67.34)">5</text></g></g><g class="subplot x2y2"><g class="gridlayer"><g class="x2"><path d="M0 40v403" class="x2grid crisp" style="stroke:#d3d3d3;stroke-opacity:1;stroke-width:1px" transform="translate(597.434)"/><path d="M0 40v403" class="x2grid crisp" style="stroke:#d3d3d3;stroke-opacity:1;stroke-width:1px" transform="translate(627.964)"/><path d="M0 40v403" class="x2grid crisp" style="stroke:#d3d3d3;stroke-opacity:1;stroke-width:1px" transform="translate(658.504)"/><path d="M0 40v403" class="x2grid crisp" style="stroke:#d3d3d3;stroke-opacity:1;stroke-width:1px" transform="translate(689.044)"/></g><g class="y2"><path d="M566.894 0H695" class="y2grid crisp" style="stroke:#d3d3d3;stroke-opacity:1;stroke-width:1px" transform="translate(0 367.87)"/><path d="M566.894 0H695" class="y2grid crisp" style="stroke:#d3d3d3;stroke-opacity:1;stroke-width:1px" transform="translate(0 292.73)"/><path d="M566.894 0H695" class="y2grid crisp" style="stroke:#d3d3d3;stroke-opacity:1;stroke-width:1px" transform="translate(0 217.6)"/><path d="M566.894 0H695" class="y2grid crisp" style="stroke:#d3d3d3;stroke-opacity:1;stroke-width:1px" transform="translate(0 142.47)"/><path d="M566.894 0H695" class="y2grid crisp" style="stroke:#d3d3d3;stroke-opacity:1;stroke-width:1px" transform="translate(0 67.34)"/></g></g><g class="plot" clip-path="url(#b)" transform="translate(566.894 40)"><g class="scatterlayer mlayer"><g class="trace scatter trace5dfa35" style="stroke-miterlimit:2;opacity:1"><g class="lines"><path d="M0 441.28.74 354l.06-2.3 2.18-36.75.16-2.29 2.48-22.97.31-2.3 2.62-13.78.46-2.3 2.82-9.19.95-2.29 2.39-4.6 2.55-2.29 2.3-13.78.03-2.3.64-6.89.49-2.3 1.66-13.78 2.07-2.3 3.41-2.29 1.83-2.3-8.46-2.3-5.53-2.29-1.58-2.3 6.15-2.3 5.29-2.3 2.38-2.29-3.94-2.3 4.59-2.3 4.43-2.29 1.21-2.3 1.64-2.3-3.2-2.29 1.99-2.3-14.18-2.3-12.59-4.59-.49-2.3-.2-4.59.29-2.3 1.57-6.89.94-2.3 3.01-2.29 4.71-2.3 2.5-2.3 7.58-2.29 13.24-2.3 2.6-2.3-3.8-2.29-.28-2.3-8.23-2.3-5.36-2.3-9.89-4.59-2.48-2.3-.52-2.29 2.82-2.3 14.12-2.3 7.3-2.29 2.85-2.3-4.87-2.3.09-2.29 1.11-2.3 3.3-2.3 5.53-2.29 3.91-2.3 17.2-2.3 49.96-2.3-39.46-2.29-4.18-2.3-17.06-2.3 11.32-2.29 21.1-2.3-27.83-2.3-41.2-2.29 18.89-2.3 35.38-2.3-35.93-2.29-20.07-2.3-2.51-4.6L14.5 60l-.12-4.6.4-2.29 1.58-6.89 1.06-2.3 1.84-2.3 4.69-2.29.94-2.3-2.13-2.3 5.45-2.29-11.3-2.3-2.42-2.3-4.53-2.3L0 18.65V-18.1" class="js-line" style="vector-effect:none;fill:none;stroke:#636efa;stroke-opacity:1;stroke-width:1.5px;opacity:1"/></g></g><g class="trace scatter trace6497fc" style="stroke-miterlimit:2;opacity:1"><g class="lines"><path d="m0 437.19.7-79.99.06-2.05 1.9-30.76.17-2.05 3.45-28.72.44-2.05 5.18-18.46 1.02-2.05 2.14-4.1 2.26-2.05 1.74-2.05.07-2.05 1.67-4.1-.16-2.05 2.03-12.31.49-2.05L26 227.99l2.3-2.05 2.07-2.05-4.19-2.05 1.72-2.05-2.62-2.05-3.05-2.05 5.79-2.05 6.61-2.05-3.32-2.05 5.18-2.05 1.86-2.06 4.71-4.1-3.71-2.05 4.75-2.05-2.4-2.05-31.9-2.05.04-2.05-.74-4.1.22-2.05 1.71-6.16.85-2.05 2.61-4.1 1.7-2.05 2.06-2.05.42-2.05 2.83-4.1 2.27-2.06 4.11-2.05 11.79-2.05-11.19-4.1.93-2.05-2.01-2.05-.03-2.05.72-2.05-19.58-2.05-2.68-2.05 5.39-2.06 7.07-2.05 12.74-2.05 17.66-2.05.97-2.05-1.92-2.05 12.28-2.05-8.56-2.05 4.7-2.05 5.91-2.05 66.04-2.05-22.88-2.06-14.28-2.05-19.23-2.05 1.4-2.05.86-2.05-2.29-2.05-27.23-2.05-42.56-2.05 49.18-6.15 26.75-2.06-34.36-2.05-17.17-2.05-1.51-2.05-.23-2.05 1.14-4.1 1.91-2.05 4.15-4.1-3.23-2.05.21-2.05 1.59-2.06-11.94-2.05-7.48-2.05-9.39-2.05L0 59.82V27.01" class="js-line" style="vector-effect:none;fill:none;stroke:#ef553b;stroke-opacity:1;stroke-dasharray:3px,3px;stroke-width:1.5px;opacity:1"/></g></g></g></g><path d="M565.894 443.5H696m-130.106-404H696" class="xlines-above crisp" style="fill:none;stroke-width:1px;stroke:#000;stroke-opacity:1"/><path d="M566.394 40v403M695.5 40v403" class="ylines-above crisp" style="fill:none;stroke-width:1px;stroke:#000;stroke-opacity:1"/><g class="xaxislayer-above"><path d="M0 444v5" class="x2tick ticks crisp" style="stroke:#444;stroke-opacity:1;stroke-width:1px" transform="translate(566.894)"/><path d="M0 444v5" class="x2tick ticks crisp" style="stroke:#444;stroke-opacity:1;stroke-width:1px" transform="translate(597.434)"/><path d="M0 444v5" class="x2tick ticks crisp" style="stroke:#444;stroke-opacity:1;stroke-width:1px" transform="translate(627.964)"/><path d="M0 444v5" class="x2tick ticks crisp" style="stroke:#444;stroke-opacity:1;stroke-width:1px" transform="translate(658.504)"/><path d="M0 444v5" class="x2tick ticks crisp" style="stroke:#444;stroke-opacity:1;stroke-width:1px" transform="translate(689.044)"/><text y="468.2" class="x2tick" style="font-family:&quot;Open Sans&quot;,verdana,arial,sans-serif;font-size:16px;fill:#2a3f5f;fill-opacity:1;white-space:pre;opacity:1" text-anchor="middle" transform="translate(566.894)">0</text><text y="468.2" class="x2tick" style="font-family:&quot;Open Sans&quot;,verdana,arial,sans-serif;font-size:16px;fill:#2a3f5f;fill-opacity:1;white-space:pre;opacity:1" text-anchor="middle" transform="translate(597.434)">2</text><text y="468.2" class="x2tick" style="font-family:&quot;Open Sans&quot;,verdana,arial,sans-serif;font-size:16px;fill:#2a3f5f;fill-opacity:1;white-space:pre;opacity:1" text-anchor="middle" transform="translate(627.964)">4</text><text y="468.2" class="x2tick" style="font-family:&quot;Open Sans&quot;,verdana,arial,sans-serif;font-size:16px;fill:#2a3f5f;fill-opacity:1;white-space:pre;opacity:1" text-anchor="middle" transform="translate(658.504)">6</text><text y="468.2" class="x2tick" style="font-family:&quot;Open Sans&quot;,verdana,arial,sans-serif;font-size:16px;fill:#2a3f5f;fill-opacity:1;white-space:pre;opacity:1" text-anchor="middle" transform="translate(689.044)">8</text></g><g class="yaxislayer-above"><path d="M565.894 0h-5" class="y2tick ticks crisp" style="stroke:#444;stroke-opacity:1;stroke-width:1px" transform="translate(0 443)"/><path d="M565.894 0h-5" class="y2tick ticks crisp" style="stroke:#444;stroke-opacity:1;stroke-width:1px" transform="translate(0 367.87)"/><path d="M565.894 0h-5" class="y2tick ticks crisp" style="stroke:#444;stroke-opacity:1;stroke-width:1px" transform="translate(0 292.73)"/><path d="M565.894 0h-5" class="y2tick ticks crisp" style="stroke:#444;stroke-opacity:1;stroke-width:1px" transform="translate(0 217.6)"/><path d="M565.894 0h-5" class="y2tick ticks crisp" style="stroke:#444;stroke-opacity:1;stroke-width:1px" transform="translate(0 142.47)"/><path d="M565.894 0h-5" class="y2tick ticks crisp" style="stroke:#444;stroke-opacity:1;stroke-width:1px" transform="translate(0 67.34)"/></g></g></g><defs><clipPath id="d"><path d="M0 0h168v34H0z"/></clipPath></defs><g class="layer-above"><g class="shapelayer"><g class="shape-group" clip-path="url(#c)" data-index="0"><path fill="none" d="M162.19 443V40" data-index="0" style="opacity:1;stroke:#000;stroke-opacity:1;fill:#000;fill-opacity:0;stroke-width:1px"/></g><g class="shape-group" clip-path="url(#c)" data-index="1"><path fill="none" d="M422.58 443V40" data-index="1" style="opacity:1;stroke:#000;stroke-opacity:1;fill:#000;fill-opacity:0;stroke-width:1px"/></g><g class="shape-group" clip-path="url(#c)" data-index="2"><path fill="none" d="M202.57 443V40" data-index="2" style="opacity:1;stroke:#000;stroke-opacity:1;fill:#000;fill-opacity:0;stroke-width:1px"/></g><g class="shape-group" clip-path="url(#c)" data-index="3"><path fill="none" d="M503.33 443V40" data-index="3" style="opacity:1;stroke:#000;stroke-opacity:1;fill:#000;fill-opacity:0;stroke-width:1px"/></g><g class="shape-group" clip-path="url(#c)" data-index="4"><path fill="none" d="M323.69 443V40" data-index="4" style="opacity:1;stroke:#000;stroke-opacity:1;fill:#000;fill-opacity:0;stroke-width:1px"/></g></g></g><g class="infolayer"><g class="legend" pointer-events="all"><path d="M0 0h168v34H0z" class="bg" shape-rendering="crispEdges" style="stroke:#444;stroke-opacity:1;fill:#fff;fill-opacity:.6;stroke-width:0" transform="translate(51.235 44.03)"/><g class="scrollbox" clip-path="url(#d)" transform="translate(51.235 44.03)"><g class="groups"><g class="traces" style="opacity:1"><text x="40" y="6.24" class="legendtext" style="font-family:&quot;Open Sans&quot;,verdana,arial,sans-serif;font-size:16px;fill:#2a3f5f;fill-opacity:1;white-space:pre" transform="translate(0 16.9)">DFT</text><g class="layers" style="opacity:1"><g class="legendlines"><path d="M5 0h30" class="js-line" style="fill:none;stroke:#636efa;stroke-opacity:1;stroke-width:1.5px" transform="translate(0 16.9)"/></g></g><path fill="none" d="M0-11.9h73.891v23.8H0z" class="legendtoggle" style="fill:#000;fill-opacity:0" transform="translate(0 16.9)"/></g></g><g class="groups"><g class="traces" style="opacity:1"><text x="40" y="6.24" class="legendtext" style="font-family:&quot;Open Sans&quot;,verdana,arial,sans-serif;font-size:16px;fill:#2a3f5f;fill-opacity:1;white-space:pre" transform="translate(76.39 16.9)">MACE</text><g class="layers" style="opacity:1"><g class="legendlines"><path d="M5 0h30" class="js-line" style="fill:none;stroke:#ef553b;stroke-opacity:1;stroke-dasharray:3px,3px;stroke-width:1.5px" transform="translate(76.39 16.9)"/></g></g><path fill="none" d="M0-11.9h88.219v23.8H0z" class="legendtoggle" style="fill:#000;fill-opacity:0" transform="translate(76.39 16.9)"/></g></g></g></g><g class="g-gtitle"><text x="350" y="10" class="gtitle" dy=".7em" style="font-family:&quot;Open Sans&quot;,verdana,arial,sans-serif;font-size:22px;fill:#2a3f5f;opacity:1;font-weight:400;white-space:pre" text-anchor="middle">Phonon Bands and DOS of Sr4Se4 (mp-2758)</text></g><g class="g-xtitle"><text x="304.212" y="499.503" class="xtitle" style="font-family:&quot;Open Sans&quot;,verdana,arial,sans-serif;font-size:19px;fill:#2a3f5f;opacity:1;font-weight:400;white-space:pre" text-anchor="middle" transform="translate(0 -3.503)">Wave Vector</text></g><g class="g-x2title"><text x="630.947" y="499.503" class="x2title" style="font-family:&quot;Open Sans&quot;,verdana,arial,sans-serif;font-size:19px;fill:#2a3f5f;opacity:1;font-weight:400;white-space:pre" text-anchor="middle" transform="translate(0 -3.503)">Density of States</text></g><g class="g-ytitle"><text x=".825" y="241.5" class="ytitle" style="font-family:&quot;Open Sans&quot;,verdana,arial,sans-serif;font-size:19px;fill:#2a3f5f;opacity:1;font-weight:400;white-space:pre" text-anchor="middle" transform="rotate(-90 9.912 232.413)">Frequency (THz)</text></g></g></svg>