<svg height="369.752" viewBox="0 0 396.961 277.314" width="529.281" xmlns="http://www.w3.org/2000/svg" xmlns:xlink="http://www.w3.org/1999/xlink"><defs><style>*{stroke-linecap:butt;stroke-linejoin:round}</style></defs><g id="figure_1"><path d="M0 277.314h396.96V0H0z" fill="none" id="patch_1"/><g id="axes_1"><path d="M43.781 239.758h334.8V22.318h-334.8z" fill="#fff" id="patch_2"/><g id="matplotlib.axis_1"><g id="xtick_1"><g id="line2d_1"><defs><path d="M0 0v3.5" id="m64f9cf5e56" stroke="#000" stroke-width=".8"/></defs><use x="58.999" xlink:href="#m64f9cf5e56" y="239.758" stroke="#000" stroke-width=".8"/></g><g transform="matrix(.1 0 0 -.1 51.048 254.357)" id="text_1"><defs><path d="M31.781 66.406q-7.61 0-11.453-7.5Q16.5 51.422 16.5 36.375q0-14.984 3.828-22.484 3.844-7.5 11.453-7.5 7.672 0 11.5 7.5 3.844 7.5 3.844 22.484 0 15.047-3.844 22.531-3.828 7.5-11.5 7.5zm0 7.813q12.266 0 18.735-9.703 6.468-9.688 6.468-28.141 0-18.406-6.468-28.11-6.47-9.687-18.735-9.687-12.25 0-18.718 9.688-6.47 9.703-6.47 28.109 0 18.453 6.47 28.14Q19.53 74.22 31.78 74.22z" id="DejaVuSans-48"/><path d="M10.688 12.406H21V0H10.687z" id="DejaVuSans-46"/></defs><use xlink:href="#DejaVuSans-48"/><use x="63.623" xlink:href="#DejaVuSans-46"/><use x="95.41" xlink:href="#DejaVuSans-48"/></g></g><g id="xtick_2"><use x="119.872" xlink:href="#m64f9cf5e56" y="239.758" stroke="#000" stroke-width=".8" id="line2d_2"/><g transform="matrix(.1 0 0 -.1 111.92 254.357)" id="text_2"><defs><path d="M19.188 8.297h34.421V0H7.33v8.297q5.609 5.812 15.296 15.594 9.703 9.797 12.188 12.64 4.734 5.313 6.609 9 1.89 3.688 1.89 7.25 0 5.813-4.078 9.469-4.078 3.672-10.625 3.672-4.64 0-9.797-1.61-5.14-1.609-11-4.89v9.969Q13.767 71.78 18.938 73q5.188 1.219 9.485 1.219 11.328 0 18.062-5.672 6.735-5.656 6.735-15.125 0-4.5-1.688-8.531-1.672-4.016-6.125-9.485-1.218-1.422-7.765-8.187-6.532-6.766-18.453-18.922z" id="DejaVuSans-50"/></defs><use xlink:href="#DejaVuSans-48"/><use x="63.623" xlink:href="#DejaVuSans-46"/><use x="95.41" xlink:href="#DejaVuSans-50"/></g></g><g id="xtick_3"><use x="180.745" xlink:href="#m64f9cf5e56" y="239.758" stroke="#000" stroke-width=".8" id="line2d_3"/><g transform="matrix(.1 0 0 -.1 172.793 254.357)" id="text_3"><defs><path d="M37.797 64.313L12.89 25.39h24.906zm-2.594 8.593H47.61V25.391h10.407v-8.203H47.609V0h-9.812v17.188H4.89v9.515z" id="DejaVuSans-52"/></defs><use xlink:href="#DejaVuSans-48"/><use x="63.623" xlink:href="#DejaVuSans-46"/><use x="95.41" xlink:href="#DejaVuSans-52"/></g></g><g id="xtick_4"><use x="241.618" xlink:href="#m64f9cf5e56" y="239.758" stroke="#000" stroke-width=".8" id="line2d_4"/><g transform="matrix(.1 0 0 -.1 233.666 254.357)" id="text_4"><defs><path d="M33.016 40.375q-6.641 0-10.532-4.547-3.875-4.531-3.875-12.437 0-7.86 3.875-12.438 3.891-4.562 10.532-4.562 6.64 0 10.515 4.562 3.875 4.578 3.875 12.438 0 7.906-3.875 12.437-3.875 4.547-10.515 4.547zm19.578 30.922v-8.984q-3.719 1.75-7.5 2.671-3.782.938-7.5.938-9.766 0-14.922-6.594-5.14-6.594-5.875-19.922 2.875 4.25 7.219 6.516 4.359 2.266 9.578 2.266 10.984 0 17.36-6.672 6.374-6.657 6.374-18.125 0-11.235-6.64-18.032-6.641-6.78-17.672-6.78-12.657 0-19.344 9.687-6.688 9.703-6.688 28.109 0 17.281 8.204 27.563 8.203 10.28 22.015 10.28 3.719 0 7.5-.734t7.89-2.187z" id="DejaVuSans-54"/></defs><use xlink:href="#DejaVuSans-48"/><use x="63.623" xlink:href="#DejaVuSans-46"/><use x="95.41" xlink:href="#DejaVuSans-54"/></g></g><g id="xtick_5"><use x="302.49" xlink:href="#m64f9cf5e56" y="239.758" stroke="#000" stroke-width=".8" id="line2d_5"/><g transform="matrix(.1 0 0 -.1 294.539 254.357)" id="text_5"><defs><path d="M31.781 34.625q-7.031 0-11.062-3.766-4.016-3.765-4.016-10.343 0-6.594 4.016-10.36Q24.75 6.391 31.78 6.391q7.032 0 11.078 3.78 4.063 3.798 4.063 10.345 0 6.578-4.031 10.343-4.016 3.766-11.11 3.766zm-9.86 4.188q-6.343 1.562-9.89 5.906Q8.5 49.079 8.5 55.329q0 8.733 6.219 13.812 6.234 5.078 17.062 5.078 10.89 0 17.094-5.078 6.203-5.079 6.203-13.813 0-6.25-3.547-10.61-3.531-4.343-9.828-5.906 7.125-1.656 11.094-6.5 3.984-4.828 3.984-11.796 0-10.61-6.468-16.282-6.47-5.656-18.532-5.656-12.047 0-18.531 5.656-6.469 5.672-6.469 16.282 0 6.968 4 11.797 4.016 4.843 11.14 6.5zM18.314 54.39q0-5.657 3.53-8.828 3.548-3.172 9.938-3.172 6.36 0 9.938 3.172 3.593 3.171 3.593 8.828 0 5.672-3.593 8.843-3.578 3.172-9.938 3.172-6.39 0-9.937-3.172-3.532-3.172-3.532-8.843z" id="DejaVuSans-56"/></defs><use xlink:href="#DejaVuSans-48"/><use x="63.623" xlink:href="#DejaVuSans-46"/><use x="95.41" xlink:href="#DejaVuSans-56"/></g></g><g id="xtick_6"><use x="363.363" xlink:href="#m64f9cf5e56" y="239.758" stroke="#000" stroke-width=".8" id="line2d_6"/><g transform="matrix(.1 0 0 -.1 355.412 254.357)" id="text_6"><defs><path d="M12.406 8.297h16.11v55.625l-17.532-3.516v8.985l17.438 3.515h9.86V8.296H54.39V0H12.406z" id="DejaVuSans-49"/></defs><use xlink:href="#DejaVuSans-49"/><use x="63.623" xlink:href="#DejaVuSans-46"/><use x="95.41" xlink:href="#DejaVuSans-48"/></g></g><g transform="matrix(.1 0 0 -.1 196.264 268.035)" id="text_7"><defs><path d="M44.39 34.188q3.172-1.079 6.172-4.594 3-3.516 6.032-9.672L66.609 0H56l-9.313 18.703q-3.624 7.328-7.015 9.719-3.39 2.39-9.25 2.39h-10.75V0h-9.86v72.906h22.266q12.5 0 18.656-5.234 6.157-5.219 6.157-15.766 0-6.89-3.203-11.437-3.204-4.532-9.297-6.282zM19.673 64.797V38.922h12.406q7.125 0 10.766 3.297 3.64 3.297 3.64 9.687 0 6.39-3.64 9.64-3.64 3.25-10.766 3.25z" id="DejaVuSans-82"/><path d="M56.203 29.594v-4.39H14.891q.593-9.282 5.593-14.142 5-4.859 13.938-4.859 5.172 0 10.031 1.266 4.86 1.265 9.656 3.812v-8.5Q49.266.734 44.187-.344 39.11-1.422 33.892-1.422q-13.094 0-20.735 7.61-7.64 7.625-7.64 20.625 0 13.421 7.25 21.296Q20.016 56 32.328 56q11.031 0 17.453-7.11 6.422-7.093 6.422-19.296zm-8.984 2.64q-.094 7.36-4.125 11.75-4.032 4.407-10.672 4.407-7.516 0-12.031-4.25-4.516-4.25-5.203-11.97z" id="DejaVuSans-101"/><path d="M48.781 52.594v-8.407q-3.812 2.11-7.64 3.157-3.828 1.047-7.735 1.047-8.75 0-13.593-5.547-4.829-5.532-4.829-15.547 0-10.016 4.829-15.563 4.843-5.53 13.593-5.53 3.907 0 7.735 1.046 3.828 1.047 7.64 3.156V2.094Q45.016.344 40.984-.531q-4.015-.89-8.562-.89-12.36 0-19.64 7.765-7.266 7.765-7.266 20.953 0 13.375 7.343 21.031Q20.22 56 33.016 56q4.14 0 8.093-.86 3.953-.843 7.672-2.546z" id="DejaVuSans-99"/><path d="M34.281 27.484q-10.89 0-15.093-2.484-4.204-2.484-4.204-8.5 0-4.781 3.157-7.594 3.156-2.797 8.562-2.797 7.485 0 12 5.297 4.516 5.297 4.516 14.078v2zm17.922 3.72V0H43.22v8.297Q40.14 3.328 35.547.953q-4.594-2.375-11.234-2.375-8.391 0-13.36 4.719Q6 8.016 6 15.922q0 9.219 6.172 13.906 6.187 4.688 18.437 4.688h12.61v.89q0 6.203-4.078 9.594-4.078 3.39-11.453 3.39-4.688 0-9.141-1.124-4.438-1.125-8.531-3.375v8.312q4.921 1.906 9.562 2.844 4.64.953 9.031.953 11.875 0 17.735-6.156 5.86-6.14 5.86-18.64z" id="DejaVuSans-97"/><path d="M9.422 75.984h8.984V0H9.422z" id="DejaVuSans-108"/></defs><use xlink:href="#DejaVuSans-82"/><use x="64.982" xlink:href="#DejaVuSans-101"/><use x="126.506" xlink:href="#DejaVuSans-99"/><use x="181.486" xlink:href="#DejaVuSans-97"/><use x="242.766" xlink:href="#DejaVuSans-108"/><use x="270.549" xlink:href="#DejaVuSans-108"/></g></g><g id="matplotlib.axis_2"><g id="ytick_1"><g id="line2d_7"><defs><path d="M0 0h-3.5" id="m33fdcc522b" stroke="#000" stroke-width=".8"/></defs><use x="43.781" xlink:href="#m33fdcc522b" y="229.874" stroke="#000" stroke-width=".8"/></g><g transform="matrix(.1 0 0 -.1 20.878 233.674)" id="text_8"><use xlink:href="#DejaVuSans-48"/><use x="63.623" xlink:href="#DejaVuSans-46"/><use x="95.41" xlink:href="#DejaVuSans-48"/></g></g><g id="ytick_2"><use x="43.781" xlink:href="#m33fdcc522b" y="190.34" stroke="#000" stroke-width=".8" id="line2d_8"/><g transform="matrix(.1 0 0 -.1 20.878 194.14)" id="text_9"><use xlink:href="#DejaVuSans-48"/><use x="63.623" xlink:href="#DejaVuSans-46"/><use x="95.41" xlink:href="#DejaVuSans-50"/></g></g><g id="ytick_3"><use x="43.781" xlink:href="#m33fdcc522b" y="150.805" stroke="#000" stroke-width=".8" id="line2d_9"/><g transform="matrix(.1 0 0 -.1 20.878 154.605)" id="text_10"><use xlink:href="#DejaVuSans-48"/><use x="63.623" xlink:href="#DejaVuSans-46"/><use x="95.41" xlink:href="#DejaVuSans-52"/></g></g><g id="ytick_4"><use x="43.781" xlink:href="#m33fdcc522b" y="111.271" stroke="#000" stroke-width=".8" id="line2d_10"/><g transform="matrix(.1 0 0 -.1 20.878 115.07)" id="text_11"><use xlink:href="#DejaVuSans-48"/><use x="63.623" xlink:href="#DejaVuSans-46"/><use x="95.41" xlink:href="#DejaVuSans-54"/></g></g><g id="ytick_5"><use x="43.781" xlink:href="#m33fdcc522b" y="71.736" stroke="#000" stroke-width=".8" id="line2d_11"/><g transform="matrix(.1 0 0 -.1 20.878 75.536)" id="text_12"><use xlink:href="#DejaVuSans-48"/><use x="63.623" xlink:href="#DejaVuSans-46"/><use x="95.41" xlink:href="#DejaVuSans-56"/></g></g><g id="ytick_6"><use x="43.781" xlink:href="#m33fdcc522b" y="32.202" stroke="#000" stroke-width=".8" id="line2d_12"/><g transform="matrix(.1 0 0 -.1 20.878 36.001)" id="text_13"><use xlink:href="#DejaVuSans-49"/><use x="63.623" xlink:href="#DejaVuSans-46"/><use x="95.41" xlink:href="#DejaVuSans-48"/></g></g><g transform="matrix(0 -.1 -.1 0 14.798 153.345)" id="text_14"><defs><path d="M19.672 64.797v-27.39h12.406q6.89 0 10.64 3.562 3.766 3.562 3.766 10.156 0 6.547-3.765 10.11-3.75 3.562-10.64 3.562zm-9.86 8.11h22.266q12.266 0 18.531-5.548 6.282-5.546 6.282-16.234 0-10.797-6.282-16.313-6.265-5.515-18.53-5.515H19.671V0h-9.86z" id="DejaVuSans-80"/><path d="M41.11 46.297q-1.516.875-3.297 1.281Q36.03 48 33.89 48q-7.625 0-11.703-4.953-4.079-4.953-4.079-14.234V0H9.08v54.688h9.03v-8.5q2.844 4.984 7.375 7.39Q30.031 56 36.531 56q.922 0 2.047-.125 1.125-.11 2.484-.36z" id="DejaVuSans-114"/><path d="M9.422 54.688h8.984V0H9.422zm0 21.296h8.984v-11.39H9.422z" id="DejaVuSans-105"/><path d="M44.281 53.078v-8.5q-3.797 1.953-7.906 2.922-4.094.984-8.5.984-6.688 0-10.031-2.047-3.344-2.046-3.344-6.156 0-3.125 2.39-4.906 2.391-1.781 9.626-3.39l3.078-.688q9.562-2.047 13.593-5.781 4.032-3.735 4.032-10.422 0-7.625-6.032-12.078-6.03-4.438-16.578-4.438-4.39 0-9.156.86Q10.688.296 5.422 2v9.281q4.984-2.594 9.812-3.89 4.829-1.282 9.579-1.282 6.343 0 9.75 2.172 3.421 2.172 3.421 6.125 0 3.656-2.468 5.61-2.453 1.953-10.813 3.765l-3.125.735q-8.344 1.75-12.062 5.39-3.704 3.64-3.704 9.985 0 7.718 5.47 11.906Q16.75 56 26.811 56q4.97 0 9.36-.734 4.406-.72 8.11-2.188z" id="DejaVuSans-115"/><path d="M30.61 48.39q-7.22 0-11.422-5.64-4.204-5.64-4.204-15.453 0-9.813 4.172-15.453 4.188-5.64 11.453-5.64 7.188 0 11.375 5.655 4.203 5.672 4.203 15.438 0 9.719-4.203 15.406-4.187 5.688-11.375 5.688zm0 7.61q11.718 0 18.406-7.625 6.703-7.61 6.703-21.078 0-13.422-6.703-21.078-6.688-7.64-18.407-7.64-11.765 0-18.437 7.64-6.656 7.656-6.656 21.078 0 13.469 6.656 21.078Q18.844 56 30.609 56z" id="DejaVuSans-111"/><path d="M54.89 33.016V0h-8.984v32.719q0 7.765-3.031 11.61-3.031 3.858-9.078 3.858-7.281 0-11.484-4.64-4.204-4.625-4.204-12.64V0H9.08v54.688h9.03v-8.5q3.235 4.937 7.594 7.374Q30.078 56 35.797 56q9.422 0 14.25-5.828 4.844-5.828 4.844-17.156z" id="DejaVuSans-110"/></defs><use xlink:href="#DejaVuSans-80"/><use x="58.553" xlink:href="#DejaVuSans-114"/><use x="97.416" xlink:href="#DejaVuSans-101"/><use x="158.939" xlink:href="#DejaVuSans-99"/><use x="213.92" xlink:href="#DejaVuSans-105"/><use x="241.703" xlink:href="#DejaVuSans-115"/><use x="293.803" xlink:href="#DejaVuSans-105"/><use x="321.586" xlink:href="#DejaVuSans-111"/><use x="382.768" xlink:href="#DejaVuSans-110"/></g></g><path clip-path="url(#p335f92265e)" d="M363.363 125.108l-11.485-39.252v-4.237l-5.743.739v-6.915l-5.743.686v-5.04l-5.742.647-5.743.67v-8.435l-5.743.577-5.743.6-5.742.62v-3.155l-5.743.596v-6.803l-5.743.505-5.742.526-5.743.548v-3.82l-5.743.5-5.743.522-5.742.547-5.743.574-5.743.603-5.742.633L58.999 32.202" fill="none" stroke="#00f" stroke-linecap="square" stroke-width="1.5" id="line2d_13"/><path clip-path="url(#p335f92265e)" d="M59 229.874h304.363" fill="none" stroke="red" stroke-dasharray="5.55,2.4" stroke-width="1.5" id="line2d_14"/><path d="M43.781 239.758V22.318" fill="none" stroke="#000" stroke-linecap="square" stroke-width=".8" id="patch_3"/><path d="M378.581 239.758V22.318" fill="none" stroke="#000" stroke-linecap="square" stroke-width=".8" id="patch_4"/><path d="M43.781 239.758h334.8" fill="none" stroke="#000" stroke-linecap="square" stroke-width=".8" id="patch_5"/><path d="M43.781 22.318h334.8" fill="none" stroke="#000" stroke-linecap="square" stroke-width=".8" id="patch_6"/><g transform="matrix(.12 0 0 -.12 32.602 16.318)" id="text_15"><defs><path d="M8.5 21.578v33.11h8.984V21.922q0-7.766 3.016-11.656 3.031-3.875 9.094-3.875 7.265 0 11.484 4.64 4.234 4.64 4.234 12.656v31h8.985V0h-8.984v8.406Q42.047 3.422 37.718 1q-4.313-2.422-10.032-2.422-9.421 0-14.312 5.86Q8.5 10.296 8.5 21.578zM31.11 56z" id="DejaVuSans-117"/><path d="M2.984 54.688H12.5L29.594 8.797l17.093 45.89h9.516L35.687 0H23.485z" id="DejaVuSans-118"/><path d="M37.11 75.984V68.5h-8.594q-4.828 0-6.72-1.953-1.874-1.953-1.874-7.031v-4.828h14.797v-6.985H19.922V0H10.89v47.703H2.297v6.984h8.594V58.5q0 9.125 4.25 13.297 4.25 4.187 13.468 4.187z" id="DejaVuSans-102"/><path d="M18.11 8.203v-29H9.077v75.484h9.031v-8.296q2.844 4.875 7.157 7.234Q29.594 56 35.594 56q9.968 0 16.187-7.906 6.235-7.907 6.235-20.797T51.78 6.484q-6.218-7.906-16.187-7.906-6 0-10.328 2.375-4.313 2.375-7.157 7.25zm30.578 19.094q0 9.906-4.079 15.547-4.078 5.64-11.203 5.64-7.14 0-11.218-5.64-4.079-5.64-4.079-15.547 0-9.906 4.078-15.547 4.079-5.64 11.22-5.64 7.124 0 11.202 5.64t4.078 15.547z" id="DejaVuSans-112"/><path d="M18.313 70.219V54.688h18.5v-6.985h-18.5V18.016q0-6.688 1.828-8.594 1.828-1.906 7.453-1.906h9.218V0h-9.218q-10.407 0-14.36 3.875-3.953 3.89-3.953 14.14v29.688H2.687v6.984h6.594V70.22z" id="DejaVuSans-116"/><path d="M48.688 27.297q0 9.906-4.079 15.547-4.078 5.64-11.203 5.64-7.14 0-11.218-5.64-4.079-5.64-4.079-15.547 0-9.906 4.078-15.547 4.079-5.64 11.22-5.64 7.124 0 11.202 5.64t4.078 15.547zM18.108 46.39q2.844 4.875 7.157 7.234Q29.594 56 35.594 56q9.968 0 16.187-7.906 6.235-7.907 6.235-20.797T51.78 6.484q-6.218-7.906-16.187-7.906-6 0-10.328 2.375-4.313 2.375-7.157 7.25V0H9.08v75.984h9.03z" id="DejaVuSans-98"/><path d="M31 75.875q-6.531-11.219-9.719-22.219-3.172-10.984-3.172-22.265 0-11.266 3.203-22.328Q24.517-2 31-13.188h-7.813Q15.875-1.704 12.235 9.375q-3.64 11.078-3.64 22.016 0 10.89 3.61 21.922 3.624 11.046 10.983 22.562z" id="DejaVuSans-40"/><path d="M11.719 12.406h10.297V0H11.719zm0 39.297h10.297v-12.39H11.719z" id="DejaVuSans-58"/><path d="M45.406 46.39v29.594h8.985V0h-8.985v8.203Q42.578 3.328 38.25.953q-4.313-2.375-10.375-2.375-9.906 0-16.14 7.906-6.22 7.922-6.22 20.813 0 12.89 6.22 20.797Q17.968 56 27.874 56q6.063 0 10.375-2.375 4.328-2.36 7.156-7.234zm-30.61-19.093q0-9.906 4.079-15.547 4.078-5.64 11.203-5.64 7.125 0 11.219 5.64 4.11 5.64 4.11 15.547 0 9.906-4.11 15.547-4.094 5.64-11.219 5.64-7.125 0-11.203-5.64-4.078-5.64-4.078-15.547z" id="DejaVuSans-100"/><path d="M8.016 75.875h7.812q7.313-11.516 10.953-22.563 3.64-11.03 3.64-21.921 0-10.938-3.64-22.016-3.64-11.078-10.953-22.563H8.016Q14.5-2 17.703 9.063q3.203 11.063 3.203 22.329 0 11.28-3.203 22.265-3.203 11-9.687 22.219z" id="DejaVuSans-41"/></defs><use xlink:href="#DejaVuSans-80"/><use x="58.553" xlink:href="#DejaVuSans-114"/><use x="97.416" xlink:href="#DejaVuSans-101"/><use x="158.939" xlink:href="#DejaVuSans-99"/><use x="213.92" xlink:href="#DejaVuSans-105"/><use x="241.703" xlink:href="#DejaVuSans-115"/><use x="293.803" xlink:href="#DejaVuSans-105"/><use x="321.586" xlink:href="#DejaVuSans-111"/><use x="382.768" xlink:href="#DejaVuSans-110"/><use x="446.146" xlink:href="#DejaVuSans-32"/><use x="477.934" xlink:href="#DejaVuSans-82"/><use x="542.916" xlink:href="#DejaVuSans-101"/><use x="604.439" xlink:href="#DejaVuSans-99"/><use x="659.42" xlink:href="#DejaVuSans-97"/><use x="720.699" xlink:href="#DejaVuSans-108"/><use x="748.482" xlink:href="#DejaVuSans-108"/><use x="776.266" xlink:href="#DejaVuSans-32"/><use x="808.053" xlink:href="#DejaVuSans-99"/><use x="863.033" xlink:href="#DejaVuSans-117"/><use x="926.412" xlink:href="#DejaVuSans-114"/><use x="967.525" xlink:href="#DejaVuSans-118"/><use x="1026.705" xlink:href="#DejaVuSans-101"/><use x="1088.229" xlink:href="#DejaVuSans-32"/><use x="1120.016" xlink:href="#DejaVuSans-102"/><use x="1155.221" xlink:href="#DejaVuSans-111"/><use x="1216.402" xlink:href="#DejaVuSans-114"/><use x="1257.516" xlink:href="#DejaVuSans-32"/><use x="1289.303" xlink:href="#DejaVuSans-112"/><use x="1352.779" xlink:href="#DejaVuSans-111"/><use x="1413.961" xlink:href="#DejaVuSans-115"/><use x="1466.061" xlink:href="#DejaVuSans-105"/><use x="1493.844" xlink:href="#DejaVuSans-116"/><use x="1533.053" xlink:href="#DejaVuSans-105"/><use x="1560.836" xlink:href="#DejaVuSans-118"/><use x="1620.016" xlink:href="#DejaVuSans-101"/><use x="1681.539" xlink:href="#DejaVuSans-32"/><use x="1713.326" xlink:href="#DejaVuSans-108"/><use x="1741.109" xlink:href="#DejaVuSans-97"/><use x="1802.389" xlink:href="#DejaVuSans-98"/><use x="1865.865" xlink:href="#DejaVuSans-101"/><use x="1927.389" xlink:href="#DejaVuSans-108"/><use x="1955.172" xlink:href="#DejaVuSans-32"/><use x="1986.959" xlink:href="#DejaVuSans-40"/><use x="2025.973" xlink:href="#DejaVuSans-49"/><use x="2089.596" xlink:href="#DejaVuSans-58"/><use x="2123.287" xlink:href="#DejaVuSans-32"/><use x="2155.074" xlink:href="#DejaVuSans-115"/><use x="2207.174" xlink:href="#DejaVuSans-117"/><use x="2270.553" xlink:href="#DejaVuSans-112"/><use x="2334.029" xlink:href="#DejaVuSans-101"/><use x="2395.553" xlink:href="#DejaVuSans-114"/><use x="2434.416" xlink:href="#DejaVuSans-99"/><use x="2489.396" xlink:href="#DejaVuSans-111"/><use x="2550.578" xlink:href="#DejaVuSans-110"/><use x="2613.957" xlink:href="#DejaVuSans-100"/><use x="2677.434" xlink:href="#DejaVuSans-117"/><use x="2740.813" xlink:href="#DejaVuSans-99"/><use x="2795.793" xlink:href="#DejaVuSans-116"/><use x="2835.002" xlink:href="#DejaVuSans-111"/><use x="2896.184" xlink:href="#DejaVuSans-114"/><use x="2937.297" xlink:href="#DejaVuSans-41"/></g><g id="legend_1"><path d="M50.781 234.758h114.11q2 0 2-2v-28.356q0-2-2-2H50.78q-2 0-2 2v28.356q0 2 2 2z" fill="#fff" opacity=".8" stroke="#ccc" id="patch_7"/><path d="M52.781 210.5h20" fill="none" stroke="#00f" stroke-linecap="square" stroke-width="1.5" id="line2d_15"/><g transform="matrix(.1 0 0 -.1 80.781 214)" id="text_16"><defs><path d="M10.594 45.406h62.593v-8.203H10.594zm0-19.922h62.593v-8.297H10.594z" id="DejaVuSans-61"/><path d="M40.578 39.313Q47.656 37.797 51.625 33q3.984-4.781 3.984-11.813 0-10.78-7.422-16.703-7.421-5.906-21.093-5.906-4.578 0-9.438.906-4.86.907-10.031 2.72v9.515q4.094-2.39 8.969-3.61 4.89-1.218 10.218-1.218 9.266 0 14.125 3.656 4.86 3.656 4.86 10.64 0 6.454-4.516 10.079-4.515 3.64-12.562 3.64h-8.5v8.11h8.89q7.266 0 11.125 2.906 3.86 2.906 3.86 8.375 0 5.61-3.985 8.61-3.968 3.015-11.39 3.015-4.063 0-8.703-.89-4.641-.876-10.203-2.72v8.782q5.624 1.562 10.53 2.344 4.907.78 9.25.78 11.235 0 17.766-5.109 6.547-5.093 6.547-13.78 0-6.063-3.468-10.235-3.47-4.172-9.86-5.782z" id="DejaVuSans-51"/></defs><use xlink:href="#DejaVuSans-112"/><use x="63.477" xlink:href="#DejaVuSans-114"/><use x="102.34" xlink:href="#DejaVuSans-101"/><use x="163.863" xlink:href="#DejaVuSans-99"/><use x="218.844" xlink:href="#DejaVuSans-105"/><use x="246.627" xlink:href="#DejaVuSans-115"/><use x="298.727" xlink:href="#DejaVuSans-105"/><use x="326.51" xlink:href="#DejaVuSans-111"/><use x="387.691" xlink:href="#DejaVuSans-110"/><use x="451.07" xlink:href="#DejaVuSans-32"/><use x="482.857" xlink:href="#DejaVuSans-61"/><use x="566.646" xlink:href="#DejaVuSans-32"/><use x="598.434" xlink:href="#DejaVuSans-48"/><use x="662.057" xlink:href="#DejaVuSans-46"/><use x="693.844" xlink:href="#DejaVuSans-56"/><use x="757.467" xlink:href="#DejaVuSans-51"/></g><path d="M52.781 225.178h20" fill="none" stroke="red" stroke-dasharray="5.55,2.4" stroke-width="1.5" id="line2d_17"/><g transform="matrix(.1 0 0 -.1 80.781 228.678)" id="text_17"><defs><path d="M52 44.188q3.375 6.062 8.063 8.937Q64.75 56 71.093 56q8.548 0 13.188-5.984 4.64-5.97 4.64-17V0h-9.03v32.719q0 7.86-2.797 11.656-2.781 3.813-8.485 3.813-6.984 0-11.046-4.641-4.047-4.625-4.047-12.64V0h-9.032v32.719q0 7.906-2.78 11.687-2.782 3.782-8.595 3.782-6.89 0-10.953-4.657-4.047-4.656-4.047-12.625V0H9.08v54.688h9.03v-8.5q3.078 5.03 7.375 7.421Q29.781 56 35.687 56q5.97 0 10.141-3.031Q50 49.953 52 44.187z" id="DejaVuSans-109"/></defs><use xlink:href="#DejaVuSans-114"/><use x="41.113" xlink:href="#DejaVuSans-97"/><use x="102.393" xlink:href="#DejaVuSans-110"/><use x="165.771" xlink:href="#DejaVuSans-100"/><use x="229.248" xlink:href="#DejaVuSans-111"/><use x="290.43" xlink:href="#DejaVuSans-109"/></g></g></g></g><defs><clipPath id="p335f92265e"><path d="M43.781 22.318h334.8v217.44h-334.8z"/></clipPath></defs></svg>