<?xml version="1.0" encoding="utf-8" standalone="no"?>
<!DOCTYPE svg PUBLIC "-//W3C//DTD SVG 1.1//EN"
  "http://www.w3.org/Graphics/SVG/1.1/DTD/svg11.dtd">
<!-- Created with matplotlib (https://matplotlib.org/) -->
<svg height="568.8pt" version="1.1" viewBox="0 0 1018.8 568.8" width="1018.8pt" xmlns="http://www.w3.org/2000/svg" xmlns:xlink="http://www.w3.org/1999/xlink">
 <defs>
  <style type="text/css">
*{stroke-linecap:butt;stroke-linejoin:round;}
  </style>
 </defs>
 <g id="figure_1">
  <g id="patch_1">
   <path d="M 0 568.8 
L 1018.8 568.8 
L 1018.8 0 
L 0 0 
z
" style="fill:#ffffff;"/>
  </g>
  <g id="axes_1">
   <g id="patch_2">
    <path clip-path="url(#p2215462958)" d="M 951.060822 66.696585 
L 1000.592877 66.696585 
L 1000.592877 18.017561 
L 951.060822 18.017561 
z
" style="fill:#fbfdce;stroke:#808080;stroke-linejoin:miter;"/>
   </g>
   <g id="patch_3">
    <path clip-path="url(#p2215462958)" d="M 951.060822 120.78439 
L 1000.592877 120.78439 
L 1000.592877 72.105366 
L 951.060822 72.105366 
z
" style="fill:#feffdf;stroke:#808080;stroke-linejoin:miter;"/>
   </g>
   <g id="patch_4">
    <path clip-path="url(#p2215462958)" d="M 951.060822 174.872195 
L 1000.592877 174.872195 
L 1000.592877 126.193171 
L 951.060822 126.193171 
z
" style="fill:#fdfeda;stroke:#808080;stroke-linejoin:miter;"/>
   </g>
   <g id="patch_5">
    <path clip-path="url(#p2215462958)" d="M 951.060822 228.96 
L 1000.592877 228.96 
L 1000.592877 180.280976 
L 951.060822 180.280976 
z
" style="fill:#f9fdc7;stroke:#808080;stroke-linejoin:miter;"/>
   </g>
   <g id="patch_6">
    <path clip-path="url(#p2215462958)" d="M 951.060822 283.047805 
L 1000.592877 283.047805 
L 1000.592877 234.36878 
L 951.060822 234.36878 
z
" style="fill:#f4fbb7;stroke:#808080;stroke-linejoin:miter;"/>
   </g>
   <g id="patch_7">
    <path clip-path="url(#p2215462958)" d="M 400.704658 472.355122 
L 450.236712 472.355122 
L 450.236712 423.676098 
L 400.704658 423.676098 
z
" style="fill:#fcfed3;stroke:#808080;stroke-linejoin:miter;"/>
   </g>
   <g id="patch_8">
    <path clip-path="url(#p2215462958)" d="M 840.989589 337.13561 
L 890.521644 337.13561 
L 890.521644 288.456585 
L 840.989589 288.456585 
z
" style="fill:#c0c0c0;stroke:#808080;stroke-linejoin:miter;"/>
   </g>
   <g id="patch_9">
    <path clip-path="url(#p2215462958)" d="M 896.025205 337.13561 
L 945.55726 337.13561 
L 945.55726 288.456585 
L 896.025205 288.456585 
z
" style="fill:#c0c0c0;stroke:#808080;stroke-linejoin:miter;"/>
   </g>
   <g id="patch_10">
    <path clip-path="url(#p2215462958)" d="M 951.060822 337.13561 
L 1000.592877 337.13561 
L 1000.592877 288.456585 
L 951.060822 288.456585 
z
" style="fill:#c0c0c0;stroke:#808080;stroke-linejoin:miter;"/>
   </g>
   <g id="patch_11">
    <path clip-path="url(#p2215462958)" d="M 15.455342 391.223415 
L 64.987397 391.223415 
L 64.987397 342.54439 
L 15.455342 342.54439 
z
" style="fill:#c0c0c0;stroke:#808080;stroke-linejoin:miter;"/>
   </g>
   <g id="patch_12">
    <path clip-path="url(#p2215462958)" d="M 70.490959 391.223415 
L 120.023014 391.223415 
L 120.023014 342.54439 
L 70.490959 342.54439 
z
" style="fill:#c0c0c0;stroke:#808080;stroke-linejoin:miter;"/>
   </g>
   <g id="patch_13">
    <path clip-path="url(#p2215462958)" d="M 180.562192 526.442927 
L 230.094247 526.442927 
L 230.094247 477.763902 
L 180.562192 477.763902 
z
" style="fill:#fbfdce;stroke:#808080;stroke-linejoin:miter;"/>
   </g>
   <g id="patch_14">
    <path clip-path="url(#p2215462958)" d="M 290.633425 526.442927 
L 340.165479 526.442927 
L 340.165479 477.763902 
L 290.633425 477.763902 
z
" style="fill:#fcfed3;stroke:#808080;stroke-linejoin:miter;"/>
   </g>
   <g id="patch_15">
    <path clip-path="url(#p2215462958)" d="M 400.704658 526.442927 
L 450.236712 526.442927 
L 450.236712 477.763902 
L 400.704658 477.763902 
z
" style="fill:#fcfed3;stroke:#808080;stroke-linejoin:miter;"/>
   </g>
   <g id="patch_16">
    <path clip-path="url(#p2215462958)" d="M 455.740274 526.442927 
L 505.272329 526.442927 
L 505.272329 477.763902 
L 455.740274 477.763902 
z
" style="fill:#f7fcbc;stroke:#808080;stroke-linejoin:miter;"/>
   </g>
   <g id="patch_17">
    <path clip-path="url(#p2215462958)" d="M 510.77589 526.442927 
L 560.307945 526.442927 
L 560.307945 477.763902 
L 510.77589 477.763902 
z
" style="fill:#c0c0c0;stroke:#808080;stroke-linejoin:miter;"/>
   </g>
   <g id="patch_18">
    <path clip-path="url(#p2215462958)" d="M 565.811507 526.442927 
L 615.343562 526.442927 
L 615.343562 477.763902 
L 565.811507 477.763902 
z
" style="fill:#c0c0c0;stroke:#808080;stroke-linejoin:miter;"/>
   </g>
   <g id="patch_19">
    <path clip-path="url(#p2215462958)" d="M 620.847123 526.442927 
L 670.379178 526.442927 
L 670.379178 477.763902 
L 620.847123 477.763902 
z
" style="fill:#c0c0c0;stroke:#808080;stroke-linejoin:miter;"/>
   </g>
   <g id="patch_20">
    <path clip-path="url(#p2215462958)" d="M 675.88274 526.442927 
L 725.414795 526.442927 
L 725.414795 477.763902 
L 675.88274 477.763902 
z
" style="fill:#c0c0c0;stroke:#808080;stroke-linejoin:miter;"/>
   </g>
   <g id="patch_21">
    <path clip-path="url(#p2215462958)" d="M 730.918356 526.442927 
L 780.450411 526.442927 
L 780.450411 477.763902 
L 730.918356 477.763902 
z
" style="fill:#c0c0c0;stroke:#808080;stroke-linejoin:miter;"/>
   </g>
   <g id="patch_22">
    <path clip-path="url(#p2215462958)" d="M 785.953973 526.442927 
L 835.486027 526.442927 
L 835.486027 477.763902 
L 785.953973 477.763902 
z
" style="fill:#c0c0c0;stroke:#808080;stroke-linejoin:miter;"/>
   </g>
   <g id="patch_23">
    <path clip-path="url(#p2215462958)" d="M 840.989589 526.442927 
L 890.521644 526.442927 
L 890.521644 477.763902 
L 840.989589 477.763902 
z
" style="fill:#c0c0c0;stroke:#808080;stroke-linejoin:miter;"/>
   </g>
   <g id="patch_24">
    <path clip-path="url(#p2215462958)" d="M 896.025205 526.442927 
L 945.55726 526.442927 
L 945.55726 477.763902 
L 896.025205 477.763902 
z
" style="fill:#c0c0c0;stroke:#808080;stroke-linejoin:miter;"/>
   </g>
   <g id="patch_25">
    <path clip-path="url(#p2215462958)" d="M 951.060822 526.442927 
L 1000.592877 526.442927 
L 1000.592877 477.763902 
L 951.060822 477.763902 
z
" style="fill:#c0c0c0;stroke:#808080;stroke-linejoin:miter;"/>
   </g>
   <g id="patch_26">
    <path clip-path="url(#p2215462958)" d="M 180.562192 391.223415 
L 230.094247 391.223415 
L 230.094247 342.54439 
L 180.562192 342.54439 
z
" style="fill:#c0c0c0;stroke:#808080;stroke-linejoin:miter;"/>
   </g>
   <g id="patch_27">
    <path clip-path="url(#p2215462958)" d="M 235.597808 391.223415 
L 285.129863 391.223415 
L 285.129863 342.54439 
L 235.597808 342.54439 
z
" style="fill:#c0c0c0;stroke:#808080;stroke-linejoin:miter;"/>
   </g>
   <g id="patch_28">
    <path clip-path="url(#p2215462958)" d="M 290.633425 391.223415 
L 340.165479 391.223415 
L 340.165479 342.54439 
L 290.633425 342.54439 
z
" style="fill:#c0c0c0;stroke:#808080;stroke-linejoin:miter;"/>
   </g>
   <g id="patch_29">
    <path clip-path="url(#p2215462958)" d="M 345.669041 391.223415 
L 395.201096 391.223415 
L 395.201096 342.54439 
L 345.669041 342.54439 
z
" style="fill:#c0c0c0;stroke:#808080;stroke-linejoin:miter;"/>
   </g>
   <g id="patch_30">
    <path clip-path="url(#p2215462958)" d="M 400.704658 391.223415 
L 450.236712 391.223415 
L 450.236712 342.54439 
L 400.704658 342.54439 
z
" style="fill:#c0c0c0;stroke:#808080;stroke-linejoin:miter;"/>
   </g>
   <g id="patch_31">
    <path clip-path="url(#p2215462958)" d="M 455.740274 391.223415 
L 505.272329 391.223415 
L 505.272329 342.54439 
L 455.740274 342.54439 
z
" style="fill:#c0c0c0;stroke:#808080;stroke-linejoin:miter;"/>
   </g>
   <g id="patch_32">
    <path clip-path="url(#p2215462958)" d="M 510.77589 391.223415 
L 560.307945 391.223415 
L 560.307945 342.54439 
L 510.77589 342.54439 
z
" style="fill:#c0c0c0;stroke:#808080;stroke-linejoin:miter;"/>
   </g>
   <g id="patch_33">
    <path clip-path="url(#p2215462958)" d="M 565.811507 391.223415 
L 615.343562 391.223415 
L 615.343562 342.54439 
L 565.811507 342.54439 
z
" style="fill:#c0c0c0;stroke:#808080;stroke-linejoin:miter;"/>
   </g>
   <g id="patch_34">
    <path clip-path="url(#p2215462958)" d="M 620.847123 391.223415 
L 670.379178 391.223415 
L 670.379178 342.54439 
L 620.847123 342.54439 
z
" style="fill:#c0c0c0;stroke:#808080;stroke-linejoin:miter;"/>
   </g>
   <g id="patch_35">
    <path clip-path="url(#p2215462958)" d="M 675.88274 391.223415 
L 725.414795 391.223415 
L 725.414795 342.54439 
L 675.88274 342.54439 
z
" style="fill:#c0c0c0;stroke:#808080;stroke-linejoin:miter;"/>
   </g>
   <g id="patch_36">
    <path clip-path="url(#p2215462958)" d="M 730.918356 391.223415 
L 780.450411 391.223415 
L 780.450411 342.54439 
L 730.918356 342.54439 
z
" style="fill:#c0c0c0;stroke:#808080;stroke-linejoin:miter;"/>
   </g>
   <g id="patch_37">
    <path clip-path="url(#p2215462958)" d="M 785.953973 391.223415 
L 835.486027 391.223415 
L 835.486027 342.54439 
L 785.953973 342.54439 
z
" style="fill:#c0c0c0;stroke:#808080;stroke-linejoin:miter;"/>
   </g>
   <g id="patch_38">
    <path clip-path="url(#p2215462958)" d="M 840.989589 391.223415 
L 890.521644 391.223415 
L 890.521644 342.54439 
L 840.989589 342.54439 
z
" style="fill:#c0c0c0;stroke:#808080;stroke-linejoin:miter;"/>
   </g>
   <g id="patch_39">
    <path clip-path="url(#p2215462958)" d="M 896.025205 391.223415 
L 945.55726 391.223415 
L 945.55726 342.54439 
L 896.025205 342.54439 
z
" style="fill:#c0c0c0;stroke:#808080;stroke-linejoin:miter;"/>
   </g>
   <g id="patch_40">
    <path clip-path="url(#p2215462958)" d="M 951.060822 391.223415 
L 1000.592877 391.223415 
L 1000.592877 342.54439 
L 951.060822 342.54439 
z
" style="fill:#c0c0c0;stroke:#808080;stroke-linejoin:miter;"/>
   </g>
   <g id="patch_41">
    <path clip-path="url(#p2215462958)" d="M 345.669041 283.047805 
L 395.201096 283.047805 
L 395.201096 234.36878 
L 345.669041 234.36878 
z
" style="fill:#fcfed3;stroke:#808080;stroke-linejoin:miter;"/>
   </g>
   <g id="patch_42">
    <path clip-path="url(#p2215462958)" d="M 840.989589 472.355122 
L 890.521644 472.355122 
L 890.521644 423.676098 
L 840.989589 423.676098 
z
" style="fill:#f9fdc7;stroke:#808080;stroke-linejoin:miter;"/>
   </g>
   <g id="patch_43">
    <path clip-path="url(#p2215462958)" d="M 345.669041 337.13561 
L 395.201096 337.13561 
L 395.201096 288.456585 
L 345.669041 288.456585 
z
" style="fill:#fbfdce;stroke:#808080;stroke-linejoin:miter;"/>
   </g>
   <g id="patch_44">
    <path clip-path="url(#p2215462958)" d="M 70.490959 120.78439 
L 120.023014 120.78439 
L 120.023014 72.105366 
L 70.490959 72.105366 
z
" style="fill:#fcfed3;stroke:#808080;stroke-linejoin:miter;"/>
   </g>
   <g id="patch_45">
    <path clip-path="url(#p2215462958)" d="M 345.669041 526.442927 
L 395.201096 526.442927 
L 395.201096 477.763902 
L 345.669041 477.763902 
z
" style="fill:#f4fbb7;stroke:#808080;stroke-linejoin:miter;"/>
   </g>
   <g id="patch_46">
    <path clip-path="url(#p2215462958)" d="M 180.562192 337.13561 
L 230.094247 337.13561 
L 230.094247 288.456585 
L 180.562192 288.456585 
z
" style="fill:#fbfdce;stroke:#808080;stroke-linejoin:miter;"/>
   </g>
   <g id="patch_47">
    <path clip-path="url(#p2215462958)" d="M 455.740274 283.047805 
L 505.272329 283.047805 
L 505.272329 234.36878 
L 455.740274 234.36878 
z
" style="fill:#fdfeda;stroke:#808080;stroke-linejoin:miter;"/>
   </g>
   <g id="patch_48">
    <path clip-path="url(#p2215462958)" d="M 565.811507 337.13561 
L 615.343562 337.13561 
L 615.343562 288.456585 
L 565.811507 288.456585 
z
" style="fill:#fdfeda;stroke:#808080;stroke-linejoin:miter;"/>
   </g>
   <g id="patch_49">
    <path clip-path="url(#p2215462958)" d="M 400.704658 337.13561 
L 450.236712 337.13561 
L 450.236712 288.456585 
L 400.704658 288.456585 
z
" style="fill:#fdfeda;stroke:#808080;stroke-linejoin:miter;"/>
   </g>
   <g id="patch_50">
    <path clip-path="url(#p2215462958)" d="M 730.918356 472.355122 
L 780.450411 472.355122 
L 780.450411 423.676098 
L 730.918356 423.676098 
z
" style="fill:#f9fdc7;stroke:#808080;stroke-linejoin:miter;"/>
   </g>
   <g id="patch_51">
    <path clip-path="url(#p2215462958)" d="M 455.740274 337.13561 
L 505.272329 337.13561 
L 505.272329 288.456585 
L 455.740274 288.456585 
z
" style="fill:#fdfeda;stroke:#808080;stroke-linejoin:miter;"/>
   </g>
   <g id="patch_52">
    <path clip-path="url(#p2215462958)" d="M 510.77589 228.96 
L 560.307945 228.96 
L 560.307945 180.280976 
L 510.77589 180.280976 
z
" style="fill:#f9fdc7;stroke:#808080;stroke-linejoin:miter;"/>
   </g>
   <g id="patch_53">
    <path clip-path="url(#p2215462958)" d="M 400.704658 283.047805 
L 450.236712 283.047805 
L 450.236712 234.36878 
L 400.704658 234.36878 
z
" style="fill:#fdfeda;stroke:#808080;stroke-linejoin:miter;"/>
   </g>
   <g id="patch_54">
    <path clip-path="url(#p2215462958)" d="M 290.633425 337.13561 
L 340.165479 337.13561 
L 340.165479 288.456585 
L 290.633425 288.456585 
z
" style="fill:#f9fdc7;stroke:#808080;stroke-linejoin:miter;"/>
   </g>
   <g id="patch_55">
    <path clip-path="url(#p2215462958)" d="M 235.597808 526.442927 
L 285.129863 526.442927 
L 285.129863 477.763902 
L 235.597808 477.763902 
z
" style="fill:#fdfeda;stroke:#808080;stroke-linejoin:miter;"/>
   </g>
   <g id="patch_56">
    <path clip-path="url(#p2215462958)" d="M 510.77589 337.13561 
L 560.307945 337.13561 
L 560.307945 288.456585 
L 510.77589 288.456585 
z
" style="fill:#feffdf;stroke:#808080;stroke-linejoin:miter;"/>
   </g>
   <g id="patch_57">
    <path clip-path="url(#p2215462958)" d="M 620.847123 472.355122 
L 670.379178 472.355122 
L 670.379178 423.676098 
L 620.847123 423.676098 
z
" style="fill:#f9fdc7;stroke:#808080;stroke-linejoin:miter;"/>
   </g>
   <g id="patch_58">
    <path clip-path="url(#p2215462958)" d="M 951.060822 472.355122 
L 1000.592877 472.355122 
L 1000.592877 423.676098 
L 951.060822 423.676098 
z
" style="fill:#fcfed3;stroke:#808080;stroke-linejoin:miter;"/>
   </g>
   <g id="patch_59">
    <path clip-path="url(#p2215462958)" d="M 455.740274 228.96 
L 505.272329 228.96 
L 505.272329 180.280976 
L 455.740274 180.280976 
z
" style="fill:#f7fcbc;stroke:#808080;stroke-linejoin:miter;"/>
   </g>
   <g id="patch_60">
    <path clip-path="url(#p2215462958)" d="M 785.953973 472.355122 
L 835.486027 472.355122 
L 835.486027 423.676098 
L 785.953973 423.676098 
z
" style="fill:#f9fdc7;stroke:#808080;stroke-linejoin:miter;"/>
   </g>
   <g id="patch_61">
    <path clip-path="url(#p2215462958)" d="M 510.77589 283.047805 
L 560.307945 283.047805 
L 560.307945 234.36878 
L 510.77589 234.36878 
z
" style="fill:#fdfeda;stroke:#808080;stroke-linejoin:miter;"/>
   </g>
   <g id="patch_62">
    <path clip-path="url(#p2215462958)" d="M 290.633425 228.96 
L 340.165479 228.96 
L 340.165479 180.280976 
L 290.633425 180.280976 
z
" style="fill:#f9fdc7;stroke:#808080;stroke-linejoin:miter;"/>
   </g>
   <g id="patch_63">
    <path clip-path="url(#p2215462958)" d="M 180.562192 283.047805 
L 230.094247 283.047805 
L 230.094247 234.36878 
L 180.562192 234.36878 
z
" style="fill:#f8fdc1;stroke:#808080;stroke-linejoin:miter;"/>
   </g>
   <g id="patch_64">
    <path clip-path="url(#p2215462958)" d="M 675.88274 472.355122 
L 725.414795 472.355122 
L 725.414795 423.676098 
L 675.88274 423.676098 
z
" style="fill:#f9fdc7;stroke:#808080;stroke-linejoin:miter;"/>
   </g>
   <g id="patch_65">
    <path clip-path="url(#p2215462958)" d="M 345.669041 472.355122 
L 395.201096 472.355122 
L 395.201096 423.676098 
L 345.669041 423.676098 
z
" style="fill:#fbfdce;stroke:#808080;stroke-linejoin:miter;"/>
   </g>
   <g id="patch_66">
    <path clip-path="url(#p2215462958)" d="M 125.526575 228.96 
L 175.05863 228.96 
L 175.05863 180.280976 
L 125.526575 180.280976 
z
" style="fill:#f0f9b4;stroke:#808080;stroke-linejoin:miter;"/>
   </g>
   <g id="patch_67">
    <path clip-path="url(#p2215462958)" d="M 290.633425 472.355122 
L 340.165479 472.355122 
L 340.165479 423.676098 
L 290.633425 423.676098 
z
" style="fill:#ecf7b1;stroke:#808080;stroke-linejoin:miter;"/>
   </g>
   <g id="patch_68">
    <path clip-path="url(#p2215462958)" d="M 70.490959 174.872195 
L 120.023014 174.872195 
L 120.023014 126.193171 
L 70.490959 126.193171 
z
" style="fill:#f4fbb7;stroke:#808080;stroke-linejoin:miter;"/>
   </g>
   <g id="patch_69">
    <path clip-path="url(#p2215462958)" d="M 896.025205 472.355122 
L 945.55726 472.355122 
L 945.55726 423.676098 
L 896.025205 423.676098 
z
" style="fill:#f9fdc7;stroke:#808080;stroke-linejoin:miter;"/>
   </g>
   <g id="patch_70">
    <path clip-path="url(#p2215462958)" d="M 400.704658 228.96 
L 450.236712 228.96 
L 450.236712 180.280976 
L 400.704658 180.280976 
z
" style="fill:#ecf7b1;stroke:#808080;stroke-linejoin:miter;"/>
   </g>
   <g id="patch_71">
    <path clip-path="url(#p2215462958)" d="M 235.597808 472.355122 
L 285.129863 472.355122 
L 285.129863 423.676098 
L 235.597808 423.676098 
z
" style="fill:#f8fdc1;stroke:#808080;stroke-linejoin:miter;"/>
   </g>
   <g id="patch_72">
    <path clip-path="url(#p2215462958)" d="M 180.562192 228.96 
L 230.094247 228.96 
L 230.094247 180.280976 
L 180.562192 180.280976 
z
" style="fill:#f0f9b4;stroke:#808080;stroke-linejoin:miter;"/>
   </g>
   <g id="patch_73">
    <path clip-path="url(#p2215462958)" d="M 70.490959 228.96 
L 120.023014 228.96 
L 120.023014 180.280976 
L 70.490959 180.280976 
z
" style="fill:#e8f6ae;stroke:#808080;stroke-linejoin:miter;"/>
   </g>
   <g id="patch_74">
    <path clip-path="url(#p2215462958)" d="M 345.669041 228.96 
L 395.201096 228.96 
L 395.201096 180.280976 
L 345.669041 180.280976 
z
" style="fill:#f9fdc7;stroke:#808080;stroke-linejoin:miter;"/>
   </g>
   <g id="patch_75">
    <path clip-path="url(#p2215462958)" d="M 290.633425 283.047805 
L 340.165479 283.047805 
L 340.165479 234.36878 
L 290.633425 234.36878 
z
" style="fill:#fbfdce;stroke:#808080;stroke-linejoin:miter;"/>
   </g>
   <g id="patch_76">
    <path clip-path="url(#p2215462958)" d="M 565.811507 472.355122 
L 615.343562 472.355122 
L 615.343562 423.676098 
L 565.811507 423.676098 
z
" style="fill:#f9fdc7;stroke:#808080;stroke-linejoin:miter;"/>
   </g>
   <g id="patch_77">
    <path clip-path="url(#p2215462958)" d="M 235.597808 283.047805 
L 285.129863 283.047805 
L 285.129863 234.36878 
L 235.597808 234.36878 
z
" style="fill:#fcfed3;stroke:#808080;stroke-linejoin:miter;"/>
   </g>
   <g id="patch_78">
    <path clip-path="url(#p2215462958)" d="M 70.490959 283.047805 
L 120.023014 283.047805 
L 120.023014 234.36878 
L 70.490959 234.36878 
z
" style="fill:#e8f6ae;stroke:#808080;stroke-linejoin:miter;"/>
   </g>
   <g id="patch_79">
    <path clip-path="url(#p2215462958)" d="M 455.740274 472.355122 
L 505.272329 472.355122 
L 505.272329 423.676098 
L 455.740274 423.676098 
z
" style="fill:#fbfdce;stroke:#808080;stroke-linejoin:miter;"/>
   </g>
   <g id="patch_80">
    <path clip-path="url(#p2215462958)" d="M 235.597808 228.96 
L 285.129863 228.96 
L 285.129863 180.280976 
L 235.597808 180.280976 
z
" style="fill:#fdfeda;stroke:#808080;stroke-linejoin:miter;"/>
   </g>
   <g id="patch_81">
    <path clip-path="url(#p2215462958)" d="M 896.025205 228.96 
L 945.55726 228.96 
L 945.55726 180.280976 
L 896.025205 180.280976 
z
" style="fill:#f7fcbc;stroke:#808080;stroke-linejoin:miter;"/>
   </g>
   <g id="patch_82">
    <path clip-path="url(#p2215462958)" d="M 235.597808 337.13561 
L 285.129863 337.13561 
L 285.129863 288.456585 
L 235.597808 288.456585 
z
" style="fill:#f4fbb7;stroke:#808080;stroke-linejoin:miter;"/>
   </g>
   <g id="patch_83">
    <path clip-path="url(#p2215462958)" d="M 510.77589 472.355122 
L 560.307945 472.355122 
L 560.307945 423.676098 
L 510.77589 423.676098 
z
" style="fill:#f8fdc1;stroke:#808080;stroke-linejoin:miter;"/>
   </g>
   <g id="patch_84">
    <path clip-path="url(#p2215462958)" d="M 675.88274 174.872195 
L 725.414795 174.872195 
L 725.414795 126.193171 
L 675.88274 126.193171 
z
" style="fill:#f0f9b4;stroke:#808080;stroke-linejoin:miter;"/>
   </g>
   <g id="patch_85">
    <path clip-path="url(#p2215462958)" d="M 125.526575 283.047805 
L 175.05863 283.047805 
L 175.05863 234.36878 
L 125.526575 234.36878 
z
" style="fill:#fbfdce;stroke:#808080;stroke-linejoin:miter;"/>
   </g>
   <g id="patch_86">
    <path clip-path="url(#p2215462958)" d="M 896.025205 174.872195 
L 945.55726 174.872195 
L 945.55726 126.193171 
L 896.025205 126.193171 
z
" style="fill:#f8fdc1;stroke:#808080;stroke-linejoin:miter;"/>
   </g>
   <g id="patch_87">
    <path clip-path="url(#p2215462958)" d="M 896.025205 120.78439 
L 945.55726 120.78439 
L 945.55726 72.105366 
L 896.025205 72.105366 
z
" style="fill:#ecf7b1;stroke:#808080;stroke-linejoin:miter;"/>
   </g>
   <g id="patch_88">
    <path clip-path="url(#p2215462958)" d="M 180.562192 472.355122 
L 230.094247 472.355122 
L 230.094247 423.676098 
L 180.562192 423.676098 
z
" style="fill:#fcfed3;stroke:#808080;stroke-linejoin:miter;"/>
   </g>
   <g id="patch_89">
    <path clip-path="url(#p2215462958)" d="M 675.88274 337.13561 
L 725.414795 337.13561 
L 725.414795 288.456585 
L 675.88274 288.456585 
z
" style="fill:#f8fdc1;stroke:#808080;stroke-linejoin:miter;"/>
   </g>
   <g id="patch_90">
    <path clip-path="url(#p2215462958)" d="M 730.918356 174.872195 
L 780.450411 174.872195 
L 780.450411 126.193171 
L 730.918356 126.193171 
z
" style="fill:#359c53;stroke:#808080;stroke-linejoin:miter;"/>
   </g>
   <g id="patch_91">
    <path clip-path="url(#p2215462958)" d="M 15.455342 120.78439 
L 64.987397 120.78439 
L 64.987397 72.105366 
L 15.455342 72.105366 
z
" style="fill:#f4fbb7;stroke:#808080;stroke-linejoin:miter;"/>
   </g>
   <g id="patch_92">
    <path clip-path="url(#p2215462958)" d="M 15.455342 174.872195 
L 64.987397 174.872195 
L 64.987397 126.193171 
L 15.455342 126.193171 
z
" style="fill:#dff3a8;stroke:#808080;stroke-linejoin:miter;"/>
   </g>
   <g id="patch_93">
    <path clip-path="url(#p2215462958)" d="M 15.455342 283.047805 
L 64.987397 283.047805 
L 64.987397 234.36878 
L 15.455342 234.36878 
z
" style="fill:#b8e293;stroke:#808080;stroke-linejoin:miter;"/>
   </g>
   <g id="patch_94">
    <path clip-path="url(#p2215462958)" d="M 620.847123 337.13561 
L 670.379178 337.13561 
L 670.379178 288.456585 
L 620.847123 288.456585 
z
" style="fill:#b8e293;stroke:#808080;stroke-linejoin:miter;"/>
   </g>
   <g id="patch_95">
    <path clip-path="url(#p2215462958)" d="M 565.811507 283.047805 
L 615.343562 283.047805 
L 615.343562 234.36878 
L 565.811507 234.36878 
z
" style="fill:#fbfdce;stroke:#808080;stroke-linejoin:miter;"/>
   </g>
   <g id="patch_96">
    <path clip-path="url(#p2215462958)" d="M 620.847123 228.96 
L 670.379178 228.96 
L 670.379178 180.280976 
L 620.847123 180.280976 
z
" style="fill:#f8fdc1;stroke:#808080;stroke-linejoin:miter;"/>
   </g>
   <g id="patch_97">
    <path clip-path="url(#p2215462958)" d="M 15.455342 337.13561 
L 64.987397 337.13561 
L 64.987397 288.456585 
L 15.455342 288.456585 
z
" style="fill:#dcf1a5;stroke:#808080;stroke-linejoin:miter;"/>
   </g>
   <g id="patch_98">
    <path clip-path="url(#p2215462958)" d="M 15.455342 66.696585 
L 64.987397 66.696585 
L 64.987397 18.017561 
L 15.455342 18.017561 
z
" style="fill:#51b365;stroke:#808080;stroke-linejoin:miter;"/>
   </g>
   <g id="patch_99">
    <path clip-path="url(#p2215462958)" d="M 730.918356 337.13561 
L 780.450411 337.13561 
L 780.450411 288.456585 
L 730.918356 288.456585 
z
" style="fill:#f8fdc1;stroke:#808080;stroke-linejoin:miter;"/>
   </g>
   <g id="patch_100">
    <path clip-path="url(#p2215462958)" d="M 15.455342 228.96 
L 64.987397 228.96 
L 64.987397 180.280976 
L 15.455342 180.280976 
z
" style="fill:#b8e293;stroke:#808080;stroke-linejoin:miter;"/>
   </g>
   <g id="patch_101">
    <path clip-path="url(#p2215462958)" d="M 730.918356 283.047805 
L 780.450411 283.047805 
L 780.450411 234.36878 
L 730.918356 234.36878 
z
" style="fill:#f4fbb7;stroke:#808080;stroke-linejoin:miter;"/>
   </g>
   <g id="patch_102">
    <path clip-path="url(#p2215462958)" d="M 70.490959 337.13561 
L 120.023014 337.13561 
L 120.023014 288.456585 
L 70.490959 288.456585 
z
" style="fill:#f0f9b4;stroke:#808080;stroke-linejoin:miter;"/>
   </g>
   <g id="patch_103">
    <path clip-path="url(#p2215462958)" d="M 785.953973 337.13561 
L 835.486027 337.13561 
L 835.486027 288.456585 
L 785.953973 288.456585 
z
" style="fill:#dff3a8;stroke:#808080;stroke-linejoin:miter;"/>
   </g>
   <g id="patch_104">
    <path clip-path="url(#p2215462958)" d="M 620.847123 283.047805 
L 670.379178 283.047805 
L 670.379178 234.36878 
L 620.847123 234.36878 
z
" style="fill:#fbfdce;stroke:#808080;stroke-linejoin:miter;"/>
   </g>
   <g id="patch_105">
    <path clip-path="url(#p2215462958)" d="M 785.953973 228.96 
L 835.486027 228.96 
L 835.486027 180.280976 
L 785.953973 180.280976 
z
" style="fill:#fbfdce;stroke:#808080;stroke-linejoin:miter;"/>
   </g>
   <g id="patch_106">
    <path clip-path="url(#p2215462958)" d="M 565.811507 228.96 
L 615.343562 228.96 
L 615.343562 180.280976 
L 565.811507 180.280976 
z
" style="fill:#f4fbb7;stroke:#808080;stroke-linejoin:miter;"/>
   </g>
   <g id="patch_107">
    <path clip-path="url(#p2215462958)" d="M 730.918356 228.96 
L 780.450411 228.96 
L 780.450411 180.280976 
L 730.918356 180.280976 
z
" style="fill:#c9e99c;stroke:#808080;stroke-linejoin:miter;"/>
   </g>
   <g id="patch_108">
    <path clip-path="url(#p2215462958)" d="M 785.953973 120.78439 
L 835.486027 120.78439 
L 835.486027 72.105366 
L 785.953973 72.105366 
z
" style="fill:#7fc97c;stroke:#808080;stroke-linejoin:miter;"/>
   </g>
   <g id="patch_109">
    <path clip-path="url(#p2215462958)" d="M 785.953973 283.047805 
L 835.486027 283.047805 
L 835.486027 234.36878 
L 785.953973 234.36878 
z
" style="fill:#e4f4ab;stroke:#808080;stroke-linejoin:miter;"/>
   </g>
   <g id="patch_110">
    <path clip-path="url(#p2215462958)" d="M 675.88274 283.047805 
L 725.414795 283.047805 
L 725.414795 234.36878 
L 675.88274 234.36878 
z
" style="fill:#f7fcbc;stroke:#808080;stroke-linejoin:miter;"/>
   </g>
   <g id="patch_111">
    <path clip-path="url(#p2215462958)" d="M 675.88274 228.96 
L 725.414795 228.96 
L 725.414795 180.280976 
L 675.88274 180.280976 
z
" style="fill:#f4fbb7;stroke:#808080;stroke-linejoin:miter;"/>
   </g>
   <g id="patch_112">
    <path clip-path="url(#p2215462958)" d="M 896.025205 283.047805 
L 945.55726 283.047805 
L 945.55726 234.36878 
L 896.025205 234.36878 
z
" style="fill:#f9fdc7;stroke:#808080;stroke-linejoin:miter;"/>
   </g>
   <g id="patch_113">
    <path clip-path="url(#p2215462958)" d="M 840.989589 283.047805 
L 890.521644 283.047805 
L 890.521644 234.36878 
L 840.989589 234.36878 
z
" style="fill:#f0f9b4;stroke:#808080;stroke-linejoin:miter;"/>
   </g>
   <g id="patch_114">
    <path clip-path="url(#p2215462958)" d="M 785.953973 174.872195 
L 835.486027 174.872195 
L 835.486027 126.193171 
L 785.953973 126.193171 
z
" style="fill:#dff3a8;stroke:#808080;stroke-linejoin:miter;"/>
   </g>
   <g id="patch_115">
    <path clip-path="url(#p2215462958)" d="M 675.88274 120.78439 
L 725.414795 120.78439 
L 725.414795 72.105366 
L 675.88274 72.105366 
z
" style="fill:#e4f4ab;stroke:#808080;stroke-linejoin:miter;"/>
   </g>
   <g id="patch_116">
    <path clip-path="url(#p2215462958)" d="M 840.989589 120.78439 
L 890.521644 120.78439 
L 890.521644 72.105366 
L 840.989589 72.105366 
z
" style="fill:#31974f;stroke:#808080;stroke-linejoin:miter;"/>
   </g>
   <g id="patch_117">
    <path clip-path="url(#p2215462958)" d="M 840.989589 228.96 
L 890.521644 228.96 
L 890.521644 180.280976 
L 840.989589 180.280976 
z
" style="fill:#ecf7b1;stroke:#808080;stroke-linejoin:miter;"/>
   </g>
   <g id="patch_118">
    <path clip-path="url(#p2215462958)" d="M 730.918356 120.78439 
L 780.450411 120.78439 
L 780.450411 72.105366 
L 730.918356 72.105366 
z
" style="fill:#004529;stroke:#808080;stroke-linejoin:miter;"/>
   </g>
   <g id="patch_119">
    <path clip-path="url(#p2215462958)" d="M 840.989589 174.872195 
L 890.521644 174.872195 
L 890.521644 126.193171 
L 840.989589 126.193171 
z
" style="fill:#7fc97c;stroke:#808080;stroke-linejoin:miter;"/>
   </g>
   <g id="patch_120">
    <path clip-path="url(#p2215462958)" d="M 153.044384 131.601951 
L 177.810411 131.601951 
L 177.810411 112.67122 
L 153.044384 112.67122 
z
" style="fill:#c0c0c0;stroke:#808080;stroke-linejoin:miter;"/>
   </g>
   <g id="patch_121">
    <path clip-path="url(#p2215462958)" d="M 177.810411 131.601951 
L 202.576438 131.601951 
L 202.576438 112.67122 
L 177.810411 112.67122 
z
" style="fill:#fcfed3;stroke:#808080;stroke-linejoin:miter;"/>
   </g>
   <g id="patch_122">
    <path clip-path="url(#p2215462958)" d="M 202.576438 131.601951 
L 227.342466 131.601951 
L 227.342466 112.67122 
L 202.576438 112.67122 
z
" style="fill:#f8fdc1;stroke:#808080;stroke-linejoin:miter;"/>
   </g>
   <g id="patch_123">
    <path clip-path="url(#p2215462958)" d="M 227.342466 131.601951 
L 252.108493 131.601951 
L 252.108493 112.67122 
L 227.342466 112.67122 
z
" style="fill:#f0f9b4;stroke:#808080;stroke-linejoin:miter;"/>
   </g>
   <g id="patch_124">
    <path clip-path="url(#p2215462958)" d="M 252.108493 131.601951 
L 276.874521 131.601951 
L 276.874521 112.67122 
L 252.108493 112.67122 
z
" style="fill:#e4f4ab;stroke:#808080;stroke-linejoin:miter;"/>
   </g>
   <g id="patch_125">
    <path clip-path="url(#p2215462958)" d="M 276.874521 131.601951 
L 301.640548 131.601951 
L 301.640548 112.67122 
L 276.874521 112.67122 
z
" style="fill:#d6efa2;stroke:#808080;stroke-linejoin:miter;"/>
   </g>
   <g id="patch_126">
    <path clip-path="url(#p2215462958)" d="M 301.640548 131.601951 
L 326.406575 131.601951 
L 326.406575 112.67122 
L 301.640548 112.67122 
z
" style="fill:#c4e799;stroke:#808080;stroke-linejoin:miter;"/>
   </g>
   <g id="patch_127">
    <path clip-path="url(#p2215462958)" d="M 326.406575 131.601951 
L 351.172603 131.601951 
L 351.172603 112.67122 
L 326.406575 112.67122 
z
" style="fill:#b2df90;stroke:#808080;stroke-linejoin:miter;"/>
   </g>
   <g id="patch_128">
    <path clip-path="url(#p2215462958)" d="M 351.172603 131.601951 
L 375.93863 131.601951 
L 375.93863 112.67122 
L 351.172603 112.67122 
z
" style="fill:#9dd688;stroke:#808080;stroke-linejoin:miter;"/>
   </g>
   <g id="patch_129">
    <path clip-path="url(#p2215462958)" d="M 375.93863 131.601951 
L 400.704658 131.601951 
L 400.704658 112.67122 
L 375.93863 112.67122 
z
" style="fill:#86cc7f;stroke:#808080;stroke-linejoin:miter;"/>
   </g>
   <g id="patch_130">
    <path clip-path="url(#p2215462958)" d="M 400.704658 131.601951 
L 425.470685 131.601951 
L 425.470685 112.67122 
L 400.704658 112.67122 
z
" style="fill:#69bf72;stroke:#808080;stroke-linejoin:miter;"/>
   </g>
   <g id="patch_131">
    <path clip-path="url(#p2215462958)" d="M 425.470685 131.601951 
L 450.236712 131.601951 
L 450.236712 112.67122 
L 425.470685 112.67122 
z
" style="fill:#51b365;stroke:#808080;stroke-linejoin:miter;"/>
   </g>
   <g id="patch_132">
    <path clip-path="url(#p2215462958)" d="M 450.236712 131.601951 
L 475.00274 131.601951 
L 475.00274 112.67122 
L 450.236712 112.67122 
z
" style="fill:#3ea75a;stroke:#808080;stroke-linejoin:miter;"/>
   </g>
   <g id="patch_133">
    <path clip-path="url(#p2215462958)" d="M 475.00274 131.601951 
L 499.768767 131.601951 
L 499.768767 112.67122 
L 475.00274 112.67122 
z
" style="fill:#31974f;stroke:#808080;stroke-linejoin:miter;"/>
   </g>
   <g id="patch_134">
    <path clip-path="url(#p2215462958)" d="M 499.768767 131.601951 
L 524.534795 131.601951 
L 524.534795 112.67122 
L 499.768767 112.67122 
z
" style="fill:#258745;stroke:#808080;stroke-linejoin:miter;"/>
   </g>
   <g id="patch_135">
    <path clip-path="url(#p2215462958)" d="M 524.534795 131.601951 
L 549.300822 131.601951 
L 549.300822 112.67122 
L 524.534795 112.67122 
z
" style="fill:#167a3f;stroke:#808080;stroke-linejoin:miter;"/>
   </g>
   <g id="patch_136">
    <path clip-path="url(#p2215462958)" d="M 549.300822 131.601951 
L 574.066849 131.601951 
L 574.066849 112.67122 
L 549.300822 112.67122 
z
" style="fill:#086e3a;stroke:#808080;stroke-linejoin:miter;"/>
   </g>
   <g id="patch_137">
    <path clip-path="url(#p2215462958)" d="M 574.066849 131.601951 
L 598.832877 131.601951 
L 598.832877 112.67122 
L 574.066849 112.67122 
z
" style="fill:#006234;stroke:#808080;stroke-linejoin:miter;"/>
   </g>
   <g id="patch_138">
    <path clip-path="url(#p2215462958)" d="M 598.832877 131.601951 
L 623.598904 131.601951 
L 623.598904 112.67122 
L 598.832877 112.67122 
z
" style="fill:#00532f;stroke:#808080;stroke-linejoin:miter;"/>
   </g>
   <g id="patch_139">
    <path clip-path="url(#p2215462958)" d="M 623.598904 131.601951 
L 648.364932 131.601951 
L 648.364932 112.67122 
L 623.598904 112.67122 
z
" style="fill:#004529;stroke:#808080;stroke-linejoin:miter;"/>
   </g>
   <g id="text_1">
    <!-- He -->
    <defs>
     <path d="M 9.1875 72.90625 
L 27.984375 72.90625 
L 27.984375 45.125 
L 55.71875 45.125 
L 55.71875 72.90625 
L 74.515625 72.90625 
L 74.515625 0 
L 55.71875 0 
L 55.71875 30.90625 
L 27.984375 30.90625 
L 27.984375 0 
L 9.1875 0 
z
" id="DejaVuSans-Bold-72"/>
     <path d="M 62.984375 27.484375 
L 62.984375 22.515625 
L 22.125 22.515625 
Q 22.75 16.359375 26.5625 13.28125 
Q 30.375 10.203125 37.203125 10.203125 
Q 42.71875 10.203125 48.5 11.84375 
Q 54.296875 13.484375 60.40625 16.796875 
L 60.40625 3.328125 
Q 54.203125 0.984375 48 -0.21875 
Q 41.796875 -1.421875 35.59375 -1.421875 
Q 20.75 -1.421875 12.515625 6.125 
Q 4.296875 13.671875 4.296875 27.296875 
Q 4.296875 40.671875 12.375 48.328125 
Q 20.453125 56 34.625 56 
Q 47.515625 56 55.25 48.234375 
Q 62.984375 40.484375 62.984375 27.484375 
z
M 45.015625 33.296875 
Q 45.015625 38.28125 42.109375 41.328125 
Q 39.203125 44.390625 34.515625 44.390625 
Q 29.4375 44.390625 26.265625 41.53125 
Q 23.09375 38.671875 22.3125 33.296875 
z
" id="DejaVuSans-Bold-101"/>
    </defs>
    <g transform="translate(960.675287 47.875823)scale(0.2 -0.2)">
     <use xlink:href="#DejaVuSans-Bold-72"/>
     <use x="83.691406" xlink:href="#DejaVuSans-Bold-101"/>
    </g>
   </g>
   <g id="text_2">
    <!-- Ne -->
    <defs>
     <path d="M 9.1875 72.90625 
L 30.171875 72.90625 
L 56.6875 22.90625 
L 56.6875 72.90625 
L 74.515625 72.90625 
L 74.515625 0 
L 53.515625 0 
L 27 50 
L 27 0 
L 9.1875 0 
z
" id="DejaVuSans-Bold-78"/>
    </defs>
    <g transform="translate(960.675287 101.963628)scale(0.2 -0.2)">
     <use xlink:href="#DejaVuSans-Bold-78"/>
     <use x="83.691406" xlink:href="#DejaVuSans-Bold-101"/>
    </g>
   </g>
   <g id="text_3">
    <!-- Ar -->
    <defs>
     <path d="M 53.421875 13.28125 
L 24.03125 13.28125 
L 19.390625 0 
L 0.484375 0 
L 27.484375 72.90625 
L 49.90625 72.90625 
L 76.90625 0 
L 58.015625 0 
z
M 28.71875 26.8125 
L 48.6875 26.8125 
L 38.71875 55.8125 
z
" id="DejaVuSans-Bold-65"/>
     <path d="M 49.03125 39.796875 
Q 46.734375 40.875 44.453125 41.375 
Q 42.1875 41.890625 39.890625 41.890625 
Q 33.15625 41.890625 29.515625 37.5625 
Q 25.875 33.25 25.875 25.203125 
L 25.875 0 
L 8.40625 0 
L 8.40625 54.6875 
L 25.875 54.6875 
L 25.875 45.703125 
Q 29.25 51.078125 33.609375 53.53125 
Q 37.984375 56 44.09375 56 
Q 44.96875 56 45.984375 55.921875 
Q 47.015625 55.859375 48.96875 55.609375 
z
" id="DejaVuSans-Bold-114"/>
    </defs>
    <g transform="translate(963.156537 156.051433)scale(0.2 -0.2)">
     <use xlink:href="#DejaVuSans-Bold-65"/>
     <use x="77.392578" xlink:href="#DejaVuSans-Bold-114"/>
    </g>
   </g>
   <g id="text_4">
    <!-- Kr -->
    <defs>
     <path d="M 9.1875 72.90625 
L 27.984375 72.90625 
L 27.984375 46.296875 
L 55.078125 72.90625 
L 76.90625 72.90625 
L 41.796875 38.375 
L 80.515625 0 
L 56.984375 0 
L 27.984375 28.71875 
L 27.984375 0 
L 9.1875 0 
z
" id="DejaVuSans-Bold-75"/>
    </defs>
    <g transform="translate(963.147162 210.139238)scale(0.2 -0.2)">
     <use xlink:href="#DejaVuSans-Bold-75"/>
     <use x="77.490234" xlink:href="#DejaVuSans-Bold-114"/>
    </g>
   </g>
   <g id="text_5">
    <!-- Xe -->
    <defs>
     <path d="M 49.8125 37.203125 
L 75.09375 0 
L 55.515625 0 
L 38.484375 24.90625 
L 21.578125 0 
L 1.90625 0 
L 27.203125 37.203125 
L 2.875 72.90625 
L 22.515625 72.90625 
L 38.484375 49.421875 
L 54.390625 72.90625 
L 74.125 72.90625 
z
" id="DejaVuSans-Bold-88"/>
    </defs>
    <g transform="translate(961.337787 264.227043)scale(0.2 -0.2)">
     <use xlink:href="#DejaVuSans-Bold-88"/>
     <use x="77.068359" xlink:href="#DejaVuSans-Bold-101"/>
    </g>
   </g>
   <g id="text_6">
    <!-- Pm -->
    <defs>
     <path d="M 9.1875 72.90625 
L 40.375 72.90625 
Q 54.296875 72.90625 61.734375 66.71875 
Q 69.1875 60.546875 69.1875 49.125 
Q 69.1875 37.640625 61.734375 31.46875 
Q 54.296875 25.296875 40.375 25.296875 
L 27.984375 25.296875 
L 27.984375 0 
L 9.1875 0 
z
M 27.984375 59.28125 
L 27.984375 38.921875 
L 38.375 38.921875 
Q 43.84375 38.921875 46.828125 41.578125 
Q 49.8125 44.234375 49.8125 49.125 
Q 49.8125 54 46.828125 56.640625 
Q 43.84375 59.28125 38.375 59.28125 
z
" id="DejaVuSans-Bold-80"/>
     <path d="M 59.078125 45.609375 
Q 62.40625 50.6875 66.96875 53.34375 
Q 71.53125 56 77 56 
Q 86.421875 56 91.359375 50.1875 
Q 96.296875 44.390625 96.296875 33.296875 
L 96.296875 0 
L 78.71875 0 
L 78.71875 28.515625 
Q 78.765625 29.15625 78.78125 29.828125 
Q 78.8125 30.515625 78.8125 31.78125 
Q 78.8125 37.59375 77.09375 40.203125 
Q 75.390625 42.828125 71.578125 42.828125 
Q 66.609375 42.828125 63.890625 38.71875 
Q 61.1875 34.625 61.078125 26.859375 
L 61.078125 0 
L 43.5 0 
L 43.5 28.515625 
Q 43.5 37.59375 41.9375 40.203125 
Q 40.375 42.828125 36.375 42.828125 
Q 31.34375 42.828125 28.609375 38.703125 
Q 25.875 34.578125 25.875 26.90625 
L 25.875 0 
L 8.296875 0 
L 8.296875 54.6875 
L 25.875 54.6875 
L 25.875 46.6875 
Q 29.109375 51.3125 33.28125 53.65625 
Q 37.453125 56 42.484375 56 
Q 48.140625 56 52.484375 53.265625 
Q 56.84375 50.53125 59.078125 45.609375 
z
" id="DejaVuSans-Bold-109"/>
    </defs>
    <g transform="translate(407.720685 453.53436)scale(0.2 -0.2)">
     <use xlink:href="#DejaVuSans-Bold-80"/>
     <use x="73.291016" xlink:href="#DejaVuSans-Bold-109"/>
    </g>
   </g>
   <g id="text_7">
    <!-- Po -->
    <defs>
     <path d="M 34.421875 43.5 
Q 28.609375 43.5 25.5625 39.328125 
Q 22.515625 35.15625 22.515625 27.296875 
Q 22.515625 19.4375 25.5625 15.25 
Q 28.609375 11.078125 34.421875 11.078125 
Q 40.140625 11.078125 43.15625 15.25 
Q 46.1875 19.4375 46.1875 27.296875 
Q 46.1875 35.15625 43.15625 39.328125 
Q 40.140625 43.5 34.421875 43.5 
z
M 34.421875 56 
Q 48.53125 56 56.46875 48.375 
Q 64.40625 40.765625 64.40625 27.296875 
Q 64.40625 13.8125 56.46875 6.1875 
Q 48.53125 -1.421875 34.421875 -1.421875 
Q 20.265625 -1.421875 12.28125 6.1875 
Q 4.296875 13.8125 4.296875 27.296875 
Q 4.296875 40.765625 12.28125 48.375 
Q 20.265625 56 34.421875 56 
z
" id="DejaVuSans-Bold-111"/>
    </defs>
    <g transform="translate(851.555616 318.314848)scale(0.2 -0.2)">
     <use xlink:href="#DejaVuSans-Bold-80"/>
     <use x="73.291016" xlink:href="#DejaVuSans-Bold-111"/>
    </g>
   </g>
   <g id="text_8">
    <!-- At -->
    <defs>
     <path d="M 27.484375 70.21875 
L 27.484375 54.6875 
L 45.515625 54.6875 
L 45.515625 42.1875 
L 27.484375 42.1875 
L 27.484375 19 
Q 27.484375 15.1875 29 13.84375 
Q 30.515625 12.5 35.015625 12.5 
L 44 12.5 
L 44 0 
L 29 0 
Q 18.65625 0 14.328125 4.3125 
Q 10.015625 8.640625 10.015625 19 
L 10.015625 42.1875 
L 1.3125 42.1875 
L 1.3125 54.6875 
L 10.015625 54.6875 
L 10.015625 70.21875 
z
" id="DejaVuSans-Bold-116"/>
    </defs>
    <g transform="translate(908.272483 318.314848)scale(0.2 -0.2)">
     <use xlink:href="#DejaVuSans-Bold-65"/>
     <use x="77.392578" xlink:href="#DejaVuSans-Bold-116"/>
    </g>
   </g>
   <g id="text_9">
    <!-- Rn -->
    <defs>
     <path d="M 35.890625 40.578125 
Q 41.796875 40.578125 44.359375 42.765625 
Q 46.921875 44.96875 46.921875 50 
Q 46.921875 54.984375 44.359375 57.125 
Q 41.796875 59.28125 35.890625 59.28125 
L 27.984375 59.28125 
L 27.984375 40.578125 
z
M 27.984375 27.59375 
L 27.984375 0 
L 9.1875 0 
L 9.1875 72.90625 
L 37.890625 72.90625 
Q 52.296875 72.90625 59 68.0625 
Q 65.71875 63.234375 65.71875 52.78125 
Q 65.71875 45.5625 62.21875 40.921875 
Q 58.734375 36.28125 51.703125 34.078125 
Q 55.5625 33.203125 58.609375 30.09375 
Q 61.671875 27 64.796875 20.703125 
L 75 0 
L 54.984375 0 
L 46.09375 18.109375 
Q 43.40625 23.578125 40.640625 25.578125 
Q 37.890625 27.59375 33.296875 27.59375 
z
" id="DejaVuSans-Bold-82"/>
     <path d="M 63.375 33.296875 
L 63.375 0 
L 45.796875 0 
L 45.796875 5.421875 
L 45.796875 25.484375 
Q 45.796875 32.5625 45.484375 35.25 
Q 45.171875 37.9375 44.390625 39.203125 
Q 43.359375 40.921875 41.59375 41.875 
Q 39.84375 42.828125 37.59375 42.828125 
Q 32.125 42.828125 29 38.59375 
Q 25.875 34.375 25.875 26.90625 
L 25.875 0 
L 8.40625 0 
L 8.40625 54.6875 
L 25.875 54.6875 
L 25.875 46.6875 
Q 29.828125 51.46875 34.265625 53.734375 
Q 38.71875 56 44.09375 56 
Q 53.5625 56 58.46875 50.1875 
Q 63.375 44.390625 63.375 33.296875 
z
" id="DejaVuSans-Bold-110"/>
    </defs>
    <g transform="translate(961.008099 318.314848)scale(0.2 -0.2)">
     <use xlink:href="#DejaVuSans-Bold-82"/>
     <use x="77.001953" xlink:href="#DejaVuSans-Bold-110"/>
    </g>
   </g>
   <g id="text_10">
    <!-- Fr -->
    <defs>
     <path d="M 9.1875 72.90625 
L 59.90625 72.90625 
L 59.90625 58.6875 
L 27.984375 58.6875 
L 27.984375 45.125 
L 58.015625 45.125 
L 58.015625 30.90625 
L 27.984375 30.90625 
L 27.984375 0 
L 9.1875 0 
z
" id="DejaVuSans-Bold-70"/>
    </defs>
    <g transform="translate(28.468245 372.402652)scale(0.2 -0.2)">
     <use xlink:href="#DejaVuSans-Bold-70"/>
     <use x="68.216797" xlink:href="#DejaVuSans-Bold-114"/>
    </g>
   </g>
   <g id="text_11">
    <!-- Ra -->
    <defs>
     <path d="M 32.90625 24.609375 
Q 27.4375 24.609375 24.671875 22.75 
Q 21.921875 20.90625 21.921875 17.28125 
Q 21.921875 13.96875 24.140625 12.078125 
Q 26.375 10.203125 30.328125 10.203125 
Q 35.25 10.203125 38.625 13.734375 
Q 42 17.28125 42 22.609375 
L 42 24.609375 
z
M 59.625 31.203125 
L 59.625 0 
L 42 0 
L 42 8.109375 
Q 38.484375 3.125 34.078125 0.84375 
Q 29.6875 -1.421875 23.390625 -1.421875 
Q 14.890625 -1.421875 9.59375 3.53125 
Q 4.296875 8.5 4.296875 16.40625 
Q 4.296875 26.03125 10.90625 30.515625 
Q 17.53125 35.015625 31.6875 35.015625 
L 42 35.015625 
L 42 36.375 
Q 42 40.53125 38.71875 42.453125 
Q 35.453125 44.390625 28.515625 44.390625 
Q 22.90625 44.390625 18.0625 43.265625 
Q 13.234375 42.140625 9.078125 39.890625 
L 9.078125 53.21875 
Q 14.703125 54.59375 20.359375 55.296875 
Q 26.03125 56 31.6875 56 
Q 46.484375 56 53.046875 50.171875 
Q 59.625 44.34375 59.625 31.203125 
z
" id="DejaVuSans-Bold-97"/>
    </defs>
    <g transform="translate(80.808549 372.402652)scale(0.2 -0.2)">
     <use xlink:href="#DejaVuSans-Bold-82"/>
     <use x="77.001953" xlink:href="#DejaVuSans-Bold-97"/>
    </g>
   </g>
   <g id="text_12">
    <!-- Ac -->
    <defs>
     <path d="M 52.59375 52.984375 
L 52.59375 38.71875 
Q 49.03125 41.15625 45.4375 42.328125 
Q 41.84375 43.5 37.984375 43.5 
Q 30.671875 43.5 26.59375 39.234375 
Q 22.515625 34.96875 22.515625 27.296875 
Q 22.515625 19.625 26.59375 15.34375 
Q 30.671875 11.078125 37.984375 11.078125 
Q 42.09375 11.078125 45.78125 12.296875 
Q 49.46875 13.53125 52.59375 15.921875 
L 52.59375 1.609375 
Q 48.484375 0.09375 44.265625 -0.65625 
Q 40.046875 -1.421875 35.796875 -1.421875 
Q 21 -1.421875 12.640625 6.171875 
Q 4.296875 13.765625 4.296875 27.296875 
Q 4.296875 40.828125 12.640625 48.40625 
Q 21 56 35.796875 56 
Q 40.09375 56 44.265625 55.25 
Q 48.4375 54.5 52.59375 52.984375 
z
" id="DejaVuSans-Bold-99"/>
    </defs>
    <g transform="translate(191.661032 507.622165)scale(0.2 -0.2)">
     <use xlink:href="#DejaVuSans-Bold-65"/>
     <use x="77.392578" xlink:href="#DejaVuSans-Bold-99"/>
    </g>
   </g>
   <g id="text_13">
    <!-- Pa -->
    <g transform="translate(301.324452 507.622165)scale(0.2 -0.2)">
     <use xlink:href="#DejaVuSans-Bold-80"/>
     <use x="73.259766" xlink:href="#DejaVuSans-Bold-97"/>
    </g>
   </g>
   <g id="text_14">
    <!-- Np -->
    <defs>
     <path d="M 25.875 7.90625 
L 25.875 -20.796875 
L 8.40625 -20.796875 
L 8.40625 54.6875 
L 25.875 54.6875 
L 25.875 46.6875 
Q 29.5 51.46875 33.890625 53.734375 
Q 38.28125 56 44 56 
Q 54.109375 56 60.59375 47.96875 
Q 67.09375 39.9375 67.09375 27.296875 
Q 67.09375 14.65625 60.59375 6.609375 
Q 54.109375 -1.421875 44 -1.421875 
Q 38.28125 -1.421875 33.890625 0.84375 
Q 29.5 3.125 25.875 7.90625 
z
M 37.5 43.3125 
Q 31.890625 43.3125 28.875 39.1875 
Q 25.875 35.0625 25.875 27.296875 
Q 25.875 19.53125 28.875 15.40625 
Q 31.890625 11.28125 37.5 11.28125 
Q 43.109375 11.28125 46.0625 15.375 
Q 49.03125 19.484375 49.03125 27.296875 
Q 49.03125 35.109375 46.0625 39.203125 
Q 43.109375 43.3125 37.5 43.3125 
z
" id="DejaVuSans-Bold-112"/>
    </defs>
    <g transform="translate(409.944122 507.622165)scale(0.2 -0.2)">
     <use xlink:href="#DejaVuSans-Bold-78"/>
     <use x="83.691406" xlink:href="#DejaVuSans-Bold-112"/>
    </g>
   </g>
   <g id="text_15">
    <!-- Pu -->
    <defs>
     <path d="M 7.8125 21.296875 
L 7.8125 54.6875 
L 25.390625 54.6875 
L 25.390625 49.21875 
Q 25.390625 44.78125 25.34375 38.0625 
Q 25.296875 31.34375 25.296875 29.109375 
Q 25.296875 22.515625 25.640625 19.609375 
Q 25.984375 16.703125 26.8125 15.375 
Q 27.875 13.671875 29.609375 12.734375 
Q 31.34375 11.8125 33.59375 11.8125 
Q 39.0625 11.8125 42.1875 16.015625 
Q 45.3125 20.21875 45.3125 27.6875 
L 45.3125 54.6875 
L 62.796875 54.6875 
L 62.796875 0 
L 45.3125 0 
L 45.3125 7.90625 
Q 41.359375 3.125 36.9375 0.84375 
Q 32.515625 -1.421875 27.203125 -1.421875 
Q 17.71875 -1.421875 12.765625 4.390625 
Q 7.8125 10.203125 7.8125 21.296875 
z
" id="DejaVuSans-Bold-117"/>
    </defs>
    <g transform="translate(466.057864 507.622165)scale(0.2 -0.2)">
     <use xlink:href="#DejaVuSans-Bold-80"/>
     <use x="73.291016" xlink:href="#DejaVuSans-Bold-117"/>
    </g>
   </g>
   <g id="text_16">
    <!-- Am -->
    <g transform="translate(517.382543 507.622165)scale(0.2 -0.2)">
     <use xlink:href="#DejaVuSans-Bold-65"/>
     <use x="77.392578" xlink:href="#DejaVuSans-Bold-109"/>
    </g>
   </g>
   <g id="text_17">
    <!-- Cm -->
    <defs>
     <path d="M 67 4 
Q 61.8125 1.3125 56.203125 -0.046875 
Q 50.59375 -1.421875 44.484375 -1.421875 
Q 26.265625 -1.421875 15.625 8.765625 
Q 4.984375 18.953125 4.984375 36.375 
Q 4.984375 53.859375 15.625 64.03125 
Q 26.265625 74.21875 44.484375 74.21875 
Q 50.59375 74.21875 56.203125 72.84375 
Q 61.8125 71.484375 67 68.796875 
L 67 53.71875 
Q 61.765625 57.28125 56.6875 58.9375 
Q 51.609375 60.59375 46 60.59375 
Q 35.9375 60.59375 30.171875 54.140625 
Q 24.421875 47.703125 24.421875 36.375 
Q 24.421875 25.09375 30.171875 18.640625 
Q 35.9375 12.203125 46 12.203125 
Q 51.609375 12.203125 56.6875 13.859375 
Q 61.765625 15.53125 67 19.09375 
z
" id="DejaVuSans-Bold-67"/>
    </defs>
    <g transform="translate(572.818159 507.622165)scale(0.2 -0.2)">
     <use xlink:href="#DejaVuSans-Bold-67"/>
     <use x="73.388672" xlink:href="#DejaVuSans-Bold-109"/>
    </g>
   </g>
   <g id="text_18">
    <!-- Bk -->
    <defs>
     <path d="M 38.375 44.671875 
Q 42.828125 44.671875 45.109375 46.625 
Q 47.40625 48.578125 47.40625 52.390625 
Q 47.40625 56.15625 45.109375 58.125 
Q 42.828125 60.109375 38.375 60.109375 
L 27.984375 60.109375 
L 27.984375 44.671875 
z
M 39.015625 12.796875 
Q 44.671875 12.796875 47.53125 15.1875 
Q 50.390625 17.578125 50.390625 22.40625 
Q 50.390625 27.15625 47.5625 29.515625 
Q 44.734375 31.890625 39.015625 31.890625 
L 27.984375 31.890625 
L 27.984375 12.796875 
z
M 56.5 39.015625 
Q 62.546875 37.25 65.859375 32.515625 
Q 69.1875 27.78125 69.1875 20.90625 
Q 69.1875 10.359375 62.0625 5.171875 
Q 54.9375 0 40.375 0 
L 9.1875 0 
L 9.1875 72.90625 
L 37.40625 72.90625 
Q 52.59375 72.90625 59.40625 68.3125 
Q 66.21875 63.71875 66.21875 53.609375 
Q 66.21875 48.296875 63.71875 44.5625 
Q 61.234375 40.828125 56.5 39.015625 
z
" id="DejaVuSans-Bold-66"/>
     <path d="M 8.40625 75.984375 
L 25.875 75.984375 
L 25.875 34.625 
L 46 54.6875 
L 66.3125 54.6875 
L 39.59375 29.59375 
L 68.40625 0 
L 47.21875 0 
L 25.875 22.796875 
L 25.875 0 
L 8.40625 0 
z
" id="DejaVuSans-Bold-107"/>
    </defs>
    <g transform="translate(631.341276 507.622165)scale(0.2 -0.2)">
     <use xlink:href="#DejaVuSans-Bold-66"/>
     <use x="76.220703" xlink:href="#DejaVuSans-Bold-107"/>
    </g>
   </g>
   <g id="text_19">
    <!-- Cf -->
    <defs>
     <path d="M 44.390625 75.984375 
L 44.390625 64.5 
L 34.71875 64.5 
Q 31 64.5 29.53125 63.15625 
Q 28.078125 61.8125 28.078125 58.5 
L 28.078125 54.6875 
L 43.015625 54.6875 
L 43.015625 42.1875 
L 28.078125 42.1875 
L 28.078125 0 
L 10.59375 0 
L 10.59375 42.1875 
L 1.90625 42.1875 
L 1.90625 54.6875 
L 10.59375 54.6875 
L 10.59375 58.5 
Q 10.59375 67.4375 15.578125 71.703125 
Q 20.5625 75.984375 31 75.984375 
z
" id="DejaVuSans-Bold-102"/>
    </defs>
    <g transform="translate(688.959705 507.622165)scale(0.2 -0.2)">
     <use xlink:href="#DejaVuSans-Bold-67"/>
     <use x="73.388672" xlink:href="#DejaVuSans-Bold-102"/>
    </g>
   </g>
   <g id="text_20">
    <!-- Es -->
    <defs>
     <path d="M 9.1875 72.90625 
L 59.90625 72.90625 
L 59.90625 58.6875 
L 27.984375 58.6875 
L 27.984375 45.125 
L 58.015625 45.125 
L 58.015625 30.90625 
L 27.984375 30.90625 
L 27.984375 14.203125 
L 60.984375 14.203125 
L 60.984375 0 
L 9.1875 0 
z
" id="DejaVuSans-Bold-69"/>
     <path d="M 51.125 52.984375 
L 51.125 39.703125 
Q 45.515625 42.046875 40.28125 43.21875 
Q 35.0625 44.390625 30.421875 44.390625 
Q 25.4375 44.390625 23.015625 43.140625 
Q 20.609375 41.890625 20.609375 39.3125 
Q 20.609375 37.203125 22.4375 36.078125 
Q 24.265625 34.96875 29 34.421875 
L 32.078125 33.984375 
Q 45.515625 32.28125 50.140625 28.375 
Q 54.78125 24.46875 54.78125 16.109375 
Q 54.78125 7.375 48.328125 2.96875 
Q 41.890625 -1.421875 29.109375 -1.421875 
Q 23.6875 -1.421875 17.890625 -0.5625 
Q 12.109375 0.296875 6 2 
L 6 15.28125 
Q 11.234375 12.75 16.71875 11.46875 
Q 22.21875 10.203125 27.875 10.203125 
Q 33.015625 10.203125 35.59375 11.609375 
Q 38.1875 13.03125 38.1875 15.828125 
Q 38.1875 18.171875 36.40625 19.3125 
Q 34.625 20.453125 29.296875 21.09375 
L 26.21875 21.484375 
Q 14.546875 22.953125 9.859375 26.90625 
Q 5.171875 30.859375 5.171875 38.921875 
Q 5.171875 47.609375 11.125 51.796875 
Q 17.09375 56 29.390625 56 
Q 34.234375 56 39.546875 55.265625 
Q 44.875 54.546875 51.125 52.984375 
z
" id="DejaVuSans-Bold-115"/>
    </defs>
    <g transform="translate(742.901571 507.622165)scale(0.2 -0.2)">
     <use xlink:href="#DejaVuSans-Bold-69"/>
     <use x="68.310547" xlink:href="#DejaVuSans-Bold-115"/>
    </g>
   </g>
   <g id="text_21">
    <!-- Fm -->
    <g transform="translate(793.468437 507.622165)scale(0.2 -0.2)">
     <use xlink:href="#DejaVuSans-Bold-70"/>
     <use x="68.310547" xlink:href="#DejaVuSans-Bold-109"/>
    </g>
   </g>
   <g id="text_22">
    <!-- Md -->
    <defs>
     <path d="M 9.1875 72.90625 
L 33.109375 72.90625 
L 49.703125 33.890625 
L 66.40625 72.90625 
L 90.28125 72.90625 
L 90.28125 0 
L 72.515625 0 
L 72.515625 53.328125 
L 55.71875 14.015625 
L 43.796875 14.015625 
L 27 53.328125 
L 27 0 
L 9.1875 0 
z
" id="DejaVuSans-Bold-77"/>
     <path d="M 45.609375 46.6875 
L 45.609375 75.984375 
L 63.1875 75.984375 
L 63.1875 0 
L 45.609375 0 
L 45.609375 7.90625 
Q 42 3.078125 37.640625 0.828125 
Q 33.296875 -1.421875 27.59375 -1.421875 
Q 17.484375 -1.421875 10.984375 6.609375 
Q 4.5 14.65625 4.5 27.296875 
Q 4.5 39.9375 10.984375 47.96875 
Q 17.484375 56 27.59375 56 
Q 33.25 56 37.625 53.734375 
Q 42 51.46875 45.609375 46.6875 
z
M 34.078125 11.28125 
Q 39.703125 11.28125 42.65625 15.375 
Q 45.609375 19.484375 45.609375 27.296875 
Q 45.609375 35.109375 42.65625 39.203125 
Q 39.703125 43.3125 34.078125 43.3125 
Q 28.515625 43.3125 25.5625 39.203125 
Q 22.609375 35.109375 22.609375 27.296875 
Q 22.609375 19.484375 25.5625 15.375 
Q 28.515625 11.28125 34.078125 11.28125 
z
" id="DejaVuSans-Bold-100"/>
    </defs>
    <g transform="translate(848.646241 507.622165)scale(0.2 -0.2)">
     <use xlink:href="#DejaVuSans-Bold-77"/>
     <use x="99.511719" xlink:href="#DejaVuSans-Bold-100"/>
    </g>
   </g>
   <g id="text_23">
    <!-- No -->
    <g transform="translate(905.55217 507.622165)scale(0.2 -0.2)">
     <use xlink:href="#DejaVuSans-Bold-78"/>
     <use x="83.691406" xlink:href="#DejaVuSans-Bold-111"/>
    </g>
   </g>
   <g id="text_24">
    <!-- Lr -->
    <defs>
     <path d="M 9.1875 72.90625 
L 27.984375 72.90625 
L 27.984375 14.203125 
L 60.984375 14.203125 
L 60.984375 0 
L 9.1875 0 
z
" id="DejaVuSans-Bold-76"/>
    </defs>
    <g transform="translate(964.523724 507.622165)scale(0.2 -0.2)">
     <use xlink:href="#DejaVuSans-Bold-76"/>
     <use x="63.720703" xlink:href="#DejaVuSans-Bold-114"/>
    </g>
   </g>
   <g id="text_25">
    <!-- Rf -->
    <g transform="translate(193.278219 372.402652)scale(0.2 -0.2)">
     <use xlink:href="#DejaVuSans-Bold-82"/>
     <use x="77.001953" xlink:href="#DejaVuSans-Bold-102"/>
    </g>
   </g>
   <g id="text_26">
    <!-- Db -->
    <defs>
     <path d="M 27.984375 58.6875 
L 27.984375 14.203125 
L 34.71875 14.203125 
Q 46.234375 14.203125 52.3125 19.921875 
Q 58.40625 25.640625 58.40625 36.53125 
Q 58.40625 47.359375 52.34375 53.015625 
Q 46.296875 58.6875 34.71875 58.6875 
z
M 9.1875 72.90625 
L 29 72.90625 
Q 45.609375 72.90625 53.734375 70.53125 
Q 61.859375 68.171875 67.671875 62.5 
Q 72.796875 57.5625 75.28125 51.109375 
Q 77.78125 44.671875 77.78125 36.53125 
Q 77.78125 28.265625 75.28125 21.796875 
Q 72.796875 15.328125 67.671875 10.40625 
Q 61.8125 4.734375 53.609375 2.359375 
Q 45.40625 0 29 0 
L 9.1875 0 
z
" id="DejaVuSans-Bold-68"/>
     <path d="M 37.5 11.28125 
Q 43.109375 11.28125 46.0625 15.375 
Q 49.03125 19.484375 49.03125 27.296875 
Q 49.03125 35.109375 46.0625 39.203125 
Q 43.109375 43.3125 37.5 43.3125 
Q 31.890625 43.3125 28.875 39.1875 
Q 25.875 35.0625 25.875 27.296875 
Q 25.875 19.53125 28.875 15.40625 
Q 31.890625 11.28125 37.5 11.28125 
z
M 25.875 46.6875 
Q 29.5 51.46875 33.890625 53.734375 
Q 38.28125 56 44 56 
Q 54.109375 56 60.59375 47.96875 
Q 67.09375 39.9375 67.09375 27.296875 
Q 67.09375 14.65625 60.59375 6.609375 
Q 54.109375 -1.421875 44 -1.421875 
Q 38.28125 -1.421875 33.890625 0.84375 
Q 29.5 3.125 25.875 7.90625 
L 25.875 0 
L 8.40625 0 
L 8.40625 75.984375 
L 25.875 75.984375 
z
" id="DejaVuSans-Bold-98"/>
    </defs>
    <g transform="translate(244.904461 372.402652)scale(0.2 -0.2)">
     <use xlink:href="#DejaVuSans-Bold-68"/>
     <use x="83.007812" xlink:href="#DejaVuSans-Bold-98"/>
    </g>
   </g>
   <g id="text_27">
    <!-- Sg -->
    <defs>
     <path d="M 59.90625 70.609375 
L 59.90625 55.171875 
Q 53.90625 57.859375 48.1875 59.21875 
Q 42.484375 60.59375 37.40625 60.59375 
Q 30.671875 60.59375 27.4375 58.734375 
Q 24.21875 56.890625 24.21875 52.984375 
Q 24.21875 50.046875 26.390625 48.40625 
Q 28.5625 46.78125 34.28125 45.609375 
L 42.28125 44 
Q 54.4375 41.546875 59.5625 36.5625 
Q 64.703125 31.59375 64.703125 22.40625 
Q 64.703125 10.359375 57.546875 4.46875 
Q 50.390625 -1.421875 35.6875 -1.421875 
Q 28.765625 -1.421875 21.78125 -0.09375 
Q 14.796875 1.21875 7.8125 3.8125 
L 7.8125 19.671875 
Q 14.796875 15.96875 21.3125 14.078125 
Q 27.828125 12.203125 33.890625 12.203125 
Q 40.046875 12.203125 43.3125 14.25 
Q 46.578125 16.3125 46.578125 20.125 
Q 46.578125 23.53125 44.359375 25.390625 
Q 42.140625 27.25 35.5 28.71875 
L 28.21875 30.328125 
Q 17.28125 32.671875 12.21875 37.796875 
Q 7.171875 42.921875 7.171875 51.609375 
Q 7.171875 62.5 14.203125 68.359375 
Q 21.234375 74.21875 34.421875 74.21875 
Q 40.4375 74.21875 46.78125 73.3125 
Q 53.125 72.40625 59.90625 70.609375 
z
" id="DejaVuSans-Bold-83"/>
     <path d="M 45.609375 9.28125 
Q 42 4.5 37.640625 2.25 
Q 33.296875 0 27.59375 0 
Q 17.578125 0 11.03125 7.875 
Q 4.5 15.765625 4.5 27.984375 
Q 4.5 40.234375 11.03125 48.0625 
Q 17.578125 55.90625 27.59375 55.90625 
Q 33.296875 55.90625 37.640625 53.65625 
Q 42 51.421875 45.609375 46.578125 
L 45.609375 54.6875 
L 63.1875 54.6875 
L 63.1875 5.515625 
Q 63.1875 -7.671875 54.859375 -14.625 
Q 46.53125 -21.578125 30.71875 -21.578125 
Q 25.59375 -21.578125 20.796875 -20.796875 
Q 16.015625 -20.015625 11.1875 -18.40625 
L 11.1875 -4.78125 
Q 15.765625 -7.421875 20.15625 -8.71875 
Q 24.5625 -10.015625 29 -10.015625 
Q 37.59375 -10.015625 41.59375 -6.25 
Q 45.609375 -2.484375 45.609375 5.515625 
z
M 34.078125 43.3125 
Q 28.65625 43.3125 25.625 39.296875 
Q 22.609375 35.296875 22.609375 27.984375 
Q 22.609375 20.453125 25.53125 16.578125 
Q 28.46875 12.703125 34.078125 12.703125 
Q 39.546875 12.703125 42.578125 16.703125 
Q 45.609375 20.703125 45.609375 27.984375 
Q 45.609375 35.296875 42.578125 39.296875 
Q 39.546875 43.3125 34.078125 43.3125 
z
" id="DejaVuSans-Bold-103"/>
    </defs>
    <g transform="translate(301.040077 372.246402)scale(0.2 -0.2)">
     <use xlink:href="#DejaVuSans-Bold-83"/>
     <use x="72.021484" xlink:href="#DejaVuSans-Bold-103"/>
    </g>
   </g>
   <g id="text_28">
    <!-- Bh -->
    <defs>
     <path d="M 63.375 33.296875 
L 63.375 0 
L 45.796875 0 
L 45.796875 5.421875 
L 45.796875 25.390625 
Q 45.796875 32.5625 45.484375 35.25 
Q 45.171875 37.9375 44.390625 39.203125 
Q 43.359375 40.921875 41.59375 41.875 
Q 39.84375 42.828125 37.59375 42.828125 
Q 32.125 42.828125 29 38.59375 
Q 25.875 34.375 25.875 26.90625 
L 25.875 0 
L 8.40625 0 
L 8.40625 75.984375 
L 25.875 75.984375 
L 25.875 46.6875 
Q 29.828125 51.46875 34.265625 53.734375 
Q 38.71875 56 44.09375 56 
Q 53.5625 56 58.46875 50.1875 
Q 63.375 44.390625 63.375 33.296875 
z
" id="DejaVuSans-Bold-104"/>
    </defs>
    <g transform="translate(355.694443 372.402652)scale(0.2 -0.2)">
     <use xlink:href="#DejaVuSans-Bold-66"/>
     <use x="76.220703" xlink:href="#DejaVuSans-Bold-104"/>
    </g>
   </g>
   <g id="text_29">
    <!-- Hs -->
    <g transform="translate(411.150372 372.402652)scale(0.2 -0.2)">
     <use xlink:href="#DejaVuSans-Bold-72"/>
     <use x="83.691406" xlink:href="#DejaVuSans-Bold-115"/>
    </g>
   </g>
   <g id="text_30">
    <!-- Mt -->
    <g transform="translate(465.775051 372.402652)scale(0.2 -0.2)">
     <use xlink:href="#DejaVuSans-Bold-77"/>
     <use x="99.511719" xlink:href="#DejaVuSans-Bold-116"/>
    </g>
   </g>
   <g id="text_31">
    <!-- Ds -->
    <g transform="translate(521.288793 372.402652)scale(0.2 -0.2)">
     <use xlink:href="#DejaVuSans-Bold-68"/>
     <use x="83.007812" xlink:href="#DejaVuSans-Bold-115"/>
    </g>
   </g>
   <g id="text_32">
    <!-- Rg -->
    <g transform="translate(575.719722 372.246402)scale(0.2 -0.2)">
     <use xlink:href="#DejaVuSans-Bold-82"/>
     <use x="77.001953" xlink:href="#DejaVuSans-Bold-103"/>
    </g>
   </g>
   <g id="text_33">
    <!-- Cn -->
    <g transform="translate(631.155338 372.402652)scale(0.2 -0.2)">
     <use xlink:href="#DejaVuSans-Bold-67"/>
     <use x="73.388672" xlink:href="#DejaVuSans-Bold-110"/>
    </g>
   </g>
   <g id="text_34">
    <!-- Nh -->
    <g transform="translate(685.161267 372.402652)scale(0.2 -0.2)">
     <use xlink:href="#DejaVuSans-Bold-78"/>
     <use x="83.691406" xlink:href="#DejaVuSans-Bold-104"/>
    </g>
   </g>
   <g id="text_35">
    <!-- Fl -->
    <defs>
     <path d="M 8.40625 75.984375 
L 25.875 75.984375 
L 25.875 0 
L 8.40625 0 
z
" id="DejaVuSans-Bold-108"/>
    </defs>
    <g transform="translate(745.425009 372.402652)scale(0.2 -0.2)">
     <use xlink:href="#DejaVuSans-Bold-70"/>
     <use x="68.310547" xlink:href="#DejaVuSans-Bold-108"/>
    </g>
   </g>
   <g id="text_36">
    <!-- Mc -->
    <g transform="translate(794.840312 372.402652)scale(0.2 -0.2)">
     <use xlink:href="#DejaVuSans-Bold-77"/>
     <use x="99.511719" xlink:href="#DejaVuSans-Bold-99"/>
    </g>
   </g>
   <g id="text_37">
    <!-- Lv -->
    <defs>
     <path d="M 1.515625 54.6875 
L 19 54.6875 
L 32.625 16.890625 
L 46.1875 54.6875 
L 63.71875 54.6875 
L 42.1875 0 
L 23 0 
z
" id="DejaVuSans-Bold-118"/>
    </defs>
    <g transform="translate(852.864991 372.402652)scale(0.2 -0.2)">
     <use xlink:href="#DejaVuSans-Bold-76"/>
     <use x="63.720703" xlink:href="#DejaVuSans-Bold-118"/>
    </g>
   </g>
   <g id="text_38">
    <!-- Ts -->
    <defs>
     <path d="M 0.484375 72.90625 
L 67.671875 72.90625 
L 67.671875 58.6875 
L 43.5 58.6875 
L 43.5 0 
L 24.703125 0 
L 24.703125 58.6875 
L 0.484375 58.6875 
z
" id="DejaVuSans-Bold-84"/>
    </defs>
    <g transform="translate(908.038108 372.402652)scale(0.2 -0.2)">
     <use xlink:href="#DejaVuSans-Bold-84"/>
     <use x="68.009766" xlink:href="#DejaVuSans-Bold-115"/>
    </g>
   </g>
   <g id="text_39">
    <!-- Og -->
    <defs>
     <path d="M 42.484375 60.59375 
Q 33.890625 60.59375 29.15625 54.25 
Q 24.421875 47.90625 24.421875 36.375 
Q 24.421875 24.90625 29.15625 18.546875 
Q 33.890625 12.203125 42.484375 12.203125 
Q 51.125 12.203125 55.859375 18.546875 
Q 60.59375 24.90625 60.59375 36.375 
Q 60.59375 47.90625 55.859375 54.25 
Q 51.125 60.59375 42.484375 60.59375 
z
M 42.484375 74.21875 
Q 60.0625 74.21875 70.015625 64.15625 
Q 79.984375 54.109375 79.984375 36.375 
Q 79.984375 18.703125 70.015625 8.640625 
Q 60.0625 -1.421875 42.484375 -1.421875 
Q 24.953125 -1.421875 14.96875 8.640625 
Q 4.984375 18.703125 4.984375 36.375 
Q 4.984375 54.109375 14.96875 64.15625 
Q 24.953125 74.21875 42.484375 74.21875 
z
" id="DejaVuSans-Bold-79"/>
    </defs>
    <g transform="translate(960.167474 372.246402)scale(0.2 -0.2)">
     <use xlink:href="#DejaVuSans-Bold-79"/>
     <use x="85.009766" xlink:href="#DejaVuSans-Bold-103"/>
    </g>
   </g>
   <g id="text_40">
    <!-- Tc -->
    <g transform="translate(357.705381 264.227043)scale(0.2 -0.2)">
     <use xlink:href="#DejaVuSans-Bold-84"/>
     <use x="68.009766" xlink:href="#DejaVuSans-Bold-99"/>
    </g>
   </g>
   <g id="text_41">
    <!-- Tm -->
    <g transform="translate(848.513429 453.53436)scale(0.2 -0.2)">
     <use xlink:href="#DejaVuSans-Bold-84"/>
     <use x="68.212891" xlink:href="#DejaVuSans-Bold-109"/>
    </g>
   </g>
   <g id="text_42">
    <!-- Re -->
    <g transform="translate(355.952256 318.314848)scale(0.2 -0.2)">
     <use xlink:href="#DejaVuSans-Bold-82"/>
     <use x="77.001953" xlink:href="#DejaVuSans-Bold-101"/>
    </g>
   </g>
   <g id="text_43">
    <!-- Be -->
    <g transform="translate(80.852299 101.963628)scale(0.2 -0.2)">
     <use xlink:href="#DejaVuSans-Bold-66"/>
     <use x="76.220703" xlink:href="#DejaVuSans-Bold-101"/>
    </g>
   </g>
   <g id="text_44">
    <!-- U -->
    <defs>
     <path d="M 9.1875 72.90625 
L 27.984375 72.90625 
L 27.984375 29.203125 
Q 27.984375 20.171875 30.9375 16.28125 
Q 33.890625 12.40625 40.578125 12.40625 
Q 47.3125 12.40625 50.265625 16.28125 
Q 53.21875 20.171875 53.21875 29.203125 
L 53.21875 72.90625 
L 72.015625 72.90625 
L 72.015625 29.203125 
Q 72.015625 13.71875 64.25 6.140625 
Q 56.5 -1.421875 40.578125 -1.421875 
Q 24.703125 -1.421875 16.9375 6.140625 
Q 9.1875 13.71875 9.1875 29.203125 
z
" id="DejaVuSans-Bold-85"/>
    </defs>
    <g transform="translate(362.314756 507.622165)scale(0.2 -0.2)">
     <use xlink:href="#DejaVuSans-Bold-85"/>
    </g>
   </g>
   <g id="text_45">
    <!-- Hf -->
    <g transform="translate(192.609469 318.314848)scale(0.2 -0.2)">
     <use xlink:href="#DejaVuSans-Bold-72"/>
     <use x="83.691406" xlink:href="#DejaVuSans-Bold-102"/>
    </g>
   </g>
   <g id="text_46">
    <!-- Rh -->
    <g transform="translate(465.687551 264.227043)scale(0.2 -0.2)">
     <use xlink:href="#DejaVuSans-Bold-82"/>
     <use x="77.001953" xlink:href="#DejaVuSans-Bold-104"/>
    </g>
   </g>
   <g id="text_47">
    <!-- Au -->
    <g transform="translate(575.719722 318.314848)scale(0.2 -0.2)">
     <use xlink:href="#DejaVuSans-Bold-65"/>
     <use x="77.392578" xlink:href="#DejaVuSans-Bold-117"/>
    </g>
   </g>
   <g id="text_48">
    <!-- Os -->
    <g transform="translate(411.01756 318.314848)scale(0.2 -0.2)">
     <use xlink:href="#DejaVuSans-Bold-79"/>
     <use x="85.009766" xlink:href="#DejaVuSans-Bold-115"/>
    </g>
   </g>
   <g id="text_49">
    <!-- Ho -->
    <g transform="translate(740.445321 453.53436)scale(0.2 -0.2)">
     <use xlink:href="#DejaVuSans-Bold-72"/>
     <use x="83.691406" xlink:href="#DejaVuSans-Bold-111"/>
    </g>
   </g>
   <g id="text_50">
    <!-- Ir -->
    <defs>
     <path d="M 9.1875 72.90625 
L 27.984375 72.90625 
L 27.984375 0 
L 9.1875 0 
z
" id="DejaVuSans-Bold-73"/>
    </defs>
    <g transform="translate(471.854739 318.314848)scale(0.2 -0.2)">
     <use xlink:href="#DejaVuSans-Bold-73"/>
     <use x="37.207031" xlink:href="#DejaVuSans-Bold-114"/>
    </g>
   </g>
   <g id="text_51">
    <!-- Ni -->
    <defs>
     <path d="M 8.40625 54.6875 
L 25.875 54.6875 
L 25.875 0 
L 8.40625 0 
z
M 8.40625 75.984375 
L 25.875 75.984375 
L 25.875 61.71875 
L 8.40625 61.71875 
z
" id="DejaVuSans-Bold-105"/>
    </defs>
    <g transform="translate(523.745043 210.139238)scale(0.2 -0.2)">
     <use xlink:href="#DejaVuSans-Bold-78"/>
     <use x="83.691406" xlink:href="#DejaVuSans-Bold-105"/>
    </g>
   </g>
   <g id="text_52">
    <!-- Ru -->
    <g transform="translate(410.651935 264.227043)scale(0.2 -0.2)">
     <use xlink:href="#DejaVuSans-Bold-82"/>
     <use x="77.001953" xlink:href="#DejaVuSans-Bold-117"/>
    </g>
   </g>
   <g id="text_53">
    <!-- W -->
    <defs>
     <path d="M 2.984375 72.90625 
L 21 72.90625 
L 33.59375 19.921875 
L 46.09375 72.90625 
L 64.203125 72.90625 
L 76.703125 19.921875 
L 89.3125 72.90625 
L 107.171875 72.90625 
L 89.984375 0 
L 68.3125 0 
L 55.078125 55.421875 
L 42 0 
L 20.3125 0 
z
" id="DejaVuSans-Bold-87"/>
    </defs>
    <g transform="translate(304.369765 318.314848)scale(0.2 -0.2)">
     <use xlink:href="#DejaVuSans-Bold-87"/>
    </g>
   </g>
   <g id="text_54">
    <!-- Th -->
    <g transform="translate(246.423211 507.622165)scale(0.2 -0.2)">
     <use xlink:href="#DejaVuSans-Bold-84"/>
     <use x="68.212891" xlink:href="#DejaVuSans-Bold-104"/>
    </g>
   </g>
   <g id="text_55">
    <!-- Pt -->
    <g transform="translate(523.432543 318.314848)scale(0.2 -0.2)">
     <use xlink:href="#DejaVuSans-Bold-80"/>
     <use x="73.291016" xlink:href="#DejaVuSans-Bold-116"/>
    </g>
   </g>
   <g id="text_56">
    <!-- Tb -->
    <g transform="translate(631.633463 453.53436)scale(0.2 -0.2)">
     <use xlink:href="#DejaVuSans-Bold-84"/>
     <use x="68.212891" xlink:href="#DejaVuSans-Bold-98"/>
    </g>
   </g>
   <g id="text_57">
    <!-- Lu -->
    <g transform="translate(962.336224 453.53436)scale(0.2 -0.2)">
     <use xlink:href="#DejaVuSans-Bold-76"/>
     <use x="63.720703" xlink:href="#DejaVuSans-Bold-117"/>
    </g>
   </g>
   <g id="text_58">
    <!-- Co -->
    <g transform="translate(466.296926 210.139238)scale(0.2 -0.2)">
     <use xlink:href="#DejaVuSans-Bold-67"/>
     <use x="73.388672" xlink:href="#DejaVuSans-Bold-111"/>
    </g>
   </g>
   <g id="text_59">
    <!-- Er -->
    <g transform="translate(798.9575 453.53436)scale(0.2 -0.2)">
     <use xlink:href="#DejaVuSans-Bold-69"/>
     <use x="68.310547" xlink:href="#DejaVuSans-Bold-114"/>
    </g>
   </g>
   <g id="text_60">
    <!-- Pd -->
    <g transform="translate(521.054418 264.227043)scale(0.2 -0.2)">
     <use xlink:href="#DejaVuSans-Bold-80"/>
     <use x="73.291016" xlink:href="#DejaVuSans-Bold-100"/>
    </g>
   </g>
   <g id="text_61">
    <!-- Cr -->
    <g transform="translate(303.12914 210.139238)scale(0.2 -0.2)">
     <use xlink:href="#DejaVuSans-Bold-67"/>
     <use x="73.388672" xlink:href="#DejaVuSans-Bold-114"/>
    </g>
   </g>
   <g id="text_62">
    <!-- Zr -->
    <defs>
     <path d="M 5.609375 72.90625 
L 66.890625 72.90625 
L 66.890625 61.53125 
L 27.78125 14.203125 
L 68.015625 14.203125 
L 68.015625 0 
L 4.5 0 
L 4.5 11.375 
L 43.609375 58.6875 
L 5.609375 58.6875 
z
" id="DejaVuSans-Bold-90"/>
    </defs>
    <g transform="translate(193.145407 264.227043)scale(0.2 -0.2)">
     <use xlink:href="#DejaVuSans-Bold-90"/>
     <use x="72.509766" xlink:href="#DejaVuSans-Bold-114"/>
    </g>
   </g>
   <g id="text_63">
    <!-- Dy -->
    <defs>
     <path d="M 1.21875 54.6875 
L 18.703125 54.6875 
L 33.40625 17.578125 
L 45.90625 54.6875 
L 63.375 54.6875 
L 40.375 -5.171875 
Q 36.921875 -14.3125 32.296875 -17.9375 
Q 27.6875 -21.578125 20.125 -21.578125 
L 10.015625 -21.578125 
L 10.015625 -10.109375 
L 15.484375 -10.109375 
Q 19.921875 -10.109375 21.9375 -8.6875 
Q 23.96875 -7.28125 25.09375 -3.609375 
L 25.59375 -2.09375 
z
" id="DejaVuSans-Bold-121"/>
    </defs>
    <g transform="translate(685.828455 453.37811)scale(0.2 -0.2)">
     <use xlink:href="#DejaVuSans-Bold-68"/>
     <use x="83.007812" xlink:href="#DejaVuSans-Bold-121"/>
    </g>
   </g>
   <g id="text_64">
    <!-- Nd -->
    <g transform="translate(354.908506 453.53436)scale(0.2 -0.2)">
     <use xlink:href="#DejaVuSans-Bold-78"/>
     <use x="83.691406" xlink:href="#DejaVuSans-Bold-100"/>
    </g>
   </g>
   <g id="text_65">
    <!-- Sc -->
    <g transform="translate(137.162915 210.139238)scale(0.2 -0.2)">
     <use xlink:href="#DejaVuSans-Bold-83"/>
     <use x="72.021484" xlink:href="#DejaVuSans-Bold-99"/>
    </g>
   </g>
   <g id="text_66">
    <!-- Pr -->
    <g transform="translate(303.138515 453.53436)scale(0.2 -0.2)">
     <use xlink:href="#DejaVuSans-Bold-80"/>
     <use x="73.291016" xlink:href="#DejaVuSans-Bold-114"/>
    </g>
   </g>
   <g id="text_67">
    <!-- Mg -->
    <g transform="translate(78.147611 155.895183)scale(0.2 -0.2)">
     <use xlink:href="#DejaVuSans-Bold-77"/>
     <use x="99.511719" xlink:href="#DejaVuSans-Bold-103"/>
    </g>
   </g>
   <g id="text_68">
    <!-- Yb -->
    <defs>
     <path d="M -0.984375 72.90625 
L 19.578125 72.90625 
L 36.1875 46.921875 
L 52.78125 72.90625 
L 73.390625 72.90625 
L 45.609375 30.71875 
L 45.609375 0 
L 26.8125 0 
L 26.8125 30.71875 
z
" id="DejaVuSans-Bold-89"/>
    </defs>
    <g transform="translate(906.392795 453.53436)scale(0.2 -0.2)">
     <use xlink:href="#DejaVuSans-Bold-89"/>
     <use x="72.412109" xlink:href="#DejaVuSans-Bold-98"/>
    </g>
   </g>
   <g id="text_69">
    <!-- Fe -->
    <g transform="translate(411.862872 210.139238)scale(0.2 -0.2)">
     <use xlink:href="#DejaVuSans-Bold-70"/>
     <use x="68.248047" xlink:href="#DejaVuSans-Bold-101"/>
    </g>
   </g>
   <g id="text_70">
    <!-- Ce -->
    <g transform="translate(246.241961 453.53436)scale(0.2 -0.2)">
     <use xlink:href="#DejaVuSans-Bold-67"/>
     <use x="73.388672" xlink:href="#DejaVuSans-Bold-101"/>
    </g>
   </g>
   <g id="text_71">
    <!-- Ti -->
    <g transform="translate(195.078219 210.139238)scale(0.2 -0.2)">
     <use xlink:href="#DejaVuSans-Bold-84"/>
     <use x="68.212891" xlink:href="#DejaVuSans-Bold-105"/>
    </g>
   </g>
   <g id="text_72">
    <!-- Ca -->
    <g transform="translate(81.169486 210.139238)scale(0.2 -0.2)">
     <use xlink:href="#DejaVuSans-Bold-67"/>
     <use x="73.388672" xlink:href="#DejaVuSans-Bold-97"/>
    </g>
   </g>
   <g id="text_73">
    <!-- Mn -->
    <g transform="translate(353.364756 210.139238)scale(0.2 -0.2)">
     <use xlink:href="#DejaVuSans-Bold-77"/>
     <use x="99.511719" xlink:href="#DejaVuSans-Bold-110"/>
    </g>
   </g>
   <g id="text_74">
    <!-- Mo -->
    <g transform="translate(298.577577 264.227043)scale(0.2 -0.2)">
     <use xlink:href="#DejaVuSans-Bold-77"/>
     <use x="99.511719" xlink:href="#DejaVuSans-Bold-111"/>
    </g>
   </g>
   <g id="text_75">
    <!-- Gd -->
    <defs>
     <path d="M 74.703125 5.421875 
Q 67.671875 2 60.109375 0.28125 
Q 52.546875 -1.421875 44.484375 -1.421875 
Q 26.265625 -1.421875 15.625 8.765625 
Q 4.984375 18.953125 4.984375 36.375 
Q 4.984375 54 15.8125 64.109375 
Q 26.65625 74.21875 45.515625 74.21875 
Q 52.78125 74.21875 59.4375 72.84375 
Q 66.109375 71.484375 72.015625 68.796875 
L 72.015625 53.71875 
Q 65.921875 57.171875 59.890625 58.875 
Q 53.859375 60.59375 47.796875 60.59375 
Q 36.578125 60.59375 30.5 54.3125 
Q 24.421875 48.046875 24.421875 36.375 
Q 24.421875 24.8125 30.28125 18.5 
Q 36.140625 12.203125 46.921875 12.203125 
Q 49.859375 12.203125 52.375 12.5625 
Q 54.890625 12.9375 56.890625 13.71875 
L 56.890625 27.875 
L 45.40625 27.875 
L 45.40625 40.484375 
L 74.703125 40.484375 
z
" id="DejaVuSans-Bold-71"/>
    </defs>
    <g transform="translate(575.211909 453.53436)scale(0.2 -0.2)">
     <use xlink:href="#DejaVuSans-Bold-71"/>
     <use x="82.080078" xlink:href="#DejaVuSans-Bold-100"/>
    </g>
   </g>
   <g id="text_76">
    <!-- Nb -->
    <g transform="translate(244.837273 264.227043)scale(0.2 -0.2)">
     <use xlink:href="#DejaVuSans-Bold-78"/>
     <use x="83.691406" xlink:href="#DejaVuSans-Bold-98"/>
    </g>
   </g>
   <g id="text_77">
    <!-- Sr -->
    <g transform="translate(83.124174 264.227043)scale(0.2 -0.2)">
     <use xlink:href="#DejaVuSans-Bold-83"/>
     <use x="72.021484" xlink:href="#DejaVuSans-Bold-114"/>
    </g>
   </g>
   <g id="text_78">
    <!-- Sm -->
    <g transform="translate(462.884426 453.53436)scale(0.2 -0.2)">
     <use xlink:href="#DejaVuSans-Bold-83"/>
     <use x="72.021484" xlink:href="#DejaVuSans-Bold-109"/>
    </g>
   </g>
   <g id="text_79">
    <!-- V -->
    <defs>
     <path d="M 0.484375 72.90625 
L 19.390625 72.90625 
L 38.71875 19.09375 
L 58.015625 72.90625 
L 76.90625 72.90625 
L 49.90625 0 
L 27.484375 0 
z
" id="DejaVuSans-Bold-86"/>
    </defs>
    <g transform="translate(252.624773 210.139238)scale(0.2 -0.2)">
     <use xlink:href="#DejaVuSans-Bold-86"/>
    </g>
   </g>
   <g id="text_80">
    <!-- Br -->
    <g transform="translate(908.238108 210.139238)scale(0.2 -0.2)">
     <use xlink:href="#DejaVuSans-Bold-66"/>
     <use x="76.220703" xlink:href="#DejaVuSans-Bold-114"/>
    </g>
   </g>
   <g id="text_81">
    <!-- Ta -->
    <g transform="translate(246.812273 318.314848)scale(0.2 -0.2)">
     <use xlink:href="#DejaVuSans-Bold-84"/>
     <use x="68.025391" xlink:href="#DejaVuSans-Bold-97"/>
    </g>
   </g>
   <g id="text_82">
    <!-- Eu -->
    <g transform="translate(521.591918 453.53436)scale(0.2 -0.2)">
     <use xlink:href="#DejaVuSans-Bold-69"/>
     <use x="68.310547" xlink:href="#DejaVuSans-Bold-117"/>
    </g>
   </g>
   <g id="text_83">
    <!-- Al -->
    <g transform="translate(689.48158 156.051433)scale(0.2 -0.2)">
     <use xlink:href="#DejaVuSans-Bold-65"/>
     <use x="77.392578" xlink:href="#DejaVuSans-Bold-108"/>
    </g>
   </g>
   <g id="text_84">
    <!-- Y -->
    <g transform="translate(143.051978 264.227043)scale(0.2 -0.2)">
     <use xlink:href="#DejaVuSans-Bold-89"/>
    </g>
   </g>
   <g id="text_85">
    <!-- Cl -->
    <g transform="translate(910.024045 156.051433)scale(0.2 -0.2)">
     <use xlink:href="#DejaVuSans-Bold-67"/>
     <use x="73.388672" xlink:href="#DejaVuSans-Bold-108"/>
    </g>
   </g>
   <g id="text_86">
    <!-- F -->
    <g transform="translate(913.959983 101.963628)scale(0.2 -0.2)">
     <use xlink:href="#DejaVuSans-Bold-70"/>
    </g>
   </g>
   <g id="text_87">
    <!-- La -->
    <g transform="translate(192.207907 453.53436)scale(0.2 -0.2)">
     <use xlink:href="#DejaVuSans-Bold-76"/>
     <use x="63.720703" xlink:href="#DejaVuSans-Bold-97"/>
    </g>
   </g>
   <g id="text_88">
    <!-- Tl -->
    <g transform="translate(690.398767 318.314848)scale(0.2 -0.2)">
     <use xlink:href="#DejaVuSans-Bold-84"/>
     <use x="68.212891" xlink:href="#DejaVuSans-Bold-108"/>
    </g>
   </g>
   <g id="text_89">
    <!-- Si -->
    <g transform="translate(745.054696 156.051433)scale(0.2 -0.2)">
     <use xlink:href="#DejaVuSans-Bold-83"/>
     <use x="72.021484" xlink:href="#DejaVuSans-Bold-105"/>
    </g>
   </g>
   <g id="text_90">
    <!-- Li -->
    <g transform="translate(30.42137 101.963628)scale(0.2 -0.2)">
     <use xlink:href="#DejaVuSans-Bold-76"/>
     <use x="63.720703" xlink:href="#DejaVuSans-Bold-105"/>
    </g>
   </g>
   <g id="text_91">
    <!-- Na -->
    <g transform="translate(25.104182 156.051433)scale(0.2 -0.2)">
     <use xlink:href="#DejaVuSans-Bold-78"/>
     <use x="83.691406" xlink:href="#DejaVuSans-Bold-97"/>
    </g>
   </g>
   <g id="text_92">
    <!-- Rb -->
    <g transform="translate(25.363557 264.227043)scale(0.2 -0.2)">
     <use xlink:href="#DejaVuSans-Bold-82"/>
     <use x="77.001953" xlink:href="#DejaVuSans-Bold-98"/>
    </g>
   </g>
   <g id="text_93">
    <!-- Hg -->
    <g transform="translate(630.086588 318.158598)scale(0.2 -0.2)">
     <use xlink:href="#DejaVuSans-Bold-72"/>
     <use x="83.691406" xlink:href="#DejaVuSans-Bold-103"/>
    </g>
   </g>
   <g id="text_94">
    <!-- Ag -->
    <g transform="translate(575.680659 264.070793)scale(0.2 -0.2)">
     <use xlink:href="#DejaVuSans-Bold-65"/>
     <use x="77.392578" xlink:href="#DejaVuSans-Bold-103"/>
    </g>
   </g>
   <g id="text_95">
    <!-- Zn -->
    <g transform="translate(631.242838 210.139238)scale(0.2 -0.2)">
     <use xlink:href="#DejaVuSans-Bold-90"/>
     <use x="72.509766" xlink:href="#DejaVuSans-Bold-110"/>
    </g>
   </g>
   <g id="text_96">
    <!-- Cs -->
    <g transform="translate(26.930745 318.314848)scale(0.2 -0.2)">
     <use xlink:href="#DejaVuSans-Bold-67"/>
     <use x="73.388672" xlink:href="#DejaVuSans-Bold-115"/>
    </g>
   </g>
   <g id="text_97">
    <!-- H -->
    <g transform="translate(31.85262 47.875823)scale(0.2 -0.2)">
     <use xlink:href="#DejaVuSans-Bold-72"/>
    </g>
   </g>
   <g id="text_98">
    <!-- Pb -->
    <g transform="translate(741.196884 318.314848)scale(0.2 -0.2)">
     <use xlink:href="#DejaVuSans-Bold-80"/>
     <use x="73.291016" xlink:href="#DejaVuSans-Bold-98"/>
    </g>
   </g>
   <g id="text_99">
    <!-- K -->
    <g transform="translate(32.472932 210.139238)scale(0.2 -0.2)">
     <use xlink:href="#DejaVuSans-Bold-75"/>
    </g>
   </g>
   <g id="text_100">
    <!-- Sn -->
    <g transform="translate(741.364071 264.227043)scale(0.2 -0.2)">
     <use xlink:href="#DejaVuSans-Bold-83"/>
     <use x="72.021484" xlink:href="#DejaVuSans-Bold-110"/>
    </g>
   </g>
   <g id="text_101">
    <!-- Ba -->
    <g transform="translate(80.886674 318.314848)scale(0.2 -0.2)">
     <use xlink:href="#DejaVuSans-Bold-66"/>
     <use x="76.220703" xlink:href="#DejaVuSans-Bold-97"/>
    </g>
   </g>
   <g id="text_102">
    <!-- Bi -->
    <g transform="translate(799.67 318.314848)scale(0.2 -0.2)">
     <use xlink:href="#DejaVuSans-Bold-66"/>
     <use x="76.220703" xlink:href="#DejaVuSans-Bold-105"/>
    </g>
   </g>
   <g id="text_103">
    <!-- Cd -->
    <g transform="translate(631.116276 264.227043)scale(0.2 -0.2)">
     <use xlink:href="#DejaVuSans-Bold-67"/>
     <use x="73.388672" xlink:href="#DejaVuSans-Bold-100"/>
    </g>
   </g>
   <g id="text_104">
    <!-- As -->
    <g transform="translate(797.029375 210.139238)scale(0.2 -0.2)">
     <use xlink:href="#DejaVuSans-Bold-65"/>
     <use x="77.392578" xlink:href="#DejaVuSans-Bold-115"/>
    </g>
   </g>
   <g id="text_105">
    <!-- Cu -->
    <g transform="translate(576.119722 210.139238)scale(0.2 -0.2)">
     <use xlink:href="#DejaVuSans-Bold-67"/>
     <use x="73.388672" xlink:href="#DejaVuSans-Bold-117"/>
    </g>
   </g>
   <g id="text_106">
    <!-- Ge -->
    <g transform="translate(740.693759 210.139238)scale(0.2 -0.2)">
     <use xlink:href="#DejaVuSans-Bold-71"/>
     <use x="82.080078" xlink:href="#DejaVuSans-Bold-101"/>
    </g>
   </g>
   <g id="text_107">
    <!-- N -->
    <g transform="translate(802.35125 101.963628)scale(0.2 -0.2)">
     <use xlink:href="#DejaVuSans-Bold-78"/>
    </g>
   </g>
   <g id="text_108">
    <!-- Sb -->
    <g transform="translate(796.360625 264.227043)scale(0.2 -0.2)">
     <use xlink:href="#DejaVuSans-Bold-83"/>
     <use x="72.021484" xlink:href="#DejaVuSans-Bold-98"/>
    </g>
   </g>
   <g id="text_109">
    <!-- In -->
    <g transform="translate(689.809705 264.227043)scale(0.2 -0.2)">
     <use xlink:href="#DejaVuSans-Bold-73"/>
     <use x="37.207031" xlink:href="#DejaVuSans-Bold-110"/>
    </g>
   </g>
   <g id="text_110">
    <!-- Ga -->
    <g transform="translate(685.692517 210.139238)scale(0.2 -0.2)">
     <use xlink:href="#DejaVuSans-Bold-71"/>
     <use x="82.080078" xlink:href="#DejaVuSans-Bold-97"/>
    </g>
   </g>
   <g id="text_111">
    <!-- I -->
    <g transform="translate(917.07092 264.227043)scale(0.2 -0.2)">
     <use xlink:href="#DejaVuSans-Bold-73"/>
    </g>
   </g>
   <g id="text_112">
    <!-- Te -->
    <g transform="translate(852.171241 264.227043)scale(0.2 -0.2)">
     <use xlink:href="#DejaVuSans-Bold-84"/>
     <use x="68.009766" xlink:href="#DejaVuSans-Bold-101"/>
    </g>
   </g>
   <g id="text_113">
    <!-- P -->
    <g transform="translate(803.390312 156.051433)scale(0.2 -0.2)">
     <use xlink:href="#DejaVuSans-Bold-80"/>
    </g>
   </g>
   <g id="text_114">
    <!-- B -->
    <g transform="translate(693.026892 101.963628)scale(0.2 -0.2)">
     <use xlink:href="#DejaVuSans-Bold-66"/>
    </g>
   </g>
   <g id="text_115">
    <!-- O -->
    <g transform="translate(857.254054 101.963628)scale(0.2 -0.2)">
     <use xlink:href="#DejaVuSans-Bold-79"/>
    </g>
   </g>
   <g id="text_116">
    <!-- Se -->
    <g transform="translate(851.771241 210.139238)scale(0.2 -0.2)">
     <use xlink:href="#DejaVuSans-Bold-83"/>
     <use x="72.021484" xlink:href="#DejaVuSans-Bold-101"/>
    </g>
   </g>
   <g id="text_117">
    <!-- C -->
    <g transform="translate(748.345321 101.963628)scale(0.2 -0.2)">
     <use xlink:href="#DejaVuSans-Bold-67"/>
    </g>
   </g>
   <g id="text_118">
    <!-- S -->
    <g transform="translate(858.554054 156.051433)scale(0.2 -0.2)">
     <use xlink:href="#DejaVuSans-Bold-83"/>
    </g>
   </g>
   <g id="text_119">
    <!-- 0 -->
    <defs>
     <path d="M 46 36.53125 
Q 46 50.203125 43.4375 55.78125 
Q 40.875 61.375 34.8125 61.375 
Q 28.765625 61.375 26.171875 55.78125 
Q 23.578125 50.203125 23.578125 36.53125 
Q 23.578125 22.703125 26.171875 17.03125 
Q 28.765625 11.375 34.8125 11.375 
Q 40.828125 11.375 43.40625 17.03125 
Q 46 22.703125 46 36.53125 
z
M 64.796875 36.375 
Q 64.796875 18.265625 56.984375 8.421875 
Q 49.171875 -1.421875 34.8125 -1.421875 
Q 20.40625 -1.421875 12.59375 8.421875 
Q 4.78125 18.265625 4.78125 36.375 
Q 4.78125 54.546875 12.59375 64.375 
Q 20.40625 74.21875 34.8125 74.21875 
Q 49.171875 74.21875 56.984375 64.375 
Q 64.796875 54.546875 64.796875 36.375 
z
" id="DejaVuSans-Bold-48"/>
    </defs>
    <g transform="translate(158.469585 158.755823)scale(0.2 -0.2)">
     <use xlink:href="#DejaVuSans-Bold-48"/>
    </g>
   </g>
   <g id="text_120">
    <!-- 1e+01 -->
    <defs>
     <path d="M 11.71875 12.984375 
L 28.328125 12.984375 
L 28.328125 60.109375 
L 11.28125 56.59375 
L 11.28125 69.390625 
L 28.21875 72.90625 
L 46.09375 72.90625 
L 46.09375 12.984375 
L 62.703125 12.984375 
L 62.703125 0 
L 11.71875 0 
z
" id="DejaVuSans-Bold-49"/>
     <path d="M 47.703125 62.703125 
L 47.703125 37.109375 
L 73.1875 37.109375 
L 73.1875 25.59375 
L 47.703125 25.59375 
L 47.703125 0 
L 36.078125 0 
L 36.078125 25.59375 
L 10.59375 25.59375 
L 10.59375 37.109375 
L 36.078125 37.109375 
L 36.078125 62.703125 
z
" id="DejaVuSans-Bold-43"/>
    </defs>
    <g transform="translate(228.455569 158.755823)scale(0.2 -0.2)">
     <use xlink:href="#DejaVuSans-Bold-49"/>
     <use x="69.580078" xlink:href="#DejaVuSans-Bold-101"/>
     <use x="137.402344" xlink:href="#DejaVuSans-Bold-43"/>
     <use x="221.191406" xlink:href="#DejaVuSans-Bold-48"/>
     <use x="290.771484" xlink:href="#DejaVuSans-Bold-49"/>
    </g>
   </g>
   <g id="text_121">
    <!-- 3e+01 -->
    <defs>
     <path d="M 46.578125 39.3125 
Q 53.953125 37.40625 57.78125 32.6875 
Q 61.625 27.984375 61.625 20.703125 
Q 61.625 9.859375 53.3125 4.21875 
Q 45.015625 -1.421875 29.109375 -1.421875 
Q 23.484375 -1.421875 17.84375 -0.515625 
Q 12.203125 0.390625 6.6875 2.203125 
L 6.6875 16.703125 
Q 11.96875 14.0625 17.15625 12.71875 
Q 22.359375 11.375 27.390625 11.375 
Q 34.859375 11.375 38.84375 13.953125 
Q 42.828125 16.546875 42.828125 21.390625 
Q 42.828125 26.375 38.75 28.9375 
Q 34.671875 31.5 26.703125 31.5 
L 19.1875 31.5 
L 19.1875 43.609375 
L 27.09375 43.609375 
Q 34.1875 43.609375 37.640625 45.828125 
Q 41.109375 48.046875 41.109375 52.59375 
Q 41.109375 56.78125 37.734375 59.078125 
Q 34.375 61.375 28.21875 61.375 
Q 23.6875 61.375 19.046875 60.34375 
Q 14.40625 59.328125 9.8125 57.328125 
L 9.8125 71.09375 
Q 15.375 72.65625 20.84375 73.4375 
Q 26.3125 74.21875 31.59375 74.21875 
Q 45.796875 74.21875 52.84375 69.546875 
Q 59.90625 64.890625 59.90625 55.515625 
Q 59.90625 49.125 56.53125 45.046875 
Q 53.171875 40.96875 46.578125 39.3125 
z
" id="DejaVuSans-Bold-51"/>
    </defs>
    <g transform="translate(352.285706 158.755823)scale(0.2 -0.2)">
     <use xlink:href="#DejaVuSans-Bold-51"/>
     <use x="69.580078" xlink:href="#DejaVuSans-Bold-101"/>
     <use x="137.402344" xlink:href="#DejaVuSans-Bold-43"/>
     <use x="221.191406" xlink:href="#DejaVuSans-Bold-48"/>
     <use x="290.771484" xlink:href="#DejaVuSans-Bold-49"/>
    </g>
   </g>
   <g id="text_122">
    <!-- 4e+01 -->
    <defs>
     <path d="M 36.8125 57.421875 
L 16.21875 26.90625 
L 36.8125 26.90625 
z
M 33.6875 72.90625 
L 54.59375 72.90625 
L 54.59375 26.90625 
L 64.984375 26.90625 
L 64.984375 13.28125 
L 54.59375 13.28125 
L 54.59375 0 
L 36.8125 0 
L 36.8125 13.28125 
L 4.5 13.28125 
L 4.5 29.390625 
z
" id="DejaVuSans-Bold-52"/>
    </defs>
    <g transform="translate(476.115843 158.755823)scale(0.2 -0.2)">
     <use xlink:href="#DejaVuSans-Bold-52"/>
     <use x="69.580078" xlink:href="#DejaVuSans-Bold-101"/>
     <use x="137.402344" xlink:href="#DejaVuSans-Bold-43"/>
     <use x="221.191406" xlink:href="#DejaVuSans-Bold-48"/>
     <use x="290.771484" xlink:href="#DejaVuSans-Bold-49"/>
    </g>
   </g>
   <g id="text_123">
    <!-- 6e+01 -->
    <defs>
     <path d="M 36.1875 35.984375 
Q 31.25 35.984375 28.78125 32.78125 
Q 26.3125 29.59375 26.3125 23.1875 
Q 26.3125 16.796875 28.78125 13.59375 
Q 31.25 10.40625 36.1875 10.40625 
Q 41.15625 10.40625 43.625 13.59375 
Q 46.09375 16.796875 46.09375 23.1875 
Q 46.09375 29.59375 43.625 32.78125 
Q 41.15625 35.984375 36.1875 35.984375 
z
M 59.421875 71 
L 59.421875 57.515625 
Q 54.78125 59.71875 50.671875 60.765625 
Q 46.578125 61.8125 42.671875 61.8125 
Q 34.28125 61.8125 29.59375 57.140625 
Q 24.90625 52.484375 24.125 43.3125 
Q 27.34375 45.703125 31.09375 46.890625 
Q 34.859375 48.09375 39.3125 48.09375 
Q 50.484375 48.09375 57.34375 41.546875 
Q 64.203125 35.015625 64.203125 24.421875 
Q 64.203125 12.703125 56.53125 5.640625 
Q 48.875 -1.421875 35.984375 -1.421875 
Q 21.78125 -1.421875 13.984375 8.171875 
Q 6.203125 17.78125 6.203125 35.40625 
Q 6.203125 53.46875 15.3125 63.796875 
Q 24.421875 74.125 40.28125 74.125 
Q 45.3125 74.125 50.046875 73.34375 
Q 54.78125 72.5625 59.421875 71 
z
" id="DejaVuSans-Bold-54"/>
    </defs>
    <g transform="translate(599.94598 158.755823)scale(0.2 -0.2)">
     <use xlink:href="#DejaVuSans-Bold-54"/>
     <use x="69.580078" xlink:href="#DejaVuSans-Bold-101"/>
     <use x="137.402344" xlink:href="#DejaVuSans-Bold-43"/>
     <use x="221.191406" xlink:href="#DejaVuSans-Bold-48"/>
     <use x="290.771484" xlink:href="#DejaVuSans-Bold-49"/>
    </g>
   </g>
   <g id="text_124">
    <!-- Element Count -->
    <defs>
     <path id="DejaVuSans-Bold-32"/>
    </defs>
    <g transform="translate(317.853095 99.259238)scale(0.2 -0.2)">
     <use xlink:href="#DejaVuSans-Bold-69"/>
     <use x="68.310547" xlink:href="#DejaVuSans-Bold-108"/>
     <use x="102.587891" xlink:href="#DejaVuSans-Bold-101"/>
     <use x="170.410156" xlink:href="#DejaVuSans-Bold-109"/>
     <use x="274.609375" xlink:href="#DejaVuSans-Bold-101"/>
     <use x="342.431641" xlink:href="#DejaVuSans-Bold-110"/>
     <use x="413.623047" xlink:href="#DejaVuSans-Bold-116"/>
     <use x="461.425781" xlink:href="#DejaVuSans-Bold-32"/>
     <use x="496.240234" xlink:href="#DejaVuSans-Bold-67"/>
     <use x="569.628906" xlink:href="#DejaVuSans-Bold-111"/>
     <use x="638.330078" xlink:href="#DejaVuSans-Bold-117"/>
     <use x="709.521484" xlink:href="#DejaVuSans-Bold-110"/>
     <use x="780.712891" xlink:href="#DejaVuSans-Bold-116"/>
    </g>
   </g>
  </g>
 </g>
 <defs>
  <clipPath id="p2215462958">
   <rect height="554.4" width="1004.4" x="7.2" y="7.2"/>
  </clipPath>
 </defs>
</svg>
