<svg height="960" viewBox="0 0 1296 720" width="1728" xmlns="http://www.w3.org/2000/svg" xmlns:xlink="http://www.w3.org/1999/xlink"><defs><style>*{stroke-linecap:butt;stroke-linejoin:round}</style></defs><g id="figure_1"><path d="M0 720h1296V0H0z" fill="none" id="patch_1"/><g id="axes_1"><path clip-path="url(#p1907294a39)" d="M1105.86 144.738h49.533V97.007h-49.532z" fill="orange" stroke="gray" id="patch_2"/><path clip-path="url(#p1907294a39)" d="M1105.86 197.772h49.533V150.04h-49.532z" fill="orange" stroke="gray" id="patch_3"/><path clip-path="url(#p1907294a39)" d="M1105.86 250.806h49.533v-47.73h-49.532z" fill="orange" stroke="gray" id="patch_4"/><path clip-path="url(#p1907294a39)" d="M1105.86 303.84h49.533v-47.73h-49.532z" fill="orange" stroke="gray" id="patch_5"/><path clip-path="url(#p1907294a39)" d="M1105.86 356.874h49.533v-47.73h-49.532z" fill="orange" stroke="gray" id="patch_6"/><path clip-path="url(#p1907294a39)" d="M555.505 542.494h49.532v-47.731h-49.532z" fill="orange" stroke="gray" id="patch_7"/><path clip-path="url(#p1907294a39)" d="M995.79 409.908h49.532v-47.73H995.79z" fill="gray" stroke="gray" id="patch_8"/><path clip-path="url(#p1907294a39)" d="M1050.825 409.908h49.532v-47.73h-49.532z" fill="gray" stroke="gray" id="patch_9"/><path clip-path="url(#p1907294a39)" d="M1105.86 409.908h49.533v-47.73h-49.532z" fill="gray" stroke="gray" id="patch_10"/><path clip-path="url(#p1907294a39)" d="M170.255 462.942h49.532v-47.73h-49.532z" fill="gray" stroke="gray" id="patch_11"/><path clip-path="url(#p1907294a39)" d="M225.291 462.942h49.532v-47.73h-49.532z" fill="gray" stroke="gray" id="patch_12"/><path clip-path="url(#p1907294a39)" d="M335.362 595.528h49.532v-47.73h-49.532z" fill="orange" stroke="gray" id="patch_13"/><path clip-path="url(#p1907294a39)" d="M445.433 595.528h49.532v-47.73h-49.532z" fill="orange" stroke="gray" id="patch_14"/><path clip-path="url(#p1907294a39)" d="M555.505 595.528h49.532v-47.73h-49.532z" fill="orange" stroke="gray" id="patch_15"/><path clip-path="url(#p1907294a39)" d="M610.54 595.528h49.532v-47.73H610.54z" fill="orange" stroke="gray" id="patch_16"/><path clip-path="url(#p1907294a39)" d="M665.576 595.528h49.532v-47.73h-49.532z" fill="gray" stroke="gray" id="patch_17"/><path clip-path="url(#p1907294a39)" d="M720.612 595.528h49.532v-47.73h-49.532z" fill="gray" stroke="gray" id="patch_18"/><path clip-path="url(#p1907294a39)" d="M775.647 595.528h49.532v-47.73h-49.532z" fill="gray" stroke="gray" id="patch_19"/><path clip-path="url(#p1907294a39)" d="M830.683 595.528h49.532v-47.73h-49.532z" fill="gray" stroke="gray" id="patch_20"/><path clip-path="url(#p1907294a39)" d="M885.718 595.528h49.532v-47.73h-49.532z" fill="gray" stroke="gray" id="patch_21"/><path clip-path="url(#p1907294a39)" d="M940.754 595.528h49.532v-47.73h-49.532z" fill="gray" stroke="gray" id="patch_22"/><path clip-path="url(#p1907294a39)" d="M995.79 595.528h49.532v-47.73H995.79z" fill="gray" stroke="gray" id="patch_23"/><path clip-path="url(#p1907294a39)" d="M1050.825 595.528h49.532v-47.73h-49.532z" fill="gray" stroke="gray" id="patch_24"/><path clip-path="url(#p1907294a39)" d="M1105.86 595.528h49.533v-47.73h-49.532z" fill="gray" stroke="gray" id="patch_25"/><path clip-path="url(#p1907294a39)" d="M335.362 462.942h49.532v-47.73h-49.532z" fill="gray" stroke="gray" id="patch_26"/><path clip-path="url(#p1907294a39)" d="M390.398 462.942h49.532v-47.73h-49.532z" fill="gray" stroke="gray" id="patch_27"/><path clip-path="url(#p1907294a39)" d="M445.433 462.942h49.532v-47.73h-49.532z" fill="gray" stroke="gray" id="patch_28"/><path clip-path="url(#p1907294a39)" d="M500.469 462.942h49.532v-47.73H500.47z" fill="gray" stroke="gray" id="patch_29"/><path clip-path="url(#p1907294a39)" d="M555.505 462.942h49.532v-47.73h-49.532z" fill="gray" stroke="gray" id="patch_30"/><path clip-path="url(#p1907294a39)" d="M610.54 462.942h49.532v-47.73H610.54z" fill="gray" stroke="gray" id="patch_31"/><path clip-path="url(#p1907294a39)" d="M665.576 462.942h49.532v-47.73h-49.532z" fill="gray" stroke="gray" id="patch_32"/><path clip-path="url(#p1907294a39)" d="M720.612 462.942h49.532v-47.73h-49.532z" fill="gray" stroke="gray" id="patch_33"/><path clip-path="url(#p1907294a39)" d="M775.647 462.942h49.532v-47.73h-49.532z" fill="gray" stroke="gray" id="patch_34"/><path clip-path="url(#p1907294a39)" d="M830.683 462.942h49.532v-47.73h-49.532z" fill="gray" stroke="gray" id="patch_35"/><path clip-path="url(#p1907294a39)" d="M885.718 462.942h49.532v-47.73h-49.532z" fill="gray" stroke="gray" id="patch_36"/><path clip-path="url(#p1907294a39)" d="M940.754 462.942h49.532v-47.73h-49.532z" fill="gray" stroke="gray" id="patch_37"/><path clip-path="url(#p1907294a39)" d="M995.79 462.942h49.532v-47.73H995.79z" fill="gray" stroke="gray" id="patch_38"/><path clip-path="url(#p1907294a39)" d="M1050.825 462.942h49.532v-47.73h-49.532z" fill="gray" stroke="gray" id="patch_39"/><path clip-path="url(#p1907294a39)" d="M1105.86 462.942h49.533v-47.73h-49.532z" fill="gray" stroke="gray" id="patch_40"/><path clip-path="url(#p1907294a39)" d="M500.469 356.874h49.532v-47.73H500.47z" fill="orange" stroke="gray" id="patch_41"/><path clip-path="url(#p1907294a39)" d="M995.79 542.494h49.532v-47.731H995.79z" fill="#62bb6e" stroke="gray" id="patch_42"/><path clip-path="url(#p1907294a39)" d="M500.469 409.908h49.532v-47.73H500.47z" fill="#bde496" stroke="gray" id="patch_43"/><path clip-path="url(#p1907294a39)" d="M225.291 197.772h49.532V150.04h-49.532z" fill="#dcf1a5" stroke="gray" id="patch_44"/><path clip-path="url(#p1907294a39)" d="M500.469 595.528h49.532v-47.73H500.47z" fill="#4eb163" stroke="gray" id="patch_45"/><path clip-path="url(#p1907294a39)" d="M335.362 409.908h49.532v-47.73h-49.532z" fill="#4fb264" stroke="gray" id="patch_46"/><path clip-path="url(#p1907294a39)" d="M610.54 356.874h49.532v-47.73H610.54z" fill="#7ac77a" stroke="gray" id="patch_47"/><path clip-path="url(#p1907294a39)" d="M720.612 409.908h49.532v-47.73h-49.532z" fill="#d5eea1" stroke="gray" id="patch_48"/><path clip-path="url(#p1907294a39)" d="M555.505 409.908h49.532v-47.73h-49.532z" fill="#d5eea1" stroke="gray" id="patch_49"/><path clip-path="url(#p1907294a39)" d="M885.718 542.494h49.532v-47.731h-49.532z" fill="#a6da8b" stroke="gray" id="patch_50"/><path clip-path="url(#p1907294a39)" d="M610.54 409.908h49.532v-47.73H610.54z" fill="#fcfed6" stroke="gray" id="patch_51"/><path clip-path="url(#p1907294a39)" d="M665.576 303.84h49.532v-47.73h-49.532z" fill="#c8e99b" stroke="gray" id="patch_52"/><path clip-path="url(#p1907294a39)" d="M555.505 356.874h49.532v-47.73h-49.532z" fill="#ffffe5" stroke="gray" id="patch_53"/><path clip-path="url(#p1907294a39)" d="M445.433 409.908h49.532v-47.73h-49.532z" fill="#40aa5c" stroke="gray" id="patch_54"/><path clip-path="url(#p1907294a39)" d="M390.398 595.528h49.532v-47.73h-49.532z" fill="#aedd8e" stroke="gray" id="patch_55"/><path clip-path="url(#p1907294a39)" d="M665.576 409.908h49.532v-47.73h-49.532z" fill="#ffffe5" stroke="gray" id="patch_56"/><path clip-path="url(#p1907294a39)" d="M775.647 542.494h49.532v-47.731h-49.532z" fill="#92d183" stroke="gray" id="patch_57"/><path clip-path="url(#p1907294a39)" d="M1105.86 542.494h49.533v-47.731h-49.532z" fill="#ecf7b1" stroke="gray" id="patch_58"/><path clip-path="url(#p1907294a39)" d="M610.54 303.84h49.532v-47.73H610.54z" fill="#7ac77a" stroke="gray" id="patch_59"/><path clip-path="url(#p1907294a39)" d="M940.754 542.494h49.532v-47.731h-49.532z" fill="#c5e89a" stroke="gray" id="patch_60"/><path clip-path="url(#p1907294a39)" d="M665.576 356.874h49.532v-47.73h-49.532z" fill="#f7fcb9" stroke="gray" id="patch_61"/><path clip-path="url(#p1907294a39)" d="M445.433 303.84h49.532v-47.73h-49.532z" fill="#c8e99b" stroke="gray" id="patch_62"/><path clip-path="url(#p1907294a39)" d="M335.362 356.874h49.532v-47.73h-49.532z" fill="#b3e091" stroke="gray" id="patch_63"/><path clip-path="url(#p1907294a39)" d="M830.683 542.494h49.532v-47.731h-49.532z" fill="#acdd8e" stroke="gray" id="patch_64"/><path clip-path="url(#p1907294a39)" d="M500.469 542.494h49.532v-47.731H500.47z" fill="#f0f9b4" stroke="gray" id="patch_65"/><path clip-path="url(#p1907294a39)" d="M280.327 303.84h49.532v-47.73h-49.532z" fill="#a4d98a" stroke="gray" id="patch_66"/><path clip-path="url(#p1907294a39)" d="M445.433 542.494h49.532v-47.731h-49.532z" fill="#9fd788" stroke="gray" id="patch_67"/><path clip-path="url(#p1907294a39)" d="M225.291 250.806h49.532v-47.73h-49.532z" fill="#f0f9b4" stroke="gray" id="patch_68"/><path clip-path="url(#p1907294a39)" d="M1050.825 542.494h49.532v-47.731h-49.532z" fill="#c7e89a" stroke="gray" id="patch_69"/><path clip-path="url(#p1907294a39)" d="M555.505 303.84h49.532v-47.73h-49.532z" fill="#c4e799" stroke="gray" id="patch_70"/><path clip-path="url(#p1907294a39)" d="M390.398 542.494h49.532v-47.731h-49.532z" fill="#3ca458" stroke="gray" id="patch_71"/><path clip-path="url(#p1907294a39)" d="M335.362 303.84h49.532v-47.73h-49.532z" fill="#95d385" stroke="gray" id="patch_72"/><path clip-path="url(#p1907294a39)" d="M225.291 303.84h49.532v-47.73h-49.532z" fill="#c5e89a" stroke="gray" id="patch_73"/><path clip-path="url(#p1907294a39)" d="M500.469 303.84h49.532v-47.73H500.47z" fill="#f9fdc2" stroke="gray" id="patch_74"/><path clip-path="url(#p1907294a39)" d="M445.433 356.874h49.532v-47.73h-49.532z" fill="#83cb7d" stroke="gray" id="patch_75"/><path clip-path="url(#p1907294a39)" d="M720.612 542.494h49.532v-47.731h-49.532z" fill="#eef9b3" stroke="gray" id="patch_76"/><path clip-path="url(#p1907294a39)" d="M390.398 356.874h49.532v-47.73h-49.532z" fill="#e7f6ad" stroke="gray" id="patch_77"/><path clip-path="url(#p1907294a39)" d="M225.291 356.874h49.532v-47.73h-49.532z" fill="#79c679" stroke="gray" id="patch_78"/><path clip-path="url(#p1907294a39)" d="M610.54 542.494h49.532v-47.731H610.54z" fill="#fafdc9" stroke="gray" id="patch_79"/><path clip-path="url(#p1907294a39)" d="M390.398 303.84h49.532v-47.73h-49.532z" fill="#ffffe5" stroke="gray" id="patch_80"/><path clip-path="url(#p1907294a39)" d="M1050.825 303.84h49.532v-47.73h-49.532z" fill="#ffffe5" stroke="gray" id="patch_81"/><path clip-path="url(#p1907294a39)" d="M390.398 409.908h49.532v-47.73h-49.532z" fill="#b8e293" stroke="gray" id="patch_82"/><path clip-path="url(#p1907294a39)" d="M665.576 542.494h49.532v-47.731h-49.532z" fill="#f3fab6" stroke="gray" id="patch_83"/><path clip-path="url(#p1907294a39)" d="M830.683 250.806h49.532v-47.73h-49.532z" fill="#fafdcc" stroke="gray" id="patch_84"/><path clip-path="url(#p1907294a39)" d="M280.327 356.874h49.532v-47.73h-49.532z" fill="#ddf1a6" stroke="gray" id="patch_85"/><path clip-path="url(#p1907294a39)" d="M1050.825 250.806h49.532v-47.73h-49.532z" fill="#ffffe5" stroke="gray" id="patch_86"/><path clip-path="url(#p1907294a39)" d="M1050.825 197.772h49.532V150.04h-49.532z" fill="#fafdcb" stroke="gray" id="patch_87"/><path clip-path="url(#p1907294a39)" d="M335.362 542.494h49.532v-47.731h-49.532z" fill="#ffffe5" stroke="gray" id="patch_88"/><path clip-path="url(#p1907294a39)" d="M830.683 409.908h49.532v-47.73h-49.532z" fill="#ffffe5" stroke="gray" id="patch_89"/><path clip-path="url(#p1907294a39)" d="M885.718 250.806h49.532v-47.73h-49.532z" fill="#a2d88a" stroke="gray" id="patch_90"/><path clip-path="url(#p1907294a39)" d="M170.255 197.772h49.532V150.04h-49.532z" fill="#ecf7b1" stroke="gray" id="patch_91"/><path clip-path="url(#p1907294a39)" d="M170.255 250.806h49.532v-47.73h-49.532z" fill="#f8fcbd" stroke="gray" id="patch_92"/><path clip-path="url(#p1907294a39)" d="M170.255 356.874h49.532v-47.73h-49.532z" fill="#cfec9e" stroke="gray" id="patch_93"/><path clip-path="url(#p1907294a39)" d="M775.647 409.908h49.532v-47.73h-49.532z" fill="#d3eda0" stroke="gray" id="patch_94"/><path clip-path="url(#p1907294a39)" d="M720.612 356.874h49.532v-47.73h-49.532z" fill="#ffffe5" stroke="gray" id="patch_95"/><path clip-path="url(#p1907294a39)" d="M775.647 303.84h49.532v-47.73h-49.532z" fill="#ffffe5" stroke="gray" id="patch_96"/><path clip-path="url(#p1907294a39)" d="M170.255 409.908h49.532v-47.73h-49.532z" fill="#f4fbb7" stroke="gray" id="patch_97"/><path clip-path="url(#p1907294a39)" d="M170.255 144.738h49.532V97.007h-49.532z" fill="#3da559" stroke="gray" id="patch_98"/><path clip-path="url(#p1907294a39)" d="M885.718 409.908h49.532v-47.73h-49.532z" fill="#ffffe5" stroke="gray" id="patch_99"/><path clip-path="url(#p1907294a39)" d="M170.255 303.84h49.532v-47.73h-49.532z" fill="#dcf1a5" stroke="gray" id="patch_100"/><path clip-path="url(#p1907294a39)" d="M885.718 356.874h49.532v-47.73h-49.532z" fill="#ffffe5" stroke="gray" id="patch_101"/><path clip-path="url(#p1907294a39)" d="M225.291 409.908h49.532v-47.73h-49.532z" fill="#ffffe5" stroke="gray" id="patch_102"/><path clip-path="url(#p1907294a39)" d="M940.754 409.908h49.532v-47.73h-49.532z" fill="#ffffe5" stroke="gray" id="patch_103"/><path clip-path="url(#p1907294a39)" d="M775.647 356.874h49.532v-47.73h-49.532z" fill="#ffffe5" stroke="gray" id="patch_104"/><path clip-path="url(#p1907294a39)" d="M940.754 303.84h49.532v-47.73h-49.532z" fill="#ffffe5" stroke="gray" id="patch_105"/><path clip-path="url(#p1907294a39)" d="M720.612 303.84h49.532v-47.73h-49.532z" fill="#ffffe5" stroke="gray" id="patch_106"/><path clip-path="url(#p1907294a39)" d="M885.718 303.84h49.532v-47.73h-49.532z" fill="#f8fcbe" stroke="gray" id="patch_107"/><path clip-path="url(#p1907294a39)" d="M940.754 197.772h49.532V150.04h-49.532z" fill="#edf8b1" stroke="gray" id="patch_108"/><path clip-path="url(#p1907294a39)" d="M940.754 356.874h49.532v-47.73h-49.532z" fill="#ffffe5" stroke="gray" id="patch_109"/><path clip-path="url(#p1907294a39)" d="M830.683 356.874h49.532v-47.73h-49.532z" fill="#ffffe5" stroke="gray" id="patch_110"/><path clip-path="url(#p1907294a39)" d="M830.683 303.84h49.532v-47.73h-49.532z" fill="#ffffe5" stroke="gray" id="patch_111"/><path clip-path="url(#p1907294a39)" d="M1050.825 356.874h49.532v-47.73h-49.532z" fill="#ffffe5" stroke="gray" id="patch_112"/><path clip-path="url(#p1907294a39)" d="M995.79 356.874h49.532v-47.73H995.79z" fill="#ffffe5" stroke="gray" id="patch_113"/><path clip-path="url(#p1907294a39)" d="M940.754 250.806h49.532v-47.73h-49.532z" fill="#ffffe5" stroke="gray" id="patch_114"/><path clip-path="url(#p1907294a39)" d="M830.683 197.772h49.532V150.04h-49.532z" fill="#fcfed4" stroke="gray" id="patch_115"/><path clip-path="url(#p1907294a39)" d="M995.79 197.772h49.532V150.04H995.79z" fill="#ffffe5" stroke="gray" id="patch_116"/><path clip-path="url(#p1907294a39)" d="M995.79 303.84h49.532v-47.73H995.79z" fill="#ffffe5" stroke="gray" id="patch_117"/><path clip-path="url(#p1907294a39)" d="M885.718 197.772h49.532V150.04h-49.532z" fill="#004529" stroke="gray" id="patch_118"/><path clip-path="url(#p1907294a39)" d="M995.79 250.806h49.532v-47.73H995.79z" fill="#ffffe5" stroke="gray" id="patch_119"/><path clip-path="url(#p1907294a39)" d="M307.844 208.379h24.766v-18.562h-24.766z" fill="silver" stroke="gray" id="patch_120"/><path clip-path="url(#p1907294a39)" d="M332.61 208.379h24.766v-18.562H332.61z" fill="#d5eea1" stroke="gray" id="patch_121"/><path clip-path="url(#p1907294a39)" d="M357.376 208.379h24.766v-18.562h-24.766z" fill="#88cd7f" stroke="gray" id="patch_122"/><path clip-path="url(#p1907294a39)" d="M382.142 208.379h24.766v-18.562h-24.766z" fill="#62bb6e" stroke="gray" id="patch_123"/><path clip-path="url(#p1907294a39)" d="M406.908 208.379h24.767v-18.562h-24.767z" fill="#3fa95c" stroke="gray" id="patch_124"/><path clip-path="url(#p1907294a39)" d="M431.675 208.379h24.766v-18.562h-24.766z" fill="#359c53" stroke="gray" id="patch_125"/><path clip-path="url(#p1907294a39)" d="M456.44 208.379h24.767v-18.562H456.44z" fill="#298c48" stroke="gray" id="patch_126"/><path clip-path="url(#p1907294a39)" d="M481.207 208.379h24.766v-18.562h-24.766z" fill="#218242" stroke="gray" id="patch_127"/><path clip-path="url(#p1907294a39)" d="M505.973 208.379h24.766v-18.562h-24.766z" fill="#167a3f" stroke="gray" id="patch_128"/><path clip-path="url(#p1907294a39)" d="M530.739 208.379h24.766v-18.562h-24.766z" fill="#10743c" stroke="gray" id="patch_129"/><path clip-path="url(#p1907294a39)" d="M555.505 208.379h24.766v-18.562h-24.766z" fill="#086e3a" stroke="gray" id="patch_130"/><path clip-path="url(#p1907294a39)" d="M580.27 208.379h24.767v-18.562H580.27z" fill="#026a38" stroke="gray" id="patch_131"/><path clip-path="url(#p1907294a39)" d="M605.037 208.379h24.766v-18.562h-24.766z" fill="#006335" stroke="gray" id="patch_132"/><path clip-path="url(#p1907294a39)" d="M629.803 208.379h24.766v-18.562h-24.766z" fill="#005e33" stroke="gray" id="patch_133"/><path clip-path="url(#p1907294a39)" d="M654.569 208.379h24.766v-18.562h-24.766z" fill="#005931" stroke="gray" id="patch_134"/><path clip-path="url(#p1907294a39)" d="M679.335 208.379H704.1v-18.562h-24.766z" fill="#00542f" stroke="gray" id="patch_135"/><path clip-path="url(#p1907294a39)" d="M704.1 208.379h24.767v-18.562H704.1z" fill="#00502d" stroke="gray" id="patch_136"/><path clip-path="url(#p1907294a39)" d="M728.867 208.379h24.766v-18.562h-24.766z" fill="#004d2c" stroke="gray" id="patch_137"/><path clip-path="url(#p1907294a39)" d="M753.633 208.379h24.766v-18.562h-24.766z" fill="#00482a" stroke="gray" id="patch_138"/><path clip-path="url(#p1907294a39)" d="M778.399 208.379h24.766v-18.562h-24.766z" fill="#004529" stroke="gray" id="patch_139"/><g transform="matrix(.2 0 0 -.2 1115.475 126.39)" id="text_1"><defs><path d="M9.188 72.906h18.796V45.125H55.72v27.781h18.797V0H55.719v30.906H27.984V0H9.187z" id="DejaVuSans-Bold-72"/><path d="M62.984 27.484v-4.968H22.125q.625-6.157 4.438-9.235 3.812-3.078 10.64-3.078 5.516 0 11.297 1.64 5.797 1.641 11.906 4.954V3.328Q54.203.984 48-.219q-6.203-1.203-12.406-1.203-14.844 0-23.078 7.547-8.22 7.547-8.22 21.172 0 13.375 8.079 21.031Q20.453 56 34.625 56q12.89 0 20.625-7.766 7.734-7.75 7.734-20.75zm-17.968 5.813q0 4.984-2.907 8.031-2.906 3.063-7.593 3.063-5.078 0-8.25-2.86-3.172-2.86-3.953-8.234z" id="DejaVuSans-Bold-101"/></defs><use xlink:href="#DejaVuSans-Bold-72"/><use x="83.691" xlink:href="#DejaVuSans-Bold-101"/></g><g transform="matrix(.2 0 0 -.2 1115.475 179.425)" id="text_2"><defs><path d="M9.188 72.906h20.984l26.515-50v50h17.829V0h-21L27 50V0H9.187z" id="DejaVuSans-Bold-78"/></defs><use xlink:href="#DejaVuSans-Bold-78"/><use x="83.691" xlink:href="#DejaVuSans-Bold-101"/></g><g transform="matrix(.2 0 0 -.2 1117.957 232.46)" id="text_3"><defs><path d="M53.422 13.281h-29.39L19.39 0H.484l27 72.906h22.422L76.906 0h-18.89zM28.719 26.812h19.968l-9.968 29z" id="DejaVuSans-Bold-65"/><path d="M49.031 39.797q-2.297 1.078-4.578 1.578-2.266.516-4.562.516-6.735 0-10.375-4.328-3.641-4.313-3.641-12.36V0H8.406v54.688h17.469v-8.985q3.375 5.375 7.734 7.828Q37.984 56 44.094 56q.875 0 1.89-.078 1.032-.063 2.985-.313z" id="DejaVuSans-Bold-114"/></defs><use xlink:href="#DejaVuSans-Bold-65"/><use x="77.393" xlink:href="#DejaVuSans-Bold-114"/></g><g transform="matrix(.2 0 0 -.2 1117.947 285.493)" id="text_4"><defs><path d="M9.188 72.906h18.796v-26.61l27.094 26.61h21.828l-35.11-34.531L80.517 0H56.984l-29 28.719V0H9.187z" id="DejaVuSans-Bold-75"/></defs><use xlink:href="#DejaVuSans-Bold-75"/><use x="77.49" xlink:href="#DejaVuSans-Bold-114"/></g><g transform="matrix(.2 0 0 -.2 1116.397 338.528)" id="text_5"><defs><path d="M49.813 37.203L75.093 0H55.517L38.484 24.906 21.578 0H1.906l25.297 37.203L2.875 72.906h19.64l15.97-23.484L54.39 72.906h19.734z" id="DejaVuSans-Bold-88"/></defs><use xlink:href="#DejaVuSans-Bold-88"/><use x="74.475" xlink:href="#DejaVuSans-Bold-101"/></g><g transform="matrix(.2 0 0 -.2 562.52 524.147)" id="text_6"><defs><path d="M9.188 72.906h31.187q13.922 0 21.36-6.187 7.453-6.172 7.453-17.594 0-11.484-7.454-17.656-7.437-6.172-21.359-6.172h-12.39V0H9.187zm18.796-13.625v-20.36h10.391q5.469 0 8.453 2.657 2.984 2.656 2.984 7.547 0 4.875-2.984 7.516-2.984 2.64-8.453 2.64z" id="DejaVuSans-Bold-80"/><path d="M59.078 45.61q3.328 5.078 7.89 7.734Q71.532 56 77 56q9.422 0 14.36-5.813 4.937-5.796 4.937-16.89V0H78.719v28.516q.047.64.062 1.312.031.688.031 1.953 0 5.813-1.718 8.422-1.703 2.625-5.516 2.625-4.969 0-7.687-4.11-2.703-4.093-2.813-11.859V0H43.5v28.516q0 9.078-1.563 11.687-1.562 2.625-5.562 2.625-5.031 0-7.766-4.125-2.734-4.125-2.734-11.797V0H8.297v54.688h17.578v-8q3.234 4.624 7.406 6.968Q37.453 56 42.484 56q5.657 0 10-2.734 4.36-2.735 6.594-7.657z" id="DejaVuSans-Bold-109"/></defs><use xlink:href="#DejaVuSans-Bold-80"/><use x="73.291" xlink:href="#DejaVuSans-Bold-109"/></g><g transform="matrix(.2 0 0 -.2 1006.356 391.562)" id="text_7"><defs><path d="M34.422 43.5q-5.813 0-8.86-4.172-3.046-4.172-3.046-12.031 0-7.86 3.047-12.047 3.046-4.172 8.859-4.172 5.719 0 8.734 4.172 3.032 4.188 3.032 12.047 0 7.86-3.032 12.031-3.015 4.172-8.734 4.172zm0 12.5q14.11 0 22.047-7.625 7.937-7.61 7.937-21.078 0-13.485-7.937-21.11-7.938-7.609-22.047-7.609-14.156 0-22.14 7.61-7.985 7.625-7.985 21.109 0 13.469 7.984 21.078Q20.266 56 34.421 56z" id="DejaVuSans-Bold-111"/></defs><use xlink:href="#DejaVuSans-Bold-80"/><use x="73.291" xlink:href="#DejaVuSans-Bold-111"/></g><g transform="matrix(.2 0 0 -.2 1063.072 391.562)" id="text_8"><defs><path d="M27.484 70.219V54.688h18.032v-12.5H27.484V19q0-3.813 1.516-5.156 1.516-1.344 6.016-1.344H44V0H29Q18.656 0 14.328 4.313 10.016 8.64 10.016 19v23.188H1.312v12.5h8.704v15.53z" id="DejaVuSans-Bold-116"/></defs><use xlink:href="#DejaVuSans-Bold-65"/><use x="77.393" xlink:href="#DejaVuSans-Bold-116"/></g><g transform="matrix(.2 0 0 -.2 1115.808 391.562)" id="text_9"><defs><path d="M35.89 40.578q5.907 0 8.47 2.188 2.562 2.203 2.562 7.234 0 4.984-2.563 7.125-2.562 2.156-8.468 2.156h-7.907V40.578zm-7.906-12.984V0H9.187v72.906h28.704q14.406 0 21.109-4.844 6.719-4.828 6.719-15.28 0-7.22-3.5-11.86-3.485-4.64-10.516-6.844 3.86-.875 6.906-3.984 3.063-3.094 6.188-9.39L75 0H54.984l-8.89 18.11q-2.688 5.468-5.453 7.468-2.75 2.016-7.344 2.016z" id="DejaVuSans-Bold-82"/><path d="M63.375 33.297V0H45.797v25.484q0 7.078-.313 9.766-.312 2.688-1.093 3.953-1.032 1.719-2.797 2.672-1.75.953-4 .953-5.469 0-8.594-4.234-3.125-4.219-3.125-11.688V0H8.406v54.688h17.469v-8q3.953 4.78 8.39 7.046Q38.72 56 44.095 56q9.468 0 14.375-5.813 4.906-5.796 4.906-16.89z" id="DejaVuSans-Bold-110"/></defs><use xlink:href="#DejaVuSans-Bold-82"/><use x="77.002" xlink:href="#DejaVuSans-Bold-110"/></g><g transform="matrix(.2 0 0 -.2 183.896 444.596)" id="text_10"><defs><path d="M9.188 72.906h50.718V58.687H27.984V45.126h30.032v-14.22H27.984V0H9.187z" id="DejaVuSans-Bold-70"/></defs><use xlink:href="#DejaVuSans-Bold-70"/><use x="61.936" xlink:href="#DejaVuSans-Bold-114"/></g><g transform="matrix(.2 0 0 -.2 235.609 444.596)" id="text_11"><defs><path d="M32.906 24.61q-5.468 0-8.234-1.86-2.75-1.844-2.75-5.469 0-3.312 2.219-5.203 2.234-1.875 6.187-1.875 4.922 0 8.297 3.531Q42 17.281 42 22.61v2zm26.719 6.593V0H42v8.11Q38.484 3.124 34.078.843q-4.39-2.266-10.687-2.266-8.5 0-13.797 4.953Q4.297 8.5 4.297 16.406q0 9.625 6.61 14.11 6.624 4.5 20.78 4.5H42v1.359q0 4.156-3.281 6.078-3.266 1.938-10.203 1.938-5.61 0-10.453-1.125-4.829-1.125-8.985-3.375v13.328q5.625 1.375 11.281 2.078Q26.031 56 31.687 56q14.797 0 21.36-5.828 6.578-5.828 6.578-18.969z" id="DejaVuSans-Bold-97"/></defs><use xlink:href="#DejaVuSans-Bold-82"/><use x="77.002" xlink:href="#DejaVuSans-Bold-97"/></g><g transform="matrix(.2 0 0 -.2 346.461 577.181)" id="text_12"><defs><path d="M52.594 52.984V38.72q-3.563 2.437-7.157 3.61-3.593 1.171-7.453 1.171-7.312 0-11.39-4.266-4.078-4.265-4.078-11.937t4.078-11.953q4.078-4.266 11.39-4.266 4.11 0 7.797 1.219 3.688 1.234 6.813 3.625V1.609Q48.484.094 44.266-.656q-4.22-.766-8.47-.766-14.796 0-23.155 7.594-8.344 7.594-8.344 21.125 0 13.531 8.344 21.11Q21 56 35.797 56q4.297 0 8.469-.75t8.328-2.266z" id="DejaVuSans-Bold-99"/></defs><use xlink:href="#DejaVuSans-Bold-65"/><use x="77.393" xlink:href="#DejaVuSans-Bold-99"/></g><g transform="matrix(.2 0 0 -.2 456.384 577.181)" id="text_13"><use xlink:href="#DejaVuSans-Bold-80"/><use x="70.666" xlink:href="#DejaVuSans-Bold-97"/></g><g transform="matrix(.2 0 0 -.2 564.744 577.181)" id="text_14"><defs><path d="M25.875 7.906v-28.703H8.406v75.484h17.469v-8q3.625 4.782 8.016 7.047Q38.28 56 44 56q10.11 0 16.594-8.031 6.5-8.032 6.5-20.672t-6.5-20.688Q54.109-1.42 44-1.42q-5.719 0-10.11 2.265-4.39 2.281-8.015 7.062zM37.5 43.313q-5.61 0-8.625-4.126-3-4.124-3-11.89 0-7.766 3-11.89 3.016-4.126 8.625-4.126 5.61 0 8.563 4.094 2.968 4.11 2.968 11.922t-2.968 11.906q-2.954 4.11-8.563 4.11z" id="DejaVuSans-Bold-112"/></defs><use xlink:href="#DejaVuSans-Bold-78"/><use x="83.691" xlink:href="#DejaVuSans-Bold-112"/></g><g transform="matrix(.2 0 0 -.2 620.858 577.181)" id="text_15"><defs><path d="M7.813 21.297v33.39H25.39V49.22q0-4.438-.047-11.157-.047-6.718-.047-8.953 0-6.593.344-9.5.343-2.906 1.172-4.234 1.062-1.703 2.796-2.64 1.735-.922 3.985-.922 5.468 0 8.593 4.203 3.126 4.203 3.126 11.672v27h17.484V0H45.313v7.906Q41.358 3.125 36.937.844q-4.421-2.266-9.734-2.266-9.484 0-14.437 5.813-4.954 5.812-4.954 16.906z" id="DejaVuSans-Bold-117"/></defs><use xlink:href="#DejaVuSans-Bold-80"/><use x="73.291" xlink:href="#DejaVuSans-Bold-117"/></g><g transform="matrix(.2 0 0 -.2 672.183 577.181)" id="text_16"><use xlink:href="#DejaVuSans-Bold-65"/><use x="77.393" xlink:href="#DejaVuSans-Bold-109"/></g><g transform="matrix(.2 0 0 -.2 727.618 577.181)" id="text_17"><defs><path d="M67 4Q61.812 1.312 56.203-.047q-5.61-1.375-11.719-1.375-18.218 0-28.859 10.188-10.64 10.187-10.64 27.609 0 17.484 10.64 27.656 10.64 10.188 28.86 10.188 6.109 0 11.718-1.375 5.61-1.36 10.797-4.047V53.719q-5.234 3.562-10.313 5.218Q51.61 60.594 46 60.594q-10.063 0-15.828-6.453-5.75-6.438-5.75-17.766 0-11.281 5.75-17.734Q35.937 12.203 46 12.203q5.61 0 10.688 1.656Q61.766 15.531 67 19.094z" id="DejaVuSans-Bold-67"/></defs><use xlink:href="#DejaVuSans-Bold-67"/><use x="73.389" xlink:href="#DejaVuSans-Bold-109"/></g><g transform="matrix(.2 0 0 -.2 786.141 577.181)" id="text_18"><defs><path d="M38.375 44.672q4.453 0 6.734 1.953 2.297 1.953 2.297 5.766 0 3.765-2.297 5.734-2.28 1.984-6.734 1.984h-10.39V44.672zm.64-31.875q5.657 0 8.516 2.39 2.86 2.391 2.86 7.22 0 4.75-2.828 7.109-2.829 2.375-8.547 2.375H27.984V12.797zM56.5 39.016q6.047-1.766 9.36-6.5 3.328-4.735 3.328-11.61 0-10.547-7.126-15.734Q54.938 0 40.376 0H9.187v72.906h28.22q15.187 0 22-4.594 6.812-4.593 6.812-14.703 0-5.312-2.5-9.047-2.485-3.734-7.219-5.546z" id="DejaVuSans-Bold-66"/><path d="M8.406 75.984h17.469V34.625L46 54.688h20.313l-26.72-25.094L68.407 0H47.22L25.875 22.797V0H8.406z" id="DejaVuSans-Bold-107"/></defs><use xlink:href="#DejaVuSans-Bold-66"/><use x="76.221" xlink:href="#DejaVuSans-Bold-107"/></g><g transform="matrix(.2 0 0 -.2 843.76 577.181)" id="text_19"><defs><path d="M44.39 75.984V64.5h-9.67q-3.719 0-5.188-1.344-1.453-1.343-1.453-4.656v-3.813h14.938v-12.5H28.078V0H10.594v42.188H1.906v12.5h8.688V58.5q0 8.938 4.984 13.203Q20.563 75.984 31 75.984z" id="DejaVuSans-Bold-102"/></defs><use xlink:href="#DejaVuSans-Bold-67"/><use x="73.389" xlink:href="#DejaVuSans-Bold-102"/></g><g transform="matrix(.2 0 0 -.2 897.702 577.181)" id="text_20"><defs><path d="M9.188 72.906h50.718V58.687H27.984V45.126h30.032v-14.22H27.984V14.203h33V0H9.187z" id="DejaVuSans-Bold-69"/><path d="M51.125 52.984v-13.28q-5.61 2.343-10.844 3.515-5.218 1.172-9.86 1.172-4.983 0-7.405-1.25-2.407-1.25-2.407-3.828 0-2.11 1.828-3.235 1.829-1.11 6.563-1.656l3.078-.438q13.438-1.703 18.063-5.609 4.64-3.906 4.64-12.266 0-8.734-6.453-13.14-6.437-4.39-19.219-4.39-5.422 0-11.218.859Q12.109.296 6 2v13.281q5.234-2.531 10.719-3.812 5.5-1.266 11.156-1.266 5.14 0 7.719 1.406 2.593 1.422 2.593 4.22 0 2.343-1.78 3.483-1.782 1.141-7.11 1.782l-3.078.39q-11.672 1.47-16.36 5.422-4.687 3.953-4.687 12.016 0 8.687 5.953 12.875Q17.094 56 29.391 56q4.843 0 10.156-.734 5.328-.72 11.578-2.282z" id="DejaVuSans-Bold-115"/></defs><use xlink:href="#DejaVuSans-Bold-69"/><use x="68.311" xlink:href="#DejaVuSans-Bold-115"/></g><g transform="matrix(.2 0 0 -.2 948.268 577.181)" id="text_21"><use xlink:href="#DejaVuSans-Bold-70"/><use x="68.311" xlink:href="#DejaVuSans-Bold-109"/></g><g transform="matrix(.2 0 0 -.2 1003.446 577.181)" id="text_22"><defs><path d="M9.188 72.906h23.921l16.594-39.015 16.703 39.015h23.875V0H72.516v53.328L55.719 14.016H43.797L27 53.328V0H9.187z" id="DejaVuSans-Bold-77"/><path d="M45.61 46.688v29.296h17.578V0h-17.58v7.906Q42 3.078 37.641.828q-4.344-2.25-10.047-2.25-10.11 0-16.61 8.031Q4.5 14.656 4.5 27.297q0 12.64 6.484 20.672Q17.484 56 27.594 56q5.656 0 10.031-2.266Q42 51.47 45.609 46.687zM34.077 11.28q5.625 0 8.578 4.094 2.953 4.11 2.953 11.922t-2.953 11.906q-2.953 4.11-8.578 4.11-5.562 0-8.516-4.11-2.953-4.094-2.953-11.906 0-7.813 2.953-11.922 2.954-4.094 8.516-4.094z" id="DejaVuSans-Bold-100"/></defs><use xlink:href="#DejaVuSans-Bold-77"/><use x="99.512" xlink:href="#DejaVuSans-Bold-100"/></g><g transform="matrix(.2 0 0 -.2 1060.352 577.181)" id="text_23"><use xlink:href="#DejaVuSans-Bold-78"/><use x="83.691" xlink:href="#DejaVuSans-Bold-111"/></g><g transform="matrix(.2 0 0 -.2 1119.324 577.181)" id="text_24"><defs><path d="M9.188 72.906h18.796V14.203h33V0H9.187z" id="DejaVuSans-Bold-76"/></defs><use xlink:href="#DejaVuSans-Bold-76"/><use x="63.721" xlink:href="#DejaVuSans-Bold-114"/></g><g transform="matrix(.2 0 0 -.2 348.078 444.596)" id="text_25"><use xlink:href="#DejaVuSans-Bold-82"/><use x="77.002" xlink:href="#DejaVuSans-Bold-102"/></g><g transform="matrix(.2 0 0 -.2 399.704 444.596)" id="text_26"><defs><path d="M27.984 58.688V14.203h6.735q11.515 0 17.593 5.719 6.094 5.719 6.094 16.61 0 10.827-6.062 16.484-6.047 5.672-17.625 5.672zM9.187 72.906H29q16.61 0 24.734-2.375 8.125-2.36 13.938-8.031 5.125-4.938 7.61-11.39 2.5-6.438 2.5-14.579 0-8.265-2.5-14.734-2.485-6.469-7.61-11.39-5.86-5.673-14.063-8.048Q45.406 0 29 0H9.187z" id="DejaVuSans-Bold-68"/><path d="M37.5 11.281q5.61 0 8.563 4.094 2.968 4.11 2.968 11.922t-2.968 11.906q-2.954 4.11-8.563 4.11-5.61 0-8.625-4.126-3-4.124-3-11.89 0-7.766 3-11.89 3.016-4.126 8.625-4.126zM25.875 46.688q3.625 4.78 8.016 7.046Q38.28 56 44 56q10.11 0 16.594-8.031 6.5-8.032 6.5-20.672t-6.5-20.688Q54.109-1.42 44-1.42q-5.719 0-10.11 2.265-4.39 2.281-8.015 7.062V0H8.406v75.984h17.469z" id="DejaVuSans-Bold-98"/></defs><use xlink:href="#DejaVuSans-Bold-68"/><use x="83.008" xlink:href="#DejaVuSans-Bold-98"/></g><g transform="matrix(.2 0 0 -.2 455.84 444.44)" id="text_27"><defs><path d="M59.906 70.61V55.171q-6 2.687-11.718 4.047-5.704 1.375-10.782 1.375-6.734 0-9.968-1.86-3.22-1.843-3.22-5.75 0-2.937 2.173-4.578 2.172-1.625 7.89-2.797l8-1.609q12.157-2.453 17.282-7.438 5.14-4.968 5.14-14.156 0-12.047-7.156-17.937-7.156-5.89-21.86-5.89-6.921 0-13.906 1.327Q14.797 1.22 7.813 3.812v15.86q6.984-3.703 13.5-5.594 6.515-1.875 12.578-1.875 6.156 0 9.422 2.047 3.265 2.063 3.265 5.875 0 3.406-2.219 5.266-2.218 1.859-8.859 3.328l-7.281 1.61q-10.938 2.343-16 7.468-5.047 5.125-5.047 13.812 0 10.891 7.031 16.75 7.031 5.86 20.219 5.86 6.016 0 12.36-.906 6.343-.907 13.124-2.704z" id="DejaVuSans-Bold-83"/><path d="M45.61 9.281Q42 4.5 37.64 2.25 33.298 0 27.595 0 17.578 0 11.03 7.875q-6.53 7.89-6.53 20.11 0 12.25 6.531 20.078 6.547 7.843 16.563 7.843 5.703 0 10.047-2.25 4.359-2.234 7.968-7.078v8.11h17.578V5.516q0-13.188-8.328-20.141-8.328-6.953-24.14-6.953-5.125 0-9.922.781-4.781.781-9.61 2.39V-4.78q4.579-2.64 8.97-3.938 4.405-1.297 8.843-1.297 8.594 0 12.594 3.766 4.015 3.766 4.015 11.766zM34.077 43.313q-5.422 0-8.453-4.016-3.016-4-3.016-11.313 0-7.53 2.922-11.406 2.938-3.875 8.547-3.875 5.469 0 8.5 4 3.031 4 3.031 11.281 0 7.313-3.03 11.313-3.032 4.016-8.5 4.016z" id="DejaVuSans-Bold-103"/></defs><use xlink:href="#DejaVuSans-Bold-83"/><use x="72.021" xlink:href="#DejaVuSans-Bold-103"/></g><g transform="matrix(.2 0 0 -.2 510.494 444.596)" id="text_28"><defs><path d="M63.375 33.297V0H45.797v25.391q0 7.172-.313 9.859-.312 2.688-1.093 3.953-1.032 1.719-2.797 2.672-1.75.953-4 .953-5.469 0-8.594-4.234-3.125-4.219-3.125-11.688V0H8.406v75.984h17.469V46.688q3.953 4.78 8.39 7.046Q38.72 56 44.095 56q9.468 0 14.375-5.813 4.906-5.796 4.906-16.89z" id="DejaVuSans-Bold-104"/></defs><use xlink:href="#DejaVuSans-Bold-66"/><use x="76.221" xlink:href="#DejaVuSans-Bold-104"/></g><g transform="matrix(.2 0 0 -.2 565.95 444.596)" id="text_29"><use xlink:href="#DejaVuSans-Bold-72"/><use x="83.691" xlink:href="#DejaVuSans-Bold-115"/></g><g transform="matrix(.2 0 0 -.2 620.575 444.596)" id="text_30"><use xlink:href="#DejaVuSans-Bold-77"/><use x="99.512" xlink:href="#DejaVuSans-Bold-116"/></g><g transform="matrix(.2 0 0 -.2 676.089 444.596)" id="text_31"><use xlink:href="#DejaVuSans-Bold-68"/><use x="83.008" xlink:href="#DejaVuSans-Bold-115"/></g><g transform="matrix(.2 0 0 -.2 730.52 444.44)" id="text_32"><use xlink:href="#DejaVuSans-Bold-82"/><use x="77.002" xlink:href="#DejaVuSans-Bold-103"/></g><g transform="matrix(.2 0 0 -.2 785.955 444.596)" id="text_33"><use xlink:href="#DejaVuSans-Bold-67"/><use x="73.389" xlink:href="#DejaVuSans-Bold-110"/></g><g transform="matrix(.2 0 0 -.2 839.961 444.596)" id="text_34"><use xlink:href="#DejaVuSans-Bold-78"/><use x="83.691" xlink:href="#DejaVuSans-Bold-104"/></g><g transform="matrix(.2 0 0 -.2 900.225 444.596)" id="text_35"><defs><path d="M8.406 75.984h17.469V0H8.406z" id="DejaVuSans-Bold-108"/></defs><use xlink:href="#DejaVuSans-Bold-70"/><use x="68.311" xlink:href="#DejaVuSans-Bold-108"/></g><g transform="matrix(.2 0 0 -.2 949.64 444.596)" id="text_36"><use xlink:href="#DejaVuSans-Bold-77"/><use x="99.512" xlink:href="#DejaVuSans-Bold-99"/></g><g transform="matrix(.2 0 0 -.2 1007.665 444.596)" id="text_37"><defs><path d="M1.516 54.688H19L32.625 16.89l13.563 37.797h17.53L42.189 0H23z" id="DejaVuSans-Bold-118"/></defs><use xlink:href="#DejaVuSans-Bold-76"/><use x="63.721" xlink:href="#DejaVuSans-Bold-118"/></g><g transform="matrix(.2 0 0 -.2 1064.143 444.596)" id="text_38"><defs><path d="M.484 72.906h67.188V58.687H43.5V0H24.703v58.688H.484z" id="DejaVuSans-Bold-84"/></defs><use xlink:href="#DejaVuSans-Bold-84"/><use x="54.963" xlink:href="#DejaVuSans-Bold-115"/></g><g transform="matrix(.2 0 0 -.2 1114.967 444.44)" id="text_39"><defs><path d="M42.484 60.594q-8.593 0-13.328-6.344-4.734-6.344-4.734-17.875 0-11.469 4.734-17.828 4.735-6.344 13.328-6.344 8.641 0 13.375 6.344 4.735 6.36 4.735 17.828 0 11.531-4.735 17.875-4.734 6.344-13.375 6.344zm0 13.625q17.578 0 27.532-10.063 9.968-10.047 9.968-27.781 0-17.672-9.968-27.734Q60.062-1.422 42.484-1.422q-17.53 0-27.515 10.063-9.985 10.062-9.985 27.734 0 17.734 9.985 27.781Q24.953 74.22 42.484 74.22z" id="DejaVuSans-Bold-79"/></defs><use xlink:href="#DejaVuSans-Bold-79"/><use x="85.01" xlink:href="#DejaVuSans-Bold-103"/></g><g transform="matrix(.2 0 0 -.2 513.81 338.528)" id="text_40"><use xlink:href="#DejaVuSans-Bold-84"/><use x="54.963" xlink:href="#DejaVuSans-Bold-99"/></g><g transform="matrix(.2 0 0 -.2 1003.313 524.147)" id="text_41"><use xlink:href="#DejaVuSans-Bold-84"/><use x="68.213" xlink:href="#DejaVuSans-Bold-109"/></g><g transform="matrix(.2 0 0 -.2 510.752 391.562)" id="text_42"><use xlink:href="#DejaVuSans-Bold-82"/><use x="77.002" xlink:href="#DejaVuSans-Bold-101"/></g><g transform="matrix(.2 0 0 -.2 235.652 179.425)" id="text_43"><use xlink:href="#DejaVuSans-Bold-66"/><use x="76.221" xlink:href="#DejaVuSans-Bold-101"/></g><g transform="matrix(.2 0 0 -.2 517.115 577.181)" id="text_44"><defs><path d="M9.188 72.906h18.796V29.203q0-9.031 2.953-12.922 2.954-3.875 9.641-3.875 6.734 0 9.688 3.875 2.953 3.89 2.953 12.922v43.703h18.797V29.203q0-15.484-7.766-23.062-7.75-7.563-23.672-7.563-15.875 0-23.64 7.563-7.75 7.578-7.75 23.062z" id="DejaVuSans-Bold-85"/></defs><use xlink:href="#DejaVuSans-Bold-85"/></g><g transform="matrix(.2 0 0 -.2 347.41 391.562)" id="text_45"><use xlink:href="#DejaVuSans-Bold-72"/><use x="83.691" xlink:href="#DejaVuSans-Bold-102"/></g><g transform="matrix(.2 0 0 -.2 620.488 338.528)" id="text_46"><use xlink:href="#DejaVuSans-Bold-82"/><use x="77.002" xlink:href="#DejaVuSans-Bold-104"/></g><g transform="matrix(.2 0 0 -.2 730.52 391.562)" id="text_47"><use xlink:href="#DejaVuSans-Bold-65"/><use x="77.393" xlink:href="#DejaVuSans-Bold-117"/></g><g transform="matrix(.2 0 0 -.2 565.818 391.562)" id="text_48"><use xlink:href="#DejaVuSans-Bold-79"/><use x="85.01" xlink:href="#DejaVuSans-Bold-115"/></g><g transform="matrix(.2 0 0 -.2 895.245 524.147)" id="text_49"><use xlink:href="#DejaVuSans-Bold-72"/><use x="83.691" xlink:href="#DejaVuSans-Bold-111"/></g><g transform="matrix(.2 0 0 -.2 626.655 391.562)" id="text_50"><defs><path d="M9.188 72.906h18.796V0H9.187z" id="DejaVuSans-Bold-73"/></defs><use xlink:href="#DejaVuSans-Bold-73"/><use x="37.207" xlink:href="#DejaVuSans-Bold-114"/></g><g transform="matrix(.2 0 0 -.2 678.545 285.493)" id="text_51"><defs><path d="M8.406 54.688h17.469V0H8.406zm0 21.296h17.469V61.72H8.406z" id="DejaVuSans-Bold-105"/></defs><use xlink:href="#DejaVuSans-Bold-78"/><use x="83.691" xlink:href="#DejaVuSans-Bold-105"/></g><g transform="matrix(.2 0 0 -.2 565.452 338.528)" id="text_52"><use xlink:href="#DejaVuSans-Bold-82"/><use x="77.002" xlink:href="#DejaVuSans-Bold-117"/></g><g transform="matrix(.2 0 0 -.2 459.17 391.562)" id="text_53"><defs><path d="M2.984 72.906H21l12.594-52.984 12.5 52.984h18.11l12.5-52.984 12.609 52.984h17.859L89.984 0H68.313L55.078 55.422 42 0H20.312z" id="DejaVuSans-Bold-87"/></defs><use xlink:href="#DejaVuSans-Bold-87"/></g><g transform="matrix(.2 0 0 -.2 401.223 577.181)" id="text_54"><use xlink:href="#DejaVuSans-Bold-84"/><use x="68.213" xlink:href="#DejaVuSans-Bold-104"/></g><g transform="matrix(.2 0 0 -.2 678.233 391.562)" id="text_55"><use xlink:href="#DejaVuSans-Bold-80"/><use x="73.291" xlink:href="#DejaVuSans-Bold-116"/></g><g transform="matrix(.2 0 0 -.2 786.433 524.147)" id="text_56"><use xlink:href="#DejaVuSans-Bold-84"/><use x="68.213" xlink:href="#DejaVuSans-Bold-98"/></g><g transform="matrix(.2 0 0 -.2 1117.136 524.147)" id="text_57"><use xlink:href="#DejaVuSans-Bold-76"/><use x="63.721" xlink:href="#DejaVuSans-Bold-117"/></g><g transform="matrix(.2 0 0 -.2 621.097 285.493)" id="text_58"><use xlink:href="#DejaVuSans-Bold-67"/><use x="73.389" xlink:href="#DejaVuSans-Bold-111"/></g><g transform="matrix(.2 0 0 -.2 953.758 524.147)" id="text_59"><use xlink:href="#DejaVuSans-Bold-69"/><use x="68.311" xlink:href="#DejaVuSans-Bold-114"/></g><g transform="matrix(.2 0 0 -.2 675.854 338.528)" id="text_60"><use xlink:href="#DejaVuSans-Bold-80"/><use x="73.291" xlink:href="#DejaVuSans-Bold-100"/></g><g transform="matrix(.2 0 0 -.2 457.93 285.493)" id="text_61"><use xlink:href="#DejaVuSans-Bold-67"/><use x="73.389" xlink:href="#DejaVuSans-Bold-114"/></g><g transform="matrix(.2 0 0 -.2 347.945 338.528)" id="text_62"><defs><path d="M5.61 72.906h61.28V61.531L27.782 14.203h40.235V0H4.5v11.375l39.11 47.313h-38z" id="DejaVuSans-Bold-90"/></defs><use xlink:href="#DejaVuSans-Bold-90"/><use x="72.51" xlink:href="#DejaVuSans-Bold-114"/></g><g transform="matrix(.2 0 0 -.2 840.628 523.99)" id="text_63"><defs><path d="M1.219 54.688h17.484l14.703-37.11 12.5 37.11h17.469l-23-59.86q-3.453-9.14-8.078-12.765-4.61-3.641-12.172-3.641h-10.11v11.469h5.47q4.437 0 6.453 1.421 2.03 1.407 3.156 5.079l.5 1.515z" id="DejaVuSans-Bold-121"/></defs><use xlink:href="#DejaVuSans-Bold-68"/><use x="83.008" xlink:href="#DejaVuSans-Bold-121"/></g><g transform="matrix(.2 0 0 -.2 509.709 524.147)" id="text_64"><use xlink:href="#DejaVuSans-Bold-78"/><use x="83.691" xlink:href="#DejaVuSans-Bold-100"/></g><g transform="matrix(.2 0 0 -.2 291.963 285.493)" id="text_65"><use xlink:href="#DejaVuSans-Bold-83"/><use x="72.021" xlink:href="#DejaVuSans-Bold-99"/></g><g transform="matrix(.2 0 0 -.2 457.939 524.147)" id="text_66"><use xlink:href="#DejaVuSans-Bold-80"/><use x="73.291" xlink:href="#DejaVuSans-Bold-114"/></g><g transform="matrix(.2 0 0 -.2 232.948 232.303)" id="text_67"><use xlink:href="#DejaVuSans-Bold-77"/><use x="99.512" xlink:href="#DejaVuSans-Bold-103"/></g><g transform="matrix(.2 0 0 -.2 1061.193 524.147)" id="text_68"><defs><path d="M-.984 72.906h20.562l16.61-25.984L52.78 72.906h20.61L45.609 30.72V0H26.812v30.719z" id="DejaVuSans-Bold-89"/></defs><use xlink:href="#DejaVuSans-Bold-89"/><use x="72.412" xlink:href="#DejaVuSans-Bold-98"/></g><g transform="matrix(.2 0 0 -.2 567.057 285.493)" id="text_69"><use xlink:href="#DejaVuSans-Bold-70"/><use x="64.311" xlink:href="#DejaVuSans-Bold-101"/></g><g transform="matrix(.2 0 0 -.2 401.042 524.147)" id="text_70"><use xlink:href="#DejaVuSans-Bold-67"/><use x="73.389" xlink:href="#DejaVuSans-Bold-101"/></g><g transform="matrix(.2 0 0 -.2 349.878 285.493)" id="text_71"><use xlink:href="#DejaVuSans-Bold-84"/><use x="68.213" xlink:href="#DejaVuSans-Bold-105"/></g><g transform="matrix(.2 0 0 -.2 235.97 285.493)" id="text_72"><use xlink:href="#DejaVuSans-Bold-67"/><use x="73.389" xlink:href="#DejaVuSans-Bold-97"/></g><g transform="matrix(.2 0 0 -.2 508.165 285.493)" id="text_73"><use xlink:href="#DejaVuSans-Bold-77"/><use x="99.512" xlink:href="#DejaVuSans-Bold-110"/></g><g transform="matrix(.2 0 0 -.2 453.378 338.528)" id="text_74"><use xlink:href="#DejaVuSans-Bold-77"/><use x="99.512" xlink:href="#DejaVuSans-Bold-111"/></g><g transform="matrix(.2 0 0 -.2 730.012 524.147)" id="text_75"><defs><path d="M74.703 5.422Q67.672 2 60.11.282q-7.562-1.704-15.625-1.704-18.218 0-28.859 10.188-10.64 10.187-10.64 27.609 0 17.625 10.828 27.734 10.843 10.11 29.703 10.11 7.265 0 13.922-1.375 6.671-1.36 12.578-4.047V53.719q-6.094 3.453-12.125 5.156-6.032 1.719-12.094 1.719-11.219 0-17.297-6.282-6.078-6.265-6.078-17.937 0-11.563 5.86-17.875 5.859-6.297 16.64-6.297 2.937 0 5.453.36 2.516.374 4.516 1.156v14.156H45.406v12.61h29.297z" id="DejaVuSans-Bold-71"/></defs><use xlink:href="#DejaVuSans-Bold-71"/><use x="82.08" xlink:href="#DejaVuSans-Bold-100"/></g><g transform="matrix(.2 0 0 -.2 399.637 338.528)" id="text_76"><use xlink:href="#DejaVuSans-Bold-78"/><use x="83.691" xlink:href="#DejaVuSans-Bold-98"/></g><g transform="matrix(.2 0 0 -.2 237.924 338.528)" id="text_77"><use xlink:href="#DejaVuSans-Bold-83"/><use x="72.021" xlink:href="#DejaVuSans-Bold-114"/></g><g transform="matrix(.2 0 0 -.2 617.684 524.147)" id="text_78"><use xlink:href="#DejaVuSans-Bold-83"/><use x="72.021" xlink:href="#DejaVuSans-Bold-109"/></g><g transform="matrix(.2 0 0 -.2 407.425 285.493)" id="text_79"><defs><path d="M.484 72.906h18.907l19.328-53.812 19.297 53.812h18.89L49.906 0H27.484z" id="DejaVuSans-Bold-86"/></defs><use xlink:href="#DejaVuSans-Bold-86"/></g><g transform="matrix(.2 0 0 -.2 1063.038 285.493)" id="text_80"><use xlink:href="#DejaVuSans-Bold-66"/><use x="76.221" xlink:href="#DejaVuSans-Bold-114"/></g><g transform="matrix(.2 0 0 -.2 402.881 391.562)" id="text_81"><use xlink:href="#DejaVuSans-Bold-84"/><use x="55.338" xlink:href="#DejaVuSans-Bold-97"/></g><g transform="matrix(.2 0 0 -.2 676.392 524.147)" id="text_82"><use xlink:href="#DejaVuSans-Bold-69"/><use x="68.311" xlink:href="#DejaVuSans-Bold-117"/></g><g transform="matrix(.2 0 0 -.2 844.282 232.46)" id="text_83"><use xlink:href="#DejaVuSans-Bold-65"/><use x="77.393" xlink:href="#DejaVuSans-Bold-108"/></g><use xlink:href="#DejaVuSans-Bold-89" transform="matrix(.2 0 0 -.2 297.852 338.528)" id="text_84"/><g transform="matrix(.2 0 0 -.2 1064.824 232.46)" id="text_85"><use xlink:href="#DejaVuSans-Bold-67"/><use x="73.389" xlink:href="#DejaVuSans-Bold-108"/></g><use xlink:href="#DejaVuSans-Bold-70" transform="matrix(.2 0 0 -.2 1068.76 179.425)" id="text_86"/><g transform="matrix(.2 0 0 -.2 347.008 524.147)" id="text_87"><use xlink:href="#DejaVuSans-Bold-76"/><use x="63.721" xlink:href="#DejaVuSans-Bold-97"/></g><g transform="matrix(.2 0 0 -.2 845.199 391.562)" id="text_88"><use xlink:href="#DejaVuSans-Bold-84"/><use x="68.213" xlink:href="#DejaVuSans-Bold-108"/></g><g transform="matrix(.2 0 0 -.2 899.855 232.46)" id="text_89"><use xlink:href="#DejaVuSans-Bold-83"/><use x="72.021" xlink:href="#DejaVuSans-Bold-105"/></g><g transform="matrix(.2 0 0 -.2 185.221 179.425)" id="text_90"><use xlink:href="#DejaVuSans-Bold-76"/><use x="63.721" xlink:href="#DejaVuSans-Bold-105"/></g><g transform="matrix(.2 0 0 -.2 179.904 232.46)" id="text_91"><use xlink:href="#DejaVuSans-Bold-78"/><use x="83.691" xlink:href="#DejaVuSans-Bold-97"/></g><g transform="matrix(.2 0 0 -.2 180.164 338.528)" id="text_92"><use xlink:href="#DejaVuSans-Bold-82"/><use x="77.002" xlink:href="#DejaVuSans-Bold-98"/></g><g transform="matrix(.2 0 0 -.2 784.887 391.405)" id="text_93"><use xlink:href="#DejaVuSans-Bold-72"/><use x="83.691" xlink:href="#DejaVuSans-Bold-103"/></g><g transform="matrix(.2 0 0 -.2 730.48 338.371)" id="text_94"><use xlink:href="#DejaVuSans-Bold-65"/><use x="77.393" xlink:href="#DejaVuSans-Bold-103"/></g><g transform="matrix(.2 0 0 -.2 786.043 285.493)" id="text_95"><use xlink:href="#DejaVuSans-Bold-90"/><use x="72.51" xlink:href="#DejaVuSans-Bold-110"/></g><g transform="matrix(.2 0 0 -.2 181.73 391.562)" id="text_96"><use xlink:href="#DejaVuSans-Bold-67"/><use x="73.389" xlink:href="#DejaVuSans-Bold-115"/></g><use xlink:href="#DejaVuSans-Bold-72" transform="matrix(.2 0 0 -.2 186.653 126.39)" id="text_97"/><g transform="matrix(.2 0 0 -.2 895.997 391.562)" id="text_98"><use xlink:href="#DejaVuSans-Bold-80"/><use x="73.291" xlink:href="#DejaVuSans-Bold-98"/></g><use xlink:href="#DejaVuSans-Bold-75" transform="matrix(.2 0 0 -.2 187.273 285.493)" id="text_99"/><g transform="matrix(.2 0 0 -.2 896.164 338.528)" id="text_100"><use xlink:href="#DejaVuSans-Bold-83"/><use x="72.021" xlink:href="#DejaVuSans-Bold-110"/></g><g transform="matrix(.2 0 0 -.2 235.687 391.562)" id="text_101"><use xlink:href="#DejaVuSans-Bold-66"/><use x="76.221" xlink:href="#DejaVuSans-Bold-97"/></g><g transform="matrix(.2 0 0 -.2 954.47 391.562)" id="text_102"><use xlink:href="#DejaVuSans-Bold-66"/><use x="76.221" xlink:href="#DejaVuSans-Bold-105"/></g><g transform="matrix(.2 0 0 -.2 785.916 338.528)" id="text_103"><use xlink:href="#DejaVuSans-Bold-67"/><use x="73.389" xlink:href="#DejaVuSans-Bold-100"/></g><g transform="matrix(.2 0 0 -.2 951.83 285.493)" id="text_104"><use xlink:href="#DejaVuSans-Bold-65"/><use x="77.393" xlink:href="#DejaVuSans-Bold-115"/></g><g transform="matrix(.2 0 0 -.2 730.92 285.493)" id="text_105"><use xlink:href="#DejaVuSans-Bold-67"/><use x="73.389" xlink:href="#DejaVuSans-Bold-117"/></g><g transform="matrix(.2 0 0 -.2 895.494 285.493)" id="text_106"><use xlink:href="#DejaVuSans-Bold-71"/><use x="82.08" xlink:href="#DejaVuSans-Bold-101"/></g><use xlink:href="#DejaVuSans-Bold-78" transform="matrix(.2 0 0 -.2 957.151 179.425)" id="text_107"/><g transform="matrix(.2 0 0 -.2 951.16 338.528)" id="text_108"><use xlink:href="#DejaVuSans-Bold-83"/><use x="72.021" xlink:href="#DejaVuSans-Bold-98"/></g><g transform="matrix(.2 0 0 -.2 844.61 338.528)" id="text_109"><use xlink:href="#DejaVuSans-Bold-73"/><use x="37.207" xlink:href="#DejaVuSans-Bold-110"/></g><g transform="matrix(.2 0 0 -.2 840.493 285.493)" id="text_110"><use xlink:href="#DejaVuSans-Bold-71"/><use x="82.08" xlink:href="#DejaVuSans-Bold-97"/></g><use xlink:href="#DejaVuSans-Bold-73" transform="matrix(.2 0 0 -.2 1071.87 338.528)" id="text_111"/><g transform="matrix(.2 0 0 -.2 1008.276 338.528)" id="text_112"><use xlink:href="#DejaVuSans-Bold-84"/><use x="54.963" xlink:href="#DejaVuSans-Bold-101"/></g><use xlink:href="#DejaVuSans-Bold-80" transform="matrix(.2 0 0 -.2 958.19 232.46)" id="text_113"/><use xlink:href="#DejaVuSans-Bold-66" transform="matrix(.2 0 0 -.2 847.827 179.425)" id="text_114"/><use xlink:href="#DejaVuSans-Bold-79" transform="matrix(.2 0 0 -.2 1012.054 179.425)" id="text_115"/><g transform="matrix(.2 0 0 -.2 1006.571 285.493)" id="text_116"><use xlink:href="#DejaVuSans-Bold-83"/><use x="72.021" xlink:href="#DejaVuSans-Bold-101"/></g><use xlink:href="#DejaVuSans-Bold-67" transform="matrix(.2 0 0 -.2 903.145 179.425)" id="text_117"/><use xlink:href="#DejaVuSans-Bold-83" transform="matrix(.2 0 0 -.2 1013.354 232.46)" id="text_118"/><g transform="matrix(.2 0 0 -.2 313.27 235.11)" id="text_119"><defs><path d="M11.719 12.984h16.61V60.11L11.28 56.594V69.39l16.938 3.515h17.875V12.984h16.61V0H11.718z" id="DejaVuSans-Bold-49"/></defs><use xlink:href="#DejaVuSans-Bold-49"/></g><g transform="matrix(.2 0 0 -.2 405.376 235.11)" id="text_120"><defs><path d="M36.813 57.422L16.218 26.906h20.593zm-3.126 15.484h20.907v-46h10.39V13.281h-10.39V0H36.812v13.281H4.5v16.11z" id="DejaVuSans-Bold-52"/></defs><use xlink:href="#DejaVuSans-Bold-49"/><use x="69.58" xlink:href="#DejaVuSans-Bold-52"/></g><g transform="matrix(.2 0 0 -.2 529.206 235.11)" id="text_121"><defs><path d="M46.578 39.313q7.375-1.907 11.203-6.626 3.844-4.703 3.844-11.984 0-10.844-8.313-16.484-8.296-5.64-24.203-5.64-5.625 0-11.265.905-5.64.907-11.157 2.72v14.5q5.282-2.642 10.47-3.985 5.202-1.344 10.234-1.344 7.468 0 11.453 2.578 3.984 2.594 3.984 7.438 0 4.984-4.078 7.547Q34.672 31.5 26.703 31.5h-7.515v12.11h7.906q7.093 0 10.547 2.218 3.468 2.219 3.468 6.766 0 4.187-3.375 6.484-3.359 2.297-9.515 2.297-4.532 0-9.172-1.031-4.64-1.016-9.235-3.016v13.766q5.563 1.562 11.032 2.344 5.468.78 10.75.78 14.203 0 21.25-4.671 7.062-4.656 7.062-14.031 0-6.391-3.375-10.47-3.36-4.077-9.953-5.733z" id="DejaVuSans-Bold-51"/></defs><use xlink:href="#DejaVuSans-Bold-51"/><use x="69.58" xlink:href="#DejaVuSans-Bold-49"/></g><g transform="matrix(.2 0 0 -.2 653.036 235.11)" id="text_122"><defs><path d="M10.016 1.61v13.484q4.484-2.11 8.578-3.156 4.11-1.047 8.11-1.047 8.405 0 13.093 4.656 4.687 4.672 5.516 13.844-3.313-2.438-7.079-3.657-3.765-1.218-8.156-1.218-11.187 0-18.047 6.515-6.86 6.516-6.86 17.157 0 11.78 7.641 18.859 7.641 7.078 20.485 7.078 14.266 0 22.078-9.625 7.813-9.61 7.813-27.188 0-18.078-9.141-28.406Q44.922-1.422 29-1.422q-5.125 0-9.813.766-4.687.75-9.171 2.265zm23.187 35.109q4.938 0 7.422 3.187 2.484 3.203 2.484 9.61 0 6.343-2.484 9.562-2.484 3.234-7.422 3.234-4.937 0-7.422-3.234-2.484-3.219-2.484-9.562 0-6.407 2.484-9.61 2.485-3.187 7.422-3.187z" id="DejaVuSans-Bold-57"/></defs><use xlink:href="#DejaVuSans-Bold-52"/><use x="69.58" xlink:href="#DejaVuSans-Bold-57"/></g><g transform="matrix(.2 0 0 -.2 776.866 235.11)" id="text_123"><defs><path d="M36.188 35.984q-4.938 0-7.407-3.203-2.468-3.187-2.468-9.593 0-6.391 2.468-9.594 2.469-3.188 7.407-3.188 4.968 0 7.437 3.188 2.469 3.203 2.469 9.594 0 6.406-2.469 9.593-2.469 3.203-7.438 3.203zM59.422 71V57.516q-4.64 2.203-8.75 3.25-4.094 1.047-8 1.047-8.39 0-13.078-4.672-4.688-4.657-5.469-13.828 3.219 2.39 6.969 3.578 3.765 1.203 8.218 1.203 11.172 0 18.032-6.547 6.86-6.531 6.86-17.125 0-11.719-7.673-18.781-7.656-7.063-20.547-7.063-14.203 0-22 9.594-7.78 9.61-7.78 27.234 0 18.063 9.108 28.39 9.11 10.329 24.97 10.329 5.03 0 9.765-.781 4.734-.781 9.375-2.344z" id="DejaVuSans-Bold-54"/></defs><use xlink:href="#DejaVuSans-Bold-54"/><use x="69.58" xlink:href="#DejaVuSans-Bold-54"/></g><g transform="matrix(.2 0 0 -.2 449.756 176.695)" id="text_124"><defs><path d="M37.703-13.188H23.187Q15.72-1.124 12.158 9.735 8.593 20.61 8.593 31.297q0 10.703 3.578 21.656 3.594 10.969 11.015 22.922h14.516q-6.25-11.563-9.375-22.625-3.125-11.063-3.125-21.86 0-10.78 3.094-21.874 3.094-11.079 9.406-22.703z" id="DejaVuSans-Bold-40"/><path d="M8.016-13.188q6.25 11.626 9.375 22.704 3.125 11.093 3.125 21.875 0 10.797-3.125 21.859-3.125 11.063-9.375 22.625h14.5q7.422-11.953 11-22.922Q37.109 42 37.109 31.297q0-10.688-3.562-21.563-3.563-10.859-11.031-22.922z" id="DejaVuSans-Bold-41"/></defs><use xlink:href="#DejaVuSans-Bold-108"/><use x="34.277" xlink:href="#DejaVuSans-Bold-111"/><use x="102.979" xlink:href="#DejaVuSans-Bold-103"/><use x="174.561" xlink:href="#DejaVuSans-Bold-40"/><use x="220.264" xlink:href="#DejaVuSans-Bold-69"/><use x="288.574" xlink:href="#DejaVuSans-Bold-108"/><use x="322.852" xlink:href="#DejaVuSans-Bold-101"/><use x="390.674" xlink:href="#DejaVuSans-Bold-109"/><use x="494.873" xlink:href="#DejaVuSans-Bold-101"/><use x="562.695" xlink:href="#DejaVuSans-Bold-110"/><use x="633.887" xlink:href="#DejaVuSans-Bold-116"/><use x="681.689" xlink:href="#DejaVuSans-Bold-32"/><use x="716.504" xlink:href="#DejaVuSans-Bold-82"/><use x="793.506" xlink:href="#DejaVuSans-Bold-97"/><use x="860.986" xlink:href="#DejaVuSans-Bold-116"/><use x="908.789" xlink:href="#DejaVuSans-Bold-105"/><use x="943.066" xlink:href="#DejaVuSans-Bold-111"/><use x="1011.768" xlink:href="#DejaVuSans-Bold-41"/></g><g transform="matrix(.14 0 0 -.14 126.227 515.977)" id="text_125"><defs><path d="M3.516 54.688h17L29.688 17l9.234 37.688h14.594l9.187-37.297 9.219 37.297h17L74.516 0H55.422l-9.234 37.594L37.016 0H17.922z" id="DejaVuSans-Bold-119"/><path d="M11.188 54.688h17.624V35.797H11.188zm0-35.797h17.624V0H11.188z" id="DejaVuSans-Bold-58"/></defs><use xlink:href="#DejaVuSans-Bold-121"/><use x="65.186" xlink:href="#DejaVuSans-Bold-101"/><use x="133.008" xlink:href="#DejaVuSans-Bold-108"/><use x="167.285" xlink:href="#DejaVuSans-Bold-108"/><use x="201.563" xlink:href="#DejaVuSans-Bold-111"/><use x="270.264" xlink:href="#DejaVuSans-Bold-119"/><use x="362.646" xlink:href="#DejaVuSans-Bold-58"/><use x="402.637" xlink:href="#DejaVuSans-Bold-32"/><use x="437.451" xlink:href="#DejaVuSans-Bold-110"/><use x="508.643" xlink:href="#DejaVuSans-Bold-111"/><use x="577.344" xlink:href="#DejaVuSans-Bold-116"/><use x="625.146" xlink:href="#DejaVuSans-Bold-32"/><use x="659.961" xlink:href="#DejaVuSans-Bold-105"/><use x="694.238" xlink:href="#DejaVuSans-Bold-110"/><use x="765.43" xlink:href="#DejaVuSans-Bold-32"/><use x="800.244" xlink:href="#DejaVuSans-Bold-102"/><use x="843.75" xlink:href="#DejaVuSans-Bold-105"/><use x="878.027" xlink:href="#DejaVuSans-Bold-114"/><use x="927.344" xlink:href="#DejaVuSans-Bold-115"/><use x="986.865" xlink:href="#DejaVuSans-Bold-116"/><use x="1034.668" xlink:href="#DejaVuSans-Bold-32"/><use x="1069.482" xlink:href="#DejaVuSans-Bold-108"/><use x="1103.76" xlink:href="#DejaVuSans-Bold-105"/><use x="1138.037" xlink:href="#DejaVuSans-Bold-115"/><use x="1197.559" xlink:href="#DejaVuSans-Bold-116"/></g><g transform="matrix(.14 0 0 -.14 126.227 542.494)" id="text_126"><use xlink:href="#DejaVuSans-Bold-111"/><use x="68.701" xlink:href="#DejaVuSans-Bold-114"/><use x="118.018" xlink:href="#DejaVuSans-Bold-97"/><use x="185.498" xlink:href="#DejaVuSans-Bold-110"/><use x="256.689" xlink:href="#DejaVuSans-Bold-103"/><use x="328.271" xlink:href="#DejaVuSans-Bold-101"/><use x="396.094" xlink:href="#DejaVuSans-Bold-58"/><use x="436.084" xlink:href="#DejaVuSans-Bold-32"/><use x="470.898" xlink:href="#DejaVuSans-Bold-110"/><use x="542.09" xlink:href="#DejaVuSans-Bold-111"/><use x="610.791" xlink:href="#DejaVuSans-Bold-116"/><use x="658.594" xlink:href="#DejaVuSans-Bold-32"/><use x="693.408" xlink:href="#DejaVuSans-Bold-105"/><use x="727.686" xlink:href="#DejaVuSans-Bold-110"/><use x="798.877" xlink:href="#DejaVuSans-Bold-32"/><use x="833.691" xlink:href="#DejaVuSans-Bold-115"/><use x="893.213" xlink:href="#DejaVuSans-Bold-101"/><use x="961.035" xlink:href="#DejaVuSans-Bold-99"/><use x="1020.313" xlink:href="#DejaVuSans-Bold-111"/><use x="1089.014" xlink:href="#DejaVuSans-Bold-110"/><use x="1160.205" xlink:href="#DejaVuSans-Bold-100"/><use x="1231.787" xlink:href="#DejaVuSans-Bold-32"/><use x="1266.602" xlink:href="#DejaVuSans-Bold-108"/><use x="1300.879" xlink:href="#DejaVuSans-Bold-105"/><use x="1335.156" xlink:href="#DejaVuSans-Bold-115"/><use x="1394.678" xlink:href="#DejaVuSans-Bold-116"/></g><g transform="matrix(.14 0 0 -.14 126.227 569.01)" id="text_127"><use xlink:href="#DejaVuSans-Bold-103"/><use x="71.582" xlink:href="#DejaVuSans-Bold-114"/><use x="120.898" xlink:href="#DejaVuSans-Bold-97"/><use x="185.254" xlink:href="#DejaVuSans-Bold-121"/><use x="250.439" xlink:href="#DejaVuSans-Bold-58"/><use x="290.43" xlink:href="#DejaVuSans-Bold-32"/><use x="325.244" xlink:href="#DejaVuSans-Bold-110"/><use x="396.436" xlink:href="#DejaVuSans-Bold-111"/><use x="465.137" xlink:href="#DejaVuSans-Bold-116"/><use x="512.939" xlink:href="#DejaVuSans-Bold-32"/><use x="547.754" xlink:href="#DejaVuSans-Bold-105"/><use x="582.031" xlink:href="#DejaVuSans-Bold-110"/><use x="653.223" xlink:href="#DejaVuSans-Bold-32"/><use x="688.037" xlink:href="#DejaVuSans-Bold-101"/><use x="755.859" xlink:href="#DejaVuSans-Bold-105"/><use x="790.137" xlink:href="#DejaVuSans-Bold-116"/><use x="837.939" xlink:href="#DejaVuSans-Bold-104"/><use x="909.131" xlink:href="#DejaVuSans-Bold-101"/><use x="976.953" xlink:href="#DejaVuSans-Bold-114"/></g></g></g><defs><clipPath id="p1907294a39"><path d="M162 86.4h1004.4V630H162z"/></clipPath></defs></svg>