<svg xmlns="http://www.w3.org/2000/svg" xmlns:xlink="http://www.w3.org/1999/xlink" width="670.808" height="601.001" viewBox="0 0 503.106 450.751"><defs><style>*{stroke-linecap:butt;stroke-linejoin:round}</style></defs><g id="figure_1"><path id="patch_1" fill="none" d="M0 450.751h503.106V0H0z"/><g id="axes_1"><path id="patch_2" fill="#fff" d="M49.506 388.295h446.4V7.775h-446.4z"/><path id="patch_3" fill="#1f77b4" stroke="#000" d="M69.797 388.295h11.595v-1.28H69.797z" clip-path="url(#p9397b36ac2)"/><path id="patch_4" fill="#1f77b4" stroke="#000" d="M81.392 388.295h11.595-11.595z" clip-path="url(#p9397b36ac2)"/><path id="patch_5" fill="#1f77b4" stroke="#000" d="M92.987 388.295h11.595v-1.28H92.987z" clip-path="url(#p9397b36ac2)"/><path id="patch_6" fill="#1f77b4" stroke="#000" d="M104.582 388.295h11.594v-2.561h-11.594z" clip-path="url(#p9397b36ac2)"/><path id="patch_7" fill="#1f77b4" stroke="#000" d="M116.176 388.295h11.595-11.595z" clip-path="url(#p9397b36ac2)"/><path id="patch_8" fill="#1f77b4" stroke="#000" d="M127.771 388.295h11.595v-8.964h-11.595z" clip-path="url(#p9397b36ac2)"/><path id="patch_9" fill="#1f77b4" stroke="#000" d="M139.366 388.295h11.595v-14.086h-11.595z" clip-path="url(#p9397b36ac2)"/><path id="patch_10" fill="#1f77b4" stroke="#000" d="M150.96 388.295h11.596v-20.49H150.96z" clip-path="url(#p9397b36ac2)"/><path id="patch_11" fill="#1f77b4" stroke="#000" d="M162.556 388.295h11.594v-23.05h-11.594z" clip-path="url(#p9397b36ac2)"/><path id="patch_12" fill="#1f77b4" stroke="#000" d="M174.15 388.295h11.595v-49.942H174.15z" clip-path="url(#p9397b36ac2)"/><path id="patch_13" fill="#1f77b4" stroke="#000" d="M185.745 388.295h11.595v-72.992h-11.595z" clip-path="url(#p9397b36ac2)"/><path id="patch_14" fill="#1f77b4" stroke="#000" d="M197.34 388.295h11.595V205.174H197.34z" clip-path="url(#p9397b36ac2)"/><path id="patch_15" fill="#1f77b4" stroke="#000" d="M208.935 388.295h11.595v-362.4h-11.595z" clip-path="url(#p9397b36ac2)"/><path id="patch_16" fill="#1f77b4" stroke="#000" d="M220.53 388.295h11.594V266.64H220.53z" clip-path="url(#p9397b36ac2)"/><path id="patch_17" fill="#1f77b4" stroke="#000" d="M232.124 388.295h11.595v-46.1h-11.595z" clip-path="url(#p9397b36ac2)"/><path id="patch_18" fill="#1f77b4" stroke="#000" d="M243.72 388.295h11.594v-29.453h-11.595z" clip-path="url(#p9397b36ac2)"/><path id="patch_19" fill="#1f77b4" stroke="#000" d="M255.314 388.295h11.595v-19.209h-11.595z" clip-path="url(#p9397b36ac2)"/><path id="patch_20" fill="#1f77b4" stroke="#000" d="M266.909 388.295h11.595V378.05h-11.595z" clip-path="url(#p9397b36ac2)"/><path id="patch_21" fill="#1f77b4" stroke="#000" d="M278.504 388.295h11.594v-8.964h-11.594z" clip-path="url(#p9397b36ac2)"/><path id="patch_22" fill="#1f77b4" stroke="#000" d="M290.098 388.295h11.595v-5.122h-11.595z" clip-path="url(#p9397b36ac2)"/><path id="patch_23" fill="#1f77b4" stroke="#000" d="M301.693 388.295h11.595v-5.122h-11.595z" clip-path="url(#p9397b36ac2)"/><path id="patch_24" fill="#1f77b4" stroke="#000" d="M313.288 388.295h11.595v-2.561h-11.595z" clip-path="url(#p9397b36ac2)"/><path id="patch_25" fill="#1f77b4" stroke="#000" d="M324.883 388.295h11.595v-1.28h-11.595z" clip-path="url(#p9397b36ac2)"/><path id="patch_26" fill="#1f77b4" stroke="#000" d="M336.478 388.295h11.594-11.594z" clip-path="url(#p9397b36ac2)"/><path id="patch_27" fill="#1f77b4" stroke="#000" d="M348.072 388.295h11.595-11.595z" clip-path="url(#p9397b36ac2)"/><path id="patch_28" fill="#1f77b4" stroke="#000" d="M359.667 388.295h11.595v-1.28h-11.595z" clip-path="url(#p9397b36ac2)"/><path id="patch_29" fill="#1f77b4" stroke="#000" d="M371.262 388.295h11.595v-2.561h-11.595z" clip-path="url(#p9397b36ac2)"/><path id="patch_30" fill="#1f77b4" stroke="#000" d="M382.857 388.295h11.595-11.595z" clip-path="url(#p9397b36ac2)"/><path id="patch_31" fill="#1f77b4" stroke="#000" d="M394.452 388.295h11.595-11.595z" clip-path="url(#p9397b36ac2)"/><path id="patch_32" fill="#1f77b4" stroke="#000" d="M406.047 388.295h11.594-11.594z" clip-path="url(#p9397b36ac2)"/><path id="patch_33" fill="#1f77b4" stroke="#000" d="M417.641 388.295h11.595-11.595z" clip-path="url(#p9397b36ac2)"/><path id="patch_34" fill="#1f77b4" stroke="#000" d="M429.236 388.295h11.595-11.595z" clip-path="url(#p9397b36ac2)"/><path id="patch_35" fill="#1f77b4" stroke="#000" d="M440.83 388.295h11.596v-1.28H440.83z" clip-path="url(#p9397b36ac2)"/><path id="patch_36" fill="#1f77b4" stroke="#000" d="M452.426 388.295h11.595v-1.28h-11.595z" clip-path="url(#p9397b36ac2)"/><path id="patch_37" fill="#1f77b4" stroke="#000" d="M464.02 388.295h11.595v-1.28h-11.594z" clip-path="url(#p9397b36ac2)"/><g id="matplotlib.axis_1"><g id="xtick_1"><g id="line2d_1"><defs><path id="m34763b3ce9" stroke="#000" stroke-width="2.5" d="M0 0v7"/></defs><use xlink:href="#m34763b3ce9" x="58.981" y="388.295" stroke="#000" stroke-width="2.5"/></g><g id="text_1" transform="matrix(.2 0 0 -.2 44.24 413.992)"><defs><path id="DejaVuSans-8722" d="M10.594 35.5h62.593v-8.297H10.594z"/><path id="DejaVuSans-50" d="M19.188 8.297h34.421V0H7.33v8.297q5.609 5.812 15.296 15.594 9.703 9.797 12.188 12.64 4.734 5.313 6.609 9 1.89 3.688 1.89 7.25 0 5.813-4.078 9.469-4.078 3.672-10.625 3.672-4.64 0-9.797-1.61-5.14-1.609-11-4.89v9.969Q13.767 71.78 18.938 73q5.188 1.219 9.485 1.219 11.328 0 18.062-5.672 6.735-5.656 6.735-15.125 0-4.5-1.688-8.531-1.672-4.016-6.125-9.485-1.218-1.422-7.765-8.187-6.532-6.766-18.453-18.922z"/></defs><use xlink:href="#DejaVuSans-8722"/><use xlink:href="#DejaVuSans-50" x="83.789"/></g></g><g id="xtick_2"><use xlink:href="#m34763b3ce9" id="line2d_2" x="136.402" y="388.295" stroke="#000" stroke-width="2.5"/><g id="text_2" transform="matrix(.2 0 0 -.2 121.66 413.992)"><defs><path id="DejaVuSans-49" d="M12.406 8.297h16.11v55.625l-17.532-3.516v8.985l17.438 3.515h9.86V8.296H54.39V0H12.406z"/></defs><use xlink:href="#DejaVuSans-8722"/><use xlink:href="#DejaVuSans-49" x="83.789"/></g></g><g id="xtick_3"><use xlink:href="#m34763b3ce9" id="line2d_3" x="213.822" y="388.295" stroke="#000" stroke-width="2.5"/><g id="text_3" transform="matrix(.2 0 0 -.2 207.46 413.992)"><defs><path id="DejaVuSans-48" d="M31.781 66.406q-7.61 0-11.453-7.5Q16.5 51.422 16.5 36.375q0-14.984 3.828-22.484 3.844-7.5 11.453-7.5 7.672 0 11.5 7.5 3.844 7.5 3.844 22.484 0 15.047-3.844 22.531-3.828 7.5-11.5 7.5zm0 7.813q12.266 0 18.735-9.703 6.468-9.688 6.468-28.141 0-18.406-6.468-28.11-6.47-9.687-18.735-9.687-12.25 0-18.718 9.688-6.47 9.703-6.47 28.109 0 18.453 6.47 28.14Q19.53 74.22 31.78 74.22z"/></defs><use xlink:href="#DejaVuSans-48"/></g></g><g id="xtick_4"><use xlink:href="#m34763b3ce9" id="line2d_4" x="291.243" y="388.295" stroke="#000" stroke-width="2.5"/><use xlink:href="#DejaVuSans-49" id="text_4" transform="matrix(.2 0 0 -.2 284.88 413.992)"/></g><g id="xtick_5"><use xlink:href="#m34763b3ce9" id="line2d_5" x="368.664" y="388.295" stroke="#000" stroke-width="2.5"/><use xlink:href="#DejaVuSans-50" id="text_5" transform="matrix(.2 0 0 -.2 362.301 413.992)"/></g><g id="xtick_6"><use xlink:href="#m34763b3ce9" id="line2d_6" x="446.084" y="388.295" stroke="#000" stroke-width="2.5"/><g id="text_6" transform="matrix(.2 0 0 -.2 439.722 413.992)"><defs><path id="DejaVuSans-51" d="M40.578 39.313Q47.656 37.797 51.625 33q3.984-4.781 3.984-11.813 0-10.78-7.422-16.703-7.421-5.906-21.093-5.906-4.578 0-9.438.906-4.86.907-10.031 2.72v9.515q4.094-2.39 8.969-3.61 4.89-1.218 10.218-1.218 9.266 0 14.125 3.656 4.86 3.656 4.86 10.64 0 6.454-4.516 10.079-4.515 3.64-12.562 3.64h-8.5v8.11h8.89q7.266 0 11.125 2.906 3.86 2.906 3.86 8.375 0 5.61-3.985 8.61-3.968 3.015-11.39 3.015-4.063 0-8.703-.89-4.641-.876-10.203-2.72v8.782q5.624 1.562 10.53 2.344 4.907.78 9.25.78 11.235 0 17.766-5.109 6.547-5.093 6.547-13.78 0-6.063-3.468-10.235-3.47-4.172-9.86-5.782z"/></defs><use xlink:href="#DejaVuSans-51"/></g></g><g id="text_7" transform="matrix(.2 0 0 -.2 164.806 437.351)"><defs><path id="DejaVuSans-82" d="M44.39 34.188q3.172-1.079 6.172-4.594 3-3.516 6.032-9.672L66.609 0H56l-9.313 18.703q-3.624 7.328-7.015 9.719-3.39 2.39-9.25 2.39h-10.75V0h-9.86v72.906h22.266q12.5 0 18.656-5.234 6.157-5.219 6.157-15.766 0-6.89-3.203-11.437-3.204-4.532-9.297-6.282zM19.673 64.797V38.922h12.406q7.125 0 10.766 3.297 3.64 3.297 3.64 9.687 0 6.39-3.64 9.64-3.64 3.25-10.766 3.25z"/><path id="DejaVuSans-101" d="M56.203 29.594v-4.39H14.891q.593-9.282 5.593-14.142 5-4.859 13.938-4.859 5.172 0 10.031 1.266 4.86 1.265 9.656 3.812v-8.5Q49.266.734 44.187-.344 39.11-1.422 33.892-1.422q-13.094 0-20.735 7.61-7.64 7.625-7.64 20.625 0 13.421 7.25 21.296Q20.016 56 32.328 56q11.031 0 17.453-7.11 6.422-7.093 6.422-19.296zm-8.984 2.64q-.094 7.36-4.125 11.75-4.032 4.407-10.672 4.407-7.516 0-12.031-4.25-4.516-4.25-5.203-11.97z"/><path id="DejaVuSans-115" d="M44.281 53.078v-8.5q-3.797 1.953-7.906 2.922-4.094.984-8.5.984-6.688 0-10.031-2.047-3.344-2.046-3.344-6.156 0-3.125 2.39-4.906 2.391-1.781 9.626-3.39l3.078-.688q9.562-2.047 13.593-5.781 4.032-3.735 4.032-10.422 0-7.625-6.032-12.078-6.03-4.438-16.578-4.438-4.39 0-9.156.86Q10.688.296 5.422 2v9.281q4.984-2.594 9.812-3.89 4.829-1.282 9.579-1.282 6.343 0 9.75 2.172 3.421 2.172 3.421 6.125 0 3.656-2.468 5.61-2.453 1.953-10.813 3.765l-3.125.735q-8.344 1.75-12.062 5.39-3.704 3.64-3.704 9.985 0 7.718 5.47 11.906Q16.75 56 26.811 56q4.97 0 9.36-.734 4.406-.72 8.11-2.188z"/><path id="DejaVuSans-105" d="M9.422 54.688h8.984V0H9.422zm0 21.296h8.984v-11.39H9.422z"/><path id="DejaVuSans-100" d="M45.406 46.39v29.594h8.985V0h-8.985v8.203Q42.578 3.328 38.25.953q-4.313-2.375-10.375-2.375-9.906 0-16.14 7.906-6.22 7.922-6.22 20.813 0 12.89 6.22 20.797Q17.968 56 27.874 56q6.063 0 10.375-2.375 4.328-2.36 7.156-7.234zm-30.61-19.093q0-9.906 4.079-15.547 4.078-5.64 11.203-5.64 7.125 0 11.219 5.64 4.11 5.64 4.11 15.547 0 9.906-4.11 15.547-4.094 5.64-11.219 5.64-7.125 0-11.203-5.64-4.078-5.64-4.078-15.547z"/><path id="DejaVuSans-117" d="M8.5 21.578v33.11h8.984V21.922q0-7.766 3.016-11.656 3.031-3.875 9.094-3.875 7.265 0 11.484 4.64 4.234 4.64 4.234 12.656v31h8.985V0h-8.984v8.406Q42.047 3.422 37.718 1q-4.313-2.422-10.032-2.422-9.421 0-14.312 5.86Q8.5 10.296 8.5 21.578zM31.11 56z"/><path id="DejaVuSans-97" d="M34.281 27.484q-10.89 0-15.093-2.484-4.204-2.484-4.204-8.5 0-4.781 3.157-7.594 3.156-2.797 8.562-2.797 7.485 0 12 5.297 4.516 5.297 4.516 14.078v2zm17.922 3.72V0H43.22v8.297Q40.14 3.328 35.547.953q-4.594-2.375-11.234-2.375-8.391 0-13.36 4.719Q6 8.016 6 15.922q0 9.219 6.172 13.906 6.187 4.688 18.437 4.688h12.61v.89q0 6.203-4.078 9.594-4.078 3.39-11.453 3.39-4.688 0-9.141-1.124-4.438-1.125-8.531-3.375v8.312q4.921 1.906 9.562 2.844 4.64.953 9.031.953 11.875 0 17.735-6.156 5.86-6.14 5.86-18.64z"/><path id="DejaVuSans-108" d="M9.422 75.984h8.984V0H9.422z"/><path id="DejaVuSans-40" d="M31 75.875q-6.531-11.219-9.719-22.219-3.172-10.984-3.172-22.265 0-11.266 3.203-22.328Q24.517-2 31-13.188h-7.813Q15.875-1.704 12.235 9.375q-3.64 11.078-3.64 22.016 0 10.89 3.61 21.922 3.624 11.046 10.983 22.562z"/><path id="DejaVuSans-Oblique-121" d="M24.813-5.078q-6.25-10.5-10.188-13.11-3.938-2.609-10.031-2.609h-7.078l1.5 7.516h5.187q3.75 0 6.39 2.047Q13.235-9.188 16.5-3.22L19.281 2 7.171 54.688h9.532l9.078-41.891 25.094 41.89h9.422z"/><path id="DejaVuSans-116" d="M18.313 70.219V54.688h18.5v-6.985h-18.5V18.016q0-6.688 1.828-8.594 1.828-1.906 7.453-1.906h9.218V0h-9.218q-10.407 0-14.36 3.875-3.953 3.89-3.953 14.14v29.688H2.687v6.984h6.594V70.22z"/><path id="DejaVuSans-112" d="M18.11 8.203v-29H9.077v75.484h9.031v-8.296q2.844 4.875 7.157 7.234Q29.594 56 35.594 56q9.968 0 16.187-7.906 6.235-7.907 6.235-20.797T51.78 6.484q-6.218-7.906-16.187-7.906-6 0-10.328 2.375-4.313 2.375-7.157 7.25zm30.578 19.094q0 9.906-4.079 15.547-4.078 5.64-11.203 5.64-7.14 0-11.218-5.64-4.079-5.64-4.079-15.547 0-9.906 4.078-15.547 4.079-5.64 11.22-5.64 7.124 0 11.202 5.64t4.078 15.547z"/><path id="DejaVuSans-114" d="M41.11 46.297q-1.516.875-3.297 1.281Q36.03 48 33.89 48q-7.625 0-11.703-4.953-4.079-4.953-4.079-14.234V0H9.08v54.688h9.03v-8.5q2.844 4.984 7.375 7.39Q30.031 56 36.531 56q.922 0 2.047-.125 1.125-.11 2.484-.36z"/><path id="DejaVuSans-41" d="M8.016 75.875h7.812q7.313-11.516 10.953-22.563 3.64-11.03 3.64-21.921 0-10.938-3.64-22.016-3.64-11.078-10.953-22.563H8.016Q14.5-2 17.703 9.063q3.203 11.063 3.203 22.329 0 11.28-3.203 22.265-3.203 11-9.687 22.219z"/></defs><use xlink:href="#DejaVuSans-82" transform="translate(0 .016)"/><use xlink:href="#DejaVuSans-101" transform="translate(69.482 .016)"/><use xlink:href="#DejaVuSans-115" transform="translate(131.006 .016)"/><use xlink:href="#DejaVuSans-105" transform="translate(183.105 .016)"/><use xlink:href="#DejaVuSans-100" transform="translate(210.889 .016)"/><use xlink:href="#DejaVuSans-117" transform="translate(274.365 .016)"/><use xlink:href="#DejaVuSans-97" transform="translate(337.744 .016)"/><use xlink:href="#DejaVuSans-108" transform="translate(399.023 .016)"/><use xlink:href="#DejaVuSans-32" transform="translate(426.807 .016)"/><use xlink:href="#DejaVuSans-40" transform="translate(458.594 .016)"/><use xlink:href="#DejaVuSans-Oblique-121" transform="translate(497.607 .016)"/><use xlink:href="#DejaVuSans-116" transform="matrix(.7 0 0 .7 556.787 -16.39)"/><use xlink:href="#DejaVuSans-101" transform="matrix(.7 0 0 .7 584.233 -16.39)"/><use xlink:href="#DejaVuSans-115" transform="matrix(.7 0 0 .7 627.3 -16.39)"/><use xlink:href="#DejaVuSans-116" transform="matrix(.7 0 0 .7 663.77 -16.39)"/><use xlink:href="#DejaVuSans-8722" transform="translate(713.433 .016)"/><use xlink:href="#DejaVuSans-Oblique-121" transform="translate(816.704 .016)"/><use xlink:href="#DejaVuSans-112" transform="matrix(.7 0 0 .7 875.884 -16.39)"/><use xlink:href="#DejaVuSans-114" transform="matrix(.7 0 0 .7 920.317 -16.39)"/><use xlink:href="#DejaVuSans-101" transform="matrix(.7 0 0 .7 949.097 -16.39)"/><use xlink:href="#DejaVuSans-100" transform="matrix(.7 0 0 .7 992.163 -16.39)"/><use xlink:href="#DejaVuSans-41" transform="translate(1039.331 .016)"/></g></g><g id="matplotlib.axis_2"><g id="ytick_1"><g id="line2d_7"><defs><path id="mbb7ac8af58" stroke="#000" stroke-width="2.5" d="M0 0h-7"/></defs><use xlink:href="#mbb7ac8af58" x="49.506" y="388.295" stroke="#000" stroke-width="2.5"/></g><g id="text_8" transform="matrix(.2 0 0 -.2 7.2 395.893)"><defs><path id="DejaVuSans-46" d="M10.688 12.406H21V0H10.687z"/></defs><use xlink:href="#DejaVuSans-48"/><use xlink:href="#DejaVuSans-46" x="63.623"/><use xlink:href="#DejaVuSans-48" x="95.41"/></g></g><g id="ytick_2"><use xlink:href="#mbb7ac8af58" id="line2d_8" x="49.506" y="313.596" stroke="#000" stroke-width="2.5"/><g id="text_9" transform="matrix(.2 0 0 -.2 7.2 321.194)"><defs><path id="DejaVuSans-53" d="M10.797 72.906h38.719v-8.312H19.828v-17.86q2.14.735 4.281 1.094 2.157.36 4.313.36 12.203 0 19.328-6.688 7.14-6.688 7.14-18.11 0-11.765-7.328-18.296-7.328-6.516-20.656-6.516-4.593 0-9.36.781-4.75.782-9.827 2.344v9.922q4.39-2.39 9.078-3.563 4.687-1.171 9.906-1.171 8.453 0 13.375 4.437 4.938 4.438 4.938 12.063 0 7.609-4.938 12.047-4.922 4.453-13.375 4.453-3.953 0-7.89-.875-3.922-.875-8.016-2.735z"/></defs><use xlink:href="#DejaVuSans-48"/><use xlink:href="#DejaVuSans-46" x="63.623"/><use xlink:href="#DejaVuSans-53" x="95.41"/></g></g><g id="ytick_3"><use xlink:href="#mbb7ac8af58" id="line2d_9" x="49.506" y="238.896" stroke="#000" stroke-width="2.5"/><g id="text_10" transform="matrix(.2 0 0 -.2 7.2 246.495)"><use xlink:href="#DejaVuSans-49"/><use xlink:href="#DejaVuSans-46" x="63.623"/><use xlink:href="#DejaVuSans-48" x="95.41"/></g></g><g id="ytick_4"><use xlink:href="#mbb7ac8af58" id="line2d_10" x="49.506" y="164.197" stroke="#000" stroke-width="2.5"/><g id="text_11" transform="matrix(.2 0 0 -.2 7.2 171.795)"><use xlink:href="#DejaVuSans-49"/><use xlink:href="#DejaVuSans-46" x="63.623"/><use xlink:href="#DejaVuSans-53" x="95.41"/></g></g><g id="ytick_5"><use xlink:href="#mbb7ac8af58" id="line2d_11" x="49.506" y="89.498" stroke="#000" stroke-width="2.5"/><g id="text_12" transform="matrix(.2 0 0 -.2 7.2 97.096)"><use xlink:href="#DejaVuSans-50"/><use xlink:href="#DejaVuSans-46" x="63.623"/><use xlink:href="#DejaVuSans-48" x="95.41"/></g></g><g id="ytick_6"><use xlink:href="#mbb7ac8af58" id="line2d_12" x="49.506" y="14.798" stroke="#000" stroke-width="2.5"/><g id="text_13" transform="matrix(.2 0 0 -.2 7.2 22.397)"><use xlink:href="#DejaVuSans-50"/><use xlink:href="#DejaVuSans-46" x="63.623"/><use xlink:href="#DejaVuSans-53" x="95.41"/></g></g></g><path id="line2d_13" fill="none" stroke="red" stroke-linecap="square" stroke-width="3" d="m69.797 387.6 4.1.054 4.099.12 4.099.075 4.099-.043 4.099-.131 4.1-.131 4.098-.084 4.1-.098 4.099-.223 4.099-.405 4.1-.579 4.098-.776 4.1-1.057 4.099-1.377 4.099-1.615 4.099-1.749 4.1-1.852 4.098-1.956 4.1-1.992 4.099-1.908 4.099-1.827 4.099-2.102 4.1-3.107 4.098-4.785 4.1-6.51 4.099-7.687 4.099-8.564 4.099-10.474 4.1-15.119 4.098-23.39 4.1-34.197 4.099-43.636 4.099-45.476 4.1-34.41 4.098-10.883 4.1 17.203 4.099 38.929 4.099 47.53 4.099 43.821 4.1 33.68 4.098 23.123 4.1 15.344 4.099 10.651 4.099 7.93 4.099 6.061 4.1 4.55 4.098 3.325 4.1 2.352 4.099 1.599 4.099 1.138 4.099 1.025 4.1 1.116 4.098 1.177 4.1 1.123 4.099 1.001 4.099.84 4.1.636 4.098.452 4.1.366 4.099.38 4.099.434 4.099.498 4.1.562 4.098.58 4.1.504 4.099.345 4.099.173 4.099.027 4.1-.107 4.098-.256 4.1-.4 4.099-.468 4.099-.376 4.099-.122 4.1.19 4.098.417 4.1.47 4.099.374 4.099.227 4.099.109 4.1.04 4.098.012 4.1.003h8.198l4.1-.002 4.098-.01 4.1-.033 4.099-.088 4.099-.182 4.099-.292 4.1-.348 4.098-.279 4.1-.092 4.099.106 4.099.19 4.099.143 4.1.063 4.098.058" clip-path="url(#p9397b36ac2)"/><path id="patch_38" fill="none" stroke="#000" stroke-linecap="square" stroke-width="2.5" d="M49.506 388.295V7.775"/><path id="patch_39" fill="none" stroke="#000" stroke-linecap="square" stroke-width="2.5" d="M495.906 388.295V7.775"/><path id="patch_40" fill="none" stroke="#000" stroke-linecap="square" stroke-width="2.5" d="M49.506 388.295h446.4"/><path id="patch_41" fill="none" stroke="#000" stroke-linecap="square" stroke-width="2.5" d="M49.506 7.775h446.4"/><g id="legend_1"><path id="patch_42" fill="#fff" stroke="#ccc" d="M63.506 53.131h377.731q4 0 4-4V21.775q0-4-4-4H63.507q-4 0-4 4V49.13q0 4 4 4z" opacity=".5"/><path id="line2d_14" fill="none" stroke="red" stroke-linecap="square" stroke-width="3" d="M67.506 33.972h20"/><g id="text_14" transform="matrix(.2 0 0 -.2 103.506 40.972)"><defs><path id="DejaVuSans-71" d="M59.516 10.406v19.578h-16.11v8.11h25.875V6.78Q63.578 2.734 56.687.656 49.813-1.422 42-1.422q-17.094 0-26.75 9.985-9.64 10-9.64 27.812 0 17.875 9.64 27.86 9.656 9.984 26.75 9.984 7.125 0 13.547-1.766 6.422-1.75 11.844-5.172v-10.5q-5.47 4.64-11.625 6.985-6.157 2.343-12.938 2.343-13.39 0-20.11-7.468-6.702-7.47-6.702-22.266 0-14.75 6.703-22.219 6.718-7.469 20.11-7.469 5.218 0 9.312.907 4.109.906 7.375 2.812z"/><path id="DejaVuSans-110" d="M54.89 33.016V0h-8.984v32.719q0 7.765-3.031 11.61-3.031 3.858-9.078 3.858-7.281 0-11.484-4.64-4.204-4.625-4.204-12.64V0H9.08v54.688h9.03v-8.5q3.235 4.937 7.594 7.374Q30.078 56 35.797 56q9.422 0 14.25-5.828 4.844-5.828 4.844-17.156z"/><path id="DejaVuSans-107" d="M9.078 75.984h9.031V31.11l26.813 23.578H56.39l-29-25.578L57.625 0H45.906L18.11 26.703V0H9.08z"/><path id="DejaVuSans-121" d="M32.172-5.078q-3.797-9.766-7.422-12.735-3.61-2.984-9.656-2.984H7.906v7.516h5.282q3.703 0 5.75 1.765Q21-9.766 23.483-3.219l1.61 4.094-22.11 53.813H12.5l17.094-42.766 17.093 42.766h9.516z"/><path id="DejaVuSans-109" d="M52 44.188q3.375 6.062 8.063 8.937Q64.75 56 71.093 56q8.548 0 13.188-5.984 4.64-5.97 4.64-17V0h-9.03v32.719q0 7.86-2.797 11.656-2.781 3.813-8.485 3.813-6.984 0-11.046-4.641-4.047-4.625-4.047-12.64V0h-9.032v32.719q0 7.906-2.78 11.687-2.782 3.782-8.595 3.782-6.89 0-10.953-4.657-4.047-4.656-4.047-12.625V0H9.08v54.688h9.03v-8.5q3.078 5.03 7.375 7.421Q29.781 56 35.687 56q5.97 0 10.141-3.031Q50 49.953 52 44.187z"/></defs><use xlink:href="#DejaVuSans-71"/><use xlink:href="#DejaVuSans-97" x="77.49"/><use xlink:href="#DejaVuSans-117" x="138.77"/><use xlink:href="#DejaVuSans-115" x="202.148"/><use xlink:href="#DejaVuSans-115" x="254.248"/><use xlink:href="#DejaVuSans-105" x="306.348"/><use xlink:href="#DejaVuSans-97" x="334.131"/><use xlink:href="#DejaVuSans-110" x="395.41"/><use xlink:href="#DejaVuSans-32" x="458.789"/><use xlink:href="#DejaVuSans-107" x="490.576"/><use xlink:href="#DejaVuSans-101" x="544.861"/><use xlink:href="#DejaVuSans-114" x="606.385"/><use xlink:href="#DejaVuSans-110" x="645.748"/><use xlink:href="#DejaVuSans-101" x="709.127"/><use xlink:href="#DejaVuSans-108" x="770.65"/><use xlink:href="#DejaVuSans-32" x="798.434"/><use xlink:href="#DejaVuSans-100" x="830.221"/><use xlink:href="#DejaVuSans-101" x="893.697"/><use xlink:href="#DejaVuSans-110" x="955.221"/><use xlink:href="#DejaVuSans-115" x="1018.6"/><use xlink:href="#DejaVuSans-105" x="1070.699"/><use xlink:href="#DejaVuSans-116" x="1098.482"/><use xlink:href="#DejaVuSans-121" x="1137.691"/><use xlink:href="#DejaVuSans-32" x="1196.871"/><use xlink:href="#DejaVuSans-101" x="1228.658"/><use xlink:href="#DejaVuSans-115" x="1290.182"/><use xlink:href="#DejaVuSans-116" x="1342.281"/><use xlink:href="#DejaVuSans-105" x="1381.49"/><use xlink:href="#DejaVuSans-109" x="1409.273"/><use xlink:href="#DejaVuSans-97" x="1506.686"/><use xlink:href="#DejaVuSans-116" x="1567.965"/><use xlink:href="#DejaVuSans-101" x="1607.174"/></g></g></g></g><defs><clipPath id="p9397b36ac2"><path d="M49.506 7.775h446.4v380.52h-446.4z"/></clipPath></defs></svg>