<svg xmlns="http://www.w3.org/2000/svg" width="700" height="500" class="main-svg"><path d="M0 0h700v500H0z" style="fill:#fff;fill-opacity:1"/><g class="sankey" style="box-sizing:content-box;position:absolute;left:0;shape-rendering:geometricprecision;pointer-events:none"><g class="sankey-links" style="fill:none"><path d="M30 13.429C340 13.429 340 0 650 0v15.049c-310 0-310 13.428-620 13.428Zm0 144.221c310 0 310-16.318 620-16.318v14.42c-310 0-310 16.318-620 16.318Zm0 139.044c310 0 310-16.413 620-16.413v11.983c-310 0-310 16.413-620 16.413Zm0-57.061c310 0 310-4.261 620-4.261v10.159c-310 0-310 4.26-620 4.26Zm0-211.156c310 0 310 2.01 620 2.01v9.073c-310 0-310-2.01-620-2.01Zm0 72.522c310 0 310-7.65 620-7.65v8.63c-310 0-310 7.65-620 7.65Zm0 8.63c310 0 310 7.79 620 7.79v8.474c-310 0-310-7.79-620-7.79Zm0 268.091c310 0 310-5.448 620-5.448v8.025c-310 0-310 5.448-620 5.448Z" class="sankey-link" style="stroke:#444;stroke-opacity:1;fill:#000;fill-opacity:.2;stroke-width:0;opacity:1" transform="translate(10 50)"/><path d="M30 308.677c310 0 310-.975 620-.975v7.955c-310 0-310 .975-620 .975Zm0-136.607c310 0 310-.88 620-.88v6.775c-310 0-310 .88-620 .88Zm0 144.562c310 0 310 14.464 620 14.464v6.705c-310 0-310-14.464-620-14.464Zm0-137.787c310 0 310 14.559 620 14.559v5.922c-310 0-310-14.56-620-14.56Zm0 242.198c310 0 310-5.492 620-5.492v5.805c-310 0-310 5.492-620 5.492Z" class="sankey-link" style="stroke:#444;stroke-opacity:1;fill:#000;fill-opacity:.2;stroke-width:0;opacity:1" transform="translate(10 50)"/><path d="M30 184.767c310 0 310 29.997 620 29.997v5.169c-310 0-310-29.998-620-29.998Zm0 200.978c310 0 310 9.99 620 9.99v4.377c-310 0-310-9.99-620-9.99ZM30 37.55c310 0 310 17.448 620 17.448v4.013c-310 0-310-17.449-620-17.449Zm0 212.242c310 0 310 11.177 620 11.177v3.873c-310 0-310-11.178-620-11.178Zm0 73.545c310 0 310 29.903 620 29.903v3.593c-310 0-310-29.902-620-29.902Z" class="sankey-link" style="stroke:#444;stroke-opacity:1;fill:#000;fill-opacity:.2;stroke-width:0;opacity:1" transform="translate(10 50)"/><path d="M30 41.562c310 0 310 32.887 620 32.887v3.462c-310 0-310-32.887-620-32.887Zm0 385.286c310 0 310 9.947 620 9.947V440c-310 0-310-9.947-620-9.947Z" class="sankey-link" style="stroke:#444;stroke-opacity:1;fill:#000;fill-opacity:.2;stroke-width:0;opacity:1" transform="translate(10 50)"/></g><g class="sankey-node-set" style="cursor:move"><g class="sankey-node" style="opacity:1"><path d="M0 0h30v31.595H0z" class="node-rect" style="stroke-width:.5;stroke:#000;stroke-opacity:1;fill:#636efa;fill-opacity:.8" transform="translate(10 63.429)"/><text class="node-label" data-notex="1" style="cursor:default;font-family:&quot;Open Sans&quot;,verdana,arial,sans-serif;font-size:12px;fill:#000;fill-opacity:1;text-shadow:#fff 1px 1px 1px,#fff -1px -1px 1px,#fff 1px -1px 1px,#fff -1px 1px 1px;white-space:pre" transform="translate(43.25 83.426)">Cubic: 21.5%</text></g><g class="sankey-node" style="opacity:1"><path d="M0 0h30v32.286H0z" class="node-rect" style="stroke-width:.5;stroke:#000;stroke-opacity:1;fill:#ef553b;fill-opacity:.8" transform="translate(10 207.65)"/><text class="node-label" data-notex="1" style="cursor:default;font-family:&quot;Open Sans&quot;,verdana,arial,sans-serif;font-size:12px;fill:#000;fill-opacity:1;text-shadow:#fff 1px 1px 1px,#fff -1px -1px 1px,#fff 1px -1px 1px,#fff -1px 1px 1px;white-space:pre" transform="translate(43.25 227.993)">Orthorhombic: 22.0%</text></g><g class="sankey-node" style="opacity:1"><path d="M0 0h30v30.237H0z" class="node-rect" style="stroke-width:.5;stroke:#000;stroke-opacity:1;fill:#00cc96;fill-opacity:.8" transform="translate(10 346.694)"/><text class="node-label" data-notex="1" style="cursor:default;font-family:&quot;Open Sans&quot;,verdana,arial,sans-serif;font-size:12px;fill:#000;fill-opacity:1;text-shadow:#fff 1px 1px 1px,#fff -1px -1px 1px,#fff 1px -1px 1px,#fff -1px 1px 1px;white-space:pre" transform="translate(43.25 366.012)">Monoclinic: 20.6%</text></g><g class="sankey-node" style="opacity:1"><path d="M0 0h30v14.032H0z" class="node-rect" style="stroke-width:.5;stroke:#000;stroke-opacity:1;fill:#ab63fa;fill-opacity:.8" transform="translate(10 289.633)"/><text class="node-label" data-notex="1" style="cursor:default;font-family:&quot;Open Sans&quot;,verdana,arial,sans-serif;font-size:12px;fill:#000;fill-opacity:1;text-shadow:#fff 1px 1px 1px,#fff -1px -1px 1px,#fff 1px -1px 1px,#fff -1px 1px 1px;white-space:pre" transform="translate(43.25 300.849)">Hexagonal: 9.6%</text></g><g class="sankey-node" style="opacity:1"><path d="M0 0h30v17.105H0z" class="node-rect" style="stroke-width:.5;stroke:#000;stroke-opacity:1;fill:#19d3f3;fill-opacity:.8" transform="translate(10 150.999)"/><text class="node-label" data-notex="1" style="cursor:default;font-family:&quot;Open Sans&quot;,verdana,arial,sans-serif;font-size:12px;fill:#000;fill-opacity:1;text-shadow:#fff 1px 1px 1px,#fff -1px -1px 1px,#fff 1px -1px 1px,#fff -1px 1px 1px;white-space:pre" transform="translate(43.25 163.752)">Triclinic: 11.7%</text></g><g class="sankey-node" style="opacity:1"><path d="M0 0h30v12.402H0z" class="node-rect" style="stroke-width:.5;stroke:#000;stroke-opacity:1;fill:#b6e880;fill-opacity:.8" transform="translate(10 427.721)"/><text class="node-label" data-notex="1" style="cursor:default;font-family:&quot;Open Sans&quot;,verdana,arial,sans-serif;font-size:12px;fill:#000;fill-opacity:1;text-shadow:#fff 1px 1px 1px,#fff -1px -1px 1px,#fff 1px -1px 1px,#fff -1px 1px 1px;white-space:pre" transform="translate(43.25 438.122)">Tetragonal: 8.5%</text></g><g class="sankey-node" style="opacity:1"><path d="M0 0h30v9.01H0z" class="node-rect" style="stroke-width:.5;stroke:#000;stroke-opacity:1;fill:#00cc96;fill-opacity:.8" transform="translate(10 471.043)"/><text class="node-label" data-notex="1" style="cursor:default;font-family:&quot;Open Sans&quot;,verdana,arial,sans-serif;font-size:12px;fill:#000;fill-opacity:1;text-shadow:#fff 1px 1px 1px,#fff -1px -1px 1px,#fff 1px -1px 1px,#fff -1px 1px 1px;white-space:pre" transform="translate(43.25 479.748)">Trigonal: 6.1%</text></g><g class="sankey-node" style="opacity:1"><path d="M0 0h30v15.049H0z" class="node-rect" style="stroke-width:.5;stroke:#000;stroke-opacity:1;fill:#636efa;fill-opacity:.8" transform="translate(660 50)"/><text class="node-label" data-notex="1" style="cursor:default;font-family:&quot;Open Sans&quot;,verdana,arial,sans-serif;font-size:12px;fill:#000;fill-opacity:1;text-shadow:#fff 1px 1px 1px,#fff -1px -1px 1px,#fff 1px -1px 1px,#fff -1px 1px 1px;white-space:pre" text-anchor="end" transform="translate(656.75 61.724)">Fm-3m: 10.3%</text></g><g class="sankey-node" style="opacity:1"><path d="M0 0h30v14.42H0z" class="node-rect" style="stroke-width:.5;stroke:#000;stroke-opacity:1;fill:#ef553b;fill-opacity:.8" transform="translate(660 191.332)"/><text class="node-label" data-notex="1" style="cursor:default;font-family:&quot;Open Sans&quot;,verdana,arial,sans-serif;font-size:12px;fill:#000;fill-opacity:1;text-shadow:#fff 1px 1px 1px,#fff -1px -1px 1px,#fff 1px -1px 1px,#fff -1px 1px 1px;white-space:pre" text-anchor="end" transform="translate(656.75 202.742)">Pnma: 9.8%</text></g><g class="sankey-node" style="opacity:1"><path d="M0 0h30v11.983H0z" class="node-rect" style="stroke-width:.5;stroke:#000;stroke-opacity:1;fill:#00cc96;fill-opacity:.8" transform="translate(660 330.281)"/><text class="node-label" data-notex="1" style="cursor:default;font-family:&quot;Open Sans&quot;,verdana,arial,sans-serif;font-size:12px;fill:#000;fill-opacity:1;text-shadow:#fff 1px 1px 1px,#fff -1px -1px 1px,#fff 1px -1px 1px,#fff -1px 1px 1px;white-space:pre" text-anchor="end" transform="translate(656.75 340.472)">P2_1/c: 8.2%</text></g><g class="sankey-node" style="opacity:1"><path d="M0 0h30v10.159H0z" class="node-rect" style="stroke-width:.5;stroke:#000;stroke-opacity:1;fill:#ab63fa;fill-opacity:.8" transform="translate(660 285.372)"/><text class="node-label" data-notex="1" style="cursor:default;font-family:&quot;Open Sans&quot;,verdana,arial,sans-serif;font-size:12px;fill:#000;fill-opacity:1;text-shadow:#fff 1px 1px 1px,#fff -1px -1px 1px,#fff 1px -1px 1px,#fff -1px 1px 1px;white-space:pre" text-anchor="end" transform="translate(656.75 294.652)">P6_3/mmc: 6.9%</text></g><g class="sankey-node" style="opacity:1"><path d="M0 0h30v9.073H0z" class="node-rect" style="stroke-width:.5;stroke:#000;stroke-opacity:1;fill:#ffa15a;fill-opacity:.8" transform="translate(660 80.487)"/><text class="node-label" data-notex="1" style="cursor:default;font-family:&quot;Open Sans&quot;,verdana,arial,sans-serif;font-size:12px;fill:#000;fill-opacity:1;text-shadow:#fff 1px 1px 1px,#fff -1px -1px 1px,#fff 1px -1px 1px,#fff -1px 1px 1px;white-space:pre" text-anchor="end" transform="translate(656.75 89.223)">Pm-3m: 6.2%</text></g><g class="sankey-node" style="opacity:1"><path d="M0 0h30v8.63H0z" class="node-rect" style="stroke-width:.5;stroke:#000;stroke-opacity:1;fill:#19d3f3;fill-opacity:.8" transform="translate(660 143.349)"/><text class="node-label" data-notex="1" style="cursor:default;font-family:&quot;Open Sans&quot;,verdana,arial,sans-serif;font-size:12px;fill:#000;fill-opacity:1;text-shadow:#fff 1px 1px 1px,#fff -1px -1px 1px,#fff 1px -1px 1px,#fff -1px 1px 1px;white-space:pre" text-anchor="end" transform="translate(656.75 151.864)">P1: 5.9%</text></g><g class="sankey-node" style="opacity:1"><path d="M0 0h30v8.475H0z" class="node-rect" style="stroke-width:.5;stroke:#000;stroke-opacity:1;fill:#ff6692;fill-opacity:.8" transform="translate(660 167.418)"/><text class="node-label" data-notex="1" style="cursor:default;font-family:&quot;Open Sans&quot;,verdana,arial,sans-serif;font-size:12px;fill:#000;fill-opacity:1;text-shadow:#fff 1px 1px 1px,#fff -1px -1px 1px,#fff 1px -1px 1px,#fff -1px 1px 1px;white-space:pre" text-anchor="end" transform="translate(656.75 175.855)">P-1: 5.8%</text></g><g class="sankey-node" style="opacity:1"><path d="M0 0h30v8.025H0z" class="node-rect" style="stroke-width:.5;stroke:#000;stroke-opacity:1;fill:#b6e880;fill-opacity:.8" transform="translate(660 422.272)"/><text class="node-label" data-notex="1" style="cursor:default;font-family:&quot;Open Sans&quot;,verdana,arial,sans-serif;font-size:12px;fill:#000;fill-opacity:1;text-shadow:#fff 1px 1px 1px,#fff -1px -1px 1px,#fff 1px -1px 1px,#fff -1px 1px 1px;white-space:pre" text-anchor="end" transform="translate(656.75 430.484)">I4/mmm: 5.5%</text></g><g class="sankey-node" style="opacity:1"><path d="M0 0h30v7.955H0z" class="node-rect" style="stroke-width:.5;stroke:#000;stroke-opacity:1;fill:#ff97ff;fill-opacity:.8" transform="translate(660 357.702)"/><text class="node-label" data-notex="1" style="cursor:default;font-family:&quot;Open Sans&quot;,verdana,arial,sans-serif;font-size:12px;fill:#000;fill-opacity:1;text-shadow:#fff 1px 1px 1px,#fff -1px -1px 1px,#fff 1px -1px 1px,#fff -1px 1px 1px;white-space:pre" text-anchor="end" transform="translate(656.75 365.88)">C2/m: 5.4%</text></g><g class="sankey-node" style="opacity:1"><path d="M0 0h30v6.775H0z" class="node-rect" style="stroke-width:.5;stroke:#000;stroke-opacity:1;fill:#fecb52;fill-opacity:.8" transform="translate(660 221.19)"/><text class="node-label" data-notex="1" style="cursor:default;font-family:&quot;Open Sans&quot;,verdana,arial,sans-serif;font-size:12px;fill:#000;fill-opacity:1;text-shadow:#fff 1px 1px 1px,#fff -1px -1px 1px,#fff 1px -1px 1px,#fff -1px 1px 1px;white-space:pre" text-anchor="end" transform="translate(656.75 228.778)">Immm: 4.6%</text></g><g class="sankey-node" style="opacity:1"><path d="M0 0h30v6.705H0z" class="node-rect" style="stroke-width:.5;stroke:#000;stroke-opacity:1;fill:#636efa;fill-opacity:.8" transform="translate(660 381.096)"/><text class="node-label" data-notex="1" style="cursor:default;font-family:&quot;Open Sans&quot;,verdana,arial,sans-serif;font-size:12px;fill:#000;fill-opacity:1;text-shadow:#fff 1px 1px 1px,#fff -1px -1px 1px,#fff 1px -1px 1px,#fff -1px 1px 1px;white-space:pre" text-anchor="end" transform="translate(656.75 388.649)">C2/c: 4.6%</text></g><g class="sankey-node" style="opacity:1"><path d="M0 0h30v5.922H0z" class="node-rect" style="stroke-width:.5;stroke:#000;stroke-opacity:1;fill:#ef553b;fill-opacity:.8" transform="translate(660 243.404)"/><text class="node-label" data-notex="1" style="cursor:default;font-family:&quot;Open Sans&quot;,verdana,arial,sans-serif;font-size:12px;fill:#000;fill-opacity:1;text-shadow:#fff 1px 1px 1px,#fff -1px -1px 1px,#fff 1px -1px 1px,#fff -1px 1px 1px;white-space:pre" text-anchor="end" transform="translate(656.75 250.565)">Cmcm: 4.0%</text></g><g class="sankey-node" style="opacity:1"><path d="M0 0h30v5.805H0z" class="node-rect" style="stroke-width:.5;stroke:#000;stroke-opacity:1;fill:#00cc96;fill-opacity:.8" transform="translate(660 465.551)"/><text class="node-label" data-notex="1" style="cursor:default;font-family:&quot;Open Sans&quot;,verdana,arial,sans-serif;font-size:12px;fill:#000;fill-opacity:1;text-shadow:#fff 1px 1px 1px,#fff -1px -1px 1px,#fff 1px -1px 1px,#fff -1px 1px 1px;white-space:pre" text-anchor="end" transform="translate(656.75 472.654)">R-3m: 4.0%</text></g><g class="sankey-node" style="opacity:1"><path d="M0 0h30v5.169H0z" class="node-rect" style="stroke-width:.5;stroke:#000;stroke-opacity:1;fill:#ab63fa;fill-opacity:.8" transform="translate(660 264.764)"/><text class="node-label" data-notex="1" style="cursor:default;font-family:&quot;Open Sans&quot;,verdana,arial,sans-serif;font-size:12px;fill:#000;fill-opacity:1;text-shadow:#fff 1px 1px 1px,#fff -1px -1px 1px,#fff 1px -1px 1px,#fff -1px 1px 1px;white-space:pre" text-anchor="end" transform="translate(656.75 271.548)">Amm2: 3.5%</text></g><g class="sankey-node" style="opacity:1"><path d="M0 0h30v4.377H0z" class="node-rect" style="stroke-width:.5;stroke:#000;stroke-opacity:1;fill:#ffa15a;fill-opacity:.8" transform="translate(660 445.735)"/><text class="node-label" data-notex="1" style="cursor:default;font-family:&quot;Open Sans&quot;,verdana,arial,sans-serif;font-size:12px;fill:#000;fill-opacity:1;text-shadow:#fff 1px 1px 1px,#fff -1px -1px 1px,#fff 1px -1px 1px,#fff -1px 1px 1px;white-space:pre" text-anchor="end" transform="translate(656.75 452.124)">P4/mmm: 3.0%</text></g><g class="sankey-node" style="opacity:1"><path d="M0 0h30v4.012H0z" class="node-rect" style="stroke-width:.5;stroke:#000;stroke-opacity:1;fill:#19d3f3;fill-opacity:.8" transform="translate(660 104.998)"/><text class="node-label" data-notex="1" style="cursor:default;font-family:&quot;Open Sans&quot;,verdana,arial,sans-serif;font-size:12px;fill:#000;fill-opacity:1;text-shadow:#fff 1px 1px 1px,#fff -1px -1px 1px,#fff 1px -1px 1px,#fff -1px 1px 1px;white-space:pre" text-anchor="end" transform="translate(656.75 111.204)">Fd-3m: 2.7%</text></g><g class="sankey-node" style="opacity:1"><path d="M0 0h30v3.873H0z" class="node-rect" style="stroke-width:.5;stroke:#000;stroke-opacity:1;fill:#ff6692;fill-opacity:.8" transform="translate(660 310.969)"/><text class="node-label" data-notex="1" style="cursor:default;font-family:&quot;Open Sans&quot;,verdana,arial,sans-serif;font-size:12px;fill:#000;fill-opacity:1;text-shadow:#fff 1px 1px 1px,#fff -1px -1px 1px,#fff 1px -1px 1px,#fff -1px 1px 1px;white-space:pre" text-anchor="end" transform="translate(656.75 317.105)">P-6m2: 2.6%</text></g><g class="sankey-node" style="opacity:1"><path d="M0 0h30v3.593H0z" class="node-rect" style="stroke-width:.5;stroke:#000;stroke-opacity:1;fill:#b6e880;fill-opacity:.8" transform="translate(660 403.24)"/><text class="node-label" data-notex="1" style="cursor:default;font-family:&quot;Open Sans&quot;,verdana,arial,sans-serif;font-size:12px;fill:#000;fill-opacity:1;text-shadow:#fff 1px 1px 1px,#fff -1px -1px 1px,#fff 1px -1px 1px,#fff -1px 1px 1px;white-space:pre" text-anchor="end" transform="translate(656.75 409.237)">Cm: 2.4%</text></g><g class="sankey-node" style="opacity:1"><path d="M0 0h30v3.461H0z" class="node-rect" style="stroke-width:.5;stroke:#000;stroke-opacity:1;fill:#ff97ff;fill-opacity:.8" transform="translate(660 124.449)"/><text class="node-label" data-notex="1" style="cursor:default;font-family:&quot;Open Sans&quot;,verdana,arial,sans-serif;font-size:12px;fill:#000;fill-opacity:1;text-shadow:#fff 1px 1px 1px,#fff -1px -1px 1px,#fff 1px -1px 1px,#fff -1px 1px 1px;white-space:pre" text-anchor="end" transform="translate(656.75 130.38)">F-43m: 2.4%</text></g><g class="sankey-node" style="opacity:1"><path d="M0 0h30v3.205H0z" class="node-rect" style="stroke-width:.5;stroke:#000;stroke-opacity:1;fill:#fecb52;fill-opacity:.8" transform="translate(660 486.795)"/><text class="node-label" data-notex="1" style="cursor:default;font-family:&quot;Open Sans&quot;,verdana,arial,sans-serif;font-size:12px;fill:#000;fill-opacity:1;text-shadow:#fff 1px 1px 1px,#fff -1px -1px 1px,#fff 1px -1px 1px,#fff -1px 1px 1px;white-space:pre" text-anchor="end" transform="translate(656.75 492.598)">P-3m1: 2.2%</text></g></g></g><g class="infolayer"><g class="g-gtitle"><text x="350" y="25" class="gtitle" dy=".7em" style="opacity:1;font-family:&quot;Open Sans&quot;,verdana,arial,sans-serif;font-size:17px;fill:#000;fill-opacity:1;white-space:pre" text-anchor="middle">Common Space Groups in Materials Project</text></g></g></svg>
