<svg xmlns="http://www.w3.org/2000/svg" width="700" height="500" class="main-svg"><path d="M0 0h700v500H0z" style="fill:#fff;fill-opacity:1"/><g class="sankey" style="box-sizing:content-box;position:absolute;left:0;shape-rendering:geometricprecision;pointer-events:auto"><g class="sankey-links" style="fill:none"><path d="M30 0h480v123.094H30Zm0 204.611h480v70.676H30Zm0 99.248h480V320H30Zm0-28.572c240 0 240 20 480 20v8.572c-240 0-240-20-480-20Zm0-149.708c240 0 240 40.938 480 40.938v8.065c-240 0-240-40.939-480-40.939Zm0 49.003h480v5.376H30Zm0 25.376c240 0 240-20 480-20v4.653c-240 0-240 20-480 20Z" class="sankey-link" style="stroke:#444;stroke-opacity:1;fill:#000;fill-opacity:.2;stroke-width:0;opacity:1" transform="translate(80 100)"/><path d="M30 123.094c240 0 240 20 480 20v2.485c-240 0-240-20-480-20Z" class="sankey-link" style="stroke:#444;stroke-opacity:1;fill:#000;fill-opacity:.2;stroke-width:0;opacity:1" transform="translate(80 100)"/><path d="M30 153.643c240 0 240-8.064 480-8.064v.938c-240 0-240 8.065-480 8.065Z" class="sankey-link" style="stroke:#000;stroke-opacity:.2;fill:#000;fill-opacity:.2;stroke-width:1;opacity:1" transform="translate(80 100)"/></g><g class="sankey-node-set" style="cursor:move"><g class="sankey-node" style="opacity:1"><path d="M0 0h30v133.643H0z" class="node-rect" style="stroke-width:.5;stroke:#000;stroke-opacity:1;fill:#636efa;fill-opacity:.8" transform="translate(80 100)"/><text class="node-label" data-notex="1" style="cursor:default;font-family:&quot;Open Sans&quot;,verdana,arial,sans-serif;font-size:12px;fill:#2a3f5f;fill-opacity:1;white-space:pre;text-shadow:#fff 1px 1px 1px,#fff -1px -1px 1px,#fff 1px -1px 1px,#fff -1px 1px 1px" transform="translate(113.25 171.022)">25: 10540</text></g><g class="sankey-node" style="opacity:1"><path d="M0 0h30v83.901H0z" class="node-rect" style="stroke-width:.5;stroke:#000;stroke-opacity:1;fill:#ef553b;fill-opacity:.8" transform="translate(80 299.958)"/><text class="node-label" data-notex="1" style="cursor:default;font-family:&quot;Open Sans&quot;,verdana,arial,sans-serif;font-size:12px;fill:#2a3f5f;fill-opacity:1;white-space:pre;text-shadow:#fff 1px 1px 1px,#fff -1px -1px 1px,#fff 1px -1px 1px,#fff -1px 1px 1px" transform="translate(113.25 346.109)">99: 6617</text></g><g class="sankey-node" style="opacity:1"><path d="M0 0h30v16.141H0z" class="node-rect" style="stroke-width:.5;stroke:#000;stroke-opacity:1;fill:#00cc96;fill-opacity:.8" transform="translate(80 403.859)"/><text class="node-label" data-notex="1" style="cursor:default;font-family:&quot;Open Sans&quot;,verdana,arial,sans-serif;font-size:12px;fill:#2a3f5f;fill-opacity:1;white-space:pre;text-shadow:#fff 1px 1px 1px,#fff -1px -1px 1px,#fff 1px -1px 1px,#fff -1px 1px 1px" transform="translate(113.25 416.13)">221: 1273</text></g><g class="sankey-node" style="opacity:1"><path d="M0 0h30v5.376H0z" class="node-rect" style="stroke-width:.5;stroke:#000;stroke-opacity:1;fill:#19d3f3;fill-opacity:.8" transform="translate(80 274.582)"/><text class="node-label" data-notex="1" style="cursor:default;font-family:&quot;Open Sans&quot;,verdana,arial,sans-serif;font-size:12px;fill:#2a3f5f;fill-opacity:1;white-space:pre;text-shadow:#fff 1px 1px 1px,#fff -1px -1px 1px,#fff 1px -1px 1px,#fff -1px 1px 1px" transform="translate(113.25 281.47)">123: 424</text></g><g class="sankey-node" style="opacity:1"><path d="M0 0h30v.938H0z" class="node-rect" style="stroke-width:.5;stroke:#000;stroke-opacity:1;fill:#ff97ff;fill-opacity:.8" transform="translate(80 253.643)"/><text class="node-label" data-notex="1" style="cursor:default;font-family:&quot;Open Sans&quot;,verdana,arial,sans-serif;font-size:12px;fill:#2a3f5f;fill-opacity:1;white-space:pre;text-shadow:#fff 1px 1px 1px,#fff -1px -1px 1px,#fff 1px -1px 1px,#fff -1px 1px 1px" transform="translate(113.25 258.312)">47: 74</text></g><g class="sankey-node" style="opacity:1"><path d="M0 0h30v123.094H0z" class="node-rect" style="stroke-width:.5;stroke:#000;stroke-opacity:1;fill:#fecb52;fill-opacity:.8" transform="translate(590 100)"/><text class="node-label" data-notex="1" style="cursor:default;font-family:&quot;Open Sans&quot;,verdana,arial,sans-serif;font-size:12px;fill:#2a3f5f;fill-opacity:1;white-space:pre;text-shadow:#fff 1px 1px 1px,#fff -1px -1px 1px,#fff 1px -1px 1px,#fff -1px 1px 1px" text-anchor="end" transform="translate(586.75 165.747)">25: 9708</text></g><g class="sankey-node" style="opacity:1"><path d="M0 0h30v70.676H0z" class="node-rect" style="stroke-width:.5;stroke:#000;stroke-opacity:1;fill:#636efa;fill-opacity:.8" transform="translate(590 304.611)"/><text class="node-label" data-notex="1" style="cursor:default;font-family:&quot;Open Sans&quot;,verdana,arial,sans-serif;font-size:12px;fill:#2a3f5f;fill-opacity:1;white-space:pre;text-shadow:#fff 1px 1px 1px,#fff -1px -1px 1px,#fff 1px -1px 1px,#fff -1px 1px 1px" text-anchor="end" transform="translate(586.75 344.15)">99: 5574</text></g><g class="sankey-node" style="opacity:1"><path d="M0 0h30v24.713H0z" class="node-rect" style="stroke-width:.5;stroke:#000;stroke-opacity:1;fill:#ef553b;fill-opacity:.8" transform="translate(590 395.287)"/><text class="node-label" data-notex="1" style="cursor:default;font-family:&quot;Open Sans&quot;,verdana,arial,sans-serif;font-size:12px;fill:#2a3f5f;fill-opacity:1;white-space:pre;text-shadow:#fff 1px 1px 1px,#fff -1px -1px 1px,#fff 1px -1px 1px,#fff -1px 1px 1px" text-anchor="end" transform="translate(586.75 411.843)">221: 1949</text></g><g class="sankey-node" style="opacity:1"><path d="M0 0h30v18.094H0z" class="node-rect" style="stroke-width:.5;stroke:#000;stroke-opacity:1;fill:#ab63fa;fill-opacity:.8" transform="translate(590 266.517)"/><text class="node-label" data-notex="1" style="cursor:default;font-family:&quot;Open Sans&quot;,verdana,arial,sans-serif;font-size:12px;fill:#2a3f5f;fill-opacity:1;white-space:pre;text-shadow:#fff 1px 1px 1px,#fff -1px -1px 1px,#fff 1px -1px 1px,#fff -1px 1px 1px" text-anchor="end" transform="translate(586.75 279.764)">123: 1427</text></g><g class="sankey-node" style="opacity:1"><path d="M0 0h30v3.423H0z" class="node-rect" style="stroke-width:.5;stroke:#000;stroke-opacity:1;fill:#ff6692;fill-opacity:.8" transform="translate(590 243.094)"/><text class="node-label" data-notex="1" style="cursor:default;font-family:&quot;Open Sans&quot;,verdana,arial,sans-serif;font-size:12px;fill:#2a3f5f;fill-opacity:1;white-space:pre;text-shadow:#fff 1px 1px 1px,#fff -1px -1px 1px,#fff 1px -1px 1px,#fff -1px 1px 1px" text-anchor="end" transform="translate(586.75 249.006)">47: 270</text></g></g></g><g class="infolayer"><g class="g-gtitle"><text x="350" y="50" class="gtitle" dy="0em" style="font-family:&quot;Open Sans&quot;,verdana,arial,sans-serif;font-size:17px;fill:#2a3f5f;opacity:1;font-weight:400;white-space:pre" text-anchor="middle"><tspan x="350" y="50" class="line" dy="0em">Spacegroups as determined by Spglib vs Aflow</tspan><tspan x="350" y="50" class="line" dy="1.3em">for the Matbench Perovskites dataset</tspan></text></g></g></svg>