<svg class="main-svg" xmlns="http://www.w3.org/2000/svg" width="700" height="500"><path style="fill:#fff;fill-opacity:1" d="M0 0h700v500H0z"/><g class="sankey" style="box-sizing:content-box;position:absolute;left:0;shape-rendering:geometricprecision;pointer-events:auto"><g class="sankey-links" style="fill:none"><path class="sankey-link" d="M30 0h480v19.2H30Zm0 160c240 0 240-70.4 480-70.4v19.2c-240 0-240 70.4-480 70.4Z" style="stroke:#444;stroke-opacity:1;fill:#000;fill-opacity:.2;stroke-width:0;opacity:1" transform="translate(80 100)"/><path class="sankey-link" d="M30 82.4c240 0 240-12 480-12v19.2c-240 0-240 12-480 12Zm0 204c240 0 240-102.4 480-102.4v16.8c-240 0-240 102.4-480 102.4Z" style="stroke:#444;stroke-opacity:1;fill:#000;fill-opacity:.2;stroke-width:0;opacity:1" transform="translate(80 100)"/><path class="sankey-link" d="M30 101.6c240 0 240 53.6 480 53.6v14.4c-240 0-240-53.6-480-53.6Z" style="stroke:#444;stroke-opacity:1;fill:#000;fill-opacity:.2;stroke-width:0;opacity:1" transform="translate(80 100)"/><path class="sankey-link" d="M30 28.8c240 0 240 112 480 112v14.4c-240 0-240-112-480-112Zm0 150.4c240 0 240-9.6 480-9.6V184c-240 0-240 9.6-480 9.6Z" style="stroke:#444;stroke-opacity:1;fill:#000;fill-opacity:.2;stroke-width:0;opacity:1" transform="translate(80 100)"/><path class="sankey-link" d="M30 116c240 0 240 112 480 112v12c-240 0-240-112-480-112Zm0 187.2c240 0 240-46.4 480-46.4v9.6c-240 0-240 46.4-480 46.4Zm0-284c240 0 240 41.6 480 41.6v9.6c-240 0-240-41.6-480-41.6Zm0 223.2c240 0 240 4.8 480 4.8v9.6c-240 0-240-4.8-480-4.8Z" style="stroke:#444;stroke-opacity:1;fill:#000;fill-opacity:.2;stroke-width:0;opacity:1" transform="translate(80 100)"/><path class="sankey-link" d="M30 235.2c240 0 240-126.4 480-126.4v7.2c-240 0-240 126.4-480 126.4Z" style="stroke:#444;stroke-opacity:1;fill:#000;fill-opacity:.2;stroke-width:0;opacity:1" transform="translate(80 100)"/><path class="sankey-link" d="M30 200.8c240 0 240 97.6 480 97.6v7.2c-240 0-240-97.6-480-97.6Z" style="stroke:#444;stroke-opacity:1;fill:#000;fill-opacity:.2;stroke-width:0;opacity:1" transform="translate(80 100)"/><path class="sankey-link" d="M30 252c240 0 240 53.6 480 53.6v7.2c-240 0-240-53.6-480-53.6Zm0-24c240 0 240-196.8 480-196.8v7.2c-240 0-240 196.8-480 196.8Z" style="stroke:#444;stroke-opacity:1;fill:#000;fill-opacity:.2;stroke-width:0;opacity:1" transform="translate(80 100)"/><path class="sankey-link" d="M30 193.6c240 0 240 46.4 480 46.4v7.2c-240 0-240-46.4-480-46.4Z" style="stroke:#444;stroke-opacity:1;fill:#000;fill-opacity:.2;stroke-width:0;opacity:1" transform="translate(80 100)"/><path class="sankey-link" d="M30 128c240 0 240 163.2 480 163.2v7.2c-240 0-240-163.2-480-163.2Zm0-52.8c240 0 240-56 480-56v7.2c-240 0-240 56-480 56Z" style="stroke:#444;stroke-opacity:1;fill:#000;fill-opacity:.2;stroke-width:0;opacity:1" transform="translate(80 100)"/><path class="sankey-link" d="M30 43.2c240 0 240 177.6 480 177.6v7.2C270 228 270 50.4 30 50.4Zm0 269.6h480v7.2H30Z" style="stroke:#444;stroke-opacity:1;fill:#000;fill-opacity:.2;stroke-width:0;opacity:1" transform="translate(80 100)"/><path class="sankey-link" d="M30 155.2c240 0 240-128.8 480-128.8v4.8C270 31.2 270 160 30 160Z" style="stroke:#444;stroke-opacity:1;fill:#000;fill-opacity:.2;stroke-width:0;opacity:1" transform="translate(80 100)"/><path class="sankey-link" d="M30 50.4c240 0 240 236 480 236v4.8c-240 0-240-236-480-236Z" style="stroke:#444;stroke-opacity:1;fill:#000;fill-opacity:.2;stroke-width:0;opacity:1" transform="translate(80 100)"/><path class="sankey-link" d="M30 281.6c240 0 240-165.6 480-165.6v4.8c-240 0-240 165.6-480 165.6Z" style="stroke:#444;stroke-opacity:1;fill:#000;fill-opacity:.2;stroke-width:0;opacity:1" transform="translate(80 100)"/><path class="sankey-link" d="M30 279.2c240 0 240-240.8 480-240.8v2.4c-240 0-240 240.8-480 240.8Z" style="stroke:#444;stroke-opacity:1;fill:#000;fill-opacity:.2;stroke-width:0;opacity:1" transform="translate(80 100)"/></g><g class="sankey-node-set" style="cursor:move"><g class="sankey-node" style="opacity:1"><path class="node-rect" style="stroke-width:.5;stroke:#000;stroke-opacity:1;fill:#636efa;fill-opacity:.8" d="M0 0h30v55.2H0z" transform="translate(80 100)"/><text class="node-label" data-notex="1" transform="translate(113.25 131.8)" style="cursor:default;font-family:'Open Sans',verdana,arial,sans-serif;font-size:12px;fill:#2a3f5f;fill-opacity:1;white-space:pre;text-shadow:#fff 1px 1px 1px,#fff -1px -1px 1px,#fff 1px -1px 1px,#fff -1px 1px 1px">2: 23.0%</text></g><g class="sankey-node" style="opacity:1"><path class="node-rect" style="stroke-width:.5;stroke:#000;stroke-opacity:1;fill:#ef553b;fill-opacity:.8" d="M0 0h30v52.8H0z" transform="translate(80 255.2)"/><text class="node-label" data-notex="1" transform="translate(113.25 285.8)" style="cursor:default;font-family:'Open Sans',verdana,arial,sans-serif;font-size:12px;fill:#2a3f5f;fill-opacity:1;white-space:pre;text-shadow:#fff 1px 1px 1px,#fff -1px -1px 1px,#fff 1px -1px 1px,#fff -1px 1px 1px">5: 22.0%</text></g><g class="sankey-node" style="opacity:1"><path class="node-rect" style="stroke-width:.5;stroke:#000;stroke-opacity:1;fill:#00cc96;fill-opacity:.8" d="M0 0h30v60H0z" transform="translate(80 175.2)"/><text class="node-label" data-notex="1" transform="translate(113.25 209.4)" style="cursor:default;font-family:'Open Sans',verdana,arial,sans-serif;font-size:12px;fill:#2a3f5f;fill-opacity:1;white-space:pre;text-shadow:#fff 1px 1px 1px,#fff -1px -1px 1px,#fff 1px -1px 1px,#fff -1px 1px 1px">3: 25.0%</text></g><g class="sankey-node" style="opacity:1"><path class="node-rect" style="stroke-width:.5;stroke:#000;stroke-opacity:1;fill:#ab63fa;fill-opacity:.8" d="M0 0h30v40.8H0z" transform="translate(80 379.2)"/><text class="node-label" data-notex="1" transform="translate(113.25 403.8)" style="cursor:default;font-family:'Open Sans',verdana,arial,sans-serif;font-size:12px;fill:#2a3f5f;fill-opacity:1;white-space:pre;text-shadow:#fff 1px 1px 1px,#fff -1px -1px 1px,#fff 1px -1px 1px,#fff -1px 1px 1px">1: 17.0%</text></g><g class="sankey-node" style="opacity:1"><path class="node-rect" style="stroke-width:.5;stroke:#000;stroke-opacity:1;fill:#636efa;fill-opacity:.8" d="M0 0h30v31.2H0z" transform="translate(80 328)"/><text class="node-label" data-notex="1" transform="translate(113.25 347.8)" style="cursor:default;font-family:'Open Sans',verdana,arial,sans-serif;font-size:12px;fill:#2a3f5f;fill-opacity:1;white-space:pre;text-shadow:#fff 1px 1px 1px,#fff -1px -1px 1px,#fff 1px -1px 1px,#fff -1px 1px 1px">4: 13.0%</text></g><g class="sankey-node" style="opacity:1"><path class="node-rect" style="stroke-width:.5;stroke:#000;stroke-opacity:1;fill:#ffa15a;fill-opacity:.8" d="M0 0h30v40.8H0z" transform="translate(590 100)"/><text class="node-label" data-notex="1" text-anchor="end" transform="translate(586.75 124.6)" style="cursor:default;font-family:'Open Sans',verdana,arial,sans-serif;font-size:12px;fill:#2a3f5f;fill-opacity:1;white-space:pre;text-shadow:#fff 1px 1px 1px,#fff -1px -1px 1px,#fff 1px -1px 1px,#fff -1px 1px 1px">2: 17.0%</text></g><g class="sankey-node" style="opacity:1"><path class="node-rect" style="stroke-width:.5;stroke:#000;stroke-opacity:1;fill:#19d3f3;fill-opacity:.8" d="M0 0h30v60H0z" transform="translate(590 160.8)"/><text class="node-label" data-notex="1" text-anchor="end" transform="translate(586.75 195)" style="cursor:default;font-family:'Open Sans',verdana,arial,sans-serif;font-size:12px;fill:#2a3f5f;fill-opacity:1;white-space:pre;text-shadow:#fff 1px 1px 1px,#fff -1px -1px 1px,#fff 1px -1px 1px,#fff -1px 1px 1px">1: 25.0%</text></g><g class="sankey-node" style="opacity:1"><path class="node-rect" style="stroke-width:.5;stroke:#000;stroke-opacity:1;fill:#b6e880;fill-opacity:.8" d="M0 0h30v60H0z" transform="translate(590 240.8)"/><text class="node-label" data-notex="1" text-anchor="end" transform="translate(586.75 275)" style="cursor:default;font-family:'Open Sans',verdana,arial,sans-serif;font-size:12px;fill:#2a3f5f;fill-opacity:1;white-space:pre;text-shadow:#fff 1px 1px 1px,#fff -1px -1px 1px,#fff 1px -1px 1px,#fff -1px 1px 1px">3: 25.0%</text></g><g class="sankey-node" style="opacity:1"><path class="node-rect" style="stroke-width:.5;stroke:#000;stroke-opacity:1;fill:#ef553b;fill-opacity:.8" d="M0 0h30v45.6H0z" transform="translate(590 320.8)"/><text class="node-label" data-notex="1" text-anchor="end" transform="translate(586.75 347.8)" style="cursor:default;font-family:'Open Sans',verdana,arial,sans-serif;font-size:12px;fill:#2a3f5f;fill-opacity:1;white-space:pre;text-shadow:#fff 1px 1px 1px,#fff -1px -1px 1px,#fff 1px -1px 1px,#fff -1px 1px 1px">5: 19.0%</text></g><g class="sankey-node" style="opacity:1"><path class="node-rect" style="stroke-width:.5;stroke:#000;stroke-opacity:1;fill:#ff6692;fill-opacity:.8" d="M0 0h30v33.6H0z" transform="translate(590 386.4)"/><text class="node-label" data-notex="1" text-anchor="end" transform="translate(586.75 407.4)" style="cursor:default;font-family:'Open Sans',verdana,arial,sans-serif;font-size:12px;fill:#2a3f5f;fill-opacity:1;white-space:pre;text-shadow:#fff 1px 1px 1px,#fff -1px -1px 1px,#fff 1px -1px 1px,#fff -1px 1px 1px">4: 14.0%</text></g></g></g></svg>