<svg xmlns="http://www.w3.org/2000/svg" width="700" height="500" class="main-svg"><path d="M0 0h700v500H0z" style="fill:#fff;fill-opacity:1"/><g class="sankey" style="box-sizing:content-box;position:absolute;left:0;shape-rendering:geometricprecision;pointer-events:auto"><g class="sankey-links" style="fill:none"><path d="M30 0h480v21.6H30Zm0 145.6c240 0 240-48.8 480-48.8v16.8c-240 0-240 48.8-480 48.8Zm0 157.6h480V320H30Zm0-225.6c240 0 240 4.8 480 4.8v14.4C270 96.8 270 92 30 92ZM30 252c240 0 240 36.8 480 36.8v14.4c-240 0-240-36.8-480-36.8Zm0-14.4c240 0 240-7.2 480-7.2v14.4c-240 0-240 7.2-480 7.2Zm0-75.2h480v14.4H30Zm0-99.2c240 0 240-41.6 480-41.6V36C270 36 270 77.6 30 77.6Z" class="sankey-link" style="stroke:#444;stroke-opacity:1;fill:#000;fill-opacity:.2;stroke-width:0;opacity:1" transform="translate(80 100)"/><path d="M30 21.6c240 0 240 48.8 480 48.8v12c-240 0-240-48.8-480-48.8Zm0 160c240 0 240 95.2 480 95.2v12c-240 0-240-95.2-480-95.2Z" class="sankey-link" style="stroke:#444;stroke-opacity:1;fill:#000;fill-opacity:.2;stroke-width:0;opacity:1" transform="translate(80 100)"/><path d="M30 228c240 0 240-51.2 480-51.2v9.6c-240 0-240 51.2-480 51.2Zm0-136c240 0 240 60.8 480 60.8v9.6c-240 0-240-60.8-480-60.8Z" class="sankey-link" style="stroke:#444;stroke-opacity:1;fill:#000;fill-opacity:.2;stroke-width:0;opacity:1" transform="translate(80 100)"/><path d="M30 108.8c240 0 240 158.4 480 158.4v9.6c-240 0-240-158.4-480-158.4Z" class="sankey-link" style="stroke:#444;stroke-opacity:1;fill:#000;fill-opacity:.2;stroke-width:0;opacity:1" transform="translate(80 100)"/><path d="M30 218.4c240 0 240-104.8 480-104.8v9.6C270 123.2 270 228 30 228Zm0 72.8c240 0 240-104.8 480-104.8v9.6c-240 0-240 104.8-480 104.8Z" class="sankey-link" style="stroke:#444;stroke-opacity:1;fill:#000;fill-opacity:.2;stroke-width:0;opacity:1" transform="translate(80 100)"/><path d="M30 101.6c240 0 240 116.8 480 116.8v7.2c-240 0-240-116.8-480-116.8Zm0-68c240 0 240 112 480 112v7.2c-240 0-240-112-480-112Z" class="sankey-link" style="stroke:#444;stroke-opacity:1;fill:#000;fill-opacity:.2;stroke-width:0;opacity:1" transform="translate(80 100)"/><path d="M30 138.4C270 138.4 270 36 510 36v7.2c-240 0-240 102.4-480 102.4Zm0 38.4c240 0 240 48.8 480 48.8v4.8c-240 0-240-48.8-480-48.8Z" class="sankey-link" style="stroke:#444;stroke-opacity:1;fill:#000;fill-opacity:.2;stroke-width:0;opacity:1" transform="translate(80 100)"/><path d="M30 213.6c240 0 240-170.4 480-170.4V48C270 48 270 218.4 30 218.4Zm0 87.2c240 0 240-56 480-56v2.4c-240 0-240 56-480 56Z" class="sankey-link" style="stroke:#444;stroke-opacity:1;fill:#000;fill-opacity:.2;stroke-width:0;opacity:1" transform="translate(80 100)"/><path d="M30 286.4C270 286.4 270 48 510 48v2.4c-240 0-240 238.4-480 238.4Z" class="sankey-link" style="stroke:#444;stroke-opacity:1;fill:#000;fill-opacity:.2;stroke-width:0;opacity:1" transform="translate(80 100)"/><path d="M30 288.8c240 0 240-165.6 480-165.6v2.4c-240 0-240 165.6-480 165.6Z" class="sankey-link" style="stroke:#444;stroke-opacity:1;fill:#000;fill-opacity:.2;stroke-width:0;opacity:1" transform="translate(80 100)"/><path d="M30 40.8C270 40.8 270 216 510 216v2.4c-240 0-240-175.2-480-175.2Z" class="sankey-link" style="stroke:#444;stroke-opacity:1;fill:#000;fill-opacity:.2;stroke-width:0;opacity:1" transform="translate(80 100)"/></g><g class="sankey-node-set" style="cursor:move"><g class="sankey-node" style="opacity:1"><path d="M0 0h30v43.2H0z" class="node-rect" style="stroke-width:.5;stroke:#000;stroke-opacity:1;fill:#636efa;fill-opacity:.8" transform="translate(80 100)"/><text class="node-label" data-notex="1" style="cursor:default;font-family:&quot;Open Sans&quot;,verdana,arial,sans-serif;font-size:12px;fill:#2a3f5f;fill-opacity:1;white-space:pre;text-shadow:#fff 1px 1px 1px,#fff -1px -1px 1px,#fff 1px -1px 1px,#fff -1px 1px 1px" transform="translate(113.25 125.8)">3: 18.0%</text></g><g class="sankey-node" style="opacity:1"><path d="M0 0h30v55.2H0z" class="node-rect" style="stroke-width:.5;stroke:#000;stroke-opacity:1;fill:#ef553b;fill-opacity:.8" transform="translate(80 238.4)"/><text class="node-label" data-notex="1" style="cursor:default;font-family:&quot;Open Sans&quot;,verdana,arial,sans-serif;font-size:12px;fill:#2a3f5f;fill-opacity:1;white-space:pre;text-shadow:#fff 1px 1px 1px,#fff -1px -1px 1px,#fff 1px -1px 1px,#fff -1px 1px 1px" transform="translate(113.25 270.2)">5: 23.0%</text></g><g class="sankey-node" style="opacity:1"><path d="M0 0h30v33.6H0z" class="node-rect" style="stroke-width:.5;stroke:#000;stroke-opacity:1;fill:#00cc96;fill-opacity:.8" transform="translate(80 386.4)"/><text class="node-label" data-notex="1" style="cursor:default;font-family:&quot;Open Sans&quot;,verdana,arial,sans-serif;font-size:12px;fill:#2a3f5f;fill-opacity:1;white-space:pre;text-shadow:#fff 1px 1px 1px,#fff -1px -1px 1px,#fff 1px -1px 1px,#fff -1px 1px 1px" transform="translate(113.25 407.4)">4: 14.0%</text></g><g class="sankey-node" style="opacity:1"><path d="M0 0h30v55.2H0z" class="node-rect" style="stroke-width:.5;stroke:#000;stroke-opacity:1;fill:#ab63fa;fill-opacity:.8" transform="translate(80 163.2)"/><text class="node-label" data-notex="1" style="cursor:default;font-family:&quot;Open Sans&quot;,verdana,arial,sans-serif;font-size:12px;fill:#2a3f5f;fill-opacity:1;white-space:pre;text-shadow:#fff 1px 1px 1px,#fff -1px -1px 1px,#fff 1px -1px 1px,#fff -1px 1px 1px" transform="translate(113.25 195)">1: 23.0%</text></g><g class="sankey-node" style="opacity:1"><path d="M0 0h30v52.8H0z" class="node-rect" style="stroke-width:.5;stroke:#000;stroke-opacity:1;fill:#ffa15a;fill-opacity:.8" transform="translate(80 313.6)"/><text class="node-label" data-notex="1" style="cursor:default;font-family:&quot;Open Sans&quot;,verdana,arial,sans-serif;font-size:12px;fill:#2a3f5f;fill-opacity:1;white-space:pre;text-shadow:#fff 1px 1px 1px,#fff -1px -1px 1px,#fff 1px -1px 1px,#fff -1px 1px 1px" transform="translate(113.25 344.2)">2: 22.0%</text></g><g class="sankey-node" style="opacity:1"><path d="M0 0h30v50.4H0z" class="node-rect" style="stroke-width:.5;stroke:#000;stroke-opacity:1;fill:#ffa15a;fill-opacity:.8" transform="translate(590 100)"/><text class="node-label" data-notex="1" style="cursor:default;font-family:&quot;Open Sans&quot;,verdana,arial,sans-serif;font-size:12px;fill:#2a3f5f;fill-opacity:1;white-space:pre;text-shadow:#fff 1px 1px 1px,#fff -1px -1px 1px,#fff 1px -1px 1px,#fff -1px 1px 1px" text-anchor="end" transform="translate(586.75 129.4)">3: 21.0%</text></g><g class="sankey-node" style="opacity:1"><path d="M0 0h30v55.2H0z" class="node-rect" style="stroke-width:.5;stroke:#000;stroke-opacity:1;fill:#19d3f3;fill-opacity:.8" transform="translate(590 170.4)"/><text class="node-label" data-notex="1" style="cursor:default;font-family:&quot;Open Sans&quot;,verdana,arial,sans-serif;font-size:12px;fill:#2a3f5f;fill-opacity:1;white-space:pre;text-shadow:#fff 1px 1px 1px,#fff -1px -1px 1px,#fff 1px -1px 1px,#fff -1px 1px 1px" text-anchor="end" transform="translate(586.75 202.2)">1: 23.0%</text></g><g class="sankey-node" style="opacity:1"><path d="M0 0h30v52.8H0z" class="node-rect" style="stroke-width:.5;stroke:#000;stroke-opacity:1;fill:#ff6692;fill-opacity:.8" transform="translate(590 367.2)"/><text class="node-label" data-notex="1" style="cursor:default;font-family:&quot;Open Sans&quot;,verdana,arial,sans-serif;font-size:12px;fill:#2a3f5f;fill-opacity:1;white-space:pre;text-shadow:#fff 1px 1px 1px,#fff -1px -1px 1px,#fff 1px -1px 1px,#fff -1px 1px 1px" text-anchor="end" transform="translate(586.75 397.8)">2: 22.0%</text></g><g class="sankey-node" style="opacity:1"><path d="M0 0h30v31.2H0z" class="node-rect" style="stroke-width:.5;stroke:#000;stroke-opacity:1;fill:#fecb52;fill-opacity:.8" transform="translate(590 316)"/><text class="node-label" data-notex="1" style="cursor:default;font-family:&quot;Open Sans&quot;,verdana,arial,sans-serif;font-size:12px;fill:#2a3f5f;fill-opacity:1;white-space:pre;text-shadow:#fff 1px 1px 1px,#fff -1px -1px 1px,#fff 1px -1px 1px,#fff -1px 1px 1px" text-anchor="end" transform="translate(586.75 335.8)">4: 13.0%</text></g><g class="sankey-node" style="opacity:1"><path d="M0 0h30v50.4H0z" class="node-rect" style="stroke-width:.5;stroke:#000;stroke-opacity:1;fill:#636efa;fill-opacity:.8" transform="translate(590 245.6)"/><text class="node-label" data-notex="1" style="cursor:default;font-family:&quot;Open Sans&quot;,verdana,arial,sans-serif;font-size:12px;fill:#2a3f5f;fill-opacity:1;white-space:pre;text-shadow:#fff 1px 1px 1px,#fff -1px -1px 1px,#fff 1px -1px 1px,#fff -1px 1px 1px" text-anchor="end" transform="translate(586.75 275)">5: 21.0%</text></g></g></g><g class="infolayer"><g class="g-gtitle"><text x="350" y="65" class="gtitle" dy=".7em" style="font-family:&quot;Open Sans&quot;,verdana,arial,sans-serif;font-size:17px;fill:#2a3f5f;opacity:1;font-weight:400;white-space:pre" text-anchor="middle">Two sets of 100 random integers from 1 to 5</text></g><g class="annotation" data-index="0" style="opacity:1"><g class="annotation-text-g"><g class="cursor-pointer"><path fill="none" d="M.5.5h608v32H.5z" class="bg" style="stroke-width:1px;stroke:#000;stroke-opacity:0;fill:#000;fill-opacity:0" transform="translate(46 451)"/><text x="304.453" y="12" class="annotation-text" style="font-family:&quot;Open Sans&quot;,verdana,arial,sans-serif;font-size:12px;fill:#2a3f5f;fill-opacity:1;white-space:pre" text-anchor="middle" transform="translate(46 451)"><tspan x="304.453" y="12" class="line" dy="0em"><tspan style="font-family:monospace">df = pd.DataFrame(np.random.randint(1, 6, size=(100, 2)), columns=[&apos;col_a&apos;,&apos;col_b&apos;])</tspan></tspan><tspan x="304.453" y="12" class="line" dy="1.3em"><tspan style="font-family:monospace">fig = sankey_from_2_df_cols(df, df.columns)</tspan></tspan></text></g></g></g></g></svg>