<?xml version="1.0" encoding="UTF-8" standalone="no"?>
<!DOCTYPE svg PUBLIC "-//W3C//DTD SVG 1.1//EN" "http://www.w3.org/Graphics/SVG/1.1/DTD/svg11.dtd">
<svg width="100%" height="100%" viewBox="0 0 700 500" version="1.1" xmlns="http://www.w3.org/2000/svg" xmlns:xlink="http://www.w3.org/1999/xlink" xml:space="preserve" xmlns:serif="http://www.serif.com/" style="fill-rule:evenodd;clip-rule:evenodd;">
    <rect x="0" y="0" width="700" height="500" style="fill:white;fill-rule:nonzero;"/>
    <g>
        <g transform="matrix(1.25146,0,0,1.25146,-88.0112,-57.9345)">
            <g transform="matrix(1,0,0,1,80,100)">
                <path d="M30,0L510,0L510,123.094L30,123.094L30,0ZM30,204.611L510,204.611L510,275.287L30,275.287L30,204.611ZM30,303.859L510,303.859L510,320L30,320L30,303.859ZM30,275.287C270,275.287 270,295.287 510,295.287L510,303.859C270,303.859 270,283.859 30,283.859L30,275.287ZM30,125.579C270,125.579 270,166.517 510,166.517L510,174.582C270,174.582 270,133.643 30,133.643L30,125.579ZM30,174.582L510,174.582L510,179.958L30,179.958L30,174.582ZM30,199.958C270,199.958 270,179.958 510,179.958L510,184.611C270,184.611 270,204.611 30,204.611L30,199.958Z" style="fill-opacity:0.2;fill-rule:nonzero;"/>
            </g>
            <g transform="matrix(1,0,0,1,80,100)">
                <path d="M30,123.094C270,123.094 270,143.094 510,143.094L510,145.579C270,145.579 270,125.579 30,125.579L30,123.094Z" style="fill-opacity:0.2;fill-rule:nonzero;"/>
            </g>
            <g transform="matrix(1,0,0,1,80,100)">
                <path d="M30,153.643C270,153.643 270,145.579 510,145.579L510,146.517C270,146.517 270,154.582 30,154.582L30,153.643Z" style="fill-opacity:0.2;fill-rule:nonzero;stroke:black;stroke-opacity:0.2;stroke-width:1px;"/>
            </g>
        </g>
        <g transform="matrix(1.25146,0,0,1.25146,-88.0112,-57.9345)">
            <g>
                <g transform="matrix(1,0,0,1,80,100)">
                    <rect x="0" y="0" width="30" height="133.643" style="fill:rgb(99,110,250);fill-opacity:0.8;fill-rule:nonzero;stroke:black;stroke-width:0.5px;"/>
                </g>
                <g transform="matrix(1,0,0,1,113.25,171.022)">
                    <text x="0px" y="0px" style="font-family:'LucidaGrande', 'Lucida Grande', sans-serif;font-weight:500;font-size:12px;fill:rgb(42,63,95);">25: 10540</text>
                </g>
            </g>
            <g>
                <g transform="matrix(1,0,0,1,80,299.958)">
                    <rect x="0" y="0" width="30" height="83.901" style="fill:rgb(239,85,59);fill-opacity:0.8;fill-rule:nonzero;stroke:black;stroke-width:0.5px;"/>
                </g>
                <g transform="matrix(1,0,0,1,113.25,346.109)">
                    <text x="0px" y="0px" style="font-family:'LucidaGrande', 'Lucida Grande', sans-serif;font-weight:500;font-size:12px;fill:rgb(42,63,95);">99: 6617</text>
                </g>
            </g>
            <g>
                <g transform="matrix(1,0,0,1,80,403.859)">
                    <rect x="0" y="0" width="30" height="16.141" style="fill:rgb(0,204,150);fill-opacity:0.8;fill-rule:nonzero;stroke:black;stroke-width:0.5px;"/>
                </g>
                <g transform="matrix(1,0,0,1,113.25,416.13)">
                    <text x="0px" y="0px" style="font-family:'LucidaGrande', 'Lucida Grande', sans-serif;font-weight:500;font-size:12px;fill:rgb(42,63,95);">221: 1273</text>
                </g>
            </g>
            <g>
                <g transform="matrix(1,0,0,1,80,274.582)">
                    <rect x="0" y="0" width="30" height="5.376" style="fill:rgb(25,211,243);fill-opacity:0.8;fill-rule:nonzero;stroke:black;stroke-width:0.5px;"/>
                </g>
                <g transform="matrix(1,0,0,1,113.25,281.47)">
                    <text x="0px" y="0px" style="font-family:'LucidaGrande', 'Lucida Grande', sans-serif;font-weight:500;font-size:12px;fill:rgb(42,63,95);">123: 424</text>
                </g>
            </g>
            <g>
                <g transform="matrix(1,0,0,1,80,253.643)">
                    <rect x="0" y="0" width="30" height="0.938" style="fill:rgb(255,151,255);fill-opacity:0.8;fill-rule:nonzero;stroke:black;stroke-width:0.5px;"/>
                </g>
                <g transform="matrix(1,0,0,1,113.25,258.312)">
                    <text x="0px" y="0px" style="font-family:'LucidaGrande', 'Lucida Grande', sans-serif;font-weight:500;font-size:12px;fill:rgb(42,63,95);">47: 74</text>
                </g>
            </g>
            <g>
                <g transform="matrix(1,0,0,1,590,100)">
                    <rect x="0" y="0" width="30" height="123.094" style="fill:rgb(254,203,82);fill-opacity:0.8;fill-rule:nonzero;stroke:black;stroke-width:0.5px;"/>
                </g>
                <g transform="matrix(1,0,0,1,586.75,165.747)">
                    <text x="-53.121px" y="0px" style="font-family:'LucidaGrande', 'Lucida Grande', sans-serif;font-weight:500;font-size:12px;fill:rgb(42,63,95);">25: 9708</text>
                </g>
            </g>
            <g>
                <g transform="matrix(1,0,0,1,590,304.611)">
                    <rect x="0" y="0" width="30" height="70.676" style="fill:rgb(99,110,250);fill-opacity:0.8;fill-rule:nonzero;stroke:black;stroke-width:0.5px;"/>
                </g>
                <g transform="matrix(1,0,0,1,586.75,344.15)">
                    <text x="-53.121px" y="0px" style="font-family:'LucidaGrande', 'Lucida Grande', sans-serif;font-weight:500;font-size:12px;fill:rgb(42,63,95);">99: 5574</text>
                </g>
            </g>
            <g>
                <g transform="matrix(1,0,0,1,590,395.287)">
                    <rect x="0" y="0" width="30" height="24.713" style="fill:rgb(239,85,59);fill-opacity:0.8;fill-rule:nonzero;stroke:black;stroke-width:0.5px;"/>
                </g>
                <g transform="matrix(1,0,0,1,586.75,411.843)">
                    <text x="-60.709px" y="0px" style="font-family:'LucidaGrande', 'Lucida Grande', sans-serif;font-weight:500;font-size:12px;fill:rgb(42,63,95);">221: 1949</text>
                </g>
            </g>
            <g>
                <g transform="matrix(1,0,0,1,590,266.517)">
                    <rect x="0" y="0" width="30" height="18.094" style="fill:rgb(171,99,250);fill-opacity:0.8;fill-rule:nonzero;stroke:black;stroke-width:0.5px;"/>
                </g>
                <g transform="matrix(1,0,0,1,586.75,279.764)">
                    <text x="-60.709px" y="0px" style="font-family:'LucidaGrande', 'Lucida Grande', sans-serif;font-weight:500;font-size:12px;fill:rgb(42,63,95);">123: 1427</text>
                </g>
            </g>
            <g>
                <g transform="matrix(1,0,0,1,590,243.094)">
                    <rect x="0" y="0" width="30" height="3.423" style="fill:rgb(255,102,146);fill-opacity:0.8;fill-rule:nonzero;stroke:black;stroke-width:0.5px;"/>
                </g>
                <g transform="matrix(1,0,0,1,586.75,249.006)">
                    <text x="-45.533px" y="0px" style="font-family:'LucidaGrande', 'Lucida Grande', sans-serif;font-weight:500;font-size:12px;fill:rgb(42,63,95);">47: 270</text>
                </g>
            </g>
        </g>
    </g>
    <g transform="matrix(1.25146,0,0,1.25146,-88.0112,-26.9038)">
        <g>
            <g>
                <g transform="matrix(1,0,0,1,350,50)">
                    <text x="-192.217px" y="0px" style="font-family:'LucidaGrande', 'Lucida Grande', sans-serif;font-weight:500;font-size:17px;fill:rgb(42,63,95);">Spacegroups as determined by Spglib vs Aﬂow</text>
                </g>
                <g transform="matrix(1,0,0,1,350,65.6)">
                    <text x="-152.66px" y="0px" style="font-family:'LucidaGrande', 'Lucida Grande', sans-serif;font-weight:500;font-size:17px;fill:rgb(42,63,95);">for the Matbench Perovskites dataset</text>
                </g>
            </g>
        </g>
    </g>
</svg>
