<svg xmlns="http://www.w3.org/2000/svg" xmlns:xlink="http://www.w3.org/1999/xlink" width="693.475" height="597.51" viewBox="0 0 520.106 448.132"><defs><style>*{stroke-linecap:butt;stroke-linejoin:round}</style></defs><g id="figure_1"><path id="patch_1" fill="none" d="M0 448.132h520.106V0H0z"/><g id="axes_1"><path id="patch_2" fill="#fff" d="M66.506 387.72h446.4V7.2h-446.4z"/><path id="line2d_1" fill="none" stroke="#000" stroke-dasharray="5.55,2.4" stroke-opacity=".5" stroke-width="1.5" d="m66.506 369.207 446.4-339.41" clip-path="url(#p8ff867afab)"/><g id="matplotlib.axis_1"><g id="xtick_1"><g id="line2d_2"><defs><path id="m1f3b0cc0c8" stroke="#000" stroke-width="2.5" d="M0 0v7"/></defs><use xlink:href="#m1f3b0cc0c8" x="84.089" y="387.72" stroke="#000" stroke-width="2.5"/></g><g id="text_1" transform="matrix(.2 0 0 -.2 77.726 413.417)"><defs><path id="DejaVuSans-48" d="M31.781 66.406q-7.61 0-11.453-7.5Q16.5 51.422 16.5 36.375q0-14.984 3.828-22.484 3.844-7.5 11.453-7.5 7.672 0 11.5 7.5 3.844 7.5 3.844 22.484 0 15.047-3.844 22.531-3.828 7.5-11.5 7.5zm0 7.813q12.266 0 18.735-9.703 6.468-9.688 6.468-28.141 0-18.406-6.468-28.11-6.47-9.687-18.735-9.687-12.25 0-18.718 9.688-6.47 9.703-6.47 28.109 0 18.453 6.47 28.14Q19.53 74.22 31.78 74.22z"/></defs><use xlink:href="#DejaVuSans-48"/></g></g><g id="xtick_2"><use xlink:href="#m1f3b0cc0c8" id="line2d_3" x="163.032" y="387.72" stroke="#000" stroke-width="2.5"/><g id="text_2" transform="matrix(.2 0 0 -.2 156.67 413.417)"><defs><path id="DejaVuSans-50" d="M19.188 8.297h34.421V0H7.33v8.297q5.609 5.812 15.296 15.594 9.703 9.797 12.188 12.64 4.734 5.313 6.609 9 1.89 3.688 1.89 7.25 0 5.813-4.078 9.469-4.078 3.672-10.625 3.672-4.64 0-9.797-1.61-5.14-1.609-11-4.89v9.969Q13.767 71.78 18.938 73q5.188 1.219 9.485 1.219 11.328 0 18.062-5.672 6.735-5.656 6.735-15.125 0-4.5-1.688-8.531-1.672-4.016-6.125-9.485-1.218-1.422-7.765-8.187-6.532-6.766-18.453-18.922z"/></defs><use xlink:href="#DejaVuSans-50"/></g></g><g id="xtick_3"><use xlink:href="#m1f3b0cc0c8" id="line2d_4" x="241.975" y="387.72" stroke="#000" stroke-width="2.5"/><g id="text_3" transform="matrix(.2 0 0 -.2 235.613 413.417)"><defs><path id="DejaVuSans-52" d="M37.797 64.313 12.89 25.39h24.906zm-2.594 8.593H47.61V25.391h10.407v-8.203H47.609V0h-9.812v17.188H4.89v9.515z"/></defs><use xlink:href="#DejaVuSans-52"/></g></g><g id="xtick_4"><use xlink:href="#m1f3b0cc0c8" id="line2d_5" x="320.918" y="387.72" stroke="#000" stroke-width="2.5"/><g id="text_4" transform="matrix(.2 0 0 -.2 314.556 413.417)"><defs><path id="DejaVuSans-54" d="M33.016 40.375q-6.641 0-10.532-4.547-3.875-4.531-3.875-12.437 0-7.86 3.875-12.438 3.891-4.562 10.532-4.562 6.64 0 10.515 4.562 3.875 4.578 3.875 12.438 0 7.906-3.875 12.437-3.875 4.547-10.515 4.547zm19.578 30.922v-8.984q-3.719 1.75-7.5 2.671-3.782.938-7.5.938-9.766 0-14.922-6.594-5.14-6.594-5.875-19.922 2.875 4.25 7.219 6.516 4.359 2.266 9.578 2.266 10.984 0 17.36-6.672 6.374-6.657 6.374-18.125 0-11.235-6.64-18.032-6.641-6.78-17.672-6.78-12.657 0-19.344 9.687-6.688 9.703-6.688 28.109 0 17.281 8.204 27.563 8.203 10.28 22.015 10.28 3.719 0 7.5-.734t7.89-2.187z"/></defs><use xlink:href="#DejaVuSans-54"/></g></g><g id="xtick_5"><use xlink:href="#m1f3b0cc0c8" id="line2d_6" x="399.862" y="387.72" stroke="#000" stroke-width="2.5"/><g id="text_5" transform="matrix(.2 0 0 -.2 393.499 413.417)"><defs><path id="DejaVuSans-56" d="M31.781 34.625q-7.031 0-11.062-3.766-4.016-3.765-4.016-10.343 0-6.594 4.016-10.36Q24.75 6.391 31.78 6.391q7.032 0 11.078 3.78 4.063 3.798 4.063 10.345 0 6.578-4.031 10.343-4.016 3.766-11.11 3.766zm-9.86 4.188q-6.343 1.562-9.89 5.906Q8.5 49.079 8.5 55.329q0 8.733 6.219 13.812 6.234 5.078 17.062 5.078 10.89 0 17.094-5.078 6.203-5.079 6.203-13.813 0-6.25-3.547-10.61-3.531-4.343-9.828-5.906 7.125-1.656 11.094-6.5 3.984-4.828 3.984-11.796 0-10.61-6.468-16.282-6.47-5.656-18.532-5.656-12.047 0-18.531 5.656-6.469 5.672-6.469 16.282 0 6.968 4 11.797 4.016 4.843 11.14 6.5zM18.314 54.39q0-5.657 3.53-8.828 3.548-3.172 9.938-3.172 6.36 0 9.938 3.172 3.593 3.171 3.593 8.828 0 5.672-3.593 8.843-3.578 3.172-9.938 3.172-6.39 0-9.937-3.172-3.532-3.172-3.532-8.843z"/></defs><use xlink:href="#DejaVuSans-56"/></g></g><g id="xtick_6"><use xlink:href="#m1f3b0cc0c8" id="line2d_7" x="478.805" y="387.72" stroke="#000" stroke-width="2.5"/><g id="text_6" transform="matrix(.2 0 0 -.2 466.08 413.417)"><defs><path id="DejaVuSans-49" d="M12.406 8.297h16.11v55.625l-17.532-3.516v8.985l17.438 3.515h9.86V8.296H54.39V0H12.406z"/></defs><use xlink:href="#DejaVuSans-49"/><use xlink:href="#DejaVuSans-48" x="63.623"/></g></g><g id="text_7" transform="matrix(.2 0 0 -.2 258.378 436.773)"><defs><path id="DejaVuSans-65" d="M34.188 63.188 20.797 26.906h26.812zm-5.579 9.718h11.188L67.578 0h-10.25l-6.64 18.703h-32.86L11.188 0H.78z"/><path id="DejaVuSans-99" d="M48.781 52.594v-8.407q-3.812 2.11-7.64 3.157-3.828 1.047-7.735 1.047-8.75 0-13.593-5.547-4.829-5.532-4.829-15.547 0-10.016 4.829-15.563 4.843-5.53 13.593-5.53 3.907 0 7.735 1.046 3.828 1.047 7.64 3.156V2.094Q45.016.344 40.984-.531q-4.015-.89-8.562-.89-12.36 0-19.64 7.765-7.266 7.765-7.266 20.953 0 13.375 7.343 21.031Q20.22 56 33.016 56q4.14 0 8.093-.86 3.953-.843 7.672-2.546z"/><path id="DejaVuSans-116" d="M18.313 70.219V54.688h18.5v-6.985h-18.5V18.016q0-6.688 1.828-8.594 1.828-1.906 7.453-1.906h9.218V0h-9.218q-10.407 0-14.36 3.875-3.953 3.89-3.953 14.14v29.688H2.687v6.984h6.594V70.22z"/><path id="DejaVuSans-117" d="M8.5 21.578v33.11h8.984V21.922q0-7.766 3.016-11.656 3.031-3.875 9.094-3.875 7.265 0 11.484 4.64 4.234 4.64 4.234 12.656v31h8.985V0h-8.984v8.406Q42.047 3.422 37.718 1q-4.313-2.422-10.032-2.422-9.421 0-14.312 5.86Q8.5 10.296 8.5 21.578zM31.11 56z"/><path id="DejaVuSans-97" d="M34.281 27.484q-10.89 0-15.093-2.484-4.204-2.484-4.204-8.5 0-4.781 3.157-7.594 3.156-2.797 8.562-2.797 7.485 0 12 5.297 4.516 5.297 4.516 14.078v2zm17.922 3.72V0H43.22v8.297Q40.14 3.328 35.547.953q-4.594-2.375-11.234-2.375-8.391 0-13.36 4.719Q6 8.016 6 15.922q0 9.219 6.172 13.906 6.187 4.688 18.437 4.688h12.61v.89q0 6.203-4.078 9.594-4.078 3.39-11.453 3.39-4.688 0-9.141-1.124-4.438-1.125-8.531-3.375v8.312q4.921 1.906 9.562 2.844 4.64.953 9.031.953 11.875 0 17.735-6.156 5.86-6.14 5.86-18.64z"/><path id="DejaVuSans-108" d="M9.422 75.984h8.984V0H9.422z"/></defs><use xlink:href="#DejaVuSans-65"/><use xlink:href="#DejaVuSans-99" x="66.658"/><use xlink:href="#DejaVuSans-116" x="121.639"/><use xlink:href="#DejaVuSans-117" x="160.848"/><use xlink:href="#DejaVuSans-97" x="224.227"/><use xlink:href="#DejaVuSans-108" x="285.506"/></g></g><g id="matplotlib.axis_2"><g id="ytick_1"><g id="line2d_8"><defs><path id="m06271f73a8" stroke="#000" stroke-width="2.5" d="M0 0h-7"/></defs><use xlink:href="#m06271f73a8" x="66.506" y="355.839" stroke="#000" stroke-width="2.5"/></g><use xlink:href="#DejaVuSans-48" id="text_8" transform="matrix(.2 0 0 -.2 43.281 363.437)"/></g><g id="ytick_2"><use xlink:href="#m06271f73a8" id="line2d_9" x="66.506" y="295.816" stroke="#000" stroke-width="2.5"/><use xlink:href="#DejaVuSans-50" id="text_9" transform="matrix(.2 0 0 -.2 43.281 303.415)"/></g><g id="ytick_3"><use xlink:href="#m06271f73a8" id="line2d_10" x="66.506" y="235.793" stroke="#000" stroke-width="2.5"/><use xlink:href="#DejaVuSans-52" id="text_10" transform="matrix(.2 0 0 -.2 43.281 243.392)"/></g><g id="ytick_4"><use xlink:href="#m06271f73a8" id="line2d_11" x="66.506" y="175.771" stroke="#000" stroke-width="2.5"/><use xlink:href="#DejaVuSans-54" id="text_11" transform="matrix(.2 0 0 -.2 43.281 183.37)"/></g><g id="ytick_5"><use xlink:href="#m06271f73a8" id="line2d_12" x="66.506" y="115.748" stroke="#000" stroke-width="2.5"/><use xlink:href="#DejaVuSans-56" id="text_12" transform="matrix(.2 0 0 -.2 43.281 123.346)"/></g><g id="ytick_6"><use xlink:href="#m06271f73a8" id="line2d_13" x="66.506" y="55.725" stroke="#000" stroke-width="2.5"/><g id="text_13" transform="matrix(.2 0 0 -.2 30.556 63.324)"><use xlink:href="#DejaVuSans-49"/><use xlink:href="#DejaVuSans-48" x="63.623"/></g></g><g id="text_14" transform="matrix(0 -.2 -.2 0 22.397 244.4)"><defs><path id="DejaVuSans-80" d="M19.672 64.797v-27.39h12.406q6.89 0 10.64 3.562 3.766 3.562 3.766 10.156 0 6.547-3.765 10.11-3.75 3.562-10.64 3.562zm-9.86 8.11h22.266q12.266 0 18.531-5.548 6.282-5.546 6.282-16.234 0-10.797-6.282-16.313-6.265-5.515-18.53-5.515H19.671V0h-9.86z"/><path id="DejaVuSans-114" d="M41.11 46.297q-1.516.875-3.297 1.281Q36.03 48 33.89 48q-7.625 0-11.703-4.953-4.079-4.953-4.079-14.234V0H9.08v54.688h9.03v-8.5q2.844 4.984 7.375 7.39Q30.031 56 36.531 56q.922 0 2.047-.125 1.125-.11 2.484-.36z"/><path id="DejaVuSans-101" d="M56.203 29.594v-4.39H14.891q.593-9.282 5.593-14.142 5-4.859 13.938-4.859 5.172 0 10.031 1.266 4.86 1.265 9.656 3.812v-8.5Q49.266.734 44.187-.344 39.11-1.422 33.892-1.422q-13.094 0-20.735 7.61-7.64 7.625-7.64 20.625 0 13.421 7.25 21.296Q20.016 56 32.328 56q11.031 0 17.453-7.11 6.422-7.093 6.422-19.296zm-8.984 2.64q-.094 7.36-4.125 11.75-4.032 4.407-10.672 4.407-7.516 0-12.031-4.25-4.516-4.25-5.203-11.97z"/><path id="DejaVuSans-100" d="M45.406 46.39v29.594h8.985V0h-8.985v8.203Q42.578 3.328 38.25.953q-4.313-2.375-10.375-2.375-9.906 0-16.14 7.906-6.22 7.922-6.22 20.813 0 12.89 6.22 20.797Q17.968 56 27.874 56q6.063 0 10.375-2.375 4.328-2.36 7.156-7.234zm-30.61-19.093q0-9.906 4.079-15.547 4.078-5.64 11.203-5.64 7.125 0 11.219 5.64 4.11 5.64 4.11 15.547 0 9.906-4.11 15.547-4.094 5.64-11.219 5.64-7.125 0-11.203-5.64-4.078-5.64-4.078-15.547z"/><path id="DejaVuSans-105" d="M9.422 54.688h8.984V0H9.422zm0 21.296h8.984v-11.39H9.422z"/></defs><use xlink:href="#DejaVuSans-80"/><use xlink:href="#DejaVuSans-114" x="58.553"/><use xlink:href="#DejaVuSans-101" x="97.416"/><use xlink:href="#DejaVuSans-100" x="158.939"/><use xlink:href="#DejaVuSans-105" x="222.416"/><use xlink:href="#DejaVuSans-99" x="250.199"/><use xlink:href="#DejaVuSans-116" x="305.18"/><use xlink:href="#DejaVuSans-101" x="344.389"/><use xlink:href="#DejaVuSans-100" x="405.912"/></g></g><path id="LineCollection_1" fill="none" stroke="green" stroke-width="2" d="M135.536 323.713v-13.778m38.894-18.185v-6.874m-7.646-3.355v-7.424m53.133-5.387v-19.615m-71.115 63.884v-11.517m71.458-47.71v-17.91M103.995 345.03v-8.393m7.633 8.374v-4.755m74.615-53.624v-4.44m72.507 17.666v-30.292m-87.085 10.148v-8.61m-53.46 84.921v-18.38M189.3 266.59v-11.174m-52.544 61.864v-8.715m-18.016 23.326v-9.126m-25.159 30.36v-5.376m57.151-39.057v-9.545m-2.887 9.799v-8.853m6.388-3.861v-8.035m-30.745 42.823v-7.383m48.142-24.927v-5.788m152.958-114.885V158.5M220.83 278.72v-52.24M103.663 339.846v-10.03m-6.732-8.385v-6.213M396.83 142.25v-22.992M237.683 242.69v-31.2M132.413 325.5v-7.148m51.608-55.433v-9.234m-63.729 78.945v-7.602m-.671 5.755v-6.91m-21.765 21.996v-6.47m57.746-35.509v-7.745m-30.678 25.232v-9.106m-6.659 9.887v-5.866m61.492-51.042v-28.901M415.866 109.48V86.003m-231.29 211.635v-9.646m4.705-19.176v-6.623m-4.763 24.733v-6.228m-62.363 52.697V320.66m4.25 18.083v-19.828m-12.422 47.965v-46.092m72.315-23.16v-33.635m61.192-18.343v-13.71m-27.553 10.328v-29.756m-96.523 103.155v-13.892m170.663-85.705v-14.574M114.466 336.61v-4.759m41.136-26.76v-7.746m-25.826 32.946v-7.727m46.863-32.485v-10.134m35.428-18.204v-10.48m11.134 1.749v-6.823M96.406 348.464v-4.457m275.286-170.586v-48.72M193.907 274.297v-6.78m-43.194 56.524v-8.432m17.888-23.569v-4.452m-41.625 37.792v-6.307m14.016-8.159v-6.787m-41.495 41.592v-4.97m174.545-121.607v-26.12m-77.072 84.261v-22.956m-55.026 58.444v-4.499m-7.962-2.462v-11.585M132.423 316v-7.355m-38.93 39.695v-6.01m29.368-17.762v-6.484M93.97 350.028v-4.584m.315 8.11v-6.835m34.462-23.717v-6.954m46.733-34.291v-8.496m19.841-17.558V233.89m3.183 36.574v-9.319m-21.865 28.334v-10.134m-18.274 26.848v-7.549m-61.229 48.61v-4.439m82.506-56.705v-19.002m-86.878 85.189v-4.92m-5.56 9.267v-5.212m74.989-46.706v-8.216m-8.523 6.008v-6.201m-10.605 3.359v-5.319m-37.848 49.523v-5.494m40.922-41.811v-8.72m46.071-5.116v-9.259m-17.78 17.97v-6.874m-26.94 16.658V293.4m-56.817 60.581v-7.089m139.252-135.325v-24.775m-70.678 125.919V275.32M120 325.626v-17.004m62.003-23.897v-5.429M480.151 56.943V24.496M184.518 285.725v-6.228m-2.844 1.668v-6.711m-35.042 39.238v-5.74m11.658-3.112v-6.044m9.212 1.33v-8.62m-4.152 5.158v-4.697m64.32-13.593V265.84m-57.952 23.372v-4.799m-2.238-1.771v-11.466m33.059-2.689v-7.165m-56.531 53.028v-7.657m39.918-26.11v-7.948m11.624 29.255v-12.148M93.539 350.66v-5.249m72.755-50.685v-9.824m57.655-53.552v-26.527M117.772 330.21v-5.763m199.826-135.484V169.18m-115.072 97.969v-7.49M413.117 121.41V98.081M134.873 345.78v-6.893M122.51 327.74v-5.026m74.689-53.018v-8.983m-15.655 26.259v-15.924m-53.197 38.097V292.69m4.396 16.714v-9.169m-6.037 28.818v-8.852m88.921-57.666v-10.867m200.239-139.186v-23.48M179.77 266.335v-22.069m-24.168 47.62v-7.746m9.588 11.77v-7.99m32.12-9.083v-8.058m-58.93 33.393v-10.709m-22.746 34.719V312.67m81.565-42.974v-8.983m-59.556 45.226v-13.043m20.527 9.978v-5.713m25.513-21.005v-13.5m29.896 41.36v-16.4m17.448-38.251v-8.536m-42.677 40.985v-6.808m-99.587 79.813v-5.163m185.182-118.853v-14.028M98.04 345.492v-6.316m10.686-.17v-6.55m10.069-19.847v-8.376m-7.913 20.473v-9.761m90.328-46.964v-16.357m-52.011 58.486v-6.98m-37.537 35.931v-10.26m95.063-65.022v-10.954M95.523 356.88v-6.284m160.97-104.186v-12.23m-95.927 67.48v-11.687m66.054-50.813v-10.335M86.797 357.287v-5.297m51.746-28.59v-22.755m9.227 9.055v-7.36m78.04-45.094v-8.692M98.38 351v-5.929m25.588 4.337V338.26m149.049-123.459v-10.235m-108.33 91.831V284.43m53.987-23.608v-8.041m-27.22 38.955v-15.85m-86.189 78.01v-9.92m22.978-17.634v-5.83M98.758 347.3v-4.53m91.362-59.786v-10.35m-59.6 51.851v-12.32m23.15-11.147v-6.202m.308 13.157v-5.107m77.049-48.999v-8.536m-105.046 81.775v-7.358m42.779-29.068v-14.937M92.018 353.72v-5.365m26.589-8.904v-6.84m81.408-67.279v-11.06m-85.549 83.838v-4.758m17.91-11.27v-9.916m9.874-2.06v-4.57m23.135-3.008v-16.425m15.031 3.851v-6.283m23.867-16.106v-9.523m-78.757 67.086v-4.603m67.704-44.065v-5.705m-85.83 76.291V334.02m23.989-19.817v-6.763m185.116-118.899v-34.544M163.94 297.87v-4.107m277.406-201.72V67.425M92.996 351.59v-5.308m60.755-52.664v-8.209m20.561 25.351v-15.481m1.655-5.376v-6.18m-68.845 66.539v-6.854m64.592-44.968v-11.25m33.226-14.284v-20.205m99.424-69.008v-15.844M159.098 304.783v-5.929m42.744-33.363v-7.176m-64.586 60.194v-6.37m74.921 54.785V333.95m-76.621-13.124V306.82M90.45 351.877v-5.282m94.068-64.771v-6.228m-25.82 39.475V272.96m80.571 75.916V329.79m-53.026-47.66v-4.44m-41.81 33.76v-6.657m-19.833 20.16V317.7m41.804-22.32v-5.13m-5.055 22.49v-6.837m-67.845 43.692v-4.92m57.776-35.451v-5.808m-9.336 9.055v-4.499m7.243 10.899v-7.095m20.439-28.328v-7.676m-26.561 36.508v-5.318m38.375-21.46v-18.387m-87.936 84.881v-4.92m60.972-51.671v-11.182m-17.089 44.929v-12.651m13.847-3.654v-5.25m17.887 35.261v-58.07m-22.918 25.637v-5.208M99.837 355.35v-13.427m45.023-20.943v-7.71m-43.666 21.396v-5.673m216.404-165.84v-19.782M133.443 327.646v-6.038m29.437-24.761v-5.663m-3.863 9.812v-5.558m-44.695 65.678V347.56m44.908-49.028V290.7m-66.843 61.07v-5.068m75.634-45.912v-5.147m-26.077 16.528v-4.5M266.9 215.603v-13.64M154.883 306.382v-4.926m46.624-20.951v-22.798m90.471-59.275V180.72M109.95 345.2v-11.734m-15.178 14.796v-5.854m13.932 6.138v-10.024m45.331-36.159v-5.29m-48.641 38.397v-7.28m67.556-37.343v-5.068m-62.578 54.691v-6.477m69.27-42.181V272.81m-1.041 27.459V285.36m-64.113 55.887v-7.43m51.916-33.335v-5.13m19.839-22.525v-4.441m-4.156-3.413v-22.346m-43.575 110.969v-49.535m49.583-12.252v-9.992m-85.17 63.022v-5.61m-7.808 10.746v-6.279m45.64-19.719v-11.905m37.433-3.78v-10.546m-53.265 26.276v-6.593m4.791 6.483v-6.973m119.272-81v-23.7m-93.343 94.928v-9.497m-52.827 72.754v-47.177m-9.237 25.677v-5.377m30.339-28.603v-19.048m-20.654 35.984v-6.102m67.232-28.288v-11.75m34.442-10.433v-20.205m-29.957 31.228v-5.036m59.701-40.138V229.23m-85.882 81.348V299.06m-28.921 8.059v-7.6m53.374 2.274v-5.952m-72.588 60.767v-7.54m2.11-35.483v-9.127m179.728-48.584v-23.955m-76.912 23.991v-10.222m-30.203 44.289v-6.929m-53.235 45.845V316.16m63.158-31.918v-12.865m-16.636 56.154v-33.419m-18.009 22.008v-5.794m117.717-64.645v-55.789M151.28 310.425v-5.808m3.003.48v-17.36m64.391-31.117v-8.04m-50.199 37.755v-5.047m35.309-15.171v-18.631m-48.099 56.878v-5.09m41.749-23.676v-7.582m-34.657 29.307v-12.617M91.866 353.8v-4.926m52.509 2.933V306.45m-4.77 30.873v-7.985m16.163-17.695v-10.646m-61.436 51.867v-5.455m41.699-30.009v-5.353m41.04-29.887v-42.314m35.066 21.382v-8.253M177.11 287.06v-6.496M97.856 349.77v-6.47m83.607-58.913v-8.954m-50.22 35.829v-6.883m-17.26 54.699v-46.093m8.401 40.316v-56.148m-1.161 29.613v-7.88m90.914-57.057v-8.254m-53.439 64.497v-42.111m-29.472 47.79V315.3M492.615 60.885V32.559M123.782 338.286v-12.913m42.622-31.493v-5.131m-39.448 40.288v-6.419m135.581-89.041v-13.574M155.602 303.59v-7.745m44.774-8.712v-28.852m-20.734 36.232V275.51m-25.679 12.11v-6.416M97.856 350.37v-6.47m85.148-60.924v-12.734m-65.697 63.652v-4.73M88.239 357.2v-5.123m150.618-82.415V213.93m-98.954 102.338v-4.89m8.272-5.338v-4.842m7.427 3.593v-7.746m-25.038 39.003v-18.64m3.356 4.316v-9.8m70.94-55.545v-29.166m-98.26 92.195v-5.768m30.724 4.577v-5.787m16.639-22.11v-6.415m38.294-33.053v-20.513m-19.683 59.446v-6.545m7.068 11.273V275.51m36.317-7.048v-29.324M98.345 355.227v-10.78m23.68-9.007v-7.22m26.31-9.291v-8.411m2.35-2.84v-5.717m63.375-35.663V234.7m-85.26 94.548v-14.044M97.856 350.37v-6.47m63.676-45.521v-11.128m24.766-4.629v-33.634m-43.148 58.346v-5.63m108.103-70.651v-17.529m-117.594 104.55v-5.5m29.291-11.137v-7.04m-68.618 57.867v-5.455m65.506-47.982v-5.421m34.65-26.83v-18.349m-60.803 51.827v-8.475m13.085 13.861v-30.051m30.823 26.901v-6.946m-76.156 56.067v-9.751m64.031-44.536v-6.817m-60.008 48.014v-12.983m50.544-25.658v-14.93m-24.662 33.534v-7.121m10.602-.493v-4.499m25.005-10.925v-7.263m17.719-12.413v-19.53m-41.236 55.116v-6.67m27.579-20.953v-6.646m33.929 9.524v-20.205m-45.704 37.659v-8.895m-29.268 15.805v-8.91m-15.985 57.213v-46.093m98.154-52.357v-8.254m-63.314 59.418v-4.941m-19.597 17.201v-8.453m-.334 15.105V319.75m-25.55 27.982v-5.995m56.082-39.847v-10.347m34.342-36.675v-12.94m-55.086 77.313v-5.434m101.92-67.545v-20.337M87.204 356.644v-5.212m48.332-15.714V321.94m35.926-18.269v-9.107m-36.169 23.671v-6.423m46.251-24.24v-15.924m-9.954 51.202v-33.06m26.711 40.488v-35.911m-18.659-11.258v-19.002m.229 22.535v-5.66M97.856 350.07v-6.47m78.768-27.436V305.48m-82.339 48.074v-6.835m40.948-26.975v-5.84m-42.374 39.431v-4.596m109.667-76.489v-7.489m7.554-3.126v-24.072m-43.826 59.945v-9.986M106.916 341.8v-11.537m60.26-33.115v-5.665m-14.464 5.97v-12.877m26.93 14.739v-19.002m-64.795 57.629v-6.222m52.102-40.075v-7.264m-28.619 31.311v-7.34m87.227-45.799V251.05m-55.538 50.77v-9.006m-24.675 28.45v-5.879m-38.247 34.617v-11.135m111.514-83.89v-8.356M99.497 346.32v-4.97m.47 6.994v-4.817m-5.682 5.526v-6.836m182.16-137.325v-21.63M150.64 297.304v-8.978m13.595 12.194v-14.21m-54.709 51.18v-10.72m-15.241 24.984v-6.836m111.124-51.259v-7.69m-20.269-5.572v-5.175m-58.72 56.092V317.94m-35.312 32.735v-5.879m94.162-54.952V277.78m-17.004 15.742v-4.415m11.376-7.799v-19.002m-56.005 83.888v-7.72m-8.349 18.949v-11.572m88.985-78.824v-14.449m-76.238 74.811v-9.725M323.236 177.71v-20.684M110.24 353.814v-9.756m13.097 8.849v-7.941M235.43 238.617v-11.65m-99.404 92.965v-7.416m101.437-69.379v-8.685m-88.264 74.458v-6.98m59.552-34.551v-9.15m-79.525 68.223V318m3.728-30.287v-13.805m-42.14 80.361v-5.263m45.743 1.117V325.54m-19.849 7.018V325.1m42.656-24.555v-4.055m-55.815 60.46v-9.424m-15.518 7.705v-8.388m108.197-65.541v-12.987m-56.076 42.967v-9.324m30.071-12.198v-13.698m18.952-5.752v-21.014m-80.963 86.302v-9.337m35.792-17.948v-6.987m-50.627 49.256v-5.092m39.493-27.78v-7.774m38.244-9.176v-8.687m-59.012 44.624v-9.734m62.328-37.913v-6.875m-46.395 44.613v-9.724m24.395-6.344v-56.817m-2.355 53.79v-6.947m122.62-82.091V192.91M142.448 320.26v-9.872m32.295-17.668v-7.613m-46.2 69.467v-15.477M92.466 351.71v-4.948m260.638-185.906v-18.79M175.07 290.862v-8.098m149.518-105.027v-19.538m-140.07 125.125v-6.228m37.205-13.614v-8.56m-98.074 90.282v-6.34m70.258-59.766v-6.78m-70.132 48.53V312.8m54.583-16.107v-8.956m-57.068 43.825v-4.866m-19.425 9.046v-4.823m17.222 2.632v-9.445m18.648-7.27v-5.426m43.432-25.965v-15.271m-87.753 81.87v-5.015m93.025-78.321v-23.813m-75.708 92.125v-4.378m33.973-16.352v-15.138m140.628-103.009v-20.735M135.536 326.714v-13.778m123.887 33.838v-59.9m-154.839 57.925v-4.93m114.218-77.829v-10.476m-74.644 90.147v-10.159m-32.495 13.514V335.4m15.579-36.6v-11.97m47.188 1.32v-6.875m-37.174 35.133v-6.37m74.881-47.309v-8.254m-28.664 30.461v-5.25m-88.356 69.988v-6.278m18.645-3.541v-10.048m-9.932 25.713v-5.365m69.6-51.057V280.53m-59.902 56.182v-10.965m30.351-11.896v-18.063m87.096-42.4v-11.18m-125.304 98.237v-5.226m67.967-27.88v-33.85m130.726-78.692v-15.844M98.386 340.736v-5.808m57.641-57.313v-11.616m72.191-14.279v-7.844m-107.841 86.051v-14.2m46.811 18.83v-14.458m-9.98-19.801v-5.962m13.854 17.94v-11.912m49.667-37.284v-8.956M88.308 355.754v-5.832m100.744-50.531v-8.35m-44.348 28.85v-15.137m123.76-83.24v-19.459M121.612 340.084v-6.904M88.59 354.774V349.7m105.405-76.195v-5.797m-19.682 13.152v-18.106m-64.278 74.799v-4.244m44.347-15.44v-27.9m-17.126 26.739v-6.37m42.386-6.822v-19.001m55.225-44.567v-8.309M97.574 355.66v-6.245m37.659-29.071v-5.84m59.791-31.492v-19.41m-70.838 72.889v-23.728m3.202 11.576v-5.426m38.579-21.228v-9.14m16.12 1.638v-22.346m-11.115 16.093v-6.24m-37.955 61.856v-9.43m48.92-67.028v-10.172m30.367 5.059V234.62M92.29 352.158v-5.243m204.838-164.179v-13.93M155.967 296.182v-8.535m11.948 6.396v-7.858M152.13 303.94v-9.645m-2.306-6.207v-15.156m18.082 20.262v-4.36m33.858-14.182V262.96m-24.748 36.163v-18.618m119.229-82.238v-17.982M112.683 337.36v-5.659m46.112-36.197v-11.38m128.678-51.298V184.74M142.641 327.677v-7.9m56.776-32.535v-12.864m-63.127 47.583v-18.677m28.616-.187v-6.158m92.32-35.909v-52.875M144.433 315.95v-6.656m-8.897 23.422V318.94m5.965-7.582v-7.675m-33.195 44.509v-8.715m-1.726 5.163v-6.412m23.935-15.904v-6.198m194.073-138.389v-19.538M92.859 351.534v-4.595m105.442-16.961v-35.911m-24.204 1.211v-9.127m6.429 1.497v-6.472m38.148-24.556v-8.04m-100.921 89.282v-9.064m-3.287 5.112v-4.76M88.4 357.21v-5.143m76.657-54.882v-5.74m-52.54 54.561v-6.744m26.492-29.664v-15.559M94.26 350.334v-5.797m24.535-14.522v-8.375m182.278-117.517v-75.312M105.671 341.646v-5.227m44.949-32.101v-11.002M335.827 177.68v-21.825M150.668 313.119v-5.794m116.921-73.141v-14.788m-109.017 82.691v-30.549m-54.766 61.668v-8.755m90.101-49.554v-6.78m10.163-45.203v-28.261m-46.853 98.865v-7.408m120.88-11.855v-57.116M149.84 314.307v-7.57m-7.497 6.81v-5.45m44.001-25.036v-9.303m-31.82 66.98v-17.817m14.126-32.781v-18.66m7.976 36.164v-10.45m-40.325 26.383v-10.505m-29.147 37.627v-7.727m13.137-13.546v-7.196m77.416-62.318V249.49m-18.065 40.821V271.31m-25.607 31.953v-5.29m-27.868 25.968v-7.031m60.076-39.881v-4.441m-36.76 89.888V319.19m6.842-18.419v-10.51m76.343 23.857V290.72m-76.964-.376v-7.062m-12.554 22.852v-5.63m36.658-19.12v-10.751m-39.279 50.348v-12.515m50.315-27.543v-8.628M101.5 357.066v-8.456m47.302-32.63v-11.517m37.964-27.11v-5.09m-17.728 24.361v-12.42m4.392-.112v-18.567m-58.004 58.599v-8.598m28.149-2.729v-6.952m11.806 1.612v-8.876m16.333-1.941v-11.251m-18.794 27.417v-12.972m58.541-50.797v-14.482m-47.226 62.364v-14.21m-62.798 69.002v-9.751m19.758-9.415v-8.032m52.339-31.767v-6.465m-80.675 64.953v-4.595m38.103-28.157v-6.317m14.61-2.625v-5.84m-12.275 61.579v-37.487m29.144-15.418v-6.105m-45.928 26.306V319.08m55.275-27.281v-5.77m-76.896 63.262v-4.911m75.127-47.063v-9.004m-75.734 62.24v-6.835M228.7 257.107v-12.615m-96.956 81.531v-12.395m45.23-22.023V277.82m6.535 16.955v-36.332m73.717-8.217v-52.875M99.001 354.666v-4.857m77.302-67.331v-18.34m-39.611 36.322v-9.287m45.163 8.638V287.62m-15.278 10.524v-13.66m-21.59 22.468v-5.465m-8.077 10.962v-11.057m54.899-8.995v-11.169m-97.993 60.78v-5.35M479.644 72.047V44.205M169.513 292.283v-8.54m15.005-2.82v-6.228m50.166-29.038v-11.924M98.012 349.983v-15.898m-1.107 17.02v-5.538m67.415-44.233V293.3m2.084.28v-5.131m-66.437 57.494v-4.817m40.416-26.599v-20.615m-35.201 11.533v-7.253m16.973 34.602v-12.733m49.691-32.797v-7.505m3.73 8.555v-6.604m-24.494 39.578v-17.331m61.055-40.027v-8.254m-116.7 93.534v-4.75m121.02-82.757V251.9m-1.957 11.041v-24.284m-91.012 90.562v-7.383m67.356-40.313v-8.628m-46.534 44.832v-8.409m30.12-16.067v-6.874m-18.828 23.216v-7.746m82.485-58.661v-8.783M137.285 320.89v-9.932m56.622-37.862v-6.78m51.378 42.142v-23.483m-113.048 35.616v-6.333m.385 14.559v-11.982m25.033-9.753v-10.527m40.208-25.363v-9.574m-44.219 43.92v-7.44m-60.785 53.136v-4.595m26.812-15.05v-6.72m-5.296 3.47v-6.823m6.208 12.784v-8.541m211.049-148.173V131.94M99.111 349.244v-4.817m40.153-12.843v-15.715m10.811-5.475v-6.947m-6.281 7.153v-9.76m36.739 1.085v-18.22m-35.034 25.973v-9.717m-54.007 48.321v-10.696m112.725-89.581v-11.818M97.856 347.67v-6.47m68.581-37.917v-8.33m99.305-96.933v-15.087M135.151 322.008v-7.367m15.035-12.128v-6.791m39.554 22.023v-22.25m-76.003 45.557v-10.04m10.146 21.62v-20.596m-34.055 22.077v-4.952m56.197-36.676v-6.327m-19.684 13.495v-7.459m41.73-19.204v-12.355m-76.79 73.9v-5.195m278.131-185.958v-23.241M161.94 302.1v-6.566m-24.684 21.174v-6.37m-22.79 24.472v-4.76m78.384-47.006v-12.87m-26.446 24.606v-5.13m-66.437 57.793v-4.817m78.634-52.261v-14.908m-4.311 12.201v-7.693m5.566 3.564v-6.037m35.271 16.476v-14.31M97.856 347.37v-6.47m128.902-93.167V237.06m-40.319 31.648v-23.813m188.721-89.407V134.23M160.433 295.876v-7.323m35.266-4.624v-12.24m-81.555 65.925v-5.566m-26.84 24.698v-6.616m7.448-.007v-4.774m35.216-36.675v-8.91m-6.68 28.749V317.14m9.088 3.142v-9.917m49.168-16.191v-15.923m-77.549 68.879v-8.392m53.048-32.884v-18.275m21.315-1.991v-8.955m45.815-22.328v-10.613M97.74 348.437v-4.403m52.928-39.319v-5.793m8.93-10.817v-14.589m41.266 10.41v-9.832m-19.32 13.478v-15.924m-43.189 46.092v-6.034m8.855-5.674v-17.43m-46.281 56.362v-8.261m39.828-16.027V308.77m116.489-87.98v-10.808M123.488 331.02v-7.383m23.862-15.657v-4.52m117.074-74.315v-10.712m-43.695 33.843v-8.956m105.36-26.813v-28.653M142.83 314.64v-5.835m168.583-118.983v-22.1m-166.98 141.926v-6.656m119.008-74.719v-30.576m-58.501 88.114v-20.205m-61.583 46.755v-6.68m49.813-5.262v-6.204m18.848-30.307v-8.21m112.57-80.962v-19.539M196.737 297.614v-10.798m-28.124 43.923v-15.825m37.203-44.086v-9.447m-3.29 7.569v-7.49m-32.507 37.358v-9.005m-.131 5.839v-5.074m-41.645 34.864v-5.831m95.797-59.697v-12.228m-105.863 77.923V311.04m-24.684 41.202v-6.011m48.451-33.46v-4.499m-37.031 40.684v-6.642m72.462-49.309V278.22m-55.293 23.453v-12.314m-13.861 52.448v-7.95m79.437-61.581v-14.142m-56.888 66.272v-7.961m199.429-148.383V130.06M177.302 277.58v-27.152m-85.81 103.557v-10.697m15.264 7.383v-6.47m109.819-88.051v-7.701m-60.79 30.41v-10.502m-47.952 70.02v-5.292m29.423-16.677v-6.37" clip-path="url(#p8ff867afab)"/><g id="line2d_14"><defs><path id="m2142927ef1" stroke="#1f77b4" d="M0 3a3 3 0 1 0 0-6 3 3 0 0 0 0 6z"/></defs><g fill="#1f77b4" stroke="#1f77b4" clip-path="url(#p8ff867afab)"><use xlink:href="#m2142927ef1" x="135.536" y="316.824"/><use xlink:href="#m2142927ef1" x="174.43" y="288.313"/><use xlink:href="#m2142927ef1" x="166.784" y="277.809"/><use xlink:href="#m2142927ef1" x="219.917" y="258.902"/><use xlink:href="#m2142927ef1" x="148.802" y="307.22"/><use xlink:href="#m2142927ef1" x="220.261" y="244.797"/><use xlink:href="#m2142927ef1" x="103.995" y="340.833"/><use xlink:href="#m2142927ef1" x="111.628" y="342.634"/><use xlink:href="#m2142927ef1" x="186.243" y="284.412"/><use xlink:href="#m2142927ef1" x="258.75" y="284.712"/><use xlink:href="#m2142927ef1" x="171.665" y="275.408"/><use xlink:href="#m2142927ef1" x="118.205" y="346.835"/><use xlink:href="#m2142927ef1" x="189.301" y="261.003"/><use xlink:href="#m2142927ef1" x="136.756" y="312.923"/><use xlink:href="#m2142927ef1" x="118.739" y="327.328"/><use xlink:href="#m2142927ef1" x="93.581" y="350.437"/><use xlink:href="#m2142927ef1" x="150.732" y="303.919"/><use xlink:href="#m2142927ef1" x="147.845" y="304.519"/><use xlink:href="#m2142927ef1" x="154.233" y="292.215"/><use xlink:href="#m2142927ef1" x="123.488" y="327.328"/><use xlink:href="#m2142927ef1" x="171.63" y="295.816"/><use xlink:href="#m2142927ef1" x="324.588" y="168.268"/><use xlink:href="#m2142927ef1" x="220.83" y="252.6"/><use xlink:href="#m2142927ef1" x="103.663" y="334.831"/><use xlink:href="#m2142927ef1" x="96.931" y="318.325"/><use xlink:href="#m2142927ef1" x="396.83" y="130.754"/><use xlink:href="#m2142927ef1" x="237.683" y="227.09"/><use xlink:href="#m2142927ef1" x="132.413" y="321.926"/><use xlink:href="#m2142927ef1" x="184.021" y="258.302"/><use xlink:href="#m2142927ef1" x="120.292" y="328.829"/><use xlink:href="#m2142927ef1" x="119.621" y="327.328"/><use xlink:href="#m2142927ef1" x="97.856" y="342.634"/><use xlink:href="#m2142927ef1" x="155.602" y="300.018"/><use xlink:href="#m2142927ef1" x="124.924" y="316.824"/><use xlink:href="#m2142927ef1" x="118.265" y="319.225"/><use xlink:href="#m2142927ef1" x="179.757" y="250.799"/><use xlink:href="#m2142927ef1" x="415.866" y="97.741"/><use xlink:href="#m2142927ef1" x="184.576" y="292.815"/><use xlink:href="#m2142927ef1" x="189.281" y="265.505"/><use xlink:href="#m2142927ef1" x="184.518" y="283.812"/><use xlink:href="#m2142927ef1" x="122.155" y="327.028"/><use xlink:href="#m2142927ef1" x="126.405" y="328.829"/><use xlink:href="#m2142927ef1" x="113.983" y="343.834"/><use xlink:href="#m2142927ef1" x="186.298" y="280.81"/><use xlink:href="#m2142927ef1" x="247.49" y="238.795"/><use xlink:href="#m2142927ef1" x="219.937" y="227.39"/><use xlink:href="#m2142927ef1" x="123.414" y="308.721"/><use xlink:href="#m2142927ef1" x="294.077" y="208.783"/><use xlink:href="#m2142927ef1" x="114.466" y="334.231"/><use xlink:href="#m2142927ef1" x="155.602" y="301.218"/><use xlink:href="#m2142927ef1" x="129.776" y="326.428"/><use xlink:href="#m2142927ef1" x="176.639" y="285.012"/><use xlink:href="#m2142927ef1" x="212.067" y="256.501"/><use xlink:href="#m2142927ef1" x="223.201" y="249.599"/><use xlink:href="#m2142927ef1" x="96.406" y="346.235"/><use xlink:href="#m2142927ef1" x="371.692" y="149.061"/><use xlink:href="#m2142927ef1" x="193.907" y="270.907"/><use xlink:href="#m2142927ef1" x="150.713" y="319.825"/><use xlink:href="#m2142927ef1" x="168.601" y="289.814"/><use xlink:href="#m2142927ef1" x="126.976" y="322.226"/><use xlink:href="#m2142927ef1" x="140.992" y="307.521"/><use xlink:href="#m2142927ef1" x="99.497" y="343.234"/><use xlink:href="#m2142927ef1" x="274.042" y="206.082"/><use xlink:href="#m2142927ef1" x="196.97" y="265.805"/><use xlink:href="#m2142927ef1" x="141.944" y="310.522"/><use xlink:href="#m2142927ef1" x="133.982" y="300.018"/><use xlink:href="#m2142927ef1" x="132.423" y="312.322"/><use xlink:href="#m2142927ef1" x="93.493" y="345.335"/><use xlink:href="#m2142927ef1" x="122.861" y="321.326"/><use xlink:href="#m2142927ef1" x="93.97" y="347.736"/><use xlink:href="#m2142927ef1" x="94.285" y="350.137"/><use xlink:href="#m2142927ef1" x="128.747" y="319.525"/><use xlink:href="#m2142927ef1" x="175.481" y="277.509"/><use xlink:href="#m2142927ef1" x="195.321" y="244.797"/><use xlink:href="#m2142927ef1" x="198.504" y="265.805"/><use xlink:href="#m2142927ef1" x="176.639" y="284.412"/><use xlink:href="#m2142927ef1" x="158.365" y="302.419"/><use xlink:href="#m2142927ef1" x="97.136" y="345.035"/><use xlink:href="#m2142927ef1" x="179.642" y="276.609"/><use xlink:href="#m2142927ef1" x="92.764" y="349.837"/><use xlink:href="#m2142927ef1" x="87.204" y="354.038"/><use xlink:href="#m2142927ef1" x="162.193" y="300.618"/><use xlink:href="#m2142927ef1" x="153.67" y="299.418"/><use xlink:href="#m2142927ef1" x="143.065" y="297.017"/><use xlink:href="#m2142927ef1" x="105.217" y="341.133"/><use xlink:href="#m2142927ef1" x="146.139" y="292.215"/><use xlink:href="#m2142927ef1" x="192.21" y="278.109"/><use xlink:href="#m2142927ef1" x="174.43" y="288.013"/><use xlink:href="#m2142927ef1" x="147.489" y="297.317"/><use xlink:href="#m2142927ef1" x="90.673" y="350.437"/><use xlink:href="#m2142927ef1" x="229.925" y="199.18"/><use xlink:href="#m2142927ef1" x="159.247" y="294.015"/><use xlink:href="#m2142927ef1" x="119.999" y="317.124"/><use xlink:href="#m2142927ef1" x="182.003" y="282.011"/><use xlink:href="#m2142927ef1" x="480.151" y="40.72"/><use xlink:href="#m2142927ef1" x="184.518" y="282.611"/><use xlink:href="#m2142927ef1" x="181.674" y="277.809"/><use xlink:href="#m2142927ef1" x="146.632" y="310.822"/><use xlink:href="#m2142927ef1" x="158.291" y="301.818"/><use xlink:href="#m2142927ef1" x="167.502" y="295.816"/><use xlink:href="#m2142927ef1" x="163.35" y="294.316"/><use xlink:href="#m2142927ef1" x="227.669" y="272.107"/><use xlink:href="#m2142927ef1" x="169.718" y="286.813"/><use xlink:href="#m2142927ef1" x="167.48" y="276.909"/><use xlink:href="#m2142927ef1" x="200.539" y="264.904"/><use xlink:href="#m2142927ef1" x="144.008" y="310.522"/><use xlink:href="#m2142927ef1" x="183.926" y="276.609"/><use xlink:href="#m2142927ef1" x="195.55" y="295.816"/><use xlink:href="#m2142927ef1" x="93.539" y="348.036"/><use xlink:href="#m2142927ef1" x="166.294" y="289.814"/><use xlink:href="#m2142927ef1" x="223.949" y="218.087"/><use xlink:href="#m2142927ef1" x="117.772" y="327.328"/><use xlink:href="#m2142927ef1" x="317.598" y="179.072"/><use xlink:href="#m2142927ef1" x="202.526" y="263.404"/><use xlink:href="#m2142927ef1" x="413.117" y="109.746"/><use xlink:href="#m2142927ef1" x="134.873" y="342.334"/><use xlink:href="#m2142927ef1" x="122.509" y="325.227"/><use xlink:href="#m2142927ef1" x="197.199" y="265.205"/><use xlink:href="#m2142927ef1" x="181.544" y="279.01"/><use xlink:href="#m2142927ef1" x="128.347" y="300.918"/><use xlink:href="#m2142927ef1" x="132.743" y="304.82"/><use xlink:href="#m2142927ef1" x="126.706" y="324.627"/><use xlink:href="#m2142927ef1" x="215.627" y="257.102"/><use xlink:href="#m2142927ef1" x="415.866" y="100.742"/><use xlink:href="#m2142927ef1" x="179.77" y="255.301"/><use xlink:href="#m2142927ef1" x="155.602" y="288.013"/><use xlink:href="#m2142927ef1" x="165.191" y="291.915"/><use xlink:href="#m2142927ef1" x="197.309" y="274.808"/><use xlink:href="#m2142927ef1" x="138.379" y="298.817"/><use xlink:href="#m2142927ef1" x="115.634" y="320.425"/><use xlink:href="#m2142927ef1" x="197.199" y="265.205"/><use xlink:href="#m2142927ef1" x="137.643" y="299.418"/><use xlink:href="#m2142927ef1" x="158.169" y="300.018"/><use xlink:href="#m2142927ef1" x="183.683" y="269.406"/><use xlink:href="#m2142927ef1" x="213.579" y="295.816"/><use xlink:href="#m2142927ef1" x="231.027" y="245.097"/><use xlink:href="#m2142927ef1" x="188.351" y="278.41"/><use xlink:href="#m2142927ef1" x="88.763" y="352.238"/><use xlink:href="#m2142927ef1" x="273.945" y="223.789"/><use xlink:href="#m2142927ef1" x="98.041" y="342.334"/><use xlink:href="#m2142927ef1" x="108.726" y="335.731"/><use xlink:href="#m2142927ef1" x="118.795" y="308.421"/><use xlink:href="#m2142927ef1" x="110.882" y="319.825"/><use xlink:href="#m2142927ef1" x="201.211" y="259.803"/><use xlink:href="#m2142927ef1" x="149.199" y="306.62"/><use xlink:href="#m2142927ef1" x="111.662" y="333.931"/><use xlink:href="#m2142927ef1" x="206.725" y="258.302"/><use xlink:href="#m2142927ef1" x="95.523" y="353.738"/><use xlink:href="#m2142927ef1" x="256.493" y="240.295"/><use xlink:href="#m2142927ef1" x="160.566" y="295.816"/><use xlink:href="#m2142927ef1" x="226.621" y="233.993"/><use xlink:href="#m2142927ef1" x="86.797" y="354.638"/><use xlink:href="#m2142927ef1" x="138.543" y="312.022"/><use xlink:href="#m2142927ef1" x="147.771" y="306.02"/><use xlink:href="#m2142927ef1" x="225.81" y="252.9"/><use xlink:href="#m2142927ef1" x="98.38" y="348.036"/><use xlink:href="#m2142927ef1" x="123.968" y="343.834"/><use xlink:href="#m2142927ef1" x="273.017" y="209.684"/><use xlink:href="#m2142927ef1" x="164.687" y="290.414"/><use xlink:href="#m2142927ef1" x="218.674" y="256.801"/><use xlink:href="#m2142927ef1" x="191.454" y="283.812"/><use xlink:href="#m2142927ef1" x="105.265" y="348.936"/><use xlink:href="#m2142927ef1" x="128.243" y="323.427"/><use xlink:href="#m2142927ef1" x="98.758" y="345.035"/><use xlink:href="#m2142927ef1" x="190.121" y="277.809"/><use xlink:href="#m2142927ef1" x="130.521" y="318.325"/><use xlink:href="#m2142927ef1" x="153.67" y="297.917"/><use xlink:href="#m2142927ef1" x="153.978" y="305.42"/><use xlink:href="#m2142927ef1" x="231.027" y="249.599"/><use xlink:href="#m2142927ef1" x="125.981" y="323.427"/><use xlink:href="#m2142927ef1" x="168.76" y="283.211"/><use xlink:href="#m2142927ef1" x="92.018" y="351.037"/><use xlink:href="#m2142927ef1" x="118.607" y="336.031"/><use xlink:href="#m2142927ef1" x="200.015" y="259.803"/><use xlink:href="#m2142927ef1" x="114.466" y="335.731"/><use xlink:href="#m2142927ef1" x="132.376" y="317.124"/><use xlink:href="#m2142927ef1" x="142.25" y="307.821"/><use xlink:href="#m2142927ef1" x="165.385" y="294.316"/><use xlink:href="#m2142927ef1" x="180.416" y="286.813"/><use xlink:href="#m2142927ef1" x="204.283" y="262.804"/><use xlink:href="#m2142927ef1" x="125.526" y="322.826"/><use xlink:href="#m2142927ef1" x="193.231" y="273.608"/><use xlink:href="#m2142927ef1" x="107.4" y="340.533"/><use xlink:href="#m2142927ef1" x="131.389" y="310.822"/><use xlink:href="#m2142927ef1" x="316.505" y="171.269"/><use xlink:href="#m2142927ef1" x="163.94" y="295.816"/><use xlink:href="#m2142927ef1" x="441.346" y="79.734"/><use xlink:href="#m2142927ef1" x="92.996" y="348.936"/><use xlink:href="#m2142927ef1" x="153.751" y="289.514"/><use xlink:href="#m2142927ef1" x="174.312" y="303.019"/><use xlink:href="#m2142927ef1" x="175.967" y="286.813"/><use xlink:href="#m2142927ef1" x="107.122" y="346.835"/><use xlink:href="#m2142927ef1" x="171.714" y="292.815"/><use xlink:href="#m2142927ef1" x="204.941" y="262.804"/><use xlink:href="#m2142927ef1" x="304.364" y="175.771"/><use xlink:href="#m2142927ef1" x="159.098" y="301.818"/><use xlink:href="#m2142927ef1" x="201.842" y="261.903"/><use xlink:href="#m2142927ef1" x="137.256" y="315.324"/><use xlink:href="#m2142927ef1" x="212.177" y="350.437"/><use xlink:href="#m2142927ef1" x="135.556" y="313.823"/><use xlink:href="#m2142927ef1" x="90.451" y="349.236"/><use xlink:href="#m2142927ef1" x="184.518" y="278.71"/><use xlink:href="#m2142927ef1" x="158.698" y="294.015"/><use xlink:href="#m2142927ef1" x="239.269" y="339.333"/><use xlink:href="#m2142927ef1" x="186.243" y="279.91"/><use xlink:href="#m2142927ef1" x="144.433" y="308.121"/><use xlink:href="#m2142927ef1" x="124.601" y="321.326"/><use xlink:href="#m2142927ef1" x="166.404" y="292.815"/><use xlink:href="#m2142927ef1" x="161.349" y="309.321"/><use xlink:href="#m2142927ef1" x="93.504" y="347.136"/><use xlink:href="#m2142927ef1" x="151.28" y="306.32"/><use xlink:href="#m2142927ef1" x="141.944" y="310.222"/><use xlink:href="#m2142927ef1" x="149.187" y="315.324"/><use xlink:href="#m2142927ef1" x="169.626" y="279.61"/><use xlink:href="#m2142927ef1" x="143.065" y="309.621"/><use xlink:href="#m2142927ef1" x="181.439" y="276.309"/><use xlink:href="#m2142927ef1" x="93.504" y="349.536"/><use xlink:href="#m2142927ef1" x="154.476" y="289.814"/><use xlink:href="#m2142927ef1" x="137.387" y="322.826"/><use xlink:href="#m2142927ef1" x="151.234" y="310.222"/><use xlink:href="#m2142927ef1" x="169.121" y="313.823"/><use xlink:href="#m2142927ef1" x="146.203" y="307.821"/><use xlink:href="#m2142927ef1" x="99.837" y="348.636"/><use xlink:href="#m2142927ef1" x="144.86" y="317.124"/><use xlink:href="#m2142927ef1" x="101.194" y="331.83"/><use xlink:href="#m2142927ef1" x="317.598" y="153.262"/><use xlink:href="#m2142927ef1" x="133.443" y="324.627"/><use xlink:href="#m2142927ef1" x="162.879" y="294.015"/><use xlink:href="#m2142927ef1" x="159.017" y="298.217"/><use xlink:href="#m2142927ef1" x="114.322" y="354.338"/><use xlink:href="#m2142927ef1" x="159.23" y="294.616"/><use xlink:href="#m2142927ef1" x="92.387" y="349.236"/><use xlink:href="#m2142927ef1" x="168.021" y="298.217"/><use xlink:href="#m2142927ef1" x="141.944" y="309.922"/><use xlink:href="#m2142927ef1" x="266.901" y="208.783"/><use xlink:href="#m2142927ef1" x="154.883" y="303.919"/><use xlink:href="#m2142927ef1" x="201.507" y="269.106"/><use xlink:href="#m2142927ef1" x="291.978" y="189.576"/><use xlink:href="#m2142927ef1" x="109.951" y="339.333"/><use xlink:href="#m2142927ef1" x="94.772" y="345.335"/><use xlink:href="#m2142927ef1" x="108.704" y="343.534"/><use xlink:href="#m2142927ef1" x="154.035" y="299.718"/><use xlink:href="#m2142927ef1" x="105.394" y="331.83"/><use xlink:href="#m2142927ef1" x="172.95" y="288.313"/><use xlink:href="#m2142927ef1" x="110.372" y="337.232"/><use xlink:href="#m2142927ef1" x="179.642" y="282.311"/><use xlink:href="#m2142927ef1" x="178.601" y="292.815"/><use xlink:href="#m2142927ef1" x="114.488" y="337.532"/><use xlink:href="#m2142927ef1" x="166.404" y="297.917"/><use xlink:href="#m2142927ef1" x="186.243" y="270.607"/><use xlink:href="#m2142927ef1" x="182.087" y="253.8"/><use xlink:href="#m2142927ef1" x="138.512" y="328.829"/><use xlink:href="#m2142927ef1" x="188.095" y="286.813"/><use xlink:href="#m2142927ef1" x="102.925" y="342.034"/><use xlink:href="#m2142927ef1" x="95.117" y="346.835"/><use xlink:href="#m2142927ef1" x="140.757" y="318.025"/><use xlink:href="#m2142927ef1" x="178.191" y="303.019"/><use xlink:href="#m2142927ef1" x="124.925" y="320.726"/><use xlink:href="#m2142927ef1" x="129.716" y="320.425"/><use xlink:href="#m2142927ef1" x="248.988" y="224.089"/><use xlink:href="#m2142927ef1" x="155.645" y="302.419"/><use xlink:href="#m2142927ef1" x="102.818" y="346.835"/><use xlink:href="#m2142927ef1" x="93.581" y="346.235"/><use xlink:href="#m2142927ef1" x="123.92" y="305.42"/><use xlink:href="#m2142927ef1" x="103.266" y="328.829"/><use xlink:href="#m2142927ef1" x="170.498" y="291.615"/><use xlink:href="#m2142927ef1" x="204.941" y="265.205"/><use xlink:href="#m2142927ef1" x="174.983" y="283.812"/><use xlink:href="#m2142927ef1" x="234.684" y="235.193"/><use xlink:href="#m2142927ef1" x="148.802" y="304.82"/><use xlink:href="#m2142927ef1" x="119.881" y="303.319"/><use xlink:href="#m2142927ef1" x="173.255" y="298.817"/><use xlink:href="#m2142927ef1" x="100.667" y="352.838"/><use xlink:href="#m2142927ef1" x="102.777" y="309.021"/><use xlink:href="#m2142927ef1" x="282.505" y="243.897"/><use xlink:href="#m2142927ef1" x="205.593" y="250.799"/><use xlink:href="#m2142927ef1" x="175.389" y="286.513"/><use xlink:href="#m2142927ef1" x="122.155" y="322.526"/><use xlink:href="#m2142927ef1" x="185.313" y="277.809"/><use xlink:href="#m2142927ef1" x="168.677" y="310.822"/><use xlink:href="#m2142927ef1" x="150.668" y="313.223"/><use xlink:href="#m2142927ef1" x="268.385" y="217.787"/><use xlink:href="#m2142927ef1" x="151.28" y="307.521"/><use xlink:href="#m2142927ef1" x="154.283" y="296.416"/><use xlink:href="#m2142927ef1" x="218.674" y="252.6"/><use xlink:href="#m2142927ef1" x="168.475" y="283.812"/><use xlink:href="#m2142927ef1" x="203.784" y="256.801"/><use xlink:href="#m2142927ef1" x="155.685" y="301.818"/><use xlink:href="#m2142927ef1" x="197.434" y="271.807"/><use xlink:href="#m2142927ef1" x="162.777" y="291.014"/><use xlink:href="#m2142927ef1" x="91.866" y="351.337"/><use xlink:href="#m2142927ef1" x="144.375" y="329.129"/><use xlink:href="#m2142927ef1" x="139.605" y="333.33"/><use xlink:href="#m2142927ef1" x="155.768" y="306.32"/><use xlink:href="#m2142927ef1" x="94.332" y="350.137"/><use xlink:href="#m2142927ef1" x="136.031" y="314.723"/><use xlink:href="#m2142927ef1" x="177.071" y="261.003"/><use xlink:href="#m2142927ef1" x="212.137" y="257.102"/><use xlink:href="#m2142927ef1" x="177.11" y="283.812"/><use xlink:href="#m2142927ef1" x="97.856" y="346.535"/><use xlink:href="#m2142927ef1" x="181.463" y="279.91"/><use xlink:href="#m2142927ef1" x="131.243" y="307.821"/><use xlink:href="#m2142927ef1" x="113.983" y="336.031"/><use xlink:href="#m2142927ef1" x="122.384" y="325.227"/><use xlink:href="#m2142927ef1" x="121.223" y="322.826"/><use xlink:href="#m2142927ef1" x="212.137" y="257.702"/><use xlink:href="#m2142927ef1" x="158.698" y="297.017"/><use xlink:href="#m2142927ef1" x="129.226" y="319.525"/><use xlink:href="#m2142927ef1" x="492.615" y="46.722"/><use xlink:href="#m2142927ef1" x="123.782" y="331.83"/><use xlink:href="#m2142927ef1" x="166.404" y="291.314"/><use xlink:href="#m2142927ef1" x="126.956" y="325.828"/><use xlink:href="#m2142927ef1" x="262.537" y="226.79"/><use xlink:href="#m2142927ef1" x="155.602" y="299.718"/><use xlink:href="#m2142927ef1" x="200.376" y="272.707"/><use xlink:href="#m2142927ef1" x="179.642" y="285.012"/><use xlink:href="#m2142927ef1" x="153.963" y="284.412"/><use xlink:href="#m2142927ef1" x="97.856" y="347.136"/><use xlink:href="#m2142927ef1" x="183.004" y="276.609"/><use xlink:href="#m2142927ef1" x="117.307" y="331.53"/><use xlink:href="#m2142927ef1" x="88.239" y="354.638"/><use xlink:href="#m2142927ef1" x="238.857" y="241.796"/><use xlink:href="#m2142927ef1" x="139.903" y="313.823"/><use xlink:href="#m2142927ef1" x="148.175" y="303.619"/><use xlink:href="#m2142927ef1" x="155.602" y="300.918"/><use xlink:href="#m2142927ef1" x="130.564" y="326.728"/><use xlink:href="#m2142927ef1" x="133.92" y="316.824"/><use xlink:href="#m2142927ef1" x="204.861" y="241.796"/><use xlink:href="#m2142927ef1" x="106.599" y="316.524"/><use xlink:href="#m2142927ef1" x="137.324" y="315.324"/><use xlink:href="#m2142927ef1" x="153.963" y="287.113"/><use xlink:href="#m2142927ef1" x="192.257" y="240.595"/><use xlink:href="#m2142927ef1" x="172.574" y="286.513"/><use xlink:href="#m2142927ef1" x="179.642" y="285.012"/><use xlink:href="#m2142927ef1" x="215.959" y="253.8"/><use xlink:href="#m2142927ef1" x="98.345" y="349.837"/><use xlink:href="#m2142927ef1" x="122.025" y="331.83"/><use xlink:href="#m2142927ef1" x="148.335" y="314.723"/><use xlink:href="#m2142927ef1" x="150.685" y="304.82"/><use xlink:href="#m2142927ef1" x="214.061" y="250.499"/><use xlink:href="#m2142927ef1" x="128.799" y="322.226"/><use xlink:href="#m2142927ef1" x="97.856" y="347.136"/><use xlink:href="#m2142927ef1" x="161.532" y="292.815"/><use xlink:href="#m2142927ef1" x="186.298" y="265.805"/><use xlink:href="#m2142927ef1" x="143.15" y="304.519"/><use xlink:href="#m2142927ef1" x="251.253" y="222.288"/><use xlink:href="#m2142927ef1" x="133.659" y="315.324"/><use xlink:href="#m2142927ef1" x="162.95" y="297.917"/><use xlink:href="#m2142927ef1" x="94.332" y="349.536"/><use xlink:href="#m2142927ef1" x="159.838" y="296.116"/><use xlink:href="#m2142927ef1" x="194.488" y="257.402"/><use xlink:href="#m2142927ef1" x="133.685" y="295.816"/><use xlink:href="#m2142927ef1" x="146.769" y="290.414"/><use xlink:href="#m2142927ef1" x="177.593" y="298.817"/><use xlink:href="#m2142927ef1" x="101.437" y="346.535"/><use xlink:href="#m2142927ef1" x="165.468" y="293.715"/><use xlink:href="#m2142927ef1" x="105.46" y="331.83"/><use xlink:href="#m2142927ef1" x="156.004" y="292.215"/><use xlink:href="#m2142927ef1" x="131.342" y="314.723"/><use xlink:href="#m2142927ef1" x="141.944" y="308.421"/><use xlink:href="#m2142927ef1" x="166.949" y="291.615"/><use xlink:href="#m2142927ef1" x="184.668" y="265.805"/><use xlink:href="#m2142927ef1" x="143.432" y="307.821"/><use xlink:href="#m2142927ef1" x="171.011" y="280.21"/><use xlink:href="#m2142927ef1" x="204.941" y="276.309"/><use xlink:href="#m2142927ef1" x="159.236" y="299.418"/><use xlink:href="#m2142927ef1" x="129.968" y="306.32"/><use xlink:href="#m2142927ef1" x="113.983" y="336.031"/><use xlink:href="#m2142927ef1" x="212.137" y="256.501"/><use xlink:href="#m2142927ef1" x="148.823" y="309.321"/><use xlink:href="#m2142927ef1" x="129.226" y="319.825"/><use xlink:href="#m2142927ef1" x="128.892" y="325.227"/><use xlink:href="#m2142927ef1" x="103.342" y="344.735"/><use xlink:href="#m2142927ef1" x="159.424" y="296.717"/><use xlink:href="#m2142927ef1" x="193.766" y="248.398"/><use xlink:href="#m2142927ef1" x="138.679" y="316.524"/><use xlink:href="#m2142927ef1" x="240.6" y="236.094"/><use xlink:href="#m2142927ef1" x="87.204" y="354.038"/><use xlink:href="#m2142927ef1" x="135.536" y="328.829"/><use xlink:href="#m2142927ef1" x="171.462" y="299.117"/><use xlink:href="#m2142927ef1" x="135.293" y="315.023"/><use xlink:href="#m2142927ef1" x="181.544" y="279.61"/><use xlink:href="#m2142927ef1" x="171.59" y="306.32"/><use xlink:href="#m2142927ef1" x="198.301" y="312.322"/><use xlink:href="#m2142927ef1" x="179.642" y="273.608"/><use xlink:href="#m2142927ef1" x="179.871" y="283.812"/><use xlink:href="#m2142927ef1" x="97.856" y="346.835"/><use xlink:href="#m2142927ef1" x="176.624" y="310.822"/><use xlink:href="#m2142927ef1" x="94.285" y="350.137"/><use xlink:href="#m2142927ef1" x="135.233" y="316.824"/><use xlink:href="#m2142927ef1" x="92.859" y="351.037"/><use xlink:href="#m2142927ef1" x="202.526" y="268.506"/><use xlink:href="#m2142927ef1" x="210.081" y="249.599"/><use xlink:href="#m2142927ef1" x="166.254" y="292.515"/><use xlink:href="#m2142927ef1" x="106.916" y="336.031"/><use xlink:href="#m2142927ef1" x="167.176" y="294.316"/><use xlink:href="#m2142927ef1" x="152.712" y="291.014"/><use xlink:href="#m2142927ef1" x="179.642" y="289.814"/><use xlink:href="#m2142927ef1" x="114.847" y="334.831"/><use xlink:href="#m2142927ef1" x="166.949" y="288.013"/><use xlink:href="#m2142927ef1" x="138.331" y="312.022"/><use xlink:href="#m2142927ef1" x="225.557" y="256.801"/><use xlink:href="#m2142927ef1" x="170.019" y="297.317"/><use xlink:href="#m2142927ef1" x="145.344" y="318.325"/><use xlink:href="#m2142927ef1" x="107.097" y="344.435"/><use xlink:href="#m2142927ef1" x="218.611" y="250.799"/><use xlink:href="#m2142927ef1" x="99.497" y="343.834"/><use xlink:href="#m2142927ef1" x="99.967" y="345.935"/><use xlink:href="#m2142927ef1" x="94.285" y="345.635"/><use xlink:href="#m2142927ef1" x="276.445" y="194.078"/><use xlink:href="#m2142927ef1" x="150.64" y="292.815"/><use xlink:href="#m2142927ef1" x="164.235" y="293.415"/><use xlink:href="#m2142927ef1" x="109.526" y="332.13"/><use xlink:href="#m2142927ef1" x="94.285" y="348.336"/><use xlink:href="#m2142927ef1" x="205.409" y="289.814"/><use xlink:href="#m2142927ef1" x="185.141" y="277.809"/><use xlink:href="#m2142927ef1" x="126.419" y="324.627"/><use xlink:href="#m2142927ef1" x="91.108" y="347.736"/><use xlink:href="#m2142927ef1" x="185.271" y="283.812"/><use xlink:href="#m2142927ef1" x="168.266" y="291.314"/><use xlink:href="#m2142927ef1" x="179.642" y="271.807"/><use xlink:href="#m2142927ef1" x="123.637" y="342.334"/><use xlink:href="#m2142927ef1" x="115.288" y="351.637"/><use xlink:href="#m2142927ef1" x="204.273" y="259.803"/><use xlink:href="#m2142927ef1" x="128.035" y="322.526"/><use xlink:href="#m2142927ef1" x="323.236" y="167.368"/><use xlink:href="#m2142927ef1" x="110.241" y="348.936"/><use xlink:href="#m2142927ef1" x="123.337" y="348.936"/><use xlink:href="#m2142927ef1" x="235.431" y="232.792"/><use xlink:href="#m2142927ef1" x="136.026" y="316.224"/><use xlink:href="#m2142927ef1" x="237.463" y="238.795"/><use xlink:href="#m2142927ef1" x="149.199" y="305.42"/><use xlink:href="#m2142927ef1" x="208.751" y="262.804"/><use xlink:href="#m2142927ef1" x="129.226" y="322.226"/><use xlink:href="#m2142927ef1" x="132.954" y="280.81"/><use xlink:href="#m2142927ef1" x="90.814" y="351.637"/><use xlink:href="#m2142927ef1" x="136.557" y="337.832"/><use xlink:href="#m2142927ef1" x="116.708" y="328.829"/><use xlink:href="#m2142927ef1" x="159.364" y="298.517"/><use xlink:href="#m2142927ef1" x="103.549" y="352.238"/><use xlink:href="#m2142927ef1" x="88.031" y="351.037"/><use xlink:href="#m2142927ef1" x="196.228" y="274.808"/><use xlink:href="#m2142927ef1" x="140.152" y="306.62"/><use xlink:href="#m2142927ef1" x="170.223" y="282.911"/><use xlink:href="#m2142927ef1" x="189.175" y="259.803"/><use xlink:href="#m2142927ef1" x="108.212" y="330.929"/><use xlink:href="#m2142927ef1" x="144.004" y="304.82"/><use xlink:href="#m2142927ef1" x="93.377" y="348.036"/><use xlink:href="#m2142927ef1" x="132.87" y="313.823"/><use xlink:href="#m2142927ef1" x="171.114" y="296.416"/><use xlink:href="#m2142927ef1" x="112.102" y="331.83"/><use xlink:href="#m2142927ef1" x="174.43" y="285.612"/><use xlink:href="#m2142927ef1" x="128.035" y="321.926"/><use xlink:href="#m2142927ef1" x="152.43" y="282.311"/><use xlink:href="#m2142927ef1" x="150.075" y="304.219"/><use xlink:href="#m2142927ef1" x="272.695" y="205.782"/><use xlink:href="#m2142927ef1" x="142.448" y="315.324"/><use xlink:href="#m2142927ef1" x="174.743" y="288.914"/><use xlink:href="#m2142927ef1" x="128.543" y="346.835"/><use xlink:href="#m2142927ef1" x="92.466" y="349.236"/><use xlink:href="#m2142927ef1" x="353.104" y="151.462"/><use xlink:href="#m2142927ef1" x="175.071" y="286.813"/><use xlink:href="#m2142927ef1" x="324.588" y="167.968"/><use xlink:href="#m2142927ef1" x="184.518" y="280.21"/><use xlink:href="#m2142927ef1" x="221.723" y="259.202"/><use xlink:href="#m2142927ef1" x="123.649" y="342.034"/><use xlink:href="#m2142927ef1" x="193.907" y="275.709"/><use xlink:href="#m2142927ef1" x="123.775" y="316.824"/><use xlink:href="#m2142927ef1" x="178.358" y="292.215"/><use xlink:href="#m2142927ef1" x="121.29" y="329.129"/><use xlink:href="#m2142927ef1" x="101.865" y="333.33"/><use xlink:href="#m2142927ef1" x="119.087" y="328.829"/><use xlink:href="#m2142927ef1" x="137.735" y="314.123"/><use xlink:href="#m2142927ef1" x="181.167" y="277.809"/><use xlink:href="#m2142927ef1" x="93.414" y="349.536"/><use xlink:href="#m2142927ef1" x="186.439" y="256.801"/><use xlink:href="#m2142927ef1" x="110.731" y="334.831"/><use xlink:href="#m2142927ef1" x="144.704" y="308.721"/><use xlink:href="#m2142927ef1" x="285.332" y="187.775"/><use xlink:href="#m2142927ef1" x="135.536" y="319.825"/><use xlink:href="#m2142927ef1" x="259.423" y="316.824"/><use xlink:href="#m2142927ef1" x="104.584" y="342.334"/><use xlink:href="#m2142927ef1" x="218.802" y="256.801"/><use xlink:href="#m2142927ef1" x="144.158" y="336.632"/><use xlink:href="#m2142927ef1" x="111.663" y="340.233"/><use xlink:href="#m2142927ef1" x="127.242" y="292.815"/><use xlink:href="#m2142927ef1" x="174.43" y="284.712"/><use xlink:href="#m2142927ef1" x="137.256" y="313.223"/><use xlink:href="#m2142927ef1" x="212.137" y="258.602"/><use xlink:href="#m2142927ef1" x="183.473" y="282.311"/><use xlink:href="#m2142927ef1" x="95.117" y="346.535"/><use xlink:href="#m2142927ef1" x="113.762" y="334.831"/><use xlink:href="#m2142927ef1" x="103.83" y="352.838"/><use xlink:href="#m2142927ef1" x="173.43" y="289.814"/><use xlink:href="#m2142927ef1" x="113.528" y="331.23"/><use xlink:href="#m2142927ef1" x="143.879" y="304.82"/><use xlink:href="#m2142927ef1" x="230.975" y="247.798"/><use xlink:href="#m2142927ef1" x="105.671" y="337.832"/><use xlink:href="#m2142927ef1" x="173.638" y="290.414"/><use xlink:href="#m2142927ef1" x="304.364" y="186.875"/><use xlink:href="#m2142927ef1" x="98.386" y="337.832"/><use xlink:href="#m2142927ef1" x="156.027" y="271.807"/><use xlink:href="#m2142927ef1" x="228.218" y="247.798"/><use xlink:href="#m2142927ef1" x="120.377" y="322.826"/><use xlink:href="#m2142927ef1" x="167.188" y="327.328"/><use xlink:href="#m2142927ef1" x="157.208" y="297.317"/><use xlink:href="#m2142927ef1" x="171.062" y="306.32"/><use xlink:href="#m2142927ef1" x="220.729" y="258.602"/><use xlink:href="#m2142927ef1" x="88.308" y="352.838"/><use xlink:href="#m2142927ef1" x="189.052" y="295.216"/><use xlink:href="#m2142927ef1" x="144.704" y="312.322"/><use xlink:href="#m2142927ef1" x="268.464" y="211.784"/><use xlink:href="#m2142927ef1" x="121.612" y="336.632"/><use xlink:href="#m2142927ef1" x="88.589" y="352.238"/><use xlink:href="#m2142927ef1" x="193.995" y="270.607"/><use xlink:href="#m2142927ef1" x="174.313" y="271.807"/><use xlink:href="#m2142927ef1" x="110.035" y="335.431"/><use xlink:href="#m2142927ef1" x="154.382" y="303.919"/><use xlink:href="#m2142927ef1" x="137.256" y="313.523"/><use xlink:href="#m2142927ef1" x="179.642" y="294.015"/><use xlink:href="#m2142927ef1" x="234.867" y="235.793"/><use xlink:href="#m2142927ef1" x="97.574" y="352.538"/><use xlink:href="#m2142927ef1" x="135.233" y="317.424"/><use xlink:href="#m2142927ef1" x="195.024" y="273.308"/><use xlink:href="#m2142927ef1" x="124.186" y="324.627"/><use xlink:href="#m2142927ef1" x="127.388" y="321.626"/><use xlink:href="#m2142927ef1" x="165.967" y="293.115"/><use xlink:href="#m2142927ef1" x="182.087" y="279.01"/><use xlink:href="#m2142927ef1" x="170.972" y="280.81"/><use xlink:href="#m2142927ef1" x="133.017" y="334.831"/><use xlink:href="#m2142927ef1" x="181.937" y="258.002"/><use xlink:href="#m2142927ef1" x="212.304" y="246.297"/><use xlink:href="#m2142927ef1" x="92.29" y="349.536"/><use xlink:href="#m2142927ef1" x="297.128" y="175.771"/><use xlink:href="#m2142927ef1" x="155.967" y="291.915"/><use xlink:href="#m2142927ef1" x="167.915" y="290.114"/><use xlink:href="#m2142927ef1" x="152.13" y="299.117"/><use xlink:href="#m2142927ef1" x="149.824" y="280.51"/><use xlink:href="#m2142927ef1" x="167.906" y="291.014"/><use xlink:href="#m2142927ef1" x="201.764" y="268.806"/><use xlink:href="#m2142927ef1" x="177.016" y="289.814"/><use xlink:href="#m2142927ef1" x="296.245" y="189.276"/><use xlink:href="#m2142927ef1" x="112.683" y="334.531"/><use xlink:href="#m2142927ef1" x="158.795" y="289.814"/><use xlink:href="#m2142927ef1" x="287.473" y="208.783"/><use xlink:href="#m2142927ef1" x="142.641" y="323.727"/><use xlink:href="#m2142927ef1" x="199.417" y="280.81"/><use xlink:href="#m2142927ef1" x="136.291" y="312.623"/><use xlink:href="#m2142927ef1" x="164.906" y="300.018"/><use xlink:href="#m2142927ef1" x="257.226" y="234.593"/><use xlink:href="#m2142927ef1" x="144.433" y="312.623"/><use xlink:href="#m2142927ef1" x="135.536" y="325.828"/><use xlink:href="#m2142927ef1" x="141.501" y="307.521"/><use xlink:href="#m2142927ef1" x="108.306" y="343.834"/><use xlink:href="#m2142927ef1" x="106.58" y="341.433"/><use xlink:href="#m2142927ef1" x="130.515" y="319.225"/><use xlink:href="#m2142927ef1" x="324.588" y="167.968"/><use xlink:href="#m2142927ef1" x="92.859" y="349.236"/><use xlink:href="#m2142927ef1" x="198.301" y="312.022"/><use xlink:href="#m2142927ef1" x="174.097" y="290.714"/><use xlink:href="#m2142927ef1" x="180.526" y="284.412"/><use xlink:href="#m2142927ef1" x="218.674" y="252.6"/><use xlink:href="#m2142927ef1" x="117.753" y="333.33"/><use xlink:href="#m2142927ef1" x="114.466" y="331.53"/><use xlink:href="#m2142927ef1" x="88.4" y="354.638"/><use xlink:href="#m2142927ef1" x="165.057" y="294.316"/><use xlink:href="#m2142927ef1" x="112.517" y="342.634"/><use xlink:href="#m2142927ef1" x="139.009" y="301.818"/><use xlink:href="#m2142927ef1" x="94.26" y="347.436"/><use xlink:href="#m2142927ef1" x="118.795" y="325.828"/><use xlink:href="#m2142927ef1" x="301.073" y="166.467"/><use xlink:href="#m2142927ef1" x="105.671" y="339.033"/><use xlink:href="#m2142927ef1" x="150.619" y="298.817"/><use xlink:href="#m2142927ef1" x="335.827" y="166.767"/><use xlink:href="#m2142927ef1" x="150.668" y="310.222"/><use xlink:href="#m2142927ef1" x="267.589" y="226.79"/><use xlink:href="#m2142927ef1" x="158.572" y="286.813"/><use xlink:href="#m2142927ef1" x="103.806" y="328.829"/><use xlink:href="#m2142927ef1" x="193.907" y="271.507"/><use xlink:href="#m2142927ef1" x="204.071" y="208.783"/><use xlink:href="#m2142927ef1" x="157.217" y="289.814"/><use xlink:href="#m2142927ef1" x="278.097" y="245.697"/><use xlink:href="#m2142927ef1" x="149.84" y="310.522"/><use xlink:href="#m2142927ef1" x="142.343" y="310.822"/><use xlink:href="#m2142927ef1" x="186.344" y="278.41"/><use xlink:href="#m2142927ef1" x="154.524" y="331.83"/><use xlink:href="#m2142927ef1" x="168.651" y="280.81"/><use xlink:href="#m2142927ef1" x="176.626" y="302.419"/><use xlink:href="#m2142927ef1" x="136.301" y="318.325"/><use xlink:href="#m2142927ef1" x="107.154" y="346.835"/><use xlink:href="#m2142927ef1" x="120.291" y="325.828"/><use xlink:href="#m2142927ef1" x="197.707" y="254.701"/><use xlink:href="#m2142927ef1" x="179.642" y="280.81"/><use xlink:href="#m2142927ef1" x="154.035" y="300.618"/><use xlink:href="#m2142927ef1" x="126.167" y="320.425"/><use xlink:href="#m2142927ef1" x="186.243" y="274.808"/><use xlink:href="#m2142927ef1" x="149.483" y="340.833"/><use xlink:href="#m2142927ef1" x="156.325" y="295.516"/><use xlink:href="#m2142927ef1" x="232.668" y="302.419"/><use xlink:href="#m2142927ef1" x="155.704" y="286.813"/><use xlink:href="#m2142927ef1" x="143.15" y="303.319"/><use xlink:href="#m2142927ef1" x="179.808" y="276.009"/><use xlink:href="#m2142927ef1" x="140.529" y="314.723"/><use xlink:href="#m2142927ef1" x="190.844" y="276.609"/><use xlink:href="#m2142927ef1" x="101.5" y="352.838"/><use xlink:href="#m2142927ef1" x="148.802" y="310.222"/><use xlink:href="#m2142927ef1" x="186.766" y="274.808"/><use xlink:href="#m2142927ef1" x="169.038" y="290.414"/><use xlink:href="#m2142927ef1" x="173.43" y="274.808"/><use xlink:href="#m2142927ef1" x="115.426" y="319.825"/><use xlink:href="#m2142927ef1" x="143.575" y="309.321"/><use xlink:href="#m2142927ef1" x="155.381" y="303.019"/><use xlink:href="#m2142927ef1" x="171.714" y="291.014"/><use xlink:href="#m2142927ef1" x="152.919" y="306.32"/><use xlink:href="#m2142927ef1" x="211.461" y="241.796"/><use xlink:href="#m2142927ef1" x="164.235" y="289.814"/><use xlink:href="#m2142927ef1" x="101.437" y="346.835"/><use xlink:href="#m2142927ef1" x="121.195" y="328.529"/><use xlink:href="#m2142927ef1" x="173.534" y="289.514"/><use xlink:href="#m2142927ef1" x="92.859" y="348.936"/><use xlink:href="#m2142927ef1" x="130.962" y="315.324"/><use xlink:href="#m2142927ef1" x="145.572" y="306.62"/><use xlink:href="#m2142927ef1" x="133.297" y="346.535"/><use xlink:href="#m2142927ef1" x="162.441" y="309.321"/><use xlink:href="#m2142927ef1" x="116.513" y="325.828"/><use xlink:href="#m2142927ef1" x="171.788" y="288.914"/><use xlink:href="#m2142927ef1" x="94.892" y="346.835"/><use xlink:href="#m2142927ef1" x="170.019" y="292.815"/><use xlink:href="#m2142927ef1" x="94.285" y="347.136"/><use xlink:href="#m2142927ef1" x="228.701" y="250.799"/><use xlink:href="#m2142927ef1" x="131.744" y="319.825"/><use xlink:href="#m2142927ef1" x="176.974" y="284.712"/><use xlink:href="#m2142927ef1" x="183.509" y="276.609"/><use xlink:href="#m2142927ef1" x="257.226" y="223.789"/><use xlink:href="#m2142927ef1" x="99.001" y="352.238"/><use xlink:href="#m2142927ef1" x="176.303" y="273.308"/><use xlink:href="#m2142927ef1" x="136.692" y="295.816"/><use xlink:href="#m2142927ef1" x="181.855" y="293.715"/><use xlink:href="#m2142927ef1" x="166.577" y="291.314"/><use xlink:href="#m2142927ef1" x="144.987" y="304.219"/><use xlink:href="#m2142927ef1" x="136.909" y="306.92"/><use xlink:href="#m2142927ef1" x="191.809" y="286.813"/><use xlink:href="#m2142927ef1" x="93.816" y="339.333"/><use xlink:href="#m2142927ef1" x="479.644" y="58.126"/><use xlink:href="#m2142927ef1" x="169.513" y="288.013"/><use xlink:href="#m2142927ef1" x="184.518" y="277.809"/><use xlink:href="#m2142927ef1" x="234.684" y="239.695"/><use xlink:href="#m2142927ef1" x="98.012" y="342.034"/><use xlink:href="#m2142927ef1" x="96.905" y="348.336"/><use xlink:href="#m2142927ef1" x="164.32" y="297.317"/><use xlink:href="#m2142927ef1" x="166.404" y="291.014"/><use xlink:href="#m2142927ef1" x="99.967" y="343.534"/><use xlink:href="#m2142927ef1" x="140.383" y="304.219"/><use xlink:href="#m2142927ef1" x="105.182" y="301.818"/><use xlink:href="#m2142927ef1" x="122.155" y="326.428"/><use xlink:href="#m2142927ef1" x="171.846" y="283.512"/><use xlink:href="#m2142927ef1" x="175.576" y="285.012"/><use xlink:href="#m2142927ef1" x="151.082" y="312.623"/><use xlink:href="#m2142927ef1" x="212.137" y="259.803"/><use xlink:href="#m2142927ef1" x="95.437" y="346.835"/><use xlink:href="#m2142927ef1" x="216.457" y="256.801"/><use xlink:href="#m2142927ef1" x="214.5" y="250.799"/><use xlink:href="#m2142927ef1" x="123.488" y="325.527"/><use xlink:href="#m2142927ef1" x="190.844" y="277.209"/><use xlink:href="#m2142927ef1" x="144.311" y="313.523"/><use xlink:href="#m2142927ef1" x="174.43" y="289.814"/><use xlink:href="#m2142927ef1" x="155.602" y="305.72"/><use xlink:href="#m2142927ef1" x="238.087" y="238.795"/><use xlink:href="#m2142927ef1" x="137.285" y="315.924"/><use xlink:href="#m2142927ef1" x="193.907" y="269.706"/><use xlink:href="#m2142927ef1" x="245.285" y="296.717"/><use xlink:href="#m2142927ef1" x="132.237" y="317.424"/><use xlink:href="#m2142927ef1" x="132.622" y="322.826"/><use xlink:href="#m2142927ef1" x="157.655" y="301.818"/><use xlink:href="#m2142927ef1" x="197.863" y="266.405"/><use xlink:href="#m2142927ef1" x="153.644" y="301.818"/><use xlink:href="#m2142927ef1" x="92.859" y="348.936"/><use xlink:href="#m2142927ef1" x="119.671" y="328.228"/><use xlink:href="#m2142927ef1" x="114.375" y="324.927"/><use xlink:href="#m2142927ef1" x="120.583" y="330.029"/><use xlink:href="#m2142927ef1" x="331.632" y="154.763"/><use xlink:href="#m2142927ef1" x="99.111" y="346.835"/><use xlink:href="#m2142927ef1" x="139.264" y="323.727"/><use xlink:href="#m2142927ef1" x="150.075" y="306.92"/><use xlink:href="#m2142927ef1" x="143.794" y="305.72"/><use xlink:href="#m2142927ef1" x="180.533" y="292.815"/><use xlink:href="#m2142927ef1" x="145.499" y="304.82"/><use xlink:href="#m2142927ef1" x="91.492" y="342.934"/><use xlink:href="#m2142927ef1" x="204.217" y="242.096"/><use xlink:href="#m2142927ef1" x="97.856" y="344.435"/><use xlink:href="#m2142927ef1" x="166.437" y="299.117"/><use xlink:href="#m2142927ef1" x="265.742" y="190.476"/><use xlink:href="#m2142927ef1" x="135.151" y="318.325"/><use xlink:href="#m2142927ef1" x="150.186" y="299.117"/><use xlink:href="#m2142927ef1" x="189.741" y="306.62"/><use xlink:href="#m2142927ef1" x="113.737" y="336.031"/><use xlink:href="#m2142927ef1" x="123.883" y="342.334"/><use xlink:href="#m2142927ef1" x="89.828" y="351.637"/><use xlink:href="#m2142927ef1" x="146.025" y="309.321"/><use xlink:href="#m2142927ef1" x="126.341" y="315.924"/><use xlink:href="#m2142927ef1" x="168.071" y="286.813"/><use xlink:href="#m2142927ef1" x="91.281" y="351.937"/><use xlink:href="#m2142927ef1" x="369.412" y="151.762"/><use xlink:href="#m2142927ef1" x="161.939" y="298.817"/><use xlink:href="#m2142927ef1" x="137.256" y="313.523"/><use xlink:href="#m2142927ef1" x="114.466" y="332.43"/><use xlink:href="#m2142927ef1" x="192.851" y="276.609"/><use xlink:href="#m2142927ef1" x="166.404" y="292.215"/><use xlink:href="#m2142927ef1" x="99.967" y="345.035"/><use xlink:href="#m2142927ef1" x="178.601" y="282.911"/><use xlink:href="#m2142927ef1" x="174.289" y="283.812"/><use xlink:href="#m2142927ef1" x="179.856" y="280.51"/><use xlink:href="#m2142927ef1" x="215.127" y="286.813"/><use xlink:href="#m2142927ef1" x="97.856" y="344.134"/><use xlink:href="#m2142927ef1" x="226.758" y="242.396"/><use xlink:href="#m2142927ef1" x="186.439" y="256.801"/><use xlink:href="#m2142927ef1" x="375.161" y="144.859"/><use xlink:href="#m2142927ef1" x="160.433" y="292.215"/><use xlink:href="#m2142927ef1" x="195.699" y="277.809"/><use xlink:href="#m2142927ef1" x="114.144" y="334.831"/><use xlink:href="#m2142927ef1" x="87.304" y="353.438"/><use xlink:href="#m2142927ef1" x="94.752" y="347.736"/><use xlink:href="#m2142927ef1" x="129.968" y="304.219"/><use xlink:href="#m2142927ef1" x="123.288" y="322.826"/><use xlink:href="#m2142927ef1" x="132.376" y="315.324"/><use xlink:href="#m2142927ef1" x="181.544" y="286.213"/><use xlink:href="#m2142927ef1" x="103.995" y="342.934"/><use xlink:href="#m2142927ef1" x="157.043" y="296.717"/><use xlink:href="#m2142927ef1" x="178.358" y="281.111"/><use xlink:href="#m2142927ef1" x="224.173" y="248.998"/><use xlink:href="#m2142927ef1" x="97.741" y="346.235"/><use xlink:href="#m2142927ef1" x="150.668" y="301.818"/><use xlink:href="#m2142927ef1" x="159.598" y="280.81"/><use xlink:href="#m2142927ef1" x="200.864" y="279.01"/><use xlink:href="#m2142927ef1" x="181.544" y="279.61"/><use xlink:href="#m2142927ef1" x="138.355" y="314.723"/><use xlink:href="#m2142927ef1" x="147.21" y="297.317"/><use xlink:href="#m2142927ef1" x="100.929" y="340.833"/><use xlink:href="#m2142927ef1" x="140.757" y="314.723"/><use xlink:href="#m2142927ef1" x="257.246" y="215.386"/><use xlink:href="#m2142927ef1" x="123.488" y="327.328"/><use xlink:href="#m2142927ef1" x="147.35" y="305.72"/><use xlink:href="#m2142927ef1" x="264.424" y="223.789"/><use xlink:href="#m2142927ef1" x="220.729" y="247.798"/><use xlink:href="#m2142927ef1" x="326.089" y="202.181"/><use xlink:href="#m2142927ef1" x="142.831" y="311.722"/><use xlink:href="#m2142927ef1" x="311.413" y="178.772"/><use xlink:href="#m2142927ef1" x="144.433" y="306.32"/><use xlink:href="#m2142927ef1" x="263.441" y="212.985"/><use xlink:href="#m2142927ef1" x="204.941" y="275.709"/><use xlink:href="#m2142927ef1" x="143.357" y="309.021"/><use xlink:href="#m2142927ef1" x="193.17" y="297.317"/><use xlink:href="#m2142927ef1" x="212.018" y="259.803"/><use xlink:href="#m2142927ef1" x="324.588" y="164.967"/><use xlink:href="#m2142927ef1" x="196.737" y="292.215"/><use xlink:href="#m2142927ef1" x="168.613" y="322.826"/><use xlink:href="#m2142927ef1" x="205.816" y="266.105"/><use xlink:href="#m2142927ef1" x="202.526" y="265.205"/><use xlink:href="#m2142927ef1" x="170.019" y="294.316"/><use xlink:href="#m2142927ef1" x="169.888" y="293.115"/><use xlink:href="#m2142927ef1" x="128.243" y="322.526"/><use xlink:href="#m2142927ef1" x="224.04" y="253.8"/><use xlink:href="#m2142927ef1" x="118.177" y="318.325"/><use xlink:href="#m2142927ef1" x="93.493" y="349.236"/><use xlink:href="#m2142927ef1" x="141.944" y="310.522"/><use xlink:href="#m2142927ef1" x="104.913" y="345.635"/><use xlink:href="#m2142927ef1" x="177.375" y="285.612"/><use xlink:href="#m2142927ef1" x="122.082" y="295.516"/><use xlink:href="#m2142927ef1" x="108.221" y="337.832"/><use xlink:href="#m2142927ef1" x="187.658" y="265.205"/><use xlink:href="#m2142927ef1" x="130.769" y="320.425"/><use xlink:href="#m2142927ef1" x="330.199" y="149.061"/><use xlink:href="#m2142927ef1" x="177.302" y="264.004"/><use xlink:href="#m2142927ef1" x="91.492" y="348.636"/><use xlink:href="#m2142927ef1" x="106.756" y="347.436"/><use xlink:href="#m2142927ef1" x="216.575" y="252.3"/><use xlink:href="#m2142927ef1" x="155.785" y="273.608"/><use xlink:href="#m2142927ef1" x="107.833" y="335.731"/><use xlink:href="#m2142927ef1" x="137.256" y="313.223"/></g></g><path id="patch_3" fill="none" stroke="#000" stroke-linecap="square" stroke-width="2.5" d="M66.506 387.72V7.2"/><path id="patch_4" fill="none" stroke="#000" stroke-linecap="square" stroke-width="2.5" d="M512.906 387.72V7.2"/><path id="patch_5" fill="none" stroke="#000" stroke-linecap="square" stroke-width="2.5" d="M66.506 387.72h446.4"/><path id="patch_6" fill="none" stroke="#000" stroke-linecap="square" stroke-width="2.5" d="M66.506 7.2h446.4"/><g id="text_15"><g transform="matrix(.2 0 0 -.2 384.706 343.165)"><defs><path id="DejaVuSans-Oblique-949" d="M19.734 29.5q-5.28 1.172-7.578 4.344-1.703 2.234-1.703 5.265 0 8.297 7.906 13.141 6.25 3.813 15.828 3.813 3.704 0 7.75-.594 4.063-.578 8.594-1.75l-1.562-8.157q-4.485 1.407-8.25 2.047-3.86.641-7.313.641-5.812 0-9.625-2.25-4.593-2.688-4.593-6.594 0-2.593 2.39-4.39 2.844-2.157 8.5-2.157h7.563l-1.407-7.422H29q-6.734 0-10.688-2.484-5.375-3.375-5.375-8.64 0-3.329 2.891-5.516 3.61-2.735 10.985-2.735 4.53 0 8.875.875 4.359.922 8.156 2.735l-1.657-8.36q-4.64-1.359-8.89-2.046-4.25-.688-8.156-.688-11.61 0-17.078 4.453-4.157 3.422-4.157 9.172 0 7.766 5.469 12.547 4.047 3.578 10.36 4.75z"/><path id="DejaVuSans-109" d="M52 44.188q3.375 6.062 8.063 8.937Q64.75 56 71.093 56q8.548 0 13.188-5.984 4.64-5.97 4.64-17V0h-9.03v32.719q0 7.86-2.797 11.656-2.781 3.813-8.485 3.813-6.984 0-11.046-4.641-4.047-4.625-4.047-12.64V0h-9.032v32.719q0 7.906-2.78 11.687-2.782 3.782-8.595 3.782-6.89 0-10.953-4.657-4.047-4.656-4.047-12.625V0H9.08v54.688h9.03v-8.5q3.078 5.03 7.375 7.421Q29.781 56 35.687 56q5.97 0 10.141-3.031Q50 49.953 52 44.187z"/><path id="DejaVuSans-61" d="M10.594 45.406h62.593v-8.203H10.594zm0-19.922h62.593v-8.297H10.594z"/><path id="DejaVuSans-46" d="M10.688 12.406H21V0H10.687z"/></defs><use xlink:href="#DejaVuSans-Oblique-949" transform="translate(0 .781)"/><use xlink:href="#DejaVuSans-109" transform="matrix(.7 0 0 .7 54.053 -15.625)"/><use xlink:href="#DejaVuSans-97" transform="matrix(.7 0 0 .7 122.241 -15.625)"/><use xlink:href="#DejaVuSans-101" transform="matrix(.7 0 0 .7 165.137 -15.625)"/><use xlink:href="#DejaVuSans-61" transform="translate(230.42 .781)"/><use xlink:href="#DejaVuSans-48" transform="translate(333.691 .781)"/><use xlink:href="#DejaVuSans-46" transform="translate(397.314 .781)"/><use xlink:href="#DejaVuSans-50" transform="translate(423.602 .781)"/><use xlink:href="#DejaVuSans-52" transform="translate(487.225 .781)"/></g><g transform="matrix(.2 0 0 -.2 384.706 365.56)"><defs><path id="DejaVuSans-Oblique-82" d="M25.203 64.797 20.22 38.922h12.687q7.469 0 12.078 4.125 4.625 4.125 4.625 10.766 0 5.312-3.109 8.14-3.094 2.844-8.906 2.844zm18.11-29.781q3.124-.735 5.203-3.625 2.078-2.875 4.812-11.47L59.516 0H49.125l-5.719 18.703q-2.187 7.219-5.078 9.656-2.875 2.453-8.828 2.453H18.61L12.593 0H2.688L16.89 72.906h22.218q10.11 0 15.5-4.578 5.407-4.562 5.407-13.156 0-7.61-4.594-13.188-4.594-5.562-12.11-6.968z"/><path id="DejaVuSans-57" d="M10.984 1.516V10.5q3.72-1.766 7.516-2.688 3.813-.921 7.484-.921 9.766 0 14.907 6.562 5.156 6.563 5.89 19.953-2.828-4.203-7.187-6.453-4.344-2.25-9.61-2.25-10.937 0-17.312 6.61-6.375 6.625-6.375 18.109 0 11.219 6.64 18 6.641 6.797 17.672 6.797 12.657 0 19.313-9.703 6.672-9.688 6.672-28.141 0-17.234-8.188-27.516Q40.234-1.42 26.422-1.42q-3.719 0-7.531.734-3.797.734-7.907 2.203zM30.61 32.422q6.641 0 10.516 4.531 3.89 4.547 3.89 12.469 0 7.86-3.89 12.422-3.875 4.562-10.516 4.562-6.64 0-10.515-4.562-3.875-4.563-3.875-12.422 0-7.922 3.875-12.469 3.875-4.531 10.515-4.531z"/></defs><use xlink:href="#DejaVuSans-Oblique-82" transform="translate(0 .766)"/><use xlink:href="#DejaVuSans-50" transform="matrix(.7 0 0 .7 76.5 39.047)"/><use xlink:href="#DejaVuSans-61" transform="translate(143.252 .766)"/><use xlink:href="#DejaVuSans-48" transform="translate(246.524 .766)"/><use xlink:href="#DejaVuSans-46" transform="translate(310.147 .766)"/><use xlink:href="#DejaVuSans-57" transform="translate(341.934 .766)"/><use xlink:href="#DejaVuSans-50" transform="translate(403.807 .766)"/></g></g></g></g><defs><clipPath id="p8ff867afab"><path d="M66.506 7.2h446.4v380.52h-446.4z"/></clipPath></defs></svg>