<svg height="525.03" viewBox="0 0 1202.431 393.772" width="1603.242" xmlns="http://www.w3.org/2000/svg" xmlns:xlink="http://www.w3.org/1999/xlink"><defs><style>*{stroke-linecap:butt;stroke-linejoin:round}</style></defs><g id="figure_1"><path d="M0 393.772h1202.431V0H0z" fill="none" id="patch_1"/><g id="axes_1"><path d="M79.231 333.36h1116V7.2h-1116z" fill="#fff" id="patch_2"/><g id="PolyCollection_1"><defs><path d="M79.231-386.572v326.16h72.783v-326.16h0H79.23z" id="meed22b98c4" stroke="#000" stroke-opacity=".1"/></defs><g clip-path="url(#pba8de657a1)"><use xlink:href="#meed22b98c4" y="393.772" fill="red" fill-opacity=".1" stroke="#000" stroke-opacity=".1"/></g></g><g id="PolyCollection_2"><defs><path d="M152.014-386.572v326.16h286.278v-326.16h0-286.278z" id="m7242c01954" stroke="#000" stroke-opacity=".1"/></defs><g clip-path="url(#pba8de657a1)"><use xlink:href="#m7242c01954" y="393.772" fill="#00f" fill-opacity=".1" stroke="#000" stroke-opacity=".1"/></g></g><g id="PolyCollection_3"><defs><path d="M438.292-386.572v326.16H768.24v-326.16h0-329.948z" id="m47fd73a51c" stroke="#000" stroke-opacity=".1"/></defs><g clip-path="url(#pba8de657a1)"><use xlink:href="#m47fd73a51c" y="393.772" fill="green" fill-opacity=".1" stroke="#000" stroke-opacity=".1"/></g></g><g id="PolyCollection_4"><defs><path d="M768.24-386.572v326.16h121.304v-326.16h0H768.24z" id="m6914571973" stroke="#000" stroke-opacity=".1"/></defs><g clip-path="url(#pba8de657a1)"><use xlink:href="#m6914571973" y="393.772" fill="orange" fill-opacity=".1" stroke="#000" stroke-opacity=".1"/></g></g><g id="PolyCollection_5"><defs><path d="M889.544-386.572v326.16h131.009v-326.16h0-131.009z" id="mf8ffa36057" stroke="#000" stroke-opacity=".1"/></defs><g clip-path="url(#pba8de657a1)"><use xlink:href="#mf8ffa36057" y="393.772" fill="purple" fill-opacity=".1" stroke="#000" stroke-opacity=".1"/></g></g><g id="PolyCollection_6"><defs><path d="M1020.553-386.572v326.16h174.678v-326.16h0-174.678z" id="m65e7780799" stroke="#000" stroke-opacity=".1"/></defs><g clip-path="url(#pba8de657a1)"><use xlink:href="#m65e7780799" y="393.772" fill="#ff0" fill-opacity=".1" stroke="#000" stroke-opacity=".1"/></g></g><path clip-path="url(#pba8de657a1)" d="M84.083 333.36h4.768v-27.47h-4.768z" fill="red" id="patch_3"/><path clip-path="url(#pba8de657a1)" d="M88.851 333.36h4.768v-10.566h-4.768z" fill="red" id="patch_4"/><path clip-path="url(#pba8de657a1)" d="M93.619 333.36h4.768-4.768z" fill="red" id="patch_5"/><path clip-path="url(#pba8de657a1)" d="M98.387 333.36h4.768v-4.226h-4.768z" fill="red" id="patch_6"/><path clip-path="url(#pba8de657a1)" d="M103.155 333.36h4.767v-4.226h-4.767z" fill="red" id="patch_7"/><path clip-path="url(#pba8de657a1)" d="M107.922 333.36h4.768v-2.113h-4.768z" fill="red" id="patch_8"/><path clip-path="url(#pba8de657a1)" d="M112.69 333.36h4.768-4.768z" fill="red" id="patch_9"/><path clip-path="url(#pba8de657a1)" d="M117.458 333.36h4.768v-10.566h-4.768z" fill="red" id="patch_10"/><path clip-path="url(#pba8de657a1)" d="M122.226 333.36h4.768v-21.131h-4.768z" fill="red" id="patch_11"/><path clip-path="url(#pba8de657a1)" d="M126.994 333.36h4.767-4.767z" fill="red" id="patch_12"/><path clip-path="url(#pba8de657a1)" d="M131.761 333.36h4.768v-46.489h-4.768z" fill="red" id="patch_13"/><path clip-path="url(#pba8de657a1)" d="M136.53 333.36h4.767v-97.203h-4.768z" fill="red" id="patch_14"/><path clip-path="url(#pba8de657a1)" d="M141.297 333.36h4.768v-10.566h-4.768z" fill="red" id="patch_15"/><path clip-path="url(#pba8de657a1)" d="M146.065 333.36h4.767v-38.036h-4.767z" fill="red" id="patch_16"/><path clip-path="url(#pba8de657a1)" d="M150.832 333.36h4.768v-61.28h-4.768z" fill="red" id="patch_17"/><path clip-path="url(#pba8de657a1)" d="M155.6 333.36h4.768-4.768z" fill="red" id="patch_18"/><path clip-path="url(#pba8de657a1)" d="M160.368 333.36h4.768-4.768z" fill="#00f" id="patch_19"/><path clip-path="url(#pba8de657a1)" d="M165.136 333.36h4.768-4.768z" fill="#00f" id="patch_20"/><path clip-path="url(#pba8de657a1)" d="M169.904 333.36h4.767v-2.113h-4.767z" fill="#00f" id="patch_21"/><path clip-path="url(#pba8de657a1)" d="M174.671 333.36h4.768v-4.226h-4.768z" fill="#00f" id="patch_22"/><path clip-path="url(#pba8de657a1)" d="M179.44 333.36h4.767-4.768z" fill="#00f" id="patch_23"/><path clip-path="url(#pba8de657a1)" d="M184.207 333.36h4.768-4.768z" fill="#00f" id="patch_24"/><path clip-path="url(#pba8de657a1)" d="M188.975 333.36h4.768v-2.113h-4.768z" fill="#00f" id="patch_25"/><path clip-path="url(#pba8de657a1)" d="M193.743 333.36h4.767v-2.113h-4.767z" fill="#00f" id="patch_26"/><path clip-path="url(#pba8de657a1)" d="M198.51 333.36h4.768-4.768z" fill="#00f" id="patch_27"/><path clip-path="url(#pba8de657a1)" d="M203.278 333.36h4.768v-2.113h-4.768z" fill="#00f" id="patch_28"/><path clip-path="url(#pba8de657a1)" d="M208.046 333.36h4.768-4.768z" fill="#00f" id="patch_29"/><path clip-path="url(#pba8de657a1)" d="M212.814 333.36h4.767-4.767z" fill="#00f" id="patch_30"/><path clip-path="url(#pba8de657a1)" d="M217.581 333.36h4.768v-6.34h-4.768z" fill="#00f" id="patch_31"/><path clip-path="url(#pba8de657a1)" d="M222.35 333.36h4.767-4.768z" fill="#00f" id="patch_32"/><path clip-path="url(#pba8de657a1)" d="M227.117 333.36h4.768v-6.34h-4.768z" fill="#00f" id="patch_33"/><path clip-path="url(#pba8de657a1)" d="M231.885 333.36h4.768-4.768z" fill="#00f" id="patch_34"/><path clip-path="url(#pba8de657a1)" d="M236.653 333.36h4.767v-4.226h-4.767z" fill="#00f" id="patch_35"/><path clip-path="url(#pba8de657a1)" d="M241.42 333.36h4.768-4.768z" fill="#00f" id="patch_36"/><path clip-path="url(#pba8de657a1)" d="M246.188 333.36h4.768-4.768z" fill="#00f" id="patch_37"/><path clip-path="url(#pba8de657a1)" d="M250.956 333.36h4.768v-48.602h-4.768z" fill="#00f" id="patch_38"/><path clip-path="url(#pba8de657a1)" d="M255.724 333.36h4.768-4.768z" fill="#00f" id="patch_39"/><path clip-path="url(#pba8de657a1)" d="M260.492 333.36h4.767-4.767z" fill="#00f" id="patch_40"/><path clip-path="url(#pba8de657a1)" d="M265.26 333.36h4.767-4.768z" fill="#00f" id="patch_41"/><path clip-path="url(#pba8de657a1)" d="M270.027 333.36h4.768v-2.113h-4.768z" fill="#00f" id="patch_42"/><path clip-path="url(#pba8de657a1)" d="M274.795 333.36h4.768-4.768z" fill="#00f" id="patch_43"/><path clip-path="url(#pba8de657a1)" d="M279.563 333.36h4.768-4.768z" fill="#00f" id="patch_44"/><path clip-path="url(#pba8de657a1)" d="M284.33 333.36h4.768v-6.34h-4.767z" fill="#00f" id="patch_45"/><path clip-path="url(#pba8de657a1)" d="M289.098 333.36h4.768v-2.113h-4.768z" fill="#00f" id="patch_46"/><path clip-path="url(#pba8de657a1)" d="M293.866 333.36h4.768-4.768z" fill="#00f" id="patch_47"/><path clip-path="url(#pba8de657a1)" d="M298.634 333.36h4.768-4.768z" fill="#00f" id="patch_48"/><path clip-path="url(#pba8de657a1)" d="M303.402 333.36h4.767-4.767z" fill="#00f" id="patch_49"/><path clip-path="url(#pba8de657a1)" d="M308.17 333.36h4.767-4.768z" fill="#00f" id="patch_50"/><path clip-path="url(#pba8de657a1)" d="M312.937 333.36h4.768-4.768z" fill="#00f" id="patch_51"/><path clip-path="url(#pba8de657a1)" d="M317.705 333.36h4.768-4.768z" fill="#00f" id="patch_52"/><path clip-path="url(#pba8de657a1)" d="M322.473 333.36h4.768v-4.226h-4.768z" fill="#00f" id="patch_53"/><path clip-path="url(#pba8de657a1)" d="M327.24 333.36h4.768-4.767z" fill="#00f" id="patch_54"/><path clip-path="url(#pba8de657a1)" d="M332.008 333.36h4.768v-2.113h-4.768z" fill="#00f" id="patch_55"/><path clip-path="url(#pba8de657a1)" d="M336.776 333.36h4.768-4.768z" fill="#00f" id="patch_56"/><path clip-path="url(#pba8de657a1)" d="M341.544 333.36h4.768v-4.226h-4.768z" fill="#00f" id="patch_57"/><path clip-path="url(#pba8de657a1)" d="M346.312 333.36h4.768-4.768z" fill="#00f" id="patch_58"/><path clip-path="url(#pba8de657a1)" d="M351.08 333.36h4.767-4.767z" fill="#00f" id="patch_59"/><path clip-path="url(#pba8de657a1)" d="M355.847 333.36h4.768-4.768z" fill="#00f" id="patch_60"/><path clip-path="url(#pba8de657a1)" d="M360.615 333.36h4.768v-29.584h-4.768z" fill="#00f" id="patch_61"/><path clip-path="url(#pba8de657a1)" d="M365.383 333.36h4.768v-4.226h-4.768z" fill="#00f" id="patch_62"/><path clip-path="url(#pba8de657a1)" d="M370.15 333.36h4.769-4.768z" fill="#00f" id="patch_63"/><path clip-path="url(#pba8de657a1)" d="M374.919 333.36h4.767-4.767z" fill="#00f" id="patch_64"/><path clip-path="url(#pba8de657a1)" d="M379.686 333.36h4.768v-29.584h-4.768z" fill="#00f" id="patch_65"/><path clip-path="url(#pba8de657a1)" d="M384.454 333.36h4.768V229.817h-4.768z" fill="#00f" id="patch_66"/><path clip-path="url(#pba8de657a1)" d="M389.222 333.36h4.768v-4.226h-4.768z" fill="#00f" id="patch_67"/><path clip-path="url(#pba8de657a1)" d="M393.99 333.36h4.767v-10.566h-4.767z" fill="#00f" id="patch_68"/><path clip-path="url(#pba8de657a1)" d="M398.757 333.36h4.768-4.768z" fill="#00f" id="patch_69"/><path clip-path="url(#pba8de657a1)" d="M403.525 333.36h4.768v-2.113h-4.768z" fill="#00f" id="patch_70"/><path clip-path="url(#pba8de657a1)" d="M408.293 333.36h4.768-4.768z" fill="#00f" id="patch_71"/><path clip-path="url(#pba8de657a1)" d="M413.06 333.36h4.769v-10.566h-4.768z" fill="#00f" id="patch_72"/><path clip-path="url(#pba8de657a1)" d="M417.829 333.36h4.767-4.767z" fill="#00f" id="patch_73"/><path clip-path="url(#pba8de657a1)" d="M422.596 333.36h4.768v-35.923h-4.768z" fill="#00f" id="patch_74"/><path clip-path="url(#pba8de657a1)" d="M427.364 333.36h4.768v-44.376h-4.768z" fill="#00f" id="patch_75"/><path clip-path="url(#pba8de657a1)" d="M432.132 333.36h4.768-4.768z" fill="#00f" id="patch_76"/><path clip-path="url(#pba8de657a1)" d="M436.9 333.36h4.768v-4.226H436.9z" fill="#00f" id="patch_77"/><path clip-path="url(#pba8de657a1)" d="M441.668 333.36h4.767-4.767z" fill="green" id="patch_78"/><path clip-path="url(#pba8de657a1)" d="M446.435 333.36h4.768-4.768z" fill="green" id="patch_79"/><path clip-path="url(#pba8de657a1)" d="M451.203 333.36h4.768-4.768z" fill="green" id="patch_80"/><path clip-path="url(#pba8de657a1)" d="M455.97 333.36h4.769-4.768z" fill="green" id="patch_81"/><path clip-path="url(#pba8de657a1)" d="M460.739 333.36h4.767-4.767z" fill="green" id="patch_82"/><path clip-path="url(#pba8de657a1)" d="M465.506 333.36h4.768-4.768z" fill="green" id="patch_83"/><path clip-path="url(#pba8de657a1)" d="M470.274 333.36h4.768-4.768z" fill="green" id="patch_84"/><path clip-path="url(#pba8de657a1)" d="M475.042 333.36h4.768v-78.185h-4.768z" fill="green" id="patch_85"/><path clip-path="url(#pba8de657a1)" d="M479.81 333.36h4.768-4.768z" fill="green" id="patch_86"/><path clip-path="url(#pba8de657a1)" d="M484.578 333.36h4.767-4.767z" fill="green" id="patch_87"/><path clip-path="url(#pba8de657a1)" d="M489.345 333.36h4.768-4.768z" fill="green" id="patch_88"/><path clip-path="url(#pba8de657a1)" d="M494.113 333.36h4.768-4.768z" fill="green" id="patch_89"/><path clip-path="url(#pba8de657a1)" d="M498.881 333.36h4.768v-8.452h-4.768z" fill="green" id="patch_90"/><path clip-path="url(#pba8de657a1)" d="M503.649 333.36h4.768v-16.905h-4.768z" fill="green" id="patch_91"/><path clip-path="url(#pba8de657a1)" d="M508.417 333.36h4.767-4.767z" fill="green" id="patch_92"/><path clip-path="url(#pba8de657a1)" d="M513.184 333.36h4.768-4.768z" fill="green" id="patch_93"/><path clip-path="url(#pba8de657a1)" d="M517.952 333.36h4.768-4.768z" fill="green" id="patch_94"/><path clip-path="url(#pba8de657a1)" d="M522.72 333.36h4.768v-4.226h-4.768z" fill="green" id="patch_95"/><path clip-path="url(#pba8de657a1)" d="M527.488 333.36h4.768-4.768z" fill="green" id="patch_96"/><path clip-path="url(#pba8de657a1)" d="M532.256 333.36h4.767-4.767z" fill="green" id="patch_97"/><path clip-path="url(#pba8de657a1)" d="M537.023 333.36h4.768-4.768z" fill="green" id="patch_98"/><path clip-path="url(#pba8de657a1)" d="M541.791 333.36h4.768-4.768z" fill="green" id="patch_99"/><path clip-path="url(#pba8de657a1)" d="M546.559 333.36h4.768v-4.226h-4.768z" fill="green" id="patch_100"/><path clip-path="url(#pba8de657a1)" d="M551.327 333.36h4.767v-2.113h-4.767z" fill="green" id="patch_101"/><path clip-path="url(#pba8de657a1)" d="M556.094 333.36h4.768v-2.113h-4.768z" fill="green" id="patch_102"/><path clip-path="url(#pba8de657a1)" d="M560.862 333.36h4.768-4.768z" fill="green" id="patch_103"/><path clip-path="url(#pba8de657a1)" d="M565.63 333.36h4.768-4.768z" fill="green" id="patch_104"/><path clip-path="url(#pba8de657a1)" d="M570.398 333.36h4.768-4.768z" fill="green" id="patch_105"/><path clip-path="url(#pba8de657a1)" d="M575.166 333.36h4.767-4.767z" fill="green" id="patch_106"/><path clip-path="url(#pba8de657a1)" d="M579.933 333.36h4.768-4.768z" fill="green" id="patch_107"/><path clip-path="url(#pba8de657a1)" d="M584.701 333.36h4.768-4.768z" fill="green" id="patch_108"/><path clip-path="url(#pba8de657a1)" d="M589.469 333.36h4.768-4.768z" fill="green" id="patch_109"/><path clip-path="url(#pba8de657a1)" d="M594.237 333.36h4.768v-6.34h-4.768z" fill="green" id="patch_110"/><path clip-path="url(#pba8de657a1)" d="M599.005 333.36h4.767v-2.113h-4.767z" fill="green" id="patch_111"/><path clip-path="url(#pba8de657a1)" d="M603.772 333.36h4.768v-4.226h-4.768z" fill="green" id="patch_112"/><path clip-path="url(#pba8de657a1)" d="M608.54 333.36h4.768-4.768z" fill="green" id="patch_113"/><path clip-path="url(#pba8de657a1)" d="M613.308 333.36h4.768v-4.226h-4.768z" fill="green" id="patch_114"/><path clip-path="url(#pba8de657a1)" d="M618.076 333.36h4.767v-2.113h-4.767z" fill="green" id="patch_115"/><path clip-path="url(#pba8de657a1)" d="M622.843 333.36h4.768v-6.34h-4.768z" fill="green" id="patch_116"/><path clip-path="url(#pba8de657a1)" d="M627.611 333.36h4.768-4.768z" fill="green" id="patch_117"/><path clip-path="url(#pba8de657a1)" d="M632.38 333.36h4.767-4.768z" fill="green" id="patch_118"/><path clip-path="url(#pba8de657a1)" d="M637.147 333.36h4.768v-2.113h-4.768z" fill="green" id="patch_119"/><path clip-path="url(#pba8de657a1)" d="M641.915 333.36h4.767-4.767z" fill="green" id="patch_120"/><path clip-path="url(#pba8de657a1)" d="M646.682 333.36h4.768-4.768z" fill="green" id="patch_121"/><path clip-path="url(#pba8de657a1)" d="M651.45 333.36h4.768-4.768z" fill="green" id="patch_122"/><path clip-path="url(#pba8de657a1)" d="M656.218 333.36h4.768v-10.566h-4.768z" fill="green" id="patch_123"/><path clip-path="url(#pba8de657a1)" d="M660.986 333.36h4.768-4.768z" fill="green" id="patch_124"/><path clip-path="url(#pba8de657a1)" d="M665.754 333.36h4.767v-21.131h-4.767z" fill="green" id="patch_125"/><path clip-path="url(#pba8de657a1)" d="M670.521 333.36h4.768v-82.412h-4.768z" fill="green" id="patch_126"/><path clip-path="url(#pba8de657a1)" d="M675.29 333.36h4.767v-21.131h-4.768z" fill="green" id="patch_127"/><path clip-path="url(#pba8de657a1)" d="M680.057 333.36h4.768-4.768z" fill="green" id="patch_128"/><path clip-path="url(#pba8de657a1)" d="M684.825 333.36h4.768-4.768z" fill="green" id="patch_129"/><path clip-path="url(#pba8de657a1)" d="M689.593 333.36h4.767-4.767z" fill="green" id="patch_130"/><path clip-path="url(#pba8de657a1)" d="M694.36 333.36h4.768v-2.113h-4.768z" fill="green" id="patch_131"/><path clip-path="url(#pba8de657a1)" d="M699.128 333.36h4.768-4.768z" fill="green" id="patch_132"/><path clip-path="url(#pba8de657a1)" d="M703.896 333.36h4.768V231.93h-4.768z" fill="green" id="patch_133"/><path clip-path="url(#pba8de657a1)" d="M708.664 333.36h4.767-4.767z" fill="green" id="patch_134"/><path clip-path="url(#pba8de657a1)" d="M713.431 333.36h4.768v-4.226h-4.768z" fill="green" id="patch_135"/><path clip-path="url(#pba8de657a1)" d="M718.2 333.36h4.767-4.768z" fill="green" id="patch_136"/><path clip-path="url(#pba8de657a1)" d="M722.967 333.36h4.768-4.768z" fill="green" id="patch_137"/><path clip-path="url(#pba8de657a1)" d="M727.735 333.36h4.768-4.768z" fill="green" id="patch_138"/><path clip-path="url(#pba8de657a1)" d="M732.503 333.36h4.767-4.767z" fill="green" id="patch_139"/><path clip-path="url(#pba8de657a1)" d="M737.27 333.36h4.768v-14.792h-4.768z" fill="green" id="patch_140"/><path clip-path="url(#pba8de657a1)" d="M742.038 333.36h4.768v-2.113h-4.768z" fill="green" id="patch_141"/><path clip-path="url(#pba8de657a1)" d="M746.806 333.36h4.768-4.768z" fill="green" id="patch_142"/><path clip-path="url(#pba8de657a1)" d="M751.574 333.36h4.768v-128.9h-4.768z" fill="green" id="patch_143"/><path clip-path="url(#pba8de657a1)" d="M756.342 333.36h4.767v-31.697h-4.767z" fill="green" id="patch_144"/><path clip-path="url(#pba8de657a1)" d="M761.11 333.36h4.767v-27.47h-4.768z" fill="green" id="patch_145"/><path clip-path="url(#pba8de657a1)" d="M765.877 333.36h4.768-4.768z" fill="orange" id="patch_146"/><path clip-path="url(#pba8de657a1)" d="M770.645 333.36h4.768-4.768z" fill="orange" id="patch_147"/><path clip-path="url(#pba8de657a1)" d="M775.413 333.36h4.768-4.768z" fill="orange" id="patch_148"/><path clip-path="url(#pba8de657a1)" d="M780.18 333.36h4.768-4.767z" fill="orange" id="patch_149"/><path clip-path="url(#pba8de657a1)" d="M784.948 333.36h4.768v-2.113h-4.768z" fill="orange" id="patch_150"/><path clip-path="url(#pba8de657a1)" d="M789.716 333.36h4.768v-4.226h-4.768z" fill="orange" id="patch_151"/><path clip-path="url(#pba8de657a1)" d="M794.484 333.36h4.768v-95.09h-4.768z" fill="orange" id="patch_152"/><path clip-path="url(#pba8de657a1)" d="M799.252 333.36h4.767v-4.226h-4.767z" fill="orange" id="patch_153"/><path clip-path="url(#pba8de657a1)" d="M804.02 333.36h4.767-4.768z" fill="orange" id="patch_154"/><path clip-path="url(#pba8de657a1)" d="M808.787 333.36h4.768-4.768z" fill="orange" id="patch_155"/><path clip-path="url(#pba8de657a1)" d="M813.555 333.36h4.768v-12.679h-4.768z" fill="orange" id="patch_156"/><path clip-path="url(#pba8de657a1)" d="M818.323 333.36h4.768-4.768z" fill="orange" id="patch_157"/><path clip-path="url(#pba8de657a1)" d="M823.09 333.36h4.768v-4.226h-4.767z" fill="orange" id="patch_158"/><path clip-path="url(#pba8de657a1)" d="M827.858 333.36h4.768v-10.566h-4.768z" fill="orange" id="patch_159"/><path clip-path="url(#pba8de657a1)" d="M832.626 333.36h4.768v-23.244h-4.768z" fill="orange" id="patch_160"/><path clip-path="url(#pba8de657a1)" d="M837.394 333.36h4.768-4.768z" fill="orange" id="patch_161"/><path clip-path="url(#pba8de657a1)" d="M842.162 333.36h4.768-4.768z" fill="orange" id="patch_162"/><path clip-path="url(#pba8de657a1)" d="M846.93 333.36h4.767-4.767z" fill="orange" id="patch_163"/><path clip-path="url(#pba8de657a1)" d="M851.697 333.36h4.768v-29.584h-4.768z" fill="orange" id="patch_164"/><path clip-path="url(#pba8de657a1)" d="M856.465 333.36h4.768v-10.566h-4.768z" fill="orange" id="patch_165"/><path clip-path="url(#pba8de657a1)" d="M861.233 333.36H866v-27.47h-4.768z" fill="orange" id="patch_166"/><path clip-path="url(#pba8de657a1)" d="M866 333.36h4.768-4.767z" fill="orange" id="patch_167"/><path clip-path="url(#pba8de657a1)" d="M870.768 333.36h4.768V217.138h-4.768z" fill="orange" id="patch_168"/><path clip-path="url(#pba8de657a1)" d="M875.536 333.36h4.768-4.768z" fill="orange" id="patch_169"/><path clip-path="url(#pba8de657a1)" d="M880.304 333.36h4.768V151.632h-4.768z" fill="orange" id="patch_170"/><path clip-path="url(#pba8de657a1)" d="M885.072 333.36h4.768v-38.036h-4.768z" fill="purple" id="patch_171"/><path clip-path="url(#pba8de657a1)" d="M889.84 333.36h4.767-4.767z" fill="purple" id="patch_172"/><path clip-path="url(#pba8de657a1)" d="M894.607 333.36h4.768-4.768z" fill="purple" id="patch_173"/><path clip-path="url(#pba8de657a1)" d="M899.375 333.36h4.768-4.768z" fill="purple" id="patch_174"/><path clip-path="url(#pba8de657a1)" d="M904.143 333.36h4.768-4.768z" fill="purple" id="patch_175"/><path clip-path="url(#pba8de657a1)" d="M908.91 333.36h4.769-4.768z" fill="purple" id="patch_176"/><path clip-path="url(#pba8de657a1)" d="M913.679 333.36h4.767-4.767z" fill="purple" id="patch_177"/><path clip-path="url(#pba8de657a1)" d="M918.446 333.36h4.768-4.768z" fill="purple" id="patch_178"/><path clip-path="url(#pba8de657a1)" d="M923.214 333.36h4.768-4.768z" fill="purple" id="patch_179"/><path clip-path="url(#pba8de657a1)" d="M927.982 333.36h4.768-4.768z" fill="purple" id="patch_180"/><path clip-path="url(#pba8de657a1)" d="M932.75 333.36h4.768v-4.226h-4.768z" fill="purple" id="patch_181"/><path clip-path="url(#pba8de657a1)" d="M937.518 333.36h4.767-4.767z" fill="purple" id="patch_182"/><path clip-path="url(#pba8de657a1)" d="M942.285 333.36h4.768-4.768z" fill="purple" id="patch_183"/><path clip-path="url(#pba8de657a1)" d="M947.053 333.36h4.768-4.768z" fill="purple" id="patch_184"/><path clip-path="url(#pba8de657a1)" d="M951.82 333.36h4.769-4.768z" fill="purple" id="patch_185"/><path clip-path="url(#pba8de657a1)" d="M956.589 333.36h4.767-4.767z" fill="purple" id="patch_186"/><path clip-path="url(#pba8de657a1)" d="M961.356 333.36h4.768-4.768z" fill="purple" id="patch_187"/><path clip-path="url(#pba8de657a1)" d="M966.124 333.36h4.768-4.768z" fill="purple" id="patch_188"/><path clip-path="url(#pba8de657a1)" d="M970.892 333.36h4.768-4.768z" fill="purple" id="patch_189"/><path clip-path="url(#pba8de657a1)" d="M975.66 333.36h4.768-4.768z" fill="purple" id="patch_190"/><path clip-path="url(#pba8de657a1)" d="M980.428 333.36h4.767v-65.507h-4.767z" fill="purple" id="patch_191"/><path clip-path="url(#pba8de657a1)" d="M985.195 333.36h4.768v-12.679h-4.768z" fill="purple" id="patch_192"/><path clip-path="url(#pba8de657a1)" d="M989.963 333.36h4.768-4.768z" fill="purple" id="patch_193"/><path clip-path="url(#pba8de657a1)" d="M994.731 333.36h4.768v-23.244h-4.768z" fill="purple" id="patch_194"/><path clip-path="url(#pba8de657a1)" d="M999.499 333.36h4.768-4.768z" fill="purple" id="patch_195"/><path clip-path="url(#pba8de657a1)" d="M1004.267 333.36h4.767-4.767z" fill="purple" id="patch_196"/><path clip-path="url(#pba8de657a1)" d="M1009.034 333.36h4.768-4.768z" fill="purple" id="patch_197"/><path clip-path="url(#pba8de657a1)" d="M1013.802 333.36h4.768-4.768z" fill="#ff0" id="patch_198"/><path clip-path="url(#pba8de657a1)" d="M1018.57 333.36h4.768V229.817h-4.768z" fill="#ff0" id="patch_199"/><path clip-path="url(#pba8de657a1)" d="M1023.338 333.36h4.768-4.768z" fill="#ff0" id="patch_200"/><path clip-path="url(#pba8de657a1)" d="M1028.106 333.36h4.767-4.767z" fill="#ff0" id="patch_201"/><path clip-path="url(#pba8de657a1)" d="M1032.873 333.36h4.768-4.768z" fill="#ff0" id="patch_202"/><path clip-path="url(#pba8de657a1)" d="M1037.641 333.36h4.768v-8.452h-4.768z" fill="#ff0" id="patch_203"/><path clip-path="url(#pba8de657a1)" d="M1042.409 333.36h4.768v-2.113h-4.768z" fill="#ff0" id="patch_204"/><path clip-path="url(#pba8de657a1)" d="M1047.177 333.36h4.767-4.767z" fill="#ff0" id="patch_205"/><path clip-path="url(#pba8de657a1)" d="M1051.944 333.36h4.768-4.768z" fill="#ff0" id="patch_206"/><path clip-path="url(#pba8de657a1)" d="M1056.712 333.36h4.768-4.768z" fill="#ff0" id="patch_207"/><path clip-path="url(#pba8de657a1)" d="M1061.48 333.36h4.768-4.768z" fill="#ff0" id="patch_208"/><path clip-path="url(#pba8de657a1)" d="M1066.248 333.36h4.768-4.768z" fill="#ff0" id="patch_209"/><path clip-path="url(#pba8de657a1)" d="M1071.016 333.36h4.767v-8.452h-4.767z" fill="#ff0" id="patch_210"/><path clip-path="url(#pba8de657a1)" d="M1075.783 333.36h4.768v-2.113h-4.768z" fill="#ff0" id="patch_211"/><path clip-path="url(#pba8de657a1)" d="M1080.551 333.36h4.768-4.768z" fill="#ff0" id="patch_212"/><path clip-path="url(#pba8de657a1)" d="M1085.319 333.36h4.768-4.768z" fill="#ff0" id="patch_213"/><path clip-path="url(#pba8de657a1)" d="M1090.087 333.36h4.768-4.768z" fill="#ff0" id="patch_214"/><path clip-path="url(#pba8de657a1)" d="M1094.855 333.36h4.767-4.767z" fill="#ff0" id="patch_215"/><path clip-path="url(#pba8de657a1)" d="M1099.622 333.36h4.768-4.768z" fill="#ff0" id="patch_216"/><path clip-path="url(#pba8de657a1)" d="M1104.39 333.36h4.768-4.768z" fill="#ff0" id="patch_217"/><path clip-path="url(#pba8de657a1)" d="M1109.158 333.36h4.768-4.768z" fill="#ff0" id="patch_218"/><path clip-path="url(#pba8de657a1)" d="M1113.926 333.36h4.767-4.767z" fill="#ff0" id="patch_219"/><path clip-path="url(#pba8de657a1)" d="M1118.693 333.36h4.768v-23.244h-4.768z" fill="#ff0" id="patch_220"/><path clip-path="url(#pba8de657a1)" d="M1123.461 333.36h4.768V189.668h-4.768z" fill="#ff0" id="patch_221"/><path clip-path="url(#pba8de657a1)" d="M1128.23 333.36h4.767v-2.113h-4.768z" fill="#ff0" id="patch_222"/><path clip-path="url(#pba8de657a1)" d="M1132.997 333.36h4.768-4.768z" fill="#ff0" id="patch_223"/><path clip-path="url(#pba8de657a1)" d="M1137.765 333.36h4.767-4.767z" fill="#ff0" id="patch_224"/><path clip-path="url(#pba8de657a1)" d="M1142.532 333.36h4.768-4.768z" fill="#ff0" id="patch_225"/><path clip-path="url(#pba8de657a1)" d="M1147.3 333.36h4.768v-95.09h-4.768z" fill="#ff0" id="patch_226"/><path clip-path="url(#pba8de657a1)" d="M1152.068 333.36h4.768-4.768z" fill="#ff0" id="patch_227"/><path clip-path="url(#pba8de657a1)" d="M1156.836 333.36h4.768-4.768z" fill="#ff0" id="patch_228"/><path clip-path="url(#pba8de657a1)" d="M1161.604 333.36h4.767-4.767z" fill="#ff0" id="patch_229"/><path clip-path="url(#pba8de657a1)" d="M1166.371 333.36h4.768V22.731h-4.768z" fill="#ff0" id="patch_230"/><path clip-path="url(#pba8de657a1)" d="M1171.14 333.36h4.767-4.768z" fill="#ff0" id="patch_231"/><path clip-path="url(#pba8de657a1)" d="M1175.907 333.36h4.768v-4.226h-4.768z" fill="#ff0" id="patch_232"/><g id="matplotlib.axis_1"><g id="xtick_1"><g id="line2d_1"><defs><path d="M0 0v7" id="md8893630ba" stroke="#000" stroke-width="2.5"/></defs><use x="79.231" xlink:href="#md8893630ba" y="333.36" stroke="#000" stroke-width="2.5"/></g><g transform="matrix(.2 0 0 -.2 72.869 359.057)" id="text_1"><defs><path d="M31.781 66.406q-7.61 0-11.453-7.5Q16.5 51.422 16.5 36.375q0-14.984 3.828-22.484 3.844-7.5 11.453-7.5 7.672 0 11.5 7.5 3.844 7.5 3.844 22.484 0 15.047-3.844 22.531-3.828 7.5-11.5 7.5zm0 7.813q12.266 0 18.735-9.703 6.468-9.688 6.468-28.141 0-18.406-6.468-28.11-6.47-9.687-18.735-9.687-12.25 0-18.718 9.688-6.47 9.703-6.47 28.109 0 18.453 6.47 28.14Q19.53 74.22 31.78 74.22z" id="DejaVuSans-48"/></defs><use xlink:href="#DejaVuSans-48"/></g></g><g id="xtick_2"><use x="321.84" xlink:href="#md8893630ba" y="333.36" stroke="#000" stroke-width="2.5" id="line2d_2"/><g transform="matrix(.2 0 0 -.2 309.115 359.057)" id="text_2"><defs><path d="M10.797 72.906h38.719v-8.312H19.828v-17.86q2.14.735 4.281 1.094 2.157.36 4.313.36 12.203 0 19.328-6.688 7.14-6.688 7.14-18.11 0-11.765-7.328-18.296-7.328-6.516-20.656-6.516-4.593 0-9.36.781-4.75.782-9.827 2.344v9.922q4.39-2.39 9.078-3.563 4.687-1.171 9.906-1.171 8.453 0 13.375 4.437 4.938 4.438 4.938 12.063 0 7.609-4.938 12.047-4.922 4.453-13.375 4.453-3.953 0-7.89-.875-3.922-.875-8.016-2.735z" id="DejaVuSans-53"/></defs><use xlink:href="#DejaVuSans-53"/><use x="63.623" xlink:href="#DejaVuSans-48"/></g></g><g id="xtick_3"><use x="564.449" xlink:href="#md8893630ba" y="333.36" stroke="#000" stroke-width="2.5" id="line2d_3"/><g transform="matrix(.2 0 0 -.2 545.361 359.057)" id="text_3"><defs><path d="M12.406 8.297h16.11v55.625l-17.532-3.516v8.985l17.438 3.515h9.86V8.296H54.39V0H12.406z" id="DejaVuSans-49"/></defs><use xlink:href="#DejaVuSans-49"/><use x="63.623" xlink:href="#DejaVuSans-48"/><use x="127.246" xlink:href="#DejaVuSans-48"/></g></g><g id="xtick_4"><use x="807.057" xlink:href="#md8893630ba" y="333.36" stroke="#000" stroke-width="2.5" id="line2d_4"/><g transform="matrix(.2 0 0 -.2 787.97 359.057)" id="text_4"><use xlink:href="#DejaVuSans-49"/><use x="63.623" xlink:href="#DejaVuSans-53"/><use x="127.246" xlink:href="#DejaVuSans-48"/></g></g><g id="xtick_5"><use x="1049.666" xlink:href="#md8893630ba" y="333.36" stroke="#000" stroke-width="2.5" id="line2d_5"/><g transform="matrix(.2 0 0 -.2 1030.579 359.057)" id="text_5"><defs><path d="M19.188 8.297h34.421V0H7.33v8.297q5.609 5.812 15.296 15.594 9.703 9.797 12.188 12.64 4.734 5.313 6.609 9 1.89 3.688 1.89 7.25 0 5.813-4.078 9.469-4.078 3.672-10.625 3.672-4.64 0-9.797-1.61-5.14-1.609-11-4.89v9.969Q13.767 71.78 18.938 73q5.188 1.219 9.485 1.219 11.328 0 18.062-5.672 6.735-5.656 6.735-15.125 0-4.5-1.688-8.531-1.672-4.016-6.125-9.485-1.218-1.422-7.765-8.187-6.532-6.766-18.453-18.922z" id="DejaVuSans-50"/></defs><use xlink:href="#DejaVuSans-50"/><use x="63.623" xlink:href="#DejaVuSans-48"/><use x="127.246" xlink:href="#DejaVuSans-48"/></g></g><g transform="matrix(.2 0 0 -.2 467.364 382.413)" id="text_6"><defs><path d="M9.813 72.906h9.859V0h-9.86z" id="DejaVuSans-73"/><path d="M54.89 33.016V0h-8.984v32.719q0 7.765-3.031 11.61-3.031 3.858-9.078 3.858-7.281 0-11.484-4.64-4.204-4.625-4.204-12.64V0H9.08v54.688h9.03v-8.5q3.235 4.937 7.594 7.374Q30.078 56 35.797 56q9.422 0 14.25-5.828 4.844-5.828 4.844-17.156z" id="DejaVuSans-110"/><path d="M18.313 70.219V54.688h18.5v-6.985h-18.5V18.016q0-6.688 1.828-8.594 1.828-1.906 7.453-1.906h9.218V0h-9.218q-10.407 0-14.36 3.875-3.953 3.89-3.953 14.14v29.688H2.687v6.984h6.594V70.22z" id="DejaVuSans-116"/><path d="M56.203 29.594v-4.39H14.891q.593-9.282 5.593-14.142 5-4.859 13.938-4.859 5.172 0 10.031 1.266 4.86 1.265 9.656 3.812v-8.5Q49.266.734 44.187-.344 39.11-1.422 33.892-1.422q-13.094 0-20.735 7.61-7.64 7.625-7.64 20.625 0 13.421 7.25 21.296Q20.016 56 32.328 56q11.031 0 17.453-7.11 6.422-7.093 6.422-19.296zm-8.984 2.64q-.094 7.36-4.125 11.75-4.032 4.407-10.672 4.407-7.516 0-12.031-4.25-4.516-4.25-5.203-11.97z" id="DejaVuSans-101"/><path d="M41.11 46.297q-1.516.875-3.297 1.281Q36.03 48 33.89 48q-7.625 0-11.703-4.953-4.079-4.953-4.079-14.234V0H9.08v54.688h9.03v-8.5q2.844 4.984 7.375 7.39Q30.031 56 36.531 56q.922 0 2.047-.125 1.125-.11 2.484-.36z" id="DejaVuSans-114"/><path d="M34.281 27.484q-10.89 0-15.093-2.484-4.204-2.484-4.204-8.5 0-4.781 3.157-7.594 3.156-2.797 8.562-2.797 7.485 0 12 5.297 4.516 5.297 4.516 14.078v2zm17.922 3.72V0H43.22v8.297Q40.14 3.328 35.547.953q-4.594-2.375-11.234-2.375-8.391 0-13.36 4.719Q6 8.016 6 15.922q0 9.219 6.172 13.906 6.187 4.688 18.437 4.688h12.61v.89q0 6.203-4.078 9.594-4.078 3.39-11.453 3.39-4.688 0-9.141-1.124-4.438-1.125-8.531-3.375v8.312q4.921 1.906 9.562 2.844 4.64.953 9.031.953 11.875 0 17.735-6.156 5.86-6.14 5.86-18.64z" id="DejaVuSans-97"/><path d="M9.422 54.688h8.984V0H9.422zm0 21.296h8.984v-11.39H9.422z" id="DejaVuSans-105"/><path d="M30.61 48.39q-7.22 0-11.422-5.64-4.204-5.64-4.204-15.453 0-9.813 4.172-15.453 4.188-5.64 11.453-5.64 7.188 0 11.375 5.655 4.203 5.672 4.203 15.438 0 9.719-4.203 15.406-4.187 5.688-11.375 5.688zm0 7.61q11.718 0 18.406-7.625 6.703-7.61 6.703-21.078 0-13.422-6.703-21.078-6.688-7.64-18.407-7.64-11.765 0-18.437 7.64-6.656 7.656-6.656 21.078 0 13.469 6.656 21.078Q18.844 56 30.609 56z" id="DejaVuSans-111"/><path d="M9.422 75.984h8.984V0H9.422z" id="DejaVuSans-108"/><path d="M53.516 70.516V60.89q-5.61 2.687-10.594 4-4.984 1.328-9.625 1.328-8.047 0-12.422-3.125t-4.375-8.89q0-4.845 2.906-7.313 2.907-2.453 11.016-3.97l5.953-1.218q11.031-2.11 16.281-7.406 5.25-5.297 5.25-14.172 0-10.61-7.11-16.078-7.093-5.469-20.812-5.469-5.172 0-11.015 1.172Q13.14.922 6.89 3.219v10.156q6-3.36 11.765-5.078 5.766-1.703 11.328-1.703 8.438 0 13.032 3.312 4.593 3.328 4.593 9.485 0 5.359-3.297 8.39-3.296 3.032-10.812 4.547L27.484 33.5q-11.03 2.188-15.968 6.875-4.922 4.688-4.922 13.047 0 9.672 6.812 15.234 6.813 5.563 18.766 5.563 5.14 0 10.453-.938 5.328-.922 10.89-2.765z" id="DejaVuSans-83"/><path d="M18.11 8.203v-29H9.077v75.484h9.031v-8.296q2.844 4.875 7.157 7.234Q29.594 56 35.594 56q9.968 0 16.187-7.906 6.235-7.907 6.235-20.797T51.78 6.484q-6.218-7.906-16.187-7.906-6 0-10.328 2.375-4.313 2.375-7.157 7.25zm30.578 19.094q0 9.906-4.079 15.547-4.078 5.64-11.203 5.64-7.14 0-11.218-5.64-4.079-5.64-4.079-15.547 0-9.906 4.078-15.547 4.079-5.64 11.22-5.64 7.124 0 11.202 5.64t4.078 15.547z" id="DejaVuSans-112"/><path d="M48.781 52.594v-8.407q-3.812 2.11-7.64 3.157-3.828 1.047-7.735 1.047-8.75 0-13.593-5.547-4.829-5.532-4.829-15.547 0-10.016 4.829-15.563 4.843-5.53 13.593-5.53 3.907 0 7.735 1.046 3.828 1.047 7.64 3.156V2.094Q45.016.344 40.984-.531q-4.015-.89-8.562-.89-12.36 0-19.64 7.765-7.266 7.765-7.266 20.953 0 13.375 7.343 21.031Q20.22 56 33.016 56q4.14 0 8.093-.86 3.953-.843 7.672-2.546z" id="DejaVuSans-99"/><path d="M45.406 27.984q0 9.766-4.031 15.125-4.016 5.375-11.297 5.375-7.219 0-11.25-5.375-4.031-5.359-4.031-15.125 0-9.718 4.031-15.093t11.25-5.375q7.281 0 11.297 5.375 4.031 5.375 4.031 15.093zm8.985-21.203q0-13.953-6.203-20.765Q42-20.797 29.203-20.797q-4.734 0-8.937.703-4.203.703-8.157 2.172v8.735q3.954-2.141 7.813-3.157 3.86-1.031 7.86-1.031 8.843 0 13.234 4.61 4.39 4.609 4.39 13.937v4.453q-2.781-4.844-7.125-7.234Q33.938 0 27.875 0 17.828 0 11.672 7.656q-6.156 7.672-6.156 20.328 0 12.688 6.156 20.344Q17.828 56 27.875 56q6.063 0 10.406-2.39 4.344-2.391 7.125-7.22v8.297h8.985z" id="DejaVuSans-103"/><path d="M8.5 21.578v33.11h8.984V21.922q0-7.766 3.016-11.656 3.031-3.875 9.094-3.875 7.265 0 11.484 4.64 4.234 4.64 4.234 12.656v31h8.985V0h-8.984v8.406Q42.047 3.422 37.718 1q-4.313-2.422-10.032-2.422-9.421 0-14.312 5.86Q8.5 10.296 8.5 21.578zM31.11 56z" id="DejaVuSans-117"/><path d="M9.813 72.906h13.28l32.329-60.984v60.984h9.562V0h-13.28L19.39 60.984V0H9.813z" id="DejaVuSans-78"/><path d="M52 44.188q3.375 6.062 8.063 8.937Q64.75 56 71.093 56q8.548 0 13.188-5.984 4.64-5.97 4.64-17V0h-9.03v32.719q0 7.86-2.797 11.656-2.781 3.813-8.485 3.813-6.984 0-11.046-4.641-4.047-4.625-4.047-12.64V0h-9.032v32.719q0 7.906-2.78 11.687-2.782 3.782-8.595 3.782-6.89 0-10.953-4.657-4.047-4.656-4.047-12.625V0H9.08v54.688h9.03v-8.5q3.078 5.03 7.375 7.421Q29.781 56 35.687 56q5.97 0 10.141-3.031Q50 49.953 52 44.187z" id="DejaVuSans-109"/><path d="M48.688 27.297q0 9.906-4.079 15.547-4.078 5.64-11.203 5.64-7.14 0-11.218-5.64-4.079-5.64-4.079-15.547 0-9.906 4.078-15.547 4.079-5.64 11.22-5.64 7.124 0 11.202 5.64t4.078 15.547zM18.108 46.39q2.844 4.875 7.157 7.234Q29.594 56 35.594 56q9.968 0 16.187-7.906 6.235-7.907 6.235-20.797T51.78 6.484q-6.218-7.906-16.187-7.906-6 0-10.328 2.375-4.313 2.375-7.157 7.25V0H9.08v75.984h9.03z" id="DejaVuSans-98"/></defs><use xlink:href="#DejaVuSans-73"/><use x="29.492" xlink:href="#DejaVuSans-110"/><use x="92.871" xlink:href="#DejaVuSans-116"/><use x="132.08" xlink:href="#DejaVuSans-101"/><use x="193.604" xlink:href="#DejaVuSans-114"/><use x="232.967" xlink:href="#DejaVuSans-110"/><use x="296.346" xlink:href="#DejaVuSans-97"/><use x="357.625" xlink:href="#DejaVuSans-116"/><use x="396.834" xlink:href="#DejaVuSans-105"/><use x="424.617" xlink:href="#DejaVuSans-111"/><use x="485.799" xlink:href="#DejaVuSans-110"/><use x="549.178" xlink:href="#DejaVuSans-97"/><use x="610.457" xlink:href="#DejaVuSans-108"/><use x="638.24" xlink:href="#DejaVuSans-32"/><use x="670.027" xlink:href="#DejaVuSans-83"/><use x="733.504" xlink:href="#DejaVuSans-112"/><use x="796.98" xlink:href="#DejaVuSans-97"/><use x="858.26" xlink:href="#DejaVuSans-99"/><use x="913.24" xlink:href="#DejaVuSans-101"/><use x="974.764" xlink:href="#DejaVuSans-103"/><use x="1038.24" xlink:href="#DejaVuSans-114"/><use x="1077.104" xlink:href="#DejaVuSans-111"/><use x="1138.285" xlink:href="#DejaVuSans-117"/><use x="1201.664" xlink:href="#DejaVuSans-112"/><use x="1265.141" xlink:href="#DejaVuSans-32"/><use x="1296.928" xlink:href="#DejaVuSans-78"/><use x="1371.732" xlink:href="#DejaVuSans-117"/><use x="1435.111" xlink:href="#DejaVuSans-109"/><use x="1532.523" xlink:href="#DejaVuSans-98"/><use x="1596" xlink:href="#DejaVuSans-101"/><use x="1657.523" xlink:href="#DejaVuSans-114"/></g></g><g id="matplotlib.axis_2"><g id="ytick_1"><path clip-path="url(#pba8de657a1)" d="M79.231 333.36h1116" fill="none" stroke="#b0b0b0" stroke-linecap="square" stroke-width=".8" id="line2d_6"/><g id="line2d_7"><defs><path d="M0 0h-7" id="m35cdcb458e" stroke="#000" stroke-width="2.5"/></defs><use x="79.231" xlink:href="#m35cdcb458e" y="333.36" stroke="#000" stroke-width="2.5"/></g><use xlink:href="#DejaVuSans-48" transform="matrix(.2 0 0 -.2 56.006 340.958)" id="text_7"/></g><g id="ytick_2"><path clip-path="url(#pba8de657a1)" d="M79.231 291.098h1116" fill="none" stroke="#b0b0b0" stroke-linecap="square" stroke-width=".8" id="line2d_8"/><use x="79.231" xlink:href="#m35cdcb458e" y="291.098" stroke="#000" stroke-width="2.5" id="line2d_9"/><g transform="matrix(.2 0 0 -.2 43.281 298.696)" id="text_8"><use xlink:href="#DejaVuSans-50"/><use x="63.623" xlink:href="#DejaVuSans-48"/></g></g><g id="ytick_3"><path clip-path="url(#pba8de657a1)" d="M79.231 248.835h1116" fill="none" stroke="#b0b0b0" stroke-linecap="square" stroke-width=".8" id="line2d_10"/><use x="79.231" xlink:href="#m35cdcb458e" y="248.835" stroke="#000" stroke-width="2.5" id="line2d_11"/><g transform="matrix(.2 0 0 -.2 43.281 256.434)" id="text_9"><defs><path d="M37.797 64.313L12.89 25.39h24.906zm-2.594 8.593H47.61V25.391h10.407v-8.203H47.609V0h-9.812v17.188H4.89v9.515z" id="DejaVuSans-52"/></defs><use xlink:href="#DejaVuSans-52"/><use x="63.623" xlink:href="#DejaVuSans-48"/></g></g><g id="ytick_4"><path clip-path="url(#pba8de657a1)" d="M79.231 206.573h1116" fill="none" stroke="#b0b0b0" stroke-linecap="square" stroke-width=".8" id="line2d_12"/><use x="79.231" xlink:href="#m35cdcb458e" y="206.573" stroke="#000" stroke-width="2.5" id="line2d_13"/><g transform="matrix(.2 0 0 -.2 43.281 214.171)" id="text_10"><defs><path d="M33.016 40.375q-6.641 0-10.532-4.547-3.875-4.531-3.875-12.437 0-7.86 3.875-12.438 3.891-4.562 10.532-4.562 6.64 0 10.515 4.562 3.875 4.578 3.875 12.438 0 7.906-3.875 12.437-3.875 4.547-10.515 4.547zm19.578 30.922v-8.984q-3.719 1.75-7.5 2.671-3.782.938-7.5.938-9.766 0-14.922-6.594-5.14-6.594-5.875-19.922 2.875 4.25 7.219 6.516 4.359 2.266 9.578 2.266 10.984 0 17.36-6.672 6.374-6.657 6.374-18.125 0-11.235-6.64-18.032-6.641-6.78-17.672-6.78-12.657 0-19.344 9.687-6.688 9.703-6.688 28.109 0 17.281 8.204 27.563 8.203 10.28 22.015 10.28 3.719 0 7.5-.734t7.89-2.187z" id="DejaVuSans-54"/></defs><use xlink:href="#DejaVuSans-54"/><use x="63.623" xlink:href="#DejaVuSans-48"/></g></g><g id="ytick_5"><path clip-path="url(#pba8de657a1)" d="M79.231 164.31h1116" fill="none" stroke="#b0b0b0" stroke-linecap="square" stroke-width=".8" id="line2d_14"/><use x="79.231" xlink:href="#m35cdcb458e" y="164.31" stroke="#000" stroke-width="2.5" id="line2d_15"/><g transform="matrix(.2 0 0 -.2 43.281 171.909)" id="text_11"><defs><path d="M31.781 34.625q-7.031 0-11.062-3.766-4.016-3.765-4.016-10.343 0-6.594 4.016-10.36Q24.75 6.391 31.78 6.391q7.032 0 11.078 3.78 4.063 3.798 4.063 10.345 0 6.578-4.031 10.343-4.016 3.766-11.11 3.766zm-9.86 4.188q-6.343 1.562-9.89 5.906Q8.5 49.079 8.5 55.329q0 8.733 6.219 13.812 6.234 5.078 17.062 5.078 10.89 0 17.094-5.078 6.203-5.079 6.203-13.813 0-6.25-3.547-10.61-3.531-4.343-9.828-5.906 7.125-1.656 11.094-6.5 3.984-4.828 3.984-11.796 0-10.61-6.468-16.282-6.47-5.656-18.532-5.656-12.047 0-18.531 5.656-6.469 5.672-6.469 16.282 0 6.968 4 11.797 4.016 4.843 11.14 6.5zM18.314 54.39q0-5.657 3.53-8.828 3.548-3.172 9.938-3.172 6.36 0 9.938 3.172 3.593 3.171 3.593 8.828 0 5.672-3.593 8.843-3.578 3.172-9.938 3.172-6.39 0-9.937-3.172-3.532-3.172-3.532-8.843z" id="DejaVuSans-56"/></defs><use xlink:href="#DejaVuSans-56"/><use x="63.623" xlink:href="#DejaVuSans-48"/></g></g><g id="ytick_6"><path clip-path="url(#pba8de657a1)" d="M79.231 122.048h1116" fill="none" stroke="#b0b0b0" stroke-linecap="square" stroke-width=".8" id="line2d_16"/><use x="79.231" xlink:href="#m35cdcb458e" y="122.048" stroke="#000" stroke-width="2.5" id="line2d_17"/><g transform="matrix(.2 0 0 -.2 30.556 129.646)" id="text_12"><use xlink:href="#DejaVuSans-49"/><use x="63.623" xlink:href="#DejaVuSans-48"/><use x="127.246" xlink:href="#DejaVuSans-48"/></g></g><g id="ytick_7"><path clip-path="url(#pba8de657a1)" d="M79.231 79.786h1116" fill="none" stroke="#b0b0b0" stroke-linecap="square" stroke-width=".8" id="line2d_18"/><use x="79.231" xlink:href="#m35cdcb458e" y="79.786" stroke="#000" stroke-width="2.5" id="line2d_19"/><g transform="matrix(.2 0 0 -.2 30.556 87.384)" id="text_13"><use xlink:href="#DejaVuSans-49"/><use x="63.623" xlink:href="#DejaVuSans-50"/><use x="127.246" xlink:href="#DejaVuSans-48"/></g></g><g id="ytick_8"><path clip-path="url(#pba8de657a1)" d="M79.231 37.523h1116" fill="none" stroke="#b0b0b0" stroke-linecap="square" stroke-width=".8" id="line2d_20"/><use x="79.231" xlink:href="#m35cdcb458e" y="37.523" stroke="#000" stroke-width="2.5" id="line2d_21"/><g transform="matrix(.2 0 0 -.2 30.556 45.122)" id="text_14"><use xlink:href="#DejaVuSans-49"/><use x="63.623" xlink:href="#DejaVuSans-52"/><use x="127.246" xlink:href="#DejaVuSans-48"/></g></g><g transform="matrix(0 -.2 -.2 0 22.397 199.977)" id="text_15"><defs><path d="M64.406 67.281v-10.39q-4.984 4.64-10.625 6.922-5.64 2.296-11.984 2.296-12.5 0-19.14-7.64-6.641-7.64-6.641-22.094 0-14.406 6.64-22.047 6.64-7.64 19.14-7.64 6.345 0 11.985 2.296 5.64 2.297 10.625 6.938V5.609Q59.234 2.094 53.437.33q-5.78-1.75-12.218-1.75-16.563 0-26.094 10.124-9.516 10.14-9.516 27.672 0 17.578 9.516 27.703 9.531 10.14 26.094 10.14 6.531 0 12.312-1.734 5.797-1.734 10.875-5.203z" id="DejaVuSans-67"/></defs><use xlink:href="#DejaVuSans-67"/><use x="69.824" xlink:href="#DejaVuSans-111"/><use x="131.006" xlink:href="#DejaVuSans-117"/><use x="194.385" xlink:href="#DejaVuSans-110"/><use x="257.764" xlink:href="#DejaVuSans-116"/></g></g><path d="M79.231 333.36V7.2" fill="none" stroke="#000" stroke-linecap="square" stroke-width="2.5" id="patch_233"/><path d="M1195.231 333.36V7.2" fill="none" stroke="#000" stroke-linecap="square" stroke-width="2.5" id="patch_234"/><path d="M79.231 333.36h1116" fill="none" stroke="#000" stroke-linecap="square" stroke-width="2.5" id="patch_235"/><path d="M79.231 7.2h1116" fill="none" stroke="#000" stroke-linecap="square" stroke-width="2.5" id="patch_236"/><g transform="matrix(0 -.2 -.2 0 123.567 167.049)" id="text_16"><defs><path d="M4.89 31.39h26.313v-8H4.891z" id="DejaVuSans-45"/><path d="M25.39 72.906h8.297L8.297-9.28H0z" id="DejaVuSans-47"/></defs><use xlink:href="#DejaVuSans-116"/><use x="39.209" xlink:href="#DejaVuSans-114"/><use x="80.322" xlink:href="#DejaVuSans-105"/><use x="108.105" xlink:href="#DejaVuSans-45"/><use x="144.189" xlink:href="#DejaVuSans-47"/><use x="177.881" xlink:href="#DejaVuSans-109"/><use x="275.293" xlink:href="#DejaVuSans-111"/><use x="336.475" xlink:href="#DejaVuSans-110"/><use x="399.854" xlink:href="#DejaVuSans-111"/><use x="461.035" xlink:href="#DejaVuSans-99"/><use x="516.016" xlink:href="#DejaVuSans-108"/><use x="543.799" xlink:href="#DejaVuSans-105"/><use x="571.582" xlink:href="#DejaVuSans-110"/><use x="634.961" xlink:href="#DejaVuSans-105"/><use x="662.744" xlink:href="#DejaVuSans-99"/></g><g transform="matrix(0 -.2 -.2 0 303.098 158.236)" id="text_17"><defs><path d="M54.89 33.016V0h-8.984v32.719q0 7.765-3.031 11.61-3.031 3.858-9.078 3.858-7.281 0-11.484-4.64-4.204-4.625-4.204-12.64V0H9.08v75.984h9.03V46.188q3.235 4.937 7.594 7.374Q30.078 56 35.797 56q9.422 0 14.25-5.828 4.844-5.828 4.844-17.156z" id="DejaVuSans-104"/></defs><use xlink:href="#DejaVuSans-111"/><use x="61.182" xlink:href="#DejaVuSans-114"/><use x="102.295" xlink:href="#DejaVuSans-116"/><use x="141.504" xlink:href="#DejaVuSans-104"/><use x="204.883" xlink:href="#DejaVuSans-111"/><use x="266.064" xlink:href="#DejaVuSans-114"/><use x="305.428" xlink:href="#DejaVuSans-104"/><use x="368.807" xlink:href="#DejaVuSans-111"/><use x="429.988" xlink:href="#DejaVuSans-109"/><use x="527.4" xlink:href="#DejaVuSans-98"/><use x="590.877" xlink:href="#DejaVuSans-105"/><use x="618.66" xlink:href="#DejaVuSans-99"/></g><g transform="matrix(0 -.2 -.2 0 611.21 127.395)" id="text_18"><use xlink:href="#DejaVuSans-116"/><use x="39.209" xlink:href="#DejaVuSans-101"/><use x="100.732" xlink:href="#DejaVuSans-116"/><use x="139.941" xlink:href="#DejaVuSans-114"/><use x="181.055" xlink:href="#DejaVuSans-97"/><use x="242.334" xlink:href="#DejaVuSans-103"/><use x="305.811" xlink:href="#DejaVuSans-111"/><use x="366.992" xlink:href="#DejaVuSans-110"/><use x="430.371" xlink:href="#DejaVuSans-97"/><use x="491.65" xlink:href="#DejaVuSans-108"/></g><g transform="matrix(0 -.2 -.2 0 836.837 100.549)" id="text_19"><use xlink:href="#DejaVuSans-116"/><use x="39.209" xlink:href="#DejaVuSans-114"/><use x="80.322" xlink:href="#DejaVuSans-105"/><use x="108.105" xlink:href="#DejaVuSans-103"/><use x="171.582" xlink:href="#DejaVuSans-111"/><use x="232.764" xlink:href="#DejaVuSans-110"/><use x="296.143" xlink:href="#DejaVuSans-97"/><use x="357.422" xlink:href="#DejaVuSans-108"/></g><g transform="matrix(0 -.2 -.2 0 962.993 127.655)" id="text_20"><defs><path d="M54.89 54.688l-19.78-26.61L55.905 0H45.313L29.39 21.484 13.484 0H2.875l21.25 28.61L4.687 54.687h10.594l14.5-19.485 14.5 19.484z" id="DejaVuSans-120"/></defs><use xlink:href="#DejaVuSans-104"/><use x="63.379" xlink:href="#DejaVuSans-101"/><use x="123.152" xlink:href="#DejaVuSans-120"/><use x="182.332" xlink:href="#DejaVuSans-97"/><use x="243.611" xlink:href="#DejaVuSans-103"/><use x="307.088" xlink:href="#DejaVuSans-111"/><use x="368.27" xlink:href="#DejaVuSans-110"/><use x="431.648" xlink:href="#DejaVuSans-97"/><use x="492.928" xlink:href="#DejaVuSans-108"/></g><g transform="matrix(0 -.2 -.2 0 1115.837 76.43)" id="text_21"><use xlink:href="#DejaVuSans-99"/><use x="54.98" xlink:href="#DejaVuSans-117"/><use x="118.359" xlink:href="#DejaVuSans-98"/><use x="181.836" xlink:href="#DejaVuSans-105"/><use x="209.619" xlink:href="#DejaVuSans-99"/></g></g></g><defs><clipPath id="pba8de657a1"><path d="M79.231 7.2h1116v326.16h-1116z"/></clipPath></defs></svg>