<svg height="452.55" viewBox="0 0 1202.431 339.413" width="1603.242" xmlns="http://www.w3.org/2000/svg" xmlns:xlink="http://www.w3.org/1999/xlink"><defs><style>*{stroke-linecap:butt;stroke-linejoin:round}</style></defs><g id="figure_1"><path d="M0 339.413h1202.431V0H0z" style="fill:none" id="patch_1"/><g id="axes_1"><path d="M79.231 279h1116V7.2h-1116z" style="fill:#fff" id="patch_2"/><g id="PolyCollection_1"><defs><path d="M79.231-332.212v271.8h72.783v-271.8H79.23z" id="mfc91ca03fd" style="stroke:#000;stroke-opacity:.1"/></defs><g clip-path="url(#p888402fac8)"><use style="fill:red;fill-opacity:.1;stroke:#000;stroke-opacity:.1" xlink:href="#mfc91ca03fd" y="339.413"/></g></g><g id="PolyCollection_2"><defs><path d="M152.014-332.212v271.8h286.278v-271.8H152.014z" id="meee7476c15" style="stroke:#000;stroke-opacity:.1"/></defs><g clip-path="url(#p888402fac8)"><use style="fill:#00f;fill-opacity:.1;stroke:#000;stroke-opacity:.1" xlink:href="#meee7476c15" y="339.413"/></g></g><g id="PolyCollection_3"><defs><path d="M438.292-332.212v271.8H768.24v-271.8H438.292z" id="me834795819" style="stroke:#000;stroke-opacity:.1"/></defs><g clip-path="url(#p888402fac8)"><use style="fill:green;fill-opacity:.1;stroke:#000;stroke-opacity:.1" xlink:href="#me834795819" y="339.413"/></g></g><g id="PolyCollection_4"><defs><path d="M768.24-332.212v271.8h121.304v-271.8H768.24z" id="m697ac6ceba" style="stroke:#000;stroke-opacity:.1"/></defs><g clip-path="url(#p888402fac8)"><use style="fill:orange;fill-opacity:.1;stroke:#000;stroke-opacity:.1" xlink:href="#m697ac6ceba" y="339.413"/></g></g><g id="PolyCollection_5"><defs><path d="M889.544-332.212v271.8h131.009v-271.8H889.544z" id="m6b7ebbd4d4" style="stroke:#000;stroke-opacity:.1"/></defs><g clip-path="url(#p888402fac8)"><use style="fill:purple;fill-opacity:.1;stroke:#000;stroke-opacity:.1" xlink:href="#m6b7ebbd4d4" y="339.413"/></g></g><g id="PolyCollection_6"><defs><path d="M1020.553-332.212v271.8h174.678v-271.8h-174.678z" id="m5abbffc3c1" style="stroke:#000;stroke-opacity:.1"/></defs><g clip-path="url(#p888402fac8)"><use style="fill:#ff0;fill-opacity:.1;stroke:#000;stroke-opacity:.1" xlink:href="#m5abbffc3c1" y="339.413"/></g></g><path clip-path="url(#p888402fac8)" d="M76.805 279h4.852-4.852z" style="fill:red" id="patch_3"/><path clip-path="url(#p888402fac8)" d="M81.657 279h4.853v-22.892h-4.853z" style="fill:red" id="patch_4"/><path clip-path="url(#p888402fac8)" d="M86.51 279h4.852v-8.805H86.51z" style="fill:red" id="patch_5"/><path clip-path="url(#p888402fac8)" d="M91.362 279h4.852-4.852z" style="fill:red" id="patch_6"/><path clip-path="url(#p888402fac8)" d="M96.214 279h4.852v-3.522h-4.852z" style="fill:red" id="patch_7"/><path clip-path="url(#p888402fac8)" d="M101.066 279h4.852v-3.522h-4.852z" style="fill:red" id="patch_8"/><path clip-path="url(#p888402fac8)" d="M105.918 279h4.852v-1.76h-4.852z" style="fill:red" id="patch_9"/><path clip-path="url(#p888402fac8)" d="M110.77 279h4.853-4.853z" style="fill:red" id="patch_10"/><path clip-path="url(#p888402fac8)" d="M115.623 279h4.852v-8.805h-4.852z" style="fill:red" id="patch_11"/><path clip-path="url(#p888402fac8)" d="M120.475 279h4.852v-17.61h-4.852z" style="fill:red" id="patch_12"/><path clip-path="url(#p888402fac8)" d="M125.327 279h4.852-4.852z" style="fill:red" id="patch_13"/><path clip-path="url(#p888402fac8)" d="M130.18 279h4.851v-38.74h-4.852z" style="fill:red" id="patch_14"/><path clip-path="url(#p888402fac8)" d="M135.031 279h4.852v-81.003h-4.852z" style="fill:red" id="patch_15"/><path clip-path="url(#p888402fac8)" d="M139.883 279h4.853v-8.805h-4.853z" style="fill:red" id="patch_16"/><path clip-path="url(#p888402fac8)" d="M144.736 279h4.852v-31.697h-4.852z" style="fill:red" id="patch_17"/><path clip-path="url(#p888402fac8)" d="M149.588 279h4.852v-51.067h-4.852z" style="fill:red" id="patch_18"/><path clip-path="url(#p888402fac8)" d="M154.44 279h4.852-4.852z" style="fill:#00f" id="patch_19"/><path clip-path="url(#p888402fac8)" d="M159.292 279h4.852-4.852z" style="fill:#00f" id="patch_20"/><path clip-path="url(#p888402fac8)" d="M164.144 279h4.852-4.852z" style="fill:#00f" id="patch_21"/><path clip-path="url(#p888402fac8)" d="M168.996 279h4.853v-1.76h-4.853z" style="fill:#00f" id="patch_22"/><path clip-path="url(#p888402fac8)" d="M173.849 279h4.852v-3.522h-4.852z" style="fill:#00f" id="patch_23"/><path clip-path="url(#p888402fac8)" d="M178.7 279h4.853-4.852z" style="fill:#00f" id="patch_24"/><path clip-path="url(#p888402fac8)" d="M183.553 279h4.852-4.852z" style="fill:#00f" id="patch_25"/><path clip-path="url(#p888402fac8)" d="M188.405 279h4.852v-1.76h-4.852z" style="fill:#00f" id="patch_26"/><path clip-path="url(#p888402fac8)" d="M193.257 279h4.853v-1.76h-4.853z" style="fill:#00f" id="patch_27"/><path clip-path="url(#p888402fac8)" d="M198.11 279h4.852-4.852z" style="fill:#00f" id="patch_28"/><path clip-path="url(#p888402fac8)" d="M202.962 279h4.852v-1.76h-4.852z" style="fill:#00f" id="patch_29"/><path clip-path="url(#p888402fac8)" d="M207.814 279h4.852-4.852z" style="fill:#00f" id="patch_30"/><path clip-path="url(#p888402fac8)" d="M212.666 279h4.852-4.852z" style="fill:#00f" id="patch_31"/><path clip-path="url(#p888402fac8)" d="M217.518 279h4.852v-5.283h-4.852z" style="fill:#00f" id="patch_32"/><path clip-path="url(#p888402fac8)" d="M222.37 279h4.853-4.853z" style="fill:#00f" id="patch_33"/><path clip-path="url(#p888402fac8)" d="M227.223 279h4.852v-5.283h-4.852z" style="fill:#00f" id="patch_34"/><path clip-path="url(#p888402fac8)" d="M232.075 279h4.852-4.852z" style="fill:#00f" id="patch_35"/><path clip-path="url(#p888402fac8)" d="M236.927 279h4.852v-3.522h-4.852z" style="fill:#00f" id="patch_36"/><path clip-path="url(#p888402fac8)" d="M241.78 279h4.851-4.852z" style="fill:#00f" id="patch_37"/><path clip-path="url(#p888402fac8)" d="M246.631 279h4.852-4.852z" style="fill:#00f" id="patch_38"/><path clip-path="url(#p888402fac8)" d="M251.483 279h4.853v-40.501h-4.853z" style="fill:#00f" id="patch_39"/><path clip-path="url(#p888402fac8)" d="M256.336 279h4.852-4.852z" style="fill:#00f" id="patch_40"/><path clip-path="url(#p888402fac8)" d="M261.188 279h4.852-4.852z" style="fill:#00f" id="patch_41"/><path clip-path="url(#p888402fac8)" d="M266.04 279h4.852-4.852z" style="fill:#00f" id="patch_42"/><path clip-path="url(#p888402fac8)" d="M270.892 279h4.852v-1.76h-4.852z" style="fill:#00f" id="patch_43"/><path clip-path="url(#p888402fac8)" d="M275.744 279h4.852-4.852z" style="fill:#00f" id="patch_44"/><path clip-path="url(#p888402fac8)" d="M280.596 279h4.853-4.853z" style="fill:#00f" id="patch_45"/><path clip-path="url(#p888402fac8)" d="M285.449 279h4.852v-5.283h-4.852z" style="fill:#00f" id="patch_46"/><path clip-path="url(#p888402fac8)" d="M290.3 279h4.853v-1.76h-4.852z" style="fill:#00f" id="patch_47"/><path clip-path="url(#p888402fac8)" d="M295.153 279h4.852-4.852z" style="fill:#00f" id="patch_48"/><path clip-path="url(#p888402fac8)" d="M300.005 279h4.852-4.852z" style="fill:#00f" id="patch_49"/><path clip-path="url(#p888402fac8)" d="M304.857 279h4.853-4.853z" style="fill:#00f" id="patch_50"/><path clip-path="url(#p888402fac8)" d="M309.71 279h4.852-4.852z" style="fill:#00f" id="patch_51"/><path clip-path="url(#p888402fac8)" d="M314.562 279h4.852-4.852z" style="fill:#00f" id="patch_52"/><path clip-path="url(#p888402fac8)" d="M319.414 279h4.852-4.852z" style="fill:#00f" id="patch_53"/><path clip-path="url(#p888402fac8)" d="M324.266 279h4.852v-3.522h-4.852z" style="fill:#00f" id="patch_54"/><path clip-path="url(#p888402fac8)" d="M329.118 279h4.852-4.852z" style="fill:#00f" id="patch_55"/><path clip-path="url(#p888402fac8)" d="M333.97 279h4.853v-1.76h-4.853z" style="fill:#00f" id="patch_56"/><path clip-path="url(#p888402fac8)" d="M338.823 279h4.852-4.852z" style="fill:#00f" id="patch_57"/><path clip-path="url(#p888402fac8)" d="M343.675 279h4.852v-3.522h-4.852z" style="fill:#00f" id="patch_58"/><path clip-path="url(#p888402fac8)" d="M348.527 279h4.852-4.852z" style="fill:#00f" id="patch_59"/><path clip-path="url(#p888402fac8)" d="M353.38 279h4.851-4.852z" style="fill:#00f" id="patch_60"/><path clip-path="url(#p888402fac8)" d="M358.231 279h4.852v-24.653h-4.852z" style="fill:#00f" id="patch_61"/><path clip-path="url(#p888402fac8)" d="M363.083 279h4.853v-3.522h-4.853z" style="fill:#00f" id="patch_62"/><path clip-path="url(#p888402fac8)" d="M367.936 279h4.852-4.852z" style="fill:#00f" id="patch_63"/><path clip-path="url(#p888402fac8)" d="M372.788 279h4.852-4.852z" style="fill:#00f" id="patch_64"/><path clip-path="url(#p888402fac8)" d="M377.64 279h4.852v-24.653h-4.852z" style="fill:#00f" id="patch_65"/><path clip-path="url(#p888402fac8)" d="M382.492 279h4.852v-86.286h-4.852z" style="fill:#00f" id="patch_66"/><path clip-path="url(#p888402fac8)" d="M387.344 279h4.852v-3.522h-4.852z" style="fill:#00f" id="patch_67"/><path clip-path="url(#p888402fac8)" d="M392.196 279h4.853v-8.805h-4.853z" style="fill:#00f" id="patch_68"/><path clip-path="url(#p888402fac8)" d="M397.049 279h4.852-4.852z" style="fill:#00f" id="patch_69"/><path clip-path="url(#p888402fac8)" d="M401.9 279h4.853v-1.76h-4.852z" style="fill:#00f" id="patch_70"/><path clip-path="url(#p888402fac8)" d="M406.753 279h4.852-4.852z" style="fill:#00f" id="patch_71"/><path clip-path="url(#p888402fac8)" d="M411.605 279h4.852v-8.805h-4.852z" style="fill:#00f" id="patch_72"/><path clip-path="url(#p888402fac8)" d="M416.457 279h4.853-4.853z" style="fill:#00f" id="patch_73"/><path clip-path="url(#p888402fac8)" d="M421.31 279h4.852v-29.936h-4.852z" style="fill:#00f" id="patch_74"/><path clip-path="url(#p888402fac8)" d="M426.162 279h4.852v-36.98h-4.852z" style="fill:#00f" id="patch_75"/><path clip-path="url(#p888402fac8)" d="M431.014 279h4.852-4.852z" style="fill:#00f" id="patch_76"/><path clip-path="url(#p888402fac8)" d="M435.866 279h4.852v-3.522h-4.852z" style="fill:#00f" id="patch_77"/><path clip-path="url(#p888402fac8)" d="M440.718 279h4.852-4.852z" style="fill:green" id="patch_78"/><path clip-path="url(#p888402fac8)" d="M445.57 279h4.853-4.853z" style="fill:green" id="patch_79"/><path clip-path="url(#p888402fac8)" d="M450.423 279h4.852-4.852z" style="fill:green" id="patch_80"/><path clip-path="url(#p888402fac8)" d="M455.275 279h4.852-4.852z" style="fill:green" id="patch_81"/><path clip-path="url(#p888402fac8)" d="M460.127 279h4.852-4.852z" style="fill:green" id="patch_82"/><path clip-path="url(#p888402fac8)" d="M464.98 279h4.851-4.852z" style="fill:green" id="patch_83"/><path clip-path="url(#p888402fac8)" d="M469.831 279h4.852-4.852z" style="fill:green" id="patch_84"/><path clip-path="url(#p888402fac8)" d="M474.683 279h4.853v-65.155h-4.853z" style="fill:green" id="patch_85"/><path clip-path="url(#p888402fac8)" d="M479.536 279h4.852-4.852z" style="fill:green" id="patch_86"/><path clip-path="url(#p888402fac8)" d="M484.388 279h4.852-4.852z" style="fill:green" id="patch_87"/><path clip-path="url(#p888402fac8)" d="M489.24 279h4.852-4.852z" style="fill:green" id="patch_88"/><path clip-path="url(#p888402fac8)" d="M494.092 279h4.852-4.852z" style="fill:green" id="patch_89"/><path clip-path="url(#p888402fac8)" d="M498.944 279h4.852v-7.044h-4.852z" style="fill:green" id="patch_90"/><path clip-path="url(#p888402fac8)" d="M503.796 279h4.853v-14.087h-4.853z" style="fill:green" id="patch_91"/><path clip-path="url(#p888402fac8)" d="M508.649 279h4.852-4.852z" style="fill:green" id="patch_92"/><path clip-path="url(#p888402fac8)" d="M513.5 279h4.853-4.852z" style="fill:green" id="patch_93"/><path clip-path="url(#p888402fac8)" d="M518.353 279h4.852-4.852z" style="fill:green" id="patch_94"/><path clip-path="url(#p888402fac8)" d="M523.205 279h4.852v-3.522h-4.852z" style="fill:green" id="patch_95"/><path clip-path="url(#p888402fac8)" d="M528.057 279h4.853-4.853z" style="fill:green" id="patch_96"/><path clip-path="url(#p888402fac8)" d="M532.91 279h4.852-4.852z" style="fill:green" id="patch_97"/><path clip-path="url(#p888402fac8)" d="M537.762 279h4.852-4.852z" style="fill:green" id="patch_98"/><path clip-path="url(#p888402fac8)" d="M542.614 279h4.852-4.852z" style="fill:green" id="patch_99"/><path clip-path="url(#p888402fac8)" d="M547.466 279h4.852v-3.522h-4.852z" style="fill:green" id="patch_100"/><path clip-path="url(#p888402fac8)" d="M552.318 279h4.852v-1.76h-4.852z" style="fill:green" id="patch_101"/><path clip-path="url(#p888402fac8)" d="M557.17 279h4.853v-1.76h-4.853z" style="fill:green" id="patch_102"/><path clip-path="url(#p888402fac8)" d="M562.023 279h4.852-4.852z" style="fill:green" id="patch_103"/><path clip-path="url(#p888402fac8)" d="M566.875 279h4.852-4.852z" style="fill:green" id="patch_104"/><path clip-path="url(#p888402fac8)" d="M571.727 279h4.852-4.852z" style="fill:green" id="patch_105"/><path clip-path="url(#p888402fac8)" d="M576.58 279h4.851-4.852z" style="fill:green" id="patch_106"/><path clip-path="url(#p888402fac8)" d="M581.431 279h4.852-4.852z" style="fill:green" id="patch_107"/><path clip-path="url(#p888402fac8)" d="M586.283 279h4.853-4.853z" style="fill:green" id="patch_108"/><path clip-path="url(#p888402fac8)" d="M591.136 279h4.852-4.852z" style="fill:green" id="patch_109"/><path clip-path="url(#p888402fac8)" d="M595.988 279h4.852v-5.283h-4.852z" style="fill:green" id="patch_110"/><path clip-path="url(#p888402fac8)" d="M600.84 279h4.852v-1.76h-4.852z" style="fill:green" id="patch_111"/><path clip-path="url(#p888402fac8)" d="M605.692 279h4.852v-3.522h-4.852z" style="fill:green" id="patch_112"/><path clip-path="url(#p888402fac8)" d="M610.544 279h4.852-4.852z" style="fill:green" id="patch_113"/><path clip-path="url(#p888402fac8)" d="M615.396 279h4.853v-3.522h-4.853z" style="fill:green" id="patch_114"/><path clip-path="url(#p888402fac8)" d="M620.249 279h4.852v-1.76h-4.852z" style="fill:green" id="patch_115"/><path clip-path="url(#p888402fac8)" d="M625.1 279h4.853v-5.283h-4.852z" style="fill:green" id="patch_116"/><path clip-path="url(#p888402fac8)" d="M629.953 279h4.852-4.852z" style="fill:green" id="patch_117"/><path clip-path="url(#p888402fac8)" d="M634.805 279h4.852v-1.76h-4.852z" style="fill:green" id="patch_118"/><path clip-path="url(#p888402fac8)" d="M639.657 279h4.853-4.853z" style="fill:green" id="patch_119"/><path clip-path="url(#p888402fac8)" d="M644.51 279h4.852-4.852z" style="fill:green" id="patch_120"/><path clip-path="url(#p888402fac8)" d="M649.362 279h4.852-4.852z" style="fill:green" id="patch_121"/><path clip-path="url(#p888402fac8)" d="M654.214 279h4.852v-8.805h-4.852z" style="fill:green" id="patch_122"/><path clip-path="url(#p888402fac8)" d="M659.066 279h4.852-4.852z" style="fill:green" id="patch_123"/><path clip-path="url(#p888402fac8)" d="M663.918 279h4.852v-17.61h-4.852z" style="fill:green" id="patch_124"/><path clip-path="url(#p888402fac8)" d="M668.77 279h4.853v-68.676h-4.853z" style="fill:green" id="patch_125"/><path clip-path="url(#p888402fac8)" d="M673.623 279h4.852v-17.61h-4.852z" style="fill:green" id="patch_126"/><path clip-path="url(#p888402fac8)" d="M678.475 279h4.852-4.852z" style="fill:green" id="patch_127"/><path clip-path="url(#p888402fac8)" d="M683.327 279h4.852-4.852z" style="fill:green" id="patch_128"/><path clip-path="url(#p888402fac8)" d="M688.18 279h4.851-4.852z" style="fill:green" id="patch_129"/><path clip-path="url(#p888402fac8)" d="M693.031 279h4.852v-1.76h-4.852z" style="fill:green" id="patch_130"/><path clip-path="url(#p888402fac8)" d="M697.883 279h4.853-4.853z" style="fill:green" id="patch_131"/><path clip-path="url(#p888402fac8)" d="M702.736 279h4.852v-84.525h-4.852z" style="fill:green" id="patch_132"/><path clip-path="url(#p888402fac8)" d="M707.588 279h4.852-4.852z" style="fill:green" id="patch_133"/><path clip-path="url(#p888402fac8)" d="M712.44 279h4.852v-3.522h-4.852z" style="fill:green" id="patch_134"/><path clip-path="url(#p888402fac8)" d="M717.292 279h4.852-4.852z" style="fill:green" id="patch_135"/><path clip-path="url(#p888402fac8)" d="M722.144 279h4.852-4.852z" style="fill:green" id="patch_136"/><path clip-path="url(#p888402fac8)" d="M726.996 279h4.853-4.853z" style="fill:green" id="patch_137"/><path clip-path="url(#p888402fac8)" d="M731.849 279h4.852-4.852z" style="fill:green" id="patch_138"/><path clip-path="url(#p888402fac8)" d="M736.7 279h4.853v-12.327h-4.852z" style="fill:green" id="patch_139"/><path clip-path="url(#p888402fac8)" d="M741.553 279h4.852v-1.76h-4.852z" style="fill:green" id="patch_140"/><path clip-path="url(#p888402fac8)" d="M746.405 279h4.852-4.852z" style="fill:green" id="patch_141"/><path clip-path="url(#p888402fac8)" d="M751.257 279h4.853V171.583h-4.853z" style="fill:green" id="patch_142"/><path clip-path="url(#p888402fac8)" d="M756.11 279h4.852v-26.414h-4.852z" style="fill:green" id="patch_143"/><path clip-path="url(#p888402fac8)" d="M760.962 279h4.852v-22.892h-4.852z" style="fill:green" id="patch_144"/><path clip-path="url(#p888402fac8)" d="M765.814 279h4.852-4.852z" style="fill:green" id="patch_145"/><path clip-path="url(#p888402fac8)" d="M770.666 279h4.852-4.852z" style="fill:orange" id="patch_146"/><path clip-path="url(#p888402fac8)" d="M775.518 279h4.852-4.852z" style="fill:orange" id="patch_147"/><path clip-path="url(#p888402fac8)" d="M780.37 279h4.853-4.853z" style="fill:orange" id="patch_148"/><path clip-path="url(#p888402fac8)" d="M785.223 279h4.852v-1.76h-4.852z" style="fill:orange" id="patch_149"/><path clip-path="url(#p888402fac8)" d="M790.075 279h4.852v-3.522h-4.852z" style="fill:orange" id="patch_150"/><path clip-path="url(#p888402fac8)" d="M794.927 279h4.852v-79.242h-4.852z" style="fill:orange" id="patch_151"/><path clip-path="url(#p888402fac8)" d="M799.78 279h4.851v-3.522h-4.852z" style="fill:orange" id="patch_152"/><path clip-path="url(#p888402fac8)" d="M804.631 279h4.852-4.852z" style="fill:orange" id="patch_153"/><path clip-path="url(#p888402fac8)" d="M809.483 279h4.853-4.853z" style="fill:orange" id="patch_154"/><path clip-path="url(#p888402fac8)" d="M814.336 279h4.852v-10.566h-4.852z" style="fill:orange" id="patch_155"/><path clip-path="url(#p888402fac8)" d="M819.188 279h4.852-4.852z" style="fill:orange" id="patch_156"/><path clip-path="url(#p888402fac8)" d="M824.04 279h4.852v-3.522h-4.852z" style="fill:orange" id="patch_157"/><path clip-path="url(#p888402fac8)" d="M828.892 279h4.852v-8.805h-4.852z" style="fill:orange" id="patch_158"/><path clip-path="url(#p888402fac8)" d="M833.744 279h4.852v-19.37h-4.852z" style="fill:orange" id="patch_159"/><path clip-path="url(#p888402fac8)" d="M838.596 279h4.853-4.853z" style="fill:orange" id="patch_160"/><path clip-path="url(#p888402fac8)" d="M843.449 279h4.852-4.852z" style="fill:orange" id="patch_161"/><path clip-path="url(#p888402fac8)" d="M848.3 279h4.853-4.852z" style="fill:orange" id="patch_162"/><path clip-path="url(#p888402fac8)" d="M853.153 279h4.852v-24.653h-4.852z" style="fill:orange" id="patch_163"/><path clip-path="url(#p888402fac8)" d="M858.005 279h4.852v-8.805h-4.852z" style="fill:orange" id="patch_164"/><path clip-path="url(#p888402fac8)" d="M862.857 279h4.853v-22.892h-4.853z" style="fill:orange" id="patch_165"/><path clip-path="url(#p888402fac8)" d="M867.71 279h4.852-4.852z" style="fill:orange" id="patch_166"/><path clip-path="url(#p888402fac8)" d="M872.562 279h4.852v-96.851h-4.852z" style="fill:orange" id="patch_167"/><path clip-path="url(#p888402fac8)" d="M877.414 279h4.852-4.852z" style="fill:orange" id="patch_168"/><path clip-path="url(#p888402fac8)" d="M882.266 279h4.852V127.56h-4.852z" style="fill:orange" id="patch_169"/><path clip-path="url(#p888402fac8)" d="M887.118 279h4.852v-31.697h-4.852z" style="fill:orange" id="patch_170"/><path clip-path="url(#p888402fac8)" d="M891.97 279h4.853-4.853z" style="fill:purple" id="patch_171"/><path clip-path="url(#p888402fac8)" d="M896.823 279h4.852-4.852z" style="fill:purple" id="patch_172"/><path clip-path="url(#p888402fac8)" d="M901.675 279h4.852-4.852z" style="fill:purple" id="patch_173"/><path clip-path="url(#p888402fac8)" d="M906.527 279h4.852-4.852z" style="fill:purple" id="patch_174"/><path clip-path="url(#p888402fac8)" d="M911.38 279h4.851-4.852z" style="fill:purple" id="patch_175"/><path clip-path="url(#p888402fac8)" d="M916.231 279h4.852-4.852z" style="fill:purple" id="patch_176"/><path clip-path="url(#p888402fac8)" d="M921.083 279h4.853-4.853z" style="fill:purple" id="patch_177"/><path clip-path="url(#p888402fac8)" d="M925.936 279h4.852-4.852z" style="fill:purple" id="patch_178"/><path clip-path="url(#p888402fac8)" d="M930.788 279h4.852v-3.522h-4.852z" style="fill:purple" id="patch_179"/><path clip-path="url(#p888402fac8)" d="M935.64 279h4.852-4.852z" style="fill:purple" id="patch_180"/><path clip-path="url(#p888402fac8)" d="M940.492 279h4.852-4.852z" style="fill:purple" id="patch_181"/><path clip-path="url(#p888402fac8)" d="M945.344 279h4.852-4.852z" style="fill:purple" id="patch_182"/><path clip-path="url(#p888402fac8)" d="M950.196 279h4.853-4.853z" style="fill:purple" id="patch_183"/><path clip-path="url(#p888402fac8)" d="M955.049 279h4.852-4.852z" style="fill:purple" id="patch_184"/><path clip-path="url(#p888402fac8)" d="M959.9 279h4.853-4.852z" style="fill:purple" id="patch_185"/><path clip-path="url(#p888402fac8)" d="M964.753 279h4.852-4.852z" style="fill:purple" id="patch_186"/><path clip-path="url(#p888402fac8)" d="M969.605 279h4.852-4.852z" style="fill:purple" id="patch_187"/><path clip-path="url(#p888402fac8)" d="M974.457 279h4.853-4.853z" style="fill:purple" id="patch_188"/><path clip-path="url(#p888402fac8)" d="M979.31 279h4.852v-54.589h-4.852z" style="fill:purple" id="patch_189"/><path clip-path="url(#p888402fac8)" d="M984.162 279h4.852v-10.566h-4.852z" style="fill:purple" id="patch_190"/><path clip-path="url(#p888402fac8)" d="M989.014 279h4.852-4.852z" style="fill:purple" id="patch_191"/><path clip-path="url(#p888402fac8)" d="M993.866 279h4.852v-19.37h-4.852z" style="fill:purple" id="patch_192"/><path clip-path="url(#p888402fac8)" d="M998.718 279h4.852-4.852z" style="fill:purple" id="patch_193"/><path clip-path="url(#p888402fac8)" d="M1003.57 279h4.853-4.853z" style="fill:purple" id="patch_194"/><path clip-path="url(#p888402fac8)" d="M1008.423 279h4.852-4.852z" style="fill:purple" id="patch_195"/><path clip-path="url(#p888402fac8)" d="M1013.275 279h4.852-4.852z" style="fill:purple" id="patch_196"/><path clip-path="url(#p888402fac8)" d="M1018.127 279h4.852v-86.286h-4.852z" style="fill:purple" id="patch_197"/><path clip-path="url(#p888402fac8)" d="M1022.98 279h4.851-4.852z" style="fill:#ff0" id="patch_198"/><path clip-path="url(#p888402fac8)" d="M1027.831 279h4.852-4.852z" style="fill:#ff0" id="patch_199"/><path clip-path="url(#p888402fac8)" d="M1032.683 279h4.853-4.853z" style="fill:#ff0" id="patch_200"/><path clip-path="url(#p888402fac8)" d="M1037.536 279h4.852v-7.044h-4.852z" style="fill:#ff0" id="patch_201"/><path clip-path="url(#p888402fac8)" d="M1042.388 279h4.852v-1.76h-4.852z" style="fill:#ff0" id="patch_202"/><path clip-path="url(#p888402fac8)" d="M1047.24 279h4.852-4.852z" style="fill:#ff0" id="patch_203"/><path clip-path="url(#p888402fac8)" d="M1052.092 279h4.852-4.852z" style="fill:#ff0" id="patch_204"/><path clip-path="url(#p888402fac8)" d="M1056.944 279h4.852-4.852z" style="fill:#ff0" id="patch_205"/><path clip-path="url(#p888402fac8)" d="M1061.796 279h4.853-4.853z" style="fill:#ff0" id="patch_206"/><path clip-path="url(#p888402fac8)" d="M1066.649 279h4.852-4.852z" style="fill:#ff0" id="patch_207"/><path clip-path="url(#p888402fac8)" d="M1071.5 279h4.853v-7.044h-4.852z" style="fill:#ff0" id="patch_208"/><path clip-path="url(#p888402fac8)" d="M1076.353 279h4.852v-1.76h-4.852z" style="fill:#ff0" id="patch_209"/><path clip-path="url(#p888402fac8)" d="M1081.205 279h4.852-4.852z" style="fill:#ff0" id="patch_210"/><path clip-path="url(#p888402fac8)" d="M1086.057 279h4.853-4.853z" style="fill:#ff0" id="patch_211"/><path clip-path="url(#p888402fac8)" d="M1090.91 279h4.852-4.852z" style="fill:#ff0" id="patch_212"/><path clip-path="url(#p888402fac8)" d="M1095.762 279h4.852-4.852z" style="fill:#ff0" id="patch_213"/><path clip-path="url(#p888402fac8)" d="M1100.614 279h4.852-4.852z" style="fill:#ff0" id="patch_214"/><path clip-path="url(#p888402fac8)" d="M1105.466 279h4.852-4.852z" style="fill:#ff0" id="patch_215"/><path clip-path="url(#p888402fac8)" d="M1110.318 279h4.852-4.852z" style="fill:#ff0" id="patch_216"/><path clip-path="url(#p888402fac8)" d="M1115.17 279h4.853-4.853z" style="fill:#ff0" id="patch_217"/><path clip-path="url(#p888402fac8)" d="M1120.023 279h4.852v-19.37h-4.852z" style="fill:#ff0" id="patch_218"/><path clip-path="url(#p888402fac8)" d="M1124.875 279h4.852V159.257h-4.852z" style="fill:#ff0" id="patch_219"/><path clip-path="url(#p888402fac8)" d="M1129.727 279h4.852v-1.76h-4.852z" style="fill:#ff0" id="patch_220"/><path clip-path="url(#p888402fac8)" d="M1134.58 279h4.851-4.852z" style="fill:#ff0" id="patch_221"/><path clip-path="url(#p888402fac8)" d="M1139.431 279h4.852-4.852z" style="fill:#ff0" id="patch_222"/><path clip-path="url(#p888402fac8)" d="M1144.283 279h4.853-4.853z" style="fill:#ff0" id="patch_223"/><path clip-path="url(#p888402fac8)" d="M1149.136 279h4.852v-79.242h-4.852z" style="fill:#ff0" id="patch_224"/><path clip-path="url(#p888402fac8)" d="M1153.988 279h4.852-4.852z" style="fill:#ff0" id="patch_225"/><path clip-path="url(#p888402fac8)" d="M1158.84 279h4.852-4.852z" style="fill:#ff0" id="patch_226"/><path clip-path="url(#p888402fac8)" d="M1163.692 279h4.852-4.852z" style="fill:#ff0" id="patch_227"/><path clip-path="url(#p888402fac8)" d="M1168.544 279h4.852V20.143h-4.852z" style="fill:#ff0" id="patch_228"/><path clip-path="url(#p888402fac8)" d="M1173.396 279h4.853-4.853z" style="fill:#ff0" id="patch_229"/><path clip-path="url(#p888402fac8)" d="M1178.249 279h4.852v-3.522h-4.852z" style="fill:#ff0" id="patch_230"/><path clip-path="url(#p888402fac8)" d="M1183.1 279h4.853-4.852z" style="fill:#ff0" id="patch_231"/><path clip-path="url(#p888402fac8)" d="M1187.953 279h4.852-4.852z" style="fill:#ff0" id="patch_232"/><g id="matplotlib.axis_1"><g id="xtick_1"><g id="line2d_1"><defs><path d="M0 0v7" id="mccf1f60f1a" style="stroke:#000;stroke-width:2.5"/></defs><use style="stroke:#000;stroke-width:2.5" x="152.014" xlink:href="#mccf1f60f1a" y="279"/></g><g transform="matrix(.2 0 0 -.2 139.289 304.697)" id="text_1"><defs><path d="M794 531h1031v3560L703 3866v575l1116 225h631V531h1031V0H794v531z" id="DejaVuSans-31" transform="scale(.01563)"/><path d="M691 4666h2478v-532H1269V2991q137 47 274 70 138 23 276 23 781 0 1237-428 457-428 457-1159 0-753-469-1171Q2575-91 1722-91q-294 0-599 50Q819 9 494 109v635q281-153 581-228t634-75q541 0 856 284 316 284 316 772 0 487-316 771-315 285-856 285-253 0-505-56-251-56-513-175v2344z" id="DejaVuSans-35" transform="scale(.01563)"/></defs><use xlink:href="#DejaVuSans-31"/><use x="63.623" xlink:href="#DejaVuSans-35"/></g></g><g id="xtick_2"><use style="stroke:#000;stroke-width:2.5" x="438.292" xlink:href="#mccf1f60f1a" y="279" id="line2d_2"/><g transform="matrix(.2 0 0 -.2 425.567 304.697)" id="text_2"><defs><path d="M525 4666h3000v-269L1831 0h-659l1594 4134H525v532z" id="DejaVuSans-37" transform="scale(.01563)"/><path d="M2419 4116 825 1625h1594v2491zm-166 550h794V1625h666v-525h-666V0h-628v1100H313v609l1940 2957z" id="DejaVuSans-34" transform="scale(.01563)"/></defs><use xlink:href="#DejaVuSans-37"/><use x="63.623" xlink:href="#DejaVuSans-34"/></g></g><g id="xtick_3"><use style="stroke:#000;stroke-width:2.5" x="768.24" xlink:href="#mccf1f60f1a" y="279" id="line2d_3"/><g transform="matrix(.2 0 0 -.2 749.152 304.697)" id="text_3"><defs><path d="M1228 531h2203V0H469v531q359 372 979 998 621 627 780 809 303 340 423 576 121 236 121 464 0 372-261 606-261 235-680 235-297 0-627-103-329-103-704-313v638q381 153 712 231 332 78 607 78 725 0 1156-363 431-362 431-968 0-288-108-546-107-257-392-607-78-91-497-524-418-433-1181-1211z" id="DejaVuSans-32" transform="scale(.01563)"/></defs><use xlink:href="#DejaVuSans-31"/><use x="63.623" xlink:href="#DejaVuSans-34"/><use x="127.246" xlink:href="#DejaVuSans-32"/></g></g><g id="xtick_4"><use style="stroke:#000;stroke-width:2.5" x="889.544" xlink:href="#mccf1f60f1a" y="279" id="line2d_4"/><g transform="matrix(.2 0 0 -.2 870.457 304.697)" id="text_4"><defs><path d="M2113 2584q-425 0-674-291-248-290-248-796 0-503 248-796 249-292 674-292t673 292q248 293 248 796 0 506-248 796-248 291-673 291zm1253 1979v-575q-238 112-480 171-242 60-480 60-625 0-955-422-329-422-376-1275 184 272 462 417 279 145 613 145 703 0 1111-427 408-426 408-1160 0-719-425-1154Q2819-91 2113-91q-810 0-1238 620-428 621-428 1799 0 1106 525 1764t1409 658q238 0 480-47t505-140z" id="DejaVuSans-36" transform="scale(.01563)"/></defs><use xlink:href="#DejaVuSans-31"/><use x="63.623" xlink:href="#DejaVuSans-36"/><use x="127.246" xlink:href="#DejaVuSans-37"/></g></g><g id="xtick_5"><use style="stroke:#000;stroke-width:2.5" x="1020.553" xlink:href="#mccf1f60f1a" y="279" id="line2d_5"/><g transform="matrix(.2 0 0 -.2 1001.465 304.697)" id="text_5"><defs><path d="M703 97v575q238-113 481-172 244-59 479-59 625 0 954 420 330 420 377 1277-181-269-460-413-278-144-615-144-700 0-1108 423-408 424-408 1159 0 718 425 1152 425 435 1131 435 810 0 1236-621 427-620 427-1801 0-1103-524-1761Q2575-91 1691-91q-238 0-482 47Q966 3 703 97zm1256 1978q425 0 673 290 249 291 249 798 0 503-249 795-248 292-673 292t-673-292q-248-292-248-795 0-507 248-798 248-290 673-290z" id="DejaVuSans-39" transform="scale(.01563)"/></defs><use xlink:href="#DejaVuSans-31"/><use x="63.623" xlink:href="#DejaVuSans-39"/><use x="127.246" xlink:href="#DejaVuSans-34"/></g></g><g id="xtick_6"><use style="stroke:#000;stroke-width:2.5" x="1195.231" xlink:href="#mccf1f60f1a" y="279" id="line2d_6"/></g><g transform="matrix(.2 0 0 -.2 467.364 328.053)" id="text_6"><defs><path d="M628 4666h631V0H628v4666z" id="DejaVuSans-49" transform="scale(.01563)"/><path d="M3513 2113V0h-575v2094q0 497-194 743-194 247-581 247-466 0-735-297-269-296-269-809V0H581v3500h578v-544q207 316 486 472 280 156 646 156 603 0 912-373 310-373 310-1098z" id="DejaVuSans-6e" transform="scale(.01563)"/><path d="M1172 4494v-994h1184v-447H1172V1153q0-428 117-550t477-122h590V0h-590q-666 0-919 248-253 249-253 905v1900H172v447h422v994h578z" id="DejaVuSans-74" transform="scale(.01563)"/><path d="M3597 1894v-281H953q38-594 358-905t892-311q331 0 642 81t618 244V178Q3153 47 2828-22t-659-69q-838 0-1327 487-489 488-489 1320 0 859 464 1363 464 505 1252 505 706 0 1117-455 411-454 411-1235zm-575 169q-6 471-264 752-258 282-683 282-481 0-770-272t-333-766l2050 4z" id="DejaVuSans-65" transform="scale(.01563)"/><path d="M2631 2963q-97 56-211 82-114 27-251 27-488 0-749-317t-261-911V0H581v3500h578v-544q182 319 472 473 291 155 707 155 59 0 131-8 72-7 159-23l3-590z" id="DejaVuSans-72" transform="scale(.01563)"/><path d="M2194 1759q-697 0-966-159t-269-544q0-306 202-486 202-179 548-179 479 0 768 339t289 901v128h-572zm1147 238V0h-575v531q-197-318-491-470T1556-91q-537 0-855 302-317 302-317 808 0 590 395 890 396 300 1180 300h807v57q0 397-261 614t-733 217q-300 0-585-72-284-72-546-216v532q315 122 612 182 297 61 578 61 760 0 1135-394 375-393 375-1193z" id="DejaVuSans-61" transform="scale(.01563)"/><path d="M603 3500h575V0H603v3500zm0 1363h575v-729H603v729z" id="DejaVuSans-69" transform="scale(.01563)"/><path d="M1959 3097q-462 0-731-361t-269-989q0-628 267-989 268-361 733-361 460 0 728 362 269 363 269 988 0 622-269 986-268 364-728 364zm0 487q750 0 1178-488 429-487 429-1349 0-859-429-1349Q2709-91 1959-91q-753 0-1180 489-426 490-426 1349 0 862 426 1349 427 488 1180 488z" id="DejaVuSans-6f" transform="scale(.01563)"/><path d="M603 4863h575V0H603v4863z" id="DejaVuSans-6c" transform="scale(.01563)"/><path d="M3425 4513v-616q-359 172-678 256-319 85-616 85-515 0-795-200t-280-569q0-310 186-468 186-157 705-254l381-78q706-135 1042-474t336-907q0-679-455-1029Q2797-91 1919-91q-331 0-705 75-373 75-773 222v650q384-215 753-325 369-109 725-109 540 0 834 212 294 213 294 607 0 343-211 537t-692 291l-385 75q-706 140-1022 440-315 300-315 835 0 619 436 975t1201 356q329 0 669-60 341-59 697-177z" id="DejaVuSans-53" transform="scale(.01563)"/><path d="M1159 525v-1856H581v4831h578v-531q182 312 458 463 277 152 661 152 638 0 1036-506 399-506 399-1331T3314 415Q2916-91 2278-91q-384 0-661 152-276 152-458 464zm1957 1222q0 634-261 995t-717 361q-457 0-718-361t-261-995q0-634 261-995t718-361q456 0 717 361t261 995z" id="DejaVuSans-70" transform="scale(.01563)"/><path d="M3122 3366v-538q-244 135-489 202t-495 67q-560 0-870-355-309-354-309-995t309-996q310-354 870-354 250 0 495 67t489 202V134Q2881 22 2623-34q-257-57-548-57-791 0-1257 497-465 497-465 1341 0 856 470 1346 471 491 1290 491 265 0 518-55 253-54 491-163z" id="DejaVuSans-63" transform="scale(.01563)"/><path d="M2906 1791q0 625-258 968-257 344-723 344-462 0-720-344-258-343-258-968 0-622 258-966t720-344q466 0 723 344 258 344 258 966zm575-1357q0-893-397-1329-396-436-1215-436-303 0-572 45t-522 139v559q253-137 500-202 247-66 503-66 566 0 847 295t281 892v285q-178-310-456-463T1784 0Q1141 0 747 490 353 981 353 1791q0 812 394 1302 394 491 1037 491 388 0 666-153t456-462v531h575V434z" id="DejaVuSans-67" transform="scale(.01563)"/><path d="M544 1381v2119h575V1403q0-497 193-746 194-248 582-248 465 0 735 297 271 297 271 810v1984h575V0h-575v538q-209-319-486-474-276-155-642-155-603 0-916 375-312 375-312 1097zm1447 2203z" id="DejaVuSans-75" transform="scale(.01563)"/><path d="M628 4666h850L3547 763v3903h612V0h-850L1241 3903V0H628v4666z" id="DejaVuSans-4e" transform="scale(.01563)"/><path d="M3328 2828q216 388 516 572t706 184q547 0 844-383 297-382 297-1088V0h-578v2094q0 503-179 746-178 244-543 244-447 0-707-297-259-296-259-809V0h-578v2094q0 506-178 748t-550 242q-441 0-701-298-259-298-259-808V0H581v3500h578v-544q197 322 472 475t653 153q382 0 649-194 267-193 395-562z" id="DejaVuSans-6d" transform="scale(.01563)"/><path d="M3116 1747q0 634-261 995t-717 361q-457 0-718-361t-261-995q0-634 261-995t718-361q456 0 717 361t261 995zM1159 2969q182 312 458 463 277 152 661 152 638 0 1036-506 399-506 399-1331T3314 415Q2916-91 2278-91q-384 0-661 152-276 152-458 464V0H581v4863h578V2969z" id="DejaVuSans-62" transform="scale(.01563)"/></defs><use xlink:href="#DejaVuSans-49"/><use x="29.492" xlink:href="#DejaVuSans-6e"/><use x="92.871" xlink:href="#DejaVuSans-74"/><use x="132.08" xlink:href="#DejaVuSans-65"/><use x="193.604" xlink:href="#DejaVuSans-72"/><use x="232.967" xlink:href="#DejaVuSans-6e"/><use x="296.346" xlink:href="#DejaVuSans-61"/><use x="357.625" xlink:href="#DejaVuSans-74"/><use x="396.834" xlink:href="#DejaVuSans-69"/><use x="424.617" xlink:href="#DejaVuSans-6f"/><use x="485.799" xlink:href="#DejaVuSans-6e"/><use x="549.178" xlink:href="#DejaVuSans-61"/><use x="610.457" xlink:href="#DejaVuSans-6c"/><use x="638.24" xlink:href="#DejaVuSans-20"/><use x="670.027" xlink:href="#DejaVuSans-53"/><use x="733.504" xlink:href="#DejaVuSans-70"/><use x="796.98" xlink:href="#DejaVuSans-61"/><use x="858.26" xlink:href="#DejaVuSans-63"/><use x="913.24" xlink:href="#DejaVuSans-65"/><use x="974.764" xlink:href="#DejaVuSans-67"/><use x="1038.24" xlink:href="#DejaVuSans-72"/><use x="1077.104" xlink:href="#DejaVuSans-6f"/><use x="1138.285" xlink:href="#DejaVuSans-75"/><use x="1201.664" xlink:href="#DejaVuSans-70"/><use x="1265.141" xlink:href="#DejaVuSans-20"/><use x="1296.928" xlink:href="#DejaVuSans-4e"/><use x="1371.732" xlink:href="#DejaVuSans-75"/><use x="1435.111" xlink:href="#DejaVuSans-6d"/><use x="1532.523" xlink:href="#DejaVuSans-62"/><use x="1596" xlink:href="#DejaVuSans-65"/><use x="1657.523" xlink:href="#DejaVuSans-72"/></g></g><g id="matplotlib.axis_2"><g id="ytick_1"><path clip-path="url(#p888402fac8)" d="M79.231 279h1116" style="fill:none;stroke:#b0b0b0;stroke-linecap:square;stroke-width:.8" id="line2d_7"/><g id="line2d_8"><defs><path d="M0 0h-7" id="m8a2f663302" style="stroke:#000;stroke-width:2.5"/></defs><use style="stroke:#000;stroke-width:2.5" x="79.231" xlink:href="#m8a2f663302" y="279"/></g><g transform="matrix(.2 0 0 -.2 56.006 286.598)" id="text_7"><defs><path d="M2034 4250q-487 0-733-480-245-479-245-1442 0-959 245-1439 246-480 733-480 491 0 736 480 246 480 246 1439 0 963-246 1442-245 480-736 480zm0 500q785 0 1199-621 414-620 414-1801 0-1178-414-1799Q2819-91 2034-91q-784 0-1198 620-414 621-414 1799 0 1181 414 1801 414 621 1198 621z" id="DejaVuSans-30" transform="scale(.01563)"/></defs><use xlink:href="#DejaVuSans-30"/></g></g><g id="ytick_2"><path clip-path="url(#p888402fac8)" d="M79.231 190.953h1116" style="fill:none;stroke:#b0b0b0;stroke-linecap:square;stroke-width:.8" id="line2d_9"/><use style="stroke:#000;stroke-width:2.5" x="79.231" xlink:href="#m8a2f663302" y="190.953" id="line2d_10"/><g transform="matrix(.2 0 0 -.2 43.281 198.552)" id="text_8"><use xlink:href="#DejaVuSans-35"/><use x="63.623" xlink:href="#DejaVuSans-30"/></g></g><g id="ytick_3"><path clip-path="url(#p888402fac8)" d="M79.231 102.907h1116" style="fill:none;stroke:#b0b0b0;stroke-linecap:square;stroke-width:.8" id="line2d_11"/><use style="stroke:#000;stroke-width:2.5" x="79.231" xlink:href="#m8a2f663302" y="102.907" id="line2d_12"/><g transform="matrix(.2 0 0 -.2 30.556 110.505)" id="text_9"><use xlink:href="#DejaVuSans-31"/><use x="63.623" xlink:href="#DejaVuSans-30"/><use x="127.246" xlink:href="#DejaVuSans-30"/></g></g><g id="ytick_4"><path clip-path="url(#p888402fac8)" d="M79.231 14.86h1116" style="fill:none;stroke:#b0b0b0;stroke-linecap:square;stroke-width:.8" id="line2d_13"/><use style="stroke:#000;stroke-width:2.5" x="79.231" xlink:href="#m8a2f663302" y="14.86" id="line2d_14"/><g transform="matrix(.2 0 0 -.2 30.556 22.458)" id="text_10"><use xlink:href="#DejaVuSans-31"/><use x="63.623" xlink:href="#DejaVuSans-35"/><use x="127.246" xlink:href="#DejaVuSans-30"/></g></g><g transform="matrix(0 -.2 -.2 0 22.397 172.797)" id="text_11"><defs><path d="M4122 4306v-665q-319 297-680 443-361 147-767 147-800 0-1225-489t-425-1414q0-922 425-1411t1225-489q406 0 767 147t680 444V359q-331-225-702-338-370-112-782-112-1060 0-1670 648-609 649-609 1771 0 1125 609 1773 610 649 1670 649 418 0 788-111 371-111 696-333z" id="DejaVuSans-43" transform="scale(.01563)"/></defs><use xlink:href="#DejaVuSans-43"/><use x="69.824" xlink:href="#DejaVuSans-6f"/><use x="131.006" xlink:href="#DejaVuSans-75"/><use x="194.385" xlink:href="#DejaVuSans-6e"/><use x="257.764" xlink:href="#DejaVuSans-74"/></g></g><path d="M79.231 279V7.2" style="fill:none;stroke:#000;stroke-linecap:square;stroke-linejoin:miter;stroke-width:2.5" id="patch_233"/><path d="M1195.231 279V7.2" style="fill:none;stroke:#000;stroke-linecap:square;stroke-linejoin:miter;stroke-width:2.5" id="patch_234"/><path d="M79.231 279h1116" style="fill:none;stroke:#000;stroke-linecap:square;stroke-linejoin:miter;stroke-width:2.5" id="patch_235"/><path d="M79.231 7.2h1116" style="fill:none;stroke:#000;stroke-linecap:square;stroke-linejoin:miter;stroke-width:2.5" id="patch_236"/><g transform="matrix(0 -.2 -.2 0 123.567 164.33)" id="text_12"><defs><path d="M313 2009h1684v-512H313v512z" id="DejaVuSans-2d" transform="scale(.01563)"/><path d="M1625 4666h531L531-594H0l1625 5260z" id="DejaVuSans-2f" transform="scale(.01563)"/></defs><use xlink:href="#DejaVuSans-74"/><use x="39.209" xlink:href="#DejaVuSans-72"/><use x="80.322" xlink:href="#DejaVuSans-69"/><use x="108.105" xlink:href="#DejaVuSans-2d"/><use x="144.189" xlink:href="#DejaVuSans-2f"/><use x="177.881" xlink:href="#DejaVuSans-6d"/><use x="275.293" xlink:href="#DejaVuSans-6f"/><use x="336.475" xlink:href="#DejaVuSans-6e"/><use x="399.854" xlink:href="#DejaVuSans-6f"/><use x="461.035" xlink:href="#DejaVuSans-63"/><use x="516.016" xlink:href="#DejaVuSans-6c"/><use x="543.799" xlink:href="#DejaVuSans-69"/><use x="571.582" xlink:href="#DejaVuSans-6e"/><use x="634.961" xlink:href="#DejaVuSans-69"/><use x="662.744" xlink:href="#DejaVuSans-63"/></g><g transform="matrix(0 -.2 -.2 0 303.098 155.518)" id="text_13"><defs><path d="M3513 2113V0h-575v2094q0 497-194 743-194 247-581 247-466 0-735-297-269-296-269-809V0H581v4863h578V2956q207 316 486 472 280 156 646 156 603 0 912-373 310-373 310-1098z" id="DejaVuSans-68" transform="scale(.01563)"/></defs><use xlink:href="#DejaVuSans-6f"/><use x="61.182" xlink:href="#DejaVuSans-72"/><use x="102.295" xlink:href="#DejaVuSans-74"/><use x="141.504" xlink:href="#DejaVuSans-68"/><use x="204.883" xlink:href="#DejaVuSans-6f"/><use x="266.064" xlink:href="#DejaVuSans-72"/><use x="305.428" xlink:href="#DejaVuSans-68"/><use x="368.807" xlink:href="#DejaVuSans-6f"/><use x="429.988" xlink:href="#DejaVuSans-6d"/><use x="527.4" xlink:href="#DejaVuSans-62"/><use x="590.877" xlink:href="#DejaVuSans-69"/><use x="618.66" xlink:href="#DejaVuSans-63"/></g><g transform="matrix(0 -.2 -.2 0 611.21 124.677)" id="text_14"><use xlink:href="#DejaVuSans-74"/><use x="39.209" xlink:href="#DejaVuSans-65"/><use x="100.732" xlink:href="#DejaVuSans-74"/><use x="139.941" xlink:href="#DejaVuSans-72"/><use x="181.055" xlink:href="#DejaVuSans-61"/><use x="242.334" xlink:href="#DejaVuSans-67"/><use x="305.811" xlink:href="#DejaVuSans-6f"/><use x="366.992" xlink:href="#DejaVuSans-6e"/><use x="430.371" xlink:href="#DejaVuSans-61"/><use x="491.65" xlink:href="#DejaVuSans-6c"/></g><g transform="matrix(0 -.2 -.2 0 836.837 97.83)" id="text_15"><use xlink:href="#DejaVuSans-74"/><use x="39.209" xlink:href="#DejaVuSans-72"/><use x="80.322" xlink:href="#DejaVuSans-69"/><use x="108.105" xlink:href="#DejaVuSans-67"/><use x="171.582" xlink:href="#DejaVuSans-6f"/><use x="232.764" xlink:href="#DejaVuSans-6e"/><use x="296.143" xlink:href="#DejaVuSans-61"/><use x="357.422" xlink:href="#DejaVuSans-6c"/></g><g transform="matrix(0 -.2 -.2 0 962.993 124.937)" id="text_16"><defs><path d="M3513 3500 2247 1797 3578 0h-678L1881 1375 863 0H184l1360 1831L300 3500h678l928-1247 928 1247h679z" id="DejaVuSans-78" transform="scale(.01563)"/></defs><use xlink:href="#DejaVuSans-68"/><use x="63.379" xlink:href="#DejaVuSans-65"/><use x="123.152" xlink:href="#DejaVuSans-78"/><use x="182.332" xlink:href="#DejaVuSans-61"/><use x="243.611" xlink:href="#DejaVuSans-67"/><use x="307.088" xlink:href="#DejaVuSans-6f"/><use x="368.27" xlink:href="#DejaVuSans-6e"/><use x="431.648" xlink:href="#DejaVuSans-61"/><use x="492.928" xlink:href="#DejaVuSans-6c"/></g><g transform="matrix(0 -.2 -.2 0 1115.837 73.712)" id="text_17"><use xlink:href="#DejaVuSans-63"/><use x="54.98" xlink:href="#DejaVuSans-75"/><use x="118.359" xlink:href="#DejaVuSans-62"/><use x="181.836" xlink:href="#DejaVuSans-69"/><use x="209.619" xlink:href="#DejaVuSans-63"/></g></g></g><defs><clipPath id="p888402fac8"><path d="M79.231 7.2h1116V279h-1116z"/></clipPath></defs></svg>