<svg xmlns="http://www.w3.org/2000/svg" xmlns:xlink="http://www.w3.org/1999/xlink" width="1547.199" height="395.199" viewBox="0 0 1160.4 296.4"><defs><style>*{stroke-linejoin:round;stroke-linecap:butt}</style></defs><g id="figure_1"><path id="patch_1" d="M0 296.4h1160.4V0H0z" style="fill:none"/><g id="axes_1"><path id="patch_2" d="M58.472 191.706H1153.2V50.877H58.472z" style="fill:none"/><path id="patch_3" d="M61.402 191.706h10.549v-11.861H61.402z" clip-path="url(#p11921fecb4)" style="fill:red"/><path id="patch_4" d="M73.123 191.706h10.549v-4.562h-10.55z" clip-path="url(#p11921fecb4)" style="fill:red"/><path id="patch_5" d="M84.844 191.706h10.549v-26.46h-10.55z" clip-path="url(#p11921fecb4)" style="fill:teal"/><path id="patch_6" d="M96.565 191.706h10.548v-41.97H96.565z" clip-path="url(#p11921fecb4)" style="fill:teal"/><path id="patch_7" d="M108.285 191.706h10.55v-9.124h-10.55z" clip-path="url(#p11921fecb4)" style="fill:teal"/><path id="patch_8" d="M120.006 191.706h10.55v-4.562h-10.55z" clip-path="url(#p11921fecb4)" style="fill:teal"/><path id="patch_9" d="M131.727 191.706h10.549v-16.423h-10.549z" clip-path="url(#p11921fecb4)" style="fill:teal"/><path id="patch_10" d="M143.448 191.706h10.549v-.913h-10.549z" clip-path="url(#p11921fecb4)" style="fill:teal"/><path id="patch_11" d="M155.169 191.706h10.549v-1.825h-10.55z" clip-path="url(#p11921fecb4)" style="fill:teal"/><path id="patch_12" d="M166.89 191.706h10.549v-4.562h-10.55z" clip-path="url(#p11921fecb4)" style="fill:teal"/><path id="patch_13" d="M178.61 191.706h10.55v-20.073h-10.55z" clip-path="url(#p11921fecb4)" style="fill:teal"/><path id="patch_14" d="M190.331 191.706h10.55v-1.825h-10.55z" clip-path="url(#p11921fecb4)" style="fill:teal"/><path id="patch_15" d="M202.052 191.706h10.55v-.913h-10.55z" clip-path="url(#p11921fecb4)" style="fill:#00f"/><path id="patch_16" d="M213.773 191.706h10.549v-1.825h-10.549z" clip-path="url(#p11921fecb4)" style="fill:#00f"/><path id="patch_17" d="M225.494 191.706h10.549v-2.737h-10.549z" clip-path="url(#p11921fecb4)" style="fill:#00f"/><path id="patch_18" d="M237.215 191.706h10.549v-1.825h-10.55z" clip-path="url(#p11921fecb4)" style="fill:#00f"/><path id="patch_19" d="M248.936 191.706h10.548v-12.774h-10.548z" clip-path="url(#p11921fecb4)" style="fill:#00f"/><path id="patch_20" d="M260.657 191.706h10.548v-1.825h-10.548z" clip-path="url(#p11921fecb4)" style="fill:#00f"/><path id="patch_21" d="M272.377 191.706h10.55v-.913h-10.55z" clip-path="url(#p11921fecb4)" style="fill:#00f"/><path id="patch_22" d="M284.098 191.706h10.55v-.913h-10.55z" clip-path="url(#p11921fecb4)" style="fill:#00f"/><path id="patch_23" d="M295.82 191.706h10.548v-2.737h-10.549z" clip-path="url(#p11921fecb4)" style="fill:#00f"/><path id="patch_24" d="M307.54 191.706h10.549v-1.825H307.54z" clip-path="url(#p11921fecb4)" style="fill:#00f"/><path id="patch_25" d="M319.26 191.706h10.55v-2.737h-10.55z" clip-path="url(#p11921fecb4)" style="fill:#00f"/><path id="patch_26" d="M330.982 191.706h10.548v-1.825h-10.548z" clip-path="url(#p11921fecb4)" style="fill:#00f"/><path id="patch_27" d="M342.703 191.706h10.548v-15.511h-10.548z" clip-path="url(#p11921fecb4)" style="fill:#00f"/><path id="patch_28" d="M354.423 191.706h10.55v-1.825h-10.55z" clip-path="url(#p11921fecb4)" style="fill:#00f"/><path id="patch_29" d="M366.144 191.706h10.549v-1.825h-10.549z" clip-path="url(#p11921fecb4)" style="fill:#00f"/><path id="patch_30" d="M377.865 191.706h10.549v-.913h-10.549z" clip-path="url(#p11921fecb4)" style="fill:#00f"/><path id="patch_31" d="M389.586 191.706h10.549v-19.16h-10.549z" clip-path="url(#p11921fecb4)" style="fill:#00f"/><path id="patch_32" d="M401.307 191.706h10.549v-44.708h-10.55z" clip-path="url(#p11921fecb4)" style="fill:#00f"/><path id="patch_33" d="M413.028 191.706h10.548v-4.562h-10.548z" clip-path="url(#p11921fecb4)" style="fill:#00f"/><path id="patch_34" d="M424.749 191.706h10.548v-.913H424.75z" clip-path="url(#p11921fecb4)" style="fill:#00f"/><path id="patch_35" d="M436.47 191.706h10.548v-4.562H436.47z" clip-path="url(#p11921fecb4)" style="fill:#00f"/><path id="patch_36" d="M448.19 191.706h10.549v-.913H448.19z" clip-path="url(#p11921fecb4)" style="fill:#00f"/><path id="patch_37" d="M459.911 191.706h10.549v-.913h-10.55z" clip-path="url(#p11921fecb4)" style="fill:#00f"/><path id="patch_38" d="M471.632 191.706h10.549v-.913h-10.55z" clip-path="url(#p11921fecb4)" style="fill:#00f"/><path id="patch_39" d="M483.353 191.706h10.549V170.72h-10.55z" clip-path="url(#p11921fecb4)" style="fill:#00f"/><path id="patch_40" d="M495.074 191.706h10.548v-12.774h-10.548z" clip-path="url(#p11921fecb4)" style="fill:#00f"/><path id="patch_41" d="M506.794 191.706h10.55v-9.124h-10.55z" clip-path="url(#p11921fecb4)" style="fill:green"/><path id="patch_42" d="M518.515 191.706h10.55v-.913h-10.55z" clip-path="url(#p11921fecb4)" style="fill:green"/><path id="patch_43" d="M530.236 191.706h10.549V147.91h-10.549z" clip-path="url(#p11921fecb4)" style="fill:green"/><path id="patch_44" d="M541.957 191.706h10.549v-.913h-10.549z" clip-path="url(#p11921fecb4)" style="fill:green"/><path id="patch_45" d="M553.678 191.706h10.549v-35.584h-10.55z" clip-path="url(#p11921fecb4)" style="fill:green"/><path id="patch_46" d="M565.399 191.706h10.549V178.02h-10.55z" clip-path="url(#p11921fecb4)" style="fill:green"/><path id="patch_47" d="M577.12 191.706h10.548v-.913H577.12z" clip-path="url(#p11921fecb4)" style="fill:green"/><path id="patch_48" d="M588.84 191.706h10.55v-1.825h-10.55z" clip-path="url(#p11921fecb4)" style="fill:green"/><path id="patch_49" d="M600.561 191.706h10.55v-7.3h-10.55z" clip-path="url(#p11921fecb4)" style="fill:green"/><path id="patch_50" d="M612.282 191.706h10.549v-1.825h-10.549z" clip-path="url(#p11921fecb4)" style="fill:green"/><path id="patch_51" d="M624.003 191.706h10.549v-.913h-10.549z" clip-path="url(#p11921fecb4)" style="fill:green"/><path id="patch_52" d="M635.724 191.706h10.549v-3.65h-10.55z" clip-path="url(#p11921fecb4)" style="fill:green"/><path id="patch_53" d="M647.445 191.706h10.548v-1.825h-10.548z" clip-path="url(#p11921fecb4)" style="fill:green"/><path id="patch_54" d="M659.166 191.706h10.548v-6.387h-10.548z" clip-path="url(#p11921fecb4)" style="fill:green"/><path id="patch_55" d="M670.886 191.706h10.55v-4.562h-10.55z" clip-path="url(#p11921fecb4)" style="fill:green"/><path id="patch_56" d="M682.607 191.706h10.55V136.05h-10.55z" clip-path="url(#p11921fecb4)" style="fill:green"/><path id="patch_57" d="M694.328 191.706h10.549v-11.861h-10.549z" clip-path="url(#p11921fecb4)" style="fill:green"/><path id="patch_58" d="M706.049 191.706h10.549v-1.825h-10.549z" clip-path="url(#p11921fecb4)" style="fill:green"/><path id="patch_59" d="M717.77 191.706h10.549v-33.759h-10.55z" clip-path="url(#p11921fecb4)" style="fill:green"/><path id="patch_60" d="M729.49 191.706h10.55v-2.737h-10.55z" clip-path="url(#p11921fecb4)" style="fill:green"/><path id="patch_61" d="M741.212 191.706h10.548v-.913h-10.548z" clip-path="url(#p11921fecb4)" style="fill:green"/><path id="patch_62" d="M752.932 191.706h10.55v-2.737h-10.55z" clip-path="url(#p11921fecb4)" style="fill:green"/><path id="patch_63" d="M764.653 191.706h10.549v-1.825h-10.549z" clip-path="url(#p11921fecb4)" style="fill:green"/><path id="patch_64" d="M776.374 191.706h10.549v-9.124h-10.549z" clip-path="url(#p11921fecb4)" style="fill:green"/><path id="patch_65" d="M788.095 191.706h10.549v-.913h-10.549z" clip-path="url(#p11921fecb4)" style="fill:green"/><path id="patch_66" d="M799.816 191.706h10.549v-.913h-10.55z" clip-path="url(#p11921fecb4)" style="fill:green"/><path id="patch_67" d="M811.537 191.706h10.548v-11.861h-10.548z" clip-path="url(#p11921fecb4)" style="fill:orange"/><path id="patch_68" d="M823.258 191.706h10.548v-1.825h-10.548z" clip-path="url(#p11921fecb4)" style="fill:orange"/><path id="patch_69" d="M834.978 191.706h10.55v-10.037h-10.55z" clip-path="url(#p11921fecb4)" style="fill:orange"/><path id="patch_70" d="M846.7 191.706h10.548V113.24h-10.549z" clip-path="url(#p11921fecb4)" style="fill:orange"/><path id="patch_71" d="M858.42 191.706h10.549v-1.825H858.42z" clip-path="url(#p11921fecb4)" style="fill:orange"/><path id="patch_72" d="M870.14 191.706h10.55v-50.182h-10.55z" clip-path="url(#p11921fecb4)" style="fill:orange"/><path id="patch_73" d="M881.862 191.706h10.549v-1.825h-10.55z" clip-path="url(#p11921fecb4)" style="fill:orange"/><path id="patch_74" d="M893.583 191.706h10.548v-16.423h-10.548z" clip-path="url(#p11921fecb4)" style="fill:orange"/><path id="patch_75" d="M905.303 191.706h10.55v-5.475h-10.55z" clip-path="url(#p11921fecb4)" style="fill:orange"/><path id="patch_76" d="M917.024 191.706h10.55v-12.774h-10.55z" clip-path="url(#p11921fecb4)" style="fill:orange"/><path id="patch_77" d="M928.745 191.706h10.549v-4.562h-10.549z" clip-path="url(#p11921fecb4)" style="fill:orange"/><path id="patch_78" d="M940.466 191.706h10.549v-.913h-10.549z" clip-path="url(#p11921fecb4)" style="fill:orange"/><path id="patch_79" d="M952.187 191.706h10.549v-4.562h-10.55z" clip-path="url(#p11921fecb4)" style="fill:orange"/><path id="patch_80" d="M963.908 191.706h10.549v-41.058h-10.55z" clip-path="url(#p11921fecb4)" style="fill:orange"/><path id="patch_81" d="M975.629 191.706h10.548v-1.825H975.63z" clip-path="url(#p11921fecb4)" style="fill:purple"/><path id="patch_82" d="M987.35 191.706h10.548v-5.475H987.35z" clip-path="url(#p11921fecb4)" style="fill:purple"/><path id="patch_83" d="M999.07 191.706h10.55v-10.037h-10.55z" clip-path="url(#p11921fecb4)" style="fill:purple"/><path id="patch_84" d="M1010.791 191.706h10.549v-44.708h-10.549z" clip-path="url(#p11921fecb4)" style="fill:purple"/><path id="patch_85" d="M1022.512 191.706h10.549V163.42h-10.549z" clip-path="url(#p11921fecb4)" style="fill:purple"/><path id="patch_86" d="M1034.233 191.706h10.549v-.913h-10.55z" clip-path="url(#p11921fecb4)" style="fill:#8b0000"/><path id="patch_87" d="M1045.954 191.706h10.548V57.583h-10.548z" clip-path="url(#p11921fecb4)" style="fill:#8b0000"/><path id="patch_88" d="M1057.675 191.706h10.548v-3.65h-10.548z" clip-path="url(#p11921fecb4)" style="fill:#8b0000"/><path id="patch_89" d="M1069.395 191.706h10.55v-3.65h-10.55z" clip-path="url(#p11921fecb4)" style="fill:#8b0000"/><path id="patch_90" d="M1081.116 191.706h10.549v-1.825h-10.549z" clip-path="url(#p11921fecb4)" style="fill:#8b0000"/><path id="patch_91" d="M1092.837 191.706h10.549v-10.037h-10.549z" clip-path="url(#p11921fecb4)" style="fill:#8b0000"/><path id="patch_92" d="M1104.558 191.706h10.549v-41.058h-10.549z" clip-path="url(#p11921fecb4)" style="fill:#8b0000"/><path id="patch_93" d="M1116.279 191.706h10.549v-62.043h-10.55z" clip-path="url(#p11921fecb4)" style="fill:#8b0000"/><path id="patch_94" d="M1128 191.706h10.548v-.913H1128z" clip-path="url(#p11921fecb4)" style="fill:#8b0000"/><path id="patch_95" d="M1139.72 191.706h10.55v-.913h-10.55z" clip-path="url(#p11921fecb4)" style="fill:#8b0000"/><g id="PolyCollection_1"><defs><path id="mfb1ad84ac1" d="M60.816-245.522v140.828h23.442v-140.828z" style="stroke:#000;stroke-opacity:.1"/></defs><g clip-path="url(#p11921fecb4)"><use xlink:href="#mfb1ad84ac1" y="296.4" style="fill:red;fill-opacity:.1;stroke:#000;stroke-opacity:.1"/></g></g><g id="PolyCollection_2"><defs><path id="m8565fd3db5" d="M84.258-245.522v140.828h117.208v-140.828z" style="stroke:#000;stroke-opacity:.1"/></defs><g clip-path="url(#p11921fecb4)"><use xlink:href="#m8565fd3db5" y="296.4" style="fill:teal;fill-opacity:.1;stroke:#000;stroke-opacity:.1"/></g></g><g id="PolyCollection_3"><defs><path id="me4fd405d4e" d="M201.466-245.522v140.828h304.742v-140.828z" style="stroke:#000;stroke-opacity:.1"/></defs><g clip-path="url(#p11921fecb4)"><use xlink:href="#me4fd405d4e" y="296.4" style="fill:#00f;fill-opacity:.1;stroke:#000;stroke-opacity:.1"/></g></g><g id="PolyCollection_4"><defs><path id="ma23dbb19a8" d="M506.208-245.522v140.828h304.743v-140.828z" style="stroke:#000;stroke-opacity:.1"/></defs><g clip-path="url(#p11921fecb4)"><use xlink:href="#ma23dbb19a8" y="296.4" style="fill:green;fill-opacity:.1;stroke:#000;stroke-opacity:.1"/></g></g><g id="PolyCollection_5"><defs><path id="mdcff829665" d="M810.95-245.522v140.828h164.093v-140.828z" style="stroke:#000;stroke-opacity:.1"/></defs><g clip-path="url(#p11921fecb4)"><use xlink:href="#mdcff829665" y="296.4" style="fill:orange;fill-opacity:.1;stroke:#000;stroke-opacity:.1"/></g></g><g id="PolyCollection_6"><defs><path id="mc41b9bf438" d="M975.043-245.522v140.828h58.604v-140.828z" style="stroke:#000;stroke-opacity:.1"/></defs><g clip-path="url(#p11921fecb4)"><use xlink:href="#mc41b9bf438" y="296.4" style="fill:purple;fill-opacity:.1;stroke:#000;stroke-opacity:.1"/></g></g><g id="PolyCollection_7"><defs><path id="m04330c826f" d="M1033.647-245.522v140.828h117.208v-140.828z" style="stroke:#000;stroke-opacity:.1"/></defs><g clip-path="url(#p11921fecb4)"><use xlink:href="#m04330c826f" y="296.4" style="fill:#8b0000;fill-opacity:.1;stroke:#000;stroke-opacity:.1"/></g></g><g id="matplotlib.axis_1"><g id="xtick_1"><g id="line2d_1"><defs><path id="m4169a085d6" d="M0 0v3.5" style="stroke:#000;stroke-width:.8"/></defs><use xlink:href="#m4169a085d6" x="898.857" y="191.706" style="stroke:#000;stroke-width:.8"/></g><g id="text_1" transform="matrix(0 -.14 -.14 0 902.72 229.53)"><defs><path id="DejaVuSans-52" d="M2841 2188q203-69 395-294t386-619L4263 0h-679l-596 1197q-232 469-449 622t-592 153h-688V0H628v4666h1425q800 0 1194-335 394-334 394-1009 0-441-205-732-205-290-595-402M1259 4147V2491h794q456 0 689 211t233 620-233 617-689 208z" transform="scale(.01563)"/><path id="DejaVuSans-2d" d="M313 2009h1684v-512H313z" transform="scale(.01563)"/><path id="DejaVuSans-33" d="M2597 2516q453-97 707-404 255-306 255-756 0-690-475-1069Q2609-91 1734-91q-293 0-604 58T488 141v609q262-153 574-231 313-78 654-78 593 0 904 234t311 681q0 413-289 645-289 233-804 233h-544v519h569q465 0 712 186t247 536q0 359-255 551-254 193-729 193-260 0-557-57-297-56-653-174v562q360 100 674 150t592 50q719 0 1137-327 419-326 419-882 0-388-222-655t-631-370" transform="scale(.01563)"/><path id="DejaVuSans-63" d="M3122 3366v-538q-244 135-489 202t-495 67q-560 0-870-355-309-354-309-995t309-996q310-354 870-354 250 0 495 67t489 202V134Q2881 22 2623-34q-257-57-548-57-791 0-1257 497-465 497-465 1341 0 856 470 1346 471 491 1290 491 265 0 518-55 253-54 491-163" transform="scale(.01563)"/></defs><use xlink:href="#DejaVuSans-52"/><use xlink:href="#DejaVuSans-2d" x="65.482"/><use xlink:href="#DejaVuSans-33" x="101.566"/><use xlink:href="#DejaVuSans-63" x="165.189"/></g></g><g id="xtick_2"><use xlink:href="#m4169a085d6" id="line2d_2" x="137.002" y="191.706" style="stroke:#000;stroke-width:.8"/><g id="text_2" transform="matrix(0 -.14 -.14 0 140.546 244.376)"><defs><path id="DejaVuSans-50" d="M1259 4147V2394h794q441 0 681 228 241 228 241 650 0 419-241 647-240 228-681 228zm-631 519h1425q785 0 1186-355 402-355 402-1039 0-691-402-1044-401-353-1186-353h-794V0H628z" transform="scale(.01563)"/><path id="DejaVuSans-32" d="M1228 531h2203V0H469v531q359 372 979 998 621 627 780 809 303 340 423 576 121 236 121 464 0 372-261 606-261 235-680 235-297 0-627-103-329-103-704-313v638q381 153 712 231 332 78 607 78 725 0 1156-363 431-362 431-968 0-288-108-546-107-257-392-607-78-91-497-524-418-433-1181-1211" transform="scale(.01563)"/><path id="DejaVuSans-5f" d="M3263-1063v-446H-63v446z" transform="scale(.01563)"/><path id="DejaVuSans-31" d="M794 531h1031v3560L703 3866v575l1116 225h631V531h1031V0H794z" transform="scale(.01563)"/><path id="DejaVuSans-2f" d="M1625 4666h531L531-594H0z" transform="scale(.01563)"/></defs><use xlink:href="#DejaVuSans-50"/><use xlink:href="#DejaVuSans-32" x="60.303"/><use xlink:href="#DejaVuSans-5f" x="123.926"/><use xlink:href="#DejaVuSans-31" x="173.926"/><use xlink:href="#DejaVuSans-2f" x="237.549"/><use xlink:href="#DejaVuSans-63" x="271.24"/></g></g><g id="xtick_3"><use xlink:href="#m4169a085d6" id="line2d_3" x="394.86" y="191.706" style="stroke:#000;stroke-width:.8"/><g id="text_3" transform="matrix(0 -.14 -.14 0 398.723 233.94)"><defs><path id="DejaVuSans-49" d="M628 4666h631V0H628z" transform="scale(.01563)"/><path id="DejaVuSans-62" d="M3116 1747q0 634-261 995t-717 361q-457 0-718-361t-261-995 261-995 718-361q456 0 717 361t261 995M1159 2969q182 312 458 463 277 152 661 152 638 0 1036-506 399-506 399-1331T3314 415Q2916-91 2278-91q-384 0-661 152-276 152-458 464V0H581v4863h578z" transform="scale(.01563)"/><path id="DejaVuSans-61" d="M2194 1759q-697 0-966-159t-269-544q0-306 202-486 202-179 548-179 479 0 768 339t289 901v128zm1147 238V0h-575v531q-197-318-491-470T1556-91q-537 0-855 302-317 302-317 808 0 590 395 890 396 300 1180 300h807v57q0 397-261 614t-733 217q-300 0-585-72-284-72-546-216v532q315 122 612 182 297 61 578 61 760 0 1135-394 375-393 375-1193" transform="scale(.01563)"/><path id="DejaVuSans-6d" d="M3328 2828q216 388 516 572t706 184q547 0 844-383 297-382 297-1088V0h-578v2094q0 503-179 746-178 244-543 244-447 0-707-297-259-296-259-809V0h-578v2094q0 506-178 748t-550 242q-441 0-701-298-259-298-259-808V0H581v3500h578v-544q197 322 472 475t653 153q382 0 649-194 267-193 395-562" transform="scale(.01563)"/></defs><use xlink:href="#DejaVuSans-49"/><use xlink:href="#DejaVuSans-62" x="29.492"/><use xlink:href="#DejaVuSans-61" x="92.969"/><use xlink:href="#DejaVuSans-6d" x="154.248"/></g></g><g id="xtick_4"><use xlink:href="#m4169a085d6" id="line2d_4" x="183.885" y="191.706" style="stroke:#000;stroke-width:.8"/><g id="text_4" transform="matrix(0 -.14 -.14 0 187.43 250.315)"><use xlink:href="#DejaVuSans-50"/><use xlink:href="#DejaVuSans-32" x="60.303"/><use xlink:href="#DejaVuSans-5f" x="123.926"/><use xlink:href="#DejaVuSans-31" x="173.926"/><use xlink:href="#DejaVuSans-2f" x="237.549"/><use xlink:href="#DejaVuSans-6d" x="271.24"/></g></g><g id="xtick_5"><use xlink:href="#m4169a085d6" id="line2d_5" x="488.627" y="191.706" style="stroke:#000;stroke-width:.8"/><g id="text_5" transform="matrix(0 -.14 -.14 0 492.172 254.631)"><defs><path id="DejaVuSans-43" d="M4122 4306v-665q-319 297-680 443-361 147-767 147-800 0-1225-489t-425-1414q0-922 425-1411t1225-489q406 0 767 147t680 444V359q-331-225-702-338-370-112-782-112-1060 0-1670 648-609 649-609 1771 0 1125 609 1773 610 649 1670 649 418 0 788-111 371-111 696-333" transform="scale(.01563)"/></defs><use xlink:href="#DejaVuSans-43"/><use xlink:href="#DejaVuSans-6d" x="69.824"/><use xlink:href="#DejaVuSans-63" x="167.236"/><use xlink:href="#DejaVuSans-32" x="222.217"/><use xlink:href="#DejaVuSans-5f" x="285.84"/><use xlink:href="#DejaVuSans-31" x="335.84"/></g></g><g id="xtick_6"><use xlink:href="#m4169a085d6" id="line2d_6" x="90.118" y="191.706" style="stroke:#000;stroke-width:.8"/><g id="text_6" transform="matrix(0 -.14 -.14 0 93.981 229.803)"><use xlink:href="#DejaVuSans-43"/><use xlink:href="#DejaVuSans-32" x="69.824"/><use xlink:href="#DejaVuSans-2f" x="133.447"/><use xlink:href="#DejaVuSans-63" x="167.139"/></g></g><g id="xtick_7"><use xlink:href="#m4169a085d6" id="line2d_7" x="1027.786" y="191.706" style="stroke:#000;stroke-width:.8"/><g id="text_7" transform="matrix(0 -.14 -.14 0 1031.331 253.297)"><defs><path id="DejaVuSans-36" d="M2113 2584q-425 0-674-291-248-290-248-796 0-503 248-796 249-292 674-292t673 292q248 293 248 796 0 506-248 796-248 291-673 291m1253 1979v-575q-238 112-480 171-242 60-480 60-625 0-955-422-329-422-376-1275 184 272 462 417 279 145 613 145 703 0 1111-427 408-426 408-1160 0-719-425-1154Q2819-91 2113-91q-810 0-1238 620-428 621-428 1799 0 1106 525 1764t1409 658q238 0 480-47t505-140" transform="scale(.01563)"/></defs><use xlink:href="#DejaVuSans-50"/><use xlink:href="#DejaVuSans-36" x="60.303"/><use xlink:href="#DejaVuSans-5f" x="123.926"/><use xlink:href="#DejaVuSans-33" x="173.926"/><use xlink:href="#DejaVuSans-6d" x="237.549"/><use xlink:href="#DejaVuSans-63" x="334.961"/></g></g><g id="xtick_8"><use xlink:href="#m4169a085d6" id="line2d_8" x="723.044" y="191.706" style="stroke:#000;stroke-width:.8"/><g id="text_8" transform="matrix(0 -.14 -.14 0 726.907 216.794)"><defs><path id="DejaVuSans-34" d="M2419 4116 825 1625h1594zm-166 550h794V1625h666v-525h-666V0h-628v1100H313v609z" transform="scale(.01563)"/></defs><use xlink:href="#DejaVuSans-49"/><use xlink:href="#DejaVuSans-2d" x="29.492"/><use xlink:href="#DejaVuSans-34" x="65.576"/></g></g><g id="xtick_9"><use xlink:href="#m4169a085d6" id="line2d_9" x="558.952" y="191.706" style="stroke:#000;stroke-width:.8"/><g id="text_9" transform="matrix(0 -.14 -.14 0 562.815 234.59)"><defs><path id="DejaVuSans-64" d="M2906 2969v1894h575V0h-575v525q-181-312-458-464-276-152-664-152-634 0-1033 506-398 507-398 1332t398 1331q399 506 1033 506 388 0 664-152 277-151 458-463M947 1747q0-634 261-995t717-361 718 361q263 361 263 995t-263 995q-262 361-718 361t-717-361-261-995" transform="scale(.01563)"/></defs><use xlink:href="#DejaVuSans-49"/><use xlink:href="#DejaVuSans-2d" x="29.492"/><use xlink:href="#DejaVuSans-34" x="65.576"/><use xlink:href="#DejaVuSans-32" x="129.199"/><use xlink:href="#DejaVuSans-64" x="192.822"/></g></g><g id="xtick_10"><use xlink:href="#m4169a085d6" id="line2d_10" x="969.182" y="191.706" style="stroke:#000;stroke-width:.8"/><g id="text_10" transform="matrix(0 -.14 -.14 0 973.045 221.832)"><use xlink:href="#DejaVuSans-52"/><use xlink:href="#DejaVuSans-2d" x="65.482"/><use xlink:href="#DejaVuSans-33" x="101.566"/></g></g><g id="xtick_11"><use xlink:href="#m4169a085d6" id="line2d_11" x="1109.832" y="191.706" style="stroke:#000;stroke-width:.8"/><g id="text_11" transform="matrix(0 -.14 -.14 0 1113.695 248.38)"><use xlink:href="#DejaVuSans-50"/><use xlink:href="#DejaVuSans-6d" x="60.303"/><use xlink:href="#DejaVuSans-2d" x="157.715"/><use xlink:href="#DejaVuSans-33" x="193.799"/><use xlink:href="#DejaVuSans-6d" x="257.422"/></g></g><g id="xtick_12"><use xlink:href="#m4169a085d6" id="line2d_12" x="101.839" y="191.706" style="stroke:#000;stroke-width:.8"/><g id="text_12" transform="matrix(0 -.14 -.14 0 105.702 235.742)"><use xlink:href="#DejaVuSans-43"/><use xlink:href="#DejaVuSans-32" x="69.824"/><use xlink:href="#DejaVuSans-2f" x="133.447"/><use xlink:href="#DejaVuSans-6d" x="167.139"/></g></g><g id="xtick_13"><use xlink:href="#m4169a085d6" id="line2d_13" x="535.511" y="191.706" style="stroke:#000;stroke-width:.8"/><g id="text_13" transform="matrix(0 -.14 -.14 0 539.374 256.917)"><defs><path id="DejaVuSans-6e" d="M3513 2113V0h-575v2094q0 497-194 743-194 247-581 247-466 0-735-297-269-296-269-809V0H581v3500h578v-544q207 316 486 472 280 156 646 156 603 0 912-373 310-373 310-1098" transform="scale(.01563)"/></defs><use xlink:href="#DejaVuSans-50"/><use xlink:href="#DejaVuSans-34" x="60.303"/><use xlink:href="#DejaVuSans-2f" x="123.926"/><use xlink:href="#DejaVuSans-6e" x="157.617"/><use xlink:href="#DejaVuSans-6d" x="220.996"/><use xlink:href="#DejaVuSans-6d" x="318.408"/></g></g><g id="xtick_14"><use xlink:href="#m4169a085d6" id="line2d_14" x="406.581" y="191.706" style="stroke:#000;stroke-width:.8"/><g id="text_14" transform="matrix(0 -.14 -.14 0 410.444 243.453)"><use xlink:href="#DejaVuSans-43"/><use xlink:href="#DejaVuSans-6d" x="69.824"/><use xlink:href="#DejaVuSans-63" x="167.236"/><use xlink:href="#DejaVuSans-6d" x="222.217"/></g></g><g id="xtick_15"><use xlink:href="#m4169a085d6" id="line2d_15" x="1016.066" y="191.706" style="stroke:#000;stroke-width:.8"/><g id="text_15" transform="matrix(0 -.14 -.14 0 1019.61 271.65)"><use xlink:href="#DejaVuSans-50"/><use xlink:href="#DejaVuSans-36" x="60.303"/><use xlink:href="#DejaVuSans-5f" x="123.926"/><use xlink:href="#DejaVuSans-33" x="173.926"/><use xlink:href="#DejaVuSans-2f" x="237.549"/><use xlink:href="#DejaVuSans-6d" x="271.24"/><use xlink:href="#DejaVuSans-6d" x="368.652"/><use xlink:href="#DejaVuSans-63" x="466.064"/></g></g><g id="xtick_16"><use xlink:href="#m4169a085d6" id="line2d_16" x="875.415" y="191.706" style="stroke:#000;stroke-width:.8"/><g id="text_16" transform="matrix(0 -.14 -.14 0 879.278 243.335)"><use xlink:href="#DejaVuSans-50"/><use xlink:href="#DejaVuSans-2d" x="58.053"/><use xlink:href="#DejaVuSans-33" x="94.137"/><use xlink:href="#DejaVuSans-6d" x="157.76"/><use xlink:href="#DejaVuSans-31" x="255.172"/></g></g><g id="xtick_17"><use xlink:href="#m4169a085d6" id="line2d_17" x="687.882" y="191.706" style="stroke:#000;stroke-width:.8"/><g id="text_17" transform="matrix(0 -.14 -.14 0 691.745 257.37)"><use xlink:href="#DejaVuSans-49"/><use xlink:href="#DejaVuSans-34" x="29.492"/><use xlink:href="#DejaVuSans-2f" x="93.115"/><use xlink:href="#DejaVuSans-6d" x="126.807"/><use xlink:href="#DejaVuSans-6d" x="224.219"/><use xlink:href="#DejaVuSans-6d" x="321.631"/></g></g><g id="xtick_18"><use xlink:href="#m4169a085d6" id="line2d_18" x="1121.553" y="191.706" style="stroke:#000;stroke-width:.8"/><g id="text_18" transform="matrix(0 -.14 -.14 0 1125.416 243.26)"><defs><path id="DejaVuSans-46" d="M628 4666h2681v-532H1259V2759h1850v-531H1259V0H628z" transform="scale(.01563)"/></defs><use xlink:href="#DejaVuSans-46"/><use xlink:href="#DejaVuSans-2d" x="57.52"/><use xlink:href="#DejaVuSans-34" x="93.604"/><use xlink:href="#DejaVuSans-33" x="157.227"/><use xlink:href="#DejaVuSans-6d" x="220.85"/></g></g><g id="xtick_19"><use xlink:href="#m4169a085d6" id="line2d_19" x="851.974" y="191.706" style="stroke:#000;stroke-width:.8"/><g id="text_19" transform="matrix(0 -.14 -.14 0 855.837 235.469)"><use xlink:href="#DejaVuSans-52"/><use xlink:href="#DejaVuSans-2d" x="65.482"/><use xlink:href="#DejaVuSans-33" x="101.566"/><use xlink:href="#DejaVuSans-6d" x="165.189"/></g></g><g id="xtick_20"><use xlink:href="#m4169a085d6" id="line2d_20" x="1051.228" y="191.706" style="stroke:#000;stroke-width:.8"/><g id="text_20" transform="matrix(0 -.14 -.14 0 1055.091 247.99)"><use xlink:href="#DejaVuSans-46"/><use xlink:href="#DejaVuSans-6d" x="57.52"/><use xlink:href="#DejaVuSans-2d" x="154.932"/><use xlink:href="#DejaVuSans-33" x="191.016"/><use xlink:href="#DejaVuSans-6d" x="254.639"/></g></g><g id="text_21" transform="matrix(.14 0 0 -.14 488.972 286.288)"><defs><path id="DejaVuSans-74" d="M1172 4494v-994h1184v-447H1172V1153q0-428 117-550t477-122h590V0h-590q-666 0-919 248-253 249-253 905v1900H172v447h422v994z" transform="scale(.01563)"/><path id="DejaVuSans-65" d="M3597 1894v-281H953q38-594 358-905t892-311q331 0 642 81t618 244V178Q3153 47 2828-22t-659-69q-838 0-1327 487-489 488-489 1320 0 859 464 1363 464 505 1252 505 706 0 1117-455 411-454 411-1235m-575 169q-6 471-264 752-258 282-683 282-481 0-770-272t-333-766z" transform="scale(.01563)"/><path id="DejaVuSans-72" d="M2631 2963q-97 56-211 82-114 27-251 27-488 0-749-317t-261-911V0H581v3500h578v-544q182 319 472 473 291 155 707 155 59 0 131-8 72-7 159-23z" transform="scale(.01563)"/><path id="DejaVuSans-69" d="M603 3500h575V0H603zm0 1363h575v-729H603z" transform="scale(.01563)"/><path id="DejaVuSans-6f" d="M1959 3097q-462 0-731-361t-269-989 267-989q268-361 733-361 460 0 728 362 269 363 269 988 0 622-269 986-268 364-728 364m0 487q750 0 1178-488 429-487 429-1349 0-859-429-1349Q2709-91 1959-91q-753 0-1180 489-426 490-426 1349 0 862 426 1349 427 488 1180 488" transform="scale(.01563)"/><path id="DejaVuSans-6c" d="M603 4863h575V0H603z" transform="scale(.01563)"/><path id="DejaVuSans-53" d="M3425 4513v-616q-359 172-678 256-319 85-616 85-515 0-795-200t-280-569q0-310 186-468 186-157 705-254l381-78q706-135 1042-474t336-907q0-679-455-1029Q2797-91 1919-91q-331 0-705 75-373 75-773 222v650q384-215 753-325 369-109 725-109 540 0 834 212 294 213 294 607 0 343-211 537t-692 291l-385 75q-706 140-1022 440-315 300-315 835 0 619 436 975t1201 356q329 0 669-60 341-59 697-177" transform="scale(.01563)"/><path id="DejaVuSans-70" d="M1159 525v-1856H581v4831h578v-531q182 312 458 463 277 152 661 152 638 0 1036-506 399-506 399-1331T3314 415Q2916-91 2278-91q-384 0-661 152-276 152-458 464m1957 1222q0 634-261 995t-717 361q-457 0-718-361t-261-995 261-995 718-361q456 0 717 361t261 995" transform="scale(.01563)"/><path id="DejaVuSans-67" d="M2906 1791q0 625-258 968-257 344-723 344-462 0-720-344-258-343-258-968 0-622 258-966t720-344q466 0 723 344 258 344 258 966m575-1357q0-893-397-1329-396-436-1215-436-303 0-572 45t-522 139v559q253-137 500-202 247-66 503-66 566 0 847 295t281 892v285q-178-310-456-463T1784 0Q1141 0 747 490 353 981 353 1791q0 812 394 1302 394 491 1037 491 388 0 666-153t456-462v531h575z" transform="scale(.01563)"/><path id="DejaVuSans-75" d="M544 1381v2119h575V1403q0-497 193-746 194-248 582-248 465 0 735 297 271 297 271 810v1984h575V0h-575v538q-209-319-486-474-276-155-642-155-603 0-916 375-312 375-312 1097m1447 2203" transform="scale(.01563)"/><path id="DejaVuSans-79" d="M2059-325q-243-625-475-815-231-191-618-191H506v481h338q237 0 368 113 132 112 291 531l103 262L191 3500h609L1894 763l1094 2737h609z" transform="scale(.01563)"/></defs><use xlink:href="#DejaVuSans-49"/><use xlink:href="#DejaVuSans-6e" x="29.492"/><use xlink:href="#DejaVuSans-74" x="92.871"/><use xlink:href="#DejaVuSans-65" x="132.08"/><use xlink:href="#DejaVuSans-72" x="193.604"/><use xlink:href="#DejaVuSans-6e" x="232.967"/><use xlink:href="#DejaVuSans-61" x="296.346"/><use xlink:href="#DejaVuSans-74" x="357.625"/><use xlink:href="#DejaVuSans-69" x="396.834"/><use xlink:href="#DejaVuSans-6f" x="424.617"/><use xlink:href="#DejaVuSans-6e" x="485.799"/><use xlink:href="#DejaVuSans-61" x="549.178"/><use xlink:href="#DejaVuSans-6c" x="610.457"/><use xlink:href="#DejaVuSans-53" x="670.027"/><use xlink:href="#DejaVuSans-70" x="733.504"/><use xlink:href="#DejaVuSans-61" x="796.98"/><use xlink:href="#DejaVuSans-63" x="858.26"/><use xlink:href="#DejaVuSans-65" x="913.24"/><use xlink:href="#DejaVuSans-67" x="974.764"/><use xlink:href="#DejaVuSans-72" x="1038.24"/><use xlink:href="#DejaVuSans-6f" x="1077.104"/><use xlink:href="#DejaVuSans-75" x="1138.285"/><use xlink:href="#DejaVuSans-70" x="1201.664"/><use xlink:href="#DejaVuSans-53" x="1296.928"/><use xlink:href="#DejaVuSans-79" x="1360.404"/><use xlink:href="#DejaVuSans-6d" x="1419.584"/><use xlink:href="#DejaVuSans-62" x="1516.996"/><use xlink:href="#DejaVuSans-6f" x="1580.473"/><use xlink:href="#DejaVuSans-6c" x="1641.654"/></g></g><g id="matplotlib.axis_2"><g id="ytick_1"><path id="line2d_21" d="M58.472 191.706H1153.2" clip-path="url(#p11921fecb4)" style="fill:none;stroke:#b0b0b0;stroke-width:.8;stroke-linecap:square"/><g id="line2d_22"><defs><path id="m39e4c2b80e" d="M0 0h-3.5" style="stroke:#000;stroke-width:.8"/></defs><use xlink:href="#m39e4c2b80e" x="58.472" y="191.706" style="stroke:#000;stroke-width:.8"/></g><g id="text_22" transform="matrix(.14 0 0 -.14 42.564 197.025)"><defs><path id="DejaVuSans-30" d="M2034 4250q-487 0-733-480-245-479-245-1442 0-959 245-1439 246-480 733-480 491 0 736 480 246 480 246 1439 0 963-246 1442-245 480-736 480m0 500q785 0 1199-621 414-620 414-1801 0-1178-414-1799Q2819-91 2034-91q-784 0-1198 620-414 621-414 1799 0 1181 414 1801 414 621 1198 621" transform="scale(.01563)"/></defs><use xlink:href="#DejaVuSans-30"/></g></g><g id="ytick_2"><path id="line2d_23" d="M58.472 146.086H1153.2" clip-path="url(#p11921fecb4)" style="fill:none;stroke:#b0b0b0;stroke-width:.8;stroke-linecap:square"/><use xlink:href="#m39e4c2b80e" id="line2d_24" x="58.472" y="146.086" style="stroke:#000;stroke-width:.8"/><g id="text_23" transform="matrix(.14 0 0 -.14 33.657 151.405)"><defs><path id="DejaVuSans-35" d="M691 4666h2478v-532H1269V2991q137 47 274 70 138 23 276 23 781 0 1237-428 457-428 457-1159 0-753-469-1171Q2575-91 1722-91q-294 0-599 50Q819 9 494 109v635q281-153 581-228t634-75q541 0 856 284 316 284 316 772 0 487-316 771-315 285-856 285-253 0-505-56-251-56-513-175z" transform="scale(.01563)"/></defs><use xlink:href="#DejaVuSans-35"/><use xlink:href="#DejaVuSans-30" x="63.623"/></g></g><g id="ytick_3"><path id="line2d_25" d="M58.472 100.466H1153.2" clip-path="url(#p11921fecb4)" style="fill:none;stroke:#b0b0b0;stroke-width:.8;stroke-linecap:square"/><use xlink:href="#m39e4c2b80e" id="line2d_26" x="58.472" y="100.466" style="stroke:#000;stroke-width:.8"/><g id="text_24" transform="matrix(.14 0 0 -.14 24.75 105.785)"><use xlink:href="#DejaVuSans-31"/><use xlink:href="#DejaVuSans-30" x="63.623"/><use xlink:href="#DejaVuSans-30" x="127.246"/></g></g><g id="ytick_4"><path id="line2d_27" d="M58.472 54.846H1153.2" clip-path="url(#p11921fecb4)" style="fill:none;stroke:#b0b0b0;stroke-width:.8;stroke-linecap:square"/><use xlink:href="#m39e4c2b80e" id="line2d_28" x="58.472" y="54.846" style="stroke:#000;stroke-width:.8"/><g id="text_25" transform="matrix(.14 0 0 -.14 24.75 60.165)"><use xlink:href="#DejaVuSans-31"/><use xlink:href="#DejaVuSans-35" x="63.623"/><use xlink:href="#DejaVuSans-30" x="127.246"/></g></g><g id="text_26" transform="matrix(0 -.14 -.14 0 17.838 145.726)"><defs><path id="DejaVuSans-73" d="M2834 3397v-544q-243 125-506 187-262 63-544 63-428 0-642-131t-214-394q0-200 153-314t616-217l197-44q612-131 870-370t258-667q0-488-386-773Q2250-91 1575-91q-281 0-586 55T347 128v594q319-166 628-249 309-82 613-82 406 0 624 139 219 139 219 392 0 234-158 359-157 125-692 241l-200 47q-534 112-772 345-237 233-237 639 0 494 350 762 350 269 994 269 318 0 599-47 282-46 519-140" transform="scale(.01563)"/></defs><use xlink:href="#DejaVuSans-43"/><use xlink:href="#DejaVuSans-6f" x="69.824"/><use xlink:href="#DejaVuSans-75" x="131.006"/><use xlink:href="#DejaVuSans-6e" x="194.385"/><use xlink:href="#DejaVuSans-74" x="257.764"/><use xlink:href="#DejaVuSans-73" x="296.973"/></g></g><path id="patch_96" d="M58.472 191.706V50.877" style="fill:none;stroke:#000;stroke-width:.8;stroke-linejoin:miter;stroke-linecap:square"/><path id="patch_97" d="M1153.2 191.706V50.877" style="fill:none;stroke:#000;stroke-width:.8;stroke-linejoin:miter;stroke-linecap:square"/><path id="patch_98" d="M58.472 191.706H1153.2" style="fill:none;stroke:#000;stroke-width:.8;stroke-linejoin:miter;stroke-linecap:square"/><path id="patch_99" d="M58.472 50.877H1153.2" style="fill:none;stroke:#000;stroke-width:.8;stroke-linejoin:miter;stroke-linecap:square"/><g id="text_27" transform="matrix(0 -.14 -.14 0 75.486 108.988)"><use xlink:href="#DejaVuSans-74"/><use xlink:href="#DejaVuSans-72" x="39.209"/><use xlink:href="#DejaVuSans-69" x="80.322"/><use xlink:href="#DejaVuSans-63" x="108.105"/><use xlink:href="#DejaVuSans-6c" x="163.086"/><use xlink:href="#DejaVuSans-69" x="190.869"/><use xlink:href="#DejaVuSans-6e" x="218.652"/><use xlink:href="#DejaVuSans-69" x="282.031"/><use xlink:href="#DejaVuSans-63" x="309.814"/></g><g id="text_28" transform="matrix(.12 0 0 -.12 54.655 48.06)"><defs><path id="DejaVuSans-38" d="M2034 2216q-450 0-708-241-257-241-257-662 0-422 257-663 258-241 708-241t709 242q260 243 260 662 0 421-258 662-257 241-711 241m-631 268q-406 100-633 378-226 279-226 679 0 559 398 884 399 325 1092 325 697 0 1094-325t397-884q0-400-227-679-226-278-629-378 456-106 710-416 255-309 255-755 0-679-414-1042Q2806-91 2034-91q-771 0-1186 362-414 363-414 1042 0 446 256 755 257 310 713 416m-231 997q0-362 226-565 227-203 636-203 407 0 636 203 230 203 230 565 0 363-230 566-229 203-636 203-409 0-636-203-226-203-226-566" transform="scale(.01563)"/><path id="DejaVuSans-28" d="M1984 4856q-418-718-622-1422-203-703-203-1425 0-721 205-1429t620-1424h-500Q1016-109 783 600T550 2009q0 697 231 1403 232 707 703 1444z" transform="scale(.01563)"/><path id="DejaVuSans-25" d="M4653 2053q-272 0-427-231-154-231-154-644 0-406 154-639 155-233 427-233 266 0 420 233 155 233 155 639 0 410-155 642-154 233-420 233m0 397q494 0 784-344 291-343 291-928 0-584-292-927-292-342-783-342-500 0-791 342-290 343-290 927 0 588 292 930t789 342M1428 4353q-269 0-424-233-154-232-154-639 0-412 153-644 153-231 425-231t426 231q155 232 155 644 0 403-156 637-156 235-425 235m2822 397h500L1831-91h-500zm-2822 0q494 0 787-342 294-342 294-927 0-590-292-931t-789-341-786 342q-289 343-289 930 0 582 290 925 291 344 785 344" transform="scale(.01563)"/><path id="DejaVuSans-29" d="M513 4856h500q468-737 701-1444 233-706 233-1403 0-700-233-1409T1013-844H513q415 716 620 1424t205 1429q0 722-205 1425-205 704-620 1422" transform="scale(.01563)"/></defs><use xlink:href="#DejaVuSans-31"/><use xlink:href="#DejaVuSans-38" x="63.623"/><use xlink:href="#DejaVuSans-28" x="159.033"/><use xlink:href="#DejaVuSans-31" x="198.047"/><use xlink:href="#DejaVuSans-25" x="261.67"/><use xlink:href="#DejaVuSans-29" x="356.689"/></g><g id="text_29" transform="matrix(0 -.14 -.14 0 145.81 133.497)"><use xlink:href="#DejaVuSans-6d"/><use xlink:href="#DejaVuSans-6f" x="97.412"/><use xlink:href="#DejaVuSans-6e" x="158.594"/><use xlink:href="#DejaVuSans-6f" x="221.973"/><use xlink:href="#DejaVuSans-63" x="283.154"/><use xlink:href="#DejaVuSans-6c" x="338.135"/><use xlink:href="#DejaVuSans-69" x="365.918"/><use xlink:href="#DejaVuSans-6e" x="393.701"/><use xlink:href="#DejaVuSans-69" x="457.08"/><use xlink:href="#DejaVuSans-63" x="484.863"/></g><g id="text_30" transform="matrix(.12 0 0 -.12 117.345 48.06)"><use xlink:href="#DejaVuSans-31"/><use xlink:href="#DejaVuSans-34" x="63.623"/><use xlink:href="#DejaVuSans-30" x="127.246"/><use xlink:href="#DejaVuSans-28" x="222.656"/><use xlink:href="#DejaVuSans-31" x="261.67"/><use xlink:href="#DejaVuSans-31" x="325.293"/><use xlink:href="#DejaVuSans-25" x="388.916"/><use xlink:href="#DejaVuSans-29" x="483.936"/></g><g id="text_31" transform="matrix(0 -.14 -.14 0 356.786 152.228)"><defs><path id="DejaVuSans-68" d="M3513 2113V0h-575v2094q0 497-194 743-194 247-581 247-466 0-735-297-269-296-269-809V0H581v4863h578V2956q207 316 486 472 280 156 646 156 603 0 912-373 310-373 310-1098" transform="scale(.01563)"/></defs><use xlink:href="#DejaVuSans-6f"/><use xlink:href="#DejaVuSans-72" x="61.182"/><use xlink:href="#DejaVuSans-74" x="102.295"/><use xlink:href="#DejaVuSans-68" x="141.504"/><use xlink:href="#DejaVuSans-6f" x="204.883"/><use xlink:href="#DejaVuSans-72" x="266.064"/><use xlink:href="#DejaVuSans-68" x="305.428"/><use xlink:href="#DejaVuSans-6f" x="368.807"/><use xlink:href="#DejaVuSans-6d" x="429.988"/><use xlink:href="#DejaVuSans-62" x="527.4"/><use xlink:href="#DejaVuSans-69" x="590.877"/><use xlink:href="#DejaVuSans-63" x="618.66"/></g><g id="text_32" transform="matrix(.12 0 0 -.12 328.32 48.06)"><defs><path id="DejaVuSans-37" d="M525 4666h3000v-269L1831 0h-659l1594 4134H525z" transform="scale(.01563)"/><path id="DejaVuSans-39" d="M703 97v575q238-113 481-172 244-59 479-59 625 0 954 420 330 420 377 1277-181-269-460-413-278-144-615-144-700 0-1108 423-408 424-408 1159 0 718 425 1152 425 435 1131 435 810 0 1236-621 427-620 427-1801 0-1103-524-1761Q2575-91 1691-91q-238 0-482 47Q966 3 703 97m1256 1978q425 0 673 290 249 291 249 798 0 503-249 795-248 292-673 292t-673-292-248-795q0-507 248-798 248-290 673-290" transform="scale(.01563)"/></defs><use xlink:href="#DejaVuSans-31"/><use xlink:href="#DejaVuSans-37" x="63.623"/><use xlink:href="#DejaVuSans-39" x="127.246"/><use xlink:href="#DejaVuSans-28" x="222.656"/><use xlink:href="#DejaVuSans-31" x="261.67"/><use xlink:href="#DejaVuSans-34" x="325.293"/><use xlink:href="#DejaVuSans-25" x="388.916"/><use xlink:href="#DejaVuSans-29" x="483.936"/></g><g id="text_33" transform="matrix(0 -.14 -.14 0 661.528 130.64)"><use xlink:href="#DejaVuSans-74"/><use xlink:href="#DejaVuSans-65" x="39.209"/><use xlink:href="#DejaVuSans-74" x="100.732"/><use xlink:href="#DejaVuSans-72" x="139.941"/><use xlink:href="#DejaVuSans-61" x="181.055"/><use xlink:href="#DejaVuSans-67" x="242.334"/><use xlink:href="#DejaVuSans-6f" x="305.811"/><use xlink:href="#DejaVuSans-6e" x="366.992"/><use xlink:href="#DejaVuSans-61" x="430.371"/><use xlink:href="#DejaVuSans-6c" x="491.65"/></g><g id="text_34" transform="matrix(.12 0 0 -.12 633.063 48.06)"><use xlink:href="#DejaVuSans-32"/><use xlink:href="#DejaVuSans-38" x="63.623"/><use xlink:href="#DejaVuSans-30" x="127.246"/><use xlink:href="#DejaVuSans-28" x="222.656"/><use xlink:href="#DejaVuSans-32" x="261.67"/><use xlink:href="#DejaVuSans-32" x="325.293"/><use xlink:href="#DejaVuSans-25" x="388.916"/><use xlink:href="#DejaVuSans-29" x="483.936"/></g><g id="text_35" transform="matrix(0 -.14 -.14 0 895.945 111.847)"><use xlink:href="#DejaVuSans-74"/><use xlink:href="#DejaVuSans-72" x="39.209"/><use xlink:href="#DejaVuSans-69" x="80.322"/><use xlink:href="#DejaVuSans-67" x="108.105"/><use xlink:href="#DejaVuSans-6f" x="171.582"/><use xlink:href="#DejaVuSans-6e" x="232.764"/><use xlink:href="#DejaVuSans-61" x="296.143"/><use xlink:href="#DejaVuSans-6c" x="357.422"/></g><g id="text_36" transform="matrix(.12 0 0 -.12 867.48 48.06)"><use xlink:href="#DejaVuSans-32"/><use xlink:href="#DejaVuSans-36" x="63.623"/><use xlink:href="#DejaVuSans-35" x="127.246"/><use xlink:href="#DejaVuSans-28" x="222.656"/><use xlink:href="#DejaVuSans-32" x="261.67"/><use xlink:href="#DejaVuSans-31" x="325.293"/><use xlink:href="#DejaVuSans-25" x="388.916"/><use xlink:href="#DejaVuSans-29" x="483.936"/></g><g id="text_37" transform="matrix(0 -.14 -.14 0 1007.294 130.821)"><defs><path id="DejaVuSans-78" d="M3513 3500 2247 1797 3578 0h-678L1881 1375 863 0H184l1360 1831L300 3500h678l928-1247 928 1247z" transform="scale(.01563)"/></defs><use xlink:href="#DejaVuSans-68"/><use xlink:href="#DejaVuSans-65" x="63.379"/><use xlink:href="#DejaVuSans-78" x="123.152"/><use xlink:href="#DejaVuSans-61" x="182.332"/><use xlink:href="#DejaVuSans-67" x="243.611"/><use xlink:href="#DejaVuSans-6f" x="307.088"/><use xlink:href="#DejaVuSans-6e" x="368.27"/><use xlink:href="#DejaVuSans-61" x="431.648"/><use xlink:href="#DejaVuSans-6c" x="492.928"/></g><g id="text_38" transform="matrix(.12 0 0 -.12 986.463 48.06)"><use xlink:href="#DejaVuSans-39"/><use xlink:href="#DejaVuSans-39" x="63.623"/><use xlink:href="#DejaVuSans-28" x="159.033"/><use xlink:href="#DejaVuSans-38" x="198.047"/><use xlink:href="#DejaVuSans-25" x="261.67"/><use xlink:href="#DejaVuSans-29" x="356.689"/></g><g id="text_39" transform="matrix(0 -.14 -.14 0 1095.2 94.964)"><use xlink:href="#DejaVuSans-63"/><use xlink:href="#DejaVuSans-75" x="54.98"/><use xlink:href="#DejaVuSans-62" x="118.359"/><use xlink:href="#DejaVuSans-69" x="181.836"/><use xlink:href="#DejaVuSans-63" x="209.619"/></g><g id="text_40" transform="matrix(.12 0 0 -.12 1066.734 48.06)"><use xlink:href="#DejaVuSans-32"/><use xlink:href="#DejaVuSans-38" x="63.623"/><use xlink:href="#DejaVuSans-34" x="127.246"/><use xlink:href="#DejaVuSans-28" x="222.656"/><use xlink:href="#DejaVuSans-32" x="261.67"/><use xlink:href="#DejaVuSans-32" x="325.293"/><use xlink:href="#DejaVuSans-25" x="388.916"/><use xlink:href="#DejaVuSans-29" x="483.936"/></g><g id="text_41" transform="matrix(.18 0 0 -.18 473.37 20.877)"><defs><path id="DejaVuSans-Bold-43" d="M4288 256Q3956 84 3597-3q-359-88-750-88-1166 0-1847 652T319 2328q0 1119 681 1770 681 652 1847 652 391 0 750-88 359-87 691-259v-965q-335 228-660 334t-684 106q-644 0-1013-413-368-412-368-1137 0-722 368-1135 369-412 1013-412 359 0 684 106 325 107 660 335z" transform="scale(.01563)"/><path id="DejaVuSans-Bold-6f" d="M2203 2784q-372 0-567-267t-195-770 195-771q195-267 567-267 366 0 559 267 194 268 194 771t-194 770q-193 267-559 267m0 800q903 0 1411-488 508-487 508-1349 0-863-508-1351Q3106-91 2203-91q-906 0-1417 487-511 488-511 1351 0 862 511 1349 511 488 1417 488" transform="scale(.01563)"/><path id="DejaVuSans-Bold-75" d="M500 1363v2137h1125v-350q0-284-3-714t-3-573q0-422 22-608t75-271q68-109 179-169 111-59 255-59 350 0 550 269t200 747v1728h1119V0H2900v506q-253-306-536-452-283-145-623-145-607 0-924 372T500 1363" transform="scale(.01563)"/><path id="DejaVuSans-Bold-6e" d="M4056 2131V0H2931v1631q0 453-20 625t-70 253q-66 110-179 171-112 61-256 61-350 0-550-271-200-270-200-748V0H538v3500h1118v-512q253 306 537 451 285 145 629 145 606 0 920-372 314-371 314-1081" transform="scale(.01563)"/><path id="DejaVuSans-Bold-74" d="M1759 4494v-994h1154v-800H1759V1216q0-244 97-330t385-86h575V0h-960q-662 0-939 276-276 277-276 940v1484H84v800h557v994z" transform="scale(.01563)"/><path id="DejaVuSans-Bold-73" d="M3272 3391v-850q-359 150-694 225-334 75-631 75-319 0-474-80-154-80-154-245 0-135 117-207 117-71 420-106l197-28q860-109 1156-359 297-250 297-785 0-559-413-841Q2681-91 1863-91q-347 0-718 55-370 55-761 164v850q335-162 686-244 352-81 714-81 329 0 494 90 166 91 166 270 0 150-114 223t-455 114l-197 25q-747 94-1047 347t-300 769q0 556 381 824 382 269 1169 269 310 0 650-47 341-46 741-146" transform="scale(.01563)"/><path id="DejaVuSans-Bold-70" d="M1656 506v-1837H538v4831h1118v-512q232 306 513 451t647 145q647 0 1062-514 416-514 416-1323T3878 423Q3463-91 2816-91q-366 0-647 145-281 146-513 452m744 2266q-359 0-552-264-192-264-192-761t192-761q193-264 552-264t548 262q190 263 190 763t-190 762q-189 263-548 263" transform="scale(.01563)"/><path id="DejaVuSans-Bold-65" d="M4031 1759v-318H1416q40-394 284-591t681-197q353 0 723 105 371 105 762 317V213Q3469 63 3072-14t-794-77q-950 0-1477 483-526 483-526 1355 0 856 517 1346 517 491 1424 491 825 0 1320-497 495-496 495-1328m-1150 372q0 319-186 514-186 196-486 196-325 0-528-183t-253-527z" transform="scale(.01563)"/><path id="DejaVuSans-Bold-72" d="M3138 2547q-147 69-293 101-145 33-292 33-431 0-664-277-233-276-233-791V0H538v3500h1118v-575q216 344 495 501 280 158 671 158 56 0 121-5 66-4 191-20z" transform="scale(.01563)"/><path id="DejaVuSans-Bold-63" d="M3366 3391v-913q-228 156-458 231t-477 75q-468 0-729-273t-261-764 261-765q261-273 729-273 263 0 499 78 236 79 436 232V103Q3103 6 2833-42q-270-49-542-49-947 0-1482 486-534 486-534 1352t534 1351q535 486 1482 486 275 0 542-48t533-145" transform="scale(.01563)"/><path id="DejaVuSans-Bold-79" d="M78 3500h1119l941-2375 800 2375h1118L2584-331q-221-585-517-817-295-233-779-233H641v734h350q284 0 413 91 130 90 202 325l32 97z" transform="scale(.01563)"/><path id="DejaVuSans-Bold-61" d="M2106 1575q-350 0-527-119-176-118-176-350 0-212 142-333 143-120 396-120 315 0 531 226 216 227 216 568v128zm1710 422V0H2688v519q-225-319-507-465-281-145-684-145-544 0-883 317-339 318-339 824 0 616 423 903 424 288 1330 288h660v87q0 266-210 389-209 124-653 124-359 0-669-72-309-72-575-216v853q360 88 722 133 363 45 725 45 947 0 1367-373 421-373 421-1214" transform="scale(.01563)"/><path id="DejaVuSans-Bold-6c" d="M538 4863h1118V0H538z" transform="scale(.01563)"/><path id="DejaVuSans-Bold-6d" d="M3781 2919q213 325 505 495t642 170q603 0 919-372 316-371 316-1081V0H5038v1825q3 41 4 84 2 44 2 125 0 372-110 539-109 168-353 168-318 0-492-263-173-262-180-759V0H2784v1825q0 581-100 748-100 168-356 168-322 0-497-264t-175-755V0H531v3500h1125v-512q207 296 474 446t589 150q362 0 640-175 279-175 422-490" transform="scale(.01563)"/></defs><use xlink:href="#DejaVuSans-Bold-43"/><use xlink:href="#DejaVuSans-Bold-6f" x="73.389"/><use xlink:href="#DejaVuSans-Bold-75" x="142.09"/><use xlink:href="#DejaVuSans-Bold-6e" x="213.281"/><use xlink:href="#DejaVuSans-Bold-74" x="284.473"/><use xlink:href="#DejaVuSans-Bold-73" x="332.275"/><use xlink:href="#DejaVuSans-Bold-70" x="426.611"/><use xlink:href="#DejaVuSans-Bold-65" x="498.193"/><use xlink:href="#DejaVuSans-Bold-72" x="566.016"/><use xlink:href="#DejaVuSans-Bold-63" x="650.146"/><use xlink:href="#DejaVuSans-Bold-72" x="709.424"/><use xlink:href="#DejaVuSans-Bold-79" x="758.74"/><use xlink:href="#DejaVuSans-Bold-73" x="823.926"/><use xlink:href="#DejaVuSans-Bold-74" x="883.447"/><use xlink:href="#DejaVuSans-Bold-61" x="931.25"/><use xlink:href="#DejaVuSans-Bold-6c" x="998.73"/><use xlink:href="#DejaVuSans-Bold-73" x="1067.822"/><use xlink:href="#DejaVuSans-Bold-79" x="1127.344"/><use xlink:href="#DejaVuSans-Bold-73" x="1192.529"/><use xlink:href="#DejaVuSans-Bold-74" x="1252.051"/><use xlink:href="#DejaVuSans-Bold-65" x="1299.854"/><use xlink:href="#DejaVuSans-Bold-6d" x="1367.676"/></g></g></g><defs><clipPath id="p11921fecb4"><path d="M58.472 50.877H1153.2v140.829H58.472z"/></clipPath></defs></svg>