<svg xmlns="http://www.w3.org/2000/svg" xmlns:xlink="http://www.w3.org/1999/xlink" width="1262.621" height="464.398" viewBox="0 0 946.966 348.298"><defs><style>*{stroke-linecap:butt;stroke-linejoin:round}</style></defs><g id="figure_1"><path id="patch_1" d="M0 348.298h946.966V0H0z" style="fill:none"/><g id="axes_1"><path id="patch_2" d="M46.966 268.317h892.8V50.877h-892.8z" style="fill:#fff"/><g id="PolyCollection_1"><defs><path id="m6c78ea64da" d="M48.877-297.421v217.44h19.118v-217.44H48.877z" style="stroke:#000;stroke-opacity:.1"/></defs><g clip-path="url(#p59aa5e99ab)"><use xlink:href="#m6c78ea64da" y="348.298" style="fill:red;fill-opacity:.1;stroke:#000;stroke-opacity:.1"/></g></g><g id="PolyCollection_2"><defs><path id="md8d9499e1c" d="M67.995-297.421v217.44h95.589v-217.44H67.995z" style="stroke:#000;stroke-opacity:.1"/></defs><g clip-path="url(#p59aa5e99ab)"><use xlink:href="#md8d9499e1c" y="348.298" style="fill:teal;fill-opacity:.1;stroke:#000;stroke-opacity:.1"/></g></g><g id="PolyCollection_3"><defs><path id="m4b2adbd1ab" d="M163.584-297.421v217.44h248.531v-217.44H163.584z" style="stroke:#000;stroke-opacity:.1"/></defs><g clip-path="url(#p59aa5e99ab)"><use xlink:href="#m4b2adbd1ab" y="348.298" style="fill:#00f;fill-opacity:.1;stroke:#000;stroke-opacity:.1"/></g></g><g id="PolyCollection_4"><defs><path id="m490c84520f" d="M412.115-297.421v217.44h248.531v-217.44h-248.53z" style="stroke:#000;stroke-opacity:.1"/></defs><g clip-path="url(#p59aa5e99ab)"><use xlink:href="#m490c84520f" y="348.298" style="fill:green;fill-opacity:.1;stroke:#000;stroke-opacity:.1"/></g></g><g id="PolyCollection_5"><defs><path id="m0dac8e81da" d="M660.646-297.421v217.44h133.825v-217.44H660.646z" style="stroke:#000;stroke-opacity:.1"/></defs><g clip-path="url(#p59aa5e99ab)"><use xlink:href="#m0dac8e81da" y="348.298" style="fill:orange;fill-opacity:.1;stroke:#000;stroke-opacity:.1"/></g></g><g id="PolyCollection_6"><defs><path id="medb01a6c39" d="M794.47-297.421v217.44h47.795v-217.44h-47.794z" style="stroke:#000;stroke-opacity:.1"/></defs><g clip-path="url(#p59aa5e99ab)"><use xlink:href="#medb01a6c39" y="348.298" style="fill:purple;fill-opacity:.1;stroke:#000;stroke-opacity:.1"/></g></g><g id="PolyCollection_7"><defs><path id="m9b06c120b4" d="M842.265-297.421v217.44h95.589v-217.44h-95.589z" style="stroke:#000;stroke-opacity:.1"/></defs><g clip-path="url(#p59aa5e99ab)"><use xlink:href="#m9b06c120b4" y="348.298" style="fill:#ff0;fill-opacity:.1;stroke:#000;stroke-opacity:.1"/></g></g><path id="patch_3" d="M49.355 268.317h8.603v-18.314h-8.603z" clip-path="url(#p59aa5e99ab)" style="fill:red"/><path id="patch_4" d="M58.914 268.317h8.603v-7.044h-8.603z" clip-path="url(#p59aa5e99ab)" style="fill:red"/><path id="patch_5" d="M68.473 268.317h8.603v-40.853h-8.603z" clip-path="url(#p59aa5e99ab)" style="fill:teal"/><path id="patch_6" d="M78.032 268.317h8.603v-64.802h-8.603z" clip-path="url(#p59aa5e99ab)" style="fill:teal"/><path id="patch_7" d="M87.59 268.317h8.604V254.23H87.59z" clip-path="url(#p59aa5e99ab)" style="fill:teal"/><path id="patch_8" d="M97.15 268.317h8.603v-7.044H97.15z" clip-path="url(#p59aa5e99ab)" style="fill:teal"/><path id="patch_9" d="M106.709 268.317h8.603V242.96h-8.603z" clip-path="url(#p59aa5e99ab)" style="fill:teal"/><path id="patch_10" d="M116.268 268.317h8.603v-1.409h-8.603z" clip-path="url(#p59aa5e99ab)" style="fill:teal"/><path id="patch_11" d="M125.826 268.317h8.603V265.5h-8.603z" clip-path="url(#p59aa5e99ab)" style="fill:teal"/><path id="patch_12" d="M135.385 268.317h8.603v-7.044h-8.603z" clip-path="url(#p59aa5e99ab)" style="fill:teal"/><path id="patch_13" d="M144.944 268.317h8.603v-30.992h-8.603z" clip-path="url(#p59aa5e99ab)" style="fill:teal"/><path id="patch_14" d="M154.503 268.317h8.603V265.5h-8.603z" clip-path="url(#p59aa5e99ab)" style="fill:teal"/><path id="patch_15" d="M164.062 268.317h8.603v-1.409h-8.603z" clip-path="url(#p59aa5e99ab)" style="fill:#00f"/><path id="patch_16" d="M173.62 268.317h8.604V265.5h-8.603z" clip-path="url(#p59aa5e99ab)" style="fill:#00f"/><path id="patch_17" d="M183.18 268.317h8.603v-4.226h-8.603z" clip-path="url(#p59aa5e99ab)" style="fill:#00f"/><path id="patch_18" d="M192.739 268.317h8.603V265.5h-8.603z" clip-path="url(#p59aa5e99ab)" style="fill:#00f"/><path id="patch_19" d="M202.298 268.317h8.603v-19.722h-8.603z" clip-path="url(#p59aa5e99ab)" style="fill:#00f"/><path id="patch_20" d="M211.856 268.317h8.603V265.5h-8.603z" clip-path="url(#p59aa5e99ab)" style="fill:#00f"/><path id="patch_21" d="M221.415 268.317h8.603v-1.409h-8.603z" clip-path="url(#p59aa5e99ab)" style="fill:#00f"/><path id="patch_22" d="M230.974 268.317h8.603v-1.409h-8.603z" clip-path="url(#p59aa5e99ab)" style="fill:#00f"/><path id="patch_23" d="M240.533 268.317h8.603v-4.226h-8.603z" clip-path="url(#p59aa5e99ab)" style="fill:#00f"/><path id="patch_24" d="M250.092 268.317h8.603V265.5h-8.603z" clip-path="url(#p59aa5e99ab)" style="fill:#00f"/><path id="patch_25" d="M259.65 268.317h8.604v-4.226h-8.603z" clip-path="url(#p59aa5e99ab)" style="fill:#00f"/><path id="patch_26" d="M269.21 268.317h8.603V265.5h-8.603z" clip-path="url(#p59aa5e99ab)" style="fill:#00f"/><path id="patch_27" d="M278.769 268.317h8.603v-23.949h-8.603z" clip-path="url(#p59aa5e99ab)" style="fill:#00f"/><path id="patch_28" d="M288.328 268.317h8.603V265.5h-8.603z" clip-path="url(#p59aa5e99ab)" style="fill:#00f"/><path id="patch_29" d="M297.886 268.317h8.603V265.5h-8.603z" clip-path="url(#p59aa5e99ab)" style="fill:#00f"/><path id="patch_30" d="M307.445 268.317h8.603v-1.409h-8.603z" clip-path="url(#p59aa5e99ab)" style="fill:#00f"/><path id="patch_31" d="M317.004 268.317h8.603v-29.583h-8.603z" clip-path="url(#p59aa5e99ab)" style="fill:#00f"/><path id="patch_32" d="M326.563 268.317h8.603V199.29h-8.603z" clip-path="url(#p59aa5e99ab)" style="fill:#00f"/><path id="patch_33" d="M336.122 268.317h8.603v-7.044h-8.603z" clip-path="url(#p59aa5e99ab)" style="fill:#00f"/><path id="patch_34" d="M345.68 268.317h8.604v-1.409h-8.603z" clip-path="url(#p59aa5e99ab)" style="fill:#00f"/><path id="patch_35" d="M355.24 268.317h8.603v-7.044h-8.603z" clip-path="url(#p59aa5e99ab)" style="fill:#00f"/><path id="patch_36" d="M364.799 268.317h8.603v-1.409h-8.603z" clip-path="url(#p59aa5e99ab)" style="fill:#00f"/><path id="patch_37" d="M374.357 268.317h8.603v-1.409h-8.603z" clip-path="url(#p59aa5e99ab)" style="fill:#00f"/><path id="patch_38" d="M383.916 268.317h8.603v-1.409h-8.603z" clip-path="url(#p59aa5e99ab)" style="fill:#00f"/><path id="patch_39" d="M393.475 268.317h8.603v-32.401h-8.603z" clip-path="url(#p59aa5e99ab)" style="fill:#00f"/><path id="patch_40" d="M403.034 268.317h8.603v-19.722h-8.603z" clip-path="url(#p59aa5e99ab)" style="fill:#00f"/><path id="patch_41" d="M412.593 268.317h8.603V254.23h-8.603z" clip-path="url(#p59aa5e99ab)" style="fill:green"/><path id="patch_42" d="M422.152 268.317h8.603v-1.409h-8.603z" clip-path="url(#p59aa5e99ab)" style="fill:green"/><path id="patch_43" d="M431.71 268.317h8.604v-67.62h-8.603z" clip-path="url(#p59aa5e99ab)" style="fill:green"/><path id="patch_44" d="M441.27 268.317h8.603v-1.409h-8.603z" clip-path="url(#p59aa5e99ab)" style="fill:green"/><path id="patch_45" d="M450.829 268.317h8.603v-54.94h-8.603z" clip-path="url(#p59aa5e99ab)" style="fill:green"/><path id="patch_46" d="M460.387 268.317h8.603v-21.131h-8.603z" clip-path="url(#p59aa5e99ab)" style="fill:green"/><path id="patch_47" d="M469.946 268.317h8.603v-1.409h-8.603z" clip-path="url(#p59aa5e99ab)" style="fill:green"/><path id="patch_48" d="M479.505 268.317h8.603V265.5h-8.603z" clip-path="url(#p59aa5e99ab)" style="fill:green"/><path id="patch_49" d="M489.064 268.317h8.603v-11.27h-8.603z" clip-path="url(#p59aa5e99ab)" style="fill:green"/><path id="patch_50" d="M498.623 268.317h8.603V265.5h-8.603z" clip-path="url(#p59aa5e99ab)" style="fill:green"/><path id="patch_51" d="M508.182 268.317h8.603v-1.409h-8.603z" clip-path="url(#p59aa5e99ab)" style="fill:green"/><path id="patch_52" d="M517.74 268.317h8.604v-5.635h-8.603z" clip-path="url(#p59aa5e99ab)" style="fill:green"/><path id="patch_53" d="M527.3 268.317h8.603V265.5H527.3z" clip-path="url(#p59aa5e99ab)" style="fill:green"/><path id="patch_54" d="M536.859 268.317h8.603v-9.861h-8.603z" clip-path="url(#p59aa5e99ab)" style="fill:green"/><path id="patch_55" d="M546.417 268.317h8.603v-7.044h-8.603z" clip-path="url(#p59aa5e99ab)" style="fill:green"/><path id="patch_56" d="M555.976 268.317h8.603v-85.933h-8.603z" clip-path="url(#p59aa5e99ab)" style="fill:green"/><path id="patch_57" d="M565.535 268.317h8.603v-18.314h-8.603z" clip-path="url(#p59aa5e99ab)" style="fill:green"/><path id="patch_58" d="M575.094 268.317h8.603V265.5h-8.603z" clip-path="url(#p59aa5e99ab)" style="fill:green"/><path id="patch_59" d="M584.653 268.317h8.603v-52.123h-8.603z" clip-path="url(#p59aa5e99ab)" style="fill:green"/><path id="patch_60" d="M594.212 268.317h8.603v-4.226h-8.603z" clip-path="url(#p59aa5e99ab)" style="fill:green"/><path id="patch_61" d="M603.77 268.317h8.604v-1.409h-8.603z" clip-path="url(#p59aa5e99ab)" style="fill:green"/><path id="patch_62" d="M613.33 268.317h8.603v-4.226h-8.603z" clip-path="url(#p59aa5e99ab)" style="fill:green"/><path id="patch_63" d="M622.889 268.317h8.603V265.5h-8.603z" clip-path="url(#p59aa5e99ab)" style="fill:green"/><path id="patch_64" d="M632.447 268.317h8.603V254.23h-8.603z" clip-path="url(#p59aa5e99ab)" style="fill:green"/><path id="patch_65" d="M642.006 268.317h8.603v-1.409h-8.603z" clip-path="url(#p59aa5e99ab)" style="fill:green"/><path id="patch_66" d="M651.565 268.317h8.603v-1.409h-8.603z" clip-path="url(#p59aa5e99ab)" style="fill:green"/><path id="patch_67" d="M661.124 268.317h8.603v-18.314h-8.603z" clip-path="url(#p59aa5e99ab)" style="fill:orange"/><path id="patch_68" d="M670.683 268.317h8.603V265.5h-8.603z" clip-path="url(#p59aa5e99ab)" style="fill:orange"/><path id="patch_69" d="M680.242 268.317h8.603v-15.496h-8.603z" clip-path="url(#p59aa5e99ab)" style="fill:orange"/><path id="patch_70" d="M689.8 268.317h8.604V147.165H689.8z" clip-path="url(#p59aa5e99ab)" style="fill:orange"/><path id="patch_71" d="M699.36 268.317h8.603V265.5h-8.603z" clip-path="url(#p59aa5e99ab)" style="fill:orange"/><path id="patch_72" d="M708.919 268.317h8.603v-77.48h-8.603z" clip-path="url(#p59aa5e99ab)" style="fill:orange"/><path id="patch_73" d="M718.477 268.317h8.603V265.5h-8.603z" clip-path="url(#p59aa5e99ab)" style="fill:orange"/><path id="patch_74" d="M728.036 268.317h8.603V242.96h-8.603z" clip-path="url(#p59aa5e99ab)" style="fill:orange"/><path id="patch_75" d="M737.595 268.317h8.603v-8.452h-8.603z" clip-path="url(#p59aa5e99ab)" style="fill:orange"/><path id="patch_76" d="M747.154 268.317h8.603v-19.722h-8.603z" clip-path="url(#p59aa5e99ab)" style="fill:orange"/><path id="patch_77" d="M756.713 268.317h8.603v-7.044h-8.603z" clip-path="url(#p59aa5e99ab)" style="fill:orange"/><path id="patch_78" d="M766.272 268.317h8.603v-1.409h-8.603z" clip-path="url(#p59aa5e99ab)" style="fill:orange"/><path id="patch_79" d="M775.83 268.317h8.604v-7.044h-8.603z" clip-path="url(#p59aa5e99ab)" style="fill:orange"/><path id="patch_80" d="M785.39 268.317h8.603v-63.393h-8.603z" clip-path="url(#p59aa5e99ab)" style="fill:orange"/><path id="patch_81" d="M794.948 268.317h8.603V265.5h-8.603z" clip-path="url(#p59aa5e99ab)" style="fill:purple"/><path id="patch_82" d="M804.507 268.317h8.603v-8.452h-8.603z" clip-path="url(#p59aa5e99ab)" style="fill:purple"/><path id="patch_83" d="M814.066 268.317h8.603v-15.496h-8.603z" clip-path="url(#p59aa5e99ab)" style="fill:purple"/><path id="patch_84" d="M823.625 268.317h8.603V199.29h-8.603z" clip-path="url(#p59aa5e99ab)" style="fill:purple"/><path id="patch_85" d="M833.184 268.317h8.603v-43.671h-8.603z" clip-path="url(#p59aa5e99ab)" style="fill:purple"/><path id="patch_86" d="M842.743 268.317h8.603v-1.409h-8.603z" clip-path="url(#p59aa5e99ab)" style="fill:#ff0"/><path id="patch_87" d="M852.302 268.317h8.603V61.231h-8.603z" clip-path="url(#p59aa5e99ab)" style="fill:#ff0"/><path id="patch_88" d="M861.86 268.317h8.604v-5.635h-8.603z" clip-path="url(#p59aa5e99ab)" style="fill:#ff0"/><path id="patch_89" d="M871.42 268.317h8.603v-5.635h-8.603z" clip-path="url(#p59aa5e99ab)" style="fill:#ff0"/><path id="patch_90" d="M880.978 268.317h8.603V265.5h-8.603z" clip-path="url(#p59aa5e99ab)" style="fill:#ff0"/><path id="patch_91" d="M890.537 268.317h8.603v-15.496h-8.603z" clip-path="url(#p59aa5e99ab)" style="fill:#ff0"/><path id="patch_92" d="M900.096 268.317h8.603v-63.393h-8.603z" clip-path="url(#p59aa5e99ab)" style="fill:#ff0"/><path id="patch_93" d="M909.655 268.317h8.603v-95.795h-8.603z" clip-path="url(#p59aa5e99ab)" style="fill:#ff0"/><path id="patch_94" d="M919.214 268.317h8.603v-1.409h-8.603z" clip-path="url(#p59aa5e99ab)" style="fill:#ff0"/><path id="patch_95" d="M928.773 268.317h8.603v-1.409h-8.603z" clip-path="url(#p59aa5e99ab)" style="fill:#ff0"/><g id="matplotlib.axis_1"><g id="xtick_1"><g id="line2d_1"><defs><path id="mcc1c4fbbdf" d="M0 0v3.5" style="stroke:#000;stroke-width:.8"/></defs><use xlink:href="#mcc1c4fbbdf" x="732.338" y="268.317" style="stroke:#000;stroke-width:.8"/></g><g id="text_1" transform="matrix(0 -.1 -.1 0 735.097 297.334)"><defs><path id="DejaVuSans-52" d="M2841 2188q203-69 395-294t386-619L4263 0h-679l-596 1197q-232 469-449 622t-592 153h-688V0H628v4666h1425q800 0 1194-335 394-334 394-1009 0-441-205-732-205-290-595-402zM1259 4147V2491h794q456 0 689 211t233 620q0 409-233 617t-689 208h-794z" transform="scale(.01563)"/><path id="DejaVuSans-2d" d="M313 2009h1684v-512H313v512z" transform="scale(.01563)"/><path id="DejaVuSans-33" d="M2597 2516q453-97 707-404 255-306 255-756 0-690-475-1069Q2609-91 1734-91q-293 0-604 58T488 141v609q262-153 574-231 313-78 654-78 593 0 904 234t311 681q0 413-289 645-289 233-804 233h-544v519h569q465 0 712 186t247 536q0 359-255 551-254 193-729 193-260 0-557-57-297-56-653-174v562q360 100 674 150t592 50q719 0 1137-327 419-326 419-882 0-388-222-655t-631-370z" transform="scale(.01563)"/><path id="DejaVuSans-63" d="M3122 3366v-538q-244 135-489 202t-495 67q-560 0-870-355-309-354-309-995t309-996q310-354 870-354 250 0 495 67t489 202V134Q2881 22 2623-34q-257-57-548-57-791 0-1257 497-465 497-465 1341 0 856 470 1346 471 491 1290 491 265 0 518-55 253-54 491-163z" transform="scale(.01563)"/></defs><use xlink:href="#DejaVuSans-52"/><use xlink:href="#DejaVuSans-2d" x="65.482"/><use xlink:href="#DejaVuSans-33" x="101.566"/><use xlink:href="#DejaVuSans-63" x="165.189"/></g></g><g id="xtick_2"><use xlink:href="#mcc1c4fbbdf" id="line2d_2" x="111.01" y="268.317" style="stroke:#000;stroke-width:.8"/><g id="text_2" transform="matrix(0 -.1 -.1 0 113.542 307.94)"><defs><path id="DejaVuSans-50" d="M1259 4147V2394h794q441 0 681 228 241 228 241 650 0 419-241 647-240 228-681 228h-794zm-631 519h1425q785 0 1186-355 402-355 402-1039 0-691-402-1044-401-353-1186-353h-794V0H628v4666z" transform="scale(.01563)"/><path id="DejaVuSans-32" d="M1228 531h2203V0H469v531q359 372 979 998 621 627 780 809 303 340 423 576 121 236 121 464 0 372-261 606-261 235-680 235-297 0-627-103-329-103-704-313v638q381 153 712 231 332 78 607 78 725 0 1156-363 431-362 431-968 0-288-108-546-107-257-392-607-78-91-497-524-418-433-1181-1211z" transform="scale(.01563)"/><path id="DejaVuSans-5f" d="M3263-1063v-446H-63v446h3326z" transform="scale(.01563)"/><path id="DejaVuSans-31" d="M794 531h1031v3560L703 3866v575l1116 225h631V531h1031V0H794v531z" transform="scale(.01563)"/><path id="DejaVuSans-2f" d="M1625 4666h531L531-594H0l1625 5260z" transform="scale(.01563)"/></defs><use xlink:href="#DejaVuSans-50"/><use xlink:href="#DejaVuSans-32" x="60.303"/><use xlink:href="#DejaVuSans-5f" x="123.926"/><use xlink:href="#DejaVuSans-31" x="173.926"/><use xlink:href="#DejaVuSans-2f" x="237.549"/><use xlink:href="#DejaVuSans-63" x="271.24"/></g></g><g id="xtick_3"><use xlink:href="#mcc1c4fbbdf" id="line2d_3" x="321.306" y="268.317" style="stroke:#000;stroke-width:.8"/><g id="text_3" transform="matrix(0 -.1 -.1 0 324.065 300.484)"><defs><path id="DejaVuSans-49" d="M628 4666h631V0H628v4666z" transform="scale(.01563)"/><path id="DejaVuSans-62" d="M3116 1747q0 634-261 995t-717 361q-457 0-718-361t-261-995q0-634 261-995t718-361q456 0 717 361t261 995zM1159 2969q182 312 458 463 277 152 661 152 638 0 1036-506 399-506 399-1331T3314 415Q2916-91 2278-91q-384 0-661 152-276 152-458 464V0H581v4863h578V2969z" transform="scale(.01563)"/><path id="DejaVuSans-61" d="M2194 1759q-697 0-966-159t-269-544q0-306 202-486 202-179 548-179 479 0 768 339t289 901v128h-572zm1147 238V0h-575v531q-197-318-491-470T1556-91q-537 0-855 302-317 302-317 808 0 590 395 890 396 300 1180 300h807v57q0 397-261 614t-733 217q-300 0-585-72-284-72-546-216v532q315 122 612 182 297 61 578 61 760 0 1135-394 375-393 375-1193z" transform="scale(.01563)"/><path id="DejaVuSans-6d" d="M3328 2828q216 388 516 572t706 184q547 0 844-383 297-382 297-1088V0h-578v2094q0 503-179 746-178 244-543 244-447 0-707-297-259-296-259-809V0h-578v2094q0 506-178 748t-550 242q-441 0-701-298-259-298-259-808V0H581v3500h578v-544q197 322 472 475t653 153q382 0 649-194 267-193 395-562z" transform="scale(.01563)"/></defs><use xlink:href="#DejaVuSans-49"/><use xlink:href="#DejaVuSans-62" x="29.492"/><use xlink:href="#DejaVuSans-61" x="92.969"/><use xlink:href="#DejaVuSans-6d" x="154.248"/></g></g><g id="xtick_4"><use xlink:href="#mcc1c4fbbdf" id="line2d_4" x="149.246" y="268.317" style="stroke:#000;stroke-width:.8"/><g id="text_4" transform="matrix(0 -.1 -.1 0 151.778 312.181)"><use xlink:href="#DejaVuSans-50"/><use xlink:href="#DejaVuSans-32" x="60.303"/><use xlink:href="#DejaVuSans-5f" x="123.926"/><use xlink:href="#DejaVuSans-31" x="173.926"/><use xlink:href="#DejaVuSans-2f" x="237.549"/><use xlink:href="#DejaVuSans-6d" x="271.24"/></g></g><g id="xtick_5"><use xlink:href="#mcc1c4fbbdf" id="line2d_5" x="397.777" y="268.317" style="stroke:#000;stroke-width:.8"/><g id="text_5" transform="matrix(0 -.1 -.1 0 400.309 315.264)"><defs><path id="DejaVuSans-43" d="M4122 4306v-665q-319 297-680 443-361 147-767 147-800 0-1225-489t-425-1414q0-922 425-1411t1225-489q406 0 767 147t680 444V359q-331-225-702-338-370-112-782-112-1060 0-1670 648-609 649-609 1771 0 1125 609 1773 610 649 1670 649 418 0 788-111 371-111 696-333z" transform="scale(.01563)"/></defs><use xlink:href="#DejaVuSans-43"/><use xlink:href="#DejaVuSans-6d" x="69.824"/><use xlink:href="#DejaVuSans-63" x="167.236"/><use xlink:href="#DejaVuSans-32" x="222.217"/><use xlink:href="#DejaVuSans-5f" x="285.84"/><use xlink:href="#DejaVuSans-31" x="335.84"/></g></g><g id="xtick_6"><use xlink:href="#mcc1c4fbbdf" id="line2d_6" x="72.775" y="268.317" style="stroke:#000;stroke-width:.8"/><g id="text_6" transform="matrix(0 -.1 -.1 0 75.534 297.53)"><use xlink:href="#DejaVuSans-43"/><use xlink:href="#DejaVuSans-32" x="69.824"/><use xlink:href="#DejaVuSans-2f" x="133.447"/><use xlink:href="#DejaVuSans-63" x="167.139"/></g></g><g id="xtick_7"><use xlink:href="#mcc1c4fbbdf" id="line2d_7" x="837.486" y="268.317" style="stroke:#000;stroke-width:.8"/><g id="text_7" transform="matrix(0 -.1 -.1 0 840.018 314.31)"><defs><path id="DejaVuSans-36" d="M2113 2584q-425 0-674-291-248-290-248-796 0-503 248-796 249-292 674-292t673 292q248 293 248 796 0 506-248 796-248 291-673 291zm1253 1979v-575q-238 112-480 171-242 60-480 60-625 0-955-422-329-422-376-1275 184 272 462 417 279 145 613 145 703 0 1111-427 408-426 408-1160 0-719-425-1154Q2819-91 2113-91q-810 0-1238 620-428 621-428 1799 0 1106 525 1764t1409 658q238 0 480-47t505-140z" transform="scale(.01563)"/></defs><use xlink:href="#DejaVuSans-50"/><use xlink:href="#DejaVuSans-36" x="60.303"/><use xlink:href="#DejaVuSans-5f" x="123.926"/><use xlink:href="#DejaVuSans-33" x="173.926"/><use xlink:href="#DejaVuSans-6d" x="237.549"/><use xlink:href="#DejaVuSans-63" x="334.961"/></g></g><g id="xtick_8"><use xlink:href="#mcc1c4fbbdf" id="line2d_8" x="588.954" y="268.317" style="stroke:#000;stroke-width:.8"/><g id="text_8" transform="matrix(0 -.1 -.1 0 591.714 288.238)"><defs><path id="DejaVuSans-34" d="M2419 4116 825 1625h1594v2491zm-166 550h794V1625h666v-525h-666V0h-628v1100H313v609l1940 2957z" transform="scale(.01563)"/></defs><use xlink:href="#DejaVuSans-49"/><use xlink:href="#DejaVuSans-2d" x="29.492"/><use xlink:href="#DejaVuSans-34" x="65.576"/></g></g><g id="xtick_9"><use xlink:href="#mcc1c4fbbdf" id="line2d_9" x="455.13" y="268.317" style="stroke:#000;stroke-width:.8"/><g id="text_9" transform="matrix(0 -.1 -.1 0 457.89 300.948)"><defs><path id="DejaVuSans-64" d="M2906 2969v1894h575V0h-575v525q-181-312-458-464-276-152-664-152-634 0-1033 506-398 507-398 1332t398 1331q399 506 1033 506 388 0 664-152 277-151 458-463zM947 1747q0-634 261-995t717-361q456 0 718 361 263 361 263 995t-263 995q-262 361-718 361t-717-361q-261-361-261-995z" transform="scale(.01563)"/></defs><use xlink:href="#DejaVuSans-49"/><use xlink:href="#DejaVuSans-2d" x="29.492"/><use xlink:href="#DejaVuSans-34" x="65.576"/><use xlink:href="#DejaVuSans-32" x="129.199"/><use xlink:href="#DejaVuSans-64" x="192.822"/></g></g><g id="xtick_10"><use xlink:href="#mcc1c4fbbdf" id="line2d_10" x="789.691" y="268.317" style="stroke:#000;stroke-width:.8"/><g id="text_10" transform="matrix(0 -.1 -.1 0 792.45 291.836)"><use xlink:href="#DejaVuSans-52"/><use xlink:href="#DejaVuSans-2d" x="65.482"/><use xlink:href="#DejaVuSans-33" x="101.566"/></g></g><g id="xtick_11"><use xlink:href="#mcc1c4fbbdf" id="line2d_11" x="904.398" y="268.317" style="stroke:#000;stroke-width:.8"/><g id="text_11" transform="matrix(0 -.1 -.1 0 907.157 310.798)"><use xlink:href="#DejaVuSans-50"/><use xlink:href="#DejaVuSans-6d" x="60.303"/><use xlink:href="#DejaVuSans-2d" x="157.715"/><use xlink:href="#DejaVuSans-33" x="193.799"/><use xlink:href="#DejaVuSans-6d" x="257.422"/></g></g><g id="xtick_12"><use xlink:href="#mcc1c4fbbdf" id="line2d_12" x="82.334" y="268.317" style="stroke:#000;stroke-width:.8"/><g id="text_12" transform="matrix(0 -.1 -.1 0 85.093 301.772)"><use xlink:href="#DejaVuSans-43"/><use xlink:href="#DejaVuSans-32" x="69.824"/><use xlink:href="#DejaVuSans-2f" x="133.447"/><use xlink:href="#DejaVuSans-6d" x="167.139"/></g></g><g id="xtick_13"><use xlink:href="#mcc1c4fbbdf" id="line2d_13" x="436.012" y="268.317" style="stroke:#000;stroke-width:.8"/><g id="text_13" transform="matrix(0 -.1 -.1 0 438.772 316.897)"><defs><path id="DejaVuSans-6e" d="M3513 2113V0h-575v2094q0 497-194 743-194 247-581 247-466 0-735-297-269-296-269-809V0H581v3500h578v-544q207 316 486 472 280 156 646 156 603 0 912-373 310-373 310-1098z" transform="scale(.01563)"/></defs><use xlink:href="#DejaVuSans-50"/><use xlink:href="#DejaVuSans-34" x="60.303"/><use xlink:href="#DejaVuSans-2f" x="123.926"/><use xlink:href="#DejaVuSans-6e" x="157.617"/><use xlink:href="#DejaVuSans-6d" x="220.996"/><use xlink:href="#DejaVuSans-6d" x="318.408"/></g></g><g id="xtick_14"><use xlink:href="#mcc1c4fbbdf" id="line2d_14" x="330.865" y="268.317" style="stroke:#000;stroke-width:.8"/><g id="text_14" transform="matrix(0 -.1 -.1 0 333.624 307.28)"><use xlink:href="#DejaVuSans-43"/><use xlink:href="#DejaVuSans-6d" x="69.824"/><use xlink:href="#DejaVuSans-63" x="167.236"/><use xlink:href="#DejaVuSans-6d" x="222.217"/></g></g><g id="xtick_15"><use xlink:href="#mcc1c4fbbdf" id="line2d_15" x="827.927" y="268.317" style="stroke:#000;stroke-width:.8"/><g id="text_15" transform="matrix(0 -.1 -.1 0 830.459 327.42)"><use xlink:href="#DejaVuSans-50"/><use xlink:href="#DejaVuSans-36" x="60.303"/><use xlink:href="#DejaVuSans-5f" x="123.926"/><use xlink:href="#DejaVuSans-33" x="173.926"/><use xlink:href="#DejaVuSans-2f" x="237.549"/><use xlink:href="#DejaVuSans-6d" x="271.24"/><use xlink:href="#DejaVuSans-6d" x="368.652"/><use xlink:href="#DejaVuSans-63" x="466.064"/></g></g><g id="xtick_16"><use xlink:href="#mcc1c4fbbdf" id="line2d_16" x="713.22" y="268.317" style="stroke:#000;stroke-width:.8"/><g id="text_16" transform="matrix(0 -.1 -.1 0 715.98 307.195)"><use xlink:href="#DejaVuSans-50"/><use xlink:href="#DejaVuSans-2d" x="58.053"/><use xlink:href="#DejaVuSans-33" x="94.137"/><use xlink:href="#DejaVuSans-6d" x="157.76"/><use xlink:href="#DejaVuSans-31" x="255.172"/></g></g><g id="xtick_17"><use xlink:href="#mcc1c4fbbdf" id="line2d_17" x="560.278" y="268.317" style="stroke:#000;stroke-width:.8"/><g id="text_17" transform="matrix(0 -.1 -.1 0 563.037 317.22)"><use xlink:href="#DejaVuSans-49"/><use xlink:href="#DejaVuSans-34" x="29.492"/><use xlink:href="#DejaVuSans-2f" x="93.115"/><use xlink:href="#DejaVuSans-6d" x="126.807"/><use xlink:href="#DejaVuSans-6d" x="224.219"/><use xlink:href="#DejaVuSans-6d" x="321.631"/></g></g><g id="xtick_18"><use xlink:href="#mcc1c4fbbdf" id="line2d_18" x="913.957" y="268.317" style="stroke:#000;stroke-width:.8"/><g id="text_18" transform="matrix(0 -.1 -.1 0 916.716 307.142)"><defs><path id="DejaVuSans-46" d="M628 4666h2681v-532H1259V2759h1850v-531H1259V0H628v4666z" transform="scale(.01563)"/></defs><use xlink:href="#DejaVuSans-46"/><use xlink:href="#DejaVuSans-2d" x="57.52"/><use xlink:href="#DejaVuSans-34" x="93.604"/><use xlink:href="#DejaVuSans-33" x="157.227"/><use xlink:href="#DejaVuSans-6d" x="220.85"/></g></g><g id="xtick_19"><use xlink:href="#mcc1c4fbbdf" id="line2d_19" x="694.102" y="268.317" style="stroke:#000;stroke-width:.8"/><g id="text_19" transform="matrix(0 -.1 -.1 0 696.862 301.577)"><use xlink:href="#DejaVuSans-52"/><use xlink:href="#DejaVuSans-2d" x="65.482"/><use xlink:href="#DejaVuSans-33" x="101.566"/><use xlink:href="#DejaVuSans-6d" x="165.189"/></g></g><g id="xtick_20"><use xlink:href="#mcc1c4fbbdf" id="line2d_20" x="856.603" y="268.317" style="stroke:#000;stroke-width:.8"/><g id="text_20" transform="matrix(0 -.1 -.1 0 859.363 310.52)"><use xlink:href="#DejaVuSans-46"/><use xlink:href="#DejaVuSans-6d" x="57.52"/><use xlink:href="#DejaVuSans-2d" x="154.932"/><use xlink:href="#DejaVuSans-33" x="191.016"/><use xlink:href="#DejaVuSans-6d" x="254.639"/></g></g><g id="text_21" transform="matrix(.1 0 0 -.1 409.891 339.019)"><defs><path id="DejaVuSans-74" d="M1172 4494v-994h1184v-447H1172V1153q0-428 117-550t477-122h590V0h-590q-666 0-919 248-253 249-253 905v1900H172v447h422v994h578z" transform="scale(.01563)"/><path id="DejaVuSans-65" d="M3597 1894v-281H953q38-594 358-905t892-311q331 0 642 81t618 244V178Q3153 47 2828-22t-659-69q-838 0-1327 487-489 488-489 1320 0 859 464 1363 464 505 1252 505 706 0 1117-455 411-454 411-1235zm-575 169q-6 471-264 752-258 282-683 282-481 0-770-272t-333-766l2050 4z" transform="scale(.01563)"/><path id="DejaVuSans-72" d="M2631 2963q-97 56-211 82-114 27-251 27-488 0-749-317t-261-911V0H581v3500h578v-544q182 319 472 473 291 155 707 155 59 0 131-8 72-7 159-23l3-590z" transform="scale(.01563)"/><path id="DejaVuSans-69" d="M603 3500h575V0H603v3500zm0 1363h575v-729H603v729z" transform="scale(.01563)"/><path id="DejaVuSans-6f" d="M1959 3097q-462 0-731-361t-269-989q0-628 267-989 268-361 733-361 460 0 728 362 269 363 269 988 0 622-269 986-268 364-728 364zm0 487q750 0 1178-488 429-487 429-1349 0-859-429-1349Q2709-91 1959-91q-753 0-1180 489-426 490-426 1349 0 862 426 1349 427 488 1180 488z" transform="scale(.01563)"/><path id="DejaVuSans-6c" d="M603 4863h575V0H603v4863z" transform="scale(.01563)"/><path id="DejaVuSans-53" d="M3425 4513v-616q-359 172-678 256-319 85-616 85-515 0-795-200t-280-569q0-310 186-468 186-157 705-254l381-78q706-135 1042-474t336-907q0-679-455-1029Q2797-91 1919-91q-331 0-705 75-373 75-773 222v650q384-215 753-325 369-109 725-109 540 0 834 212 294 213 294 607 0 343-211 537t-692 291l-385 75q-706 140-1022 440-315 300-315 835 0 619 436 975t1201 356q329 0 669-60 341-59 697-177z" transform="scale(.01563)"/><path id="DejaVuSans-70" d="M1159 525v-1856H581v4831h578v-531q182 312 458 463 277 152 661 152 638 0 1036-506 399-506 399-1331T3314 415Q2916-91 2278-91q-384 0-661 152-276 152-458 464zm1957 1222q0 634-261 995t-717 361q-457 0-718-361t-261-995q0-634 261-995t718-361q456 0 717 361t261 995z" transform="scale(.01563)"/><path id="DejaVuSans-67" d="M2906 1791q0 625-258 968-257 344-723 344-462 0-720-344-258-343-258-968 0-622 258-966t720-344q466 0 723 344 258 344 258 966zm575-1357q0-893-397-1329-396-436-1215-436-303 0-572 45t-522 139v559q253-137 500-202 247-66 503-66 566 0 847 295t281 892v285q-178-310-456-463T1784 0Q1141 0 747 490 353 981 353 1791q0 812 394 1302 394 491 1037 491 388 0 666-153t456-462v531h575V434z" transform="scale(.01563)"/><path id="DejaVuSans-75" d="M544 1381v2119h575V1403q0-497 193-746 194-248 582-248 465 0 735 297 271 297 271 810v1984h575V0h-575v538q-209-319-486-474-276-155-642-155-603 0-916 375-312 375-312 1097zm1447 2203z" transform="scale(.01563)"/><path id="DejaVuSans-79" d="M2059-325q-243-625-475-815-231-191-618-191H506v481h338q237 0 368 113 132 112 291 531l103 262L191 3500h609L1894 763l1094 2737h609L2059-325z" transform="scale(.01563)"/></defs><use xlink:href="#DejaVuSans-49"/><use xlink:href="#DejaVuSans-6e" x="29.492"/><use xlink:href="#DejaVuSans-74" x="92.871"/><use xlink:href="#DejaVuSans-65" x="132.08"/><use xlink:href="#DejaVuSans-72" x="193.604"/><use xlink:href="#DejaVuSans-6e" x="232.967"/><use xlink:href="#DejaVuSans-61" x="296.346"/><use xlink:href="#DejaVuSans-74" x="357.625"/><use xlink:href="#DejaVuSans-69" x="396.834"/><use xlink:href="#DejaVuSans-6f" x="424.617"/><use xlink:href="#DejaVuSans-6e" x="485.799"/><use xlink:href="#DejaVuSans-61" x="549.178"/><use xlink:href="#DejaVuSans-6c" x="610.457"/><use xlink:href="#DejaVuSans-20" x="638.24"/><use xlink:href="#DejaVuSans-53" x="670.027"/><use xlink:href="#DejaVuSans-70" x="733.504"/><use xlink:href="#DejaVuSans-61" x="796.98"/><use xlink:href="#DejaVuSans-63" x="858.26"/><use xlink:href="#DejaVuSans-65" x="913.24"/><use xlink:href="#DejaVuSans-67" x="974.764"/><use xlink:href="#DejaVuSans-72" x="1038.24"/><use xlink:href="#DejaVuSans-6f" x="1077.104"/><use xlink:href="#DejaVuSans-75" x="1138.285"/><use xlink:href="#DejaVuSans-70" x="1201.664"/><use xlink:href="#DejaVuSans-20" x="1265.141"/><use xlink:href="#DejaVuSans-53" x="1296.928"/><use xlink:href="#DejaVuSans-79" x="1360.404"/><use xlink:href="#DejaVuSans-6d" x="1419.584"/><use xlink:href="#DejaVuSans-62" x="1516.996"/><use xlink:href="#DejaVuSans-6f" x="1580.473"/><use xlink:href="#DejaVuSans-6c" x="1641.654"/></g></g><g id="matplotlib.axis_2"><g id="ytick_1"><path id="line2d_21" d="M46.966 268.317h892.8" clip-path="url(#p59aa5e99ab)" style="fill:none;stroke:#b0b0b0;stroke-linecap:square;stroke-width:.8"/><g id="line2d_22"><defs><path id="m6266a20886" d="M0 0h-3.5" style="stroke:#000;stroke-width:.8"/></defs><use xlink:href="#m6266a20886" x="46.966" y="268.317" style="stroke:#000;stroke-width:.8"/></g><g id="text_22" transform="matrix(.1 0 0 -.1 33.603 272.116)"><defs><path id="DejaVuSans-30" d="M2034 4250q-487 0-733-480-245-479-245-1442 0-959 245-1439 246-480 733-480 491 0 736 480 246 480 246 1439 0 963-246 1442-245 480-736 480zm0 500q785 0 1199-621 414-620 414-1801 0-1178-414-1799Q2819-91 2034-91q-784 0-1198 620-414 621-414 1799 0 1181 414 1801 414 621 1198 621z" transform="scale(.01563)"/></defs><use xlink:href="#DejaVuSans-30"/></g></g><g id="ytick_2"><path id="line2d_23" d="M46.966 240.142h892.8" clip-path="url(#p59aa5e99ab)" style="fill:none;stroke:#b0b0b0;stroke-linecap:square;stroke-width:.8"/><use xlink:href="#m6266a20886" id="line2d_24" x="46.966" y="240.142" style="stroke:#000;stroke-width:.8"/><g id="text_23" transform="matrix(.1 0 0 -.1 27.24 243.941)"><use xlink:href="#DejaVuSans-32"/><use xlink:href="#DejaVuSans-30" x="63.623"/></g></g><g id="ytick_3"><path id="line2d_25" d="M46.966 211.967h892.8" clip-path="url(#p59aa5e99ab)" style="fill:none;stroke:#b0b0b0;stroke-linecap:square;stroke-width:.8"/><use xlink:href="#m6266a20886" id="line2d_26" x="46.966" y="211.967" style="stroke:#000;stroke-width:.8"/><g id="text_24" transform="matrix(.1 0 0 -.1 27.24 215.767)"><use xlink:href="#DejaVuSans-34"/><use xlink:href="#DejaVuSans-30" x="63.623"/></g></g><g id="ytick_4"><path id="line2d_27" d="M46.966 183.792h892.8" clip-path="url(#p59aa5e99ab)" style="fill:none;stroke:#b0b0b0;stroke-linecap:square;stroke-width:.8"/><use xlink:href="#m6266a20886" id="line2d_28" x="46.966" y="183.792" style="stroke:#000;stroke-width:.8"/><g id="text_25" transform="matrix(.1 0 0 -.1 27.24 187.592)"><use xlink:href="#DejaVuSans-36"/><use xlink:href="#DejaVuSans-30" x="63.623"/></g></g><g id="ytick_5"><path id="line2d_29" d="M46.966 155.617h892.8" clip-path="url(#p59aa5e99ab)" style="fill:none;stroke:#b0b0b0;stroke-linecap:square;stroke-width:.8"/><use xlink:href="#m6266a20886" id="line2d_30" x="46.966" y="155.617" style="stroke:#000;stroke-width:.8"/><g id="text_26" transform="matrix(.1 0 0 -.1 27.24 159.417)"><defs><path id="DejaVuSans-38" d="M2034 2216q-450 0-708-241-257-241-257-662 0-422 257-663 258-241 708-241t709 242q260 243 260 662 0 421-258 662-257 241-711 241zm-631 268q-406 100-633 378-226 279-226 679 0 559 398 884 399 325 1092 325 697 0 1094-325t397-884q0-400-227-679-226-278-629-378 456-106 710-416 255-309 255-755 0-679-414-1042Q2806-91 2034-91q-771 0-1186 362-414 363-414 1042 0 446 256 755 257 310 713 416zm-231 997q0-362 226-565 227-203 636-203 407 0 636 203 230 203 230 565 0 363-230 566-229 203-636 203-409 0-636-203-226-203-226-566z" transform="scale(.01563)"/></defs><use xlink:href="#DejaVuSans-38"/><use xlink:href="#DejaVuSans-30" x="63.623"/></g></g><g id="ytick_6"><path id="line2d_31" d="M46.966 127.443h892.8" clip-path="url(#p59aa5e99ab)" style="fill:none;stroke:#b0b0b0;stroke-linecap:square;stroke-width:.8"/><use xlink:href="#m6266a20886" id="line2d_32" x="46.966" y="127.443" style="stroke:#000;stroke-width:.8"/><g id="text_27" transform="matrix(.1 0 0 -.1 20.878 131.242)"><use xlink:href="#DejaVuSans-31"/><use xlink:href="#DejaVuSans-30" x="63.623"/><use xlink:href="#DejaVuSans-30" x="127.246"/></g></g><g id="ytick_7"><path id="line2d_33" d="M46.966 99.268h892.8" clip-path="url(#p59aa5e99ab)" style="fill:none;stroke:#b0b0b0;stroke-linecap:square;stroke-width:.8"/><use xlink:href="#m6266a20886" id="line2d_34" x="46.966" y="99.268" style="stroke:#000;stroke-width:.8"/><g id="text_28" transform="matrix(.1 0 0 -.1 20.878 103.067)"><use xlink:href="#DejaVuSans-31"/><use xlink:href="#DejaVuSans-32" x="63.623"/><use xlink:href="#DejaVuSans-30" x="127.246"/></g></g><g id="ytick_8"><path id="line2d_35" d="M46.966 71.093h892.8" clip-path="url(#p59aa5e99ab)" style="fill:none;stroke:#b0b0b0;stroke-linecap:square;stroke-width:.8"/><use xlink:href="#m6266a20886" id="line2d_36" x="46.966" y="71.093" style="stroke:#000;stroke-width:.8"/><g id="text_29" transform="matrix(.1 0 0 -.1 20.878 74.892)"><use xlink:href="#DejaVuSans-31"/><use xlink:href="#DejaVuSans-34" x="63.623"/><use xlink:href="#DejaVuSans-30" x="127.246"/></g></g><g id="text_30" transform="matrix(0 -.1 -.1 0 14.798 174.446)"><use xlink:href="#DejaVuSans-43"/><use xlink:href="#DejaVuSans-6f" x="69.824"/><use xlink:href="#DejaVuSans-75" x="131.006"/><use xlink:href="#DejaVuSans-6e" x="194.385"/><use xlink:href="#DejaVuSans-74" x="257.764"/></g></g><path id="patch_96" d="M46.966 268.317V50.877" style="fill:none;stroke:#000;stroke-linecap:square;stroke-linejoin:miter;stroke-width:.8"/><path id="patch_97" d="M939.766 268.317V50.877" style="fill:none;stroke:#000;stroke-linecap:square;stroke-linejoin:miter;stroke-width:.8"/><path id="patch_98" d="M46.966 268.317h892.8" style="fill:none;stroke:#000;stroke-linecap:square;stroke-linejoin:miter;stroke-width:.8"/><path id="patch_99" d="M46.966 50.877h892.8" style="fill:none;stroke:#000;stroke-linecap:square;stroke-linejoin:miter;stroke-width:.8"/><g id="text_31" transform="matrix(0 -.14 -.14 0 67.079 112.819)"><use xlink:href="#DejaVuSans-74"/><use xlink:href="#DejaVuSans-72" x="39.209"/><use xlink:href="#DejaVuSans-69" x="80.322"/><use xlink:href="#DejaVuSans-63" x="108.105"/><use xlink:href="#DejaVuSans-6c" x="163.086"/><use xlink:href="#DejaVuSans-69" x="190.869"/><use xlink:href="#DejaVuSans-6e" x="218.652"/><use xlink:href="#DejaVuSans-69" x="282.031"/><use xlink:href="#DejaVuSans-63" x="309.814"/></g><g id="text_32" transform="matrix(.12 0 0 -.12 39.474 46.528)"><defs><path id="DejaVuSans-28" d="M1984 4856q-418-718-622-1422-203-703-203-1425 0-721 205-1429t620-1424h-500Q1016-109 783 600T550 2009q0 697 231 1403 232 707 703 1444h500z" transform="scale(.01563)"/><path id="DejaVuSans-25" d="M4653 2053q-272 0-427-231-154-231-154-644 0-406 154-639 155-233 427-233 266 0 420 233 155 233 155 639 0 410-155 642-154 233-420 233zm0 397q494 0 784-344 291-343 291-928 0-584-292-927-292-342-783-342-500 0-791 342-290 343-290 927 0 588 292 930t789 342zM1428 4353q-269 0-424-233-154-232-154-639 0-412 153-644 153-231 425-231t426 231q155 232 155 644 0 403-156 637-156 235-425 235zm2822 397h500L1831-91h-500l2919 4841zm-2822 0q494 0 787-342 294-342 294-927 0-590-292-931t-789-341q-497 0-786 342-289 343-289 930 0 582 290 925 291 344 785 344z" transform="scale(.01563)"/><path id="DejaVuSans-29" d="M513 4856h500q468-737 701-1444 233-706 233-1403 0-700-233-1409T1013-844H513q415 716 620 1424t205 1429q0 722-205 1425-205 704-620 1422z" transform="scale(.01563)"/></defs><use xlink:href="#DejaVuSans-31"/><use xlink:href="#DejaVuSans-38" x="63.623"/><use xlink:href="#DejaVuSans-20" x="127.246"/><use xlink:href="#DejaVuSans-28" x="159.033"/><use xlink:href="#DejaVuSans-31" x="198.047"/><use xlink:href="#DejaVuSans-25" x="261.67"/><use xlink:href="#DejaVuSans-29" x="356.689"/></g><g id="text_33" transform="matrix(0 -.14 -.14 0 124.432 137.327)"><use xlink:href="#DejaVuSans-6d"/><use xlink:href="#DejaVuSans-6f" x="97.412"/><use xlink:href="#DejaVuSans-6e" x="158.594"/><use xlink:href="#DejaVuSans-6f" x="221.973"/><use xlink:href="#DejaVuSans-63" x="283.154"/><use xlink:href="#DejaVuSans-6c" x="338.135"/><use xlink:href="#DejaVuSans-69" x="365.918"/><use xlink:href="#DejaVuSans-6e" x="393.701"/><use xlink:href="#DejaVuSans-69" x="457.08"/><use xlink:href="#DejaVuSans-63" x="484.863"/></g><g id="text_34" transform="matrix(.12 0 0 -.12 89.192 46.528)"><use xlink:href="#DejaVuSans-31"/><use xlink:href="#DejaVuSans-34" x="63.623"/><use xlink:href="#DejaVuSans-30" x="127.246"/><use xlink:href="#DejaVuSans-20" x="190.869"/><use xlink:href="#DejaVuSans-28" x="222.656"/><use xlink:href="#DejaVuSans-31" x="261.67"/><use xlink:href="#DejaVuSans-31" x="325.293"/><use xlink:href="#DejaVuSans-25" x="388.916"/><use xlink:href="#DejaVuSans-29" x="483.936"/></g><g id="text_35" transform="matrix(0 -.14 -.14 0 296.492 156.059)"><defs><path id="DejaVuSans-68" d="M3513 2113V0h-575v2094q0 497-194 743-194 247-581 247-466 0-735-297-269-296-269-809V0H581v4863h578V2956q207 316 486 472 280 156 646 156 603 0 912-373 310-373 310-1098z" transform="scale(.01563)"/></defs><use xlink:href="#DejaVuSans-6f"/><use xlink:href="#DejaVuSans-72" x="61.182"/><use xlink:href="#DejaVuSans-74" x="102.295"/><use xlink:href="#DejaVuSans-68" x="141.504"/><use xlink:href="#DejaVuSans-6f" x="204.883"/><use xlink:href="#DejaVuSans-72" x="266.064"/><use xlink:href="#DejaVuSans-68" x="305.428"/><use xlink:href="#DejaVuSans-6f" x="368.807"/><use xlink:href="#DejaVuSans-6d" x="429.988"/><use xlink:href="#DejaVuSans-62" x="527.4"/><use xlink:href="#DejaVuSans-69" x="590.877"/><use xlink:href="#DejaVuSans-63" x="618.66"/></g><g id="text_36" transform="matrix(.12 0 0 -.12 261.252 46.528)"><defs><path id="DejaVuSans-37" d="M525 4666h3000v-269L1831 0h-659l1594 4134H525v532z" transform="scale(.01563)"/><path id="DejaVuSans-39" d="M703 97v575q238-113 481-172 244-59 479-59 625 0 954 420 330 420 377 1277-181-269-460-413-278-144-615-144-700 0-1108 423-408 424-408 1159 0 718 425 1152 425 435 1131 435 810 0 1236-621 427-620 427-1801 0-1103-524-1761Q2575-91 1691-91q-238 0-482 47Q966 3 703 97zm1256 1978q425 0 673 290 249 291 249 798 0 503-249 795-248 292-673 292t-673-292q-248-292-248-795 0-507 248-798 248-290 673-290z" transform="scale(.01563)"/></defs><use xlink:href="#DejaVuSans-31"/><use xlink:href="#DejaVuSans-37" x="63.623"/><use xlink:href="#DejaVuSans-39" x="127.246"/><use xlink:href="#DejaVuSans-20" x="190.869"/><use xlink:href="#DejaVuSans-28" x="222.656"/><use xlink:href="#DejaVuSans-31" x="261.67"/><use xlink:href="#DejaVuSans-34" x="325.293"/><use xlink:href="#DejaVuSans-25" x="388.916"/><use xlink:href="#DejaVuSans-29" x="483.936"/></g><g id="text_37" transform="matrix(0 -.14 -.14 0 545.023 134.47)"><use xlink:href="#DejaVuSans-74"/><use xlink:href="#DejaVuSans-65" x="39.209"/><use xlink:href="#DejaVuSans-74" x="100.732"/><use xlink:href="#DejaVuSans-72" x="139.941"/><use xlink:href="#DejaVuSans-61" x="181.055"/><use xlink:href="#DejaVuSans-67" x="242.334"/><use xlink:href="#DejaVuSans-6f" x="305.811"/><use xlink:href="#DejaVuSans-6e" x="366.992"/><use xlink:href="#DejaVuSans-61" x="430.371"/><use xlink:href="#DejaVuSans-6c" x="491.65"/></g><g id="text_38" transform="matrix(.12 0 0 -.12 509.783 46.528)"><use xlink:href="#DejaVuSans-32"/><use xlink:href="#DejaVuSans-38" x="63.623"/><use xlink:href="#DejaVuSans-30" x="127.246"/><use xlink:href="#DejaVuSans-20" x="190.869"/><use xlink:href="#DejaVuSans-28" x="222.656"/><use xlink:href="#DejaVuSans-32" x="261.67"/><use xlink:href="#DejaVuSans-32" x="325.293"/><use xlink:href="#DejaVuSans-25" x="388.916"/><use xlink:href="#DejaVuSans-29" x="483.936"/></g><g id="text_39" transform="matrix(0 -.14 -.14 0 736.2 115.678)"><use xlink:href="#DejaVuSans-74"/><use xlink:href="#DejaVuSans-72" x="39.209"/><use xlink:href="#DejaVuSans-69" x="80.322"/><use xlink:href="#DejaVuSans-67" x="108.105"/><use xlink:href="#DejaVuSans-6f" x="171.582"/><use xlink:href="#DejaVuSans-6e" x="232.764"/><use xlink:href="#DejaVuSans-61" x="296.143"/><use xlink:href="#DejaVuSans-6c" x="357.422"/></g><g id="text_40" transform="matrix(.12 0 0 -.12 700.96 46.528)"><defs><path id="DejaVuSans-35" d="M691 4666h2478v-532H1269V2991q137 47 274 70 138 23 276 23 781 0 1237-428 457-428 457-1159 0-753-469-1171Q2575-91 1722-91q-294 0-599 50Q819 9 494 109v635q281-153 581-228t634-75q541 0 856 284 316 284 316 772 0 487-316 771-315 285-856 285-253 0-505-56-251-56-513-175v2344z" transform="scale(.01563)"/></defs><use xlink:href="#DejaVuSans-32"/><use xlink:href="#DejaVuSans-36" x="63.623"/><use xlink:href="#DejaVuSans-35" x="127.246"/><use xlink:href="#DejaVuSans-20" x="190.869"/><use xlink:href="#DejaVuSans-28" x="222.656"/><use xlink:href="#DejaVuSans-32" x="261.67"/><use xlink:href="#DejaVuSans-31" x="325.293"/><use xlink:href="#DejaVuSans-25" x="388.916"/><use xlink:href="#DejaVuSans-29" x="483.936"/></g><g id="text_41" transform="matrix(0 -.14 -.14 0 827.01 134.652)"><defs><path id="DejaVuSans-78" d="M3513 3500 2247 1797 3578 0h-678L1881 1375 863 0H184l1360 1831L300 3500h678l928-1247 928 1247h679z" transform="scale(.01563)"/></defs><use xlink:href="#DejaVuSans-68"/><use xlink:href="#DejaVuSans-65" x="63.379"/><use xlink:href="#DejaVuSans-78" x="123.152"/><use xlink:href="#DejaVuSans-61" x="182.332"/><use xlink:href="#DejaVuSans-67" x="243.611"/><use xlink:href="#DejaVuSans-6f" x="307.088"/><use xlink:href="#DejaVuSans-6e" x="368.27"/><use xlink:href="#DejaVuSans-61" x="431.648"/><use xlink:href="#DejaVuSans-6c" x="492.928"/></g><g id="text_42" transform="matrix(.12 0 0 -.12 799.405 46.528)"><use xlink:href="#DejaVuSans-39"/><use xlink:href="#DejaVuSans-39" x="63.623"/><use xlink:href="#DejaVuSans-20" x="127.246"/><use xlink:href="#DejaVuSans-28" x="159.033"/><use xlink:href="#DejaVuSans-38" x="198.047"/><use xlink:href="#DejaVuSans-25" x="261.67"/><use xlink:href="#DejaVuSans-29" x="356.689"/></g><g id="text_43" transform="matrix(0 -.14 -.14 0 898.702 98.794)"><use xlink:href="#DejaVuSans-63"/><use xlink:href="#DejaVuSans-75" x="54.98"/><use xlink:href="#DejaVuSans-62" x="118.359"/><use xlink:href="#DejaVuSans-69" x="181.836"/><use xlink:href="#DejaVuSans-63" x="209.619"/></g><g id="text_44" transform="matrix(.12 0 0 -.12 863.462 46.528)"><use xlink:href="#DejaVuSans-32"/><use xlink:href="#DejaVuSans-38" x="63.623"/><use xlink:href="#DejaVuSans-34" x="127.246"/><use xlink:href="#DejaVuSans-20" x="190.869"/><use xlink:href="#DejaVuSans-28" x="222.656"/><use xlink:href="#DejaVuSans-32" x="261.67"/><use xlink:href="#DejaVuSans-32" x="325.293"/><use xlink:href="#DejaVuSans-25" x="388.916"/><use xlink:href="#DejaVuSans-29" x="483.936"/></g><g id="text_45" transform="matrix(.18 0 0 -.18 381.383 20.877)"><defs><path id="DejaVuSans-54" d="M-19 4666h3947v-532H2272V0h-634v4134H-19v532z" transform="scale(.01563)"/><path id="DejaVuSans-73" d="M2834 3397v-544q-243 125-506 187-262 63-544 63-428 0-642-131t-214-394q0-200 153-314t616-217l197-44q612-131 870-370t258-667q0-488-386-773Q2250-91 1575-91q-281 0-586 55T347 128v594q319-166 628-249 309-82 613-82 406 0 624 139 219 139 219 392 0 234-158 359-157 125-692 241l-200 47q-534 112-772 345-237 233-237 639 0 494 350 762 350 269 994 269 318 0 599-47 282-46 519-140z" transform="scale(.01563)"/></defs><use xlink:href="#DejaVuSans-54"/><use xlink:href="#DejaVuSans-6f" x="44.084"/><use xlink:href="#DejaVuSans-74" x="105.266"/><use xlink:href="#DejaVuSans-61" x="144.475"/><use xlink:href="#DejaVuSans-6c" x="205.754"/><use xlink:href="#DejaVuSans-73" x="233.537"/><use xlink:href="#DejaVuSans-20" x="285.637"/><use xlink:href="#DejaVuSans-70" x="317.424"/><use xlink:href="#DejaVuSans-65" x="380.9"/><use xlink:href="#DejaVuSans-72" x="442.424"/><use xlink:href="#DejaVuSans-20" x="483.537"/><use xlink:href="#DejaVuSans-63" x="515.324"/><use xlink:href="#DejaVuSans-72" x="570.305"/><use xlink:href="#DejaVuSans-79" x="611.418"/><use xlink:href="#DejaVuSans-73" x="670.598"/><use xlink:href="#DejaVuSans-74" x="722.697"/><use xlink:href="#DejaVuSans-61" x="761.906"/><use xlink:href="#DejaVuSans-6c" x="823.186"/><use xlink:href="#DejaVuSans-20" x="850.969"/><use xlink:href="#DejaVuSans-73" x="882.756"/><use xlink:href="#DejaVuSans-79" x="934.855"/><use xlink:href="#DejaVuSans-73" x="994.035"/><use xlink:href="#DejaVuSans-74" x="1046.135"/><use xlink:href="#DejaVuSans-65" x="1085.344"/><use xlink:href="#DejaVuSans-6d" x="1146.867"/></g></g></g><defs><clipPath id="p59aa5e99ab"><path d="M46.966 50.877h892.8v217.44h-892.8z"/></clipPath></defs></svg>