<svg xmlns="http://www.w3.org/2000/svg" width="700" height="500" class="main-svg"><path d="M0 0h700v500H0z" style="fill:#fff;fill-opacity:1"/><defs><clipPath id="a" class="plotclip"><path d="M0 0h643v404H0z"/></clipPath><clipPath id="b" class="axesclip"><path d="M56 0h643v500H56z"/></clipPath></defs><g class="cartesianlayer"><g class="subplot xy"><g class="gridlayer"><g class="y"><path d="M56 0h643" class="ygrid crisp" style="stroke:#d3d3d3;stroke-opacity:1;stroke-width:1px" transform="translate(0 391.53)"/><path d="M56 0h643" class="ygrid crisp" style="stroke:#d3d3d3;stroke-opacity:1;stroke-width:1px" transform="translate(0 339.06)"/><path d="M56 0h643" class="ygrid crisp" style="stroke:#d3d3d3;stroke-opacity:1;stroke-width:1px" transform="translate(0 286.6)"/><path d="M56 0h643" class="ygrid crisp" style="stroke:#d3d3d3;stroke-opacity:1;stroke-width:1px" transform="translate(0 234.13)"/><path d="M56 0h643" class="ygrid crisp" style="stroke:#d3d3d3;stroke-opacity:1;stroke-width:1px" transform="translate(0 181.66)"/><path d="M56 0h643" class="ygrid crisp" style="stroke:#d3d3d3;stroke-opacity:1;stroke-width:1px" transform="translate(0 129.19)"/><path d="M56 0h643" class="ygrid crisp" style="stroke:#d3d3d3;stroke-opacity:1;stroke-width:1px" transform="translate(0 76.73)"/></g></g><g class="zerolinelayer"><path d="M56 0h643" class="yzl zl crisp" style="stroke:#ebf0f8;stroke-opacity:1;stroke-width:2px" transform="translate(0 444)"/></g><g class="plot" clip-path="url(#a)" transform="translate(56 40)"><g class="barlayer mlayer"><g class="trace bars" style="opacity:1"><g class="points"><path d="M-2.8 404v-34.1h5.6V404Zm6.99 0v-13.12h5.59V404Z" class="point" style="vector-effect:none;opacity:1;stroke-width:.5px;fill:red;fill-opacity:1;stroke:#fff;stroke-opacity:1"/></g></g><g class="trace bars" style="opacity:1"><g class="points"><path d="M11.18 404v-5.25h5.59V404Zm6.99 0v-5.25h5.59V404Zm6.99 0v-2.62h5.59V404Zm6.99 0v-13.12h5.59V404Zm6.99 0v-26.23h5.59V404Zm6.99 0v-57.71h5.59V404Zm6.99 0V283.32h5.59V404Zm6.99 0v-13.12h5.59V404Zm6.99 0v-47.22h5.59V404Zm6.98 0v-76.08h5.6V404Z" class="point" style="vector-effect:none;opacity:1;stroke-width:.5px;fill:teal;fill-opacity:1;stroke:#fff;stroke-opacity:1"/></g></g><g class="trace bars" style="opacity:1"><g class="points"><path d="M81.07 404v-2.62h5.6V404Zm6.99 0v-5.25h5.59V404Zm6.99 0v-2.62h5.59V404Zm6.99 0v-2.62h5.59V404Zm6.99 0v-2.62h5.59V404Zm6.99 0v-7.87h5.59V404Zm6.99 0v-7.87h5.59V404Zm6.99 0v-5.25h5.59V404Zm6.99 0v-60.34h5.59V404Zm6.99 0v-2.62h5.59V404Zm6.99 0v-7.87h5.59V404Zm6.98 0v-2.62h5.6V404Zm6.99 0v-5.25h5.59V404Zm6.99 0v-2.62h5.59V404Zm6.99 0v-5.25h5.59V404Zm6.99 0v-36.73h5.59V404Zm6.99 0v-5.25h5.59V404Zm6.99 0v-36.73h5.59V404Zm6.99 0V275.45h5.59V404Zm6.99 0v-5.25h5.59V404Zm6.99 0v-13.12h5.59V404Zm6.99 0v-2.62h5.59V404Zm6.98 0v-13.12h5.6V404Zm6.99 0v-44.6h5.6V404Zm6.99 0v-55.09h5.59V404Zm6.99 0v-5.25h5.59V404Z" class="point" style="vector-effect:none;opacity:1;stroke-width:.5px;fill:#00f;fill-opacity:1;stroke:#fff;stroke-opacity:1"/></g></g><g class="trace bars" style="opacity:1"><g class="points"><path d="M262.79 404v-97.06h5.59V404Zm6.99 0v-10.49h5.59V404Zm6.99 0v-20.99h5.59V404Zm6.99 0v-5.25h5.59V404Zm6.99 0v-5.25h5.59V404Zm6.99 0v-2.62h5.59V404Zm6.99 0v-2.62h5.59V404Zm6.99 0v-7.87h5.59V404Zm6.98 0v-2.62h5.6V404Zm6.99 0v-5.25h5.59V404Zm6.99 0v-5.25h5.59V404Zm6.99 0v-2.62h5.59V404Zm6.99 0v-7.87h5.59V404Zm6.99 0v-2.62h5.59V404Zm6.99 0v-13.12h5.59V404Zm6.99 0v-26.23h5.59V404Zm6.99 0V301.69h5.59V404Zm6.99 0v-26.23h5.59V404Zm6.99 0v-2.62h5.59V404Zm6.98 0V278.08h5.6V404Zm6.99 0v-5.25h5.6V404Zm6.99 0v-18.36h5.59V404Zm6.99 0v-2.62h5.59V404Zm6.99 0V243.97h5.59V404Zm6.99 0v-39.35h5.59V404Zm6.99 0v-34.1h5.59V404Z" class="point" style="vector-effect:none;opacity:1;stroke-width:.5px;fill:green;fill-opacity:1;stroke:#fff;stroke-opacity:1"/></g></g><g class="trace bars" style="opacity:1"><g class="points"><path d="M444.51 404v-2.62h5.59V404Zm6.99 0v-5.25h5.59V404Zm6.99 0V285.95h5.59V404Zm6.99 0v-5.25h5.59V404Zm6.99 0v-15.74h5.59V404Zm6.98 0v-5.25h5.6V404Zm6.99 0v-13.12h5.59V404Zm6.99 0v-28.86h5.59V404Zm6.99 0v-36.73h5.59V404Zm6.99 0v-13.12H513V404Zm6.99 0v-34.1h5.59V404Zm6.99 0V259.71h5.59V404Zm6.99 0V178.39h5.59V404Zm6.99 0v-47.22h5.59V404Z" class="point" style="vector-effect:none;opacity:1;stroke-width:.5px;fill:orange;fill-opacity:1;stroke:#fff;stroke-opacity:1"/></g></g><g class="trace bars" style="opacity:1"><g class="points"><path d="M542.36 404v-5.25h5.59V404Zm6.99 0v-81.32h5.59V404Zm6.98 0v-15.74h5.6V404Zm6.99 0v-28.86h5.6V404Zm6.99 0V275.45h5.59V404Z" class="point" style="vector-effect:none;opacity:1;stroke-width:.5px;fill:purple;fill-opacity:1;stroke:#fff;stroke-opacity:1"/></g></g><g class="trace bars" style="opacity:1"><g class="points"><path d="M577.3 404v-10.49h5.59V404Zm6.99 0v-2.62h5.59V404Zm6.99 0v-10.49h5.59V404Zm6.99 0v-2.62h5.59V404Zm6.99 0v-28.86h5.59V404Zm6.99 0V225.61h5.59V404Zm6.99 0v-2.62h5.59V404Zm6.99 0V285.95h5.59V404Zm6.99 0V18.36h5.59V404Zm6.98 0v-5.25h5.6V404Z" class="point" style="vector-effect:none;opacity:1;stroke-width:.5px;fill:#8b0000;fill-opacity:1;stroke:#fff;stroke-opacity:1"/></g></g></g></g><path d="M55 444.5h645M55 39.5h645" class="xlines-above crisp" style="fill:none;stroke-width:1px;stroke:#000;stroke-opacity:1"/><path d="M55.5 40v404m644-404v404" class="ylines-above crisp" style="fill:none;stroke-width:1px;stroke:#000;stroke-opacity:1"/><g class="xaxislayer-above"><path d="M0 445v5" class="xtick ticks crisp" style="stroke:#444;stroke-opacity:1;stroke-width:1px" transform="translate(692.01)"/><path d="M0 445v5" class="xtick ticks crisp" style="stroke:#444;stroke-opacity:1;stroke-width:1px" transform="translate(587.17)"/><path d="M0 445v5" class="xtick ticks crisp" style="stroke:#444;stroke-opacity:1;stroke-width:1px" transform="translate(671.04)"/><path d="M0 445v5" class="xtick ticks crisp" style="stroke:#444;stroke-opacity:1;stroke-width:1px" transform="translate(482.34)"/><path d="M0 445v5" class="xtick ticks crisp" style="stroke:#444;stroke-opacity:1;stroke-width:1px" transform="translate(580.18)"/><path d="M0 445v5" class="xtick ticks crisp" style="stroke:#444;stroke-opacity:1;stroke-width:1px" transform="translate(265.67)"/><path d="M0 445v5" class="xtick ticks crisp" style="stroke:#444;stroke-opacity:1;stroke-width:1px" transform="translate(629.11)"/><path d="M0 445v5" class="xtick ticks crisp" style="stroke:#444;stroke-opacity:1;stroke-width:1px" transform="translate(454.38)"/><path d="M0 445v5" class="xtick ticks crisp" style="stroke:#444;stroke-opacity:1;stroke-width:1px" transform="translate(111.91)"/><path d="M0 445v5" class="xtick ticks crisp" style="stroke:#444;stroke-opacity:1;stroke-width:1px" transform="translate(517.28)"/><path d="M0 445v5" class="xtick ticks crisp" style="stroke:#444;stroke-opacity:1;stroke-width:1px" transform="translate(685.02)"/><path d="M0 445v5" class="xtick ticks crisp" style="stroke:#444;stroke-opacity:1;stroke-width:1px" transform="translate(433.41)"/><path d="M0 445v5" class="xtick ticks crisp" style="stroke:#444;stroke-opacity:1;stroke-width:1px" transform="translate(321.59)"/><path d="M0 445v5" class="xtick ticks crisp" style="stroke:#444;stroke-opacity:1;stroke-width:1px" transform="translate(608.14)"/><path d="M0 445v5" class="xtick ticks crisp" style="stroke:#444;stroke-opacity:1;stroke-width:1px" transform="translate(132.88)"/><path d="M0 445v5" class="xtick ticks crisp" style="stroke:#444;stroke-opacity:1;stroke-width:1px" transform="translate(195.78)"/><path d="M0 445v5" class="xtick ticks crisp" style="stroke:#444;stroke-opacity:1;stroke-width:1px" transform="translate(104.92)"/><path d="M0 445v5" class="xtick ticks crisp" style="stroke:#444;stroke-opacity:1;stroke-width:1px" transform="translate(307.61)"/><path d="M0 445v5" class="xtick ticks crisp" style="stroke:#444;stroke-opacity:1;stroke-width:1px" transform="translate(125.89)"/><path d="M0 445v5" class="xtick ticks crisp" style="stroke:#444;stroke-opacity:1;stroke-width:1px" transform="translate(594.16)"/><text x="2.1" y="458.4" class="xtick" style="font-family:&quot;Open Sans&quot;,verdana,arial,sans-serif;font-size:12px;fill:#2a3f5f;fill-opacity:1;white-space:pre;opacity:1" transform="rotate(90 295.685 745.985)">166</text><text x="2.1" y="458.4" class="xtick" style="font-family:&quot;Open Sans&quot;,verdana,arial,sans-serif;font-size:12px;fill:#2a3f5f;fill-opacity:1;white-space:pre;opacity:1" transform="rotate(90 337.62 787.92)">216</text><text x="2.1" y="458.4" class="xtick" style="font-family:&quot;Open Sans&quot;,verdana,arial,sans-serif;font-size:12px;fill:#2a3f5f;fill-opacity:1;white-space:pre;opacity:1" transform="rotate(90 243.27 693.57)">139</text><text x="2.1" y="458.4" class="xtick" style="font-family:&quot;Open Sans&quot;,verdana,arial,sans-serif;font-size:12px;fill:#2a3f5f;fill-opacity:1;white-space:pre;opacity:1" transform="rotate(90 292.19 742.49)">164</text><text x="2.1" y="458.4" class="xtick" style="font-family:&quot;Open Sans&quot;,verdana,arial,sans-serif;font-size:12px;fill:#2a3f5f;fill-opacity:1;white-space:pre;opacity:1" transform="rotate(90 134.935 585.235)">63</text><text x="2.1" y="458.4" class="xtick" style="font-family:&quot;Open Sans&quot;,verdana,arial,sans-serif;font-size:12px;fill:#2a3f5f;fill-opacity:1;white-space:pre;opacity:1" transform="rotate(90 316.655 766.955)">194</text><text x="2.1" y="458.4" class="xtick" style="font-family:&quot;Open Sans&quot;,verdana,arial,sans-serif;font-size:12px;fill:#2a3f5f;fill-opacity:1;white-space:pre;opacity:1" transform="rotate(90 229.29 679.59)">129</text><text x="2.1" y="458.4" class="xtick" style="font-family:&quot;Open Sans&quot;,verdana,arial,sans-serif;font-size:12px;fill:#2a3f5f;fill-opacity:1;white-space:pre;opacity:1" transform="rotate(90 58.055 508.355)">12</text><text x="2.1" y="458.4" class="xtick" style="font-family:&quot;Open Sans&quot;,verdana,arial,sans-serif;font-size:12px;fill:#2a3f5f;fill-opacity:1;white-space:pre;opacity:1" transform="rotate(90 260.74 711.04)">148</text><text x="2.1" y="458.4" class="xtick" style="font-family:&quot;Open Sans&quot;,verdana,arial,sans-serif;font-size:12px;fill:#2a3f5f;fill-opacity:1;white-space:pre;opacity:1" transform="rotate(90 344.61 794.91)">221</text><text x="2.1" y="458.4" class="xtick" style="font-family:&quot;Open Sans&quot;,verdana,arial,sans-serif;font-size:12px;fill:#2a3f5f;fill-opacity:1;white-space:pre;opacity:1" transform="rotate(90 218.805 669.105)">122</text><text x="2.1" y="458.4" class="xtick" style="font-family:&quot;Open Sans&quot;,verdana,arial,sans-serif;font-size:12px;fill:#2a3f5f;fill-opacity:1;white-space:pre;opacity:1" transform="rotate(90 162.895 613.195)">82</text><text x="2.1" y="458.4" class="xtick" style="font-family:&quot;Open Sans&quot;,verdana,arial,sans-serif;font-size:12px;fill:#2a3f5f;fill-opacity:1;white-space:pre;opacity:1" transform="rotate(90 306.17 756.47)">186</text><text x="2.1" y="458.4" class="xtick" style="font-family:&quot;Open Sans&quot;,verdana,arial,sans-serif;font-size:12px;fill:#2a3f5f;fill-opacity:1;white-space:pre;opacity:1" transform="rotate(90 68.54 518.84)">15</text><text x="2.1" y="458.4" class="xtick" style="font-family:&quot;Open Sans&quot;,verdana,arial,sans-serif;font-size:12px;fill:#2a3f5f;fill-opacity:1;white-space:pre;opacity:1" transform="rotate(90 99.99 550.29)">36</text><text x="2.1" y="458.4" class="xtick" style="font-family:&quot;Open Sans&quot;,verdana,arial,sans-serif;font-size:12px;fill:#2a3f5f;fill-opacity:1;white-space:pre;opacity:1" transform="rotate(90 54.56 504.86)">11</text><text x="2.1" y="458.4" class="xtick" style="font-family:&quot;Open Sans&quot;,verdana,arial,sans-serif;font-size:12px;fill:#2a3f5f;fill-opacity:1;white-space:pre;opacity:1" transform="rotate(90 155.905 606.205)">72</text><text x="2.1" y="458.4" class="xtick" style="font-family:&quot;Open Sans&quot;,verdana,arial,sans-serif;font-size:12px;fill:#2a3f5f;fill-opacity:1;white-space:pre;opacity:1" transform="rotate(90 65.045 515.345)">14</text><text x="2.1" y="458.4" class="xtick" style="font-family:&quot;Open Sans&quot;,verdana,arial,sans-serif;font-size:12px;fill:#2a3f5f;fill-opacity:1;white-space:pre;opacity:1" transform="rotate(90 299.18 749.48)">167</text></g><g class="yaxislayer-above"><path d="M55 0h-5" class="ytick ticks crisp" style="stroke:#444;stroke-opacity:1;stroke-width:1px" transform="translate(0 444)"/><path d="M55 0h-5" class="ytick ticks crisp" style="stroke:#444;stroke-opacity:1;stroke-width:1px" transform="translate(0 391.53)"/><path d="M55 0h-5" class="ytick ticks crisp" style="stroke:#444;stroke-opacity:1;stroke-width:1px" transform="translate(0 339.06)"/><path d="M55 0h-5" class="ytick ticks crisp" style="stroke:#444;stroke-opacity:1;stroke-width:1px" transform="translate(0 286.6)"/><path d="M55 0h-5" class="ytick ticks crisp" style="stroke:#444;stroke-opacity:1;stroke-width:1px" transform="translate(0 234.13)"/><path d="M55 0h-5" class="ytick ticks crisp" style="stroke:#444;stroke-opacity:1;stroke-width:1px" transform="translate(0 181.66)"/><path d="M55 0h-5" class="ytick ticks crisp" style="stroke:#444;stroke-opacity:1;stroke-width:1px" transform="translate(0 129.19)"/><path d="M55 0h-5" class="ytick ticks crisp" style="stroke:#444;stroke-opacity:1;stroke-width:1px" transform="translate(0 76.73)"/><text x="47.6" y="4.2" class="ytick" style="font-family:&quot;Open Sans&quot;,verdana,arial,sans-serif;font-size:12px;fill:#2a3f5f;fill-opacity:1;white-space:pre;opacity:1" text-anchor="end" transform="translate(0 444)">0</text><text x="47.6" y="4.2" class="ytick" style="font-family:&quot;Open Sans&quot;,verdana,arial,sans-serif;font-size:12px;fill:#2a3f5f;fill-opacity:1;white-space:pre;opacity:1" text-anchor="end" transform="translate(0 391.53)">20</text><text x="47.6" y="4.2" class="ytick" style="font-family:&quot;Open Sans&quot;,verdana,arial,sans-serif;font-size:12px;fill:#2a3f5f;fill-opacity:1;white-space:pre;opacity:1" text-anchor="end" transform="translate(0 339.06)">40</text><text x="47.6" y="4.2" class="ytick" style="font-family:&quot;Open Sans&quot;,verdana,arial,sans-serif;font-size:12px;fill:#2a3f5f;fill-opacity:1;white-space:pre;opacity:1" text-anchor="end" transform="translate(0 286.6)">60</text><text x="47.6" y="4.2" class="ytick" style="font-family:&quot;Open Sans&quot;,verdana,arial,sans-serif;font-size:12px;fill:#2a3f5f;fill-opacity:1;white-space:pre;opacity:1" text-anchor="end" transform="translate(0 234.13)">80</text><text x="47.6" y="4.2" class="ytick" style="font-family:&quot;Open Sans&quot;,verdana,arial,sans-serif;font-size:12px;fill:#2a3f5f;fill-opacity:1;white-space:pre;opacity:1" text-anchor="end" transform="translate(0 181.66)">100</text><text x="47.6" y="4.2" class="ytick" style="font-family:&quot;Open Sans&quot;,verdana,arial,sans-serif;font-size:12px;fill:#2a3f5f;fill-opacity:1;white-space:pre;opacity:1" text-anchor="end" transform="translate(0 129.19)">120</text><text x="47.6" y="4.2" class="ytick" style="font-family:&quot;Open Sans&quot;,verdana,arial,sans-serif;font-size:12px;fill:#2a3f5f;fill-opacity:1;white-space:pre;opacity:1" text-anchor="end" transform="translate(0 76.73)">140</text></g></g></g><g class="layer-above"><g class="shapelayer"><g class="shape-group" clip-path="url(#b)" data-index="0"><path fill-rule="evenodd" d="M56 444h13.98V40H56Z" data-index="0" style="opacity:.15;stroke:#2a3f5f;stroke-opacity:1;fill:red;fill-opacity:1;stroke-width:1px"/></g><g class="shape-group" clip-path="url(#b)" data-index="1"><path fill-rule="evenodd" d="M69.98 444h69.89V40H69.98Z" data-index="1" style="opacity:.15;stroke:#2a3f5f;stroke-opacity:1;fill:teal;fill-opacity:1;stroke-width:1px"/></g><g class="shape-group" clip-path="url(#b)" data-index="2"><path fill-rule="evenodd" d="M139.87 444h181.72V40H139.87Z" data-index="2" style="opacity:.15;stroke:#2a3f5f;stroke-opacity:1;fill:#00f;fill-opacity:1;stroke-width:1px"/></g><g class="shape-group" clip-path="url(#b)" data-index="3"><path fill-rule="evenodd" d="M321.59 444H503.3V40H321.59Z" data-index="3" style="opacity:.15;stroke:#2a3f5f;stroke-opacity:1;fill:green;fill-opacity:1;stroke-width:1px"/></g><g class="shape-group" clip-path="url(#b)" data-index="4"><path fill-rule="evenodd" d="M503.3 444h97.85V40H503.3Z" data-index="4" style="opacity:.15;stroke:#2a3f5f;stroke-opacity:1;fill:orange;fill-opacity:1;stroke-width:1px"/></g><g class="shape-group" clip-path="url(#b)" data-index="5"><path fill-rule="evenodd" d="M601.15 444h34.95V40h-34.95Z" data-index="5" style="opacity:.15;stroke:#2a3f5f;stroke-opacity:1;fill:purple;fill-opacity:1;stroke-width:1px"/></g><g class="shape-group" clip-path="url(#b)" data-index="6"><path fill-rule="evenodd" d="M636.1 444h69.89V40H636.1Z" data-index="6" style="opacity:.15;stroke:#2a3f5f;stroke-opacity:1;fill:#8b0000;fill-opacity:1;stroke-width:1px"/></g></g></g><g class="infolayer"><g class="g-gtitle"><text x="350" y="20" class="gtitle" dy="0em" style="font-family:&quot;Open Sans&quot;,verdana,arial,sans-serif;font-size:17px;fill:#2a3f5f;opacity:1;font-weight:400;white-space:pre" text-anchor="middle">Counts per crystal system</text></g><g class="g-xtitle"><text x="377.5" y="499.6" class="xtitle" style="font-family:&quot;Open Sans&quot;,verdana,arial,sans-serif;font-size:14px;fill:#2a3f5f;opacity:1;font-weight:400;white-space:pre" text-anchor="middle" transform="translate(0 -2.6)">International Spacegroup Number</text></g><g class="g-ytitle"><text x=".403" y="242" class="ytitle" style="font-family:&quot;Open Sans&quot;,verdana,arial,sans-serif;font-size:14px;fill:#2a3f5f;opacity:1;font-weight:400;white-space:pre" text-anchor="middle" transform="rotate(-90 7.201 235.202)">Counts</text></g><g class="annotation" data-index="0" style="opacity:1"><g class="annotation-text-g"><g class="cursor-pointer"><path fill="none" d="M.5.5h53v20H.5z" class="bg" style="stroke-width:1px;stroke:#000;stroke-opacity:0;fill:#000;fill-opacity:0" transform="rotate(90 16.49 56.5)"/><text x="27.156" y="16" class="annotation-text" style="font-family:&quot;Open Sans&quot;,verdana,arial,sans-serif;font-size:14px;fill:#2a3f5f;fill-opacity:1;white-space:pre" text-anchor="middle" transform="rotate(90 16.49 56.5)">triclinic</text></g></g></g><g class="annotation" data-index="1" style="opacity:1"><g class="annotation-text-g"><g class="cursor-pointer"><path fill="none" d="M.5.5h54v18H.5z" class="bg" style="stroke-width:1px;stroke:#000;stroke-opacity:0;fill:#000;fill-opacity:0" transform="translate(35 21)"/><text x="27.469" y="14" class="annotation-text" style="font-family:&quot;Open Sans&quot;,verdana,arial,sans-serif;font-size:12px;fill:#2a3f5f;fill-opacity:1;white-space:pre" text-anchor="middle" transform="translate(35 21)">18 (1%)</text></g></g></g><g class="annotation" data-index="2" style="opacity:1"><g class="annotation-text-g"><g class="cursor-pointer"><path fill="none" d="M.5.5h77v20H.5z" class="bg" style="stroke-width:1px;stroke:#000;stroke-opacity:0;fill:#000;fill-opacity:0" transform="rotate(90 37.42 77.5)"/><text x="39.234" y="16" class="annotation-text" style="font-family:&quot;Open Sans&quot;,verdana,arial,sans-serif;font-size:14px;fill:#2a3f5f;fill-opacity:1;white-space:pre" text-anchor="middle" transform="rotate(90 37.42 77.5)">monoclinic</text></g></g></g><g class="annotation" data-index="3" style="opacity:1"><g class="annotation-text-g"><g class="cursor-pointer"><path fill="none" d="M.5.5h69v18H.5z" class="bg" style="stroke-width:1px;stroke:#000;stroke-opacity:0;fill:#000;fill-opacity:0" transform="translate(70 5)"/><text x="35.094" y="14" class="annotation-text" style="font-family:&quot;Open Sans&quot;,verdana,arial,sans-serif;font-size:12px;fill:#2a3f5f;fill-opacity:1;white-space:pre" text-anchor="middle" transform="translate(70 5)">140 (11%)</text></g></g></g><g class="annotation" data-index="4" style="opacity:1"><g class="annotation-text-g"><g class="cursor-pointer"><path fill="none" d="M.5.5h97v20H.5z" class="bg" style="stroke-width:1px;stroke:#000;stroke-opacity:0;fill:#000;fill-opacity:0" transform="rotate(90 100.23 140.5)"/><text x="49.078" y="16" class="annotation-text" style="font-family:&quot;Open Sans&quot;,verdana,arial,sans-serif;font-size:14px;fill:#2a3f5f;fill-opacity:1;white-space:pre" text-anchor="middle" transform="rotate(90 100.23 140.5)">orthorhombic</text></g></g></g><g class="annotation" data-index="5" style="opacity:1"><g class="annotation-text-g"><g class="cursor-pointer"><path fill="none" d="M.5.5h69v18H.5z" class="bg" style="stroke-width:1px;stroke:#000;stroke-opacity:0;fill:#000;fill-opacity:0" transform="translate(196 21)"/><text x="35.094" y="14" class="annotation-text" style="font-family:&quot;Open Sans&quot;,verdana,arial,sans-serif;font-size:12px;fill:#2a3f5f;fill-opacity:1;white-space:pre" text-anchor="middle" transform="translate(196 21)">179 (14%)</text></g></g></g><g class="annotation" data-index="6" style="opacity:1"><g class="annotation-text-g"><g class="cursor-pointer"><path fill="none" d="M.5.5h75v20H.5z" class="bg" style="stroke-width:1px;stroke:#000;stroke-opacity:0;fill:#000;fill-opacity:0" transform="rotate(90 191.45 231)"/><text x="38.047" y="16" class="annotation-text" style="font-family:&quot;Open Sans&quot;,verdana,arial,sans-serif;font-size:14px;fill:#2a3f5f;fill-opacity:1;white-space:pre" text-anchor="middle" transform="rotate(90 191.45 231)">tetragonal</text></g></g></g><g class="annotation" data-index="7" style="opacity:1"><g class="annotation-text-g"><g class="cursor-pointer"><path fill="none" d="M.5.5h69v18H.5z" class="bg" style="stroke-width:1px;stroke:#000;stroke-opacity:0;fill:#000;fill-opacity:0" transform="translate(377 21)"/><text x="35.094" y="14" class="annotation-text" style="font-family:&quot;Open Sans&quot;,verdana,arial,sans-serif;font-size:12px;fill:#2a3f5f;fill-opacity:1;white-space:pre" text-anchor="middle" transform="translate(377 21)">280 (22%)</text></g></g></g><g class="annotation" data-index="8" style="opacity:1"><g class="annotation-text-g"><g class="cursor-pointer"><path fill="none" d="M.5.5h57v20H.5z" class="bg" style="stroke-width:1px;stroke:#000;stroke-opacity:0;fill:#000;fill-opacity:0" transform="rotate(90 261.23 301)"/><text x="28.844" y="16" class="annotation-text" style="font-family:&quot;Open Sans&quot;,verdana,arial,sans-serif;font-size:14px;fill:#2a3f5f;fill-opacity:1;white-space:pre" text-anchor="middle" transform="rotate(90 261.23 301)">trigonal</text></g></g></g><g class="annotation" data-index="9" style="opacity:1"><g class="annotation-text-g"><g class="cursor-pointer"><path fill="none" d="M.5.5h69v18H.5z" class="bg" style="stroke-width:1px;stroke:#000;stroke-opacity:0;fill:#000;fill-opacity:0" transform="translate(517 21)"/><text x="35.094" y="14" class="annotation-text" style="font-family:&quot;Open Sans&quot;,verdana,arial,sans-serif;font-size:12px;fill:#2a3f5f;fill-opacity:1;white-space:pre" text-anchor="middle" transform="translate(517 21)">265 (21%)</text></g></g></g><g class="annotation" data-index="10" style="opacity:1"><g class="annotation-text-g"><g class="cursor-pointer"><path fill="none" d="M.5.5h75v20H.5z" class="bg" style="stroke-width:1px;stroke:#000;stroke-opacity:0;fill:#000;fill-opacity:0" transform="rotate(90 294.13 334.5)"/><text x="38.125" y="16" class="annotation-text" style="font-family:&quot;Open Sans&quot;,verdana,arial,sans-serif;font-size:14px;fill:#2a3f5f;fill-opacity:1;white-space:pre" text-anchor="middle" transform="rotate(90 294.13 334.5)">hexagonal</text></g></g></g><g class="annotation" data-index="11" style="opacity:1"><g class="annotation-text-g"><g class="cursor-pointer"><path fill="none" d="M.5.5h54v18H.5z" class="bg" style="stroke-width:1px;stroke:#000;stroke-opacity:0;fill:#000;fill-opacity:0" transform="translate(591 5)"/><text x="27.469" y="14" class="annotation-text" style="font-family:&quot;Open Sans&quot;,verdana,arial,sans-serif;font-size:12px;fill:#2a3f5f;fill-opacity:1;white-space:pre" text-anchor="middle" transform="translate(591 5)">99 (8%)</text></g></g></g><g class="annotation" data-index="12" style="opacity:1"><g class="annotation-text-g"><g class="cursor-pointer"><path fill="none" d="M.5.5h39v20H.5z" class="bg" style="stroke-width:1px;stroke:#000;stroke-opacity:0;fill:#000;fill-opacity:0" transform="rotate(90 320.54 360.5)"/><text x="20.016" y="16" class="annotation-text" style="font-family:&quot;Open Sans&quot;,verdana,arial,sans-serif;font-size:14px;fill:#2a3f5f;fill-opacity:1;white-space:pre" text-anchor="middle" transform="rotate(90 320.54 360.5)">cubic</text></g></g></g><g class="annotation" data-index="13" style="opacity:1"><g class="annotation-text-g"><g class="cursor-pointer"><path fill="none" d="M.5.5h69v18H.5z" class="bg" style="stroke-width:1px;stroke:#000;stroke-opacity:0;fill:#000;fill-opacity:0" transform="translate(636 21)"/><text x="35.094" y="14" class="annotation-text" style="font-family:&quot;Open Sans&quot;,verdana,arial,sans-serif;font-size:12px;fill:#2a3f5f;fill-opacity:1;white-space:pre" text-anchor="middle" transform="translate(636 21)">284 (22%)</text></g></g></g></g></svg>