<svg height="464.398" viewBox="0 0 946.966 348.298" width="1262.621" xmlns="http://www.w3.org/2000/svg" xmlns:xlink="http://www.w3.org/1999/xlink"><defs><style>*{stroke-linecap:butt;stroke-linejoin:round}</style></defs><g id="figure_1"><path d="M0 348.298h946.966V0H0z" style="fill:none" id="patch_1"/><g id="axes_1"><path d="M46.966 268.317h892.8V50.877h-892.8z" style="fill:#fff" id="patch_2"/><g id="PolyCollection_1"><defs><path d="M44.578-297.421v217.44h19.098v-217.44H44.578z" id="mbbf132cfcc" style="stroke:#000;stroke-opacity:.1"/></defs><g clip-path="url(#p32c81d9236)"><use style="fill:red;fill-opacity:.1;stroke:#000;stroke-opacity:.1" xlink:href="#mbbf132cfcc" y="348.298"/></g></g><g id="PolyCollection_2"><defs><path d="M63.676-297.421v217.44h95.486v-217.44H63.676z" id="m81703eb4e6" style="stroke:#000;stroke-opacity:.1"/></defs><g clip-path="url(#p32c81d9236)"><use style="fill:teal;fill-opacity:.1;stroke:#000;stroke-opacity:.1" xlink:href="#m81703eb4e6" y="348.298"/></g></g><g id="PolyCollection_3"><defs><path d="M159.162-297.421v217.44h248.266v-217.44H159.162z" id="mc95fee23af" style="stroke:#000;stroke-opacity:.1"/></defs><g clip-path="url(#p32c81d9236)"><use style="fill:#00f;fill-opacity:.1;stroke:#000;stroke-opacity:.1" xlink:href="#mc95fee23af" y="348.298"/></g></g><g id="PolyCollection_4"><defs><path d="M407.428-297.421v217.44h248.265v-217.44H407.428z" id="m2af2f5ccdb" style="stroke:#000;stroke-opacity:.1"/></defs><g clip-path="url(#p32c81d9236)"><use style="fill:green;fill-opacity:.1;stroke:#000;stroke-opacity:.1" xlink:href="#m2af2f5ccdb" y="348.298"/></g></g><g id="PolyCollection_5"><defs><path d="M655.693-297.421v217.44h133.681v-217.44H655.693z" id="m3c25bfd655" style="stroke:#000;stroke-opacity:.1"/></defs><g clip-path="url(#p32c81d9236)"><use style="fill:orange;fill-opacity:.1;stroke:#000;stroke-opacity:.1" xlink:href="#m3c25bfd655" y="348.298"/></g></g><g id="PolyCollection_6"><defs><path d="M789.374-297.421v217.44h47.743v-217.44h-47.743z" id="m63d8b3dc0a" style="stroke:#000;stroke-opacity:.1"/></defs><g clip-path="url(#p32c81d9236)"><use style="fill:purple;fill-opacity:.1;stroke:#000;stroke-opacity:.1" xlink:href="#m63d8b3dc0a" y="348.298"/></g></g><g id="PolyCollection_7"><defs><path d="M837.117-297.421v217.44h95.487v-217.44h-95.487z" id="m0e53ee04d7" style="stroke:#000;stroke-opacity:.1"/></defs><g clip-path="url(#p32c81d9236)"><use style="fill:#ff0;fill-opacity:.1;stroke:#000;stroke-opacity:.1" xlink:href="#m0e53ee04d7" y="348.298"/></g></g><path clip-path="url(#p32c81d9236)" d="M49.353 268.317H58.9v-18.314h-9.548z" style="fill:red" id="patch_3"/><path clip-path="url(#p32c81d9236)" d="M58.901 268.317h9.55v-7.044H58.9z" style="fill:red" id="patch_4"/><path clip-path="url(#p32c81d9236)" d="M68.45 268.317H78v-40.853h-9.55z" style="fill:teal" id="patch_5"/><path clip-path="url(#p32c81d9236)" d="M77.999 268.317h9.548v-64.802H78z" style="fill:teal" id="patch_6"/><path clip-path="url(#p32c81d9236)" d="M87.547 268.317h9.55V254.23h-9.55z" style="fill:teal" id="patch_7"/><path clip-path="url(#p32c81d9236)" d="M97.096 268.317h9.549v-7.044h-9.549z" style="fill:teal" id="patch_8"/><path clip-path="url(#p32c81d9236)" d="M106.645 268.317h9.548V242.96h-9.548z" style="fill:teal" id="patch_9"/><path clip-path="url(#p32c81d9236)" d="M116.193 268.317h9.55v-1.409h-9.55z" style="fill:teal" id="patch_10"/><path clip-path="url(#p32c81d9236)" d="M125.742 268.317h9.549V265.5h-9.549z" style="fill:teal" id="patch_11"/><path clip-path="url(#p32c81d9236)" d="M135.29 268.317h9.55v-7.044h-9.55z" style="fill:teal" id="patch_12"/><path clip-path="url(#p32c81d9236)" d="M144.84 268.317h9.548v-30.992h-9.549z" style="fill:teal" id="patch_13"/><path clip-path="url(#p32c81d9236)" d="M154.388 268.317h9.549V265.5h-9.549z" style="fill:teal" id="patch_14"/><path clip-path="url(#p32c81d9236)" d="M163.937 268.317h9.548v-1.409h-9.548z" style="fill:#00f" id="patch_15"/><path clip-path="url(#p32c81d9236)" d="M173.485 268.317h9.55V265.5h-9.55z" style="fill:#00f" id="patch_16"/><path clip-path="url(#p32c81d9236)" d="M183.034 268.317h9.549v-4.226h-9.549z" style="fill:#00f" id="patch_17"/><path clip-path="url(#p32c81d9236)" d="M192.583 268.317h9.548V265.5h-9.548z" style="fill:#00f" id="patch_18"/><path clip-path="url(#p32c81d9236)" d="M202.131 268.317h9.55v-19.722h-9.55z" style="fill:#00f" id="patch_19"/><path clip-path="url(#p32c81d9236)" d="M211.68 268.317h9.549V265.5h-9.549z" style="fill:#00f" id="patch_20"/><path clip-path="url(#p32c81d9236)" d="M221.229 268.317h9.548v-1.409h-9.548z" style="fill:#00f" id="patch_21"/><path clip-path="url(#p32c81d9236)" d="M230.777 268.317h9.55v-1.409h-9.55z" style="fill:#00f" id="patch_22"/><path clip-path="url(#p32c81d9236)" d="M240.326 268.317h9.549v-4.226h-9.549z" style="fill:#00f" id="patch_23"/><path clip-path="url(#p32c81d9236)" d="M249.875 268.317h9.548V265.5h-9.548z" style="fill:#00f" id="patch_24"/><path clip-path="url(#p32c81d9236)" d="M259.423 268.317h9.549v-4.226h-9.549z" style="fill:#00f" id="patch_25"/><path clip-path="url(#p32c81d9236)" d="M268.972 268.317h9.549V265.5h-9.549z" style="fill:#00f" id="patch_26"/><path clip-path="url(#p32c81d9236)" d="M278.52 268.317h9.55v-23.949h-9.55z" style="fill:#00f" id="patch_27"/><path clip-path="url(#p32c81d9236)" d="M288.07 268.317h9.548V265.5h-9.549z" style="fill:#00f" id="patch_28"/><path clip-path="url(#p32c81d9236)" d="M297.618 268.317h9.549V265.5h-9.549z" style="fill:#00f" id="patch_29"/><path clip-path="url(#p32c81d9236)" d="M307.167 268.317h9.548v-1.409h-9.548z" style="fill:#00f" id="patch_30"/><path clip-path="url(#p32c81d9236)" d="M316.715 268.317h9.549v-29.583h-9.549z" style="fill:#00f" id="patch_31"/><path clip-path="url(#p32c81d9236)" d="M326.264 268.317h9.549V199.29h-9.549z" style="fill:#00f" id="patch_32"/><path clip-path="url(#p32c81d9236)" d="M335.813 268.317h9.548v-7.044h-9.548z" style="fill:#00f" id="patch_33"/><path clip-path="url(#p32c81d9236)" d="M345.361 268.317h9.549v-1.409h-9.549z" style="fill:#00f" id="patch_34"/><path clip-path="url(#p32c81d9236)" d="M354.91 268.317h9.549v-7.044h-9.549z" style="fill:#00f" id="patch_35"/><path clip-path="url(#p32c81d9236)" d="M364.459 268.317h9.548v-1.409h-9.548z" style="fill:#00f" id="patch_36"/><path clip-path="url(#p32c81d9236)" d="M374.007 268.317h9.549v-1.409h-9.549z" style="fill:#00f" id="patch_37"/><path clip-path="url(#p32c81d9236)" d="M383.556 268.317h9.549v-1.409h-9.549z" style="fill:#00f" id="patch_38"/><path clip-path="url(#p32c81d9236)" d="M393.105 268.317h9.548v-32.401h-9.548z" style="fill:#00f" id="patch_39"/><path clip-path="url(#p32c81d9236)" d="M402.653 268.317h9.549v-19.722h-9.549z" style="fill:#00f" id="patch_40"/><path clip-path="url(#p32c81d9236)" d="M412.202 268.317h9.549V254.23h-9.549z" style="fill:green" id="patch_41"/><path clip-path="url(#p32c81d9236)" d="M421.75 268.317h9.55v-1.409h-9.55z" style="fill:green" id="patch_42"/><path clip-path="url(#p32c81d9236)" d="M431.3 268.317h9.548v-67.62h-9.549z" style="fill:green" id="patch_43"/><path clip-path="url(#p32c81d9236)" d="M440.848 268.317h9.549v-1.409h-9.549z" style="fill:green" id="patch_44"/><path clip-path="url(#p32c81d9236)" d="M450.397 268.317h9.548v-54.94h-9.548z" style="fill:green" id="patch_45"/><path clip-path="url(#p32c81d9236)" d="M459.945 268.317h9.549v-21.131h-9.549z" style="fill:green" id="patch_46"/><path clip-path="url(#p32c81d9236)" d="M469.494 268.317h9.549v-1.409h-9.549z" style="fill:green" id="patch_47"/><path clip-path="url(#p32c81d9236)" d="M479.043 268.317h9.548V265.5h-9.548z" style="fill:green" id="patch_48"/><path clip-path="url(#p32c81d9236)" d="M488.591 268.317h9.549v-11.27h-9.549z" style="fill:green" id="patch_49"/><path clip-path="url(#p32c81d9236)" d="M498.14 268.317h9.549V265.5h-9.549z" style="fill:green" id="patch_50"/><path clip-path="url(#p32c81d9236)" d="M507.689 268.317h9.548v-1.409h-9.548z" style="fill:green" id="patch_51"/><path clip-path="url(#p32c81d9236)" d="M517.237 268.317h9.549v-5.635h-9.549z" style="fill:green" id="patch_52"/><path clip-path="url(#p32c81d9236)" d="M526.786 268.317h9.549V265.5h-9.55z" style="fill:green" id="patch_53"/><path clip-path="url(#p32c81d9236)" d="M536.335 268.317h9.548v-9.861h-9.548z" style="fill:green" id="patch_54"/><path clip-path="url(#p32c81d9236)" d="M545.883 268.317h9.549v-7.044h-9.549z" style="fill:green" id="patch_55"/><path clip-path="url(#p32c81d9236)" d="M555.432 268.317h9.549v-85.933h-9.55z" style="fill:green" id="patch_56"/><path clip-path="url(#p32c81d9236)" d="M564.98 268.317h9.55v-18.314h-9.55z" style="fill:green" id="patch_57"/><path clip-path="url(#p32c81d9236)" d="M574.53 268.317h9.548V265.5h-9.549z" style="fill:green" id="patch_58"/><path clip-path="url(#p32c81d9236)" d="M584.078 268.317h9.549v-52.123h-9.55z" style="fill:green" id="patch_59"/><path clip-path="url(#p32c81d9236)" d="M593.627 268.317h9.548v-4.226h-9.548z" style="fill:green" id="patch_60"/><path clip-path="url(#p32c81d9236)" d="M603.175 268.317h9.549v-1.409h-9.549z" style="fill:green" id="patch_61"/><path clip-path="url(#p32c81d9236)" d="M612.724 268.317h9.549v-4.226h-9.55z" style="fill:green" id="patch_62"/><path clip-path="url(#p32c81d9236)" d="M622.273 268.317h9.548V265.5h-9.548z" style="fill:green" id="patch_63"/><path clip-path="url(#p32c81d9236)" d="M631.821 268.317h9.549V254.23h-9.549z" style="fill:green" id="patch_64"/><path clip-path="url(#p32c81d9236)" d="M641.37 268.317h9.549v-1.409h-9.55z" style="fill:green" id="patch_65"/><path clip-path="url(#p32c81d9236)" d="M650.919 268.317h9.548v-1.409h-9.548z" style="fill:green" id="patch_66"/><path clip-path="url(#p32c81d9236)" d="M660.467 268.317h9.549v-18.314h-9.549z" style="fill:orange" id="patch_67"/><path clip-path="url(#p32c81d9236)" d="M670.016 268.317h9.549V265.5h-9.55z" style="fill:orange" id="patch_68"/><path clip-path="url(#p32c81d9236)" d="M679.565 268.317h9.548v-15.496h-9.548z" style="fill:orange" id="patch_69"/><path clip-path="url(#p32c81d9236)" d="M689.113 268.317h9.549V147.165h-9.549z" style="fill:orange" id="patch_70"/><path clip-path="url(#p32c81d9236)" d="M698.662 268.317h9.549V265.5h-9.55z" style="fill:orange" id="patch_71"/><path clip-path="url(#p32c81d9236)" d="M708.21 268.317h9.55v-77.48h-9.55z" style="fill:orange" id="patch_72"/><path clip-path="url(#p32c81d9236)" d="M717.76 268.317h9.548V265.5h-9.549z" style="fill:orange" id="patch_73"/><path clip-path="url(#p32c81d9236)" d="M727.308 268.317h9.549V242.96h-9.55z" style="fill:orange" id="patch_74"/><path clip-path="url(#p32c81d9236)" d="M736.857 268.317h9.548v-8.452h-9.548z" style="fill:orange" id="patch_75"/><path clip-path="url(#p32c81d9236)" d="M746.405 268.317h9.549v-19.722h-9.549z" style="fill:orange" id="patch_76"/><path clip-path="url(#p32c81d9236)" d="M755.954 268.317h9.549v-7.044h-9.55z" style="fill:orange" id="patch_77"/><path clip-path="url(#p32c81d9236)" d="M765.503 268.317h9.548v-1.409h-9.548z" style="fill:orange" id="patch_78"/><path clip-path="url(#p32c81d9236)" d="M775.051 268.317h9.549v-7.044h-9.549z" style="fill:orange" id="patch_79"/><path clip-path="url(#p32c81d9236)" d="M784.6 268.317h9.549v-63.393h-9.55z" style="fill:orange" id="patch_80"/><path clip-path="url(#p32c81d9236)" d="M794.149 268.317h9.548V265.5h-9.548z" style="fill:purple" id="patch_81"/><path clip-path="url(#p32c81d9236)" d="M803.697 268.317h9.549v-8.452h-9.549z" style="fill:purple" id="patch_82"/><path clip-path="url(#p32c81d9236)" d="M813.246 268.317h9.549v-15.496h-9.55z" style="fill:purple" id="patch_83"/><path clip-path="url(#p32c81d9236)" d="M822.795 268.317h9.548V199.29h-9.548z" style="fill:purple" id="patch_84"/><path clip-path="url(#p32c81d9236)" d="M832.343 268.317h9.549v-43.671h-9.549z" style="fill:purple" id="patch_85"/><path clip-path="url(#p32c81d9236)" d="M841.892 268.317h9.548v-1.409h-9.548z" style="fill:#ff0" id="patch_86"/><path clip-path="url(#p32c81d9236)" d="M851.44 268.317h9.55V61.231h-9.55z" style="fill:#ff0" id="patch_87"/><path clip-path="url(#p32c81d9236)" d="M860.99 268.317h9.548v-5.635h-9.549z" style="fill:#ff0" id="patch_88"/><path clip-path="url(#p32c81d9236)" d="M870.538 268.317h9.548v-5.635h-9.548z" style="fill:#ff0" id="patch_89"/><path clip-path="url(#p32c81d9236)" d="M880.086 268.317h9.55V265.5h-9.55z" style="fill:#ff0" id="patch_90"/><path clip-path="url(#p32c81d9236)" d="M889.635 268.317h9.549v-15.496h-9.549z" style="fill:#ff0" id="patch_91"/><path clip-path="url(#p32c81d9236)" d="M899.184 268.317h9.548v-63.393h-9.548z" style="fill:#ff0" id="patch_92"/><path clip-path="url(#p32c81d9236)" d="M908.732 268.317h9.55v-95.795h-9.55z" style="fill:#ff0" id="patch_93"/><path clip-path="url(#p32c81d9236)" d="M918.281 268.317h9.549v-1.409h-9.549z" style="fill:#ff0" id="patch_94"/><path clip-path="url(#p32c81d9236)" d="M927.83 268.317h9.548v-1.409h-9.548z" style="fill:#ff0" id="patch_95"/><g id="matplotlib.axis_1"><g id="xtick_1"><g id="line2d_1"><defs><path d="M0 0v3.5" id="ma25855f568" style="stroke:#000;stroke-width:.8"/></defs><use style="stroke:#000;stroke-width:.8" x="732.082" xlink:href="#ma25855f568" y="268.317"/></g><g transform="matrix(0 -.1 -.1 0 734.842 297.334)" id="text_1"><defs><path d="M2841 2188q203-69 395-294t386-619L4263 0h-679l-596 1197q-232 469-449 622t-592 153h-688V0H628v4666h1425q800 0 1194-335 394-334 394-1009 0-441-205-732-205-290-595-402zM1259 4147V2491h794q456 0 689 211t233 620q0 409-233 617t-689 208h-794z" id="DejaVuSans-52" transform="scale(.01563)"/><path d="M313 2009h1684v-512H313v512z" id="DejaVuSans-2d" transform="scale(.01563)"/><path d="M2597 2516q453-97 707-404 255-306 255-756 0-690-475-1069Q2609-91 1734-91q-293 0-604 58T488 141v609q262-153 574-231 313-78 654-78 593 0 904 234t311 681q0 413-289 645-289 233-804 233h-544v519h569q465 0 712 186t247 536q0 359-255 551-254 193-729 193-260 0-557-57-297-56-653-174v562q360 100 674 150t592 50q719 0 1137-327 419-326 419-882 0-388-222-655t-631-370z" id="DejaVuSans-33" transform="scale(.01563)"/><path d="M3122 3366v-538q-244 135-489 202t-495 67q-560 0-870-355-309-354-309-995t309-996q310-354 870-354 250 0 495 67t489 202V134Q2881 22 2623-34q-257-57-548-57-791 0-1257 497-465 497-465 1341 0 856 470 1346 471 491 1290 491 265 0 518-55 253-54 491-163z" id="DejaVuSans-63" transform="scale(.01563)"/></defs><use xlink:href="#DejaVuSans-52"/><use x="65.482" xlink:href="#DejaVuSans-2d"/><use x="101.566" xlink:href="#DejaVuSans-33"/><use x="165.189" xlink:href="#DejaVuSans-63"/></g></g><g id="xtick_2"><use style="stroke:#000;stroke-width:.8" x="111.419" xlink:href="#ma25855f568" y="268.317" id="line2d_2"/><g transform="matrix(0 -.1 -.1 0 113.951 307.94)" id="text_2"><defs><path d="M1259 4147V2394h794q441 0 681 228 241 228 241 650 0 419-241 647-240 228-681 228h-794zm-631 519h1425q785 0 1186-355 402-355 402-1039 0-691-402-1044-401-353-1186-353h-794V0H628v4666z" id="DejaVuSans-50" transform="scale(.01563)"/><path d="M1228 531h2203V0H469v531q359 372 979 998 621 627 780 809 303 340 423 576 121 236 121 464 0 372-261 606-261 235-680 235-297 0-627-103-329-103-704-313v638q381 153 712 231 332 78 607 78 725 0 1156-363 431-362 431-968 0-288-108-546-107-257-392-607-78-91-497-524-418-433-1181-1211z" id="DejaVuSans-32" transform="scale(.01563)"/><path d="M3263-1063v-446H-63v446h3326z" id="DejaVuSans-5f" transform="scale(.01563)"/><path d="M794 531h1031v3560L703 3866v575l1116 225h631V531h1031V0H794v531z" id="DejaVuSans-31" transform="scale(.01563)"/><path d="M1625 4666h531L531-594H0l1625 5260z" id="DejaVuSans-2f" transform="scale(.01563)"/></defs><use xlink:href="#DejaVuSans-50"/><use x="60.303" xlink:href="#DejaVuSans-32"/><use x="123.926" xlink:href="#DejaVuSans-5f"/><use x="173.926" xlink:href="#DejaVuSans-31"/><use x="237.549" xlink:href="#DejaVuSans-2f"/><use x="271.24" xlink:href="#DejaVuSans-63"/></g></g><g id="xtick_3"><use style="stroke:#000;stroke-width:.8" x="321.49" xlink:href="#ma25855f568" y="268.317" id="line2d_3"/><g transform="matrix(0 -.1 -.1 0 324.25 300.484)" id="text_3"><defs><path d="M628 4666h631V0H628v4666z" id="DejaVuSans-49" transform="scale(.01563)"/><path d="M3116 1747q0 634-261 995t-717 361q-457 0-718-361t-261-995q0-634 261-995t718-361q456 0 717 361t261 995zM1159 2969q182 312 458 463 277 152 661 152 638 0 1036-506 399-506 399-1331T3314 415Q2916-91 2278-91q-384 0-661 152-276 152-458 464V0H581v4863h578V2969z" id="DejaVuSans-62" transform="scale(.01563)"/><path d="M2194 1759q-697 0-966-159t-269-544q0-306 202-486 202-179 548-179 479 0 768 339t289 901v128h-572zm1147 238V0h-575v531q-197-318-491-470T1556-91q-537 0-855 302-317 302-317 808 0 590 395 890 396 300 1180 300h807v57q0 397-261 614t-733 217q-300 0-585-72-284-72-546-216v532q315 122 612 182 297 61 578 61 760 0 1135-394 375-393 375-1193z" id="DejaVuSans-61" transform="scale(.01563)"/><path d="M3328 2828q216 388 516 572t706 184q547 0 844-383 297-382 297-1088V0h-578v2094q0 503-179 746-178 244-543 244-447 0-707-297-259-296-259-809V0h-578v2094q0 506-178 748t-550 242q-441 0-701-298-259-298-259-808V0H581v3500h578v-544q197 322 472 475t653 153q382 0 649-194 267-193 395-562z" id="DejaVuSans-6d" transform="scale(.01563)"/></defs><use xlink:href="#DejaVuSans-49"/><use x="29.492" xlink:href="#DejaVuSans-62"/><use x="92.969" xlink:href="#DejaVuSans-61"/><use x="154.248" xlink:href="#DejaVuSans-6d"/></g></g><g id="xtick_4"><use style="stroke:#000;stroke-width:.8" x="149.614" xlink:href="#ma25855f568" y="268.317" id="line2d_4"/><g transform="matrix(0 -.1 -.1 0 152.146 312.181)" id="text_4"><use xlink:href="#DejaVuSans-50"/><use x="60.303" xlink:href="#DejaVuSans-32"/><use x="123.926" xlink:href="#DejaVuSans-5f"/><use x="173.926" xlink:href="#DejaVuSans-31"/><use x="237.549" xlink:href="#DejaVuSans-2f"/><use x="271.24" xlink:href="#DejaVuSans-6d"/></g></g><g id="xtick_5"><use style="stroke:#000;stroke-width:.8" x="397.879" xlink:href="#ma25855f568" y="268.317" id="line2d_5"/><g transform="matrix(0 -.1 -.1 0 400.411 315.264)" id="text_5"><defs><path d="M4122 4306v-665q-319 297-680 443-361 147-767 147-800 0-1225-489t-425-1414q0-922 425-1411t1225-489q406 0 767 147t680 444V359q-331-225-702-338-370-112-782-112-1060 0-1670 648-609 649-609 1771 0 1125 609 1773 610 649 1670 649 418 0 788-111 371-111 696-333z" id="DejaVuSans-43" transform="scale(.01563)"/></defs><use xlink:href="#DejaVuSans-43"/><use x="69.824" xlink:href="#DejaVuSans-6d"/><use x="167.236" xlink:href="#DejaVuSans-63"/><use x="222.217" xlink:href="#DejaVuSans-32"/><use x="285.84" xlink:href="#DejaVuSans-5f"/><use x="335.84" xlink:href="#DejaVuSans-31"/></g></g><g id="xtick_6"><use style="stroke:#000;stroke-width:.8" x="73.224" xlink:href="#ma25855f568" y="268.317" id="line2d_6"/><g transform="matrix(0 -.1 -.1 0 75.984 297.53)" id="text_6"><use xlink:href="#DejaVuSans-43"/><use x="69.824" xlink:href="#DejaVuSans-32"/><use x="133.447" xlink:href="#DejaVuSans-2f"/><use x="167.139" xlink:href="#DejaVuSans-63"/></g></g><g id="xtick_7"><use style="stroke:#000;stroke-width:.8" x="837.117" xlink:href="#ma25855f568" y="268.317" id="line2d_7"/><g transform="matrix(0 -.1 -.1 0 839.65 314.31)" id="text_7"><defs><path d="M2113 2584q-425 0-674-291-248-290-248-796 0-503 248-796 249-292 674-292t673 292q248 293 248 796 0 506-248 796-248 291-673 291zm1253 1979v-575q-238 112-480 171-242 60-480 60-625 0-955-422-329-422-376-1275 184 272 462 417 279 145 613 145 703 0 1111-427 408-426 408-1160 0-719-425-1154Q2819-91 2113-91q-810 0-1238 620-428 621-428 1799 0 1106 525 1764t1409 658q238 0 480-47t505-140z" id="DejaVuSans-36" transform="scale(.01563)"/></defs><use xlink:href="#DejaVuSans-50"/><use x="60.303" xlink:href="#DejaVuSans-36"/><use x="123.926" xlink:href="#DejaVuSans-5f"/><use x="173.926" xlink:href="#DejaVuSans-33"/><use x="237.549" xlink:href="#DejaVuSans-6d"/><use x="334.961" xlink:href="#DejaVuSans-63"/></g></g><g id="xtick_8"><use style="stroke:#000;stroke-width:.8" x="588.852" xlink:href="#ma25855f568" y="268.317" id="line2d_8"/><g transform="matrix(0 -.1 -.1 0 591.612 288.238)" id="text_8"><defs><path d="M2419 4116 825 1625h1594v2491zm-166 550h794V1625h666v-525h-666V0h-628v1100H313v609l1940 2957z" id="DejaVuSans-34" transform="scale(.01563)"/></defs><use xlink:href="#DejaVuSans-49"/><use x="29.492" xlink:href="#DejaVuSans-2d"/><use x="65.576" xlink:href="#DejaVuSans-34"/></g></g><g id="xtick_9"><use style="stroke:#000;stroke-width:.8" x="455.171" xlink:href="#ma25855f568" y="268.317" id="line2d_9"/><g transform="matrix(0 -.1 -.1 0 457.93 300.948)" id="text_9"><defs><path d="M2906 2969v1894h575V0h-575v525q-181-312-458-464-276-152-664-152-634 0-1033 506-398 507-398 1332t398 1331q399 506 1033 506 388 0 664-152 277-151 458-463zM947 1747q0-634 261-995t717-361q456 0 718 361 263 361 263 995t-263 995q-262 361-718 361t-717-361q-261-361-261-995z" id="DejaVuSans-64" transform="scale(.01563)"/></defs><use xlink:href="#DejaVuSans-49"/><use x="29.492" xlink:href="#DejaVuSans-2d"/><use x="65.576" xlink:href="#DejaVuSans-34"/><use x="129.199" xlink:href="#DejaVuSans-32"/><use x="192.822" xlink:href="#DejaVuSans-64"/></g></g><g id="xtick_10"><use style="stroke:#000;stroke-width:.8" x="789.374" xlink:href="#ma25855f568" y="268.317" id="line2d_10"/><g transform="matrix(0 -.1 -.1 0 792.134 291.836)" id="text_10"><use xlink:href="#DejaVuSans-52"/><use x="65.482" xlink:href="#DejaVuSans-2d"/><use x="101.566" xlink:href="#DejaVuSans-33"/></g></g><g id="xtick_11"><use style="stroke:#000;stroke-width:.8" x="903.958" xlink:href="#ma25855f568" y="268.317" id="line2d_11"/><g transform="matrix(0 -.1 -.1 0 906.718 310.798)" id="text_11"><use xlink:href="#DejaVuSans-50"/><use x="60.303" xlink:href="#DejaVuSans-6d"/><use x="157.715" xlink:href="#DejaVuSans-2d"/><use x="193.799" xlink:href="#DejaVuSans-33"/><use x="257.422" xlink:href="#DejaVuSans-6d"/></g></g><g id="xtick_12"><use style="stroke:#000;stroke-width:.8" x="82.773" xlink:href="#ma25855f568" y="268.317" id="line2d_12"/><g transform="matrix(0 -.1 -.1 0 85.532 301.772)" id="text_12"><use xlink:href="#DejaVuSans-43"/><use x="69.824" xlink:href="#DejaVuSans-32"/><use x="133.447" xlink:href="#DejaVuSans-2f"/><use x="167.139" xlink:href="#DejaVuSans-6d"/></g></g><g id="xtick_13"><use style="stroke:#000;stroke-width:.8" x="436.074" xlink:href="#ma25855f568" y="268.317" id="line2d_13"/><g transform="matrix(0 -.1 -.1 0 438.833 316.897)" id="text_13"><defs><path d="M3513 2113V0h-575v2094q0 497-194 743-194 247-581 247-466 0-735-297-269-296-269-809V0H581v3500h578v-544q207 316 486 472 280 156 646 156 603 0 912-373 310-373 310-1098z" id="DejaVuSans-6e" transform="scale(.01563)"/></defs><use xlink:href="#DejaVuSans-50"/><use x="60.303" xlink:href="#DejaVuSans-34"/><use x="123.926" xlink:href="#DejaVuSans-2f"/><use x="157.617" xlink:href="#DejaVuSans-6e"/><use x="220.996" xlink:href="#DejaVuSans-6d"/><use x="318.408" xlink:href="#DejaVuSans-6d"/></g></g><g id="xtick_14"><use style="stroke:#000;stroke-width:.8" x="331.038" xlink:href="#ma25855f568" y="268.317" id="line2d_14"/><g transform="matrix(0 -.1 -.1 0 333.798 307.28)" id="text_14"><use xlink:href="#DejaVuSans-43"/><use x="69.824" xlink:href="#DejaVuSans-6d"/><use x="167.236" xlink:href="#DejaVuSans-63"/><use x="222.217" xlink:href="#DejaVuSans-6d"/></g></g><g id="xtick_15"><use style="stroke:#000;stroke-width:.8" x="827.569" xlink:href="#ma25855f568" y="268.317" id="line2d_15"/><g transform="matrix(0 -.1 -.1 0 830.1 327.42)" id="text_15"><use xlink:href="#DejaVuSans-50"/><use x="60.303" xlink:href="#DejaVuSans-36"/><use x="123.926" xlink:href="#DejaVuSans-5f"/><use x="173.926" xlink:href="#DejaVuSans-33"/><use x="237.549" xlink:href="#DejaVuSans-2f"/><use x="271.24" xlink:href="#DejaVuSans-6d"/><use x="368.652" xlink:href="#DejaVuSans-6d"/><use x="466.064" xlink:href="#DejaVuSans-63"/></g></g><g id="xtick_16"><use style="stroke:#000;stroke-width:.8" x="712.985" xlink:href="#ma25855f568" y="268.317" id="line2d_16"/><g transform="matrix(0 -.1 -.1 0 715.744 307.195)" id="text_16"><use xlink:href="#DejaVuSans-50"/><use x="58.053" xlink:href="#DejaVuSans-2d"/><use x="94.137" xlink:href="#DejaVuSans-33"/><use x="157.76" xlink:href="#DejaVuSans-6d"/><use x="255.172" xlink:href="#DejaVuSans-31"/></g></g><g id="xtick_17"><use style="stroke:#000;stroke-width:.8" x="560.206" xlink:href="#ma25855f568" y="268.317" id="line2d_17"/><g transform="matrix(0 -.1 -.1 0 562.966 317.22)" id="text_17"><use xlink:href="#DejaVuSans-49"/><use x="29.492" xlink:href="#DejaVuSans-34"/><use x="93.115" xlink:href="#DejaVuSans-2f"/><use x="126.807" xlink:href="#DejaVuSans-6d"/><use x="224.219" xlink:href="#DejaVuSans-6d"/><use x="321.631" xlink:href="#DejaVuSans-6d"/></g></g><g id="xtick_18"><use style="stroke:#000;stroke-width:.8" x="913.507" xlink:href="#ma25855f568" y="268.317" id="line2d_18"/><g transform="matrix(0 -.1 -.1 0 916.266 307.142)" id="text_18"><defs><path d="M628 4666h2681v-532H1259V2759h1850v-531H1259V0H628v4666z" id="DejaVuSans-46" transform="scale(.01563)"/></defs><use xlink:href="#DejaVuSans-46"/><use x="57.52" xlink:href="#DejaVuSans-2d"/><use x="93.604" xlink:href="#DejaVuSans-34"/><use x="157.227" xlink:href="#DejaVuSans-33"/><use x="220.85" xlink:href="#DejaVuSans-6d"/></g></g><g id="xtick_19"><use style="stroke:#000;stroke-width:.8" x="693.888" xlink:href="#ma25855f568" y="268.317" id="line2d_19"/><g transform="matrix(0 -.1 -.1 0 696.647 301.577)" id="text_19"><use xlink:href="#DejaVuSans-52"/><use x="65.482" xlink:href="#DejaVuSans-2d"/><use x="101.566" xlink:href="#DejaVuSans-33"/><use x="165.189" xlink:href="#DejaVuSans-6d"/></g></g><g id="xtick_20"><use style="stroke:#000;stroke-width:.8" x="856.215" xlink:href="#ma25855f568" y="268.317" id="line2d_20"/><g transform="matrix(0 -.1 -.1 0 858.974 310.52)" id="text_20"><use xlink:href="#DejaVuSans-46"/><use x="57.52" xlink:href="#DejaVuSans-6d"/><use x="154.932" xlink:href="#DejaVuSans-2d"/><use x="191.016" xlink:href="#DejaVuSans-33"/><use x="254.639" xlink:href="#DejaVuSans-6d"/></g></g><g transform="matrix(.1 0 0 -.1 409.891 339.019)" id="text_21"><defs><path d="M1172 4494v-994h1184v-447H1172V1153q0-428 117-550t477-122h590V0h-590q-666 0-919 248-253 249-253 905v1900H172v447h422v994h578z" id="DejaVuSans-74" transform="scale(.01563)"/><path d="M3597 1894v-281H953q38-594 358-905t892-311q331 0 642 81t618 244V178Q3153 47 2828-22t-659-69q-838 0-1327 487-489 488-489 1320 0 859 464 1363 464 505 1252 505 706 0 1117-455 411-454 411-1235zm-575 169q-6 471-264 752-258 282-683 282-481 0-770-272t-333-766l2050 4z" id="DejaVuSans-65" transform="scale(.01563)"/><path d="M2631 2963q-97 56-211 82-114 27-251 27-488 0-749-317t-261-911V0H581v3500h578v-544q182 319 472 473 291 155 707 155 59 0 131-8 72-7 159-23l3-590z" id="DejaVuSans-72" transform="scale(.01563)"/><path d="M603 3500h575V0H603v3500zm0 1363h575v-729H603v729z" id="DejaVuSans-69" transform="scale(.01563)"/><path d="M1959 3097q-462 0-731-361t-269-989q0-628 267-989 268-361 733-361 460 0 728 362 269 363 269 988 0 622-269 986-268 364-728 364zm0 487q750 0 1178-488 429-487 429-1349 0-859-429-1349Q2709-91 1959-91q-753 0-1180 489-426 490-426 1349 0 862 426 1349 427 488 1180 488z" id="DejaVuSans-6f" transform="scale(.01563)"/><path d="M603 4863h575V0H603v4863z" id="DejaVuSans-6c" transform="scale(.01563)"/><path d="M3425 4513v-616q-359 172-678 256-319 85-616 85-515 0-795-200t-280-569q0-310 186-468 186-157 705-254l381-78q706-135 1042-474t336-907q0-679-455-1029Q2797-91 1919-91q-331 0-705 75-373 75-773 222v650q384-215 753-325 369-109 725-109 540 0 834 212 294 213 294 607 0 343-211 537t-692 291l-385 75q-706 140-1022 440-315 300-315 835 0 619 436 975t1201 356q329 0 669-60 341-59 697-177z" id="DejaVuSans-53" transform="scale(.01563)"/><path d="M1159 525v-1856H581v4831h578v-531q182 312 458 463 277 152 661 152 638 0 1036-506 399-506 399-1331T3314 415Q2916-91 2278-91q-384 0-661 152-276 152-458 464zm1957 1222q0 634-261 995t-717 361q-457 0-718-361t-261-995q0-634 261-995t718-361q456 0 717 361t261 995z" id="DejaVuSans-70" transform="scale(.01563)"/><path d="M2906 1791q0 625-258 968-257 344-723 344-462 0-720-344-258-343-258-968 0-622 258-966t720-344q466 0 723 344 258 344 258 966zm575-1357q0-893-397-1329-396-436-1215-436-303 0-572 45t-522 139v559q253-137 500-202 247-66 503-66 566 0 847 295t281 892v285q-178-310-456-463T1784 0Q1141 0 747 490 353 981 353 1791q0 812 394 1302 394 491 1037 491 388 0 666-153t456-462v531h575V434z" id="DejaVuSans-67" transform="scale(.01563)"/><path d="M544 1381v2119h575V1403q0-497 193-746 194-248 582-248 465 0 735 297 271 297 271 810v1984h575V0h-575v538q-209-319-486-474-276-155-642-155-603 0-916 375-312 375-312 1097zm1447 2203z" id="DejaVuSans-75" transform="scale(.01563)"/><path d="M2059-325q-243-625-475-815-231-191-618-191H506v481h338q237 0 368 113 132 112 291 531l103 262L191 3500h609L1894 763l1094 2737h609L2059-325z" id="DejaVuSans-79" transform="scale(.01563)"/></defs><use xlink:href="#DejaVuSans-49"/><use x="29.492" xlink:href="#DejaVuSans-6e"/><use x="92.871" xlink:href="#DejaVuSans-74"/><use x="132.08" xlink:href="#DejaVuSans-65"/><use x="193.604" xlink:href="#DejaVuSans-72"/><use x="232.967" xlink:href="#DejaVuSans-6e"/><use x="296.346" xlink:href="#DejaVuSans-61"/><use x="357.625" xlink:href="#DejaVuSans-74"/><use x="396.834" xlink:href="#DejaVuSans-69"/><use x="424.617" xlink:href="#DejaVuSans-6f"/><use x="485.799" xlink:href="#DejaVuSans-6e"/><use x="549.178" xlink:href="#DejaVuSans-61"/><use x="610.457" xlink:href="#DejaVuSans-6c"/><use x="638.24" xlink:href="#DejaVuSans-20"/><use x="670.027" xlink:href="#DejaVuSans-53"/><use x="733.504" xlink:href="#DejaVuSans-70"/><use x="796.98" xlink:href="#DejaVuSans-61"/><use x="858.26" xlink:href="#DejaVuSans-63"/><use x="913.24" xlink:href="#DejaVuSans-65"/><use x="974.764" xlink:href="#DejaVuSans-67"/><use x="1038.24" xlink:href="#DejaVuSans-72"/><use x="1077.104" xlink:href="#DejaVuSans-6f"/><use x="1138.285" xlink:href="#DejaVuSans-75"/><use x="1201.664" xlink:href="#DejaVuSans-70"/><use x="1265.141" xlink:href="#DejaVuSans-20"/><use x="1296.928" xlink:href="#DejaVuSans-53"/><use x="1360.404" xlink:href="#DejaVuSans-79"/><use x="1419.584" xlink:href="#DejaVuSans-6d"/><use x="1516.996" xlink:href="#DejaVuSans-62"/><use x="1580.473" xlink:href="#DejaVuSans-6f"/><use x="1641.654" xlink:href="#DejaVuSans-6c"/></g></g><g id="matplotlib.axis_2"><g id="ytick_1"><path clip-path="url(#p32c81d9236)" d="M46.966 268.317h892.8" style="fill:none;stroke:#b0b0b0;stroke-linecap:square;stroke-width:.8" id="line2d_21"/><g id="line2d_22"><defs><path d="M0 0h-3.5" id="mba4ddb7a08" style="stroke:#000;stroke-width:.8"/></defs><use style="stroke:#000;stroke-width:.8" x="46.966" xlink:href="#mba4ddb7a08" y="268.317"/></g><g transform="matrix(.1 0 0 -.1 33.603 272.116)" id="text_22"><defs><path d="M2034 4250q-487 0-733-480-245-479-245-1442 0-959 245-1439 246-480 733-480 491 0 736 480 246 480 246 1439 0 963-246 1442-245 480-736 480zm0 500q785 0 1199-621 414-620 414-1801 0-1178-414-1799Q2819-91 2034-91q-784 0-1198 620-414 621-414 1799 0 1181 414 1801 414 621 1198 621z" id="DejaVuSans-30" transform="scale(.01563)"/></defs><use xlink:href="#DejaVuSans-30"/></g></g><g id="ytick_2"><path clip-path="url(#p32c81d9236)" d="M46.966 240.142h892.8" style="fill:none;stroke:#b0b0b0;stroke-linecap:square;stroke-width:.8" id="line2d_23"/><use style="stroke:#000;stroke-width:.8" x="46.966" xlink:href="#mba4ddb7a08" y="240.142" id="line2d_24"/><g transform="matrix(.1 0 0 -.1 27.24 243.941)" id="text_23"><use xlink:href="#DejaVuSans-32"/><use x="63.623" xlink:href="#DejaVuSans-30"/></g></g><g id="ytick_3"><path clip-path="url(#p32c81d9236)" d="M46.966 211.967h892.8" style="fill:none;stroke:#b0b0b0;stroke-linecap:square;stroke-width:.8" id="line2d_25"/><use style="stroke:#000;stroke-width:.8" x="46.966" xlink:href="#mba4ddb7a08" y="211.967" id="line2d_26"/><g transform="matrix(.1 0 0 -.1 27.24 215.767)" id="text_24"><use xlink:href="#DejaVuSans-34"/><use x="63.623" xlink:href="#DejaVuSans-30"/></g></g><g id="ytick_4"><path clip-path="url(#p32c81d9236)" d="M46.966 183.792h892.8" style="fill:none;stroke:#b0b0b0;stroke-linecap:square;stroke-width:.8" id="line2d_27"/><use style="stroke:#000;stroke-width:.8" x="46.966" xlink:href="#mba4ddb7a08" y="183.792" id="line2d_28"/><g transform="matrix(.1 0 0 -.1 27.24 187.592)" id="text_25"><use xlink:href="#DejaVuSans-36"/><use x="63.623" xlink:href="#DejaVuSans-30"/></g></g><g id="ytick_5"><path clip-path="url(#p32c81d9236)" d="M46.966 155.617h892.8" style="fill:none;stroke:#b0b0b0;stroke-linecap:square;stroke-width:.8" id="line2d_29"/><use style="stroke:#000;stroke-width:.8" x="46.966" xlink:href="#mba4ddb7a08" y="155.617" id="line2d_30"/><g transform="matrix(.1 0 0 -.1 27.24 159.417)" id="text_26"><defs><path d="M2034 2216q-450 0-708-241-257-241-257-662 0-422 257-663 258-241 708-241t709 242q260 243 260 662 0 421-258 662-257 241-711 241zm-631 268q-406 100-633 378-226 279-226 679 0 559 398 884 399 325 1092 325 697 0 1094-325t397-884q0-400-227-679-226-278-629-378 456-106 710-416 255-309 255-755 0-679-414-1042Q2806-91 2034-91q-771 0-1186 362-414 363-414 1042 0 446 256 755 257 310 713 416zm-231 997q0-362 226-565 227-203 636-203 407 0 636 203 230 203 230 565 0 363-230 566-229 203-636 203-409 0-636-203-226-203-226-566z" id="DejaVuSans-38" transform="scale(.01563)"/></defs><use xlink:href="#DejaVuSans-38"/><use x="63.623" xlink:href="#DejaVuSans-30"/></g></g><g id="ytick_6"><path clip-path="url(#p32c81d9236)" d="M46.966 127.443h892.8" style="fill:none;stroke:#b0b0b0;stroke-linecap:square;stroke-width:.8" id="line2d_31"/><use style="stroke:#000;stroke-width:.8" x="46.966" xlink:href="#mba4ddb7a08" y="127.443" id="line2d_32"/><g transform="matrix(.1 0 0 -.1 20.878 131.242)" id="text_27"><use xlink:href="#DejaVuSans-31"/><use x="63.623" xlink:href="#DejaVuSans-30"/><use x="127.246" xlink:href="#DejaVuSans-30"/></g></g><g id="ytick_7"><path clip-path="url(#p32c81d9236)" d="M46.966 99.268h892.8" style="fill:none;stroke:#b0b0b0;stroke-linecap:square;stroke-width:.8" id="line2d_33"/><use style="stroke:#000;stroke-width:.8" x="46.966" xlink:href="#mba4ddb7a08" y="99.268" id="line2d_34"/><g transform="matrix(.1 0 0 -.1 20.878 103.067)" id="text_28"><use xlink:href="#DejaVuSans-31"/><use x="63.623" xlink:href="#DejaVuSans-32"/><use x="127.246" xlink:href="#DejaVuSans-30"/></g></g><g id="ytick_8"><path clip-path="url(#p32c81d9236)" d="M46.966 71.093h892.8" style="fill:none;stroke:#b0b0b0;stroke-linecap:square;stroke-width:.8" id="line2d_35"/><use style="stroke:#000;stroke-width:.8" x="46.966" xlink:href="#mba4ddb7a08" y="71.093" id="line2d_36"/><g transform="matrix(.1 0 0 -.1 20.878 74.892)" id="text_29"><use xlink:href="#DejaVuSans-31"/><use x="63.623" xlink:href="#DejaVuSans-34"/><use x="127.246" xlink:href="#DejaVuSans-30"/></g></g><g transform="matrix(0 -.1 -.1 0 14.798 174.446)" id="text_30"><use xlink:href="#DejaVuSans-43"/><use x="69.824" xlink:href="#DejaVuSans-6f"/><use x="131.006" xlink:href="#DejaVuSans-75"/><use x="194.385" xlink:href="#DejaVuSans-6e"/><use x="257.764" xlink:href="#DejaVuSans-74"/></g></g><path d="M46.966 268.317V50.877" style="fill:none;stroke:#000;stroke-linecap:square;stroke-linejoin:miter;stroke-width:.8" id="patch_96"/><path d="M939.766 268.317V50.877" style="fill:none;stroke:#000;stroke-linecap:square;stroke-linejoin:miter;stroke-width:.8" id="patch_97"/><path d="M46.966 268.317h892.8" style="fill:none;stroke:#000;stroke-linecap:square;stroke-linejoin:miter;stroke-width:.8" id="patch_98"/><path d="M46.966 50.877h892.8" style="fill:none;stroke:#000;stroke-linecap:square;stroke-linejoin:miter;stroke-width:.8" id="patch_99"/><g transform="matrix(0 -.14 -.14 0 62.765 112.819)" id="text_31"><use xlink:href="#DejaVuSans-74"/><use x="39.209" xlink:href="#DejaVuSans-72"/><use x="80.322" xlink:href="#DejaVuSans-69"/><use x="108.105" xlink:href="#DejaVuSans-63"/><use x="163.086" xlink:href="#DejaVuSans-6c"/><use x="190.869" xlink:href="#DejaVuSans-69"/><use x="218.652" xlink:href="#DejaVuSans-6e"/><use x="282.031" xlink:href="#DejaVuSans-69"/><use x="309.814" xlink:href="#DejaVuSans-63"/></g><g transform="matrix(.12 0 0 -.12 35.16 46.528)" id="text_32"><defs><path d="M1984 4856q-418-718-622-1422-203-703-203-1425 0-721 205-1429t620-1424h-500Q1016-109 783 600T550 2009q0 697 231 1403 232 707 703 1444h500z" id="DejaVuSans-28" transform="scale(.01563)"/><path d="M4653 2053q-272 0-427-231-154-231-154-644 0-406 154-639 155-233 427-233 266 0 420 233 155 233 155 639 0 410-155 642-154 233-420 233zm0 397q494 0 784-344 291-343 291-928 0-584-292-927-292-342-783-342-500 0-791 342-290 343-290 927 0 588 292 930t789 342zM1428 4353q-269 0-424-233-154-232-154-639 0-412 153-644 153-231 425-231t426 231q155 232 155 644 0 403-156 637-156 235-425 235zm2822 397h500L1831-91h-500l2919 4841zm-2822 0q494 0 787-342 294-342 294-927 0-590-292-931t-789-341q-497 0-786 342-289 343-289 930 0 582 290 925 291 344 785 344z" id="DejaVuSans-25" transform="scale(.01563)"/><path d="M513 4856h500q468-737 701-1444 233-706 233-1403 0-700-233-1409T1013-844H513q415 716 620 1424t205 1429q0 722-205 1425-205 704-620 1422z" id="DejaVuSans-29" transform="scale(.01563)"/></defs><use xlink:href="#DejaVuSans-31"/><use x="63.623" xlink:href="#DejaVuSans-38"/><use x="127.246" xlink:href="#DejaVuSans-20"/><use x="159.033" xlink:href="#DejaVuSans-28"/><use x="198.047" xlink:href="#DejaVuSans-31"/><use x="261.67" xlink:href="#DejaVuSans-25"/><use x="356.689" xlink:href="#DejaVuSans-29"/></g><g transform="matrix(0 -.14 -.14 0 120.057 137.327)" id="text_33"><use xlink:href="#DejaVuSans-6d"/><use x="97.412" xlink:href="#DejaVuSans-6f"/><use x="158.594" xlink:href="#DejaVuSans-6e"/><use x="221.973" xlink:href="#DejaVuSans-6f"/><use x="283.154" xlink:href="#DejaVuSans-63"/><use x="338.135" xlink:href="#DejaVuSans-6c"/><use x="365.918" xlink:href="#DejaVuSans-69"/><use x="393.701" xlink:href="#DejaVuSans-6e"/><use x="457.08" xlink:href="#DejaVuSans-69"/><use x="484.863" xlink:href="#DejaVuSans-63"/></g><g transform="matrix(.12 0 0 -.12 84.816 46.528)" id="text_34"><use xlink:href="#DejaVuSans-31"/><use x="63.623" xlink:href="#DejaVuSans-34"/><use x="127.246" xlink:href="#DejaVuSans-30"/><use x="190.869" xlink:href="#DejaVuSans-20"/><use x="222.656" xlink:href="#DejaVuSans-28"/><use x="261.67" xlink:href="#DejaVuSans-31"/><use x="325.293" xlink:href="#DejaVuSans-31"/><use x="388.916" xlink:href="#DejaVuSans-25"/><use x="483.936" xlink:href="#DejaVuSans-29"/></g><g transform="matrix(0 -.14 -.14 0 291.932 156.059)" id="text_35"><defs><path d="M3513 2113V0h-575v2094q0 497-194 743-194 247-581 247-466 0-735-297-269-296-269-809V0H581v4863h578V2956q207 316 486 472 280 156 646 156 603 0 912-373 310-373 310-1098z" id="DejaVuSans-68" transform="scale(.01563)"/></defs><use xlink:href="#DejaVuSans-6f"/><use x="61.182" xlink:href="#DejaVuSans-72"/><use x="102.295" xlink:href="#DejaVuSans-74"/><use x="141.504" xlink:href="#DejaVuSans-68"/><use x="204.883" xlink:href="#DejaVuSans-6f"/><use x="266.064" xlink:href="#DejaVuSans-72"/><use x="305.428" xlink:href="#DejaVuSans-68"/><use x="368.807" xlink:href="#DejaVuSans-6f"/><use x="429.988" xlink:href="#DejaVuSans-6d"/><use x="527.4" xlink:href="#DejaVuSans-62"/><use x="590.877" xlink:href="#DejaVuSans-69"/><use x="618.66" xlink:href="#DejaVuSans-63"/></g><g transform="matrix(.12 0 0 -.12 256.692 46.528)" id="text_36"><defs><path d="M525 4666h3000v-269L1831 0h-659l1594 4134H525v532z" id="DejaVuSans-37" transform="scale(.01563)"/><path d="M703 97v575q238-113 481-172 244-59 479-59 625 0 954 420 330 420 377 1277-181-269-460-413-278-144-615-144-700 0-1108 423-408 424-408 1159 0 718 425 1152 425 435 1131 435 810 0 1236-621 427-620 427-1801 0-1103-524-1761Q2575-91 1691-91q-238 0-482 47Q966 3 703 97zm1256 1978q425 0 673 290 249 291 249 798 0 503-249 795-248 292-673 292t-673-292q-248-292-248-795 0-507 248-798 248-290 673-290z" id="DejaVuSans-39" transform="scale(.01563)"/></defs><use xlink:href="#DejaVuSans-31"/><use x="63.623" xlink:href="#DejaVuSans-37"/><use x="127.246" xlink:href="#DejaVuSans-39"/><use x="190.869" xlink:href="#DejaVuSans-20"/><use x="222.656" xlink:href="#DejaVuSans-28"/><use x="261.67" xlink:href="#DejaVuSans-31"/><use x="325.293" xlink:href="#DejaVuSans-34"/><use x="388.916" xlink:href="#DejaVuSans-25"/><use x="483.936" xlink:href="#DejaVuSans-29"/></g><g transform="matrix(0 -.14 -.14 0 540.198 134.47)" id="text_37"><use xlink:href="#DejaVuSans-74"/><use x="39.209" xlink:href="#DejaVuSans-65"/><use x="100.732" xlink:href="#DejaVuSans-74"/><use x="139.941" xlink:href="#DejaVuSans-72"/><use x="181.055" xlink:href="#DejaVuSans-61"/><use x="242.334" xlink:href="#DejaVuSans-67"/><use x="305.811" xlink:href="#DejaVuSans-6f"/><use x="366.992" xlink:href="#DejaVuSans-6e"/><use x="430.371" xlink:href="#DejaVuSans-61"/><use x="491.65" xlink:href="#DejaVuSans-6c"/></g><g transform="matrix(.12 0 0 -.12 504.957 46.528)" id="text_38"><use xlink:href="#DejaVuSans-32"/><use x="63.623" xlink:href="#DejaVuSans-38"/><use x="127.246" xlink:href="#DejaVuSans-30"/><use x="190.869" xlink:href="#DejaVuSans-20"/><use x="222.656" xlink:href="#DejaVuSans-28"/><use x="261.67" xlink:href="#DejaVuSans-32"/><use x="325.293" xlink:href="#DejaVuSans-32"/><use x="388.916" xlink:href="#DejaVuSans-25"/><use x="483.936" xlink:href="#DejaVuSans-29"/></g><g transform="matrix(0 -.14 -.14 0 731.171 115.678)" id="text_39"><use xlink:href="#DejaVuSans-74"/><use x="39.209" xlink:href="#DejaVuSans-72"/><use x="80.322" xlink:href="#DejaVuSans-69"/><use x="108.105" xlink:href="#DejaVuSans-67"/><use x="171.582" xlink:href="#DejaVuSans-6f"/><use x="232.764" xlink:href="#DejaVuSans-6e"/><use x="296.143" xlink:href="#DejaVuSans-61"/><use x="357.422" xlink:href="#DejaVuSans-6c"/></g><g transform="matrix(.12 0 0 -.12 695.93 46.528)" id="text_40"><defs><path d="M691 4666h2478v-532H1269V2991q137 47 274 70 138 23 276 23 781 0 1237-428 457-428 457-1159 0-753-469-1171Q2575-91 1722-91q-294 0-599 50Q819 9 494 109v635q281-153 581-228t634-75q541 0 856 284 316 284 316 772 0 487-316 771-315 285-856 285-253 0-505-56-251-56-513-175v2344z" id="DejaVuSans-35" transform="scale(.01563)"/></defs><use xlink:href="#DejaVuSans-32"/><use x="63.623" xlink:href="#DejaVuSans-36"/><use x="127.246" xlink:href="#DejaVuSans-35"/><use x="190.869" xlink:href="#DejaVuSans-20"/><use x="222.656" xlink:href="#DejaVuSans-28"/><use x="261.67" xlink:href="#DejaVuSans-32"/><use x="325.293" xlink:href="#DejaVuSans-31"/><use x="388.916" xlink:href="#DejaVuSans-25"/><use x="483.936" xlink:href="#DejaVuSans-29"/></g><g transform="matrix(0 -.14 -.14 0 821.883 134.652)" id="text_41"><defs><path d="M3513 3500 2247 1797 3578 0h-678L1881 1375 863 0H184l1360 1831L300 3500h678l928-1247 928 1247h679z" id="DejaVuSans-78" transform="scale(.01563)"/></defs><use xlink:href="#DejaVuSans-68"/><use x="63.379" xlink:href="#DejaVuSans-65"/><use x="123.152" xlink:href="#DejaVuSans-78"/><use x="182.332" xlink:href="#DejaVuSans-61"/><use x="243.611" xlink:href="#DejaVuSans-67"/><use x="307.088" xlink:href="#DejaVuSans-6f"/><use x="368.27" xlink:href="#DejaVuSans-6e"/><use x="431.648" xlink:href="#DejaVuSans-61"/><use x="492.928" xlink:href="#DejaVuSans-6c"/></g><g transform="matrix(.12 0 0 -.12 794.278 46.528)" id="text_42"><use xlink:href="#DejaVuSans-39"/><use x="63.623" xlink:href="#DejaVuSans-39"/><use x="127.246" xlink:href="#DejaVuSans-20"/><use x="159.033" xlink:href="#DejaVuSans-28"/><use x="198.047" xlink:href="#DejaVuSans-38"/><use x="261.67" xlink:href="#DejaVuSans-25"/><use x="356.689" xlink:href="#DejaVuSans-29"/></g><g transform="matrix(0 -.14 -.14 0 893.498 98.794)" id="text_43"><use xlink:href="#DejaVuSans-63"/><use x="54.98" xlink:href="#DejaVuSans-75"/><use x="118.359" xlink:href="#DejaVuSans-62"/><use x="181.836" xlink:href="#DejaVuSans-69"/><use x="209.619" xlink:href="#DejaVuSans-63"/></g><g transform="matrix(.12 0 0 -.12 858.258 46.528)" id="text_44"><use xlink:href="#DejaVuSans-32"/><use x="63.623" xlink:href="#DejaVuSans-38"/><use x="127.246" xlink:href="#DejaVuSans-34"/><use x="190.869" xlink:href="#DejaVuSans-20"/><use x="222.656" xlink:href="#DejaVuSans-28"/><use x="261.67" xlink:href="#DejaVuSans-32"/><use x="325.293" xlink:href="#DejaVuSans-32"/><use x="388.916" xlink:href="#DejaVuSans-25"/><use x="483.936" xlink:href="#DejaVuSans-29"/></g><g transform="matrix(.18 0 0 -.18 381.383 20.877)" id="text_45"><defs><path d="M-19 4666h3947v-532H2272V0h-634v4134H-19v532z" id="DejaVuSans-54" transform="scale(.01563)"/><path d="M2834 3397v-544q-243 125-506 187-262 63-544 63-428 0-642-131t-214-394q0-200 153-314t616-217l197-44q612-131 870-370t258-667q0-488-386-773Q2250-91 1575-91q-281 0-586 55T347 128v594q319-166 628-249 309-82 613-82 406 0 624 139 219 139 219 392 0 234-158 359-157 125-692 241l-200 47q-534 112-772 345-237 233-237 639 0 494 350 762 350 269 994 269 318 0 599-47 282-46 519-140z" id="DejaVuSans-73" transform="scale(.01563)"/></defs><use xlink:href="#DejaVuSans-54"/><use x="44.084" xlink:href="#DejaVuSans-6f"/><use x="105.266" xlink:href="#DejaVuSans-74"/><use x="144.475" xlink:href="#DejaVuSans-61"/><use x="205.754" xlink:href="#DejaVuSans-6c"/><use x="233.537" xlink:href="#DejaVuSans-73"/><use x="285.637" xlink:href="#DejaVuSans-20"/><use x="317.424" xlink:href="#DejaVuSans-70"/><use x="380.9" xlink:href="#DejaVuSans-65"/><use x="442.424" xlink:href="#DejaVuSans-72"/><use x="483.537" xlink:href="#DejaVuSans-20"/><use x="515.324" xlink:href="#DejaVuSans-63"/><use x="570.305" xlink:href="#DejaVuSans-72"/><use x="611.418" xlink:href="#DejaVuSans-79"/><use x="670.598" xlink:href="#DejaVuSans-73"/><use x="722.697" xlink:href="#DejaVuSans-74"/><use x="761.906" xlink:href="#DejaVuSans-61"/><use x="823.186" xlink:href="#DejaVuSans-6c"/><use x="850.969" xlink:href="#DejaVuSans-20"/><use x="882.756" xlink:href="#DejaVuSans-73"/><use x="934.855" xlink:href="#DejaVuSans-79"/><use x="994.035" xlink:href="#DejaVuSans-73"/><use x="1046.135" xlink:href="#DejaVuSans-74"/><use x="1085.344" xlink:href="#DejaVuSans-65"/><use x="1146.867" xlink:href="#DejaVuSans-6d"/></g></g></g><defs><clipPath id="p32c81d9236"><path d="M46.966 50.877h892.8v217.44h-892.8z"/></clipPath></defs></svg>