<svg width="336.781" height="309.12" viewBox="0 0 252.586 231.84" xmlns="http://www.w3.org/2000/svg"><defs><style>*{stroke-linejoin:round;stroke-linecap:butt}</style></defs><g id="figure_1"><path d="M0 231.84h252.586V0H0v231.84z" style="fill:none" id="patch_1"/><g id="axes_1"><path d="m220.536 145.504-1.37 2.113" clip-path="url(#pac8d790e43)" style="fill:#1f77b4;stroke:#000;stroke-linejoin:miter" id="patch_2"/><path d="m195.878 48.3-1.37-2.113" clip-path="url(#pac8d790e43)" style="fill:#1f77b4;stroke:#000;stroke-linejoin:miter" id="patch_3"/><path d="m193.138 44.074-1.37-2.113" clip-path="url(#pac8d790e43)" style="fill:#1f77b4;stroke:#000;stroke-linejoin:miter" id="patch_4"/><path d="m190.399 39.848-1.37-2.113" clip-path="url(#pac8d790e43)" style="fill:#1f77b4;stroke:#000;stroke-linejoin:miter" id="patch_5"/><path d="m187.659 35.621-1.37-2.113" clip-path="url(#pac8d790e43)" style="fill:#1f77b4;stroke:#000;stroke-linejoin:miter" id="patch_6"/><path d="m184.92 31.395-1.37-2.113" clip-path="url(#pac8d790e43)" style="fill:#1f77b4;stroke:#000;stroke-linejoin:miter" id="patch_7"/><path d="m182.18 27.169-1.37-2.113" clip-path="url(#pac8d790e43)" style="fill:#1f77b4;stroke:#000;stroke-linejoin:miter" id="patch_8"/><path d="m179.44 22.943-1.37-2.113" clip-path="url(#pac8d790e43)" style="fill:#1f77b4;stroke:#000;stroke-linejoin:miter" id="patch_9"/><path d="m176.7 18.717-1.37-2.114" clip-path="url(#pac8d790e43)" style="fill:#1f77b4;stroke:#000;stroke-linejoin:miter" id="patch_10"/><path d="m173.96 14.49-1.37-2.113" clip-path="url(#pac8d790e43)" style="fill:#1f77b4;stroke:#000;stroke-linejoin:miter" id="patch_11"/><path d="m139.713 63.092-1.37 2.113" clip-path="url(#pac8d790e43)" style="fill:#1f77b4;stroke:#000;stroke-linejoin:miter" id="patch_12"/><path d="m142.452 58.866-1.37 2.113" clip-path="url(#pac8d790e43)" style="fill:#1f77b4;stroke:#000;stroke-linejoin:miter" id="patch_13"/><path d="m145.192 54.64-1.37 2.113" clip-path="url(#pac8d790e43)" style="fill:#1f77b4;stroke:#000;stroke-linejoin:miter" id="patch_14"/><path d="m147.932 50.413-1.37 2.113" clip-path="url(#pac8d790e43)" style="fill:#1f77b4;stroke:#000;stroke-linejoin:miter" id="patch_15"/><path d="m150.672 46.187-1.37 2.113" clip-path="url(#pac8d790e43)" style="fill:#1f77b4;stroke:#000;stroke-linejoin:miter" id="patch_16"/><path d="m153.411 41.96-1.37 2.114" clip-path="url(#pac8d790e43)" style="fill:#1f77b4;stroke:#000;stroke-linejoin:miter" id="patch_17"/><path d="m156.151 37.735-1.37 2.113" clip-path="url(#pac8d790e43)" style="fill:#1f77b4;stroke:#000;stroke-linejoin:miter" id="patch_18"/><path d="m158.891 33.508-1.37 2.113" clip-path="url(#pac8d790e43)" style="fill:#1f77b4;stroke:#000;stroke-linejoin:miter" id="patch_19"/><path d="m161.63 29.282-1.369 2.113" clip-path="url(#pac8d790e43)" style="fill:#1f77b4;stroke:#000;stroke-linejoin:miter" id="patch_20"/><path d="M164.37 25.056 163 27.169" clip-path="url(#pac8d790e43)" style="fill:#1f77b4;stroke:#000;stroke-linejoin:miter" id="patch_21"/><path d="m167.11 20.83-1.37 2.113" clip-path="url(#pac8d790e43)" style="fill:#1f77b4;stroke:#000;stroke-linejoin:miter" id="patch_22"/><path d="m169.85 16.603-1.37 2.114" clip-path="url(#pac8d790e43)" style="fill:#1f77b4;stroke:#000;stroke-linejoin:miter" id="patch_23"/><path d="m198.618 52.526-1.37-2.113" clip-path="url(#pac8d790e43)" style="fill:#1f77b4;stroke:#000;stroke-linejoin:miter" id="patch_24"/><path d="m201.358 56.753-1.37-2.113" clip-path="url(#pac8d790e43)" style="fill:#1f77b4;stroke:#000;stroke-linejoin:miter" id="patch_25"/><path d="m204.098 60.979-1.37-2.113" clip-path="url(#pac8d790e43)" style="fill:#1f77b4;stroke:#000;stroke-linejoin:miter" id="patch_26"/><path d="m206.837 65.205-1.37-2.113" clip-path="url(#pac8d790e43)" style="fill:#1f77b4;stroke:#000;stroke-linejoin:miter" id="patch_27"/><path d="m112.315 105.354-1.37 2.114" clip-path="url(#pac8d790e43)" style="fill:#1f77b4;stroke:#000;stroke-linejoin:miter" id="patch_28"/><path d="m115.054 101.128-1.37 2.113" clip-path="url(#pac8d790e43)" style="fill:#1f77b4;stroke:#000;stroke-linejoin:miter" id="patch_29"/><path d="m117.794 96.902-1.37 2.113" clip-path="url(#pac8d790e43)" style="fill:#1f77b4;stroke:#000;stroke-linejoin:miter" id="patch_30"/><path d="m120.534 92.676-1.37 2.113" clip-path="url(#pac8d790e43)" style="fill:#1f77b4;stroke:#000;stroke-linejoin:miter" id="patch_31"/><path d="m123.274 88.45-1.37 2.113" clip-path="url(#pac8d790e43)" style="fill:#1f77b4;stroke:#000;stroke-linejoin:miter" id="patch_32"/><path d="m126.014 84.223-1.37 2.113" clip-path="url(#pac8d790e43)" style="fill:#1f77b4;stroke:#000;stroke-linejoin:miter" id="patch_33"/><path d="m128.753 79.997-1.37 2.113" clip-path="url(#pac8d790e43)" style="fill:#1f77b4;stroke:#000;stroke-linejoin:miter" id="patch_34"/><path d="m131.493 75.77-1.37 2.114" clip-path="url(#pac8d790e43)" style="fill:#1f77b4;stroke:#000;stroke-linejoin:miter" id="patch_35"/><path d="m134.233 71.544-1.37 2.114" clip-path="url(#pac8d790e43)" style="fill:#1f77b4;stroke:#000;stroke-linejoin:miter" id="patch_36"/><path d="m136.973 67.318-1.37 2.113" clip-path="url(#pac8d790e43)" style="fill:#1f77b4;stroke:#000;stroke-linejoin:miter" id="patch_37"/><path d="m172.59 12.377-1.37 2.113" clip-path="url(#pac8d790e43)" style="fill:#1f77b4;stroke:#000;stroke-linejoin:miter" id="patch_38"/><path d="m239.715 115.92-1.37-2.113" clip-path="url(#pac8d790e43)" style="fill:#1f77b4;stroke:#000;stroke-linejoin:miter" id="patch_39"/><path d="m234.235 107.468-1.37-2.114" clip-path="url(#pac8d790e43)" style="fill:#1f77b4;stroke:#000;stroke-linejoin:miter" id="patch_40"/><path d="m231.496 103.241-1.37-2.113" clip-path="url(#pac8d790e43)" style="fill:#1f77b4;stroke:#000;stroke-linejoin:miter" id="patch_41"/><path d="m228.756 99.015-1.37-2.113" clip-path="url(#pac8d790e43)" style="fill:#1f77b4;stroke:#000;stroke-linejoin:miter" id="patch_42"/><path d="m226.016 94.789-1.37-2.113" clip-path="url(#pac8d790e43)" style="fill:#1f77b4;stroke:#000;stroke-linejoin:miter" id="patch_43"/><path d="m223.276 90.563-1.37-2.114" clip-path="url(#pac8d790e43)" style="fill:#1f77b4;stroke:#000;stroke-linejoin:miter" id="patch_44"/><path d="m220.536 86.336-1.37-2.113" clip-path="url(#pac8d790e43)" style="fill:#1f77b4;stroke:#000;stroke-linejoin:miter" id="patch_45"/><path d="m217.797 82.11-1.37-2.113" clip-path="url(#pac8d790e43)" style="fill:#1f77b4;stroke:#000;stroke-linejoin:miter" id="patch_46"/><path d="m215.057 77.884-1.37-2.113" clip-path="url(#pac8d790e43)" style="fill:#1f77b4;stroke:#000;stroke-linejoin:miter" id="patch_47"/><path d="m212.317 73.658-1.37-2.114" clip-path="url(#pac8d790e43)" style="fill:#1f77b4;stroke:#000;stroke-linejoin:miter" id="patch_48"/><path d="m209.577 69.431-1.37-2.113" clip-path="url(#pac8d790e43)" style="fill:#1f77b4;stroke:#000;stroke-linejoin:miter" id="patch_49"/><path d="m236.975 111.694-1.37-2.113" clip-path="url(#pac8d790e43)" style="fill:#1f77b4;stroke:#000;stroke-linejoin:miter" id="patch_50"/><path d="m173.96 217.35-1.37 2.113" clip-path="url(#pac8d790e43)" style="fill:#1f77b4;stroke:#000;stroke-linejoin:miter" id="patch_51"/><path d="m179.44 208.897-1.37 2.113" clip-path="url(#pac8d790e43)" style="fill:#1f77b4;stroke:#000;stroke-linejoin:miter" id="patch_52"/><path d="m126.014 147.617-1.37-2.113" clip-path="url(#pac8d790e43)" style="fill:#1f77b4;stroke:#000;stroke-linejoin:miter" id="patch_53"/><path d="m123.274 143.39-1.37-2.113" clip-path="url(#pac8d790e43)" style="fill:#1f77b4;stroke:#000;stroke-linejoin:miter" id="patch_54"/><path d="m120.534 139.164-1.37-2.113" clip-path="url(#pac8d790e43)" style="fill:#1f77b4;stroke:#000;stroke-linejoin:miter" id="patch_55"/><path d="m117.794 134.938-1.37-2.113" clip-path="url(#pac8d790e43)" style="fill:#1f77b4;stroke:#000;stroke-linejoin:miter" id="patch_56"/><path d="m115.054 130.712-1.37-2.113" clip-path="url(#pac8d790e43)" style="fill:#1f77b4;stroke:#000;stroke-linejoin:miter" id="patch_57"/><path d="m112.315 126.486-1.37-2.114" clip-path="url(#pac8d790e43)" style="fill:#1f77b4;stroke:#000;stroke-linejoin:miter" id="patch_58"/><path d="m206.837 166.635-1.37 2.113" clip-path="url(#pac8d790e43)" style="fill:#1f77b4;stroke:#000;stroke-linejoin:miter" id="patch_59"/><path d="m209.577 162.409-1.37 2.113" clip-path="url(#pac8d790e43)" style="fill:#1f77b4;stroke:#000;stroke-linejoin:miter" id="patch_60"/><path d="m212.317 158.182-1.37 2.114" clip-path="url(#pac8d790e43)" style="fill:#1f77b4;stroke:#000;stroke-linejoin:miter" id="patch_61"/><path d="m215.057 153.956-1.37 2.113" clip-path="url(#pac8d790e43)" style="fill:#1f77b4;stroke:#000;stroke-linejoin:miter" id="patch_62"/><path d="m217.797 149.73-1.37 2.113" clip-path="url(#pac8d790e43)" style="fill:#1f77b4;stroke:#000;stroke-linejoin:miter" id="patch_63"/><path d="m223.276 141.277-1.37 2.114" clip-path="url(#pac8d790e43)" style="fill:#1f77b4;stroke:#000;stroke-linejoin:miter" id="patch_64"/><path d="m226.016 137.051-1.37 2.113" clip-path="url(#pac8d790e43)" style="fill:#1f77b4;stroke:#000;stroke-linejoin:miter" id="patch_65"/><path d="M116.831 115.92a11.366 11.366 0 1 0-22.732 0 11.366 11.366 0 0 0 22.732 0m0 0z" clip-path="url(#pac8d790e43)" style="fill:#006985;stroke:#000;stroke-linejoin:miter" id="patch_66"/><path d="m228.756 132.825-1.37 2.113" clip-path="url(#pac8d790e43)" style="fill:#1f77b4;stroke:#000;stroke-linejoin:miter" id="patch_67"/><path d="m231.496 128.599-1.37 2.113" clip-path="url(#pac8d790e43)" style="fill:#1f77b4;stroke:#000;stroke-linejoin:miter" id="patch_68"/><path d="m234.235 124.372-1.37 2.114" clip-path="url(#pac8d790e43)" style="fill:#1f77b4;stroke:#000;stroke-linejoin:miter" id="patch_69"/><path d="m236.975 120.146-1.37 2.113" clip-path="url(#pac8d790e43)" style="fill:#1f77b4;stroke:#000;stroke-linejoin:miter" id="patch_70"/><path d="m239.715 115.92-1.37 2.113" clip-path="url(#pac8d790e43)" style="fill:#1f77b4;stroke:#000;stroke-linejoin:miter" id="patch_71"/><path d="m128.753 151.843-1.37-2.113" clip-path="url(#pac8d790e43)" style="fill:#1f77b4;stroke:#000;stroke-linejoin:miter" id="patch_72"/><path d="m131.493 156.07-1.37-2.114" clip-path="url(#pac8d790e43)" style="fill:#1f77b4;stroke:#000;stroke-linejoin:miter" id="patch_73"/><path d="m134.233 160.296-1.37-2.114" clip-path="url(#pac8d790e43)" style="fill:#1f77b4;stroke:#000;stroke-linejoin:miter" id="patch_74"/><path d="m136.973 164.522-1.37-2.113" clip-path="url(#pac8d790e43)" style="fill:#1f77b4;stroke:#000;stroke-linejoin:miter" id="patch_75"/><path d="m182.18 204.671-1.37 2.113" clip-path="url(#pac8d790e43)" style="fill:#1f77b4;stroke:#000;stroke-linejoin:miter" id="patch_76"/><path d="m184.92 200.445-1.37 2.113" clip-path="url(#pac8d790e43)" style="fill:#1f77b4;stroke:#000;stroke-linejoin:miter" id="patch_77"/><path d="m187.659 196.219-1.37 2.113" clip-path="url(#pac8d790e43)" style="fill:#1f77b4;stroke:#000;stroke-linejoin:miter" id="patch_78"/><path d="m190.399 191.992-1.37 2.113" clip-path="url(#pac8d790e43)" style="fill:#1f77b4;stroke:#000;stroke-linejoin:miter" id="patch_79"/><path d="m193.138 187.766-1.37 2.113" clip-path="url(#pac8d790e43)" style="fill:#1f77b4;stroke:#000;stroke-linejoin:miter" id="patch_80"/><path d="m195.878 183.54-1.37 2.113" clip-path="url(#pac8d790e43)" style="fill:#1f77b4;stroke:#000;stroke-linejoin:miter" id="patch_81"/><path d="m198.618 179.314-1.37 2.113" clip-path="url(#pac8d790e43)" style="fill:#1f77b4;stroke:#000;stroke-linejoin:miter" id="patch_82"/><path d="m201.358 175.087-1.37 2.113" clip-path="url(#pac8d790e43)" style="fill:#1f77b4;stroke:#000;stroke-linejoin:miter" id="patch_83"/><path d="m204.098 170.861-1.37 2.113" clip-path="url(#pac8d790e43)" style="fill:#1f77b4;stroke:#000;stroke-linejoin:miter" id="patch_84"/><path d="m172.59 219.463-1.37-2.113" clip-path="url(#pac8d790e43)" style="fill:#1f77b4;stroke:#000;stroke-linejoin:miter" id="patch_85"/><path d="m176.7 213.123-1.37 2.114" clip-path="url(#pac8d790e43)" style="fill:#1f77b4;stroke:#000;stroke-linejoin:miter" id="patch_86"/><path d="m169.85 215.237-1.37-2.114" clip-path="url(#pac8d790e43)" style="fill:#1f77b4;stroke:#000;stroke-linejoin:miter" id="patch_87"/><path d="m164.37 206.784-1.37-2.113" clip-path="url(#pac8d790e43)" style="fill:#1f77b4;stroke:#000;stroke-linejoin:miter" id="patch_88"/><path d="m161.63 202.558-1.369-2.113" clip-path="url(#pac8d790e43)" style="fill:#1f77b4;stroke:#000;stroke-linejoin:miter" id="patch_89"/><path d="m158.891 198.332-1.37-2.113" clip-path="url(#pac8d790e43)" style="fill:#1f77b4;stroke:#000;stroke-linejoin:miter" id="patch_90"/><path d="m156.151 194.105-1.37-2.113" clip-path="url(#pac8d790e43)" style="fill:#1f77b4;stroke:#000;stroke-linejoin:miter" id="patch_91"/><path d="m153.411 189.88-1.37-2.114" clip-path="url(#pac8d790e43)" style="fill:#1f77b4;stroke:#000;stroke-linejoin:miter" id="patch_92"/><path d="m150.672 185.653-1.37-2.113" clip-path="url(#pac8d790e43)" style="fill:#1f77b4;stroke:#000;stroke-linejoin:miter" id="patch_93"/><path d="m147.932 181.427-1.37-2.113" clip-path="url(#pac8d790e43)" style="fill:#1f77b4;stroke:#000;stroke-linejoin:miter" id="patch_94"/><path d="m145.192 177.2-1.37-2.113" clip-path="url(#pac8d790e43)" style="fill:#1f77b4;stroke:#000;stroke-linejoin:miter" id="patch_95"/><path d="m142.452 172.974-1.37-2.113" clip-path="url(#pac8d790e43)" style="fill:#1f77b4;stroke:#000;stroke-linejoin:miter" id="patch_96"/><path d="m139.713 168.748-1.37-2.113" clip-path="url(#pac8d790e43)" style="fill:#1f77b4;stroke:#000;stroke-linejoin:miter" id="patch_97"/><path d="m167.11 211.01-1.37-2.113" clip-path="url(#pac8d790e43)" style="fill:#1f77b4;stroke:#000;stroke-linejoin:miter" id="patch_98"/><path d="M163.79 129.518a14.31 14.31 0 1 0-28.62 0 14.31 14.31 0 0 0 28.62 0m0 0z" clip-path="url(#pac8d790e43)" style="fill:#94e0e0;stroke:#000;stroke-linejoin:miter" id="patch_99"/><path d="M170.7 219.463h1.89" clip-path="url(#pac8d790e43)" style="fill:#1f77b4;stroke:#000;stroke-linejoin:miter" id="patch_100"/><path d="M170.7 12.377h1.89" clip-path="url(#pac8d790e43)" style="fill:#1f77b4;stroke:#000;stroke-linejoin:miter" id="patch_101"/><path d="M237.825 115.92h1.89" clip-path="url(#pac8d790e43)" style="fill:#1f77b4;stroke:#000;stroke-linejoin:miter" id="patch_102"/><path d="M166.921 219.463h1.89" clip-path="url(#pac8d790e43)" style="fill:#1f77b4;stroke:#000;stroke-linejoin:miter" id="patch_103"/><path d="M166.921 12.377h1.89" clip-path="url(#pac8d790e43)" style="fill:#1f77b4;stroke:#000;stroke-linejoin:miter" id="patch_104"/><path d="M234.046 115.92h1.89" clip-path="url(#pac8d790e43)" style="fill:#1f77b4;stroke:#000;stroke-linejoin:miter" id="patch_105"/><path d="M163.206 82.642a11.366 11.366 0 1 0-22.732 0 11.366 11.366 0 0 0 22.732 0m0 0z" clip-path="url(#pac8d790e43)" style="fill:#006985;stroke:#000;stroke-linejoin:miter" id="patch_106"/><path d="M96.017 115.92h1.89" clip-path="url(#pac8d790e43)" style="fill:#1f77b4;stroke:#000;stroke-linejoin:miter" id="patch_107"/><path d="M163.142 12.377h1.89" clip-path="url(#pac8d790e43)" style="fill:#1f77b4;stroke:#000;stroke-linejoin:miter" id="patch_108"/><path d="M163.142 219.463h1.89" clip-path="url(#pac8d790e43)" style="fill:#1f77b4;stroke:#000;stroke-linejoin:miter" id="patch_109"/><path d="M230.267 115.92h1.89" clip-path="url(#pac8d790e43)" style="fill:#1f77b4;stroke:#000;stroke-linejoin:miter" id="patch_110"/><path d="M159.362 219.463h1.89" clip-path="url(#pac8d790e43)" style="fill:#1f77b4;stroke:#000;stroke-linejoin:miter" id="patch_111"/><path d="M92.237 115.92h1.89" clip-path="url(#pac8d790e43)" style="fill:#1f77b4;stroke:#000;stroke-linejoin:miter" id="patch_112"/><path d="M159.362 12.377h1.89" clip-path="url(#pac8d790e43)" style="fill:#1f77b4;stroke:#000;stroke-linejoin:miter" id="patch_113"/><path d="M226.487 115.92h1.89" clip-path="url(#pac8d790e43)" style="fill:#1f77b4;stroke:#000;stroke-linejoin:miter" id="patch_114"/><path d="M155.583 219.463h1.89" clip-path="url(#pac8d790e43)" style="fill:#1f77b4;stroke:#000;stroke-linejoin:miter" id="patch_115"/><path d="M88.458 115.92h1.89" clip-path="url(#pac8d790e43)" style="fill:#1f77b4;stroke:#000;stroke-linejoin:miter" id="patch_116"/><path d="M155.583 12.377h1.89" clip-path="url(#pac8d790e43)" style="fill:#1f77b4;stroke:#000;stroke-linejoin:miter" id="patch_117"/><path d="M222.708 115.92h1.89" clip-path="url(#pac8d790e43)" style="fill:#1f77b4;stroke:#000;stroke-linejoin:miter" id="patch_118"/><path d="M218.929 115.92h1.89" clip-path="url(#pac8d790e43)" style="fill:#1f77b4;stroke:#000;stroke-linejoin:miter" id="patch_119"/><path d="M151.804 219.463h1.89" clip-path="url(#pac8d790e43)" style="fill:#1f77b4;stroke:#000;stroke-linejoin:miter" id="patch_120"/><path d="M151.804 12.377h1.89" clip-path="url(#pac8d790e43)" style="fill:#1f77b4;stroke:#000;stroke-linejoin:miter" id="patch_121"/><path d="M84.679 115.92h1.89" clip-path="url(#pac8d790e43)" style="fill:#1f77b4;stroke:#000;stroke-linejoin:miter" id="patch_122"/><path d="M137.53 165.843a11.366 11.366 0 1 0-22.733 0 11.366 11.366 0 0 0 22.733 0m0 0z" clip-path="url(#pac8d790e43)" style="fill:#006985;stroke:#000;stroke-linejoin:miter" id="patch_123"/><path d="M148.024 219.463h1.89" clip-path="url(#pac8d790e43)" style="fill:#1f77b4;stroke:#000;stroke-linejoin:miter" id="patch_124"/><path d="M215.15 115.92h1.889" clip-path="url(#pac8d790e43)" style="fill:#1f77b4;stroke:#000;stroke-linejoin:miter" id="patch_125"/><path d="M148.024 12.377h1.89" clip-path="url(#pac8d790e43)" style="fill:#1f77b4;stroke:#000;stroke-linejoin:miter" id="patch_126"/><path d="M80.9 115.92h1.889" clip-path="url(#pac8d790e43)" style="fill:#1f77b4;stroke:#000;stroke-linejoin:miter" id="patch_127"/><path d="M122.144 75.323a14.31 14.31 0 1 0-28.62 0 14.31 14.31 0 0 0 28.62 0m0 0z" clip-path="url(#pac8d790e43)" style="fill:#94e0e0;stroke:#000;stroke-linejoin:miter" id="patch_128"/><path d="M77.12 115.92h1.89" clip-path="url(#pac8d790e43)" style="fill:#1f77b4;stroke:#000;stroke-linejoin:miter" id="patch_129"/><path d="M144.245 219.463h1.89" clip-path="url(#pac8d790e43)" style="fill:#1f77b4;stroke:#000;stroke-linejoin:miter" id="patch_130"/><path d="M211.37 115.92h1.89" clip-path="url(#pac8d790e43)" style="fill:#1f77b4;stroke:#000;stroke-linejoin:miter" id="patch_131"/><path d="M144.245 12.377h1.89" clip-path="url(#pac8d790e43)" style="fill:#1f77b4;stroke:#000;stroke-linejoin:miter" id="patch_132"/><path d="M140.466 12.377h1.89" clip-path="url(#pac8d790e43)" style="fill:#1f77b4;stroke:#000;stroke-linejoin:miter" id="patch_133"/><path d="M73.34 115.92h1.89" clip-path="url(#pac8d790e43)" style="fill:#1f77b4;stroke:#000;stroke-linejoin:miter" id="patch_134"/><path d="M207.59 115.92h1.89" clip-path="url(#pac8d790e43)" style="fill:#1f77b4;stroke:#000;stroke-linejoin:miter" id="patch_135"/><path d="M140.466 219.463h1.89" clip-path="url(#pac8d790e43)" style="fill:#1f77b4;stroke:#000;stroke-linejoin:miter" id="patch_136"/><path d="M203.811 115.92h1.89" clip-path="url(#pac8d790e43)" style="fill:#1f77b4;stroke:#000;stroke-linejoin:miter" id="patch_137"/><path d="M136.686 219.463h1.89" clip-path="url(#pac8d790e43)" style="fill:#1f77b4;stroke:#000;stroke-linejoin:miter" id="patch_138"/><path d="M136.686 12.377h1.89" clip-path="url(#pac8d790e43)" style="fill:#1f77b4;stroke:#000;stroke-linejoin:miter" id="patch_139"/><path d="M69.561 115.92h1.89" clip-path="url(#pac8d790e43)" style="fill:#1f77b4;stroke:#000;stroke-linejoin:miter" id="patch_140"/><path d="M101.167 142.918a14.31 14.31 0 1 0-28.62 0 14.31 14.31 0 0 0 28.62 0m0 0z" clip-path="url(#pac8d790e43)" style="fill:#94e0e0;stroke:#000;stroke-linejoin:miter" id="patch_141"/><path d="M65.782 115.92h1.89" clip-path="url(#pac8d790e43)" style="fill:#1f77b4;stroke:#000;stroke-linejoin:miter" id="patch_142"/><path d="M132.907 12.377h1.89" clip-path="url(#pac8d790e43)" style="fill:#1f77b4;stroke:#000;stroke-linejoin:miter" id="patch_143"/><path d="M132.907 219.463h1.89" clip-path="url(#pac8d790e43)" style="fill:#1f77b4;stroke:#000;stroke-linejoin:miter" id="patch_144"/><path d="M200.032 115.92h1.89" clip-path="url(#pac8d790e43)" style="fill:#1f77b4;stroke:#000;stroke-linejoin:miter" id="patch_145"/><path d="M189.12 132.565a11.366 11.366 0 1 0-22.732 0 11.366 11.366 0 0 0 22.733 0m0 0z" clip-path="url(#pac8d790e43)" style="fill:#006985;stroke:#000;stroke-linejoin:miter" id="patch_146"/><path d="M129.128 12.377h1.89" clip-path="url(#pac8d790e43)" style="fill:#1f77b4;stroke:#000;stroke-linejoin:miter" id="patch_147"/><path d="M129.128 219.463h1.89" clip-path="url(#pac8d790e43)" style="fill:#1f77b4;stroke:#000;stroke-linejoin:miter" id="patch_148"/><path d="M62.003 115.92h1.89" clip-path="url(#pac8d790e43)" style="fill:#1f77b4;stroke:#000;stroke-linejoin:miter" id="patch_149"/><path d="M196.252 115.92h1.89" clip-path="url(#pac8d790e43)" style="fill:#1f77b4;stroke:#000;stroke-linejoin:miter" id="patch_150"/><path d="M125.348 219.463h1.89" clip-path="url(#pac8d790e43)" style="fill:#1f77b4;stroke:#000;stroke-linejoin:miter" id="patch_151"/><path d="M125.348 12.377h1.89" clip-path="url(#pac8d790e43)" style="fill:#1f77b4;stroke:#000;stroke-linejoin:miter" id="patch_152"/><path d="M58.223 115.92h1.89" clip-path="url(#pac8d790e43)" style="fill:#1f77b4;stroke:#000;stroke-linejoin:miter" id="patch_153"/><path d="M137.66 115.92a11.366 11.366 0 1 0-22.734 0 11.366 11.366 0 0 0 22.733 0m0 0z" clip-path="url(#pac8d790e43)" style="fill:#006985;stroke:#000;stroke-linejoin:miter" id="patch_154"/><path d="M192.473 115.92h1.89" clip-path="url(#pac8d790e43)" style="fill:#1f77b4;stroke:#000;stroke-linejoin:miter" id="patch_155"/><path d="M188.694 115.92h1.89" clip-path="url(#pac8d790e43)" style="fill:#1f77b4;stroke:#000;stroke-linejoin:miter" id="patch_156"/><path d="M54.444 115.92h1.89" clip-path="url(#pac8d790e43)" style="fill:#1f77b4;stroke:#000;stroke-linejoin:miter" id="patch_157"/><path d="M121.569 219.463h1.89" clip-path="url(#pac8d790e43)" style="fill:#1f77b4;stroke:#000;stroke-linejoin:miter" id="patch_158"/><path d="M121.569 12.377h1.89" clip-path="url(#pac8d790e43)" style="fill:#1f77b4;stroke:#000;stroke-linejoin:miter" id="patch_159"/><path d="M86.197 99.275a11.366 11.366 0 1 0-22.732 0 11.366 11.366 0 0 0 22.732 0m0 0z" clip-path="url(#pac8d790e43)" style="fill:#006985;stroke:#000;stroke-linejoin:miter" id="patch_160"/><path d="M117.79 219.463h1.89" clip-path="url(#pac8d790e43)" style="fill:#1f77b4;stroke:#000;stroke-linejoin:miter" id="patch_161"/><path d="M50.665 115.92h1.89" clip-path="url(#pac8d790e43)" style="fill:#1f77b4;stroke:#000;stroke-linejoin:miter" id="patch_162"/><path d="M184.914 115.92h1.89" clip-path="url(#pac8d790e43)" style="fill:#1f77b4;stroke:#000;stroke-linejoin:miter" id="patch_163"/><path d="M117.79 12.377h1.89" clip-path="url(#pac8d790e43)" style="fill:#1f77b4;stroke:#000;stroke-linejoin:miter" id="patch_164"/><path d="M180.038 88.922a14.31 14.31 0 1 0-28.62 0 14.31 14.31 0 0 0 28.62 0m0 0z" clip-path="url(#pac8d790e43)" style="fill:#94e0e0;stroke:#000;stroke-linejoin:miter" id="patch_165"/><path d="M46.885 115.92h1.89" clip-path="url(#pac8d790e43)" style="fill:#1f77b4;stroke:#000;stroke-linejoin:miter" id="patch_166"/><path d="M114.01 12.377h1.89" clip-path="url(#pac8d790e43)" style="fill:#1f77b4;stroke:#000;stroke-linejoin:miter" id="patch_167"/><path d="M114.01 219.463h1.89" clip-path="url(#pac8d790e43)" style="fill:#1f77b4;stroke:#000;stroke-linejoin:miter" id="patch_168"/><path d="M181.135 115.92h1.89" clip-path="url(#pac8d790e43)" style="fill:#1f77b4;stroke:#000;stroke-linejoin:miter" id="patch_169"/><path d="M110.23 12.377h1.89" clip-path="url(#pac8d790e43)" style="fill:#1f77b4;stroke:#000;stroke-linejoin:miter" id="patch_170"/><path d="M43.106 115.92h1.89" clip-path="url(#pac8d790e43)" style="fill:#1f77b4;stroke:#000;stroke-linejoin:miter" id="patch_171"/><path d="M110.23 219.463h1.89" clip-path="url(#pac8d790e43)" style="fill:#1f77b4;stroke:#000;stroke-linejoin:miter" id="patch_172"/><path d="M177.356 115.92h1.89" clip-path="url(#pac8d790e43)" style="fill:#1f77b4;stroke:#000;stroke-linejoin:miter" id="patch_173"/><path d="M106.451 12.377h1.89" clip-path="url(#pac8d790e43)" style="fill:#1f77b4;stroke:#000;stroke-linejoin:miter" id="patch_174"/><path d="M173.576 115.92h1.89" clip-path="url(#pac8d790e43)" style="fill:#1f77b4;stroke:#000;stroke-linejoin:miter" id="patch_175"/><path d="M39.327 115.92h1.89" clip-path="url(#pac8d790e43)" style="fill:#1f77b4;stroke:#000;stroke-linejoin:miter" id="patch_176"/><path d="M106.451 219.463h1.89" clip-path="url(#pac8d790e43)" style="fill:#1f77b4;stroke:#000;stroke-linejoin:miter" id="patch_177"/><path d="M159.062 156.517a14.31 14.31 0 1 0-28.62 0 14.31 14.31 0 0 0 28.62 0m0 0z" clip-path="url(#pac8d790e43)" style="fill:#94e0e0;stroke:#000;stroke-linejoin:miter" id="patch_178"/><path d="M102.672 219.463h1.89" clip-path="url(#pac8d790e43)" style="fill:#1f77b4;stroke:#000;stroke-linejoin:miter" id="patch_179"/><path d="M102.672 12.377h1.89" clip-path="url(#pac8d790e43)" style="fill:#1f77b4;stroke:#000;stroke-linejoin:miter" id="patch_180"/><path d="M35.547 115.92h1.89" clip-path="url(#pac8d790e43)" style="fill:#1f77b4;stroke:#000;stroke-linejoin:miter" id="patch_181"/><path d="M169.797 115.92h1.89" clip-path="url(#pac8d790e43)" style="fill:#1f77b4;stroke:#000;stroke-linejoin:miter" id="patch_182"/><path d="M137.788 65.997a11.366 11.366 0 1 0-22.733 0 11.366 11.366 0 0 0 22.733 0m0 0z" clip-path="url(#pac8d790e43)" style="fill:#006985;stroke:#000;stroke-linejoin:miter" id="patch_183"/><path d="M98.893 12.377h1.89" clip-path="url(#pac8d790e43)" style="fill:#1f77b4;stroke:#000;stroke-linejoin:miter" id="patch_184"/><path d="M166.018 115.92h1.89" clip-path="url(#pac8d790e43)" style="fill:#1f77b4;stroke:#000;stroke-linejoin:miter" id="patch_185"/><path d="M31.768 115.92h1.89" clip-path="url(#pac8d790e43)" style="fill:#1f77b4;stroke:#000;stroke-linejoin:miter" id="patch_186"/><path d="M98.893 219.463h1.89" clip-path="url(#pac8d790e43)" style="fill:#1f77b4;stroke:#000;stroke-linejoin:miter" id="patch_187"/><path d="M95.113 219.463h1.89" clip-path="url(#pac8d790e43)" style="fill:#1f77b4;stroke:#000;stroke-linejoin:miter" id="patch_188"/><path d="M95.113 12.377h1.89" clip-path="url(#pac8d790e43)" style="fill:#1f77b4;stroke:#000;stroke-linejoin:miter" id="patch_189"/><path d="M162.238 115.92h1.89" clip-path="url(#pac8d790e43)" style="fill:#1f77b4;stroke:#000;stroke-linejoin:miter" id="patch_190"/><path d="M27.988 115.92h1.89" clip-path="url(#pac8d790e43)" style="fill:#1f77b4;stroke:#000;stroke-linejoin:miter" id="patch_191"/><path d="M158.459 115.92h1.89" clip-path="url(#pac8d790e43)" style="fill:#1f77b4;stroke:#000;stroke-linejoin:miter" id="patch_192"/><path d="M91.334 219.463h1.89" clip-path="url(#pac8d790e43)" style="fill:#1f77b4;stroke:#000;stroke-linejoin:miter" id="patch_193"/><path d="M91.334 12.377h1.89" clip-path="url(#pac8d790e43)" style="fill:#1f77b4;stroke:#000;stroke-linejoin:miter" id="patch_194"/><path d="M24.21 115.92h1.889" clip-path="url(#pac8d790e43)" style="fill:#1f77b4;stroke:#000;stroke-linejoin:miter" id="patch_195"/><path d="M20.43 115.92h1.89" clip-path="url(#pac8d790e43)" style="fill:#1f77b4;stroke:#000;stroke-linejoin:miter" id="patch_196"/><path d="M87.555 219.463h1.89" clip-path="url(#pac8d790e43)" style="fill:#1f77b4;stroke:#000;stroke-linejoin:miter" id="patch_197"/><path d="M87.555 12.377h1.89" clip-path="url(#pac8d790e43)" style="fill:#1f77b4;stroke:#000;stroke-linejoin:miter" id="patch_198"/><path d="M154.68 115.92h1.89" clip-path="url(#pac8d790e43)" style="fill:#1f77b4;stroke:#000;stroke-linejoin:miter" id="patch_199"/><path d="M112.112 149.198a11.366 11.366 0 1 0-22.733 0 11.366 11.366 0 0 0 22.733 0m0 0z" clip-path="url(#pac8d790e43)" style="fill:#006985;stroke:#000;stroke-linejoin:miter" id="patch_200"/><path d="M16.65 115.92h1.89" clip-path="url(#pac8d790e43)" style="fill:#1f77b4;stroke:#000;stroke-linejoin:miter" id="patch_201"/><path d="M83.775 219.463h1.89" clip-path="url(#pac8d790e43)" style="fill:#1f77b4;stroke:#000;stroke-linejoin:miter" id="patch_202"/><path d="M83.775 12.377h1.89" clip-path="url(#pac8d790e43)" style="fill:#1f77b4;stroke:#000;stroke-linejoin:miter" id="patch_203"/><path d="M150.9 115.92h1.89" clip-path="url(#pac8d790e43)" style="fill:#1f77b4;stroke:#000;stroke-linejoin:miter" id="patch_204"/><path d="M12.871 115.92h1.89" clip-path="url(#pac8d790e43)" style="fill:#1f77b4;stroke:#000;stroke-linejoin:miter" id="patch_205"/><path d="M79.996 219.463h1.89" clip-path="url(#pac8d790e43)" style="fill:#1f77b4;stroke:#000;stroke-linejoin:miter" id="patch_206"/><path d="M79.996 12.377h1.89" clip-path="url(#pac8d790e43)" style="fill:#1f77b4;stroke:#000;stroke-linejoin:miter" id="patch_207"/><path d="M147.121 115.92h1.89" clip-path="url(#pac8d790e43)" style="fill:#1f77b4;stroke:#000;stroke-linejoin:miter" id="patch_208"/><path d="M117.416 102.322a14.31 14.31 0 1 0-28.62 0 14.31 14.31 0 0 0 28.62 0m0 0z" clip-path="url(#pac8d790e43)" style="fill:#94e0e0;stroke:#000;stroke-linejoin:miter" id="patch_209"/><path d="m116.983 69.431-1.37-2.113" clip-path="url(#pac8d790e43)" style="fill:#1f77b4;stroke:#000;stroke-linejoin:miter" id="patch_210"/><path d="m144.381 120.146-1.37 2.113" clip-path="url(#pac8d790e43)" style="fill:#1f77b4;stroke:#000;stroke-linejoin:miter" id="patch_211"/><path d="m74.516 211.01-1.37-2.113" clip-path="url(#pac8d790e43)" style="fill:#1f77b4;stroke:#000;stroke-linejoin:miter" id="patch_212"/><path d="m71.777 206.784-1.37-2.113" clip-path="url(#pac8d790e43)" style="fill:#1f77b4;stroke:#000;stroke-linejoin:miter" id="patch_213"/><path d="m69.037 202.558-1.37-2.113" clip-path="url(#pac8d790e43)" style="fill:#1f77b4;stroke:#000;stroke-linejoin:miter" id="patch_214"/><path d="m66.297 198.332-1.37-2.113" clip-path="url(#pac8d790e43)" style="fill:#1f77b4;stroke:#000;stroke-linejoin:miter" id="patch_215"/><path d="m63.557 194.105-1.37-2.113" clip-path="url(#pac8d790e43)" style="fill:#1f77b4;stroke:#000;stroke-linejoin:miter" id="patch_216"/><path d="m60.817 189.88-1.37-2.114" clip-path="url(#pac8d790e43)" style="fill:#1f77b4;stroke:#000;stroke-linejoin:miter" id="patch_217"/><path d="m58.078 185.653-1.37-2.113" clip-path="url(#pac8d790e43)" style="fill:#1f77b4;stroke:#000;stroke-linejoin:miter" id="patch_218"/><path d="m55.338 181.427-1.37-2.113" clip-path="url(#pac8d790e43)" style="fill:#1f77b4;stroke:#000;stroke-linejoin:miter" id="patch_219"/><path d="m52.598 177.2-1.37-2.113" clip-path="url(#pac8d790e43)" style="fill:#1f77b4;stroke:#000;stroke-linejoin:miter" id="patch_220"/><path d="m49.858 172.974-1.37-2.113" clip-path="url(#pac8d790e43)" style="fill:#1f77b4;stroke:#000;stroke-linejoin:miter" id="patch_221"/><path d="m47.119 168.748-1.37-2.113" clip-path="url(#pac8d790e43)" style="fill:#1f77b4;stroke:#000;stroke-linejoin:miter" id="patch_222"/><path d="m44.379 164.522-1.37-2.113" clip-path="url(#pac8d790e43)" style="fill:#1f77b4;stroke:#000;stroke-linejoin:miter" id="patch_223"/><path d="m41.639 160.296-1.37-2.114" clip-path="url(#pac8d790e43)" style="fill:#1f77b4;stroke:#000;stroke-linejoin:miter" id="patch_224"/><path d="m38.9 156.07-1.37-2.114" clip-path="url(#pac8d790e43)" style="fill:#1f77b4;stroke:#000;stroke-linejoin:miter" id="patch_225"/><path d="m36.16 151.843-1.37-2.113" clip-path="url(#pac8d790e43)" style="fill:#1f77b4;stroke:#000;stroke-linejoin:miter" id="patch_226"/><path d="m33.42 147.617-1.37-2.113" clip-path="url(#pac8d790e43)" style="fill:#1f77b4;stroke:#000;stroke-linejoin:miter" id="patch_227"/><path d="m30.68 143.39-1.37-2.113" clip-path="url(#pac8d790e43)" style="fill:#1f77b4;stroke:#000;stroke-linejoin:miter" id="patch_228"/><path d="m27.94 139.164-1.37-2.113" clip-path="url(#pac8d790e43)" style="fill:#1f77b4;stroke:#000;stroke-linejoin:miter" id="patch_229"/><path d="m25.2 134.938-1.37-2.113" clip-path="url(#pac8d790e43)" style="fill:#1f77b4;stroke:#000;stroke-linejoin:miter" id="patch_230"/><path d="m22.46 130.712-1.37-2.113" clip-path="url(#pac8d790e43)" style="fill:#1f77b4;stroke:#000;stroke-linejoin:miter" id="patch_231"/><path d="m19.72 126.486-1.37-2.114" clip-path="url(#pac8d790e43)" style="fill:#1f77b4;stroke:#000;stroke-linejoin:miter" id="patch_232"/><path d="m77.256 215.237-1.37-2.114" clip-path="url(#pac8d790e43)" style="fill:#1f77b4;stroke:#000;stroke-linejoin:miter" id="patch_233"/><path d="m16.98 122.26-1.37-2.114" clip-path="url(#pac8d790e43)" style="fill:#1f77b4;stroke:#000;stroke-linejoin:miter" id="patch_234"/><path d="m79.996 219.463-1.37-2.113" clip-path="url(#pac8d790e43)" style="fill:#1f77b4;stroke:#000;stroke-linejoin:miter" id="patch_235"/><path d="m84.106 18.717-1.37-2.114" clip-path="url(#pac8d790e43)" style="fill:#1f77b4;stroke:#000;stroke-linejoin:miter" id="patch_236"/><path d="m119.723 73.658-1.37-2.114" clip-path="url(#pac8d790e43)" style="fill:#1f77b4;stroke:#000;stroke-linejoin:miter" id="patch_237"/><path d="m122.463 77.884-1.37-2.113" clip-path="url(#pac8d790e43)" style="fill:#1f77b4;stroke:#000;stroke-linejoin:miter" id="patch_238"/><path d="m125.203 82.11-1.37-2.113" clip-path="url(#pac8d790e43)" style="fill:#1f77b4;stroke:#000;stroke-linejoin:miter" id="patch_239"/><path d="m127.942 86.336-1.37-2.113" clip-path="url(#pac8d790e43)" style="fill:#1f77b4;stroke:#000;stroke-linejoin:miter" id="patch_240"/><path d="m130.682 90.563-1.37-2.114" clip-path="url(#pac8d790e43)" style="fill:#1f77b4;stroke:#000;stroke-linejoin:miter" id="patch_241"/><path d="m133.422 94.789-1.37-2.113" clip-path="url(#pac8d790e43)" style="fill:#1f77b4;stroke:#000;stroke-linejoin:miter" id="patch_242"/><path d="m136.162 99.015-1.37-2.113" clip-path="url(#pac8d790e43)" style="fill:#1f77b4;stroke:#000;stroke-linejoin:miter" id="patch_243"/><path d="m138.902 103.241-1.37-2.113" clip-path="url(#pac8d790e43)" style="fill:#1f77b4;stroke:#000;stroke-linejoin:miter" id="patch_244"/><path d="m141.641 107.468-1.37-2.114" clip-path="url(#pac8d790e43)" style="fill:#1f77b4;stroke:#000;stroke-linejoin:miter" id="patch_245"/><path d="m144.381 111.694-1.37-2.113" clip-path="url(#pac8d790e43)" style="fill:#1f77b4;stroke:#000;stroke-linejoin:miter" id="patch_246"/><path d="m147.121 115.92-1.37-2.113" clip-path="url(#pac8d790e43)" style="fill:#1f77b4;stroke:#000;stroke-linejoin:miter" id="patch_247"/><path d="m111.504 60.979-1.37-2.113" clip-path="url(#pac8d790e43)" style="fill:#1f77b4;stroke:#000;stroke-linejoin:miter" id="patch_248"/><path d="m108.764 56.753-1.37-2.113" clip-path="url(#pac8d790e43)" style="fill:#1f77b4;stroke:#000;stroke-linejoin:miter" id="patch_249"/><path d="m106.024 52.526-1.37-2.113" clip-path="url(#pac8d790e43)" style="fill:#1f77b4;stroke:#000;stroke-linejoin:miter" id="patch_250"/><path d="m103.284 48.3-1.37-2.113" clip-path="url(#pac8d790e43)" style="fill:#1f77b4;stroke:#000;stroke-linejoin:miter" id="patch_251"/><path d="m100.544 44.074-1.37-2.113" clip-path="url(#pac8d790e43)" style="fill:#1f77b4;stroke:#000;stroke-linejoin:miter" id="patch_252"/><path d="m97.805 39.848-1.37-2.113" clip-path="url(#pac8d790e43)" style="fill:#1f77b4;stroke:#000;stroke-linejoin:miter" id="patch_253"/><path d="m95.065 35.621-1.37-2.113" clip-path="url(#pac8d790e43)" style="fill:#1f77b4;stroke:#000;stroke-linejoin:miter" id="patch_254"/><path d="m92.325 31.395-1.37-2.113" clip-path="url(#pac8d790e43)" style="fill:#1f77b4;stroke:#000;stroke-linejoin:miter" id="patch_255"/><path d="m89.585 27.169-1.37-2.113" clip-path="url(#pac8d790e43)" style="fill:#1f77b4;stroke:#000;stroke-linejoin:miter" id="patch_256"/><path d="m86.846 22.943-1.37-2.113" clip-path="url(#pac8d790e43)" style="fill:#1f77b4;stroke:#000;stroke-linejoin:miter" id="patch_257"/><path d="m81.366 14.49-1.37-2.113" clip-path="url(#pac8d790e43)" style="fill:#1f77b4;stroke:#000;stroke-linejoin:miter" id="patch_258"/><path d="m147.121 115.92-1.37 2.113" clip-path="url(#pac8d790e43)" style="fill:#1f77b4;stroke:#000;stroke-linejoin:miter" id="patch_259"/><path d="m14.241 118.033-1.37-2.113" clip-path="url(#pac8d790e43)" style="fill:#1f77b4;stroke:#000;stroke-linejoin:miter" id="patch_260"/><path d="m16.98 109.58-1.37 2.114" clip-path="url(#pac8d790e43)" style="fill:#1f77b4;stroke:#000;stroke-linejoin:miter" id="patch_261"/><path d="m86.846 208.897-1.37 2.113" clip-path="url(#pac8d790e43)" style="fill:#1f77b4;stroke:#000;stroke-linejoin:miter" id="patch_262"/><path d="m89.585 204.671-1.37 2.113" clip-path="url(#pac8d790e43)" style="fill:#1f77b4;stroke:#000;stroke-linejoin:miter" id="patch_263"/><path d="m92.325 200.445-1.37 2.113" clip-path="url(#pac8d790e43)" style="fill:#1f77b4;stroke:#000;stroke-linejoin:miter" id="patch_264"/><path d="m95.065 196.219-1.37 2.113" clip-path="url(#pac8d790e43)" style="fill:#1f77b4;stroke:#000;stroke-linejoin:miter" id="patch_265"/><path d="m97.805 191.992-1.37 2.113" clip-path="url(#pac8d790e43)" style="fill:#1f77b4;stroke:#000;stroke-linejoin:miter" id="patch_266"/><path d="m100.544 187.766-1.37 2.113" clip-path="url(#pac8d790e43)" style="fill:#1f77b4;stroke:#000;stroke-linejoin:miter" id="patch_267"/><path d="m103.284 183.54-1.37 2.113" clip-path="url(#pac8d790e43)" style="fill:#1f77b4;stroke:#000;stroke-linejoin:miter" id="patch_268"/><path d="m106.024 179.314-1.37 2.113" clip-path="url(#pac8d790e43)" style="fill:#1f77b4;stroke:#000;stroke-linejoin:miter" id="patch_269"/><path d="m108.764 175.087-1.37 2.113" clip-path="url(#pac8d790e43)" style="fill:#1f77b4;stroke:#000;stroke-linejoin:miter" id="patch_270"/><path d="m111.504 170.861-1.37 2.113" clip-path="url(#pac8d790e43)" style="fill:#1f77b4;stroke:#000;stroke-linejoin:miter" id="patch_271"/><path d="m114.243 166.635-1.37 2.113" clip-path="url(#pac8d790e43)" style="fill:#1f77b4;stroke:#000;stroke-linejoin:miter" id="patch_272"/><path d="m116.983 162.409-1.37 2.113" clip-path="url(#pac8d790e43)" style="fill:#1f77b4;stroke:#000;stroke-linejoin:miter" id="patch_273"/><path d="m119.723 158.182-1.37 2.114" clip-path="url(#pac8d790e43)" style="fill:#1f77b4;stroke:#000;stroke-linejoin:miter" id="patch_274"/><path d="m122.463 153.956-1.37 2.113" clip-path="url(#pac8d790e43)" style="fill:#1f77b4;stroke:#000;stroke-linejoin:miter" id="patch_275"/><path d="m125.203 149.73-1.37 2.113" clip-path="url(#pac8d790e43)" style="fill:#1f77b4;stroke:#000;stroke-linejoin:miter" id="patch_276"/><path d="m127.942 145.504-1.37 2.113" clip-path="url(#pac8d790e43)" style="fill:#1f77b4;stroke:#000;stroke-linejoin:miter" id="patch_277"/><path d="m114.243 65.205-1.37-2.113" clip-path="url(#pac8d790e43)" style="fill:#1f77b4;stroke:#000;stroke-linejoin:miter" id="patch_278"/><path d="m133.422 137.051-1.37 2.113" clip-path="url(#pac8d790e43)" style="fill:#1f77b4;stroke:#000;stroke-linejoin:miter" id="patch_279"/><path d="m136.162 132.825-1.37 2.113" clip-path="url(#pac8d790e43)" style="fill:#1f77b4;stroke:#000;stroke-linejoin:miter" id="patch_280"/><path d="m138.902 128.599-1.37 2.113" clip-path="url(#pac8d790e43)" style="fill:#1f77b4;stroke:#000;stroke-linejoin:miter" id="patch_281"/><path d="m141.641 124.372-1.37 2.114" clip-path="url(#pac8d790e43)" style="fill:#1f77b4;stroke:#000;stroke-linejoin:miter" id="patch_282"/><path d="m84.106 213.123-1.37 2.114" clip-path="url(#pac8d790e43)" style="fill:#1f77b4;stroke:#000;stroke-linejoin:miter" id="patch_283"/><path d="m14.241 113.807-1.37 2.113" clip-path="url(#pac8d790e43)" style="fill:#1f77b4;stroke:#000;stroke-linejoin:miter" id="patch_284"/><path d="m81.366 217.35-1.37 2.113" clip-path="url(#pac8d790e43)" style="fill:#1f77b4;stroke:#000;stroke-linejoin:miter" id="patch_285"/><path d="m77.256 16.603-1.37 2.114" clip-path="url(#pac8d790e43)" style="fill:#1f77b4;stroke:#000;stroke-linejoin:miter" id="patch_286"/><path d="m19.72 105.354-1.37 2.114" clip-path="url(#pac8d790e43)" style="fill:#1f77b4;stroke:#000;stroke-linejoin:miter" id="patch_287"/><path d="m22.46 101.128-1.37 2.113" clip-path="url(#pac8d790e43)" style="fill:#1f77b4;stroke:#000;stroke-linejoin:miter" id="patch_288"/><path d="m25.2 96.902-1.37 2.113" clip-path="url(#pac8d790e43)" style="fill:#1f77b4;stroke:#000;stroke-linejoin:miter" id="patch_289"/><path d="m27.94 92.676-1.37 2.113" clip-path="url(#pac8d790e43)" style="fill:#1f77b4;stroke:#000;stroke-linejoin:miter" id="patch_290"/><path d="m30.68 88.45-1.37 2.113" clip-path="url(#pac8d790e43)" style="fill:#1f77b4;stroke:#000;stroke-linejoin:miter" id="patch_291"/><path d="m33.42 84.223-1.37 2.113" clip-path="url(#pac8d790e43)" style="fill:#1f77b4;stroke:#000;stroke-linejoin:miter" id="patch_292"/><path d="m36.16 79.997-1.37 2.113" clip-path="url(#pac8d790e43)" style="fill:#1f77b4;stroke:#000;stroke-linejoin:miter" id="patch_293"/><path d="m38.9 75.77-1.37 2.114" clip-path="url(#pac8d790e43)" style="fill:#1f77b4;stroke:#000;stroke-linejoin:miter" id="patch_294"/><path d="m41.639 71.544-1.37 2.114" clip-path="url(#pac8d790e43)" style="fill:#1f77b4;stroke:#000;stroke-linejoin:miter" id="patch_295"/><path d="m44.379 67.318-1.37 2.113" clip-path="url(#pac8d790e43)" style="fill:#1f77b4;stroke:#000;stroke-linejoin:miter" id="patch_296"/><path d="m47.119 63.092-1.37 2.113" clip-path="url(#pac8d790e43)" style="fill:#1f77b4;stroke:#000;stroke-linejoin:miter" id="patch_297"/><path d="m49.858 58.866-1.37 2.113" clip-path="url(#pac8d790e43)" style="fill:#1f77b4;stroke:#000;stroke-linejoin:miter" id="patch_298"/><path d="m52.598 54.64-1.37 2.113" clip-path="url(#pac8d790e43)" style="fill:#1f77b4;stroke:#000;stroke-linejoin:miter" id="patch_299"/><path d="m55.338 50.413-1.37 2.113" clip-path="url(#pac8d790e43)" style="fill:#1f77b4;stroke:#000;stroke-linejoin:miter" id="patch_300"/><path d="m58.078 46.187-1.37 2.113" clip-path="url(#pac8d790e43)" style="fill:#1f77b4;stroke:#000;stroke-linejoin:miter" id="patch_301"/><path d="m60.817 41.96-1.37 2.114" clip-path="url(#pac8d790e43)" style="fill:#1f77b4;stroke:#000;stroke-linejoin:miter" id="patch_302"/><path d="m63.557 37.735-1.37 2.113" clip-path="url(#pac8d790e43)" style="fill:#1f77b4;stroke:#000;stroke-linejoin:miter" id="patch_303"/><path d="m66.297 33.508-1.37 2.113" clip-path="url(#pac8d790e43)" style="fill:#1f77b4;stroke:#000;stroke-linejoin:miter" id="patch_304"/><path d="m69.037 29.282-1.37 2.113" clip-path="url(#pac8d790e43)" style="fill:#1f77b4;stroke:#000;stroke-linejoin:miter" id="patch_305"/><path d="m71.777 25.056-1.37 2.113" clip-path="url(#pac8d790e43)" style="fill:#1f77b4;stroke:#000;stroke-linejoin:miter" id="patch_306"/><path d="m74.516 20.83-1.37 2.113" clip-path="url(#pac8d790e43)" style="fill:#1f77b4;stroke:#000;stroke-linejoin:miter" id="patch_307"/><path d="m79.996 12.377-1.37 2.113" clip-path="url(#pac8d790e43)" style="fill:#1f77b4;stroke:#000;stroke-linejoin:miter" id="patch_308"/><path d="m130.682 141.277-1.37 2.114" clip-path="url(#pac8d790e43)" style="fill:#1f77b4;stroke:#000;stroke-linejoin:miter" id="patch_309"/></g></g><defs><clipPath id="pac8d790e43"><path d="M7.2 7.2h238.186v217.44H7.2z"/></clipPath></defs></svg>