<svg xmlns:xlink="http://www.w3.org/1999/xlink" width="465.6" height="283.204" viewBox="0 0 349.2 212.403" xmlns="http://www.w3.org/2000/svg"><defs><style>*{stroke-linejoin:round;stroke-linecap:butt}</style></defs><g id="figure_1"><path d="M0 212.403h349.2V0H0v212.403z" style="fill:none" id="patch_1"/><g id="axes_1"><path d="m307.528 168.233-.126 4.114" clip-path="url(#pcf0e9c6cdc)" style="fill:#1f77b4;stroke:#000;stroke-linejoin:miter" id="patch_2"/><path d="M307.402 172.347h-4.106" clip-path="url(#pcf0e9c6cdc)" style="fill:#1f77b4;stroke:#000;stroke-linejoin:miter" id="patch_3"/><path d="m307.78 160.006-.126 4.113" clip-path="url(#pcf0e9c6cdc)" style="fill:#1f77b4;stroke:#000;stroke-linejoin:miter" id="patch_4"/><path d="M299.19 172.347h-4.107" clip-path="url(#pcf0e9c6cdc)" style="fill:#1f77b4;stroke:#000;stroke-linejoin:miter" id="patch_5"/><path d="m308.15 173.107-.748-.76" clip-path="url(#pcf0e9c6cdc)" style="fill:#1f77b4;stroke:#000;stroke-linejoin:miter" id="patch_6"/><path d="m308.032 151.778-.126 4.114" clip-path="url(#pcf0e9c6cdc)" style="fill:#1f77b4;stroke:#000;stroke-linejoin:miter" id="patch_7"/><path d="M290.977 172.347h-4.106" clip-path="url(#pcf0e9c6cdc)" style="fill:#1f77b4;stroke:#000;stroke-linejoin:miter" id="patch_8"/><path d="m308.284 143.551-.126 4.114" clip-path="url(#pcf0e9c6cdc)" style="fill:#1f77b4;stroke:#000;stroke-linejoin:miter" id="patch_9"/><path d="M282.765 172.347h-4.107" clip-path="url(#pcf0e9c6cdc)" style="fill:#1f77b4;stroke:#000;stroke-linejoin:miter" id="patch_10"/><path d="m308.536 135.324-.126 4.113" clip-path="url(#pcf0e9c6cdc)" style="fill:#1f77b4;stroke:#000;stroke-linejoin:miter" id="patch_11"/><path d="M274.552 172.347h-4.106" clip-path="url(#pcf0e9c6cdc)" style="fill:#1f77b4;stroke:#000;stroke-linejoin:miter" id="patch_12"/><path d="m308.788 127.097-.126 4.113" clip-path="url(#pcf0e9c6cdc)" style="fill:#1f77b4;stroke:#000;stroke-linejoin:miter" id="patch_13"/><path d="M266.34 172.348h-4.106" clip-path="url(#pcf0e9c6cdc)" style="fill:#1f77b4;stroke:#000;stroke-linejoin:miter" id="patch_14"/><path d="m309.04 118.87-.126 4.113" clip-path="url(#pcf0e9c6cdc)" style="fill:#1f77b4;stroke:#000;stroke-linejoin:miter" id="patch_15"/><path d="M258.127 172.348h-4.106" clip-path="url(#pcf0e9c6cdc)" style="fill:#1f77b4;stroke:#000;stroke-linejoin:miter" id="patch_16"/><path d="m309.292 110.642-.126 4.114" clip-path="url(#pcf0e9c6cdc)" style="fill:#1f77b4;stroke:#000;stroke-linejoin:miter" id="patch_17"/><path d="M249.915 172.348h-4.106" clip-path="url(#pcf0e9c6cdc)" style="fill:#1f77b4;stroke:#000;stroke-linejoin:miter" id="patch_18"/><path d="m309.648 174.627-.749-.76" clip-path="url(#pcf0e9c6cdc)" style="fill:#1f77b4;stroke:#000;stroke-linejoin:miter" id="patch_19"/><path d="m309.545 102.415-.127 4.113" clip-path="url(#pcf0e9c6cdc)" style="fill:#1f77b4;stroke:#000;stroke-linejoin:miter" id="patch_20"/><path d="M241.703 172.348h-4.106" clip-path="url(#pcf0e9c6cdc)" style="fill:#1f77b4;stroke:#000;stroke-linejoin:miter" id="patch_21"/><path d="m309.797 94.187-.126 4.114" clip-path="url(#pcf0e9c6cdc)" style="fill:#1f77b4;stroke:#000;stroke-linejoin:miter" id="patch_22"/><path d="M233.49 172.349h-4.106" clip-path="url(#pcf0e9c6cdc)" style="fill:#1f77b4;stroke:#000;stroke-linejoin:miter" id="patch_23"/><path d="m310.049 85.96-.126 4.114" clip-path="url(#pcf0e9c6cdc)" style="fill:#1f77b4;stroke:#000;stroke-linejoin:miter" id="patch_24"/><path d="M225.278 172.349h-4.106" clip-path="url(#pcf0e9c6cdc)" style="fill:#1f77b4;stroke:#000;stroke-linejoin:miter" id="patch_25"/><path d="m310.3 77.733-.125 4.113" clip-path="url(#pcf0e9c6cdc)" style="fill:#1f77b4;stroke:#000;stroke-linejoin:miter" id="patch_26"/><path d="M217.066 172.349h-4.107" clip-path="url(#pcf0e9c6cdc)" style="fill:#1f77b4;stroke:#000;stroke-linejoin:miter" id="patch_27"/><path d="m310.553 69.505-.126 4.114" clip-path="url(#pcf0e9c6cdc)" style="fill:#1f77b4;stroke:#000;stroke-linejoin:miter" id="patch_28"/><path d="M208.853 172.35h-4.106" clip-path="url(#pcf0e9c6cdc)" style="fill:#1f77b4;stroke:#000;stroke-linejoin:miter" id="patch_29"/><path d="m310.805 61.278-.126 4.114" clip-path="url(#pcf0e9c6cdc)" style="fill:#1f77b4;stroke:#000;stroke-linejoin:miter" id="patch_30"/><path d="m311.145 176.148-.749-.76" clip-path="url(#pcf0e9c6cdc)" style="fill:#1f77b4;stroke:#000;stroke-linejoin:miter" id="patch_31"/><path d="M200.64 172.35h-4.105" clip-path="url(#pcf0e9c6cdc)" style="fill:#1f77b4;stroke:#000;stroke-linejoin:miter" id="patch_32"/><path d="m311.057 53.05-.126 4.114" clip-path="url(#pcf0e9c6cdc)" style="fill:#1f77b4;stroke:#000;stroke-linejoin:miter" id="patch_33"/><path d="M192.429 172.35h-4.107" clip-path="url(#pcf0e9c6cdc)" style="fill:#1f77b4;stroke:#000;stroke-linejoin:miter" id="patch_34"/><path d="m311.31 44.824-.127 4.113" clip-path="url(#pcf0e9c6cdc)" style="fill:#1f77b4;stroke:#000;stroke-linejoin:miter" id="patch_35"/><path d="M184.216 172.35h-4.106" clip-path="url(#pcf0e9c6cdc)" style="fill:#1f77b4;stroke:#000;stroke-linejoin:miter" id="patch_36"/><path d="m311.561 36.596-.126 4.114" clip-path="url(#pcf0e9c6cdc)" style="fill:#1f77b4;stroke:#000;stroke-linejoin:miter" id="patch_37"/><path d="M176.004 172.35h-4.106" clip-path="url(#pcf0e9c6cdc)" style="fill:#1f77b4;stroke:#000;stroke-linejoin:miter" id="patch_38"/><path d="m311.813 28.369-.126 4.114" clip-path="url(#pcf0e9c6cdc)" style="fill:#1f77b4;stroke:#000;stroke-linejoin:miter" id="patch_39"/><path d="M167.791 172.35h-4.106" clip-path="url(#pcf0e9c6cdc)" style="fill:#1f77b4;stroke:#000;stroke-linejoin:miter" id="patch_40"/><path d="m312.066 20.142-.127 4.113" clip-path="url(#pcf0e9c6cdc)" style="fill:#1f77b4;stroke:#000;stroke-linejoin:miter" id="patch_41"/><path d="M159.579 172.35h-4.106" clip-path="url(#pcf0e9c6cdc)" style="fill:#1f77b4;stroke:#000;stroke-linejoin:miter" id="patch_42"/><path d="m312.318 11.914-.126 4.114" clip-path="url(#pcf0e9c6cdc)" style="fill:#1f77b4;stroke:#000;stroke-linejoin:miter" id="patch_43"/><path d="m312.642 177.668-.748-.76" clip-path="url(#pcf0e9c6cdc)" style="fill:#1f77b4;stroke:#000;stroke-linejoin:miter" id="patch_44"/><path d="M151.367 172.35h-4.107" clip-path="url(#pcf0e9c6cdc)" style="fill:#1f77b4;stroke:#000;stroke-linejoin:miter" id="patch_45"/><path d="M312.318 11.914h-4.107" clip-path="url(#pcf0e9c6cdc)" style="fill:#1f77b4;stroke:#000;stroke-linejoin:miter" id="patch_46"/><path d="M143.154 172.35h-4.106" clip-path="url(#pcf0e9c6cdc)" style="fill:#1f77b4;stroke:#000;stroke-linejoin:miter" id="patch_47"/><path d="M304.105 11.915H300" clip-path="url(#pcf0e9c6cdc)" style="fill:#1f77b4;stroke:#000;stroke-linejoin:miter" id="patch_48"/><path d="m313.066 12.675-.748-.76" clip-path="url(#pcf0e9c6cdc)" style="fill:#1f77b4;stroke:#000;stroke-linejoin:miter" id="patch_49"/><path d="M134.942 172.351h-4.106" clip-path="url(#pcf0e9c6cdc)" style="fill:#1f77b4;stroke:#000;stroke-linejoin:miter" id="patch_50"/><path d="M295.893 11.915h-4.106" clip-path="url(#pcf0e9c6cdc)" style="fill:#1f77b4;stroke:#000;stroke-linejoin:miter" id="patch_51"/><path d="M126.73 172.351h-4.107" clip-path="url(#pcf0e9c6cdc)" style="fill:#1f77b4;stroke:#000;stroke-linejoin:miter" id="patch_52"/><path d="M287.68 11.915h-4.106" clip-path="url(#pcf0e9c6cdc)" style="fill:#1f77b4;stroke:#000;stroke-linejoin:miter" id="patch_53"/><path d="M118.517 172.351h-4.106" clip-path="url(#pcf0e9c6cdc)" style="fill:#1f77b4;stroke:#000;stroke-linejoin:miter" id="patch_54"/><path d="M279.468 11.915h-4.106" clip-path="url(#pcf0e9c6cdc)" style="fill:#1f77b4;stroke:#000;stroke-linejoin:miter" id="patch_55"/><path d="M110.305 172.352h-4.106" clip-path="url(#pcf0e9c6cdc)" style="fill:#1f77b4;stroke:#000;stroke-linejoin:miter" id="patch_56"/><path d="M271.256 11.915h-4.106" clip-path="url(#pcf0e9c6cdc)" style="fill:#1f77b4;stroke:#000;stroke-linejoin:miter" id="patch_57"/><path d="m314.14 179.189-.75-.76" clip-path="url(#pcf0e9c6cdc)" style="fill:#1f77b4;stroke:#000;stroke-linejoin:miter" id="patch_58"/><path d="M102.092 172.352h-4.106" clip-path="url(#pcf0e9c6cdc)" style="fill:#1f77b4;stroke:#000;stroke-linejoin:miter" id="patch_59"/><path d="M213.24 134.054a14.311 14.311 0 1 0-28.622 0 14.311 14.311 0 0 0 28.622 0m0 0z" clip-path="url(#pcf0e9c6cdc)" style="fill:#ff8000;stroke:#000;stroke-linejoin:miter" id="patch_60"/><path d="M263.043 11.916h-4.106" clip-path="url(#pcf0e9c6cdc)" style="fill:#1f77b4;stroke:#000;stroke-linejoin:miter" id="patch_61"/><path d="M251.708 52.57a17.656 17.656 0 0 0-21.099-17.315 17.656 17.656 0 0 0-12.866 24.07 17.656 17.656 0 0 0 16.31 10.899V52.57h17.655z" clip-path="url(#pcf0e9c6cdc)" style="fill:#e06633;stroke:#000;stroke-linejoin:miter" id="patch_62"/><path d="M234.053 62.734a10.168 10.168 0 0 0 10.165-10.164h-10.165v10.164z" clip-path="url(#pcf0e9c6cdc)" style="fill:#909090;stroke:#000;stroke-linejoin:miter" id="patch_63"/><path d="M93.88 172.352h-4.106" clip-path="url(#pcf0e9c6cdc)" style="fill:#1f77b4;stroke:#000;stroke-linejoin:miter" id="patch_64"/><path d="M254.831 11.916h-4.106" clip-path="url(#pcf0e9c6cdc)" style="fill:#1f77b4;stroke:#000;stroke-linejoin:miter" id="patch_65"/><path d="m314.564 14.195-.75-.76" clip-path="url(#pcf0e9c6cdc)" style="fill:#1f77b4;stroke:#000;stroke-linejoin:miter" id="patch_66"/><path d="M85.668 172.352H81.56" clip-path="url(#pcf0e9c6cdc)" style="fill:#1f77b4;stroke:#000;stroke-linejoin:miter" id="patch_67"/><path d="M246.619 11.916h-4.107" clip-path="url(#pcf0e9c6cdc)" style="fill:#1f77b4;stroke:#000;stroke-linejoin:miter" id="patch_68"/><path d="M77.455 172.352H73.35" clip-path="url(#pcf0e9c6cdc)" style="fill:#1f77b4;stroke:#000;stroke-linejoin:miter" id="patch_69"/><path d="M238.406 11.916H234.3" clip-path="url(#pcf0e9c6cdc)" style="fill:#1f77b4;stroke:#000;stroke-linejoin:miter" id="patch_70"/><path d="M69.243 172.353h-4.106" clip-path="url(#pcf0e9c6cdc)" style="fill:#1f77b4;stroke:#000;stroke-linejoin:miter" id="patch_71"/><path d="M230.194 11.916h-4.106" clip-path="url(#pcf0e9c6cdc)" style="fill:#1f77b4;stroke:#000;stroke-linejoin:miter" id="patch_72"/><path d="M61.03 172.353h-4.106" clip-path="url(#pcf0e9c6cdc)" style="fill:#1f77b4;stroke:#000;stroke-linejoin:miter" id="patch_73"/><path d="M229.114 169.553a8.827 8.827 0 1 0-17.655 0 8.827 8.827 0 0 0 17.655 0m0 0z" clip-path="url(#pcf0e9c6cdc)" style="fill:#ff0d0d;stroke:#000;stroke-linejoin:miter" id="patch_74"/><path d="M221.982 11.917h-4.107" clip-path="url(#pcf0e9c6cdc)" style="fill:#1f77b4;stroke:#000;stroke-linejoin:miter" id="patch_75"/><path d="m315.637 180.71-.749-.76" clip-path="url(#pcf0e9c6cdc)" style="fill:#1f77b4;stroke:#000;stroke-linejoin:miter" id="patch_76"/><path d="M312.012 138.7a8.827 8.827 0 1 0-17.655 0 8.827 8.827 0 0 0 17.655 0m0 0z" clip-path="url(#pcf0e9c6cdc)" style="fill:#ff0d0d;stroke:#000;stroke-linejoin:miter" id="patch_77"/><path d="M52.818 172.353h-4.106" clip-path="url(#pcf0e9c6cdc)" style="fill:#1f77b4;stroke:#000;stroke-linejoin:miter" id="patch_78"/><path d="M213.77 11.917h-4.107" clip-path="url(#pcf0e9c6cdc)" style="fill:#1f77b4;stroke:#000;stroke-linejoin:miter" id="patch_79"/><path d="m316.06 15.716-.748-.76" clip-path="url(#pcf0e9c6cdc)" style="fill:#1f77b4;stroke:#000;stroke-linejoin:miter" id="patch_80"/><path d="M205.557 11.917h-4.106" clip-path="url(#pcf0e9c6cdc)" style="fill:#1f77b4;stroke:#000;stroke-linejoin:miter" id="patch_81"/><path d="M197.344 11.917h-4.106" clip-path="url(#pcf0e9c6cdc)" style="fill:#1f77b4;stroke:#000;stroke-linejoin:miter" id="patch_82"/><path d="M49.41 172.348a17.12 17.12 0 1 0-34.24 0 17.12 17.12 0 0 0 34.24 0m0 0z" clip-path="url(#pcf0e9c6cdc)" style="fill:#cc80ff;stroke:#000;stroke-linejoin:miter" id="patch_83"/><path d="M189.132 11.917h-4.106" clip-path="url(#pcf0e9c6cdc)" style="fill:#1f77b4;stroke:#000;stroke-linejoin:miter" id="patch_84"/><path d="M180.92 11.918h-4.107" clip-path="url(#pcf0e9c6cdc)" style="fill:#1f77b4;stroke:#000;stroke-linejoin:miter" id="patch_85"/><path d="m32.918 151.785-.127 4.114" clip-path="url(#pcf0e9c6cdc)" style="fill:#1f77b4;stroke:#000;stroke-linejoin:miter" id="patch_86"/><path d="M172.707 11.918h-4.106" clip-path="url(#pcf0e9c6cdc)" style="fill:#1f77b4;stroke:#000;stroke-linejoin:miter" id="patch_87"/><path d="m317.134 182.23-.748-.76" clip-path="url(#pcf0e9c6cdc)" style="fill:#1f77b4;stroke:#000;stroke-linejoin:miter" id="patch_88"/><path d="m33.17 143.558-.126 4.114" clip-path="url(#pcf0e9c6cdc)" style="fill:#1f77b4;stroke:#000;stroke-linejoin:miter" id="patch_89"/><path d="M164.495 11.918h-4.106" clip-path="url(#pcf0e9c6cdc)" style="fill:#1f77b4;stroke:#000;stroke-linejoin:miter" id="patch_90"/><path d="m33.422 135.33-.126 4.114" clip-path="url(#pcf0e9c6cdc)" style="fill:#1f77b4;stroke:#000;stroke-linejoin:miter" id="patch_91"/><path d="M231.112 104.437a8.827 8.827 0 1 0-17.655 0 8.827 8.827 0 0 0 17.655 0m0 0z" clip-path="url(#pcf0e9c6cdc)" style="fill:#ff0d0d;stroke:#000;stroke-linejoin:miter" id="patch_92"/><path d="m317.558 17.236-.748-.76" clip-path="url(#pcf0e9c6cdc)" style="fill:#1f77b4;stroke:#000;stroke-linejoin:miter" id="patch_93"/><path d="M156.283 11.918h-4.107" clip-path="url(#pcf0e9c6cdc)" style="fill:#1f77b4;stroke:#000;stroke-linejoin:miter" id="patch_94"/><path d="m33.674 127.103-.126 4.114" clip-path="url(#pcf0e9c6cdc)" style="fill:#1f77b4;stroke:#000;stroke-linejoin:miter" id="patch_95"/><path d="M148.07 11.918h-4.106" clip-path="url(#pcf0e9c6cdc)" style="fill:#1f77b4;stroke:#000;stroke-linejoin:miter" id="patch_96"/><path d="M298.897 57.714a8.827 8.827 0 1 0-17.654 0 8.827 8.827 0 0 0 17.654 0m0 0z" clip-path="url(#pcf0e9c6cdc)" style="fill:#ff0d0d;stroke:#000;stroke-linejoin:miter" id="patch_97"/><path d="m33.926 118.876-.126 4.114" clip-path="url(#pcf0e9c6cdc)" style="fill:#1f77b4;stroke:#000;stroke-linejoin:miter" id="patch_98"/><path d="M139.858 11.919h-4.106" clip-path="url(#pcf0e9c6cdc)" style="fill:#1f77b4;stroke:#000;stroke-linejoin:miter" id="patch_99"/><path d="M172.585 136.805a8.827 8.827 0 1 0-17.654 0 8.827 8.827 0 0 0 17.654 0m0 0z" clip-path="url(#pcf0e9c6cdc)" style="fill:#ff0d0d;stroke:#000;stroke-linejoin:miter" id="patch_100"/><path d="m34.178 110.649-.126 4.113" clip-path="url(#pcf0e9c6cdc)" style="fill:#1f77b4;stroke:#000;stroke-linejoin:miter" id="patch_101"/><path d="M131.645 11.919h-4.106" clip-path="url(#pcf0e9c6cdc)" style="fill:#1f77b4;stroke:#000;stroke-linejoin:miter" id="patch_102"/><path d="M123.433 11.92h-4.106" clip-path="url(#pcf0e9c6cdc)" style="fill:#1f77b4;stroke:#000;stroke-linejoin:miter" id="patch_103"/><path d="m318.632 183.75-.75-.76" clip-path="url(#pcf0e9c6cdc)" style="fill:#1f77b4;stroke:#000;stroke-linejoin:miter" id="patch_104"/><path d="M51.868 92.143a17.12 17.12 0 1 0-34.24 0 17.12 17.12 0 0 0 34.24 0M51.87 92.143z" clip-path="url(#pcf0e9c6cdc)" style="fill:#cc80ff;stroke:#000;stroke-linejoin:miter" id="patch_105"/><path d="M115.22 11.92h-4.105" clip-path="url(#pcf0e9c6cdc)" style="fill:#1f77b4;stroke:#000;stroke-linejoin:miter" id="patch_106"/><path d="m319.055 18.757-.748-.76" clip-path="url(#pcf0e9c6cdc)" style="fill:#1f77b4;stroke:#000;stroke-linejoin:miter" id="patch_107"/><path d="M107.008 11.92h-4.106" clip-path="url(#pcf0e9c6cdc)" style="fill:#1f77b4;stroke:#000;stroke-linejoin:miter" id="patch_108"/><path d="M98.796 11.92H94.69" clip-path="url(#pcf0e9c6cdc)" style="fill:#1f77b4;stroke:#000;stroke-linejoin:miter" id="patch_109"/><path d="m35.438 69.512-.126 4.114" clip-path="url(#pcf0e9c6cdc)" style="fill:#1f77b4;stroke:#000;stroke-linejoin:miter" id="patch_110"/><path d="M90.584 11.92h-4.107" clip-path="url(#pcf0e9c6cdc)" style="fill:#1f77b4;stroke:#000;stroke-linejoin:miter" id="patch_111"/><path d="m35.69 61.285-.125 4.114" clip-path="url(#pcf0e9c6cdc)" style="fill:#1f77b4;stroke:#000;stroke-linejoin:miter" id="patch_112"/><path d="m36.03 176.155-.748-.76" clip-path="url(#pcf0e9c6cdc)" style="fill:#1f77b4;stroke:#000;stroke-linejoin:miter" id="patch_113"/><path d="M82.371 11.92h-4.106" clip-path="url(#pcf0e9c6cdc)" style="fill:#1f77b4;stroke:#000;stroke-linejoin:miter" id="patch_114"/><path d="m35.943 53.058-.126 4.113" clip-path="url(#pcf0e9c6cdc)" style="fill:#1f77b4;stroke:#000;stroke-linejoin:miter" id="patch_115"/><path d="m320.129 185.271-.749-.76" clip-path="url(#pcf0e9c6cdc)" style="fill:#1f77b4;stroke:#000;stroke-linejoin:miter" id="patch_116"/><path d="M74.159 11.92h-4.106" clip-path="url(#pcf0e9c6cdc)" style="fill:#1f77b4;stroke:#000;stroke-linejoin:miter" id="patch_117"/><path d="m36.195 44.83-.126 4.114" clip-path="url(#pcf0e9c6cdc)" style="fill:#1f77b4;stroke:#000;stroke-linejoin:miter" id="patch_118"/><path d="M65.946 11.92H61.84" clip-path="url(#pcf0e9c6cdc)" style="fill:#1f77b4;stroke:#000;stroke-linejoin:miter" id="patch_119"/><path d="m36.447 36.603-.126 4.114" clip-path="url(#pcf0e9c6cdc)" style="fill:#1f77b4;stroke:#000;stroke-linejoin:miter" id="patch_120"/><path d="m320.553 20.277-.749-.76" clip-path="url(#pcf0e9c6cdc)" style="fill:#1f77b4;stroke:#000;stroke-linejoin:miter" id="patch_121"/><path d="M57.734 11.92h-4.106" clip-path="url(#pcf0e9c6cdc)" style="fill:#1f77b4;stroke:#000;stroke-linejoin:miter" id="patch_122"/><path d="m36.699 28.376-.126 4.113" clip-path="url(#pcf0e9c6cdc)" style="fill:#1f77b4;stroke:#000;stroke-linejoin:miter" id="patch_123"/><path d="m49.522 11.92-4.106.001" clip-path="url(#pcf0e9c6cdc)" style="fill:#1f77b4;stroke:#000;stroke-linejoin:miter" id="patch_124"/><path d="m36.951 20.149-.126 4.113" clip-path="url(#pcf0e9c6cdc)" style="fill:#1f77b4;stroke:#000;stroke-linejoin:miter" id="patch_125"/><path d="M41.31 11.921h-4.107" clip-path="url(#pcf0e9c6cdc)" style="fill:#1f77b4;stroke:#000;stroke-linejoin:miter" id="patch_126"/><path d="m37.203 11.921-.126 4.114" clip-path="url(#pcf0e9c6cdc)" style="fill:#1f77b4;stroke:#000;stroke-linejoin:miter" id="patch_127"/><path d="m37.528 177.675-.749-.76" clip-path="url(#pcf0e9c6cdc)" style="fill:#1f77b4;stroke:#000;stroke-linejoin:miter" id="patch_128"/><path d="M93.054 171.08a8.827 8.827 0 1 0-17.655 0 8.827 8.827 0 0 0 17.655 0m0 0z" clip-path="url(#pcf0e9c6cdc)" style="fill:#ff0d0d;stroke:#000;stroke-linejoin:miter" id="patch_129"/><path d="m37.952 12.681-.749-.76" clip-path="url(#pcf0e9c6cdc)" style="fill:#1f77b4;stroke:#000;stroke-linejoin:miter" id="patch_130"/><path d="m321.626 186.792-.749-.76" clip-path="url(#pcf0e9c6cdc)" style="fill:#1f77b4;stroke:#000;stroke-linejoin:miter" id="patch_131"/><path d="M160.99 57.361a8.827 8.827 0 1 0-17.655 0 8.827 8.827 0 0 0 17.655 0m0 0z" clip-path="url(#pcf0e9c6cdc)" style="fill:#ff0d0d;stroke:#000;stroke-linejoin:miter" id="patch_132"/><path d="m322.05 21.798-.749-.76" clip-path="url(#pcf0e9c6cdc)" style="fill:#1f77b4;stroke:#000;stroke-linejoin:miter" id="patch_133"/><path d="M277.68 143.813a17.656 17.656 0 0 0-21.099-17.315 17.656 17.656 0 0 0-12.866 24.071 17.656 17.656 0 0 0 16.31 10.898v-17.654h17.655z" clip-path="url(#pcf0e9c6cdc)" style="fill:#e06633;stroke:#000;stroke-linejoin:miter" id="patch_134"/><path d="M260.025 153.978a10.168 10.168 0 0 0 10.165-10.165h-10.165v10.165z" clip-path="url(#pcf0e9c6cdc)" style="fill:#909090;stroke:#000;stroke-linejoin:miter" id="patch_135"/><path d="m39.025 179.196-.749-.76" clip-path="url(#pcf0e9c6cdc)" style="fill:#1f77b4;stroke:#000;stroke-linejoin:miter" id="patch_136"/><path d="M197.822 183.369a17.12 17.12 0 1 0-34.24 0 17.12 17.12 0 0 0 34.24 0m0 0z" clip-path="url(#pcf0e9c6cdc)" style="fill:#cc80ff;stroke:#000;stroke-linejoin:miter" id="patch_137"/><path d="m39.45 14.202-.75-.76" clip-path="url(#pcf0e9c6cdc)" style="fill:#1f77b4;stroke:#000;stroke-linejoin:miter" id="patch_138"/><path d="m323.123 188.312-.748-.76" clip-path="url(#pcf0e9c6cdc)" style="fill:#1f77b4;stroke:#000;stroke-linejoin:miter" id="patch_139"/><path d="M95.05 105.96a8.827 8.827 0 1 0-17.654 0 8.827 8.827 0 0 0 17.654 0m0 0z" clip-path="url(#pcf0e9c6cdc)" style="fill:#ff0d0d;stroke:#000;stroke-linejoin:miter" id="patch_140"/><path d="m323.547 23.318-.748-.76" clip-path="url(#pcf0e9c6cdc)" style="fill:#1f77b4;stroke:#000;stroke-linejoin:miter" id="patch_141"/><path d="m40.522 180.716-.748-.76" clip-path="url(#pcf0e9c6cdc)" style="fill:#1f77b4;stroke:#000;stroke-linejoin:miter" id="patch_142"/><path d="m40.946 15.723-.748-.76" clip-path="url(#pcf0e9c6cdc)" style="fill:#1f77b4;stroke:#000;stroke-linejoin:miter" id="patch_143"/><path d="m324.62 189.833-.748-.76" clip-path="url(#pcf0e9c6cdc)" style="fill:#1f77b4;stroke:#000;stroke-linejoin:miter" id="patch_144"/><path d="M311.963 64.856a14.311 14.311 0 1 0-28.622 0 14.311 14.311 0 0 0 28.622 0M311.962 64.856z" clip-path="url(#pcf0e9c6cdc)" style="fill:#ff8000;stroke:#000;stroke-linejoin:miter" id="patch_145"/><path d="m325.045 24.839-.749-.76" clip-path="url(#pcf0e9c6cdc)" style="fill:#1f77b4;stroke:#000;stroke-linejoin:miter" id="patch_146"/><path d="M200.28 103.163a17.12 17.12 0 1 0-34.239 0 17.12 17.12 0 0 0 34.24 0m0 0z" clip-path="url(#pcf0e9c6cdc)" style="fill:#cc80ff;stroke:#000;stroke-linejoin:miter" id="patch_147"/><path d="m42.02 182.237-.749-.76" clip-path="url(#pcf0e9c6cdc)" style="fill:#1f77b4;stroke:#000;stroke-linejoin:miter" id="patch_148"/><path d="M82.97 141.457a14.311 14.311 0 1 0-28.623 0 14.311 14.311 0 0 0 28.622 0m0 0z" clip-path="url(#pcf0e9c6cdc)" style="fill:#ff8000;stroke:#000;stroke-linejoin:miter" id="patch_149"/><path d="m42.444 17.243-.749-.76" clip-path="url(#pcf0e9c6cdc)" style="fill:#1f77b4;stroke:#000;stroke-linejoin:miter" id="patch_150"/><path d="m326.118 191.353-.749-.76" clip-path="url(#pcf0e9c6cdc)" style="fill:#1f77b4;stroke:#000;stroke-linejoin:miter" id="patch_151"/><path d="m326.542 26.36-.749-.761" clip-path="url(#pcf0e9c6cdc)" style="fill:#1f77b4;stroke:#000;stroke-linejoin:miter" id="patch_152"/><path d="m43.517 183.757-.749-.76" clip-path="url(#pcf0e9c6cdc)" style="fill:#1f77b4;stroke:#000;stroke-linejoin:miter" id="patch_153"/><path d="M288.928 100.356a8.827 8.827 0 1 0-17.655 0 8.827 8.827 0 0 0 17.655 0m0 0z" clip-path="url(#pcf0e9c6cdc)" style="fill:#ff0d0d;stroke:#000;stroke-linejoin:miter" id="patch_154"/><path d="m43.941 18.764-.749-.76" clip-path="url(#pcf0e9c6cdc)" style="fill:#1f77b4;stroke:#000;stroke-linejoin:miter" id="patch_155"/><path d="m327.615 192.874-.748-.76" clip-path="url(#pcf0e9c6cdc)" style="fill:#1f77b4;stroke:#000;stroke-linejoin:miter" id="patch_156"/><path d="m328.04 27.88-.75-.76" clip-path="url(#pcf0e9c6cdc)" style="fill:#1f77b4;stroke:#000;stroke-linejoin:miter" id="patch_157"/><path d="M123.93 62.505a17.656 17.656 0 0 0-21.098-17.315 17.656 17.656 0 0 0-12.866 24.071 17.656 17.656 0 0 0 16.31 10.899V62.505h17.655z" clip-path="url(#pcf0e9c6cdc)" style="fill:#e06633;stroke:#000;stroke-linejoin:miter" id="patch_158"/><path d="M106.277 72.67a10.168 10.168 0 0 0 10.164-10.165h-10.164V72.67z" clip-path="url(#pcf0e9c6cdc)" style="fill:#909090;stroke:#000;stroke-linejoin:miter" id="patch_159"/><path d="m45.014 185.278-.748-.76" clip-path="url(#pcf0e9c6cdc)" style="fill:#1f77b4;stroke:#000;stroke-linejoin:miter" id="patch_160"/><path d="M222.972 148.956a8.827 8.827 0 1 0-17.655 0 8.827 8.827 0 0 0 17.655 0m0 0z" clip-path="url(#pcf0e9c6cdc)" style="fill:#ff0d0d;stroke:#000;stroke-linejoin:miter" id="patch_161"/><path d="m45.438 20.284-.748-.76" clip-path="url(#pcf0e9c6cdc)" style="fill:#1f77b4;stroke:#000;stroke-linejoin:miter" id="patch_162"/><path d="m329.113 194.394-.749-.76" clip-path="url(#pcf0e9c6cdc)" style="fill:#1f77b4;stroke:#000;stroke-linejoin:miter" id="patch_163"/><path d="M290.925 35.235a8.827 8.827 0 1 0-17.655 0 8.827 8.827 0 0 0 17.655 0m0 0z" clip-path="url(#pcf0e9c6cdc)" style="fill:#ff0d0d;stroke:#000;stroke-linejoin:miter" id="patch_164"/><path d="m329.537 29.4-.749-.76" clip-path="url(#pcf0e9c6cdc)" style="fill:#1f77b4;stroke:#000;stroke-linejoin:miter" id="patch_165"/><path d="m329.239 190.28-.126 4.114" clip-path="url(#pcf0e9c6cdc)" style="fill:#1f77b4;stroke:#000;stroke-linejoin:miter" id="patch_166"/><path d="M329.113 194.394h-4.107" clip-path="url(#pcf0e9c6cdc)" style="fill:#1f77b4;stroke:#000;stroke-linejoin:miter" id="patch_167"/><path d="m329.49 182.053-.125 4.114" clip-path="url(#pcf0e9c6cdc)" style="fill:#1f77b4;stroke:#000;stroke-linejoin:miter" id="patch_168"/><path d="M320.9 194.394h-4.106" clip-path="url(#pcf0e9c6cdc)" style="fill:#1f77b4;stroke:#000;stroke-linejoin:miter" id="patch_169"/><path d="m329.743 173.826-.126 4.114" clip-path="url(#pcf0e9c6cdc)" style="fill:#1f77b4;stroke:#000;stroke-linejoin:miter" id="patch_170"/><path d="M312.688 194.395h-4.106" clip-path="url(#pcf0e9c6cdc)" style="fill:#1f77b4;stroke:#000;stroke-linejoin:miter" id="patch_171"/><path d="m46.512 186.798-.749-.76" clip-path="url(#pcf0e9c6cdc)" style="fill:#1f77b4;stroke:#000;stroke-linejoin:miter" id="patch_172"/><path d="m329.995 165.599-.126 4.113" clip-path="url(#pcf0e9c6cdc)" style="fill:#1f77b4;stroke:#000;stroke-linejoin:miter" id="patch_173"/><path d="M304.476 194.395h-4.107" clip-path="url(#pcf0e9c6cdc)" style="fill:#1f77b4;stroke:#000;stroke-linejoin:miter" id="patch_174"/><path d="m330.247 157.371-.126 4.114" clip-path="url(#pcf0e9c6cdc)" style="fill:#1f77b4;stroke:#000;stroke-linejoin:miter" id="patch_175"/><path d="M296.263 194.395h-4.106" clip-path="url(#pcf0e9c6cdc)" style="fill:#1f77b4;stroke:#000;stroke-linejoin:miter" id="patch_176"/><path d="m46.936 21.805-.749-.76" clip-path="url(#pcf0e9c6cdc)" style="fill:#1f77b4;stroke:#000;stroke-linejoin:miter" id="patch_177"/><path d="m330.5 149.144-.127 4.114" clip-path="url(#pcf0e9c6cdc)" style="fill:#1f77b4;stroke:#000;stroke-linejoin:miter" id="patch_178"/><path d="M288.05 194.395h-4.105" clip-path="url(#pcf0e9c6cdc)" style="fill:#1f77b4;stroke:#000;stroke-linejoin:miter" id="patch_179"/><path d="m331.034 30.92-.749-.76" clip-path="url(#pcf0e9c6cdc)" style="fill:#1f77b4;stroke:#000;stroke-linejoin:miter" id="patch_180"/><path d="m330.751 140.917-.126 4.113" clip-path="url(#pcf0e9c6cdc)" style="fill:#1f77b4;stroke:#000;stroke-linejoin:miter" id="patch_181"/><path d="M279.838 194.395h-4.106" clip-path="url(#pcf0e9c6cdc)" style="fill:#1f77b4;stroke:#000;stroke-linejoin:miter" id="patch_182"/><path d="m331.003 132.69-.126 4.113" clip-path="url(#pcf0e9c6cdc)" style="fill:#1f77b4;stroke:#000;stroke-linejoin:miter" id="patch_183"/><path d="M271.626 194.396h-4.106" clip-path="url(#pcf0e9c6cdc)" style="fill:#1f77b4;stroke:#000;stroke-linejoin:miter" id="patch_184"/><path d="m331.255 124.462-.126 4.114" clip-path="url(#pcf0e9c6cdc)" style="fill:#1f77b4;stroke:#000;stroke-linejoin:miter" id="patch_185"/><path d="M263.414 194.396h-4.106" clip-path="url(#pcf0e9c6cdc)" style="fill:#1f77b4;stroke:#000;stroke-linejoin:miter" id="patch_186"/><path d="m48.009 188.319-.749-.76" clip-path="url(#pcf0e9c6cdc)" style="fill:#1f77b4;stroke:#000;stroke-linejoin:miter" id="patch_187"/><path d="m331.508 116.235-.126 4.114" clip-path="url(#pcf0e9c6cdc)" style="fill:#1f77b4;stroke:#000;stroke-linejoin:miter" id="patch_188"/><path d="M255.201 194.396h-4.106" clip-path="url(#pcf0e9c6cdc)" style="fill:#1f77b4;stroke:#000;stroke-linejoin:miter" id="patch_189"/><path d="m331.76 108.008-.126 4.113" clip-path="url(#pcf0e9c6cdc)" style="fill:#1f77b4;stroke:#000;stroke-linejoin:miter" id="patch_190"/><path d="m48.433 23.325-.749-.76" clip-path="url(#pcf0e9c6cdc)" style="fill:#1f77b4;stroke:#000;stroke-linejoin:miter" id="patch_191"/><path d="M246.989 194.396h-4.106" clip-path="url(#pcf0e9c6cdc)" style="fill:#1f77b4;stroke:#000;stroke-linejoin:miter" id="patch_192"/><path d="m332.012 99.78-.126 4.114" clip-path="url(#pcf0e9c6cdc)" style="fill:#1f77b4;stroke:#000;stroke-linejoin:miter" id="patch_193"/><path d="M238.777 194.396h-4.107" clip-path="url(#pcf0e9c6cdc)" style="fill:#1f77b4;stroke:#000;stroke-linejoin:miter" id="patch_194"/><path d="m332.531 32.441-.748-.76" clip-path="url(#pcf0e9c6cdc)" style="fill:#1f77b4;stroke:#000;stroke-linejoin:miter" id="patch_195"/><path d="m332.264 91.553-.126 4.114" clip-path="url(#pcf0e9c6cdc)" style="fill:#1f77b4;stroke:#000;stroke-linejoin:miter" id="patch_196"/><path d="M211.39 69.513a8.827 8.827 0 1 0-17.654 0 8.827 8.827 0 0 0 17.655 0m0 0z" clip-path="url(#pcf0e9c6cdc)" style="fill:#ff0d0d;stroke:#000;stroke-linejoin:miter" id="patch_197"/><path d="M230.564 194.397h-4.106" clip-path="url(#pcf0e9c6cdc)" style="fill:#1f77b4;stroke:#000;stroke-linejoin:miter" id="patch_198"/><path d="m332.516 83.326-.126 4.113" clip-path="url(#pcf0e9c6cdc)" style="fill:#1f77b4;stroke:#000;stroke-linejoin:miter" id="patch_199"/><path d="M85.063 148.6a8.827 8.827 0 1 0-17.655 0 8.827 8.827 0 0 0 17.655 0m0 0z" clip-path="url(#pcf0e9c6cdc)" style="fill:#ff0d0d;stroke:#000;stroke-linejoin:miter" id="patch_200"/><path d="M222.352 194.397h-4.106" clip-path="url(#pcf0e9c6cdc)" style="fill:#1f77b4;stroke:#000;stroke-linejoin:miter" id="patch_201"/><path d="m332.768 75.098-.126 4.114" clip-path="url(#pcf0e9c6cdc)" style="fill:#1f77b4;stroke:#000;stroke-linejoin:miter" id="patch_202"/><path d="M214.14 194.397h-4.107" clip-path="url(#pcf0e9c6cdc)" style="fill:#1f77b4;stroke:#000;stroke-linejoin:miter" id="patch_203"/><path d="m49.506 189.84-.748-.76" clip-path="url(#pcf0e9c6cdc)" style="fill:#1f77b4;stroke:#000;stroke-linejoin:miter" id="patch_204"/><path d="M152.87 101.88a8.827 8.827 0 1 0-17.655 0 8.827 8.827 0 0 0 17.654 0m0 0z" clip-path="url(#pcf0e9c6cdc)" style="fill:#ff0d0d;stroke:#000;stroke-linejoin:miter" id="patch_205"/><path d="m333.02 66.871-.126 4.114" clip-path="url(#pcf0e9c6cdc)" style="fill:#1f77b4;stroke:#000;stroke-linejoin:miter" id="patch_206"/><path d="M205.927 194.397h-4.106" clip-path="url(#pcf0e9c6cdc)" style="fill:#1f77b4;stroke:#000;stroke-linejoin:miter" id="patch_207"/><path d="m333.272 58.644-.126 4.113" clip-path="url(#pcf0e9c6cdc)" style="fill:#1f77b4;stroke:#000;stroke-linejoin:miter" id="patch_208"/><path d="m49.93 24.846-.748-.76" clip-path="url(#pcf0e9c6cdc)" style="fill:#1f77b4;stroke:#000;stroke-linejoin:miter" id="patch_209"/><path d="M197.715 194.397h-4.106" clip-path="url(#pcf0e9c6cdc)" style="fill:#1f77b4;stroke:#000;stroke-linejoin:miter" id="patch_210"/><path d="m333.524 50.416-.126 4.114" clip-path="url(#pcf0e9c6cdc)" style="fill:#1f77b4;stroke:#000;stroke-linejoin:miter" id="patch_211"/><path d="M189.502 194.398h-4.106" clip-path="url(#pcf0e9c6cdc)" style="fill:#1f77b4;stroke:#000;stroke-linejoin:miter" id="patch_212"/><path d="m334.029 33.962-.75-.76" clip-path="url(#pcf0e9c6cdc)" style="fill:#1f77b4;stroke:#000;stroke-linejoin:miter" id="patch_213"/><path d="m333.776 42.19-.126 4.113" clip-path="url(#pcf0e9c6cdc)" style="fill:#1f77b4;stroke:#000;stroke-linejoin:miter" id="patch_214"/><path d="M181.29 194.398h-4.106" clip-path="url(#pcf0e9c6cdc)" style="fill:#1f77b4;stroke:#000;stroke-linejoin:miter" id="patch_215"/><path d="m334.029 33.962-.126 4.114" clip-path="url(#pcf0e9c6cdc)" style="fill:#1f77b4;stroke:#000;stroke-linejoin:miter" id="patch_216"/><path d="M173.078 194.398h-4.107" clip-path="url(#pcf0e9c6cdc)" style="fill:#1f77b4;stroke:#000;stroke-linejoin:miter" id="patch_217"/><path d="M334.029 33.962h-4.107" clip-path="url(#pcf0e9c6cdc)" style="fill:#1f77b4;stroke:#000;stroke-linejoin:miter" id="patch_218"/><path d="M164.865 194.398h-4.106" clip-path="url(#pcf0e9c6cdc)" style="fill:#1f77b4;stroke:#000;stroke-linejoin:miter" id="patch_219"/><path d="m51.004 191.36-.75-.76" clip-path="url(#pcf0e9c6cdc)" style="fill:#1f77b4;stroke:#000;stroke-linejoin:miter" id="patch_220"/><path d="M325.816 33.962h-4.106" clip-path="url(#pcf0e9c6cdc)" style="fill:#1f77b4;stroke:#000;stroke-linejoin:miter" id="patch_221"/><path d="M156.653 194.399h-4.106" clip-path="url(#pcf0e9c6cdc)" style="fill:#1f77b4;stroke:#000;stroke-linejoin:miter" id="patch_222"/><path d="M317.604 33.962h-4.106" clip-path="url(#pcf0e9c6cdc)" style="fill:#1f77b4;stroke:#000;stroke-linejoin:miter" id="patch_223"/><path d="M71.959 67.613a8.827 8.827 0 1 0-17.655 0 8.827 8.827 0 0 0 17.655 0m0 0z" clip-path="url(#pcf0e9c6cdc)" style="fill:#ff0d0d;stroke:#000;stroke-linejoin:miter" id="patch_224"/><path d="m51.428 26.366-.75-.76" clip-path="url(#pcf0e9c6cdc)" style="fill:#1f77b4;stroke:#000;stroke-linejoin:miter" id="patch_225"/><path d="M148.44 194.399h-4.106" clip-path="url(#pcf0e9c6cdc)" style="fill:#1f77b4;stroke:#000;stroke-linejoin:miter" id="patch_226"/><path d="M154.868 36.76a8.827 8.827 0 1 0-17.655 0 8.827 8.827 0 0 0 17.655 0m0 0z" clip-path="url(#pcf0e9c6cdc)" style="fill:#ff0d0d;stroke:#000;stroke-linejoin:miter" id="patch_227"/><path d="M309.391 33.963h-4.106" clip-path="url(#pcf0e9c6cdc)" style="fill:#1f77b4;stroke:#000;stroke-linejoin:miter" id="patch_228"/><path d="M140.228 194.399h-4.106" clip-path="url(#pcf0e9c6cdc)" style="fill:#1f77b4;stroke:#000;stroke-linejoin:miter" id="patch_229"/><path d="M301.18 33.963h-4.107" clip-path="url(#pcf0e9c6cdc)" style="fill:#1f77b4;stroke:#000;stroke-linejoin:miter" id="patch_230"/><path d="M132.016 194.4h-4.106" clip-path="url(#pcf0e9c6cdc)" style="fill:#1f77b4;stroke:#000;stroke-linejoin:miter" id="patch_231"/><path d="M292.967 33.963h-4.106" clip-path="url(#pcf0e9c6cdc)" style="fill:#1f77b4;stroke:#000;stroke-linejoin:miter" id="patch_232"/><path d="M123.803 194.4h-4.106" clip-path="url(#pcf0e9c6cdc)" style="fill:#1f77b4;stroke:#000;stroke-linejoin:miter" id="patch_233"/><path d="M284.754 33.963h-4.106" clip-path="url(#pcf0e9c6cdc)" style="fill:#1f77b4;stroke:#000;stroke-linejoin:miter" id="patch_234"/><path d="m52.5 192.88-.748-.76" clip-path="url(#pcf0e9c6cdc)" style="fill:#1f77b4;stroke:#000;stroke-linejoin:miter" id="patch_235"/><path d="M115.591 194.4h-4.106" clip-path="url(#pcf0e9c6cdc)" style="fill:#1f77b4;stroke:#000;stroke-linejoin:miter" id="patch_236"/><path d="M276.542 33.963h-4.106" clip-path="url(#pcf0e9c6cdc)" style="fill:#1f77b4;stroke:#000;stroke-linejoin:miter" id="patch_237"/><path d="M149.897 153.742a17.656 17.656 0 0 0-21.099-17.315 17.656 17.656 0 0 0-12.866 24.071 17.656 17.656 0 0 0 16.31 10.898v-17.654h17.655z" clip-path="url(#pcf0e9c6cdc)" style="fill:#e06633;stroke:#000;stroke-linejoin:miter" id="patch_238"/><path d="M132.242 163.907a10.168 10.168 0 0 0 10.165-10.165h-10.165v10.165z" clip-path="url(#pcf0e9c6cdc)" style="fill:#909090;stroke:#000;stroke-linejoin:miter" id="patch_239"/><path d="M107.379 194.4h-4.107" clip-path="url(#pcf0e9c6cdc)" style="fill:#1f77b4;stroke:#000;stroke-linejoin:miter" id="patch_240"/><path d="M181.696 72.263a14.311 14.311 0 1 0-28.622 0 14.311 14.311 0 0 0 28.622 0m0 0z" clip-path="url(#pcf0e9c6cdc)" style="fill:#ff8000;stroke:#000;stroke-linejoin:miter" id="patch_241"/><path d="M268.33 33.964h-4.107" clip-path="url(#pcf0e9c6cdc)" style="fill:#1f77b4;stroke:#000;stroke-linejoin:miter" id="patch_242"/><path d="m52.925 27.887-.749-.76" clip-path="url(#pcf0e9c6cdc)" style="fill:#1f77b4;stroke:#000;stroke-linejoin:miter" id="patch_243"/><path d="M99.166 194.4H95.06" clip-path="url(#pcf0e9c6cdc)" style="fill:#1f77b4;stroke:#000;stroke-linejoin:miter" id="patch_244"/><path d="M260.117 33.964h-4.106" clip-path="url(#pcf0e9c6cdc)" style="fill:#1f77b4;stroke:#000;stroke-linejoin:miter" id="patch_245"/><path d="M90.954 194.4h-4.106" clip-path="url(#pcf0e9c6cdc)" style="fill:#1f77b4;stroke:#000;stroke-linejoin:miter" id="patch_246"/><path d="M251.905 33.964h-4.106" clip-path="url(#pcf0e9c6cdc)" style="fill:#1f77b4;stroke:#000;stroke-linejoin:miter" id="patch_247"/><path d="M82.742 194.4h-4.107" clip-path="url(#pcf0e9c6cdc)" style="fill:#1f77b4;stroke:#000;stroke-linejoin:miter" id="patch_248"/><path d="M243.692 33.964h-4.106" clip-path="url(#pcf0e9c6cdc)" style="fill:#1f77b4;stroke:#000;stroke-linejoin:miter" id="patch_249"/><path d="M74.53 194.4h-4.107" clip-path="url(#pcf0e9c6cdc)" style="fill:#1f77b4;stroke:#000;stroke-linejoin:miter" id="patch_250"/><path d="M235.48 33.964h-4.106" clip-path="url(#pcf0e9c6cdc)" style="fill:#1f77b4;stroke:#000;stroke-linejoin:miter" id="patch_251"/><path d="m53.998 194.401-.748-.76" clip-path="url(#pcf0e9c6cdc)" style="fill:#1f77b4;stroke:#000;stroke-linejoin:miter" id="patch_252"/><path d="M66.317 194.4H62.21" clip-path="url(#pcf0e9c6cdc)" style="fill:#1f77b4;stroke:#000;stroke-linejoin:miter" id="patch_253"/><path d="M227.268 33.965h-4.106" clip-path="url(#pcf0e9c6cdc)" style="fill:#1f77b4;stroke:#000;stroke-linejoin:miter" id="patch_254"/><path d="M58.104 194.401h-4.106" clip-path="url(#pcf0e9c6cdc)" style="fill:#1f77b4;stroke:#000;stroke-linejoin:miter" id="patch_255"/><path d="M219.055 33.965h-4.106" clip-path="url(#pcf0e9c6cdc)" style="fill:#1f77b4;stroke:#000;stroke-linejoin:miter" id="patch_256"/><path d="m54.422 29.407-.748-.76" clip-path="url(#pcf0e9c6cdc)" style="fill:#1f77b4;stroke:#000;stroke-linejoin:miter" id="patch_257"/><path d="m54.124 190.287-.126 4.114" clip-path="url(#pcf0e9c6cdc)" style="fill:#1f77b4;stroke:#000;stroke-linejoin:miter" id="patch_258"/><path d="M210.843 33.965h-4.106" clip-path="url(#pcf0e9c6cdc)" style="fill:#1f77b4;stroke:#000;stroke-linejoin:miter" id="patch_259"/><path d="m54.376 182.06-.126 4.114" clip-path="url(#pcf0e9c6cdc)" style="fill:#1f77b4;stroke:#000;stroke-linejoin:miter" id="patch_260"/><path d="M202.63 33.965h-4.106" clip-path="url(#pcf0e9c6cdc)" style="fill:#1f77b4;stroke:#000;stroke-linejoin:miter" id="patch_261"/><path d="m54.628 173.833-.126 4.113" clip-path="url(#pcf0e9c6cdc)" style="fill:#1f77b4;stroke:#000;stroke-linejoin:miter" id="patch_262"/><path d="M194.418 33.965h-4.106" clip-path="url(#pcf0e9c6cdc)" style="fill:#1f77b4;stroke:#000;stroke-linejoin:miter" id="patch_263"/><path d="m54.88 165.606-.125 4.113" clip-path="url(#pcf0e9c6cdc)" style="fill:#1f77b4;stroke:#000;stroke-linejoin:miter" id="patch_264"/><path d="M186.206 33.966H182.1" clip-path="url(#pcf0e9c6cdc)" style="fill:#1f77b4;stroke:#000;stroke-linejoin:miter" id="patch_265"/><path d="m55.133 157.378-.126 4.114" clip-path="url(#pcf0e9c6cdc)" style="fill:#1f77b4;stroke:#000;stroke-linejoin:miter" id="patch_266"/><path d="M177.994 33.966h-4.107" clip-path="url(#pcf0e9c6cdc)" style="fill:#1f77b4;stroke:#000;stroke-linejoin:miter" id="patch_267"/><path d="m55.385 149.15-.126 4.115" clip-path="url(#pcf0e9c6cdc)" style="fill:#1f77b4;stroke:#000;stroke-linejoin:miter" id="patch_268"/><path d="M169.781 33.966h-4.106" clip-path="url(#pcf0e9c6cdc)" style="fill:#1f77b4;stroke:#000;stroke-linejoin:miter" id="patch_269"/><path d="m55.92 30.928-.75-.76" clip-path="url(#pcf0e9c6cdc)" style="fill:#1f77b4;stroke:#000;stroke-linejoin:miter" id="patch_270"/><path d="m55.637 140.924-.126 4.113" clip-path="url(#pcf0e9c6cdc)" style="fill:#1f77b4;stroke:#000;stroke-linejoin:miter" id="patch_271"/><path d="M161.569 33.966h-4.106" clip-path="url(#pcf0e9c6cdc)" style="fill:#1f77b4;stroke:#000;stroke-linejoin:miter" id="patch_272"/><path d="m55.889 132.696-.126 4.114" clip-path="url(#pcf0e9c6cdc)" style="fill:#1f77b4;stroke:#000;stroke-linejoin:miter" id="patch_273"/><path d="M153.356 33.966h-4.106" clip-path="url(#pcf0e9c6cdc)" style="fill:#1f77b4;stroke:#000;stroke-linejoin:miter" id="patch_274"/><path d="m56.141 124.47-.126 4.113" clip-path="url(#pcf0e9c6cdc)" style="fill:#1f77b4;stroke:#000;stroke-linejoin:miter" id="patch_275"/><path d="M145.144 33.967h-4.106" clip-path="url(#pcf0e9c6cdc)" style="fill:#1f77b4;stroke:#000;stroke-linejoin:miter" id="patch_276"/><path d="m56.393 116.242-.126 4.113" clip-path="url(#pcf0e9c6cdc)" style="fill:#1f77b4;stroke:#000;stroke-linejoin:miter" id="patch_277"/><path d="M136.932 33.967h-4.107" clip-path="url(#pcf0e9c6cdc)" style="fill:#1f77b4;stroke:#000;stroke-linejoin:miter" id="patch_278"/><path d="m56.645 108.014-.126 4.114" clip-path="url(#pcf0e9c6cdc)" style="fill:#1f77b4;stroke:#000;stroke-linejoin:miter" id="patch_279"/><path d="M128.72 33.967h-4.107" clip-path="url(#pcf0e9c6cdc)" style="fill:#1f77b4;stroke:#000;stroke-linejoin:miter" id="patch_280"/><path d="m56.897 99.787-.126 4.114" clip-path="url(#pcf0e9c6cdc)" style="fill:#1f77b4;stroke:#000;stroke-linejoin:miter" id="patch_281"/><path d="m57.417 32.448-.749-.76" clip-path="url(#pcf0e9c6cdc)" style="fill:#1f77b4;stroke:#000;stroke-linejoin:miter" id="patch_282"/><path d="M120.507 33.967H116.4" clip-path="url(#pcf0e9c6cdc)" style="fill:#1f77b4;stroke:#000;stroke-linejoin:miter" id="patch_283"/><path d="m57.15 91.56-.127 4.114" clip-path="url(#pcf0e9c6cdc)" style="fill:#1f77b4;stroke:#000;stroke-linejoin:miter" id="patch_284"/><path d="M112.295 33.967h-4.107" clip-path="url(#pcf0e9c6cdc)" style="fill:#1f77b4;stroke:#000;stroke-linejoin:miter" id="patch_285"/><path d="m57.402 83.333-.127 4.113" clip-path="url(#pcf0e9c6cdc)" style="fill:#1f77b4;stroke:#000;stroke-linejoin:miter" id="patch_286"/><path d="M104.082 33.968h-4.106" clip-path="url(#pcf0e9c6cdc)" style="fill:#1f77b4;stroke:#000;stroke-linejoin:miter" id="patch_287"/><path d="m57.654 75.105-.126 4.114" clip-path="url(#pcf0e9c6cdc)" style="fill:#1f77b4;stroke:#000;stroke-linejoin:miter" id="patch_288"/><path d="M95.87 33.968h-4.106" clip-path="url(#pcf0e9c6cdc)" style="fill:#1f77b4;stroke:#000;stroke-linejoin:miter" id="patch_289"/><path d="m57.906 66.878-.126 4.114" clip-path="url(#pcf0e9c6cdc)" style="fill:#1f77b4;stroke:#000;stroke-linejoin:miter" id="patch_290"/><path d="M87.657 33.968h-4.106" clip-path="url(#pcf0e9c6cdc)" style="fill:#1f77b4;stroke:#000;stroke-linejoin:miter" id="patch_291"/><path d="m58.158 58.65-.126 4.114" clip-path="url(#pcf0e9c6cdc)" style="fill:#1f77b4;stroke:#000;stroke-linejoin:miter" id="patch_292"/><path d="M79.445 33.968h-4.106" clip-path="url(#pcf0e9c6cdc)" style="fill:#1f77b4;stroke:#000;stroke-linejoin:miter" id="patch_293"/><path d="m58.41 50.423-.126 4.114" clip-path="url(#pcf0e9c6cdc)" style="fill:#1f77b4;stroke:#000;stroke-linejoin:miter" id="patch_294"/><path d="m58.914 33.969-.749-.76" clip-path="url(#pcf0e9c6cdc)" style="fill:#1f77b4;stroke:#000;stroke-linejoin:miter" id="patch_295"/><path d="M71.233 33.968h-4.107" clip-path="url(#pcf0e9c6cdc)" style="fill:#1f77b4;stroke:#000;stroke-linejoin:miter" id="patch_296"/><path d="m58.662 42.196-.126 4.114" clip-path="url(#pcf0e9c6cdc)" style="fill:#1f77b4;stroke:#000;stroke-linejoin:miter" id="patch_297"/><path d="M63.02 33.969h-4.106" clip-path="url(#pcf0e9c6cdc)" style="fill:#1f77b4;stroke:#000;stroke-linejoin:miter" id="patch_298"/><path d="m58.914 33.969-.126 4.113" clip-path="url(#pcf0e9c6cdc)" style="fill:#1f77b4;stroke:#000;stroke-linejoin:miter" id="patch_299"/><g transform="matrix(.1 0 0 -.1 195.915 136.813)" id="text_1"><defs><path id="DejaVuSans-50" d="M1259 4147V2394h794q441 0 681 228 241 228 241 650 0 419-241 647-240 228-681 228h-794zm-631 519h1425q785 0 1186-355 402-355 402-1039 0-691-402-1044-401-353-1186-353h-794V0H628v4666z" transform="scale(.01563)"/></defs><use xlink:href="#DejaVuSans-50"/></g><g transform="matrix(.1 0 0 -.1 210.218 37.171)" id="text_2"><defs><path id="DejaVuSans-46" d="M628 4666h2681v-532H1259V2759h1850v-531H1259V0H628v4666z" transform="scale(.01563)"/><path id="DejaVuSans-65" d="M3597 1894v-281H953q38-594 358-905t892-311q331 0 642 81t618 244V178Q3153 47 2828-22t-659-69q-838 0-1327 487-489 488-489 1320 0 859 464 1363 464 505 1252 505 706 0 1117-455 411-454 411-1235zm-575 169q-6 471-264 752-258 282-683 282-481 0-770-272t-333-766l2050 4z" transform="scale(.01563)"/></defs><use xlink:href="#DejaVuSans-46"/><use xlink:href="#DejaVuSans-65" x="52.02"/></g><g transform="matrix(.1 0 0 -.1 243.424 68.19)" id="text_3"><defs><path id="DejaVuSans-43" d="M4122 4306v-665q-319 297-680 443-361 147-767 147-800 0-1225-489t-425-1414q0-922 425-1411t1225-489q406 0 767 147t680 444V359q-331-225-702-338-370-112-782-112-1060 0-1670 648-609 649-609 1771 0 1125 609 1773 610 649 1670 649 418 0 788-111 371-111 696-333z" transform="scale(.01563)"/></defs><use xlink:href="#DejaVuSans-43"/></g><g transform="matrix(.1 0 0 -.1 216.35 172.313)" id="text_4"><defs><path id="DejaVuSans-4f" d="M2522 4238q-688 0-1093-513-404-512-404-1397 0-881 404-1394 405-512 1093-512 687 0 1089 512 402 513 402 1394 0 885-402 1397-402 513-1089 513zm0 512q981 0 1568-658 588-658 588-1764 0-1103-588-1761Q3503-91 2522-91q-984 0-1574 656-589 657-589 1763t589 1764q590 658 1574 658z" transform="scale(.01563)"/></defs><use xlink:href="#DejaVuSans-4f"/></g><use xlink:href="#DejaVuSans-4f" transform="matrix(.1 0 0 -.1 299.249 141.459)" id="text_5"/><g transform="matrix(.1 0 0 -.1 28.116 175.108)" id="text_6"><defs><path id="DejaVuSans-4c" d="M628 4666h631V531h2272V0H628v4666z" transform="scale(.01563)"/><path id="DejaVuSans-69" d="M603 3500h575V0H603v3500zm0 1363h575v-729H603v729z" transform="scale(.01563)"/></defs><use xlink:href="#DejaVuSans-4c"/><use xlink:href="#DejaVuSans-69" x="55.713"/></g><use xlink:href="#DejaVuSans-4f" transform="matrix(.1 0 0 -.1 218.349 107.196)" id="text_7"/><use xlink:href="#DejaVuSans-4f" transform="matrix(.1 0 0 -.1 286.134 60.473)" id="text_8"/><use xlink:href="#DejaVuSans-4f" transform="matrix(.1 0 0 -.1 159.822 139.564)" id="text_9"/><g transform="matrix(.1 0 0 -.1 30.574 94.902)" id="text_10"><use xlink:href="#DejaVuSans-4c"/><use xlink:href="#DejaVuSans-69" x="55.713"/></g><use xlink:href="#DejaVuSans-4f" transform="matrix(.1 0 0 -.1 80.29 173.839)" id="text_11"/><use xlink:href="#DejaVuSans-4f" transform="matrix(.1 0 0 -.1 148.227 60.12)" id="text_12"/><g transform="matrix(.1 0 0 -.1 236.19 128.415)" id="text_13"><use xlink:href="#DejaVuSans-46"/><use xlink:href="#DejaVuSans-65" x="52.02"/></g><use xlink:href="#DejaVuSans-43" transform="matrix(.1 0 0 -.1 269.396 159.434)" id="text_14"/><g transform="matrix(.1 0 0 -.1 176.528 186.128)" id="text_15"><use xlink:href="#DejaVuSans-4c"/><use xlink:href="#DejaVuSans-69" x="55.713"/></g><use xlink:href="#DejaVuSans-4f" transform="matrix(.1 0 0 -.1 82.287 108.72)" id="text_16"/><use xlink:href="#DejaVuSans-50" transform="matrix(.1 0 0 -.1 294.637 67.616)" id="text_17"/><g transform="matrix(.1 0 0 -.1 178.986 105.922)" id="text_18"><use xlink:href="#DejaVuSans-4c"/><use xlink:href="#DejaVuSans-69" x="55.713"/></g><use xlink:href="#DejaVuSans-50" transform="matrix(.1 0 0 -.1 65.644 144.217)" id="text_19"/><use xlink:href="#DejaVuSans-4f" transform="matrix(.1 0 0 -.1 276.165 103.116)" id="text_20"/><g transform="matrix(.1 0 0 -.1 82.441 47.107)" id="text_21"><use xlink:href="#DejaVuSans-46"/><use xlink:href="#DejaVuSans-65" x="52.02"/></g><use xlink:href="#DejaVuSans-43" transform="matrix(.1 0 0 -.1 115.647 78.126)" id="text_22"/><use xlink:href="#DejaVuSans-4f" transform="matrix(.1 0 0 -.1 210.209 151.715)" id="text_23"/><use xlink:href="#DejaVuSans-4f" transform="matrix(.1 0 0 -.1 278.162 37.995)" id="text_24"/><use xlink:href="#DejaVuSans-4f" transform="matrix(.1 0 0 -.1 198.628 72.272)" id="text_25"/><use xlink:href="#DejaVuSans-4f" transform="matrix(.1 0 0 -.1 72.3 151.36)" id="text_26"/><use xlink:href="#DejaVuSans-4f" transform="matrix(.1 0 0 -.1 140.106 104.64)" id="text_27"/><use xlink:href="#DejaVuSans-4f" transform="matrix(.1 0 0 -.1 59.196 70.372)" id="text_28"/><use xlink:href="#DejaVuSans-4f" transform="matrix(.1 0 0 -.1 142.105 39.52)" id="text_29"/><g transform="matrix(.1 0 0 -.1 108.407 138.344)" id="text_30"><use xlink:href="#DejaVuSans-46"/><use xlink:href="#DejaVuSans-65" x="52.02"/></g><use xlink:href="#DejaVuSans-43" transform="matrix(.1 0 0 -.1 141.613 169.363)" id="text_31"/><use xlink:href="#DejaVuSans-50" transform="matrix(.1 0 0 -.1 164.37 75.022)" id="text_32"/></g></g><defs><clipPath id="pcf0e9c6cdc"><path d="M7.2 7.2H342v198.003H7.2z"/></clipPath></defs></svg>