<svg xmlns="http://www.w3.org/2000/svg" width="700" height="500" class="main-svg"><path d="M0 0h700v500H0z" style="fill:#fff;fill-opacity:1"/><defs><clipPath id="a" class="plotclip"><path d="M0 0h623v402H0z"/></clipPath></defs><g class="cartesianlayer"><g class="subplot xy"><g class="gridlayer"><g class="x"><path d="M0 40v402" class="xgrid crisp" style="stroke:#d3d3d3;stroke-opacity:1;stroke-width:1px" transform="translate(131.69)"/><path d="M0 40v402" class="xgrid crisp" style="stroke:#d3d3d3;stroke-opacity:1;stroke-width:1px" transform="translate(197.38)"/><path d="M0 40v402" class="xgrid crisp" style="stroke:#d3d3d3;stroke-opacity:1;stroke-width:1px" transform="translate(263.07)"/><path d="M0 40v402" class="xgrid crisp" style="stroke:#d3d3d3;stroke-opacity:1;stroke-width:1px" transform="translate(328.75)"/><path d="M0 40v402" class="xgrid crisp" style="stroke:#d3d3d3;stroke-opacity:1;stroke-width:1px" transform="translate(394.44)"/><path d="M0 40v402" class="xgrid crisp" style="stroke:#d3d3d3;stroke-opacity:1;stroke-width:1px" transform="translate(460.13)"/><path d="M0 40v402" class="xgrid crisp" style="stroke:#d3d3d3;stroke-opacity:1;stroke-width:1px" transform="translate(525.82)"/><path d="M0 40v402" class="xgrid crisp" style="stroke:#d3d3d3;stroke-opacity:1;stroke-width:1px" transform="translate(591.51)"/><path d="M0 40v402" class="xgrid crisp" style="stroke:#d3d3d3;stroke-opacity:1;stroke-width:1px" transform="translate(657.2)"/></g><g class="y"><path d="M66 0h623" class="ygrid crisp" style="stroke:#d3d3d3;stroke-opacity:1;stroke-width:1px" transform="translate(0 365.43)"/><path d="M66 0h623" class="ygrid crisp" style="stroke:#d3d3d3;stroke-opacity:1;stroke-width:1px" transform="translate(0 288.86)"/><path d="M66 0h623" class="ygrid crisp" style="stroke:#d3d3d3;stroke-opacity:1;stroke-width:1px" transform="translate(0 212.29)"/><path d="M66 0h623" class="ygrid crisp" style="stroke:#d3d3d3;stroke-opacity:1;stroke-width:1px" transform="translate(0 135.71)"/><path d="M66 0h623" class="ygrid crisp" style="stroke:#d3d3d3;stroke-opacity:1;stroke-width:1px" transform="translate(0 59.14)"/></g></g><g class="zerolinelayer"><path d="M66 0h623" class="yzl zl crisp" style="stroke:#ebf0f8;stroke-opacity:1;stroke-width:2px" transform="translate(0 442)"/></g><g class="plot" clip-path="url(#a)" transform="translate(66 40)"><g class="barlayer mlayer"><g class="trace bars" style="opacity:1"><g class="points"><path d="M52.65 402V281.78h3.29V402Zm22.56 0v-29.51h3.29V402Zm17.36 0v-65.31h3.28V402Zm14.66 0v-53.02h3.29V402Zm12.96 0v-13h3.29v13Zm11.75 0v-17.78h3.28V402Zm20.94 0v-25.51h3.28V402Zm9.52 0v-9.2h3.28v9.2Zm9.03 0v-9.79h3.28V402Zm8.61 0v-69.8h3.28V402Zm8.25 0V19.14h3.28V402Zm7.94 0v-4.16h3.28V402Zm7.65 0v-12.94h3.29V402Zm14.6 0v-40.1h3.28V402Zm6.98 0v-4.35h3.29V402Zm6.8 0v-7.02h3.29V402Zm6.64 0v-21.85h3.28V402Zm6.48 0v-30.49h3.28V402Zm6.33 0v-4.43H255V402Zm6.21 0v-3.58h3.29V402Zm12.06 0v-12.69h3.28V402Zm5.86 0v-11.93h3.29V402Zm5.77 0v-8.51h3.29V402Zm5.68 0v-28.53h3.28V402Zm11.09 0v-4.22h3.28V402Zm5.42 0v-4.62h3.29V402Zm10.64 0V79.1h3.29V402Zm5.22 0v-9.68h3.29V402Zm5.16 0v-3.84h3.28V402Zm5.1 0v-18.34h3.28V402Zm5.04 0v-16.46h3.28V402Zm4.98 0v-.98h3.29v.98Zm4.94 0v-4.87h3.28V402Zm9.73 0v-6.01h3.28V402Zm4.8 0v-8.24h3.28V402Zm4.75 0v-2.79h3.28V402Zm4.71 0v-10.68h3.29V402Zm4.68 0V229.07h3.28V402Zm4.63 0v-2.17h3.29V402Zm4.61 0v-2.42h3.28V402Zm9.1 0v-12.05h3.28V402Zm4.5 0v-2.96h3.29V402Zm4.47 0v-3.73h3.29V402Zm4.45 0v-10.25h3.28V402Zm4.41 0v-7.46h3.29V402Zm4.39 0v-1.68h3.29V402Zm4.37 0v-3.78h3.28V402Zm8.65 0v-7.15h3.29V402Zm4.3 0v-.76h3.28v.76Zm4.27 0v-.85h3.28v.85Zm4.25 0v-19.59h3.28V402Zm8.44 0v-1.35h3.28V402Zm4.19 0v-3.06h3.29V402Zm8.33 0v-50.51h3.29V402Zm4.15 0v-4.07h3.28V402Zm4.12 0v-2.78h3.29V402Zm4.11 0v-3.36h3.29V402Zm4.1 0v-9.89h3.28V402Zm4.08 0v-1.49h3.29V402Zm4.07 0v-1.28h3.29V402Zm8.11 0v-3.68h3.28V402Zm4.03 0v-.53h3.29v.53Zm4.03 0v-2.95h3.28V402Zm4.01 0v-10.67H509V402Zm4 0v-71.38h3.29V402Zm4 0v-1.27H517V402Zm3.98 0v-1.1h3.29v1.1Zm7.95 0v-17.22h3.29V402Zm3.97 0v-3.07h3.28V402Zm3.95 0v-1.03h3.29V402Zm3.95 0v-7.47h3.29V402Zm3.95 0v-7.39h3.28V402Zm3.94 0v-.56h3.28v.56Zm3.93 0v-2.43h3.28V402Zm7.86 0v-1.89h3.28V402Zm3.92 0v-4.94h3.28V402Zm3.92 0v-2.3h3.28v2.3Zm3.91 0v-7.17h3.29V402Zm7.83 0v-.5h3.29v.5Zm3.91 0v-1.76h3.29V402Zm7.82 0V290.17h3.29V402Z" class="point" style="vector-effect:none;opacity:1;stroke-width:.5px;fill:#636efa;fill-opacity:1;stroke:#fff;stroke-opacity:1"/></g></g></g></g><path d="M65 442.5h625M65 39.5h625" class="xlines-above crisp" style="fill:none;stroke-width:1px;stroke:#000;stroke-opacity:1"/><path d="M65.5 40v402m624-402v402" class="ylines-above crisp" style="fill:none;stroke-width:1px;stroke:#000;stroke-opacity:1"/><g class="xaxislayer-above"><path d="M0 443v5" class="xtick ticks crisp" style="stroke:#444;stroke-opacity:1;stroke-width:1px" transform="translate(66)"/><path d="M0 443v5" class="xtick ticks crisp" style="stroke:#444;stroke-opacity:1;stroke-width:1px" transform="translate(131.69)"/><path d="M0 443v5" class="xtick ticks crisp" style="stroke:#444;stroke-opacity:1;stroke-width:1px" transform="translate(197.38)"/><path d="M0 443v5" class="xtick ticks crisp" style="stroke:#444;stroke-opacity:1;stroke-width:1px" transform="translate(263.07)"/><path d="M0 443v5" class="xtick ticks crisp" style="stroke:#444;stroke-opacity:1;stroke-width:1px" transform="translate(328.75)"/><path d="M0 443v5" class="xtick ticks crisp" style="stroke:#444;stroke-opacity:1;stroke-width:1px" transform="translate(394.44)"/><path d="M0 443v5" class="xtick ticks crisp" style="stroke:#444;stroke-opacity:1;stroke-width:1px" transform="translate(460.13)"/><path d="M0 443v5" class="xtick ticks crisp" style="stroke:#444;stroke-opacity:1;stroke-width:1px" transform="translate(525.82)"/><path d="M0 443v5" class="xtick ticks crisp" style="stroke:#444;stroke-opacity:1;stroke-width:1px" transform="translate(591.51)"/><path d="M0 443v5" class="xtick ticks crisp" style="stroke:#444;stroke-opacity:1;stroke-width:1px" transform="translate(657.2)"/><text y="462.4" class="xtick" style="font-family:&quot;Open Sans&quot;,verdana,arial,sans-serif;font-size:12px;fill:#000;fill-opacity:1;white-space:pre;opacity:1" text-anchor="middle" transform="translate(66)">0</text><text y="462.4" class="xtick" style="font-family:&quot;Open Sans&quot;,verdana,arial,sans-serif;font-size:12px;fill:#000;fill-opacity:1;white-space:pre;opacity:1" text-anchor="middle" transform="translate(131.69)">10</text><text y="462.4" class="xtick" style="font-family:&quot;Open Sans&quot;,verdana,arial,sans-serif;font-size:12px;fill:#000;fill-opacity:1;white-space:pre;opacity:1" text-anchor="middle" transform="translate(197.38)">20</text><text y="462.4" class="xtick" style="font-family:&quot;Open Sans&quot;,verdana,arial,sans-serif;font-size:12px;fill:#000;fill-opacity:1;white-space:pre;opacity:1" text-anchor="middle" transform="translate(263.07)">30</text><text y="462.4" class="xtick" style="font-family:&quot;Open Sans&quot;,verdana,arial,sans-serif;font-size:12px;fill:#000;fill-opacity:1;white-space:pre;opacity:1" text-anchor="middle" transform="translate(328.75)">40</text><text y="462.4" class="xtick" style="font-family:&quot;Open Sans&quot;,verdana,arial,sans-serif;font-size:12px;fill:#000;fill-opacity:1;white-space:pre;opacity:1" text-anchor="middle" transform="translate(394.44)">50</text><text y="462.4" class="xtick" style="font-family:&quot;Open Sans&quot;,verdana,arial,sans-serif;font-size:12px;fill:#000;fill-opacity:1;white-space:pre;opacity:1" text-anchor="middle" transform="translate(460.13)">60</text><text y="462.4" class="xtick" style="font-family:&quot;Open Sans&quot;,verdana,arial,sans-serif;font-size:12px;fill:#000;fill-opacity:1;white-space:pre;opacity:1" text-anchor="middle" transform="translate(525.82)">70</text><text y="462.4" class="xtick" style="font-family:&quot;Open Sans&quot;,verdana,arial,sans-serif;font-size:12px;fill:#000;fill-opacity:1;white-space:pre;opacity:1" text-anchor="middle" transform="translate(591.51)">80</text><text y="462.4" class="xtick" style="font-family:&quot;Open Sans&quot;,verdana,arial,sans-serif;font-size:12px;fill:#000;fill-opacity:1;white-space:pre;opacity:1" text-anchor="middle" transform="translate(657.2)">90</text></g><g class="yaxislayer-above"><path d="M65 0h-5" class="ytick ticks crisp" style="stroke:#444;stroke-opacity:1;stroke-width:1px" transform="translate(0 442)"/><path d="M65 0h-5" class="ytick ticks crisp" style="stroke:#444;stroke-opacity:1;stroke-width:1px" transform="translate(0 365.43)"/><path d="M65 0h-5" class="ytick ticks crisp" style="stroke:#444;stroke-opacity:1;stroke-width:1px" transform="translate(0 288.86)"/><path d="M65 0h-5" class="ytick ticks crisp" style="stroke:#444;stroke-opacity:1;stroke-width:1px" transform="translate(0 212.29)"/><path d="M65 0h-5" class="ytick ticks crisp" style="stroke:#444;stroke-opacity:1;stroke-width:1px" transform="translate(0 135.71)"/><path d="M65 0h-5" class="ytick ticks crisp" style="stroke:#444;stroke-opacity:1;stroke-width:1px" transform="translate(0 59.14)"/><text x="57.6" y="4.2" class="ytick" style="font-family:&quot;Open Sans&quot;,verdana,arial,sans-serif;font-size:12px;fill:#000;fill-opacity:1;white-space:pre;opacity:1" text-anchor="end" transform="translate(0 442)">0</text><text x="57.6" y="4.2" class="ytick" style="font-family:&quot;Open Sans&quot;,verdana,arial,sans-serif;font-size:12px;fill:#000;fill-opacity:1;white-space:pre;opacity:1" text-anchor="end" transform="translate(0 365.43)">20</text><text x="57.6" y="4.2" class="ytick" style="font-family:&quot;Open Sans&quot;,verdana,arial,sans-serif;font-size:12px;fill:#000;fill-opacity:1;white-space:pre;opacity:1" text-anchor="end" transform="translate(0 288.86)">40</text><text x="57.6" y="4.2" class="ytick" style="font-family:&quot;Open Sans&quot;,verdana,arial,sans-serif;font-size:12px;fill:#000;fill-opacity:1;white-space:pre;opacity:1" text-anchor="end" transform="translate(0 212.29)">60</text><text x="57.6" y="4.2" class="ytick" style="font-family:&quot;Open Sans&quot;,verdana,arial,sans-serif;font-size:12px;fill:#000;fill-opacity:1;white-space:pre;opacity:1" text-anchor="end" transform="translate(0 135.71)">80</text><text x="57.6" y="4.2" class="ytick" style="font-family:&quot;Open Sans&quot;,verdana,arial,sans-serif;font-size:12px;fill:#000;fill-opacity:1;white-space:pre;opacity:1" text-anchor="end" transform="translate(0 59.14)">100</text></g></g></g><g class="infolayer"><g class="g-gtitle"><text x="350" y="15" class="gtitle" dy=".7em" style="font-family:&quot;Open Sans&quot;,verdana,arial,sans-serif;font-size:17px;fill:#000;opacity:1;white-space:pre" text-anchor="middle">Zr8 Bi12 O28 (1)</text></g><g class="g-xtitle"><text x="377.5" y="489.206" class="xtitle" style="font-family:&quot;Open Sans&quot;,verdana,arial,sans-serif;font-size:14px;fill:#000;opacity:1;white-space:pre" text-anchor="middle">2θ (degrees)</text></g><g class="g-ytitle"><text x="15.303" y="241" class="ytitle" style="font-family:&quot;Open Sans&quot;,verdana,arial,sans-serif;font-size:14px;fill:#000;opacity:1;white-space:pre" text-anchor="middle" transform="rotate(-90 15.303 241)">Intensity (a.u.)</text></g><g class="annotation" data-index="0" style="opacity:1"><g class="annotation-text-g"><g class="cursor-pointer"><path fill="none" d="M.5.5h44v49H.5z" class="bg" style="stroke-width:1px;stroke:#000;stroke-opacity:0;fill:#000;fill-opacity:0" transform="translate(591 260)"/><text x="22.703" y="14" class="annotation-text" style="font-family:&quot;Open Sans&quot;,verdana,arial,sans-serif;font-size:12px;fill:#000;fill-opacity:1;white-space:pre" text-anchor="middle" transform="translate(591 260)"><tspan x="22.703" y="14" class="line" dy="0em">624</tspan><tspan x="22.703" y="14" class="line" dy="1.3em">408</tspan><tspan x="22.703" y="14" class="line" dy="2.6em">89.84°</tspan></text></g></g><g class="annotation-arrow-g" style="opacity:1"><path d="m636.16 310.17 20 20" style="stroke-width:1px;stroke:#2a3f5f;stroke-opacity:1;stroke-dasharray:0,0,26.9843px,28.2843px"/><path d="M-3.7-2.5v5l5-2.5Z" style="fill:#2a3f5f;stroke-width:0" transform="rotate(44.988 -69.942 955.812)"/></g></g><g class="annotation" data-index="1" style="opacity:1"><g class="annotation-text-g"><g class="cursor-pointer"><path fill="none" d="M.5.5h37v33H.5z" class="bg" style="stroke-width:1px;stroke:#000;stroke-opacity:0;fill:#000;fill-opacity:0" transform="translate(140 268)"/><text x="18.891" y="14" class="annotation-text" style="font-family:&quot;Open Sans&quot;,verdana,arial,sans-serif;font-size:12px;fill:#000;fill-opacity:1;white-space:pre" text-anchor="middle" transform="translate(140 268)"><tspan x="18.891" y="14" class="line" dy="0em">001</tspan><tspan x="18.891" y="14" class="line" dy="1.3em">8.27°</tspan></text></g></g><g class="annotation-arrow-g" style="opacity:1"><path d="m140.3 301.78-20 20" style="stroke-width:1px;stroke:#2a3f5f;stroke-opacity:1;stroke-dasharray:0,0,26.9843px,28.2843px"/><path d="M-3.7-2.5v5l5-2.5Z" style="fill:#2a3f5f;stroke-width:0" transform="rotate(135 -5.843 185.536)"/></g></g><g class="annotation" data-index="2" style="opacity:1"><g class="annotation-text-g"><g class="cursor-pointer"><path fill="none" d="M.5.5h44v49H.5z" class="bg" style="stroke-width:1px;stroke:#000;stroke-opacity:0;fill:#000;fill-opacity:0" transform="translate(461 199)"/><text x="22.703" y="14" class="annotation-text" style="font-family:&quot;Open Sans&quot;,verdana,arial,sans-serif;font-size:12px;fill:#000;fill-opacity:1;white-space:pre" text-anchor="middle" transform="translate(461 199)"><tspan x="22.703" y="14" class="line" dy="0em">422</tspan><tspan x="22.703" y="14" class="line" dy="1.3em">206</tspan><tspan x="22.703" y="14" class="line" dy="2.6em">57.12°</tspan></text></g></g><g class="annotation-arrow-g" style="opacity:1"><path d="m461.19 249.07-20 20" style="stroke-width:1px;stroke:#2a3f5f;stroke-opacity:1;stroke-dasharray:0,0,26.9843px,28.2843px"/><path d="M-3.7-2.5v5l5-2.5Z" style="fill:#2a3f5f;stroke-width:0" transform="rotate(135 165.519 225.64)"/></g></g><g class="annotation" data-index="3" style="opacity:1"><g class="annotation-text-g"><g class="cursor-pointer"><path fill="none" d="M.5.5h44v49H.5z" class="bg" style="stroke-width:1px;stroke:#000;stroke-opacity:0;fill:#000;fill-opacity:0" transform="translate(402 49)"/><text x="22.703" y="14" class="annotation-text" style="font-family:&quot;Open Sans&quot;,verdana,arial,sans-serif;font-size:12px;fill:#000;fill-opacity:1;white-space:pre" text-anchor="middle" transform="translate(402 49)"><tspan x="22.703" y="14" class="line" dy="0em">400</tspan><tspan x="22.703" y="14" class="line" dy="1.3em">224</tspan><tspan x="22.703" y="14" class="line" dy="2.6em">48.12°</tspan></text></g></g><g class="annotation-arrow-g" style="opacity:1"><path d="m402.09 99.1-20 20" style="stroke-width:1px;stroke:#2a3f5f;stroke-opacity:1;stroke-dasharray:0,0,26.9843px,28.2843px"/><path d="M-3.7-2.5v5l5-2.5Z" style="fill:#2a3f5f;stroke-width:0" transform="rotate(135 167.029 138.414)"/></g></g><g class="annotation" data-index="4" style="opacity:1"><g class="annotation-text-g"><g class="cursor-pointer"><path fill="none" d="M.5.5h44v33H.5z" class="bg" style="stroke-width:1px;stroke:#000;stroke-opacity:0;fill:#000;fill-opacity:0" transform="translate(276 79)"/><text x="22.703" y="14" class="annotation-text" style="font-family:&quot;Open Sans&quot;,verdana,arial,sans-serif;font-size:12px;fill:#000;fill-opacity:1;white-space:pre" text-anchor="middle" transform="translate(276 79)"><tspan x="22.703" y="14" class="line" dy="0em">202</tspan><tspan x="22.703" y="14" class="line" dy="1.3em">28.91°</tspan></text></g></g></g></g></svg>