<svg xmlns="http://www.w3.org/2000/svg" width="700" height="500" class="main-svg"><path d="M0 0h700v500H0z" style="fill:#fff;fill-opacity:1"/><defs><clipPath id="a" class="plotclip"><path d="M0 0h623v431H0z"/></clipPath></defs><g class="cartesianlayer"><g class="subplot xy"><g class="gridlayer"><g class="x"><path d="M0 11v431" class="xgrid crisp" style="stroke:#d3d3d3;stroke-opacity:1;stroke-width:1px" transform="translate(132.31)"/><path d="M0 11v431" class="xgrid crisp" style="stroke:#d3d3d3;stroke-opacity:1;stroke-width:1px" transform="translate(198.62)"/><path d="M0 11v431" class="xgrid crisp" style="stroke:#d3d3d3;stroke-opacity:1;stroke-width:1px" transform="translate(264.92)"/><path d="M0 11v431" class="xgrid crisp" style="stroke:#d3d3d3;stroke-opacity:1;stroke-width:1px" transform="translate(331.23)"/><path d="M0 11v431" class="xgrid crisp" style="stroke:#d3d3d3;stroke-opacity:1;stroke-width:1px" transform="translate(397.54)"/><path d="M0 11v431" class="xgrid crisp" style="stroke:#d3d3d3;stroke-opacity:1;stroke-width:1px" transform="translate(463.85)"/><path d="M0 11v431" class="xgrid crisp" style="stroke:#d3d3d3;stroke-opacity:1;stroke-width:1px" transform="translate(530.16)"/><path d="M0 11v431" class="xgrid crisp" style="stroke:#d3d3d3;stroke-opacity:1;stroke-width:1px" transform="translate(596.47)"/><path d="M0 11v431" class="xgrid crisp" style="stroke:#d3d3d3;stroke-opacity:1;stroke-width:1px" transform="translate(662.77)"/></g><g class="y"><path d="M66 0h623" class="ygrid crisp" style="stroke:#d3d3d3;stroke-opacity:1;stroke-width:1px" transform="translate(0 359.9)"/><path d="M66 0h623" class="ygrid crisp" style="stroke:#d3d3d3;stroke-opacity:1;stroke-width:1px" transform="translate(0 277.81)"/><path d="M66 0h623" class="ygrid crisp" style="stroke:#d3d3d3;stroke-opacity:1;stroke-width:1px" transform="translate(0 195.71)"/><path d="M66 0h623" class="ygrid crisp" style="stroke:#d3d3d3;stroke-opacity:1;stroke-width:1px" transform="translate(0 113.62)"/><path d="M66 0h623" class="ygrid crisp" style="stroke:#d3d3d3;stroke-opacity:1;stroke-width:1px" transform="translate(0 31.52)"/></g></g><g class="zerolinelayer"><path d="M66 0h623" class="yzl zl crisp" style="stroke:#ebf0f8;stroke-opacity:1;stroke-width:2px" transform="translate(0 442)"/></g><g class="plot" clip-path="url(#a)" transform="translate(66 11)"><g class="barlayer mlayer"><g class="trace bars" style="opacity:1"><g class="points"><path d="M92.69 431v-58.23h3.32V431Zm60.4 0v-.2h3.32v.2Zm27.19 0v-33.73h3.32V431Zm8.26 0V20.52h3.32V431Zm30.22 0V286.06h3.31V431Zm20.43 0v-43.08h3.32V431Zm31.1 0v-.71h3.32v.71Zm17.32 0v-22.24h3.31V431Zm27.16 0V236.42h3.32V431Zm15.47 0v-20.39h3.32V431Zm24.69 0v-.19h3.31v.19Zm14.25 0v-5.38h3.32V431Zm4.67 0V244.99h3.32V431Zm18.33 0v-44.76h3.31V431Zm13.4 0v-10.8h3.32V431Zm21.8 0v-.01h3.31v.01Zm12.79 0v-10.56h3.32V431Zm20.93 0v-29.26h3.31V431Zm12.35 0v-7.51h3.31V431Zm20.29 0v-.51h3.32v.51Zm12.04 0v-8.09h3.31V431Zm3.99 0v-76.53h3.31V431Zm15.87 0v-63.26h3.31V431Zm11.82 0v-10.06h3.31V431Zm19.58 0v-.08h3.32v.08Zm11.7 0v-4.9h3.32v4.9Zm19.45 0v-60.05h3.31V431Z" class="point" style="vector-effect:none;opacity:1;stroke-width:.5px;fill:#636efa;fill-opacity:1;stroke:#fff;stroke-opacity:1"/></g></g></g></g><path d="M65 442.5h625M65 10.5h625" class="xlines-above crisp" style="fill:none;stroke-width:1px;stroke:#000;stroke-opacity:1"/><path d="M65.5 11v431m624-431v431" class="ylines-above crisp" style="fill:none;stroke-width:1px;stroke:#000;stroke-opacity:1"/><g class="xaxislayer-above"><path d="M0 443v5" class="xtick ticks crisp" style="stroke:#444;stroke-opacity:1;stroke-width:1px" transform="translate(66)"/><path d="M0 443v5" class="xtick ticks crisp" style="stroke:#444;stroke-opacity:1;stroke-width:1px" transform="translate(132.31)"/><path d="M0 443v5" class="xtick ticks crisp" style="stroke:#444;stroke-opacity:1;stroke-width:1px" transform="translate(198.62)"/><path d="M0 443v5" class="xtick ticks crisp" style="stroke:#444;stroke-opacity:1;stroke-width:1px" transform="translate(264.92)"/><path d="M0 443v5" class="xtick ticks crisp" style="stroke:#444;stroke-opacity:1;stroke-width:1px" transform="translate(331.23)"/><path d="M0 443v5" class="xtick ticks crisp" style="stroke:#444;stroke-opacity:1;stroke-width:1px" transform="translate(397.54)"/><path d="M0 443v5" class="xtick ticks crisp" style="stroke:#444;stroke-opacity:1;stroke-width:1px" transform="translate(463.85)"/><path d="M0 443v5" class="xtick ticks crisp" style="stroke:#444;stroke-opacity:1;stroke-width:1px" transform="translate(530.16)"/><path d="M0 443v5" class="xtick ticks crisp" style="stroke:#444;stroke-opacity:1;stroke-width:1px" transform="translate(596.47)"/><path d="M0 443v5" class="xtick ticks crisp" style="stroke:#444;stroke-opacity:1;stroke-width:1px" transform="translate(662.77)"/><text y="462.4" class="xtick" style="font-family:&quot;Open Sans&quot;,verdana,arial,sans-serif;font-size:12px;fill:#000;fill-opacity:1;white-space:pre;opacity:1" text-anchor="middle" transform="translate(66)">0</text><text y="462.4" class="xtick" style="font-family:&quot;Open Sans&quot;,verdana,arial,sans-serif;font-size:12px;fill:#000;fill-opacity:1;white-space:pre;opacity:1" text-anchor="middle" transform="translate(132.31)">10</text><text y="462.4" class="xtick" style="font-family:&quot;Open Sans&quot;,verdana,arial,sans-serif;font-size:12px;fill:#000;fill-opacity:1;white-space:pre;opacity:1" text-anchor="middle" transform="translate(198.62)">20</text><text y="462.4" class="xtick" style="font-family:&quot;Open Sans&quot;,verdana,arial,sans-serif;font-size:12px;fill:#000;fill-opacity:1;white-space:pre;opacity:1" text-anchor="middle" transform="translate(264.92)">30</text><text y="462.4" class="xtick" style="font-family:&quot;Open Sans&quot;,verdana,arial,sans-serif;font-size:12px;fill:#000;fill-opacity:1;white-space:pre;opacity:1" text-anchor="middle" transform="translate(331.23)">40</text><text y="462.4" class="xtick" style="font-family:&quot;Open Sans&quot;,verdana,arial,sans-serif;font-size:12px;fill:#000;fill-opacity:1;white-space:pre;opacity:1" text-anchor="middle" transform="translate(397.54)">50</text><text y="462.4" class="xtick" style="font-family:&quot;Open Sans&quot;,verdana,arial,sans-serif;font-size:12px;fill:#000;fill-opacity:1;white-space:pre;opacity:1" text-anchor="middle" transform="translate(463.85)">60</text><text y="462.4" class="xtick" style="font-family:&quot;Open Sans&quot;,verdana,arial,sans-serif;font-size:12px;fill:#000;fill-opacity:1;white-space:pre;opacity:1" text-anchor="middle" transform="translate(530.16)">70</text><text y="462.4" class="xtick" style="font-family:&quot;Open Sans&quot;,verdana,arial,sans-serif;font-size:12px;fill:#000;fill-opacity:1;white-space:pre;opacity:1" text-anchor="middle" transform="translate(596.47)">80</text><text y="462.4" class="xtick" style="font-family:&quot;Open Sans&quot;,verdana,arial,sans-serif;font-size:12px;fill:#000;fill-opacity:1;white-space:pre;opacity:1" text-anchor="middle" transform="translate(662.77)">90</text></g><g class="yaxislayer-above"><path d="M65 0h-5" class="ytick ticks crisp" style="stroke:#444;stroke-opacity:1;stroke-width:1px" transform="translate(0 442)"/><path d="M65 0h-5" class="ytick ticks crisp" style="stroke:#444;stroke-opacity:1;stroke-width:1px" transform="translate(0 359.9)"/><path d="M65 0h-5" class="ytick ticks crisp" style="stroke:#444;stroke-opacity:1;stroke-width:1px" transform="translate(0 277.81)"/><path d="M65 0h-5" class="ytick ticks crisp" style="stroke:#444;stroke-opacity:1;stroke-width:1px" transform="translate(0 195.71)"/><path d="M65 0h-5" class="ytick ticks crisp" style="stroke:#444;stroke-opacity:1;stroke-width:1px" transform="translate(0 113.62)"/><path d="M65 0h-5" class="ytick ticks crisp" style="stroke:#444;stroke-opacity:1;stroke-width:1px" transform="translate(0 31.52)"/><text x="57.6" y="4.2" class="ytick" style="font-family:&quot;Open Sans&quot;,verdana,arial,sans-serif;font-size:12px;fill:#000;fill-opacity:1;white-space:pre;opacity:1" text-anchor="end" transform="translate(0 442)">0</text><text x="57.6" y="4.2" class="ytick" style="font-family:&quot;Open Sans&quot;,verdana,arial,sans-serif;font-size:12px;fill:#000;fill-opacity:1;white-space:pre;opacity:1" text-anchor="end" transform="translate(0 359.9)">20</text><text x="57.6" y="4.2" class="ytick" style="font-family:&quot;Open Sans&quot;,verdana,arial,sans-serif;font-size:12px;fill:#000;fill-opacity:1;white-space:pre;opacity:1" text-anchor="end" transform="translate(0 277.81)">40</text><text x="57.6" y="4.2" class="ytick" style="font-family:&quot;Open Sans&quot;,verdana,arial,sans-serif;font-size:12px;fill:#000;fill-opacity:1;white-space:pre;opacity:1" text-anchor="end" transform="translate(0 195.71)">60</text><text x="57.6" y="4.2" class="ytick" style="font-family:&quot;Open Sans&quot;,verdana,arial,sans-serif;font-size:12px;fill:#000;fill-opacity:1;white-space:pre;opacity:1" text-anchor="end" transform="translate(0 113.62)">80</text><text x="57.6" y="4.2" class="ytick" style="font-family:&quot;Open Sans&quot;,verdana,arial,sans-serif;font-size:12px;fill:#000;fill-opacity:1;white-space:pre;opacity:1" text-anchor="end" transform="translate(0 31.52)">100</text></g></g></g><g class="infolayer"><g class="g-xtitle"><text x="377.5" y="489.206" class="xtitle" style="font-family:&quot;Open Sans&quot;,verdana,arial,sans-serif;font-size:14px;fill:#000;opacity:1;white-space:pre" text-anchor="middle">2θ (degrees)</text></g><g class="g-ytitle"><text x="15.303" y="226.5" class="ytitle" style="font-family:&quot;Open Sans&quot;,verdana,arial,sans-serif;font-size:14px;fill:#000;opacity:1;white-space:pre" text-anchor="middle" transform="rotate(-90 15.303 226.5)">Intensity (a.u.)</text></g><g class="annotation" data-index="0" style="opacity:1"><g class="annotation-text-g"><g class="cursor-pointer"><path fill="none" d="M.5.5h179v33H.5z" class="bg" style="stroke-width:1px;stroke:#000;stroke-opacity:0;fill:#000;fill-opacity:0" transform="translate(597 311)"/><text x="89.75" y="14" class="annotation-text" style="font-family:&quot;Open Sans&quot;,verdana,arial,sans-serif;font-size:12px;fill:#000;fill-opacity:1;white-space:pre" text-anchor="middle" transform="translate(597 311)"><tspan x="89.75" y="14" class="line" dy="0em">(6, 4, 4), (6, 2, 2), (4, 0, -2)</tspan><tspan x="89.75" y="14" class="line" dy="1.3em">77.13°</tspan></text></g></g><g class="annotation-arrow-g" style="opacity:1"><path d="m597.42 345.47-20 20" style="stroke-width:1px;stroke:#2a3f5f;stroke-opacity:1;stroke-dasharray:0,0,26.9843px,28.2843px"/><path d="M-3.7-2.5v5l5-2.5Z" style="fill:#2a3f5f;stroke-width:0" transform="rotate(135.012 213.692 302.017)"/></g></g><g class="annotation" data-index="1" style="opacity:1"><g class="annotation-text-g"><g class="cursor-pointer"><path fill="none" d="M.5.5h54v33H.5z" class="bg" style="stroke-width:1px;stroke:#000;stroke-opacity:0;fill:#000;fill-opacity:0" transform="translate(306 243)"/><text x="27.484" y="14" class="annotation-text" style="font-family:&quot;Open Sans&quot;,verdana,arial,sans-serif;font-size:12px;fill:#000;fill-opacity:1;white-space:pre" text-anchor="middle" transform="translate(306 243)"><tspan x="27.484" y="14" class="line" dy="0em">(2, 2, 0)</tspan><tspan x="27.484" y="14" class="line" dy="1.3em">33.24°</tspan></text></g></g><g class="annotation-arrow-g" style="opacity:1"><path d="m306.41 277.06-20 20" style="stroke-width:1px;stroke:#2a3f5f;stroke-opacity:1;stroke-dasharray:0,0,26.9843px,28.2843px"/><path d="M-3.7-2.5v5l5-2.5Z" style="fill:#2a3f5f;stroke-width:0" transform="rotate(135 82.332 207.578)"/></g></g><g class="annotation" data-index="2" style="opacity:1"><g class="annotation-text-g"><g class="cursor-pointer"><path fill="none" d="M.5.5h179v33H.5z" class="bg" style="stroke-width:1px;stroke:#000;stroke-opacity:0;fill:#000;fill-opacity:0" transform="translate(462 202)"/><text x="89.75" y="14" class="annotation-text" style="font-family:&quot;Open Sans&quot;,verdana,arial,sans-serif;font-size:12px;fill:#000;fill-opacity:1;white-space:pre" text-anchor="middle" transform="translate(462 202)"><tspan x="89.75" y="14" class="line" dy="0em">(4, 4, 2), (4, 2, 0), (2, 2, -2)</tspan><tspan x="89.75" y="14" class="line" dy="1.3em">56.63°</tspan></text></g></g><g class="annotation-arrow-g" style="opacity:1"><path d="m461.51 235.99-20 20" style="stroke-width:1px;stroke:#2a3f5f;stroke-opacity:1;stroke-dasharray:0,0,26.9843px,28.2843px"/><path d="M-3.7-2.5v5l5-2.5Z" style="fill:#2a3f5f;stroke-width:0" transform="rotate(135 168.388 219.165)"/></g></g><g class="annotation" data-index="3" style="opacity:1"><g class="annotation-text-g"><g class="cursor-pointer"><path fill="none" d="M.5.5h119v33H.5z" class="bg" style="stroke-width:1px;stroke:#000;stroke-opacity:0;fill:#000;fill-opacity:0" transform="translate(402 193)"/><text x="59.984" y="14" class="annotation-text" style="font-family:&quot;Open Sans&quot;,verdana,arial,sans-serif;font-size:12px;fill:#000;fill-opacity:1;white-space:pre" text-anchor="middle" transform="translate(402 193)"><tspan x="59.984" y="14" class="line" dy="0em">(4, 2, 2), (2, 0, -2)</tspan><tspan x="59.984" y="14" class="line" dy="1.3em">47.72°</tspan></text></g></g><g class="annotation-arrow-g" style="opacity:1"><path d="m402.43 227.42-20 20" style="stroke-width:1px;stroke:#2a3f5f;stroke-opacity:1;stroke-dasharray:0,0,26.9843px,28.2843px"/><path d="M-3.7-2.5v5l5-2.5Z" style="fill:#2a3f5f;stroke-width:0" transform="rotate(135 140.623 202.645)"/></g></g><g class="annotation" data-index="4" style="opacity:1"><g class="annotation-text-g"><g class="cursor-pointer"><path fill="none" d="M.5.5h114v33H.5z" class="bg" style="stroke-width:1px;stroke:#000;stroke-opacity:0;fill:#000;fill-opacity:0" transform="translate(221 18)"/><text x="57.25" y="14" class="annotation-text" style="font-family:&quot;Open Sans&quot;,verdana,arial,sans-serif;font-size:12px;fill:#000;fill-opacity:1;white-space:pre" text-anchor="middle" transform="translate(221 18)"><tspan x="57.25" y="14" class="line" dy="0em">(2, 2, 2), (2, 0, 0)</tspan><tspan x="57.25" y="14" class="line" dy="1.3em">28.68°</tspan></text></g></g></g></g></svg>