<svg xmlns="http://www.w3.org/2000/svg" width="700" height="500" class="main-svg"><path d="M0 0h700v500H0z" style="fill:#fff;fill-opacity:1"/><defs><clipPath id="a" class="plotclip"><path d="M0 0h623v431H0z"/></clipPath></defs><g class="cartesianlayer"><g class="subplot xy"><g class="gridlayer"><g class="x"><path d="M0 11v431" class="xgrid crisp" style="stroke:#d3d3d3;stroke-opacity:1;stroke-width:1px" transform="translate(131.69)"/><path d="M0 11v431" class="xgrid crisp" style="stroke:#d3d3d3;stroke-opacity:1;stroke-width:1px" transform="translate(197.38)"/><path d="M0 11v431" class="xgrid crisp" style="stroke:#d3d3d3;stroke-opacity:1;stroke-width:1px" transform="translate(263.07)"/><path d="M0 11v431" class="xgrid crisp" style="stroke:#d3d3d3;stroke-opacity:1;stroke-width:1px" transform="translate(328.75)"/><path d="M0 11v431" class="xgrid crisp" style="stroke:#d3d3d3;stroke-opacity:1;stroke-width:1px" transform="translate(394.44)"/><path d="M0 11v431" class="xgrid crisp" style="stroke:#d3d3d3;stroke-opacity:1;stroke-width:1px" transform="translate(460.13)"/><path d="M0 11v431" class="xgrid crisp" style="stroke:#d3d3d3;stroke-opacity:1;stroke-width:1px" transform="translate(525.82)"/><path d="M0 11v431" class="xgrid crisp" style="stroke:#d3d3d3;stroke-opacity:1;stroke-width:1px" transform="translate(591.51)"/><path d="M0 11v431" class="xgrid crisp" style="stroke:#d3d3d3;stroke-opacity:1;stroke-width:1px" transform="translate(657.2)"/></g><g class="y"><path d="M66 0h623" class="ygrid crisp" style="stroke:#d3d3d3;stroke-opacity:1;stroke-width:1px" transform="translate(0 359.9)"/><path d="M66 0h623" class="ygrid crisp" style="stroke:#d3d3d3;stroke-opacity:1;stroke-width:1px" transform="translate(0 277.81)"/><path d="M66 0h623" class="ygrid crisp" style="stroke:#d3d3d3;stroke-opacity:1;stroke-width:1px" transform="translate(0 195.71)"/><path d="M66 0h623" class="ygrid crisp" style="stroke:#d3d3d3;stroke-opacity:1;stroke-width:1px" transform="translate(0 113.62)"/><path d="M66 0h623" class="ygrid crisp" style="stroke:#d3d3d3;stroke-opacity:1;stroke-width:1px" transform="translate(0 31.52)"/></g></g><g class="zerolinelayer"><path d="M66 0h623" class="yzl zl crisp" style="stroke:#ebf0f8;stroke-opacity:1;stroke-width:2px" transform="translate(0 442)"/></g><g class="plot" clip-path="url(#a)" transform="translate(66 11)"><g class="barlayer mlayer"><g class="trace bars" style="opacity:1"><g class="points"><path d="M52.65 431V302.11h3.29V431Zm22.56 0v-31.64h3.29V431Zm17.36 0v-70.03h3.28V431Zm14.66 0v-56.84h3.29V431Zm12.96 0v-13.93h3.29V431Zm11.75 0v-19.06h3.28V431Zm20.94 0v-27.35h3.28V431Zm9.52 0v-9.86h3.28V431Zm9.03 0v-10.49h3.28V431Zm8.61 0v-74.83h3.28V431Zm8.25 0V20.52h3.28V431Zm7.94 0v-4.46h3.28V431Zm7.65 0v-13.88h3.29V431Zm14.6 0v-42.99h3.28V431Zm6.98 0v-4.66h3.29V431Zm6.8 0v-7.53h3.29V431Zm6.64 0v-23.43h3.28V431Zm6.48 0v-32.69h3.28V431Zm6.33 0v-4.75H255V431Zm6.21 0v-3.84h3.29V431Zm12.06 0v-13.61h3.28V431Zm5.86 0v-12.79h3.29V431Zm5.77 0v-9.12h3.29V431Zm5.68 0v-30.58h3.28V431Zm11.09 0v-4.52h3.28V431Zm5.42 0v-4.95h3.29V431Zm10.64 0V84.8h3.29V431Zm5.22 0v-10.37h3.29V431Zm5.16 0v-4.12h3.28V431Zm5.1 0v-19.67h3.28V431Zm5.04 0v-17.64h3.28V431Zm4.98 0v-1.05h3.29V431Zm4.94 0v-5.23h3.28V431Zm9.73 0v-6.44h3.28V431Zm4.8 0v-8.83h3.28V431Zm4.75 0v-2.99h3.28V431Zm4.71 0v-11.45h3.29V431Zm4.68 0V245.6h3.28V431Zm4.63 0v-2.32h3.29V431Zm4.61 0v-2.6h3.28v2.6Zm9.1 0v-12.92h3.28V431Zm4.5 0v-3.17h3.29V431Zm4.47 0v-3.99h3.29V431Zm4.45 0v-10.99h3.28V431Zm4.41 0v-8h3.29v8Zm4.39 0v-1.8h3.29v1.8Zm4.37 0v-4.05h3.28V431Zm8.65 0v-7.66h3.29V431Zm4.3 0v-.82h3.28v.82Zm4.27 0v-.91h3.28v.91Zm4.25 0v-21h3.28v21Zm8.44 0v-1.44h3.28V431Zm4.19 0v-3.28h3.29V431Zm8.33 0v-54.16h3.29V431Zm4.15 0v-4.36h3.28V431Zm4.12 0v-2.98h3.29V431Zm4.11 0v-3.6h3.29v3.6Zm4.1 0v-10.6h3.28V431Zm4.08 0v-1.59h3.29V431Zm4.07 0v-1.37h3.29V431Zm8.11 0v-3.95h3.28V431Zm4.03 0v-.57h3.29v.57Zm4.03 0v-3.16h3.28V431Zm4.01 0v-11.44H509V431Zm4 0v-76.53h3.29V431Zm4 0v-1.36H517V431Zm3.98 0v-1.18h3.29V431Zm7.95 0v-18.46h3.29V431Zm3.97 0v-3.29h3.28V431Zm3.95 0v-1.1h3.29v1.1Zm3.95 0v-8.01h3.29V431Zm3.95 0v-7.92h3.28V431Zm3.94 0v-.6h3.28v.6Zm3.93 0v-2.6h3.28v2.6Zm7.86 0v-2.03h3.28V431Zm3.92 0v-5.3h3.28v5.3Zm3.92 0v-2.47h3.28V431Zm3.91 0v-7.69h3.29V431Zm7.83 0v-.54h3.29v.54Zm3.91 0v-1.89h3.29V431Zm7.82 0V311.11h3.29V431Z" class="point" style="vector-effect:none;opacity:1;stroke-width:.5px;fill:#636efa;fill-opacity:1;stroke:#fff;stroke-opacity:1"/></g></g><g class="trace bars" style="opacity:1"><g class="points"><path d="M91.83 431v-58.23h3.28V431Zm59.83 0v-.2h3.28v.2Zm26.94 0v-33.73h3.28V431Zm8.18 0V20.52h3.28V431Zm29.93 0V286.06H220V431Zm20.25 0v-43.08h3.28V431Zm30.81 0v-.71h3.28v.71Zm17.15 0v-22.24h3.29V431Zm26.91 0V236.42h3.28V431Zm15.33 0v-20.39h3.28V431Zm24.45 0v-.19h3.29v.19Zm14.12 0v-5.38h3.29V431Zm4.63 0V244.99h3.29V431Zm18.16 0v-44.76h3.28V431Zm13.28 0v-10.8h3.28V431Zm21.59 0v-.01h3.28v.01Zm12.67 0v-10.56h3.28V431Zm20.73 0v-29.26h3.28V431Zm12.23 0v-7.51h3.29V431Zm20.11 0v-.51h3.28v.51Zm11.92 0v-8.09h3.28V431Zm3.95 0v-76.53h3.29V431Zm15.73 0v-63.26h3.28V431Zm11.71 0v-10.06h3.28V431Zm19.4 0v-.08h3.28v.08Zm11.59 0v-4.9h3.28v4.9Zm19.26 0v-60.05h3.29V431Z" class="point" style="vector-effect:none;opacity:1;stroke-width:.5px;fill:#ef553b;fill-opacity:1;stroke:#fff;stroke-opacity:1"/></g></g></g></g><path d="M65 442.5h625M65 10.5h625" class="xlines-above crisp" style="fill:none;stroke-width:1px;stroke:#000;stroke-opacity:1"/><path d="M65.5 11v431m624-431v431" class="ylines-above crisp" style="fill:none;stroke-width:1px;stroke:#000;stroke-opacity:1"/><g class="xaxislayer-above"><path d="M0 443v5" class="xtick ticks crisp" style="stroke:#444;stroke-opacity:1;stroke-width:1px" transform="translate(66)"/><path d="M0 443v5" class="xtick ticks crisp" style="stroke:#444;stroke-opacity:1;stroke-width:1px" transform="translate(131.69)"/><path d="M0 443v5" class="xtick ticks crisp" style="stroke:#444;stroke-opacity:1;stroke-width:1px" transform="translate(197.38)"/><path d="M0 443v5" class="xtick ticks crisp" style="stroke:#444;stroke-opacity:1;stroke-width:1px" transform="translate(263.07)"/><path d="M0 443v5" class="xtick ticks crisp" style="stroke:#444;stroke-opacity:1;stroke-width:1px" transform="translate(328.75)"/><path d="M0 443v5" class="xtick ticks crisp" style="stroke:#444;stroke-opacity:1;stroke-width:1px" transform="translate(394.44)"/><path d="M0 443v5" class="xtick ticks crisp" style="stroke:#444;stroke-opacity:1;stroke-width:1px" transform="translate(460.13)"/><path d="M0 443v5" class="xtick ticks crisp" style="stroke:#444;stroke-opacity:1;stroke-width:1px" transform="translate(525.82)"/><path d="M0 443v5" class="xtick ticks crisp" style="stroke:#444;stroke-opacity:1;stroke-width:1px" transform="translate(591.51)"/><path d="M0 443v5" class="xtick ticks crisp" style="stroke:#444;stroke-opacity:1;stroke-width:1px" transform="translate(657.2)"/><text y="462.4" class="xtick" style="font-family:&quot;Open Sans&quot;,verdana,arial,sans-serif;font-size:12px;fill:#000;fill-opacity:1;white-space:pre;opacity:1" text-anchor="middle" transform="translate(66)">0</text><text y="462.4" class="xtick" style="font-family:&quot;Open Sans&quot;,verdana,arial,sans-serif;font-size:12px;fill:#000;fill-opacity:1;white-space:pre;opacity:1" text-anchor="middle" transform="translate(131.69)">10</text><text y="462.4" class="xtick" style="font-family:&quot;Open Sans&quot;,verdana,arial,sans-serif;font-size:12px;fill:#000;fill-opacity:1;white-space:pre;opacity:1" text-anchor="middle" transform="translate(197.38)">20</text><text y="462.4" class="xtick" style="font-family:&quot;Open Sans&quot;,verdana,arial,sans-serif;font-size:12px;fill:#000;fill-opacity:1;white-space:pre;opacity:1" text-anchor="middle" transform="translate(263.07)">30</text><text y="462.4" class="xtick" style="font-family:&quot;Open Sans&quot;,verdana,arial,sans-serif;font-size:12px;fill:#000;fill-opacity:1;white-space:pre;opacity:1" text-anchor="middle" transform="translate(328.75)">40</text><text y="462.4" class="xtick" style="font-family:&quot;Open Sans&quot;,verdana,arial,sans-serif;font-size:12px;fill:#000;fill-opacity:1;white-space:pre;opacity:1" text-anchor="middle" transform="translate(394.44)">50</text><text y="462.4" class="xtick" style="font-family:&quot;Open Sans&quot;,verdana,arial,sans-serif;font-size:12px;fill:#000;fill-opacity:1;white-space:pre;opacity:1" text-anchor="middle" transform="translate(460.13)">60</text><text y="462.4" class="xtick" style="font-family:&quot;Open Sans&quot;,verdana,arial,sans-serif;font-size:12px;fill:#000;fill-opacity:1;white-space:pre;opacity:1" text-anchor="middle" transform="translate(525.82)">70</text><text y="462.4" class="xtick" style="font-family:&quot;Open Sans&quot;,verdana,arial,sans-serif;font-size:12px;fill:#000;fill-opacity:1;white-space:pre;opacity:1" text-anchor="middle" transform="translate(591.51)">80</text><text y="462.4" class="xtick" style="font-family:&quot;Open Sans&quot;,verdana,arial,sans-serif;font-size:12px;fill:#000;fill-opacity:1;white-space:pre;opacity:1" text-anchor="middle" transform="translate(657.2)">90</text></g><g class="yaxislayer-above"><path d="M65 0h-5" class="ytick ticks crisp" style="stroke:#444;stroke-opacity:1;stroke-width:1px" transform="translate(0 442)"/><path d="M65 0h-5" class="ytick ticks crisp" style="stroke:#444;stroke-opacity:1;stroke-width:1px" transform="translate(0 359.9)"/><path d="M65 0h-5" class="ytick ticks crisp" style="stroke:#444;stroke-opacity:1;stroke-width:1px" transform="translate(0 277.81)"/><path d="M65 0h-5" class="ytick ticks crisp" style="stroke:#444;stroke-opacity:1;stroke-width:1px" transform="translate(0 195.71)"/><path d="M65 0h-5" class="ytick ticks crisp" style="stroke:#444;stroke-opacity:1;stroke-width:1px" transform="translate(0 113.62)"/><path d="M65 0h-5" class="ytick ticks crisp" style="stroke:#444;stroke-opacity:1;stroke-width:1px" transform="translate(0 31.52)"/><text x="57.6" y="4.2" class="ytick" style="font-family:&quot;Open Sans&quot;,verdana,arial,sans-serif;font-size:12px;fill:#000;fill-opacity:1;white-space:pre;opacity:1" text-anchor="end" transform="translate(0 442)">0</text><text x="57.6" y="4.2" class="ytick" style="font-family:&quot;Open Sans&quot;,verdana,arial,sans-serif;font-size:12px;fill:#000;fill-opacity:1;white-space:pre;opacity:1" text-anchor="end" transform="translate(0 359.9)">20</text><text x="57.6" y="4.2" class="ytick" style="font-family:&quot;Open Sans&quot;,verdana,arial,sans-serif;font-size:12px;fill:#000;fill-opacity:1;white-space:pre;opacity:1" text-anchor="end" transform="translate(0 277.81)">40</text><text x="57.6" y="4.2" class="ytick" style="font-family:&quot;Open Sans&quot;,verdana,arial,sans-serif;font-size:12px;fill:#000;fill-opacity:1;white-space:pre;opacity:1" text-anchor="end" transform="translate(0 195.71)">60</text><text x="57.6" y="4.2" class="ytick" style="font-family:&quot;Open Sans&quot;,verdana,arial,sans-serif;font-size:12px;fill:#000;fill-opacity:1;white-space:pre;opacity:1" text-anchor="end" transform="translate(0 113.62)">80</text><text x="57.6" y="4.2" class="ytick" style="font-family:&quot;Open Sans&quot;,verdana,arial,sans-serif;font-size:12px;fill:#000;fill-opacity:1;white-space:pre;opacity:1" text-anchor="end" transform="translate(0 31.52)">100</text></g></g></g><defs><clipPath id="b"><path d="M0 0h126v48H0z"/></clipPath></defs><g class="infolayer"><g class="legend" pointer-events="all"><path d="M0 0h126v48H0z" class="bg" shape-rendering="crispEdges" style="stroke:#444;stroke-opacity:1;fill:#fff;fill-opacity:1;stroke-width:0" transform="translate(563 11)"/><g class="scrollbox" clip-path="url(#b)" transform="translate(563 11)"><g class="groups"><g class="traces" style="opacity:1"><text x="40" y="4.68" class="legendtext" style="font-family:&quot;Open Sans&quot;,verdana,arial,sans-serif;font-size:12px;fill:#000;fill-opacity:1;white-space:pre" transform="translate(0 14.5)">Zr8 Bi12 O28</text><g class="layers" style="opacity:1"><g class="legendsymbols"><g class="legendpoints"><path d="M6 6H-6V-6H6Z" class="legendundefined" style="stroke-width:.5px;fill:#636efa;fill-opacity:1;stroke:#fff;stroke-opacity:1" transform="translate(20 14.5)"/></g></g></g><path fill="none" d="M0-9.5h120.891v19H0z" class="legendtoggle" style="fill:#000;fill-opacity:0" transform="translate(0 14.5)"/></g><g class="traces" style="opacity:1"><text x="40" y="4.68" class="legendtext" style="font-family:&quot;Open Sans&quot;,verdana,arial,sans-serif;font-size:12px;fill:#000;fill-opacity:1;white-space:pre" transform="translate(0 33.5)">Zr4 Bi4 O14</text><g class="layers" style="opacity:1"><g class="legendsymbols"><g class="legendpoints"><path d="M6 6H-6V-6H6Z" class="legendundefined" style="stroke-width:.5px;fill:#ef553b;fill-opacity:1;stroke:#fff;stroke-opacity:1" transform="translate(20 33.5)"/></g></g></g><path fill="none" d="M0-9.5h120.891v19H0z" class="legendtoggle" style="fill:#000;fill-opacity:0" transform="translate(0 33.5)"/></g></g></g></g><g class="g-xtitle"><text x="377.5" y="489.206" class="xtitle" style="font-family:&quot;Open Sans&quot;,verdana,arial,sans-serif;font-size:14px;fill:#000;opacity:1;white-space:pre" text-anchor="middle">2θ (degrees)</text></g><g class="g-ytitle"><text x="15.303" y="226.5" class="ytitle" style="font-family:&quot;Open Sans&quot;,verdana,arial,sans-serif;font-size:14px;fill:#000;opacity:1;white-space:pre" text-anchor="middle" transform="rotate(-90 15.303 226.5)">Intensity (a.u.)</text></g><g class="annotation" data-index="0" style="opacity:1"><g class="annotation-text-g"><g class="cursor-pointer"><path fill="none" d="M.5.5h114v33H.5z" class="bg" style="stroke-width:1px;stroke:#000;stroke-opacity:0;fill:#000;fill-opacity:0" transform="translate(521 268)"/><text x="57.25" y="14" class="annotation-text" style="font-family:&quot;Open Sans&quot;,verdana,arial,sans-serif;font-size:12px;fill:#000;fill-opacity:1;white-space:pre" text-anchor="middle" transform="translate(521 268)"><tspan x="57.25" y="14" class="line" dy="0em">(6, 2, 4), (4, 0, 8)</tspan><tspan x="57.25" y="14" class="line" dy="1.3em">89.84°</tspan></text></g></g><g class="annotation-arrow-g" style="opacity:1"><path d="m636.16 302.11 20 20" style="stroke-width:1px;stroke:#2a3f5f;stroke-opacity:1;stroke-dasharray:0,0,26.9843px,28.2843px"/><path d="M-3.7-2.5v5l5-2.5Z" style="fill:#2a3f5f;stroke-width:0" transform="rotate(44.988 -60.21 951.782)"/></g></g><g class="annotation" data-index="1" style="opacity:1"><g class="annotation-text-g"><g class="cursor-pointer"><path fill="none" d="M.5.5h54v33H.5z" class="bg" style="stroke-width:1px;stroke:#000;stroke-opacity:0;fill:#000;fill-opacity:0" transform="translate(140 259)"/><text x="27.484" y="14" class="annotation-text" style="font-family:&quot;Open Sans&quot;,verdana,arial,sans-serif;font-size:12px;fill:#000;fill-opacity:1;white-space:pre" text-anchor="middle" transform="translate(140 259)"><tspan x="27.484" y="14" class="line" dy="0em">(0, 0, 1)</tspan><tspan x="27.484" y="14" class="line" dy="1.3em">8.27°</tspan></text></g></g><g class="annotation-arrow-g" style="opacity:1"><path d="m140.3 293.11-20 20" style="stroke-width:1px;stroke:#2a3f5f;stroke-opacity:1;stroke-dasharray:0,0,26.9843px,28.2843px"/><path d="M-3.7-2.5v5l5-2.5Z" style="fill:#2a3f5f;stroke-width:0" transform="rotate(135 -4.047 181.2)"/></g></g><g class="annotation" data-index="2" style="opacity:1"><g class="annotation-text-g"><g class="cursor-pointer"><path fill="none" d="M.5.5h114v33H.5z" class="bg" style="stroke-width:1px;stroke:#000;stroke-opacity:0;fill:#000;fill-opacity:0" transform="translate(461 203)"/><text x="57.25" y="14" class="annotation-text" style="font-family:&quot;Open Sans&quot;,verdana,arial,sans-serif;font-size:12px;fill:#000;fill-opacity:1;white-space:pre" text-anchor="middle" transform="translate(461 203)"><tspan x="57.25" y="14" class="line" dy="0em">(4, 2, 2), (2, 0, 6)</tspan><tspan x="57.25" y="14" class="line" dy="1.3em">57.12°</tspan></text></g></g><g class="annotation-arrow-g" style="opacity:1"><path d="m461.19 236.6-20 20" style="stroke-width:1px;stroke:#2a3f5f;stroke-opacity:1;stroke-dasharray:0,0,26.9843px,28.2843px"/><path d="M-3.7-2.5v5l5-2.5Z" style="fill:#2a3f5f;stroke-width:0" transform="rotate(135 168.101 219.404)"/></g></g><g class="annotation" data-index="3" style="opacity:1"><g class="annotation-text-g"><g class="cursor-pointer"><path fill="none" d="M.5.5h114v33H.5z" class="bg" style="stroke-width:1px;stroke:#000;stroke-opacity:0;fill:#000;fill-opacity:0" transform="translate(402 42)"/><text x="57.25" y="14" class="annotation-text" style="font-family:&quot;Open Sans&quot;,verdana,arial,sans-serif;font-size:12px;fill:#000;fill-opacity:1;white-space:pre" text-anchor="middle" transform="translate(402 42)"><tspan x="57.25" y="14" class="line" dy="0em">(4, 0, 0), (2, 2, 4)</tspan><tspan x="57.25" y="14" class="line" dy="1.3em">48.12°</tspan></text></g></g><g class="annotation-arrow-g" style="opacity:1"><path d="m402.09 75.8-20 20" style="stroke-width:1px;stroke:#2a3f5f;stroke-opacity:1;stroke-dasharray:0,0,26.9843px,28.2843px"/><path d="M-3.7-2.5v5l5-2.5Z" style="fill:#2a3f5f;stroke-width:0" transform="rotate(135 171.854 126.764)"/></g></g><g class="annotation" data-index="4" style="opacity:1"><g class="annotation-text-g"><g class="cursor-pointer"><path fill="none" d="M.5.5h54v33H.5z" class="bg" style="stroke-width:1px;stroke:#000;stroke-opacity:0;fill:#000;fill-opacity:0" transform="translate(281 18)"/><text x="27.484" y="14" class="annotation-text" style="font-family:&quot;Open Sans&quot;,verdana,arial,sans-serif;font-size:12px;fill:#000;fill-opacity:1;white-space:pre" text-anchor="middle" transform="translate(281 18)"><tspan x="27.484" y="14" class="line" dy="0em">(2, 0, 2)</tspan><tspan x="27.484" y="14" class="line" dy="1.3em">28.91°</tspan></text></g></g><g class="annotation-arrow-g" style="opacity:1"><path d="m281.43 37.895-25.5-6.375" style="stroke-width:1px;stroke:#2a3f5f;stroke-opacity:1;stroke-dasharray:0,0,24.9848px,26.2848px"/><path d="M-3.7-2.5v5l5-2.5Z" style="fill:#2a3f5f;stroke-width:0" transform="rotate(-165.964 130.555 .087)"/></g></g><g class="annotation" data-index="5" style="opacity:1"><g class="annotation-text-g"><g class="cursor-pointer"><path fill="none" d="M.5.5h179v33H.5z" class="bg" style="stroke-width:1px;stroke:#000;stroke-opacity:0;fill:#000;fill-opacity:0" transform="translate(593 311)"/><text x="89.75" y="14" class="annotation-text" style="font-family:&quot;Open Sans&quot;,verdana,arial,sans-serif;font-size:12px;fill:#000;fill-opacity:1;white-space:pre" text-anchor="middle" transform="translate(593 311)"><tspan x="89.75" y="14" class="line" dy="0em">(6, 4, 4), (6, 2, 2), (4, 0, -2)</tspan><tspan x="89.75" y="14" class="line" dy="1.3em">77.13°</tspan></text></g></g><g class="annotation-arrow-g" style="opacity:1"><path d="m592.65 345.47-20 20" style="stroke-width:1px;stroke:#2a3f5f;stroke-opacity:1;stroke-dasharray:0,0,26.9843px,28.2843px"/><path d="M-3.7-2.5v5l5-2.5Z" style="fill:#2a3f5f;stroke-width:0" transform="rotate(135.012 211.307 301.03)"/></g></g><g class="annotation" data-index="6" style="opacity:1"><g class="annotation-text-g"><g class="cursor-pointer"><path fill="none" d="M.5.5h54v33H.5z" class="bg" style="stroke-width:1px;stroke:#000;stroke-opacity:0;fill:#000;fill-opacity:0" transform="translate(304 243)"/><text x="27.484" y="14" class="annotation-text" style="font-family:&quot;Open Sans&quot;,verdana,arial,sans-serif;font-size:12px;fill:#000;fill-opacity:1;white-space:pre" text-anchor="middle" transform="translate(304 243)"><tspan x="27.484" y="14" class="line" dy="0em">(2, 2, 0)</tspan><tspan x="27.484" y="14" class="line" dy="1.3em">33.24°</tspan></text></g></g><g class="annotation-arrow-g" style="opacity:1"><path d="m304.36 277.06-20 20" style="stroke-width:1px;stroke:#2a3f5f;stroke-opacity:1;stroke-dasharray:0,0,26.9843px,28.2843px"/><path d="M-3.7-2.5v5l5-2.5Z" style="fill:#2a3f5f;stroke-width:0" transform="rotate(135 81.307 207.154)"/></g></g><g class="annotation" data-index="7" style="opacity:1"><g class="annotation-text-g"><g class="cursor-pointer"><path fill="none" d="M.5.5h179v33H.5z" class="bg" style="stroke-width:1px;stroke:#000;stroke-opacity:0;fill:#000;fill-opacity:0" transform="translate(458 202)"/><text x="89.75" y="14" class="annotation-text" style="font-family:&quot;Open Sans&quot;,verdana,arial,sans-serif;font-size:12px;fill:#000;fill-opacity:1;white-space:pre" text-anchor="middle" transform="translate(458 202)"><tspan x="89.75" y="14" class="line" dy="0em">(4, 4, 2), (4, 2, 0), (2, 2, -2)</tspan><tspan x="89.75" y="14" class="line" dy="1.3em">56.63°</tspan></text></g></g><g class="annotation-arrow-g" style="opacity:1"><path d="m458 235.99-20 20" style="stroke-width:1px;stroke:#2a3f5f;stroke-opacity:1;stroke-dasharray:0,0,26.9843px,28.2843px"/><path d="M-3.7-2.5v5l5-2.5Z" style="fill:#2a3f5f;stroke-width:0" transform="rotate(135 166.633 218.439)"/></g></g><g class="annotation" data-index="8" style="opacity:1"><g class="annotation-text-g"><g class="cursor-pointer"><path fill="none" d="M.5.5h119v33H.5z" class="bg" style="stroke-width:1px;stroke:#000;stroke-opacity:0;fill:#000;fill-opacity:0" transform="translate(399 193)"/><text x="59.984" y="14" class="annotation-text" style="font-family:&quot;Open Sans&quot;,verdana,arial,sans-serif;font-size:12px;fill:#000;fill-opacity:1;white-space:pre" text-anchor="middle" transform="translate(399 193)"><tspan x="59.984" y="14" class="line" dy="0em">(4, 2, 2), (2, 0, -2)</tspan><tspan x="59.984" y="14" class="line" dy="1.3em">47.72°</tspan></text></g></g><g class="annotation-arrow-g" style="opacity:1"><path d="m399.47 227.42-20 20" style="stroke-width:1px;stroke:#2a3f5f;stroke-opacity:1;stroke-dasharray:0,0,26.9843px,28.2843px"/><path d="M-3.7-2.5v5l5-2.5Z" style="fill:#2a3f5f;stroke-width:0" transform="rotate(135 139.143 202.032)"/></g></g><g class="annotation" data-index="9" style="opacity:1"><g class="annotation-text-g"><g class="cursor-pointer"><path fill="none" d="M.5.5h114v33H.5z" class="bg" style="stroke-width:1px;stroke:#000;stroke-opacity:0;fill:#000;fill-opacity:0" transform="translate(219 18)"/><text x="57.25" y="14" class="annotation-text" style="font-family:&quot;Open Sans&quot;,verdana,arial,sans-serif;font-size:12px;fill:#000;fill-opacity:1;white-space:pre" text-anchor="middle" transform="translate(219 18)"><tspan x="57.25" y="14" class="line" dy="0em">(2, 2, 2), (2, 0, 0)</tspan><tspan x="57.25" y="14" class="line" dy="1.3em">28.68°</tspan></text></g></g></g></g></svg>